<svg width="100" height="132" viewBox="0 0 100 132" fill="none" xmlns="http://www.w3.org/2000/svg">
<path fill-rule="evenodd" clip-rule="evenodd" d="M28.6094 90.7966C29.4575 91.4518 29.0657 93.0986 28.6202 93.8808C28.5182 94.1171 28.4663 94.8009 28.4448 95.0694C28.4037 95.5795 28.3912 96.1147 28.325 96.6195L28.2015 97.5664L27.2551 97.4429C25.2531 97.1816 23.1956 97.1028 21.1811 96.9363C18.7265 96.7341 15.5759 96.4172 13.3574 95.3128C12.4432 94.8582 11.5826 94.2209 11.3662 93.1594C11.232 92.5007 11.3894 91.8492 11.5701 91.2155C11.7454 90.5997 11.9279 90.0126 12.012 89.3718C12.1194 88.5484 12.47 87.7912 13.2197 87.3706C14.7207 86.5293 16.6816 87.5711 18.1558 88.0096C21.4101 88.9798 24.7718 90.163 28.1461 90.6051L28.4019 90.6391L28.6059 90.7966H28.6094Z" fill="#000001"/>
<path fill-rule="evenodd" clip-rule="evenodd" d="M28.0262 91.552C24.6573 91.1116 21.1471 89.8962 17.8874 88.926C16.3023 88.4535 13.3073 86.8514 12.962 89.4953C12.64 91.9601 11.2051 93.1701 13.7868 94.4571C17.1217 96.1183 23.3388 95.9661 27.3821 96.4959C27.4662 95.848 27.4859 93.9488 27.7829 93.4279C28.0781 92.907 28.3178 91.7757 28.028 91.5538L28.0262 91.552Z" fill="white"/>
<path fill-rule="evenodd" clip-rule="evenodd" d="M49.0141 125.612C49.1375 124.812 49.1339 124.003 49.1053 123.194H30.259C30.2536 123.906 30.2429 124.619 30.2304 125.331C30.2107 126.378 30.2017 127.465 30.123 128.51C30.0085 130.001 29.1873 131.415 27.5306 131.415C25.2746 131.415 21.0004 131.58 19.0825 130.497C18.1915 129.994 18.1021 128.686 18.1808 127.78C18.2506 126.967 18.5082 125.839 19.2489 125.378C20.0021 124.907 20.7535 124.549 21.5479 124.198L22.8539 111.856C22.9702 110.76 23.0829 109.667 23.1956 108.571C23.8934 101.852 24.6609 95.2573 26.0689 88.6361L26.2299 87.8789H27.0028C27.5163 87.8789 28.0602 87.9237 28.5719 87.9523C29.5863 88.0114 30.5989 88.0794 31.6133 88.1474C34.483 88.3407 37.351 88.5466 40.2189 88.7614C43.2406 88.9887 46.2624 89.2196 49.2806 89.4845C50.2861 89.5722 51.2934 89.6617 52.2953 89.7709C52.5905 89.8032 52.8874 89.8372 53.1809 89.8801C53.6407 89.9499 54.079 90.0627 54.2561 90.5943L54.2704 90.6373L54.2811 90.682C54.7445 92.6994 55.063 94.7776 55.3331 96.8289C55.648 99.2293 55.8931 101.64 56.0989 104.052C56.2635 105.974 56.403 107.898 56.5247 109.823C56.573 110.598 56.6535 111.371 56.7322 112.144C56.8503 113.299 57.0167 114.561 57.0167 115.717C57.0167 117.734 57.0918 119.641 57.3065 121.644C57.5266 123.691 57.6536 125.637 57.6912 127.701C57.7144 128.972 57.5802 130.314 56.505 131.165C55.7375 131.773 53.6585 131.89 52.6692 131.872C51.5742 131.85 50.372 131.85 49.2878 131.695C48.5274 131.585 47.776 131.374 47.2429 130.783C47.123 130.651 47.021 130.506 46.9333 130.352C46.5075 129.597 46.2052 128.72 46.436 127.85C46.7526 126.654 47.9066 126.008 49.0194 125.614L49.0141 125.612Z" fill="#000001"/>
<path fill-rule="evenodd" clip-rule="evenodd" d="M56.0559 115.717C56.0559 121.982 56.6177 121.5 56.7322 127.719C56.7501 128.653 56.7036 129.786 55.9074 130.418C55.3922 130.826 53.3723 130.932 52.6817 130.918C49.354 130.855 48.2555 130.762 47.7581 129.881C46.8314 128.238 47.225 127.123 49.8424 126.344C50.1555 124.987 50.0804 123.734 50.0195 122.238H29.3072C29.3072 123.534 29.2625 127.205 29.1694 128.435C29.0639 129.829 28.3608 130.458 27.5288 130.458C25.7827 130.458 21.2348 130.613 19.5495 129.663C18.8285 129.255 19.0664 126.611 19.7516 126.185C20.5478 125.687 21.1364 125.408 22.4371 124.851L23.8004 111.956C24.5929 104.469 25.2316 97.16 26.9993 88.8347C28.6094 88.8347 53.2524 90.6158 53.3472 90.8968C54.444 95.6672 55.156 103.327 55.5675 109.883C55.682 111.718 56.0559 114.426 56.0559 115.717Z" fill="white"/>
<path fill-rule="evenodd" clip-rule="evenodd" d="M89.5066 41.1724C89.6945 41.926 89.8627 42.685 90.0112 43.4475C90.5372 46.1415 90.8395 48.907 90.9021 51.6511C90.9576 54.0139 90.8431 56.4805 90.4048 58.8057C89.5263 63.4633 88.4153 68.1209 87.0914 72.6711C86.0251 76.3334 84.8031 80.0029 83.3092 83.5131C82.1087 86.3306 80.5862 89.4273 78.6415 91.808C74.9363 96.342 71.0897 96.9882 65.5686 97.9656C62.2498 98.5545 59.0992 98.4918 55.784 97.9369C53.6264 97.5753 51.5027 97.033 49.3862 96.487C47.1087 95.8999 44.8419 95.3164 42.5304 94.8671C39.4871 94.2764 36.485 93.5371 33.5098 92.6689C30.1338 91.6844 26.8043 90.5478 23.4908 89.3736C19.2185 87.861 15.0839 85.7238 11.4234 83.0477C8.45709 80.8782 5.52119 78.1467 3.51203 75.0464C-0.286213 69.1824 -0.347042 62.6882 1.64959 56.1762C1.89827 55.3653 2.19705 54.5742 2.54056 53.7973C3.44226 51.7603 4.63559 49.8342 5.76987 47.9207C7.32459 45.3002 8.76124 42.6904 10.0565 39.9302C11.7276 36.3699 13.6526 32.8525 15.7137 29.5052C17.1914 27.1066 18.7766 24.7367 20.5174 22.5188C21.9308 20.7199 23.6 18.8046 25.4356 17.4263C25.9544 17.0361 26.4912 16.6727 27.044 16.3326C26.484 14.693 25.9383 13.0659 25.5412 11.3689C25.0474 9.26032 24.7074 6.96553 25.7218 4.94999C27.2068 1.99828 31.1088 0.661153 34.2379 0.865213C36.7409 1.02989 39.4979 1.63849 41.0293 3.81871C42.5268 5.94702 42.3944 8.97929 42.1314 11.4459C42.0795 11.9328 42.0277 12.4197 41.9776 12.9083C45.282 13.1697 48.5847 13.4883 51.8695 13.9412C56.9022 14.6339 62.4198 15.6757 67.1072 17.6733C70.578 19.1519 74.3226 20.6698 77.4177 22.8482C79.2766 24.1567 80.8528 25.6764 82.3091 27.3787C82.4469 27.1657 82.5882 26.9527 82.7331 26.7432C86.4902 21.2945 92.0132 19.7694 97.1944 24.4843C99.5864 26.6609 100.252 30.7153 99.615 33.7726C98.9191 37.1109 92.9757 39.9176 89.4995 41.1706L89.5066 41.1724Z" fill="#000001"/>
<path fill-rule="evenodd" clip-rule="evenodd" d="M82.4218 29.0075C82.7671 28.4419 83.1249 27.8655 83.5239 27.2873C86.7675 22.5814 91.607 20.6876 96.5592 25.193C98.6579 27.103 99.2661 30.8011 98.6883 33.5792C98.105 36.3823 92.3388 39.2588 88.3598 40.5584C90.0702 46.8467 90.36 53.9011 89.4673 58.6302C87.4671 69.236 83.1929 84.7302 77.9008 91.2064C74.5784 95.2733 71.4028 95.9643 65.4004 97.0293C57.0739 98.5043 51.2254 95.5884 42.7129 93.9326C35.9877 92.6259 30.3645 90.7983 23.8075 88.4767C14.8907 85.3209 7.69672 79.7558 4.31175 74.529C0.651268 68.878 0.658424 62.6613 2.56202 56.4572C4.05234 51.5955 7.10632 48.4702 10.9225 40.3364C14.2967 33.1424 20.7911 22.1124 26.0117 18.1923C26.7237 17.6589 27.4537 17.1846 28.2015 16.7639C27.6272 15.0795 26.951 13.2 26.4733 11.1559C25.9759 9.02754 25.7362 7.05675 26.577 5.3831C27.8527 2.85025 31.3468 1.63663 34.1789 1.82279C40.8558 2.25955 41.7951 5.66412 41.1868 11.3474C41.0937 12.2227 41.0079 13.0336 40.9309 13.814C41.0436 13.814 41.1581 13.814 41.2709 13.814C49.5812 14.4512 59.7343 15.57 66.7386 18.5557C74.3494 21.7992 77.9258 23.378 82.4218 29.0111V29.0075Z" fill="white"/>
<path fill-rule="evenodd" clip-rule="evenodd" d="M83.8603 31.145C84.2038 30.778 84.5616 30.4272 84.9445 30.1014C86.1557 29.0793 87.6442 27.5882 89.2794 27.3949C90.5085 27.2481 91.5623 27.8227 92.4461 28.6264C93.7146 29.7792 94.6861 32.5161 94.3336 34.2058C93.9114 36.2339 89.7428 38.0114 88.0128 38.9422L87.2685 39.3432L86.9966 38.543C86.2469 36.3395 85.2558 34.1181 83.9104 32.21L83.4595 31.571L83.8603 31.145ZM37.0826 14.7575C34.7246 15.0332 32.4113 15.5863 30.234 16.5475L29.479 16.8804L29.2571 16.0857C28.7311 14.2026 27.0977 9.93882 28.2677 8.22042C29.2947 6.70966 31.9085 6.54856 33.5635 6.65596C34.7836 6.73651 36.1237 7.00143 36.8912 8.05037C37.6712 9.11721 37.6515 10.8553 37.7374 12.1298C37.7804 12.7867 37.7571 13.4365 37.7142 14.0916L37.6748 14.6877L37.0826 14.7575Z" fill="#000001"/>
<path fill-rule="evenodd" clip-rule="evenodd" d="M84.3809 31.6354C84.7047 31.2917 85.0375 30.9606 85.406 30.6491C87.6585 28.7481 89.41 26.831 91.9631 29.1563C93.0473 30.1408 93.9311 32.6253 93.6323 34.0591C93.3013 35.6468 89.5406 37.3061 87.6728 38.3103C86.8498 35.8902 85.7961 33.6527 84.4936 31.7947L84.3809 31.6336V31.6354ZM36.9985 14.0469C37.0397 13.4239 37.0647 12.8118 37.0218 12.1781C36.825 9.23534 36.9609 7.5957 33.5151 7.37016C32.0535 7.2735 29.6811 7.41133 28.8563 8.62316C27.9403 9.96924 29.3734 13.8571 29.9423 15.8924C32.1841 14.9025 34.5546 14.3315 36.9967 14.0469H36.9985Z" fill="white"/>
<path fill-rule="evenodd" clip-rule="evenodd" d="M45.4466 44.185C53.222 46.4529 60.1172 51.1194 60.1172 59.9978C60.1172 62.9102 60.0009 65.8529 59.6663 68.7473C59.4141 70.9419 59.0276 73.2313 58.3317 75.331C56.5283 80.7743 53.3544 85.4266 48.2018 88.1599C44.6397 90.0501 38.4566 89.2894 34.6512 88.278C30.8476 87.2667 24.9758 84.9415 22.6822 81.6103C20.5066 78.4491 19.0628 73.1651 19.4296 69.3273C19.664 66.866 20.0379 64.5337 20.6802 62.1458C21.2062 60.1876 21.852 58.2526 22.4317 56.3086C22.7287 55.3116 23.2726 54.2555 23.7789 53.3498C24.4605 52.1343 25.2352 50.9512 26.0671 49.8324C27.3947 48.0496 29.7831 45.2249 32.0141 44.6539C33.474 44.2798 35.0037 44.1044 36.5065 44.0257C38.1382 43.9397 39.7734 43.9648 41.4068 44.0257C42.6807 44.0722 43.9724 44.1581 45.2444 44.1581H45.3464L45.4448 44.1867L45.4466 44.185Z" fill="#000001"/>
<path fill-rule="evenodd" clip-rule="evenodd" d="M45.2462 44.8723C53.1773 47.1867 59.4015 51.7763 59.4015 59.9978C59.4015 63.9984 59.1582 70.557 57.6518 75.1054C55.9092 80.3644 52.857 84.8788 47.8672 87.528C44.7095 89.2034 38.9576 88.6825 34.8355 87.587C31.2949 86.6455 25.466 84.3901 23.2726 81.2057C21.3189 78.3667 19.7731 73.2688 20.1434 69.3971C20.6838 63.7353 21.6302 61.5085 23.1187 56.5144C23.9972 53.5663 28.8367 46.2094 32.193 45.3502C36.5834 44.2261 42.305 44.8741 45.2462 44.8741V44.8723Z" fill="white"/>
<path fill-rule="evenodd" clip-rule="evenodd" d="M50.5133 41.831C53.0503 43.1055 55.1578 45.1193 53.8178 47.4284C52.8212 49.1432 49.1321 49.8574 46.8689 49.9397C44.7363 50.0167 42.7469 50.0776 41.3102 48.5274C39.8181 46.9182 37.2186 43.3042 37.5585 40.723C37.6891 39.7314 39.2438 39.0118 41.3174 39.053C43.7488 39.1031 48.268 40.7033 50.5133 41.8292V41.831Z" fill="black"/>
<path fill-rule="evenodd" clip-rule="evenodd" d="M79.0619 57.3521C77.1422 57.3521 75.9739 58.7125 75.7718 60.4864C75.6412 61.632 75.7378 62.3946 76.4659 63.2341C77.2102 64.0933 79.2211 64.0324 79.8903 63.1249C80.4252 62.3999 80.7741 61.1935 80.7741 60.4846C80.7741 59.2227 80.4824 57.4542 79.0619 57.3503V57.3521Z" fill="black"/>
<path fill-rule="evenodd" clip-rule="evenodd" d="M47.9442 100.908C49.2484 102.938 50.2646 109.865 50.2646 112.298C50.3666 115.395 48.4219 120.711 44.6845 120.711C40.947 120.711 28.4985 121.866 28.1371 116.079V116.057V116.036C28.1371 111.46 27.5378 105.299 29.2911 101.026C30.2339 98.728 32.0642 96.6516 34.6977 96.5406C40.1652 96.3079 45.0065 95.071 47.9478 100.91L47.9442 100.908Z" fill="#000001"/>
<path fill-rule="evenodd" clip-rule="evenodd" d="M49.549 112.321C49.549 110.041 48.54 103.094 47.3216 101.265C44.6254 95.8695 40.3799 97.0133 34.7246 97.2532C32.5365 97.3463 30.8691 99.0575 29.9495 101.297C28.2606 105.414 28.8492 112.082 28.8492 116.034C29.1587 121.001 40.7252 119.993 44.6827 119.993C48.0336 119.993 49.6313 114.822 49.549 112.32V112.321Z" fill="white"/>
<path fill-rule="evenodd" clip-rule="evenodd" d="M31.0283 71.8709C31.0015 71.8315 30.946 71.8225 30.9066 71.8494C30.8673 71.878 30.8583 71.9317 30.8852 71.9711C31.2573 72.5009 31.6133 73.0881 31.9658 73.6734C32.1536 73.9831 32.3415 74.2945 32.524 74.5845C33.6332 76.3459 34.8552 78.1538 36.2077 80.0136C37.5603 81.8734 39.0434 83.7887 40.6751 85.7613C41.7325 87.0393 42.8793 88.7166 44.0458 90.4224C45.5754 92.6581 47.1373 94.9404 48.5775 96.4458C46.7222 97.953 44.103 99.9076 41.3299 101.782C39.0273 103.337 36.6174 104.839 34.4526 105.981C32.4345 107.046 29.9226 108.56 27.4662 110.136C24.6573 111.936 21.9164 113.821 20.0665 115.209C20.0272 115.237 20.02 115.293 20.0486 115.33C20.0773 115.37 20.1327 115.377 20.1703 115.348C22.0148 113.966 24.7504 112.085 27.5592 110.282C30.0121 108.709 32.5204 107.197 34.5331 106.135C36.7069 104.989 39.1204 103.484 41.4283 101.927C44.2408 100.028 46.8958 98.0425 48.76 96.5245L48.769 96.5174C48.803 96.4834 48.8047 96.4279 48.769 96.3939C47.3198 94.8992 45.7382 92.5865 44.1907 90.324C43.0206 88.6145 41.8702 86.9337 40.8093 85.6503C39.1794 83.6813 37.6998 81.7696 36.3491 79.9133C34.9983 78.0553 33.7781 76.251 32.6725 74.4932C32.4828 74.1907 32.2986 73.8882 32.1143 73.5839C31.7583 72.995 31.3986 72.4025 31.0265 71.8727L31.0283 71.8709Z" fill="black"/>
<path fill-rule="evenodd" clip-rule="evenodd" d="M14.7297 89.5401C14.2233 89.413 13.6759 89.2537 13.2215 88.9942L12.8261 88.7704L12.937 88.3301C13.5453 85.9208 14.5024 83.5401 15.4095 81.2292C16.3327 78.8771 17.1736 76.8938 18.9448 75.0376C20.1882 73.7327 23.5445 72.417 25.3175 71.8693C26.8579 71.3931 28.4789 71.1497 30.0908 71.2374C30.191 71.2428 30.293 71.2535 30.3932 71.266C30.8691 71.3287 31.6116 71.479 31.6169 72.1002C31.6241 72.7911 30.7689 72.8752 30.2679 72.9271C29.0925 73.0489 26.9349 73.6449 25.8686 74.1479C25.4284 74.3556 24.9776 74.5399 24.5267 74.7243C23.6089 75.0984 22.7842 75.4618 21.9451 76.0024C20.9503 76.6432 20.0308 77.7566 19.4761 78.7983C18.748 80.1623 18.1611 81.2703 17.6584 82.7525C17.3453 83.6779 17.0376 84.6069 16.7263 85.5323C16.3166 86.7477 15.9051 87.9936 15.4292 89.1839L15.2342 89.6672L14.7279 89.5401H14.7297ZM18.9108 115.556C17.4473 114.869 16.1395 113.888 15.007 112.735C13.7081 111.41 11.3751 108.659 10.901 106.919C10.2229 104.444 10.4233 102.299 10.7257 99.7897C11.0227 97.3249 11.3089 94.7741 11.9172 92.3648L12.0281 91.9244L12.4826 91.9137C13.0068 91.9029 13.5632 92.0229 14.0695 92.15L14.5758 92.2771L14.5168 92.7944C14.3718 94.0688 14.1446 95.3594 13.9281 96.6232C13.7636 97.5862 13.5936 98.5492 13.4308 99.514C13.1696 101.057 13.1606 102.312 13.1553 103.858C13.1499 105.058 13.6508 106.192 14.2198 107.224C14.9444 108.537 15.6868 109.781 16.576 110.988C17.2755 111.937 18.8929 113.487 19.8697 114.153C20.2848 114.435 20.9987 114.915 20.6641 115.52C20.3242 116.136 19.3867 115.778 18.9126 115.554L18.9108 115.556Z" fill="#000001"/>
<path fill-rule="evenodd" clip-rule="evenodd" d="M30.0568 71.8317C28.8367 71.7637 27.2927 71.88 25.4928 72.4367C23.2833 73.1205 20.3599 74.4146 19.3759 75.4475C17.6852 77.2214 16.8998 79.0633 15.9641 81.4458C15.1394 83.549 14.1035 86.1463 13.5149 88.4751C13.9138 88.7024 14.4416 88.851 14.8746 88.9602C15.4829 87.4441 16.4382 84.4941 17.0931 82.5591C17.687 80.8085 18.1808 79.9547 18.9501 78.5155C19.5817 77.3306 20.5872 76.1653 21.623 75.4976C23.1277 74.5274 24.2798 74.2356 25.6145 73.6056C26.62 73.1312 28.9798 72.4582 30.2071 72.3311C31.7511 72.17 30.7474 71.8693 30.0586 71.8317H30.0568ZM19.1648 115.015C18.0574 114.495 16.7549 113.66 15.4346 112.316C13.8136 110.666 11.8546 108.138 11.4771 106.762C10.8294 104.397 11.0119 102.403 11.3196 99.8613C11.5898 97.6184 11.91 94.8403 12.4969 92.5115C12.9549 92.5008 13.4898 92.6207 13.9246 92.7299C13.7403 94.3535 13.1821 97.4018 12.8422 99.4174C12.5344 101.24 12.5649 102.226 12.5577 103.858C12.5523 105.201 13.1016 106.436 13.6956 107.514C14.5597 109.082 15.2181 110.156 16.0947 111.344C16.7549 112.239 18.5136 113.952 19.5316 114.647C20.8144 115.52 19.7874 115.309 19.163 115.015H19.1648Z" fill="white"/>
<path fill-rule="evenodd" clip-rule="evenodd" d="M16.0017 86.105C16.6458 86.4773 16.9553 87.0788 16.7674 87.8234C16.4561 89.0567 16.1144 90.2829 15.8031 91.5144C15.5866 92.3718 15.3898 93.2489 15.2395 94.1206C15.2038 94.3301 15.1733 94.5323 15.1143 94.7382C14.8764 95.5705 14.2555 96.0144 13.3717 95.7925C12.5219 95.5777 10.867 95.4667 10.8115 94.3122C10.774 93.5156 11.0513 92.2304 11.2284 91.4446C11.359 90.8628 11.5093 90.2739 11.6953 89.7083C11.749 89.5454 11.783 89.3127 11.817 89.1426C11.8832 88.799 11.9476 88.4553 12.0174 88.1134C12.1211 87.605 12.3215 86.4809 12.6954 86.1515C12.7509 86.0853 12.8028 85.9833 12.8565 85.9099C13.1105 85.5591 13.4683 85.3783 13.912 85.4463C14.633 85.5573 15.3684 85.7381 16.0053 86.105H16.0017Z" fill="#000001"/>
<path fill-rule="evenodd" clip-rule="evenodd" d="M15.7029 86.6224C16.0822 86.8426 16.3184 87.163 16.1896 87.6785C15.9892 88.4733 15.4703 90.3993 15.2252 91.3713C15.0088 92.2287 14.7869 93.2418 14.6509 94.0205C14.5633 94.527 14.4702 95.456 13.5167 95.2144C12.7849 95.03 11.4359 94.9119 11.4055 94.2854C11.3715 93.5587 11.8081 91.2746 12.2607 89.8945C12.402 89.4667 12.7652 86.8837 13.1052 86.5812C13.2912 86.4166 13.3771 85.9673 13.8172 86.0353C14.4684 86.1373 15.1429 86.2966 15.7029 86.6206V86.6224Z" fill="white"/>
<path fill-rule="evenodd" clip-rule="evenodd" d="M15.1 91.9833C15.0642 92.0925 15.0195 92.1945 14.964 92.2876C14.8585 92.4612 14.6867 92.6062 14.4935 92.7208C14.6671 93.2309 14.6796 93.7751 14.4255 94.1886C14.0498 94.7972 13.2966 95.3252 12.5702 95.3664C12.0407 95.395 11.2284 95.1337 10.7937 94.8276C9.55382 93.9559 9.66653 91.4481 9.87407 90.1485C9.90269 89.9373 9.95994 89.6975 10.0261 89.4558C9.68263 89.2947 9.34628 89.1085 9.13517 88.8758C8.31934 87.9826 7.98836 86.0047 9.24073 85.3424C9.44289 85.235 9.66832 85.1831 9.89732 85.1849C10.4716 85.1938 11.7651 85.5805 12.3215 85.8543L12.7796 86.0799L13.3413 86.3054C12.8458 86.9337 12.7903 87.6264 12.6239 88.1348C12.7295 88.1921 13.8494 88.6378 13.9425 88.6951C14.3146 87.8699 15.041 87.2344 15.9319 87.2935C17.0054 87.3651 17.6745 87.7535 18.4224 88.5017L18.9126 88.9922L18.5977 89.6097C18.4671 89.8854 18.4188 90.775 18.4188 91.1044V92.0585H17.4652C16.9481 92.0585 16.4168 92.1605 15.8872 92.1605C15.6421 92.1605 15.3666 92.0943 15.1018 91.9833H15.1Z" fill="#000001"/>
<path fill-rule="evenodd" clip-rule="evenodd" d="M17.7443 89.1767C17.1557 88.5878 16.6959 88.3014 15.8657 88.2459C15.0105 88.1886 14.1858 89.8515 14.8692 90.6928C15.1018 90.9792 15.6331 91.2065 15.8854 91.2065C16.3309 91.2065 17.0823 91.1045 17.4634 91.1045C17.4634 90.6266 17.5278 89.6027 17.7461 89.1785L17.7443 89.1767ZM11.8993 86.7101C11.9709 87.2506 11.6399 88.0615 11.4681 88.5305C11.6113 88.6969 13.3932 89.4112 13.8601 89.8068C14.1804 90.077 14.2734 90.4404 14.2734 90.5711C14.2734 90.8951 14.2895 91.5556 14.1464 91.7901C14.1088 91.8509 13.853 91.9959 13.5882 92.0711C13.3252 92.1463 13.0515 92.1552 12.9835 92.2054C13.5649 92.5258 13.7492 93.4584 13.6097 93.6857C13.4451 93.9524 12.9835 94.3856 12.513 94.4106C12.1909 94.4285 11.5862 94.2173 11.3375 94.0437C10.6648 93.5711 10.5807 91.7417 10.8151 90.2757C10.8455 90.0502 11.0262 89.4094 11.1854 88.9243C10.8294 88.7596 10.0404 88.4553 9.83468 88.2298C9.16377 87.4941 9.2246 86.1283 9.87762 86.1373C10.1424 86.1408 11.3751 86.4541 11.8957 86.7101H11.8993Z" fill="white"/>
<path fill-rule="evenodd" clip-rule="evenodd" d="M43.7845 47.9458C43.9635 47.7327 43.9384 47.4141 43.7255 47.2351C43.5126 47.0543 43.1941 47.0812 43.0152 47.2942C41.9865 48.5114 40.9041 50.2853 39.9559 52.1362C38.8842 54.2269 37.9789 56.4232 37.512 58.027L37.1023 59.4143C36.0396 62.9925 35.0573 66.3004 35.0573 69.9305C35.0573 70.2098 35.2828 70.4353 35.5619 70.4353C35.841 70.4353 36.0664 70.208 36.0664 69.9305C36.0664 66.4365 37.0271 63.2001 38.0666 59.6989L38.4763 58.3081C38.9272 56.7615 39.8074 54.6296 40.8504 52.5944C41.7647 50.8098 42.8041 49.1057 43.7845 47.9458ZM52.0233 73.4264C52.0484 73.149 51.8462 72.9037 51.5689 72.8769C51.2916 72.8518 51.0465 73.0541 51.0196 73.3315C50.9785 73.7468 50.9588 73.9777 50.9391 74.2033C50.7763 76.115 50.6439 77.6472 49.2735 79.0452C48.7904 79.5375 48.0927 79.9349 47.3341 80.2606C46.5433 80.6007 45.7007 80.8585 44.96 81.0661C44.697 81.1395 44.4447 81.195 44.1996 81.2344C42.6878 81.4725 41.3818 81.1001 40.3566 80.3143C39.3154 79.516 38.5514 78.2863 38.1435 76.8292C38.0505 76.4998 37.9771 76.1615 37.9235 75.8179C37.8805 75.544 37.6229 75.3542 37.3492 75.3972C37.0754 75.4402 36.8858 75.6979 36.9287 75.9718C36.9896 76.3602 37.0719 76.7379 37.1738 77.0977C37.6408 78.766 38.5264 80.1819 39.7448 81.1162C40.981 82.0632 42.5465 82.5142 44.3535 82.2278C44.6433 82.1831 44.9349 82.1186 45.2283 82.0363C46.012 81.8161 46.9029 81.5441 47.7331 81.1879C48.5954 80.8173 49.4023 80.3519 49.9909 79.7505C51.6208 78.0894 51.7657 76.3978 51.9446 74.2838C51.9732 73.9491 52.0019 73.6036 52.0197 73.4246L52.0233 73.4264Z" fill="black"/>
<path fill-rule="evenodd" clip-rule="evenodd" d="M46.1944 99.4495C45.7203 99.4316 45.1192 99.1524 44.6737 98.9931L44.6021 98.968L44.5377 98.9286C44.3731 98.8266 43.9849 98.755 43.7881 98.6959C43.5788 98.6315 43.3784 98.5509 43.1906 98.4364C42.6127 98.0784 42.1081 97.9584 41.6841 97.3463C41.1456 96.573 41.2297 95.8266 41.0025 94.996L40.6375 93.666L41.9346 94.1332C42.2155 94.2352 42.5322 94.3731 42.8077 94.4554C43.1297 94.5395 43.45 94.604 43.7702 94.7024C44.6218 94.9638 45.4949 95.1535 46.3394 95.4381L46.6542 95.5455L46.7759 95.8552C46.826 95.9823 46.9387 96.1577 47.0103 96.2776C47.1623 96.5354 47.3144 96.7896 47.4611 97.0509C47.8064 97.6649 48.3861 98.6959 47.878 99.36C47.4343 99.9382 46.733 99.5569 46.1962 99.4549L46.1944 99.4495Z" fill="#000001"/>
<path fill-rule="evenodd" clip-rule="evenodd" d="M41.6913 94.8026C41.8559 95.4004 41.8613 96.3455 42.271 96.9345C42.5859 97.3873 43.1208 97.5484 43.5663 97.8241C43.9885 98.0836 44.5288 98.0801 44.9135 98.3181C45.2552 98.4399 45.935 98.7352 46.241 98.7334C46.4038 98.7334 47.2125 99.0413 47.3073 98.9178C47.6508 98.4685 46.2964 96.5926 46.1086 96.1111C45.3089 95.8408 44.3928 95.6367 43.5591 95.3807C43.2138 95.2751 43.0081 95.2411 42.627 95.1427C42.525 95.1176 42.2155 94.9905 41.6913 94.8008V94.8026Z" fill="white"/>
<path fill-rule="evenodd" clip-rule="evenodd" d="M8.568 86.0388L48.4022 96.9649L48.5543 96.3384L8.83637 85.0686L6.90414 85.0829L8.568 86.0388Z" fill="black"/>
<path fill-rule="evenodd" clip-rule="evenodd" d="M48.0265 92.7781C48.5364 92.9732 49.3343 93.0179 49.4077 93.7447C49.49 94.5716 48.5614 95.0299 47.9621 95.3736C47.6651 95.5436 47.3949 95.7602 47.0944 95.9249C46.5398 96.2256 46.3752 96.3402 45.7114 96.1683C44.96 95.975 44.2193 95.7405 43.4697 95.5454C43.1476 95.4613 42.8399 95.3467 42.5214 95.2483C42.4374 95.2214 42.3461 95.2035 42.2602 95.182C41.8076 95.0746 41.2941 94.9278 41.1993 94.3837C41.16 94.1546 41.2261 93.9237 41.3693 93.7429C41.8452 93.145 42.3658 92.5096 43.085 92.1999C43.7774 91.8992 44.171 92.0621 44.8634 92.1086C45.3482 92.1408 45.9082 92.3538 46.3447 92.3538H46.4199L46.4932 92.3699C46.9548 92.4684 47.615 92.5471 48.0265 92.7816V92.7781Z" fill="#000001"/>
<path fill-rule="evenodd" clip-rule="evenodd" d="M41.9275 94.1869C42.3247 93.6875 42.7934 93.1021 43.3677 92.8533C43.8722 92.6349 44.1853 92.7781 44.8133 92.8193C45.3071 92.8515 45.8903 93.0663 46.343 93.0663C46.699 93.1433 47.4325 93.2489 47.6901 93.4118C47.8279 93.4977 48.6777 93.6624 48.6938 93.8146C48.7242 94.1171 48.209 94.4035 47.6043 94.7525C47.3287 94.91 46.9835 95.1678 46.7509 95.2949C46.343 95.5168 46.3376 95.5902 45.8867 95.4739C45.1604 95.2859 44.3589 95.0371 43.6468 94.851C43.2961 94.7597 43.1047 94.6791 42.729 94.5628C42.3837 94.4572 41.7665 94.3874 41.9275 94.1869Z" fill="white"/>
<path fill-rule="evenodd" clip-rule="evenodd" d="M60.9384 95.7709C58.0383 94.8133 52.696 92.2965 49.7422 93.1307C47.2429 93.8359 46.2267 97.074 46.8761 99.3778C47.513 101.637 51.6261 102.104 53.5548 102.303C54.596 102.41 55.6409 102.476 56.6875 102.534C57.4532 102.575 58.2315 102.602 58.9954 102.671C62.4806 102.994 63.7168 97.0382 61.026 95.8049L60.9849 95.7852L60.942 95.7709H60.9384Z" fill="#000001"/>
<path fill-rule="evenodd" clip-rule="evenodd" d="M60.679 96.5568C58.0991 95.7047 52.6048 93.1826 49.9659 93.9273C47.9639 94.4929 47.1319 97.2406 47.6722 99.1523C48.3897 101.699 56.4513 101.605 59.0706 101.846C61.6451 102.084 62.5074 97.3945 60.6807 96.5568H60.679Z" fill="white"/>
<path fill-rule="evenodd" clip-rule="evenodd" d="M10.0029 85.6057C9.78997 86.5007 9.53234 87.8683 8.3408 87.7985C7.80944 87.768 7.423 87.3975 7.05981 87.052C7.00614 87.0019 6.88269 86.882 6.77714 86.7996C6.61433 86.941 6.39427 87.1881 6.30124 87.2865C5.81818 87.7985 5.13833 88.5073 4.36186 88.1565C3.0433 87.5622 3.37249 85.5323 3.54245 84.401C3.66411 83.5866 3.92711 82.7113 4.34576 81.9988C4.69642 81.4028 5.28324 80.7351 6.05434 80.8425C6.18316 80.8604 6.30839 80.9016 6.42468 80.9624C7.01151 81.2721 7.22978 81.972 7.3908 82.5681C7.43373 82.7256 7.54108 83.1874 7.63232 83.3807C7.92931 83.3986 8.75766 83.1212 9.0797 83.1212C10.1639 83.1212 10.2999 84.8217 10.0047 85.6039L10.0029 85.6057Z" fill="#000001"/>
<path fill-rule="evenodd" clip-rule="evenodd" d="M9.31943 85.3854C9.46972 85.0524 9.46972 83.8388 9.07791 83.8388C8.68609 83.8388 7.63053 84.3239 7.1761 83.9605C6.72346 83.5972 6.72346 81.9289 6.09012 81.5959C5.45678 81.263 4.52108 82.686 4.24914 84.5065C3.9772 86.3251 4.05234 87.2309 4.65526 87.5047C5.25819 87.7768 6.26903 85.9009 6.81291 86.0226C7.3568 86.1443 7.86848 87.0537 8.38195 87.0841C8.89542 87.1145 9.0457 86.5077 9.31764 85.3872L9.31943 85.3854Z" fill="white"/>
<path fill-rule="evenodd" clip-rule="evenodd" d="M16.3112 36.1818C16.1931 36.3913 16.2665 36.658 16.4758 36.7779C16.6816 36.8942 16.9446 36.8262 17.0662 36.6222L17.0841 36.6096C17.2362 36.4843 17.5761 36.3322 18.018 36.2677C18.485 36.1997 19.045 36.2445 19.5745 36.547L19.596 36.5577C19.8089 36.683 20.02 36.8495 20.2186 37.0697C20.4888 37.3686 20.7303 37.8429 20.8985 38.448C20.9772 38.729 21.0398 39.0351 21.081 39.3626C20.1828 38.5965 18.6388 37.6729 16.8086 38.2099C16.5778 38.2779 16.4454 38.5214 16.5134 38.7523C16.5814 38.9832 16.8247 39.1156 17.0555 39.0476C19.401 38.3567 21.2277 40.7463 21.233 40.7535C21.3117 40.8555 21.4352 40.9235 21.5747 40.9253C21.8163 40.9289 22.0131 40.7356 22.0166 40.4939C22.0292 39.6419 21.9236 38.8668 21.7411 38.2135C21.5354 37.476 21.2259 36.8799 20.8663 36.4825C20.6033 36.1926 20.3224 35.9688 20.0361 35.8006L20.0111 35.7844C19.2847 35.3692 18.5243 35.3083 17.8928 35.3996C17.2791 35.4891 16.7657 35.7361 16.5134 35.9473L16.4812 35.9742C16.4096 36.0386 16.3524 36.1084 16.313 36.18L16.3112 36.1818Z" fill="black"/>
</svg>
