<svg width="108" height="134" viewBox="0 0 108 134" fill="none" xmlns="http://www.w3.org/2000/svg">
<g clip-path="url(#clip0_65_9406)">
<rect width="107" height="133" transform="translate(0.417236 0.218506)" fill="white"/>
<path d="M107.388 57.6437C107.495 55.6508 107.293 53.6061 107.098 51.6553C106.864 49.2994 106.48 46.9565 105.913 44.6558C104.97 40.8255 103.518 37.1087 101.481 33.7191C101.354 33.5085 101.227 33.3011 101.097 33.0937C101.1 33.0904 101.1 33.084 101.103 33.0807C101.389 32.4488 101.295 31.7003 100.859 31.1721C100.081 30.2258 99.1503 29.5777 98.1902 29.1403C96.2536 26.8622 94.2097 25.0702 92.2667 23.6735C92.0747 23.5342 91.8826 23.4013 91.6874 23.2685C91.99 16.2431 94.2325 12.416 94.7988 11.5573C98.1153 11.8813 100.667 11.2041 102.389 9.53845C103.293 8.66351 103.638 7.36083 103.287 6.1424C102.939 4.92721 101.998 4.04255 100.774 3.78007C100.354 3.68934 99.9054 3.64073 99.4399 3.63101C97.7573 3.59861 96.0421 4.14625 94.6393 5.16377C92.0421 7.04974 90.1642 10.4425 89.0674 15.245C88.475 17.8374 88.283 20.1057 88.2211 21.1913C80.6964 17.3254 71.8568 16.5833 63.7852 19.2891C63.3654 19.4317 62.952 19.5808 62.5452 19.7396C61.3019 15.0894 61.9333 10.7796 62.1416 9.62594C67.8958 9.14311 70.3531 7.00437 71.4011 5.27719C71.9316 4.40225 72.0358 3.35881 71.6875 2.41258C71.3523 1.502 70.633 0.802051 69.7152 0.494203C68.0879 -0.0534425 66.4215 0.396988 66.3596 0.41319C61.9431 1.52144 59.2873 5.57855 58.6819 12.1406C58.2979 16.3014 58.8512 20.271 59.0269 21.3695C50.7178 25.9062 46.0473 33.7061 43.5152 39.9149C42.5811 42.2092 41.9823 44.591 41.7056 46.9954C41.4095 46.5061 41.1003 46.033 40.7781 45.5761C38.1255 41.8333 33.94 39.5488 29.2956 39.3025C24.622 39.0562 20.1891 40.9033 17.133 44.3706C15.7953 45.8904 14.6269 47.6565 13.6505 49.6235C8.68718 49.8892 4.53424 52.8316 2.50984 57.5465C1.29911 60.369 0.602615 63.6516 0.433373 67.3069C0.0558335 75.6447 5.31861 82.7544 13.2372 84.5982C17.7091 85.6384 22.2949 86.1602 26.8872 86.1602C29.1492 86.1602 31.4112 86.0273 33.6601 85.7745C30.9523 89.203 29.7806 92.8939 29.3933 94.3619C29.3119 94.6827 29.2208 95.0262 29.0971 95.3632C26.9686 101.326 21.478 104.135 21.4226 104.161L19.1704 105.289L21.6667 104.952C29.3835 103.908 34.1353 108.529 35.4079 109.971C35.9807 110.616 36.5014 111.2 37.0645 111.76C38.2166 112.907 39.4534 113.964 40.7455 114.916C37.8782 116.404 34.106 117.373 29.8457 116.038C28.674 115.668 27.3787 116.064 26.6236 117.016L26.578 117.075C26.0508 117.758 25.8652 118.688 26.0833 119.557C26.6268 121.715 28.3192 126.984 32.316 129.301C32.6056 129.469 32.9311 129.583 33.2826 129.635L33.3607 129.648C33.4941 129.667 33.6276 129.677 33.7578 129.677C34.6463 129.677 35.4697 129.262 36.0132 128.517C36.6447 127.655 36.7488 126.521 36.2834 125.565C35.665 124.285 34.7993 123.04 33.7057 121.854C36.1923 122.101 41.9172 122.149 46.5616 118.4C49.2076 119.641 52.0619 120.578 55.0497 121.18C56.9635 121.563 58.887 121.754 60.7974 121.754C63.3816 121.754 65.9365 121.397 68.3873 120.704C66.5744 122.214 64.4719 123.118 62.1156 123.39C61.0285 123.517 60.1205 124.301 59.8536 125.344C59.8503 125.357 59.8471 125.37 59.8438 125.383L59.8308 125.422C59.6518 126.174 59.8406 126.997 60.3385 127.626C61.5525 129.162 64.8072 132.778 68.8494 133.206C68.9341 133.216 69.0154 133.219 69.1001 133.219C69.3246 133.219 69.5492 133.186 69.7803 133.122L69.8324 133.109C70.7306 132.846 71.3848 132.14 71.5801 131.219C71.7786 130.286 71.4467 129.327 70.7176 128.714C69.79 127.937 68.69 127.266 67.4369 126.715C70.0374 125.827 76.0911 123.037 77.5231 116.051C77.5426 116.034 77.5654 116.018 77.5849 116.002C77.6338 115.963 77.6826 115.927 77.7314 115.889C77.8193 115.821 77.9006 115.749 77.9853 115.681C77.9885 115.681 77.9918 115.675 77.995 115.671C78.0178 115.652 78.0406 115.633 78.0634 115.613L78.2879 115.422C78.3693 115.351 78.4442 115.283 78.5223 115.211C78.6004 115.14 78.6818 115.072 78.7599 115.001C78.7827 114.981 78.8054 114.962 78.825 114.942C79.0105 114.774 79.1895 114.609 79.3685 114.434L79.4368 114.366C79.4857 114.317 79.5377 114.268 79.5768 114.226L79.6614 114.142C79.7102 114.093 79.7525 114.048 79.7981 114.003C79.8795 113.918 79.9608 113.837 80.0422 113.753C80.0682 113.724 80.1008 113.695 80.1268 113.666C80.1594 113.633 80.1952 113.598 80.2277 113.555C80.2993 113.481 80.3677 113.403 80.436 113.329C80.4913 113.267 80.5499 113.202 80.6053 113.141C80.7354 112.998 80.8689 112.842 81.0153 112.667C81.0772 112.593 81.139 112.518 81.2009 112.444C81.2497 112.382 81.305 112.321 81.3506 112.262C81.4384 112.152 81.5263 112.042 81.6044 111.942C81.6305 111.906 81.6565 111.874 81.6858 111.838C81.7542 111.75 81.8225 111.66 81.8778 111.582C81.9527 111.485 82.0178 111.394 82.0796 111.303C82.1577 111.196 82.2326 111.086 82.3074 110.976C82.327 110.944 82.353 110.914 82.3725 110.882C82.4083 110.83 82.4441 110.775 82.4799 110.723C82.5548 110.61 82.6329 110.496 82.7078 110.383C82.8282 110.201 82.9421 110.017 83.056 109.829C83.0821 109.79 83.1048 109.748 83.1309 109.709C83.1439 109.686 83.1569 109.667 83.1699 109.644C83.2676 109.482 83.3587 109.317 83.4336 109.184C83.4466 109.161 83.4596 109.139 83.4726 109.113C83.5344 108.999 83.5963 108.886 83.6581 108.772C83.7037 108.691 83.7493 108.607 83.7916 108.526C83.8176 108.478 83.8404 108.426 83.8664 108.377C83.9445 108.225 84.0194 108.072 84.0942 107.917C84.1333 107.839 84.1756 107.758 84.2114 107.68C84.2407 107.616 84.27 107.554 84.2993 107.489C84.3253 107.431 84.3514 107.372 84.3774 107.314C84.3904 107.285 84.4034 107.256 84.4165 107.227C84.5043 107.029 84.589 106.831 84.6736 106.634L84.6931 106.588L84.96 105.94H84.9437C86.7696 101.135 86.8802 96.3029 86.6133 92.9425C86.8672 92.8421 87.1178 92.7319 87.3587 92.612C88.5108 95.9983 88.999 98.9537 88.7907 101.4C88.2407 101.893 86.2781 103.831 86.2684 106.391C86.2651 108.105 87.6581 109.589 89.3798 109.702C89.4384 109.706 89.4937 109.709 89.5458 109.709C89.5914 109.709 89.6337 109.709 89.6792 109.709C91.4986 109.709 93.1096 108.465 93.6336 106.647C94.4603 103.785 95.2187 97.8746 91.466 89.7312C91.5702 89.7668 91.6743 89.7895 91.7622 89.7992C92.2114 89.8511 92.6735 89.6729 93.0022 89.3261C97.7671 84.3649 96.4587 77.8126 95.5311 74.8994C99.147 72.9875 102.301 70.2298 104.439 66.7333C105.793 64.5233 106.747 62.0541 107.183 59.5005C107.287 58.8913 107.352 58.2691 107.385 57.647L107.388 57.6437ZM100.153 31.7521C100.368 32.0146 100.416 32.3905 100.257 32.734C100.211 32.8409 100.14 32.9349 100.055 33.0159C99.9542 33.1099 99.8337 33.1812 99.6905 33.2233C99.5962 33.2492 99.5018 33.2654 99.4041 33.2654C99.2154 33.2654 99.0266 33.2103 98.8606 33.1099C97.9688 32.5622 96.475 31.9076 94.4408 31.8882C94.0567 31.885 93.6825 31.7262 93.4188 31.454C93.1682 31.1947 93.038 30.861 93.0445 30.5078V30.4656C93.0576 30.1156 93.2138 29.7916 93.4807 29.5486C93.7345 29.3185 94.0698 29.1856 94.4115 29.1856C94.4343 29.1856 94.4636 29.1889 94.4896 29.1889C95.4693 29.2472 96.6702 29.4416 97.8126 29.9666C98.6588 30.3554 99.4757 30.9225 100.153 31.7456V31.7521ZM89.0413 21.6288C89.1162 19.8919 89.7899 9.72316 95.134 5.84103C96.3903 4.93045 97.9168 4.4379 99.4237 4.4703C99.837 4.47678 100.231 4.52215 100.595 4.59992C101.513 4.79759 102.216 5.45865 102.477 6.37248C102.747 7.30898 102.493 8.26493 101.803 8.93572C100.228 10.4588 97.8191 11.0518 94.6426 10.6953L94.405 10.6694L94.2618 10.8573C94.1381 11.0161 91.3196 14.7686 90.8704 22.7241C90.4766 22.4713 90.0796 22.2283 89.6792 21.9949C89.4612 21.8653 89.2431 21.7389 89.0413 21.6288ZM66.5777 1.22008C66.5777 1.22008 67.1798 1.05805 67.9642 1.05805C68.4198 1.05805 68.9406 1.11314 69.4483 1.28165C70.1253 1.50848 70.6558 2.02372 70.8999 2.6945C71.1603 3.40093 71.0789 4.1819 70.6818 4.83972C69.7184 6.42757 67.3848 8.40751 61.7608 8.81258L61.4484 8.83526L61.38 9.13987C61.3312 9.35698 60.2149 14.4024 61.7576 20.0539C61.0904 20.3326 60.4459 20.6307 59.8178 20.9483C59.3686 17.899 57.7348 3.44306 66.5777 1.22008ZM47.1377 68.6355C47.1019 67.8967 47.0563 67.1708 47.001 66.4547C47.3264 66.8792 47.6649 67.2972 48.0197 67.7055C47.704 68.0198 47.411 68.3309 47.1377 68.6388V68.6355ZM17.7677 44.9215C20.482 41.843 24.3486 40.1158 28.469 40.1158C28.7293 40.1158 28.9897 40.1223 29.2533 40.1353C33.6406 40.3686 37.5885 42.5235 40.0913 46.0557C40.6186 46.7978 41.11 47.5949 41.5559 48.418C41.1816 54.3125 42.7699 60.2361 46.0408 65.1196C46.1775 66.5551 46.2752 68.0587 46.3338 69.5979C46.1515 69.8345 45.9823 70.0678 45.8228 70.2979C45.8032 70.3238 45.787 70.353 45.7674 70.3789C45.6145 70.6025 45.4713 70.8261 45.3411 71.0432C45.3216 71.0756 45.3053 71.1048 45.2858 71.1372C45.1556 71.3608 45.0319 71.5811 44.9245 71.795C44.9115 71.8209 44.8985 71.8469 44.8854 71.8728C44.7715 72.0996 44.6674 72.3232 44.5795 72.5436C44.573 72.5598 44.5665 72.5792 44.56 72.5954C44.4656 72.8287 44.3777 73.0588 44.3061 73.2856C44.3061 73.2954 44.2996 73.3051 44.2996 73.3116C44.2215 73.5546 44.1564 73.7879 44.1043 74.018C44.1043 74.0212 44.1043 74.0277 44.1043 74.031C44.049 74.2772 44.0067 74.517 43.9741 74.7471C43.8505 75.6512 43.9058 76.4419 44.036 77.103C41.4876 71.4353 32.023 51.9307 23.0662 53.2917C23.0662 53.2917 31.3884 54.0533 40.4689 71.9376C29.3184 62.9452 21.8881 67.268 21.8881 67.268C31.8831 64.8052 41.4322 73.9467 41.4778 73.9953C42.2361 75.5864 42.9977 77.3071 43.7561 79.151C43.2353 80.1782 42.5942 81.617 41.9986 83.3993C41.7935 83.4543 41.5787 83.5029 41.3346 83.5386L41.2728 83.5516C41.2728 83.5516 41.2663 83.5516 41.2598 83.5516H41.2467C41.0124 83.584 40.7683 83.6002 40.5047 83.6002C34.0995 83.5742 27.7302 81.9832 21.5756 78.8723C14.1778 75.1295 10.0639 66.8662 11.5741 58.7747C12.1697 55.5763 13.0875 52.689 14.2982 50.1938C15.2616 48.2074 16.43 46.4316 17.7677 44.9118V44.9215ZM83.593 107.01C83.5214 107.165 83.4498 107.321 83.375 107.473C83.3001 107.625 83.2253 107.781 83.1439 107.936C83.0886 108.043 83.0365 108.147 82.9812 108.251C82.9258 108.358 82.8672 108.468 82.8054 108.575C82.7371 108.698 82.6687 108.821 82.5971 108.944C82.5678 108.996 82.5385 109.045 82.5092 109.096C82.3921 109.294 82.2749 109.489 82.1512 109.683C82.1382 109.706 82.1252 109.728 82.1089 109.751C82.0275 109.881 81.9397 110.007 81.855 110.137C81.7932 110.227 81.7346 110.321 81.6695 110.412C81.6533 110.435 81.637 110.461 81.6207 110.483C81.497 110.662 81.3734 110.837 81.2432 111.012C81.2269 111.034 81.2106 111.057 81.1911 111.083C81.1878 111.089 81.1813 111.096 81.1781 111.102C81.0544 111.268 80.9275 111.43 80.8005 111.595C80.768 111.637 80.7354 111.679 80.7029 111.721C80.5662 111.893 80.423 112.065 80.2798 112.233C80.2538 112.266 80.2245 112.298 80.1984 112.33C80.0585 112.496 79.912 112.655 79.7656 112.817C79.7233 112.865 79.6809 112.911 79.6386 112.956C79.5182 113.086 79.3945 113.215 79.2709 113.342C79.2123 113.403 79.1537 113.465 79.0951 113.523C78.9389 113.682 78.7794 113.834 78.6199 113.99C78.5581 114.048 78.493 114.11 78.4279 114.168C78.2749 114.307 78.1252 114.45 77.969 114.586C77.9625 114.592 77.956 114.599 77.9462 114.605C77.7542 114.777 77.5556 114.942 77.3539 115.108C77.3376 115.121 77.3246 115.134 77.3083 115.143C77.2269 115.208 77.1456 115.273 77.0642 115.338C76.8559 115.503 76.6443 115.665 76.4328 115.824C76.41 115.84 76.3905 115.856 76.3677 115.872C76.3026 115.921 76.2375 115.97 76.1692 116.018C75.8925 116.219 75.6126 116.42 75.3295 116.608C74.9519 116.861 74.5679 117.1 74.1773 117.334C74.0634 117.402 73.9462 117.46 73.8323 117.525C73.5524 117.684 73.2725 117.846 72.9829 117.995C72.8364 118.073 72.6834 118.141 72.537 118.212C72.2766 118.342 72.0195 118.471 71.7559 118.591C71.5801 118.672 71.3978 118.74 71.2188 118.818C70.9943 118.912 70.7729 119.009 70.5484 119.097C59.9415 117.13 51.4305 112.888 45.1816 106.462C46.0799 107.065 47.04 107.444 48.0522 107.577C48.1987 107.596 48.3451 107.606 48.4916 107.606C49.852 107.606 51.1344 106.792 51.7104 105.496L51.73 105.451C52.4525 103.769 52.2995 101.903 51.3101 100.334C50.3012 98.7366 48.5762 97.7223 46.6853 97.6186C46.4607 96.9122 45.8846 94.8901 45.6828 92.2588C57.9561 107.593 76.9503 107.499 83.6288 106.922C83.6158 106.951 83.5995 106.984 83.5865 107.013L83.593 107.01ZM44.7422 89.8025C44.6153 94.3651 45.8879 97.9426 45.9725 98.1792L46.0701 98.4482L46.5941 98.4676C48.228 98.5421 49.7186 99.4106 50.5876 100.785C51.424 102.11 51.5542 103.688 50.9423 105.107L50.913 105.172C50.4411 106.235 49.3118 106.873 48.1661 106.721C46.6006 106.517 45.1653 105.642 43.8928 104.129C42.5779 102.56 41.7284 100.6 41.4322 98.4546C40.8627 94.3262 41.1589 90.6126 41.7903 87.5082C41.7968 87.4823 41.8 87.4531 41.8065 87.4272C41.8423 87.2522 41.8814 87.0837 41.9172 86.9152C41.9335 86.8472 41.9465 86.7791 41.9628 86.7111C42.0018 86.5425 42.0409 86.3773 42.0799 86.2153C42.0929 86.1634 42.106 86.1083 42.119 86.0565C42.2947 85.3598 42.4835 84.7019 42.682 84.083H42.6853L42.7081 84.002C43.4436 81.7174 44.2768 79.9805 44.8431 78.9306C45.1556 79.1996 45.5591 79.3551 45.9953 79.3583C46.3207 79.3778 46.6299 79.2838 46.8968 79.1315C46.9033 79.7991 46.9489 80.4374 47.0237 81.0466C45.4225 83.9177 44.8366 86.9346 44.739 89.6243L44.726 89.6081V89.8057L44.7422 89.8025ZM41.7089 84.3358C41.7024 84.3617 41.6926 84.3844 41.6861 84.4103C41.6763 84.3876 41.6633 84.3682 41.6536 84.3455C41.6731 84.3455 41.6894 84.339 41.7089 84.3358ZM34.8546 85.6384C35.3721 85.5704 35.8863 85.4926 36.4006 85.4084C36.5763 85.3792 36.7521 85.3468 36.9278 85.3176C37.263 85.2593 37.5983 85.2042 37.9335 85.1426C38.1516 85.1005 38.3696 85.0552 38.5877 85.013C38.8773 84.9547 39.167 84.8996 39.4534 84.838C39.5022 84.8283 39.5511 84.8186 39.5999 84.8089C39.8212 84.7603 40.0393 84.7084 40.2573 84.6566C40.4396 84.6144 40.6218 84.5756 40.8008 84.5334C40.9766 84.8899 41.1621 85.2463 41.3509 85.6028C40.4428 89.1025 39.883 93.5388 40.5763 98.5713C40.7618 99.9291 41.1654 101.219 41.7479 102.395C36.9734 95.8914 35.2972 89.3164 34.7114 85.8037C34.757 85.7486 34.8025 85.6935 34.8513 85.6384H34.8546ZM41.4453 73.9305L40.5144 72.038C40.8236 72.6473 41.1328 73.2792 41.4453 73.9305ZM13.4325 83.7816C5.91747 82.0318 0.918317 75.2721 1.27958 67.3426C1.44232 63.7877 2.11603 60.6023 3.2877 57.8738C5.12007 53.6061 8.81085 50.884 13.2404 50.4822C13.2144 50.5405 13.1884 50.6021 13.1623 50.6637C13.1005 50.7998 13.0419 50.9391 12.9833 51.0785C12.9052 51.2632 12.8271 51.4479 12.7522 51.6358C12.6937 51.7784 12.6383 51.9242 12.5797 52.0701C12.5081 52.258 12.4365 52.4492 12.3649 52.6404C12.3096 52.7895 12.2575 52.9385 12.2055 53.0908C12.1371 53.2853 12.072 53.4829 12.0069 53.6806C11.9581 53.8329 11.906 53.9852 11.8572 54.1407C11.7921 54.3449 11.7335 54.5523 11.6717 54.7597C11.6261 54.912 11.5806 55.0643 11.5383 55.2198C11.4764 55.4402 11.4211 55.6605 11.3625 55.8841C11.3234 56.0332 11.2844 56.179 11.2486 56.3281C11.1867 56.5776 11.1314 56.8304 11.0728 57.0831C11.0435 57.2095 11.0143 57.3359 10.985 57.4655C10.9036 57.8479 10.8222 58.2367 10.7506 58.6288C9.17212 67.0833 13.4683 75.7193 21.1981 79.6273C21.5658 79.812 21.9336 79.9902 22.3014 80.1652C22.4186 80.2203 22.5357 80.2754 22.6529 80.3273C22.9068 80.4439 23.1574 80.5606 23.4112 80.674C23.5479 80.7356 23.6879 80.7939 23.8278 80.8555C24.0622 80.9559 24.2965 81.0564 24.5341 81.1536C24.6773 81.2119 24.8205 81.2702 24.967 81.3286C25.2013 81.4225 25.4389 81.5165 25.6765 81.6073C25.8164 81.6591 25.9531 81.7142 26.0931 81.766C26.3502 81.8633 26.6106 81.954 26.8709 82.0447C26.9848 82.0836 27.102 82.129 27.2159 82.1679C27.5902 82.2975 27.9677 82.4206 28.342 82.5373C28.3518 82.5405 28.3648 82.5438 28.3746 82.547C28.7391 82.6604 29.1036 82.7674 29.4681 82.871C29.5886 82.9035 29.709 82.9359 29.8294 82.9683C30.0865 83.0396 30.3436 83.1076 30.604 83.1724C30.744 83.2081 30.8839 83.2405 31.0271 83.2761C31.268 83.3344 31.5056 83.3895 31.7464 83.4446C31.8929 83.477 32.0361 83.5094 32.1825 83.5418C32.4234 83.5937 32.6675 83.6423 32.9083 83.6909C33.0483 83.7168 33.1882 83.746 33.3282 83.7719C33.595 83.8205 33.8619 83.8659 34.1288 83.9112C34.2427 83.9307 34.3566 83.9501 34.4705 83.9663C34.8513 84.0247 35.2321 84.0798 35.6129 84.1284C35.6455 84.1316 35.678 84.1348 35.7138 84.1381C36.0621 84.1802 36.4071 84.2191 36.7553 84.2547C36.8822 84.2677 37.0092 84.2774 37.1361 84.2871C37.3216 84.3034 37.5039 84.3228 37.6894 84.3358C37.6471 84.3422 37.608 84.3487 37.5657 84.3584C36.9994 84.4621 36.4396 84.5561 35.8831 84.6404C35.8342 84.6468 35.7854 84.6533 35.7366 84.663C26.6008 86.0305 18.7571 85.0163 13.4455 83.7784L13.4325 83.7816ZM32.6317 120.859L31.1866 120.552L32.2509 121.572C33.6894 122.953 34.7928 124.418 35.5251 125.928C35.8603 126.618 35.7887 127.402 35.333 128.024C34.8969 128.62 34.2037 128.919 33.4746 128.818L33.4128 128.808C33.1654 128.77 32.9376 128.692 32.7391 128.578C29.019 126.423 27.4177 121.41 26.9002 119.356C26.744 118.73 26.8742 118.069 27.2452 117.587L27.2843 117.538C27.6878 117.029 28.3095 116.744 28.9506 116.744C29.1655 116.744 29.3803 116.776 29.5918 116.841C34.3143 118.322 38.4477 117.143 41.5136 115.464L41.5234 115.471L41.7577 115.338C41.8749 115.27 41.992 115.205 42.0962 115.14C42.1906 115.085 42.2817 115.03 42.3663 114.975C42.7536 114.735 43.1019 114.505 43.4273 114.272C43.5836 114.161 43.7333 114.054 43.8797 113.947L43.9774 113.876C44.0392 113.831 44.0946 113.782 44.1564 113.734C44.9766 113.105 45.6438 112.505 46.1352 112.026C46.8252 111.352 47.9188 111.29 48.6283 111.883L48.7259 111.968C48.8854 112.107 49.0123 112.272 49.1132 112.45C49.2174 112.638 49.289 112.839 49.3248 113.047C49.3476 113.176 49.3606 113.306 49.3541 113.435C49.3411 113.763 49.2434 114.087 49.0579 114.375C48.8887 114.634 48.7129 114.884 48.5372 115.124C48.5241 115.14 48.5144 115.153 48.5046 115.169C48.3777 115.341 48.2442 115.503 48.1108 115.665C48.0262 115.769 47.9416 115.876 47.8537 115.976C47.7072 116.145 47.5608 116.31 47.411 116.465C47.3655 116.514 47.3199 116.559 47.2743 116.605C41.4192 122.632 32.726 120.879 32.6284 120.856L32.6317 120.859ZM55.2124 120.354C52.42 119.793 49.7511 118.935 47.2646 117.8C47.3297 117.742 47.3915 117.684 47.4566 117.622L47.5412 117.541C47.9936 117.1 48.4232 116.627 48.8073 116.145C48.8236 116.125 48.8398 116.102 48.8561 116.083C48.8984 116.031 48.9407 115.979 48.983 115.924C49.0449 115.85 49.1002 115.778 49.1458 115.71C49.2499 115.571 49.3573 115.428 49.4452 115.296C49.5526 115.146 49.6568 114.991 49.7642 114.829C49.9334 114.573 50.0473 114.294 50.1189 114.006C50.1547 113.866 50.1742 113.724 50.1873 113.581C50.2491 112.833 49.9985 112.068 49.4647 111.507C49.4094 111.449 49.3476 111.391 49.2857 111.336L49.1783 111.245C49.1132 111.19 49.0449 111.138 48.9765 111.093C47.9318 110.373 46.4997 110.496 45.5461 111.423C45.4127 111.553 45.2695 111.692 45.0937 111.851C45.0449 111.899 44.9961 111.942 44.9408 111.99C44.5274 112.363 44.0913 112.723 43.6552 113.063C43.04 113.533 42.337 114.019 41.5527 114.476C40.1857 113.491 38.8773 112.379 37.6634 111.17C37.1166 110.623 36.6056 110.052 36.0425 109.417C34.8025 108.011 30.4283 103.727 23.3396 103.97C25.2241 102.661 28.3518 99.9615 29.8912 95.6451C30.0279 95.2757 30.1256 94.9063 30.2102 94.5693C30.565 93.2147 31.6227 89.877 34.0149 86.6884C34.7407 90.5316 36.6284 97.0904 41.5169 103.49C47.8114 111.734 57.0676 117.159 69.0219 119.638C64.6444 121.044 59.8894 121.294 55.2124 120.354ZM66.0602 126.245L64.6151 126.553L66.0049 127.052C67.642 127.639 69.0447 128.413 70.1676 129.356C70.6655 129.774 70.8836 130.406 70.7469 131.048C70.6167 131.657 70.1904 132.123 69.6013 132.302C69.572 132.308 69.5459 132.315 69.5297 132.321C69.3279 132.376 69.1261 132.392 68.9276 132.373C65.2075 131.978 62.1384 128.559 60.9895 127.107C60.651 126.679 60.5208 126.129 60.638 125.626V125.623V125.62L60.6542 125.568C60.8332 124.855 61.4549 124.317 62.2002 124.23C65.3116 123.87 68.0065 122.489 70.2132 120.124C70.3531 120.075 70.4898 120.023 70.6297 119.968L70.7404 119.926C71.6289 119.583 72.5012 119.194 73.3441 118.756C74.1871 118.319 75.0073 117.836 75.7949 117.308C75.8046 117.301 75.8144 117.295 75.8242 117.288C76.0325 117.149 76.2408 117.007 76.4491 116.857C74.2815 124.418 66.1383 126.235 66.0504 126.252L66.0602 126.245ZM85.7932 93.2245C86.0373 96.5816 85.8811 101.352 84.0031 106.041C77.7672 106.647 57.878 107.117 45.621 90.7876C45.5819 88.2211 45.9595 85.2561 47.2971 82.4174C47.2971 82.4174 47.2971 82.4206 47.2971 82.4239C47.3264 82.5438 47.359 82.6669 47.3948 82.7965C47.4013 82.816 47.4078 82.8386 47.411 82.8581C47.4468 82.9845 47.4859 83.1108 47.5282 83.2437C47.5282 83.2534 47.5347 83.2631 47.538 83.2729C47.5803 83.409 47.6291 83.5451 47.6812 83.6844C47.6909 83.7103 47.7007 83.7363 47.7105 83.7622C47.7625 83.9015 47.8179 84.0409 47.8765 84.1802C47.883 84.1997 47.8927 84.2191 47.9025 84.2385C47.9611 84.3746 48.0229 84.5107 48.088 84.6501C48.0945 84.6663 48.101 84.6793 48.1075 84.6955C48.1759 84.838 48.2507 84.9806 48.3289 85.1232C48.3451 85.1491 48.3582 85.1783 48.3744 85.2042C48.4558 85.3468 48.5372 85.4894 48.6283 85.632C48.6381 85.6482 48.6478 85.6644 48.6576 85.6806C48.7422 85.8167 48.8333 85.9495 48.9277 86.0824C48.9407 86.1018 48.9538 86.1213 48.9668 86.1407C49.0677 86.2768 49.1718 86.4129 49.2825 86.5458C49.3053 86.5717 49.3248 86.5976 49.3476 86.6236C49.4615 86.7564 49.5786 86.8893 49.7056 87.0189C49.7153 87.0286 49.7284 87.0416 49.7381 87.0513C49.8585 87.1744 49.9855 87.2943 50.1157 87.411C50.1384 87.4304 50.158 87.4499 50.1808 87.4693C50.3174 87.5892 50.4607 87.7026 50.6071 87.8161C50.6364 87.8387 50.669 87.8614 50.6982 87.8841C50.8512 87.9975 51.0107 88.1077 51.1799 88.2114C51.1897 88.2179 51.1995 88.2211 51.206 88.2276C51.3687 88.3281 51.5379 88.422 51.7137 88.5128C51.7462 88.529 51.7788 88.5484 51.8113 88.5646C51.9903 88.6553 52.1759 88.7364 52.3679 88.8174C52.4069 88.8336 52.446 88.8465 52.4818 88.8627C52.6836 88.9405 52.8919 89.0183 53.1067 89.0831C53.7576 89.2808 54.4444 89.1674 54.9944 88.772C55.2352 88.597 55.4305 88.3799 55.577 88.1336C58.9716 93.3152 64.4719 93.9795 66.76 94.0152C66.773 94.0152 66.7827 94.0152 66.7958 94.0152C67.7103 94.0152 68.5012 93.4448 68.7876 92.6217C72.4393 93.7753 75.912 93.973 79.1081 93.2115C80.4425 92.8939 81.4775 92.4565 82.1805 92.1032C82.1838 92.1713 82.2 92.2393 82.2131 92.3074C82.2196 92.3366 82.2196 92.369 82.2293 92.3981C82.2554 92.4986 82.2912 92.5958 82.3367 92.6898C82.6297 93.2957 83.248 93.649 83.9152 93.5842C83.9185 93.5842 83.925 93.5842 83.9283 93.5842C84.1008 93.568 84.27 93.5485 84.436 93.5258C84.4816 93.5193 84.5239 93.5129 84.5662 93.5031C84.6931 93.4837 84.8168 93.4643 84.9405 93.4416C84.9958 93.4319 85.0511 93.4189 85.1064 93.4059C85.2138 93.3832 85.3213 93.3606 85.4287 93.3346C85.4938 93.3184 85.5556 93.3022 85.6207 93.286C85.676 93.2698 85.7346 93.2569 85.7899 93.2407L85.7932 93.2245ZM92.8232 106.42C92.3936 107.914 91.0625 108.925 89.5588 108.873C89.5133 108.873 89.4742 108.873 89.4319 108.866C88.1495 108.782 87.1081 107.674 87.1113 106.394C87.1211 103.879 89.4416 101.948 89.4644 101.928L89.5979 101.818L89.6141 101.647C89.8745 99.0088 89.3668 95.8266 88.1072 92.181C88.1658 92.1421 88.2212 92.1032 88.2765 92.0644C88.3318 92.0287 88.3839 91.9898 88.436 91.9542C88.5694 91.8602 88.6931 91.763 88.8167 91.6625C88.8395 91.6431 88.8656 91.6236 88.8884 91.6074C89.0316 91.4875 89.165 91.3677 89.2919 91.2445C89.3277 91.2089 89.3603 91.1765 89.3961 91.1408C89.4872 91.0501 89.5751 90.9594 89.6597 90.8654C89.6955 90.8265 89.7313 90.7844 89.7671 90.7455C89.8485 90.6515 89.9266 90.5575 90.0014 90.4635C90.0275 90.4311 90.0535 90.402 90.0763 90.3696C90.1707 90.2464 90.2618 90.1233 90.3432 90.0034C90.3595 89.9807 90.3725 89.958 90.3887 89.9353C90.4376 89.8608 90.4864 89.7895 90.532 89.7182C94.3659 97.8065 93.6271 103.626 92.8232 106.42ZM92.3936 88.7493C92.2439 88.9081 92.0486 88.9891 91.8566 88.9664C91.7297 88.9535 91.3456 88.9081 91.3196 87.9327L91.248 85.026L90.4929 87.8355C90.4929 87.8355 90.405 88.1531 90.1772 88.6229C90.1251 88.7331 90.0633 88.8498 89.9982 88.9697C89.5328 89.809 88.7256 90.8557 87.3847 91.6431C87.0104 91.8667 86.6101 92.0546 86.187 92.2134L86.1219 92.2361C86.0698 92.2555 86.0177 92.2718 85.9657 92.288C85.8485 92.3301 85.7248 92.3657 85.6044 92.4046C85.5426 92.4241 85.4775 92.4403 85.4156 92.4565C85.318 92.4824 85.2171 92.5083 85.1162 92.531C85.0446 92.5472 84.973 92.5634 84.9014 92.5796C84.794 92.6023 84.6866 92.6185 84.5792 92.6379C84.5141 92.6477 84.4458 92.6606 84.3807 92.6703C84.2049 92.6963 84.0259 92.7189 83.8436 92.7351C83.4628 92.7708 83.2122 92.5407 83.1048 92.3139C82.9974 92.0871 82.9746 91.7468 83.2415 91.4778L83.3001 91.4195L82.7501 90.7876C82.5353 90.9464 77.3571 94.5984 68.6216 91.669L68.1562 91.5167L68.0716 91.9963C68.0716 91.9963 68.0651 92.0255 68.0618 92.0708C67.987 92.6963 67.4499 93.1597 66.8055 93.1597C66.799 93.1597 66.7925 93.1597 66.786 93.1597C64.524 93.124 58.926 92.437 55.8113 86.8601L55.0237 85.4473V87.1064C55.0172 87.4953 54.8317 87.8485 54.5127 88.0785C54.1807 88.3183 53.7641 88.3896 53.3671 88.2665C52.9863 88.1498 52.5436 87.9813 52.075 87.7351C51.5412 87.4531 50.9781 87.0707 50.4411 86.5523C50.0636 86.1893 49.6991 85.7551 49.3671 85.2463C49.3215 85.1783 49.2792 85.107 49.2337 85.0357C49.1393 84.8834 49.0481 84.7246 48.9603 84.5561C48.4948 83.6617 48.1271 82.5632 47.9253 81.2216L47.9318 81.2119L47.9123 81.0693C47.7788 80.1004 47.7398 79.0343 47.7983 77.9066L47.9611 74.6693L46.9586 77.7543C46.9586 77.7543 46.9228 77.858 46.8578 77.9973C46.6983 78.3149 46.3923 78.4996 46.0246 78.4964C45.7382 78.4931 45.3704 78.3538 45.1914 77.9682L45.1328 77.845C45.0709 77.683 45.0156 77.521 44.9701 77.3525C44.9701 77.3428 44.9668 77.333 44.9635 77.3265C44.9147 77.1418 44.8724 76.9571 44.8399 76.7659C44.8399 76.7497 44.8366 76.7335 44.8334 76.7173C44.8041 76.5359 44.7845 76.3544 44.7715 76.1697C44.7715 76.1502 44.7715 76.134 44.7683 76.1146C44.7585 75.9299 44.7552 75.7452 44.7618 75.5572C44.7618 75.5183 44.765 75.4762 44.7683 75.4373C44.778 75.2656 44.7943 75.0906 44.8138 74.9156C44.8203 74.8735 44.8236 74.8281 44.8301 74.786C44.8561 74.6045 44.8919 74.4231 44.9343 74.2383C44.9473 74.18 44.9635 74.1185 44.9766 74.0569C45.0189 73.8851 45.0677 73.7166 45.123 73.5449C45.1426 73.4865 45.1621 73.4315 45.1816 73.3731C45.2402 73.2046 45.3053 73.0329 45.3769 72.8611C45.3997 72.806 45.4257 72.751 45.4485 72.6959C45.5266 72.5176 45.6112 72.3362 45.7024 72.1579C45.7251 72.1126 45.7512 72.0672 45.774 72.0218C45.8781 71.8274 45.9855 71.633 46.1027 71.4353C46.1189 71.4062 46.1385 71.377 46.158 71.3478C46.2914 71.1339 46.4314 70.9168 46.5811 70.6997C46.5811 70.6997 46.5811 70.6965 46.5844 70.6932C46.7471 70.4599 46.9228 70.2266 47.1051 69.9901L47.18 69.8928C47.5835 69.3873 48.049 68.8656 48.5827 68.3277C48.6804 68.4314 48.7812 68.5318 48.8789 68.6355C48.9798 68.7425 49.0839 68.8526 49.1881 68.9563C49.3378 69.1086 49.4908 69.2577 49.6437 69.4035C49.7642 69.5202 49.8813 69.6368 50.005 69.7503C50.1515 69.8864 50.2979 70.016 50.4476 70.1488C50.5811 70.2655 50.7113 70.3854 50.8447 70.4988C50.9912 70.6252 51.1441 70.7451 51.2938 70.8682C51.4338 70.9816 51.5705 71.0951 51.7104 71.2052C51.8699 71.3284 52.0294 71.4483 52.1921 71.5682C52.3288 71.6686 52.4655 71.7756 52.6022 71.8728C52.7877 72.0056 52.9798 72.132 53.1685 72.2616C53.2857 72.3427 53.4029 72.4237 53.5233 72.5014C53.7837 72.6732 54.0505 72.8352 54.3174 72.9972C54.3695 73.0296 54.4183 73.062 54.4704 73.0945C54.7991 73.2889 55.1311 73.4801 55.4696 73.6615C57.7478 74.8929 60.2865 75.9558 63.0171 76.8243C63.5541 76.996 64.0944 77.1516 64.6347 77.3039C64.7616 77.3395 64.8853 77.3719 65.0122 77.4043C65.4223 77.5145 65.8356 77.6214 66.249 77.7219C66.415 77.7608 66.581 77.7997 66.7469 77.8385C67.131 77.926 67.515 78.007 67.8991 78.0848C68.0683 78.1205 68.2376 78.1529 68.4101 78.1853C68.8299 78.2663 69.2498 78.3376 69.6696 78.4056C69.7966 78.4251 69.9235 78.451 70.0537 78.4704C70.5874 78.5515 71.1245 78.626 71.6615 78.6876C71.8307 78.707 72 78.7232 72.1692 78.7394C72.5402 78.7783 72.9113 78.8172 73.2823 78.8463C73.5101 78.8658 73.7379 78.8787 73.9658 78.895C74.2847 78.9176 74.6037 78.9338 74.9194 78.95C75.157 78.9598 75.3978 78.9727 75.6354 78.9792C75.9576 78.9889 76.2766 78.9954 76.5988 78.9986C76.7648 78.9986 76.9308 79.0084 77.0967 79.0084C77.1781 79.0084 77.2595 79.0084 77.3376 79.0084C77.4124 79.0084 77.484 79.0084 77.5589 79.0084C77.943 79.0051 78.3303 78.9954 78.7143 78.9824C78.8087 78.9792 78.9031 78.976 78.9975 78.9727C79.4141 78.9565 79.8274 78.9338 80.2407 78.9047C80.2765 78.9047 80.3156 78.9014 80.3514 78.8982C80.8201 78.8658 81.2887 78.8237 81.7574 78.7783C81.7965 78.7751 81.8323 78.7686 81.8713 78.7653C82.2814 78.7232 82.6882 78.6746 83.0951 78.6227C83.1992 78.6098 83.3034 78.5936 83.4108 78.5806C83.772 78.532 84.1333 78.4769 84.4913 78.4186C84.5857 78.4024 84.6833 78.3894 84.7777 78.3732C85.2269 78.2987 85.676 78.2177 86.1219 78.127C86.4897 78.0524 86.8509 77.9746 87.209 77.8936C87.2415 77.8872 87.2773 77.8807 87.3098 77.871C87.5865 77.8061 87.8599 77.7381 88.13 77.67C88.2504 77.6409 88.3741 77.6117 88.4945 77.5793C88.7451 77.5145 88.9892 77.4432 89.2366 77.3752C89.3765 77.3363 89.5165 77.2974 89.6532 77.2585C89.8843 77.1905 90.1088 77.1192 90.3334 77.0479C90.4831 76.9993 90.6361 76.9539 90.7858 76.9053C90.9941 76.8372 91.1992 76.7627 91.4042 76.6914C91.5669 76.6331 91.7329 76.578 91.8924 76.5164C92.0779 76.4484 92.2602 76.3771 92.4424 76.3058C92.6214 76.2377 92.8004 76.1665 92.9729 76.0952C93.1324 76.0303 93.2886 75.9623 93.4449 75.8942C93.6434 75.81 93.8387 75.7225 94.034 75.635C94.1609 75.5767 94.2878 75.5183 94.4115 75.4568C94.5319 75.4017 94.6556 75.3466 94.7728 75.2883C95.6483 78.114 96.7744 84.1802 92.3936 88.7428V88.7493ZM94.8314 74.3258C94.5645 74.4619 94.2911 74.5948 94.0177 74.7244C91.632 75.8489 88.9274 76.7206 85.9559 77.3103C84.0747 77.6862 82.174 77.939 80.2668 78.0719C78.0243 78.2274 75.7721 78.2144 73.5329 78.0395C71.0594 77.845 68.6021 77.4529 66.1871 76.8599C66.1351 76.847 66.0863 76.8372 66.0342 76.8243C66.0277 76.8243 66.0179 76.821 66.0114 76.8178C65.0903 76.5877 64.1758 76.3285 63.2677 76.0368C62.9976 75.9493 62.7274 75.8618 62.4606 75.7711C60.7128 75.1813 59.0529 74.5106 57.4972 73.7652C56.9407 73.4963 56.3939 73.2208 55.8666 72.9357C53.2206 71.5098 50.8838 69.666 48.9147 67.4495C48.101 66.5357 47.359 65.57 46.6918 64.5622C46.6755 64.5363 46.6592 64.5104 46.6429 64.4877C41.992 57.4039 41.0319 48.2495 44.3028 40.2293C46.8154 34.0691 51.4729 26.3145 59.7852 21.9204L62.3857 20.7117C62.9292 20.4914 63.4858 20.2807 64.0586 20.0895C67.2026 19.0364 70.4605 18.5211 73.7119 18.5211C79.209 18.5211 84.6736 20.002 89.4872 22.8602C90.047 23.1972 90.584 23.5407 90.8509 23.7157C91.1634 23.9263 91.4758 24.1369 91.7817 24.3605C93.5913 25.6664 95.1926 27.089 96.5954 28.5959C95.8663 28.4144 95.1666 28.3269 94.5449 28.2912C93.9331 28.2588 93.3212 28.4727 92.872 28.8843C92.4229 29.2926 92.1658 29.8467 92.1398 30.4365V30.498C92.1267 31.0943 92.3481 31.6614 92.7712 32.0956C93.2008 32.5428 93.8126 32.7988 94.4375 32.8053C96.2634 32.8215 97.5946 33.4048 98.3887 33.8908C98.6979 34.082 99.0526 34.1792 99.4074 34.1792C99.5929 34.1792 99.7817 34.1533 99.9607 34.0982C100.179 34.0302 100.377 33.9297 100.553 33.7904C101.871 35.9291 102.919 38.1651 103.743 40.4237C105.581 45.4562 106.402 50.8225 106.532 56.1628C106.584 58.3923 106.275 60.463 105.523 62.5725C104.407 65.7061 102.499 68.5221 100.036 70.7645C98.4766 72.1839 96.7125 73.3667 94.8346 74.3291L94.8314 74.3258Z" fill="#232343"/>
<path d="M73.9692 41.3891C73.6535 39.5615 72.791 36.5154 70.4509 35.1252C69.4647 34.5387 68.3028 34.367 67.1897 34.6521C65.3411 35.1252 62.3533 36.8427 61.3281 42.9186C60.9505 45.1514 61.5592 47.4813 63.1442 49.1048C63.1735 49.1339 63.2028 49.1631 63.2288 49.1923C65.8097 51.7425 70.005 51.3731 72.306 48.5701C73.162 47.5299 73.8683 46.1105 74.0766 44.1922C74.1775 43.2589 74.1221 42.3159 73.9659 41.3891H73.9692Z" fill="#232343"/>
<path d="M97.6891 36.4214C96.8721 35.9353 95.9088 35.7927 94.9845 36.0293C93.4548 36.4214 90.9747 37.8472 90.1253 42.883C89.8128 44.7365 90.3173 46.6646 91.6322 48.0127C91.6549 48.0354 91.681 48.0613 91.7038 48.084C93.8421 50.2 97.3213 49.8922 99.2285 47.5687C99.938 46.7067 100.524 45.5304 100.696 43.9394C100.781 43.1649 100.735 42.3839 100.602 41.6159C100.342 40.0994 99.6256 37.575 97.6858 36.4246L97.6891 36.4214Z" fill="#232343"/>
<path d="M70.5508 42.5044C71.7771 41.9959 72.3571 40.5939 71.8464 39.373C71.3357 38.1521 69.9277 37.5745 68.7014 38.083C67.4752 38.5915 66.8951 39.9934 67.4058 41.2143C67.9165 42.4353 69.3245 43.0128 70.5508 42.5044Z" fill="white"/>
<path d="M95.9901 42.8343C97.0902 42.8343 97.982 41.9464 97.982 40.8511C97.982 39.7558 97.0902 38.8679 95.9901 38.8679C94.8901 38.8679 93.9983 39.7558 93.9983 40.8511C93.9983 41.9464 94.8901 42.8343 95.9901 42.8343Z" fill="white"/>
<path d="M62.1645 33.2684C62.5844 33.2684 63.0042 33.1517 63.3687 32.9281C64.3679 32.3157 66.0441 31.5833 68.3386 31.5606C69.0904 31.5542 69.8195 31.2431 70.3337 30.7116C70.8349 30.1931 71.1051 29.5159 71.0855 28.7997V28.7382C71.0595 28.0285 70.7503 27.3674 70.2133 26.8813C69.673 26.3888 68.9407 26.1295 68.2117 26.1717C65.8878 26.3013 62.6527 27.0239 60.433 29.72C59.9188 30.3454 59.8049 31.2301 60.1434 31.9787L60.1629 32.0175C60.4233 32.5846 60.9017 32.9962 61.5038 33.1776C61.7186 33.2425 61.94 33.2749 62.1613 33.2749L62.1645 33.2684ZM60.9831 31.6028C60.7845 31.1685 60.8496 30.6533 61.1458 30.2936C63.1539 27.8535 66.1287 27.1989 68.2703 27.0758C68.3028 27.0758 68.3386 27.0758 68.3711 27.0758C68.8235 27.0758 69.2662 27.2475 69.6047 27.5521C69.9562 27.8729 70.1612 28.3039 70.1775 28.7673V28.8256C70.1905 29.2923 70.0148 29.7395 69.6828 30.0797C69.3345 30.4394 68.8431 30.6468 68.3353 30.6501C65.8293 30.676 63.9936 31.4796 62.8936 32.1536C62.5551 32.361 62.1482 32.4129 61.7772 32.3027C61.4257 32.1958 61.1523 31.9592 60.9863 31.6028H60.9831Z" fill="#232343"/>
<path d="M90.7957 55.8709L90.5354 55.1936L90.5289 55.9195C90.5289 55.9389 90.5354 56.9176 91.0529 57.9383C84.3938 61.1561 77.7478 58.7744 76.1042 58.0841C76.6998 57.0148 76.7063 55.9357 76.7063 55.9195L76.6998 55.1936L76.4395 55.8709C75.4208 58.5281 73.4419 59.7724 73.4224 59.7822L72.6543 60.2553L73.5265 60.0317C74.4444 59.7951 75.0888 59.3512 75.5542 58.8424C76.446 59.2442 79.603 60.521 83.655 60.521C86.0667 60.521 88.7941 60.0673 91.5508 58.7096C92.0195 59.2766 92.703 59.7757 93.7021 60.0317L94.5744 60.2553L93.8063 59.7822C93.7868 59.7692 91.8079 58.5281 90.7892 55.8709H90.7957Z" fill="#232343"/>
</g>
<defs>
<clipPath id="clip0_65_9406">
<rect width="107" height="133" fill="white" transform="translate(0.417236 0.218506)"/>
</clipPath>
</defs>
</svg>
