<svg width="243" height="277" viewBox="0 0 243 277" fill="none" xmlns="http://www.w3.org/2000/svg">
<ellipse cx="18" cy="15.4995" rx="16" ry="15.5" fill="#FFCD02"/>
<path d="M55.9734 75.9617C55.9734 75.9617 56.0383 75.9451 56.0676 75.933C57.1013 75.3545 58.0473 74.6138 58.9294 73.8756C60.8229 72.2738 62.5986 70.536 64.1268 68.5892C64.8668 67.6566 65.6455 66.6771 66.0872 65.5531C66.4765 64.5671 66.6442 63.5086 66.6914 62.4487C66.7386 61.3887 66.673 60.3207 66.5716 59.2572C66.4566 58.0864 66.3265 56.9287 66.1042 55.7715C66.0896 55.6783 66.0674 55.5916 66.0452 55.505C63.5167 47.1227 58.6359 39.0193 51.5882 33.6678C49.9608 32.4317 48.2095 31.3427 46.3464 30.4301C39.2344 26.9739 31.4591 25.1648 24.2767 21.9021C23.0338 21.3385 21.808 20.7336 20.6219 20.0677C20.1856 19.8239 16.5933 17.5119 16.7229 18.3789C16.8106 18.9381 17.5386 18.9688 17.9109 19.2151C23.6884 22.9944 22.6211 33.091 22.6923 39.0509C22.7768 46.0183 23.7978 52.6768 27.1201 58.8756C29.4481 63.2099 32.6678 67.1683 36.6572 70.0757C37.1223 70.4137 37.6024 70.7386 38.0836 71.0494C40.8255 72.9604 43.8968 74.4271 46.967 75.7094C47.0769 75.7598 47.1877 75.796 47.2975 75.8464C48.5576 76.1702 49.8387 76.3962 51.1451 76.4681C52.7693 76.5556 54.4041 76.3956 55.9799 75.9692L55.9734 75.9617Z" fill="#885F48"/>
<path d="M23.2369 26.2444C24.716 30.4544 24.4889 35.0319 24.7358 39.4234C24.9817 43.8291 25.6462 48.2291 27.1284 52.3968C28.4573 56.1283 30.4195 59.6284 32.8935 62.7113C35.3544 65.7791 38.3261 68.4438 41.6579 70.5316C45.0104 72.628 48.7014 74.153 52.5611 75.0024C53.0498 75.1082 53.548 75.1791 54.0463 75.2501C54.2569 75.2793 54.3641 74.8687 54.1545 74.8254C50.2808 73.975 46.5541 72.653 43.124 70.6503C39.7483 68.6799 36.7026 66.1588 34.148 63.2119C31.5738 60.2424 29.4831 56.8536 28.0212 53.1977C26.403 49.148 25.6045 44.8376 25.2614 40.503C24.9283 36.2259 25.1444 31.8035 23.8663 27.6575C23.7116 27.1431 23.5342 26.6484 23.3427 26.1527C23.3129 26.0726 23.2278 26.1729 23.252 26.2313L23.2369 26.2444Z" fill="#6A4A37"/>
<path d="M56.8211 74.7106C56.3127 74.3837 55.7484 74.145 55.1927 73.8856C54.637 73.6262 54.0889 73.3603 53.5493 73.0737C52.4832 72.5156 51.4256 71.9369 50.4003 71.3038C48.3281 70.043 46.3289 68.6528 44.3987 67.1895C40.633 64.3264 37.1493 61.0865 34.2627 57.329C32.6674 55.2445 31.1905 52.9912 30.1217 50.5827C30.0667 50.4583 29.9353 50.612 29.9781 50.7072C30.921 52.894 32.0422 54.966 33.3916 56.9195C34.7727 58.925 36.3342 60.7873 38.0241 62.5383C39.6616 64.2288 41.4352 65.8014 43.2883 67.2521C45.2155 68.7577 47.1966 70.2034 49.2668 71.4923C50.4478 72.2287 51.6535 72.9173 52.8989 73.5448C53.4939 73.8496 54.0975 74.1336 54.7162 74.4046C55.348 74.6907 55.9939 74.9778 56.6791 75.1117C56.868 75.1464 56.9692 74.8204 56.8201 74.7247L56.8211 74.7106Z" fill="#6A4A37"/>
<path d="M23.4587 23.2332C23.0677 22.9502 22.6823 22.6887 22.2752 22.4329C22.1664 22.3684 22.1024 22.5694 22.1755 22.6384C23.7379 23.8912 25.2388 25.2104 26.6244 26.6561C28.0035 28.0943 29.306 29.6121 30.5178 31.2084C32.9293 34.3719 35.0351 37.7476 37.0446 41.1802C39.1746 44.8128 41.1716 48.521 43.1902 52.2236C45.2089 55.9262 47.2784 59.6112 49.5998 63.144C50.7321 64.8623 51.9056 66.5978 53.323 68.0954C54.6017 69.4484 56.081 70.5747 57.7109 71.4778C58.1135 71.6979 58.5246 71.8974 58.9508 72.0837C59.1367 72.1608 59.243 71.7643 59.1004 71.6761C57.4841 70.6818 55.8744 69.6951 54.4852 68.398C53.0024 67.0233 51.8097 65.3574 50.6735 63.6956C48.2795 60.1859 46.1762 56.4773 44.1379 52.752C42.1107 49.07 40.142 45.3638 38.0337 41.7257C36.0317 38.2865 33.9712 34.8716 31.605 31.6688C29.2847 28.5188 26.6399 25.5443 23.4587 23.2332Z" fill="#6A4A37"/>
<path d="M54.6223 72.5407C55.9675 73.1612 57.422 73.5414 58.8473 73.9337C58.8775 73.9075 58.9002 73.8878 58.9304 73.8616C59.142 73.6782 59.3611 73.4883 59.5727 73.3049C58.6477 72.9554 57.7357 72.6209 56.8621 72.1475C55.8383 71.5924 54.8695 70.9633 53.9338 70.2657C52.056 68.8628 50.3429 67.2378 48.6883 65.5886C44.7638 61.6721 41.4165 57.2154 38.5871 52.4555C36.9853 49.7679 35.5184 46.9766 34.2767 44.1091C34.2097 43.9555 34.047 44.1495 34.0953 44.2663C35.1773 46.8885 36.3555 49.4536 37.7306 51.9407C39.0927 54.4126 40.617 56.7969 42.2838 59.0708C43.944 61.3372 45.761 63.4942 47.716 65.5051C49.3666 67.2107 51.0908 68.8791 52.957 70.3449C53.8765 71.0697 54.8348 71.7477 55.849 72.3375C55.6827 72.2832 55.5175 72.2147 55.3522 72.1462C53.9738 71.5942 52.682 70.8215 51.4506 69.9965C48.8987 68.3045 46.5664 66.3163 44.4552 64.11C43.2616 62.8552 42.1143 61.547 41.0491 60.1808C40.9574 60.075 40.8511 60.273 40.9156 60.3627C42.7432 62.8678 44.7219 65.242 47.0265 67.3203C49.3049 69.3685 51.8437 71.2438 54.6299 72.5342L54.6223 72.5407Z" fill="#6A4A37"/>
<path d="M39.635 31.2984C38.0952 30.026 36.5368 28.7168 34.7916 27.7417C33.0191 26.7505 31.0945 26.1028 29.3467 25.0637C29.252 25.0002 29.174 25.2003 29.2556 25.2486C30.7656 26.2424 32.4055 27.0044 33.9971 27.8481C35.5539 28.6822 36.943 29.7808 38.2953 30.898C41.1949 33.2811 43.9717 35.7972 46.5035 38.5653C48.9699 41.2577 51.2369 44.1628 53.2312 47.2115C55.2312 50.2819 56.8981 53.5483 58.3011 56.9377C59.0751 58.8076 59.7333 60.7119 60.2454 62.6766C60.7464 64.598 61.1381 66.5613 61.8416 68.4262C61.9485 68.7174 62.2295 68.3546 62.1665 68.1446C61.6696 66.3652 61.2734 64.5647 60.8273 62.7677C60.3933 61 59.8651 59.261 59.206 57.5693C57.9007 54.2011 56.2706 50.9161 54.3553 47.8517C50.4174 41.5382 45.3385 36.0152 39.6219 31.2833L39.635 31.2984Z" fill="#6A4A37"/>
<path d="M60.9367 72.0693C61.0425 71.9776 61.1352 71.8708 61.241 71.7791C60.8268 71.225 60.3436 70.7439 59.869 70.2422C59.4084 69.7415 58.9489 69.2267 58.5035 68.7128C57.6127 67.6852 56.7531 66.6173 55.9378 65.5241C54.2932 63.3369 52.7976 61.0468 51.3918 58.6923C48.5538 53.9529 46.1148 48.9868 43.5872 44.0711C42.8898 42.717 42.1989 41.3705 41.4648 40.035C40.7175 38.6844 39.94 37.3601 39.1851 36.016C39.1095 35.883 38.9629 36.0498 39.0264 36.1536C40.3708 38.5746 41.5445 41.104 42.7851 43.5886C44.0202 46.0515 45.2478 48.5209 46.5045 50.9783C49.0256 55.8864 51.7144 60.7286 54.9619 65.1923C55.879 66.4486 56.8338 67.6722 57.834 68.8565C58.3318 69.4308 58.8296 70.005 59.3511 70.5455C59.8519 71.0775 60.3518 71.6235 60.9443 72.0628L60.9367 72.0693Z" fill="#6A4A37"/>
<path d="M62.0553 48.8262C62.9816 51.1465 63.7391 53.547 64.3177 55.9702C64.8611 58.2916 65.0488 60.6302 65.0773 63.0141C65.0834 63.7235 65.0614 64.4308 64.9687 65.1331C64.9607 65.0474 64.9526 64.9618 64.937 64.8827C64.8124 63.9452 64.7594 62.9985 64.6349 62.061C64.3454 59.9562 63.7774 57.8811 63.1207 55.8565C62.4519 53.8026 61.6229 51.8082 60.6846 49.8556C59.7529 47.9106 58.741 45.9953 57.5433 44.2014C56.8706 43.1964 56.1309 42.2363 55.3384 41.322C54.5458 40.4077 53.6389 39.6058 52.7168 38.8169C52.6231 38.7394 52.5365 38.96 52.6161 39.0366C54.2012 40.4682 55.5385 42.194 56.7307 43.9662C57.9173 45.7168 58.9266 47.5681 59.8548 49.4632C61.673 53.1941 63.1864 57.123 63.9511 61.2112C64.1512 62.2817 64.2159 63.3639 64.3586 64.4445C64.471 65.3528 64.713 66.3342 64.4718 67.2314C64.4113 67.4823 64.7096 67.6737 64.8154 67.3835C64.8859 67.1901 64.9357 66.988 64.9715 66.785C65.0017 66.7588 65.0395 66.7261 65.0576 66.6706C65.5043 65.6746 65.5697 64.5592 65.5832 63.4755C65.5941 62.3279 65.5552 61.1838 65.4664 60.0432C65.2852 57.5137 64.6673 55.0452 63.8458 52.6472C63.3751 51.2951 62.8243 49.9727 62.2291 48.6755C62.1611 48.536 62.0211 48.7103 62.0705 48.8131L62.0553 48.8262Z" fill="#6A4A37"/>
<g style="mix-blend-mode:multiply" opacity="0.49">
<path d="M55.9734 75.9617C55.9734 75.9617 56.0383 75.9451 56.0676 75.933C57.1013 75.3545 58.0473 74.6138 58.9294 73.8757C60.8229 72.2739 62.5986 70.5361 64.1268 68.5892C64.8668 67.6566 65.6455 66.6771 66.0872 65.5531C66.4765 64.5672 66.6442 63.5087 66.6914 62.4487C66.7386 61.3887 66.673 60.3207 66.5716 59.2572C66.4566 58.0864 66.3265 56.9287 66.1042 55.7715C66.0896 55.6783 66.0674 55.5916 66.0452 55.505C63.5167 47.1227 58.6359 39.0193 51.5882 33.6678C49.9608 32.4317 48.2095 31.3428 46.3464 30.4301C39.2344 26.9739 31.4591 25.1648 24.2767 21.9021C23.0338 21.3385 21.808 20.7336 20.6219 20.0677C20.2607 19.8647 17.732 18.2453 16.9486 18.1966C17.9996 18.9662 18.9861 19.8447 19.9359 20.7419C21.1637 21.914 22.3765 23.0993 23.5817 24.2912C26.5157 27.1871 29.2144 30.3002 31.5826 33.6733C33.9574 37.054 36.0501 40.613 38.1136 44.1841C39.0226 45.7518 39.9467 47.3064 40.8558 48.8741C41.859 50.6116 42.8321 52.3752 43.7391 54.1696C44.689 56.0593 45.5935 57.9882 46.2588 59.9922C46.5279 60.7912 46.7668 61.6163 46.8767 62.4607C46.9604 63.0763 46.9988 63.7312 46.8004 64.3267C46.2187 66.0221 44.1012 65.3961 42.9273 64.7595C41.8219 64.1561 40.8389 63.3274 39.9294 62.4615C39.092 61.6787 38.3085 60.836 37.5618 59.9746C36.4342 58.6891 35.4103 57.34 34.4554 55.9179C33.7258 54.8167 33.0189 53.6959 32.3043 52.5816C32.6606 53.4506 33.0461 54.3075 33.4684 55.1457C34.8451 57.9094 36.4868 60.5359 38.4504 62.9232C39.4747 64.1659 40.5661 65.3638 41.735 66.468C42.3195 67.0201 42.9256 67.5666 43.5489 68.0718C44.1384 68.5534 44.7364 69.0143 45.2418 69.582C45.3662 69.7256 45.2796 69.9462 45.0998 69.983C43.8388 70.2688 42.5098 69.8196 41.3777 69.2923C38.9004 68.1444 36.6301 66.3804 34.719 64.4506C32.5972 62.2931 30.8739 59.8167 29.1356 57.3534C29.4561 58.0284 29.8123 58.6989 30.1847 59.3422C32.9425 64.1113 36.9749 68.3049 41.722 71.1245C41.9734 71.2771 41.7573 71.6233 41.514 71.5563C39.4035 71.0301 37.4744 69.9497 35.7296 68.6698C34.1873 67.5319 32.77 66.2328 31.4282 64.8682C30.8468 64.2738 30.2804 63.6663 29.7433 63.0467C31.6802 65.7085 33.9899 68.1133 36.6451 70.0465C37.1102 70.3845 37.5903 70.7094 38.0715 71.0202C40.8134 72.9312 43.8847 74.3979 46.9549 75.6802C47.0648 75.7306 47.1756 75.7668 47.2854 75.8172C48.5455 76.141 49.8266 76.367 51.133 76.4389C52.7572 76.5264 54.392 76.3665 55.9678 75.9401L55.9734 75.9617Z" fill="#885F48"/>
</g>
<g style="mix-blend-mode:multiply" opacity="0.49">
<path d="M55.9733 75.9617C55.9733 75.9617 56.0383 75.9451 56.0676 75.933C57.1013 75.3545 58.0473 74.6138 58.9293 73.8756C60.8229 72.2738 62.5986 70.536 64.1268 68.5892C64.8668 67.6566 65.6455 66.6771 66.0872 65.5531C66.4765 64.5671 66.6442 63.5086 66.6914 62.4487C66.7386 61.3887 66.673 60.3207 66.5716 59.2572C66.4566 58.0864 66.3265 56.9287 66.1042 55.7715C66.0895 55.6783 66.0674 55.5916 66.0452 55.505C63.5166 47.1227 58.6359 39.0193 51.5882 33.6678C49.9608 32.4317 48.2095 31.3427 46.3464 30.4301C39.2344 26.9739 31.4591 25.1648 24.2767 21.9021C23.0337 21.3385 21.8079 20.7336 20.6219 20.0677C20.2607 19.8647 17.732 18.2453 16.9486 18.1965C17.9996 18.9662 18.9861 19.8447 19.9359 20.7419C19.9686 20.7796 20.0014 20.8174 20.0482 20.8562C20.9314 21.4934 21.8524 22.0978 22.7765 22.6599C26.6706 25.0147 30.8654 26.8309 34.8315 29.0702C36.7259 30.1411 38.5785 31.3011 40.2664 32.6833C42.2147 34.2896 43.9757 36.1378 45.5432 38.114C48.639 42.0211 50.8658 46.4829 52.7788 51.0712C53.6571 53.1684 54.4403 55.3084 55.0502 57.4928C55.6136 59.5321 56.0159 61.6449 56.0343 63.7729C56.0333 63.9855 55.7291 64.0773 55.6132 63.913C54.0618 61.9096 53.2705 59.4855 52.0002 57.3178C50.8054 55.2831 49.6041 53.2409 48.3132 51.2632C47.0615 49.3308 45.7288 47.4422 44.3874 45.5743C42.0741 42.3257 39.58 39.1279 36.5866 36.4687C39.2023 40.2494 42.1992 43.7524 44.6885 47.6162C45.8756 49.4589 46.959 51.3651 48.0056 53.29C49.0653 55.23 50.058 57.2148 50.948 59.249C51.6721 60.924 52.2512 62.6454 52.932 64.3315C53.4037 65.471 53.8659 66.6453 54.0408 67.87C54.1875 68.8942 54.1162 70.0942 53.2185 70.7533C52.2226 71.4975 50.7253 71.4191 49.5847 71.111C49.1675 70.9961 48.7665 70.8541 48.3816 70.6849C49.2628 71.3503 50.1062 72.0484 50.8872 72.8272C50.9995 72.9416 50.9431 73.136 50.8036 73.2041C49.7381 73.7307 48.5749 74.0376 47.389 74.1657C45.8822 74.3206 44.3607 74.1837 42.875 73.8438C44.2237 74.5142 45.5906 75.1292 46.9605 75.7018C47.0703 75.7522 47.1811 75.7885 47.291 75.8388C48.551 76.1626 49.8322 76.3887 51.1385 76.4605C52.7627 76.548 54.3975 76.3881 55.9733 75.9617ZM56.8553 53.8501C56.2329 52.3383 55.6408 50.8003 54.8864 49.35C54.1069 47.8553 53.217 46.4166 52.3412 44.9789C52.2858 44.9608 52.2314 44.9285 52.2007 44.8625C52.0132 44.5089 51.8117 44.1542 51.6167 43.8072C50.8855 42.6279 50.1468 41.4551 49.4005 40.2889C47.4838 37.5435 45.3046 34.9991 43.0639 32.5212C42.9132 32.3474 43.0981 32.0416 43.3253 32.1358C45.7714 33.1254 47.961 34.6285 49.92 36.3845C53.4116 39.5116 56.4732 43.3028 58.1433 47.7178C58.5132 48.6941 58.7823 49.6916 59.0721 50.6976C59.3211 51.5802 59.5766 52.4704 59.7747 53.3707C60.1488 55.0845 60.4306 56.9974 59.8207 58.6907C59.7598 58.8494 59.5205 58.9245 59.4036 58.7744C58.3344 57.2662 57.5764 55.5675 56.8684 53.8652L56.8553 53.8501Z" fill="#885F48"/>
</g>
<g style="mix-blend-mode:screen">
<path d="M31.0748 33.8355C30.4722 32.7434 29.8846 31.6381 29.2235 30.5701C29.1469 30.4513 29.0703 30.3324 28.9937 30.2135C28.3291 29.2941 27.658 28.3673 27.0009 27.4414C26.4401 26.657 25.8576 25.8782 25.1608 25.2118C24.8685 24.9358 24.5471 24.6718 24.1924 24.4764C23.9737 24.3615 23.4754 24.0921 23.2357 24.2735C23.0412 24.4156 23.0977 24.8166 23.1194 25.0095C23.1385 25.1385 23.1577 25.2675 23.1844 25.3899C23.2147 25.5622 23.2525 25.7279 23.2827 25.9002C23.3039 26.001 23.3316 26.1093 23.3528 26.21C23.5852 27.2262 23.7178 28.2493 23.8212 29.2846C24.0698 31.663 24.1472 34.0575 24.0478 36.4465C24.0349 38.2178 23.9797 39.9862 24.0383 41.7484C24.1374 44.7329 24.5252 47.745 25.11 50.679C25.5339 52.7863 26.1292 54.8775 26.9224 56.8765C27.3185 57.883 27.7645 58.886 28.3747 59.7731C28.8045 60.4063 29.4202 61.1166 30.2499 61.1119C30.3562 61.1124 30.4489 61.0056 30.4766 60.9154C31.0699 59.5541 30.3891 57.868 29.8927 56.5779C29.6175 55.8635 29.3056 55.1678 29.037 54.461C28.7331 53.6525 28.531 52.8086 28.3279 51.9789C27.8163 49.9079 27.417 47.7527 27.5482 45.6141C27.5688 45.2257 27.5914 44.809 27.7032 44.4342C27.7511 44.2604 27.8402 44.1037 27.9244 44.0175C28.151 43.821 28.5168 43.8613 28.8428 43.9625C29.7945 44.236 30.6233 44.8409 31.5825 45.1078C32.6179 45.4014 33.6486 45.0637 34.0721 43.9951C34.3491 43.2918 34.3143 42.4883 34.2039 41.7502C34.0834 40.9547 33.8631 40.1663 33.6061 39.3966C33.35 38.6127 33.0875 37.8213 32.7589 37.0606C32.2721 35.9342 31.6599 34.8768 31.0769 33.8073L31.0748 33.8355Z" fill="#885F48"/>
</g>
<g style="mix-blend-mode:screen">
<path d="M34.2485 28.0007C33.2781 27.095 32.0749 26.2719 30.7036 26.2167C29.891 26.18 29.2492 26.6304 29.3007 27.499C29.3416 28.2179 29.7382 28.9196 30.1634 29.5171C30.3328 29.9261 30.6018 30.3281 30.7943 30.6112C31.4473 31.5935 32.2268 32.4927 33.0385 33.3375C33.7182 34.0452 34.4277 34.8331 35.2938 35.3131C35.7301 35.5569 36.254 35.7644 36.7412 35.5935C37.1548 35.46 37.4162 35.0745 37.5366 34.679C37.8916 33.5772 37.4355 32.3183 36.8868 31.3647C36.1879 30.131 35.291 28.9895 34.254 28.0223L34.2485 28.0007Z" fill="#885F48"/>
</g>
<path d="M49.8245 46.6708C51.9252 49.323 53.5886 52.3411 55.1184 55.3425C56.5672 58.1892 58.028 61.0652 59.2561 64.0238C59.5882 64.8344 59.9128 65.6515 60.194 66.4797C60.3407 66.9084 60.4798 67.3437 60.6123 67.7714C60.7459 68.185 60.8416 68.6313 61.0326 69.0348C61.1193 69.2111 61.3148 69.0549 61.3183 68.9063C61.2879 68.1386 61.0385 67.3622 60.8217 66.6237C60.5864 65.8484 60.3218 65.0852 60.028 64.3341C59.4479 62.8253 58.7586 61.3583 58.0541 59.9045C56.6013 56.9156 55.1364 53.8976 53.396 51.0655C52.3922 49.4343 51.2469 47.8994 49.9731 46.4758C49.8814 46.3701 49.76 46.5812 49.8321 46.6643L49.8245 46.6708Z" fill="#6A4A37"/>
<path d="M50.7471 52.0251C51.5415 54.804 52.5912 57.4805 53.9029 60.0623C55.2211 62.6516 56.7429 65.1704 58.4611 67.5188C58.9267 68.1475 59.4149 68.7565 59.8881 69.3787C60.3153 69.9479 60.7754 70.5549 61.4278 70.8496C61.6954 70.975 61.791 70.4288 61.6318 70.2757C61.139 69.8294 60.7208 69.3317 60.3122 68.7993C59.9101 68.2744 59.4929 67.7625 59.0983 67.2311C58.2176 66.0624 57.3962 64.8554 56.6192 63.6232C55.1363 61.2561 53.7873 58.7993 52.6147 56.2558C51.9646 54.8341 51.374 53.3742 50.8993 51.88C50.8529 51.7349 50.7053 51.9158 50.7406 52.0176L50.7471 52.0251Z" fill="#6A4A37"/>
<path d="M91.8366 98.6305L82.3688 106.838C82.3688 106.838 174.952 214.097 194.109 234.653C194.109 234.653 224.303 268.019 227.235 264.393C231.24 262.006 202.496 227.382 202.496 227.382C184.873 205.496 91.8291 98.6371 91.8291 98.6371L91.8366 98.6305Z" fill="#CE3727"/>
<path d="M91.8366 98.6306L87.2727 102.587L227.415 264.249C230.327 260.891 202.51 227.383 202.51 227.383C184.888 205.497 91.8431 98.6381 91.8431 98.6381L91.8366 98.6306Z" fill="#982616"/>
<path d="M61.4831 69.8752L58.2491 72.6787L53.8514 76.491L82.8535 107.397L85.9893 104.679L89.2233 101.875L92.3591 99.1569L65.8807 66.063L61.4831 69.8752Z" fill="#A3A5A8"/>
<path d="M69.7278 70.8672L69.0506 70.025L57.3235 80.1909L58.0612 80.9808L69.7278 70.8672Z" fill="#6B6C6F"/>
<g style="mix-blend-mode:screen">
<path d="M81.0834 100.607C79.8898 99.3525 62.2306 80.5692 59.878 78.0692C58.7444 76.8683 57.6495 75.6205 56.546 74.3934C56.5067 74.3481 56.4609 74.2952 56.4216 74.2499L55.2504 75.2651C56.9146 77.0781 58.6922 78.7928 60.3338 80.6254C61.4569 81.8751 62.5508 83.137 63.689 84.3737C64.8272 85.6104 76.3313 97.6597 77.4781 98.8757C78.6314 100.099 79.7696 101.336 80.9391 102.532C82.0964 103.699 83.2538 104.867 84.3809 106.06L85.2876 105.274C83.8819 103.713 82.5204 102.128 81.0769 100.6L81.0834 100.607Z" fill="#A3A5A8"/>
</g>
<g style="mix-blend-mode:multiply">
<path d="M63.9917 67.7006C65.5502 69.6052 67.1983 71.4454 68.7709 73.351C70.9617 76.0309 73.0769 78.7764 75.23 81.489C77.3699 84.1866 79.5552 86.8448 81.7631 89.4834C82.8671 90.8027 83.9776 92.1296 85.074 93.4554C86.1508 94.7586 87.2115 96.089 88.3033 97.3791C89.167 98.3906 90.0522 99.3965 90.9083 100.415L92.3591 99.157L65.8807 66.063L63.9917 67.7006Z" fill="#A3A5A8"/>
</g>
<g style="mix-blend-mode:screen">
<path d="M85.2985 107.607C85.2985 107.607 192.336 229.692 198.341 237.627C204.347 245.563 219.773 258.579 219.773 258.579L87.3537 105.825L85.2985 107.607Z" fill="#CE3727"/>
</g>
<path d="M44.7443 30.8262L44.7454 30.8121L44.7443 30.8262Z" fill="#FFCD02"/>
<path d="M44.7131 30.8666C44.7131 30.8666 44.7443 30.8263 44.7519 30.8198C44.7453 30.8122 44.7473 30.784 44.7428 30.7482C44.7483 30.7699 44.7216 30.846 44.7131 30.8666Z" fill="#FFCD02"/>
<path d="M43.6563 27.6932C32.888 21.9276 17.0832 15.5122 15.694 16.9018C14.3661 18.225 17.0712 20.3532 17.7001 21.277C20.3359 25.1725 20.2922 30.3586 20.5018 34.8751C20.718 39.5976 20.7816 44.373 21.826 49.0128C22.381 51.4698 23.1732 53.8798 24.1635 56.1976C25.189 58.6172 26.4755 60.9562 28.1594 62.9903C30.0857 65.304 35.1186 69.9801 37.8034 66.1308C38.7503 64.7805 39.1063 63.0691 39.3751 61.4861C39.645 59.8891 39.7465 58.2658 40.1489 56.6995C40.3866 55.7523 40.792 54.9376 41.7839 54.6468C42.2983 54.4921 42.8676 54.4618 43.4011 54.4361C45.5276 54.3396 47.4247 53.1846 48.546 51.3789C50.1809 48.7308 50.3865 44.9528 48.8365 42.2335C47.4322 39.7586 44.6803 38.5841 42.5188 36.8845C41.7802 36.3073 40.4848 35.0877 40.2595 34.1714C39.7635 32.1794 43.1064 34.3106 43.8763 34.649C45.3963 35.3033 47.3772 35.161 47.9538 33.3377C48.2192 32.4988 48.0654 31.5734 47.6673 30.7935C46.8702 29.248 45.2045 28.5479 43.6477 27.7138L43.6563 27.6932Z" fill="#FFCD02"/>
<g style="mix-blend-mode:multiply">
<path d="M43.6562 27.6934C33.7964 22.4108 19.7076 16.5857 16.3382 16.714C19.6976 17.3222 23.0036 18.281 26.0805 19.7694C27.7521 20.5833 29.3432 21.5332 30.8301 22.653C31.5904 23.2247 32.2968 23.8564 33.0183 24.4749C33.6264 24.9933 34.1741 25.564 34.616 26.2264C35.4812 27.5145 35.902 29.0687 35.4951 30.5992C35.3869 31.024 35.2287 31.4522 35.0096 31.8407C34.7905 32.2291 34.5029 32.5843 34.2566 32.9566C33.9781 33.3834 33.7444 33.8771 33.7006 34.3915C33.6598 34.8636 33.7168 35.3568 33.8333 35.8117C34.2194 37.3563 35.3198 38.6257 36.2293 39.8886C36.9715 40.9127 37.7052 41.9575 38.3134 43.0713C38.916 44.1635 39.4185 45.369 39.4635 46.6269C39.5059 47.8209 38.9932 49.0462 37.9872 49.733C36.9812 50.4198 35.7066 50.3998 34.6392 50.9546C34.0206 51.2791 33.5788 51.8076 33.3134 52.448C33.124 52.9166 33.0767 53.3811 33.0828 53.8919C33.1086 55.0209 33.3264 56.1423 33.4671 57.2511C33.6068 58.3741 33.75 59.5469 33.5633 60.6749C33.4122 61.5999 32.9745 62.469 32.0809 62.8731C31.0194 63.3433 29.7589 63.1258 28.7367 62.6488C28.0852 62.3401 27.4982 61.9225 26.9586 61.4374C27.3315 61.9744 27.726 62.5059 28.1442 63.0036C30.0705 65.3173 35.1035 69.9934 37.7882 66.1441C38.7352 64.7938 39.0912 63.0824 39.36 61.4994C39.6298 59.9024 39.7314 58.2791 40.1337 56.7128C40.3714 55.7656 40.7769 54.9509 41.7688 54.6601C42.2832 54.5054 42.8524 54.4751 43.3859 54.4493C45.5124 54.3529 47.4096 53.1979 48.5308 51.3922C50.1658 48.7441 50.3714 44.9661 48.8214 42.2468C47.417 39.7719 44.6652 38.5973 42.5037 36.8978C41.765 36.3206 40.4696 35.101 40.2443 34.1847C39.7484 32.1927 43.0913 34.3239 43.8611 34.6623C45.3811 35.3166 47.362 35.1743 47.9387 33.351C48.2041 32.5121 48.0503 31.5867 47.6522 30.8068C46.855 29.2613 45.1894 28.5612 43.6326 27.7271L43.6562 27.6934Z" fill="#FFCD02"/>
</g>
<path d="M56.3257 36.3238C55.4077 35.4785 54.4227 34.6781 53.4291 34.0969C52.4018 33.4919 50.4884 33.0861 50.0024 34.6323C49.8745 35.0344 49.9289 35.4636 50.0418 35.8686C50.4617 37.4369 51.6034 38.7234 52.5779 39.9697C53.559 41.2235 54.7269 42.5403 56.1638 43.2666C58.1544 44.2805 60.0213 42.7547 59.5218 40.5144C59.3171 39.6066 58.778 38.8167 58.1386 38.1402C57.5853 37.5478 56.9701 36.9298 56.3257 36.3238Z" fill="#FFCD02"/>
<path d="M62.1529 47.8548C61.9655 47.6996 61.7564 47.55 61.5604 47.4155C61.2294 47.1863 60.8117 46.9793 60.4339 47.1084C57.974 47.9041 60.0961 53.039 62.1571 53.264C63.1133 53.3747 64.0538 52.6124 64.2416 51.6687C64.442 50.648 63.8766 49.6294 63.1879 48.8501C62.8735 48.4874 62.5213 48.1575 62.1529 47.8548Z" fill="#FFCD02"/>
<path d="M53.7638 43.5206C53.4413 43.2708 53.0342 43.0149 52.6206 42.95C52.207 42.8851 51.8301 43 51.5662 43.3214C51.3184 43.6157 51.2338 44.0066 51.2489 44.3905C51.1357 45.0842 51.3413 45.7794 51.7817 46.3638C52.2735 47.0227 53.0247 47.5229 53.8685 47.5192C54.2232 47.5162 54.6121 47.4305 54.8852 47.1806C55.2337 46.8651 55.3516 46.4057 55.3132 45.9492C55.2673 45.3009 54.8516 44.6687 54.4389 44.1926C54.2293 43.9508 54.0046 43.7221 53.7562 43.5272L53.7638 43.5206Z" fill="#FFCD02"/>
<g style="mix-blend-mode:screen">
<path d="M26.0407 32.2571C25.5373 31.8597 24.9222 31.6386 24.1942 31.8065C22.3277 32.2334 22.2993 34.3227 22.568 35.8234C22.8044 37.1801 22.8192 38.4643 22.8778 39.8295C22.9318 41.159 23.0282 42.4916 23.3392 43.7969C23.617 44.9722 24.1023 46.4175 25.3457 46.8748C26.2642 47.2167 27.0072 46.6388 27.4388 45.8543C27.9531 44.9056 28.1061 43.754 28.2098 42.698C28.3034 41.7831 28.3199 40.8556 28.2931 39.9392C28.2258 37.9991 28.0795 35.8761 27.322 34.0712C27.0373 33.3916 26.6115 32.7019 26.0482 32.2506L26.0407 32.2571Z" fill="#D9E13F"/>
</g>
<g style="mix-blend-mode:screen">
<path d="M22.7565 24.5299C22.6038 24.3843 22.3917 24.2771 22.1877 24.2554C21.8859 24.2126 21.6184 24.2857 21.3711 24.4737C21.1313 24.6551 20.9615 24.9478 20.8915 25.2334C20.7727 25.707 20.8982 26.2335 21.2051 26.6027C21.3623 26.7841 21.5235 26.909 21.7366 27.0022C21.8943 27.0772 22.0843 27.0978 22.2565 27.0676C22.5372 27.0096 22.7543 26.8479 22.9331 26.6267C23.1356 26.3717 23.2811 26.0206 23.2771 25.68C23.2735 25.4316 23.207 25.1717 23.0583 24.9697C22.9989 24.8095 22.8961 24.6604 22.7631 24.5375L22.7565 24.5299Z" fill="#D9E13F"/>
</g>
</svg>
