<svg width="75" height="77" viewBox="0 0 75 77" fill="none" xmlns="http://www.w3.org/2000/svg">
<path d="M54.9734 68.9617C54.9734 68.9617 55.0383 68.9451 55.0676 68.933C56.1013 68.3545 57.0473 67.6138 57.9294 66.8756C59.8229 65.2738 61.5986 63.536 63.1268 61.5892C63.8668 60.6566 64.6455 59.6771 65.0872 58.5531C65.4765 57.5671 65.6442 56.5086 65.6914 55.4487C65.7386 54.3887 65.673 53.3207 65.5716 52.2572C65.4566 51.0864 65.3265 49.9287 65.1042 48.7715C65.0896 48.6783 65.0674 48.5916 65.0452 48.505C62.5167 40.1227 57.6359 32.0193 50.5882 26.6678C48.9608 25.4317 47.2095 24.3427 45.3464 23.4301C38.2344 19.9739 30.4591 18.1648 23.2767 14.9021C22.0338 14.3385 20.808 13.7336 19.6219 13.0677C19.1856 12.8239 15.5933 10.5119 15.7229 11.3789C15.8106 11.9381 16.5386 11.9688 16.9109 12.2151C22.6884 15.9944 21.6211 26.091 21.6923 32.0509C21.7768 39.0183 22.7978 45.6768 26.1201 51.8756C28.4481 56.2099 31.6678 60.1683 35.6572 63.0757C36.1223 63.4137 36.6024 63.7386 37.0836 64.0494C39.8255 65.9604 42.8968 67.4271 45.967 68.7094C46.0769 68.7598 46.1877 68.796 46.2975 68.8464C47.5576 69.1702 48.8387 69.3962 50.1451 69.4681C51.7693 69.5556 53.4041 69.3956 54.9799 68.9692L54.9734 68.9617Z" fill="#885F48"/>
<path d="M22.2369 19.2444C23.716 23.4544 23.4889 28.0319 23.7358 32.4234C23.9817 36.8291 24.6462 41.2291 26.1284 45.3968C27.4573 49.1283 29.4195 52.6284 31.8935 55.7113C34.3544 58.7791 37.3261 61.4438 40.6579 63.5316C44.0104 65.628 47.7014 67.153 51.5611 68.0024C52.0498 68.1082 52.548 68.1791 53.0463 68.2501C53.2569 68.2793 53.3641 67.8687 53.1545 67.8254C49.2808 66.975 45.5541 65.653 42.124 63.6503C38.7483 61.6799 35.7026 59.1588 33.148 56.2119C30.5738 53.2424 28.4831 49.8536 27.0212 46.1977C25.403 42.148 24.6045 37.8376 24.2614 33.503C23.9283 29.2259 24.1444 24.8035 22.8663 20.6575C22.7116 20.1431 22.5342 19.6484 22.3427 19.1527C22.3129 19.0726 22.2278 19.1729 22.252 19.2313L22.2369 19.2444Z" fill="#6A4A37"/>
<path d="M55.8211 67.7106C55.3127 67.3837 54.7484 67.145 54.1927 66.8856C53.637 66.6262 53.0889 66.3603 52.5493 66.0737C51.4832 65.5156 50.4256 64.9369 49.4003 64.3038C47.3281 63.043 45.3289 61.6528 43.3987 60.1895C39.633 57.3264 36.1493 54.0865 33.2627 50.329C31.6674 48.2445 30.1905 45.9912 29.1217 43.5827C29.0667 43.4583 28.9353 43.612 28.9781 43.7072C29.921 45.894 31.0422 47.966 32.3916 49.9195C33.7727 51.925 35.3342 53.7873 37.0241 55.5383C38.6616 57.2288 40.4352 58.8014 42.2883 60.2521C44.2155 61.7577 46.1966 63.2034 48.2668 64.4923C49.4478 65.2287 50.6535 65.9173 51.8989 66.5448C52.4939 66.8496 53.0975 67.1336 53.7162 67.4046C54.348 67.6907 54.9939 67.9778 55.6791 68.1117C55.868 68.1464 55.9692 67.8204 55.8201 67.7247L55.8211 67.7106Z" fill="#6A4A37"/>
<path d="M22.4587 16.2332C22.0677 15.9502 21.6823 15.6887 21.2752 15.4329C21.1664 15.3684 21.1024 15.5694 21.1755 15.6384C22.7379 16.8912 24.2388 18.2104 25.6244 19.6561C27.0035 21.0943 28.306 22.6121 29.5178 24.2084C31.9293 27.3719 34.0351 30.7476 36.0446 34.1802C38.1746 37.8128 40.1716 41.521 42.1902 45.2236C44.2089 48.9262 46.2784 52.6112 48.5998 56.144C49.7321 57.8623 50.9056 59.5978 52.323 61.0954C53.6017 62.4484 55.081 63.5747 56.7109 64.4778C57.1135 64.6979 57.5246 64.8974 57.9508 65.0837C58.1367 65.1608 58.243 64.7643 58.1004 64.6761C56.4841 63.6818 54.8744 62.6951 53.4852 61.398C52.0024 60.0233 50.8097 58.3574 49.6735 56.6956C47.2795 53.1859 45.1762 49.4773 43.1379 45.752C41.1107 42.07 39.142 38.3638 37.0337 34.7257C35.0317 31.2865 32.9712 27.8716 30.605 24.6688C28.2847 21.5188 25.6399 18.5443 22.4587 16.2332Z" fill="#6A4A37"/>
<path d="M53.6223 65.5407C54.9675 66.1612 56.422 66.5414 57.8473 66.9337C57.8775 66.9075 57.9002 66.8878 57.9304 66.8616C58.142 66.6782 58.3611 66.4883 58.5727 66.3049C57.6477 65.9554 56.7357 65.6209 55.8621 65.1475C54.8383 64.5924 53.8695 63.9633 52.9338 63.2657C51.056 61.8628 49.3429 60.2378 47.6883 58.5886C43.7638 54.6721 40.4165 50.2154 37.5871 45.4555C35.9853 42.7679 34.5184 39.9766 33.2767 37.1091C33.2097 36.9555 33.047 37.1495 33.0953 37.2663C34.1773 39.8885 35.3555 42.4536 36.7306 44.9407C38.0927 47.4126 39.617 49.7969 41.2838 52.0708C42.944 54.3372 44.761 56.4942 46.716 58.5051C48.3666 60.2107 50.0908 61.8791 51.957 63.3449C52.8765 64.0697 53.8348 64.7477 54.849 65.3375C54.6827 65.2832 54.5175 65.2147 54.3522 65.1462C52.9738 64.5942 51.682 63.8215 50.4506 62.9965C47.8987 61.3045 45.5664 59.3163 43.4552 57.11C42.2616 55.8552 41.1143 54.547 40.0491 53.1808C39.9574 53.075 39.8511 53.273 39.9156 53.3627C41.7432 55.8678 43.7219 58.242 46.0265 60.3203C48.3049 62.3685 50.8437 64.2438 53.6299 65.5342L53.6223 65.5407Z" fill="#6A4A37"/>
<path d="M38.635 24.2984C37.0952 23.026 35.5368 21.7168 33.7916 20.7417C32.0191 19.7505 30.0945 19.1028 28.3467 18.0637C28.252 18.0002 28.174 18.2003 28.2556 18.2486C29.7656 19.2424 31.4055 20.0044 32.9971 20.8481C34.5539 21.6822 35.943 22.7808 37.2953 23.898C40.1949 26.2811 42.9717 28.7972 45.5035 31.5653C47.9699 34.2577 50.2369 37.1628 52.2312 40.2115C54.2312 43.2819 55.8981 46.5483 57.3011 49.9377C58.0751 51.8076 58.7333 53.7119 59.2454 55.6766C59.7464 57.598 60.1381 59.5613 60.8416 61.4262C60.9485 61.7174 61.2295 61.3546 61.1665 61.1446C60.6696 59.3652 60.2734 57.5647 59.8273 55.7677C59.3933 54 58.8651 52.261 58.206 50.5693C56.9007 47.2011 55.2706 43.9161 53.3553 40.8517C49.4174 34.5382 44.3385 29.0152 38.6219 24.2833L38.635 24.2984Z" fill="#6A4A37"/>
<path d="M59.9367 65.0693C60.0425 64.9776 60.1352 64.8708 60.241 64.7791C59.8268 64.225 59.3436 63.7439 58.869 63.2422C58.4084 62.7415 57.9489 62.2267 57.5035 61.7128C56.6127 60.6852 55.7531 59.6173 54.9378 58.5241C53.2932 56.3369 51.7976 54.0468 50.3918 51.6923C47.5538 46.9529 45.1148 41.9868 42.5872 37.0711C41.8898 35.717 41.1989 34.3705 40.4648 33.035C39.7175 31.6844 38.94 30.3601 38.1851 29.016C38.1095 28.883 37.9629 29.0498 38.0264 29.1536C39.3708 31.5746 40.5445 34.104 41.7851 36.5886C43.0202 39.0515 44.2478 41.5209 45.5045 43.9783C48.0256 48.8864 50.7144 53.7286 53.9619 58.1923C54.879 59.4486 55.8338 60.6722 56.834 61.8565C57.3318 62.4308 57.8296 63.005 58.3511 63.5455C58.8519 64.0775 59.3518 64.6235 59.9443 65.0628L59.9367 65.0693Z" fill="#6A4A37"/>
<path d="M61.0553 41.8262C61.9816 44.1465 62.7391 46.547 63.3177 48.9702C63.8611 51.2916 64.0488 53.6302 64.0773 56.0141C64.0834 56.7235 64.0614 57.4308 63.9687 58.1331C63.9607 58.0474 63.9526 57.9618 63.937 57.8827C63.8124 56.9452 63.7594 55.9985 63.6349 55.061C63.3454 52.9562 62.7774 50.8811 62.1207 48.8565C61.4519 46.8026 60.6229 44.8082 59.6846 42.8556C58.7529 40.9106 57.741 38.9953 56.5433 37.2014C55.8706 36.1964 55.1309 35.2363 54.3384 34.322C53.5458 33.4077 52.6389 32.6058 51.7168 31.8169C51.6231 31.7394 51.5365 31.96 51.6161 32.0366C53.2012 33.4682 54.5385 35.194 55.7307 36.9662C56.9173 38.7168 57.9266 40.5681 58.8548 42.4632C60.673 46.1941 62.1864 50.123 62.9511 54.2112C63.1512 55.2817 63.2159 56.3639 63.3586 57.4445C63.471 58.3528 63.713 59.3342 63.4718 60.2314C63.4113 60.4823 63.7096 60.6737 63.8154 60.3835C63.8859 60.1901 63.9357 59.988 63.9715 59.785C64.0017 59.7588 64.0395 59.7261 64.0576 59.6706C64.5043 58.6746 64.5697 57.5592 64.5832 56.4755C64.5941 55.3279 64.5552 54.1838 64.4664 53.0432C64.2852 50.5137 63.6673 48.0452 62.8458 45.6472C62.3751 44.2951 61.8243 42.9727 61.2291 41.6755C61.1611 41.536 61.0211 41.7103 61.0705 41.8131L61.0553 41.8262Z" fill="#6A4A37"/>
<g style="mix-blend-mode:multiply" opacity="0.49">
<path d="M54.9734 68.9617C54.9734 68.9617 55.0383 68.9451 55.0676 68.933C56.1013 68.3545 57.0473 67.6138 57.9294 66.8757C59.8229 65.2739 61.5986 63.5361 63.1268 61.5892C63.8668 60.6566 64.6455 59.6771 65.0872 58.5531C65.4765 57.5672 65.6442 56.5087 65.6914 55.4487C65.7386 54.3887 65.673 53.3207 65.5716 52.2572C65.4566 51.0864 65.3265 49.9287 65.1042 48.7715C65.0896 48.6783 65.0674 48.5916 65.0452 48.505C62.5167 40.1227 57.6359 32.0193 50.5882 26.6678C48.9608 25.4317 47.2095 24.3428 45.3464 23.4301C38.2344 19.9739 30.4591 18.1648 23.2767 14.9021C22.0338 14.3385 20.808 13.7336 19.6219 13.0677C19.2607 12.8647 16.732 11.2453 15.9486 11.1966C16.9996 11.9662 17.9861 12.8447 18.9359 13.7419C20.1637 14.914 21.3765 16.0993 22.5817 17.2912C25.5157 20.1871 28.2144 23.3002 30.5826 26.6733C32.9574 30.054 35.0501 33.613 37.1136 37.1841C38.0226 38.7518 38.9467 40.3064 39.8558 41.8741C40.859 43.6116 41.8321 45.3752 42.7391 47.1696C43.689 49.0593 44.5935 50.9882 45.2588 52.9922C45.5279 53.7912 45.7668 54.6163 45.8767 55.4607C45.9604 56.0763 45.9988 56.7312 45.8004 57.3267C45.2187 59.0221 43.1012 58.3961 41.9273 57.7595C40.8219 57.1561 39.8389 56.3274 38.9294 55.4615C38.092 54.6787 37.3085 53.836 36.5618 52.9746C35.4342 51.6891 34.4103 50.34 33.4554 48.9179C32.7258 47.8167 32.0189 46.6959 31.3043 45.5816C31.6606 46.4506 32.0461 47.3075 32.4684 48.1457C33.8451 50.9094 35.4868 53.5359 37.4504 55.9232C38.4747 57.1659 39.5661 58.3638 40.735 59.468C41.3195 60.0201 41.9256 60.5666 42.5489 61.0718C43.1384 61.5534 43.7364 62.0143 44.2418 62.582C44.3662 62.7256 44.2796 62.9462 44.0998 62.983C42.8388 63.2688 41.5098 62.8196 40.3777 62.2923C37.9004 61.1444 35.6301 59.3804 33.719 57.4506C31.5972 55.2931 29.8739 52.8167 28.1356 50.3534C28.4561 51.0284 28.8123 51.6989 29.1847 52.3422C31.9425 57.1113 35.9749 61.3049 40.722 64.1245C40.9734 64.2771 40.7573 64.6233 40.514 64.5563C38.4035 64.0301 36.4744 62.9497 34.7296 61.6698C33.1873 60.5319 31.77 59.2328 30.4282 57.8682C29.8468 57.2738 29.2804 56.6663 28.7433 56.0467C30.6802 58.7085 32.9899 61.1133 35.6451 63.0465C36.1102 63.3845 36.5903 63.7094 37.0715 64.0202C39.8134 65.9312 42.8847 67.3979 45.9549 68.6802C46.0648 68.7306 46.1756 68.7668 46.2854 68.8172C47.5455 69.141 48.8266 69.367 50.133 69.4389C51.7572 69.5264 53.392 69.3665 54.9678 68.9401L54.9734 68.9617Z" fill="#885F48"/>
</g>
<g style="mix-blend-mode:multiply" opacity="0.49">
<path d="M54.9733 68.9617C54.9733 68.9617 55.0383 68.9451 55.0676 68.933C56.1013 68.3545 57.0473 67.6138 57.9293 66.8756C59.8229 65.2738 61.5986 63.536 63.1268 61.5892C63.8668 60.6566 64.6455 59.6771 65.0872 58.5531C65.4765 57.5671 65.6442 56.5086 65.6914 55.4487C65.7386 54.3887 65.673 53.3207 65.5716 52.2572C65.4566 51.0864 65.3265 49.9287 65.1042 48.7715C65.0895 48.6783 65.0674 48.5916 65.0452 48.505C62.5166 40.1227 57.6359 32.0193 50.5882 26.6678C48.9608 25.4317 47.2095 24.3427 45.3464 23.4301C38.2344 19.9739 30.4591 18.1648 23.2767 14.9021C22.0337 14.3385 20.8079 13.7336 19.6219 13.0677C19.2607 12.8647 16.732 11.2453 15.9486 11.1965C16.9996 11.9662 17.9861 12.8447 18.9359 13.7419C18.9686 13.7796 19.0014 13.8174 19.0482 13.8562C19.9314 14.4934 20.8524 15.0978 21.7765 15.6599C25.6706 18.0147 29.8654 19.8309 33.8315 22.0702C35.7259 23.1411 37.5785 24.3011 39.2664 25.6833C41.2147 27.2896 42.9757 29.1378 44.5432 31.114C47.639 35.0211 49.8658 39.4829 51.7788 44.0712C52.6571 46.1684 53.4403 48.3084 54.0502 50.4928C54.6136 52.5321 55.0159 54.6449 55.0343 56.7729C55.0333 56.9855 54.7291 57.0773 54.6132 56.913C53.0618 54.9096 52.2705 52.4855 51.0002 50.3178C49.8054 48.2831 48.6041 46.2409 47.3132 44.2632C46.0615 42.3308 44.7288 40.4422 43.3874 38.5743C41.0741 35.3257 38.58 32.1279 35.5866 29.4687C38.2023 33.2494 41.1992 36.7524 43.6885 40.6162C44.8756 42.4589 45.959 44.3651 47.0056 46.29C48.0653 48.23 49.058 50.2148 49.948 52.249C50.6721 53.924 51.2512 55.6454 51.932 57.3315C52.4037 58.471 52.8659 59.6453 53.0408 60.87C53.1875 61.8942 53.1162 63.0942 52.2185 63.7533C51.2226 64.4975 49.7253 64.4191 48.5847 64.111C48.1675 63.9961 47.7665 63.8541 47.3816 63.6849C48.2628 64.3503 49.1062 65.0484 49.8872 65.8272C49.9995 65.9416 49.9431 66.136 49.8036 66.2041C48.7381 66.7307 47.5749 67.0376 46.389 67.1657C44.8822 67.3206 43.3607 67.1837 41.875 66.8438C43.2237 67.5142 44.5906 68.1292 45.9605 68.7018C46.0703 68.7522 46.1811 68.7885 46.291 68.8388C47.551 69.1626 48.8322 69.3887 50.1385 69.4605C51.7627 69.548 53.3975 69.3881 54.9733 68.9617ZM55.8553 46.8501C55.2329 45.3383 54.6408 43.8003 53.8864 42.35C53.1069 40.8553 52.217 39.4166 51.3412 37.9789C51.2858 37.9608 51.2314 37.9285 51.2007 37.8625C51.0132 37.5089 50.8117 37.1542 50.6167 36.8072C49.8855 35.6279 49.1468 34.4551 48.4005 33.2889C46.4838 30.5435 44.3046 27.9991 42.0639 25.5212C41.9132 25.3474 42.0981 25.0416 42.3253 25.1358C44.7714 26.1254 46.961 27.6285 48.92 29.3845C52.4116 32.5116 55.4732 36.3028 57.1433 40.7178C57.5132 41.6941 57.7823 42.6916 58.0721 43.6976C58.3211 44.5802 58.5766 45.4704 58.7747 46.3707C59.1488 48.0845 59.4306 49.9974 58.8207 51.6907C58.7598 51.8494 58.5205 51.9245 58.4036 51.7744C57.3344 50.2662 56.5764 48.5675 55.8684 46.8652L55.8553 46.8501Z" fill="#885F48"/>
</g>
<g style="mix-blend-mode:screen">
<path d="M30.0748 26.8355C29.4722 25.7434 28.8846 24.6381 28.2235 23.5701C28.1469 23.4513 28.0703 23.3324 27.9937 23.2135C27.3291 22.2941 26.658 21.3673 26.0009 20.4414C25.4401 19.657 24.8576 18.8782 24.1608 18.2118C23.8685 17.9358 23.5471 17.6718 23.1924 17.4764C22.9737 17.3615 22.4754 17.0921 22.2357 17.2735C22.0412 17.4156 22.0977 17.8166 22.1194 18.0095C22.1385 18.1385 22.1577 18.2675 22.1844 18.3899C22.2147 18.5622 22.2525 18.7279 22.2827 18.9002C22.3039 19.001 22.3316 19.1093 22.3528 19.21C22.5852 20.2262 22.7178 21.2493 22.8212 22.2846C23.0698 24.663 23.1472 27.0575 23.0478 29.4465C23.0349 31.2178 22.9797 32.9862 23.0383 34.7484C23.1374 37.7329 23.5252 40.745 24.11 43.679C24.5339 45.7863 25.1292 47.8775 25.9224 49.8765C26.3185 50.883 26.7645 51.886 27.3747 52.7731C27.8045 53.4063 28.4202 54.1166 29.2499 54.1119C29.3562 54.1124 29.4489 54.0056 29.4766 53.9154C30.0699 52.5541 29.3891 50.868 28.8927 49.5779C28.6175 48.8635 28.3056 48.1678 28.037 47.461C27.7331 46.6525 27.531 45.8086 27.3279 44.9789C26.8163 42.9079 26.417 40.7527 26.5482 38.6141C26.5688 38.2257 26.5914 37.809 26.7032 37.4342C26.7511 37.2604 26.8402 37.1037 26.9244 37.0175C27.151 36.821 27.5168 36.8613 27.8428 36.9625C28.7945 37.236 29.6233 37.8409 30.5825 38.1078C31.6179 38.4014 32.6486 38.0637 33.0721 36.9951C33.3491 36.2918 33.3143 35.4883 33.2039 34.7502C33.0834 33.9547 32.8631 33.1663 32.6061 32.3966C32.35 31.6127 32.0875 30.8213 31.7589 30.0606C31.2721 28.9342 30.6599 27.8768 30.0769 26.8073L30.0748 26.8355Z" fill="#885F48"/>
</g>
<g style="mix-blend-mode:screen">
<path d="M33.2485 21.0007C32.2781 20.095 31.0749 19.2719 29.7036 19.2167C28.891 19.18 28.2492 19.6304 28.3007 20.499C28.3416 21.2179 28.7382 21.9196 29.1634 22.5171C29.3328 22.9261 29.6018 23.3281 29.7943 23.6112C30.4473 24.5935 31.2268 25.4927 32.0385 26.3375C32.7182 27.0452 33.4277 27.8331 34.2938 28.3131C34.7301 28.5569 35.254 28.7644 35.7412 28.5935C36.1548 28.46 36.4162 28.0745 36.5366 27.679C36.8916 26.5772 36.4355 25.3183 35.8868 24.3647C35.1879 23.131 34.291 21.9895 33.254 21.0223L33.2485 21.0007Z" fill="#885F48"/>
</g>
</svg>
