<svg width="181" height="204" viewBox="0 0 181 204" fill="none" xmlns="http://www.w3.org/2000/svg">
<path d="M38.8366 32.6305L29.3688 40.8379C29.3688 40.8379 121.952 148.097 141.109 168.653C141.109 168.653 171.303 202.019 174.235 198.393C178.24 196.006 149.496 161.382 149.496 161.382C131.873 139.496 38.8291 32.6371 38.8291 32.6371L38.8366 32.6305Z" fill="#CE3727"/>
<path d="M38.8366 32.6306L34.2727 36.5869L174.415 198.249C177.327 194.891 149.51 161.383 149.51 161.383C131.888 139.497 38.8431 32.6381 38.8431 32.6381L38.8366 32.6306Z" fill="#982616"/>
<path d="M8.48309 3.87524L5.24909 6.67873L0.85144 10.491L29.8535 41.3971L32.9893 38.6788L36.2233 35.8753L39.3591 33.1569L12.8807 0.0630038L8.48309 3.87524Z" fill="#A3A5A8"/>
<path d="M16.7278 4.86722L16.0506 4.02496L4.32355 14.1909L5.0612 14.9808L16.7278 4.86722Z" fill="#6B6C6F"/>
<g style="mix-blend-mode:screen">
<path d="M28.0834 34.6073C26.8898 33.3525 9.23056 14.5692 6.87805 12.0692C5.74437 10.8683 4.64947 9.62052 3.54601 8.39341C3.50671 8.34808 3.46086 8.29519 3.42156 8.24985L2.25037 9.26514C3.91461 11.0781 5.6922 12.7928 7.33378 14.6254C8.45689 15.8751 9.55078 17.137 10.689 18.3737C11.8272 19.6104 23.3313 31.6597 24.4781 32.8757C25.6314 34.0993 26.7696 35.3359 27.9391 36.5323C29.0964 37.6994 30.2538 38.8666 31.3809 40.0599L32.2876 39.2739C30.8819 37.7133 29.5204 36.1276 28.0769 34.5997L28.0834 34.6073Z" fill="#A3A5A8"/>
</g>
<g style="mix-blend-mode:multiply">
<path d="M10.9917 1.70058C12.5502 3.60523 14.1983 5.44538 15.7709 7.35104C17.9617 10.0309 20.0769 12.7764 22.23 15.489C24.3699 18.1866 26.5552 20.8448 28.7631 23.4834C29.8671 24.8027 30.9776 26.1296 32.074 27.4554C33.1508 28.7586 34.2115 30.089 35.3033 31.3791C36.167 32.3906 37.0522 33.3965 37.9083 34.4146L39.3591 33.157L12.8807 0.0630188L10.9917 1.70058Z" fill="#A3A5A8"/>
</g>
<g style="mix-blend-mode:screen">
<path d="M32.2985 41.6069C32.2985 41.6069 139.336 163.692 145.341 171.627C151.347 179.563 166.773 192.579 166.773 192.579L34.3537 39.8253L32.2985 41.6069Z" fill="#CE3727"/>
</g>
</svg>
