<svg width="142" height="116" viewBox="0 0 142 116" fill="none" xmlns="http://www.w3.org/2000/svg">
<path fill-rule="evenodd" clip-rule="evenodd" d="M112.549 102.226C112.56 102.004 112.569 101.784 112.579 101.562C112.66 99.7882 112.748 98.0162 112.889 96.2458C113.048 94.2625 113.265 92.1664 113.732 90.2315C114.041 88.9462 114.617 87.0291 115.93 86.4205C117.775 85.3412 119.988 86.4635 120.899 88.232C121.945 90.269 122.214 92.2219 122.425 94.4773C122.747 97.9177 123.194 101.342 123.416 104.793C123.55 106.873 123.736 108.914 123.393 110.988C122.835 114.368 121.214 114.507 118.242 114.848C115.93 115.112 111.724 115.49 110.932 112.544C110.874 112.334 110.833 112.123 110.805 111.912C109.917 112.592 108.674 112.719 106.98 112.913C104.668 113.176 100.403 113.561 99.732 110.569C99.5996 109.981 99.5799 109.392 99.6568 108.794C99.7892 107.782 100.194 106.843 100.582 105.91C100.979 104.96 101.34 104.039 101.517 103.019C101.594 102.572 101.641 102.106 101.686 101.655C101.757 100.957 101.818 100.259 101.882 99.5609C102.045 97.7763 102.213 95.9917 102.439 94.2142C102.689 92.2363 103.002 90.1527 103.553 88.2356C103.92 86.9611 104.577 85.0763 105.888 84.482C107.744 83.4241 109.942 84.5017 110.799 86.3292C111.762 88.3824 111.937 90.3478 112.045 92.5853C112.198 95.8001 112.463 99.006 112.551 102.224L112.549 102.226ZM73.078 98.435C73.0834 98.3598 73.0888 98.2864 73.0941 98.2131C73.18 97.0263 73.2373 95.8377 73.3178 94.651C73.4484 92.7124 73.672 89.1986 74.7365 87.5661C75.5327 86.3436 76.9067 85.2964 78.4274 85.3501C80.3221 85.4163 81.3866 87.0721 81.8965 88.71L81.9197 88.7851L81.9305 88.8639C82.4386 92.5763 82.4046 96.3908 82.5853 100.134C82.6926 102.348 82.7785 104.564 82.8071 106.782C82.8268 108.262 82.8304 109.767 82.7391 111.246C82.6891 112.066 82.6157 113.655 81.9859 114.251C80.4062 115.748 76.3825 115.777 74.3018 115.594C72.4268 115.429 71.0814 114.024 70.8757 112.397C69.0383 113.541 65.5102 113.571 63.5529 113.398C60.6331 113.14 59.37 109.982 61.1484 107.673C61.7781 106.857 62.1932 104.401 62.3667 103.37C62.517 102.475 62.6494 101.58 62.7961 100.685C62.9106 99.9851 63.0341 99.2226 63.2434 98.546C63.4992 97.7208 63.6459 96.7703 63.7819 95.9165C63.9716 94.7208 64.1344 93.5215 64.3204 92.3257C64.6246 90.3639 65.1488 86.9271 66.3296 85.3286C67.2635 84.0649 68.8701 82.9282 70.5178 83.195C72.2229 83.4706 73.053 85.0565 73.3965 86.5942L73.4144 86.6747L73.418 86.7571C73.6058 90.4928 73.2373 94.2894 73.0941 98.0269C73.0888 98.1647 73.0834 98.3043 73.078 98.4422V98.435Z" fill="#000001"/>
<path fill-rule="evenodd" clip-rule="evenodd" d="M70.9848 55.5734C73.1675 55.1814 75.4128 54.9845 77.6259 54.8681C80.0824 54.7392 82.5477 54.716 85.0059 54.7428C89.2264 54.7894 93.4379 54.997 97.653 55.21C101.763 55.4176 105.876 55.5411 109.983 55.8043C114.773 56.1104 119.748 56.5758 124.416 57.7178C126.375 58.1975 127.175 60.469 127.56 62.2161C128.078 64.5735 128.161 67.237 128.145 69.6464C128.125 72.6911 127.903 75.718 127.649 78.7503C127.501 80.5099 127.289 82.2587 126.839 83.9699C126.098 86.7838 124.754 89.2397 123.185 91.6687C120.897 95.2075 118.006 95.2756 114.182 95.5494C112.361 95.6801 110.527 95.7266 108.702 95.766C106.599 95.8126 104.493 95.8448 102.389 95.911C98.1039 96.0471 93.7832 96.1867 89.4966 96.0059C85.7752 95.8484 81.909 95.4402 78.3469 94.3125C77.5436 94.0584 76.7206 93.7272 75.9317 93.4283C74.6381 92.9378 73.3464 92.4402 72.0529 91.9462C70.7522 91.4485 69.4498 90.9509 68.1437 90.4694C67.6607 90.2904 67.174 90.1132 66.6874 89.9449C66.428 89.8554 66.1453 89.7516 65.8805 89.6872L65.4207 89.5744L65.2311 89.1394C64.2578 86.9002 64.0055 84.7074 64.5763 82.3285C65.1058 80.1196 66.2491 78.0916 67.2188 76.0545C68.269 73.8493 69.0615 71.7335 69.2082 69.2669C69.3299 67.2227 69.5249 65.1731 69.702 63.1325C69.8935 60.9326 70.1189 58.6826 70.2012 56.4773L70.2298 55.7094L70.9866 55.5734H70.9848Z" fill="#000001"/>
<path fill-rule="evenodd" clip-rule="evenodd" d="M72.4662 86.7982C72.6415 90.2959 72.3248 93.2172 72.1406 97.9839C72.0797 99.5788 71.6772 110.482 70.6753 111.361C69.2619 112.599 65.3849 112.599 63.637 112.445C61.576 112.263 60.5168 110.056 61.9034 108.255C63.2022 106.569 63.5457 100.787 64.154 98.827C65.0414 95.9648 65.3688 88.232 67.0953 85.8943C68.6071 83.8465 71.5859 82.8799 72.4644 86.8L72.4662 86.7982ZM80.9841 88.9946C79.7657 85.0745 76.8709 86.041 75.5363 88.0888C74.012 90.4265 74.3573 98.1611 73.7185 101.023C73.282 102.982 73.4394 108.765 72.2873 110.451C71.0564 112.252 72.3087 114.459 74.3859 114.642C76.1481 114.797 80.0233 114.796 81.3293 113.557C82.2543 112.68 81.7086 101.775 81.6317 100.18C81.4009 95.4153 81.4635 92.4922 80.9841 88.9946ZM106.318 85.3358C103.387 86.544 102.956 100.298 102.455 103.184C101.936 106.171 100.127 107.979 100.661 110.364C101.119 112.415 104.334 112.256 106.869 111.967C109.661 111.649 110.744 111.651 111.325 108.901C111.748 106.895 111.647 104.899 111.61 102.924C111.544 99.373 111.259 96.1653 111.089 92.6354C110.976 90.2529 110.789 88.565 109.933 86.7392C109.438 85.6848 107.894 84.3996 106.318 85.3394V85.3358ZM116.369 87.2708C117.902 86.331 119.505 87.6162 120.049 88.6706C120.986 90.4981 121.253 92.1843 121.473 94.5686C121.804 98.0967 122.233 101.306 122.462 104.856C122.591 106.83 122.781 108.828 122.45 110.833C121.994 113.584 120.911 113.582 118.133 113.899C115.61 114.189 112.404 114.346 111.851 112.297C111.209 109.912 112.937 108.105 113.318 105.117C113.687 102.232 113.494 88.4772 116.369 87.269V87.2708Z" fill="white"/>
<path fill-rule="evenodd" clip-rule="evenodd" d="M127.096 89.7016C128.644 87.2619 130.05 84.5303 131.005 81.8041C131.437 80.5744 132.277 77.8053 131.794 76.5236C131.089 74.6531 129.921 71.7819 128.519 70.3589C127.837 69.668 126.992 68.6154 126.187 68.1053C125.749 67.8278 125.298 67.6954 124.785 67.6399L122.849 67.4358L124.157 66.0718C124.144 65.8713 123.928 65.3988 123.86 65.252C123.534 64.5324 123.137 63.7234 123.439 62.925C123.563 62.5974 123.786 62.3325 124.078 62.141L124.354 61.9602L124.683 61.9889C126.431 62.141 127.889 62.7782 129.49 63.4566C131.741 64.4107 132.898 66.5175 134.449 68.2413C135.305 69.0683 136.344 70.486 136.857 71.5475C137.097 72.0433 137.5 72.5337 137.849 72.958C138.423 73.6579 139.117 74.4401 139.448 75.2885C141.028 79.3393 141.377 80.834 139.768 84.942C139.4 85.8836 138.978 86.8161 138.552 87.7326C138.019 88.8818 137.466 90.0238 136.899 91.1551C135.258 94.4183 132.895 96.1438 130.463 98.6803L130.361 98.7859L130.232 98.8557C125.561 101.405 120.621 104.131 115.492 105.624C114.308 105.969 113.109 106.25 111.896 106.478L111.819 106.492H111.74C111.166 106.506 110.583 106.449 110.01 106.406C109.491 106.367 108.828 106.309 108.316 106.399C107.201 106.597 107.04 106.22 106.289 105.602L106.26 105.579L106.234 105.554C104.486 103.877 105.105 100.341 105.686 98.2507L105.75 98.0198L105.917 97.8461C106.219 97.5311 106.538 97.3163 106.924 97.1194C107.151 97.0048 107.386 96.9028 107.597 96.756C108.252 96.3031 108.906 96.0472 109.678 95.8735C110.34 95.7232 110.989 95.6373 111.635 95.4081C112.751 95.009 113.862 94.7548 115.031 94.5651C116.247 94.3682 117.464 94.2267 118.675 93.9815C121.493 93.4105 125.051 91.7941 127.096 89.7052V89.7016Z" fill="#000001"/>
<path fill-rule="evenodd" clip-rule="evenodd" d="M124.883 66.6894C126.89 66.9006 127.606 68.073 129.198 69.6876C130.703 71.2145 131.925 74.1787 132.687 76.1853C133.598 78.6161 131.302 84.8758 127.849 90.2941C125.593 92.6479 121.738 94.3305 118.865 94.9123C116.276 95.4367 114.408 95.426 111.957 96.3031C110.511 96.8186 109.441 96.6414 108.141 97.54C107.579 97.9284 107.11 97.9821 106.609 98.503C106.158 100.121 105.475 103.497 106.897 104.861C107.645 105.475 107.518 105.568 108.151 105.455C109.159 105.276 110.64 105.559 111.722 105.536C117.546 104.453 122.031 102.242 129.774 98.0161C132.079 95.6122 134.453 93.8956 136.045 90.7237C136.722 89.3776 138.16 86.4259 138.879 84.5911C140.33 80.8841 140.135 79.6812 138.557 75.6322C138.108 74.4776 136.612 73.2282 135.997 71.9609C135.551 71.0426 134.503 69.616 133.761 68.9036C132.338 67.332 131.114 65.1822 129.116 64.3337C126.921 63.4029 125.971 63.0574 124.6 62.9375C123.47 63.6786 125.817 65.712 124.883 66.6876V66.6894Z" fill="white"/>
<path fill-rule="evenodd" clip-rule="evenodd" d="M71.153 56.5133C78.567 55.1815 89.8168 55.7686 97.6047 56.1642C105.999 56.5902 116.215 56.694 124.189 58.6451C128.304 59.6511 127.137 73.4359 126.697 78.6699C126.298 83.4223 125.565 86.2273 122.384 91.1498C120.342 94.3055 117.811 94.3306 114.113 94.5973C110.862 94.83 106.794 94.8175 102.357 94.9571C93.3521 95.2417 85.0793 95.444 78.6332 93.4034C77.15 92.9344 67.5265 89.1074 66.1059 88.7601C62.8444 81.2546 69.6806 77.3721 70.1618 69.3261C70.3622 65.9645 71.0456 59.4578 71.1548 56.515L71.153 56.5133Z" fill="white"/>
<path fill-rule="evenodd" clip-rule="evenodd" d="M76.0766 19.1756C76.7278 18.7477 77.3594 18.2788 77.9945 17.8331C79.0035 17.1242 80.0233 16.4601 81.1075 15.8712C82.97 14.8581 84.8396 14.0866 86.9095 13.614C89.8759 12.9392 92.9603 16.3832 94.4846 18.5652C95.4113 19.8916 94.6062 23.7687 93.6598 24.9877C92.8923 25.9776 92.0997 26.8582 91.1712 27.696C90.5736 28.2347 89.951 28.7485 89.3445 29.2765C88.5752 29.946 87.8309 30.6351 87.1028 31.3476C87.0938 32.6936 87.1421 34.054 87.1833 35.3965C87.2459 37.4353 87.3246 39.476 87.3997 41.5148C87.466 43.3209 87.5304 45.1252 87.5787 46.9313C87.618 48.3776 87.652 49.8347 87.6341 51.2828C87.6055 53.6832 87.3854 56.0532 87.0706 58.4321C86.7933 60.5371 86.4444 62.635 86.1814 64.7418V64.7597C85.956 66.3134 85.6715 67.8313 85.353 69.3689C85.1097 70.545 84.8736 71.7138 84.6768 72.8988C84.6624 72.9883 84.6481 73.0778 84.6356 73.1691C84.4889 74.2198 84.3994 75.0343 83.9772 76.0385C83.317 77.6119 82.1076 79.0385 80.925 80.245C78.8783 82.3321 76.7421 84.3065 74.504 86.1878C72.8115 87.609 71.0707 88.9605 69.3532 90.3513L69.3245 90.3746L69.2941 90.3943C67.9111 91.3501 65.9646 91.5936 64.3258 91.6813C62.3077 91.7869 60.2592 91.6849 58.2375 91.6598C57.9191 91.6562 57.5988 91.6527 57.2786 91.6527C55.2014 91.6527 52.9364 91.2911 50.8808 90.9707C48.902 90.6628 46.8839 90.2923 44.8927 90.0918C39.8743 89.5906 34.8737 88.7135 29.9985 87.4229C28.0805 86.9163 26.1501 86.4581 24.2322 85.9533C22.1694 85.4109 20.0225 84.8185 18.0455 84.013C16.4246 83.3542 14.3439 82.5881 12.9985 81.4497C12.4492 80.9861 11.9859 80.4491 11.5439 79.8852C10.9428 79.1191 10.3739 78.3207 9.79242 77.5385C8.66887 76.026 7.52743 74.5242 6.41998 73.0009C5.39483 71.5903 4.4162 70.1548 3.45724 68.7013L3.44293 68.6798C2.31043 66.8558 1.80591 64.9566 1.94546 62.8158C1.99734 62.0103 2.13868 61.2227 2.30864 60.4333C2.4464 59.7942 2.611 59.1516 2.71656 58.5072C3.00281 56.762 3.2998 55.0275 3.65941 53.2947C4.17467 50.821 4.79906 48.374 5.55048 45.9629C6.23571 43.7684 7.01933 41.5667 7.77969 39.3954C8.23233 38.1012 8.69034 36.8089 9.15551 35.5183C9.47754 34.6268 9.80137 33.7211 10.1574 32.8422C10.6816 31.5427 11.1575 30.2145 11.6388 28.8989C12.2667 27.1858 12.8947 25.4746 13.5513 23.7723C14.2222 22.0324 14.9235 20.2854 15.7054 18.5885C15.1221 17.5968 14.6051 16.4941 14.088 15.4864C13.7463 14.8187 13.3992 14.1492 13.0289 13.4977C12.1343 11.9296 11.2774 10.4869 11.2666 8.63783C11.2541 6.88721 12.2721 5.0453 13.3438 3.71354C14.2526 2.58405 15.5479 1.38835 16.9077 0.844186C17.9507 0.425326 20.493 0.548835 21.5897 0.708145C21.7328 0.729625 21.8742 0.752897 22.0155 0.777957C23.1176 0.978437 25.2788 1.68189 26.1233 2.46054C27.3005 3.54707 28.1521 5.85976 28.7049 7.35083C29.0377 8.2512 29.3544 9.16051 29.7104 10.0519C29.8857 10.4923 30.1112 11.0561 30.3742 11.509C31.2204 11.6361 32.072 11.7077 32.9254 11.7524C36.1386 11.9135 39.2677 11.7077 42.4792 12.1838C45.1628 12.583 47.8465 13.0072 50.5194 13.4744C53.2245 13.9488 55.9833 14.4553 58.6454 15.132C60.3558 15.5669 62.0698 15.9124 63.8141 16.1809C65.1828 16.3903 66.5586 16.5496 67.9255 16.7626C70.8793 17.2227 73.3733 17.9888 76.0748 19.1774L76.0766 19.1756Z" fill="#000001"/>
<path fill-rule="evenodd" clip-rule="evenodd" d="M86.1527 30.943C89.6808 27.4382 90.6362 27.3236 92.9066 24.4006C93.6508 23.4447 94.3217 19.9972 93.7027 19.1111C92.3198 17.1314 89.5109 14.0007 87.1206 14.543C85.6393 14.8813 83.8913 15.4434 81.5637 16.7072C79.2361 17.9709 77.6367 19.3385 76.1571 20.2549C68.7896 16.9112 66.3976 18.0855 58.4128 16.0556C54.0528 14.9458 46.8231 13.7895 42.3414 13.1254C37.9438 12.472 33.9148 13.0842 29.8088 12.3825C28.4992 10.5997 27.2826 4.82155 25.4792 3.15864C25.1393 2.84539 23.5738 2.02737 21.8473 1.71412C19.8919 1.3597 17.7396 1.53511 17.2637 1.72843C16.2171 2.14729 15.0416 3.12643 14.088 4.31141C13.0074 5.65391 12.2131 7.26491 12.222 8.63068C12.2309 9.87115 12.5494 10.725 13.859 13.0233C14.8788 14.8097 16.0364 17.3426 16.7878 18.5276C14.6015 23.1422 12.3025 30.0767 11.043 33.1966C10.1699 35.359 7.1696 43.976 6.46291 46.244C4.79368 51.6014 4.0852 56.0585 3.65761 58.6576C3.25327 61.1099 1.83452 64.2746 4.25338 68.1715C6.76348 71.9752 7.71885 73.1423 10.5599 76.9657C13.571 81.0218 13.308 81.0505 18.4069 83.1251C21.6988 84.464 26.7244 85.5649 30.2435 86.4957C35.0652 87.772 40.0424 88.6419 44.9893 89.1377C48.3367 89.4724 53.9669 90.6932 57.2803 90.6932C61.7817 90.6932 66.4638 91.1855 68.7538 89.6031C71.8418 87.1061 75.5363 84.3745 80.2451 79.572C83.6802 76.0689 83.453 74.44 83.7357 72.7395C84.2545 69.6052 84.7322 68.1213 85.2349 64.6219C85.743 60.5478 86.6179 56.3037 86.6787 51.2703C86.7378 46.4068 86.0919 34.8345 86.151 30.943H86.1527Z" fill="white"/>
<path fill-rule="evenodd" clip-rule="evenodd" d="M59.4523 41.4038C65.1649 42.3704 70.042 48.5191 73.2426 52.9976L73.341 53.1355L73.3679 53.3019C73.5056 54.1719 73.7042 55.0472 73.8939 55.9082C74.1336 56.9983 74.3787 58.0866 74.597 59.1821C74.9709 61.0526 75.479 63.7484 75.1713 65.6315C74.7974 67.9191 74.3984 70.2031 73.9189 72.4692C73.4019 74.9162 72.79 77.4437 71.9169 79.7904C71.45 82.137 67.013 85.6097 64.9574 86.5852C62.2898 87.8507 58.4325 87.7075 55.5306 87.4945C50.9094 87.158 46.2685 86.7946 41.6651 86.2666C38.4609 85.8996 35.1439 85.146 32.0326 84.3047C28.8803 83.4527 25.5472 82.4073 22.5737 81.0487C18.3371 79.1137 14.7035 77.211 13.1309 72.5587C11.5028 67.749 11.3185 64.6881 12.1343 59.7101C12.5083 57.4297 13.0432 55.253 13.8716 53.0943C14.8717 50.4916 16.2385 48 17.5607 45.5495L17.6197 45.4402L17.711 45.3579C19.9437 43.3406 22.1604 42.2075 24.9783 41.2445C27.0679 40.5303 29.1218 39.9593 31.1327 39.016C34.2637 37.5482 38.103 37.8507 41.4504 37.2474L41.59 37.2224L41.7295 37.2528C47.6675 38.5505 53.6288 39.6084 59.4505 41.4002L59.4523 41.4038ZM17.532 13.7984C17.0132 12.8211 16.5838 11.8097 16.5033 10.6928C16.3656 8.78105 17.532 6.16767 19.6289 5.87948C22.0638 5.54475 24.1159 6.62232 25.32 8.73452C25.8817 9.72081 26.7423 11.1922 26.3075 12.3575C25.9748 13.2471 25.0606 13.6481 24.2018 13.8629C23.1784 14.1206 22.096 14.4214 21.121 14.8295C20.7274 14.9942 20.3695 15.1875 20.0278 15.4434C19.7201 15.6743 19.441 15.9339 19.0188 15.873C18.5697 15.8086 18.364 15.4506 18.1797 15.0854C17.9632 14.654 17.7593 14.2245 17.532 13.7966V13.7984ZM81.6532 26.0581C81.2184 25.3958 80.8928 24.576 80.3006 24.039C79.7854 23.5736 78.855 23.2783 78.6761 22.582C78.4972 21.8803 79.0966 21.3254 79.5814 20.9262C80.5726 20.1118 83.0737 18.345 84.3082 18.2967C86.1939 18.2233 87.8917 19.3045 88.7434 20.9692L88.8113 21.1016L88.8221 21.2502C88.9402 23.0868 88.5358 24.1733 87.4659 25.6053C87.0384 26.1763 86.5052 26.6954 85.9273 27.1125L84.8932 27.8589C84.378 28.2312 83.7464 28.5158 83.1184 28.2312C82.3008 27.8589 82.1112 26.758 81.6532 26.0581ZM82.9986 88.2463C84.2062 87.201 85.4783 86.3955 87.1546 86.5494C87.8792 86.6156 88.5913 86.6174 89.3177 86.5673C90.1997 86.5064 91.0817 86.3883 91.9619 86.2952C93.1696 86.1681 94.3683 86.0911 95.5831 86.075C98.6335 86.0374 101.713 85.9551 104.761 86.0142C106.502 86.0482 109.243 86.3131 110.624 87.4301C112.352 88.8263 112.909 92.0572 111.973 94.0352L111.821 94.3556L111.476 94.429C110.817 94.5704 110.064 94.7064 109.395 94.7727C108.128 94.898 106.835 94.9212 105.563 94.9427C104.108 94.9678 102.654 94.9803 101.201 95.0447C99.342 95.1271 97.4849 95.2309 95.626 95.2953C91.7562 95.426 86.4837 95.494 82.9002 93.9152C82.3205 93.6611 81.9806 92.2416 81.8965 91.6938C81.7015 90.4033 81.9752 89.1306 82.9968 88.2463H82.9986Z" fill="#000001"/>
<path fill-rule="evenodd" clip-rule="evenodd" d="M41.5793 37.9562C38.4394 38.5219 34.3603 38.2999 31.4387 39.6693C26.6278 41.9247 22.6757 41.8441 18.1904 45.8949C15.2903 51.2738 13.7624 54.1987 12.841 59.83C12.0592 64.604 12.1719 67.4948 13.8089 72.3332C15.1561 76.3159 17.9274 78.1417 22.8707 80.4007C27.7925 82.6472 36.3139 84.9348 41.7456 85.5577C46.5887 86.1126 52.4534 86.5547 55.5825 86.7821C58.3628 86.9843 62.1431 87.1293 64.6496 85.939C66.6319 84.9992 70.8971 81.5875 71.2228 79.5988C72.7292 75.5767 73.7525 69.8505 74.4628 65.5151C74.9512 62.5365 73.121 56.3288 72.6594 53.4147C69.2995 48.7159 64.6103 42.9754 59.2859 42.1019C53.3443 40.2707 47.2632 39.2003 41.5775 37.9562H41.5793ZM18.1654 13.4637C17.7324 12.6456 17.2941 11.6916 17.2189 10.6426C17.1027 9.01015 18.1028 6.81382 19.729 6.59007C21.9779 6.2804 23.6955 7.32933 24.7009 9.09069C25.9104 11.2154 26.4203 12.5705 24.03 13.1701C23.0621 13.4153 21.8348 13.7572 20.8472 14.1689C18.5304 15.1373 19.5627 16.0896 18.1654 13.4619V13.4637ZM82.2507 25.6661C81.7391 24.8839 81.4814 24.1464 80.7801 23.5092C79.7514 22.5784 78.5956 22.6625 80.0358 21.4811C81.3222 20.425 83.4924 19.0467 84.3368 19.0127C86.0221 18.9464 87.4176 19.947 88.1064 21.2967C88.2245 23.1207 87.7415 24.039 86.8916 25.1756C86.498 25.7037 86.0043 26.1727 85.5087 26.5307L84.4746 27.2771C83.0093 28.3296 82.9825 26.7759 82.2525 25.6643L82.2507 25.6661ZM83.4655 88.7869C84.2617 88.0977 85.4675 87.1096 87.0884 87.26C89.8383 87.5106 91.4932 86.8411 95.592 86.7892C98.0484 86.7588 102.333 86.6818 104.747 86.7284C106.344 86.7606 108.964 87.0058 110.175 87.9849C111.553 89.0983 112.175 91.9337 111.325 93.7273C110.88 93.8239 109.81 94.0101 109.323 94.0584C107.099 94.2786 104.203 94.1945 101.169 94.3287C95.007 94.6008 87.5983 95.2022 83.1882 93.2583C83.0576 93.201 81.6693 90.3424 83.4655 88.7851V88.7869Z" fill="white"/>
<path fill-rule="evenodd" clip-rule="evenodd" d="M41.8458 35.9407C42.9569 36.0409 44.762 36.2289 45.7049 36.3596C47.9162 36.6656 56.3607 37.5606 56.8313 39.689C56.8313 41.8208 56.6792 42.9718 55.6541 44.1729C54.9509 44.9945 53.6485 45.9772 52.4444 46.7935C50.9326 47.8174 48.2096 49.056 46.3561 48.5423C44.2307 48.1933 43.0785 47.0387 41.6186 45.0607C40.5881 43.6645 39.7937 43.0738 39.2033 41.2355C39.0369 40.7093 38.7113 38.9747 39.164 38.3715C39.8921 37.3995 40.2911 35.8011 41.844 35.9407H41.8458Z" fill="black"/>
<path fill-rule="evenodd" clip-rule="evenodd" d="M48.5889 42.5548C48.6981 42.1484 48.4565 41.7314 48.0504 41.6222C47.6443 41.513 47.2256 41.7546 47.1183 42.1628C46.4975 44.4862 45.9124 46.8203 45.3578 49.2726C44.8032 51.7231 44.2915 54.2417 43.8192 56.9159C43.3362 59.6582 42.8871 62.6565 42.447 65.6046C42.1231 67.7687 41.8029 69.9078 41.4952 71.7926C41.4272 72.2079 41.7099 72.5981 42.1231 72.6662C42.5382 72.7342 42.9282 72.4514 42.9962 72.0379C43.3326 69.9883 43.6403 67.9191 43.9552 65.8248C44.3917 62.9035 44.8354 59.9321 45.322 57.1791C45.7979 54.478 46.3043 51.9881 46.8428 49.6074C47.3813 47.2267 47.9645 44.905 48.5907 42.5565L48.5889 42.5548Z" fill="black"/>
<path fill-rule="evenodd" clip-rule="evenodd" d="M38.7006 22.8665C38.6702 23.0097 38.6451 23.135 38.629 23.2155C38.5145 23.7633 38.3267 24.8623 38.0476 25.3223C37.7416 25.8235 37.2443 26.3158 36.6145 26.3068C35.3049 26.2889 35.0652 24.3701 34.9811 23.4142C34.9202 22.7179 35.0401 21.7585 35.092 21.0496C35.1027 20.8993 35.126 20.6236 35.1457 20.3193C34.8093 20.5753 34.4211 20.7238 33.9935 20.6236C32.9021 20.364 32.7483 18.7495 32.7036 17.8455C32.5908 15.5758 32.5193 12.9857 33.0506 10.7643C33.1168 10.4868 33.26 10.2416 33.4961 10.0751C34.049 9.6849 34.7986 9.94265 35.389 10.1091C36.1368 10.3185 36.8328 10.485 37.6146 10.5083C37.8597 10.5155 38.1048 10.5226 38.3499 10.5334C39.8027 10.5906 43.1268 10.6515 43.1769 12.719V12.7906L42.3092 17.7059C42.1589 18.5579 42.014 19.4046 41.8208 20.2477C41.6007 21.2053 41.123 23.4536 39.8939 23.5556C39.3751 23.5986 38.9886 23.2835 38.6988 22.8629L38.7006 22.8665ZM16.9041 28.5318C17.2494 28.9131 18.3926 29.5628 18.6967 29.7383C19.2567 30.0605 19.8435 30.3809 20.3713 30.7532C20.8633 31.1022 21.4412 31.5963 21.3571 32.2711C21.2229 33.363 19.5251 33.5384 18.6842 33.6297C16.3834 33.8803 13.698 33.2252 11.4223 32.7705C10.8176 32.6488 9.84788 32.5987 9.51332 32.0098C9.16981 31.4012 9.66181 30.5312 9.90155 29.9513C10.1484 29.3534 10.3757 28.8075 10.5599 28.1846C10.8551 27.1857 10.8802 25.6696 11.6119 24.9178C12.1165 24.3987 12.8142 24.2913 13.5066 24.345C15.4567 24.4936 16.5319 24.3987 18.0276 25.9184C18.3962 26.2925 18.7898 26.7525 18.6663 27.32C18.5339 27.9304 17.9149 28.1756 17.3835 28.3403C17.2887 28.3707 17.0561 28.4495 16.9041 28.5318ZM10.1037 37.847C10.8122 38.171 11.4652 38.5307 12.1075 38.9729C12.7015 39.381 13.2704 39.8285 13.8537 40.2509C14.4924 40.7127 14.9933 41.0027 15.5068 41.6328C15.7107 41.8834 15.9487 42.0696 16.2117 42.2522C16.5659 42.4992 16.9452 42.7426 16.9398 43.2384C16.9291 44.0493 15.7823 44.3017 15.1686 44.4914C14.5818 44.674 12.6067 45.1269 12.2023 45.4348C12.1487 45.476 12.1254 45.5171 12.1057 45.5816C12.086 45.646 12.0789 45.7158 12.0717 45.7838C12.0306 46.2671 12.095 46.6914 11.8141 47.1353C11.3632 47.8477 10.4562 47.8173 9.72443 47.6973C8.34325 47.4718 6.99606 47.4664 5.6113 47.3501C4.87241 47.2874 4.06016 47.0637 3.72918 46.3226C3.27833 45.3148 4.12993 43.9204 4.53606 42.9986C4.6434 42.7534 4.74538 42.5028 4.82768 42.2486C5.15687 41.2122 5.59341 40.1614 5.77053 39.0856C5.89219 38.3392 6.0872 37.3547 6.85115 37.0021C7.3503 36.7712 7.89061 36.9001 8.38261 37.0808C8.96228 37.2956 9.54016 37.5892 10.1037 37.847ZM6.22675 53.7887C6.56847 53.948 6.94418 54.0679 7.302 54.1932C8.549 54.63 9.93018 55.269 9.66897 56.8729C9.60277 57.2738 9.50616 57.6426 9.39524 58.031C9.37019 58.1169 9.29863 58.3496 9.30757 58.4373C9.32189 58.5644 9.74232 58.9314 9.82999 59.0066C10.347 59.4469 10.8838 60.0931 10.6208 60.8198C10.1753 62.0531 7.7117 62.0102 6.62214 61.9744C6.11046 61.9583 5.57373 62.0227 5.06563 62.0746C3.99396 62.1838 2.59489 62.3467 1.68245 61.6468C1.02586 61.142 0.82011 60.3616 0.827267 59.565C0.834423 58.6611 0.961449 57.8305 1.14573 56.9498C1.31569 56.1408 1.49639 55.3639 1.58226 54.5387C1.64667 53.9337 1.88641 53.3645 2.43745 53.0512C3.54669 52.4193 5.18192 53.3018 6.22496 53.7869L6.22675 53.7887ZM81.2506 39.2145C81.1003 39.0373 80.7926 38.801 80.6799 38.7187C80.2326 38.3947 79.721 37.9597 79.7907 37.3422C79.8551 36.764 80.3758 36.4544 80.8427 36.2181C82.4744 35.3929 84.4173 35.4824 86.1975 35.4698C86.9095 35.4645 87.6753 35.5558 88.1995 36.0892C88.6485 36.5456 88.7773 37.1757 88.8221 37.7897C88.8775 38.5665 88.8239 39.4025 88.7934 40.1829C88.7684 40.8219 88.8239 41.4413 88.8417 42.0767C88.8578 42.6674 88.8328 43.3029 88.4607 43.7951C87.8434 44.6132 86.6483 44.5523 85.743 44.4359C83.7571 44.1836 82.3688 44.0511 80.5099 43.1919C79.7102 42.8214 77.8084 42.0087 78.0857 40.8488C78.2879 39.9986 79.5188 39.7641 80.2398 39.5636C80.4223 39.5135 80.9876 39.3559 81.2524 39.2127L81.2506 39.2145ZM80.0287 56.4164C79.6548 55.8669 79.1144 55.1061 78.6278 54.7535C78.0642 54.3454 77.4524 53.735 77.6438 52.9671C77.9497 51.7409 80.1807 51.4778 81.2274 51.152C82.4923 50.76 83.75 50.3626 85.0471 50.0941C85.8396 49.9312 86.7628 49.7487 87.5733 49.7558C88.1673 49.7612 88.7881 49.8829 89.1638 50.3913C89.6164 51.0053 89.4518 51.8806 89.3248 52.5751C89.1513 53.5363 88.9759 54.4349 88.9312 55.4158C88.8918 56.2876 88.7559 57.1557 88.7398 58.0292C88.7272 58.6826 88.7201 59.4165 88.6056 60.0609C88.5161 60.5639 88.3354 61.0633 87.8685 61.3318C87.1976 61.7166 86.2028 61.3443 85.5033 61.1689C84.8288 61.0006 84.1543 60.8395 83.4763 60.6856C82.0003 60.3491 80.4849 60.0179 78.991 59.7727C78.4489 59.685 77.8156 59.4755 77.7136 58.8472C77.5758 58.0059 78.6833 57.4135 79.2647 57.0161C79.4114 56.9158 79.8444 56.6187 80.0287 56.4182V56.4164ZM85.4782 65.9249C85.9219 65.9034 86.3585 66.0072 86.6662 66.3509C87.194 66.9416 86.99 67.8796 86.8272 68.5741C86.6233 69.4458 86.3728 70.2889 86.2368 71.1768C85.9971 72.7376 85.3584 75.8755 83.0844 75.2061C82.0521 74.9017 81.1701 74.3361 80.1485 74.0282C79.6404 73.8743 79.1323 73.6971 78.6457 73.4877C77.9014 73.1672 76.7493 72.598 76.7278 71.6565C76.7117 70.8814 77.4255 70.4429 78.0571 70.1905C78.1644 70.1475 78.6815 69.9345 78.7334 69.8182C78.7709 69.7376 78.7763 69.4942 78.7799 69.4047C78.7996 69.0019 78.8228 68.6206 78.889 68.2197C78.9499 67.8474 79.1037 67.5109 79.3578 67.2298C80.3257 66.1612 82.1702 66.4082 83.4709 66.2614C84.149 66.1845 84.7787 65.9589 85.4765 65.9231L85.4782 65.9249ZM54.3802 27.8373C53.9652 28.6732 53.5125 29.5109 53.203 30.3809C52.974 31.0199 52.5965 32.0939 51.7395 32.0169C50.8503 31.9364 50.5909 30.5563 50.2546 30.6691C49.8109 30.8176 49.3386 30.8266 48.936 30.5581C48.1792 30.0497 48.1756 28.854 48.1416 28.036C48.1327 27.8033 48.1059 26.9441 47.9788 26.6774C47.8089 26.6988 47.6353 26.6863 47.469 26.638C45.1235 25.9488 46.3865 18.6635 46.7211 17.0221C46.9895 15.7029 47.3383 14.3747 47.8017 13.1092C47.9985 12.5722 48.3223 12.1175 48.8054 11.8043C50.4192 10.7625 53.2924 11.8794 54.942 12.4361C55.6326 12.6688 56.3643 12.7512 57.08 12.8765C57.8046 13.0036 58.5935 13.1843 59.1213 13.7375C59.7403 14.3854 59.76 15.2769 59.6008 16.1092C59.2305 18.0263 58.6293 19.8145 57.9602 21.6439C57.3054 23.4303 56.6506 25.1791 56.2015 27.0336C56.0727 27.567 55.8169 28.1971 55.1674 28.215C54.8293 28.2239 54.586 28.0592 54.382 27.8391L54.3802 27.8373ZM63.5332 15.4326C63.5923 15.0728 63.7551 14.7488 64.0646 14.5412C64.6765 14.1295 65.4994 14.4248 66.1292 14.6414C66.8323 14.8848 67.5265 15.1444 68.2672 15.2446C68.5821 15.2858 68.8987 15.3198 69.2136 15.3485C70.0527 15.4254 70.9168 15.4684 71.747 15.6062C72.4483 15.7226 73.3482 15.9427 73.6506 16.6713C73.7579 16.9272 73.7686 17.2011 73.7042 17.4696C73.5504 18.1069 73.4394 18.7548 73.3464 19.4046C73.1228 20.9905 73.0351 22.5926 72.8079 24.175C72.6397 25.3438 72.3481 26.9101 71.4088 27.7209C70.8524 28.2006 70.2674 28.4727 69.5428 28.5766C69.4337 28.5927 68.8486 28.6374 68.7771 28.684C68.7484 28.7126 68.7109 28.8218 68.7001 28.8576C68.3727 29.9513 67.4227 32.4072 65.9646 32.2747C65.2633 32.2103 64.8679 31.5981 64.6496 30.9948C64.3669 30.2162 64.3419 29.4411 64.3222 28.6231C64.3133 28.2096 64.3151 27.5294 64.1039 27.1642C63.9089 26.8259 63.4778 26.7114 63.1199 26.6523C62.8945 26.6147 62.6852 26.5216 62.5099 26.3731C61.5491 25.5568 62.1789 23.7024 62.3524 22.6499L63.535 15.4344L63.5332 15.4326ZM135.331 74.2591C135.988 74.7031 136.612 75.385 136.12 76.0491C136.029 76.1726 135.918 76.2783 135.791 76.3624C135.435 76.6005 135.027 76.6398 134.612 76.6452C134.467 76.647 134.224 76.6363 134.088 76.6703C133.304 76.8672 132.63 77.0963 131.959 77.5653L131.089 78.1721L130.851 77.1375C130.782 76.8332 130.59 76.468 130.481 76.1637C130.317 75.7001 130.125 75.3027 130.05 74.8051C130.046 74.7872 130.028 74.7514 130.021 74.7353C129.9 74.4793 129.817 74.2914 129.799 73.9978L129.774 73.5789L130.127 73.3516C130.782 72.931 131.472 72.5067 132.183 72.1917C132.614 72.0002 133.433 71.9608 133.905 71.959C134.612 71.9554 135.904 71.9859 136.122 72.8468C136.21 73.1923 136.077 73.5181 135.841 73.7651C135.736 73.8743 135.517 74.0694 135.33 74.2574L135.331 74.2591ZM135.963 79.8046C136.952 79.7169 138.512 80.5796 139.173 81.2133C139.387 81.4192 139.892 81.6214 140.165 81.77C140.423 81.9096 140.666 82.0689 140.878 82.273L140.937 82.3303L140.981 82.4001C141.378 83.0105 141.176 84.1131 140.854 84.7289C140.616 85.1835 140.454 85.8655 139.915 86.0266C139.394 86.1823 138.985 85.7903 138.611 85.4986C137.226 84.4138 133.143 83.2449 131.365 83.1268C130.896 83.0964 130.324 83.1232 130.127 82.5719C130.011 82.2443 130.12 82.1155 130.223 81.8595C130.231 81.8434 130.22 81.7789 130.216 81.7646C130.145 81.412 130.284 81.0665 130.435 80.7551C130.486 80.6477 130.572 80.4973 130.606 80.397C130.676 80.1303 130.884 79.7347 130.914 79.5021L130.968 79.0832L131.361 78.9275C132.184 78.6017 133.227 78.8487 134.059 79.0438C134.449 79.1351 134.821 79.3213 135.183 79.4931C135.396 79.5951 135.709 79.7527 135.959 79.8046H135.963ZM133.528 90.4443C133.75 90.5356 133.982 90.5983 134.247 90.609C134.723 90.6287 135.208 90.5016 135.46 90.0577C135.931 89.2289 135.047 88.1406 134.537 87.5374C134.142 87.0684 133.707 86.6173 133.263 86.1931C132.726 85.6776 132.158 85.2515 131.574 84.7951C131.249 84.5409 130.826 84.4192 130.436 84.301C130.306 84.2617 129.88 84.1399 129.785 84.0487L129.07 83.3613L128.644 84.2563C128.549 84.455 128.501 84.6662 128.454 84.8792C128.436 84.9562 128.406 85.1227 128.37 85.1907C128.127 85.5773 128.12 85.8601 127.957 86.2271C127.71 86.782 127.454 87.4139 127.796 87.9938L127.846 88.0779L127.917 88.146C129.236 89.4115 130.662 90.5625 131.982 91.828L132.426 92.254L132.913 91.8799C133.333 91.5577 133.58 91.2427 133.567 90.6788C133.566 90.5875 133.549 90.5105 133.526 90.4389L133.528 90.4443ZM123.067 91.2641C123.139 91.1818 123.203 91.112 123.307 91.035C123.672 90.7629 123.983 90.754 124.334 90.5696L124.79 90.328L125.162 90.686C126.434 91.9067 127.195 92.7731 127.844 94.436C128.467 96.0327 129.649 99.21 128.467 100.719L128.352 100.864L128.196 100.93C127.948 101.072 127.88 101.225 127.536 101.315C127.25 101.388 126.779 101.428 126.484 101.41C126.457 101.41 126.423 101.406 126.391 101.404C126.336 101.469 126.28 101.535 126.223 101.596C125.869 101.965 125.429 102.382 124.867 102.242C124.262 102.092 124.099 101.464 124.033 100.927C123.949 100.255 123.831 99.5787 123.783 98.9057C123.69 97.5954 123.16 95.9969 122.597 94.8101C122.205 93.9832 121.552 93.3692 121.199 92.4652L120.89 91.6758L121.72 91.504C122.006 91.4449 122.296 91.3572 122.584 91.3125C122.743 91.2892 122.91 91.2874 123.067 91.2659V91.2641ZM114.927 97.3519C115.034 97.2177 115.129 97.0691 115.227 96.9116C115.492 96.4909 115.734 96.1311 116.124 95.8089C116.267 95.6908 116.437 95.6156 116.621 95.5959C117.278 95.5243 117.721 96.1312 118.008 96.6306C118.165 96.9044 118.387 97.343 118.467 97.6509C118.77 98.8179 119.097 100.058 119.17 101.263C119.206 101.839 119.342 102.403 119.423 102.974C119.611 104.311 119.519 105.3 118.124 105.887C117.478 106.159 116.685 106.075 115.986 106.384C115.485 106.606 114.934 106.873 114.376 106.706C113.764 106.524 113.483 105.942 113.311 105.378C113.216 105.067 113.311 104.852 113.324 104.575C113.32 104.39 113.372 104.231 113.368 104.075C113.356 103.461 113.621 102.921 113.61 102.353V102.308L113.614 102.264C113.751 100.952 113.651 100.214 113.143 98.9611C113.045 98.7159 112.932 98.4886 112.842 98.2362C112.667 97.7422 112.54 97.1318 112.927 96.6932C113.068 96.5321 113.256 96.4283 113.465 96.3853C113.68 96.3424 113.894 96.4014 114.064 96.5321C114.093 96.5536 114.12 96.5769 114.147 96.6001C114.204 96.652 114.261 96.704 114.317 96.7577C114.469 96.9026 114.621 97.0494 114.771 97.1962C114.825 97.2481 114.877 97.3 114.93 97.3519H114.927ZM104.3 101.888C104.239 101.125 104.593 99.7523 104.684 99.1831C104.861 98.0733 105.493 97.1031 106.538 96.6413C107.189 96.3531 108.307 96.2189 108.64 97.0423C108.685 97.155 108.708 97.275 108.704 97.3967L108.649 100.193C108.668 100.948 109.084 101.737 109.218 102.498C109.302 102.973 109.533 103.529 109.694 103.989C109.921 104.635 110.191 105.446 110.116 106.137L110.044 106.792L109.384 106.774C108.035 106.737 106.994 106.468 106.003 105.516C105.241 104.784 104.158 103.019 104.3 101.89V101.888ZM128.951 71.1982C128.985 71.2842 129.016 71.4274 129.039 71.5133L129.266 72.3761L130.059 71.9662C130.724 71.6225 131.259 70.8635 131.658 70.2424C132.145 69.4816 132.834 69.24 133.671 69.018L134.222 68.873L134.204 68.302C134.192 67.9315 134.14 67.5824 133.875 67.3014C133.714 67.1314 133.535 67.0633 133.365 66.9219C133.1 66.7035 132.891 66.3044 132.735 66.0037C132.508 65.5669 132.29 65.1176 131.968 64.7399L131.522 64.219L130.984 64.6415C129.463 65.8318 127.563 68.157 128.109 70.2227L128.155 70.3999L128.281 70.5324C128.447 70.7078 128.615 70.876 128.79 71.0425C128.839 71.0873 128.909 71.1481 128.953 71.1982H128.951ZM90.3017 71.2269C90.4716 71.9948 90.8115 72.4083 91.2678 73.0097C91.69 73.5646 92.3126 74.1356 93.0694 73.9101C93.6025 73.7508 93.9067 73.2693 94.1482 72.8039C94.2341 72.6392 94.3128 72.4638 94.4076 72.3045C94.5382 72.0825 94.6259 71.5813 94.6778 71.3236C94.7976 70.7418 94.9086 70.1565 95.0195 69.5729C95.3415 67.8778 95.6564 66.1791 95.9928 64.4857C96.372 62.574 96.7621 60.5746 97.2988 58.7023C97.4813 58.0632 97.6906 57.4332 97.8928 56.7995C98.1558 55.9725 98.5082 54.7106 97.7622 54.025C97.2058 53.5131 96.3255 53.6115 95.6331 53.6885C94.7654 53.7851 93.9389 53.8997 93.0604 53.8693C92.5255 53.8496 92.0281 53.7619 91.5021 53.6813C91.0119 53.6079 90.4985 53.5524 90.044 53.8012C89.2908 54.2147 89.1799 55.21 89.1352 55.9797C89.0386 57.5978 88.9688 59.3144 88.6163 60.9004C88.2961 62.3324 88.1297 63.8897 88.017 65.3521C87.9114 66.7233 87.8434 68.1535 87.9078 69.5282C87.9436 70.2979 87.9884 71.9679 88.9813 72.1452C89.5216 72.24 89.9063 71.8498 90.1603 71.4309C90.1889 71.3826 90.2408 71.3056 90.2999 71.2287L90.3017 71.2269ZM117.474 73.7794C117.363 73.9656 117.253 74.1983 117.163 74.3504C116.852 74.8803 116.44 75.3904 115.794 75.4924C115.462 75.5444 115.131 75.4835 114.855 75.283C114.063 74.7049 114.216 73.3713 114.347 72.5228C114.463 71.771 114.537 70.9906 114.623 70.2334C114.764 68.9733 114.902 67.7113 115.043 66.4512C115.179 65.2322 115.319 64.015 115.471 62.7978C115.569 62.012 115.66 61.1653 115.823 60.3902C116.013 59.4863 116.224 58.5859 116.406 57.6802C116.53 57.059 116.682 56.3591 117.195 55.9367C118.008 55.269 119.419 55.6485 120.335 55.8723C121.14 56.0692 122.097 56.3144 122.838 56.6921C123.352 56.9552 123.781 57.3043 123.976 57.8663C124.133 58.321 124.089 58.7882 124.114 59.2589C124.146 59.864 124.003 60.392 123.749 60.9344C123.534 61.3944 123.226 61.8652 123.099 62.3556C123.046 62.5615 123.017 62.8389 122.987 63.0519C122.915 63.5514 122.847 64.0526 122.777 64.5538C122.58 65.9679 122.377 67.3802 122.137 68.7889C121.886 70.2639 121.605 71.7997 121.187 73.2353C120.943 74.064 120.462 75.7144 119.389 75.7448C119.174 75.7502 118.963 75.6876 118.782 75.573C118.473 75.3761 118.056 74.5706 117.829 74.2377C117.766 74.1446 117.614 73.9298 117.476 73.783L117.474 73.7794ZM103.078 69.632C103.078 69.632 103.067 69.6374 103.061 69.6409C103.004 69.8038 102.954 70.0992 102.924 70.2352C102.802 70.7991 102.637 71.5187 102.013 71.7227C101.559 71.8713 101.147 71.6547 100.836 71.3361C100.181 70.6666 100.245 69.061 100.288 68.1911C100.365 66.6678 100.587 65.1105 100.822 63.6015C101.025 62.2948 101.254 60.9917 101.487 59.6903C101.643 58.8222 101.818 57.9343 101.934 57.0608C102.035 56.3019 102.054 55.3102 102.569 54.7034C102.995 54.2022 103.623 54.0572 104.251 54.0268C105.153 53.9838 106.191 54.1395 107.082 54.2792C107.985 54.4206 108.933 54.5316 109.826 54.7195C110.379 54.8359 110.985 55.0041 111.288 55.5286C111.519 55.9313 111.481 56.3842 111.42 56.8246C111.349 57.3526 111.264 57.8574 111.225 58.3908C111.136 59.5812 110.939 60.8163 110.753 61.9941C110.483 63.6928 110.178 65.3879 109.846 67.0759C109.524 68.7119 109.177 70.348 108.776 71.9662C108.491 73.1135 108.162 74.4149 107.701 75.5014C107.468 76.0474 107.087 76.6917 106.4 76.6524C105.609 76.6058 105.258 75.6589 105.042 75.0271C104.763 74.2162 104.552 73.3677 104.317 72.5443C104.185 72.0825 103.543 69.8611 103.079 69.6302L103.078 69.632Z" fill="#000001"/>
<path fill-rule="evenodd" clip-rule="evenodd" d="M33.7448 10.9326C33.2188 13.1325 33.3244 15.9374 33.4174 17.8115C33.5373 20.2227 34.337 20.6039 35.4713 18.8551C36.3122 17.5574 35.6001 22.2812 35.6931 23.3534C35.9561 26.3481 36.9598 25.7341 37.4357 24.9518C37.8472 24.277 38.2802 19.9595 38.799 21.413C40.3126 25.6482 41.2948 19.333 41.6043 17.5842L42.4613 12.7387C42.4291 11.4051 39.8653 11.2942 37.5932 11.2261C35.3228 11.1581 33.9613 10.0358 33.7466 10.9326H33.7448ZM13.4529 25.061C15.183 25.1935 16.1723 25.0557 17.5177 26.4232C18.1725 27.0909 18.1725 27.3487 17.1724 27.6583C12.4385 29.1297 25.472 32.1709 18.6073 32.9191C16.5212 33.1465 13.9306 32.5432 11.5636 32.0707C9.81209 31.7216 9.85145 31.9489 10.5653 30.227C10.8301 29.5844 11.0144 29.1798 11.2487 28.3904C11.8069 26.5109 11.4366 24.9089 13.4547 25.0628L13.4529 25.061ZM9.80672 38.4986C11.4187 39.2361 12.0252 39.8124 13.4368 40.8309C14.0415 41.2695 14.4781 41.5022 14.9539 42.0857C15.9201 43.2725 17.2494 43.0971 14.9593 43.8095C14.2151 44.0404 12.2971 44.4664 11.7712 44.8674C10.7514 45.6425 12.2542 47.3877 9.8443 46.9921C8.27526 46.7344 7.03542 46.7505 5.67571 46.6377C3.069 46.4175 4.89745 44.4002 5.5129 42.467C6.01027 40.899 6.29831 40.3065 6.47901 39.2038C6.85114 36.9413 7.43796 37.4156 9.80851 38.5004L9.80672 38.4986ZM5.92439 54.4367C7.1535 55.0095 9.21096 55.2404 8.96227 56.7548C8.6957 58.3783 8.10709 58.4785 9.36661 59.549C11.3829 61.2692 7.82262 61.296 6.64718 61.2566C4.59867 61.1922 1.52143 62.3879 1.54469 59.5704C1.56079 57.6426 2.09752 56.5131 2.2979 54.6122C2.50006 52.6969 4.60225 53.8156 5.92618 54.4349L5.92439 54.4367ZM86.2028 36.1859C84.3798 36.2002 82.6139 36.125 81.1665 36.8571C80.331 37.2796 80.2523 37.5248 81.1003 38.1388C85.1186 41.044 74.5433 39.6424 80.8105 42.5422C82.6408 43.3888 83.8466 43.473 85.8343 43.7254C88.8775 44.112 87.9812 42.5834 88.0796 40.1525C88.2031 37.1292 88.2621 36.1698 86.2046 36.1841L86.2028 36.1859ZM85.1902 50.7977C83.8931 51.0644 82.6461 51.4618 81.4385 51.8377C79.9965 52.2852 76.9318 52.6449 79.0465 54.1736C79.678 54.63 80.3579 55.6271 80.7282 56.173C81.4456 57.2327 76.6956 58.6719 79.1055 59.0657C80.5457 59.3019 83.4083 59.9052 85.6751 60.4744C87.6771 60.9774 87.9633 61.2978 88.0224 58.0185C88.0385 57.1217 88.1744 56.2285 88.2138 55.3854C88.3999 51.3347 90.3983 49.7254 85.1884 50.7994L85.1902 50.7977ZM85.5123 66.6409C84.8557 66.6732 84.2134 66.9005 83.5514 66.9757C82.2024 67.1278 79.8444 66.8235 79.5957 68.3379C79.3291 69.9614 79.8551 70.2442 78.3219 70.8564C75.8619 71.8427 79.2272 73.0044 80.3543 73.3445C81.5262 73.6989 82.1827 74.1983 83.2848 74.5205C84.242 74.8034 85.065 74.0909 85.5284 71.0694C85.9094 68.5974 87.0401 66.5658 85.5123 66.6409ZM48.4726 13.3562C46.6388 18.3539 46.1271 26.2192 47.8965 25.965C49.7017 25.7072 47.9538 30.6852 50.0256 29.9889C51.5445 29.477 51.4765 33.0713 52.5285 30.1375C52.8953 29.1154 53.5805 27.8821 54.0063 26.9656C54.5037 25.897 55.0637 28.6822 55.5056 26.8618C56.4717 22.8826 58.1212 20.0079 58.8977 15.9714C59.4308 13.2094 56.9154 13.8556 54.713 13.1128C51.8809 12.1587 49.2366 11.2709 48.4744 13.3544L48.4726 13.3562ZM64.2399 15.5472L63.0573 22.7627C62.9285 23.5521 62.2433 25.7806 63.2344 25.9417C65.8823 26.3767 64.5798 28.7073 65.3223 30.7461C66.0326 32.699 67.3744 30.7855 68.0149 28.6482C68.3996 27.3666 69.4766 28.4424 70.9419 27.175C72.5037 25.8254 72.0797 21.1588 73.0083 17.2978C73.2909 16.1164 70.4713 16.2614 68.1706 15.9517C66.1435 15.6779 64.4385 14.3336 64.2399 15.5454V15.5472ZM131.549 76.9782C132.317 76.443 133.063 76.1888 133.914 75.9758C134.41 75.8523 135.21 76.076 135.546 75.6232C135.777 75.3099 134.566 74.6226 134.347 74.5295C134.208 74.2628 135.065 73.5468 135.328 73.2711C136.045 72.5229 133.022 72.6052 132.476 72.8469C131.818 73.1404 131.104 73.5772 130.515 73.9567C130.535 74.2771 130.719 74.4257 130.758 74.6977C130.825 75.1363 131.018 75.5319 131.156 75.9239C131.222 76.1083 131.487 76.7061 131.549 76.9782ZM139.054 84.9329C137.544 83.7533 133.301 82.5361 131.413 82.4108C130.297 82.3392 131.082 82.4216 130.921 81.6197C130.869 81.3619 131.238 80.8249 131.304 80.5761C131.395 80.2235 131.589 79.9156 131.63 79.5916C132.26 79.3428 133.238 79.5844 133.902 79.7402C134.542 79.8905 135.31 80.4526 135.956 80.5278C136.637 80.3846 138.138 81.2116 138.679 81.7289C139.117 82.1513 139.885 82.307 140.384 82.7885C140.618 83.1483 140.42 84.0218 140.223 84.3959C139.663 85.4646 139.917 85.6114 139.054 84.9329ZM128.415 87.6341C129.64 88.8101 131.15 90.0416 132.48 91.3161C132.705 91.1442 132.861 91.019 132.853 90.6985C132.853 90.627 132.703 90.3871 132.68 90.3137C132.639 90.183 132.701 90.1651 132.619 90.038C132.417 89.7301 132.353 89.3632 132.156 89.0499C132.955 89.1788 133.594 89.8644 134.278 89.8931C136.106 89.9647 133.249 87.1705 132.771 86.7104C132.199 86.1609 131.71 85.8083 131.138 85.359C130.694 85.0117 129.694 84.9509 129.293 84.566C129.157 84.8506 129.141 85.3178 128.982 85.5702C128.765 85.9139 128.751 86.211 128.613 86.5207C128.472 86.8357 128.232 87.3244 128.417 87.6323L128.415 87.6341ZM121.865 92.2039C122.21 92.1323 122.473 92.0536 122.691 92.0196C122.901 91.9874 123.067 91.9999 123.3 91.9516C123.547 91.9014 123.534 91.76 123.736 91.6097C124.001 91.4128 124.357 91.368 124.668 91.2033C125.926 92.4098 126.579 93.1598 127.178 94.6974C127.703 96.0399 128.837 99.0901 127.905 100.279C127.715 100.359 127.54 100.576 127.359 100.622C127.143 100.678 126.71 100.706 126.531 100.696C125.973 100.66 126.058 100.735 125.708 101.1C125.18 101.652 124.869 101.841 124.744 100.839C124.652 100.103 124.54 99.4373 124.498 98.8556C124.402 97.497 123.856 95.7911 123.244 94.5041C122.863 93.7004 122.196 93.047 121.867 92.2057L121.865 92.2039ZM113.995 105.169C113.959 105.051 114.039 104.705 114.038 104.559C114.032 104.344 114.088 104.288 114.082 104.059C114.072 103.492 114.338 103.001 114.324 102.337C114.417 101.451 114.535 100.495 113.805 98.6909C113.68 98.3812 113.066 97.198 113.605 97.0871C113.642 97.0799 114.778 98.213 114.905 98.3347C115.757 97.7762 115.85 96.9671 116.582 96.3603C117.02 95.9952 117.716 97.6062 117.775 97.8317C118.043 98.8681 118.389 100.175 118.457 101.308C118.496 101.959 118.625 102.432 118.714 103.075C118.865 104.138 118.873 104.793 117.847 105.226C117.405 105.411 116.508 105.371 115.696 105.729C114.816 106.119 114.351 106.345 113.995 105.169ZM109.406 106.057C109.509 105.121 108.683 103.578 108.515 102.622C108.375 101.838 107.951 101.081 107.935 100.193L107.99 97.3824C108.001 96.8329 105.749 97.0638 105.393 99.2959C105.341 99.6235 104.902 101.691 105.022 101.916C104.845 102.731 105.892 104.415 106.5 104.999C107.321 105.786 108.164 106.023 109.407 106.057H109.406ZM131.42 65.2072C130.136 66.2113 128.341 68.3128 128.798 70.0402C129.626 70.9155 129.538 70.6094 129.73 71.3307C130.245 71.064 130.726 70.3677 131.054 69.8576C131.623 68.9679 132.385 68.6189 133.485 68.3271C133.464 67.6756 133.313 67.8116 132.905 67.4751C132.233 66.922 131.964 65.8444 131.419 65.2072H131.42ZM89.8526 56.0227C89.9993 53.5417 90.8455 54.5065 93.0372 54.5853C96.1663 54.6981 98.2935 53.1819 97.2129 56.5829C97.0215 57.1844 96.8068 57.8306 96.6136 58.5054C95.5115 62.3467 94.0015 71.5849 93.7922 71.9429C93.3771 72.6518 92.9889 74.0909 91.8385 72.5784C91.5701 72.2275 91.1515 71.7782 90.9958 71.0497C90.7346 69.8307 90.0154 70.2943 89.552 71.0587C88.153 73.3588 88.5036 64.7077 89.3177 61.0579C89.6415 59.6098 89.7291 58.0937 89.8526 56.0244V56.0227ZM117.106 57.8216C116.939 58.6522 116.727 59.5597 116.523 60.5388C116.159 62.268 115.276 71.1965 115.056 72.6321C114.998 73.0026 114.666 74.9448 115.685 74.7854C116.369 74.678 116.71 73.545 117.059 73.1225C117.791 72.2383 118.915 74.8105 119.162 74.9662C120.827 76.0223 122.162 63.1057 122.402 62.1767C122.668 61.151 123.455 60.4583 123.395 59.2984C123.323 57.9541 123.747 57.4457 120.162 56.5686C117.678 55.9618 117.417 56.2625 117.104 57.8216H117.106ZM102.643 57.1539C102.33 59.5329 100.129 69.5927 101.346 70.8331C102.258 71.7639 102.147 69.4333 102.543 69.1273C105.024 67.1959 105.482 78.8899 107.04 75.224C108.339 72.1685 110.288 61.3121 110.509 58.3371C110.735 55.3085 111.726 55.7273 106.971 54.9863C102.639 54.3132 102.927 54.9916 102.643 57.1539Z" fill="white"/>
<path fill-rule="evenodd" clip-rule="evenodd" d="M4.78475 58.892C4.63088 58.8455 4.46986 58.9314 4.42335 59.0853C4.37683 59.2375 4.46271 59.4003 4.61478 59.4469C6.50764 60.0322 8.37367 60.5352 10.2236 60.9344C12.0753 61.3336 13.9163 61.6307 15.7573 61.8043C16.523 61.8777 17.3012 61.9153 18.1171 61.9565C20.1584 62.0585 22.4467 62.1713 25.311 62.8586C25.4667 62.8962 25.6223 62.7996 25.6599 62.6438C25.6975 62.4881 25.6009 62.3324 25.4452 62.2948C22.5254 61.5949 20.2103 61.4803 18.1439 61.3765C17.3317 61.3353 16.5588 61.2978 15.8109 61.2262C13.9986 61.0543 12.1791 60.7625 10.3435 60.3652C8.50606 59.9696 6.65614 59.472 4.78296 58.892H4.78475ZM8.62056 49.0864C8.46849 49.0398 8.30568 49.1258 8.25917 49.2797C8.21265 49.4319 8.29853 49.5947 8.45239 49.6413C10.8677 50.3788 13.2006 51.5781 15.5676 52.7953C16.8021 53.4307 18.0473 54.0697 19.3211 54.6533C19.8257 54.8842 20.1388 55.0256 20.4447 55.1652C22.6274 56.1533 24.9192 57.1915 26.796 58.389C26.9302 58.4749 27.1091 58.4356 27.1949 58.3013C27.2808 58.1671 27.2415 57.9881 27.1073 57.9003C25.1876 56.676 22.8796 55.6306 20.6826 54.6354L19.5609 54.1252C18.2978 53.5471 17.0597 52.9098 15.8306 52.278C13.4422 51.05 11.0859 49.8382 8.62056 49.0864ZM5.21234 53.6383C7.73854 53.7851 10.3041 54.8018 12.841 55.8096C15.0219 56.6742 17.1814 57.5316 19.2442 57.7983C20.985 58.0238 22.3805 58.6629 23.8583 59.3413C24.862 59.8013 25.9068 60.281 27.1144 60.6516C27.2665 60.6981 27.3542 60.8592 27.3077 61.0131C27.2611 61.1671 27.1001 61.253 26.9463 61.2065C25.6993 60.8234 24.6383 60.3365 23.6168 59.8693C22.1783 59.2106 20.8222 58.5877 19.1709 58.3729C17.0365 58.0972 14.843 57.2255 12.6281 56.3466C10.1359 55.3567 7.61688 54.3579 5.18192 54.2165C5.0227 54.2076 4.89925 54.0715 4.90819 53.9104C4.91714 53.7493 5.05311 53.6276 5.21413 53.6366L5.21234 53.6383ZM82.3992 74.9179C82.5513 74.968 82.7159 74.8874 82.766 74.7353C82.8161 74.5831 82.7356 74.4185 82.5835 74.3683C80.9358 73.8188 79.1145 73.3319 77.2771 72.8433C75.3305 72.3242 73.3679 71.8015 71.5842 71.1947C70.3085 70.7597 69.0043 70.3999 67.5086 70.0526C66.0183 69.7072 64.3347 69.3724 62.2898 68.984C62.1324 68.9554 61.9803 69.0592 61.9517 69.2149C61.923 69.3724 62.0268 69.5246 62.1825 69.5532C64.2185 69.9399 65.8948 70.2728 67.378 70.6183C68.854 70.962 70.1386 71.3146 71.3981 71.7442C73.1943 72.3564 75.1713 72.8826 77.1303 73.4053C78.9606 73.8922 80.7765 74.3755 82.401 74.9197L82.3992 74.9179ZM82.9735 64.4141C83.1328 64.4338 83.2777 64.3211 83.2974 64.1636C83.317 64.0042 83.2043 63.8592 83.0469 63.8396C80.4885 63.5138 77.8442 63.6516 75.1623 63.7912C73.7776 63.8628 72.3839 63.9362 71.0045 63.9452C70.5948 63.9487 70.1815 63.9487 69.7646 63.9505C67.3512 63.9577 64.816 63.9649 62.5761 64.2924C62.4168 64.3157 62.3077 64.4625 62.3292 64.6218C62.3524 64.7811 62.4991 64.8903 62.6584 64.8688C64.8679 64.5466 67.3762 64.5394 69.7664 64.5323L71.0081 64.5269C72.4179 64.5162 73.8116 64.4446 75.1928 64.373C77.8514 64.2334 80.4724 64.0973 82.9753 64.4159L82.9735 64.4141ZM84.081 69.9309C81.7999 69.061 79.093 68.9393 76.4147 68.8193C74.0334 68.7119 71.6736 68.6063 69.6179 67.9834C67.8181 67.4392 66.224 67.3265 64.4654 67.2012C63.5511 67.1367 62.594 67.0687 61.5116 66.9327C61.3523 66.913 61.2396 66.768 61.2593 66.6105C61.279 66.4512 61.4239 66.3384 61.5813 66.3581C62.6172 66.4888 63.5833 66.5568 64.5047 66.6212C66.2992 66.7483 67.9255 66.8629 69.7843 67.4267C71.7774 68.03 74.0978 68.1338 76.438 68.2394C79.1646 68.3611 81.9215 68.4864 84.2867 69.3886C84.437 69.4458 84.5122 69.6141 84.4549 69.7627C84.3977 69.913 84.2295 69.9882 84.081 69.9309Z" fill="#000001"/>
<path fill-rule="evenodd" clip-rule="evenodd" d="M65.3849 37.079C65.3563 36.6602 64.9931 36.3416 64.5745 36.3702C64.154 36.3988 63.8374 36.7622 63.866 37.1811L63.8893 37.5641C63.9554 38.7455 64.0163 39.8285 65.0683 41.0958C65.5889 41.7223 66.2026 42.1018 66.92 42.3631C67.5784 42.6012 68.3065 42.7283 69.1385 42.8589C69.6716 42.9431 70.7236 42.8751 71.6289 42.6746C72.4197 42.5009 73.1568 42.2056 73.5038 41.7814C73.8062 41.4126 74.2231 40.9007 74.5898 40.3333C74.987 39.7211 75.3269 39.0409 75.4307 38.3804C75.4951 37.9651 75.2106 37.5767 74.7956 37.5122C74.3805 37.4478 73.9923 37.7324 73.9279 38.1477C73.8635 38.5594 73.6112 39.0445 73.3124 39.5045C72.985 40.0093 72.6039 40.4782 72.3266 40.8148C72.2193 40.9454 71.7988 41.0779 71.2979 41.1889C70.559 41.3518 69.7467 41.4144 69.3675 41.3553C68.6232 41.239 67.9738 41.1244 67.4352 40.9311C66.9576 40.7593 66.5568 40.514 66.233 40.1238C65.5048 39.2467 65.4583 38.4018 65.4064 37.48L65.3831 37.079H65.3849Z" fill="black"/>
<path fill-rule="evenodd" clip-rule="evenodd" d="M23.7652 30.5402C23.7366 30.1214 23.3734 29.8027 22.9548 29.8314C22.5361 29.86 22.2177 30.2234 22.2463 30.6423L22.2696 31.0253C22.3358 32.2067 22.3966 33.2897 23.4486 34.557C23.9692 35.1835 24.5829 35.563 25.3003 35.8243C25.9569 36.0624 26.6868 36.1895 27.5188 36.3201C28.0519 36.4043 29.1039 36.3362 30.0092 36.1358C30.8017 35.9621 31.5371 35.6668 31.8841 35.2425C32.1865 34.8756 32.6034 34.3619 32.9701 33.7944C33.3673 33.1823 33.7072 32.5021 33.811 31.8415C33.8754 31.4263 33.5909 31.0378 33.1759 30.9734C32.7608 30.909 32.3726 31.1936 32.3082 31.6089C32.2438 32.0206 31.9915 32.5056 31.6927 32.9657C31.3653 33.4705 30.9842 33.9394 30.7069 34.2759C30.5996 34.4066 30.1774 34.5391 29.6782 34.6501C28.9393 34.813 28.127 34.8756 27.7478 34.8147C27.0035 34.6984 26.3541 34.5856 25.8155 34.3905C25.3378 34.2187 24.9371 33.9734 24.6133 33.5832C23.8851 32.7061 23.8368 31.8613 23.7867 30.9394L23.7634 30.5384L23.7652 30.5402Z" fill="black"/>
<path fill-rule="evenodd" clip-rule="evenodd" d="M38.9099 70.5038C38.8813 70.0832 38.5199 69.7664 38.0995 69.795C37.679 69.8237 37.3624 70.187 37.391 70.6059L37.4142 70.9889C37.4804 72.1703 37.5413 73.2533 38.5933 74.5206C39.1139 75.1471 39.7275 75.5266 40.445 75.7879C41.1034 76.026 41.8315 76.1531 42.6634 76.2838C43.1966 76.3679 44.2486 76.2999 45.1539 76.0994C45.9464 75.9258 46.6818 75.6304 47.0288 75.2062C47.3312 74.8392 47.7481 74.3255 48.1148 73.7581C48.512 73.1459 48.8519 72.4657 48.9557 71.8052C49.0201 71.3899 48.7356 71.0015 48.3206 70.937C47.9055 70.8726 47.5173 71.1572 47.4529 71.5725C47.3884 71.9842 47.1362 72.4693 46.8374 72.9293C46.51 73.4341 46.1289 73.9031 45.8516 74.2396C45.7443 74.3685 45.3238 74.5027 44.8229 74.6137C44.084 74.7766 43.2717 74.8392 42.8924 74.7802C42.1482 74.662 41.4987 74.551 40.9602 74.3559C40.4825 74.1823 40.0818 73.9389 39.758 73.5486C39.0298 72.6715 38.9833 71.8267 38.9314 70.9048L38.9081 70.5038H38.9099Z" fill="black"/>
</svg>
