<?xml version="1.0" encoding="UTF-8"?>
<svg id="Layer_2" data-name="Layer 2" xmlns="http://www.w3.org/2000/svg" viewBox="0 0 109.64 143.12">
  <defs>
    <style>
      .cls-1 {
        fill: #fff;
      }

      .cls-2 {
        fill: #505151;
      }

      .cls-3 {
        fill: #728084;
      }

      .cls-4 {
        fill: #97a9af;
      }

      .cls-5 {
        fill: #231f20;
      }

      .cls-6 {
        fill: #a5206c;
      }

      .cls-7 {
        fill: #7f8d93;
      }

      .cls-8 {
        fill: #f982c0;
      }
    </style>
  </defs>
  <g id="Layer_2-2" data-name="Layer 2">
    <g>
      <path class="cls-7" d="M80.88,78.1c.64,0,1.41.12,2.39.25,2.05.29,4.96.7,9.39.6,5.62-.13,9.9-2.71,11.99-4.27-2.84-.29-6.02-3.54-7.98-8.1-.66.23-1.4.36-2.09.36h0c-1.51,0-2.55-.59-2.85-1.62-.14-.48-.02-1.05.33-1.64.48-.82,1.53-1.8,3.08-2.37,0-.05-.02-.09-.02-.14-.51.12-1.09.18-1.63.18h0c-1.45,0-2.34-.46-2.51-1.29-.14-.71.55-1.64.85-2.01.43-.53,1.03-1.07,1.72-1.48-.56-.17-1-.45-1.12-.87-.82.61-1.66,1.29-2.54,1.98-2.2,1.75-4.66,3.71-7.52,5.37-.01,0-.03.02-.04.03-.08.05-.16.09-.24.14-1.08.62-2.16,1.16-3.24,1.63-1.1,1.25-2.41,2.22-3.81,2.93.9,2.02,2.16,4.13,3.7,6.7.67,1.12,1.39,2.32,2.15,3.63Z"/>
      <path class="cls-5" d="M83.18,62.09c.12.19.06.43-.13.55-.23.14-.46.28-.69.41,2.86-1.66,5.32-3.62,7.52-5.37.87-.7,1.72-1.37,2.54-1.98-.01-.05-.02-.09-.03-.15-.04-.35.13-.75.5-1.18-1.13.79-2.29,1.71-3.51,2.68-2,1.59-4.21,3.35-6.74,4.9.19-.11.42-.05.54.14Z"/>
      <path class="cls-5" d="M105.05,74.7c-.13,0-.27,0-.4-.02-2.09,1.56-6.37,4.14-11.99,4.27-4.43.11-7.34-.31-9.39-.6-.97-.14-1.74-.25-2.39-.25.16.27.32.55.48.83.5.04,1.09.11,1.8.22,1.85.26,4.38.62,8.09.62.46,0,.93,0,1.43-.02,6.99-.16,11.87-3.85,13.42-5.2-.34.1-.69.15-1.05.15Z"/>
      <path class="cls-5" d="M82.08,63.21c.08-.05.16-.09.24-.14-.08.05-.16.09-.24.14Z"/>
      <path class="cls-5" d="M78.84,64.84c1.08-.46,2.16-1,3.24-1.63.08-.05.16-.09.24-.14.01,0,.03-.02.04-.03.23-.13.46-.27.69-.41.19-.12.25-.36.13-.55-.11-.18-.35-.24-.54-.14,0,0,0,0-.01,0-.92.56-1.84,1.07-2.75,1.51-.32.49-.66.94-1.04,1.37Z"/>
      <path class="cls-3" d="M96.34,53.01c-1.1.44-2.19,1.14-2.78,1.8-.39.43-.38.63-.38.66.02.18.75.5,1.9.51.01,0,.02,0,.03,0,.24-1.21.66-2.21,1.23-2.96Z"/>
      <path class="cls-5" d="M92.39,55.55c0,.05.02.1.03.15.12.43.56.71,1.12.87.48-.28,1-.5,1.54-.6-1.14,0-1.88-.33-1.9-.51,0-.02-.01-.22.38-.66.59-.66,1.68-1.37,2.78-1.8.41-.53.89-.94,1.45-1.2-1.73.18-3.82,1.36-4.83,2.47-.03.03-.05.06-.08.09-.37.43-.54.83-.5,1.18Z"/>
      <path class="cls-3" d="M92.43,58.55c-.53.64-.72,1.17-.69,1.34.1.48.96.65,1.73.65.54,0,1.08-.07,1.53-.18-.14-1.25-.15-2.45-.02-3.56-1.03.26-1.96,1.02-2.55,1.75Z"/>
      <path class="cls-5" d="M91.81,58.04c-.3.37-.99,1.3-.85,2.01.17.83,1.07,1.29,2.51,1.29h0c.54,0,1.12-.07,1.63-.18-.04-.27-.08-.53-.11-.8-.45.11-.98.18-1.53.18-.77,0-1.63-.17-1.73-.65-.03-.17.16-.7.69-1.34.59-.72,1.52-1.48,2.55-1.75,0-.05,0-.1.01-.15.03-.24.07-.47.12-.69-.01,0-.02,0-.03,0-.54.1-1.07.31-1.54.6-.69.41-1.29.95-1.72,1.48Z"/>
      <path class="cls-3" d="M92.74,64.08c-.23.39-.32.76-.25,1.01.28.94,1.55,1.04,2.09,1.04h0c.6,0,1.23-.11,1.79-.3-.08-.2-.15-.39-.22-.59-.38-1.05-.67-2.11-.88-3.15-1.29.51-2.15,1.34-2.53,1.98Z"/>
      <path class="cls-5" d="M92.05,63.67c-.35.59-.47,1.16-.33,1.64.3,1.03,1.34,1.62,2.85,1.62h0c.69,0,1.43-.13,2.09-.36-.1-.24-.21-.49-.3-.74-.56.19-1.19.3-1.79.3h0c-.53,0-1.81-.1-2.09-1.04-.07-.25.02-.62.25-1.01.38-.65,1.24-1.48,2.53-1.98-.05-.27-.1-.53-.14-.8-1.55.57-2.59,1.55-3.08,2.37Z"/>
      <path class="cls-2" d="M107.51,61.18c-1.82-5.09-5.32-8.92-8.15-8.92-.34,0-.66.06-.97.16-1.37.49-2.29,2.03-2.6,4.35-.32,2.41.07,5.32,1.11,8.21,1.82,5.09,5.32,8.93,8.15,8.93.34,0,.66-.06.97-.16,2.92-1.05,3.59-6.68,1.49-12.56Z"/>
      <path class="cls-5" d="M96.34,53.01c-.57.75-.99,1.75-1.23,2.96-.04.22-.08.45-.12.69,0,.05,0,.1-.01.15-.13,1.11-.12,2.31.02,3.56.03.26.06.53.11.8,0,.05.02.09.02.14.04.26.09.53.14.8.21,1.04.5,2.1.88,3.15.07.2.15.4.22.59.1.25.2.5.3.74,1.96,4.56,5.14,7.82,7.98,8.1.14.01.27.02.4.02.36,0,.71-.05,1.05-.15.06-.02.13-.04.19-.06,3.4-1.22,4.26-7.18,1.98-13.58-1.96-5.48-5.7-9.45-8.9-9.45-.43,0-.85.07-1.24.21-.11.04-.22.09-.32.14-.56.26-1.04.67-1.45,1.2ZM106.01,73.74c-.31.11-.63.16-.97.16-2.83,0-6.33-3.84-8.15-8.93-1.03-2.89-1.43-5.8-1.11-8.21.31-2.31,1.23-3.86,2.6-4.35.31-.11.63-.16.97-.16,2.83,0,6.33,3.84,8.15,8.92,2.1,5.88,1.43,11.51-1.49,12.56Z"/>
      <path class="cls-4" d="M29.29,104.97c-2.3-4.17-4.4-6.94-7.17-6.94-.5,0-1.02.09-1.56.27,0,0,0,.02,0,.02.07.11.21.19.41.24.11.03.21.1.27.2.01.02.02.04.03.06.04,0,.08,0,.13,0,1.31,0,3.09.51,4.16,2.93,2.33,5.25,5.43,10.62,10.69,10.62h0s.06,0,.09,0c-.1-1.07-.18-2.24-.24-3.54,0-.05,0-.1,0-.15-.23.02-.47.03-.71.03-1.85,0-4.41-.65-6.11-3.74Z"/>
      <path class="cls-5" d="M20.51,97.99s-.03.16.04.3c.54-.18,1.06-.27,1.56-.27,2.77,0,4.87,2.77,7.17,6.94,1.71,3.09,4.27,3.74,6.11,3.74.24,0,.48-.01.71-.03-.01-.27-.02-.53-.03-.8-.22.02-.45.03-.68.03-2.37,0-4.2-1.12-5.42-3.33-2.89-5.23-5.6-8.38-9.67-7.04.16.09.25.27.2.45Z"/>
      <path class="cls-5" d="M36.35,112.36s-.06,0-.09,0h0c-5.27,0-8.36-5.37-10.69-10.62-1.08-2.42-2.86-2.93-4.16-2.93-.04,0-.09,0-.13,0,.1.21.18.49.23.8,1.5.04,2.63.86,3.34,2.45,2.44,5.48,5.7,11.09,11.42,11.09h0c.06,0,.12,0,.18,0-.03-.26-.06-.52-.08-.8Z"/>
      <path class="cls-4" d="M20.6,99.28c-.33-.11-.57-.29-.72-.55-.11-.19-.16-.39-.17-.55-.53-.15-1.08-.23-1.62-.23-2.2,0-4.29,1.22-5.6,3.27-1.36,2.12-1.61,4.69-.74,7.16,1.05-2.01,2.67-2.44,4.25-2.87,1.06-.29,2.16-.58,3.13-1.38,1.66-1.38,1.83-3.9,1.48-4.86Z"/>
      <path class="cls-5" d="M21.27,98.82s-.02-.04-.03-.06c-.05-.1-.15-.18-.27-.2-.21-.05-.34-.13-.41-.24,0,0,0-.02,0-.02-.07-.14-.04-.3-.04-.3.05-.18-.04-.37-.2-.45-.02-.01-.03-.02-.06-.03-.71-.24-1.44-.36-2.17-.36-2.47,0-4.81,1.36-6.27,3.64-1.66,2.6-1.82,5.81-.44,8.78.07.14.21.23.36.23,0,0,.01,0,.02,0,.16,0,.3-.11.36-.26.86-2.39,2.36-2.79,4.09-3.26,1.15-.31,2.33-.63,3.43-1.53,1.66-1.38,2.08-3.69,1.87-5.13-.05-.32-.13-.59-.23-.8ZM19.12,104.14c-.96.8-2.06,1.09-3.13,1.38-1.57.42-3.19.86-4.25,2.87-.87-2.47-.62-5.04.74-7.16,1.31-2.05,3.4-3.27,5.6-3.27.55,0,1.09.08,1.62.23.01.16.05.36.17.55.15.26.4.44.72.55.35.96.18,3.48-1.48,4.86Z"/>
      <path class="cls-5" d="M37.56,117.01c.16-.11.36-.08.5.05-.65-1.87-.97-4.48-1.14-8.28-.06-1.22-.06-2.38-.01-3.47-.26-.09-.52-.18-.78-.28-.04.91-.06,1.85-.03,2.84,0,.26.02.53.03.8,0,.05,0,.1,0,.15.06,1.3.14,2.48.24,3.54.03.27.05.54.08.8.29,2.55.78,4.42,1.65,5.85-.11-.51-.32-.99-.63-1.44-.12-.18-.08-.43.1-.56Z"/>
      <path class="cls-5" d="M71.21,139.33c0-.13-.01-.25-.01-.38-.73-.07-1.42-.19-2.06-.33-2.52-.59-4.16-1.72-4.87-3.38-1.2-2.79.54-6.12,1.1-7.08,1.58-2.7,1.58-6.42,1.52-7.73-.13,0-.26.01-.39.02h0c-.22,0-.39-.17-.4-.39,0-.22.17-.4.39-.41.05,0,.11,0,.16,0-.06-.03-.11-.05-.18-.05-.01,0-.02,0-.03,0-.02,0-1.88.16-3.6.16-.48,0-.95-.01-1.39-.04-.28,0-.55,0-.82-.02,0,.27,0,.53,0,.8.25,0,.51.02.78.02,1.54.11,3.77-.02,4.68-.08.05,1.19.07,4.82-1.41,7.33-.61,1.04-2.49,4.66-1.14,7.8.82,1.9,2.64,3.19,5.42,3.84.83.19,1.75.32,2.72.39-.04-.01-.08-.02-.12-.03-.2-.08-.32-.24-.34-.43Z"/>
      <path class="cls-5" d="M80.88,78.1c-.76-1.31-1.48-2.51-2.15-3.63-1.54-2.57-2.8-4.68-3.7-6.7-.24.12-.47.23-.71.34.93,2.1,2.21,4.24,3.73,6.78,1.29,2.15,2.75,4.6,4.34,7.55,5.48,10.24,6.76,22.16,3.41,31.93-1.41,5.68-.11,9.65,1.27,13.86.08.23.15.48.23.71.26-.07.53-.07.78-.02.02,0,.04.01.06.02-.1-.32-.21-.65-.31-.97-1.34-4.1-2.6-7.97-1.26-13.39,3.41-9.94,2.12-22.1-3.47-32.53-.59-1.11-1.17-2.15-1.73-3.12-.16-.28-.32-.56-.48-.83Z"/>
      <path class="cls-5" d="M46.26,142.16c-.01-.15-.02-.31-.01-.46-2.75-.66-5.29-1.78-6.89-2.69-2.49-1.42-4.16-3.4-4.7-5.58-.48-1.94-.07-4.01,1.18-5.99,2.79-4.4,4.08-7.49,2.38-10.16-.03-.05-.06-.11-.1-.16-.02-.02-.04-.04-.06-.06-.13-.13-.34-.16-.5-.05-.18.12-.23.37-.1.56.31.45.52.93.63,1.44.4,1.83-.49,4.17-2.92,8.01-1.38,2.16-1.82,4.45-1.28,6.61.6,2.4,2.4,4.56,5.08,6.08,1.79,1.02,4.73,2.29,7.87,2.93-.12-.04-.23-.09-.34-.14-.13-.06-.22-.19-.23-.33Z"/>
      <path class="cls-5" d="M60.62,119.69c.01-1.97.25-3.87,1.03-5.7.09-.2,0-.44-.21-.52-.2-.09-.44,0-.52.21-.03.07-.06.15-.09.22-1.3,3.25-1.06,6.63-.8,10.19.19,2.53.37,5.11.03,7.78.2-.04.41-.03.62.04.07.02.12.07.17.12.36-2.76.17-5.41-.02-8.01-.09-1.21-.17-2.39-.2-3.55,0-.27,0-.53,0-.8Z"/>
      <path class="cls-3" d="M60.27,132.66c-.06,0-.12.02-.18.05-1.41.72-1.24,4.06-1.05,5.28.03.21-.11.41-.32.45-.21.04-.41-.09-.47-.3-.27-1.13-1.33-4.07-2.91-4.07-.2,0-.4.04-.61.13-2.5,1.03-2.36,5.21-2.36,5.25,0,.2-.13.37-.32.41-.19.04-.39-.07-.45-.26-.2-.58-.98-2.23-1.86-2.23-.16,0-.31.05-.48.15-1.37.84-2.26,2.59-2.22,4.34.76.3,1.73.46,2.89.46h0c3.13,0,6.9-1.13,9.01-2.25,2.67-1.42,3.1-3.78,1.34-7.41Z"/>
      <path class="cls-5" d="M60.68,131.93c-.21-.07-.41-.08-.62-.04-.11.02-.22.05-.33.11-1.16.59-1.53,2.15-1.6,3.56-.6-1.15-1.51-2.27-2.78-2.27-.3,0-.61.06-.91.19-1.93.8-2.56,2.96-2.76,4.47-.44-.69-1.09-1.36-1.93-1.36-.3,0-.6.09-.9.27-1.58.97-2.59,2.88-2.6,4.85,0,.15,0,.31.01.46.01.14.1.27.23.33.11.05.22.1.34.14.84.32,1.89.49,3.11.49h0c3.27,0,7.19-1.18,9.38-2.35,3.14-1.67,3.66-4.5,1.59-8.65-.01-.03-.04-.05-.06-.07-.05-.05-.1-.1-.17-.12ZM49.93,142.32h0c-1.16,0-2.13-.15-2.89-.46-.05-1.74.84-3.5,2.22-4.34.17-.1.33-.15.48-.15.88,0,1.66,1.65,1.86,2.23.06.19.26.3.45.26.19-.04.33-.21.32-.41,0-.04-.14-4.22,2.36-5.25.21-.09.41-.13.61-.13,1.58,0,2.64,2.93,2.91,4.07.05.21.25.34.47.3.21-.04.35-.24.32-.45-.19-1.22-.36-4.56,1.05-5.28.06-.03.12-.05.18-.05,1.76,3.63,1.34,5.99-1.34,7.41-2.1,1.12-5.87,2.25-9.01,2.25Z"/>
      <path class="cls-5" d="M82.22,111.02c.09-.2,0-.44-.19-.53-.2-.09-.44,0-.53.19-.08.18-.18.36-.28.56-1.73,3.19-6.31,7.95-14.01,8.39-.19.01-.37.02-.56.02-.05,0-.11,0-.16,0-.22,0-.4.19-.39.41,0,.22.18.39.4.39h0c.13,0,.26-.01.39-.02,8.76-.35,13.76-6.05,15.33-9.42Z"/>
      <path class="cls-3" d="M87.77,129.68c-.14-.01-.29.02-.43.08-1.61.73-1.61,3.24-1.53,4.29.01.2-.12.37-.31.42-.19.04-.39-.06-.46-.24-.44-1.08-1.43-2.9-3.08-2.9-.31,0-.63.06-.95.18-2.46.93-2.93,3.65-3.02,4.78-.01.18-.14.32-.32.36-.18.03-.35-.05-.43-.21-.2-.39-.95-1.68-2.04-1.68-.24,0-.5.07-.76.21-1.59.84-2.5,2.37-2.46,4.1.7.19,1.59.29,2.62.29,3.77,0,8.55-1.33,11.33-2.64,1.58-.74,2.55-1.67,2.87-2.77.34-1.18,0-2.57-1.05-4.26Z"/>
      <path class="cls-5" d="M87.29,128.93c-.09.02-.18.06-.27.09-1.38.63-1.86,2.1-1.99,3.44-.66-1-1.66-1.94-3.06-1.94-.41,0-.82.08-1.23.23-2.25.85-3.08,2.91-3.38,4.39-.48-.59-1.2-1.19-2.14-1.19-.37,0-.75.1-1.13.3-1.83.97-2.89,2.71-2.89,4.7,0,.12,0,.25.01.38.02.19.13.35.34.43.04.01.08.02.12.03.82.24,1.8.36,2.95.36,3.88,0,8.81-1.37,11.67-2.71,1.8-.84,2.91-1.94,3.29-3.27.42-1.43.02-3.08-1.19-4.99-.05-.09-.16-.19-.27-.23-.02,0-.04-.02-.06-.02-.26-.06-.52-.05-.78.02ZM88.82,133.94c-.32,1.1-1.28,2.03-2.87,2.77-2.78,1.31-7.56,2.64-11.33,2.64-1.03,0-1.92-.1-2.62-.29-.04-1.73.87-3.25,2.46-4.1.26-.14.52-.21.76-.21,1.08,0,1.83,1.28,2.04,1.68.08.16.26.24.43.21.17-.04.3-.18.32-.36.09-1.13.56-3.85,3.02-4.78.32-.12.63-.18.95-.18,1.65,0,2.63,1.82,3.08,2.9.07.18.27.28.46.24.19-.04.32-.22.31-.42-.07-1.04-.07-3.55,1.53-4.29.14-.06.29-.09.43-.08,1.05,1.69,1.39,3.09,1.05,4.26Z"/>
      <path class="cls-4" d="M90.09,14.73c2.5,2.1,4.63,4.42,6.37,6.88.61-.31,1.36-.43,2.19-.32.2.03.4.06.58.1-2.42-4.75-5.96-9.35-10.39-13.25-6.9-6.07-13.66-7.35-18.12-7.35-5.54,0-10.7,2.01-13.79,5.37-.08.08-.15.17-.22.25,4.25.51,7.85,2.36,10.99,4.55,2.3-1.51,5.04-2.32,7.95-2.32,4.7,0,9.69,2.1,14.45,6.08Z"/>
      <path class="cls-5" d="M56.71,6.42c.07-.09.15-.17.22-.25,3.09-3.36,8.25-5.37,13.79-5.37,4.46,0,11.22,1.27,18.12,7.35,4.43,3.9,7.97,8.5,10.39,13.25.37.08.72.2,1.05.32-2.47-5.08-6.19-10.02-10.91-14.17-7.09-6.24-14.05-7.54-18.65-7.54-5.76,0-11.14,2.1-14.38,5.63-.21.23-.41.47-.6.7.32.02.65.05.96.09Z"/>
      <path class="cls-8" d="M95.44,22.49c.11-.16.23-.29.37-.42-1.7-2.4-3.78-4.68-6.23-6.73-4.61-3.85-9.42-5.89-13.93-5.89-2.65,0-5.13.7-7.25,2.02,1.7,1.24,3.26,2.55,4.71,3.78,2.68,2.27,5,4.23,7.23,4.95,5.39,1.74,12.27,6.31,13.94,13.48.08.34.14.68.2,1.03,1.12-1.48,1.8-3.31,1.96-5.37-2.04-3.86-1.66-5.85-.98-6.84Z"/>
      <path class="cls-5" d="M89.58,15.34c2.45,2.05,4.53,4.33,6.23,6.73.19-.18.41-.34.65-.46-1.74-2.46-3.86-4.79-6.37-6.88-4.75-3.97-9.75-6.08-14.45-6.08-2.92,0-5.65.81-7.95,2.32.24.16.47.33.7.5,2.12-1.31,4.61-2.02,7.25-2.02,4.51,0,9.33,2.04,13.93,5.89Z"/>
      <path class="cls-4" d="M21.51,21.77c-7.94,0-20,7.85-20.67,24.7-.44,11.09,3,21.56,9.2,28.01,2.58,2.69,5.46,4.45,8.45,5.22-8.99-4.31-14.51-15.21-13.69-27.82.87-13.36,8.76-19.35,16.2-19.35,2.74,0,5.37.79,7.56,2.22-.19-3.19-.04-6.39.68-9.47-.18-.21-.36-.42-.54-.62-1.71-1.9-4.2-2.9-7.18-2.9Z"/>
      <path class="cls-5" d="M36.1,73.01c.51-.71.98-1.46,1.41-2.25,0,0,0,0,0,0-.43.79-.9,1.54-1.41,2.25Z"/>
      <path class="cls-5" d="M21.78,80.92s-.07,0-.1-.01c-1.11-.31-2.17-.72-3.19-1.21-2.99-.77-5.87-2.53-8.45-5.22C3.83,68.02.39,57.55.84,46.47c.67-16.85,12.73-24.7,20.67-24.7,2.99,0,5.47,1,7.18,2.9.18.2.36.41.54.62.07-.31.16-.63.24-.94-.06-.07-.12-.15-.19-.22-1.84-2.04-4.6-3.16-7.78-3.16C13.26,20.97.73,29.06.04,46.44c-.45,11.3,3.07,21.99,9.42,28.6,3.71,3.86,8.02,5.9,12.45,5.9h0c1.9,0,3.78-.37,5.62-1.11-1.83.73-3.7,1.1-5.6,1.1h-.15Z"/>
      <path class="cls-5" d="M32.82,76.59c-.09.07-.17.15-.26.22.09-.07.17-.15.26-.22Z"/>
      <path class="cls-5" d="M33.64,75.86c-.09.09-.19.18-.29.27.1-.09.19-.18.29-.27Z"/>
      <path class="cls-5" d="M34.59,74.87c-.15.16-.3.32-.45.48.15-.16.3-.32.45-.48Z"/>
      <path class="cls-5" d="M36.02,73.13c-.13.19-.27.37-.41.55.14-.18.28-.36.41-.55Z"/>
      <path class="cls-5" d="M35.38,73.96c-.13.16-.25.31-.39.47.13-.15.26-.31.39-.47Z"/>
      <path class="cls-8" d="M5.59,51.93c-.89,13.64,5.79,25.22,16.25,28.2h.09c3.21,0,6.35-1.11,9.33-3.31,2.26-1.66,4.1-3.8,5.5-6.35-3.91-1.63-7.04-4.14-8.89-7.3-3.13-5.36-1.24-10.48.27-14.6.89-2.42,1.66-4.5,1.35-6.22-.38-2.15-.7-4.36-.87-6.57-2.16-1.57-4.83-2.44-7.63-2.44-6.55,0-14.51,4.87-15.4,18.6Z"/>
      <path class="cls-5" d="M36.76,70.46c-1.4,2.55-3.24,4.69-5.5,6.35-2.98,2.2-6.12,3.31-9.33,3.31h-.09c-10.46-2.97-17.14-14.56-16.25-28.2.89-13.73,8.85-18.6,15.4-18.6,2.8,0,5.47.87,7.63,2.44-.03-.34-.05-.68-.07-1.02-2.19-1.43-4.82-2.22-7.56-2.22-7.44,0-15.33,5.98-16.2,19.35-.82,12.61,4.7,23.52,13.69,27.82,1.02.49,2.08.9,3.19,1.21.03,0,.07.01.1.01h.15c1.9,0,3.77-.37,5.6-1.1,1.43-.57,2.83-1.36,4.2-2.37.28-.21.55-.42.82-.64.09-.07.17-.15.26-.22.18-.15.36-.31.53-.47.1-.09.19-.18.29-.27.17-.16.34-.33.51-.5.15-.16.3-.32.45-.48.13-.15.27-.29.4-.44.13-.15.26-.31.39-.47.08-.1.15-.19.23-.29.14-.18.28-.36.41-.55.03-.04.06-.08.08-.12.51-.71.98-1.46,1.41-2.25-.25-.1-.5-.19-.75-.3Z"/>
      <path class="cls-4" d="M85.79,114.36c3.35-9.77,2.07-21.69-3.41-31.93-1.58-2.96-3.05-5.4-4.34-7.55-1.52-2.53-2.8-4.68-3.73-6.78-1.78.77-3.67,1.15-5.44,1.15s-3.26-.33-4.55-.95c-5.11,2.78-10.81,4.25-16.52,4.25-.27,0-.53,0-.79-.01-.9-.02-1.79-.08-2.65-.18-3.25,6.57-8.19,9.77-12.19,12.35-.59.38-1.16.75-1.7,1.12.03.05.06.09.09.15.11.24.17.56.19.9,1.12-1.24,2.75-2.03,3.7-2.03.19,0,.36.03.5.09.3.13.69.43.84,1.13.08.37.07.8.02,1.24.88-.73,1.83-1.11,2.57-1.11.31,0,.59.07.83.19.59.32.97.89,1.1,1.65.19,1.14-.22,2.52-.84,3.59,5.02,3.21,8,7.56,7.58,10.76,2.08-1.8,5.74-5.68,7.14-11.51,1.06-4.44,1.37-7.64,1.59-9.98.21-2.15.34-3.48.92-4.31.02-.03.04-.06.06-.08.13-.17.39-.21.56-.07.18.13.21.38.07.56-.5.65-.62,1.98-.82,3.99-.23,2.36-.54,5.6-1.61,10.09-1.73,7.21-6.64,11.44-8.37,12.74-.03.06-.06.11-.1.17-.86,1.39-2.61,2.15-4.93,2.15-1.44,0-3.03-.29-4.67-.83-.04,1.09-.04,2.24.01,3.47.18,3.8.49,6.4,1.14,8.28.02.02.04.03.06.06.04.05.06.11.1.16,1.7,2.67.42,5.76-2.38,10.16-1.26,1.98-1.67,4.05-1.18,5.99.54,2.18,2.21,4.16,4.7,5.58,1.6.91,4.14,2.03,6.89,2.69,0-1.98,1.02-3.89,2.6-4.85.29-.18.59-.27.9-.27.84,0,1.48.68,1.93,1.36.2-1.51.84-3.68,2.76-4.47.31-.13.61-.19.91-.19,1.27,0,2.18,1.13,2.78,2.27.07-1.4.44-2.96,1.6-3.56.11-.05.22-.09.33-.11.34-2.68.16-5.26-.03-7.78-.26-3.57-.51-6.94.8-10.19.03-.07.06-.15.09-.22.09-.2.32-.3.52-.21.2.09.3.32.21.52-.77,1.83-1.01,3.73-1.03,5.7.26.01.53.02.82.02.44.03.91.04,1.39.04,1.72,0,3.58-.15,3.6-.16.01,0,.02,0,.03,0,.07,0,.13.02.18.05.19,0,.38-.01.56-.02,7.71-.44,12.28-5.2,14.01-8.39.1-.19.2-.38.28-.56.09-.2.33-.29.53-.19.2.09.29.33.19.53-1.58,3.37-6.57,9.07-15.33,9.42.06,1.31.06,5.03-1.52,7.73-.56.96-2.3,4.29-1.1,7.08.71,1.65,2.35,2.79,4.87,3.38.64.15,1.33.26,2.06.33,0-1.99,1.05-3.73,2.89-4.7.38-.2.76-.3,1.13-.3.94,0,1.66.59,2.14,1.19.3-1.48,1.13-3.54,3.38-4.39.41-.15.82-.23,1.23-.23,1.4,0,2.4.94,3.06,1.94.13-1.34.61-2.81,1.99-3.44.09-.04.18-.07.27-.09-.08-.24-.15-.48-.23-.71-1.37-4.21-2.67-8.19-1.27-13.86Z"/>
      <path class="cls-5" d="M30.47,85.83c.54-.36,1.11-.73,1.7-1.12,4-2.59,8.95-5.78,12.19-12.35-.28-.03-.56-.07-.84-.1-3.16,6.21-7.92,9.29-11.78,11.78-.7.45-1.38.9-2.03,1.34.09,0,.18.02.26.04.15.05.34.16.5.4Z"/>
      <path class="cls-5" d="M54.96,91.08c1.07-4.49,1.39-7.73,1.61-10.09.19-2.01.32-3.34.82-3.99.13-.18.1-.43-.07-.56-.17-.13-.42-.1-.56.07-.02.03-.04.06-.06.08-.58.83-.71,2.16-.92,4.31-.22,2.34-.53,5.54-1.59,9.98-1.4,5.83-5.06,9.71-7.14,11.51-.07.5-.22.98-.46,1.41,1.73-1.3,6.65-5.53,8.37-12.74Z"/>
      <path class="cls-3" d="M29.84,86.33c-.04-.08-.08-.13-.11-.14h0c-.77,0-2.34,1.32-3.33,2.82.88-.44,1.97-.67,3.24-.67.06,0,.13,0,.19,0,0-.01,0-.03.02-.04.16-.77.18-1.59,0-1.97Z"/>
      <path class="cls-5" d="M26.39,89.01c.99-1.5,2.56-2.82,3.33-2.82h0s.08.06.11.14c.18.38.17,1.2,0,1.97.21-.52.53-.99.91-1.41-.02-.35-.08-.66-.19-.9-.03-.06-.06-.11-.09-.15-.16-.24-.35-.36-.5-.4-.08-.03-.17-.04-.26-.04-.02,0-.03,0-.05,0-1.37,0-4.01,2.53-4.74,4.81.38-.49.87-.89,1.48-1.19Z"/>
      <path class="cls-3" d="M35.01,86.25c-.09-.44-.31-.53-.38-.56-.02,0-.07-.03-.18-.03-.89,0-2.98,1.11-3.77,2.73,1.13.1,2.34.36,3.56.76.14-.24.3-.46.46-.67.27-.77.43-1.63.31-2.22Z"/>
      <path class="cls-5" d="M34.45,85.66c.11,0,.16.02.18.03.07.03.28.12.38.56.13.6-.04,1.45-.31,2.22.34-.45.72-.83,1.1-1.15.06-.44.06-.87-.02-1.24-.15-.7-.54-1-.84-1.13-.14-.06-.31-.09-.5-.09-.94,0-2.58.79-3.7,2.03-.38.42-.7.9-.91,1.41,0,.01-.01.03-.02.04.28,0,.56.02.85.04.79-1.62,2.88-2.73,3.77-2.73Z"/>
      <path class="cls-3" d="M39.51,88.19c-.08-.51-.32-.88-.69-1.08-.67-.37-2.54.3-3.81,2.3,1.26.47,2.53,1.08,3.77,1.82.52-.91.88-2.09.73-3.04Z"/>
      <path class="cls-5" d="M40.3,88.06c-.12-.76-.5-1.33-1.1-1.65-.24-.13-.51-.19-.83-.19-.74,0-1.69.38-2.57,1.11-.39.32-.76.7-1.1,1.15-.16.21-.32.43-.46.67.26.08.51.17.77.27,1.27-2,3.14-2.67,3.81-2.3.37.2.61.56.69,1.08.15.95-.21,2.13-.73,3.04.13.08.26.16.4.24.1.06.19.12.29.18.61-1.06,1.02-2.44.84-3.59Z"/>
      <path class="cls-2" d="M32.44,102.34c3.08,1.91,6.41,3.01,9.13,3.01,2.03,0,3.54-.63,4.25-1.77,1.74-2.81-1.43-7.93-7.06-11.42-3.08-1.91-6.4-3.01-9.12-3.01-2.03,0-3.54.63-4.25,1.78-1.74,2.81,1.42,7.93,7.05,11.42Z"/>
      <path class="cls-5" d="M36.9,105.32c1.64.54,3.23.83,4.67.83,2.31,0,4.06-.76,4.93-2.15.03-.06.06-.11.1-.17.24-.44.39-.91.46-1.41.42-3.19-2.56-7.55-7.58-10.76-.1-.06-.19-.12-.29-.18-.13-.08-.26-.16-.4-.24-1.24-.74-2.51-1.35-3.77-1.82-.26-.1-.51-.19-.77-.27-1.23-.4-2.43-.66-3.56-.76-.29-.03-.57-.04-.85-.04-.06,0-.13,0-.19,0-1.27,0-2.37.23-3.24.67-.6.3-1.1.7-1.48,1.19-.07.1-.14.19-.21.3-2,3.24,1.21,8.74,7.31,12.52,1.34.83,2.73,1.51,4.1,2.02.26.1.52.19.78.28ZM25.38,90.91c.71-1.14,2.22-1.78,4.25-1.78,2.72,0,6.04,1.1,9.12,3.01,5.63,3.49,8.8,8.61,7.06,11.42-.71,1.14-2.22,1.77-4.25,1.77-2.72,0-6.04-1.1-9.13-3.01-5.63-3.49-8.79-8.62-7.05-11.42Z"/>
      <path class="cls-5" d="M83.09,58.68c-.52.16-1.04.31-1.56.44-.28.28-.57.57-.87.85-.05.05-.08.1-.1.17-2.46,7.85-11.56,9.7-16.05,7.36-.12-.06-.26-.06-.38,0-5.04,2.78-10.68,4.25-16.32,4.25-8.62,0-16-3.45-19.25-9-2.94-5.03-1.2-9.75.33-13.92.93-2.53,1.73-4.71,1.39-6.63-1.85-10.42-2.25-22.12,8.81-29.79.04-.03.07-.06.1-.09.5-.7.6-1.44.27-2.09-.42-.81-1.46-1.35-2.59-1.35-.23,0-.45.02-.66.07.54-.35,1.3-.59,2.18-.59s2.44.24,3.75,1.86c.13.15.35.19.52.09.07-.04.14-.08.21-.11.13-.06.22-.18.23-.33.38-4.2,3.01-5.64,4.85-4.9-.84.17-1.6.78-1.93,1.57-.28.69-.16,1.37.34,1.86.11.11.27.14.41.09,2.6-.93,5.15-1.4,7.59-1.4,7.84,0,13.6,4.87,18.23,8.78,2.75,2.32,5.12,4.33,7.5,5.1,5.19,1.67,11.81,6.05,13.4,12.9.13.55.22,1.1.28,1.66.25-.26.48-.53.7-.81-.06-.34-.12-.69-.2-1.03-1.67-7.17-8.55-11.74-13.94-13.48-2.23-.72-4.55-2.68-7.23-4.95-1.45-1.23-3.01-2.54-4.71-3.78-.23-.17-.46-.33-.7-.5-3.13-2.19-6.73-4.04-10.99-4.55-.32-.04-.64-.07-.96-.09-.46-.03-.92-.05-1.39-.05-2.44,0-4.99.45-7.59,1.35-.17-.28-.11-.59-.02-.81.22-.54.88-1.12,1.66-1.12.26,0,.51.07.74.2.06.04.13.05.2.05.22,0,.41-.18.41-.4,0-.13-.06-.24-.16-.32-1.89-2.35-6.48-1.53-7.25,4.02-1.08-1.11-2.47-1.71-3.98-1.71-2,0-3.72,1.11-3.82,2.46-.01.17.08.33.24.39.15.07.33.03.45-.09.39-.42.97-.64,1.61-.64.83,0,1.6.38,1.88.92.19.36.13.77-.17,1.21-5.07,3.54-7.8,7.89-9.1,12.56-.09.31-.17.62-.24.94-.73,3.07-.87,6.27-.68,9.47.02.34.04.68.07,1.02.18,2.21.49,4.42.87,6.57.3,1.71-.46,3.8-1.35,6.22-1.51,4.12-3.4,9.24-.27,14.6,1.86,3.17,4.99,5.68,8.89,7.3.25.1.5.2.75.3,0,0,0,0,0,0,1.86.7,3.88,1.21,6.01,1.5.28.04.56.07.84.1.87.09,1.75.15,2.65.18.26,0,.53.01.79.01,5.71,0,11.41-1.47,16.52-4.25,1.28.62,2.85.95,4.55.95s3.66-.37,5.44-1.15c.24-.1.48-.22.71-.34,1.4-.71,2.71-1.68,3.81-2.93.37-.42.72-.88,1.04-1.37.58-.89,1.06-1.89,1.42-3,.62-.6,1.22-1.2,1.8-1.79Z"/>
      <path class="cls-6" d="M77.85,61.15c.15-.41.26-.88.3-1.42-.45.05-.9.08-1.35.11.37.34.72.77,1.06,1.31Z"/>
      <path class="cls-6" d="M68.36,61.23c.62-.69,1.43-1.35,2.35-1.84-1.22-.26-2.42-.63-3.6-1.09.18.7.56,1.87,1.25,2.94Z"/>
      <path class="cls-5" d="M66.4,58.71c.27.96.81,2.47,1.84,3.7l.07-.06c-.08-.09-.16-.19-.23-.28-.12-.15-.12-.35,0-.5.09-.11.19-.23.29-.34-.69-1.07-1.07-2.23-1.25-2.94-.11-.04-.21-.09-.32-.13-.12.18-.26.37-.4.55Z"/>
      <path class="cls-5" d="M69.21,63.39s.09.07.1.08c0,0,.06.04.06.05l.04.03s.08.06.09.07l.05-.07c-.11-.08-.21-.15-.31-.24l-.04.09Z"/>
      <path class="cls-5" d="M68.37,62.41l-.06.08.06.06s.05.06.05.06l.08.08s.07.09.08.11c.06.07.14.14.19.19.02.02.06.06.08.08.02.02.04.04.06.06h.01s.09.09.18.16l.06-.07c-.3-.26-.56-.53-.81-.82Z"/>
      <path class="cls-5" d="M73.26,64.7c-.8,0-1.58-.14-2.26-.39-.56-.21-1.01-.46-1.39-.73l-.03.08s.08.06.12.09l.2.12s.1.07.11.07l.46.24c.19.09.36.16.51.21.2.08.37.13.49.16.07.02.14.05.17.04.11.04.22.06.39.09.02,0,.1.02.12.02,0,0,.09.01.09.01.1.02.2.03.36.05,0,0,.1.01.1.01.05,0,.1,0,.13,0,.15,0,.29.01.44.01,0,0,.01,0,.02,0h.07c.09,0,.18,0,.28-.02v-.09c-.13,0-.25.01-.37.01Z"/>
      <path class="cls-5" d="M78.18,61.72c.06.12.06.26,0,.38-.85,1.52-2.52,2.47-4.49,2.59l.03.09c.07,0,.14,0,.25-.02.11-.01.23-.02.3-.04.06,0,.1-.01.19-.03.66-.11,1.29-.33,1.87-.64.01,0,.02-.01.03-.02,1.14-.63,2.48-1.91,2.6-4.41-.27.04-.54.08-.81.11-.04.54-.15,1.01-.3,1.42.11.18.22.37.33.57Z"/>
      <path class="cls-8" d="M68.91,61.82c.62.74,1.22,1.31,2.38,1.74.59.22,1.27.34,1.97.34,1.79,0,3.3-.75,4.11-2.01-.52-.93-1.14-1.6-1.85-2.02-.02,0-.03,0-.05,0-1.12,0-2.23-.08-3.33-.25-1.27.42-2.44,1.28-3.22,2.18Z"/>
      <path class="cls-5" d="M68.36,61.23c-.1.11-.2.23-.29.34-.12.15-.12.35,0,.5.08.1.16.19.23.28.02.02.04.04.05.06.25.29.51.57.81.82.03.02.05.04.07.07.1.08.2.16.31.24.02.01.03.03.05.04.38.27.83.52,1.39.73.68.26,1.46.39,2.26.39.12,0,.24,0,.36-.01.02,0,.04,0,.06,0,1.98-.12,3.64-1.07,4.49-2.59.07-.12.07-.26,0-.38-.11-.21-.22-.39-.33-.57-.33-.53-.69-.97-1.06-1.31-.43.02-.86.04-1.28.04.72.41,1.34,1.08,1.85,2.02-.81,1.26-2.32,2.01-4.11,2.01-.7,0-1.38-.12-1.97-.34-1.16-.44-1.76-1.01-2.38-1.74.79-.9,1.95-1.76,3.22-2.18-.47-.07-.95-.15-1.41-.25-.92.49-1.74,1.15-2.35,1.84Z"/>
      <path class="cls-1" d="M45.78,47.15c.95,1.42,2.56,2.23,4.41,2.23h0c1.26,0,2.5-.38,3.59-1.11,2.77-1.85,3.68-5.36,2.03-7.82-.95-1.42-2.55-2.23-4.4-2.23-1.26,0-2.51.39-3.6,1.11-2.76,1.85-3.67,5.36-2.03,7.82ZM53.4,40.98c1.23,1.84.61,4.41-1.38,5.74-2,1.33-4.61.91-5.85-.93-1.22-1.84-.61-4.42,1.39-5.75,2-1.33,4.61-.91,5.84.93Z"/>
      <path class="cls-5" d="M50.19,50.19h0c1.42,0,2.81-.43,4.04-1.25,3.13-2.09,4.14-6.1,2.25-8.93-1.08-1.62-2.98-2.59-5.06-2.59-1.42,0-2.82.43-4.05,1.25-3.13,2.09-4.14,6.1-2.25,8.93,1.09,1.62,2.98,2.59,5.07,2.59ZM55.82,40.45c1.65,2.46.73,5.97-2.03,7.82-1.09.73-2.33,1.11-3.59,1.11h0c-1.85,0-3.46-.81-4.41-2.23-1.64-2.47-.73-5.98,2.03-7.82,1.1-.73,2.34-1.11,3.6-1.11,1.85,0,3.45.81,4.4,2.23Z"/>
      <path class="cls-5" d="M46.17,45.79c1.23,1.84,3.85,2.26,5.85.93,1.99-1.33,2.61-3.9,1.38-5.74-1.23-1.85-3.84-2.26-5.84-.93-1.99,1.33-2.61,3.9-1.39,5.75ZM47.67,46.28c-.28.2-.66.13-.84-.13-.17-.27-.09-.64.2-.83.29-.19.67-.13.84.13.18.26.09.63-.19.83ZM47.9,40.13c.54-.36,1.26-.25,1.61.26.33.5.16,1.22-.39,1.58-.55.37-1.27.25-1.61-.26-.34-.5-.17-1.22.38-1.59Z"/>
      <path class="cls-1" d="M47.52,41.72c.33.51,1.06.63,1.61.26.55-.36.72-1.08.39-1.58-.34-.51-1.06-.62-1.61-.26-.55.37-.72,1.08-.38,1.59Z"/>
      <path class="cls-1" d="M47.02,45.32c-.28.19-.37.56-.2.83.18.27.56.33.84.13.29-.19.38-.56.19-.83-.17-.26-.55-.33-.84-.13Z"/>
      <path class="cls-1" d="M71.63,31.43c.77,1.83,2.68,3.01,4.87,3.01h0c.84,0,1.67-.17,2.47-.51,2.94-1.23,4.44-4.37,3.34-7-.77-1.83-2.68-3.01-4.87-3.01-.84,0-1.67.17-2.47.51-2.94,1.24-4.44,4.37-3.34,6.99ZM79.69,27.31c.82,1.95-.22,4.26-2.35,5.15-2.11.89-4.49.02-5.31-1.94-.82-1.95.22-4.26,2.34-5.15,2.11-.89,4.5-.03,5.32,1.93Z"/>
      <path class="cls-5" d="M76.5,35.24h0c.95,0,1.88-.19,2.78-.57,3.34-1.4,5.03-5.01,3.77-8.04-.9-2.12-3.1-3.5-5.61-3.5-.95,0-1.88.19-2.78.57-3.35,1.41-5.04,5.01-3.77,8.04.9,2.13,3.1,3.5,5.61,3.5ZM82.3,26.94c1.1,2.62-.4,5.76-3.34,7-.8.34-1.63.51-2.47.51h0c-2.19,0-4.1-1.18-4.87-3.01-1.1-2.62.4-5.75,3.34-6.99.8-.34,1.63-.51,2.47-.51,2.19,0,4.1,1.18,4.87,3.01Z"/>
      <path class="cls-5" d="M72.03,30.52c.83,1.96,3.2,2.83,5.31,1.94,2.12-.89,3.17-3.2,2.35-5.15-.82-1.96-3.21-2.82-5.32-1.93-2.12.89-3.16,3.19-2.34,5.15ZM74.07,31.36c-.3.13-.65,0-.77-.28-.13-.28.02-.62.33-.75.31-.13.65,0,.77.28.12.28-.03.62-.34.75ZM76.07,25.96c.23.55-.05,1.18-.64,1.43-.58.24-1.25,0-1.48-.54-.23-.54.07-1.18.65-1.43.58-.24,1.25,0,1.47.54Z"/>
      <path class="cls-1" d="M73.95,26.85c.23.55.89.78,1.48.54.59-.25.87-.88.64-1.43-.21-.54-.88-.78-1.47-.54-.58.25-.88.89-.65,1.43Z"/>
      <path class="cls-1" d="M73.63,30.34c-.31.13-.46.46-.33.75.11.28.46.41.77.28.31-.13.46-.46.34-.75-.12-.29-.46-.41-.77-.28Z"/>
      <path class="cls-5" d="M99.23,21.4c-.19-.04-.38-.08-.58-.1-.83-.1-1.58.01-2.19.32-.24.12-.46.28-.65.46-.13.13-.26.26-.37.42-.68.99-1.06,2.99.98,6.84-.16,2.06-.83,3.89-1.96,5.37-.22.28-.45.55-.7.81-.55.57-1.18,1.08-1.88,1.51-3.56,2.18-8.64,2.22-13.57.11-9.41-4.03-12.97-2.84-16.97,1.16-.16.16-.16.41,0,.56.1.1.25.13.38.1.07-.02.13-.05.18-.1,1.72-1.72,3.38-3.07,6.03-3.34.63-.33,1.17-.53,1.51-.59.22-.04.43.1.47.32.02.1,0,.19-.05.27,2.08.17,4.69.88,8.13,2.36,2.97,1.27,5.99,1.79,8.74,1.57,0-.26.03-.43.03-.46.03-.22.23-.38.44-.35.22.03.38.22.35.44,0,0-.01.11-.02.28,1.74-.24,3.35-.78,4.75-1.64,2.75-1.68,4.46-4.43,4.86-7.77-.35-.2-.55-.35-.58-.37-.18-.13-.21-.38-.08-.56.13-.18.38-.21.56-.08,0,0,.03.02.07.05-1.46-2.74-1.82-4.89-1.04-6.04.47-.68,1.36-1,2.45-.86.76.1,1.4.35,2.02.6,1.04.42,2.12.85,3.62.49,1.84-.45,3.52.15,4.27,1.52.67,1.23.61,3.29-1.58,5.4,0,0,0,0,0,0,.16-.15.41-.14.56.02.15.16.15.41-.01.56-.03.02-.31.28-.75.51-1.01,8.42-8.05,18.24-17.05,23.65-7.55,4.54-15.49,5.47-22.42,2.64-.12.23-.26.46-.41.69.11.04.21.09.32.13,1.18.47,2.38.83,3.6,1.09.47.1.94.18,1.41.25,1.1.16,2.21.25,3.33.25.02,0,.03,0,.05,0,.43,0,.85-.02,1.28-.04.45-.03.9-.06,1.35-.11.27-.03.54-.07.81-.11.86-.12,1.72-.3,2.58-.51.52-.13,1.04-.27,1.56-.44,2.33-.73,4.66-1.78,6.95-3.16,9.44-5.68,16.78-16.15,17.5-24.96,2.41-2.39,2.42-4.79,1.62-6.26-.93-1.69-2.95-2.45-5.15-1.91-1.26.3-2.13-.05-3.14-.45-.19-.08-.39-.15-.59-.23-.33-.12-.67-.24-1.05-.32Z"/>
      <path class="cls-5" d="M62.47,41.86c-.26.94-.37,1.96-.27,3.08.02.21.19.36.4.36.01,0,.02,0,.04,0,.22-.02.38-.22.36-.44-.02-.16-.02-.32-.03-.47-.18-4.99,4.31-7.89,6.18-8.55.17-.06.33-.11.45-.13.12-.02.21-.1.27-.2.04-.08.07-.17.05-.27-.04-.22-.25-.36-.47-.32-.34.06-.88.26-1.51.59-1.87.98-4.57,3.11-5.47,6.34Z"/>
      <path class="cls-5" d="M89.3,45.59c.07.06.16.09.25.09.12,0,.23-.05.31-.15.14-.17.11-.42-.06-.56-.21-.17-.4-.34-.57-.53-1.33-1.42-1.62-3.3-1.67-4.42-.01-.28,0-.51,0-.67,0-.18.02-.28.02-.28.03-.22-.13-.42-.35-.44-.21-.03-.42.13-.44.35,0,.03-.02.2-.03.46-.04,1.16.12,4.21,2.55,6.16Z"/>
      <path class="cls-5" d="M99.8,30.88c.19,0,.36-.14.39-.33.04-.22-.11-.42-.33-.46-1.37-.23-2.45-.92-2.73-1.11-.04-.03-.07-.05-.07-.05-.18-.13-.43-.1-.56.08-.13.18-.1.43.08.56.02.02.23.17.58.37.56.32,1.47.75,2.57.94.02,0,.04,0,.07,0Z"/>
      <path class="cls-1" d="M105.3,30.75c.26,0,.5-.06.71-.14l-.71.14Z"/>
      <path class="cls-5" d="M105.3,30.75c-.28,0-.58-.03-.9-.16-.2-.08-.44.01-.52.22-.08.2.01.44.22.52.4.16.78.23,1.13.23.58,0,1.07-.17,1.44-.37.45-.23.73-.49.75-.51.16-.15.16-.4.01-.56-.15-.16-.4-.17-.56-.02,0,0,0,0,0,0-.03.02-.36.33-.87.51-.21.08-.45.13-.71.14Z"/>
      <path class="cls-1" d="M103.13,26.5h.12c2.02-.04,2.77-.88,2.82-1.27,0-.06.03-.22-.25-.3-.59-.16-1.35-.07-2.06.05-.44.07-.9.15-1.35.15-.75,0-1.61-.36-2.45-.7-.62-.25-1.26-.52-1.62-.52-.13,0-.14.01-.15.1-.03.18.07.41.28.66.75.88,2.8,1.83,4.66,1.83Z"/>
      <path class="cls-5" d="M97.86,25.19c1,1.18,3.31,2.11,5.27,2.11h.14c2.31-.05,3.48-1.06,3.59-1.97.07-.55-.26-1.01-.83-1.17-.73-.2-1.61-.1-2.4.03-.43.07-.83.14-1.24.14h0c-.57,0-1.4-.34-2.13-.64-.76-.31-1.41-.58-1.92-.58s-.85.28-.94.76c-.05.29,0,.76.46,1.31ZM98.34,23.91c.36,0,1,.26,1.62.52.83.34,1.69.69,2.45.7.46,0,.91-.07,1.35-.15.71-.12,1.47-.21,2.06-.05.28.08.26.24.25.3-.05.4-.8,1.23-2.82,1.27h-.12c-1.86,0-3.91-.94-4.66-1.83-.21-.25-.31-.49-.28-.66.01-.09.02-.1.15-.1Z"/>
      <path class="cls-4" d="M104.41,30.59c.32.13.62.17.9.16l.71-.14c.51-.19.85-.49.87-.51,2.19-2.11,2.26-4.17,1.58-5.4-.75-1.37-2.43-1.97-4.27-1.52-1.5.36-2.58-.07-3.62-.49-.62-.25-1.27-.51-2.02-.6-1.09-.13-1.98.18-2.45.86-.79,1.15-.42,3.29,1.04,6.04.28.19,1.36.88,2.73,1.11.22.04.36.24.33.46-.03.2-.2.33-.39.33-.02,0-.04,0-.07,0-1.1-.18-2.01-.62-2.57-.94-.4,3.34-2.11,6.09-4.86,7.77-1.4.86-3.01,1.4-4.75,1.64,0,.17,0,.39,0,.67.05,1.12.35,3,1.67,4.42.17.18.36.36.57.53.17.14.2.39.06.56-.08.1-.19.15-.31.15-.09,0-.18-.03-.25-.09-2.43-1.94-2.59-5-2.55-6.16-2.75.22-5.78-.3-8.74-1.57-3.45-1.48-6.06-2.19-8.13-2.36-.06.1-.15.18-.27.2-.12.02-.28.07-.45.13-1.88.67-6.36,3.57-6.18,8.55,0,.16.01.31.03.47.02.22-.14.41-.36.44-.01,0-.03,0-.04,0-.2,0-.38-.16-.4-.36-.1-1.12,0-2.14.27-3.08.9-3.23,3.6-5.36,5.47-6.34-2.65.27-4.31,1.63-6.03,3.34-.05.05-.12.08-.18.1-.13.03-.28,0-.38-.1-.16-.16-.16-.41,0-.56,4-4,7.56-5.19,16.97-1.16,4.93,2.11,10.01,2.08,13.57-.11.7-.43,1.33-.94,1.88-1.51-.06-.56-.15-1.11-.28-1.66-1.59-6.85-8.21-11.23-13.4-12.9-2.38-.77-4.75-2.77-7.5-5.1-4.63-3.91-10.39-8.78-18.23-8.78-2.43,0-4.99.47-7.59,1.4-.14.05-.3.02-.41-.09-.5-.49-.63-1.17-.34-1.86.32-.79,1.09-1.4,1.93-1.57-1.83-.74-4.47.7-4.85,4.9-.01.14-.1.27-.23.33-.07.03-.14.07-.21.11-.17.1-.39.07-.52-.09-1.31-1.62-2.91-1.86-3.75-1.86-.88,0-1.65.24-2.18.59.21-.04.44-.07.66-.07,1.13,0,2.17.54,2.59,1.35.33.65.24,1.39-.27,2.09-.03.04-.06.07-.1.09-11.05,7.68-10.65,19.37-8.81,29.79.34,1.92-.46,4.11-1.39,6.63-1.53,4.17-3.27,8.89-.33,13.92,3.25,5.55,10.63,9,19.25,9,5.64,0,11.28-1.47,16.32-4.25.12-.07.26-.07.38,0,4.49,2.34,13.6.49,16.05-7.36.02-.06.06-.12.1-.17.29-.28.58-.57.87-.85-.86.21-1.72.39-2.58.51-.13,2.5-1.47,3.78-2.6,4.41-.01,0-.02.01-.03.02-.58.31-1.21.52-1.87.64-.09.02-.13.02-.19.03-.08.01-.19.03-.3.04-.11.01-.18.01-.25.02l-.03-.09s-.04,0-.06,0v.09c-.09,0-.18.01-.27.01h-.07s-.01,0-.02,0c-.15,0-.3,0-.44-.01-.03,0-.08,0-.13,0,0,0-.1-.01-.1-.01-.16-.02-.26-.03-.36-.05,0,0-.08-.01-.09-.01-.02,0-.1-.01-.12-.02-.17-.03-.28-.06-.39-.09-.03.01-.1-.02-.17-.04-.13-.03-.29-.08-.49-.16-.14-.05-.31-.12-.51-.21l-.46-.24s-.1-.07-.11-.07l-.2-.12s-.08-.06-.12-.09l.03-.08s-.04-.03-.05-.04l-.05.07s-.08-.06-.09-.07l-.04-.03s-.06-.04-.06-.05c-.01,0-.09-.07-.1-.08l.04-.09s-.05-.04-.07-.07l-.06.07c-.08-.07-.13-.12-.18-.16h-.01s-.04-.04-.06-.06c-.02-.02-.06-.06-.08-.08-.06-.05-.13-.13-.19-.19-.02-.02-.07-.09-.08-.11l-.08-.08s-.05-.06-.05-.06l-.06-.06.06-.08s-.04-.04-.05-.06l-.07.06c-1.03-1.23-1.57-2.73-1.84-3.7-.88,1.11-2.17,2.14-4.07,2.7-.04.01-.08.02-.11.02-.17,0-.33-.11-.38-.29-.06-.21.06-.43.27-.5.22-.06.42-.14.62-.22,3.15-1.22,4.22-3.93,4.57-5.41.06-.27.11-.51.13-.68.03-.22.24-.37.45-.34.22.03.37.23.34.45-.08.58-.33,1.77-1,3.03,6.93,2.83,14.87,1.9,22.42-2.64,9-5.41,16.03-15.23,17.05-23.65-.38.19-.87.37-1.44.37-.35,0-.73-.06-1.13-.23-.2-.08-.3-.32-.22-.52.08-.2.32-.3.52-.22ZM74.66,23.7c.89-.38,1.83-.57,2.78-.57,2.51,0,4.71,1.37,5.61,3.5,1.27,3.03-.42,6.64-3.77,8.04-.89.38-1.83.57-2.78.57h0c-2.51,0-4.71-1.38-5.61-3.5-1.27-3.02.42-6.63,3.77-8.04ZM54.23,48.94c-1.22.82-2.62,1.25-4.04,1.25h0c-2.09,0-3.98-.97-5.07-2.59-1.89-2.83-.88-6.84,2.25-8.93,1.23-.82,2.63-1.25,4.05-1.25,2.09,0,3.98.97,5.06,2.59,1.89,2.83.88,6.84-2.25,8.93ZM103.27,27.3h-.14c-1.95,0-4.26-.93-5.27-2.11-.47-.55-.51-1.02-.46-1.31.08-.49.42-.76.94-.76s1.17.27,1.92.58c.73.3,1.55.63,2.13.64h0c.41,0,.81-.07,1.24-.14.79-.13,1.67-.23,2.4-.03.57.16.9.62.83,1.17-.11.91-1.29,1.92-3.59,1.97Z"/>
      <path class="cls-5" d="M68.21,54.45c.03-.22-.12-.42-.34-.45-.21-.03-.42.12-.45.34-.02.17-.07.41-.13.68-.35,1.48-1.41,4.19-4.57,5.41-.2.08-.4.15-.62.22-.21.06-.33.29-.27.5.05.17.21.29.38.29.04,0,.08,0,.11-.02,1.9-.56,3.19-1.59,4.07-2.7.14-.18.28-.37.4-.55.15-.23.29-.46.41-.69.68-1.26.92-2.45,1-3.03Z"/>
    </g>
  </g>
</svg>