<svg width="110" height="144" viewBox="0 0 110 144" fill="none" xmlns="http://www.w3.org/2000/svg">
<path d="M80.88 78.1002C81.52 78.1002 82.29 78.2202 83.27 78.3502C85.32 78.6402 88.23 79.0502 92.66 78.9502C98.28 78.8202 102.56 76.2402 104.65 74.6802C101.81 74.3902 98.63 71.1402 96.67 66.5802C96.01 66.8102 95.27 66.9402 94.58 66.9402C93.07 66.9402 92.03 66.3502 91.73 65.3202C91.59 64.8402 91.71 64.2702 92.06 63.6802C92.54 62.8602 93.59 61.8802 95.14 61.3102C95.14 61.2602 95.12 61.2202 95.12 61.1702C94.61 61.2902 94.03 61.3502 93.49 61.3502C92.04 61.3502 91.15 60.8902 90.98 60.0602C90.84 59.3502 91.53 58.4202 91.83 58.0502C92.26 57.5202 92.86 56.9802 93.55 56.5702C92.99 56.4002 92.55 56.1202 92.43 55.7002C91.61 56.3102 90.77 56.9902 89.89 57.6802C87.69 59.4302 85.23 61.3902 82.37 63.0502C82.36 63.0502 82.34 63.0702 82.33 63.0802C82.25 63.1302 82.17 63.1702 82.09 63.2202C81.01 63.8402 79.93 64.3802 78.85 64.8502C77.75 66.1002 76.44 67.0702 75.04 67.7802C75.94 69.8002 77.2 71.9102 78.74 74.4802C79.41 75.6002 80.13 76.8002 80.89 78.1102L80.88 78.1002Z" fill="#7F8D93"/>
<path d="M83.1804 62.0901C83.3004 62.2801 83.2404 62.5201 83.0504 62.6401C82.8204 62.7801 82.5904 62.9201 82.3604 63.0501C85.2204 61.3901 87.6803 59.4301 89.8803 57.6801C90.7503 56.9801 91.6003 56.3101 92.4203 55.7001C92.4103 55.6501 92.4004 55.6101 92.3904 55.5501C92.3504 55.2001 92.5204 54.8001 92.8904 54.3701C91.7604 55.1601 90.6003 56.0801 89.3803 57.0501C87.3803 58.6401 85.1704 60.4001 82.6404 61.9501C82.8304 61.8401 83.0604 61.9001 83.1804 62.0901Z" fill="#231F20"/>
<path d="M105.051 74.6998C104.921 74.6998 104.781 74.6998 104.651 74.6798C102.561 76.2398 98.2809 78.8198 92.6609 78.9498C88.2309 79.0598 85.3209 78.6398 83.2709 78.3498C82.3009 78.2098 81.5309 78.0998 80.8809 78.0998C81.0409 78.3698 81.2009 78.6498 81.3609 78.9298C81.8609 78.9698 82.4509 79.0398 83.1609 79.1498C85.0109 79.4098 87.5409 79.7698 91.2509 79.7698C91.7109 79.7698 92.1809 79.7698 92.6809 79.7498C99.6709 79.5898 104.551 75.8998 106.101 74.5498C105.761 74.6498 105.411 74.6998 105.051 74.6998Z" fill="#231F20"/>
<path d="M78.8408 64.8398C79.9208 64.3798 81.0008 63.8398 82.0808 63.2098C82.1608 63.1598 82.2408 63.1198 82.3208 63.0698C82.3308 63.0698 82.3508 63.0498 82.3608 63.0398C82.5908 62.9098 82.8208 62.7698 83.0508 62.6298C83.2408 62.5098 83.3008 62.2698 83.1808 62.0798C83.0708 61.8998 82.8308 61.8398 82.6408 61.9398C82.6408 61.9398 82.6408 61.9398 82.6308 61.9398C81.7108 62.4998 80.7908 63.0098 79.8808 63.4498C79.5608 63.9398 79.2208 64.3898 78.8408 64.8198V64.8398Z" fill="#231F20"/>
<path d="M96.3407 53.0098C95.2407 53.4498 94.1507 54.1498 93.5607 54.8098C93.1707 55.2398 93.1807 55.4398 93.1807 55.4698C93.2007 55.6498 93.9307 55.9698 95.0807 55.9798C95.0907 55.9798 95.1007 55.9798 95.1107 55.9798C95.3507 54.7698 95.7707 53.7698 96.3407 53.0198V53.0098Z" fill="#728084"/>
<path d="M92.3907 55.5498C92.3907 55.5998 92.4107 55.6498 92.4207 55.6998C92.5407 56.1298 92.9807 56.4098 93.5407 56.5698C94.0207 56.2898 94.5407 56.0698 95.0807 55.9698C93.9407 55.9698 93.2007 55.6398 93.1807 55.4598C93.1807 55.4398 93.1707 55.2398 93.5607 54.7998C94.1507 54.1398 95.2407 53.4298 96.3407 52.9998C96.7507 52.4698 97.2307 52.0598 97.7907 51.7998C96.0607 51.9798 93.9707 53.1598 92.9607 54.2698C92.9307 54.2998 92.9107 54.3298 92.8807 54.3598C92.5107 54.7898 92.3407 55.1898 92.3807 55.5398L92.3907 55.5498Z" fill="#231F20"/>
<path d="M92.4303 58.5498C91.9003 59.1898 91.7103 59.7198 91.7403 59.8898C91.8403 60.3698 92.7003 60.5398 93.4703 60.5398C94.0103 60.5398 94.5503 60.4698 95.0003 60.3598C94.8603 59.1098 94.8503 57.9098 94.9803 56.7998C93.9503 57.0598 93.0203 57.8198 92.4303 58.5498Z" fill="#728084"/>
<path d="M91.8099 58.04C91.5099 58.41 90.8199 59.34 90.9599 60.05C91.1299 60.88 92.0299 61.34 93.4699 61.34C94.0099 61.34 94.5899 61.27 95.0999 61.16C95.0599 60.89 95.0199 60.63 94.9899 60.36C94.5399 60.47 94.0099 60.54 93.4599 60.54C92.6899 60.54 91.8299 60.37 91.7299 59.89C91.6999 59.72 91.8899 59.19 92.4199 58.55C93.0099 57.83 93.9399 57.07 94.9699 56.8C94.9699 56.75 94.9699 56.7 94.9799 56.65C95.0099 56.41 95.0499 56.18 95.0999 55.96C95.0899 55.96 95.0799 55.96 95.0699 55.96C94.5299 56.06 93.9999 56.27 93.5299 56.56C92.8399 56.97 92.2399 57.51 91.8099 58.04Z" fill="#231F20"/>
<path d="M92.74 64.0798C92.51 64.4698 92.42 64.8398 92.49 65.0898C92.77 66.0298 94.04 66.1298 94.58 66.1298C95.18 66.1298 95.81 66.0198 96.37 65.8298C96.29 65.6298 96.22 65.4398 96.15 65.2398C95.77 64.1898 95.48 63.1298 95.27 62.0898C93.98 62.5998 93.12 63.4298 92.74 64.0698V64.0798Z" fill="#728084"/>
<path d="M92.0502 63.6698C91.7002 64.2598 91.5802 64.8298 91.7202 65.3098C92.0202 66.3398 93.0602 66.9298 94.5702 66.9298C95.2602 66.9298 96.0002 66.7998 96.6602 66.5698C96.5602 66.3298 96.4502 66.0798 96.3602 65.8298C95.8002 66.0198 95.1702 66.1298 94.5702 66.1298C94.0402 66.1298 92.7602 66.0298 92.4802 65.0898C92.4102 64.8398 92.5002 64.4698 92.7302 64.0798C93.1102 63.4298 93.9702 62.5998 95.2602 62.0998C95.2102 61.8298 95.1602 61.5698 95.1202 61.2998C93.5702 61.8698 92.5302 62.8498 92.0402 63.6698H92.0502Z" fill="#231F20"/>
<path d="M107.511 61.1798C105.691 56.0898 102.191 52.2598 99.3605 52.2598C99.0205 52.2598 98.7005 52.3198 98.3905 52.4198C97.0205 52.9098 96.1005 54.4498 95.7905 56.7698C95.4705 59.1798 95.8605 62.0898 96.9005 64.9798C98.7205 70.0698 102.221 73.9098 105.051 73.9098C105.391 73.9098 105.711 73.8498 106.021 73.7498C108.941 72.6998 109.611 67.0698 107.511 61.1898V61.1798Z" fill="#505151"/>
<path d="M96.3402 53.0097C95.7702 53.7597 95.3502 54.7597 95.1102 55.9697C95.0702 56.1897 95.0302 56.4197 94.9902 56.6597C94.9902 56.7097 94.9902 56.7597 94.9802 56.8097C94.8502 57.9197 94.8602 59.1197 95.0002 60.3697C95.0302 60.6297 95.0602 60.8997 95.1102 61.1697C95.1102 61.2197 95.1302 61.2597 95.1302 61.3097C95.1702 61.5697 95.2202 61.8397 95.2702 62.1097C95.4802 63.1497 95.7702 64.2097 96.1502 65.2597C96.2202 65.4597 96.3002 65.6597 96.3702 65.8497C96.4702 66.0997 96.5702 66.3497 96.6702 66.5897C98.6302 71.1497 101.81 74.4097 104.65 74.6897C104.79 74.6997 104.92 74.7097 105.05 74.7097C105.41 74.7097 105.76 74.6597 106.1 74.5597C106.16 74.5397 106.23 74.5197 106.29 74.4997C109.69 73.2797 110.55 67.3197 108.27 60.9197C106.31 55.4397 102.57 51.4697 99.3702 51.4697C98.9402 51.4697 98.5202 51.5397 98.1302 51.6797C98.0202 51.7197 97.9102 51.7697 97.8102 51.8197C97.2502 52.0797 96.7702 52.4897 96.3602 53.0197L96.3402 53.0097ZM106.01 73.7397C105.7 73.8497 105.38 73.8997 105.04 73.8997C102.21 73.8997 98.7102 70.0597 96.8902 64.9697C95.8602 62.0797 95.4602 59.1697 95.7802 56.7597C96.0902 54.4497 97.0102 52.8997 98.3802 52.4097C98.6902 52.2997 99.0102 52.2497 99.3502 52.2497C102.18 52.2497 105.68 56.0897 107.5 61.1697C109.6 67.0497 108.93 72.6797 106.01 73.7297V73.7397Z" fill="#231F20"/>
<path d="M29.2905 104.969C26.9905 100.799 24.8905 98.0293 22.1205 98.0293C21.6205 98.0293 21.1005 98.1193 20.5605 98.2993V98.3193C20.6305 98.4293 20.7705 98.5093 20.9705 98.5593C21.0805 98.5893 21.1805 98.6593 21.2405 98.7593C21.2505 98.7793 21.2605 98.7993 21.2705 98.8193C21.3105 98.8193 21.3505 98.8193 21.4005 98.8193C22.7105 98.8193 24.4905 99.3293 25.5605 101.749C27.8905 106.999 30.9905 112.369 36.2505 112.369C36.2505 112.369 36.3105 112.369 36.3405 112.369C36.2405 111.299 36.1605 110.129 36.1005 108.829C36.1005 108.779 36.1005 108.729 36.1005 108.679C35.8705 108.699 35.6305 108.709 35.3905 108.709C33.5405 108.709 30.9805 108.059 29.2805 104.969H29.2905Z" fill="#97A9AF"/>
<path d="M20.5108 97.9901C20.5108 97.9901 20.4808 98.1501 20.5508 98.2901C21.0908 98.1101 21.6108 98.0201 22.1108 98.0201C24.8808 98.0201 26.9808 100.79 29.2808 104.96C30.9908 108.05 33.5508 108.7 35.3908 108.7C35.6308 108.7 35.8708 108.69 36.1008 108.67C36.0908 108.4 36.0808 108.14 36.0708 107.87C35.8508 107.89 35.6208 107.9 35.3908 107.9C33.0208 107.9 31.1908 106.78 29.9708 104.57C27.0808 99.3401 24.3708 96.1901 20.3008 97.5301C20.4608 97.6201 20.5508 97.8001 20.5008 97.9801L20.5108 97.9901Z" fill="#231F20"/>
<path d="M36.3503 112.36C36.3503 112.36 36.2903 112.36 36.2603 112.36C30.9903 112.36 27.9003 106.99 25.5703 101.74C24.4903 99.3196 22.7103 98.8096 21.4103 98.8096C21.3703 98.8096 21.3203 98.8096 21.2803 98.8096C21.3803 99.0196 21.4603 99.2996 21.5103 99.6096C23.0103 99.6496 24.1403 100.47 24.8503 102.06C27.2903 107.54 30.5503 113.15 36.2703 113.15C36.3303 113.15 36.3903 113.15 36.4503 113.15C36.4203 112.89 36.3903 112.63 36.3703 112.35L36.3503 112.36Z" fill="#231F20"/>
<path d="M20.6006 99.2802C20.2706 99.1702 20.0306 98.9902 19.8806 98.7302C19.7706 98.5402 19.7206 98.3402 19.7106 98.1802C19.1806 98.0302 18.6306 97.9502 18.0906 97.9502C15.8906 97.9502 13.8006 99.1702 12.4906 101.22C11.1306 103.34 10.8806 105.91 11.7506 108.38C12.8006 106.37 14.4206 105.94 16.0006 105.51C17.0606 105.22 18.1606 104.93 19.1306 104.13C20.7906 102.75 20.9606 100.23 20.6106 99.2702L20.6006 99.2802Z" fill="#97A9AF"/>
<path d="M21.2703 98.8202C21.2703 98.8202 21.2503 98.7802 21.2403 98.7602C21.1903 98.6602 21.0903 98.5802 20.9703 98.5602C20.7603 98.5102 20.6303 98.4302 20.5603 98.3202V98.3002C20.4903 98.1602 20.5203 98.0002 20.5203 98.0002C20.5703 97.8202 20.4803 97.6302 20.3203 97.5502C20.3003 97.5402 20.2903 97.5301 20.2603 97.5201C19.5503 97.2801 18.8203 97.1602 18.0903 97.1602C15.6203 97.1602 13.2803 98.5202 11.8203 100.8C10.1603 103.4 10.0003 106.61 11.3803 109.58C11.4503 109.72 11.5903 109.81 11.7403 109.81C11.7403 109.81 11.7503 109.81 11.7603 109.81C11.9203 109.81 12.0603 109.7 12.1203 109.55C12.9803 107.16 14.4803 106.76 16.2103 106.29C17.3603 105.98 18.5403 105.66 19.6403 104.76C21.3003 103.38 21.7203 101.07 21.5103 99.6301C21.4603 99.3101 21.3803 99.0402 21.2803 98.8302L21.2703 98.8202ZM19.1203 104.14C18.1603 104.94 17.0603 105.23 15.9903 105.52C14.4203 105.94 12.8003 106.38 11.7403 108.39C10.8703 105.92 11.1203 103.35 12.4803 101.23C13.7903 99.1802 15.8803 97.9602 18.0803 97.9602C18.6303 97.9602 19.1703 98.0402 19.7003 98.1902C19.7103 98.3502 19.7503 98.5502 19.8703 98.7402C20.0203 99.0002 20.2703 99.1802 20.5903 99.2902C20.9403 100.25 20.7703 102.77 19.1103 104.15L19.1203 104.14Z" fill="#231F20"/>
<path d="M37.5604 117.009C37.7204 116.899 37.9204 116.929 38.0604 117.059C37.4104 115.189 37.0904 112.579 36.9204 108.779C36.8604 107.559 36.8604 106.399 36.9104 105.309C36.6504 105.219 36.3904 105.129 36.1304 105.029C36.0904 105.939 36.0704 106.879 36.1004 107.869C36.1004 108.129 36.1204 108.399 36.1304 108.669C36.1304 108.719 36.1304 108.769 36.1304 108.819C36.1904 110.119 36.2704 111.299 36.3704 112.359C36.4004 112.629 36.4204 112.899 36.4504 113.159C36.7404 115.709 37.2304 117.579 38.1004 119.009C37.9904 118.499 37.7804 118.019 37.4704 117.569C37.3504 117.389 37.3904 117.139 37.5704 117.009H37.5604Z" fill="#231F20"/>
<path d="M71.2109 139.33C71.2109 139.2 71.2009 139.08 71.2009 138.95C70.4709 138.88 69.7809 138.76 69.1409 138.62C66.6209 138.03 64.9809 136.9 64.2709 135.24C63.0709 132.45 64.8109 129.12 65.3709 128.16C66.9509 125.46 66.9509 121.74 66.8909 120.43C66.7609 120.43 66.6309 120.44 66.5009 120.45C66.2809 120.45 66.1109 120.28 66.1009 120.06C66.1009 119.84 66.2709 119.66 66.4909 119.65C66.5409 119.65 66.6009 119.65 66.6509 119.65C66.5909 119.62 66.5409 119.6 66.4709 119.6C66.4609 119.6 66.4509 119.6 66.4409 119.6C66.4209 119.6 64.5609 119.76 62.8409 119.76C62.3609 119.76 61.8909 119.75 61.4509 119.72C61.1709 119.72 60.9009 119.72 60.6309 119.7C60.6309 119.97 60.6309 120.23 60.6309 120.5C60.8809 120.5 61.1409 120.52 61.4109 120.52C62.9509 120.63 65.1809 120.5 66.0909 120.44C66.1409 121.63 66.1609 125.26 64.6809 127.77C64.0709 128.81 62.1909 132.43 63.5409 135.57C64.3609 137.47 66.1809 138.76 68.9609 139.41C69.7909 139.6 70.7109 139.73 71.6809 139.8C71.6409 139.79 71.6009 139.78 71.5609 139.77C71.3609 139.69 71.2409 139.53 71.2209 139.34L71.2109 139.33Z" fill="#231F20"/>
<path d="M80.8803 78.0995C80.1203 76.7895 79.4003 75.5895 78.7303 74.4695C77.1903 71.8995 75.9303 69.7895 75.0303 67.7695C74.7903 67.8895 74.5603 67.9995 74.3203 68.1095C75.2503 70.2095 76.5303 72.3495 78.0503 74.8895C79.3403 77.0395 80.8003 79.4895 82.3903 82.4395C87.8703 92.6795 89.1503 104.6 85.8003 114.37C84.3903 120.05 85.6903 124.02 87.0703 128.23C87.1503 128.46 87.2203 128.71 87.3003 128.94C87.5603 128.87 87.8303 128.87 88.0803 128.92C88.1003 128.92 88.1203 128.93 88.1403 128.94C88.0403 128.62 87.9303 128.29 87.8303 127.97C86.4903 123.87 85.2303 120 86.5703 114.58C89.9803 104.64 88.6903 92.4795 83.1003 82.0495C82.5103 80.9395 81.9303 79.8995 81.3703 78.9295C81.2103 78.6495 81.0503 78.3695 80.8903 78.0995H80.8803Z" fill="#231F20"/>
<path d="M46.26 142.16C46.25 142.01 46.24 141.85 46.25 141.7C43.5 141.04 40.96 139.92 39.36 139.01C36.87 137.59 35.2 135.61 34.66 133.43C34.18 131.49 34.59 129.42 35.84 127.44C38.63 123.04 39.92 119.95 38.22 117.28C38.19 117.23 38.16 117.17 38.12 117.12C38.1 117.1 38.08 117.08 38.06 117.06C37.93 116.93 37.72 116.9 37.56 117.01C37.38 117.13 37.33 117.38 37.46 117.57C37.77 118.02 37.98 118.5 38.09 119.01C38.49 120.84 37.6 123.18 35.17 127.02C33.79 129.18 33.35 131.47 33.89 133.63C34.49 136.03 36.29 138.19 38.97 139.71C40.76 140.73 43.7 142 46.84 142.64C46.72 142.6 46.61 142.55 46.5 142.5C46.37 142.44 46.28 142.31 46.27 142.17L46.26 142.16Z" fill="#231F20"/>
<path d="M60.6203 119.689C60.6303 117.719 60.8703 115.819 61.6503 113.989C61.7403 113.789 61.6503 113.549 61.4403 113.469C61.2403 113.379 61.0003 113.469 60.9203 113.679C60.8903 113.749 60.8603 113.829 60.8303 113.899C59.5303 117.149 59.7703 120.529 60.0303 124.089C60.2203 126.619 60.4003 129.199 60.0603 131.869C60.2603 131.829 60.4703 131.839 60.6803 131.909C60.7503 131.929 60.8003 131.979 60.8503 132.029C61.2103 129.269 61.0203 126.619 60.8303 124.019C60.7403 122.809 60.6603 121.629 60.6303 120.469C60.6303 120.199 60.6303 119.939 60.6303 119.669L60.6203 119.689Z" fill="#231F20"/>
<path d="M60.2704 132.66C60.2104 132.66 60.1504 132.68 60.0904 132.71C58.6804 133.43 58.8504 136.77 59.0404 137.99C59.0704 138.2 58.9304 138.4 58.7204 138.44C58.5104 138.48 58.3104 138.35 58.2504 138.14C57.9804 137.01 56.9204 134.07 55.3404 134.07C55.1404 134.07 54.9404 134.11 54.7304 134.2C52.2304 135.23 52.3704 139.41 52.3704 139.45C52.3704 139.65 52.2404 139.82 52.0504 139.86C51.8604 139.9 51.6604 139.79 51.6004 139.6C51.4004 139.02 50.6204 137.37 49.7404 137.37C49.5804 137.37 49.4304 137.42 49.2604 137.52C47.8904 138.36 47.0004 140.11 47.0404 141.86C47.8004 142.16 48.7704 142.32 49.9304 142.32C53.0604 142.32 56.8304 141.19 58.9404 140.07C61.6104 138.65 62.0404 136.29 60.2804 132.66H60.2704Z" fill="#728084"/>
<path d="M60.68 131.93C60.47 131.86 60.27 131.85 60.06 131.89C59.95 131.91 59.84 131.94 59.73 132C58.57 132.59 58.2 134.15 58.13 135.56C57.53 134.41 56.62 133.29 55.35 133.29C55.05 133.29 54.74 133.35 54.44 133.48C52.51 134.28 51.88 136.44 51.68 137.95C51.24 137.26 50.59 136.59 49.75 136.59C49.45 136.59 49.15 136.68 48.85 136.86C47.27 137.83 46.26 139.74 46.25 141.71C46.25 141.86 46.25 142.02 46.26 142.17C46.27 142.31 46.36 142.44 46.49 142.5C46.6 142.55 46.71 142.6 46.83 142.64C47.67 142.96 48.72 143.13 49.94 143.13C53.21 143.13 57.13 141.95 59.32 140.78C62.46 139.11 62.98 136.28 60.91 132.13C60.9 132.1 60.87 132.08 60.85 132.06C60.8 132.01 60.75 131.96 60.68 131.94V131.93ZM49.93 142.32C48.77 142.32 47.8 142.17 47.04 141.86C46.99 140.12 47.88 138.36 49.26 137.52C49.43 137.42 49.59 137.37 49.74 137.37C50.62 137.37 51.4 139.02 51.6 139.6C51.66 139.79 51.86 139.9 52.05 139.86C52.24 139.82 52.38 139.65 52.37 139.45C52.37 139.41 52.23 135.23 54.73 134.2C54.94 134.11 55.14 134.07 55.34 134.07C56.92 134.07 57.98 137 58.25 138.14C58.3 138.35 58.5 138.48 58.72 138.44C58.93 138.4 59.07 138.2 59.04 137.99C58.85 136.77 58.68 133.43 60.09 132.71C60.15 132.68 60.21 132.66 60.27 132.66C62.03 136.29 61.61 138.65 58.93 140.07C56.83 141.19 53.06 142.32 49.92 142.32H49.93Z" fill="#231F20"/>
<path d="M82.22 111.02C82.31 110.82 82.22 110.58 82.03 110.49C81.83 110.4 81.59 110.49 81.5 110.68C81.42 110.86 81.32 111.04 81.22 111.24C79.49 114.43 74.91 119.19 67.21 119.63C67.02 119.64 66.84 119.65 66.65 119.65C66.6 119.65 66.54 119.65 66.49 119.65C66.27 119.65 66.09 119.84 66.1 120.06C66.1 120.28 66.28 120.45 66.5 120.45C66.63 120.45 66.76 120.44 66.89 120.43C75.65 120.08 80.65 114.38 82.22 111.01V111.02Z" fill="#231F20"/>
<path d="M87.7708 129.68C87.6308 129.67 87.4808 129.7 87.3408 129.76C85.7308 130.49 85.7308 133 85.8108 134.05C85.8208 134.25 85.6908 134.42 85.5008 134.47C85.3108 134.51 85.1108 134.41 85.0408 134.23C84.6008 133.15 83.6108 131.33 81.9608 131.33C81.6508 131.33 81.3308 131.39 81.0108 131.51C78.5508 132.44 78.0808 135.16 77.9908 136.29C77.9808 136.47 77.8508 136.61 77.6708 136.65C77.4908 136.68 77.3208 136.6 77.2408 136.44C77.0408 136.05 76.2908 134.76 75.2008 134.76C74.9608 134.76 74.7008 134.83 74.4408 134.97C72.8508 135.81 71.9408 137.34 71.9808 139.07C72.6808 139.26 73.5708 139.36 74.6008 139.36C78.3708 139.36 83.1508 138.03 85.9308 136.72C87.5108 135.98 88.4808 135.05 88.8008 133.95C89.1408 132.77 88.8008 131.38 87.7508 129.69L87.7708 129.68Z" fill="#728084"/>
<path d="M87.2902 128.93C87.2002 128.95 87.1102 128.99 87.0202 129.02C85.6402 129.65 85.1602 131.12 85.0302 132.46C84.3702 131.46 83.3702 130.52 81.9702 130.52C81.5602 130.52 81.1502 130.6 80.7402 130.75C78.4902 131.6 77.6602 133.66 77.3602 135.14C76.8802 134.55 76.1602 133.95 75.2202 133.95C74.8502 133.95 74.4702 134.05 74.0902 134.25C72.2602 135.22 71.2002 136.96 71.2002 138.95C71.2002 139.07 71.2002 139.2 71.2102 139.33C71.2302 139.52 71.3402 139.68 71.5502 139.76C71.5902 139.77 71.6302 139.78 71.6702 139.79C72.4902 140.03 73.4702 140.15 74.6202 140.15C78.5002 140.15 83.4302 138.78 86.2902 137.44C88.0902 136.6 89.2002 135.5 89.5802 134.17C90.0002 132.74 89.6002 131.09 88.3902 129.18C88.3402 129.09 88.2302 128.99 88.1202 128.95C88.1002 128.95 88.0802 128.93 88.0602 128.93C87.8002 128.87 87.5402 128.88 87.2802 128.95L87.2902 128.93ZM88.8202 133.94C88.5002 135.04 87.5402 135.97 85.9502 136.71C83.1702 138.02 78.3902 139.35 74.6202 139.35C73.5902 139.35 72.7002 139.25 72.0002 139.06C71.9602 137.33 72.8702 135.81 74.4602 134.96C74.7202 134.82 74.9802 134.75 75.2202 134.75C76.3002 134.75 77.0502 136.03 77.2602 136.43C77.3402 136.59 77.5202 136.67 77.6902 136.64C77.8602 136.6 77.9902 136.46 78.0102 136.28C78.1002 135.15 78.5702 132.43 81.0302 131.5C81.3502 131.38 81.6602 131.32 81.9802 131.32C83.6302 131.32 84.6102 133.14 85.0602 134.22C85.1302 134.4 85.3302 134.5 85.5202 134.46C85.7102 134.42 85.8402 134.24 85.8302 134.04C85.7602 133 85.7602 130.49 87.3602 129.75C87.5002 129.69 87.6502 129.66 87.7902 129.67C88.8402 131.36 89.1802 132.76 88.8402 133.93L88.8202 133.94Z" fill="#231F20"/>
<path d="M90.09 14.73C92.59 16.83 94.72 19.15 96.46 21.61C97.07 21.3 97.82 21.18 98.65 21.29C98.85 21.32 99.05 21.35 99.23 21.39C96.81 16.64 93.27 12.04 88.84 8.14004C81.94 2.07004 75.18 0.790039 70.72 0.790039C65.18 0.790039 60.02 2.80004 56.93 6.16004C56.85 6.24004 56.78 6.33004 56.71 6.41004C60.96 6.92004 64.56 8.77004 67.7 10.96C70 9.45004 72.74 8.64004 75.65 8.64004C80.35 8.64004 85.34 10.74 90.1 14.72L90.09 14.73Z" fill="#97A9AF"/>
<path d="M56.7102 6.41977C56.7802 6.32977 56.8602 6.24977 56.9302 6.16977C60.0202 2.80977 65.1802 0.799766 70.7202 0.799766C75.1802 0.799766 81.9402 2.06977 88.8402 8.14977C93.2702 12.0498 96.8102 16.6498 99.2302 21.3998C99.6002 21.4798 99.9502 21.5998 100.28 21.7198C97.8102 16.6398 94.0902 11.6998 89.3702 7.54977C82.2802 1.30977 75.3202 0.00976562 70.7202 0.00976562C64.9602 0.00976562 59.5802 2.10977 56.3402 5.63977C56.1302 5.86977 55.9302 6.10977 55.7402 6.33977C56.0602 6.35977 56.3902 6.38977 56.7002 6.42977L56.7102 6.41977Z" fill="#231F20"/>
<path d="M95.4404 22.4902C95.5504 22.3302 95.6704 22.2002 95.8104 22.0702C94.1104 19.6702 92.0304 17.3902 89.5804 15.3402C84.9704 11.4902 80.1604 9.4502 75.6504 9.4502C73.0004 9.4502 70.5204 10.1502 68.4004 11.4702C70.1004 12.7102 71.6604 14.0202 73.1104 15.2502C75.7904 17.5202 78.1104 19.4802 80.3404 20.2002C85.7304 21.9402 92.6104 26.5102 94.2804 33.6802C94.3604 34.0202 94.4204 34.3602 94.4804 34.7102C95.6004 33.2302 96.2804 31.4002 96.4404 29.3402C94.4004 25.4802 94.7804 23.4902 95.4604 22.5002L95.4404 22.4902Z" fill="#F982C0"/>
<path d="M89.5804 15.3394C92.0304 17.3894 94.1104 19.6694 95.8104 22.0694C96.0004 21.8894 96.2204 21.7294 96.4604 21.6094C94.7204 19.1494 92.6004 16.8194 90.0904 14.7294C85.3404 10.7594 80.3404 8.64941 75.6404 8.64941C72.7204 8.64941 69.9904 9.45941 67.6904 10.9694C67.9304 11.1294 68.1604 11.2994 68.3904 11.4694C70.5104 10.1594 73.0004 9.44941 75.6404 9.44941C80.1504 9.44941 84.9704 11.4894 89.5704 15.3394H89.5804Z" fill="#231F20"/>
<path d="M21.5104 21.7698C13.5704 21.7698 1.51036 29.6198 0.840364 46.4698C0.400364 57.5598 3.84036 68.0298 10.0404 74.4798C12.6204 77.1698 15.5004 78.9298 18.4904 79.6998C9.50036 75.3898 3.98036 64.4898 4.80036 51.8798C5.67036 38.5198 13.5604 32.5298 21.0004 32.5298C23.7404 32.5298 26.3704 33.3198 28.5604 34.7498C28.3704 31.5598 28.5204 28.3598 29.2404 25.2798C29.0604 25.0698 28.8804 24.8598 28.7004 24.6598C26.9904 22.7598 24.5004 21.7598 21.5204 21.7598L21.5104 21.7698Z" fill="#97A9AF"/>
<path d="M21.7804 80.9197C21.7804 80.9197 21.7104 80.9197 21.6804 80.9097C20.5704 80.5997 19.5104 80.1897 18.4904 79.6997C15.5004 78.9297 12.6204 77.1697 10.0404 74.4797C3.83042 68.0197 0.390419 57.5497 0.840419 46.4697C1.51042 29.6197 13.5704 21.7697 21.5104 21.7697C24.5004 21.7697 26.9804 22.7697 28.6904 24.6697C28.8704 24.8697 29.0504 25.0797 29.2304 25.2897C29.3004 24.9797 29.3904 24.6597 29.4704 24.3497C29.4104 24.2797 29.3504 24.1997 29.2804 24.1297C27.4404 22.0897 24.6804 20.9697 21.5004 20.9697C13.2604 20.9697 0.730419 29.0597 0.0404189 46.4397C-0.409581 57.7397 3.11042 68.4297 9.46042 75.0397C13.1704 78.8997 17.4804 80.9397 21.9104 80.9397C23.8104 80.9397 25.6904 80.5697 27.5304 79.8297C25.7004 80.5597 23.8304 80.9297 21.9304 80.9297H21.7804V80.9197Z" fill="#231F20"/>
<path d="M33.6406 75.8594C33.5506 75.9494 33.4506 76.0394 33.3506 76.1294C33.4506 76.0394 33.5406 75.9494 33.6406 75.8594Z" fill="#231F20"/>
<path d="M35.3802 73.96C35.2502 74.12 35.1302 74.27 34.9902 74.43C35.1202 74.28 35.2502 74.12 35.3802 73.96Z" fill="#231F20"/>
<path d="M5.59001 51.9298C4.70001 65.5698 11.38 77.1498 21.84 80.1298H21.93C25.14 80.1298 28.28 79.0198 31.26 76.8198C33.52 75.1598 35.36 73.0198 36.76 70.4698C32.85 68.8398 29.72 66.3298 27.87 63.1698C24.74 57.8098 26.63 52.6898 28.14 48.5698C29.03 46.1498 29.8 44.0698 29.49 42.3498C29.11 40.1998 28.79 37.9898 28.62 35.7798C26.46 34.2098 23.79 33.3398 20.99 33.3398C14.44 33.3398 6.48001 38.2098 5.59001 51.9398V51.9298Z" fill="#F982C0"/>
<path d="M36.7603 70.4595C35.3603 73.0095 33.5203 75.1495 31.2603 76.8095C28.2803 79.0095 25.1403 80.1195 21.9303 80.1195H21.8403C11.3803 77.1495 4.7003 65.5595 5.5903 51.9195C6.4803 38.1895 14.4403 33.3195 20.9903 33.3195C23.7903 33.3195 26.4603 34.1895 28.6203 35.7595C28.5903 35.4195 28.5703 35.0795 28.5503 34.7395C26.3603 33.3095 23.7303 32.5195 20.9903 32.5195C13.5503 32.5195 5.6603 38.4995 4.7903 51.8695C3.9703 64.4795 9.4903 75.3895 18.4803 79.6895C19.5003 80.1795 20.5603 80.5895 21.6703 80.8995C21.7003 80.8995 21.7403 80.9095 21.7703 80.9095H21.9203C23.8203 80.9095 25.6903 80.5395 27.5203 79.8095C28.9503 79.2395 30.3503 78.4495 31.7203 77.4395C32.0003 77.2295 32.2703 77.0195 32.5403 76.7995C32.6303 76.7295 32.7103 76.6495 32.8003 76.5795C32.9803 76.4295 33.1603 76.2695 33.3303 76.1095C33.4303 76.0195 33.5203 75.9295 33.6203 75.8395C33.7903 75.6795 33.9603 75.5095 34.1303 75.3395C34.2803 75.1795 34.4303 75.0195 34.5803 74.8595C34.7103 74.7095 34.8503 74.5695 34.9803 74.4195C35.1103 74.2695 35.2403 74.1095 35.3703 73.9495C35.4503 73.8495 35.5203 73.7595 35.6003 73.6595C35.7403 73.4795 35.8803 73.2995 36.0103 73.1095C36.0403 73.0695 36.0703 73.0295 36.0903 72.9895C36.6003 72.2795 37.0703 71.5295 37.5003 70.7395C37.2503 70.6395 37.0003 70.5495 36.7503 70.4395L36.7603 70.4595Z" fill="#231F20"/>
<path d="M85.7907 114.36C89.1407 104.59 87.8607 92.6696 82.3807 82.4296C80.8007 79.4696 79.3307 77.0296 78.0407 74.8796C76.5207 72.3496 75.2407 70.1996 74.3107 68.0996C72.5307 68.8696 70.6407 69.2496 68.8707 69.2496C67.1007 69.2496 65.6107 68.9196 64.3207 68.2996C59.2107 71.0796 53.5107 72.5496 47.8007 72.5496C47.5307 72.5496 47.2707 72.5496 47.0107 72.5396C46.1107 72.5196 45.2207 72.4596 44.3607 72.3596C41.1107 78.9296 36.1707 82.1296 32.1707 84.7096C31.5807 85.0896 31.0107 85.4596 30.4707 85.8296C30.5007 85.8796 30.5307 85.9196 30.5607 85.9796C30.6707 86.2196 30.7307 86.5396 30.7507 86.8796C31.8707 85.6396 33.5007 84.8496 34.4507 84.8496C34.6407 84.8496 34.8107 84.8796 34.9507 84.9396C35.2507 85.0696 35.6407 85.3696 35.7907 86.0696C35.8707 86.4396 35.8607 86.8696 35.8107 87.3096C36.6907 86.5796 37.6407 86.1996 38.3807 86.1996C38.6907 86.1996 38.9707 86.2696 39.2107 86.3896C39.8007 86.7096 40.1807 87.2796 40.3107 88.0396C40.5007 89.1796 40.0907 90.5596 39.4707 91.6296C44.4907 94.8396 47.4707 99.1896 47.0507 102.39C49.1307 100.59 52.7907 96.7096 54.1907 90.8796C55.2507 86.4396 55.5607 83.2396 55.7807 80.8996C55.9907 78.7496 56.1207 77.4196 56.7007 76.5896C56.7207 76.5596 56.7407 76.5296 56.7607 76.5096C56.8907 76.3396 57.1507 76.2996 57.3207 76.4396C57.5007 76.5696 57.5307 76.8196 57.3907 76.9996C56.8907 77.6496 56.7707 78.9796 56.5707 80.9896C56.3407 83.3496 56.0307 86.5896 54.9607 91.0796C53.2307 98.2896 48.3207 102.52 46.5907 103.82C46.5607 103.88 46.5307 103.93 46.4907 103.99C45.6307 105.38 43.8807 106.14 41.5607 106.14C40.1207 106.14 38.5307 105.85 36.8907 105.31C36.8507 106.4 36.8507 107.55 36.9007 108.78C37.0807 112.58 37.3907 115.18 38.0407 117.06C38.0607 117.08 38.0807 117.09 38.1007 117.12C38.1407 117.17 38.1607 117.23 38.2007 117.28C39.9007 119.95 38.6207 123.04 35.8207 127.44C34.5607 129.42 34.1507 131.49 34.6407 133.43C35.1807 135.61 36.8507 137.59 39.3407 139.01C40.9407 139.92 43.4807 141.04 46.2307 141.7C46.2307 139.72 47.2507 137.81 48.8307 136.85C49.1207 136.67 49.4207 136.58 49.7307 136.58C50.5707 136.58 51.2107 137.26 51.6607 137.94C51.8607 136.43 52.5007 134.26 54.4207 133.47C54.7307 133.34 55.0307 133.28 55.3307 133.28C56.6007 133.28 57.5107 134.41 58.1107 135.55C58.1807 134.15 58.5507 132.59 59.7107 131.99C59.8207 131.94 59.9307 131.9 60.0407 131.88C60.3807 129.2 60.2007 126.62 60.0107 124.1C59.7507 120.53 59.5007 117.16 60.8107 113.91C60.8407 113.84 60.8707 113.76 60.9007 113.69C60.9907 113.49 61.2207 113.39 61.4207 113.48C61.6207 113.57 61.7207 113.8 61.6307 114C60.8607 115.83 60.6207 117.73 60.6007 119.7C60.8607 119.71 61.1307 119.72 61.4207 119.72C61.8607 119.75 62.3307 119.76 62.8107 119.76C64.5307 119.76 66.3907 119.61 66.4107 119.6C66.4207 119.6 66.4307 119.6 66.4407 119.6C66.5107 119.6 66.5707 119.62 66.6207 119.65C66.8107 119.65 67.0007 119.64 67.1807 119.63C74.8907 119.19 79.4607 114.43 81.1907 111.24C81.2907 111.05 81.3907 110.86 81.4707 110.68C81.5607 110.48 81.8007 110.39 82.0007 110.49C82.2007 110.58 82.2907 110.82 82.1907 111.02C80.6107 114.39 75.6207 120.09 66.8607 120.44C66.9207 121.75 66.9207 125.47 65.3407 128.17C64.7807 129.13 63.0407 132.46 64.2407 135.25C64.9507 136.9 66.5907 138.04 69.1107 138.63C69.7507 138.78 70.4407 138.89 71.1707 138.96C71.1707 136.97 72.2207 135.23 74.0607 134.26C74.4407 134.06 74.8207 133.96 75.1907 133.96C76.1307 133.96 76.8507 134.55 77.3307 135.15C77.6307 133.67 78.4607 131.61 80.7107 130.76C81.1207 130.61 81.5307 130.53 81.9407 130.53C83.3407 130.53 84.3407 131.47 85.0007 132.47C85.1307 131.13 85.6107 129.66 86.9907 129.03C87.0807 128.99 87.1707 128.96 87.2607 128.94C87.1807 128.7 87.1107 128.46 87.0307 128.23C85.6607 124.02 84.3607 120.04 85.7607 114.37L85.7907 114.36Z" fill="#97A9AF"/>
<path d="M30.47 85.8298C31.01 85.4698 31.58 85.0998 32.17 84.7098C36.17 82.1198 41.12 78.9298 44.36 72.3598C44.08 72.3298 43.8 72.2898 43.52 72.2598C40.36 78.4698 35.6 81.5498 31.74 84.0398C31.04 84.4898 30.36 84.9398 29.71 85.3798C29.8 85.3798 29.89 85.3998 29.97 85.4198C30.12 85.4698 30.31 85.5798 30.47 85.8198V85.8298Z" fill="#231F20"/>
<path d="M54.9608 91.08C56.0308 86.59 56.3508 83.35 56.5708 80.99C56.7608 78.98 56.8908 77.65 57.3908 77C57.5208 76.82 57.4908 76.57 57.3208 76.44C57.1508 76.31 56.9008 76.34 56.7608 76.51C56.7408 76.54 56.7208 76.57 56.7008 76.59C56.1208 77.42 55.9908 78.75 55.7808 80.9C55.5608 83.24 55.2508 86.44 54.1908 90.88C52.7908 96.71 49.1308 100.59 47.0508 102.39C46.9808 102.89 46.8308 103.37 46.5908 103.8C48.3208 102.5 53.2408 98.27 54.9608 91.06V91.08Z" fill="#231F20"/>
<path d="M29.8404 86.3295C29.8004 86.2495 29.7604 86.1995 29.7304 86.1895C28.9604 86.1895 27.3904 87.5095 26.4004 89.0095C27.2804 88.5695 28.3704 88.3394 29.6404 88.3394C29.7004 88.3394 29.7704 88.3394 29.8304 88.3394C29.8304 88.3294 29.8304 88.3095 29.8504 88.2995C30.0104 87.5295 30.0304 86.7095 29.8504 86.3295H29.8404Z" fill="#728084"/>
<path d="M26.3902 89.0094C27.3802 87.5094 28.9502 86.1894 29.7202 86.1894C29.7202 86.1894 29.8002 86.2494 29.8302 86.3294C30.0102 86.7094 30.0002 87.5294 29.8302 88.2994C30.0402 87.7794 30.3602 87.3094 30.7402 86.8894C30.7202 86.5394 30.6602 86.2294 30.5502 85.9894C30.5202 85.9294 30.4902 85.8794 30.4602 85.8394C30.3002 85.5994 30.1102 85.4794 29.9602 85.4394C29.8802 85.4094 29.7902 85.3994 29.7002 85.3994C29.6802 85.3994 29.6702 85.3994 29.6502 85.3994C28.2802 85.3994 25.6402 87.9294 24.9102 90.2094C25.2902 89.7194 25.7802 89.3194 26.3902 89.0194V89.0094Z" fill="#231F20"/>
<path d="M35.0107 86.2502C34.9207 85.8102 34.7007 85.7202 34.6307 85.6902C34.6107 85.6902 34.5607 85.6602 34.4507 85.6602C33.5607 85.6602 31.4707 86.7702 30.6807 88.3902C31.8107 88.4902 33.0207 88.7502 34.2407 89.1502C34.3807 88.9102 34.5407 88.6902 34.7007 88.4802C34.9707 87.7102 35.1307 86.8502 35.0107 86.2602V86.2502Z" fill="#728084"/>
<path d="M34.4505 85.6594C34.5605 85.6594 34.6105 85.6794 34.6305 85.6894C34.7005 85.7194 34.9105 85.8094 35.0105 86.2494C35.1405 86.8494 34.9705 87.6994 34.7005 88.4694C35.0405 88.0194 35.4205 87.6394 35.8005 87.3194C35.8605 86.8794 35.8605 86.4494 35.7805 86.0794C35.6305 85.3794 35.2405 85.0794 34.9405 84.9494C34.8005 84.8894 34.6305 84.8594 34.4405 84.8594C33.5005 84.8594 31.8605 85.6494 30.7405 86.8894C30.3605 87.3094 30.0405 87.7894 29.8305 88.2994C29.8305 88.3094 29.8205 88.3294 29.8105 88.3394C30.0905 88.3394 30.3705 88.3594 30.6605 88.3794C31.4505 86.7594 33.5405 85.6494 34.4305 85.6494L34.4505 85.6594Z" fill="#231F20"/>
<path d="M39.5107 88.1898C39.4307 87.6798 39.1907 87.3098 38.8207 87.1098C38.1507 86.7398 36.2807 87.4098 35.0107 89.4098C36.2707 89.8798 37.5407 90.4898 38.7807 91.2298C39.3007 90.3198 39.6607 89.1398 39.5107 88.1898Z" fill="#728084"/>
<path d="M40.3002 88.0597C40.1802 87.2997 39.8002 86.7297 39.2002 86.4097C38.9602 86.2797 38.6902 86.2197 38.3702 86.2197C37.6302 86.2197 36.6802 86.5997 35.8002 87.3297C35.4102 87.6497 35.0402 88.0297 34.7002 88.4797C34.5402 88.6897 34.3802 88.9097 34.2402 89.1497C34.5002 89.2297 34.7502 89.3197 35.0102 89.4197C36.2802 87.4197 38.1502 86.7497 38.8202 87.1197C39.1902 87.3197 39.4302 87.6797 39.5102 88.1997C39.6602 89.1497 39.3002 90.3297 38.7802 91.2397C38.9102 91.3197 39.0402 91.3997 39.1802 91.4797C39.2802 91.5397 39.3702 91.5997 39.4702 91.6597C40.0802 90.5997 40.4902 89.2197 40.3102 88.0697L40.3002 88.0597Z" fill="#231F20"/>
<path d="M32.4401 102.339C35.5201 104.249 38.8501 105.349 41.5701 105.349C43.6001 105.349 45.1101 104.719 45.8201 103.579C47.5601 100.769 44.3901 95.6494 38.7601 92.1594C35.6801 90.2494 32.3601 89.1494 29.6401 89.1494C27.6101 89.1494 26.1001 89.7794 25.3901 90.9294C23.6501 93.7394 26.8101 98.8594 32.4401 102.349V102.339Z" fill="#505151"/>
<path d="M36.9003 105.32C38.5403 105.86 40.1303 106.15 41.5703 106.15C43.8803 106.15 45.6303 105.39 46.5003 104C46.5303 103.94 46.5603 103.89 46.6003 103.83C46.8403 103.39 46.9903 102.92 47.0603 102.42C47.4803 99.2296 44.5003 94.8696 39.4803 91.6596C39.3803 91.5996 39.2903 91.5396 39.1903 91.4796C39.0603 91.3996 38.9303 91.3196 38.7903 91.2396C37.5503 90.4996 36.2803 89.8896 35.0203 89.4196C34.7603 89.3196 34.5103 89.2296 34.2503 89.1496C33.0203 88.7496 31.8203 88.4896 30.6903 88.3896C30.4003 88.3596 30.1203 88.3496 29.8403 88.3496C29.7803 88.3496 29.7103 88.3496 29.6503 88.3496C28.3803 88.3496 27.2803 88.5796 26.4103 89.0196C25.8103 89.3196 25.3103 89.7196 24.9303 90.2096C24.8603 90.3096 24.7903 90.3996 24.7203 90.5096C22.7203 93.7496 25.9303 99.2496 32.0303 103.03C33.3703 103.86 34.7603 104.54 36.1303 105.05C36.3903 105.15 36.6503 105.24 36.9103 105.33L36.9003 105.32ZM25.3803 90.9096C26.0903 89.7696 27.6003 89.1296 29.6303 89.1296C32.3503 89.1296 35.6703 90.2296 38.7503 92.1396C44.3803 95.6296 47.5503 100.75 45.8103 103.56C45.1003 104.7 43.5903 105.33 41.5603 105.33C38.8403 105.33 35.5203 104.23 32.4303 102.32C26.8003 98.8296 23.6403 93.6996 25.3803 90.8996V90.9096Z" fill="#231F20"/>
<path d="M83.0903 58.6793C82.5703 58.8393 82.0503 58.9893 81.5303 59.1193C81.2503 59.3993 80.9603 59.6893 80.6603 59.9693C80.6103 60.0193 80.5803 60.0693 80.5603 60.1393C78.1003 67.9893 69.0003 69.8393 64.5103 67.4993C64.3903 67.4393 64.2503 67.4393 64.1303 67.4993C59.0903 70.2793 53.4503 71.7493 47.8103 71.7493C39.1903 71.7493 31.8103 68.2993 28.5603 62.7493C25.6203 57.7193 27.3603 52.9993 28.8903 48.8293C29.8203 46.2993 30.6203 44.1193 30.2803 42.1993C28.4303 31.7793 28.0303 20.0793 39.0903 12.4093C39.1303 12.3793 39.1603 12.3493 39.1903 12.3193C39.6903 11.6193 39.7903 10.8793 39.4603 10.2293C39.0403 9.4193 38.0003 8.8793 36.8703 8.8793C36.6403 8.8793 36.4203 8.8993 36.2103 8.9493C36.7503 8.5993 37.5103 8.3593 38.3903 8.3593C39.2703 8.3593 40.8303 8.5993 42.1403 10.2193C42.2703 10.3693 42.4903 10.4093 42.6603 10.3093C42.7303 10.2693 42.8003 10.2293 42.8703 10.1993C43.0003 10.1393 43.0903 10.0193 43.1003 9.8693C43.4803 5.6693 46.1103 4.2293 47.9503 4.9693C47.1103 5.1393 46.3503 5.7493 46.0203 6.5393C45.7403 7.2293 45.8603 7.9093 46.3603 8.3993C46.4703 8.5093 46.6303 8.5393 46.7703 8.4893C49.3703 7.5593 51.9203 7.0893 54.3603 7.0893C62.2003 7.0893 67.9603 11.9593 72.5903 15.8693C75.3403 18.1893 77.7103 20.1993 80.0903 20.9693C85.2803 22.6393 91.9003 27.0193 93.4903 33.8693C93.6203 34.4193 93.7103 34.9693 93.7703 35.5293C94.0203 35.2693 94.2503 34.9993 94.4703 34.7193C94.4103 34.3793 94.3503 34.0293 94.2703 33.6893C92.6003 26.5193 85.7203 21.9493 80.3303 20.2093C78.1003 19.4893 75.7803 17.5293 73.1003 15.2593C71.6503 14.0293 70.0903 12.7193 68.3903 11.4793C68.1603 11.3093 67.9303 11.1493 67.6903 10.9793C64.5603 8.7893 60.9603 6.9393 56.7003 6.4293C56.3803 6.3893 56.0603 6.3593 55.7403 6.3393C55.2803 6.3093 54.8203 6.2893 54.3503 6.2893C51.9103 6.2893 49.3603 6.7393 46.7603 7.6393C46.5903 7.3593 46.6503 7.0493 46.7403 6.8293C46.9603 6.2893 47.6203 5.7093 48.4003 5.7093C48.6603 5.7093 48.9103 5.7793 49.1403 5.9093C49.2003 5.9493 49.2703 5.9593 49.3403 5.9593C49.5603 5.9593 49.7503 5.7793 49.7503 5.5593C49.7503 5.4293 49.6903 5.3193 49.5903 5.2393C47.7003 2.8893 43.1103 3.7093 42.3403 9.2593C41.2603 8.1493 39.8703 7.5493 38.3603 7.5493C36.3603 7.5493 34.6403 8.6593 34.5403 10.0093C34.5303 10.1793 34.6203 10.3393 34.7803 10.3993C34.9303 10.4693 35.1103 10.4293 35.2303 10.3093C35.6203 9.8893 36.2003 9.6693 36.8403 9.6693C37.6703 9.6693 38.4403 10.0493 38.7203 10.5893C38.9103 10.9493 38.8503 11.3593 38.5503 11.7993C33.4803 15.3393 30.7503 19.6893 29.4503 24.3593C29.3603 24.6693 29.2803 24.9793 29.2103 25.2993C28.4803 28.3693 28.3403 31.5693 28.5303 34.7693C28.5503 35.1093 28.5703 35.4493 28.6003 35.7893C28.7803 37.9993 29.0903 40.2093 29.4703 42.3593C29.7703 44.0693 29.0103 46.1593 28.1203 48.5793C26.6103 52.6993 24.7203 57.8193 27.8503 63.1793C29.7103 66.3493 32.8403 68.8593 36.7403 70.4793C36.9903 70.5793 37.2403 70.6793 37.4903 70.7793C39.3503 71.4793 41.3703 71.9893 43.5003 72.2793C43.7803 72.3193 44.0603 72.3493 44.3403 72.3793C45.2103 72.4693 46.0903 72.5293 46.9903 72.5593C47.2503 72.5593 47.5203 72.5693 47.7803 72.5693C53.4903 72.5693 59.1903 71.0993 64.3003 68.3193C65.5803 68.9393 67.1503 69.2693 68.8503 69.2693C70.5503 69.2693 72.5103 68.8993 74.2903 68.1193C74.5303 68.0193 74.7703 67.8993 75.0003 67.7793C76.4003 67.0693 77.7103 66.0993 78.8103 64.8493C79.1803 64.4293 79.5303 63.9693 79.8503 63.4793C80.4303 62.5893 80.9103 61.5893 81.2703 60.4793C81.8903 59.8793 82.4903 59.2793 83.0703 58.6893L83.0903 58.6793Z" fill="#231F20"/>
<path d="M77.8508 61.1495C78.0008 60.7395 78.1108 60.2695 78.1508 59.7295C77.7008 59.7795 77.2508 59.8095 76.8008 59.8395C77.1708 60.1795 77.5208 60.6095 77.8608 61.1495H77.8508Z" fill="#A5206C"/>
<path d="M68.3604 61.2298C68.9804 60.5398 69.7903 59.8798 70.7104 59.3898C69.4904 59.1298 68.2904 58.7598 67.1104 58.2998C67.2904 58.9998 67.6704 60.1698 68.3604 61.2398V61.2298Z" fill="#A5206C"/>
<path d="M66.4004 58.7102C66.6704 59.6702 67.2104 61.1802 68.2404 62.4102L68.3104 62.3502C68.2304 62.2602 68.1504 62.1602 68.0804 62.0702C67.9604 61.9202 67.9604 61.7202 68.0804 61.5702C68.1704 61.4602 68.2704 61.3402 68.3704 61.2302C67.6804 60.1602 67.3004 59.0002 67.1204 58.2902C67.0104 58.2502 66.9104 58.2002 66.8004 58.1602C66.6804 58.3402 66.5404 58.5302 66.4004 58.7102Z" fill="#231F20"/>
<path d="M69.2102 63.3896C69.2102 63.3896 69.3002 63.4596 69.3102 63.4696C69.3102 63.4696 69.3702 63.5096 69.3702 63.5196L69.4102 63.5496C69.4102 63.5496 69.4902 63.6096 69.5002 63.6196L69.5502 63.5496C69.4402 63.4696 69.3402 63.3996 69.2402 63.3096L69.2002 63.3996L69.2102 63.3896Z" fill="#231F20"/>
<path d="M68.3706 62.4094L68.3105 62.4894L68.3706 62.5494L68.4205 62.6094L68.5005 62.6894C68.5005 62.6894 68.5706 62.7794 68.5806 62.7994C68.6406 62.8694 68.7205 62.9394 68.7705 62.9894C68.7905 63.0094 68.8305 63.0494 68.8505 63.0694C68.8705 63.0894 68.8906 63.1094 68.9106 63.1294H68.9205C68.9205 63.1294 69.0105 63.2194 69.1005 63.2894L69.1606 63.2194C68.8606 62.9594 68.6005 62.6894 68.3505 62.3994L68.3706 62.4094Z" fill="#231F20"/>
<path d="M73.2601 64.7001C72.4601 64.7001 71.6801 64.5601 71.0001 64.3101C70.4401 64.1001 69.9901 63.8501 69.6101 63.5801L69.5801 63.6601C69.5801 63.6601 69.6601 63.7201 69.7001 63.7501L69.9001 63.8701C69.9001 63.8701 70.0001 63.9401 70.0101 63.9401L70.4701 64.1801C70.6601 64.2701 70.8301 64.3401 70.9801 64.3901C71.1801 64.4701 71.3501 64.5201 71.4701 64.5501C71.5401 64.5701 71.6101 64.6001 71.6401 64.5901C71.7501 64.6301 71.8601 64.6501 72.0301 64.6801C72.0501 64.6801 72.1301 64.7001 72.1501 64.7001L72.2401 64.7101C72.3401 64.7301 72.4401 64.7401 72.6001 64.7601L72.7001 64.7701C72.7501 64.7701 72.8001 64.7701 72.8301 64.7701C72.9801 64.7701 73.1201 64.7801 73.2701 64.7801C73.2701 64.7801 73.2801 64.7801 73.2901 64.7801H73.3601C73.4501 64.7801 73.5401 64.7801 73.6401 64.7601V64.6701C73.5101 64.6701 73.3901 64.6801 73.2701 64.6801L73.2601 64.7001Z" fill="#231F20"/>
<path d="M78.1804 61.7201C78.2404 61.8401 78.2404 61.9801 78.1804 62.1001C77.3304 63.6201 75.6604 64.5701 73.6904 64.6901L73.7204 64.7801C73.7904 64.7801 73.8604 64.7801 73.9704 64.7601C74.0804 64.7501 74.2004 64.7401 74.2704 64.7201C74.3304 64.7201 74.3704 64.7101 74.4604 64.6901C75.1204 64.5801 75.7504 64.3601 76.3304 64.0501C76.3404 64.0501 76.3504 64.0401 76.3604 64.0301C77.5004 63.4001 78.8404 62.1201 78.9604 59.6201C78.6904 59.6601 78.4204 59.7001 78.1504 59.7301C78.1104 60.2701 78.0004 60.7401 77.8504 61.1501C77.9604 61.3301 78.0704 61.5201 78.1804 61.7201Z" fill="#231F20"/>
<path d="M68.9102 61.8201C69.5302 62.5601 70.1302 63.1301 71.2902 63.5601C71.8802 63.7801 72.5602 63.9001 73.2602 63.9001C75.0502 63.9001 76.5602 63.1501 77.3702 61.8901C76.8502 60.9601 76.2301 60.2901 75.5201 59.8701C75.5001 59.8701 75.4902 59.8701 75.4702 59.8701C74.3502 59.8701 73.2402 59.7901 72.1402 59.6201C70.8702 60.0401 69.7002 60.9001 68.9202 61.8001L68.9102 61.8201Z" fill="#F982C0"/>
<path d="M68.3605 61.2294C68.2605 61.3394 68.1605 61.4594 68.0705 61.5694C67.9505 61.7194 67.9505 61.9194 68.0705 62.0694C68.1505 62.1694 68.2305 62.2594 68.3005 62.3494C68.3205 62.3694 68.3405 62.3894 68.3505 62.4094C68.6005 62.6994 68.8605 62.9794 69.1605 63.2294C69.1905 63.2494 69.2105 63.2694 69.2305 63.2994C69.3305 63.3794 69.4305 63.4594 69.5405 63.5394C69.5605 63.5494 69.5705 63.5694 69.5905 63.5794C69.9705 63.8494 70.4205 64.0994 70.9805 64.3094C71.6605 64.5694 72.4405 64.6994 73.2405 64.6994C73.3605 64.6994 73.4805 64.6994 73.6005 64.6894C73.6205 64.6894 73.6405 64.6894 73.6605 64.6894C75.6405 64.5694 77.3005 63.6194 78.1505 62.0994C78.2205 61.9794 78.2205 61.8394 78.1505 61.7194C78.0405 61.5094 77.9305 61.3294 77.8205 61.1494C77.4905 60.6194 77.1305 60.1794 76.7605 59.8394C76.3305 59.8594 75.9005 59.8794 75.4805 59.8794C76.2005 60.2894 76.8205 60.9594 77.3305 61.8994C76.5205 63.1594 75.0105 63.9094 73.2205 63.9094C72.5205 63.9094 71.8405 63.7894 71.2505 63.5694C70.0905 63.1294 69.4905 62.5594 68.8705 61.8294C69.6605 60.9294 70.8205 60.0694 72.0905 59.6494C71.6205 59.5794 71.1405 59.4994 70.6805 59.3994C69.7605 59.8894 68.9405 60.5494 68.3305 61.2394L68.3605 61.2294Z" fill="#231F20"/>
<path d="M45.7809 47.1497C46.7309 48.5697 48.3409 49.3797 50.1909 49.3797C51.4509 49.3797 52.6909 48.9997 53.7809 48.2697C56.5509 46.4197 57.4609 42.9097 55.8109 40.4497C54.8609 39.0297 53.2609 38.2197 51.4109 38.2197C50.1509 38.2197 48.9009 38.6097 47.8109 39.3297C45.0509 41.1797 44.1409 44.6897 45.7809 47.1497ZM53.4009 40.9797C54.6309 42.8197 54.0109 45.3897 52.0209 46.7197C50.0209 48.0497 47.4109 47.6297 46.1709 45.7897C44.9509 43.9497 45.5609 41.3697 47.5609 40.0397C49.5609 38.7097 52.1709 39.1297 53.4009 40.9697V40.9797Z" fill="white"/>
<path d="M50.1907 50.1899C51.6107 50.1899 53.0007 49.7599 54.2307 48.9399C57.3607 46.8499 58.3707 42.8399 56.4807 40.0099C55.4007 38.3899 53.5007 37.4199 51.4207 37.4199C50.0007 37.4199 48.6007 37.8499 47.3707 38.6699C44.2407 40.7599 43.2307 44.7699 45.1207 47.5999C46.2107 49.2199 48.1007 50.1899 50.1907 50.1899ZM55.8207 40.4499C57.4707 42.9099 56.5507 46.4199 53.7907 48.2699C52.7007 48.9999 51.4607 49.3799 50.2007 49.3799C48.3507 49.3799 46.7407 48.5699 45.7907 47.1499C44.1507 44.6799 45.0607 41.1699 47.8207 39.3299C48.9207 38.5999 50.1607 38.2199 51.4207 38.2199C53.2707 38.2199 54.8707 39.0299 55.8207 40.4499Z" fill="#231F20"/>
<path d="M46.1709 45.7896C47.4009 47.6296 50.0209 48.0496 52.0209 46.7196C54.0109 45.3896 54.6309 42.8196 53.4009 40.9796C52.1709 39.1296 49.5609 38.7196 47.5609 40.0496C45.5709 41.3796 44.9509 43.9496 46.1709 45.7996V45.7896ZM47.6709 46.2796C47.3909 46.4796 47.0109 46.4096 46.8309 46.1496C46.6609 45.8796 46.7409 45.5096 47.0309 45.3196C47.3209 45.1296 47.7009 45.1896 47.8709 45.4496C48.0509 45.7096 47.9609 46.0796 47.6809 46.2796H47.6709ZM47.9009 40.1296C48.4409 39.7696 49.1609 39.8796 49.5109 40.3896C49.8409 40.8896 49.6709 41.6096 49.1209 41.9696C48.5709 42.3396 47.8509 42.2196 47.5109 41.7096C47.1709 41.2096 47.3409 40.4896 47.8909 40.1196L47.9009 40.1296Z" fill="#231F20"/>
<path d="M47.5206 41.7196C47.8506 42.2296 48.5806 42.3496 49.1306 41.9796C49.6806 41.6196 49.8506 40.8996 49.5206 40.3996C49.1806 39.8896 48.4606 39.7796 47.9106 40.1396C47.3606 40.5096 47.1906 41.2196 47.5306 41.7296L47.5206 41.7196Z" fill="white"/>
<path d="M47.0204 45.3197C46.7404 45.5097 46.6504 45.8797 46.8204 46.1497C47.0004 46.4197 47.3804 46.4797 47.6604 46.2797C47.9504 46.0897 48.0404 45.7197 47.8504 45.4497C47.6804 45.1897 47.3004 45.1197 47.0104 45.3197H47.0204Z" fill="white"/>
<path d="M71.6304 31.4299C72.4004 33.2599 74.3104 34.4399 76.5004 34.4399C77.3404 34.4399 78.1704 34.2699 78.9704 33.9299C81.9104 32.6999 83.4104 29.5599 82.3104 26.9299C81.5404 25.0999 79.6304 23.9199 77.4404 23.9199C76.6004 23.9199 75.7704 24.0899 74.9704 24.4299C72.0304 25.6699 70.5304 28.7999 71.6304 31.4199V31.4299ZM79.6904 27.3099C80.5104 29.2599 79.4704 31.5699 77.3404 32.4599C75.2304 33.3499 72.8504 32.4799 72.0304 30.5199C71.2104 28.5699 72.2504 26.2599 74.3704 25.3699C76.4804 24.4799 78.8704 25.3399 79.6904 27.2999V27.3099Z" fill="white"/>
<path d="M76.5003 35.2399C77.4503 35.2399 78.3803 35.0499 79.2803 34.6699C82.6203 33.2699 84.3103 29.6599 83.0503 26.6299C82.1503 24.5099 79.9503 23.1299 77.4403 23.1299C76.4903 23.1299 75.5603 23.3199 74.6603 23.6999C71.3103 25.1099 69.6203 28.7099 70.8903 31.7399C71.7903 33.8699 73.9903 35.2399 76.5003 35.2399ZM82.3003 26.9399C83.4003 29.5599 81.9003 32.6999 78.9603 33.9399C78.1603 34.2799 77.3303 34.4499 76.4903 34.4499C74.3003 34.4499 72.3903 33.2699 71.6203 31.4399C70.5203 28.8199 72.0203 25.6899 74.9603 24.4499C75.7603 24.1099 76.5903 23.9399 77.4303 23.9399C79.6203 23.9399 81.5303 25.1199 82.3003 26.9499V26.9399Z" fill="#231F20"/>
<path d="M72.0301 30.5193C72.8601 32.4793 75.2301 33.3493 77.3401 32.4593C79.4601 31.5693 80.5101 29.2593 79.6901 27.3093C78.8701 25.3493 76.4801 24.4893 74.3701 25.3793C72.2501 26.2693 71.2101 28.5693 72.0301 30.5293V30.5193ZM74.0701 31.3593C73.7701 31.4893 73.4201 31.3593 73.3001 31.0793C73.1701 30.7993 73.3201 30.4593 73.6301 30.3293C73.9401 30.1993 74.2801 30.3293 74.4001 30.6093C74.5201 30.8893 74.3701 31.2293 74.0601 31.3593H74.0701ZM76.0701 25.9593C76.3001 26.5093 76.0201 27.1393 75.4301 27.3893C74.8501 27.6293 74.1801 27.3893 73.9501 26.8493C73.7201 26.3093 74.0201 25.6693 74.6001 25.4193C75.1801 25.1793 75.8501 25.4193 76.0701 25.9593Z" fill="#231F20"/>
<path d="M73.9507 26.8502C74.1807 27.4002 74.8407 27.6302 75.4307 27.3902C76.0207 27.1402 76.3007 26.5102 76.0707 25.9602C75.8607 25.4202 75.1907 25.1802 74.6007 25.4202C74.0207 25.6702 73.7207 26.3102 73.9507 26.8502Z" fill="white"/>
<path d="M73.6308 30.3393C73.3208 30.4693 73.1708 30.7993 73.3008 31.0893C73.4108 31.3693 73.7608 31.4993 74.0708 31.3693C74.3808 31.2393 74.5308 30.9093 74.4108 30.6193C74.2908 30.3293 73.9508 30.2093 73.6408 30.3393H73.6308Z" fill="white"/>
<path d="M99.2307 21.3995C99.0407 21.3595 98.8507 21.3195 98.6507 21.2995C97.8207 21.1995 97.0707 21.3095 96.4607 21.6195C96.2207 21.7395 96.0007 21.8995 95.8107 22.0795C95.6807 22.2095 95.5507 22.3395 95.4407 22.4995C94.7607 23.4895 94.3807 25.4895 96.4207 29.3395C96.2607 31.3995 95.5907 33.2295 94.4607 34.7095C94.2407 34.9895 94.0107 35.2595 93.7607 35.5195C93.2107 36.0895 92.5807 36.5995 91.8807 37.0295C88.3207 39.2095 83.2407 39.2495 78.3107 37.1395C68.9007 33.1095 65.3407 34.2995 61.3407 38.2995C61.1807 38.4595 61.1807 38.7095 61.3407 38.8595C61.4407 38.9595 61.5907 38.9895 61.7207 38.9595C61.7907 38.9395 61.8507 38.9095 61.9007 38.8595C63.6207 37.1395 65.2807 35.7895 67.9307 35.5195C68.5607 35.1895 69.1007 34.9895 69.4407 34.9295C69.6607 34.8895 69.8707 35.0295 69.9107 35.2495C69.9307 35.3495 69.9107 35.4395 69.8607 35.5195C71.9407 35.6895 74.5507 36.3995 77.9907 37.8795C80.9607 39.1495 83.9807 39.6695 86.7307 39.4495C86.7307 39.1895 86.7607 39.0195 86.7607 38.9895C86.7907 38.7695 86.9907 38.6095 87.2007 38.6395C87.4207 38.6695 87.5807 38.8595 87.5507 39.0795C87.5507 39.0795 87.5407 39.1895 87.5307 39.3595C89.2707 39.1195 90.8807 38.5795 92.2807 37.7195C95.0307 36.0395 96.7407 33.2895 97.1407 29.9495C96.7907 29.7495 96.5907 29.5995 96.5607 29.5795C96.3807 29.4495 96.3507 29.1995 96.4807 29.0195C96.6107 28.8395 96.8607 28.8095 97.0407 28.9395C97.0407 28.9395 97.0707 28.9595 97.1107 28.9895C95.6507 26.2495 95.2907 24.0995 96.0707 22.9495C96.5407 22.2695 97.4307 21.9495 98.5207 22.0895C99.2807 22.1895 99.9207 22.4395 100.541 22.6895C101.581 23.1095 102.661 23.5395 104.161 23.1795C106.001 22.7295 107.681 23.3295 108.431 24.6995C109.101 25.9295 109.041 27.9895 106.851 30.0995C107.011 29.9495 107.261 29.9595 107.411 30.1195C107.561 30.2795 107.561 30.5295 107.401 30.6795C107.371 30.6995 107.091 30.9595 106.651 31.1895C105.641 39.6095 98.6007 49.4295 89.6007 54.8395C82.0507 59.3795 74.1107 60.3095 67.1807 57.4795C67.0607 57.7095 66.9207 57.9395 66.7707 58.1695C66.8807 58.2095 66.9807 58.2595 67.0907 58.2995C68.2707 58.7695 69.4707 59.1295 70.6907 59.3895C71.1607 59.4895 71.6307 59.5695 72.1007 59.6395C73.2007 59.7995 74.3107 59.8895 75.4307 59.8895C75.4507 59.8895 75.4607 59.8895 75.4807 59.8895C75.9107 59.8895 76.3307 59.8695 76.7607 59.8495C77.2107 59.8195 77.6607 59.7895 78.1107 59.7395C78.3807 59.7095 78.6507 59.6695 78.9207 59.6295C79.7807 59.5095 80.6407 59.3295 81.5007 59.1195C82.0207 58.9895 82.5407 58.8495 83.0607 58.6795C85.3907 57.9495 87.7207 56.8995 90.0107 55.5195C99.4507 49.8395 106.791 39.3695 107.511 30.5595C109.921 28.1695 109.931 25.7695 109.131 24.2995C108.201 22.6095 106.181 21.8495 103.981 22.3895C102.721 22.6895 101.851 22.3395 100.841 21.9395C100.651 21.8595 100.451 21.7895 100.251 21.7095C99.9207 21.5895 99.5807 21.4695 99.2007 21.3895L99.2307 21.3995Z" fill="#231F20"/>
<path d="M62.4706 41.8599C62.2106 42.7999 62.1006 43.8199 62.2006 44.9399C62.2206 45.1499 62.3906 45.2999 62.6006 45.2999C62.6106 45.2999 62.6206 45.2999 62.6406 45.2999C62.8606 45.2799 63.0206 45.0799 63.0006 44.8599C62.9806 44.6999 62.9806 44.5399 62.9706 44.3899C62.7906 39.3999 67.2806 36.4999 69.1506 35.8399C69.3206 35.7799 69.4806 35.7299 69.6006 35.7099C69.7206 35.6899 69.8106 35.6099 69.8706 35.5099C69.9106 35.4299 69.9406 35.3399 69.9206 35.2399C69.8806 35.0199 69.6706 34.8799 69.4506 34.9199C69.1106 34.9799 68.5706 35.1799 67.9406 35.5099C66.0706 36.4899 63.3706 38.6199 62.4706 41.8499V41.8599Z" fill="#231F20"/>
<path d="M89.3006 45.5896C89.3706 45.6496 89.4606 45.6796 89.5506 45.6796C89.6706 45.6796 89.7806 45.6296 89.8606 45.5296C90.0006 45.3596 89.9706 45.1096 89.8006 44.9696C89.5906 44.7996 89.4006 44.6296 89.2306 44.4396C87.9006 43.0196 87.6106 41.1396 87.5606 40.0196C87.5506 39.7396 87.5606 39.5096 87.5606 39.3496C87.5606 39.1696 87.5806 39.0696 87.5806 39.0696C87.6106 38.8496 87.4506 38.6496 87.2306 38.6296C87.0206 38.5996 86.8106 38.7596 86.7906 38.9796C86.7906 39.0096 86.7706 39.1796 86.7606 39.4396C86.7206 40.5996 86.8806 43.6496 89.3106 45.5996L89.3006 45.5896Z" fill="#231F20"/>
<path d="M99.8008 30.8795C99.9908 30.8795 100.161 30.7395 100.191 30.5495C100.231 30.3295 100.081 30.1295 99.8608 30.0895C98.4908 29.8595 97.4108 29.1695 97.1308 28.9795C97.0908 28.9495 97.0608 28.9295 97.0608 28.9295C96.8808 28.7995 96.6308 28.8295 96.5008 29.0095C96.3708 29.1895 96.4008 29.4395 96.5808 29.5695C96.6008 29.5895 96.8108 29.7395 97.1608 29.9395C97.7208 30.2595 98.6308 30.6895 99.7308 30.8795C99.7508 30.8795 99.7708 30.8795 99.8008 30.8795Z" fill="#231F20"/>
<path d="M105.301 30.7494C105.561 30.7494 105.801 30.6894 106.011 30.6094L105.301 30.7494Z" fill="white"/>
<path d="M105.3 30.7497C105.02 30.7497 104.72 30.7197 104.4 30.5897C104.2 30.5097 103.96 30.5997 103.88 30.8097C103.8 31.0097 103.89 31.2497 104.1 31.3297C104.5 31.4897 104.88 31.5597 105.23 31.5597C105.81 31.5597 106.3 31.3897 106.67 31.1897C107.12 30.9597 107.4 30.6997 107.42 30.6797C107.58 30.5297 107.58 30.2797 107.43 30.1197C107.28 29.9597 107.03 29.9497 106.87 30.0997C106.84 30.1197 106.51 30.4297 106 30.6097C105.79 30.6897 105.55 30.7397 105.29 30.7497H105.3Z" fill="#231F20"/>
<path d="M103.131 26.5002H103.251C105.271 26.4602 106.021 25.6202 106.071 25.2302C106.071 25.1702 106.101 25.0102 105.821 24.9302C105.231 24.7702 104.471 24.8602 103.761 24.9802C103.321 25.0502 102.861 25.1302 102.411 25.1302C101.661 25.1302 100.801 24.7702 99.9608 24.4302C99.3408 24.1802 98.7008 23.9102 98.3408 23.9102C98.2108 23.9102 98.2008 23.9202 98.1908 24.0102C98.1608 24.1902 98.2608 24.4202 98.4708 24.6702C99.2208 25.5502 101.271 26.5002 103.131 26.5002Z" fill="white"/>
<path d="M97.8603 25.1894C98.8603 26.3694 101.17 27.2994 103.13 27.2994H103.27C105.58 27.2494 106.75 26.2394 106.86 25.3294C106.93 24.7794 106.6 24.3194 106.03 24.1594C105.3 23.9594 104.42 24.0594 103.63 24.1894C103.2 24.2594 102.8 24.3294 102.39 24.3294C101.82 24.3294 100.99 23.9894 100.26 23.6894C99.5003 23.3794 98.8503 23.1094 98.3403 23.1094C97.8303 23.1094 97.4903 23.3894 97.4003 23.8694C97.3503 24.1594 97.4003 24.6294 97.8603 25.1794V25.1894ZM98.3403 23.9094C98.7003 23.9094 99.3403 24.1694 99.9603 24.4294C100.79 24.7694 101.65 25.1194 102.41 25.1294C102.87 25.1294 103.32 25.0594 103.76 24.9794C104.47 24.8594 105.23 24.7694 105.82 24.9294C106.1 25.0094 106.08 25.1694 106.07 25.2294C106.02 25.6294 105.27 26.4594 103.25 26.4994H103.13C101.27 26.4994 99.2203 25.5594 98.4703 24.6694C98.2603 24.4194 98.1603 24.1794 98.1903 24.0094C98.2003 23.9194 98.2103 23.9094 98.3403 23.9094Z" fill="#231F20"/>
<path d="M104.41 30.5901C104.73 30.7201 105.03 30.7601 105.31 30.7501L106.02 30.6101C106.53 30.4201 106.87 30.1201 106.89 30.1001C109.08 27.9901 109.15 25.9301 108.47 24.7001C107.72 23.3301 106.04 22.7301 104.2 23.1801C102.7 23.5401 101.62 23.1101 100.58 22.6901C99.96 22.4401 99.31 22.1801 98.56 22.0901C97.47 21.9601 96.58 22.2701 96.11 22.9501C95.32 24.1001 95.69 26.2401 97.15 28.9901C97.43 29.1801 98.51 29.8701 99.88 30.1001C100.1 30.1401 100.24 30.3401 100.21 30.5601C100.18 30.7601 100.01 30.8901 99.82 30.8901C99.8 30.8901 99.78 30.8901 99.75 30.8901C98.65 30.7101 97.74 30.2701 97.18 29.9501C96.78 33.2901 95.07 36.0401 92.32 37.7201C90.92 38.5801 89.31 39.1201 87.57 39.3601C87.57 39.5301 87.57 39.7501 87.57 40.0301C87.62 41.1501 87.92 43.0301 89.24 44.4501C89.41 44.6301 89.6 44.8101 89.81 44.9801C89.98 45.1201 90.01 45.3701 89.87 45.5401C89.79 45.6401 89.68 45.6901 89.56 45.6901C89.47 45.6901 89.38 45.6601 89.31 45.6001C86.88 43.6601 86.72 40.6001 86.76 39.4401C84.01 39.6601 80.98 39.1401 78.02 37.8701C74.57 36.3901 71.96 35.6801 69.89 35.5101C69.83 35.6101 69.74 35.6901 69.62 35.7101C69.5 35.7301 69.34 35.7801 69.17 35.8401C67.29 36.5101 62.81 39.4101 62.99 44.3901C62.99 44.5501 63 44.7001 63.02 44.8601C63.04 45.0801 62.88 45.2701 62.66 45.3001C62.65 45.3001 62.63 45.3001 62.62 45.3001C62.42 45.3001 62.24 45.1401 62.22 44.9401C62.12 43.8201 62.22 42.8001 62.49 41.8601C63.39 38.6301 66.09 36.5001 67.96 35.5201C65.31 35.7901 63.65 37.1501 61.93 38.8601C61.88 38.9101 61.81 38.9401 61.75 38.9601C61.62 38.9901 61.47 38.9601 61.37 38.8601C61.21 38.7001 61.21 38.4501 61.37 38.3001C65.37 34.3001 68.93 33.1101 78.34 37.1401C83.27 39.2501 88.35 39.2201 91.91 37.0301C92.61 36.6001 93.24 36.0901 93.79 35.5201C93.73 34.9601 93.64 34.4101 93.51 33.8601C91.92 27.0101 85.3 22.6301 80.11 20.9601C77.73 20.1901 75.36 18.1901 72.61 15.8601C67.98 11.9501 62.22 7.08006 54.38 7.08006C51.95 7.08006 49.39 7.55006 46.79 8.48006C46.65 8.53006 46.49 8.50007 46.38 8.39007C45.88 7.90007 45.75 7.22006 46.04 6.53006C46.36 5.74006 47.13 5.13006 47.97 4.96006C46.14 4.22006 43.5 5.66006 43.12 9.86006C43.11 10.0001 43.02 10.1301 42.89 10.1901C42.82 10.2201 42.75 10.2601 42.68 10.3001C42.51 10.4001 42.29 10.3701 42.16 10.2101C40.85 8.59007 39.25 8.35007 38.41 8.35007C37.53 8.35007 36.76 8.59006 36.23 8.94006C36.44 8.90006 36.67 8.87006 36.89 8.87006C38.02 8.87006 39.06 9.41007 39.48 10.2201C39.81 10.8701 39.72 11.6101 39.21 12.3101C39.18 12.3501 39.15 12.3801 39.11 12.4001C28.06 20.0801 28.46 31.7701 30.3 42.1901C30.64 44.1101 29.84 46.3001 28.91 48.8201C27.38 52.9901 25.64 57.7101 28.58 62.7401C31.83 68.2901 39.21 71.7401 47.83 71.7401C53.47 71.7401 59.11 70.2701 64.15 67.4901C64.27 67.4201 64.41 67.4201 64.53 67.4901C69.02 69.8301 78.13 67.9801 80.58 60.1301C80.6 60.0701 80.64 60.0101 80.68 59.9601C80.97 59.6801 81.26 59.3901 81.55 59.1101C80.69 59.3201 79.83 59.5001 78.97 59.6201C78.84 62.1201 77.5 63.4001 76.37 64.0301C76.36 64.0301 76.35 64.0401 76.34 64.0501C75.76 64.3601 75.13 64.5701 74.47 64.6901C74.38 64.7101 74.34 64.7101 74.28 64.7201C74.2 64.7301 74.09 64.7501 73.98 64.7601C73.87 64.7701 73.8 64.7701 73.73 64.7801L73.7 64.6901C73.7 64.6901 73.66 64.6901 73.64 64.6901V64.7801C73.55 64.7801 73.46 64.7901 73.37 64.7901H73.3C73.3 64.7901 73.29 64.7901 73.28 64.7901C73.13 64.7901 72.98 64.7901 72.84 64.7801C72.81 64.7801 72.76 64.7801 72.71 64.7801L72.61 64.7701C72.45 64.7501 72.35 64.7401 72.25 64.7201C72.25 64.7201 72.17 64.7101 72.16 64.7101C72.14 64.7101 72.06 64.7001 72.04 64.6901C71.87 64.6601 71.76 64.6301 71.65 64.6001C71.62 64.6101 71.55 64.5801 71.48 64.5601C71.35 64.5301 71.19 64.4801 70.99 64.4001C70.85 64.3501 70.68 64.2801 70.48 64.1901L70.02 63.9501C70.02 63.9501 69.92 63.8801 69.91 63.8801L69.71 63.7601C69.71 63.7601 69.63 63.7001 69.59 63.6701L69.62 63.5901C69.62 63.5901 69.58 63.5601 69.57 63.5501L69.52 63.6201C69.52 63.6201 69.44 63.5601 69.43 63.5501L69.39 63.5201C69.39 63.5201 69.33 63.4801 69.33 63.4701C69.32 63.4701 69.24 63.4001 69.23 63.3901L69.27 63.3001C69.27 63.3001 69.22 63.2601 69.2 63.2301L69.14 63.3001C69.06 63.2301 69.01 63.1801 68.96 63.1401H68.95C68.95 63.1401 68.91 63.1001 68.89 63.0801C68.87 63.0601 68.83 63.0201 68.81 63.0001C68.75 62.9501 68.68 62.8701 68.62 62.8101C68.6 62.7901 68.55 62.7201 68.54 62.7001L68.46 62.6201L68.41 62.5601L68.35 62.5001L68.41 62.4201C68.41 62.4201 68.37 62.3801 68.36 62.3601L68.29 62.4201C67.26 61.1901 66.72 59.6901 66.45 58.7201C65.57 59.8301 64.28 60.8601 62.38 61.4201C62.34 61.4301 62.3 61.4401 62.27 61.4401C62.1 61.4401 61.94 61.3301 61.89 61.1501C61.83 60.9401 61.95 60.7201 62.16 60.6501C62.38 60.5901 62.58 60.5101 62.78 60.4301C65.93 59.2101 67 56.5001 67.35 55.0201C67.41 54.7501 67.46 54.5101 67.48 54.3401C67.51 54.1201 67.72 53.9701 67.93 54.0001C68.15 54.0301 68.3 54.2301 68.27 54.4501C68.19 55.0301 67.94 56.2201 67.27 57.4801C74.2 60.3101 82.14 59.3801 89.69 54.8401C98.69 49.4301 105.72 39.6101 106.74 31.1901C106.36 31.3801 105.87 31.5601 105.3 31.5601C104.95 31.5601 104.57 31.5001 104.17 31.3301C103.97 31.2501 103.87 31.0101 103.95 30.8101C104.03 30.6101 104.27 30.5101 104.47 30.5901H104.41ZM74.66 23.7001C75.55 23.3201 76.49 23.1301 77.44 23.1301C79.95 23.1301 82.15 24.5001 83.05 26.6301C84.32 29.6601 82.63 33.2701 79.28 34.6701C78.39 35.0501 77.45 35.2401 76.5 35.2401C73.99 35.2401 71.79 33.8601 70.89 31.7401C69.62 28.7201 71.31 25.1101 74.66 23.7001ZM54.23 48.9401C53.01 49.7601 51.61 50.1901 50.19 50.1901C48.1 50.1901 46.21 49.2201 45.12 47.6001C43.23 44.7701 44.24 40.7601 47.37 38.6701C48.6 37.8501 50 37.4201 51.42 37.4201C53.51 37.4201 55.4 38.3901 56.48 40.0101C58.37 42.8401 57.36 46.8501 54.23 48.9401ZM103.27 27.3001H103.13C101.18 27.3001 98.87 26.3701 97.86 25.1901C97.39 24.6401 97.35 24.1701 97.4 23.8801C97.48 23.3901 97.82 23.1201 98.34 23.1201C98.86 23.1201 99.51 23.3901 100.26 23.7001C100.99 24.0001 101.81 24.3301 102.39 24.3401C102.8 24.3401 103.2 24.2701 103.63 24.2001C104.42 24.0701 105.3 23.9701 106.03 24.1701C106.6 24.3301 106.93 24.7901 106.86 25.3401C106.75 26.2501 105.57 27.2601 103.27 27.3101V27.3001Z" fill="#97A9AF"/>
<path d="M68.2109 54.4499C68.2409 54.2299 68.0909 54.0299 67.8709 53.9999C67.6609 53.9699 67.4509 54.1199 67.4209 54.3399C67.4009 54.5099 67.3509 54.7499 67.2909 55.0199C66.9409 56.4999 65.8809 59.2099 62.7209 60.4299C62.5209 60.5099 62.3209 60.5799 62.1009 60.6499C61.8909 60.7099 61.7709 60.9399 61.8309 61.1499C61.8809 61.3199 62.0409 61.4399 62.2109 61.4399C62.2509 61.4399 62.2909 61.4399 62.3209 61.4199C64.2209 60.8599 65.5109 59.8299 66.3909 58.7199C66.5309 58.5399 66.6709 58.3499 66.7909 58.1699C66.9409 57.9399 67.0809 57.7099 67.2009 57.4799C67.8809 56.2199 68.1209 55.0299 68.2009 54.4499H68.2109Z" fill="#231F20"/>
</svg>
