<svg width="128" height="143" viewBox="0 0 128 143" fill="none" xmlns="http://www.w3.org/2000/svg">
<g clip-path="url(#clip0_1739_8716)">
<path d="M39.1102 138.58C39.2902 139.39 40.1802 139.51 40.7002 139.51C41.3202 139.51 41.8702 139.35 42.1202 139.19C42.2502 139.11 42.4102 139.1 42.5502 139.17C42.6902 139.24 42.7702 139.38 42.7802 139.53C42.8302 140.36 43.0802 141.15 45.5702 141.85C45.9602 141.96 46.4002 142.02 46.8702 142.02C48.5302 142.02 50.3402 141.34 51.2002 140.4C51.2802 140.31 51.4002 140.26 51.5202 140.26C51.5502 140.26 51.5902 140.26 51.6202 140.27C51.7702 140.31 51.9002 140.42 51.9402 140.58C52.2802 141.82 53.5102 142.09 54.4802 142.09C54.7302 142.09 54.9902 142.07 55.2602 142.04C56.2802 141.91 57.2002 141.28 57.7502 140.36C57.1502 140.86 56.2802 141.15 55.2002 141.19H55.0202C54.0602 141.19 53.2802 140.83 52.7602 140.13C52.2702 139.46 52.0902 138.59 52.0802 137.78C50.2702 139.44 46.9802 140.57 45.3202 140.09C44.3302 139.81 43.6902 139.31 43.4302 138.6C43.2302 138.06 43.2802 137.47 43.4502 136.9C42.6402 137.49 41.6702 138.07 40.7702 138.07C40.4402 138.07 40.1302 137.99 39.8502 137.84C39.5902 137.69 39.4202 137.52 39.3102 137.33C39.0902 137.71 39.0002 138.11 39.1002 138.57L39.1102 138.58Z" fill="#606060"/>
<path d="M58.2601 136.351C58.9901 138.061 58.6901 139.141 58.3101 139.751C58.1701 139.981 57.9801 140.181 57.7701 140.361C57.2201 141.281 56.2901 141.911 55.2801 142.041C55.0101 142.071 54.7401 142.091 54.5001 142.091C53.5301 142.091 52.3001 141.831 51.9601 140.581C51.9201 140.431 51.8001 140.311 51.6401 140.271C51.6101 140.271 51.5701 140.261 51.5401 140.261C51.4201 140.261 51.3001 140.311 51.2201 140.401C50.3701 141.341 48.5501 142.021 46.8901 142.021C46.4201 142.021 45.9801 141.961 45.5901 141.851C43.1001 141.151 42.8501 140.351 42.8001 139.531C42.8001 139.381 42.7001 139.241 42.5701 139.171C42.4301 139.101 42.2701 139.111 42.1401 139.191C41.8901 139.341 41.3401 139.511 40.7201 139.511C40.2001 139.511 39.3001 139.391 39.1301 138.581C39.0301 138.121 39.1301 137.721 39.3401 137.341C39.2701 137.211 39.2201 137.081 39.2101 136.931C39.1801 136.091 40.2801 135.371 41.7901 134.381C42.2001 134.111 42.6201 133.831 43.0301 133.541C42.5801 133.841 42.1101 134.131 41.6501 134.411C39.7701 135.551 37.8301 136.721 38.2701 138.771C38.4901 139.781 39.4101 140.391 40.7201 140.391C41.1701 140.391 41.6301 140.321 42.0201 140.201C42.2601 141.231 43.0601 142.061 45.3601 142.711C45.8301 142.841 46.3501 142.911 46.9001 142.911C48.5401 142.911 50.2801 142.331 51.3801 141.461C51.9201 142.441 53.0101 142.971 54.5101 142.971C54.7901 142.971 55.0901 142.951 55.4001 142.911C56.7101 142.741 57.8901 141.941 58.5701 140.751C59.2901 139.491 59.3701 137.981 58.7801 136.611C57.7201 134.161 58.6501 131.461 58.6601 131.431C58.6801 131.381 58.6801 131.331 58.6801 131.281C58.6801 131.231 58.6801 131.191 58.6801 131.141C58.2101 132.371 57.5501 134.651 58.2801 136.361L58.2601 136.351Z" fill="#231F20"/>
<path d="M44.0204 133.89C43.4404 134.32 42.8404 134.72 42.2604 135.1C41.3804 135.67 40.0604 136.54 40.0704 136.89C40.0704 136.9 40.1104 136.98 40.2904 137.08C41.1504 137.56 42.7404 136.37 43.7004 135.62C44.0004 135.38 44.2504 135.18 44.4404 135.07C44.6104 134.96 44.8404 134.99 44.9804 135.14C45.1204 135.29 45.1404 135.51 45.0304 135.68C44.3104 136.76 44.0404 137.69 44.2604 138.29C44.4204 138.73 44.8604 139.05 45.5704 139.25C45.7604 139.3 45.9904 139.33 46.2504 139.33C48.3604 139.33 51.6604 137.56 52.3304 136.07C52.4004 135.91 52.5604 135.81 52.7304 135.81C52.7804 135.81 52.8304 135.81 52.8804 135.84C53.1004 135.92 53.2104 136.16 53.1404 136.38C52.8904 137.19 52.8204 138.72 53.4704 139.6C53.8204 140.08 54.3304 140.31 55.0204 140.31H55.1704C56.3204 140.26 57.1704 139.89 57.5604 139.27C57.9504 138.65 57.9104 137.76 57.4504 136.68C56.6904 134.9 57.1804 132.71 57.6604 131.29C55.2004 131.77 52.9504 132 50.8404 132C49.3504 132 47.9304 131.88 46.5804 131.65C46.0304 132.21 45.1904 133 44.0104 133.89H44.0204Z" fill="#231F20"/>
<path d="M58.5396 131.131C58.2396 131.191 57.9496 131.251 57.6596 131.311C57.1796 132.731 56.6896 134.921 57.4496 136.701C57.9096 137.781 57.9496 138.671 57.5596 139.291C57.1696 139.911 56.3196 140.281 55.1696 140.321H55.0196C54.3296 140.321 53.8196 140.091 53.4696 139.611C52.8196 138.731 52.8896 137.191 53.1396 136.391C53.2096 136.171 53.0896 135.931 52.8796 135.851C52.8296 135.831 52.7796 135.821 52.7296 135.821C52.5596 135.821 52.3996 135.921 52.3296 136.081C51.6596 137.571 48.3596 139.341 46.2496 139.341C45.9896 139.341 45.7596 139.311 45.5696 139.261C44.8596 139.061 44.4196 138.741 44.2596 138.301C44.0396 137.691 44.3096 136.761 45.0296 135.691C45.1396 135.521 45.1196 135.291 44.9796 135.151C44.8396 135.001 44.6096 134.971 44.4396 135.081C44.2596 135.191 43.9996 135.391 43.6996 135.631C42.7396 136.391 41.1496 137.581 40.2896 137.091C40.1096 136.991 40.0696 136.911 40.0696 136.901C40.0596 136.551 41.3796 135.681 42.2596 135.111C42.8396 134.731 43.4496 134.331 44.0196 133.901C45.1996 133.011 46.0396 132.221 46.5896 131.661C46.2396 131.601 45.8996 131.531 45.5596 131.451C45.0496 131.941 44.3696 132.541 43.4996 133.201C43.3496 133.311 43.1896 133.421 43.0296 133.531C42.6196 133.821 42.1996 134.101 41.7896 134.371C40.2796 135.361 39.1796 136.081 39.2096 136.921C39.2096 137.071 39.2596 137.201 39.3396 137.331C39.4496 137.521 39.6196 137.691 39.8796 137.841C40.1596 137.991 40.4596 138.071 40.7996 138.071C41.6996 138.071 42.6796 137.491 43.4796 136.901C43.3096 137.471 43.2596 138.061 43.4596 138.601C43.7196 139.311 44.3596 139.821 45.3496 140.091C47.0096 140.561 50.2996 139.431 52.1096 137.781C52.1196 138.581 52.2996 139.461 52.7896 140.131C53.2996 140.831 54.0796 141.201 55.0496 141.201H55.2296C56.3096 141.151 57.1796 140.871 57.7796 140.361C57.9896 140.181 58.1696 139.981 58.3196 139.751C58.6996 139.141 58.9996 138.061 58.2696 136.351C57.5396 134.651 58.1996 132.361 58.6696 131.131C58.6696 131.121 58.6696 131.111 58.6796 131.101C58.6396 131.101 58.5996 131.121 58.5496 131.131H58.5396Z" fill="#231F20"/>
<path d="M25.7803 55.0805C21.6703 53.8105 16.7803 52.3905 11.5303 51.0605C10.0003 50.6705 8.58031 50.4805 7.30031 50.4805C5.41031 50.4805 2.89031 50.9205 1.64031 53.0205C1.06031 54.0005 0.660313 55.5205 0.990313 57.8205C1.09031 57.3305 1.26031 56.8805 1.50031 56.4805C2.30031 55.1305 3.85031 54.4205 5.97031 54.4205C9.09031 54.4205 13.3503 55.9905 17.3703 58.6205C29.6103 66.6205 36.2503 72.9105 38.1403 74.8005C38.4003 74.2205 38.6603 73.6705 38.9003 73.1705C40.4203 69.9505 40.5503 67.0705 40.2803 64.9705C40.1703 64.4905 40.0403 64.0205 39.8903 63.5505C33.9603 61.4005 28.7503 58.4805 25.7903 55.0805H25.7803Z" fill="black"/>
<path d="M40.2699 64.9698C40.2099 64.4698 40.1199 64.0098 40.0199 63.5998C39.9699 63.5798 39.9199 63.5698 39.8799 63.5498C40.0299 64.0198 40.1599 64.4898 40.2699 64.9698Z" fill="#231F20"/>
<path d="M0.990038 57.8206C0.660038 55.5206 1.06004 54.0006 1.64004 53.0206C2.89004 50.9206 5.40004 50.4806 7.30004 50.4806C8.58004 50.4806 10.01 50.6806 11.53 51.0606C16.79 52.3906 21.67 53.8106 25.78 55.0806C25.44 54.6906 25.13 54.2906 24.85 53.8806C20.99 52.7006 16.52 51.4206 11.74 50.2106C10.14 49.8106 8.65004 49.6006 7.29004 49.6006C4.25004 49.6006 2.04004 50.6306 0.880038 52.5706C-0.799962 55.4006 -0.079962 59.9906 2.95004 65.8706C1.23004 62.4806 0.570038 59.7806 0.970038 57.8206H0.990038Z" fill="#231F20"/>
<path d="M16.88 59.35C13 56.81 8.92005 55.29 5.96005 55.29C4.71005 55.29 3.04005 55.57 2.24005 56.92C1.48005 58.19 1.21005 60.86 4.19005 66.34C10.94 78.74 23.78 86.76 32.92 87.88C34.49 83.2 36.26 78.92 37.73 75.64C36.37 74.26 29.75 67.76 16.87 59.34L16.88 59.35Z" fill="white"/>
<path d="M32.9301 87.8907C23.7901 86.7707 10.9401 78.7507 4.20013 66.3507C1.22013 60.8607 1.49013 58.2007 2.25013 56.9307C3.05013 55.5807 4.72013 55.3007 5.97013 55.3007C8.93013 55.3007 13.0101 56.8207 16.8901 59.3607C29.7701 67.7807 36.3901 74.2807 37.7501 75.6607C37.8801 75.3707 38.0101 75.0907 38.1301 74.8107C36.2401 72.9207 29.6001 66.6307 17.3601 58.6307C13.3401 56.0007 9.08013 54.4307 5.96013 54.4307C3.84013 54.4307 2.29013 55.1407 1.49013 56.4907C1.25013 56.8907 1.08013 57.3407 0.980132 57.8307C0.570132 59.7907 1.23013 62.4907 2.96013 65.8807C3.11013 66.1707 3.27013 66.4707 3.43013 66.7807C10.2701 79.3407 23.2801 87.5007 32.6501 88.7407C32.7401 88.4607 32.8301 88.1807 32.9301 87.9007V87.8907Z" fill="#231F20"/>
<path d="M92.6397 59.88C90.9697 60.76 88.8597 61.66 86.4697 62.51C86.7597 64.76 87.5797 67.41 88.3197 69.67C92.0597 67.6 99.2597 63.99 110.03 60.18C113.16 59.07 116.34 58.46 118.99 58.46C122.53 58.46 124.95 59.52 125.79 61.43C126.01 61.93 126.15 62.55 126.11 63.33C127.12 60.85 126.96 59.12 126.44 57.95C125.39 55.58 122.2 54.21 117.69 54.21H117.48C110.56 54.28 104.19 54.62 99.3097 54.97C97.5497 56.81 95.3197 58.45 92.6297 59.87L92.6397 59.88Z" fill="black"/>
<path d="M127.24 57.5998C126.02 54.8598 122.64 53.3398 117.7 53.3398H117.48C110.96 53.4098 104.92 53.7098 100.16 54.0398C99.8903 54.3598 99.6103 54.6698 99.3203 54.9698C104.19 54.6198 110.57 54.2798 117.49 54.2098H117.7C122.21 54.2098 125.39 55.5698 126.45 57.9498C126.97 59.1198 127.13 60.8498 126.12 63.3298C126.03 65.0398 125.06 67.4898 122.08 70.8898C128.15 64.0198 128.26 59.8698 127.25 57.5898L127.24 57.5998Z" fill="#231F20"/>
<path d="M91.0798 76.4001C92.1698 78.7401 93.5098 81.6101 94.8198 84.7601C103.09 83.5901 113.41 79.1501 120.99 70.8001C125.43 65.9001 125.62 63.1901 125 61.7801C124.3 60.2001 122.17 59.3301 118.99 59.3301C116.44 59.3301 113.36 59.9201 110.32 61.0001C99.4298 64.8601 92.2198 68.4901 88.5898 70.5101L88.8498 71.3301C89.1698 72.3401 90.0098 74.1301 91.0698 76.4001H91.0798Z" fill="white"/>
<path d="M126.12 63.33C126.16 62.56 126.02 61.93 125.8 61.43C124.95 59.51 122.53 58.46 119 58.46C116.35 58.46 113.17 59.07 110.04 60.18C99.2701 63.99 92.0701 67.6 88.3301 69.67C88.3901 69.85 88.4401 70.03 88.5001 70.2L88.6001 70.51C92.2301 68.49 99.4401 64.86 110.33 61C113.36 59.92 116.44 59.33 119 59.33C122.17 59.33 124.31 60.2 125.01 61.78C125.63 63.19 125.45 65.9 121 70.8C113.42 79.14 103.1 83.59 94.8301 84.76C94.9401 85.03 95.0601 85.31 95.1701 85.59C103.58 84.35 113.99 79.82 121.65 71.39C121.8 71.22 121.95 71.06 122.09 70.89C125.07 67.49 126.04 65.04 126.13 63.33H126.12Z" fill="#231F20"/>
<path d="M78.7297 64.87C78.3297 64.99 77.9197 65.11 77.5197 65.22C81.8797 73.68 88.5897 89.47 88.8397 98.28C89.1597 109.16 82.5097 116.61 76.7197 119.68C71.9897 122.19 67.0897 123.47 62.1697 123.47C52.0597 123.47 42.4497 117.84 37.6597 109.13C31.9397 98.71 38.1497 78.67 45.6697 65.58C44.1297 65.12 42.5797 64.58 41.0097 63.97C41.4497 66.24 41.5197 69.64 39.6697 73.54C35.3797 82.64 25.9897 105.13 31.4497 117.48C35.5097 126.67 41.8597 131.13 50.8397 131.13C53.1497 131.13 55.5997 130.85 58.3597 130.26C62.0097 129.48 64.8197 129.12 67.2097 129.12C67.4197 129.12 67.6097 129.13 67.8097 129.14C67.7697 129.08 67.7297 129.03 67.6897 128.97C67.1197 128.31 66.8097 127.55 66.9297 126.63C66.9297 126.57 66.9497 126.51 66.9597 126.44C66.9597 126.42 66.9597 126.4 66.9597 126.38C67.1097 125.67 67.5597 125.15 68.2297 124.86C68.4997 124.74 68.7997 124.66 69.1397 124.62C69.3097 124.6 69.4897 124.59 69.6697 124.59C70.1897 124.59 70.7397 124.68 71.1897 124.83C71.4397 123.66 72.3197 122.71 74.9497 121.96C75.4797 121.81 76.0597 121.74 76.6897 121.74C78.5597 121.74 80.5397 122.41 81.7797 123.42C82.4797 122.08 84.0897 121.46 86.3097 121.74C86.4597 121.76 86.6097 121.79 86.7697 121.83C88.0497 122.13 89.1897 122.97 89.8697 124.17C89.9997 124.4 90.1097 124.64 90.1997 124.89C90.5697 125.73 90.6897 126.62 90.5497 127.48C90.5397 127.57 90.4897 127.65 90.4297 127.71C90.3697 128.01 90.2797 128.3 90.1697 128.59C90.3997 128.46 90.5997 128.33 90.7797 128.19C96.5497 123.8 99.6097 118.8 99.2097 105C98.9297 95.25 93.5297 83.67 90.2997 76.76C89.2297 74.46 88.3797 72.65 88.0397 71.58L87.6797 70.45C86.8897 68 85.9797 65.22 85.6497 62.79C83.5097 63.53 81.1697 64.23 78.7397 64.85L78.7297 64.87Z" fill="black"/>
<path d="M68.3196 129.73C68.1496 129.56 67.9796 129.36 67.8196 129.15C67.6196 129.15 67.4296 129.13 67.2196 129.13C64.8296 129.13 62.0196 129.49 58.3696 130.27C55.6196 130.85 53.1596 131.14 50.8496 131.14C41.8596 131.14 35.5196 126.67 31.4596 117.49C25.9996 105.14 35.3896 82.6504 39.6796 73.5504C41.5196 69.6504 41.4496 66.2604 41.0196 63.9804C40.8196 63.9004 40.6296 63.8204 40.4296 63.7504C40.2996 63.7004 40.1696 63.6504 40.0296 63.6104C40.1296 64.0204 40.2096 64.4804 40.2796 64.9804C40.5496 67.0804 40.4196 69.9604 38.8996 73.1804C38.6596 73.6804 38.4096 74.2303 38.1396 74.8103C38.0196 75.0803 37.8896 75.3704 37.7596 75.6604C36.2896 78.9404 34.5196 83.2204 32.9496 87.9004C32.8596 88.1804 32.7596 88.4603 32.6696 88.7403C29.4496 98.6203 27.2496 110.11 30.6696 117.85C34.0396 125.48 38.9496 129.97 45.5696 131.46C45.9096 131.54 46.2496 131.61 46.5996 131.67C47.9496 131.91 49.3696 132.02 50.8596 132.02C52.9796 132.02 55.2196 131.79 57.6796 131.31C57.9696 131.25 58.2596 131.2 58.5596 131.13C58.5996 131.13 58.6496 131.11 58.6896 131.1C62.2096 130.36 64.9296 130.01 67.2296 130.01C67.8296 130.01 68.3896 130.03 68.9296 130.08C68.8296 130.01 68.7296 129.93 68.6396 129.86C68.5296 129.86 68.4196 129.82 68.3396 129.74L68.3196 129.73Z" fill="#231F20"/>
<path d="M94.8196 84.7598C93.5096 81.6098 92.1697 78.7398 91.0797 76.3998C90.0197 74.1298 89.1796 72.3398 88.8596 71.3298L88.5996 70.5098L88.4996 70.1998C88.4396 70.0298 88.3897 69.8498 88.3297 69.6698C87.5997 67.4098 86.7697 64.7598 86.4797 62.5098C86.1997 62.6098 85.9196 62.7098 85.6396 62.8098C85.9796 65.2398 86.8796 68.0198 87.6696 70.4698L88.0296 71.5998C88.3696 72.6698 89.2196 74.4798 90.2896 76.7798C93.5196 83.6898 98.9296 95.2698 99.1996 105.02C99.5996 118.82 96.5396 123.82 90.7696 128.21C90.5896 128.35 90.3797 128.48 90.1597 128.61C90.1297 128.68 90.1097 128.75 90.0797 128.82C89.9397 129.14 89.8396 129.47 89.7496 129.79C90.3596 129.52 90.8797 129.22 91.2997 128.91C98.1297 123.71 100.43 117.45 100.07 105C99.8896 98.6898 97.6197 91.6698 95.1497 85.5998C95.0397 85.3198 94.9196 85.0498 94.8096 84.7698L94.8196 84.7598Z" fill="#231F20"/>
<path d="M38.4297 108.71C43.0597 117.14 52.3797 122.59 62.1697 122.59C66.9597 122.59 71.7197 121.35 76.3197 118.9C81.8897 115.94 88.2797 108.77 87.9797 98.2902C87.7397 89.7302 80.9397 73.7802 76.6597 65.4502C70.9197 67.0002 65.5697 67.7602 60.4097 67.7602C55.7097 67.7602 51.1797 67.1302 46.5497 65.8302C39.2397 78.5602 32.9197 98.6602 38.4397 108.7L38.4297 108.71Z" fill="white"/>
<path d="M76.6504 65.4605C80.9304 73.7905 87.7204 89.7505 87.9704 98.3005C88.2804 108.78 81.8804 115.95 76.3104 118.91C71.7104 121.36 66.9504 122.6 62.1604 122.6C52.3704 122.6 43.0504 117.15 38.4204 108.72C32.9104 98.6805 39.2204 78.5805 46.5304 65.8505C46.2404 65.7705 45.9504 65.6805 45.6604 65.5905C38.1404 78.6805 31.9304 98.7105 37.6504 109.14C42.4304 117.85 52.0504 123.48 62.1604 123.48C67.0904 123.48 71.9904 122.21 76.7104 119.69C82.5004 116.62 89.1504 109.17 88.8304 98.2905C88.5804 89.4905 81.8604 73.6905 77.5104 65.2305C77.2204 65.3105 76.9304 65.3905 76.6404 65.4705L76.6504 65.4605Z" fill="#231F20"/>
<path d="M26.3997 42.4401C26.8897 37.5501 31.3297 30.3001 32.9997 27.5801L33.2697 27.1401C33.6897 26.4601 34.1097 25.7201 34.5497 24.9601C36.5097 21.5401 38.7297 17.6701 41.4197 16.9301C41.8897 16.8001 42.3597 16.7401 42.8397 16.7401C46.9997 16.7401 50.6697 21.6601 51.5697 28.4401C52.2397 33.4801 51.2297 38.5501 50.4897 41.3401C51.2797 40.9601 52.1597 40.7601 53.1097 40.7601C55.7797 40.7601 58.5297 42.3301 60.0697 43.8901C61.1397 44.9701 62.3697 45.9501 63.2997 46.5801C62.9997 45.0001 62.5297 42.8001 62.2097 41.8301C61.7097 40.3201 60.8297 32.7701 61.3297 29.3701L61.3497 29.2201C61.8797 25.6401 62.9797 18.1801 68.6997 16.2701C69.6097 15.9701 70.5497 15.8101 71.4897 15.8101C75.9597 15.8101 79.5697 19.1301 81.1097 20.5501L81.1997 20.6401C81.8197 21.2101 82.5297 22.0501 83.5997 23.3201C85.5597 25.6501 88.5297 29.1701 94.0697 34.7701C97.4297 38.1601 98.6197 42.7501 97.4297 47.6901C96.1097 53.1601 92.1597 58.1501 86.7997 61.4501C88.8797 60.6801 90.7197 59.8801 92.2197 59.1001C100.29 54.8501 104.02 48.6001 103.33 40.5301C102.8 34.5101 98.3997 30.5801 94.5097 27.1201C92.3197 25.1701 90.2497 23.3301 89.1697 21.3401C87.3097 17.9201 77.2497 0.870117 61.5597 0.870117C61.2797 0.870117 60.9997 0.870117 60.7197 0.890117C49.6597 1.32012 42.4397 4.62012 35.9397 20.8401C34.8297 23.6001 31.9097 27.8001 28.9897 30.8301C25.2197 34.7501 19.6097 44.4801 25.4297 53.2201C26.7297 55.1701 28.8697 56.9901 31.5197 58.6301C25.3397 52.9701 26.0397 45.8801 26.3897 42.4501L26.3997 42.4401Z" fill="black"/>
<path d="M25.7804 55.0802C28.7504 58.4802 33.9504 61.3902 39.8804 63.5502C39.9304 63.5702 39.9804 63.5802 40.0204 63.6002C40.1504 63.6502 40.2804 63.7002 40.4204 63.7402C39.5604 63.4002 38.7004 63.0302 37.8304 62.6402C35.1804 61.4502 33.1304 60.0802 31.5304 58.6202C28.8704 56.9902 26.7304 55.1602 25.4404 53.2102C19.6204 44.4702 25.2204 34.7402 29.0004 30.8202C31.9204 27.7902 34.8404 23.5902 35.9504 20.8302C42.4404 4.62024 49.6704 1.31023 60.7304 0.890234C61.0104 0.880234 61.2904 0.870234 61.5704 0.870234C77.2504 0.870234 87.3204 17.9202 89.1804 21.3402C90.2604 23.3302 92.3304 25.1702 94.5204 27.1202C98.4104 30.5902 102.82 34.5102 103.34 40.5302C104.04 48.6002 100.3 54.8502 92.2304 59.1002C90.7404 59.8902 88.8904 60.6902 86.8104 61.4502C85.0104 62.5602 83.0604 63.4702 80.9904 64.1502C80.2304 64.4002 79.4704 64.6302 78.7204 64.8602C81.1504 64.2402 83.4804 63.5402 85.6304 62.8002C85.9104 62.7002 86.2004 62.6002 86.4704 62.5002C88.8504 61.6502 90.9604 60.7502 92.6404 59.8702C95.3304 58.4502 97.5604 56.8102 99.3204 54.9702C99.6104 54.6602 99.8904 54.3502 100.16 54.0402C103.31 50.2902 104.66 45.7502 104.21 40.4502C103.65 34.0902 99.1104 30.0402 95.1004 26.4602C92.9704 24.5602 90.9604 22.7702 89.9504 20.9102C88.0504 17.4202 77.7504 -0.00976562 61.5804 -0.00976562C61.2904 -0.00976562 61.0004 -0.00976562 60.7004 0.0102344C49.5404 0.440234 41.7804 3.93023 35.1504 20.5102C34.0904 23.1402 31.1804 27.3102 28.3804 30.2202C22.8904 35.9302 19.4004 45.7102 24.7204 53.7002C24.7604 53.7602 24.8104 53.8202 24.8504 53.8802C25.1304 54.2902 25.4404 54.6902 25.7804 55.0802Z" fill="#231F20"/>
<path d="M64.3697 47.6702C64.4197 47.9902 64.4497 48.2202 64.4397 48.3302C64.4397 48.4102 64.4097 48.5002 64.3697 48.5702C64.7197 52.3102 63.4997 54.7002 62.3397 56.0902C60.4997 58.2802 57.9997 59.0602 56.2597 59.0602C56.1497 59.0602 56.0297 59.0602 55.9197 59.0602C52.8497 58.8902 49.9697 56.3502 49.6197 53.5102C49.3497 51.3602 50.2197 49.8202 50.8997 48.9702C50.6297 48.9302 50.3497 48.9102 50.0497 48.9102C48.7697 48.9102 47.5597 49.2502 46.8397 49.4502C46.5797 49.5202 46.3897 49.5802 46.2597 49.6002C46.1397 49.6202 46.0097 49.5902 45.9097 49.5102C45.8097 49.4302 45.7497 49.3102 45.7497 49.1902C45.7497 49.0202 45.6597 45.0902 49.2897 42.1102C49.3197 42.0902 49.3397 42.0702 49.3697 42.0502C50.0597 39.6402 51.4097 34.0202 50.6897 28.5702C49.8597 22.3302 46.4797 17.6202 42.8297 17.6202C42.4397 17.6202 42.0397 17.6702 41.6497 17.7802C39.3097 18.4302 37.1797 22.1302 35.3097 25.4002C34.8697 26.1702 34.4397 26.9102 34.0197 27.6002L33.7497 28.0402C32.2597 30.4702 27.7397 37.8402 27.2697 42.5402C26.8197 47.0202 25.8797 56.3402 38.1897 61.8602C45.8897 65.3102 52.9497 66.9102 60.4097 66.9102C66.7597 66.9102 73.4097 65.7402 80.7297 63.3402C88.6797 60.7302 94.9097 54.5202 96.5997 47.5002C97.7197 42.8602 96.5997 38.5702 93.4697 35.4002C87.8997 29.7802 84.7997 26.1002 82.9497 23.9002C81.8997 22.6502 81.2097 21.8302 80.6197 21.3002L80.5297 21.2102C79.0597 19.8602 75.6197 16.7002 71.4997 16.7002C70.6497 16.7002 69.7997 16.8402 68.9797 17.1102C63.7697 18.8502 62.7197 25.9502 62.2197 29.3602L62.1997 29.5102C61.7297 32.7302 62.5797 40.1502 63.0497 41.5702C63.4097 42.6602 64.0297 45.5802 64.3097 47.2302C64.3797 47.3102 64.4097 47.4202 64.4097 47.5302C64.4097 47.5802 64.3997 47.6302 64.3897 47.6802L64.3697 47.6702ZM42.8897 26.7302C46.5797 26.7302 49.5797 29.9202 49.5797 33.8302C49.5797 37.7402 46.5797 40.9302 42.8897 40.9302C39.1997 40.9302 36.1997 37.7402 36.1997 33.8302C36.1997 29.9202 39.1997 26.7302 42.8897 26.7302ZM71.7597 25.7602C75.6097 25.7602 78.7497 29.0902 78.7497 33.1802C78.7497 37.2702 75.6097 40.6002 71.7597 40.6002C67.9097 40.6002 64.7697 37.2702 64.7697 33.1802C64.7697 29.0902 67.9097 25.7602 71.7597 25.7602Z" fill="white"/>
<path d="M46.5397 65.8403C51.1697 67.1503 55.7097 67.7703 60.3997 67.7703C65.5597 67.7703 70.9097 67.0103 76.6497 65.4603C76.9397 65.3803 77.2297 65.3003 77.5197 65.2203C77.9197 65.1103 78.3197 64.9903 78.7297 64.8703C79.4797 64.6503 80.2297 64.4103 80.9997 64.1603C83.0697 63.4803 85.0297 62.5703 86.8197 61.4603C92.1797 58.1603 96.1297 53.1703 97.4497 47.7003C98.6397 42.7603 97.4497 38.1703 94.0897 34.7803C88.5497 29.1803 85.5797 25.6603 83.6197 23.3303C82.5497 22.0603 81.8397 21.2203 81.2197 20.6503L81.1297 20.5603C79.5897 19.1403 75.9697 15.8203 71.5097 15.8203C70.5597 15.8203 69.6197 15.9703 68.7197 16.2803C62.9997 18.1903 61.8997 25.6403 61.3697 29.2303L61.3497 29.3803C60.8497 32.7803 61.7397 40.3303 62.2297 41.8403C62.5497 42.8103 63.0197 45.0103 63.3197 46.5903C63.5297 46.7303 63.7197 46.8503 63.8997 46.9503C63.9397 46.9603 63.9897 46.9703 64.0297 47.0003C64.0497 47.0203 64.0697 47.0403 64.0897 47.0603C64.1197 47.0803 64.1597 47.1003 64.1797 47.1103C64.2397 47.1403 64.2797 47.1803 64.3197 47.2303C64.0397 45.5803 63.4197 42.6603 63.0597 41.5703C62.5897 40.1503 61.7397 32.7303 62.2097 29.5103L62.2297 29.3603C62.7297 25.9503 63.7797 18.8503 68.9897 17.1103C69.8097 16.8403 70.6597 16.7003 71.5097 16.7003C75.6397 16.7003 79.0797 19.8603 80.5397 21.2103L80.6297 21.3003C81.2097 21.8303 81.9097 22.6603 82.9597 23.9003C84.8097 26.1003 87.9097 29.7803 93.4797 35.4003C96.6197 38.5703 97.7297 42.8703 96.6097 47.5003C94.9197 54.5103 88.6897 60.7303 80.7397 63.3403C73.4197 65.7403 66.7697 66.9103 60.4197 66.9103C52.9597 66.9103 45.8997 65.3003 38.1997 61.8603C25.8897 56.3403 26.8297 47.0203 27.2797 42.5403C27.7497 37.8503 32.2697 30.4703 33.7597 28.0403L34.0297 27.6003C34.4497 26.9103 34.8797 26.1603 35.3197 25.4003C37.1997 22.1303 39.3197 18.4203 41.6597 17.7803C42.0497 17.6703 42.4497 17.6203 42.8397 17.6203C46.4897 17.6203 49.8697 22.3303 50.6997 28.5703C51.4197 34.0203 50.0697 39.6403 49.3797 42.0503C49.7297 41.7803 50.0897 41.5503 50.4797 41.3603C51.2197 38.5603 52.2297 33.5003 51.5597 28.4603C50.6597 21.6803 46.9897 16.7603 42.8297 16.7603C42.3597 16.7603 41.8797 16.8303 41.4097 16.9503C38.7297 17.6903 36.4997 21.5603 34.5397 24.9803C34.0997 25.7403 33.6797 26.4803 33.2597 27.1603L32.9897 27.6003C31.3197 30.3303 26.8697 37.5803 26.3897 42.4603C26.0397 45.8903 25.3397 52.9803 31.5197 58.6403C33.1197 60.1003 35.1697 61.4803 37.8197 62.6603C38.6897 63.0503 39.5497 63.4103 40.4097 63.7603C40.6097 63.8403 40.7997 63.9203 40.9997 63.9903C42.5697 64.6003 44.1197 65.1403 45.6597 65.6003C45.9497 65.6903 46.2397 65.7703 46.5297 65.8603L46.5397 65.8403Z" fill="#231F20"/>
<path d="M64.4398 48.3202C64.4398 48.2102 64.4198 47.9802 64.3698 47.6602C64.3498 47.7502 64.3298 47.8402 64.2998 47.9302C64.3298 48.1402 64.3498 48.3502 64.3698 48.5602C64.4198 48.4902 64.4398 48.4002 64.4398 48.3202Z" fill="#231F20"/>
<path d="M50.4902 53.3805C50.7902 55.8205 53.3002 58.0105 55.9702 58.1605C56.0602 58.1605 56.1602 58.1605 56.2602 58.1605C57.7302 58.1605 60.0202 57.4605 61.6702 55.5005C62.6802 54.2905 63.7402 52.2205 63.5302 48.9805C63.4102 49.0905 63.2802 49.2005 63.1402 49.3005C62.8102 50.1905 62.0502 51.9505 60.8402 53.2005C60.7802 53.2705 60.7102 53.3305 60.6502 53.3905C60.6102 53.4205 60.5802 53.4605 60.5402 53.4905C60.4502 53.5705 60.3702 53.6405 60.2802 53.7205C60.2502 53.7505 60.2102 53.7705 60.1802 53.8005C60.0602 53.8905 59.9402 53.9805 59.8102 54.0605C59.8102 54.0605 59.8102 54.0605 59.8002 54.0605C58.5502 54.8405 56.9202 55.3005 55.4402 55.3005C55.3202 55.3005 55.2102 55.3005 55.1002 55.2905C55.0802 55.2905 55.0502 55.2905 55.0302 55.2905C54.9002 55.2905 54.7802 55.2705 54.6602 55.2605C54.6502 55.2605 54.6402 55.2605 54.6302 55.2605C53.4902 55.1205 52.5502 54.6905 51.9002 53.9905C51.8402 53.9305 51.8102 53.8505 51.7902 53.7705C51.5002 52.1105 51.6902 50.7805 52.4302 49.4005C52.2502 49.3105 52.0602 49.2305 51.8602 49.1605C51.3102 49.7405 50.2102 51.1905 50.4902 53.3705V53.3805Z" fill="#EF2E14"/>
<path d="M49.6305 53.4899C49.9805 56.3199 52.8605 58.8599 55.9305 59.0399C56.0405 59.0399 56.1505 59.0399 56.2705 59.0399C58.0005 59.0399 60.5105 58.2599 62.3505 56.0699C63.5105 54.6899 64.7305 52.2999 64.3805 48.5499C64.3605 48.3399 64.3405 48.1299 64.3105 47.9199C64.1805 48.2899 63.9105 48.6499 63.5405 48.9899C63.7605 52.2299 62.7005 54.2999 61.6805 55.5099C60.0305 57.4699 57.7405 58.1699 56.2705 58.1699C56.1705 58.1699 56.0805 58.1699 55.9805 58.1699C53.3105 58.0199 50.8005 55.8299 50.5005 53.3899C50.2205 51.2099 51.3205 49.7599 51.8705 49.1799C51.5705 49.0799 51.2505 49.0099 50.9105 48.9599C50.2305 49.7999 49.3605 51.3499 49.6305 53.4999V53.4899Z" fill="#231F20"/>
<path d="M64.0001 46.9904C64.0001 46.9904 63.9201 46.9504 63.8701 46.9404C63.9401 46.9804 64.0001 47.0104 64.0601 47.0504C64.0401 47.0304 64.0201 47.0104 64.0001 46.9904Z" fill="#231F20"/>
<path d="M52.6301 53.5003C52.6301 53.5003 52.6901 53.5503 52.7201 53.5803C53.4901 52.3203 54.6301 51.0403 56.5801 51.0403C56.8401 51.0403 57.1001 51.0603 57.3801 51.1103C58.6001 51.3103 59.6601 51.7003 60.5401 52.2503C61.1101 51.5503 61.5701 50.7303 61.8901 50.0303C61.4501 50.2203 60.9801 50.3803 60.4801 50.4803C59.7401 50.6403 58.8901 50.7303 58.0301 50.7303C56.7801 50.7303 54.9901 50.5503 53.2201 49.7803C52.6601 50.8003 52.3801 51.9203 52.6301 53.5003Z" fill="#893100"/>
<path d="M51.8002 53.7802C51.8102 53.8602 51.8502 53.9402 51.9102 54.0002C52.5602 54.7102 53.4902 55.1302 54.6402 55.2702C53.8702 55.1802 53.1902 54.9402 52.6302 54.5902C52.4402 54.4702 52.3702 54.2102 52.4802 54.0102C52.5602 53.8702 52.6402 53.7202 52.7302 53.5802C52.7002 53.5502 52.6702 53.5302 52.6402 53.5002C52.3902 51.9202 52.6602 50.8002 53.2302 49.7802C52.9902 49.6802 52.7602 49.5602 52.5202 49.4402C52.5002 49.4302 52.4702 49.4202 52.4502 49.4102C51.7102 50.7902 51.5202 52.1202 51.8102 53.7802H51.8002Z" fill="#231F20"/>
<path d="M55.4504 55.3198C55.3304 55.3198 55.2204 55.3198 55.1104 55.3198C55.2204 55.3198 55.3304 55.3298 55.4504 55.3298C56.9404 55.3298 58.5704 54.8698 59.8104 54.0898C59.8104 54.0898 59.8104 54.0898 59.8204 54.0898C59.8204 54.0898 59.8204 54.0898 59.8104 54.0898C58.5704 54.8598 56.9404 55.3298 55.4604 55.3298L55.4504 55.3198Z" fill="#231F20"/>
<path d="M60.2797 53.7402C60.2797 53.7402 60.2097 53.7902 60.1797 53.8202C60.2097 53.7902 60.2497 53.7702 60.2797 53.7402Z" fill="#231F20"/>
<path d="M60.65 53.4199C60.65 53.4199 60.58 53.4899 60.54 53.5199C60.58 53.4899 60.61 53.4499 60.65 53.4199Z" fill="#231F20"/>
<path d="M55.0302 55.3103C54.9102 55.3103 54.7802 55.2903 54.6602 55.2803C54.7802 55.2903 54.9002 55.3103 55.0302 55.3103Z" fill="#231F20"/>
<path d="M60.8698 52.4701C60.9698 52.5401 61.0398 52.6501 61.0498 52.7801C61.0598 52.9001 61.0198 53.0301 60.9398 53.1201C60.9098 53.1601 60.8698 53.1901 60.8398 53.2301C62.0398 51.9701 62.8098 50.2201 63.1398 49.3301C62.7798 49.6001 62.3598 49.8401 61.8998 50.0401C61.5798 50.7401 61.1198 51.5601 60.5498 52.2601C60.6598 52.3301 60.7698 52.4001 60.8798 52.4801L60.8698 52.4701Z" fill="#231F20"/>
<path d="M57.24 51.9702C57.02 51.9302 56.8 51.9102 56.59 51.9102C55.05 51.9102 54.13 52.9402 53.46 54.0502C54.98 54.7602 57.6 54.4302 59.35 53.3402C59.55 53.2202 59.75 53.0702 59.94 52.8902C59.19 52.4502 58.27 52.1402 57.25 51.9602L57.24 51.9702Z" fill="#EF2E14"/>
<path d="M61.0602 52.78C61.0502 52.66 60.9802 52.54 60.8802 52.47C60.7702 52.39 60.6602 52.32 60.5502 52.25C59.6702 51.7 58.6102 51.32 57.3902 51.11C57.1202 51.06 56.8502 51.04 56.5902 51.04C54.6302 51.04 53.5002 52.32 52.7302 53.58C52.6402 53.72 52.5602 53.87 52.4802 54.01C52.3702 54.21 52.4302 54.47 52.6302 54.59C53.1902 54.95 53.8702 55.18 54.6402 55.27C54.6502 55.27 54.6602 55.27 54.6702 55.27C54.7902 55.28 54.9102 55.3 55.0402 55.3C55.0602 55.3 55.0902 55.3 55.1102 55.3C55.2202 55.3 55.3402 55.3 55.4502 55.3C56.9302 55.3 58.5602 54.84 59.8002 54.06C59.8002 54.06 59.8002 54.06 59.8102 54.06C59.9302 53.98 60.0602 53.9 60.1802 53.8C60.2102 53.77 60.2502 53.75 60.2802 53.72C60.3702 53.65 60.4602 53.57 60.5402 53.49C60.5802 53.46 60.6102 53.42 60.6502 53.39C60.7102 53.33 60.7802 53.26 60.8402 53.2C60.8702 53.16 60.9102 53.13 60.9402 53.09C61.0202 53 61.0602 52.87 61.0502 52.75L61.0602 52.78ZM59.3402 53.34C57.5902 54.43 54.9702 54.76 53.4502 54.05C54.1202 52.94 55.0402 51.91 56.5802 51.91C56.7902 51.91 57.0102 51.93 57.2302 51.97C58.2502 52.14 59.1702 52.46 59.9202 52.9C59.7302 53.08 59.5302 53.23 59.3302 53.35L59.3402 53.34Z" fill="#231F20"/>
<path d="M71.7597 39.7299C75.1297 39.7299 77.8796 36.7899 77.8796 33.1799C77.8796 29.5699 75.1397 26.6299 71.7597 26.6299C68.3797 26.6299 65.6396 29.5699 65.6396 33.1799C65.6396 36.7899 68.3897 39.7299 71.7597 39.7299ZM68.9296 29.9599C68.9296 29.3099 69.4296 28.7899 70.0696 28.7299C70.7896 28.1799 71.6696 27.8499 72.6296 27.8499C75.0496 27.8499 77.0097 29.9499 77.0097 32.5399C77.0097 35.1299 75.0496 37.2199 72.6296 37.2199C70.2096 37.2199 68.2297 35.1299 68.2297 32.5399C68.2297 31.5999 68.4897 30.7299 68.9397 29.9899C68.9397 29.9799 68.9397 29.9599 68.9397 29.9499L68.9296 29.9599Z" fill="white"/>
<path d="M71.7605 40.6105C75.6105 40.6105 78.7505 37.2805 78.7505 33.1905C78.7505 29.1005 75.6105 25.7705 71.7605 25.7705C67.9105 25.7705 64.7705 29.1005 64.7705 33.1905C64.7705 37.2805 67.9105 40.6105 71.7605 40.6105ZM71.7605 26.6305C75.1305 26.6305 77.8805 29.5705 77.8805 33.1805C77.8805 36.7905 75.1405 39.7305 71.7605 39.7305C68.3805 39.7305 65.6405 36.7905 65.6405 33.1805C65.6405 29.5705 68.3905 26.6305 71.7605 26.6305Z" fill="#231F20"/>
<path d="M72.62 37.2206C75.04 37.2206 77 35.1306 77 32.5406C77 29.9506 75.04 27.8506 72.62 27.8506C71.66 27.8506 70.78 28.1806 70.06 28.7306C70.1 28.7306 70.13 28.7206 70.17 28.7206C70.86 28.7206 71.42 29.2706 71.42 29.9606C71.42 30.6506 70.86 31.1906 70.17 31.1906C69.48 31.1906 68.95 30.6606 68.92 30.0006C68.48 30.7306 68.21 31.6106 68.21 32.5506C68.21 35.1406 70.17 37.2306 72.61 37.2306L72.62 37.2206ZM73.65 33.6906C74.04 33.6906 74.35 34.0006 74.35 34.3806C74.35 34.7606 74.04 35.0706 73.65 35.0706C73.26 35.0706 72.95 34.7606 72.95 34.3806C72.95 34.0006 73.26 33.6906 73.65 33.6906Z" fill="#231F20"/>
<path d="M70.1797 31.18C70.8697 31.18 71.4297 30.63 71.4297 29.95C71.4297 29.27 70.8697 28.71 70.1797 28.71C70.1397 28.71 70.0997 28.71 70.0697 28.72C69.4397 28.78 68.9297 29.3 68.9297 29.95C68.9297 29.96 68.9297 29.98 68.9297 29.99C68.9497 30.65 69.4997 31.18 70.1797 31.18Z" fill="white"/>
<path d="M73.6502 35.0704C74.0402 35.0704 74.3502 34.7604 74.3502 34.3804C74.3502 34.0004 74.0402 33.6904 73.6502 33.6904C73.2602 33.6904 72.9502 34.0004 72.9502 34.3804C72.9502 34.7604 73.2602 35.0704 73.6502 35.0704Z" fill="white"/>
<path d="M42.8903 40.0606C46.1003 40.0606 48.7103 37.2606 48.7103 33.8306C48.7103 30.4006 46.1003 27.6006 42.8903 27.6006C39.6803 27.6006 37.0703 30.3906 37.0703 33.8306C37.0703 37.2706 39.6803 40.0606 42.8903 40.0606ZM40.1503 31.0406C40.1503 30.4206 40.6203 29.9306 41.2303 29.8706C41.9203 29.3406 42.7503 29.0306 43.6603 29.0306C45.9703 29.0306 47.8503 31.0306 47.8503 33.4906C47.8503 35.9506 45.9703 37.9606 43.6603 37.9606C41.3503 37.9606 39.4803 35.9706 39.4803 33.4906C39.4803 32.5906 39.7303 31.7606 40.1603 31.0606C40.1603 31.0506 40.1603 31.0406 40.1603 31.0306L40.1503 31.0406Z" fill="white"/>
<path d="M42.8902 40.9305C46.5802 40.9305 49.5802 37.7405 49.5802 33.8305C49.5802 29.9205 46.5802 26.7305 42.8902 26.7305C39.2002 26.7305 36.2002 29.9205 36.2002 33.8305C36.2002 37.7405 39.2002 40.9305 42.8902 40.9305ZM42.8902 27.6005C46.1002 27.6005 48.7102 30.3905 48.7102 33.8305C48.7102 37.2705 46.1002 40.0605 42.8902 40.0605C39.6802 40.0605 37.0702 37.2605 37.0702 33.8305C37.0702 30.4005 39.6802 27.6005 42.8902 27.6005Z" fill="#231F20"/>
<path d="M43.6597 37.9603C45.9697 37.9603 47.8497 35.9703 47.8497 33.4903C47.8497 31.0103 45.9697 29.0303 43.6597 29.0303C42.7497 29.0303 41.9097 29.3403 41.2297 29.8703C41.2697 29.8703 41.2997 29.8603 41.3397 29.8603C41.9997 29.8603 42.5397 30.3903 42.5397 31.0403C42.5397 31.6903 42.0097 32.2203 41.3397 32.2203C40.6697 32.2203 40.1697 31.7003 40.1497 31.0703C39.7197 31.7703 39.4697 32.6003 39.4697 33.5003C39.4697 35.9803 41.3497 37.9703 43.6497 37.9703L43.6597 37.9603ZM44.6497 34.5903C45.0197 34.5903 45.3197 34.8903 45.3197 35.2503C45.3197 35.6103 45.0197 35.9103 44.6497 35.9103C44.2797 35.9103 43.9797 35.6203 43.9797 35.2503C43.9797 34.8803 44.2797 34.5903 44.6497 34.5903Z" fill="#231F20"/>
<path d="M41.3404 32.2106C42.0004 32.2106 42.5404 31.6806 42.5404 31.0306C42.5404 30.3806 42.0104 29.8506 41.3404 29.8506C41.3004 29.8506 41.2704 29.8506 41.2304 29.8606C40.6204 29.9206 40.1504 30.4106 40.1504 31.0306C40.1504 31.0406 40.1504 31.0506 40.1504 31.0606C40.1704 31.6906 40.6904 32.2106 41.3404 32.2106Z" fill="white"/>
<path d="M44.6505 35.9098C45.0205 35.9098 45.3205 35.6198 45.3205 35.2498C45.3205 34.8798 45.0205 34.5898 44.6505 34.5898C44.2805 34.5898 43.9805 34.8898 43.9805 35.2498C43.9805 35.6098 44.2805 35.9098 44.6505 35.9098Z" fill="white"/>
<path d="M63.4502 47.7106C62.4202 47.1206 60.8202 45.9006 59.4402 44.5106C58.0302 43.0806 55.5302 41.6406 53.1002 41.6406C51.8602 41.6406 50.7702 42.0206 49.8502 42.7706C47.3302 44.8306 46.7802 47.4606 46.6602 48.5906C47.4302 48.3706 48.6802 48.0306 50.0502 48.0306C51.1402 48.0306 52.1002 48.2506 52.9102 48.6906C54.3402 49.4606 56.1602 49.8806 58.0202 49.8806C58.8202 49.8806 59.6102 49.8006 60.2902 49.6506C61.9802 49.2906 63.1402 48.3706 63.4402 47.7206L63.4502 47.7106ZM57.1802 45.1406C57.4002 45.7506 57.0002 46.4206 56.2402 46.7006C56.0502 46.7706 55.8402 46.8106 55.6202 46.8106C55.0902 46.8106 54.6602 46.5506 54.5002 46.1306C54.2802 45.5206 54.6902 44.8506 55.4402 44.5606C56.1802 44.2906 56.9702 44.5706 57.1702 45.1406H57.1802Z" fill="#EF2E14"/>
<path d="M53.0997 40.76C52.1497 40.76 51.2797 40.96 50.4797 41.34C50.0897 41.53 49.7297 41.75 49.3797 42.03C49.3497 42.05 49.3297 42.07 49.2997 42.09C45.6697 45.07 45.7497 49 45.7597 49.17C45.7597 49.3 45.8197 49.41 45.9197 49.49C46.0197 49.57 46.1397 49.6 46.2697 49.58C46.3997 49.56 46.5897 49.5 46.8497 49.43C47.5697 49.23 48.7797 48.89 50.0597 48.89C50.3597 48.89 50.6397 48.92 50.9097 48.95C51.2497 49 51.5697 49.07 51.8697 49.17C52.0697 49.24 52.2597 49.32 52.4397 49.41C52.4597 49.42 52.4897 49.43 52.5097 49.44C52.7497 49.57 52.9797 49.68 53.2197 49.78C54.9897 50.55 56.7797 50.73 58.0297 50.73C58.8997 50.73 59.7497 50.64 60.4797 50.48C60.9797 50.37 61.4497 50.22 61.8897 50.03C62.3497 49.83 62.7797 49.59 63.1297 49.32C63.2697 49.22 63.3997 49.11 63.5197 49C63.8897 48.66 64.1497 48.3 64.2897 47.93C64.3197 47.84 64.3497 47.75 64.3597 47.66C64.3597 47.61 64.3797 47.56 64.3797 47.51C64.3797 47.4 64.3497 47.29 64.2797 47.21C64.2397 47.16 64.1997 47.12 64.1397 47.09C64.1097 47.08 64.0797 47.05 64.0497 47.04C63.9897 47.01 63.9297 46.97 63.8597 46.93C63.6797 46.83 63.4897 46.71 63.2797 46.57C62.3397 45.94 61.1097 44.96 60.0497 43.88C58.5097 42.32 55.7697 40.75 53.0897 40.75L53.0997 40.76ZM60.2997 49.63C59.6197 49.78 58.8397 49.86 58.0297 49.86C56.1697 49.86 54.3497 49.44 52.9197 48.67C52.1097 48.23 51.1397 48.01 50.0597 48.01C48.6897 48.01 47.4397 48.35 46.6697 48.57C46.7897 47.44 47.3397 44.82 49.8597 42.75C50.7797 42 51.8697 41.62 53.1097 41.62C55.5297 41.62 58.0397 43.06 59.4497 44.49C60.8297 45.89 62.4297 47.1 63.4597 47.69C63.1697 48.34 61.9997 49.25 60.3097 49.62L60.2997 49.63Z" fill="#231F20"/>
<path d="M55.7498 45.3803C55.4298 45.5003 55.2798 45.7203 55.3198 45.8303C55.3598 45.9403 55.6998 45.9703 55.9298 45.8803C56.2298 45.7703 56.3998 45.5503 56.3498 45.4303C56.3398 45.4003 56.2298 45.3203 56.0398 45.3203C55.9398 45.3203 55.8398 45.3403 55.7498 45.3703V45.3803Z" fill="white"/>
<path d="M54.5004 46.1307C54.6604 46.5507 55.0904 46.8107 55.6204 46.8107C55.8404 46.8107 56.0404 46.7707 56.2404 46.7007C56.9904 46.4207 57.4004 45.7507 57.1804 45.1407C56.9804 44.5707 56.1904 44.2907 55.4504 44.5607C54.7004 44.8507 54.2904 45.5207 54.5104 46.1307H54.5004ZM56.3504 45.4307C56.3904 45.5507 56.2304 45.7707 55.9304 45.8807C55.7004 45.9707 55.3604 45.9307 55.3204 45.8307C55.2804 45.7207 55.4304 45.5007 55.7504 45.3807C55.8404 45.3507 55.9404 45.3307 56.0404 45.3307C56.2304 45.3307 56.3404 45.4007 56.3504 45.4407V45.4307Z" fill="#231F20"/>
<path d="M87.2904 125.65C86.7804 125.59 86.3104 125.55 85.9104 125.55C83.9004 125.55 83.4604 126.32 83.3104 126.9C83.2704 127.05 83.1504 127.17 82.9904 127.21C82.8304 127.25 82.6704 127.2 82.5604 127.08C81.6604 126.08 79.3404 125.49 77.6204 125.49C77.1304 125.49 76.7104 125.54 76.4404 125.63C74.1304 126.4 73.7304 127.04 73.6704 127.28C73.6404 127.38 73.6304 127.55 73.8704 127.82C74.0104 127.98 74.0204 128.22 73.8704 128.39C73.7304 128.56 73.4904 128.6 73.3104 128.48C73.0804 128.34 72.4804 128.19 71.7104 128.19C70.7204 128.19 69.5304 128.46 69.1504 129.18C69.7304 129.63 70.4504 130.07 71.2104 130.53C71.9404 130.97 72.7004 131.44 73.3804 131.95C73.8804 132.32 74.3104 132.65 74.7004 132.93C76.3304 134.14 77.0704 134.69 77.8304 135.61C78.7204 136.69 80.9304 137.38 83.4504 137.38C84.9604 137.38 86.4304 137.12 87.4704 136.67C88.1904 136.36 89.0504 135.8 89.0904 134.94C88.9204 134.4 88.0304 131.36 89.2804 128.47C89.4204 128.14 89.5204 127.8 89.5804 127.45C89.0004 126.68 88.2304 125.76 87.2904 125.65Z" fill="#474747"/>
<path d="M89.55 123.81C89.81 124.16 90.02 124.53 90.18 124.9C90.09 124.65 89.98 124.41 89.85 124.18C89.17 122.99 88.03 122.14 86.75 121.84C87.79 122.1 88.81 122.81 89.55 123.8V123.81Z" fill="#231F20"/>
<path d="M66.9299 126.641C66.8099 127.551 67.1199 128.311 67.6899 128.981C67.1999 128.271 66.8599 127.421 66.9299 126.641Z" fill="#231F20"/>
<path d="M68.23 124.88C67.56 125.17 67.12 125.69 66.96 126.4C67.11 125.69 67.56 125.17 68.23 124.88Z" fill="#231F20"/>
<path d="M90.0801 128.81C90.1101 128.74 90.1301 128.67 90.1601 128.6C90.2701 128.31 90.3601 128.02 90.4201 127.72C90.3601 127.78 90.2901 127.82 90.2101 127.84C90.0401 127.88 89.8601 127.82 89.7601 127.68C89.7001 127.61 89.6501 127.53 89.5901 127.45C89.5301 127.79 89.4301 128.13 89.2901 128.47C88.0401 131.37 88.9301 134.41 89.1001 134.94C89.0601 135.8 88.2001 136.35 87.4801 136.67C86.4401 137.12 84.9801 137.38 83.4601 137.38C80.9401 137.38 78.7301 136.68 77.8401 135.61C77.0801 134.69 76.3401 134.14 74.7101 132.93C74.3301 132.64 73.8901 132.32 73.3901 131.95C72.7101 131.44 71.9501 130.98 71.2201 130.53C70.4601 130.07 69.7401 129.63 69.1601 129.18C69.1201 129.26 69.0801 129.34 69.0601 129.43C69.0601 129.49 69.0401 129.55 69.0301 129.58C68.9801 129.72 68.8601 129.81 68.7101 129.84C68.6801 129.84 68.6501 129.84 68.6201 129.84C68.7201 129.92 68.8101 129.99 68.9101 130.06C69.4801 130.48 70.1201 130.87 70.7601 131.26C71.4701 131.69 72.2101 132.14 72.8601 132.63C73.3601 133 73.8001 133.33 74.1801 133.61C75.7501 134.77 76.4701 135.31 77.1601 136.14C78.4401 137.68 81.2501 138.23 83.4501 138.23C85.1001 138.23 86.6501 137.95 87.8101 137.45C89.5801 136.68 89.9601 135.61 89.9601 134.86C89.9601 134.81 89.9601 134.76 89.9401 134.71C89.9401 134.68 89.1001 132.27 89.7501 129.76C89.8301 129.44 89.9401 129.11 90.0801 128.79V128.81Z" fill="#231F20"/>
<path d="M88.8503 124.331C88.1503 123.391 87.1303 122.741 86.1903 122.621C85.8803 122.581 85.5803 122.561 85.3003 122.561C84.1803 122.561 82.7603 122.861 82.3603 124.311C82.3203 124.461 82.1903 124.581 82.0403 124.621C81.8903 124.661 81.7203 124.611 81.6203 124.491C80.6503 123.411 78.5803 122.631 76.6903 122.631C76.1503 122.631 75.6403 122.691 75.1903 122.821C72.3303 123.631 72.0403 124.551 71.9903 125.511C71.9903 125.661 71.8903 125.801 71.7603 125.871C71.6203 125.941 71.4603 125.941 71.3303 125.851C71.0403 125.671 70.4003 125.481 69.6803 125.481C69.0803 125.481 68.0303 125.621 67.8303 126.581C67.7003 127.181 68.0303 127.961 68.5003 128.591C69.3103 127.381 71.4103 127.161 72.8003 127.401C72.8003 127.271 72.8203 127.151 72.8403 127.051C73.0603 126.211 74.1603 125.471 76.1803 124.801C76.5503 124.681 77.0503 124.611 77.6403 124.611C79.3303 124.611 81.4703 125.101 82.7303 126.051C83.4003 124.891 84.9003 124.471 87.4103 124.781C88.3503 124.891 89.0903 125.501 89.6803 126.171C89.5703 125.531 89.2903 124.901 88.8603 124.331H88.8503Z" fill="#231F20"/>
<path d="M90.5403 127.49C90.6803 126.63 90.5503 125.74 90.1903 124.9C90.0303 124.52 89.8203 124.16 89.5603 123.81C88.8203 122.82 87.8003 122.11 86.7603 121.85C86.6103 121.81 86.4603 121.78 86.3003 121.76C84.0803 121.49 82.4703 122.1 81.7703 123.44C80.5403 122.43 78.5603 121.76 76.6803 121.76C76.0603 121.76 75.4703 121.83 74.9403 121.98C72.3103 122.72 71.4303 123.67 71.1803 124.85C70.7303 124.7 70.1903 124.61 69.6603 124.61C69.4803 124.61 69.3003 124.62 69.1303 124.64C68.7903 124.68 68.4903 124.76 68.2203 124.88C67.5503 125.17 67.1103 125.69 66.9503 126.4C66.9503 126.42 66.9503 126.44 66.9503 126.46C66.9403 126.52 66.9303 126.58 66.9203 126.65C66.8503 127.43 67.1903 128.28 67.6803 128.99C67.7203 129.05 67.7603 129.11 67.8003 129.16C67.9603 129.37 68.1303 129.56 68.3003 129.74C68.3803 129.82 68.4903 129.86 68.6003 129.86C68.6303 129.86 68.6603 129.86 68.6903 129.86C68.8303 129.83 68.9503 129.73 69.0103 129.6C69.0203 129.57 69.0403 129.5 69.0403 129.45C69.0603 129.36 69.1003 129.28 69.1403 129.2C69.5203 128.48 70.7203 128.21 71.7003 128.21C72.4703 128.21 73.0703 128.36 73.3003 128.5C73.4903 128.61 73.7203 128.57 73.8603 128.41C74.0003 128.24 73.9903 128 73.8603 127.84C73.6203 127.57 73.6303 127.41 73.6603 127.3C73.7203 127.06 74.1203 126.42 76.4303 125.65C76.7003 125.56 77.1203 125.51 77.6103 125.51C79.3303 125.51 81.6503 126.11 82.5503 127.1C82.6603 127.22 82.8203 127.27 82.9803 127.23C83.1403 127.19 83.2603 127.07 83.3003 126.92C83.4503 126.34 83.8903 125.57 85.9003 125.57C86.3103 125.57 86.7703 125.6 87.2803 125.67C88.2203 125.78 88.9903 126.7 89.5703 127.47C89.6303 127.55 89.6903 127.63 89.7403 127.7C89.8403 127.84 90.0203 127.9 90.1903 127.86C90.2703 127.84 90.3403 127.8 90.4003 127.74C90.4603 127.68 90.5003 127.6 90.5203 127.51L90.5403 127.49ZM87.4003 124.78C84.8903 124.47 83.3903 124.89 82.7203 126.05C81.4603 125.1 79.3103 124.61 77.6303 124.61C77.0403 124.61 76.5403 124.67 76.1703 124.8C74.1503 125.47 73.0603 126.21 72.8303 127.05C72.8003 127.15 72.7803 127.27 72.7903 127.4C71.4003 127.15 69.3003 127.37 68.4903 128.59C68.0203 127.96 67.7003 127.18 67.8203 126.58C68.0303 125.62 69.0703 125.48 69.6703 125.48C70.3903 125.48 71.0303 125.67 71.3203 125.85C71.4503 125.93 71.6103 125.94 71.7503 125.87C71.8903 125.8 71.9703 125.66 71.9803 125.51C72.0303 124.56 72.3203 123.63 75.1803 122.82C75.6303 122.69 76.1403 122.63 76.6803 122.63C78.5703 122.63 80.6403 123.41 81.6103 124.49C81.7203 124.61 81.8803 124.66 82.0303 124.62C82.1903 124.58 82.3103 124.47 82.3503 124.31C82.7503 122.86 84.1703 122.56 85.2903 122.56C85.5703 122.56 85.8703 122.58 86.1803 122.62C87.1203 122.74 88.1403 123.39 88.8403 124.33C89.2703 124.91 89.5503 125.54 89.6603 126.17C89.0703 125.5 88.3303 124.89 87.3903 124.78H87.4003Z" fill="#231F20"/>
</g>
<defs>
<clipPath id="clip0_1739_8716">
<rect width="127.72" height="142.96" fill="white"/>
</clipPath>
</defs>
</svg>
