<svg width="185" height="170" viewBox="0 0 185 170" fill="none" xmlns="http://www.w3.org/2000/svg">
<g clip-path="url(#clip0_1666_13123)">
<path d="M37.0225 66.3494C33.2976 68.2058 32.2878 72.8622 31.736 76.6166C31.326 79.4056 31.1799 82.2384 31.4613 85.0318C32.2246 84.8063 32.9988 84.6421 33.7839 84.5305C33.6487 82.372 33.7032 80.2091 33.9671 78.0571C34.268 75.5965 34.6933 72.9235 35.751 70.6643C36.9527 68.0898 39.2666 66.9405 41.8314 66.4676C40.4596 65.6533 38.8239 65.4519 37.0225 66.3538V66.3494Z" fill="#C8D4ED"/>
<path d="M97.9151 163.122C97.1954 162.226 95.0101 162.688 94.2424 163.385C94.153 163.466 94.0745 163.551 94.0069 163.643C93.8891 164.606 93.8106 165.574 93.7561 166.544C95.6229 167.454 97.6032 168.118 99.6554 168.492C99.5856 167.894 99.4787 167.299 99.3326 166.71C99.0491 165.567 98.6631 164.054 97.9151 163.122Z" fill="#C8D4ED"/>
<path d="M73.8185 157.471C73.245 157.097 72.8306 157.461 72.6103 157.946C72.4293 159.177 72.3486 160.427 72.3704 161.677C73.2471 161.966 74.1348 162.215 75.0267 162.426C74.8632 161.278 74.6931 160.131 74.4902 158.993C74.3986 158.481 74.2896 157.778 73.8164 157.471H73.8185Z" fill="#C8D4ED"/>
<path d="M34.9529 49.6766C34.8024 49.6679 34.689 49.6022 34.6127 49.5103C33.4154 49.6263 32.2682 50.0554 31.2803 50.7931C29.8736 51.8439 28.2423 54.1644 29.4614 55.8961C30.7264 57.6934 33.2453 55.537 34.4644 54.6329C35.2953 54.0156 36.1066 53.2581 36.4054 52.227C36.7216 51.1259 36.2375 49.7554 34.9507 49.6766H34.9529Z" fill="black"/>
<path d="M95.7059 151.499C95.6993 151.477 95.6906 151.46 95.6841 151.438C94.9447 149.932 94.4737 148.299 94.3734 146.596C94.3646 146.471 94.3624 146.346 94.3581 146.221C93.6755 145.998 93.0016 145.753 92.3364 145.484C86.6879 143.207 82.8103 138.87 79.0919 134.198C78.2414 133.13 77.3843 132.044 76.5621 130.932C75.5414 136.026 75.561 141.285 76.621 146.372C77.1204 145.744 77.6547 145.142 78.2217 144.568C78.6557 144.131 79.3274 144.807 78.8956 145.247C78.1716 145.98 77.502 146.762 76.8936 147.581C76.6428 147.918 76.3985 148.262 76.1695 148.612C74.608 150.97 73.5023 153.603 72.8982 156.357C73.1839 156.274 73.5067 156.276 73.8512 156.397C74.3921 156.587 74.741 156.95 74.9788 157.395C75.199 157.237 75.4738 157.139 75.7639 157.106C76.6253 157.007 77.5522 157.465 78.213 157.986C78.49 158.203 78.7364 158.437 78.9523 158.689C78.961 158.682 78.9676 158.68 78.9741 158.678C80.4462 158.058 82.8539 157.309 84.1908 158.608C84.8036 159.203 85.0217 160.068 85.2071 160.873C85.3794 161.624 85.543 162.377 85.7022 163.128C88.3149 162.866 90.8992 162.288 93.392 161.392C93.429 161.197 93.4683 161.003 93.5097 160.808C94.0986 158.069 95.2283 155.464 96.3514 152.885C96.1159 152.434 95.8978 151.974 95.6993 151.502L95.7059 151.499Z" fill="#C8D4ED"/>
<path d="M83.9204 159.864C83.1374 158.251 80.9129 158.923 79.5259 159.477C80.202 160.593 80.5095 161.916 80.6992 163.24C81.288 163.273 81.8812 163.288 82.4701 163.288C83.2312 163.288 83.9901 163.262 84.7469 163.207C84.6728 162.864 84.5964 162.522 84.5223 162.176C84.3587 161.425 84.2584 160.563 83.9204 159.862V159.864Z" fill="#C8D4ED"/>
<path d="M77.4104 158.573C77.3035 158.503 75.2971 157.638 75.4585 158.297C75.4956 158.448 75.465 158.579 75.3909 158.678C75.4388 158.923 75.4759 159.17 75.513 159.405C75.6766 160.482 75.8401 161.559 76.0015 162.638C77.2403 162.89 78.4899 163.069 79.7417 163.172C79.5913 162.126 79.3514 161.088 78.8345 160.169C78.4834 159.545 78.0079 158.973 77.4082 158.573H77.4104Z" fill="#C8D4ED"/>
<path d="M76.6208 112.353C77.5237 110.271 77.5586 107.887 77.5237 105.652C77.5062 104.671 77.4386 103.692 77.2576 102.742C76.4681 106.943 75.0135 111.022 72.9329 114.767C72.7148 115.159 72.4902 115.547 72.2568 115.932C74.2829 115.759 75.8444 114.146 76.6208 112.35V112.353Z" fill="#F390BC"/>
<path d="M77.8814 119.759C79.1267 118.631 80.0579 117.075 80.8016 115.501C81.0677 114.942 81.3098 114.382 81.5344 113.837C81.5431 113.819 81.5497 113.8 81.5584 113.784C82.4417 111.626 83.0894 109.38 83.7349 107.142C83.9072 106.551 84.8254 106.803 84.6553 107.396C84.1035 109.314 83.543 111.234 82.8429 113.101C83.6433 112.688 84.4699 112.32 85.3073 111.974C87.7652 110.956 90.2427 109.977 92.7289 109.03C97.0012 107.401 101.426 106.201 105.679 104.529C109.757 102.924 113.432 100.588 115.953 96.9168C117.774 94.2636 118.923 91.3695 119.624 88.3506C119.709 87.9763 119.789 87.5997 119.861 87.221C120.16 85.6776 120.352 84.1058 120.463 82.5209C120.529 82.1312 120.557 81.7328 120.537 81.3234C120.537 81.3102 120.537 81.2971 120.537 81.2818C120.542 81.1723 120.548 81.0629 120.553 80.9534C120.537 80.9359 120.524 80.9206 120.509 80.9031C120.485 80.6666 120.45 80.4368 120.404 80.2069C119.759 79.3203 119.146 78.403 118.564 77.4617C117.674 76.03 116.865 74.5479 116.16 73.0374C114.758 70.0382 113.744 66.8705 112.117 63.9786C111.816 63.44 112.64 62.9606 112.941 63.497C113.681 64.8083 114.302 66.1765 114.884 67.5644C117.011 72.6477 119.299 77.7463 122.952 81.9188C123.279 82.2932 123.617 82.661 123.968 83.0222C124.014 83.0681 124.059 83.1141 124.105 83.1601C127.922 86.9736 133.57 88.9329 138.75 86.7919C141.485 85.6623 143.831 83.4753 144.889 80.6754C146.001 77.7309 146.019 74.3793 146.512 71.2926C147.467 65.3227 149.05 59.6878 152.503 54.6637C154.193 52.2008 156.081 49.8738 157.61 47.3015C159.08 44.8321 160.066 42.1526 160.53 39.3132C161.481 33.4966 160.308 27.426 158.042 22.0494C153.687 11.7209 144.824 2.44101 133.304 1.01805C127.296 0.275922 121.58 1.96815 116.782 5.62844C114.634 7.26813 112.571 9.13768 110.68 11.1736C110.313 11.5655 109.956 11.9639 109.607 12.3711C107.751 14.5121 106.096 16.8151 104.737 19.2166C104.434 19.753 103.609 19.2692 103.912 18.7328C104.715 17.3164 105.611 15.9569 106.591 14.6566C107.603 13.319 108.684 12.034 109.825 10.8015C101.679 5.62625 92.0833 2.70152 82.4177 1.86307C77.9643 1.47778 73.4826 1.50405 69.0292 1.87402C68.4404 1.92218 67.8537 1.97691 67.2671 2.0382C66.5081 1.7361 65.7317 1.52156 64.9401 1.3727C62.6654 0.952375 60.2861 1.09905 57.9569 1.40991C58.622 1.60037 59.2741 1.84118 59.9 2.12796C60.3733 2.3425 60.8335 2.5855 61.2805 2.85695C62.2728 3.45022 63.1954 4.17702 64.0285 5.01985C64.3861 5.38326 64.011 5.89771 63.5639 5.82109C60.5172 5.29788 57.3877 5.35699 54.3715 6.05752C52.3084 6.53695 50.2278 7.33818 48.6707 8.78741C54.088 7.68626 59.8826 9.30625 63.9369 13.1263C64.2444 13.4175 64.0023 13.9407 63.5988 13.9451C59.4442 13.9845 55.4576 15.8147 52.69 18.8729C55.2242 17.8177 58.1204 17.7652 60.7091 18.8007C61.274 19.0262 61.0276 19.9522 60.4562 19.7245C57.3506 18.4832 53.883 18.8882 51.1438 20.8169C50.7556 21.0927 50.2365 20.5498 50.4917 20.1623C53.1633 16.1036 57.597 13.47 62.395 13.0497C58.2469 9.6806 52.5483 8.54004 47.4145 10.0943C47.0416 10.2082 46.625 9.73533 46.8758 9.39163C50.1886 4.89726 56.8643 4.07851 62.2096 4.67615C61.455 4.06756 60.6372 3.54873 59.7735 3.12622C53.2963 4.31056 46.7275 6.01593 40.9569 9.16395C39.4368 9.99584 37.9887 10.9219 36.6169 11.9354C36.3639 12.1237 36.111 12.3142 35.8623 12.509C27.7756 18.7941 22.4063 28.1003 19.9484 37.8924C18.2866 44.5059 17.8461 51.3733 18.2648 58.162C18.7053 65.2899 20.04 72.3325 20.4173 79.467C20.4871 80.8024 20.5002 82.1356 20.4915 83.4688C20.4871 83.8891 20.4849 84.305 20.4784 84.7232C20.4588 86.1811 20.4304 87.6391 20.4391 89.0993C20.4631 92.1817 20.7052 95.391 22.1053 98.2041C23.5229 101.048 26.0505 103.003 28.7439 104.634C31.5202 106.317 34.3837 107.869 37.2145 109.461C37.8121 108.957 38.4794 108.546 39.1926 108.215C39.1555 108.128 39.1446 108.025 39.1729 107.909C39.7683 105.492 41.1597 103.581 42.9764 102.162C43.1639 99.8525 43.7746 97.4269 44.9632 95.4567C45.624 92.683 46.2281 89.8874 46.6206 87.0634C42.8172 85.9425 38.6953 84.9968 34.7981 85.3383C34.4818 85.3668 34.1656 85.404 33.8516 85.4478C33.0795 85.5616 32.3184 85.728 31.5704 85.96C31.2607 86.0542 30.9532 86.1614 30.65 86.2818C29.5007 86.7306 28.395 87.3436 27.3482 88.1623C26.8684 88.5367 26.1901 87.8646 26.6743 87.4859C27.8978 86.5314 29.191 85.8287 30.5279 85.3361C30.1114 81.5532 30.4494 77.674 31.2345 73.9721C32.0349 70.2024 33.9715 65.8613 38.1217 64.944C40.1325 64.4996 41.8663 65.1126 43.2577 66.2663C43.5849 66.5355 43.8924 66.8376 44.1781 67.1616C44.9784 68.057 45.624 69.1275 46.106 70.2352C48.3108 75.3053 48.4177 80.8855 47.7002 86.3891C47.6587 86.7087 47.6151 87.0284 47.5671 87.348C47.2553 89.4758 46.8278 91.5862 46.3611 93.644C47.4625 92.5385 48.8648 91.746 50.6182 91.4505C51.2179 91.3498 51.4753 92.2714 50.8712 92.3743C48.5791 92.7596 46.9587 94.0665 45.8573 95.8047C45.5149 96.3455 45.2249 96.9256 44.9784 97.532C44.4768 98.7689 44.165 100.115 44.0036 101.444C45.8442 100.279 48.0055 99.5482 50.1864 99.2439C50.7883 99.1607 51.0457 100.082 50.4394 100.168C48.1015 100.496 45.7745 101.311 43.8967 102.668C43.5805 102.893 43.2773 103.136 42.9873 103.395C41.6984 104.55 40.7017 106.017 40.187 107.817C40.7977 107.607 41.4301 107.451 42.067 107.344C44.7669 106.893 47.7896 106.875 50.2736 108.152C50.821 108.434 50.339 109.259 49.7938 108.979C47.5541 107.828 44.7538 107.871 42.3221 108.268C40.7759 108.519 39.2689 109.067 38.0563 110.006C37.8121 110.194 37.5787 110.398 37.3628 110.621C36.9833 111.004 36.6475 111.438 36.3661 111.928C36.353 111.95 36.34 111.972 36.3247 111.991C36.5711 112.077 36.8132 112.182 37.0509 112.307C38.9548 113.292 40.2219 115.161 41.2644 116.972C41.5741 117.508 40.7497 117.99 40.4422 117.456C39.5219 115.86 38.4489 114.209 36.8198 113.27C34.8788 112.147 32.6215 112.578 30.5497 113.02C31.5028 114.767 32.1003 116.714 32.2791 118.749C32.3337 119.365 31.3784 119.358 31.3261 118.749C31.0142 115.199 29.2783 111.895 26.5718 109.625C26.4889 109.553 26.4017 109.483 26.3166 109.417C26.3101 109.518 26.3013 109.618 26.2904 109.719C26.1596 110.892 25.7387 111.989 24.7922 112.823C23.054 114.358 20.4828 115.236 18.2234 115.549C16.6618 115.763 15.0305 115.617 13.5388 115.12C16.1973 120.218 19.7303 124.927 24.3167 128.408C29.6097 132.421 36.0281 134.255 42.6405 133.774C49.3489 133.288 55.8087 130.634 61.2064 126.657C63.758 124.778 66.0349 122.605 68.0129 120.205C68.2179 119.956 68.4208 119.706 68.6192 119.45C69.3018 118.579 69.9495 117.677 70.5515 116.751C70.7412 116.466 70.9244 116.177 71.1011 115.888C73.9624 111.258 75.8488 106.048 76.6143 100.623C76.6928 100.08 76.7583 99.5373 76.8106 98.9922C76.876 98.3529 76.924 97.7071 76.9545 97.0613C75.7485 97.0153 74.4923 97.2343 73.3823 97.5517C72.7912 97.7203 72.5383 96.7964 73.1293 96.6279C74.3331 96.2842 75.6853 96.0674 76.9916 96.1178C77.3144 96.1287 77.635 96.1572 77.949 96.2075C79.7461 96.4746 81.3599 97.3459 82.2388 99.2045C82.5027 99.7606 81.6783 100.244 81.4145 99.6883C80.6817 98.1406 79.3819 97.4028 77.9141 97.1555C77.8596 98.2829 77.7593 99.4081 77.6132 100.527C78.3154 102.285 78.479 104.218 78.4833 106.124C78.4899 108.589 78.3678 111.219 77.1595 113.428C76.176 115.229 74.4378 116.7 72.342 116.882C72.1086 116.904 71.8796 116.906 71.6528 116.9C70.9746 117.955 70.244 118.979 69.461 119.967C70.0608 120.31 70.6867 120.604 71.3213 120.829C71.6768 120.956 72.0345 121.061 72.3943 121.138C74.283 121.554 76.2109 121.271 77.8858 119.754L77.8814 119.759ZM114.313 23.792C117.218 19.2582 121.39 15.1207 125.968 12.2923C130.513 9.48138 136.525 8.3058 141.14 11.6268C143.395 13.2511 145.14 15.5257 146.858 17.682C148.697 19.9938 150.444 22.3953 151.879 24.9829C154.686 30.0377 156.251 35.9222 154.963 41.6731C154.827 42.2752 153.907 42.0168 154.042 41.4192C155.449 35.145 153.248 28.8315 149.92 23.5534C148.416 21.1672 146.682 18.9342 144.885 16.7626C143.314 14.8602 141.672 12.8943 139.474 11.7078C134.515 9.02603 128.74 11.3159 124.572 14.3983C116.341 20.4907 108.617 31.0053 112.342 41.7476C112.544 42.3321 111.622 42.5816 111.421 42.0015C109.293 35.8587 110.887 29.1358 114.313 23.792ZM36.5515 53.9741C35.6857 55.0949 34.4164 55.8611 33.2322 56.5967C32.2203 57.2272 31.1189 57.9233 29.8998 57.4373C27.3351 56.415 27.9741 53.1597 29.3044 51.4215C29.6032 51.034 29.9412 50.6772 30.312 50.3576C31.2825 49.5147 32.5583 48.8449 33.8341 48.6303C34.7632 48.4727 35.7817 48.661 36.5035 49.2958C36.7543 49.5169 36.9637 49.7884 37.112 50.1058C37.6899 51.3361 37.3628 52.9277 36.5537 53.9741H36.5515ZM85.7217 47.6189C85.7435 47.2927 85.8155 46.9709 85.9398 46.671C86.1579 46.15 86.5286 45.7121 86.9757 45.375C88.2232 44.4293 90.1184 43.9674 91.6166 44.495C92.3952 44.7664 93.1236 45.2831 93.7561 45.8063C94.4322 46.3645 95.0406 46.9994 95.6076 47.6693C96.8617 49.1601 98.0393 51.5944 96.3949 53.2867C94.7615 54.9701 91.8543 53.7814 90.1227 52.9058C88.197 51.9338 85.556 50.1058 85.7217 47.6211V47.6189ZM78.8694 84.0752C78.5575 84.1627 78.2456 84.2547 77.9359 84.3554C76.9022 84.6838 75.8859 85.0734 74.8936 85.5288C74.5992 85.6623 74.3091 85.8024 74.0191 85.9491C73.9318 85.636 73.8533 85.3208 73.7792 85.0034C72.8632 81.0848 72.8283 76.9735 73.7356 73.0396C74.5774 69.3946 76.381 65.6029 79.7483 63.6962C82.7732 61.9799 86.6857 62.004 89.2329 64.5521L89.2765 64.5959C89.5666 64.8915 89.8305 65.2001 90.066 65.5241C92.284 68.5342 92.3472 72.663 92.3298 76.2817C92.3211 78.4271 92.2142 80.5703 92.0136 82.7047C93.6972 83.055 95.3503 83.5629 96.9511 84.2262C97.5116 84.4605 97.2629 85.3843 96.6981 85.15C95.1475 84.5064 93.5467 84.0117 91.9198 83.668C91.6079 83.6023 91.2939 83.541 90.982 83.4863C86.9604 82.7836 82.8059 82.9828 78.8715 84.0752H78.8694Z" fill="#C8D4ED"/>
<path d="M93.7647 53.1337C95.0885 53.2738 96.2117 52.6214 96.2357 51.1809C96.2553 49.9878 95.4745 48.9655 94.7287 48.1117C94.624 47.9935 94.5193 47.8753 94.4124 47.7593C93.8389 47.1331 93.2173 46.5377 92.5173 46.0539C92.0549 45.7343 91.5642 45.4322 91.0277 45.257C89.7803 44.852 88.2493 45.465 87.3355 46.3341C86.1774 47.4331 86.8077 49.029 87.7259 50.036C89.1631 51.6122 91.6427 52.9126 93.7669 53.1359L93.7647 53.1337Z" fill="black"/>
<path d="M17.7653 114.649C19.8022 114.437 21.9679 113.684 23.6537 112.504C24.8248 111.683 25.2697 110.514 25.3635 109.251C25.3722 109.121 25.3788 108.986 25.3809 108.854C24.622 108.723 23.8674 108.811 23.1586 109.121C23.1586 109.121 23.1572 109.121 23.1543 109.121C22.9449 109.174 22.7355 109.242 22.5262 109.325C20.3649 110.174 18.2756 112.421 16.4415 113.191C16.2234 113.281 15.9966 113.353 15.7632 113.412C15.1308 113.576 14.4503 113.651 13.7917 113.773C13.7437 113.78 13.6958 113.789 13.6456 113.8C13.6282 113.8 13.6085 113.806 13.5911 113.808C13.4384 113.846 13.2945 113.896 13.2029 113.981C14.6161 114.581 16.2256 114.807 17.7675 114.647L17.7653 114.649Z" fill="#F390BC"/>
<path d="M17.1634 53.1773C17.1874 46.2026 18.1994 39.1797 20.5634 32.5838C23.4684 24.4794 28.4822 17.1545 35.2539 11.8633C32.9792 9.52742 30.2945 7.59 27.3329 6.24804C24.862 5.12938 22.2296 4.68497 19.5515 5.22132C17.17 5.69637 14.8997 6.72309 12.8584 8.02784C6.31572 12.207 2.05645 19.6042 1.10341 27.2641C0.822072 29.5496 0.867871 31.857 1.04016 34.149C1.22554 36.625 1.42836 39.1491 1.99321 41.5703C2.53843 43.9083 3.63759 46.0296 4.43362 48.2823C5.22091 50.5087 5.64619 52.8445 6.00603 55.1716C6.72572 59.8367 7.2644 64.6113 6.49891 69.3071C5.76177 73.8321 3.13381 77.9565 2.92662 82.5735C2.89391 83.3156 2.84375 84.2328 3.20796 84.9027C3.48275 85.4062 3.99308 85.7302 4.47287 86.0126C5.37358 86.5446 6.34843 86.9321 7.36254 87.1882C9.49981 87.7311 11.7788 87.6589 13.9052 87.1007C15.9814 86.5556 17.87 85.5485 19.5471 84.2504C19.5624 81.2008 19.4272 78.1688 19.1306 75.1281C18.4218 67.8119 17.1394 60.546 17.1656 53.1751L17.1634 53.1773Z" fill="#C8D4ED"/>
<path d="M87.8458 64.6048C85.0826 62.5645 81.1221 63.4161 78.6795 65.6446C75.9905 68.0987 74.7823 71.8028 74.2742 75.3186C73.8249 78.4097 73.9776 81.5512 74.6645 84.5832C75.7114 84.1125 76.7865 83.7075 77.8813 83.3725C77.7745 81.0783 77.8399 78.7797 78.0929 76.4942C78.3742 73.9701 78.7253 71.2686 80.0121 69.0357C81.7328 66.0562 84.6944 64.8653 87.848 64.6048H87.8458Z" fill="#C8D4ED"/>
<path d="M46.3044 73.8516C46.8998 76.2684 47.1135 78.7816 47.0852 81.2707C47.1157 78.7816 46.8998 76.2662 46.3044 73.8516Z" fill="#C8D4ED"/>
<path d="M169.147 116.418C169.014 115.669 168.855 114.927 168.672 114.194C168.36 112.928 167.969 111.687 167.498 110.485C166.035 106.753 163.775 103.381 160.467 100.691C155.602 96.7372 149.386 94.4802 143.236 93.6045C137.507 92.7857 131.653 93.2061 126.107 94.7954C127.754 97.1641 129.228 99.651 130.517 102.243C130.79 102.795 129.967 103.278 129.693 102.727C128.367 100.06 126.844 97.5078 125.143 95.0844C124.951 94.8107 124.755 94.5393 124.559 94.2678C123.27 92.499 121.885 90.8024 120.402 89.1846C119.565 92.4464 118.188 95.5857 116.152 98.2609C113.63 101.571 110.178 103.727 106.372 105.273C102.052 107.028 97.5181 108.226 93.1563 109.883C90.8097 110.776 88.4783 111.707 86.1535 112.65C84.8297 113.189 83.5124 113.76 82.2911 114.489C82.2083 114.682 82.1276 114.874 82.0403 115.063C81.0589 117.252 79.7701 119.704 77.7375 121.085C76.1323 122.175 74.4094 122.442 72.7214 122.184C73.5175 124.489 74.7104 126.648 76.0953 128.697C76.3308 129.049 76.5751 129.4 76.8237 129.746C78.311 131.825 79.962 133.798 81.5387 135.707C83.4339 137.999 85.4622 140.236 87.8851 141.983C89.8675 143.41 92.079 144.444 94.3841 145.208C94.5063 143.434 95.058 141.703 96.0045 140.212C93.9174 136.232 92.4759 131.935 91.7431 127.484C91.6428 126.88 92.5631 126.622 92.6634 127.23C93.3591 131.462 94.6982 135.54 96.6305 139.336C96.8965 138.999 97.1888 138.68 97.5028 138.38C97.9477 137.955 98.6216 138.631 98.1789 139.056C97.7776 139.439 97.4265 139.844 97.1168 140.262C96.8965 140.558 96.7002 140.862 96.5258 141.173C95.7625 142.526 95.3983 144.01 95.3634 145.521C95.3568 145.86 95.3634 146.202 95.3917 146.543C95.5182 148.286 96.0591 150.033 96.9096 151.624C97.0906 151.968 97.2891 152.305 97.5006 152.635C97.4723 152.701 97.4461 152.765 97.4156 152.83C97.9586 153.807 98.5845 154.728 99.3064 155.591C99.699 156.062 99.0251 156.742 98.6325 156.27C98.0088 155.521 97.4439 154.735 96.9445 153.912C95.9827 156.127 95.0559 158.373 94.5194 160.711C94.4976 160.805 94.4779 160.897 94.4561 160.992C94.3754 161.357 94.3056 161.725 94.2402 162.095C94.2315 162.147 94.2206 162.202 94.214 162.255C95.1322 161.758 96.2968 161.65 97.2956 161.734C98.8332 161.863 99.3718 163.754 99.8145 164.989C99.8756 165.162 99.9345 165.333 99.989 165.508C100.135 164.739 100.39 164.019 100.826 163.465C101.644 162.419 103.095 162.242 104.272 162.732C105.465 163.231 106.366 164.223 107.022 165.42C107.548 164.328 108.527 163.483 109.827 163.391C112.431 163.207 113.042 166.478 113.465 168.713C117.517 168.538 121.593 168.174 125.527 167.231C125.004 165.048 124.48 162.865 123.95 160.683C123.562 159.083 123.093 157.557 122.299 156.108C122.016 155.584 121.704 155.076 121.379 154.579C120.799 155.42 120.123 156.213 119.353 156.942C118.906 157.364 118.23 156.69 118.677 156.265C119.497 155.49 120.206 154.634 120.799 153.719C120.989 153.43 121.163 153.135 121.329 152.835C121.719 152.121 122.046 151.379 122.306 150.617C122.411 150.308 122.507 149.998 122.59 149.68C123.412 146.598 123.185 143.27 121.852 140.297C121.693 139.94 121.521 139.592 121.327 139.249C120.956 138.579 120.524 137.929 120.031 137.313C119.652 136.838 120.324 136.158 120.707 136.637C121.12 137.151 121.493 137.688 121.826 138.239C123.309 135.081 124.179 131.654 124.365 128.13C124.397 127.515 125.351 127.515 125.318 128.13C125.113 132.018 124.116 135.81 122.391 139.264C124.051 142.546 124.426 146.289 123.553 149.759C126.299 149.969 129.051 150.098 131.797 150.109C132.268 150.114 132.737 150.109 133.208 150.109C135.841 150.083 138.471 149.947 141.086 149.667C140.117 147.916 139.295 146.061 138.484 144.251C136.181 139.128 134.377 133.625 134.944 127.935C135.003 127.326 135.958 127.322 135.897 127.935C135.359 133.336 136.999 138.568 139.164 143.445C140.078 145.501 141.025 147.581 142.13 149.547C142.215 149.695 142.3 149.844 142.385 149.995C142.457 150.122 142.532 150.247 142.608 150.37C142.625 150.396 142.641 150.422 142.658 150.448C142.835 150.737 143.02 151.022 143.216 151.298C144.196 152.69 145.417 153.89 147.076 154.444C147.659 154.636 147.408 155.562 146.826 155.368C145.17 154.816 143.881 153.721 142.835 152.384C142.08 154.702 141.716 157.119 141.537 159.56C141.526 159.717 141.515 159.873 141.504 160.028C141.493 160.201 141.483 160.374 141.474 160.547C141.448 161.013 141.426 161.484 141.406 161.95C141.496 161.858 141.594 161.773 141.698 161.69C142.545 161.031 143.583 160.957 144.507 161.515C145.375 162.042 145.975 162.817 146.405 163.702C146.427 163.66 146.448 163.616 146.472 163.573C147.033 162.592 148.082 162.126 149.181 162.25C150.684 162.423 151.602 163.305 152.151 164.464C152.627 163.837 153.353 163.483 154.162 163.586C156.262 163.846 156.768 165.937 156.825 167.76C159.872 167.734 162.903 167.489 165.797 166.456C165.952 166.401 166.107 166.344 166.26 166.287C166.135 160.65 165.583 155.017 163.85 149.641C163.102 150.678 162.279 151.666 161.374 152.592C160.945 153.032 160.271 152.355 160.7 151.913C161.73 150.856 162.65 149.719 163.466 148.522C163.649 148.255 163.826 147.986 163.996 147.712C166.578 143.623 168.065 138.874 168.879 134.087C169.777 128.809 170.139 123.04 169.332 117.569C169.278 117.182 169.215 116.797 169.143 116.416L169.147 116.418ZM106.935 152.651C104.185 152.093 100.853 150.899 100.327 147.723C100.323 147.695 100.318 147.668 100.314 147.638C100.266 147.316 100.266 146.996 100.307 146.687C100.573 144.68 102.589 143.102 104.636 143.984C105.199 144.227 104.713 145.05 104.155 144.811C103.136 144.371 101.971 145.026 101.481 145.95C101.328 146.234 101.25 146.541 101.228 146.854C101.202 147.204 101.247 147.563 101.346 147.907C101.437 148.233 101.577 148.544 101.745 148.826C102.879 150.731 105.171 151.315 107.19 151.725C107.792 151.847 107.535 152.771 106.937 152.649L106.935 152.651ZM152.075 152.209C149.96 152.033 147.144 151.618 145.48 150.03C145.214 149.776 144.976 149.492 144.776 149.174C144.725 149.096 144.678 149.015 144.634 148.934C144.121 147.983 143.993 146.755 144.444 145.757C144.715 145.159 145.672 144.021 146.32 144.855C146.693 145.335 146.023 146.018 145.644 145.532C145.694 145.595 145.203 146.427 145.168 146.596C145.081 147.007 145.114 147.445 145.221 147.848C145.338 148.283 145.554 148.667 145.836 148.999C146.097 149.312 146.416 149.575 146.762 149.803C146.782 149.816 146.8 149.827 146.817 149.84C148.337 150.801 150.313 151.112 152.069 151.254C152.677 151.304 152.681 152.261 152.069 152.211L152.075 152.209Z" fill="#C8D4ED"/>
<path d="M154.618 164.733C153.872 164.33 153.107 164.586 152.727 165.337C152.666 165.456 152.62 165.58 152.585 165.707C152.758 166.382 152.849 167.091 152.889 167.769C153.896 167.778 154.897 167.774 155.889 167.769C155.889 166.594 155.717 165.324 154.618 164.735V164.733Z" fill="#C8D4ED"/>
<path d="M169.832 114.927C169.969 115.564 170.087 116.206 170.187 116.852C171.906 117.373 173.851 117.042 175.389 115.897C176.396 115.146 177.12 114.176 177.589 113.097C176.656 113.905 175.572 114.606 174.451 114.956C173.081 115.387 171.243 115.499 169.834 114.925L169.832 114.927Z" fill="#C8D4ED"/>
<path d="M182.241 105.181C182.935 103.232 182.555 101.111 181.458 99.4254C181.07 98.83 180.594 98.2871 180.043 97.8273C179.713 97.5515 179.364 97.3085 179 97.0983C177.142 96.0147 174.894 95.7323 172.759 95.9928C175.155 97.442 177.487 99.397 177.321 102.462C177.286 103.077 176.333 103.079 176.368 102.462C176.462 100.756 175.655 99.4561 174.512 98.4118C174.584 100.691 173.081 102.689 172.996 104.992C172.902 107.558 175.131 110.146 177.635 110.811C177.812 110.859 177.988 110.894 178.167 110.923C178.167 110.923 178.174 110.923 178.176 110.923C178.198 110.923 178.215 110.923 178.235 110.927C178.553 110.94 178.85 110.936 179.133 110.905C179.168 110.901 179.203 110.899 179.236 110.892C179.753 110.822 180.23 110.667 180.714 110.395C180.9 110.292 181.087 110.172 181.279 110.032C181.336 109.99 181.393 109.964 181.449 109.953C183.212 108.572 184.175 105.367 184.016 103.53C183.949 102.749 183.709 102.05 183.349 101.431C183.663 102.744 183.628 104.132 183.164 105.433C182.959 106.008 182.038 105.761 182.243 105.179L182.241 105.181Z" fill="#C8D4ED"/>
<path d="M151.63 165.65C151.321 164.591 150.727 163.682 149.582 163.317C147.785 162.743 147.153 164.022 147.029 165.434C147.216 166.13 147.347 166.841 147.46 167.511C148.852 167.656 150.254 167.721 151.656 167.752C151.558 167.054 151.491 166.333 151.632 165.65H151.63Z" fill="#C8D4ED"/>
<path d="M129.488 157.303C129.363 158.102 129.333 158.868 129.42 159.545C129.564 159.591 129.708 159.634 129.852 159.676C130.772 159.943 131.708 160.109 132.659 160.19C132.039 158.741 131.097 157.428 129.49 157.301L129.488 157.303Z" fill="#C8D4ED"/>
<path d="M132.584 158.163C133.04 158.785 133.4 159.512 133.695 160.249C134.312 160.269 134.938 160.256 135.564 160.219C135.904 160.197 136.244 160.177 136.586 160.153C136.394 159.65 136.146 159.175 135.795 158.759C135.029 157.848 133.561 157.351 132.582 158.161L132.584 158.163Z" fill="#C8D4ED"/>
<path d="M106.809 168.647C106.599 168.073 106.538 167.445 106.61 166.828C106.178 165.81 105.574 164.882 104.774 164.179C103.657 163.2 101.854 163.056 101.245 164.669C100.778 165.908 100.733 167.355 100.741 168.667C102.826 168.949 104.95 168.978 107.068 168.932C106.957 168.881 106.863 168.789 106.811 168.649L106.809 168.647Z" fill="#C8D4ED"/>
<path d="M110.654 164.477C109.585 163.964 108.398 164.862 107.897 165.757C107.74 166.04 107.633 166.331 107.572 166.635C107.456 167.215 107.517 167.82 107.727 168.391C107.818 168.643 107.698 168.831 107.515 168.918C107.746 168.912 107.978 168.908 108.209 168.899C109.269 168.866 110.326 168.822 111.378 168.789C111.737 168.778 112.099 168.765 112.461 168.752C112.302 168.045 112.139 167.34 111.953 166.642C111.746 165.86 111.445 164.858 110.654 164.477Z" fill="#C8D4ED"/>
<path d="M142.076 151.324C141.914 151.077 141.762 150.827 141.611 150.576C138.497 150.93 135.359 151.084 132.22 151.081C131.084 152.423 130.142 154.422 129.68 156.353C130.602 156.44 131.35 156.85 131.963 157.439C133.045 156.532 134.608 156.657 135.764 157.439C136.689 158.065 137.221 159.037 137.574 160.083C138.576 160.002 139.579 159.893 140.571 159.735C140.767 156.911 141.188 154.1 142.15 151.436C142.126 151.399 142.1 151.364 142.078 151.327L142.076 151.324Z" fill="#C8D4ED"/>
<path d="M146.014 165.302C145.781 164.536 145.456 163.809 144.957 163.19C144.276 162.349 143.203 161.668 142.237 162.493C141.773 162.89 141.517 163.428 141.345 164C141.341 164.172 141.336 164.345 141.334 164.521C141.321 165.088 141.31 165.652 141.328 166.213C142.891 166.762 144.512 167.119 146.163 167.351C146.158 167.34 146.156 167.327 146.156 167.316C146.071 166.668 145.984 165.976 146.019 165.302H146.014Z" fill="#C8D4ED"/>
<path d="M152.088 151.353C150.333 151.208 148.357 150.899 146.837 149.938C146.817 149.927 146.8 149.917 146.782 149.901C146.435 149.674 146.117 149.409 145.855 149.098C145.574 148.767 145.36 148.384 145.24 147.946C145.131 147.543 145.098 147.106 145.188 146.694C145.223 146.528 145.713 145.694 145.663 145.63C146.041 146.116 146.71 145.433 146.339 144.954C145.692 144.12 144.734 145.258 144.464 145.856C144.012 146.854 144.139 148.082 144.654 149.032C144.697 149.115 144.745 149.194 144.795 149.273C144.996 149.59 145.231 149.875 145.5 150.129C147.164 151.716 149.979 152.134 152.095 152.307C152.708 152.357 152.703 151.399 152.095 151.35L152.088 151.353Z" fill="#1D1D1B"/>
<path d="M182.233 98.9418C181.816 98.3135 181.31 97.7421 180.732 97.2539C178.117 95.0494 174.499 94.662 171.261 95.3888C170.859 95.4785 170.796 96.0696 171.147 96.2644C171.897 96.6782 172.7 97.1335 173.446 97.6589C173.446 97.6896 173.452 97.7224 173.461 97.7552C173.88 99.4146 173.121 100.995 172.602 102.539C172.107 104.008 171.828 105.514 172.355 107.015C173.149 109.283 175.204 111.354 177.587 111.899C176.721 112.742 175.705 113.546 174.602 113.995C173.284 114.529 171.276 114.713 169.967 114.034C169.821 113.957 169.682 113.87 169.551 113.769C168.397 109.22 166.273 104.977 162.858 101.637C158.31 97.1904 152.18 94.5109 146.026 93.228C139.247 91.8138 132.164 92.1072 125.534 94.0709C124.042 91.9999 122.42 90.0275 120.679 88.1667C120.764 87.7836 120.839 87.4005 120.908 87.0174C121.209 85.358 121.39 83.6854 121.486 82.0085C121.696 82.2165 121.914 82.4201 122.132 82.6259C122.121 82.5712 122.108 82.5121 122.099 82.4551C122.319 82.7157 122.551 82.9696 122.786 83.2213C125.942 86.573 129.992 88.946 134.801 88.7293C137.446 88.6111 140.006 87.6719 142.096 86.0366C144.521 84.1386 145.914 81.5641 146.47 78.5518C147.075 75.2703 147.323 71.9318 147.971 68.6524C148.619 65.373 149.504 62.098 151.009 59.1011C153.809 53.5143 158.646 49.1929 160.613 43.153C162.461 37.483 162.025 31.2658 160.31 25.6199C157 14.7113 148.725 4.23609 137.49 1.00706C131.802 -0.628246 125.589 -0.339276 120.276 2.37748C117.53 3.78293 115.09 5.73786 112.854 7.8526C112.043 8.621 111.247 9.40691 110.475 10.2191C103.647 5.8517 95.7933 3.00797 87.7436 1.69665C81.0418 0.604257 74.2025 0.510122 67.4505 1.19095C63.4748 -0.313006 59.065 0.328421 54.9388 1.0202C54.3783 1.11214 54.5615 1.92433 55.0653 1.96154C56.1186 2.03597 57.148 2.24176 58.1338 2.56356C53.5212 3.45893 48.9675 4.71114 44.6712 6.47999C41.5438 7.76722 38.6541 9.42661 36.0174 11.3903C34.0525 9.35656 31.7909 7.61836 29.2981 6.26326C27.2961 5.17524 25.1239 4.32585 22.8384 4.1529C20.3849 3.96901 17.9445 4.59511 15.7025 5.55178C8.27443 8.72608 2.94871 15.7599 0.90522 23.4964C-0.350969 28.2557 -0.0914441 33.0872 0.451596 37.934C0.739472 40.4866 1.23017 42.9297 2.19412 45.3181C3.18424 47.7634 4.10021 50.1386 4.61708 52.7372C5.65082 57.9342 6.42504 63.5232 5.64646 68.8057C4.93113 73.659 2.05891 78.0549 1.97385 83.0134C1.95204 84.2371 2.08508 85.4127 3.03812 86.2709C3.85159 86.9999 4.91804 87.4815 5.9387 87.8536C8.2657 88.7074 10.8348 88.8103 13.2556 88.3396C15.5629 87.8887 17.6675 86.8948 19.5452 85.5506C19.5452 85.6382 19.5452 85.7258 19.5409 85.8133C19.4754 88.8913 19.3904 92.0131 20.0228 95.0472C20.6379 97.9917 22.0445 100.63 24.3039 102.683C26.7138 104.87 29.6907 106.381 32.5149 107.979C33.8496 108.734 35.1843 109.489 36.519 110.244C36.1548 110.636 35.8321 111.072 35.5529 111.551C35.4897 111.659 35.4722 111.766 35.4918 111.862C33.7755 111.508 31.9632 111.851 30.2425 112.217C30.1727 112.232 30.1138 112.258 30.0658 112.296C29.0953 110.768 27.8348 109.419 26.3321 108.333C26.3321 108.333 26.3256 108.329 26.3256 108.327C26.2733 108.233 26.1817 108.158 26.0486 108.121C24.9495 107.823 23.835 107.902 22.8078 108.342C22.8078 108.342 22.8035 108.342 22.8013 108.346C20.2584 109.159 17.8899 111.899 15.5259 112.62C15.4583 112.639 15.395 112.657 15.3274 112.677H15.3209C14.8258 112.758 14.3351 112.839 13.8422 112.922C13.502 112.977 13.1509 113.009 12.8477 113.176C12.8085 113.198 12.7714 113.22 12.7343 113.246C12.6929 113.274 12.6536 113.305 12.6187 113.338C12.5075 113.432 12.4181 113.539 12.3527 113.653C12.224 113.872 12.1717 114.119 12.1826 114.373C12.1869 114.472 12.1978 114.568 12.2196 114.667C12.2262 114.688 12.2284 114.708 12.2371 114.73C12.3156 114.89 12.3963 115.05 12.477 115.21C14.9196 120.015 18.1146 124.481 22.1972 128.001C27.1958 132.309 33.3568 134.803 39.9692 134.91C51.0939 135.087 61.7911 129.362 68.8637 120.833C69.7557 121.357 70.6957 121.781 71.6574 122.051C72.5625 124.914 74.0869 127.524 75.8273 129.989C74.5406 135.735 74.558 141.733 75.8818 147.476C74.7957 148.995 73.895 150.637 73.195 152.362C72.4949 154.085 71.9933 155.891 71.7098 157.732C71.568 158.63 71.4808 159.538 71.4481 160.449C71.4415 160.536 71.4415 160.624 71.4394 160.711C71.435 160.775 71.435 160.836 71.435 160.9C71.4306 161.029 71.4284 161.162 71.4284 161.292V161.447C71.4284 161.526 71.4284 161.605 71.4284 161.681C71.4328 161.946 71.4415 162.209 71.4546 162.474C71.7774 162.588 72.1002 162.695 72.4251 162.8C73.3367 163.091 74.2592 163.341 75.1905 163.549C75.5176 163.621 75.8426 163.691 76.1719 163.752C77.3975 163.991 78.6384 164.157 79.8815 164.253C80.2 164.278 80.5205 164.299 80.839 164.315C82.2173 164.383 83.5978 164.365 84.9739 164.262C85.2923 164.24 85.6129 164.21 85.9313 164.177C88.4088 163.921 90.8601 163.384 93.2286 162.57C93.1871 162.841 93.1479 163.113 93.113 163.387C92.993 164.31 92.908 165.241 92.8491 166.171C92.8273 166.524 92.8098 166.874 92.7924 167.226C92.9821 167.325 93.1697 167.419 93.3616 167.513C93.4815 167.572 93.6037 167.629 93.7258 167.688C95.6406 168.584 97.6667 169.225 99.7559 169.58C99.913 169.606 100.07 169.632 100.229 169.654C100.391 169.678 100.556 169.7 100.718 169.722C102.931 170.009 105.178 170.031 107.42 169.978C107.736 169.972 108.054 169.963 108.373 169.954C109.385 169.923 110.392 169.884 111.395 169.853C111.829 169.84 112.261 169.825 112.695 169.81C113.018 169.796 113.341 169.783 113.663 169.768C117.735 169.582 121.813 169.201 125.756 168.253C126.066 168.181 126.374 168.102 126.681 168.019C126.609 167.712 126.535 167.406 126.461 167.099C125.911 164.794 125.362 162.489 124.795 160.188C124.212 157.822 123.196 155.797 121.933 153.835C122.507 152.872 122.963 151.856 123.296 150.805C125.499 150.981 127.706 151.103 129.918 151.158C130.284 151.167 130.648 151.173 131.015 151.178C129.942 152.662 129.108 154.641 128.707 156.552C128.509 157.509 128.415 158.441 128.456 159.291C128.469 159.604 128.502 159.901 128.555 160.186C128.568 160.265 128.596 160.328 128.637 160.376C128.775 160.429 128.912 160.475 129.05 160.521C129.113 160.543 129.178 160.563 129.241 160.584C130.485 160.983 131.752 161.206 133.047 161.292C133.383 161.313 133.721 161.327 134.059 161.329C134.441 161.333 134.825 161.324 135.211 161.307C135.769 161.281 136.332 161.25 136.899 161.211C137.217 161.189 137.538 161.165 137.858 161.136C138.748 161.062 139.638 160.961 140.519 160.823C140.462 161.878 140.427 162.938 140.401 163.995C140.395 164.319 140.386 164.643 140.379 164.965C140.375 165.147 140.373 165.328 140.373 165.51C140.373 165.659 140.373 165.808 140.373 165.957C140.377 166.305 140.388 166.651 140.412 166.994C140.739 167.121 141.071 167.237 141.402 167.345C144.789 168.454 148.414 168.746 152.012 168.816C152.307 168.822 152.601 168.824 152.893 168.827C153.894 168.838 154.893 168.833 155.881 168.831C156.075 168.831 156.269 168.831 156.461 168.831C156.583 168.831 156.705 168.831 156.827 168.827C159.957 168.798 163.091 168.546 166.064 167.489C166.138 167.463 166.214 167.437 166.288 167.406C166.604 167.292 166.921 167.174 167.235 167.049C167.228 166.71 167.224 166.373 167.215 166.033C167.069 160.175 166.452 154.323 164.537 148.765C166.921 145.133 168.454 140.965 169.378 136.698C170.696 130.632 171.132 124.159 170.345 117.99C172.211 118.41 174.255 118.014 175.88 116.832C177.533 115.63 178.54 113.918 178.968 112.037C178.972 112.02 178.974 112.005 178.979 111.987C179.129 111.98 179.275 111.963 179.419 111.945C180.248 111.832 180.996 111.525 181.768 110.965C181.814 110.932 181.851 110.895 181.881 110.853C183.696 109.513 184.823 106.74 184.981 104.642C185.164 102.182 183.971 100.292 182.233 98.944V98.9418ZM13.9164 87.2056C11.7922 87.7639 9.51099 87.8361 7.37372 87.2932C6.35961 87.0371 5.38475 86.6496 4.48405 86.1176C4.00425 85.8352 3.49393 85.5112 3.21914 85.0077C2.85275 84.34 2.90509 83.4228 2.9378 82.6784C3.14499 78.0615 5.77513 73.9371 6.51009 69.4121C7.27776 64.7141 6.7369 59.9395 6.01721 55.2766C5.65955 52.9473 5.23209 50.6137 4.44479 48.3873C3.64877 46.1346 2.54961 44.0133 2.00438 41.6753C1.43954 39.2541 1.23671 36.7299 1.05352 34.254C0.88123 31.9619 0.83325 29.6545 1.11677 27.3691C2.06763 19.707 6.32908 12.3119 12.8674 8.13281C14.9087 6.82588 17.1812 5.80135 19.5605 5.3263C22.2386 4.78995 24.8709 5.23435 27.3419 6.35302C30.3057 7.69279 32.9882 9.63239 35.2629 11.9682C28.4912 17.2595 23.4795 24.5844 20.5724 32.6887C18.2083 39.2847 17.1986 46.3076 17.1724 53.2823C17.1463 60.6532 18.4286 67.9191 19.1374 75.2353C19.434 78.276 19.5692 81.3102 19.554 84.3575C17.8769 85.6557 15.9882 86.6605 13.912 87.2078L13.9164 87.2056ZM13.6045 113.916C13.6241 113.911 13.6438 113.907 13.659 113.907C13.7092 113.896 13.7572 113.887 13.8051 113.881C14.4638 113.758 15.1442 113.684 15.7767 113.519C16.0122 113.46 16.239 113.388 16.4549 113.298C18.2912 112.528 20.3783 110.279 22.5396 109.432C22.7468 109.349 22.9583 109.283 23.1677 109.229C23.1677 109.229 23.1691 109.229 23.172 109.229C23.8808 108.916 24.6354 108.828 25.3944 108.962C25.3944 109.093 25.3856 109.229 25.3769 109.358C25.2831 110.621 24.8382 111.79 23.6671 112.611C21.9835 113.791 19.8178 114.544 17.7809 114.756C16.2368 114.916 14.6295 114.691 13.2163 114.091C13.3101 114.005 13.4518 113.955 13.6045 113.918V113.916ZM71.3325 120.939C70.6978 120.715 70.0741 120.42 69.4722 120.076C70.2551 119.089 70.9857 118.064 71.664 117.009C71.8908 117.016 72.1198 117.013 72.3531 116.991C74.4468 116.81 76.1849 115.339 77.1707 113.537C78.3789 111.328 78.5011 108.699 78.4945 106.234C78.4901 104.329 78.3266 102.394 77.6243 100.636C77.7705 99.5175 77.873 98.3945 77.9253 97.2649C79.393 97.5144 80.6928 98.25 81.4256 99.7977C81.6895 100.354 82.5139 99.8678 82.25 99.3139C81.3711 97.4553 79.7572 96.584 77.9602 96.317C77.6461 96.2666 77.3255 96.2382 77.0028 96.2272C75.6964 96.1747 74.3443 96.3914 73.1404 96.7373C72.5516 96.9059 72.8024 97.8297 73.3934 97.6611C74.5035 97.3437 75.7619 97.1248 76.9657 97.1707C76.9352 97.8165 76.8872 98.4624 76.8218 99.1016C76.7694 99.6467 76.704 100.192 76.6255 100.733C75.86 106.155 73.9735 111.365 71.1122 115.998C70.9356 116.289 70.7524 116.576 70.5626 116.86C69.9607 117.786 69.313 118.688 68.6304 119.559C68.4319 119.813 68.2291 120.065 68.0241 120.315C66.046 122.714 63.767 124.888 61.2176 126.766C55.8177 130.744 49.3601 133.395 42.6517 133.883C36.0393 134.365 29.6209 132.53 24.3279 128.517C19.7393 125.039 16.2085 120.33 13.55 115.229C15.0417 115.726 16.673 115.873 18.2345 115.658C20.4939 115.345 23.0652 114.467 24.8033 112.933C25.7498 112.099 26.1686 111.002 26.3016 109.829C26.3125 109.728 26.3234 109.627 26.3278 109.526C26.4128 109.594 26.5001 109.662 26.5829 109.734C29.2872 112.005 31.0254 115.308 31.3373 118.859C31.3896 119.467 32.347 119.474 32.2903 118.859C32.1115 116.821 31.5139 114.877 30.5609 113.13C32.6327 112.688 34.8899 112.256 36.8309 113.379C38.46 114.321 39.5352 115.971 40.4534 117.565C40.7609 118.097 41.5852 117.618 41.2755 117.081C40.2309 115.271 38.966 113.403 37.0621 112.416C36.8244 112.291 36.5823 112.186 36.3358 112.101C36.3511 112.081 36.3642 112.061 36.3773 112.037C36.6586 111.549 36.9945 111.114 37.3761 110.73C37.5942 110.509 37.8254 110.304 38.0697 110.115C39.2822 109.174 40.7892 108.627 42.3355 108.377C44.7671 107.983 47.5674 107.939 49.8072 109.089C50.3524 109.371 50.8365 108.543 50.287 108.261C47.8029 106.985 44.7802 107.002 42.0803 107.453C41.4413 107.561 40.8088 107.716 40.2004 107.926C40.7151 106.129 41.7117 104.662 43.0006 103.504C43.2907 103.246 43.5938 103.003 43.9101 102.777C45.79 101.42 48.117 100.603 50.4527 100.277C51.059 100.194 50.8017 99.2702 50.2019 99.3533C48.021 99.6576 45.8598 100.389 44.0191 101.553C44.1805 100.225 44.4924 98.8783 44.994 97.6414C45.2404 97.035 45.5326 96.4549 45.8729 95.9142C46.9742 94.1781 48.5946 92.869 50.8867 92.4837C51.4886 92.383 51.2335 91.4592 50.6337 91.5599C48.8803 91.8554 47.478 92.6479 46.3766 93.7534C46.8412 91.6956 47.2686 89.5853 47.5827 87.4574C47.6306 87.1378 47.6743 86.8182 47.7157 86.4985C48.4332 80.995 48.3263 75.417 46.1215 70.3446C45.6395 69.2369 44.9918 68.1664 44.1936 67.2711C43.9079 66.9471 43.5982 66.6471 43.2732 66.3757C41.8818 65.222 40.148 64.609 38.1373 65.0534C33.987 65.9685 32.0504 70.3096 31.25 74.0816C30.4649 77.7834 30.1291 81.6627 30.5434 85.4455C29.2065 85.9403 27.9133 86.643 26.6898 87.5953C26.2056 87.9719 26.8839 88.6439 27.3637 88.2718C28.4105 87.453 29.5184 86.84 30.6656 86.3913C30.9687 86.2709 31.2762 86.1636 31.5859 86.0695C32.3339 85.8352 33.0951 85.6688 33.8671 85.5572C34.1811 85.5134 34.4974 85.4762 34.8136 85.4477C38.7108 85.1062 42.8327 86.0519 46.6362 87.1728C46.2436 89.9968 45.6395 92.7924 44.9787 95.5661C43.7901 97.5363 43.1795 99.9619 42.9919 102.272C41.173 103.69 39.7838 105.601 39.1884 108.018C39.1601 108.134 39.171 108.237 39.2081 108.325C38.4949 108.653 37.8276 109.067 37.23 109.57C34.3992 107.979 31.5357 106.427 28.7595 104.743C26.0661 103.112 23.5384 101.157 22.1209 98.3135C20.7207 95.5004 20.4786 92.2911 20.4547 89.2087C20.4459 87.7486 20.4743 86.2906 20.4939 84.8326C20.5005 84.4144 20.5026 83.9985 20.507 83.5804C20.5157 82.2428 20.5026 80.9118 20.4329 79.5764C20.0556 72.4441 18.7209 65.3993 18.2803 58.2714C17.8616 51.4828 18.3043 44.6153 19.964 38.0019C22.424 28.2097 27.7911 18.9035 35.8779 12.6184C36.1287 12.4236 36.3795 12.2309 36.6324 12.0449C38.0042 11.0313 39.4523 10.1053 40.9724 9.27337C46.7408 6.12534 53.3118 4.41998 59.7891 3.23564C60.6527 3.65596 61.4705 4.17698 62.2251 4.78557C56.8798 4.18793 50.2019 5.00668 46.8913 9.50104C46.6405 9.84474 47.0549 10.3176 47.43 10.2038C52.5616 8.64946 58.2625 9.79001 62.4105 13.1591C57.6126 13.5795 53.1788 16.2109 50.5072 20.2718C50.2521 20.6614 50.7711 21.2022 51.1593 20.9263C53.8963 18.9977 57.3661 18.5949 60.4717 19.8339C61.0431 20.0616 61.2873 19.1378 60.7225 18.9101C58.1338 17.8768 55.2376 17.9272 52.7034 18.9823C55.4687 15.9241 59.4576 14.0961 63.6122 14.0545C64.0156 14.0501 64.2577 13.5269 63.9502 13.2358C59.8959 9.41567 54.1035 7.79568 48.684 8.89683C50.2412 7.44979 52.3217 6.64637 54.3848 6.16694C57.401 5.46859 60.5306 5.40949 63.5773 5.93051C64.0243 6.00713 64.3995 5.49486 64.0418 5.12927C63.2109 4.28644 62.2862 3.56183 61.2939 2.96637C60.8446 2.69491 60.3866 2.45192 59.9134 2.23738C59.2853 1.9506 58.6354 1.70979 57.9702 1.51933C60.2994 1.20628 62.6809 1.0596 64.9534 1.47992C65.7451 1.6266 66.5215 1.84114 67.2804 2.14543C67.8671 2.08414 68.4537 2.02941 69.0426 1.98124C73.4959 1.60909 77.9776 1.585 82.431 1.9703C92.0967 2.80875 101.69 5.73567 109.838 10.9087C108.7 12.1412 107.616 13.424 106.604 14.7638C105.623 16.0642 104.728 17.4236 103.926 18.84C103.623 19.3786 104.447 19.8602 104.75 19.3238C106.109 16.9223 107.764 14.6193 109.62 12.4783C109.969 12.0733 110.327 11.6749 110.693 11.2808C112.582 9.24272 114.647 7.37317 116.795 5.73567C121.593 2.07319 127.309 0.38315 133.318 1.12528C144.837 2.54605 153.7 11.8281 158.055 22.1566C160.321 27.5332 161.495 33.6038 160.544 39.4204C160.079 42.2598 159.091 44.9393 157.624 47.4087C156.095 49.9832 154.206 52.3103 152.516 54.7709C149.066 59.795 147.48 65.43 146.525 71.3998C146.03 74.4866 146.015 77.8382 144.902 80.7826C143.845 83.5826 141.498 85.7695 138.763 86.8992C133.584 89.0402 127.935 87.0787 124.119 83.2673C124.073 83.2213 124.027 83.1754 123.981 83.1294C123.63 82.7704 123.29 82.4026 122.965 82.0261C119.312 77.8535 117.024 72.7549 114.898 67.6717C114.316 66.2837 113.694 64.9155 112.957 63.6042C112.656 63.0678 111.831 63.5495 112.132 64.0858C113.759 66.9799 114.776 70.1476 116.176 73.1446C116.882 74.6529 117.692 76.135 118.579 77.5689C119.161 78.5102 119.776 79.4275 120.42 80.3141C120.466 80.544 120.501 80.776 120.524 81.0103C120.54 81.0278 120.553 81.0431 120.568 81.0606C120.564 81.1701 120.557 81.2796 120.553 81.389C120.553 81.4043 120.553 81.4175 120.553 81.4306C120.572 81.8378 120.544 82.2362 120.479 82.6281C120.365 84.2109 120.176 85.7849 119.877 87.3282C119.805 87.707 119.724 88.0857 119.639 88.4578C118.939 91.4767 117.79 94.3686 115.969 97.0241C113.448 100.695 109.773 103.031 105.694 104.636C101.442 106.308 97.0189 107.508 92.7444 109.137C90.2582 110.082 87.7807 111.061 85.3229 112.081C84.4854 112.427 83.6567 112.795 82.8585 113.209C83.5585 111.341 84.119 109.421 84.6708 107.504C84.8431 106.91 83.9227 106.656 83.7504 107.25C83.1049 109.487 82.4572 111.733 81.5739 113.892C81.5674 113.909 81.5586 113.929 81.5499 113.944C81.3275 114.489 81.0854 115.05 80.8171 115.608C80.0735 117.182 79.1422 118.736 77.8969 119.866C76.222 121.385 74.2941 121.665 72.4055 121.249C72.0478 121.173 71.688 121.068 71.3325 120.941V120.939ZM72.2681 116.037C72.5014 115.652 72.7261 115.264 72.9442 114.872C75.0247 111.125 76.4794 107.048 77.2688 102.847C77.4499 103.797 77.5196 104.776 77.5349 105.757C77.572 107.992 77.5349 110.376 76.632 112.458C75.8556 114.253 74.2941 115.866 72.2681 116.039V116.037ZM33.7995 84.6312C33.0144 84.7428 32.238 84.907 31.4768 85.1325C31.1955 82.3413 31.3416 79.5063 31.7516 76.7173C32.3034 72.9629 33.3131 68.3065 37.0381 66.4501C38.8417 65.5504 40.4752 65.7518 41.8469 66.564C39.2822 67.0368 36.9683 68.1883 35.7666 70.7606C34.7089 73.0198 34.2836 75.6928 33.9827 78.1534C33.7188 80.3032 33.6643 82.4683 33.7995 84.6268V84.6312ZM39.5897 68.2978C40.0237 68.0876 40.4839 67.9169 40.9593 67.7768C40.4839 67.9147 40.0237 68.0876 39.5897 68.2978ZM46.3178 73.9546C47.0505 76.9275 47.2054 80.0514 47.0396 83.0922C46.9829 84.1364 46.887 85.1763 46.7605 86.2118C46.887 85.1763 46.9807 84.1364 47.0396 83.0922C47.2076 80.0514 47.0505 76.9275 46.3178 73.9546ZM43.1293 67.5775C43.7356 68.1752 44.2655 68.8845 44.7061 69.6485C44.2677 68.8823 43.7356 68.173 43.1293 67.5775ZM42.3856 67.4571C42.5645 67.4287 42.7476 67.4024 42.9287 67.3783C42.7455 67.4002 42.5645 67.4265 42.3856 67.4571ZM36.2355 84.4517C35.7361 84.4582 35.2367 84.4823 34.7438 84.5261C35.2389 84.4823 35.7361 84.4582 36.2355 84.4517ZM72.3837 161.78C72.3619 160.53 72.4426 159.28 72.6236 158.049C72.8438 157.563 73.256 157.2 73.8318 157.574C74.305 157.881 74.4141 158.581 74.5057 159.096C74.7085 160.234 74.8786 161.381 75.0422 162.528C74.1502 162.318 73.2626 162.069 72.3837 161.78ZM76.0148 162.743C75.8535 161.666 75.6899 160.587 75.5263 159.51C75.4892 159.273 75.4522 159.028 75.4042 158.783C75.4762 158.684 75.5089 158.553 75.4718 158.402C75.3104 157.743 77.3168 158.608 77.4237 158.678C78.0234 159.078 78.4989 159.65 78.8478 160.274C79.3647 161.195 79.6046 162.231 79.7551 163.277C78.5011 163.174 77.2514 162.995 76.0148 162.743ZM82.4855 163.391C81.8967 163.391 81.3057 163.376 80.7146 163.343C80.5249 162.018 80.2174 160.696 79.5413 159.58C80.9284 159.024 83.1529 158.354 83.9358 159.967C84.276 160.668 84.3742 161.53 84.5377 162.281C84.6119 162.625 84.6882 162.968 84.7624 163.312C84.0056 163.365 83.2467 163.393 82.4855 163.393V163.391ZM93.5317 160.908C93.4903 161.101 93.4488 161.298 93.4139 161.493C90.9212 162.388 88.3347 162.968 85.7241 163.229C85.5649 162.476 85.4014 161.723 85.2291 160.974C85.0437 160.171 84.8256 159.304 84.2128 158.708C82.8759 157.41 80.4682 158.161 78.9961 158.778C78.9896 158.783 78.9808 158.785 78.9721 158.789C78.754 158.538 78.5076 158.303 78.2328 158.087C77.5698 157.568 76.6451 157.11 75.7837 157.207C75.4936 157.239 75.2166 157.338 74.9986 157.496C74.763 157.051 74.4119 156.69 73.871 156.497C73.5286 156.377 73.2059 156.372 72.9202 156.458C73.5243 153.706 74.6322 151.07 76.1915 148.713C76.4205 148.362 76.6626 148.019 76.9155 147.681C77.524 146.863 78.1914 146.081 78.9176 145.348C79.3516 144.91 78.6777 144.231 78.2437 144.669C77.6767 145.243 77.1424 145.845 76.6429 146.473C75.583 141.385 75.5634 136.127 76.5841 131.033C77.4062 132.145 78.2633 133.231 79.1139 134.299C82.8345 138.971 86.7099 143.308 92.3584 145.584C93.0236 145.851 93.6974 146.097 94.3801 146.322C94.3844 146.447 94.3888 146.572 94.3953 146.696C94.4935 148.402 94.9645 150.033 95.706 151.539C95.7126 151.561 95.7191 151.578 95.7278 151.6C95.9263 152.073 96.1444 152.533 96.3799 152.984C95.2568 155.56 94.1271 158.168 93.5382 160.906L93.5317 160.908ZM93.7716 166.648C93.8261 165.676 93.9024 164.709 94.0224 163.748C94.0922 163.654 94.1685 163.568 94.2579 163.487C95.0256 162.791 97.2109 162.329 97.9305 163.225C98.6786 164.157 99.0646 165.67 99.3481 166.813C99.4942 167.402 99.6011 167.997 99.6709 168.595C97.6209 168.22 95.6406 167.557 93.7716 166.646V166.648ZM100.753 168.768C100.744 167.458 100.79 166.009 101.256 164.77C101.865 163.157 103.671 163.301 104.785 164.28C105.585 164.982 106.192 165.908 106.621 166.929C106.549 167.546 106.61 168.174 106.82 168.748C106.872 168.89 106.966 168.982 107.077 169.03C104.96 169.076 102.835 169.048 100.75 168.765L100.753 168.768ZM111.391 168.892C110.34 168.925 109.282 168.969 108.222 169.002C107.991 169.008 107.76 169.015 107.529 169.021C107.712 168.936 107.832 168.746 107.74 168.494C107.531 167.92 107.472 167.318 107.585 166.738C107.646 166.436 107.753 166.143 107.91 165.86C108.412 164.965 109.598 164.065 110.667 164.58C111.456 164.961 111.757 165.963 111.967 166.745C112.152 167.443 112.313 168.148 112.475 168.855C112.113 168.868 111.751 168.879 111.391 168.892ZM129.863 159.781C129.719 159.739 129.575 159.696 129.431 159.65C129.346 158.971 129.377 158.205 129.501 157.408C131.108 157.535 132.05 158.848 132.67 160.298C131.719 160.214 130.783 160.05 129.863 159.783V159.781ZM135.581 160.324C134.953 160.361 134.329 160.374 133.712 160.355C133.418 159.615 133.058 158.89 132.602 158.268C133.584 157.458 135.049 157.955 135.815 158.866C136.166 159.282 136.414 159.757 136.606 160.26C136.264 160.282 135.924 160.304 135.583 160.326L135.581 160.324ZM137.586 160.184C137.232 159.137 136.7 158.165 135.775 157.539C134.622 156.76 133.056 156.635 131.976 157.539C131.363 156.95 130.615 156.541 129.693 156.453C130.155 154.52 131.097 152.524 132.234 151.182C135.372 151.182 138.51 151.031 141.625 150.676C141.775 150.928 141.93 151.178 142.089 151.425C142.111 151.462 142.137 151.497 142.161 151.534C141.197 154.199 140.778 157.01 140.582 159.834C139.59 159.993 138.587 160.101 137.586 160.182V160.184ZM141.339 166.318C141.321 165.757 141.332 165.193 141.345 164.626C141.35 164.451 141.352 164.278 141.356 164.105C141.531 163.531 141.786 162.995 142.248 162.598C143.217 161.773 144.29 162.454 144.968 163.295C145.467 163.914 145.794 164.641 146.026 165.407C145.991 166.081 146.078 166.775 146.163 167.421C146.163 167.432 146.167 167.443 146.172 167.456C144.521 167.224 142.9 166.867 141.337 166.318H141.339ZM147.474 167.612C147.36 166.942 147.229 166.23 147.042 165.534C147.168 164.122 147.799 162.844 149.596 163.417C150.741 163.783 151.334 164.693 151.644 165.749C151.502 166.432 151.572 167.152 151.668 167.85C150.267 167.82 148.863 167.752 147.471 167.609L147.474 167.612ZM152.904 167.87C152.865 167.189 152.773 166.482 152.601 165.808C152.636 165.681 152.682 165.556 152.743 165.438C153.122 164.689 153.888 164.433 154.634 164.834C155.733 165.422 155.905 166.692 155.905 167.868C154.913 167.872 153.912 167.877 152.904 167.868V167.87ZM168.896 134.192C168.081 138.979 166.596 143.728 164.013 147.817C163.843 148.091 163.667 148.36 163.484 148.627C162.668 149.827 161.748 150.961 160.718 152.018C160.286 152.458 160.962 153.137 161.392 152.697C162.297 151.771 163.119 150.784 163.867 149.746C165.601 155.122 166.153 160.755 166.277 166.392C166.125 166.449 165.97 166.506 165.815 166.561C162.921 167.594 159.889 167.837 156.843 167.866C156.786 166.042 156.28 163.951 154.18 163.691C153.371 163.59 152.645 163.943 152.169 164.569C151.62 163.411 150.701 162.528 149.199 162.355C148.1 162.231 147.051 162.699 146.49 163.678C146.466 163.719 146.442 163.763 146.422 163.807C145.991 162.922 145.393 162.148 144.525 161.62C143.603 161.062 142.564 161.136 141.716 161.795C141.611 161.878 141.513 161.964 141.424 162.056C141.444 161.589 141.463 161.119 141.492 160.652C141.5 160.479 141.511 160.306 141.522 160.133C141.531 159.976 141.544 159.82 141.555 159.665C141.734 157.226 142.098 154.809 142.852 152.489C143.899 153.826 145.188 154.921 146.843 155.473C147.428 155.668 147.676 154.744 147.094 154.549C145.437 153.995 144.213 152.795 143.234 151.403C143.038 151.125 142.852 150.843 142.676 150.554C142.658 150.53 142.643 150.501 142.626 150.475C142.549 150.35 142.475 150.225 142.403 150.101C142.318 149.952 142.231 149.803 142.148 149.652C141.042 147.686 140.096 145.608 139.182 143.55C137.016 138.671 135.378 133.439 135.915 128.04C135.976 127.427 135.021 127.432 134.962 128.04C134.395 133.73 136.201 139.233 138.504 144.356C139.317 146.167 140.137 148.021 141.105 149.772C138.493 150.052 135.86 150.188 133.228 150.214C132.757 150.219 132.288 150.221 131.817 150.214C129.071 150.203 126.319 150.074 123.573 149.864C124.448 146.394 124.071 142.653 122.411 139.369C124.136 135.915 125.131 132.123 125.338 128.235C125.37 127.62 124.415 127.62 124.385 128.235C124.197 131.76 123.327 135.183 121.846 138.345C121.512 137.793 121.137 137.257 120.727 136.742C120.343 136.261 119.672 136.944 120.051 137.419C120.544 138.036 120.976 138.684 121.347 139.354C121.539 139.698 121.713 140.048 121.872 140.402C123.205 143.378 123.434 146.703 122.612 149.785C122.527 150.101 122.433 150.414 122.328 150.722C122.069 151.484 121.741 152.226 121.351 152.94C121.185 153.24 121.009 153.535 120.821 153.824C120.228 154.739 119.519 155.595 118.699 156.37C118.25 156.793 118.926 157.469 119.375 157.047C120.145 156.318 120.821 155.525 121.401 154.685C121.726 155.182 122.036 155.689 122.322 156.213C123.115 157.662 123.584 159.188 123.972 160.788C124.5 162.968 125.026 165.153 125.549 167.336C121.615 168.279 117.539 168.643 113.487 168.818C113.064 166.583 112.453 163.312 109.849 163.496C108.549 163.588 107.572 164.433 107.044 165.525C106.39 164.328 105.487 163.336 104.294 162.837C103.117 162.347 101.666 162.524 100.849 163.57C100.412 164.127 100.157 164.847 100.011 165.613C99.9566 165.438 99.8977 165.267 99.8366 165.094C99.3939 163.859 98.8552 161.968 97.3177 161.839C96.321 161.756 95.1543 161.861 94.2361 162.36C94.2449 162.307 94.2536 162.253 94.2623 162.2C94.3277 161.83 94.3975 161.462 94.4782 161.097C94.5 161.003 94.5196 160.911 94.5414 160.816C95.0779 158.478 96.0048 156.232 96.9666 154.017C97.466 154.84 98.0309 155.626 98.6546 156.375C99.0471 156.848 99.721 156.169 99.3285 155.696C98.6066 154.831 97.9807 153.912 97.4377 152.935C97.4682 152.87 97.4944 152.806 97.5227 152.741C97.3112 152.412 97.1127 152.075 96.9317 151.729C96.0811 150.138 95.5381 148.391 95.4138 146.648C95.3876 146.307 95.3789 145.965 95.3854 145.626C95.4203 144.117 95.7846 142.633 96.5479 141.278C96.7223 140.967 96.9208 140.663 97.1389 140.367C97.4486 139.947 97.8019 139.544 98.201 139.161C98.6459 138.737 97.9698 138.06 97.5249 138.485C97.213 138.785 96.9208 139.104 96.6525 139.441C94.7203 135.643 93.3834 131.567 92.6855 127.335C92.5852 126.729 91.667 126.985 91.7652 127.589C92.498 132.042 93.9395 136.339 96.0266 140.317C95.0801 141.808 94.5284 143.54 94.4062 145.313C92.0989 144.549 89.8896 143.515 87.9072 142.088C85.4842 140.341 83.456 138.106 81.5608 135.812C79.9841 133.903 78.3331 131.93 76.8458 129.851C76.5971 129.505 76.3529 129.155 76.1173 128.802C74.7347 126.753 73.5395 124.594 72.7435 122.289C74.4315 122.548 76.1544 122.281 77.7595 121.19C79.7921 119.809 81.0832 117.357 82.0624 115.168C82.1475 114.977 82.2304 114.787 82.3132 114.594C83.5367 113.868 84.8518 113.294 86.1756 112.755C88.5004 111.812 90.8318 110.882 93.1784 109.988C97.5423 108.331 102.074 107.136 106.395 105.378C110.2 103.83 113.653 101.676 116.174 98.366C118.211 95.6909 119.587 92.5494 120.424 89.2897C121.907 90.9053 123.294 92.6019 124.581 94.373C124.779 94.6423 124.973 94.9159 125.165 95.1895C126.866 97.613 128.389 100.166 129.715 102.832C129.99 103.384 130.812 102.9 130.539 102.348C129.25 99.7562 127.776 97.2693 126.129 94.9006C131.678 93.3112 137.531 92.8909 143.258 93.7097C149.408 94.5853 155.624 96.8402 160.489 100.796C163.8 103.486 166.057 106.858 167.52 110.59C167.991 111.79 168.38 113.031 168.694 114.299C168.877 115.03 169.036 115.774 169.169 116.523C169.239 116.906 169.302 117.291 169.359 117.677C170.166 123.145 169.804 128.916 168.905 134.194L168.896 134.192ZM175.402 116.002C173.867 117.145 171.921 117.477 170.201 116.956C170.1 116.311 169.983 115.669 169.845 115.032C171.254 115.606 173.093 115.494 174.462 115.063C175.583 114.713 176.667 114.012 177.6 113.204C177.134 114.283 176.407 115.253 175.4 116.004L175.402 116.002ZM181.461 110.056C181.406 110.065 181.347 110.093 181.29 110.135C181.101 110.275 180.911 110.396 180.726 110.498C180.241 110.768 179.764 110.925 179.247 110.995C179.212 111.002 179.177 111.004 179.144 111.008C178.861 111.039 178.564 111.046 178.246 111.03C178.226 111.03 178.207 111.03 178.187 111.026C178.187 111.026 178.181 111.026 178.178 111.026C177.999 111 177.823 110.963 177.646 110.914C175.143 110.249 172.916 107.661 173.007 105.096C173.093 102.795 174.597 100.794 174.523 98.5149C175.666 99.5591 176.473 100.859 176.379 102.565C176.344 103.182 177.299 103.18 177.332 102.565C177.5 99.5 175.167 97.5451 172.77 96.0959C174.907 95.8353 177.153 96.1178 179.011 97.2014C179.376 97.4116 179.722 97.6545 180.054 97.9304C180.606 98.3901 181.081 98.9308 181.469 99.5285C182.566 101.214 182.946 103.335 182.252 105.284C182.047 105.866 182.968 106.116 183.173 105.538C183.637 104.237 183.67 102.849 183.358 101.536C183.718 102.155 183.958 102.854 184.025 103.635C184.184 105.472 183.221 108.677 181.458 110.058L181.461 110.056Z" fill="#1D1D1B"/>
<path d="M107.203 151.83C105.186 151.42 102.892 150.834 101.758 148.931C101.59 148.649 101.45 148.338 101.359 148.012C101.258 147.668 101.213 147.309 101.241 146.959C101.265 146.646 101.341 146.339 101.494 146.055C101.987 145.129 103.149 144.474 104.168 144.916C104.724 145.155 105.21 144.332 104.647 144.089C102.6 143.207 100.587 144.785 100.318 146.792C100.277 147.101 100.277 147.421 100.325 147.743C100.329 147.771 100.334 147.797 100.338 147.828C100.864 151.004 104.196 152.195 106.946 152.756C107.546 152.878 107.803 151.955 107.199 151.832L107.203 151.83Z" fill="#1D1D1B"/>
<path d="M90.9931 83.5893C91.3072 83.644 91.6212 83.7053 91.9309 83.771C93.5578 84.1147 95.1586 84.6094 96.7092 85.253C97.2762 85.4895 97.5227 84.5635 96.9622 84.3292C95.3614 83.6637 93.7083 83.158 92.0247 82.8077C92.2253 80.6733 92.3322 78.5301 92.3409 76.3847C92.3583 72.766 92.2951 68.6372 90.0771 65.6271C89.8416 65.3031 89.5777 64.9923 89.2877 64.6989L89.244 64.6551C86.6968 62.107 82.7821 62.0829 79.7594 63.7992C76.3921 65.7059 74.5885 69.4976 73.7467 73.1426C72.8394 77.0787 72.8743 81.19 73.7903 85.1064C73.8645 85.4238 73.943 85.739 74.0302 86.0521C74.3203 85.9076 74.6125 85.7675 74.9069 85.6318C75.8992 85.1764 76.9155 84.7846 77.9493 84.4584C78.2589 84.3599 78.5686 84.2679 78.8827 84.1782C82.817 83.0858 86.9716 82.8866 90.9931 83.5893ZM86.4743 82.2189C86.2083 82.2189 85.9422 82.2189 85.6761 82.2254C85.9422 82.2189 86.2083 82.2167 86.4743 82.2189ZM91.3922 76.0169C91.3922 75.0274 91.3857 73.9898 91.3246 72.9477C91.3879 73.9898 91.3922 75.0296 91.3922 76.0169ZM77.8925 83.4776C76.7977 83.8126 75.7226 84.2176 74.6757 84.6882C73.9888 81.6562 73.8383 78.5148 74.2875 75.4237C74.7957 71.9079 76.0039 68.2038 78.6929 65.7497C81.1355 63.5212 85.0982 62.6696 87.8592 64.7099C84.7056 64.9704 81.744 66.1613 80.0233 69.1408C78.7365 71.3737 78.3854 74.0751 78.1041 76.5993C77.8511 78.8848 77.7857 81.1834 77.8925 83.4776ZM79.236 75.0055C79.2294 75.0471 79.2251 75.0887 79.2185 75.1281C79.2251 75.0865 79.2294 75.0449 79.236 75.0055ZM79.0615 76.4832C79.0157 76.9495 78.9743 77.4158 78.9372 77.8734C78.9743 77.4158 79.0135 76.9517 79.0615 76.4832ZM78.8325 83.2062C78.8063 82.5407 78.7976 81.8752 78.7998 81.2075C78.7976 81.873 78.8042 82.5407 78.8325 83.2062C80.5903 82.7311 82.3917 82.4268 84.2062 82.2933C82.3939 82.4246 80.5925 82.7289 78.8325 83.2062Z" fill="#1D1D1B"/>
<path d="M90.136 53.0085C91.8676 53.8841 94.7747 55.0729 96.4082 53.3894C98.0526 51.6993 96.8727 49.2628 95.6209 47.772C95.0539 47.1021 94.4454 46.465 93.7693 45.909C93.1369 45.3858 92.4063 44.8691 91.6299 44.5977C90.1295 44.0701 88.2364 44.532 86.989 45.4777C86.5419 45.8149 86.1711 46.2527 85.9531 46.7737C85.8288 47.0736 85.7568 47.3954 85.735 47.7216C85.5692 50.2063 88.2103 52.0343 90.136 53.0063V53.0085ZM87.3466 46.4344C88.2626 45.5675 89.7914 44.9523 91.0389 45.3573C91.5754 45.5324 92.0683 45.8346 92.5284 46.1542C93.2285 46.638 93.8479 47.2334 94.4236 47.8595C94.5305 47.9756 94.6352 48.0938 94.7398 48.212C95.4857 49.0658 96.2665 50.0881 96.2468 51.2812C96.2228 52.7217 95.0997 53.3741 93.7759 53.2339C91.6517 53.0107 89.172 51.7103 87.737 50.1341C86.8189 49.1271 86.1886 47.5312 87.3466 46.4322V46.4344Z" fill="#1D1D1B"/>
<path d="M92.7858 167.272V167.224C92.7858 167.224 92.7793 167.22 92.7727 167.215C92.7771 167.237 92.7793 167.253 92.7858 167.27V167.272Z" fill="#1D1D1B"/>
<path d="M36.5168 49.3985C35.7949 48.7637 34.7765 48.5776 33.8474 48.733C32.5738 48.9475 31.2958 49.6174 30.3253 50.4603C29.9545 50.7799 29.6165 51.1389 29.3177 51.5242C27.9852 53.2602 27.3462 56.5155 29.9131 57.54C31.1322 58.026 32.2357 57.3299 33.2455 56.6994C34.4297 55.9616 35.699 55.1954 36.5648 54.0768C37.3761 53.0303 37.701 51.4388 37.1231 50.2085C36.9748 49.8911 36.7654 49.6196 36.5146 49.3985H36.5168ZM36.4209 52.3298C36.1243 53.3609 35.313 54.1184 34.4799 54.7357C33.2608 55.642 30.7397 57.7984 29.4769 55.9989C28.2578 54.2672 29.8891 51.9467 31.2958 50.8959C32.2837 50.1582 33.433 49.7291 34.6282 49.6131C34.7045 49.705 34.8179 49.7707 34.9684 49.7794C36.2551 49.8582 36.7393 51.2287 36.423 52.3298H36.4209Z" fill="#1D1D1B"/>
<path d="M112.355 41.8483C108.63 31.106 116.354 20.5914 124.585 14.499C128.751 11.4166 134.528 9.12674 139.487 11.8085C141.685 12.995 143.328 14.9631 144.898 16.8633C146.695 19.0349 148.429 21.2679 149.933 23.6541C153.261 28.9344 155.462 35.2479 154.055 41.5199C153.92 42.1197 154.838 42.3759 154.976 41.7738C156.265 36.0207 154.699 30.1384 151.892 25.0836C150.455 22.496 148.71 20.0945 146.871 17.7827C145.155 15.6264 143.408 13.3518 141.153 11.7275C136.538 8.40431 130.526 9.5799 125.981 12.393C121.403 15.2214 117.231 19.3589 114.326 23.8927C110.9 29.2365 109.306 35.9594 111.434 42.1022C111.635 42.6801 112.555 42.4306 112.355 41.8483Z" fill="#1D1D1B"/>
</g>
<defs>
<clipPath id="clip0_1666_13123">
<rect width="185" height="170" fill="white"/>
</clipPath>
</defs>
</svg>
