<svg width="133" height="239" viewBox="0 0 133 239" fill="none" xmlns="http://www.w3.org/2000/svg">
<g clip-path="url(#clip0_1705_8762)">
<path d="M88.0026 52.6935C86.0892 52.5055 84.4778 51.8764 83.2151 50.3579C81.6329 48.4561 81.1529 45.8419 81.408 43.4332C81.6066 41.5562 82.3489 39.6873 83.8578 38.4782C84.9189 37.6275 86.408 37.117 87.774 37.2596C89.8112 37.5917 91.5253 38.4365 92.7696 40.1445C92.8547 40.263 92.9367 40.383 93.0151 40.5059C93.0943 40.628 93.1698 40.7524 93.2423 40.8782C93.3149 41.004 93.3845 41.132 93.4512 41.2614C93.5179 41.3909 93.5809 41.5218 93.6417 41.655C93.7018 41.7874 93.7582 41.9212 93.8117 42.0565C93.8652 42.1919 93.9158 42.3287 93.9627 42.4662C94.0096 42.6037 94.0528 42.7427 94.0931 42.8824C94.1334 43.0221 94.1701 43.1632 94.203 43.3052C94.236 43.4471 94.2653 43.589 94.2917 43.7323C94.3181 43.8757 94.3408 44.0191 94.3599 44.1632C94.3789 44.3073 94.3943 44.4521 94.4068 44.5976C94.4185 44.7425 94.4273 44.888 94.4324 45.0336C94.4376 45.1792 94.4383 45.3247 94.4361 45.4703C94.4339 45.6158 94.428 45.7614 94.4185 45.9062C94.409 46.0518 94.3958 46.1966 94.3797 46.3407C94.3635 46.4855 94.343 46.6296 94.3196 46.773C94.0198 48.6163 93.1808 50.4362 91.6198 51.5421C90.5609 52.2919 89.2924 52.6532 88.0034 52.6927L88.0026 52.6935ZM91.537 46.1454C91.5304 46.0481 91.5217 45.9509 91.5099 45.8536C91.4982 45.7563 91.4843 45.6597 91.4682 45.5632C91.452 45.4666 91.433 45.3708 91.4125 45.2757C91.3912 45.1806 91.3678 45.0855 91.3421 44.9912C91.3165 44.8968 91.2886 44.8032 91.2578 44.7103C91.2271 44.6174 91.1948 44.5252 91.1596 44.4338C91.1245 44.3424 91.0871 44.2524 91.0475 44.1624C91.0079 44.0732 90.9662 43.9847 90.9222 43.8976C90.8782 43.8106 90.8321 43.7243 90.7837 43.6394C90.7353 43.5546 90.6848 43.4705 90.6327 43.3878C90.5807 43.3052 90.5257 43.224 90.4693 43.1442C89.6039 41.9446 88.4262 41.3265 86.9862 41.1056C86.1603 41.1671 85.4224 41.3244 84.6939 41.7369C83.5229 42.4003 82.7131 43.559 82.3716 44.8478C82.3489 44.9363 82.3277 45.0263 82.3086 45.1155C82.2895 45.2055 82.2734 45.2955 82.2588 45.3862C82.2448 45.4769 82.2324 45.5676 82.2229 45.659C82.2133 45.7504 82.206 45.8419 82.2001 45.9333C82.195 46.0247 82.1921 46.1162 82.1913 46.2083C82.1906 46.3005 82.1913 46.3919 82.1957 46.4834C82.1994 46.5748 82.206 46.667 82.2141 46.7584C82.2229 46.8498 82.2331 46.9412 82.2456 47.032C82.2588 47.1227 82.2734 47.2134 82.291 47.3033C82.3086 47.3933 82.3277 47.4833 82.3496 47.5725C82.3716 47.6617 82.3958 47.7502 82.4215 47.838C82.4478 47.9258 82.4757 48.0136 82.5065 48.0999C82.5365 48.1862 82.5695 48.2725 82.6039 48.3574C82.6384 48.4422 82.675 48.5263 82.7139 48.6097C82.7527 48.6931 82.7937 48.775 82.8362 48.8562C82.8795 48.9374 82.9242 49.0179 82.9711 49.0961C83.7896 50.4793 84.9365 51.1179 86.441 51.507C87.5688 51.5707 88.5215 51.5721 89.5057 50.9175C90.61 50.1831 91.23 48.8752 91.452 47.6025C91.4696 47.5067 91.485 47.4101 91.4975 47.3128C91.5099 47.2163 91.5202 47.119 91.5282 47.0217C91.5363 46.9244 91.5414 46.8271 91.5451 46.7291C91.548 46.6318 91.5488 46.5338 91.5466 46.4365C91.5451 46.3385 91.5407 46.2412 91.5341 46.144L91.537 46.1454Z" fill="white"/>
<path d="M98.8016 207.806C98.0321 206.94 97.6041 206.151 97.6833 204.961C97.7763 203.553 98.6418 202.166 99.7322 201.303C99.9946 201.095 100.283 200.923 100.571 200.755C100.732 203.416 100.814 206.078 100.947 208.74C100.157 208.521 99.4523 208.331 98.8023 207.805L98.8016 207.806Z" fill="#714F2B"/>
<path d="M91.9722 73.4122C90.1109 70.0233 89.3539 65.2878 90.0325 61.4849C90.7081 61.3269 91.4087 61.2084 92.0323 60.8961L92.1349 60.7015C91.8843 60.3738 91.2702 60.2978 90.8803 60.221C90.4055 60.2532 89.9321 60.3007 89.4608 60.3636C88.2663 60.5318 86.1236 60.8903 85.3688 61.8946L85.4875 62.0518C86.5977 62.2237 87.9622 61.8448 89.0505 61.6232C88.8687 64.6119 89.0182 67.2876 89.7049 70.2076C88.4444 69.787 87.2199 69.2801 86.032 68.6862C80.209 65.8145 75.9681 62.0094 73.8884 55.7539C71.6628 49.0603 71.2539 38.0687 74.578 31.5784C76.4415 27.9394 80.9586 23.2587 84.315 20.9649C85.8195 19.9364 87.3694 19.1538 89.1003 18.5876C89.4425 18.7149 89.7928 18.8546 90.1541 18.9131C90.7946 19.017 91.4864 18.9614 92.0001 18.5291C92.5673 18.0515 92.6296 17.5329 92.6919 16.827C99.9226 16.2023 106.772 17.1847 112.698 21.7395C117.745 25.6192 120.703 31.9317 121.471 38.1542C122.099 43.2459 121.517 51.0857 118.235 55.2719C121.048 58.4413 122.711 61.6978 122.458 66.0368C122.315 68.5099 121.534 71.0846 119.637 72.7904C117.284 74.9051 113.445 75.3761 110.412 75.1508C105.345 74.7741 99.4983 72.6119 96.1134 68.6803C94.8786 67.2459 93.9633 65.6096 93.029 63.9748C93.133 64.6726 93.2862 65.3588 93.4892 66.0346C93.6922 66.7098 93.9428 67.3674 94.2403 68.0066C95.6385 71.0144 99.096 75.5839 101.785 77.5383C101.916 77.6349 102.049 77.7278 102.185 77.817C102.32 77.907 102.458 77.9933 102.598 78.076C102.738 78.1586 102.88 78.2383 103.024 78.3144C103.168 78.3905 103.313 78.4629 103.461 78.5317C103.608 78.6004 103.757 78.6655 103.908 78.727C104.058 78.7884 104.21 78.8462 104.364 78.9003C104.517 78.9544 104.671 79.0042 104.827 79.051C104.984 79.0971 105.14 79.1395 105.299 79.1783C105.457 79.217 105.615 79.2514 105.775 79.2821C105.935 79.3129 106.095 79.3399 106.256 79.3626C106.418 79.3853 106.579 79.4043 106.741 79.4196C106.903 79.435 107.065 79.446 107.227 79.4526C107.39 79.4591 107.553 79.4628 107.715 79.4613C107.877 79.4606 108.04 79.4555 108.202 79.446C108.365 79.4372 108.527 79.424 108.689 79.4072C108.851 79.3904 109.012 79.3692 109.172 79.3443C112.276 78.8469 114.23 76.0535 115.646 75.8187L115.756 75.9525C115.203 77.8777 112.511 80.4561 110.732 81.4326C107.987 82.9387 104.847 82.5861 101.936 81.7391C97.6282 80.4854 94.1113 77.3035 91.9737 73.4122H91.9722ZM115.799 60.978C115.976 61.708 116.402 62.0299 117.016 62.4117C117.291 62.4278 117.591 62.457 117.865 62.4117C118.275 62.3437 118.696 62.0072 118.929 61.6736C119.242 61.2267 119.309 60.6555 119.187 60.1317C119.02 59.4156 118.588 59.0609 117.982 58.6973C117.7 58.6922 117.398 58.6776 117.119 58.7281C116.674 58.8092 116.234 59.1684 116 59.5429C115.729 59.9774 115.681 60.4843 115.8 60.9773L115.799 60.978ZM107.244 47.9887C108.369 49.6484 109.954 50.3879 111.866 50.7266C113.262 50.8085 114.566 50.5145 115.717 49.6952C117.397 48.5008 118.349 46.5317 118.635 44.5318C118.945 42.3609 118.55 40.1189 117.2 38.351C116.062 36.8603 114.602 36.0169 112.74 35.7711C111.488 35.736 110.255 36.0015 109.188 36.6774C107.514 37.7395 106.526 39.6691 106.125 41.565C105.675 43.6951 106.007 46.1667 107.243 47.988L107.244 47.9887ZM99.8002 61.4396C100.099 62.0664 100.64 62.3356 101.27 62.5397C101.554 62.539 101.86 62.4958 102.124 62.3868C102.554 62.2098 102.911 61.8039 103.064 61.3686C103.239 60.8712 103.169 60.3058 102.911 59.8501C102.582 59.2701 102.142 59.1201 101.524 58.9629C101.276 58.9877 101.011 59.0206 100.774 59.0974C100.34 59.2372 99.9182 59.6438 99.7424 60.0608C99.554 60.5062 99.5943 61.0073 99.8002 61.4396ZM94.9966 47.5118C95.0296 47.3494 95.0582 47.1871 95.0823 47.0232C95.1073 46.8594 95.1278 46.6955 95.1439 46.5309C95.1607 46.3664 95.1732 46.2018 95.182 46.0365C95.1908 45.8712 95.1952 45.7058 95.1959 45.5405C95.1959 45.3752 95.193 45.2099 95.1849 45.0446C95.1776 44.8793 95.1659 44.7147 95.1505 44.5501C95.1351 44.3856 95.1153 44.221 95.0919 44.0571C95.0684 43.8933 95.0406 43.7302 95.0091 43.5678C94.9775 43.4054 94.9424 43.2437 94.9028 43.0836C94.8632 42.9234 94.82 42.7632 94.7731 42.6044C94.7254 42.4457 94.6749 42.2892 94.6199 42.1327C94.565 41.9769 94.5063 41.8218 94.444 41.6689C94.3818 41.516 94.3151 41.3639 94.2454 41.2139C94.1758 41.064 94.1026 40.9155 94.0249 40.7692C93.9479 40.6229 93.8673 40.4781 93.783 40.3362C93.6988 40.1935 93.6116 40.0531 93.5207 39.9149C92.2617 38.0365 90.4699 36.9393 88.2612 36.5048C86.6981 36.3205 85.209 36.5384 83.8907 37.4535C82.1106 38.6882 81.0971 40.7816 80.7534 42.8714C80.324 45.482 80.7564 48.2872 82.3298 50.4625C83.6151 52.24 85.3409 52.9941 87.4243 53.346C89.0278 53.384 90.519 53.1002 91.8909 52.2422C93.58 51.1852 94.6031 49.4275 94.9973 47.5104L94.9966 47.5118Z" fill="#FFD900"/>
<path d="M98.6191 192.195C98.4887 192.117 98.3787 192.022 98.2637 191.924C97.569 191.006 97.3586 190.112 97.5213 188.968C97.736 187.462 98.6 185.845 99.8363 184.932C100.081 184.751 100.357 184.599 100.62 184.447C100.646 185.792 100.811 191.776 100.346 192.58C99.7923 192.74 99.0998 192.481 98.6184 192.195H98.6191Z" fill="#714F2B"/>
<path d="M105.181 78.1222C102.399 77.2715 99.2339 74.3844 97.8833 71.8287C97.7573 71.5895 97.7749 71.6933 97.7807 71.4893C102.68 74.881 107.542 76.1772 113.487 76.0719C112.994 76.5539 112.527 76.9847 111.953 77.3724C109.744 78.5647 107.602 78.8617 105.181 78.1214V78.1222Z" fill="#FFD900"/>
<path d="M96.1346 224.299C97.102 224.012 97.7117 223.536 98.413 222.843C98.564 222.693 98.7494 222.431 98.9252 222.324C100.125 222.841 101.181 223.019 102.475 223.157C104.291 225.176 105.371 226.678 105.307 229.517C104.801 230.309 104.339 230.883 103.375 231.079C102.424 231.272 101.434 230.958 100.565 230.593C100.545 229.463 100.449 228.696 99.65 227.83L99.4675 227.801C98.9956 229.251 100.211 231.933 98.2679 232.767C98.0466 232.862 97.793 232.933 97.5578 232.982C95.2128 232.967 92.4713 232.402 90.7836 230.631C89.0446 228.806 89.3143 225.208 89.1889 222.857C91.2401 223.955 93.7794 224.996 96.1354 224.298L96.1346 224.299Z" fill="#FFD900"/>
<path d="M99.5833 165.544C100.255 163.929 100.692 162.055 101.486 160.521C101.206 163.657 101.193 166.835 101.09 169.983C100.921 174.549 100.786 179.117 100.686 183.685C99.0308 184.383 97.9499 185.603 97.2889 187.258C96.7634 188.575 96.4666 190.21 97.0749 191.543C97.1247 191.651 97.1797 191.755 97.2405 191.857C97.3013 191.958 97.3673 192.056 97.4376 192.151C97.5087 192.245 97.5842 192.336 97.6648 192.423C97.7454 192.51 97.8297 192.592 97.9191 192.67C98.0085 192.747 98.1016 192.821 98.1976 192.889C98.2943 192.957 98.394 193.02 98.4973 193.077C98.6006 193.135 98.7069 193.187 98.8153 193.234C98.9238 193.281 99.0352 193.322 99.148 193.357C99.565 193.483 100.022 193.516 100.455 193.553C100.483 195.673 100.573 197.816 100.525 199.935C98.8542 200.895 97.5366 202.165 97.025 204.093C96.7217 205.236 96.8477 206.514 97.4669 207.534C98.0063 208.423 98.9348 209.061 99.9468 209.291C100.291 209.37 100.648 209.398 100.999 209.429C101.166 211.884 101.424 214.329 101.774 216.765C101.976 218.114 102.384 219.533 102.462 220.885C102.479 221.185 102.424 221.407 102.293 221.679C101.966 221.923 101.756 222.001 101.343 221.95C100.52 221.848 98.8124 220.894 98.1426 221.408C97.6545 221.782 97.3871 222.47 96.899 222.884C95.2523 223.646 93.6269 223.625 91.9341 223.016C90.8576 222.628 89.8632 222.036 89.0666 221.21C88.5859 217.911 88.6042 214.422 88.4158 211.09C87.8743 201.535 87.7497 191.989 87.395 182.431C93.3228 177.849 96.7561 172.351 99.5841 165.544L99.5833 165.544Z" fill="#FFD900"/>
<path d="M31.3283 225.488C32.8702 225.214 33.9658 223.94 34.2721 223.889C35.9869 224.471 37.6929 225.089 39.4311 224.212C39.4715 224.192 39.5103 224.169 39.5499 224.148C40.6513 225.841 42.1822 227.963 41.7139 230.099C41.59 230.662 41.2837 231.146 40.7891 231.453C39.7147 232.121 38.2161 231.815 37.0385 231.628C37.0495 230.686 37.0238 229.009 36.2104 228.378C35.9363 228.166 35.7428 228.219 35.4255 228.249L35.2284 228.431C35.5508 229.786 36.4449 231.168 35.5699 232.534C35.4937 232.652 35.4101 232.757 35.3127 232.859C33.7312 233.991 32.2385 233.826 30.4108 233.512C29.0771 233.282 27.5572 232.812 26.7233 231.681C25.5112 230.039 25.5016 226.027 25.4284 223.943C27.152 225.179 29.1907 225.87 31.3298 225.489L31.3283 225.488Z" fill="#FFD900"/>
<path d="M38.8286 219.337C40.3712 219.554 42.7661 220.049 44.1306 219.133C44.4105 218.945 44.6648 218.618 44.8861 218.366L45.0056 218.329C46.5482 218.677 47.3711 218.788 48.2586 220.207C48.9731 221.35 49.6517 223.029 49.2992 224.374C49.1299 225.021 48.7246 225.569 48.134 225.89C47.6459 226.155 47.0641 226.231 46.5328 226.059C46.1129 225.923 45.8109 225.658 45.6204 225.261C45.3991 224.803 45.3163 224.196 44.911 223.868C44.6047 223.834 44.3775 223.873 44.1167 224.06C44.0126 224.134 43.9965 224.166 43.9283 224.255C44.0009 224.561 44.0829 224.814 44.2105 225.102C44.379 225.486 44.3827 225.724 44.3277 226.141C43.8887 226.856 43.4872 227.192 42.7499 227.585C41.9284 226.051 40.904 224.583 40.1448 223.031C39.5783 221.874 39.228 220.56 38.8286 219.336V219.337Z" fill="#FFD900"/>
<path d="M77.9608 229.25C79.9607 228.642 80.0567 227.241 80.6517 226.984C81.7993 227.546 83.0107 227.864 84.1934 228.326C85.2165 230.076 86.0673 232.452 85.4825 234.482C85.2143 235.412 84.6734 236.107 83.8871 236.659C82.4992 236.697 81.452 236.418 80.1798 235.897C80.3381 234.929 80.3776 233.696 79.8082 232.855C79.5166 232.685 79.4843 232.688 79.145 232.71C78.9985 232.819 78.8981 232.838 78.8629 233.032C78.5954 234.511 80.2135 235.741 77.9527 237.59C77.8985 237.634 77.8428 237.677 77.7878 237.721C75.9778 238.174 74.0263 237.544 72.4756 236.578C71.2005 235.785 70.4963 234.733 70.1958 233.272C69.8367 231.526 69.9144 229.595 69.8807 227.816C72.148 228.991 75.415 230.023 77.9601 229.249L77.9608 229.25Z" fill="#FFD900"/>
<path d="M91.7826 102.576C92.0926 103.483 92.0442 104.522 91.606 105.38C91.2593 106.059 90.5294 106.78 89.7622 106.952C89.4617 107.019 89.1444 107.038 88.8381 107.062C88.0041 106.704 87.4523 106.183 87.0918 105.34C87.0412 105.219 86.9965 105.096 86.9584 104.97C86.9203 104.845 86.8888 104.718 86.8631 104.588C86.8382 104.459 86.8192 104.33 86.8074 104.199C86.795 104.068 86.7898 103.937 86.7913 103.806C86.7928 103.675 86.8008 103.544 86.8148 103.414C86.8294 103.284 86.8507 103.154 86.8785 103.026C86.9064 102.898 86.9401 102.771 86.9804 102.646C87.0207 102.521 87.0676 102.399 87.1204 102.279C87.4589 101.53 88.0957 100.883 88.8894 100.627C89.206 100.524 89.5379 100.511 89.8677 100.517C90.8021 100.964 91.4396 101.577 91.7811 102.576H91.7826Z" fill="#FFD900"/>
<path d="M43.6801 201.242C42.9627 202.357 42.4534 204.098 42.7545 205.41C42.7751 205.5 42.8 205.59 42.8293 205.679C42.8586 205.767 42.893 205.855 42.9312 205.939C42.9693 206.024 43.0125 206.107 43.0594 206.187C43.1063 206.268 43.1576 206.346 43.2126 206.421C43.2675 206.497 43.3261 206.569 43.3892 206.638C43.4515 206.707 43.5174 206.773 43.587 206.835C43.6566 206.898 43.7285 206.957 43.8039 207.012C43.8794 207.067 43.9571 207.118 44.0377 207.165C44.5009 207.434 44.9362 207.476 45.4565 207.539C45.4975 207.543 45.5378 207.552 45.5788 207.557C45.4938 210.876 45.4982 214.029 46.3432 217.271L46.3293 217.491C45.7115 217.485 45.0417 217.062 44.4481 216.877C43.8039 217.801 43.3723 218.441 42.1727 218.626C41.0449 218.8 39.6855 218.444 38.6053 218.119C36.3519 210.042 38.2396 198.225 40.3025 190.168C40.5319 189.272 40.8573 186.988 41.3145 186.349C41.401 186.229 41.4208 186.226 41.5256 186.153L41.8275 186.165C44.2817 186.839 46.6803 187.38 49.1902 187.797C47.9239 191.576 46.8386 195.557 46.2479 199.5C45.0732 199.732 44.3352 200.225 43.6816 201.243L43.6801 201.242Z" fill="#FFD900"/>
<path d="M43.9395 206.266C43.3386 205.401 43.2162 204.64 43.3972 203.596C43.5856 202.51 44.1901 201.237 45.1457 200.619C45.4249 200.439 45.7518 200.293 46.0713 200.202C45.891 202.496 45.6961 204.789 45.4865 207.081C44.9427 206.843 44.4114 206.634 43.9402 206.266H43.9395Z" fill="#714F2B"/>
<path d="M103.032 16.217L100.869 15.7188C101.154 13.8697 101.5 10.3843 102.086 8.79409L102.214 8.72021C102.95 8.86066 103.647 8.94331 104.396 8.97037C104.058 10.6732 103.779 15.0152 103.322 16.1862L103.032 16.217Z" fill="#FFD900"/>
<path d="M76.9039 26.6465C75.7431 25.2808 74.5897 24.0929 73.0815 23.1091C69.923 21.0486 65.9651 20.1065 62.246 20.8913C62.512 23.6021 63.0404 26.6172 64.58 28.9177C66.5411 31.8472 69.2855 32.8434 72.6066 33.4988L71.8181 36.6594C68.6575 35.9843 66.1563 34.9193 63.941 32.4982C60.9577 29.2373 58.4419 23.5056 58.7116 19.0341C58.7512 18.3788 58.875 17.6663 59.4151 17.2311C61.0691 15.8991 65.6419 15.7608 67.6879 15.9766C72.071 16.2663 75.4888 19.4379 78.256 22.5737C78.6063 22.9709 78.9668 23.3834 79.2753 23.8135L79.3838 23.8742C79.2511 24.4067 77.3868 26.133 76.9032 26.645L76.9039 26.6465Z" fill="#FFD900"/>
<path d="M63.2523 23.3944C63.1453 22.7639 63.0412 22.1356 62.9929 21.4978C63.8495 21.4275 64.7047 21.3347 65.5651 21.3888C70.3387 21.726 73.3872 23.6768 76.4915 27.2207C75.0837 28.9272 73.9083 30.5525 72.9768 32.5728L72.7746 32.8771C71.391 33.1141 68.5367 31.9028 67.3451 31.0719C64.7985 29.2966 63.7506 26.3305 63.2515 23.3944H63.2523Z" fill="#714F2B"/>
<path d="M79.6587 107.697C81.6417 108.547 83.3096 109.96 84.1048 112.016C84.1341 112.091 84.1619 112.167 84.1883 112.244C84.2139 112.32 84.2381 112.397 84.2601 112.475C84.2821 112.553 84.3019 112.631 84.3202 112.71C84.3378 112.789 84.3539 112.868 84.3686 112.948C84.3825 113.028 84.3942 113.107 84.4045 113.187C84.4147 113.268 84.4221 113.348 84.4279 113.429C84.4338 113.509 84.4375 113.59 84.4397 113.671C84.4411 113.751 84.4411 113.832 84.4389 113.913C84.4367 113.993 84.4323 114.074 84.4257 114.155C84.4191 114.235 84.4111 114.316 84.4001 114.396C84.3898 114.476 84.3774 114.556 84.3627 114.635C84.348 114.715 84.3312 114.794 84.3129 114.872C84.2938 114.951 84.2733 115.03 84.2506 115.107C84.2279 115.185 84.2037 115.262 84.1773 115.338C84.1509 115.415 84.1223 115.491 84.0923 115.565C84.0622 115.64 84.03 115.714 83.9956 115.787C83.5302 116.771 82.7498 117.493 81.8293 118.046C80.5997 118.666 79.5122 118.846 78.1403 118.855C78.1117 117.961 79.1604 108.163 79.3949 107.741L79.6587 107.697Z" fill="#714F2B"/>
<path d="M78.2136 133.17C78.6797 133.826 78.8343 134.625 78.6958 135.413C78.4825 136.624 77.6281 137.645 76.6307 138.32C75.1357 139.332 73.5169 139.542 71.7691 139.343C70.3526 138.992 69.1588 138.24 68.4033 136.96C67.9761 136.236 67.6947 135.325 67.9548 134.495C68.1585 133.846 68.4685 133.532 69.076 133.238C70.4721 132.562 73.3945 131.393 74.9064 131.454C76.1741 131.647 77.4368 132.076 78.2143 133.169L78.2136 133.17Z" fill="#714F2B"/>
<path d="M88.015 8.77655C87.398 8.99965 86.7252 9.12107 86.0781 9.21762C85.2017 9.22347 84.5641 9.09839 83.9251 8.45544C83.3967 7.92367 83.1776 7.16222 83.1952 6.4271C83.2209 5.35989 83.7536 4.34755 84.5355 3.63437C85.4208 2.82684 86.4218 2.54962 87.5951 2.61325C88.7332 3.0236 89.891 3.77116 90.3915 4.92175C90.6561 5.52959 90.6869 6.21497 90.4252 6.8294C90.0083 7.8081 88.9779 8.42911 88.0157 8.77655H88.015Z" fill="#FFD900"/>
<path d="M52.1076 138.841C52.3655 139.552 52.2182 140.296 51.8877 140.955C51.1314 142.461 49.561 143.392 47.9957 143.882C47.7868 143.948 47.5751 144.005 47.3611 144.054C47.1471 144.103 46.9316 144.143 46.7147 144.175C46.4978 144.206 46.2794 144.229 46.061 144.243C45.8419 144.257 45.6228 144.262 45.4037 144.259C45.1846 144.256 44.9655 144.244 44.7471 144.223C44.5287 144.202 44.3118 144.172 44.0956 144.134C43.8794 144.096 43.6655 144.049 43.4537 143.994C43.2411 143.938 43.0316 143.875 42.8249 143.802C42.0334 143.399 40.8675 142.724 40.5861 141.827C40.4637 141.437 40.5062 141.031 40.699 140.672C41.6018 138.989 46.3014 137.749 48.2119 137.249C48.8787 137.074 49.5192 136.944 50.2096 136.905C51.0508 137.332 51.7741 137.923 52.1083 138.843L52.1076 138.841Z" fill="#714F2B"/>
<path d="M91.7496 93.4612C90.7398 92.718 90.1367 91.9149 89.9557 90.6436C89.7996 89.5435 90.0715 88.2334 90.7566 87.344C91.1941 86.7764 91.883 86.3148 92.6085 86.2483C92.8173 86.2292 93.024 86.2409 93.2329 86.2541C94.209 87.0251 94.6597 88.1742 94.8165 89.3892C94.9623 90.5178 94.7681 91.9661 94.0324 92.8804C93.6982 93.2952 93.1405 93.6163 92.6026 93.6448C92.2941 93.6616 92.0325 93.5643 91.7496 93.4612Z" fill="#714F2B"/>
<path d="M124.105 17.0268C125.196 16.8585 126.292 16.8022 127.393 16.8585C127.132 20.4815 126.193 23.7489 123.353 26.1986C123.07 26.4473 122.775 26.6813 122.468 26.9C122.161 27.1195 121.844 27.3221 121.516 27.5093C121.188 27.6966 120.853 27.867 120.508 28.0206C120.164 28.1742 119.812 28.3103 119.454 28.4281C118.837 27.5598 118.274 26.663 117.711 25.7612C116.907 24.5703 115.956 23.4922 115.029 22.3964C117.122 19.4823 120.58 17.5988 124.105 17.0275V17.0268Z" fill="#714F2B"/>
<path d="M119.71 28.9797C122.693 27.9235 125.183 25.8929 126.573 23.0249C127.096 21.9467 127.437 20.8019 127.665 19.6279C127.826 18.4774 127.958 17.3443 127.942 16.1806C123.923 15.8119 119.55 17.0217 116.43 19.6448C115.626 20.3214 114.993 21.0792 114.471 21.9942C113.636 21.2628 112.781 20.63 111.874 19.9937C114.104 15.9531 117.936 13.2335 122.347 11.9396C124.627 11.271 126.808 10.996 129.173 11.2037C129.837 11.2944 130.432 11.4056 131.071 11.6214C132.185 15.3277 131.209 20.1378 129.417 23.4886C129.301 23.7088 129.18 23.926 129.055 24.1411C128.929 24.3561 128.8 24.569 128.667 24.7796C128.534 24.9903 128.397 25.1973 128.255 25.4028C128.114 25.6076 127.969 25.8103 127.82 26.0092C127.671 26.2089 127.518 26.4049 127.361 26.5988C127.204 26.7926 127.044 26.9828 126.88 27.1708C126.716 27.358 126.549 27.5424 126.378 27.7238C126.206 27.9052 126.032 28.0822 125.854 28.257C125.676 28.4311 125.495 28.6022 125.311 28.7698C125.126 28.9373 124.938 29.1011 124.748 29.2613C124.557 29.4215 124.363 29.578 124.167 29.7309C123.97 29.8838 123.77 30.0323 123.568 30.1778C123.366 30.3234 123.16 30.4645 122.952 30.6013C122.744 30.7388 122.534 30.872 122.321 31.0007C122.107 31.1302 121.892 31.2553 121.674 31.376C121.456 31.4966 121.236 31.6137 121.014 31.7263C120.592 30.8076 120.188 29.8735 119.713 28.9811L119.71 28.9797Z" fill="#FFD900"/>
<path d="M90.8525 18.0393C90.4633 18.1073 90.094 18.0495 89.7283 17.9091C88.2517 15.8398 87.727 12.4721 86.8762 10.051C87.6588 9.80812 88.4525 9.58502 89.2065 9.26172C89.6638 10.6647 91.8059 16.5025 91.6696 17.4702C91.4394 17.7957 91.2577 17.9683 90.8525 18.04V18.0393Z" fill="#FFD900"/>
<path d="M109.264 37.5237C110.465 36.6621 111.727 36.556 113.149 36.6189C114.892 37.1171 116.267 37.9948 117.18 39.6113C118.155 41.3361 118.308 43.7243 117.735 45.6101C117.253 47.1929 116.166 48.6998 114.695 49.4927C114.622 49.5322 114.549 49.5702 114.475 49.606C114.401 49.6419 114.326 49.6763 114.25 49.7077C114.174 49.7399 114.098 49.7699 114.02 49.7984C113.942 49.8262 113.865 49.8525 113.785 49.8774C113.707 49.9015 113.627 49.9235 113.547 49.944C113.467 49.9644 113.387 49.982 113.306 49.9981C113.226 50.0142 113.144 50.0281 113.062 50.0398C112.98 50.0515 112.899 50.0617 112.817 50.069C112.735 50.0771 112.652 50.0822 112.57 50.0859C112.488 50.0895 112.405 50.091 112.323 50.0903C112.24 50.0903 112.158 50.0866 112.075 50.0822C111.993 50.0771 111.911 50.0705 111.829 50.061C111.747 50.0522 111.665 50.0413 111.584 50.0281C111.503 50.0149 111.421 49.9996 111.341 49.9827C111.26 49.9652 111.18 49.9462 111.1 49.9249C111.02 49.9037 110.941 49.8803 110.863 49.8547C110.298 49.677 109.797 49.3756 109.317 49.0355C110.562 49.4817 111.727 49.8006 113.007 49.2176C113.662 48.9192 114.165 48.4664 114.614 47.9142C115.387 46.4483 115.603 44.9181 115.12 43.3052C114.708 41.9286 113.759 40.6112 112.472 39.9281C111.52 39.4226 110.485 39.3429 109.47 39.7086C107.871 40.2857 107.287 41.44 106.599 42.8663C106.511 43.047 106.551 42.979 106.411 43.1443C106.764 41.1474 107.537 38.7621 109.263 37.5237H109.264Z" fill="white"/>
<path d="M100.231 6.1493C99.779 5.4193 99.7241 4.5591 99.9667 3.74571C100.28 2.69533 101.023 1.89365 102.002 1.42186C102.532 1.16658 103.169 0.992491 103.761 1.01517C104.999 1.20096 106.032 1.59375 106.809 2.63828C107.378 3.40339 107.673 4.37989 107.52 5.33006C107.386 6.16612 106.895 6.88003 106.197 7.35109C105.377 7.90554 104.424 8.05475 103.453 8.0511C102.208 7.79435 100.929 7.27794 100.23 6.1493H100.231Z" fill="#FFD900"/>
<path d="M13.8234 163.898L13.6666 163.693C13.8352 162.806 14.3459 161.94 14.7812 161.159C16.7782 157.582 19.5241 154.293 22.939 151.983C24.39 151.001 26.0037 150.03 27.7559 149.746C26.9182 150.948 26.1627 152.199 25.4878 153.498C20.3236 155.477 17.2831 159.457 14.9227 164.316L13.8227 163.897L13.8234 163.898Z" fill="#FFD900"/>
<path d="M51.6019 161.652C52.8037 161.124 53.9535 161.126 55.2272 161.223C56.3352 161.562 57.5627 162.031 58.1475 163.107C58.4897 163.738 58.508 164.471 58.2735 165.141C57.8829 166.258 56.8482 167.132 55.7944 167.609C54.7105 168.099 53.634 168.149 52.4666 168.038C51.2802 167.659 50.1634 167.14 49.5661 165.967C49.2195 165.285 49.1785 164.517 49.4327 163.797C49.7882 162.791 50.6456 162.073 51.6019 161.652Z" fill="#714F2B"/>
<path d="M34.0171 210.598C33.8361 210.526 33.6653 210.44 33.5019 210.335C32.6643 209.407 32.2437 208.433 32.2972 207.164C32.3433 206.073 32.7669 204.898 33.5891 204.15C34.2663 203.535 34.98 203.37 35.8719 203.414C36.2529 203.605 36.5424 203.675 36.7674 204.043C36.8399 206.103 36.5197 208.17 36.5241 210.237C35.7026 210.605 34.9163 210.954 34.0171 210.598Z" fill="#714F2B"/>
<path d="M29.6164 186.374C29.8494 186.352 30.0825 186.355 30.3148 186.384C31.192 187.115 31.6742 187.908 31.7826 189.065C31.8706 190.005 31.6786 191.116 31.0352 191.845C30.6072 192.331 30.0942 192.631 29.4435 192.641C29.3152 192.643 29.187 192.638 29.0587 192.636C28.2145 191.996 27.7924 191.205 27.6297 190.16C27.4817 189.209 27.6085 188.074 28.1874 187.277C28.512 186.831 29.0536 186.428 29.6157 186.374L29.6164 186.374Z" fill="#714F2B"/>
<path d="M36.1159 152.582C37.339 151.571 38.6896 151.274 40.2358 151.309C41.5227 151.528 42.9422 151.986 43.7387 153.094C44.1792 153.707 44.3008 154.422 44.1623 155.158C43.9571 156.245 43.1796 157.122 42.268 157.703C40.9452 158.547 39.5638 158.734 38.0352 158.761C36.988 158.664 35.8939 158.323 35.1801 157.503C35.1171 157.43 35.057 157.354 35.0013 157.275C34.9456 157.196 34.8943 157.114 34.8467 157.03C34.799 156.946 34.7558 156.86 34.7177 156.77C34.6788 156.682 34.6444 156.592 34.6151 156.5C34.5858 156.408 34.5601 156.315 34.5404 156.22C34.5198 156.126 34.5044 156.03 34.4942 155.934C34.4839 155.839 34.4781 155.742 34.4766 155.645C34.4759 155.549 34.4795 155.452 34.4883 155.356C34.5807 154.253 35.2842 153.27 36.1166 152.581L36.1159 152.582Z" fill="#714F2B"/>
<path d="M30.4702 176.388C30.2225 176.458 29.9572 176.465 29.7022 176.474C28.7642 175.92 28.2563 175.272 27.9764 174.209C27.6224 172.865 27.8276 171.213 28.5326 170.012C28.9481 169.303 29.637 168.639 30.468 168.471C30.6622 168.432 30.8637 168.422 31.0608 168.414C31.9344 168.806 32.4232 169.2 32.7537 170.122C33.2417 171.487 33.0116 173.377 32.3528 174.65C31.971 175.388 31.3005 176.151 30.4709 176.387L30.4702 176.388Z" fill="#714F2B"/>
<path d="M39.7205 140.678C39.9873 142.013 40.3375 143.099 41.5152 143.926C43.0893 145.031 45.4629 145.151 47.303 144.789C49.1563 144.425 51.1628 143.46 52.1997 141.822C52.7303 140.985 52.9883 139.988 52.7508 139.011C52.4951 137.957 51.8033 137.25 51.0565 136.517C56.445 135.312 61.9961 135.009 67.3516 133.616C67.1625 135.205 67.1911 136.632 68.2112 137.968C69.1536 139.203 70.6324 139.932 72.1655 140.089C72.2871 140.1 72.4088 140.109 72.5312 140.114C72.6536 140.119 72.7752 140.122 72.8976 140.12C73.02 140.12 73.1424 140.116 73.264 140.109C73.3856 140.102 73.508 140.092 73.6297 140.079C73.7513 140.067 73.8722 140.051 73.9932 140.032C74.1141 140.013 74.2343 139.991 74.3537 139.967C74.4732 139.942 74.5926 139.914 74.7106 139.883C74.8293 139.853 74.9466 139.819 75.0631 139.783C75.1796 139.746 75.2954 139.707 75.4104 139.665C75.5255 139.623 75.6391 139.578 75.7512 139.53C75.8641 139.482 75.9747 139.432 76.0846 139.379C76.1946 139.325 76.303 139.27 76.4107 139.21C76.5177 139.152 76.624 139.09 76.7281 139.027C76.8321 138.963 76.9347 138.897 77.0358 138.827C77.137 138.758 77.2359 138.687 77.3334 138.613C77.4308 138.539 77.5261 138.463 77.6199 138.384C78.6129 137.533 79.3047 136.369 79.3684 135.045C79.4168 134.045 79.1193 133.095 78.4326 132.355C77.5913 131.449 76.4027 131.008 75.236 130.692C76.594 127.936 77.3861 122.717 77.905 119.66C80.0595 119.647 81.9384 119.353 83.5352 117.741C84.6418 116.624 85.2097 115.036 85.1453 113.473C85.0683 111.613 84.0314 109.908 82.6573 108.698C81.6834 107.841 80.5974 107.357 79.3574 107.001C79.8132 101.409 80.1379 95.8588 80.2082 90.247C81.9707 90.1146 83.5184 89.5623 84.6843 88.1623C85.7403 86.894 86.1353 85.1823 85.9499 83.5622C85.7176 81.5375 84.6367 79.447 83.0083 78.1962C82.1905 77.5678 81.3302 77.2628 80.3599 76.96C80.346 75.9601 80.0331 66.6157 80.0653 66.514C80.0829 66.4591 80.1342 66.4218 80.1694 66.3765C83.1454 68.6542 86.479 70.1194 89.9643 71.4279C91.6146 75.7611 94.5913 79.1441 98.5845 81.4702C98.1331 90.5432 97.4911 99.7692 98.3478 108.836C99.8662 124.904 105.008 141.618 101.152 157.693C100.518 160.331 99.5372 162.875 98.5193 165.385C96.279 170.911 93.0429 176.147 88.5815 180.159C87.5445 181.092 86.427 181.967 85.3006 182.789C85.3973 181.37 85.8429 178.728 85.3666 177.477L85.1306 177.273C84.8499 177.417 84.7847 177.543 84.6975 177.849C84.2454 179.438 84.2945 181.487 84.1516 183.155C83.8738 186.396 83.4774 189.684 83.4011 192.936C81.4921 193.289 79.7825 193.968 78.6195 195.617C77.8302 196.737 77.3268 198.247 77.5994 199.62C77.7481 200.367 78.1468 201.031 78.8115 201.426C79.6711 201.938 80.7425 201.872 81.6739 201.616C82.1165 201.496 82.5452 201.34 82.9607 201.146C82.8486 206.341 82.9549 211.531 83.278 216.718C83.4422 218.769 83.6305 220.818 83.8423 222.865C83.9654 224.099 84.2307 225.462 84.1127 226.696C83.8841 226.901 83.7368 226.852 83.4341 226.841C82.3591 226.804 80.9125 225.471 80.0052 226.247C79.7121 226.498 79.5055 227.095 79.3435 227.444C77.584 228.544 75.8399 228.67 73.8539 228.219C72.4806 227.907 70.9944 227.297 69.8901 226.412C69.7399 222.786 69.5955 219.132 69.6189 215.504C71.2084 215.793 72.8162 215.893 74.2225 214.929C74.2841 214.887 74.3442 214.843 74.4035 214.797C74.4629 214.751 74.5208 214.704 74.5772 214.655C74.6336 214.606 74.6893 214.557 74.7436 214.505C74.7978 214.454 74.8506 214.4 74.9019 214.346C74.9532 214.292 75.003 214.236 75.0514 214.179C75.0997 214.122 75.1466 214.064 75.1921 214.005C75.2375 213.946 75.2815 213.886 75.324 213.825C75.3665 213.763 75.4075 213.7 75.4463 213.637C75.4852 213.573 75.5233 213.509 75.5585 213.443C75.5944 213.377 75.6281 213.311 75.6603 213.244C75.6926 213.176 75.7234 213.108 75.7519 213.04C75.7805 212.971 75.8076 212.901 75.8325 212.83C75.8575 212.76 75.8809 212.689 75.9029 212.618C75.9241 212.547 75.9439 212.475 75.9623 212.402C75.9798 212.329 75.996 212.256 76.0099 212.183C76.0238 212.11 76.0363 212.036 76.0465 211.962C76.0568 211.889 76.0648 211.817 76.0714 211.744C76.078 211.67 76.0824 211.597 76.0854 211.523C76.0883 211.45 76.089 211.376 76.0876 211.303C76.0868 211.23 76.0839 211.156 76.0788 211.083C76.0736 211.01 76.067 210.937 76.059 210.864C76.0502 210.79 76.0399 210.717 76.0275 210.645C76.015 210.572 76.0011 210.5 75.985 210.428C75.9688 210.357 75.9513 210.285 75.9315 210.214C75.9117 210.143 75.8904 210.073 75.867 210.003C75.8435 209.934 75.8186 209.864 75.7922 209.796C75.7651 209.728 75.7365 209.66 75.7065 209.593C75.6765 209.526 75.6442 209.46 75.6105 209.395C75.5768 209.33 75.5416 209.265 75.5042 209.201C75.4676 209.137 75.4288 209.075 75.3885 209.013C75.3482 208.952 75.3064 208.891 75.2631 208.832C75.2199 208.772 75.1752 208.714 75.129 208.657C74.4402 207.812 73.4677 207.319 72.3817 207.239C71.5294 207.176 70.6603 207.356 69.8395 207.562C69.9736 201.048 69.9582 194.574 69.8879 188.06C69.86 185.502 70.0938 182.704 69.7479 180.177C69.7018 179.839 69.6761 179.7 69.4409 179.448L69.0832 179.399C68.3863 180.149 68.7887 185.97 68.815 187.234C59.591 188.106 50.4739 187.627 41.5716 184.931C42.1725 182.192 44.0984 174.263 42.717 172.057L42.4466 171.963C42.1418 172.141 42.0743 172.316 41.9197 172.619C42.7368 180.015 39.4889 187.922 38.0409 195.142C37.7346 196.667 37.5096 198.214 37.2949 199.755C37.16 200.723 37.1036 201.772 36.7922 202.702C36.5159 202.776 36.6434 202.786 36.4609 202.73C35.5346 202.444 34.5153 202.744 33.6887 203.199C32.6854 203.752 32.1219 204.672 31.8192 205.758C31.4418 207.113 31.5583 208.622 32.2941 209.84C32.6649 210.455 33.312 211.177 34.0375 211.357C34.8575 211.559 35.8402 211.291 36.6514 211.107C36.8031 214.713 37.4143 217.979 38.567 221.401C38.7077 221.819 39.1284 222.691 38.836 223.021C38.5407 223.354 38.1515 223.462 37.7199 223.483C36.4433 223.546 35.1675 222.943 33.9569 222.623C32.2039 223.939 31.7862 224.758 29.3415 224.424C28.1815 224.266 26.3597 223.774 25.6584 222.792C24.3994 221.032 26.1838 206.576 26.7862 203.873C27.0112 202.858 27.297 201.861 27.6443 200.882C27.0266 198.819 26.348 196.804 25.8848 194.698C23.9311 185.815 22.2757 169.706 24.0667 160.763C24.6141 158.031 25.695 155.212 27.0266 152.767C29.7659 147.738 34.675 143.333 39.7212 140.679L39.7205 140.678ZM88.5162 99.9864C88.3917 100.042 88.2707 100.104 88.1528 100.172C88.0348 100.24 87.9205 100.314 87.8098 100.394C87.6991 100.474 87.5929 100.558 87.491 100.649C87.3892 100.74 87.2917 100.835 87.1994 100.935C87.107 101.035 87.0206 101.14 86.9385 101.249C86.8571 101.358 86.7809 101.471 86.7106 101.588C86.6402 101.704 86.5765 101.824 86.5186 101.947C86.4541 102.085 86.3969 102.225 86.3464 102.368C86.2958 102.511 86.2526 102.656 86.2174 102.804C86.1815 102.951 86.1529 103.1 86.1324 103.25C86.1119 103.4 86.0987 103.551 86.0928 103.703C86.0869 103.854 86.0891 104.006 86.0987 104.157C86.1082 104.309 86.125 104.459 86.15 104.609C86.1741 104.758 86.2064 104.906 86.246 105.053C86.2855 105.199 86.3324 105.343 86.3859 105.485C86.8051 106.574 87.5335 107.292 88.5851 107.764C89.1179 107.794 89.6279 107.784 90.1328 107.596C91.0819 107.243 91.8081 106.53 92.2295 105.615C92.7417 104.502 92.7226 103.274 92.2903 102.139C91.8975 101.106 91.1529 100.13 90.1402 99.6521C89.7049 99.6594 89.3121 99.6997 88.8973 99.8401C88.7683 99.8833 88.6408 99.9323 88.517 99.9886L88.5162 99.9864ZM95.0457 92.5445C95.7214 91.0392 95.6752 89.1564 95.0713 87.6357C94.6632 86.6094 94.1385 85.9767 93.1301 85.5291C92.7783 85.5313 92.4061 85.5298 92.0631 85.6124C91.2108 85.8165 90.459 86.4529 90.0017 87.1829C89.252 88.3788 88.9831 89.9595 89.3429 91.3274C89.6983 92.6769 90.4963 93.581 91.6879 94.262C92.261 94.4083 92.7219 94.4851 93.2928 94.2839C94.115 93.9935 94.6961 93.325 95.0464 92.5452L95.0457 92.5445ZM92.4368 127.97C93.0106 126.518 92.9198 124.926 92.2426 123.526C91.5641 122.123 90.5454 121.278 89.0988 120.772C88.2678 120.738 87.631 120.824 86.8974 121.238C85.6656 121.933 84.8961 123.221 84.5729 124.569C84.1926 126.15 84.3296 127.991 85.2493 129.366C85.9909 130.476 86.9407 130.916 88.2004 131.177C88.6577 131.146 89.1032 131.069 89.5327 130.902C90.8825 130.376 91.907 129.311 92.4376 127.97H92.4368ZM81.8923 152.052C82.6991 153.162 83.6672 153.566 84.9686 153.782C85.5725 153.688 86.1756 153.554 86.7362 153.304C88.525 152.508 89.6448 150.842 90.2787 149.052C90.7887 147.613 90.9932 146.025 90.2787 144.614C89.4491 142.975 87.8618 142.165 86.2013 141.613C85.0676 141.48 84.0577 141.65 83.0956 142.296C81.7911 143.17 81.0099 144.677 80.7359 146.191C80.3944 148.081 80.7469 150.476 81.8923 152.052ZM66.4575 161.634C67.2849 162.967 68.5571 163.588 70.0213 163.959C71.5726 164.14 73.0456 164.103 74.4512 163.324C75.6252 162.672 76.5764 161.583 76.9376 160.279C77.222 159.254 77.0161 158.171 76.4532 157.278C75.5636 155.865 74.1273 155.236 72.5583 154.899C71.0018 154.776 69.5266 154.844 68.1247 155.627C67.0988 156.199 66.1783 157.131 65.8793 158.294C65.5906 159.418 65.8508 160.657 66.4575 161.633V161.634ZM63.3394 151.305C64.5082 150.628 65.491 149.563 65.8251 148.231C65.8574 148.103 65.883 147.975 65.9021 147.844C65.9211 147.714 65.9336 147.584 65.9394 147.452C65.9453 147.321 65.9446 147.19 65.9372 147.059C65.9299 146.928 65.916 146.797 65.8955 146.668C65.875 146.538 65.8478 146.409 65.8149 146.282C65.7812 146.155 65.7416 146.03 65.6954 145.907C65.6492 145.784 65.5972 145.663 65.5386 145.546C65.48 145.428 65.4162 145.313 65.3466 145.202C64.4914 143.841 63.1283 143.334 61.6392 142.988C60.1406 142.854 58.716 143.026 57.3793 143.772C56.2083 144.427 55.2131 145.47 54.8584 146.787C54.58 147.823 54.7646 148.956 55.3106 149.874C56.0984 151.198 57.4394 151.816 58.8728 152.181C60.4513 152.333 61.947 152.109 63.3394 151.303V151.305ZM49.1864 166.756C50.0526 168.044 51.4896 168.486 52.9296 168.772C54.4451 168.829 55.7385 168.652 57.0247 167.765C58.0074 167.088 58.8486 166.072 59.048 164.868C59.0656 164.76 59.0788 164.651 59.0854 164.542C59.0919 164.433 59.0941 164.324 59.0897 164.215C59.0861 164.106 59.0766 163.997 59.0619 163.888C59.0472 163.78 59.0267 163.673 59.0018 163.567C58.9762 163.46 58.9454 163.356 58.9095 163.252C58.8736 163.149 58.8325 163.048 58.7864 162.948C58.7402 162.85 58.6889 162.753 58.6332 162.659C58.5775 162.565 58.5167 162.474 58.4522 162.386C57.5779 161.182 56.157 160.729 54.7551 160.496C53.3312 160.419 51.9506 160.56 50.6923 161.303C49.695 161.891 48.935 162.828 48.6829 163.968C48.4704 164.93 48.6346 165.936 49.1871 166.757L49.1864 166.756ZM34.4684 157.658C35.2884 158.769 36.5745 159.22 37.8826 159.434C39.3922 159.549 40.9487 159.272 42.2744 158.526C43.4286 157.876 44.4479 156.817 44.7946 155.512C45.0364 154.601 44.9192 153.626 44.415 152.822C43.6052 151.532 42.1527 151.014 40.7465 150.674C39.0588 150.524 37.4957 150.75 36.0674 151.726C34.9813 152.467 34.0639 153.586 33.8403 154.91C33.6798 155.86 33.8931 156.877 34.4684 157.658ZM33.4849 173.383C33.8125 171.97 33.833 170.225 32.9991 168.984C32.4736 168.203 31.8177 167.882 30.9149 167.7C30.5991 167.734 30.2971 167.783 29.9945 167.887C28.8931 168.263 28.0664 169.303 27.6157 170.335C26.9818 171.786 26.8734 173.57 27.5007 175.04C27.9602 176.118 28.6498 176.728 29.7131 177.175C30.2927 177.158 30.8109 177.113 31.3136 176.799C32.4919 176.064 33.1793 174.7 33.4842 173.383L33.4849 173.383ZM27.2816 191.495C27.6751 192.4 28.2753 193.025 29.1979 193.374C29.505 193.376 29.8377 193.369 30.1337 193.273C31.019 192.988 31.7034 192.186 32.0625 191.358C32.5821 190.163 32.5821 188.708 32.0523 187.515C31.6214 186.545 31.0278 186.031 30.0487 185.668C29.7263 185.668 29.3958 185.715 29.0895 185.821C28.2621 186.106 27.6121 186.806 27.2611 187.591C26.7224 188.795 26.7591 190.293 27.2816 191.495Z" fill="#FFD900"/>
<path d="M3.55637 175.531C4.26135 174.066 4.39839 172.342 4.74135 170.767C5.57164 166.952 7.96064 164.451 12.0747 164.582C12.1223 164.583 12.1692 164.59 12.2169 164.595C13.3982 164.771 14.474 164.989 15.2148 166.028C16.1617 167.357 16.0444 169.497 15.7381 171.032C15.7073 171.179 15.6729 171.325 15.6355 171.47C15.5974 171.616 15.5563 171.76 15.5109 171.903C15.4655 172.047 15.4171 172.189 15.3651 172.329C15.313 172.47 15.2574 172.609 15.198 172.748C15.1394 172.886 15.0763 173.023 15.0104 173.157C14.9444 173.293 14.8756 173.426 14.803 173.557C14.7305 173.689 14.655 173.818 14.5758 173.946C14.4967 174.074 14.4146 174.2 14.3296 174.324C14.2446 174.448 14.1559 174.569 14.0651 174.688C13.9742 174.807 13.8796 174.924 13.7822 175.039C13.6847 175.154 13.585 175.266 13.4825 175.376C13.3799 175.485 13.2743 175.592 13.1659 175.697C13.0582 175.801 12.9475 175.903 12.8339 176.002C12.7211 176.101 12.6053 176.197 12.4873 176.29C12.3693 176.384 12.2491 176.474 12.1267 176.561C12.0043 176.648 11.8798 176.733 11.753 176.814C9.72454 178.141 7.42275 178.712 5.01469 178.713C3.75937 178.691 2.6572 178.457 1.45757 178.099C2.23436 177.321 3.07271 176.535 3.55637 175.53V175.531Z" fill="#714F2B"/>
<path d="M73.0934 208.024C74.038 208.428 74.7496 208.956 75.1673 209.926C75.5506 210.816 75.5256 211.867 75.1534 212.756C74.7906 213.623 74.0593 214.384 73.1791 214.731C72.7299 214.908 72.2719 214.981 71.7963 215.042C71.0547 215.052 70.4311 215.06 69.8243 214.592C69.2695 213.688 69.6938 209.878 69.7752 208.659C70.9162 207.907 71.7802 207.914 73.0941 208.024H73.0934Z" fill="#714F2B"/>
<path d="M80.6751 77.9327C82.4537 78.5179 83.6357 79.5873 84.4902 81.2514C85.2567 82.7458 85.5894 84.562 85.0215 86.1763C84.713 87.0555 84.1941 87.6963 83.5089 88.3114C82.6845 88.8725 81.4908 89.5622 80.4626 89.4445L80.242 89.3033C80.1578 87.8989 79.9951 78.7695 80.2948 78.0029C80.4501 77.943 80.5051 77.9144 80.6751 77.9327Z" fill="#714F2B"/>
<path d="M79.8603 201.127C79.4704 201.043 79.1736 200.815 78.8614 200.58C78.295 199.798 78.0451 199.02 78.2034 198.044C78.4151 196.734 79.2909 195.525 80.3608 194.768C81.3127 194.095 82.2163 193.847 83.3646 193.765C83.4496 195.818 83.2598 198.095 83.0165 200.138C82.0961 200.765 81.0167 201.376 79.8595 201.127H79.8603Z" fill="#714F2B"/>
<path d="M68.0829 156.495C69.2327 155.672 70.606 155.426 71.994 155.534C73.4296 155.753 74.8351 156.281 75.7196 157.501C76.226 158.2 76.4459 159.031 76.2736 159.883C76.0465 161.008 75.2023 161.981 74.2415 162.568C73.1547 163.232 72.0878 163.343 70.8508 163.37C69.4994 163.224 68.3064 162.894 67.4028 161.796C66.7418 160.993 66.3783 159.88 66.5352 158.843C66.6817 157.871 67.2966 157.058 68.0829 156.495V156.495Z" fill="#714F2B"/>
<path d="M83.0406 143.229C83.8431 142.527 84.7041 142.283 85.7499 142.36C87.1928 142.704 88.6071 143.242 89.4404 144.561C90.1116 145.623 90.1153 146.874 89.8258 148.06C89.4 149.807 88.3023 151.632 86.7091 152.531C86.2899 152.768 85.8187 152.905 85.3607 153.046C84.2769 153.032 83.4986 152.829 82.7314 152.022C81.5691 150.8 81.2613 148.935 81.3419 147.306C81.4159 145.808 81.8762 144.248 83.0406 143.229Z" fill="#714F2B"/>
<path d="M88.336 130.438C87.3313 130.299 86.6989 130.053 86.0643 129.234C85.1827 128.096 84.9739 126.485 85.1974 125.097C85.3886 123.907 85.9448 122.723 86.9679 122.031C87.5387 121.644 88.1096 121.502 88.7897 121.492C90.0736 121.9 91.0555 122.69 91.6653 123.906C91.7012 123.978 91.7356 124.05 91.7678 124.123C91.8001 124.196 91.8309 124.27 91.8595 124.346C91.888 124.42 91.9144 124.496 91.9386 124.572C91.9628 124.648 91.9855 124.725 92.006 124.803C92.0265 124.88 92.0449 124.958 92.0617 125.036C92.0786 125.114 92.0925 125.193 92.105 125.272C92.1174 125.351 92.1277 125.43 92.1357 125.51C92.1438 125.59 92.1504 125.67 92.154 125.749C92.1584 125.829 92.1599 125.909 92.1599 125.989C92.1599 126.069 92.1577 126.149 92.154 126.229C92.1504 126.309 92.1438 126.389 92.135 126.468C92.1269 126.548 92.1167 126.628 92.1042 126.707C92.0918 126.786 92.0771 126.865 92.061 126.943C92.0441 127.021 92.0258 127.099 92.0053 127.176C91.9848 127.254 91.962 127.331 91.9371 127.407C91.9129 127.483 91.8858 127.559 91.8573 127.634C91.4366 128.742 90.5609 129.679 89.4617 130.14C89.0989 130.292 88.723 130.373 88.336 130.438Z" fill="#714F2B"/>
<path d="M55.9358 149.554C55.875 149.454 55.8193 149.35 55.7695 149.244C55.7197 149.138 55.675 149.029 55.6361 148.918C55.5973 148.807 55.5643 148.695 55.5372 148.581C55.5101 148.467 55.4888 148.351 55.4742 148.235C55.4595 148.119 55.4507 148.002 55.4478 147.884C55.4448 147.767 55.4485 147.649 55.458 147.532C55.4676 147.415 55.483 147.299 55.5049 147.184C55.5262 147.068 55.554 146.955 55.5877 146.842C55.9373 145.68 56.8958 144.749 57.954 144.202C59.0489 143.636 60.1723 143.524 61.3807 143.614C62.7262 143.903 64.0965 144.371 64.8609 145.604C64.9166 145.695 64.9671 145.788 65.0126 145.884C65.058 145.98 65.099 146.078 65.135 146.178C65.1709 146.278 65.2016 146.38 65.2266 146.483C65.2522 146.586 65.272 146.691 65.2867 146.796C65.3013 146.902 65.3108 147.007 65.3145 147.114C65.3182 147.22 65.3174 147.326 65.3101 147.433C65.3028 147.539 65.291 147.644 65.2735 147.749C65.2559 147.854 65.2324 147.958 65.2046 148.06C64.8902 149.233 63.9712 150.17 62.9321 150.752C61.7237 151.429 60.4859 151.579 59.1236 151.524C57.8551 151.211 56.6474 150.725 55.9358 149.555V149.554Z" fill="#714F2B"/>
<path d="M0.217865 177.254C0.952881 176.469 1.92461 176.538 2.58488 175.466C3.6145 173.797 3.72957 171.767 4.15826 169.899C5.16443 165.515 8.21517 163.528 12.5637 163.574C13.4439 162.059 14.1349 160.461 15.0964 158.987C17.8386 154.787 22.4986 150.024 27.4811 148.693C28.0014 148.554 28.5429 148.462 29.0772 148.398C36.2149 139.743 44.7119 136.548 55.4661 134.695C58.3454 134.199 61.2627 133.896 64.1303 133.336C66.1939 132.932 68.2868 132.41 70.297 131.799C71.8608 131.323 73.4313 130.715 75.0332 130.394C78.3947 116.803 79.3466 102.597 79.7108 88.6446C79.9131 80.9211 79.9805 73.0601 79.3041 65.3585C74.0813 60.7072 72.0455 54.056 71.6424 47.2505C71.5376 45.6508 71.5186 44.0496 71.5845 42.447C71.6505 40.8451 71.8015 39.2512 72.0382 37.6647C67.2338 36.6026 64.3018 34.7374 61.6006 30.5344C59.578 27.3876 57.389 21.8549 58.1688 18.0578C58.3395 17.2247 58.711 16.6183 59.4292 16.1502C61.8226 14.5914 67.0718 14.4993 69.8016 15.1517C74.4924 16.2738 77.3511 19.7504 80.4224 23.1532C82.9213 20.7313 85.6459 19.0336 88.8154 17.6197C87.9302 15.2227 87.2354 12.7584 86.4543 10.3263C85.1835 10.1946 84.1459 9.95763 83.3141 8.88531C82.6304 8.0039 82.4135 6.87818 82.5747 5.78757C82.5872 5.70564 82.6011 5.62372 82.6179 5.54253C82.634 5.46134 82.6524 5.38014 82.6729 5.29968C82.6934 5.21922 82.7154 5.13949 82.7403 5.05976C82.7645 4.98077 82.7916 4.90177 82.8202 4.8235C82.8488 4.74524 82.8788 4.66843 82.9118 4.59163C82.944 4.51483 82.9785 4.43949 83.0144 4.36488C83.051 4.29027 83.0891 4.21639 83.1287 4.14324C83.169 4.0701 83.2108 3.99841 83.254 3.92819C83.2973 3.85724 83.3427 3.78775 83.3903 3.71973C83.4372 3.65097 83.4863 3.58441 83.5369 3.51784C83.5875 3.45201 83.6395 3.38691 83.693 3.32401C83.7465 3.26037 83.8022 3.19893 83.8586 3.13821C83.9158 3.0775 83.9744 3.01899 84.0337 2.9612C84.0938 2.90342 84.1547 2.84782 84.2177 2.79296C84.2807 2.7381 84.3445 2.68544 84.4097 2.63424C84.4749 2.58304 84.5416 2.5333 84.6097 2.48575C85.6254 1.7616 86.8419 1.43537 88.0789 1.66139C89.409 1.90424 90.591 2.6079 91.3253 3.75484C91.8009 4.498 91.9973 5.27408 92.1827 6.12112C91.8185 7.32656 91.3444 8.04267 90.443 8.93578C91.2945 11.2706 91.9446 13.6954 92.8357 16.0097C95.3529 15.5884 97.7536 15.4889 100.305 15.5277C100.726 13.1197 101.178 10.7169 101.661 8.32062C100.552 7.53869 99.508 6.69531 99.2347 5.28652C99.0104 4.13081 99.3915 2.89464 100.083 1.96202C100.861 0.91384 102.118 0.191155 103.417 0.0360855C103.758 -0.00487636 104.095 -0.0136539 104.437 0.016336C105.998 0.324281 107.364 1.03307 108.274 2.38627C108.93 3.36131 109.214 4.53165 108.936 5.68663C108.653 6.86428 107.842 7.75813 106.812 8.355C106.434 8.57371 106.041 8.74999 105.637 8.9153C105.069 11.4228 105.045 14.0216 104.518 16.5269C106.952 17.2584 109.183 18.2341 111.449 19.3796C114.405 14.6719 118.771 11.689 124.209 10.4514C126.171 10.0052 129.933 9.71186 131.678 10.771C132.303 11.1506 132.591 11.7834 132.746 12.4739C133.644 16.4442 132.052 21.9339 129.84 25.2591C128.308 27.5632 126.236 29.7144 123.973 31.3127C123.222 31.8437 122.375 32.2467 121.642 32.7902C123.896 39.3551 123.685 47.1664 120.662 53.4694C120.39 54.0362 120.082 54.587 119.783 55.14C122.653 58.4009 124.143 61.879 123.841 66.2663C123.647 69.1036 122.563 71.9922 120.353 73.8735C119.54 74.5647 118.53 74.8844 117.594 75.3686C115.92 78.5929 113.741 81.8603 110.108 83.0241C107.02 84.013 102.929 83.2654 99.9976 82.068C99.6861 85.5425 99.4992 89.0243 99.4362 92.5119C99.2625 98.8163 99.2537 105.102 99.9939 111.376C101.239 121.933 103.553 132.419 103.906 143.062C104.005 146.01 103.838 148.984 103.541 151.917C103.365 153.66 103.073 155.385 103.001 157.137C102.422 171.094 101.75 185.049 101.945 199.021C102.007 203.592 102.28 208.149 102.765 212.694C102.946 214.35 103.152 216.002 103.385 217.653C103.628 219.294 104.085 220.902 103.898 222.571C105.368 224.559 107.184 226.45 106.804 229.151C106.67 230.107 106.188 230.953 105.382 231.498C104.373 232.181 102.944 232.337 101.778 232.033C101.497 231.96 101.232 231.836 100.969 231.714C100.339 232.826 99.7433 233.68 98.4308 234.041C96.4668 234.581 93.6323 233.439 91.949 232.444C90.4782 231.575 89.5607 230.61 89.1386 228.921C88.715 227.227 88.6571 225.394 88.5186 223.656C88.2922 220.904 88.1038 218.149 87.9536 215.392C87.3263 204.667 86.9342 193.933 86.7774 183.192C86.3451 183.486 85.9171 183.8 85.4561 184.048C84.7578 191.732 84.2697 199.568 84.3195 207.285C84.3415 210.634 84.568 214.022 84.8274 217.362C85.0333 220.019 86.0124 225.879 85.4129 228.24C86.4982 230.308 87.4655 232.968 86.6844 235.303C86.381 236.21 85.7779 237.016 84.8867 237.409C83.4174 238.057 81.7261 237.458 80.3073 236.961C79.8024 237.818 79.2052 238.581 78.2049 238.869C76.4717 239.366 73.8944 238.338 72.398 237.463C71.2782 236.807 70.1314 235.792 69.8001 234.495C68.9999 231.354 69.1611 227.832 69.0886 224.602C69.0057 220.88 68.8489 217.178 68.8958 213.452C68.9449 209.569 69.1846 205.689 69.2688 201.807C69.367 197.284 69.156 192.769 69.1545 188.248C62.9284 188.717 56.8753 188.854 50.6866 187.958C48.516 193.955 47.0071 200.813 47.0013 207.215C46.9742 210.281 46.8752 213.412 47.5963 216.418C48.3057 219.376 51.6144 221.104 50.7548 224.562C50.5965 225.199 50.3371 225.843 49.8622 226.312C49.251 226.917 48.3423 227.129 47.5033 227.091C46.8818 227.063 46.2575 226.997 45.6382 226.938C44.8343 227.745 44.262 228.197 43.1371 228.518C43.2016 229.805 43.217 231.068 42.2526 232.069C41.5689 232.778 40.5693 232.988 39.6188 232.979C38.7753 232.971 37.978 232.823 37.1675 232.597C36.5226 233.667 35.7818 234.355 34.5477 234.684C32.4218 235.25 29.138 234.573 27.2913 233.415C25.8044 232.482 25.5149 230.738 25.1873 229.131C23.7422 222.044 24.6876 207.74 26.8032 200.784C23.5847 191.505 21.6793 172.596 23.0731 162.724C23.4608 159.976 24.2545 157.453 25.2658 154.879C22.1227 156.445 19.9557 158.531 18.0951 161.516C17.4392 162.568 16.8779 163.693 16.1553 164.699C17.3601 166.261 17.6151 168.331 17.3725 170.244C17.0127 173.087 15.7229 175.485 13.4439 177.24C10.8563 179.234 7.25077 180.26 4.00217 179.807C2.80547 179.641 0.795334 178.96 0.0222168 177.966C-0.0100403 177.62 -0.0408173 177.529 0.218597 177.252L0.217865 177.254ZM48.5922 137.247C46.6818 137.746 41.9822 138.987 41.0793 140.67C40.8866 141.029 40.8441 141.434 40.9665 141.825C41.2479 142.722 42.4138 143.397 43.2053 143.8C43.4126 143.872 43.6222 143.936 43.834 143.991C44.0465 144.047 44.2605 144.094 44.476 144.132C44.6922 144.17 44.9091 144.2 45.1274 144.22C45.3458 144.242 45.5649 144.253 45.7841 144.257C46.0032 144.261 46.2223 144.255 46.4414 144.241C46.6605 144.227 46.8782 144.204 47.0951 144.172C47.312 144.141 47.5274 144.1 47.7414 144.051C47.9554 144.002 48.1672 143.945 48.3761 143.879C49.9414 143.389 51.5118 142.46 52.2681 140.952C52.5986 140.294 52.7459 139.549 52.4879 138.839C52.1538 137.919 51.4305 137.329 50.5892 136.901C49.8989 136.94 49.2584 137.07 48.5915 137.245L48.5922 137.247ZM69.4572 133.237C68.8497 133.532 68.5389 133.845 68.3359 134.494C68.0758 135.324 68.3572 136.236 68.7844 136.96C69.54 138.239 70.7337 138.992 72.1503 139.342C73.8988 139.541 75.5169 139.331 77.0118 138.32C78.0092 137.645 78.8637 136.623 79.0769 135.412C79.2162 134.624 79.0608 133.825 78.5947 133.169C77.8172 132.076 76.5545 131.647 75.2868 131.454C73.7757 131.393 70.8532 132.562 69.4564 133.238L69.4572 133.237ZM78.5214 118.855C79.8933 118.846 80.9808 118.666 82.2105 118.046C83.1309 117.493 83.9114 116.77 84.3767 115.787C84.4111 115.714 84.4426 115.639 84.4734 115.565C84.5035 115.49 84.5321 115.414 84.5584 115.338C84.5848 115.262 84.609 115.185 84.6317 115.107C84.6544 115.029 84.675 114.951 84.6933 114.872C84.7116 114.794 84.7285 114.714 84.7431 114.635C84.7578 114.555 84.7702 114.475 84.7805 114.396C84.7907 114.315 84.7995 114.235 84.8061 114.154C84.8127 114.074 84.8171 113.993 84.8193 113.912C84.8215 113.832 84.8223 113.751 84.8201 113.67C84.8186 113.589 84.8142 113.508 84.8083 113.428C84.8025 113.348 84.7944 113.267 84.7849 113.187C84.7746 113.106 84.7629 113.026 84.749 112.947C84.7351 112.868 84.7189 112.789 84.7013 112.71C84.683 112.631 84.6632 112.552 84.6412 112.475C84.6193 112.397 84.5951 112.32 84.5694 112.243C84.5431 112.166 84.5152 112.091 84.4859 112.016C83.6908 109.96 82.0229 108.546 80.0399 107.696L79.776 107.74C79.5415 108.162 78.4929 117.961 78.5214 118.855ZM79.6573 23.8137C79.3488 23.3836 78.9875 22.9703 78.638 22.5739C75.8708 19.4388 72.4522 16.2665 68.0699 15.9768C66.0239 15.7611 61.4511 15.8986 59.7971 17.2313C59.257 17.6665 59.1332 18.379 59.0936 19.0343C58.8239 23.5058 61.3397 29.2375 64.323 32.4984C66.5383 34.9188 69.0395 35.9845 72.2001 36.6596L72.9886 33.499C69.6675 32.8436 66.9231 31.8474 64.962 28.9179C63.4216 26.6174 62.8933 23.6023 62.628 20.8915C66.3471 20.1067 70.305 21.0488 73.4635 23.1093C74.9717 24.0931 76.1251 25.281 77.2859 26.6467C77.7703 26.1346 79.6346 24.4077 79.7665 23.8759L79.6581 23.8152L79.6573 23.8137ZM73.1565 32.8765L73.3587 32.5722C74.2909 30.5519 75.4656 28.9266 76.8733 27.2201C73.7691 23.6762 70.7205 21.7254 65.9469 21.3882C65.0866 21.3341 64.2314 21.427 63.3747 21.4972C63.4224 22.135 63.5264 22.7633 63.6342 23.3939C64.1332 26.3299 65.1819 29.2967 67.7277 31.0713C68.9193 31.9015 71.7736 33.1135 73.1572 32.8765H73.1565ZM90.805 6.82917C91.0674 6.21474 91.0359 5.53009 90.7713 4.92152C90.2708 3.77093 89.1129 3.02338 87.9749 2.61302C86.8016 2.54939 85.7998 2.82661 84.9153 3.63415C84.1341 4.34732 83.6006 5.35966 83.575 6.42687C83.5574 7.16199 83.7765 7.92344 84.3049 8.45521C84.9439 9.09816 85.5822 9.22398 86.4579 9.21739C87.105 9.12084 87.7785 8.99869 88.3948 8.77632C89.3562 8.42888 90.3866 7.80787 90.8043 6.82917H90.805ZM89.5878 9.26055C88.8337 9.58386 88.0401 9.80695 87.2574 10.0498C88.1082 12.4709 88.6337 15.8386 90.1096 17.9079C90.4752 18.0483 90.8446 18.1061 91.2337 18.0381C91.6397 17.9671 91.8214 17.7938 92.0508 17.4683C92.1871 16.4998 90.0451 10.662 89.5878 9.25982V9.26055ZM106.579 7.3507C107.277 6.87891 107.767 6.165 107.902 5.32967C108.055 4.37951 107.761 3.403 107.191 2.63789C106.414 1.59337 105.381 1.20057 104.143 1.01551C103.551 0.992837 102.914 1.16693 102.384 1.42221C101.405 1.894 100.661 2.69568 100.349 3.74606C100.106 4.55944 100.161 5.41964 100.613 6.14964C101.312 7.27829 102.59 7.7947 103.836 8.05144C104.806 8.0551 105.76 7.90588 106.58 7.35143L106.579 7.3507ZM104.777 8.97016C104.028 8.94309 103.331 8.86117 102.595 8.72L102.467 8.79388C101.882 10.3841 101.535 13.8695 101.251 15.7186L103.413 16.2168L103.703 16.186C104.16 15.0142 104.439 10.673 104.777 8.97016ZM122.053 31.3741C122.271 31.2534 122.486 31.1283 122.7 30.9989C122.913 30.8701 123.123 30.7363 123.331 30.5995C123.539 30.462 123.745 30.3208 123.947 30.176C124.149 30.0311 124.349 29.8819 124.546 29.729C124.743 29.5762 124.936 29.4196 125.127 29.2594C125.317 29.0993 125.505 28.9354 125.69 28.7679C125.874 28.6004 126.055 28.4292 126.233 28.2551C126.411 28.0811 126.586 27.9033 126.757 27.7219C126.927 27.5412 127.095 27.3569 127.259 27.1689C127.423 26.9817 127.583 26.7908 127.74 26.5969C127.897 26.4031 128.049 26.2071 128.199 26.0074C128.348 25.8077 128.493 25.6058 128.634 25.401C128.775 25.1962 128.913 24.9884 129.046 24.7778C129.179 24.5671 129.308 24.355 129.434 24.1392C129.559 23.9242 129.68 23.7069 129.796 23.4867C131.588 20.1359 132.564 15.3266 131.45 11.6195C130.811 11.4037 130.217 11.2926 129.553 11.2018C127.187 10.9941 125.007 11.2691 122.727 11.9377C118.316 13.2317 114.484 15.9512 112.254 19.9918C113.161 20.6289 114.016 21.2609 114.85 21.9924C115.373 21.0773 116.005 20.3203 116.81 19.6429C119.93 17.0199 124.303 15.8101 128.323 16.1787C128.339 17.3425 128.206 18.4755 128.046 19.6261C127.817 20.8001 127.476 21.9441 126.954 23.023C125.564 25.8911 123.074 27.9223 120.091 28.9778C120.566 29.8702 120.97 30.8043 121.392 31.723C121.614 31.6104 121.835 31.4941 122.053 31.3726L122.053 31.3741ZM115.41 22.3954C116.337 23.4911 117.289 24.5693 118.092 25.7601C118.655 26.6628 119.219 27.5595 119.835 28.427C120.193 28.3085 120.544 28.1732 120.89 28.0196C121.234 27.866 121.57 27.6956 121.897 27.5083C122.225 27.3211 122.542 27.1177 122.849 26.899C123.156 26.6803 123.452 26.4462 123.734 26.1975C126.574 23.7486 127.514 20.4804 127.774 16.8575C126.672 16.8012 125.576 16.8575 124.486 17.0257C120.961 17.597 117.504 19.4813 115.41 22.3947V22.3954ZM102.316 81.7389C105.228 82.5859 108.367 82.9385 111.112 81.4324C112.891 80.4559 115.582 77.8775 116.136 75.9523L116.026 75.8184C114.609 76.0525 112.656 78.846 109.552 79.3441C109.392 79.369 109.23 79.3902 109.068 79.407C108.906 79.4238 108.745 79.437 108.582 79.4458C108.42 79.4545 108.257 79.4597 108.095 79.4611C107.932 79.4618 107.769 79.4589 107.607 79.4523C107.444 79.445 107.283 79.4341 107.121 79.4194C106.959 79.4048 106.797 79.3858 106.636 79.3624C106.475 79.3397 106.314 79.3126 106.155 79.2819C105.995 79.2512 105.836 79.2168 105.678 79.178C105.52 79.1393 105.363 79.0969 105.207 79.0508C105.051 79.0047 104.896 78.9542 104.743 78.9001C104.589 78.846 104.438 78.7882 104.287 78.7267C104.137 78.6653 103.988 78.6002 103.84 78.5314C103.693 78.4627 103.547 78.3903 103.404 78.3142C103.26 78.2381 103.118 78.1591 102.978 78.0757C102.838 77.9931 102.7 77.9068 102.565 77.8168C102.429 77.7268 102.296 77.6339 102.165 77.5381C99.4765 75.5836 96.0191 71.0142 94.6201 68.0064C94.3218 67.3671 94.0719 66.7096 93.869 66.0344C93.666 65.3593 93.5128 64.6724 93.4087 63.9746C94.3431 65.6094 95.2584 67.2465 96.4932 68.6801C99.8781 72.6117 105.724 74.7739 110.791 75.1506C113.824 75.3759 117.664 74.9048 120.017 72.7902C121.914 71.0844 122.694 68.5097 122.838 66.0366C123.091 61.6976 121.428 58.4418 118.615 55.2717C121.897 51.0855 122.478 43.2457 121.85 38.154C121.083 31.9307 118.125 25.619 113.078 21.7393C107.151 17.1837 100.302 16.2021 93.0716 16.8268C93.0101 17.5326 92.9471 18.0513 92.3799 18.5289C91.8661 18.9605 91.1751 19.0161 90.5339 18.9129C90.1719 18.8544 89.8216 18.7154 89.4801 18.5874C87.7491 19.1536 86.1992 19.9362 84.6947 20.9647C81.3392 23.2593 76.822 27.9399 74.9577 31.5782C71.6336 38.0677 72.0426 49.0601 74.2681 55.7537C76.3479 62.0092 80.5887 65.8142 86.4118 68.686C87.5997 69.2799 88.8242 69.7875 90.0847 70.2081C89.398 67.2881 89.2478 64.6124 89.4302 61.6237C88.342 61.8453 86.9775 62.225 85.8673 62.0523L85.7485 61.8951C86.5033 60.8908 88.6461 60.5331 89.8406 60.3641C90.3126 60.3012 90.7852 60.2537 91.2601 60.2215C91.65 60.2983 92.2641 60.3744 92.5147 60.7021L92.4121 60.8966C91.7885 61.209 91.0879 61.3275 90.4122 61.4855C89.7336 65.2883 90.4899 70.0245 92.352 73.4127C94.4897 77.304 98.0065 80.4859 102.315 81.7396L102.316 81.7389ZM113.868 76.0723C107.922 76.1776 103.061 74.8814 98.1618 71.4897C98.1567 71.6937 98.1384 71.5899 98.2644 71.8291C99.615 74.3848 102.78 77.2719 105.563 78.1226C107.983 78.8628 110.125 78.5658 112.334 77.3735C112.908 76.9859 113.374 76.555 113.868 76.073V76.0723ZM91.1641 230.632C92.8518 232.402 95.5933 232.967 97.9383 232.982C98.1743 232.932 98.4278 232.862 98.6484 232.767C100.591 231.933 99.3761 229.251 99.8481 227.802L100.031 227.83C100.829 228.696 100.925 229.463 100.946 230.594C101.813 230.958 102.805 231.272 103.755 231.079C104.72 230.883 105.182 230.309 105.688 229.517C105.751 226.679 104.671 225.176 102.856 223.158C101.561 223.019 100.505 222.841 99.3058 222.324C99.1299 222.43 98.9452 222.693 98.7935 222.843C98.0922 223.536 97.4825 224.013 96.5152 224.299C94.1592 224.997 91.6206 223.956 89.5695 222.858C89.6948 225.209 89.4251 228.807 91.1641 230.632V230.632ZM88.7971 211.089C88.9862 214.421 88.9678 217.909 89.4478 221.209C90.2444 222.035 91.2396 222.627 92.3154 223.015C94.0082 223.624 95.6336 223.645 97.2802 222.882C97.769 222.468 98.0365 221.781 98.5238 221.406C99.1936 220.893 100.901 221.847 101.724 221.948C102.137 222 102.348 221.922 102.674 221.678C102.806 221.406 102.861 221.183 102.843 220.883C102.766 219.531 102.358 218.113 102.155 216.764C101.806 214.328 101.548 211.883 101.38 209.428C101.029 209.397 100.672 209.369 100.328 209.29C99.316 209.059 98.3875 208.422 97.8482 207.533C97.2289 206.512 97.1029 205.234 97.4063 204.092C97.9178 202.164 99.2354 200.893 100.906 199.934C100.954 197.815 100.864 195.673 100.836 193.552C100.404 193.515 99.9463 193.482 99.5293 193.356C99.4164 193.32 99.305 193.279 99.1966 193.233C99.0881 193.186 98.9819 193.134 98.8785 193.076C98.7752 193.018 98.6755 192.955 98.5788 192.887C98.4821 192.819 98.389 192.746 98.3003 192.669C98.2117 192.59 98.1267 192.509 98.046 192.421C97.9654 192.334 97.89 192.244 97.8189 192.149C97.7478 192.055 97.6826 191.957 97.6217 191.855C97.5609 191.754 97.506 191.65 97.4561 191.542C96.8486 190.208 97.1447 188.573 97.6701 187.257C98.3304 185.602 99.412 184.382 101.067 183.684C101.167 179.115 101.302 174.548 101.471 169.982C101.573 166.834 101.586 163.657 101.868 160.52C101.073 162.053 100.635 163.927 99.9646 165.542C97.1366 172.349 93.7033 177.847 87.7755 182.429C88.1302 191.987 88.2548 201.533 88.7964 211.088L88.7971 211.089ZM100.951 200.756C100.662 200.923 100.374 201.095 100.112 201.303C99.0222 202.167 98.1567 203.554 98.0636 204.961C97.9845 206.152 98.4125 206.94 99.1819 207.806C99.8319 208.332 100.537 208.522 101.326 208.741C101.194 206.079 101.111 203.417 100.951 200.757V200.756ZM101.002 184.448C100.738 184.599 100.462 184.751 100.217 184.932C98.9804 185.846 98.1171 187.462 97.9024 188.968C97.739 190.113 97.95 191.007 98.6448 191.925C98.7598 192.023 98.8697 192.118 99.0002 192.195C99.4816 192.481 100.174 192.74 100.728 192.58C101.193 191.777 101.028 185.792 101.002 184.448H101.002ZM70.5776 233.273C70.8781 234.734 71.5823 235.785 72.8575 236.579C74.4081 237.545 76.3596 238.174 78.1697 237.722C78.2246 237.678 78.2803 237.635 78.3346 237.591C80.5946 235.742 78.9765 234.512 79.2447 233.033C79.2799 232.838 79.3803 232.819 79.5269 232.71C79.8662 232.688 79.8977 232.686 80.1901 232.856C80.7595 233.697 80.7199 234.93 80.5616 235.897C81.8338 236.419 82.881 236.698 84.269 236.66C85.0553 236.108 85.5961 235.413 85.8643 234.483C86.4491 232.453 85.599 230.077 84.5753 228.327C83.3925 227.864 82.1812 227.547 81.0336 226.985C80.4385 227.242 80.3425 228.642 78.3426 229.251C75.7975 230.024 72.5314 228.992 70.2633 227.818C70.297 229.597 70.2193 231.528 70.5784 233.274L70.5776 233.273ZM49.5698 187.796C47.0599 187.38 44.6606 186.838 42.2072 186.165L41.9052 186.153C41.8004 186.225 41.7807 186.228 41.6942 186.349C41.2369 186.987 40.9108 189.272 40.6821 190.167C38.6193 198.225 36.7315 210.042 38.9849 218.118C40.0651 218.444 41.4245 218.799 42.5523 218.625C43.7527 218.44 44.1836 217.8 44.8277 216.876C45.4213 217.062 46.0918 217.485 46.7089 217.49L46.7228 217.271C45.8779 214.029 45.8735 210.876 45.9585 207.557C45.9174 207.551 45.8771 207.544 45.8361 207.539C45.3158 207.476 44.8805 207.433 44.4173 207.164C44.3367 207.117 44.2591 207.066 44.1836 207.011C44.1081 206.956 44.0363 206.898 43.9667 206.835C43.897 206.773 43.8318 206.707 43.7688 206.637C43.7065 206.568 43.6479 206.496 43.5922 206.421C43.5372 206.346 43.4859 206.268 43.439 206.187C43.3921 206.106 43.3489 206.024 43.3108 205.939C43.2727 205.854 43.2382 205.767 43.2089 205.678C43.1796 205.59 43.1547 205.501 43.1342 205.409C42.833 204.098 43.3423 202.356 44.0597 201.241C44.7141 200.224 45.4521 199.731 46.6261 199.498C47.2167 195.557 48.3028 191.574 49.5684 187.796L49.5698 187.796ZM46.4517 200.202C46.1321 200.294 45.8053 200.439 45.5261 200.62C44.5712 201.237 43.9659 202.511 43.7776 203.597C43.5966 204.64 43.719 205.401 44.3199 206.267C44.7911 206.635 45.3231 206.843 45.8661 207.081C46.0757 204.79 46.2707 202.497 46.4509 200.202H46.4517ZM43.1312 227.586C43.8685 227.193 44.27 226.857 44.709 226.142C44.764 225.726 44.761 225.487 44.5918 225.103C44.465 224.814 44.3829 224.563 44.3096 224.256C44.3778 224.166 44.3939 224.135 44.498 224.061C44.7588 223.874 44.986 223.836 45.2923 223.869C45.6976 224.198 45.7811 224.804 46.0017 225.263C46.1922 225.659 46.4942 225.924 46.9141 226.061C47.4454 226.233 48.0272 226.156 48.5153 225.891C49.1059 225.57 49.5112 225.022 49.6805 224.375C50.033 223.03 49.3544 221.351 48.6399 220.208C47.7524 218.789 46.9295 218.678 45.3869 218.33L45.2674 218.367C45.0461 218.619 44.7918 218.947 44.5119 219.134C43.1474 220.051 40.7525 219.556 39.2099 219.339C39.61 220.563 39.9603 221.877 40.5261 223.034C41.2853 224.585 42.3097 226.054 43.1312 227.587V227.586ZM27.1022 231.68C27.9369 232.811 29.4568 233.281 30.7898 233.511C32.6174 233.825 34.1102 233.99 35.6916 232.858C35.7884 232.756 35.8726 232.651 35.9489 232.533C36.8246 231.167 35.9305 229.786 35.6074 228.43L35.8045 228.248C36.1218 228.219 36.316 228.165 36.5893 228.377C37.4035 229.008 37.4284 230.685 37.4174 231.627C38.5943 231.814 40.0937 232.12 41.168 231.452C41.6627 231.145 41.969 230.662 42.0928 230.098C42.5618 227.962 41.0302 225.841 39.9288 224.147C39.8892 224.168 39.8504 224.191 39.8101 224.212C38.0718 225.088 36.3658 224.471 34.651 223.888C34.3454 223.939 33.2491 225.213 31.7073 225.487C29.5682 225.868 27.5294 225.177 25.8058 223.941C25.8791 226.026 25.8887 230.036 27.1007 231.679L27.1022 231.68ZM24.4472 160.762C22.6562 169.704 24.3116 185.813 26.2653 194.696C26.7285 196.803 27.4071 198.818 28.0248 200.881C27.6782 201.86 27.3924 202.857 27.1667 203.872C26.5651 206.575 24.7799 221.03 26.0389 222.791C26.7402 223.772 28.562 224.265 29.7221 224.423C32.166 224.756 32.5837 223.938 34.3374 222.621C35.5487 222.942 36.8238 223.545 38.1004 223.482C38.5321 223.461 38.9212 223.354 39.2165 223.02C39.5089 222.69 39.0883 221.818 38.9476 221.4C37.7941 217.979 37.1829 214.713 37.032 211.107C36.2215 211.29 35.238 211.559 34.418 211.356C33.6917 211.176 33.0454 210.455 32.6746 209.84C31.9388 208.621 31.8223 207.112 32.1997 205.758C32.5024 204.672 33.0652 203.752 34.0684 203.199C34.895 202.744 35.9137 202.444 36.8407 202.73C37.0232 202.786 36.8957 202.775 37.1719 202.701C37.4841 201.772 37.5398 200.723 37.6746 199.754C37.8894 198.214 38.1151 196.667 38.4207 195.141C39.8687 187.922 43.1166 180.014 42.2995 172.619C42.4541 172.316 42.5215 172.14 42.8264 171.963L43.0968 172.056C44.4774 174.262 42.5523 182.191 41.9514 184.931C50.8537 187.627 59.9708 188.106 69.1948 187.234C69.1684 185.97 68.7661 180.148 69.463 179.399L69.8206 179.448C70.0566 179.699 70.0815 179.838 70.1277 180.177C70.4736 182.704 70.2398 185.502 70.2677 188.059C70.338 194.574 70.3534 201.048 70.2193 207.562C71.0408 207.356 71.9099 207.176 72.7615 207.239C73.8475 207.318 74.82 207.811 75.5088 208.656C75.555 208.713 75.5997 208.772 75.6429 208.831C75.6862 208.89 75.7279 208.951 75.7682 209.013C75.8085 209.074 75.8466 209.137 75.884 209.201C75.9214 209.264 75.9566 209.329 75.9903 209.394C76.024 209.459 76.0555 209.526 76.0863 209.593C76.1163 209.66 76.1449 209.727 76.172 209.796C76.1984 209.865 76.224 209.933 76.2468 210.003C76.2702 210.072 76.2915 210.143 76.3113 210.214C76.331 210.285 76.3486 210.355 76.3647 210.428C76.3809 210.5 76.3948 210.571 76.4073 210.644C76.4197 210.717 76.43 210.79 76.4388 210.863C76.4476 210.936 76.4542 211.009 76.4585 211.083C76.4637 211.156 76.4666 211.23 76.4673 211.303C76.4688 211.376 76.4673 211.45 76.4651 211.523C76.4622 211.596 76.4578 211.67 76.4512 211.743C76.4446 211.816 76.4366 211.889 76.4263 211.962C76.416 212.036 76.4036 212.11 76.3897 212.183C76.3757 212.256 76.3596 212.329 76.342 212.401C76.3244 212.474 76.3047 212.546 76.2827 212.618C76.2614 212.69 76.238 212.761 76.2123 212.83C76.1874 212.9 76.1603 212.97 76.1317 213.039C76.1031 213.108 76.0723 213.176 76.0401 213.243C76.0079 213.311 75.9734 213.377 75.9382 213.442C75.9023 213.508 75.865 213.572 75.8261 213.636C75.7873 213.7 75.7462 213.763 75.7037 213.824C75.6612 213.886 75.6173 213.945 75.5718 214.005C75.5264 214.064 75.4795 214.122 75.4311 214.179C75.3828 214.236 75.3329 214.291 75.2816 214.346C75.2303 214.4 75.1776 214.452 75.1233 214.504C75.0691 214.556 75.0142 214.606 74.957 214.655C74.8998 214.704 74.8419 214.751 74.7833 214.796C74.724 214.842 74.6639 214.886 74.6023 214.929C73.1953 215.893 71.5882 215.792 69.9987 215.504C69.9745 219.132 70.1196 222.786 70.2699 226.412C71.3742 227.297 72.8604 227.907 74.2337 228.219C76.2197 228.67 77.9638 228.544 79.7233 227.444C79.8852 227.094 80.0919 226.497 80.385 226.246C81.2922 225.47 82.7388 226.803 83.8139 226.84C84.1158 226.851 84.2638 226.9 84.4925 226.696C84.6112 225.461 84.3452 224.097 84.2221 222.864C84.0103 220.818 83.8219 218.769 83.6578 216.718C83.3339 211.532 83.2284 206.341 83.3405 201.146C82.9257 201.339 82.4963 201.496 82.0536 201.615C81.1222 201.872 80.0508 201.937 79.1912 201.426C78.5266 201.03 78.1279 200.367 77.9792 199.619C77.7065 198.247 78.2093 196.736 78.9992 195.617C80.1615 193.968 81.8712 193.288 83.7809 192.936C83.8571 189.684 84.2536 186.395 84.5313 183.155C84.6742 181.487 84.6251 179.437 85.0773 177.849C85.1645 177.542 85.2297 177.417 85.5104 177.273L85.7463 177.477C86.2227 178.728 85.7764 181.369 85.6804 182.789C86.8075 181.967 87.925 181.091 88.9612 180.159C93.4227 176.146 96.6588 170.91 98.8991 165.384C99.9162 162.874 100.898 160.33 101.531 157.692C105.388 141.617 100.246 124.903 98.7276 108.836C97.8709 99.7687 98.5129 90.5428 98.9643 81.4697C94.9719 79.1429 91.9944 75.7599 90.3441 71.4275C86.8588 70.1196 83.5244 68.6545 80.5492 66.376C80.5147 66.4221 80.4627 66.4594 80.4451 66.5135C80.4129 66.6145 80.7258 75.9596 80.7397 76.9595C81.71 77.2616 82.5703 77.5674 83.3881 78.1957C85.0165 79.4465 86.0974 81.5363 86.3297 83.5617C86.5151 85.1819 86.1201 86.8935 85.0641 88.1619C83.8982 89.5626 82.3504 90.1141 80.588 90.2465C80.5177 95.8583 80.193 101.408 79.7372 107.001C80.9779 107.356 82.0639 107.84 83.0371 108.698C84.4111 109.907 85.4481 111.613 85.525 113.473C85.5903 115.036 85.0223 116.624 83.915 117.741C82.3175 119.352 80.4385 119.647 78.2847 119.659C77.7659 122.716 76.9745 127.935 75.6158 130.692C76.7825 131.007 77.9711 131.448 78.8124 132.355C79.499 133.094 79.7966 134.044 79.7482 135.044C79.6844 136.368 78.9926 137.533 77.9997 138.383C77.9059 138.462 77.8106 138.538 77.7131 138.612C77.6157 138.686 77.5167 138.758 77.4156 138.827C77.3145 138.895 77.2126 138.962 77.1078 139.026C77.0038 139.09 76.8982 139.151 76.7905 139.21C76.6835 139.268 76.5751 139.325 76.4644 139.378C76.3545 139.431 76.2431 139.482 76.131 139.529C76.0189 139.577 75.9053 139.622 75.7902 139.665C75.6752 139.707 75.5601 139.746 75.4429 139.783C75.3263 139.819 75.2084 139.853 75.0904 139.883C74.9717 139.914 74.8529 139.941 74.7335 139.966C74.614 139.991 74.4938 140.012 74.3729 140.031C74.252 140.05 74.1311 140.066 74.0095 140.079C73.8878 140.091 73.7662 140.101 73.6438 140.108C73.5214 140.115 73.3997 140.119 73.2774 140.12C73.155 140.121 73.0333 140.118 72.911 140.112C72.7886 140.107 72.6669 140.099 72.5453 140.088C71.0122 139.93 69.5341 139.202 68.591 137.967C67.5709 136.631 67.543 135.203 67.7314 133.615C62.3752 135.008 56.8248 135.31 51.4363 136.516C52.1831 137.249 52.8748 137.955 53.1306 139.009C53.3673 139.987 53.1094 140.984 52.5795 141.821C51.5426 143.459 49.5361 144.424 47.6828 144.788C45.8427 145.15 43.4691 145.03 41.895 143.925C40.7173 143.098 40.367 142.012 40.1003 140.677C35.0541 143.331 30.1449 147.736 27.4056 152.765C26.0741 155.21 24.9931 158.028 24.4457 160.761L24.4472 160.762ZM37.1477 204.043C36.9228 203.674 36.6333 203.605 36.2522 203.414C35.3604 203.371 34.6466 203.535 33.9695 204.15C33.1465 204.897 32.7237 206.072 32.6775 207.163C32.624 208.432 33.0454 209.407 33.8823 210.334C34.0464 210.44 34.2165 210.526 34.3975 210.598C35.2966 210.954 36.0829 210.605 36.9044 210.237C36.9 208.169 37.2203 206.102 37.1477 204.043ZM70.2046 214.593C70.8114 215.061 71.4351 215.053 72.1767 215.043C72.6523 214.981 73.111 214.909 73.5595 214.732C74.4396 214.384 75.171 213.624 75.5337 212.757C75.906 211.867 75.9309 210.817 75.5476 209.927C75.1299 208.955 74.4184 208.429 73.4738 208.024C72.1598 207.915 71.2958 207.909 70.1548 208.659C70.0735 209.879 69.6492 213.689 70.2039 214.593H70.2046ZM83.7457 193.764C82.5974 193.847 81.6938 194.094 80.7419 194.768C79.6712 195.525 78.7963 196.733 78.5845 198.044C78.4262 199.02 78.6761 199.798 79.2425 200.58C79.5547 200.816 79.8515 201.043 80.2414 201.127C81.3985 201.375 82.4772 200.765 83.3984 200.138C83.6417 198.095 83.8315 195.818 83.7465 193.764H83.7457ZM80.6232 89.3029L80.8438 89.4441C81.8719 89.5626 83.0657 88.8721 83.8901 88.3111C84.5753 87.6959 85.0934 87.0552 85.4027 86.1759C85.9699 84.5616 85.6379 82.7447 84.8714 81.251C84.0176 79.5862 82.8348 78.5175 81.0563 77.9324C80.8863 77.9141 80.832 77.9426 80.6759 78.0026C80.3762 78.7692 80.5389 87.8985 80.6232 89.3029ZM25.8696 153.498C26.5438 152.198 27.3001 150.948 28.1377 149.746C26.3855 150.03 24.7718 151.001 23.3208 151.983C19.9059 154.293 17.1593 157.581 15.1631 161.159C14.727 161.939 14.2163 162.806 14.0484 163.693L14.2053 163.897L15.3052 164.317C17.6656 159.457 20.7061 155.478 25.8703 153.499L25.8696 153.498ZM5.396 178.712C7.80405 178.712 10.1059 178.14 12.1343 176.814C12.2611 176.732 12.3857 176.648 12.508 176.561C12.6304 176.474 12.7506 176.383 12.8686 176.29C12.9866 176.197 13.1016 176.1 13.2152 176.002C13.3288 175.903 13.4387 175.801 13.5472 175.697C13.6556 175.592 13.7604 175.485 13.8638 175.376C13.9664 175.266 14.066 175.154 14.1635 175.039C14.261 174.924 14.3548 174.807 14.4464 174.688C14.538 174.569 14.6259 174.447 14.7109 174.324C14.7959 174.2 14.8787 174.074 14.9571 173.946C15.0363 173.818 15.1118 173.689 15.1843 173.557C15.2569 173.425 15.3265 173.292 15.3917 173.157C15.4576 173.022 15.5199 172.886 15.5793 172.747C15.6387 172.609 15.6944 172.47 15.7464 172.329C15.7984 172.188 15.8475 172.046 15.8922 171.903C15.9377 171.76 15.9787 171.616 16.0168 171.47C16.0549 171.325 16.0886 171.178 16.1194 171.031C16.4257 169.497 16.543 167.357 15.5962 166.028C14.8553 164.989 13.7795 164.771 12.5982 164.594C12.5513 164.59 12.5036 164.583 12.456 164.581C8.34194 164.45 5.95294 166.951 5.12265 170.767C4.77969 172.342 4.64265 174.066 3.93768 175.531C3.45401 176.536 2.61639 177.321 1.83888 178.099C3.03851 178.457 4.1414 178.692 5.396 178.713V178.712Z" fill="#010101"/>
<path d="M101.155 59.0975C101.392 59.0207 101.658 58.9878 101.905 58.9629C102.523 59.1202 102.963 59.2708 103.292 59.8502C103.55 60.3059 103.62 60.8713 103.445 61.3687C103.292 61.8039 102.935 62.2098 102.505 62.3869C102.241 62.4959 101.935 62.539 101.651 62.5397C101.021 62.3349 100.48 62.0665 100.181 61.4396C99.9754 61.0073 99.9351 60.5063 100.123 60.0608C100.299 59.6439 100.721 59.2379 101.155 59.0975Z" fill="#010101"/>
<path d="M117.499 58.7289C117.778 58.6784 118.081 58.6923 118.363 58.6982C118.969 59.061 119.4 59.4157 119.567 60.1326C119.689 60.6563 119.622 61.2276 119.309 61.6745C119.076 62.0073 118.656 62.3438 118.245 62.4125C117.971 62.4579 117.672 62.4293 117.396 62.4125C116.783 62.0307 116.356 61.7096 116.18 60.9789C116.06 60.4859 116.108 59.979 116.38 59.5445C116.613 59.17 117.055 58.8101 117.499 58.7296L117.499 58.7289Z" fill="#010101"/>
<path d="M112.247 50.7268C110.334 50.3882 108.749 49.6479 107.624 47.989C106.388 46.1676 106.056 43.6953 106.506 41.566C106.907 39.6701 107.895 37.7397 109.57 36.6784C110.636 36.0025 111.869 35.737 113.121 35.7721C114.983 36.0179 116.443 36.8612 117.582 38.352C118.931 40.1192 119.326 42.3618 119.016 44.5328C118.73 46.5326 117.777 48.5017 116.098 49.6962C114.946 50.5154 113.643 50.8095 112.247 50.7276L112.247 50.7268ZM113.196 50.0692C113.278 50.0612 113.36 50.0517 113.442 50.04C113.523 50.0283 113.605 50.0144 113.686 49.9983C113.766 49.9822 113.847 49.9639 113.927 49.9442C114.007 49.9237 114.087 49.9017 114.165 49.8776C114.244 49.8535 114.322 49.8271 114.4 49.7986C114.477 49.7708 114.554 49.7401 114.63 49.7079C114.706 49.6757 114.781 49.6421 114.855 49.6062C114.929 49.5704 115.002 49.5324 115.075 49.4929C116.546 48.7 117.633 47.1939 118.114 45.6103C118.687 43.7238 118.534 41.3363 117.56 39.6115C116.646 37.995 115.272 37.1173 113.528 36.6191C112.107 36.5562 110.845 36.663 109.644 37.5239C107.918 38.7623 107.144 41.1476 106.791 43.1445C106.931 42.9785 106.891 43.0472 106.979 42.8665C107.667 41.4402 108.251 40.2859 109.85 39.7088C110.865 39.3431 111.901 39.4228 112.853 39.9283C114.139 40.6114 115.088 41.9288 115.5 43.3054C115.983 44.9183 115.766 46.4485 114.994 47.9144C114.545 48.4673 114.042 48.9194 113.388 49.2178C112.107 49.8008 110.943 49.4819 109.698 49.0357C110.177 49.3758 110.679 49.6772 111.243 49.8549C111.322 49.8805 111.401 49.9039 111.481 49.9251C111.561 49.9464 111.641 49.9661 111.721 49.9829C111.802 50.0005 111.883 50.0151 111.964 50.0283C112.046 50.0415 112.127 50.0524 112.209 50.0612C112.291 50.07 112.373 50.0773 112.455 50.0824C112.538 50.0875 112.62 50.0897 112.703 50.0905C112.785 50.0905 112.868 50.0897 112.95 50.0861C113.032 50.0824 113.115 50.0773 113.197 50.0692H113.196ZM110.614 42.4591C110.738 42.9668 111.119 43.1584 111.542 43.3742C111.611 43.3691 111.68 43.3654 111.749 43.3588C112.206 43.312 112.632 43.1679 112.903 42.7671C113.097 42.4811 113.168 42.2258 113.087 41.8827C112.965 41.3671 112.571 41.1725 112.148 40.934C111.594 41.0072 111.139 41.1227 110.796 41.5989C110.612 41.8557 110.537 42.1446 110.613 42.4584L110.614 42.4591Z" fill="#010101"/>
<path d="M112.148 40.9346C112.571 41.173 112.965 41.3676 113.087 41.8833C113.168 42.2263 113.097 42.4809 112.903 42.7676C112.632 43.1677 112.206 43.3118 111.749 43.3594C111.68 43.3667 111.611 43.3696 111.542 43.3747C111.118 43.1582 110.737 42.9666 110.614 42.4597C110.537 42.1459 110.612 41.8569 110.797 41.6002C111.139 41.1233 111.594 41.0084 112.149 40.9353L112.148 40.9346Z" fill="#FEFEFE"/>
<path d="M95.5249 46.5308C95.508 46.6954 95.4875 46.8592 95.4633 47.0231C95.4391 47.1869 95.4098 47.3493 95.3776 47.5117C94.9833 49.4281 93.9596 51.1858 92.2711 52.2435C90.9 53.1015 89.408 53.3853 87.8046 53.3473C85.7204 52.9947 83.9954 52.2413 82.71 50.4639C81.1366 48.2885 80.705 45.4833 81.1337 42.8727C81.4774 40.783 82.4909 38.6895 84.2709 37.4548C85.5893 36.5405 87.0784 36.3225 88.6415 36.5061C90.8502 36.9406 92.642 38.0371 93.9009 39.9162C93.9918 40.0544 94.0797 40.1949 94.1633 40.3375C94.2476 40.4801 94.3282 40.6242 94.4051 40.7705C94.4821 40.9168 94.5553 41.0653 94.6257 41.2153C94.6953 41.3652 94.762 41.5166 94.8243 41.6702C94.8866 41.8231 94.9452 41.9782 95.0002 42.134C95.0551 42.2898 95.1064 42.447 95.1533 42.6058C95.2002 42.7645 95.2442 42.924 95.283 43.0849C95.3226 43.2458 95.3578 43.4067 95.3893 43.5691C95.4208 43.7315 95.4487 43.8946 95.4721 44.0584C95.4956 44.2223 95.5153 44.3869 95.5307 44.5515C95.5461 44.716 95.5579 44.8813 95.5652 45.0459C95.5725 45.2112 95.5762 45.3765 95.5762 45.5419C95.5762 45.7072 95.571 45.8725 95.5622 46.0378C95.5535 46.2031 95.541 46.3677 95.5241 46.5322L95.5249 46.5308ZM94.8126 45.0342C94.8074 44.8887 94.7994 44.7438 94.7869 44.5983C94.7752 44.4534 94.7591 44.3086 94.74 44.1638C94.721 44.0197 94.6982 43.8756 94.6719 43.7329C94.6455 43.5896 94.6162 43.4477 94.5832 43.3058C94.5502 43.1639 94.5136 43.0234 94.4733 42.883C94.433 42.7433 94.3897 42.6043 94.3428 42.4668C94.2959 42.3293 94.2454 42.1925 94.1919 42.0572C94.1384 41.9218 94.0812 41.788 94.0219 41.6556C93.9618 41.5232 93.898 41.3923 93.8313 41.2621C93.7646 41.1326 93.695 41.0046 93.6225 40.8788C93.5499 40.753 93.4737 40.6286 93.3953 40.5065C93.3161 40.3843 93.2348 40.2636 93.1498 40.1451C91.9055 38.4372 90.1914 37.5923 88.1541 37.2602C86.7882 37.1176 85.2991 37.6289 84.2379 38.4789C82.7298 39.6872 81.9867 41.5568 81.7881 43.4338C81.5338 45.8425 82.0131 48.4567 83.5953 50.3585C84.8579 51.8763 86.4694 52.5061 88.3828 52.6941C89.6725 52.6546 90.9403 52.294 91.9993 51.5435C93.5602 50.4375 94.3993 48.6169 94.699 46.7744C94.7224 46.631 94.7422 46.4869 94.7591 46.3421C94.7759 46.198 94.7884 46.0524 94.7979 45.9076C94.8074 45.7628 94.8133 45.6172 94.8155 45.4716C94.8177 45.3261 94.8162 45.1805 94.8118 45.0349L94.8126 45.0342Z" fill="#010101"/>
<path d="M91.9121 47.024C91.9041 47.1213 91.8938 47.2185 91.8813 47.3151C91.8689 47.4124 91.8535 47.5089 91.8359 47.6048C91.6139 48.8768 90.9939 50.1854 89.8895 50.9197C88.9053 51.5744 87.9527 51.5729 86.8249 51.5093C85.3204 51.1194 84.1735 50.4816 83.3549 49.0984C83.308 49.0194 83.2633 48.9397 83.2201 48.8585C83.1776 48.7773 83.1366 48.6954 83.0977 48.612C83.0589 48.5286 83.0222 48.4445 82.9878 48.3596C82.9526 48.2748 82.9204 48.1885 82.8903 48.1021C82.8596 48.0151 82.8317 47.9281 82.8053 47.8403C82.7789 47.7525 82.7555 47.664 82.7335 47.5748C82.7115 47.4855 82.6925 47.3956 82.6749 47.3056C82.6573 47.2156 82.6426 47.1249 82.6294 47.0342C82.617 46.9435 82.606 46.8521 82.5979 46.7606C82.5899 46.6692 82.5833 46.5778 82.5796 46.4856C82.5759 46.3942 82.5745 46.302 82.5752 46.2106C82.5752 46.1184 82.5789 46.027 82.584 45.9356C82.5891 45.8441 82.5965 45.7527 82.6067 45.6613C82.6163 45.5698 82.6287 45.4791 82.6426 45.3884C82.6566 45.2977 82.6734 45.2078 82.6925 45.1178C82.7115 45.0278 82.732 44.9386 82.7555 44.8501C83.097 43.5612 83.906 42.4026 85.0778 41.7392C85.8062 41.3266 86.5435 41.1694 87.3701 41.1079C88.8101 41.3281 89.9877 41.9469 90.8532 43.1465C90.9096 43.2262 90.9638 43.3074 91.0166 43.3901C91.0686 43.4727 91.1192 43.5561 91.1676 43.6417C91.2159 43.7265 91.2621 43.8129 91.3061 43.8999C91.35 43.9869 91.3918 44.0754 91.4314 44.1647C91.471 44.2539 91.5083 44.3446 91.5435 44.4361C91.5787 44.5275 91.6109 44.6197 91.6417 44.7126C91.6725 44.8055 91.7003 44.8991 91.726 44.9934C91.7516 45.0878 91.7751 45.1829 91.7963 45.278C91.8176 45.3738 91.8359 45.4696 91.852 45.5654C91.8681 45.662 91.8821 45.7585 91.8938 45.8558C91.9055 45.9531 91.9143 46.0504 91.9209 46.1477C91.9275 46.245 91.9319 46.343 91.9334 46.4403C91.9348 46.5376 91.9348 46.6356 91.9319 46.7329C91.929 46.8309 91.9231 46.9282 91.915 47.0254L91.9121 47.024ZM89.4139 43.9116C89.3348 43.3776 88.9398 43.1114 88.5375 42.8166C88.3418 42.7939 88.1491 42.7742 87.9512 42.7786C87.5372 42.7873 87.1202 42.919 86.8446 43.2467C86.6343 43.4969 86.5303 43.7317 86.5808 44.0637C86.6614 44.5889 87.0095 44.8486 87.4104 45.1368C87.5445 45.1551 87.6793 45.1748 87.8142 45.1865C88.3037 45.2282 88.802 45.1017 89.1479 44.7352C89.3582 44.5129 89.4579 44.2152 89.4132 43.9109L89.4139 43.9116Z" fill="#010101"/>
<path d="M87.8155 45.1867C87.6807 45.175 87.5458 45.1553 87.4117 45.137C87.0109 44.8488 86.6628 44.5891 86.5822 44.0639C86.5309 43.7319 86.6357 43.4971 86.846 43.2469C87.1215 42.9192 87.5385 42.7875 87.9526 42.7788C88.1497 42.7751 88.3431 42.7948 88.5388 42.8168C88.9411 43.1116 89.3361 43.3778 89.4153 43.9118C89.46 44.2153 89.3603 44.5138 89.15 44.7361C88.8034 45.1026 88.3058 45.2292 87.8163 45.1875L87.8155 45.1867Z" fill="#FEFEFE"/>
<path d="M29.4698 185.82C29.7761 185.714 30.1066 185.667 30.4291 185.667C31.4081 186.031 32.0017 186.545 32.4326 187.515C32.9625 188.707 32.9625 190.163 32.4429 191.358C32.0831 192.186 31.3986 192.988 30.5141 193.273C30.218 193.368 29.8861 193.376 29.5783 193.374C28.6557 193.026 28.0555 192.4 27.662 191.495C27.1394 190.293 27.1021 188.794 27.6414 187.59C27.9925 186.806 28.6432 186.106 29.4698 185.82ZM28.0108 190.159C28.1735 191.205 28.5956 191.995 29.4398 192.635C29.568 192.638 29.6955 192.642 29.8245 192.64C30.4753 192.63 30.9882 192.33 31.4162 191.845C32.0596 191.115 32.2516 190.005 32.1637 189.064C32.0552 187.908 31.573 187.114 30.6958 186.384C30.4635 186.355 30.2312 186.351 29.9975 186.374C29.4346 186.429 28.8938 186.831 28.5692 187.277C27.9895 188.074 27.8635 189.21 28.0115 190.16L28.0108 190.159Z" fill="#010101"/>
<path d="M92.6699 102.138C93.1023 103.272 93.1213 104.501 92.6091 105.614C92.1877 106.529 91.4622 107.241 90.5125 107.594C90.0068 107.782 89.4975 107.793 88.9648 107.763C87.9124 107.29 87.184 106.572 86.7656 105.483C86.7113 105.341 86.6652 105.197 86.6256 105.051C86.586 104.905 86.5538 104.756 86.5296 104.607C86.5047 104.457 86.4878 104.307 86.4783 104.156C86.4688 104.004 86.4673 103.853 86.4724 103.701C86.4783 103.55 86.4915 103.399 86.512 103.249C86.5333 103.099 86.5611 102.95 86.597 102.803C86.6329 102.655 86.6761 102.51 86.726 102.367C86.7765 102.224 86.8337 102.083 86.8982 101.946C86.9561 101.823 87.0206 101.703 87.0902 101.586C87.1605 101.47 87.2368 101.356 87.3181 101.247C87.4002 101.138 87.4867 101.034 87.579 100.934C87.6713 100.833 87.7688 100.738 87.8707 100.648C87.9725 100.557 88.0788 100.472 88.1894 100.392C88.3001 100.313 88.4144 100.239 88.5324 100.171C88.6504 100.103 88.7713 100.041 88.8959 99.9849C89.0204 99.9293 89.1472 99.8796 89.2762 99.8364C89.691 99.6967 90.0838 99.6565 90.5191 99.6484C91.5318 100.126 92.2764 101.103 92.6692 102.135L92.6699 102.138ZM89.2718 100.627C88.4782 100.883 87.8406 101.53 87.5028 102.28C87.45 102.399 87.4031 102.522 87.3628 102.647C87.3225 102.772 87.2881 102.898 87.2609 103.026C87.2331 103.154 87.2118 103.284 87.1972 103.415C87.1825 103.545 87.1752 103.676 87.1737 103.807C87.1723 103.938 87.1781 104.069 87.1899 104.2C87.2016 104.33 87.2206 104.46 87.2456 104.589C87.2705 104.717 87.3027 104.845 87.3408 104.971C87.3789 105.096 87.4236 105.219 87.4742 105.341C87.834 106.185 88.3858 106.705 89.2205 107.063C89.5268 107.038 89.8441 107.02 90.1446 106.953C90.9119 106.781 91.641 106.06 91.9884 105.381C92.4266 104.523 92.475 103.483 92.165 102.576C91.8235 101.577 91.1867 100.965 90.2516 100.517C89.9218 100.512 89.5899 100.525 89.2733 100.627H89.2718Z" fill="#010101"/>
<path d="M92.0682 94.2612C90.8766 93.5803 90.0786 92.6762 89.7232 91.3266C89.3634 89.9588 89.6323 88.3781 90.382 87.1822C90.84 86.4522 91.5911 85.8158 92.4434 85.6117C92.7864 85.5298 93.1594 85.5305 93.5104 85.5283C94.5188 85.9752 95.0435 86.6087 95.4516 87.6349C96.0562 89.1556 96.1017 91.0384 95.426 92.5445C95.0764 93.3242 94.4946 93.9928 93.6724 94.2832C93.1015 94.4851 92.6405 94.4075 92.0675 94.2612H92.0682ZM94.4132 92.8802C95.149 91.9659 95.3432 90.5184 95.1974 89.389C95.0405 88.174 94.5898 87.0242 93.6137 86.2539C93.4049 86.2408 93.1982 86.2291 92.9894 86.2481C92.2639 86.3146 91.575 86.7755 91.1375 87.3438C90.4523 88.2333 90.1797 89.544 90.3365 90.6434C90.5176 91.914 91.1207 92.7179 92.1305 93.461C92.4126 93.5642 92.675 93.6614 92.9835 93.6446C93.5221 93.6161 94.0791 93.295 94.4132 92.8802Z" fill="#010101"/>
<path d="M31.6946 176.799C31.1911 177.112 30.6738 177.157 30.0941 177.174C29.0301 176.727 28.3412 176.117 27.8817 175.039C27.2544 173.569 27.3636 171.785 27.9968 170.335C28.4475 169.303 29.2741 168.263 30.3755 167.886C30.6782 167.783 30.9801 167.734 31.2959 167.699C32.1988 167.881 32.8554 168.202 33.3801 168.984C34.214 170.224 34.1935 171.97 33.8659 173.382C33.5611 174.699 32.8737 176.063 31.6953 176.798L31.6946 176.799ZM33.1339 170.123C32.8041 169.199 32.3153 168.807 31.441 168.415C31.2439 168.423 31.0417 168.432 30.8482 168.472C30.0172 168.64 29.329 169.303 28.9128 170.012C28.2078 171.213 28.0026 172.866 28.3566 174.209C28.6365 175.273 29.1444 175.921 30.0824 176.475C30.3374 176.464 30.6027 176.458 30.8504 176.388C31.6799 176.153 32.3505 175.388 32.7323 174.651C33.3911 173.379 33.6212 171.488 33.1331 170.123L33.1339 170.123Z" fill="#010101"/>
<path d="M88.5808 131.177C87.3211 130.916 86.3713 130.476 85.6297 129.366C84.71 127.991 84.573 126.15 84.9533 124.568C85.2765 123.221 86.046 121.933 87.2778 121.237C88.0107 120.823 88.6482 120.738 89.4792 120.771C90.9258 121.277 91.9452 122.122 92.623 123.525C93.3002 124.926 93.391 126.518 92.8172 127.97C92.2874 129.31 91.2622 130.376 89.9123 130.902C89.4836 131.069 89.0381 131.146 88.5801 131.177H88.5808ZM92.2376 127.633C92.2662 127.559 92.2925 127.482 92.3175 127.406C92.3424 127.33 92.3651 127.253 92.3856 127.176C92.4061 127.098 92.4244 127.021 92.4413 126.943C92.4582 126.864 92.4721 126.785 92.4845 126.706C92.497 126.627 92.5073 126.548 92.5153 126.468C92.5241 126.388 92.53 126.308 92.5344 126.229C92.5388 126.149 92.5402 126.069 92.5402 125.989C92.5402 125.909 92.5388 125.829 92.5344 125.749C92.53 125.669 92.5241 125.589 92.516 125.51C92.508 125.43 92.4977 125.35 92.4853 125.272C92.4728 125.193 92.4589 125.114 92.442 125.036C92.4259 124.957 92.4069 124.879 92.3863 124.802C92.3658 124.725 92.3431 124.648 92.3189 124.572C92.2947 124.496 92.2676 124.421 92.2398 124.345C92.2112 124.271 92.1811 124.197 92.1482 124.123C92.1159 124.05 92.0815 123.977 92.0456 123.906C91.4359 122.69 90.4546 121.899 89.17 121.492C88.4899 121.501 87.919 121.643 87.3482 122.03C86.3252 122.723 85.7689 123.907 85.5777 125.096C85.3549 126.485 85.563 128.095 86.4446 129.234C87.08 130.053 87.7117 130.299 88.7164 130.438C89.1033 130.372 89.4785 130.292 89.842 130.139C90.9412 129.678 91.8162 128.741 92.2376 127.633Z" fill="#010101"/>
<path d="M51.0718 161.302C52.3301 160.56 53.7107 160.418 55.1346 160.495C56.5357 160.728 57.9574 161.181 58.8317 162.385C58.8969 162.473 58.957 162.564 59.0127 162.658C59.0684 162.752 59.1197 162.849 59.1658 162.948C59.212 163.047 59.253 163.148 59.289 163.251C59.3249 163.354 59.3556 163.459 59.3813 163.566C59.4069 163.672 59.4267 163.779 59.4414 163.888C59.456 163.996 59.4656 164.105 59.4692 164.214C59.4729 164.324 59.4714 164.433 59.4648 164.542C59.4575 164.651 59.445 164.759 59.4275 164.867C59.2289 166.07 58.3869 167.087 57.4041 167.764C56.118 168.651 54.8246 168.829 53.3091 168.771C51.8691 168.486 50.4321 168.042 49.5659 166.756C49.0133 165.934 48.8492 164.929 49.0617 163.967C49.3138 162.827 50.0737 161.89 51.0711 161.301L51.0718 161.302ZM49.9469 165.966C50.5442 167.14 51.661 167.66 52.8474 168.038C54.0148 168.149 55.0913 168.1 56.1752 167.609C57.2283 167.132 58.263 166.258 58.6543 165.141C58.8888 164.471 58.8705 163.738 58.5283 163.107C57.9442 162.03 56.716 161.562 55.608 161.223C54.3343 161.126 53.1845 161.123 51.9827 161.652C51.0264 162.073 50.169 162.79 49.8136 163.797C49.5593 164.517 49.6003 165.285 49.9469 165.966Z" fill="#010101"/>
<path d="M36.4483 151.726C37.8766 150.75 39.439 150.524 41.1274 150.674C42.5337 151.014 43.9862 151.532 44.7959 152.822C45.3001 153.626 45.4174 154.601 45.1755 155.513C44.8289 156.817 43.8103 157.876 42.6553 158.526C41.3297 159.272 39.7739 159.549 38.2635 159.435C36.9547 159.221 35.6693 158.77 34.8493 157.658C34.2741 156.878 34.0608 155.86 34.2213 154.91C34.4448 153.588 35.363 152.468 36.4483 151.726ZM34.8735 155.935C34.8838 156.031 34.8999 156.126 34.9197 156.221C34.9402 156.315 34.9651 156.409 34.9944 156.5C35.0237 156.592 35.0582 156.682 35.097 156.771C35.1359 156.859 35.1791 156.946 35.226 157.031C35.2736 157.115 35.3249 157.197 35.3806 157.276C35.4363 157.355 35.4964 157.431 35.5594 157.504C36.2732 158.324 37.3673 158.665 38.4145 158.762C39.9432 158.735 41.3245 158.548 42.6473 157.703C43.5589 157.122 44.3357 156.244 44.5416 155.158C44.6809 154.422 44.5592 153.707 44.1181 153.095C43.3215 151.987 41.902 151.528 40.6152 151.31C39.0696 151.275 37.7183 151.572 36.4952 152.582C35.6627 153.271 34.9592 154.254 34.8669 155.357C34.8581 155.453 34.8544 155.55 34.8552 155.647C34.8559 155.743 34.8618 155.84 34.8728 155.936L34.8735 155.935Z" fill="#010101"/>
<path d="M55.6917 149.876C55.1457 148.957 54.9611 147.825 55.2395 146.789C55.5942 145.471 56.5894 144.429 57.7605 143.774C59.0971 143.028 60.5217 142.856 62.0203 142.99C63.5094 143.336 64.8725 143.843 65.7277 145.204C65.7973 145.315 65.8618 145.43 65.9197 145.547C65.9783 145.665 66.0304 145.785 66.0765 145.909C66.1227 146.032 66.1623 146.157 66.196 146.284C66.2297 146.411 66.2561 146.539 66.2766 146.67C66.2971 146.8 66.311 146.93 66.3184 147.061C66.3257 147.192 66.3264 147.323 66.3206 147.454C66.3147 147.585 66.3022 147.716 66.2832 147.846C66.2641 147.977 66.2385 148.105 66.2062 148.233C65.8721 149.565 64.8894 150.63 63.7205 151.307C62.3281 152.113 60.8332 152.337 59.2539 152.185C57.8205 151.82 56.4787 151.202 55.6917 149.878V149.876ZM63.3123 150.751C64.3507 150.17 65.2697 149.232 65.5848 148.059C65.6126 147.957 65.6361 147.853 65.6537 147.748C65.6713 147.644 65.6837 147.538 65.6903 147.432C65.6969 147.326 65.6984 147.22 65.6947 147.113C65.6911 147.007 65.6815 146.901 65.6669 146.795C65.6522 146.69 65.6317 146.585 65.6068 146.482C65.5811 146.379 65.5511 146.277 65.5152 146.177C65.4793 146.077 65.4382 145.979 65.3928 145.883C65.3474 145.787 65.2968 145.694 65.2411 145.603C64.4768 144.371 63.1064 143.902 61.7609 143.613C60.5525 143.523 59.4291 143.635 58.3343 144.201C57.2761 144.748 56.3175 145.679 55.9687 146.841C55.935 146.954 55.9071 147.068 55.8859 147.183C55.8639 147.299 55.8485 147.415 55.839 147.531C55.8295 147.648 55.8258 147.765 55.8287 147.883C55.8317 148 55.8405 148.117 55.8551 148.234C55.8698 148.35 55.891 148.466 55.9181 148.58C55.9453 148.694 55.9782 148.807 56.0171 148.918C56.0559 149.029 56.1006 149.137 56.1504 149.244C56.201 149.35 56.256 149.453 56.3168 149.554C57.0284 150.724 58.2361 151.21 59.5046 151.524C60.8669 151.578 62.1039 151.428 63.3131 150.751H63.3123Z" fill="#010101"/>
<path d="M68.5059 155.626C69.9085 154.843 71.3829 154.775 72.9395 154.899C74.5084 155.235 75.9448 155.864 76.8344 157.278C77.3965 158.171 77.6031 159.254 77.3188 160.278C76.9575 161.583 76.007 162.672 74.8323 163.323C73.4268 164.103 71.9538 164.14 70.4024 163.959C68.9382 163.588 67.6661 162.966 66.8387 161.634C66.2319 160.657 65.9718 159.418 66.2605 158.294C66.5595 157.131 67.4799 156.199 68.5059 155.626ZM67.784 161.795C68.6876 162.893 69.8806 163.223 71.232 163.369C72.469 163.342 73.5352 163.231 74.6227 162.567C75.5835 161.98 76.4277 161.007 76.6549 159.882C76.8271 159.03 76.6072 158.2 76.1008 157.5C75.2171 156.281 73.8108 155.752 72.3752 155.533C70.9865 155.425 69.6139 155.671 68.4641 156.494C67.6778 157.056 67.0629 157.87 66.9164 158.841C66.7596 159.878 67.123 160.992 67.784 161.795V161.795Z" fill="#010101"/>
<path d="M83.4766 142.295C84.4388 141.65 85.4486 141.48 86.5823 141.613C88.2429 142.165 89.8302 142.975 90.6597 144.613C91.3742 146.025 91.1698 147.613 90.6597 149.052C90.0258 150.842 88.9053 152.507 87.1172 153.304C86.5566 153.553 85.9535 153.689 85.3497 153.782C84.0482 153.566 83.0809 153.161 82.2733 152.052C81.1279 150.475 80.7754 148.081 81.1169 146.191C81.391 144.676 82.1729 143.17 83.4766 142.295ZM83.1124 152.022C83.8796 152.829 84.6579 153.032 85.7417 153.046C86.1997 152.905 86.671 152.768 87.0901 152.531C88.6833 151.632 89.7811 149.807 90.2068 148.06C90.4963 146.873 90.4926 145.622 89.8214 144.561C88.9881 143.243 87.5738 142.704 86.1309 142.36C85.0851 142.283 84.2241 142.527 83.4216 143.229C82.2572 144.248 81.7977 145.808 81.7229 147.306C81.6423 148.935 81.9501 150.8 83.1124 152.022Z" fill="#010101"/>
</g>
<defs>
<clipPath id="clip0_1705_8762">
<rect width="133" height="239" fill="white" transform="matrix(-1 0 0 1 133 0)"/>
</clipPath>
</defs>
</svg>
