<svg width="188" height="322" viewBox="0 0 188 322" fill="none" xmlns="http://www.w3.org/2000/svg">
<path d="M35.197 284.899C33.5482 284.899 32.2402 284.568 31.1985 283.889C29.801 282.977 29 281.464 29 279.743C29 279.698 29 279.651 29.0021 279.606C29.0149 279.084 29.1321 273.607 29.245 268.28C29.4452 259.618 29.4239 256.707 29.3728 255.789C29.3685 255.729 29.3685 255.668 29.3685 255.608C29.3685 255.448 29.3579 255.163 29.3025 254.717C29.2194 254.057 29.1853 253.658 29.1853 253.341C29.1853 251.509 30.2185 249.956 31.8908 249.25C32.5341 248.956 33.5418 248.671 36.1322 248.23C36.1428 248.23 36.1556 248.226 36.1663 248.223C37.3678 248.032 38.7759 247.938 40.4673 247.938C45.4756 247.938 49.9215 248.718 53.6836 250.258C60.8435 253.215 62.3453 257.994 62.3453 261.486C62.3453 269.846 58.7707 276.212 51.7173 280.405C47.787 282.755 43.1877 284.2 38.0537 284.694C36.9119 284.83 35.9788 284.896 35.1991 284.896L35.197 284.899ZM35.7573 255.514C35.8382 257.112 35.7977 261.337 35.6337 268.423C35.5528 272.216 35.4931 275.066 35.4526 276.964L35.4185 278.503C35.9149 278.49 36.5561 278.437 37.3251 278.345C37.3507 278.343 37.3763 278.339 37.4018 278.337C41.6006 277.936 45.3137 276.783 48.4388 274.915C53.494 271.909 55.9481 267.518 55.9481 261.486C55.9481 260.564 55.9481 258.111 51.2487 256.17C48.2684 254.95 44.6363 254.33 40.4631 254.33C39.1402 254.33 38.0367 254.398 37.1845 254.532C36.5774 254.636 36.1002 254.724 35.7274 254.798C35.7445 255.048 35.7551 255.284 35.7573 255.512V255.514ZM34.3257 255.158C34.3257 255.158 34.3257 255.158 34.3236 255.158C34.3236 255.158 34.3236 255.158 34.3257 255.158ZM39.5449 273.321C37.4444 273.321 35.8595 271.711 35.8595 269.574C35.8595 269.493 35.8616 269.41 35.868 269.329C36.0662 266.738 36.2089 264.633 36.2898 263.069C36.3963 259.916 38.5607 257.8 41.688 257.8C43.7607 257.8 45.3755 258.222 46.6281 259.087C48.1896 260.165 49.0481 261.865 49.0481 263.874C49.0481 265.884 47.8871 267.999 45.499 270.183C43.128 272.352 41.2917 273.317 39.5449 273.317V273.321Z" fill="#231F20"/>
<path d="M71.3671 286.33C70.9687 286.33 70.5639 286.322 70.1549 286.305C66.0009 286.141 62.6776 284.268 60.558 280.889C58.6535 277.851 57.7269 273.688 57.7269 268.165C57.7269 264.984 58.0507 261.409 58.6876 257.538C58.6961 257.487 58.7047 257.438 58.7153 257.389C59.0689 255.734 59.414 254.014 59.7378 252.276C59.9125 251.317 60.6539 249.065 63.7939 248.383C63.9047 248.36 64.0176 248.341 64.1326 248.328C65.6387 248.166 67.1257 248.002 68.5934 247.84C68.6147 247.838 68.636 247.836 68.6573 247.834C69.665 247.742 70.4809 247.697 71.1498 247.697C73.2098 247.697 74.7862 248.307 75.8364 249.506C76.2774 250.009 76.7482 250.765 76.9292 251.813C77.5619 250.961 78.6207 250.128 80.3718 249.534C81.3964 249.152 82.1825 248.982 82.9111 248.982C84.5216 248.982 85.9339 249.736 86.884 251.106C87.5231 252.027 87.9385 253.209 88.1558 254.717C88.748 258.693 89.0463 262.289 89.0463 265.408C89.0463 272.914 87.1802 278.507 83.5033 282.029C80.5209 284.886 76.4414 286.33 71.3692 286.33H71.3671ZM64.9805 258.653C64.4074 262.151 64.1156 265.351 64.1156 268.165C64.1156 279.672 68.6936 279.851 70.417 279.92C74.3132 280.088 77.1444 279.27 79.0808 277.414C81.4518 275.143 82.6533 271.103 82.6533 265.408C82.6533 265.187 82.6533 264.963 82.649 264.737C82.1782 266.789 81.3389 268.355 80.1204 269.476C79.1128 270.4 77.3446 271.455 74.6349 271.229C73.2864 271.127 69.0578 270.302 69.0578 264C69.0578 262.933 69.2474 261.36 69.6543 259.049C69.976 257.119 70.2359 255.463 70.4297 254.108C70.091 254.125 69.7012 254.155 69.2666 254.193C68.1269 254.319 66.9744 254.447 65.8091 254.573C65.5429 255.957 65.2659 257.323 64.9826 258.65L64.9805 258.653ZM76.467 256.937C76.3178 257.9 76.1474 258.961 75.9557 260.114C75.9557 260.125 75.9514 260.135 75.9514 260.144C75.5147 262.622 75.4487 263.623 75.4487 263.998C75.4487 264.373 75.4764 264.669 75.5083 264.861C75.6447 264.848 75.7405 264.816 75.798 264.765C75.8918 264.68 76.7141 263.819 76.7141 260.137C76.7141 258.608 76.599 257.591 76.4691 256.935L76.467 256.937Z" fill="#231F20"/>
<path d="M102.998 286.618C102.857 286.618 102.716 286.618 102.574 286.614C98.7093 286.565 95.2625 285.623 92.3312 283.819C87.21 280.721 84.6132 275.62 84.6132 268.656C84.6132 262.965 85.8722 258.47 88.354 255.295C88.3625 255.284 88.3732 255.272 88.3817 255.261C90.3096 252.864 93.0811 251.143 96.6195 250.145C96.6408 250.139 96.6621 250.135 96.6834 250.128C98.688 249.609 100.671 249.106 102.58 248.637C104.107 248.047 105.407 247.759 106.551 247.759C109.075 247.759 111.071 249.323 111.904 251.948C112.124 252.562 112.386 253.674 112.846 257.924C113.191 260.562 112.324 262.194 111.531 263.099C110.362 264.439 108.643 265.117 106.427 265.117C104.608 265.117 102.601 264.693 100.46 263.858C100.35 263.9 100.183 264.007 99.9449 264.277C99.9385 264.284 99.9321 264.292 99.9257 264.299C99.7468 264.499 99.1993 265.11 99.2696 266.877C99.3164 268.129 99.555 268.624 99.6339 268.752C99.6765 268.76 99.7531 268.771 99.8724 268.771C100.292 268.771 101.564 268.611 104.293 267.134C104.323 267.117 104.355 267.102 104.384 267.088C105.481 266.538 106.562 266.261 107.588 266.261C108.615 266.261 111.248 266.629 112.55 270.051C113.133 271.585 113.417 273.656 113.417 276.379C113.417 279.611 112.486 282.159 110.647 283.953C108.83 285.728 106.257 286.625 102.991 286.625L102.998 286.618ZM93.3751 259.247C91.8029 261.273 91.0041 264.439 91.0041 268.656C91.0041 273.36 92.4782 276.443 95.646 278.354C95.6545 278.358 95.663 278.365 95.6715 278.369C97.6378 279.581 99.9278 280.188 102.67 280.22C102.682 280.22 102.695 280.22 102.708 280.22C103.871 280.252 105.415 280.124 106.189 279.37C106.885 278.69 107.03 277.363 107.03 276.37C107.03 274.726 106.907 273.684 106.781 273.045C104.039 274.466 101.777 275.156 99.8767 275.156C98.3067 275.156 93.1621 274.576 92.8851 267.117C92.7701 264.241 93.5349 261.855 95.1603 260.038C97.0605 257.886 99.1716 257.432 100.612 257.432C101.374 257.432 102.09 257.581 102.742 257.877C104.156 258.435 105.396 258.717 106.432 258.717C106.459 258.717 106.485 258.717 106.51 258.717C106.506 258.691 106.504 258.668 106.502 258.644C106.197 255.832 106.008 254.692 105.918 254.253C105.635 254.326 105.249 254.449 104.74 254.652C104.602 254.707 104.459 254.752 104.314 254.788C102.378 255.263 100.365 255.77 98.328 256.301C96.1189 256.927 94.453 257.918 93.3793 259.245L93.3751 259.247Z" fill="#231F20"/>
<path d="M118.434 286.676C117.456 286.676 116.344 286.58 115.13 286.392C115.11 286.39 115.093 286.386 115.074 286.384C110.848 285.657 110.385 279.762 110.164 276.928C110.16 276.871 110.157 276.813 110.155 276.758C110.074 273.43 109.993 270.1 109.912 266.77V266.712C109.759 261.542 109.282 257.398 108.489 254.404C108.293 253.912 108.193 253.413 108.193 252.913C108.193 250.968 109.239 249.299 111.065 248.339C112.279 247.699 113.866 247.35 115.918 247.269C118.274 247.165 120.116 247.429 121.535 248.077C123.067 248.775 124.136 249.951 124.607 251.404C124.72 250.921 124.82 250.452 124.908 249.998C125.576 246.312 128.139 245 130.314 245C131.477 245 132.998 245.334 135.244 246.082C140.182 247.729 140.919 251.029 140.919 252.851C140.919 254.332 140.478 255.881 139.57 257.587C138.765 259.13 137.331 261.818 135.299 265.6C137.022 266.832 138.592 268.34 139.986 270.106C142.069 272.74 143 274.713 143 276.498C143 277.154 142.868 277.753 142.608 278.281C142.533 278.432 142.448 278.575 142.35 278.714C139.021 283.418 136.273 285.514 133.433 285.514C131.565 285.514 129.99 284.485 129.285 282.815C129.002 282.223 128.646 281.569 128.224 280.857C128.116 282.225 127.421 283.446 126.279 284.253C124.021 285.864 121.38 286.68 118.429 286.68L118.434 286.676ZM117.119 280.207C117.601 280.258 118.042 280.282 118.434 280.282C119.62 280.282 120.666 280.062 121.601 279.617C121.578 279.468 121.552 279.308 121.525 279.138C120.873 275.036 120.873 274.672 120.873 274.352C120.873 273.315 121.12 269.904 124.277 269.214C127.562 268.44 130.105 272.137 131.479 274.133C132.596 275.731 133.507 277.167 134.232 278.469C134.732 278.023 135.437 277.286 136.362 276.076C136.136 275.663 135.723 275.013 134.975 274.069C133.437 272.12 131.637 270.622 129.62 269.614C128.846 269.226 128.263 268.545 128.003 267.72C127.743 266.896 127.826 266.001 128.237 265.24C131.036 260.048 132.945 256.475 133.912 254.619C133.916 254.611 133.921 254.602 133.925 254.594C134.47 253.569 134.53 253.032 134.53 252.849C134.53 252.838 134.53 252.83 134.53 252.823C134.466 252.751 134.161 252.457 133.224 252.144C132.248 251.818 131.573 251.634 131.119 251.528C130.683 253.697 130.01 256.132 129.117 258.774C127.649 263.02 126.292 265.351 124.594 266.527C123.844 267.092 123.052 267.377 122.23 267.377C120.909 267.377 119.22 266.548 118.806 264.217C118.711 263.674 118.666 263.001 118.666 262.1C118.666 259.767 118.613 256.969 118.506 253.776C118.116 253.69 117.398 253.599 116.184 253.654C115.645 253.676 115.23 253.72 114.912 253.769C115.69 257.125 116.144 261.32 116.295 266.54V266.614C116.376 269.915 116.457 273.215 116.538 276.513C116.7 278.526 116.942 279.634 117.115 280.207H117.119Z" fill="#231F20"/>
<path d="M59.1457 261.488C59.1457 268.677 56.1228 274.067 50.0813 277.659C46.528 279.783 42.4038 281.07 37.7087 281.517C36.6882 281.641 35.851 281.701 35.1971 281.701C33.1967 281.701 32.1955 281.049 32.1955 279.741C32.1955 279.864 32.2764 276.065 32.4405 268.346C32.6024 261.282 32.645 257.035 32.5619 255.606C32.5619 255.237 32.5321 254.809 32.4703 254.319C32.4085 253.829 32.3787 253.503 32.3787 253.339C32.3787 252.768 32.6428 252.38 33.1754 252.176C33.5823 251.971 34.7476 251.707 36.6669 251.379C37.6874 251.217 38.9527 251.134 40.4652 251.134C45.0794 251.134 49.0801 251.828 52.4694 253.217C56.9196 255.054 59.1457 257.811 59.1457 261.486V261.488ZM45.8549 263.877C45.8549 261.957 44.4659 260.998 41.6902 260.998C40.2607 260.998 39.5258 261.733 39.4853 263.203C39.4022 264.795 39.2595 266.919 39.0571 269.574C39.0571 269.94 39.219 270.125 39.5471 270.125C40.4056 270.125 41.6689 269.361 43.3454 267.829C45.0198 266.297 45.857 264.98 45.857 263.879L45.8549 263.877Z" fill="#FFE400"/>
<path d="M84.9924 255.177C85.5633 259.017 85.8509 262.428 85.8509 265.408C85.8509 277.659 80.6658 283.561 70.2934 283.111C64.0453 282.866 60.9223 277.885 60.9223 268.165C60.9223 265.144 61.2291 261.774 61.8405 258.058C62.209 256.343 62.5541 254.606 62.8822 252.851C63.0057 252.156 63.5341 251.709 64.4756 251.502C65.986 251.34 67.4772 251.176 68.9471 251.012C69.844 250.931 70.5789 250.889 71.152 250.889C73.1118 250.889 73.9895 251.645 73.785 253.156C73.5805 254.749 73.2545 256.893 72.8051 259.588C72.4365 261.671 72.2533 263.141 72.2533 263.998C72.2533 266.572 73.131 267.918 74.8863 268.042C78.233 268.327 79.9095 265.694 79.9095 260.139C79.9095 258.22 79.7455 256.688 79.4196 255.546C79.296 255.18 79.2364 254.832 79.2364 254.504C79.2364 253.688 79.9713 253.034 81.4412 252.544C82.0931 252.299 82.5831 252.178 82.9111 252.178C84.0125 252.178 84.707 253.179 84.9945 255.18L84.9924 255.177Z" fill="#FFE400"/>
<path d="M110.228 276.372C110.228 281.191 107.695 283.539 102.633 283.416C99.3249 283.375 96.4469 282.6 93.9971 281.087C89.8729 278.596 87.8108 274.45 87.8108 268.651C87.8108 263.67 88.8312 259.871 90.8741 257.257C92.3845 255.38 94.5893 254.031 97.4886 253.213C99.5294 252.683 101.551 252.171 103.551 251.681C104.776 251.191 105.778 250.946 106.553 250.946C107.695 250.946 108.472 251.62 108.881 252.968C109.086 253.499 109.35 255.276 109.678 258.297C110.004 260.706 108.922 261.91 106.432 261.91C104.962 261.91 103.309 261.541 101.47 260.806C101.225 260.685 100.94 260.623 100.612 260.623C99.4677 260.623 98.4473 261.135 97.5483 262.155C96.4853 263.34 95.9953 264.952 96.0784 266.994C96.2019 270.302 97.4652 271.956 99.8767 271.956C101.347 271.956 103.328 271.282 105.818 269.934C106.47 269.608 107.062 269.444 107.595 269.444C109.35 269.444 110.228 271.751 110.228 276.366V276.372Z" fill="#FF861A"/>
<path d="M139.749 276.862C137.176 280.497 135.073 282.314 133.441 282.314C132.828 282.314 132.421 282.048 132.217 281.518C131.482 279.967 130.359 278.109 128.849 275.944C127.051 273.332 125.766 272.126 124.991 272.331C124.377 272.454 124.073 273.128 124.073 274.353C124.073 274.638 124.277 276.068 124.686 278.641C124.931 280.195 125.052 280.806 125.052 280.478C125.052 280.968 124.848 281.356 124.441 281.641C122.726 282.866 120.726 283.48 118.438 283.48C117.62 283.48 116.683 283.399 115.62 283.235C114.435 283.03 113.679 280.846 113.353 276.681C113.27 273.334 113.189 269.985 113.108 266.636C112.944 261.041 112.413 256.612 111.514 253.343C111.431 253.181 111.391 253.037 111.391 252.915C111.391 251.405 112.942 250.586 116.046 250.465C119.72 250.303 121.597 251.16 121.68 253.039C121.804 256.552 121.863 259.573 121.863 262.104C121.863 263.493 121.987 264.188 122.232 264.188C122.355 264.188 122.517 264.107 122.722 263.943C123.783 263.248 124.905 261.186 126.09 257.756C126.987 255.101 127.641 252.713 128.05 250.589C128.335 248.995 129.091 248.2 130.316 248.2C131.092 248.2 132.4 248.507 134.236 249.118C136.562 249.894 137.728 251.14 137.728 252.855C137.728 253.795 137.4 254.877 136.748 256.102C135.768 257.982 133.87 261.535 131.051 266.761C133.501 267.987 135.644 269.763 137.483 272.09C139.033 274.05 139.811 275.52 139.811 276.5C139.811 276.664 139.79 276.786 139.749 276.869V276.862Z" fill="#FF861A"/>
<path d="M111.282 70.7688C111.97 70.2734 112.75 69.5531 112.557 68.9207C112.434 68.5237 111.939 68.1829 111.036 67.8773C109.715 67.4276 108.31 67.1044 106.95 66.7917C105.601 66.479 104.207 66.1593 102.868 65.7131C100.079 64.7856 98.6634 62.8076 97.2934 60.8963C96.6083 59.9407 95.8987 58.9499 95.0205 58.1032C94.072 57.1897 92.442 56.5327 90.7699 56.3887C90.5943 56.3746 90.3694 56.3606 90.12 56.3606C88.9502 56.3606 87.1411 56.6311 86.2488 58.1524C85.9748 58.6197 85.7359 59.0729 85.5041 59.5085C84.7382 60.9525 84.0146 62.3192 82.3705 63.577C79.9923 65.3969 77.3893 66.5282 74.8319 66.8444C74.5473 66.8795 74.196 66.9076 73.8096 66.9357C71.4911 67.1114 69.2358 67.403 69.3131 68.861C69.6047 74.1767 83.5895 77.5706 90.8085 77.5706C98.0276 77.5706 105.18 75.1569 111.282 70.7723V70.7688Z" fill="#FF861A"/>
<path d="M90.1516 18.8699C90.2992 18.8699 90.4467 18.8594 90.5942 18.8594C92.2804 18.8594 93.935 18.9894 95.5439 19.2248C95.7512 16.9376 96.394 7.14945 92.709 2.99669C91.606 1.75297 90.2465 1.14868 88.5497 1.14868C87.1832 1.14868 86.1293 1.73189 85.5778 2.79292C84.7839 4.3177 85.1422 6.54867 86.4912 8.47046C88.8308 11.8081 89.8741 17.2222 90.1481 18.8699H90.1516Z" fill="#FFE400"/>
<path d="M78.4747 87.3728C78.5485 87.3834 78.6153 87.408 78.6785 87.4396C82.5005 87.9034 86.5017 88.1493 90.5978 88.1493C101.923 88.1493 112.564 86.3118 120.556 82.9706C128.39 79.6997 132.703 75.41 132.703 70.8918C132.703 68.2182 131.207 65.6394 128.256 63.2293C122.576 58.5882 119.319 52.1869 119.319 45.6626V44.8862C119.319 31.1666 106.434 20.0083 90.5978 20.0083C74.7616 20.0083 61.8763 31.1701 61.8763 44.8862V45.6626C61.8763 52.1869 58.6198 58.5917 52.9394 63.2293C49.9886 65.6394 48.4921 68.2182 48.4921 70.8918C48.4921 75.4065 52.806 79.6962 60.6397 82.9706C65.6351 85.0576 71.6632 86.5578 78.2429 87.3904C78.3167 87.3693 78.3939 87.3623 78.4747 87.3728ZM68.1679 68.9244C68.0203 66.2191 71.593 65.9521 73.7253 65.7905C74.0906 65.7624 74.4208 65.7378 74.6913 65.7062C77.0415 65.4146 79.4548 64.3606 81.6715 62.6636C83.1153 61.5569 83.7195 60.4151 84.4888 58.9676C84.7242 58.5214 84.9701 58.0612 85.2546 57.5693C86.2488 55.8688 88.2933 55.0186 90.8647 55.24C92.7898 55.4051 94.6833 56.185 95.8144 57.2742C96.7664 58.1947 97.5076 59.2276 98.2243 60.2254C99.5451 62.0699 100.792 63.809 103.227 64.6205C104.516 65.0492 105.882 65.3654 107.207 65.671C108.594 65.9907 110.028 66.321 111.405 66.7883C112.22 67.0623 113.337 67.5507 113.653 68.5801C113.969 69.6095 113.396 70.66 111.953 71.6999C105.658 76.2251 98.1505 78.716 90.8121 78.716C83.4736 78.716 68.5157 75.2589 68.1679 68.9209V68.9244Z" fill="#FFE400"/>
<path d="M80.0626 10.2026C80.3471 11.1618 81.0146 12.0682 81.9736 12.6866C85.3706 14.8754 85.6902 18.2657 85.7078 19.2178C86.7827 19.0633 87.8788 18.9543 88.9888 18.9016C88.6832 17.1625 87.661 12.1385 85.5532 9.13459C84.8612 8.14735 84.3975 7.10038 84.1691 6.07449C82.0438 5.99017 80.5614 6.74553 80.0696 8.17897C79.8483 8.82191 79.8588 9.51755 80.0555 10.1921C80.0555 10.1956 80.0555 10.2026 80.059 10.2062L80.0626 10.2026Z" fill="#FFE400"/>
<path d="M82.0684 19.9485C82.8869 19.7377 83.7125 19.548 84.5591 19.3969C84.5696 19.151 84.6293 15.7606 81.3518 13.6491C80.3401 12.9956 79.5883 12.0786 79.1597 11.0703C78.1024 11.4006 77.2241 12.2332 77.0696 13.108C76.922 13.9548 77.5403 14.4958 78.0883 14.8015C78.264 14.8998 78.4291 14.9877 78.5907 15.072C79.5813 15.6025 80.4384 16.0592 81.0848 17.3135C81.5837 18.2797 81.819 19.0491 82.0684 19.9485Z" fill="#FFE400"/>
<path d="M104.716 91.146C104.611 90.9211 104.512 90.7103 104.414 90.5066C104.084 89.8144 103.789 89.1961 103.595 88.4653C99.4432 89.0134 95.0732 89.3015 90.5978 89.3015C86.579 89.3015 82.6445 89.0661 78.8787 88.6234C78.6644 89.8461 78.2991 90.8755 77.7932 91.6871C75.9173 94.6769 73.0087 97.3189 70.1983 99.8731C68.1257 101.756 65.9864 103.703 64.3318 105.73C59.9512 111.109 56.4805 116.702 54.0179 122.358C53.8739 122.689 53.7263 123.029 53.5788 123.377C50.7439 129.958 46.8797 138.924 37.9464 138.924C37.7778 138.924 37.6091 138.924 37.437 138.913C34.9323 138.818 32.9018 137.539 30.9346 136.299C29.1571 135.179 27.4779 134.121 25.458 133.847C25.0646 133.794 24.6781 133.921 24.4182 134.184C24.1969 134.406 24.0985 134.69 24.1442 134.985C24.6711 138.601 27.2285 143.073 30.4463 143.99C30.752 144.078 30.9276 144.394 30.8433 144.7C30.7555 145.005 30.4358 145.181 30.1337 145.097L29.8913 145.026C28.7812 144.71 27.6747 144.398 26.5646 144.078C26.266 143.993 26.0236 144.116 25.9041 144.25C25.8234 144.341 25.7426 144.485 25.8234 144.679C27.7519 149.358 31.3175 153.546 35.8632 156.466C38.5049 158.163 41.2731 159.491 43.8691 160.306C44.1115 160.383 44.3469 160.453 44.5787 160.524C46.6584 161.16 48.3024 161.662 49.8621 163.615C52.0472 166.356 53.765 169.507 55.4301 172.557C56.2345 174.029 57.0636 175.554 57.9278 176.984C58.3563 177.693 58.8376 178.498 58.9711 179.418C59.0203 179.756 59.0168 180.082 59.0168 180.399C59.0168 180.704 59.0133 180.992 59.0589 181.259C59.1081 181.54 59.224 181.8 59.3962 182.032C59.5297 182.099 59.6315 182.215 59.6807 182.355C61.1105 183.729 64.5531 184.225 66.3868 184.488L66.696 184.534C68.326 184.773 69.5168 184.59 70.6023 184.074C70.6374 184.052 70.6761 184.035 70.7147 184.021C71.4068 183.673 72.0602 183.192 72.7592 182.591C74.0274 181.505 75.4501 180.655 76.8272 179.833C77.593 179.376 78.3869 178.902 79.1387 178.396C81.0427 177.114 82.9256 175.283 84.7382 172.954L84.819 172.852C85.1703 172.399 85.5708 171.882 86.1364 171.52C86.9022 171.029 87.8366 170.958 88.5181 171.341C89.2945 171.777 89.5193 172.599 89.702 173.256C90.7277 176.977 93.3448 181.003 97.1844 183.016C97.2336 183.034 97.2828 183.058 97.325 183.09C98.284 183.578 99.3168 183.94 100.42 184.14C101.72 184.376 103.086 184.428 104.41 184.478C104.93 184.495 105.454 184.516 105.974 184.548C106.195 184.562 106.42 184.576 106.641 184.59C107.786 184.667 108.872 184.738 109.933 184.562C116.203 183.522 121.743 175.656 125.291 169.24C128.618 163.222 130.761 156.311 131.846 148.104C133.589 134.926 119.544 113.947 111.155 101.412C108.117 96.8692 105.714 93.2821 104.73 91.146H104.716Z" fill="#FFE400"/>
<path d="M123.731 128.415C123.777 128.588 123.819 128.763 123.858 128.939C124.178 130.425 124.244 131.96 124.258 133.475C124.272 134.989 124.265 136.517 124.213 138.031C124.104 141.063 123.675 144.106 122.681 146.983C121.729 149.738 120.243 152.401 118.206 154.502C117.334 155.405 116.267 156.188 115.009 156.424C113.948 156.624 112.624 156.494 111.724 155.851C111.025 155.352 110.66 154.576 110.34 153.806C109.993 152.981 109.638 152.169 109.037 151.498C108.745 151.818 108.478 152.162 108.271 152.541C107.902 153.212 107.748 153.982 107.934 154.73C108.11 155.443 108.563 156.055 109.09 156.55C110.33 157.724 112.072 158.405 113.741 158.676C115.241 158.918 116.765 158.707 118.128 158.026C119.425 157.376 120.5 156.353 121.371 155.205C123.25 152.724 124.336 149.668 125.042 146.664C125.762 143.589 126.071 140.378 126.004 137.223C125.966 135.407 125.783 133.573 125.302 131.816C124.972 130.611 124.483 129.42 123.738 128.412L123.731 128.415Z" fill="#FFBF00"/>
<path d="M65.6667 156.22C64.6936 155.257 63.5976 154.442 62.5648 153.546C61.9149 152.984 61.4161 152.253 60.9418 151.544C60.2076 150.444 59.5894 149.267 59.0624 148.055C57.9664 145.543 57.2006 142.859 56.9406 140.129C56.6947 137.55 56.8423 134.968 56.8282 132.382C56.0132 137.009 55.1877 142.279 55.8833 146.962C56.2697 149.566 57.1936 152.138 58.7744 154.256C60.3236 156.332 62.3154 158.539 64.8095 159.452C65.3154 159.638 65.8775 159.744 66.3868 159.568C67.1281 159.315 67.3072 158.56 67.0051 157.857C66.7346 157.228 66.1515 156.698 65.6702 156.224L65.6667 156.22Z" fill="#FFBF00"/>
<path d="M82.9396 92.1228C85.8764 92.8325 88.894 93.1417 91.9046 93.3173C93.38 93.4052 94.8589 93.4544 96.3378 93.5C97.9327 93.5492 99.5311 93.6125 101.129 93.5914C102.717 93.5703 104.305 93.4719 105.886 93.3103C105.394 92.4812 104.997 91.7504 104.716 91.1426C104.611 90.9177 104.512 90.7069 104.414 90.5032C104.084 89.811 103.789 89.1927 103.596 88.4619C99.4433 89.01 95.0732 89.2981 90.5978 89.2981C86.579 89.2981 82.6446 89.0627 78.8787 88.62C78.7523 89.3473 78.5661 89.9937 78.3342 90.5769C79.8132 91.2374 81.3659 91.7399 82.9432 92.1193L82.9396 92.1228Z" fill="#FFBF00"/>
<path d="M108.907 151.452C108.644 151.762 108.398 152.092 108.043 152.306C107.382 152.703 106.459 152.647 105.721 152.566C105.036 152.492 104.358 152.25 103.95 151.663C103.588 151.14 103.532 150.486 103.55 149.871C103.567 149.193 103.68 148.519 103.673 147.841C103.666 147.184 103.501 146.478 103.174 145.901C103.019 145.631 102.83 145.41 102.499 145.522C102.148 145.645 101.85 145.908 101.537 146.098C100.936 146.467 100.149 146.449 99.4714 146.355C98.7231 146.249 97.9678 146.003 97.3566 145.554C96.7348 145.097 96.4081 144.478 96.2254 143.737C95.8074 142.04 96.1481 140.21 96.6224 138.562C97.1072 136.883 97.8062 135.27 98.5791 133.703C99.5662 131.693 100.581 129.691 101.453 127.629C101.892 126.592 102.292 125.542 102.64 124.474C103.005 123.356 103.223 122.204 103.35 121.038C103.466 119.969 103.469 118.916 103.416 117.844C103.385 117.187 103.357 116.519 103.43 115.866C102.24 115.223 100.982 114.696 99.7032 114.264C97.0931 113.386 94.3566 112.89 91.6095 112.711C88.9924 112.539 86.3507 112.648 83.7757 113.157C81.6539 113.579 79.5567 114.18 77.5754 115.047C77.7054 116.477 77.8494 117.907 78.0426 119.334C78.2569 120.925 78.5696 122.489 78.8928 124.055C79.1597 125.345 79.4197 126.641 79.8342 127.896C80.0309 128.5 80.2698 129.09 80.5544 129.659C80.853 130.249 81.2394 130.769 81.5942 131.328C83.0415 133.601 83.7792 136.271 84.6645 138.794C85.0684 139.946 85.4584 141.127 85.497 142.356C85.5322 143.46 85.223 144.731 84.2921 145.417C83.4771 146.017 82.4022 146.302 81.4045 146.383C80.7862 146.432 80.2242 146.348 79.634 146.161C79.086 145.989 78.552 145.782 77.9794 145.715C77.7405 146.832 77.8319 147.988 77.73 149.12C77.6492 150.008 77.4244 150.838 76.9536 151.6C76.5567 152.243 76.0333 152.798 75.2393 152.847C74.4806 152.896 73.7358 152.552 73.1281 152.127C72.5906 151.755 72.1023 151.28 71.744 150.725C71.2698 151.094 71.0168 151.716 70.8096 152.257C70.5883 152.84 70.4126 153.444 70.1421 154.01C69.8822 154.548 69.4887 154.98 69.025 155.349C68.2803 155.935 67.3704 156.417 66.4255 156.68C66.6573 157.509 66.9173 158.324 67.2229 159.129C68.2381 161.799 69.7276 164.248 71.9126 166.121C74.1679 168.049 76.9255 169.269 79.7745 170.034C82.0755 170.653 84.4396 170.994 86.8108 171.211C87.4045 171.032 88.0228 171.071 88.5076 171.341C88.5146 171.341 88.5181 171.348 88.5216 171.352C88.5849 171.355 88.6481 171.362 88.7113 171.366C88.8483 171.377 88.8975 171.496 88.8729 171.601C89.8355 171.626 90.8015 171.58 91.757 171.436C94.3179 171.057 96.7453 170.041 98.8496 168.538C100.978 167.02 102.766 165.063 104.238 162.909C105.763 160.678 106.964 158.23 107.892 155.693C108.44 154.193 108.879 152.665 109.227 151.115C109.114 151.221 109.009 151.333 108.907 151.452Z" fill="white"/>
<path d="M66.5203 185.676L66.2112 185.63C64.3739 185.366 61.4688 184.945 59.6175 183.757C59.3856 186.037 58.7674 188.318 58.1631 190.531L57.9699 191.237C57.3552 193.507 56.7228 195.72 55.7252 197.842C54.8083 199.796 53.5507 202.476 51.5659 204.075C51.1514 204.409 50.6736 204.781 50.1572 205.185C46.1314 208.337 38.6384 214.2 40.8902 217.886C42.2251 220.075 44.2801 219.316 47.2626 217.91C48.2216 217.457 49.1315 217.029 49.971 216.814C53.5577 215.894 54.6959 218.184 55.6971 220.208C56.3434 221.512 57.0109 222.861 58.3107 223.482C60.6222 224.593 63.4571 224.125 65.1995 222.348C65.3154 222.228 65.4313 222.102 65.5437 221.975C65.9512 221.526 66.4114 221.016 67.0789 220.735C68.0449 220.331 69.1234 220.545 69.9138 220.703C70.251 220.77 70.7077 220.89 71.2346 221.027C73.0157 221.49 76.7253 222.453 77.6703 221.494C77.9197 221.241 77.9583 220.788 77.7827 220.148C76.5707 215.743 73.093 212.04 69.7276 208.463C68.3576 207.005 66.9384 205.494 65.7264 203.984C63.9278 201.742 65.1608 196.999 65.3049 196.465C65.7861 194.715 66.4325 193.018 67.0051 191.592C67.6058 190.092 68.5367 188.16 69.3588 186.452C69.5028 186.153 69.6433 185.862 69.7803 185.574C68.8388 185.806 67.785 185.855 66.5203 185.672V185.676Z" fill="#FF861A"/>
<path d="M108.436 185.82C107.8 185.82 107.172 185.778 106.55 185.735C106.329 185.721 106.111 185.707 105.893 185.693C105.38 185.665 104.867 185.644 104.354 185.626C102.991 185.577 101.583 185.525 100.202 185.272C99.3308 185.114 98.5018 184.861 97.7149 184.537C98.2172 187.696 99.6013 196.876 99.4678 200.959C99.4362 201.946 98.6845 202.757 97.6411 202.933C97.3952 202.975 97.1388 203.01 96.8718 203.049C95.4315 203.256 93.8015 203.495 93.0463 204.486C92.5334 205.161 92.5228 206.134 93.0217 207.641C94.3706 211.709 96.7524 216.14 100.1 220.809C102.289 223.859 105.591 228.461 109.782 229.072C113.86 229.67 116.938 229.371 118.227 228.254C118.634 227.902 118.838 227.481 118.838 227.003C118.838 226.525 118.993 226.153 119.298 225.896C119.916 225.376 120.897 225.545 122.028 225.742C123.053 225.921 124.22 226.121 124.845 225.707C125.463 225.299 125.628 224.47 125.351 223.18C125.26 222.755 125.13 222.337 124.996 221.898C124.866 221.476 124.733 221.044 124.631 220.595C124.585 220.398 124.483 219.934 124.778 219.537C125.017 219.214 125.421 219.189 126.668 219.158C127.09 219.147 127.729 219.13 127.887 219.084C128.846 218.764 129.788 218.153 130.543 217.366C131.165 216.716 131.397 216.08 131.253 215.416C131.028 214.38 129.609 212.233 122.646 209.485C121.827 209.162 120.83 208.846 119.776 208.516C116.238 207.399 111.837 206.011 110.354 203.024C109.754 201.816 109.652 200.509 109.627 199.385C109.564 196.265 110.084 193.075 110.586 189.99C110.832 188.49 111.078 186.947 111.257 185.43C110.874 185.539 110.491 185.63 110.101 185.693C109.546 185.785 108.988 185.816 108.433 185.816L108.436 185.82Z" fill="#FF861A"/>
<path d="M44.4312 212.524C47.7298 210.248 50.6877 207.479 53.1467 204.314C55.5987 201.159 57.5449 197.617 58.8552 193.841C59.9196 190.773 60.5414 187.573 60.7346 184.341C60.3341 184.168 59.9582 183.979 59.6175 183.757C59.3856 186.037 58.7674 188.318 58.1631 190.531L57.9699 191.237C57.3552 193.507 56.7228 195.72 55.7252 197.842C54.8083 199.796 53.5507 202.476 51.5659 204.075C51.1514 204.409 50.6736 204.781 50.1572 205.185C47.1572 207.532 42.2356 211.386 40.8515 214.724C42.0811 214.053 43.279 213.322 44.4312 212.528V212.524Z" fill="#EF7714"/>
<path d="M99.6259 198.766C99.9034 197.572 100.058 196.349 100.072 195.123C100.09 193.798 100.111 192.474 100.181 191.149C100.283 189.207 100.441 187.271 100.624 185.335C100.483 185.314 100.343 185.3 100.206 185.272C99.3343 185.114 98.5053 184.861 97.7184 184.537C98.1646 187.345 99.3098 194.912 99.4643 199.427C99.524 199.209 99.5802 198.988 99.6294 198.766H99.6259Z" fill="#EF7714"/>
<path d="M99.4643 219.263C98.3191 216.112 97.4023 212.788 97.2371 209.426C97.1634 207.919 97.3285 206.482 97.7219 205.024C97.9397 204.215 98.1962 203.421 98.4632 202.627C98.2208 202.775 97.9468 202.884 97.6411 202.937C97.3952 202.979 97.1388 203.014 96.8718 203.053C95.4315 203.26 93.8015 203.499 93.0463 204.49C92.5334 205.164 92.5228 206.137 93.0217 207.644C94.3566 211.671 96.7032 216.052 99.9983 220.668C99.8156 220.205 99.6365 219.737 99.4643 219.267V219.263Z" fill="#EF7714"/>
<path d="M90.5977 89.3016C79.1246 89.3016 68.3259 87.4325 60.1971 84.0351C51.9066 80.571 47.3434 75.9053 47.3434 70.8953C47.3434 67.9019 49.0261 64.9437 52.2123 62.3438C57.6256 57.9241 60.7275 51.8425 60.7275 45.6661V44.8896C60.7275 30.5377 74.1293 18.8594 90.5977 18.8594C107.066 18.8594 120.468 30.5342 120.468 44.8896V45.6661C120.468 51.846 123.573 57.9241 128.983 62.3438C132.169 64.9437 133.852 67.9019 133.852 70.8953C133.852 75.9053 129.289 80.571 120.998 84.0351C112.87 87.4325 102.071 89.3016 90.5977 89.3016ZM90.5977 20.0117C74.7616 20.0117 61.8763 31.1736 61.8763 44.8896V45.6661C61.8763 52.1903 58.6198 58.5951 52.9394 63.2327C49.9886 65.6428 48.4921 68.2216 48.4921 70.8953C48.4921 75.4099 52.8059 79.6997 60.6397 82.9741C68.6316 86.3118 79.2722 88.1527 90.5977 88.1527C101.923 88.1527 112.564 86.3153 120.556 82.9741C128.39 79.6997 132.703 75.4134 132.703 70.8953C132.703 68.2216 131.207 65.6428 128.256 63.2327C122.576 58.5916 119.319 52.1903 119.319 45.6661V44.8896C119.319 31.1701 106.434 20.0117 90.5977 20.0117Z" fill="#231F20"/>
<path d="M80.1223 54.98C81.6472 54.98 82.8834 51.6736 82.8834 47.595C82.8834 43.5163 81.6472 40.21 80.1223 40.21C78.5974 40.21 77.3611 43.5163 77.3611 47.595C77.3611 51.6736 78.5974 54.98 80.1223 54.98Z" fill="#231F20"/>
<path d="M100.641 54.9976C102.166 54.9976 103.402 51.6912 103.402 47.6126C103.402 43.5339 102.166 40.2275 100.641 40.2275C99.1162 40.2275 97.88 43.5339 97.88 47.6126C97.88 51.6912 99.1162 54.9976 100.641 54.9976Z" fill="#231F20"/>
<path d="M96.0709 20.3561C96.0498 20.3561 96.0252 20.3561 96.0006 20.3526C95.6844 20.314 95.4596 20.0294 95.4983 19.7132C95.5123 19.5937 96.8788 7.69058 92.7125 2.99677C91.6095 1.75306 90.25 1.14876 88.5533 1.14876C87.1867 1.14876 86.1329 1.73198 85.5813 2.793C84.7874 4.31778 85.1457 6.54875 86.4947 8.47054C89.2207 12.3563 90.1868 19.0702 90.2289 19.3548C90.2746 19.6675 90.0533 19.9591 89.7406 20.0048C89.428 20.0505 89.1364 19.8291 89.0907 19.5164C89.0802 19.4497 88.1212 12.7919 85.5532 9.13456C83.9373 6.82981 83.5544 4.19482 84.5591 2.266C85.3073 0.82905 86.7617 0.00341797 88.5497 0.00341797C90.5662 0.00341797 92.2523 0.75527 93.5697 2.23789C95.4772 4.38805 96.5732 8.02083 96.8226 13.0273C97.0053 16.7058 96.6505 19.7272 96.6364 19.8537C96.6013 20.1453 96.3519 20.3596 96.0674 20.3596L96.0709 20.3561Z" fill="#231F20"/>
<path d="M85.1352 20.0154C85.1352 20.0154 85.1141 20.0154 85.1071 20.0154C84.7909 19.9978 84.5485 19.7308 84.5626 19.4146C84.5696 19.267 84.6855 15.7994 81.3553 13.6527C79.2827 12.3177 78.2886 9.85834 78.9911 7.80656C79.6902 5.76883 81.8296 4.70429 84.7137 4.96077C85.0298 4.98887 85.2652 5.26643 85.2371 5.58262C85.209 5.89882 84.9315 6.1307 84.6153 6.10611C82.2581 5.89882 80.6036 6.65419 80.0801 8.18249C79.5462 9.7424 80.3471 11.6361 81.9806 12.6901C85.8834 15.2056 85.7219 19.3022 85.7148 19.4743C85.7008 19.78 85.4443 20.0189 85.1422 20.0189L85.1352 20.0154Z" fill="#231F20"/>
<path d="M81.6609 21.2169C81.408 21.2169 81.1762 21.0482 81.1059 20.7918L81.0532 20.5915C80.7616 19.5235 80.5719 18.8173 80.0661 17.8406C79.5813 16.9025 78.9701 16.5758 78.0497 16.0839C77.8846 15.9961 77.7124 15.9047 77.5333 15.8028C76.3178 15.1283 75.7382 14.0743 75.9419 12.9079C76.1984 11.4323 77.6984 10.1077 79.4338 9.82316C79.7464 9.77046 80.0415 9.98477 80.0942 10.2975C80.1469 10.6101 79.9326 10.9053 79.6199 10.958C78.3658 11.1617 77.2487 12.1068 77.0766 13.1046C76.9291 13.9513 77.5473 14.4924 78.0953 14.798C78.271 14.8964 78.4361 14.9842 78.5977 15.0686C79.5883 15.5991 80.4455 16.0558 81.0954 17.3101C81.6574 18.3992 81.8858 19.2318 82.1703 20.2894L82.223 20.4861C82.3073 20.7918 82.1246 21.108 81.819 21.1923C81.7698 21.2063 81.7171 21.2134 81.668 21.2134L81.6609 21.2169Z" fill="#231F20"/>
<path d="M108.44 185.82C107.804 185.82 107.175 185.778 106.557 185.735C106.336 185.721 106.118 185.707 105.896 185.693C105.387 185.665 104.864 185.644 104.358 185.627C102.995 185.577 101.586 185.525 100.206 185.272C94.1036 184.161 89.976 178.6 88.5919 173.579V173.562C88.4479 173.059 88.3073 172.543 87.949 172.343C87.6434 172.17 87.1516 172.234 86.7476 172.49C86.3471 172.747 86.0415 173.14 85.7183 173.558L85.6375 173.664C83.7511 176.088 81.7769 178.003 79.7745 179.352C78.9946 179.875 78.1902 180.36 77.4068 180.824C76.0122 181.656 74.6913 182.443 73.5005 183.466C71.5157 185.17 69.6538 186.132 66.5203 185.676L66.2112 185.63C63.4922 185.237 58.4336 184.509 57.9137 181.453C57.8505 181.084 57.854 180.732 57.8575 180.392C57.8575 180.107 57.861 179.837 57.8259 179.584C57.7275 178.891 57.3236 178.224 56.9336 177.577C56.0589 176.126 55.2228 174.591 54.4149 173.109C52.7743 170.101 51.0776 166.995 48.9558 164.336C47.6209 162.66 46.2017 162.228 44.2345 161.627C44.0026 161.557 43.7637 161.483 43.5178 161.406C40.827 160.562 37.9604 159.189 35.2344 157.436C30.492 154.39 26.7718 150.015 24.7554 145.118C24.5236 144.556 24.6325 143.944 25.0435 143.488C25.465 143.017 26.1255 142.81 26.7578 142.947C24.7835 140.902 23.3994 137.859 23.006 135.158C22.9112 134.508 23.129 133.861 23.5997 133.383C24.1126 132.867 24.8643 132.617 25.6091 132.716C27.8784 133.021 29.7437 134.195 31.5459 135.333C33.4674 136.545 35.2801 137.687 37.4756 137.768C45.9874 138.091 49.7638 129.322 52.5214 122.924C52.6725 122.576 52.82 122.232 52.964 121.902C55.4652 116.15 58.9922 110.466 63.4395 105.006C65.1468 102.909 67.3213 100.934 69.4255 99.023C72.1796 96.5215 75.0286 93.9322 76.8202 91.0759C77.3225 90.2783 77.6633 89.1997 77.8354 87.8752C77.8775 87.559 78.1656 87.3377 78.4782 87.3798C78.7944 87.422 79.0157 87.7101 78.9736 88.0228C78.7804 89.5159 78.3834 90.7491 77.7932 91.6872C75.9173 94.677 73.0087 97.319 70.1983 99.8732C68.1257 101.756 65.9864 103.703 64.3318 105.73C59.9512 111.109 56.4805 116.702 54.0179 122.359C53.8739 122.689 53.7263 123.03 53.5788 123.377C52.1982 126.582 50.4804 130.566 47.9968 133.657C45.0284 137.35 41.5752 139.071 37.437 138.913C34.9323 138.818 32.9018 137.54 30.9346 136.299C29.1571 135.179 27.4779 134.121 25.458 133.847C25.0681 133.794 24.6781 133.921 24.4182 134.184C24.1969 134.406 24.0985 134.69 24.1442 134.985C24.8187 139.627 27.9381 143.27 30.4428 143.987H30.4463C30.752 144.074 30.9276 144.391 30.8433 144.696C30.7555 145.002 30.4393 145.181 30.1337 145.093L29.9229 145.034C28.8023 144.714 27.6817 144.398 26.5646 144.074C26.266 143.987 26.0236 144.113 25.9041 144.247C25.8233 144.338 25.7426 144.482 25.8234 144.675C27.7519 149.355 31.3175 153.543 35.8632 156.462C38.5049 158.159 41.2731 159.487 43.8691 160.302C44.1115 160.38 44.3469 160.45 44.5787 160.52C46.6584 161.156 48.3024 161.659 49.8621 163.612C52.0472 166.352 53.7685 169.504 55.4301 172.553C56.2345 174.026 57.0636 175.55 57.9278 176.98C58.3563 177.69 58.8376 178.494 58.9711 179.415C59.0203 179.752 59.0168 180.079 59.0168 180.395C59.0168 180.701 59.0133 180.989 59.0589 181.256C59.4383 183.483 64.1315 184.161 66.3868 184.488L66.6995 184.534C69.429 184.934 70.936 184.158 72.7628 182.591C74.0309 181.505 75.4536 180.655 76.8307 179.833C77.5965 179.376 78.3904 178.902 79.1457 178.396C81.0497 177.114 82.9326 175.283 84.7453 172.954L84.8261 172.852C85.1773 172.399 85.5778 171.882 86.1434 171.521C86.9092 171.029 87.8436 170.958 88.5251 171.341C89.3015 171.777 89.5263 172.596 89.709 173.256V173.274C91.0053 177.946 94.8168 183.122 100.427 184.14C101.727 184.376 103.093 184.428 104.414 184.478C104.927 184.495 105.454 184.516 105.977 184.548C106.199 184.562 106.423 184.576 106.648 184.59C107.793 184.667 108.879 184.738 109.936 184.562C116.207 183.522 121.747 175.656 125.295 169.24C128.621 163.222 130.764 156.311 131.85 148.104C132.616 142.321 130.522 134.69 125.456 124.772C121.146 116.337 115.606 108.059 111.155 101.412C108.117 96.8693 105.714 93.2822 104.73 91.1461C104.168 89.9235 103.81 89.1119 103.603 87.9385C103.546 87.6258 103.754 87.3271 104.066 87.2709C104.379 87.2147 104.677 87.422 104.734 87.7347C104.92 88.7711 105.233 89.4878 105.773 90.6613C106.718 92.7166 109.097 96.2686 112.111 100.769C116.579 107.444 122.14 115.75 126.479 124.245C131.653 134.378 133.782 142.23 132.988 148.252C131.885 156.603 129.696 163.647 126.299 169.792C122.632 176.429 116.846 184.573 110.122 185.69C109.567 185.781 109.009 185.813 108.454 185.813L108.44 185.82Z" fill="#231F20"/>
<path d="M66.9313 157.095C64.1948 157.095 61.655 153.957 60.9243 152.967C55.0226 144.988 55.7708 134.634 57.436 127.354C57.5062 127.045 57.8154 126.852 58.1245 126.922C58.4336 126.993 58.6268 127.302 58.5566 127.611C56.9442 134.655 56.2064 144.654 61.8482 152.281C63.9419 155.11 65.9407 156.027 67.1105 155.935C68.0028 155.869 68.7686 155.243 69.3833 154.084C70.2264 152.485 71.0239 149.973 70.9115 148.262C70.9115 148.255 70.9115 148.248 70.9115 148.245C70.8904 147.928 71.1328 147.654 71.4489 147.637C71.7651 147.616 72.0391 147.855 72.0602 148.171C72.0602 148.171 72.0602 148.174 72.0602 148.178C72.1199 149.039 72.5309 151.438 73.6937 152.232C74.1187 152.524 74.6211 152.577 75.2218 152.387C77.3401 151.73 77.3717 149.422 77.196 146.477C77.1609 145.873 77.1258 145.301 77.1398 144.809C77.1469 144.573 77.2944 144.366 77.5122 144.285C77.73 144.204 77.9794 144.261 78.1375 144.436C79.216 145.61 80.7511 146.042 82.4619 145.648C83.2172 145.476 83.73 145.076 84.0286 144.429C84.9947 142.339 83.7406 137.554 80.6703 131.63C79.0227 128.451 77.9021 124.849 77.3436 120.925C76.7253 116.6 76.7675 112.472 77.4665 108.649C77.5227 108.337 77.8213 108.129 78.134 108.186C78.4466 108.242 78.6539 108.541 78.5977 108.853C77.9232 112.553 77.8846 116.558 78.4818 120.76C79.0227 124.554 80.1047 128.033 81.6926 131.096C83.6211 134.817 86.6247 141.555 85.0755 144.907C84.6223 145.887 83.8319 146.509 82.7218 146.766C81.1094 147.134 79.5672 146.889 78.3272 146.087C78.3342 146.193 78.3412 146.298 78.3448 146.407C78.4993 148.982 78.7101 152.506 75.5625 153.483C74.6141 153.778 73.7639 153.673 73.0368 153.174C72.415 152.745 71.9723 152.074 71.6597 151.365C71.3365 152.566 70.8693 153.736 70.4021 154.618C69.5906 156.153 68.5157 156.979 67.2018 157.081C67.114 157.088 67.0262 157.091 66.9384 157.091L66.9313 157.095Z" fill="#231F20"/>
<path d="M114.261 157.095C114.173 157.095 114.085 157.095 113.997 157.084C112.683 156.986 111.605 156.157 110.797 154.622C110.33 153.736 109.863 152.57 109.539 151.368C109.227 152.078 108.784 152.749 108.162 153.178C107.435 153.68 106.585 153.782 105.636 153.487C102.489 152.51 102.7 148.983 102.854 146.411C102.861 146.302 102.868 146.197 102.872 146.091C101.632 146.892 100.09 147.142 98.4772 146.769C97.3671 146.513 96.5767 145.891 96.1235 144.911C95.4596 143.474 95.0135 139.764 99.5065 131.1C101.094 128.036 102.176 124.558 102.717 120.764C103.318 116.562 103.279 112.556 102.601 108.857C102.545 108.544 102.752 108.246 103.065 108.189C103.378 108.133 103.676 108.34 103.732 108.653C104.432 112.476 104.47 116.604 103.855 120.929C103.297 124.85 102.176 128.454 100.529 131.634C97.4585 137.557 96.2008 142.342 97.1704 144.433C97.469 145.079 97.9819 145.48 98.7372 145.652C100.448 146.045 101.983 145.613 103.062 144.44C103.22 144.268 103.469 144.208 103.687 144.289C103.905 144.37 104.052 144.577 104.059 144.812C104.073 145.304 104.038 145.873 104.003 146.481C103.827 149.425 103.859 151.734 105.977 152.391C106.578 152.577 107.08 152.528 107.505 152.236C108.668 151.438 109.079 149.039 109.139 148.175C109.16 147.858 109.434 147.619 109.75 147.641C110.014 147.658 110.221 147.848 110.274 148.094C110.284 148.143 110.288 148.196 110.284 148.248C110.284 148.252 110.284 148.255 110.284 148.262C110.172 149.973 110.966 152.482 111.812 154.084C112.427 155.247 113.189 155.869 114.085 155.935C115.258 156.027 117.254 155.11 119.347 152.282C124.989 144.651 124.251 134.655 122.639 127.611C122.569 127.302 122.762 126.993 123.071 126.922C123.38 126.852 123.689 127.045 123.76 127.355C125.428 134.634 126.173 144.984 120.271 152.967C119.541 153.954 117.001 157.095 114.264 157.095H114.261Z" fill="#231F20"/>
<path d="M113.576 230.527C112.399 230.527 111.074 230.422 109.617 230.207C104.941 229.522 101.47 224.684 99.1728 221.484C95.7512 216.716 93.3168 212.18 91.9327 208.003C91.5427 206.823 91.1352 205.101 92.1329 203.791C93.1727 202.424 95.1329 202.139 96.7067 201.911C96.9632 201.872 97.2161 201.837 97.455 201.799C97.9538 201.714 98.3086 201.352 98.3227 200.92C98.4772 196.167 96.4292 183.775 96.4081 183.649C96.3554 183.336 96.5662 183.041 96.8824 182.988C97.195 182.939 97.4901 183.146 97.5428 183.462C97.6271 183.975 99.6294 196.093 99.4714 200.959C99.4398 201.946 98.688 202.758 97.6447 202.933C97.3988 202.975 97.1388 203.011 96.8718 203.049C95.4315 203.257 93.8015 203.495 93.0463 204.486C92.5334 205.161 92.5228 206.134 93.0217 207.641C94.3706 211.71 96.7489 216.14 100.1 220.809C102.289 223.859 105.591 228.461 109.782 229.072C113.86 229.67 116.938 229.371 118.227 228.254C118.634 227.903 118.838 227.481 118.838 227.003C118.838 226.525 118.993 226.153 119.298 225.896C119.916 225.373 120.897 225.545 122.028 225.742C123.053 225.921 124.22 226.121 124.845 225.707C125.463 225.299 125.628 224.474 125.351 223.184C125.26 222.759 125.13 222.341 124.996 221.902C124.866 221.48 124.733 221.048 124.631 220.602C124.585 220.405 124.483 219.941 124.778 219.544C125.017 219.221 125.421 219.197 126.668 219.165C127.09 219.154 127.729 219.137 127.887 219.091C128.846 218.771 129.788 218.16 130.543 217.373C131.165 216.723 131.397 216.087 131.253 215.423C130.726 213.01 125.635 210.67 122.646 209.493C121.827 209.169 120.83 208.853 119.776 208.523C116.238 207.406 111.837 206.018 110.354 203.032C109.754 201.823 109.652 200.516 109.627 199.392C109.564 196.272 110.084 193.082 110.59 189.997C110.881 188.205 111.183 186.35 111.363 184.559C111.394 184.242 111.675 184.011 111.991 184.042C112.308 184.074 112.539 184.355 112.508 184.671C112.325 186.498 112.023 188.371 111.724 190.183C111.229 193.219 110.716 196.356 110.779 199.371C110.8 200.365 110.888 201.517 111.387 202.522C112.652 205.069 116.793 206.376 120.124 207.427C121.199 207.768 122.214 208.087 123.071 208.425C128.758 210.67 131.888 212.943 132.377 215.181C132.605 216.235 132.268 217.24 131.376 218.174C130.494 219.091 129.387 219.804 128.256 220.184C127.968 220.279 127.48 220.296 126.703 220.317C126.415 220.324 126.022 220.335 125.758 220.356C125.85 220.756 125.969 221.153 126.099 221.568C126.236 222.014 126.38 222.474 126.482 222.949C126.865 224.73 126.528 225.981 125.488 226.673C124.48 227.34 123.078 227.098 121.838 226.884C121.206 226.775 120.254 226.61 120.043 226.785C120.011 226.81 119.994 226.898 119.994 227.014C119.994 227.829 119.646 228.563 118.986 229.132C117.907 230.063 116.07 230.538 113.583 230.538L113.576 230.527Z" fill="#231F20"/>
<path d="M105.31 191.234C103.771 191.234 101.821 190.995 99.4222 190.282C99.1166 190.19 98.9444 189.871 99.0358 189.568C99.1271 189.263 99.4468 189.091 99.7489 189.182C103.22 190.215 105.629 190.176 107.042 189.965C108.556 189.737 109.265 189.266 109.272 189.259C109.532 189.084 109.891 189.147 110.07 189.407C110.249 189.667 110.186 190.022 109.929 190.201C109.841 190.261 108.405 191.234 105.31 191.234Z" fill="#231F20"/>
<path d="M105.461 195.826C104.017 195.826 102.215 195.566 100.16 194.716C99.8683 194.593 99.7278 194.259 99.8472 193.964C99.9702 193.672 100.304 193.532 100.599 193.651C105.334 195.608 108.629 194.132 108.661 194.115C108.949 193.981 109.29 194.104 109.423 194.392C109.557 194.68 109.434 195.021 109.149 195.155C109.058 195.197 107.692 195.822 105.461 195.822V195.826Z" fill="#231F20"/>
<path d="M105.289 200.639C103.915 200.639 102.278 200.344 100.831 199.283C100.574 199.097 100.518 198.735 100.708 198.478C100.894 198.222 101.256 198.165 101.512 198.355C104.2 200.326 107.888 199.107 107.927 199.093C108.226 198.991 108.552 199.149 108.658 199.451C108.759 199.75 108.601 200.077 108.303 200.182C108.208 200.214 106.94 200.639 105.292 200.639H105.289Z" fill="#231F20"/>
<path d="M60.9489 225.225C59.8809 225.225 58.806 224.994 57.8083 224.519C56.1502 223.725 55.3598 222.127 54.6608 220.718C53.6596 218.698 52.9359 217.24 50.2486 217.928C49.5108 218.118 48.6537 218.522 47.7439 218.951C45.1303 220.184 41.8773 221.716 39.9031 218.483C37.1173 213.923 44.8352 207.887 49.4441 204.279C49.95 203.882 50.4277 203.51 50.8387 203.176C52.6163 201.742 53.8106 199.206 54.6783 197.351C55.6338 195.313 56.2521 193.152 56.8528 190.932L57.046 190.222C57.7381 187.685 58.4547 185.065 58.5495 182.521C58.5601 182.205 58.8306 181.955 59.1467 181.969C59.4629 181.98 59.7123 182.247 59.6983 182.567C59.5999 185.24 58.8657 187.928 58.1561 190.528L57.9629 191.234C57.3481 193.504 56.7158 195.717 55.7182 197.839C54.8013 199.796 53.5437 202.473 51.5589 204.072C51.1408 204.409 50.6596 204.785 50.1502 205.182C46.1244 208.333 38.6314 214.197 40.8832 217.883C42.2181 220.071 44.2731 219.312 47.2556 217.907C48.2146 217.454 49.1244 217.025 49.964 216.811C53.5542 215.89 54.6889 218.181 55.69 220.205C56.3364 221.508 57.0039 222.857 58.3036 223.479C60.6151 224.59 63.45 224.122 65.1924 222.344C65.3119 222.225 65.4243 222.099 65.5367 221.972C65.9442 221.522 66.4044 221.013 67.0718 220.732C68.0379 220.328 69.1164 220.542 69.9068 220.7C70.244 220.767 70.7007 220.886 71.2276 221.023C73.0087 221.487 76.7183 222.45 77.6632 221.491C77.9127 221.238 77.9513 220.785 77.7757 220.145C76.5637 215.739 73.0859 212.036 69.7206 208.46C68.347 207.002 66.9313 205.491 65.7194 203.98C65.0449 203.141 64.7182 201.869 64.7463 200.196C64.7744 198.542 65.1398 197.034 65.2978 196.462C65.7791 194.709 66.4255 193.015 66.9981 191.589C67.5988 190.089 68.5297 188.156 69.3517 186.449C69.7206 185.683 70.0684 184.959 70.367 184.32C70.5004 184.032 70.8412 183.905 71.1293 184.042C71.4173 184.176 71.5403 184.516 71.4068 184.805C71.1047 185.451 70.7569 186.178 70.3845 186.948C69.5695 188.638 68.6491 190.556 68.0625 192.017C67.5039 193.416 66.8681 195.071 66.4044 196.767C65.3997 200.435 66.0636 202.575 66.6117 203.264C67.7955 204.739 69.1339 206.166 70.5531 207.673C74.0133 211.355 77.593 215.16 78.8787 219.843C79.1703 220.908 79.0368 221.733 78.4747 222.302C77.175 223.623 74.0379 222.945 70.9325 222.141C70.4232 222.007 69.9805 221.895 69.6749 221.832C68.8424 221.666 68.1011 221.547 67.5075 221.796C67.0789 221.976 66.7381 222.352 66.3798 222.745C66.2604 222.879 66.1339 223.016 66.0004 223.153C64.6725 224.505 62.8142 225.225 60.9313 225.225H60.9489Z" fill="#231F20"/>
<path d="M67.1667 189.621C66.9946 189.621 62.9337 189.6 59.7439 187.626C59.4734 187.461 59.3891 187.106 59.5578 186.835C59.7264 186.565 60.0777 186.48 60.3482 186.649C63.2568 188.448 67.1281 188.472 67.1667 188.472C67.4829 188.472 67.7393 188.729 67.7393 189.049C67.7393 189.365 67.4829 189.621 67.1632 189.621H67.1667Z" fill="#231F20"/>
<path d="M65.5051 193.63C65.333 193.63 61.272 193.609 58.0823 191.634C57.8118 191.469 57.7275 191.114 57.8961 190.844C58.0613 190.573 58.4161 190.489 58.6866 190.658C61.5952 192.456 65.4665 192.481 65.5051 192.481C65.8213 192.481 66.0777 192.737 66.0777 193.057C66.0777 193.373 65.8213 193.633 65.5016 193.633L65.5051 193.63Z" fill="#231F20"/>
<path d="M64.2194 197.73C64.0472 197.73 59.9863 197.709 56.7966 195.734C56.5261 195.569 56.4418 195.214 56.6104 194.944C56.7755 194.673 57.1303 194.589 57.4008 194.758C60.3095 196.556 64.1807 196.581 64.2194 196.581C64.5355 196.581 64.792 196.838 64.792 197.157C64.792 197.473 64.5355 197.73 64.2159 197.73H64.2194Z" fill="#231F20"/>
<path d="M90.8121 78.7161C83.3085 78.7161 68.5157 75.2589 68.1679 68.9209C68.0203 66.2156 71.593 65.9486 73.7253 65.787C74.1012 65.7589 74.4279 65.7343 74.6913 65.7027C77.0415 65.4111 79.4584 64.3571 81.6715 62.6637C83.1153 61.557 83.7195 60.4151 84.4888 58.9676C84.7242 58.5215 84.9701 58.0612 85.2546 57.5729C86.2488 55.8724 88.2968 55.0222 90.8647 55.2435C92.7863 55.4086 94.6833 56.1886 95.8144 57.2777C96.7664 58.1982 97.5076 59.2311 98.2243 60.2289C99.5451 62.0734 100.792 63.8125 103.227 64.6241C104.516 65.0527 105.882 65.3689 107.207 65.6746C108.594 65.9943 110.028 66.3246 111.405 66.7918C112.22 67.0694 113.337 67.5542 113.653 68.5836C113.969 69.613 113.397 70.6635 111.953 71.7035C105.658 76.2286 98.1505 78.7196 90.8121 78.7196V78.7161ZM90.0638 56.3572C87.5837 56.3572 86.579 57.5869 86.2488 58.1526C85.9748 58.6198 85.7359 59.073 85.5041 59.5087C84.7382 60.9527 84.0146 62.3194 82.3705 63.5771C79.9923 65.397 77.3893 66.5283 74.8319 66.8445C74.5403 66.8797 74.1855 66.9078 73.8096 66.9359C71.4911 67.1115 69.2358 67.4031 69.3131 68.8612C69.6047 74.1768 83.5895 77.5707 90.8085 77.5707C97.9116 77.5707 105.18 75.1571 111.282 70.7724C111.97 70.2771 112.75 69.5568 112.557 68.9244C112.434 68.5274 111.939 68.1866 111.036 67.881C109.715 67.4313 108.31 67.108 106.95 66.7953C105.601 66.4827 104.207 66.1629 102.865 65.7168C100.076 64.7892 98.6599 62.8112 97.2898 60.9C96.6048 59.9444 95.8952 58.9536 95.017 58.1069C94.0685 57.1934 92.4385 56.5364 90.7664 56.3924C90.5205 56.3713 90.2851 56.3608 90.0603 56.3608L90.0638 56.3572Z" fill="#231F20"/>
<path d="M89.2593 62.7795C89.2593 63.6825 88.9256 64.4168 88.5146 64.4168C88.1036 64.4168 87.7699 63.6825 87.7699 62.7795C87.7699 61.8766 88.1036 61.1423 88.5146 61.1423C88.9256 61.1423 89.2593 61.8766 89.2593 62.7795Z" fill="#231F20"/>
<path d="M93.9983 62.7795C93.9983 63.6825 93.6645 64.4168 93.2535 64.4168C92.8425 64.4168 92.5088 63.6825 92.5088 62.7795C92.5088 61.8766 92.8425 61.1423 93.2535 61.1423C93.6645 61.1423 93.9983 61.8766 93.9983 62.7795Z" fill="#231F20"/>
<path d="M73.648 27.0175C68.3295 30.8049 65.0133 36.9707 64.8271 43.5055C64.799 44.4612 66.285 44.4612 66.3096 43.5055C66.4782 37.5258 69.5204 31.7745 74.3963 28.2999C75.1691 27.7518 74.4279 26.4624 73.648 27.0175Z" fill="white"/>
<path d="M64.0402 49.9525C63.8048 51.4527 63.3552 52.865 62.6491 54.2107C62.2065 55.0574 63.4887 55.8092 63.9313 54.959C64.6901 53.5045 65.217 51.9656 65.47 50.346C65.6175 49.4114 64.1878 49.0074 64.0402 49.9525Z" fill="white"/>
<path d="M120.261 135.836C120.591 139.827 119.614 143.769 117.443 147.138C116.923 147.943 118.209 148.687 118.726 147.886C121.023 144.32 122.098 140.062 121.747 135.836C121.669 134.891 120.183 134.884 120.264 135.836H120.261Z" fill="white"/>
<path d="M30.889 148.775C32.4522 151.621 34.8656 153.926 37.7883 155.342C38.6454 155.756 39.3972 154.478 38.5365 154.059C35.8211 152.745 33.622 150.669 32.1677 148.027C31.7075 147.191 30.4253 147.939 30.8854 148.775H30.889Z" fill="white"/>
<path d="M41.8387 157.58C42.7064 158.061 43.574 158.546 44.4417 159.027C45.2778 159.491 46.0261 158.208 45.19 157.745C44.3223 157.263 43.4546 156.779 42.5869 156.297C41.7508 155.833 41.0026 157.116 41.8387 157.58Z" fill="white"/>
<path d="M126.233 214.116C126.714 215.001 126.057 216.08 125.119 216.238C124.181 216.396 124.578 217.826 125.513 217.668C127.431 217.345 128.421 215.023 127.515 213.364C127.058 212.525 125.776 213.273 126.233 214.113V214.116Z" fill="white"/>
</svg>
