<svg width="134" height="151" viewBox="0 0 134 151" fill="none" xmlns="http://www.w3.org/2000/svg">
<path d="M93.1096 28.5198C93.1096 28.4698 93.1096 28.4198 93.1096 28.3698C93.0896 28.3598 93.0696 28.3498 93.0596 28.3398C93.0796 28.3998 93.0996 28.4598 93.1196 28.5298L93.1096 28.5198Z" fill="white"/>
<path d="M97.9799 32.56C97.3099 33.9 96.1799 34.73 94.8799 34.73H94.7799C94.6799 34.73 94.5699 34.76 94.4999 34.84C94.4199 34.91 94.3799 35.01 94.3799 35.11C94.3799 35.89 94.4799 36.78 94.5899 37.81C94.6399 38.26 94.6899 38.73 94.7399 39.22C94.8899 38.9 95.0399 38.59 95.1999 38.28C95.2399 38.19 95.3199 38.13 95.4099 38.1C95.3999 37.97 95.3799 37.85 95.3699 37.72C95.2799 36.88 95.1899 36.13 95.1699 35.47C96.7399 35.35 98.0699 34.27 98.8099 32.62C98.7299 32.62 98.6499 32.63 98.5699 32.63C98.3699 32.63 98.1799 32.6 97.9899 32.54L97.9799 32.56Z" fill="#231F20"/>
<path d="M87.3502 34.64C87.2702 34.45 87.2002 34.26 87.1102 34.07C86.7502 33.24 86.4602 32.47 86.2502 31.75H86.2202C86.2202 31.9 86.1202 32.03 85.9702 32.09C85.7902 32.16 85.5802 32.08 85.4902 31.91C85.6902 32.6 85.9502 33.33 86.2802 34.11C86.6502 34.27 87.0102 34.44 87.3502 34.65V34.64Z" fill="#231F20"/>
<path d="M73.8397 28.6404C77.7297 27.1304 81.0997 25.8304 79.3397 17.9304C79.0397 17.9104 78.7497 17.9004 78.4697 17.9004C74.9697 17.9004 73.4197 19.6704 72.7297 21.1504C71.5097 23.7704 72.1797 27.0604 73.4997 28.7704L73.8297 28.6404H73.8397Z" fill="#20A500"/>
<path d="M73.5301 29.5802L74.1202 29.3502C78.0302 27.8402 82.0801 26.2702 80.0301 17.4902C79.9901 17.3302 79.8602 17.2102 79.6902 17.2002C76.0202 16.8302 73.2701 18.1402 72.0201 20.8302C70.7701 23.5202 71.2501 27.3902 73.0901 29.4702C73.1701 29.5502 73.2701 29.6002 73.3801 29.6002C73.4301 29.6002 73.4801 29.6002 73.5201 29.5702L73.5301 29.5802ZM72.7302 21.1502C73.4202 19.6702 74.9702 17.9002 78.4702 17.9002C78.7502 17.9002 79.0401 17.9102 79.3401 17.9302C81.1101 25.8202 77.7401 27.1302 73.8401 28.6402L73.5102 28.7702C72.1802 27.0602 71.5201 23.7702 72.7401 21.1502H72.7302Z" fill="#231F20"/>
<path d="M85.8899 13.8501C88.2899 13.8501 89.7199 12.4901 90.4899 11.3401C91.7899 9.43008 92.2099 6.74008 91.5299 4.83008L91.1699 4.85008C87.0699 5.06008 83.5199 5.25008 82.6699 13.1401C83.8099 13.6101 84.8899 13.8601 85.8899 13.8601V13.8501Z" fill="#20A500"/>
<path d="M82.0903 13.7204C83.4203 14.3104 84.7003 14.6104 85.8803 14.6104C88.0203 14.6104 89.8803 13.6004 91.1303 11.7604C92.6203 9.57039 93.0403 6.42039 92.1404 4.28039C92.0803 4.13039 91.9204 4.03039 91.7604 4.05039L91.1204 4.08039C86.9904 4.29039 82.7204 4.52039 81.8604 13.3304C81.8604 13.4004 81.8604 13.4704 81.9004 13.5304C81.9404 13.5704 81.9704 13.6204 82.0104 13.6604C82.0304 13.6804 82.0603 13.7004 82.0903 13.7104V13.7204ZM91.1703 4.84039L91.5303 4.82039C92.2104 6.73039 91.7903 9.42039 90.4903 11.3304C89.7103 12.4704 88.2904 13.8404 85.8904 13.8404C84.8904 13.8404 83.8103 13.6004 82.6703 13.1204C83.5303 5.23039 87.0703 5.05039 91.1703 4.83039V4.84039Z" fill="#231F20"/>
<path d="M111.13 31.6795C114.56 31.8395 116.02 30.1895 116.63 28.8195C117.61 26.6095 117 23.7395 115.8 22.2695L115.55 22.3795C112.26 23.7795 109.42 24.9795 111.13 31.6795Z" fill="#20A500"/>
<path d="M110.79 32.4304C111.05 32.4504 111.3 32.4604 111.55 32.4604C114.33 32.4604 116.38 31.2804 117.33 29.1304C118.39 26.7404 117.87 23.3404 116.18 21.5604C116.07 21.4404 115.89 21.4104 115.74 21.4704L115.23 21.6904C111.88 23.1104 108.41 24.5904 110.44 32.1504C110.48 32.3104 110.62 32.4204 110.79 32.4304ZM115.54 22.3804L115.79 22.2704C116.99 23.7304 117.59 26.6004 116.62 28.8204C116.02 30.1904 114.55 31.8404 111.12 31.6804C109.4 24.9904 112.25 23.7804 115.54 22.3804Z" fill="#231F20"/>
<path d="M100.66 31.7003C102.03 32.3603 103.43 32.9703 104.86 33.5403C106.85 34.3403 108.97 35.0803 111.16 35.7303C117.69 37.6703 124.38 38.8303 131.04 39.1903L131.1 39.5703V39.1903C132.08 39.1903 133.21 38.4103 133.24 37.8903C133.26 37.5703 132.72 37.1603 131.15 36.9803C124.66 36.6303 118.15 35.5003 111.81 33.6103C109.78 33.0103 107.73 32.3003 105.71 31.4903C104.41 30.9703 103.13 30.4103 101.88 29.8203C101.58 30.5803 101.16 31.2203 100.66 31.7003Z" fill="#915600"/>
<path d="M73.5898 2.63977C72.6598 0.889766 71.9898 0.759766 71.8098 0.759766C71.5498 0.759766 71.3899 0.979766 71.2899 1.16977C70.9799 1.77977 70.9999 2.85977 71.5799 3.63977C75.7499 11.3398 80.9898 17.8298 87.2398 23.0798C87.8998 22.5298 88.5998 22.1198 89.2199 21.8298C82.9499 16.6898 77.7198 10.2798 73.5898 2.63977Z" fill="#915600"/>
<path d="M131.21 36.2201C124.76 35.8701 118.31 34.7501 112.03 32.8801C110.02 32.2901 107.99 31.5801 106 30.7801C104.68 30.2501 103.38 29.6801 102.12 29.0801C102.06 29.3001 102 29.5301 101.91 29.7501C101.91 29.7701 101.89 29.7901 101.88 29.8101C103.13 30.4001 104.4 30.9601 105.71 31.4801C107.73 32.2801 109.78 33.0001 111.81 33.6001C118.15 35.4901 124.66 36.6201 131.15 36.9701C132.72 37.1501 133.26 37.5601 133.24 37.8801C133.21 38.4101 132.08 39.1801 131.1 39.1801V39.5601L131.04 39.1801C124.37 38.8201 117.68 37.6601 111.16 35.7201C108.98 35.0701 106.86 34.3301 104.86 33.5301C103.43 32.9601 102.03 32.3401 100.66 31.6901C100.45 31.9001 100.22 32.0701 99.9805 32.2101C101.47 32.9301 103 33.6101 104.57 34.2401C106.59 35.0501 108.73 35.8001 110.93 36.4501C117.52 38.4101 124.27 39.5801 131 39.9401H131.09C132.32 39.9401 133.94 38.9901 134.01 37.9201C134.05 37.2901 133.59 36.4801 131.21 36.2101V36.2201Z" fill="#231F20"/>
<path d="M93.1 28.3696C93.1 28.3696 93.1 28.3296 93.1 28.3096C93.08 28.3096 93.06 28.3096 93.04 28.3196C93.04 28.3196 93.04 28.3196 93.04 28.3296C93.06 28.3396 93.08 28.3496 93.09 28.3596L93.1 28.3696Z" fill="#231F20"/>
<path d="M87.2404 23.08C80.9904 17.83 75.7504 11.34 71.5804 3.64C71.0004 2.87 70.9804 1.78 71.2904 1.17C71.3904 0.98 71.5504 0.76 71.8104 0.76C71.9904 0.76 72.6604 0.9 73.5904 2.64C77.7304 10.28 82.9604 16.69 89.2204 21.83C89.5204 21.7 89.7904 21.59 90.0504 21.51C87.1504 19.17 84.4704 16.55 82.0204 13.67C81.9804 13.63 81.9504 13.58 81.9104 13.54C79.0504 10.15 76.5004 6.4 74.2704 2.29C73.4604 0.77 72.6304 0 71.8004 0C71.3004 0 70.8604 0.3 70.5904 0.83C70.1704 1.65 70.1604 3.04 70.9204 4.05C75.1104 11.79 80.3804 18.32 86.6704 23.61C86.8504 23.42 87.0504 23.25 87.2404 23.08Z" fill="#231F20"/>
<path d="M87.71 113.92C89.39 113.92 91.16 113.65 92.99 113.13C105.76 109.47 103.76 95.25 100.36 79.75C97.64 67.36 99.98 59.92 103.67 56.33C103.1 55.33 101.86 53.51 100.03 52.79C95.19 59.36 93.87 70.22 96.18 79.36C99.35 91.96 99.46 100.65 96.53 105.21C95.28 107.15 93.47 108.36 91.15 108.82C89.61 109.12 88.2 109.28 86.95 109.28C84.41 109.28 82.56 108.65 81.14 107.54C81.04 107.89 80.92 108.23 80.79 108.57C81.84 109.85 83.24 111.64 84.54 113.59C85.53 113.8 86.58 113.92 87.7 113.92H87.71Z" fill="#915600"/>
<path d="M120.64 54.6497C120.64 54.6497 120.64 54.6496 120.64 54.6396C120.64 54.6396 120.64 54.6496 120.63 54.6596L120.64 54.6497Z" fill="#231F20"/>
<path d="M120.63 54.6602C120.43 54.9402 120.21 55.1802 119.98 55.3902C120.22 55.1902 120.44 54.9402 120.63 54.6602Z" fill="#231F20"/>
<path d="M104.11 56.7903C103.99 56.7703 103.89 56.7003 103.83 56.5903C103.79 56.5103 103.74 56.4203 103.68 56.3203C99.9896 59.9103 97.6496 67.3503 100.37 79.7403C103.77 95.2403 105.76 109.46 92.9996 113.12C91.1696 113.65 89.3896 113.91 87.7196 113.91C86.5996 113.91 85.5496 113.79 84.5596 113.58C84.7596 113.87 84.9496 114.17 85.1396 114.47C85.9596 114.6 86.8196 114.68 87.7196 114.68C89.4696 114.68 91.3196 114.4 93.2196 113.86C107.74 109.7 103.76 91.5803 101.13 79.5903C98.4396 67.3703 100.74 60.1403 104.32 56.7703C104.27 56.7903 104.23 56.8003 104.18 56.8003C104.16 56.8003 104.14 56.8003 104.12 56.8003L104.11 56.7903Z" fill="#231F20"/>
<path d="M117.8 46.9301C116.34 46.2501 114.53 45.8701 112.56 45.8701C111 45.8701 109.34 46.1001 107.62 46.5401C109.32 46.1001 110.97 45.8801 112.52 45.8801C114.51 45.8801 116.33 46.2601 117.8 46.9401V46.9301Z" fill="#231F20"/>
<path d="M106.49 46.8802C106.63 46.8302 106.78 46.7802 106.93 46.7402C106.78 46.7902 106.64 46.8302 106.49 46.8802Z" fill="#231F20"/>
<path d="M105.92 47.0999C106.07 47.0399 106.23 46.9799 106.38 46.9199C106.22 46.9799 106.07 47.0299 105.92 47.0999Z" fill="#231F20"/>
<path d="M81.1497 107.53C82.5697 108.63 84.4196 109.27 86.9596 109.27C88.1996 109.27 89.6097 109.12 91.1597 108.81C93.4797 108.35 95.2896 107.14 96.5396 105.2C99.4797 100.64 99.3597 91.9496 96.1897 79.3496C93.8797 70.2096 95.1996 59.3496 100.04 52.7796C99.9496 52.7396 99.8496 52.7096 99.7496 52.6696C99.6296 52.6296 99.5396 52.5396 99.4996 52.4196C99.4596 52.2996 99.4796 52.1696 99.5596 52.0696C101.34 49.7496 103.45 48.0896 105.86 47.0996C95.6896 51.2296 92.1896 66.6996 95.4296 79.5196C98.5496 91.9096 98.6997 100.4 95.8697 104.78C94.7397 106.54 93.0996 107.63 90.9896 108.05C89.4996 108.34 88.1396 108.49 86.9496 108.49C84.4396 108.49 82.6796 107.86 81.3496 106.73C81.2896 106.99 81.2196 107.25 81.1396 107.51L81.1497 107.53Z" fill="#231F20"/>
<path d="M100.5 52.1497C102.34 52.9397 103.59 54.6196 104.28 55.8196C105.21 55.0796 106.13 54.7996 107.09 54.4996L107.28 54.4396C107.94 54.2296 108.61 54.1297 109.35 54.1297C110.88 54.1297 112.34 54.5697 113.76 54.9897C114.98 55.3597 116.13 55.6996 117.16 55.6996C118.35 55.6996 119.25 55.2197 120.01 54.1996C120.94 52.9396 121.08 51.5096 120.39 50.1896C119.5 48.4696 116.97 46.6396 112.52 46.6396C111.03 46.6396 109.45 46.8496 107.81 47.2796C104.98 48.0096 102.52 49.6497 100.49 52.1497H100.5Z" fill="#E08A22"/>
<path d="M99.5605 52.0896C99.4805 52.1896 99.4605 52.3196 99.5005 52.4396C99.5405 52.5596 99.6305 52.6496 99.7505 52.6896C99.8505 52.7196 99.9405 52.7596 100.04 52.7996C101.87 53.5196 103.12 55.3396 103.68 56.3396C103.73 56.4396 103.79 56.5296 103.83 56.6096C103.89 56.7196 103.99 56.7896 104.11 56.8097C104.13 56.8097 104.15 56.8097 104.17 56.8097C104.22 56.8097 104.27 56.8096 104.31 56.7796C104.36 56.7596 104.4 56.7396 104.43 56.6996C105.36 55.8296 106.27 55.5596 107.31 55.2296L107.51 55.1696C108.09 54.9896 108.69 54.8997 109.34 54.8997C110.76 54.8997 112.16 55.3196 113.52 55.7296C114.8 56.1096 116 56.4796 117.15 56.4796C118.26 56.4796 119.19 56.1197 119.97 55.3997C120.2 55.1897 120.42 54.9496 120.62 54.6696C120.62 54.6696 120.62 54.6597 120.63 54.6497C121.71 53.1697 121.87 51.4296 121.06 49.8596C120.49 48.7696 119.52 47.8596 118.27 47.1896C118.21 47.1596 118.15 47.1296 118.09 47.0996C117.99 47.0496 117.89 46.9996 117.78 46.9496C116.3 46.2696 114.49 45.8896 112.5 45.8896C110.95 45.8896 109.3 46.1096 107.6 46.5496C107.41 46.5996 107.22 46.6496 107.03 46.7096C106.99 46.7196 106.94 46.7396 106.9 46.7496C106.75 46.7996 106.61 46.8396 106.46 46.8896C106.42 46.8996 106.39 46.9196 106.35 46.9296C106.19 46.9896 106.04 47.0396 105.89 47.1096C105.87 47.1096 105.85 47.1297 105.83 47.1297C103.42 48.1097 101.31 49.7796 99.5305 52.0996L99.5605 52.0896ZM107.82 47.2796C109.45 46.8596 111.04 46.6396 112.53 46.6396C116.97 46.6396 119.51 48.4796 120.4 50.1896C121.09 51.5096 120.95 52.9396 120.02 54.1996C119.26 55.2296 118.36 55.6996 117.17 55.6996C116.14 55.6996 114.99 55.3497 113.77 54.9897C112.36 54.5597 110.9 54.1297 109.36 54.1297C108.63 54.1297 107.95 54.2296 107.29 54.4396L107.1 54.4996C106.14 54.7996 105.23 55.0796 104.29 55.8196C103.59 54.6196 102.34 52.9397 100.51 52.1497C102.54 49.6497 105 48.0096 107.83 47.2796H107.82Z" fill="#231F20"/>
<path d="M63.0803 136.63C61.9603 138.62 61.6803 140.73 62.3703 141.89C62.7303 142.5 63.3303 142.79 64.1403 142.73C64.8503 142.68 65.1803 141.99 65.5903 140.92C65.9503 140.01 66.3103 139.07 67.2503 139.07C67.3803 139.07 67.5203 139.09 67.6603 139.13C68.0203 139.24 68.2803 139.47 68.4303 139.81C69.0203 141.19 67.5303 144.25 66.3603 146.43C66.1103 146.89 66.1303 147.45 66.4103 147.91C66.8603 148.64 67.8003 148.89 68.7803 148.49C68.8003 148.49 68.8203 148.49 68.8303 148.48C71.8003 146.32 70.8703 141.49 70.8603 141.45C70.8303 141.25 70.9403 141.08 71.1203 141.04C71.1403 141.04 71.1803 141.04 71.1903 141.04C71.3603 141.04 71.5103 141.15 71.5403 141.31C71.5503 141.36 72.5403 146.4 69.4303 148.9C69.8203 149.38 70.4303 149.82 71.1803 149.82C72.0803 149.82 72.9003 149.15 73.5703 147.89C73.6003 147.82 73.6603 147.77 73.7203 147.74C75.0003 145.73 73.7203 142.03 73.7203 141.99C73.6703 141.79 73.7703 141.6 73.9403 141.54C73.9603 141.54 74.0203 141.52 74.0403 141.52C74.1903 141.52 74.3303 141.61 74.3803 141.75C74.6003 142.41 75.4903 145.4 74.6003 147.53C74.7603 147.44 74.9103 147.31 75.0603 147.15C76.1303 145.9 76.5403 142.74 76.0203 139.79C75.6203 137.51 75.9903 135.61 76.4203 134.35C76.2303 133.24 76.2803 132.13 76.3403 131.45C75.6503 131.78 74.4703 132.53 73.5903 133.99C73.5103 134.13 73.3403 134.2 73.1803 134.17C73.0203 134.14 72.9003 134 72.8803 133.84C72.7603 132.86 73.1003 130.8 73.2803 129.78C72.7003 129.91 71.7703 130.08 70.7903 130.11C67.8003 131.78 64.3703 134.36 63.1003 136.63H63.0803Z" fill="#FFE1AB"/>
<path d="M76.6602 135.38C76.5502 135.05 76.4702 134.7 76.4102 134.36C75.9802 135.62 75.6102 137.51 76.0102 139.8C76.5302 142.74 76.1202 145.9 75.0502 147.16C74.9102 147.33 74.7502 147.45 74.5902 147.54C74.4802 147.8 74.3602 148.05 74.1902 148.28C74.1402 148.36 74.0302 148.42 73.9102 148.42C73.8402 148.42 73.7702 148.4 73.7102 148.36C73.6402 148.31 73.5802 148.23 73.5702 148.13C73.5502 148.04 73.5702 147.94 73.6402 147.87C73.6702 147.83 73.6902 147.79 73.7202 147.75C73.6602 147.79 73.6102 147.84 73.5702 147.9C72.9002 149.16 72.0802 149.83 71.1802 149.83C70.4402 149.83 69.8202 149.39 69.4302 148.91C69.3302 148.99 69.2302 149.07 69.1202 149.14C69.0602 149.17 69.0002 149.21 68.9202 149.21C68.8202 149.21 68.7202 149.16 68.6402 149.07C68.5802 148.99 68.5502 148.9 68.5702 148.81C68.5802 148.72 68.6402 148.63 68.7202 148.58C68.7502 148.56 68.7902 148.53 68.8202 148.51C68.8002 148.51 68.7802 148.51 68.7702 148.52C67.7902 148.92 66.8502 148.67 66.4002 147.94C66.1202 147.48 66.1002 146.93 66.3502 146.46C67.5202 144.28 69.0002 141.22 68.4202 139.84C68.2702 139.5 68.0102 139.26 67.6502 139.16C67.5102 139.12 67.3702 139.1 67.2402 139.1C66.3002 139.1 65.9402 140.04 65.5802 140.95C65.1702 142.01 64.8402 142.71 64.1302 142.76C63.3202 142.81 62.7302 142.52 62.3602 141.92C61.6702 140.76 61.9502 138.65 63.0702 136.66C64.3402 134.39 67.7702 131.82 70.7602 130.14C70.6402 130.14 70.5102 130.14 70.3802 130.14C70.0102 130.14 69.6602 130.12 69.3402 130.07C66.6002 131.73 63.6402 134.03 62.3802 136.28C61.1102 138.53 60.8402 140.89 61.6802 142.3C62.1502 143.09 62.9602 143.53 63.9402 143.53C64.0102 143.53 64.0802 143.53 64.1602 143.53C65.4202 143.45 65.9002 142.22 66.2802 141.24C66.6502 140.29 66.8802 139.75 67.4102 139.91C67.5402 139.95 67.6302 140.03 67.6802 140.16C67.9102 140.71 67.7502 142.19 65.6402 146.13C65.2602 146.83 65.2802 147.66 65.7102 148.36C66.3002 149.33 67.5202 149.75 68.7402 149.36C69.3502 150.15 70.2502 150.63 71.1502 150.63C71.9602 150.63 73.1202 150.25 74.1202 148.5C74.6802 148.46 75.1902 148.19 75.6202 147.69C76.8602 146.24 77.3302 142.96 76.7502 139.71C76.4702 138.13 76.6002 136.75 76.8502 135.65C76.7502 135.61 76.6702 135.53 76.6402 135.42L76.6602 135.38Z" fill="#231F20"/>
<path d="M74.3701 141.75C74.3201 141.61 74.1901 141.52 74.0301 141.52C74.0101 141.52 73.9501 141.52 73.9301 141.54C73.7601 141.6 73.6601 141.79 73.7101 141.99C73.7201 142.03 74.9901 145.73 73.7101 147.74C73.6801 147.78 73.6601 147.82 73.6301 147.86C73.5701 147.93 73.5501 148.03 73.5601 148.12C73.5801 148.21 73.6301 148.3 73.7001 148.35C73.7601 148.39 73.8301 148.41 73.9001 148.41C74.0201 148.41 74.1301 148.35 74.1801 148.27C74.3401 148.04 74.4701 147.79 74.5801 147.53C75.4601 145.39 74.5801 142.41 74.3601 141.75H74.3701Z" fill="#231F20"/>
<path d="M71.5396 141.3C71.5096 141.14 71.3696 141.03 71.1896 141.03C71.1696 141.03 71.1296 141.03 71.1196 141.03C70.9396 141.08 70.8196 141.25 70.8596 141.44C70.8696 141.49 71.7996 146.31 68.8296 148.47C68.7996 148.49 68.7596 148.52 68.7296 148.54C68.6496 148.6 68.5896 148.68 68.5796 148.77C68.5696 148.86 68.5896 148.95 68.6496 149.03C68.7196 149.12 68.8196 149.17 68.9296 149.17C69.0096 149.17 69.0696 149.14 69.1296 149.1C69.2396 149.03 69.3396 148.95 69.4396 148.87C72.5496 146.37 71.5596 141.33 71.5496 141.28L71.5396 141.3Z" fill="#231F20"/>
<path d="M78.3998 122.62C78.4298 122.73 78.3998 122.85 78.3298 122.95C75.9798 126 73.5498 128.06 70.7598 129.34C72.2398 129.28 73.6198 128.9 73.6398 128.89C73.7698 128.85 73.9098 128.89 74.0098 128.98C74.1098 129.07 74.1498 129.2 74.1298 129.33C74.1298 129.35 73.7698 131.17 73.6498 132.57C75.0298 130.95 76.6098 130.5 76.6898 130.48C76.7198 130.48 76.7598 130.47 76.7998 130.47C76.8898 130.47 76.9898 130.5 77.0598 130.57C77.1598 130.66 77.2098 130.79 77.1898 130.92C77.1898 130.94 76.9298 132.59 77.1898 134.18C78.6798 131.64 80.7498 130.19 82.6098 128.89C84.6398 127.47 86.5598 126.12 87.4298 123.58C88.6098 120.11 83.4398 113.04 80.4898 109.39C78.9298 112.89 75.9098 115.91 70.8198 117.54C72.5298 119.09 75.1098 121.09 78.1998 122.37C78.3098 122.42 78.3898 122.51 78.4198 122.62H78.3998Z" fill="#915600"/>
<path d="M84.5504 113.59C83.2404 111.64 81.8504 109.85 80.8004 108.57C80.7004 108.85 80.5804 109.12 80.4604 109.39C83.4104 113.04 88.5804 120.11 87.4004 123.58C86.5404 126.12 84.6204 127.46 82.5804 128.89C80.7304 130.19 78.6504 131.64 77.1604 134.18C76.9004 132.59 77.1604 130.94 77.1604 130.92C77.1804 130.79 77.1304 130.66 77.0304 130.57C76.9604 130.51 76.8704 130.47 76.7704 130.47C76.7404 130.47 76.7004 130.47 76.6604 130.48C76.5804 130.5 75.0104 130.95 73.6204 132.57C73.7404 131.17 74.1004 129.36 74.1004 129.33C74.1304 129.2 74.0804 129.07 73.9804 128.98C73.8804 128.89 73.7404 128.86 73.6104 128.89C73.6004 128.89 72.2104 129.28 70.7304 129.34C73.5104 128.06 75.9504 125.99 78.3004 122.95C78.3704 122.86 78.4004 122.73 78.3704 122.62C78.3404 122.51 78.2604 122.41 78.1504 122.37C75.0604 121.09 72.4804 119.09 70.7704 117.54C70.5304 117.62 70.3004 117.69 70.0604 117.76C70.0204 117.77 69.9704 117.79 69.9304 117.8C71.5904 119.35 74.2004 121.45 77.4104 122.87C74.8204 126.13 72.1204 128.16 68.9404 129.25C68.7704 129.31 68.6704 129.46 68.6804 129.64C68.6904 129.82 68.8204 129.95 68.9904 129.99C69.1104 130.01 69.2304 130.03 69.3604 130.05C69.6804 130.09 70.0304 130.12 70.4004 130.12C70.5304 130.12 70.6504 130.12 70.7804 130.12C71.7604 130.08 72.6904 129.91 73.2704 129.79C73.0904 130.81 72.7604 132.87 72.8704 133.85C72.8904 134.01 73.0104 134.15 73.1704 134.18C73.3404 134.21 73.5004 134.14 73.5804 134C74.4604 132.54 75.6404 131.8 76.3304 131.46C76.2704 132.14 76.2204 133.25 76.4104 134.36C76.4704 134.71 76.5504 135.05 76.6604 135.38C76.7004 135.49 76.7804 135.57 76.8704 135.61C76.9104 135.63 76.9504 135.64 77.0004 135.64H77.0204C77.1704 135.64 77.3104 135.56 77.3704 135.42C78.7804 132.48 80.9404 130.97 83.0204 129.5C85.1604 128 87.1804 126.59 88.1204 123.81C88.9204 121.46 87.2304 117.81 85.1104 114.47C84.9204 114.17 84.7304 113.87 84.5304 113.58L84.5504 113.59Z" fill="#231F20"/>
<path d="M32.8204 134.78C32.8504 134.92 32.9004 135.03 32.9504 135.14C33.3104 132.62 36.0304 130.29 36.0604 130.27C36.1904 130.16 36.4204 130.17 36.5404 130.3C36.6004 130.37 36.6304 130.46 36.6304 130.55C36.6304 130.64 36.5804 130.73 36.5104 130.79C36.4804 130.82 33.5004 133.45 33.6104 135.81C33.6404 135.86 33.6504 135.92 33.6504 135.99C33.6004 137.13 33.8504 138 34.3604 138.52C34.8104 138.98 35.3704 139.08 35.7604 139.08C36.0804 139.08 36.4204 139.01 36.7404 138.89C35.3304 135.26 38.5904 131.44 38.7404 131.27C38.8804 131.12 39.1004 131.12 39.2404 131.24C39.3004 131.28 39.3504 131.37 39.3604 131.46C39.3604 131.56 39.3404 131.65 39.2804 131.72C39.2404 131.76 35.9904 135.44 37.4904 138.83C37.5004 138.84 37.5204 138.85 37.5304 138.86C37.9804 139.43 38.5804 139.75 39.2304 139.75C40.1504 139.75 40.9704 139.13 41.1204 138.31C41.2304 137.75 41.3104 136.93 41.3904 136.07C41.7004 132.94 41.9704 131.04 43.0304 131.04C43.0504 131.04 43.1404 131.04 43.1604 131.05C44.0804 131.2 43.9504 132.28 43.8104 133.43C43.6804 134.52 43.5204 135.87 44.2204 136.4C44.5104 136.62 44.8704 136.74 45.2504 136.74C46.7904 136.74 48.3504 134.97 48.3804 131.59C48.4004 128.78 46.6704 124.75 44.9904 121.87C44.1904 121.37 43.5004 120.8 43.0804 120.41C42.7204 121.38 41.9704 123.34 41.3804 124.13C41.3104 124.23 41.1904 124.29 41.0704 124.29C41.0304 124.29 40.9904 124.29 40.9504 124.27C40.7904 124.22 40.6804 124.08 40.6804 123.91C40.6504 122.21 40.0004 120.99 39.5804 120.37C39.3604 120.85 38.9904 121.55 38.5004 122.24C38.2304 123.7 37.5504 125.92 35.9004 127.88C33.8004 130.37 32.5104 133.27 32.8404 134.78H32.8204Z" fill="#FFE1AB"/>
<path d="M44.9798 121.87C46.6598 124.75 48.3898 128.78 48.3698 131.59C48.3498 134.97 46.7798 136.74 45.2398 136.74C44.8598 136.74 44.4998 136.62 44.2098 136.4C43.5098 135.87 43.6698 134.52 43.7998 133.43C43.9398 132.29 44.0698 131.21 43.1498 131.05C43.1298 131.05 43.0398 131.04 43.0198 131.04C41.9598 131.04 41.6898 132.94 41.3798 136.07C41.2898 136.93 41.2098 137.75 41.1098 138.31C40.9598 139.13 40.1398 139.75 39.2198 139.75C38.5698 139.75 37.9698 139.43 37.5198 138.86C37.5098 138.84 37.4898 138.84 37.4798 138.83C37.4998 138.87 37.5098 138.91 37.5298 138.95C37.5698 139.03 37.5698 139.13 37.5298 139.22C37.4998 139.31 37.4298 139.37 37.3498 139.41C37.3098 139.42 37.2598 139.44 37.2098 139.44C37.0798 139.44 36.9498 139.36 36.8998 139.25C36.8398 139.13 36.7898 139.01 36.7498 138.9C36.4298 139.02 36.0998 139.09 35.7698 139.09C35.3798 139.09 34.8198 138.99 34.3698 138.53C33.8598 138.01 33.6198 137.13 33.6598 136C33.6598 135.94 33.6498 135.88 33.6198 135.82C33.6198 135.86 33.6198 135.91 33.6198 135.95C33.6198 136.05 33.5998 136.14 33.5298 136.21C33.4698 136.28 33.3798 136.32 33.2898 136.33H33.2698C33.0898 136.33 32.9398 136.2 32.9198 136.02C32.8898 135.73 32.8998 135.44 32.9498 135.15C32.8898 135.04 32.8498 134.93 32.8198 134.79C32.4898 133.28 33.7798 130.38 35.8798 127.89C37.5298 125.93 38.2098 123.7 38.4798 122.25C38.1498 122.71 37.7698 123.17 37.3398 123.57C36.9598 124.77 36.3398 126.16 35.2798 127.41C33.4198 129.62 31.6098 132.92 32.0598 134.95C32.1798 135.5 32.4598 135.92 32.8798 136.2C32.8698 137.45 33.1798 138.42 33.8098 139.06C34.3098 139.58 34.9898 139.85 35.7698 139.85C36.2198 139.85 36.6798 139.76 37.1098 139.58C37.6898 140.19 38.4298 140.53 39.2198 140.53C40.5098 140.53 41.6498 139.64 41.8698 138.47C41.9798 137.87 42.0598 137.04 42.1498 136.16C42.2798 134.81 42.5598 132.01 43.0198 131.82C43.2098 131.85 43.0898 132.87 43.0198 133.35C42.8698 134.63 42.6798 136.22 43.7298 137.02C44.1598 137.34 44.6798 137.51 45.2298 137.51C47.1498 137.51 49.1098 135.48 49.1298 131.6C49.1498 129 47.7398 125.39 46.1998 122.52C45.7698 122.34 45.3598 122.12 44.9598 121.87H44.9798Z" fill="#231F20"/>
<path d="M36.5199 130.79C36.5899 130.73 36.6299 130.64 36.6399 130.55C36.6399 130.46 36.6099 130.37 36.5499 130.3C36.4299 130.17 36.1999 130.16 36.0699 130.27C36.0399 130.3 33.3199 132.63 32.9599 135.14C32.9199 135.43 32.9099 135.72 32.9299 136.01C32.9499 136.18 33.0999 136.32 33.2799 136.32H33.2999C33.3899 136.32 33.4799 136.27 33.5399 136.2C33.5999 136.13 33.6299 136.04 33.6299 135.94C33.6299 135.9 33.6299 135.85 33.6299 135.81C33.5199 133.44 36.4999 130.81 36.5299 130.79H36.5199Z" fill="#231F20"/>
<path d="M39.2701 131.72C39.3301 131.65 39.3601 131.56 39.3501 131.46C39.3501 131.37 39.2901 131.28 39.2301 131.24C39.1001 131.12 38.8701 131.12 38.7301 131.27C38.5901 131.44 35.3201 135.27 36.7301 138.89C36.7801 139.01 36.8301 139.13 36.8801 139.24C36.9401 139.36 37.0601 139.43 37.1901 139.43C37.2401 139.43 37.2901 139.42 37.3301 139.4C37.4101 139.36 37.4801 139.3 37.5101 139.21C37.5401 139.12 37.5401 139.03 37.5101 138.94C37.4901 138.9 37.4801 138.86 37.4601 138.82C35.9601 135.44 39.2201 131.75 39.2501 131.71L39.2701 131.72Z" fill="#231F20"/>
<path d="M33.92 108.12C33.39 110.75 34.38 112.85 35.42 115.08C36.38 117.11 37.45 119.39 37.45 122.33C38.48 121.07 39.08 119.52 39.09 119.5C39.14 119.38 39.24 119.29 39.37 119.26C39.4 119.26 39.42 119.26 39.45 119.26C39.55 119.26 39.65 119.3 39.73 119.37C39.79 119.43 40.92 120.59 41.31 122.67C41.91 121.39 42.52 119.64 42.53 119.62C42.57 119.49 42.68 119.4 42.81 119.37C42.94 119.34 43.08 119.38 43.17 119.48C43.18 119.49 44.19 120.51 45.44 121.28C43.67 118.8 42.59 115.82 42.09 112.03C42.07 111.91 42.11 111.8 42.2 111.71C42.28 111.63 42.4 111.58 42.52 111.6C43.34 111.7 44.21 111.75 45.09 111.75C46.76 111.75 48.35 111.57 49.74 111.33C48.48 109.42 47.72 107.4 47.47 105.62C47.15 103.3 47.31 101.06 47.71 98.9697C43.5 100.58 34.68 104.37 33.92 108.13V108.12Z" fill="#915600"/>
<path d="M49.7502 111.31C48.3702 111.55 46.7802 111.73 45.1002 111.73C44.2202 111.73 43.3502 111.68 42.5302 111.58C42.4102 111.56 42.2902 111.61 42.2102 111.69C42.1302 111.77 42.0902 111.89 42.1002 112.01C42.6002 115.8 43.6802 118.79 45.4502 121.26C44.2002 120.49 43.2002 119.47 43.1802 119.46C43.0902 119.36 42.9502 119.32 42.8202 119.35C42.6902 119.38 42.5802 119.47 42.5402 119.6C42.5402 119.62 41.9302 121.37 41.3202 122.65C40.9402 120.58 39.8002 119.41 39.7402 119.35C39.6702 119.28 39.5702 119.24 39.4602 119.24C39.4302 119.24 39.4102 119.24 39.3802 119.24C39.2502 119.27 39.1402 119.36 39.1002 119.48C39.1002 119.5 38.4902 121.05 37.4602 122.31C37.4602 119.37 36.3802 117.1 35.4302 115.06C34.3802 112.83 33.3902 110.73 33.9302 108.1C34.6902 104.33 43.5102 100.55 47.7202 98.9398C47.7802 98.6398 47.8402 98.3398 47.9002 98.0498C43.7902 99.5798 34.0402 103.64 33.1602 107.96C32.5802 110.83 33.6202 113.05 34.7202 115.39C35.8002 117.68 36.9102 120.04 36.6402 123.29C36.6302 123.45 36.7102 123.59 36.8502 123.66C36.9902 123.73 37.1602 123.71 37.2802 123.6C37.3002 123.58 37.3202 123.56 37.3402 123.55C37.7702 123.16 38.1502 122.7 38.4802 122.23C38.9702 121.54 39.3302 120.84 39.5602 120.36C39.9902 120.99 40.6302 122.21 40.6602 123.9C40.6602 124.06 40.7702 124.21 40.9302 124.26C40.9702 124.27 41.0102 124.28 41.0502 124.28C41.1702 124.28 41.2902 124.22 41.3602 124.12C41.9502 123.32 42.7102 121.37 43.0602 120.4C43.4802 120.78 44.1702 121.36 44.9702 121.86C45.3602 122.11 45.7802 122.33 46.2102 122.51C46.3602 122.57 46.5102 122.63 46.6602 122.68C46.7002 122.69 46.7502 122.7 46.7902 122.7C46.9902 122.68 47.1802 122.53 47.1802 122.32C47.1802 122.19 47.1102 122.08 47.0102 122.01C44.8302 119.52 43.5202 116.45 42.9202 112.39C43.6202 112.46 44.3502 112.49 45.0902 112.49C46.9702 112.49 48.7302 112.28 50.2202 112.01C50.0502 111.78 49.8902 111.55 49.7402 111.31H49.7502Z" fill="#231F20"/>
<path d="M17.83 76.9699C17.83 76.9699 17.81 76.9699 17.8 76.9699C17.7 76.9699 17.61 76.9199 17.54 76.8499C17.54 76.8499 17.54 76.8599 17.56 76.8699C18.14 77.4199 19.58 78.2699 21.02 79.0599C20.79 78.7399 20.6 78.3999 20.51 78.0599C20.49 77.9999 20.5 77.9499 20.51 77.8899C19.55 77.3399 18.69 76.8099 18.23 76.4199C18.23 76.4799 18.23 76.5599 18.23 76.6199C18.22 76.8199 18.05 76.9699 17.84 76.9699H17.83Z" fill="#231F20"/>
<path d="M17.09 83.7296H17.19C17.5 83.7596 17.79 83.7696 18.07 83.7796C17.05 83.3496 16.1 82.8996 15.43 82.4896C15.37 82.4496 15.3 82.4296 15.22 82.4296C15.18 82.4296 15.13 82.4296 15.09 82.4496C14.57 82.6296 14.02 82.7196 13.44 82.7196C11.37 82.7196 9.34002 81.5596 8.26003 79.7696C8.18003 79.6296 8.02002 79.5596 7.86002 79.5896C7.58002 79.6396 7.26002 79.6596 6.92002 79.6596C4.71002 79.6596 2.17002 78.7196 1.82002 77.9996C1.67002 77.6796 1.68002 77.3696 1.85002 77.0996C2.16002 76.6196 2.87002 76.3396 3.73002 76.3596C3.68002 76.3396 3.65002 76.3196 3.64002 76.3096C3.45002 76.2096 3.38002 75.9796 3.49002 75.7896C3.59002 75.6096 3.81002 75.5396 4.00002 75.6296C4.00002 75.6296 3.99002 75.6296 3.98002 75.6196C1.75002 74.7196 0.590025 73.6196 0.800025 72.6196C0.940025 71.9296 1.79002 71.4596 2.85002 71.4596C3.31002 71.4596 3.77002 71.5496 4.18002 71.7196C4.16002 71.7096 4.14002 71.6896 4.13002 71.6796C3.96002 71.5496 3.94002 71.3096 4.07002 71.1396C4.20002 70.9796 4.42002 70.9596 4.59002 71.0696C4.59002 71.0696 4.58002 71.0596 4.57002 71.0496C2.91002 70.0796 2.63002 68.7596 2.97002 68.1696C3.23002 67.7096 3.85002 67.6096 4.33002 67.6096C5.18002 67.6096 6.25002 67.9096 7.44002 68.4796C8.54002 68.9996 9.86003 69.7596 11.17 70.6296C10.88 70.2796 10.47 69.7196 10.18 69.0896C9.34002 68.5796 8.52002 68.1396 7.78002 67.7896C6.49002 67.1696 5.30002 66.8496 4.34002 66.8496C3.10002 66.8496 2.55002 67.3696 2.31002 67.7996C1.88002 68.5596 2.05002 69.6996 2.93002 70.6896H2.87002C1.41002 70.6896 0.280025 71.3996 0.0600246 72.4696C-0.189975 73.6496 0.670025 74.7996 2.49002 75.7696C1.93002 75.9496 1.49002 76.2696 1.21002 76.6896C0.890025 77.1896 0.860025 77.7696 1.13002 78.3296C1.78002 79.6696 5.57002 80.6496 7.75002 80.3796C9.00002 82.2696 11.21 83.4796 13.45 83.4796C14.05 83.4796 14.64 83.3896 15.19 83.2196C15.61 83.4696 16.13 83.7296 16.7 83.9996C16.7 83.9896 16.7 83.9796 16.7 83.9696C16.76 83.8096 16.91 83.7096 17.09 83.7196V83.7296Z" fill="#231F20"/>
<path d="M17.46 76.71C17.46 76.71 17.5 76.79 17.53 76.82C17.5 76.79 17.48 76.75 17.46 76.71Z" fill="#231F20"/>
<path d="M17.4604 76.7096C17.4404 76.6596 17.4404 76.6096 17.4404 76.5596H17.4004C17.4004 76.5596 17.4404 76.6596 17.4604 76.7096Z" fill="#231F20"/>
<path d="M9.3899 74.1903C9.5599 74.1903 9.7199 74.0703 9.7699 73.9003C9.8199 73.7003 9.6999 73.4903 9.4899 73.4403C8.5399 73.2103 5.7499 72.0103 4.6299 71.1103C4.6299 71.1103 4.6099 71.1103 4.5999 71.1003C4.4299 70.9903 4.2099 71.0103 4.0799 71.1703C3.9399 71.3303 3.9699 71.5703 4.1399 71.7103C4.1599 71.7203 4.1799 71.7403 4.1899 71.7503C5.4699 72.7503 8.2899 73.9403 9.2899 74.1903C9.3199 74.1903 9.3499 74.2003 9.3799 74.2003L9.3899 74.1903Z" fill="#231F20"/>
<path d="M8.66022 77.5902C8.87022 77.5802 9.04022 77.4003 9.03022 77.1903C9.02022 76.9803 8.84022 76.8103 8.62022 76.8303C6.41022 76.9403 4.04022 75.6703 4.02022 75.6603C4.02022 75.6603 4.01022 75.6603 4.00022 75.6603C3.82022 75.5703 3.59022 75.6403 3.49022 75.8203C3.39022 76.0003 3.45022 76.2402 3.64022 76.3402C3.64022 76.3402 3.68022 76.3603 3.73022 76.3903C4.17022 76.6203 6.23022 77.6103 8.33022 77.6103C8.44022 77.6103 8.55022 77.6103 8.66022 77.6103V77.5902Z" fill="#231F20"/>
<path d="M18.3201 81.2196C18.1801 81.1096 18.1301 80.9196 18.2001 80.7596C18.2701 80.5996 18.4501 80.4996 18.6201 80.5396C19.6301 80.7096 20.7001 80.7996 21.7801 80.7996C22.1401 80.7996 22.4601 80.7996 22.7301 80.7796C22.1801 80.3496 21.4901 79.7296 21.0101 79.0596C19.5701 78.2696 18.1401 77.4196 17.5501 76.8696C17.5501 76.8696 17.5401 76.8596 17.5301 76.8496C17.5301 76.8496 17.5201 76.8396 17.5101 76.8296C17.4801 76.7996 17.4601 76.7596 17.4401 76.7196C17.4201 76.6696 17.4001 76.6196 17.3801 76.5596H17.4201C17.5601 74.5196 15.8901 69.3596 13.5501 66.8396C12.9301 66.1596 12.1001 65.8896 11.4501 66.1396C10.8901 66.3596 10.5701 66.9396 10.5701 67.7496C10.5701 68.9896 12.0301 70.4996 12.0401 70.5196C12.1601 70.6496 12.1801 70.8396 12.0901 70.9896C12.0301 71.0896 10.5301 73.5096 12.0001 75.8896C12.0401 75.9596 12.0501 76.0396 12.0501 76.1196C12.0401 76.2396 11.9801 76.3496 11.8701 76.4096C11.6901 76.5196 11.4501 76.4596 11.3401 76.2796C9.90014 73.9396 10.8901 71.5996 11.2901 70.8396C11.2401 70.7896 11.1901 70.7296 11.1401 70.6596C9.83014 69.7896 8.51014 69.0396 7.41014 68.5096C6.22014 67.9396 5.15014 67.6396 4.30014 67.6396C3.83014 67.6396 3.21014 67.7396 2.94014 68.1996C2.60014 68.7896 2.88014 70.1096 4.54014 71.0796C4.54014 71.0796 4.55014 71.0896 4.56014 71.0996C4.56014 71.0996 4.58014 71.0996 4.59014 71.1096C5.71014 72.0096 8.50014 73.2096 9.45014 73.4396C9.66014 73.4896 9.78014 73.6996 9.73014 73.8996C9.69014 74.0696 9.53014 74.1896 9.35014 74.1896C9.32014 74.1896 9.29014 74.1896 9.26014 74.1796C8.25014 73.9296 5.44014 72.7396 4.16014 71.7396C3.74014 71.5696 3.28014 71.4796 2.83014 71.4796C1.76014 71.4796 0.920138 71.9596 0.780138 72.6396C0.570138 73.6396 1.73014 74.7396 3.96014 75.6396C3.96014 75.6396 3.97014 75.6396 3.98014 75.6496C3.98014 75.6496 3.99014 75.6496 4.00014 75.6496C4.02014 75.6596 6.39014 76.9296 8.60014 76.8196C8.82014 76.8096 9.00014 76.9696 9.01014 77.1796C9.02014 77.3896 8.86014 77.5696 8.64014 77.5796C8.53014 77.5796 8.42014 77.5796 8.31014 77.5796C6.21014 77.5796 4.16014 76.5796 3.71014 76.3596C2.85014 76.3396 2.13014 76.6196 1.83014 77.0996C1.65014 77.3696 1.64014 77.6796 1.80014 77.9996C2.15014 78.7296 4.69014 79.6596 6.90014 79.6596C7.25014 79.6596 7.57014 79.6396 7.84014 79.5896C8.00014 79.5596 8.16014 79.6296 8.24014 79.7696C9.32014 81.5596 11.3501 82.7096 13.4201 82.7096C14.0001 82.7096 14.5601 82.6196 15.0701 82.4396C15.1101 82.4296 15.1601 82.4196 15.2001 82.4196C15.2701 82.4196 15.3401 82.4396 15.4101 82.4796C16.0801 82.8896 17.0301 83.3396 18.0501 83.7696C19.5201 83.8396 20.6801 83.7996 21.8401 83.4596C20.4501 82.8996 19.2701 81.9596 18.5701 81.4096L18.3101 81.1996L18.3201 81.2196Z" fill="#FFE1AB"/>
<path d="M11.1698 70.6398C11.2298 70.7098 11.2798 70.7698 11.3198 70.8198C10.9198 71.5798 9.92975 73.9198 11.3698 76.2598C11.4798 76.4398 11.7198 76.4998 11.8998 76.3898C12.0098 76.3198 12.0698 76.2098 12.0798 76.0998C12.0798 76.0198 12.0798 75.9398 12.0298 75.8698C10.5698 73.4898 12.0598 71.0698 12.1198 70.9698C12.2098 70.8198 12.1898 70.6298 12.0698 70.4998C12.0598 70.4898 10.5998 68.9698 10.5998 67.7298C10.5998 66.9198 10.9098 66.3398 11.4798 66.1198C12.1298 65.8698 12.9498 66.1498 13.5798 66.8198C15.9198 69.3398 17.5898 74.4998 17.4498 76.5398C17.4498 76.5898 17.4498 76.6398 17.4698 76.6898C17.4798 76.7298 17.5098 76.7698 17.5398 76.7998C17.5398 76.7998 17.5498 76.8098 17.5598 76.8198C17.6198 76.8898 17.7098 76.9398 17.8198 76.9398C17.8198 76.9398 17.8398 76.9398 17.8498 76.9398C18.0498 76.9398 18.2198 76.7898 18.2398 76.5898C18.2398 76.5298 18.2398 76.4598 18.2398 76.3898C18.2898 74.1198 16.6398 68.9598 14.1698 66.2898C13.3298 65.3798 12.1698 65.0198 11.2198 65.3898C10.3498 65.7198 9.83975 66.5898 9.84975 67.7198C9.84975 68.1798 9.99975 68.6498 10.1998 69.0798C10.4898 69.7098 10.8998 70.2598 11.1898 70.6198L11.1698 70.6398Z" fill="#231F20"/>
<path d="M47.4497 83.4103C47.0897 83.4103 46.7297 83.4003 46.3797 83.3803C44.7997 83.5503 43.2097 83.6503 41.6197 83.6503C33.4597 83.6503 26.2397 81.3003 21.9697 79.0303C22.6397 79.7903 23.5797 80.4803 24.0197 80.7603C24.1597 80.8503 24.2197 81.0103 24.1897 81.1603C24.1497 81.3203 24.0297 81.4303 23.8697 81.4603C23.8397 81.4603 23.0297 81.5703 21.7997 81.5703C21.1697 81.5703 20.5397 81.5403 19.9297 81.4803C20.7897 82.1103 21.9497 82.8303 23.1697 83.0803C23.3397 83.1103 23.4597 83.2503 23.4797 83.4203C23.4997 83.5903 23.3997 83.7403 23.2397 83.8103C21.9097 84.3603 20.7097 84.5903 19.2297 84.5903C18.9797 84.5903 18.7297 84.5903 18.4697 84.5703C22.7297 87.0803 30.8597 89.2903 36.9597 90.1903L37.6597 90.3003C39.9097 90.6403 42.4597 91.0203 44.9497 91.0203C47.1597 91.0203 49.0197 90.7203 50.6397 90.1003C50.6897 90.0803 50.7297 90.0703 50.7797 90.0703C50.8797 90.0703 50.9797 90.1103 51.0497 90.1803C51.1597 90.2803 51.1997 90.4403 51.1497 90.5803C50.9797 91.0503 50.7997 91.5403 50.6197 92.0503C49.2597 95.7503 47.5597 100.36 48.2697 105.49C48.4597 106.86 48.9697 108.37 49.7997 109.86C47.6597 103.27 49.6797 94.9703 56.3097 82.7503C55.6197 82.4703 54.9397 82.1403 54.2897 81.7503C52.4997 82.8203 50.0997 83.4103 47.4797 83.4103H47.4497Z" fill="#915600"/>
<path d="M92.6103 47.8701C91.8303 52.7701 88.7003 55.7301 84.2003 55.8401C84.3603 56.3301 84.4903 56.8401 84.5803 57.3601C85.5103 63.0401 81.7403 69.0101 74.2603 73.7501C73.6803 76.7601 71.9703 79.3401 69.5703 81.1301C70.5303 84.9401 72.2803 90.1901 75.3903 96.5401C78.8503 103.64 79.5403 108.34 77.6603 112.42C81.3703 108.26 81.7203 102.48 80.3603 97.4401C79.7103 95.0401 78.5503 92.6701 77.4303 90.3801C75.8403 87.1401 74.2003 83.7801 73.9303 80.2001C73.9303 80.0601 73.9903 79.9301 74.1103 79.8501C84.5203 73.2701 88.2503 66.9501 90.9603 62.3401L91.0103 62.2501C93.3603 58.2801 96.9503 50.1801 95.3503 39.7101C94.6403 41.2001 94.0103 42.6501 94.0003 42.6701C93.9303 42.8201 93.7703 42.9101 93.6103 42.9001C93.4403 42.8801 93.3003 42.7601 93.2703 42.6001C93.2703 42.5701 92.7303 40.2501 91.8403 38.6201C91.7603 39.0101 91.6703 39.3901 91.5803 39.7501C92.6703 42.3001 93.0303 45.2601 92.6103 47.8601V47.8701Z" fill="#915600"/>
<path d="M51.2402 113.13C50.6302 112.09 50.1402 111.01 49.7802 109.88C48.9602 108.39 48.4402 106.87 48.2502 105.51C47.5402 100.38 49.2402 95.7703 50.6002 92.0703C50.7902 91.5603 50.9702 91.0603 51.1302 90.6003C51.1802 90.4603 51.1402 90.3003 51.0302 90.2003C50.9602 90.1303 50.8602 90.0903 50.7602 90.0903C50.7102 90.0903 50.6702 90.0903 50.6202 90.1203C49.0002 90.7403 47.1402 91.0403 44.9302 91.0403C42.4402 91.0403 39.8902 90.6503 37.6402 90.3203L36.9402 90.2103C30.8402 89.3103 22.7102 87.1003 18.4502 84.5903C18.7102 84.5903 18.9602 84.6103 19.2102 84.6103C20.6902 84.6103 21.8802 84.3803 23.2202 83.8303C23.3802 83.7703 23.4702 83.6103 23.4602 83.4403C23.4402 83.2703 23.3202 83.1403 23.1502 83.1003C21.9302 82.8503 20.7802 82.1303 19.9102 81.5003C20.5202 81.5603 21.1502 81.5903 21.7802 81.5903C23.0102 81.5903 23.8102 81.4803 23.8502 81.4803C24.0102 81.4603 24.1402 81.3403 24.1702 81.1803C24.2002 81.0203 24.1402 80.8603 24.0002 80.7803C23.5602 80.5003 22.6202 79.8103 21.9502 79.0503C26.2202 81.3303 33.4402 83.6803 41.6002 83.6703C43.1902 83.6703 44.7802 83.5703 46.3602 83.4003C45.2002 83.3303 44.0602 83.1503 42.9702 82.8803C42.5102 82.8903 42.0602 82.9103 41.6002 82.9103C32.7102 82.9103 24.9802 80.0803 21.0602 77.6603C20.9202 77.5703 20.7502 77.5803 20.6202 77.6803C20.5402 77.7403 20.4902 77.8303 20.4702 77.9203C20.4702 77.9703 20.4602 78.0303 20.4702 78.0903C20.5602 78.4303 20.7502 78.7703 20.9802 79.0903C21.4602 79.7603 22.1502 80.3803 22.7002 80.8103C22.4302 80.8203 22.1102 80.8303 21.7502 80.8303C20.6602 80.8303 19.6002 80.7403 18.5902 80.5703C18.4202 80.5303 18.2402 80.6303 18.1702 80.7903C18.1002 80.9503 18.1502 81.1403 18.2902 81.2503L18.5502 81.4603C19.2502 82.0203 20.4402 82.9603 21.8202 83.5103C20.6602 83.8403 19.5102 83.8803 18.0302 83.8203C17.7502 83.8103 17.4602 83.7903 17.1502 83.7703H17.0502C16.8702 83.7503 16.7202 83.8503 16.6602 84.0103C16.6602 84.0203 16.6602 84.0303 16.6602 84.0403C16.6202 84.1903 16.6602 84.3503 16.8002 84.4403C20.6702 87.3303 29.9902 89.9603 36.8002 90.9703L37.5002 91.0803C39.7802 91.4203 42.3602 91.8103 44.9002 91.8103C46.8602 91.8103 48.5702 91.5803 50.1002 91.1103C50.0202 91.3403 49.9302 91.5803 49.8402 91.8203C49.1802 93.6103 48.4002 95.7403 47.8702 98.0803C47.8002 98.3703 47.7402 98.6703 47.6902 98.9703C47.3002 101.06 47.1302 103.3 47.4502 105.62C47.7002 107.4 48.4602 109.42 49.7202 111.33C49.8702 111.56 50.0402 111.8 50.2002 112.03C50.9102 112.99 51.7402 113.91 52.7002 114.74C52.1702 114.25 51.6602 113.72 51.2002 113.14L51.2402 113.13Z" fill="#231F20"/>
<path d="M95.1901 38.2904C95.0401 38.5904 94.8901 38.9104 94.7301 39.2304C94.3601 40.0004 94.0101 40.7804 93.7401 41.3604C93.4101 40.2204 92.7901 38.4404 91.9301 37.3604C91.8301 37.2404 91.6701 37.1904 91.5201 37.2304C91.3701 37.2704 91.2601 37.3904 91.2401 37.5504C91.1901 37.9204 91.1201 38.2904 91.0401 38.6504C91.2301 39.0104 91.4101 39.3804 91.5701 39.7604C91.6601 39.4004 91.7501 39.0204 91.8301 38.6304C92.7201 40.2604 93.2501 42.5804 93.2601 42.6104C93.3001 42.7704 93.4401 42.8904 93.6001 42.9104C93.7701 42.9204 93.9301 42.8304 93.9901 42.6804C93.9901 42.6604 94.6301 41.2204 95.3401 39.7204C96.9401 50.1904 93.3501 58.2904 91.0001 62.2604L90.9501 62.3504C88.2301 66.9604 84.5101 73.2804 74.1001 79.8604C73.9801 79.9404 73.9101 80.0704 73.9201 80.2104C74.1901 83.7904 75.8301 87.1404 77.4201 90.3904C78.5401 92.6804 79.7001 95.0504 80.3501 97.4504C81.7101 102.49 81.3601 108.27 77.6501 112.43C77.5101 112.74 77.3601 113.04 77.1901 113.34C77.1801 113.37 77.1601 113.39 77.1401 113.41C75.2901 115.43 72.9201 116.89 70.0801 117.76C70.3201 117.69 70.5601 117.61 70.7901 117.54C75.8701 115.91 78.9001 112.89 80.4601 109.39C80.5801 109.12 80.6901 108.85 80.8001 108.57C80.9301 108.23 81.0401 107.89 81.1501 107.54C81.2301 107.28 81.3001 107.02 81.3601 106.76C82.1201 103.59 81.9101 100.24 81.1101 97.2604C80.4401 94.7904 79.2701 92.3904 78.1301 90.0604C76.6101 86.9504 75.0301 83.7404 74.7201 80.3804C85.1401 73.7404 88.8901 67.3804 91.6301 62.7304L91.6801 62.6404C94.1701 58.4304 98.0301 49.6804 95.9101 38.3904C95.8801 38.2304 95.7501 38.1004 95.5801 38.0804C95.5101 38.0804 95.4501 38.0804 95.3901 38.1104C95.3001 38.1404 95.2201 38.2004 95.1801 38.2904H95.1901Z" fill="#231F20"/>
<path d="M61.4703 83.7803C59.9503 83.7803 58.4503 83.5204 57.0203 83.0404C47.5703 100.5 48.9203 107.64 51.8803 112.7C54.6603 116.13 58.8103 118.05 63.5303 118.05C65.5403 118.05 67.6603 117.71 69.8503 117.04C72.5403 116.22 74.7903 114.84 76.5403 112.94C78.8103 108.89 78.2803 104.24 74.6903 96.8803C71.6303 90.6203 69.8803 85.4404 68.9003 81.6104C66.7903 82.9904 64.2203 83.7803 61.4803 83.7803H61.4703Z" fill="#FFE1AB"/>
<path d="M70.0796 117.76C72.9196 116.89 75.2896 115.43 77.1396 113.41C77.1596 113.39 77.1796 113.37 77.1896 113.34C77.3596 113.04 77.5096 112.73 77.6496 112.43C79.5296 108.35 78.8396 103.64 75.3796 96.5497C72.2696 90.1897 70.5296 84.9396 69.5596 81.1396C69.3396 81.2996 69.1196 81.4596 68.8796 81.6096C69.8596 85.4396 71.6096 90.6196 74.6696 96.8796C78.2596 104.23 78.7896 108.89 76.5196 112.94C74.7696 114.84 72.5196 116.22 69.8296 117.04C67.6396 117.71 65.5096 118.05 63.5096 118.05C58.7896 118.05 54.6396 116.13 51.8596 112.7C48.8896 107.64 47.5496 100.49 56.9996 83.0396C56.7496 82.9596 56.5096 82.8596 56.2696 82.7696C49.6396 94.9896 47.6196 103.3 49.7596 109.88C50.1296 111.01 50.6096 112.09 51.2196 113.13C51.6896 113.71 52.1896 114.24 52.7196 114.73C55.5696 117.37 59.3196 118.81 63.5096 118.81C65.5496 118.81 67.7096 118.47 69.9196 117.8C69.9596 117.79 70.0096 117.78 70.0496 117.76H70.0796Z" fill="#231F20"/>
<path d="M91.8496 47.75C92.6596 42.65 90.3996 36.16 85.3296 34.56C84.5796 34.33 83.8096 34.21 83.0296 34.21C80.7596 34.21 78.4496 35.23 76.6996 37.01C75.7396 37.98 75.0196 39.11 74.5596 40.3C75.3696 41.64 76.0896 43.12 76.7496 44.71C77.2296 43.58 77.9596 42.47 78.8296 41.58C80.2896 40.1 81.9196 39.48 83.3896 39.84C86.4296 40.58 87.4296 44.01 87.0696 46.88C86.7496 49.5 85.2696 52.13 82.6696 52.92C83.1596 53.57 83.5796 54.3 83.9096 55.08C83.9096 55.08 83.9196 55.08 83.9296 55.08C88.1496 55.08 91.1096 52.34 91.8396 47.75H91.8496Z" fill="#915600"/>
<path d="M74.5703 40.2901C75.0303 39.1001 75.7503 37.9701 76.7103 37.0001C78.4603 35.2201 80.7703 34.2001 83.0403 34.2001C83.8203 34.2001 84.5903 34.3201 85.3403 34.5501C90.4003 36.1501 92.6603 42.6401 91.8603 47.7401C91.1303 52.3301 88.1803 55.0701 83.9503 55.0701C83.9503 55.0701 83.9403 55.0701 83.9303 55.0701C84.0303 55.3201 84.1303 55.5701 84.2103 55.8201C88.7003 55.7101 91.8403 52.7501 92.6203 47.8501C93.0303 45.2401 92.6803 42.2901 91.5903 39.7401C91.4303 39.3601 91.2503 38.9901 91.0603 38.6301C90.1703 36.9701 88.9303 35.5601 87.3603 34.6201C87.0203 34.4201 86.6603 34.2401 86.2903 34.0801C86.0603 33.9801 85.8203 33.8901 85.5703 33.8101C82.3803 32.8101 78.7103 33.8601 76.1503 36.4501C75.2603 37.3501 74.5603 38.3801 74.0703 39.4701C74.2403 39.7301 74.4103 40.0001 74.5703 40.2701V40.2901Z" fill="#231F20"/>
<path d="M86.3099 46.78C86.6299 44.23 85.7899 41.2 83.2099 40.58C82.9999 40.53 82.7799 40.5 82.5599 40.5C81.5399 40.5 80.4199 41.07 79.3899 42.11C78.3799 43.14 77.5799 44.49 77.1699 45.78C77.6599 47.08 78.0999 48.45 78.4899 49.9C79.8599 50.3 81.1199 51.14 82.1499 52.28C84.6199 51.7 86.0099 49.24 86.3099 46.79V46.78Z" fill="#E08A22"/>
<path d="M87.0798 46.8802C87.4398 44.0102 86.4298 40.5802 83.3998 39.8402C81.9198 39.4802 80.2898 40.1002 78.8398 41.5802C77.9698 42.4702 77.2398 43.5802 76.7598 44.7102C76.8998 45.0602 77.0398 45.4202 77.1798 45.7802C77.5898 44.4902 78.3798 43.1402 79.3998 42.1102C80.4198 41.0702 81.5498 40.5002 82.5698 40.5002C82.7898 40.5002 83.0098 40.5302 83.2198 40.5802C85.7998 41.2102 86.6398 44.2402 86.3198 46.7802C86.0198 49.2302 84.6298 51.6902 82.1598 52.2702C82.3398 52.4802 82.5198 52.6902 82.6898 52.9102C85.2898 52.1202 86.7698 49.4902 87.0898 46.8702L87.0798 46.8802Z" fill="#231F20"/>
<path d="M18.7104 59.7903C16.1304 63.0603 16.8904 67.6203 18.4704 70.8003C20.4504 74.7903 23.9104 77.3703 27.2904 77.3703C29.1504 77.3703 30.9604 76.6303 32.6604 75.1703C32.9304 74.9003 33.1704 74.6103 33.3904 74.3203C33.2704 73.7603 33.1904 73.1803 33.1704 72.5803C32.1604 73.3303 31.0604 73.7103 29.8704 73.7103C26.7604 73.7103 23.9804 71.1803 22.8404 68.6903C21.8604 66.5503 22.0404 64.5103 23.3204 63.0803C24.0704 62.2603 25.1904 61.8203 26.5704 61.8203C28.0904 61.8203 29.7904 62.3403 31.2204 63.1603C30.5204 61.5003 29.8804 59.6703 29.4304 57.7403C28.1404 57.1503 26.7004 56.8203 25.2304 56.8203C22.5304 56.8203 20.2104 57.8803 18.6904 59.8003L18.7104 59.7903Z" fill="#915600"/>
<path d="M33.4003 74.31C33.1803 74.61 32.9403 74.89 32.6703 75.16C30.9703 76.62 29.1603 77.36 27.3003 77.36C23.9203 77.36 20.4603 74.78 18.4803 70.79C16.9003 67.61 16.1303 63.05 18.7203 59.78C20.2403 57.86 22.5603 56.8 25.2603 56.8C26.7303 56.8 28.1703 57.13 29.4603 57.72C29.3903 57.41 29.3203 57.1 29.2603 56.79C28.0203 56.3 26.6603 56.04 25.2603 56.04C22.3603 56.04 19.7503 57.23 18.1103 59.31C15.7603 62.28 15.6403 66.8 17.7903 71.13C19.9003 75.38 23.6403 78.12 27.3103 78.12C29.3703 78.12 31.3503 77.31 33.2103 75.71C33.3703 75.55 33.5203 75.39 33.6603 75.23C33.5603 74.93 33.4803 74.62 33.4103 74.3L33.4003 74.31Z" fill="#231F20"/>
<path d="M23.9101 63.5803C22.8401 64.7703 22.7101 66.5103 23.5601 68.3603C24.6001 70.6303 27.1001 72.9303 29.8801 72.9303C31.0301 72.9303 32.0901 72.5203 33.0301 71.7103C33.0901 71.6503 33.1401 71.6003 33.1901 71.5403C33.2501 70.4703 33.4501 69.3603 33.8101 68.2303C33.1801 67.1703 32.4901 65.9003 31.8201 64.4603C30.3601 63.3503 28.3201 62.5703 26.5901 62.5703C25.7901 62.5703 24.6701 62.7403 23.9101 63.5703V63.5803Z" fill="#E08A22"/>
<path d="M23.3302 63.0701C22.0502 64.4901 21.8702 66.5401 22.8502 68.6801C23.9902 71.1801 26.7702 73.7001 29.8802 73.7001C31.0702 73.7001 32.1802 73.3201 33.1802 72.5701C33.1702 72.2301 33.1602 71.8901 33.1802 71.5501C33.1302 71.6101 33.0802 71.6601 33.0202 71.7201C32.0802 72.5301 31.0202 72.9401 29.8702 72.9401C27.0902 72.9401 24.5802 70.6401 23.5502 68.3701C22.7002 66.5201 22.8302 64.7701 23.9002 63.5901C24.6502 62.7601 25.7702 62.5901 26.5802 62.5901C28.3102 62.5901 30.3502 63.3701 31.8102 64.4801C31.6102 64.0601 31.4202 63.6201 31.2302 63.1701C29.8002 62.3501 28.1002 61.8301 26.5802 61.8301C25.2002 61.8301 24.0702 62.2601 23.3302 63.0901V63.0701Z" fill="#231F20"/>
<path d="M46.3797 83.3796C46.7397 83.3996 47.0897 83.4096 47.4497 83.4096C50.0697 83.4096 52.4697 82.8196 54.2597 81.7496C54.2397 81.7396 54.2197 81.7296 54.1997 81.7196C53.7797 81.8396 52.6497 82.1296 51.0797 82.2196C49.9597 82.4996 48.7397 82.6496 47.4497 82.6496C42.6097 82.6496 37.9897 80.6296 35.6797 77.5096C33.8197 74.9896 33.4397 71.8096 34.5897 68.3096C34.6197 68.2096 34.6097 68.0896 34.5497 67.9996C31.8197 63.4396 27.6597 54.5796 30.4897 46.3796C32.0097 41.9696 35.3597 38.3196 40.4497 35.4996C40.4797 35.4296 40.5297 35.3596 40.6097 35.3196C41.7197 34.7196 42.3197 34.1496 42.6097 33.5596C35.8997 36.6096 31.5797 40.8296 29.7497 46.1296C28.5197 49.7096 28.5597 53.3896 29.2297 56.8096C29.2897 57.1196 29.3597 57.4296 29.4297 57.7396C29.8797 59.6696 30.5097 61.4996 31.2197 63.1596C31.4097 63.6096 31.5997 64.0496 31.7997 64.4696C32.4697 65.8996 33.1597 67.1796 33.7897 68.2396C33.4297 69.3796 33.2197 70.4896 33.1697 71.5496C33.1497 71.8996 33.1497 72.2396 33.1697 72.5696C33.1897 73.1696 33.2697 73.7496 33.3897 74.3096C33.4597 74.6196 33.5397 74.9296 33.6397 75.2396C33.9597 76.2096 34.4297 77.1196 35.0497 77.9596C36.7597 80.2796 39.6597 82.0196 42.9797 82.8496C44.0697 83.1296 45.2097 83.3096 46.3697 83.3696L46.3797 83.3796Z" fill="#231F20"/>
<path d="M52.4205 31.2298C54.0305 30.9498 55.5905 30.7998 57.0705 30.7998C67.2605 30.7998 74.4205 37.5398 77.8005 50.2998C77.8405 50.4298 77.9405 50.5398 78.0805 50.5698C80.9105 51.2798 83.2705 54.1198 83.8205 57.4698C84.5305 61.8498 82.2405 66.4398 77.4505 70.4698C76.5605 71.4998 75.5105 72.5798 74.2705 73.6998C74.2705 73.7098 74.2705 73.7298 74.2705 73.7398C81.7605 68.9998 85.5205 63.0298 84.5905 57.3498C84.5105 56.8298 84.3705 56.3198 84.2105 55.8298C84.1305 55.5698 84.0305 55.3198 83.9305 55.0798C83.6005 54.2998 83.1805 53.5698 82.6905 52.9198C82.5205 52.6998 82.3505 52.4798 82.1605 52.2798C81.1405 51.1398 79.8805 50.2998 78.5005 49.8998C78.1105 48.4498 77.6705 47.0798 77.1805 45.7798C77.0405 45.4198 76.9005 45.0598 76.7605 44.7098C76.1105 43.1098 75.3805 41.6398 74.5705 40.2998C74.4105 40.0298 74.2405 39.7598 74.0705 39.4998C70.0405 33.2798 64.2905 30.0498 57.0805 30.0498C54.7805 30.0498 52.3405 30.3798 49.7705 31.0398C50.8505 31.2398 51.8805 31.2498 52.4305 31.2398L52.4205 31.2298Z" fill="#231F20"/>
<path d="M61.4702 83.0098C67.4702 83.0098 72.5402 78.9898 73.5302 73.4398C73.5402 73.3598 73.5902 73.2798 73.6502 73.2198C81.3002 66.3598 81.5202 61.4198 80.3702 58.4798C78.9502 54.8698 75.1002 53.1798 72.9502 53.1798C72.8502 53.1798 72.7202 53.1398 72.6502 53.0698C72.5802 52.9998 72.5102 52.8998 72.5202 52.7998C72.5702 48.6898 70.0602 40.9898 65.3802 37.8298C63.9002 36.8298 62.0802 36.2998 60.1302 36.2998C56.6802 36.2998 52.2202 38.1098 50.0602 43.1898C50.0202 43.2898 49.9402 43.3598 49.8402 43.3998C49.7402 43.4398 49.6302 43.4298 49.5302 43.3798C48.0602 42.6598 46.4902 42.2998 44.8402 42.2998C40.6502 42.2998 36.6302 44.7098 34.8502 48.2898C33.4102 51.1798 33.3202 55.0898 34.6002 58.7598C35.7502 62.0398 37.8202 64.5798 40.2802 65.7498C40.4102 65.8098 40.4902 65.9398 40.5002 66.0798C40.5002 66.2198 40.4302 66.3498 40.3102 66.4198C38.9802 67.1998 38.0102 69.2498 37.9002 71.5098C37.7502 74.3998 38.9202 76.9698 41.0902 78.5398C44.4302 80.9598 47.8502 81.4698 50.1302 81.4698C52.4102 81.4698 54.1202 80.9398 54.1402 80.9298C54.1802 80.9198 54.2202 80.9098 54.2702 80.9098C54.3402 80.9098 54.4102 80.9298 54.4802 80.9698C56.6002 82.2898 59.0202 82.9998 61.4802 82.9998L61.4702 83.0098ZM55.0402 46.6798C55.1402 44.6398 56.1202 43.0398 57.8702 42.0598C58.4102 41.7498 59.1302 41.5898 59.9502 41.5898C63.2102 41.5898 68.6902 44.2598 70.0902 49.9798C70.7102 52.5098 69.9002 54.1998 69.1202 55.1798C67.9202 56.6698 65.9302 57.5698 63.7802 57.5698C62.3802 57.5698 61.0302 57.1698 59.9902 56.4398C57.5102 54.7198 54.8702 50.2898 55.0402 46.6798ZM52.0302 59.6898C52.2502 58.2098 53.4002 57.0298 55.1902 56.4298C57.8502 55.5498 59.2202 56.3198 59.8002 56.8598C60.4902 57.4998 60.7602 58.4598 60.5002 59.3498C60.4402 59.5498 60.2302 59.6698 60.0202 59.6198C59.8102 59.5598 59.6902 59.3498 59.7502 59.1498C59.9302 58.5298 59.7402 57.8598 59.2602 57.4198C58.4902 56.6998 57.0902 56.6098 55.4302 57.1598C53.3702 57.8398 52.8902 59.1098 52.7902 59.7998C52.6702 60.6198 52.9702 61.2298 53.2202 61.3998C53.4002 61.5198 53.4402 61.7598 53.3202 61.9298C53.2402 62.0398 53.1202 62.0898 53.0002 62.0898C52.9202 62.0898 52.8502 62.0698 52.7802 62.0198C52.2002 61.6198 51.8902 60.6598 52.0302 59.6798V59.6898ZM59.5202 58.8598C59.5202 59.0498 59.3702 59.2098 59.1702 59.2098C58.9702 59.2098 58.8202 59.0498 58.8202 58.8598C58.8202 58.8698 58.7802 58.8598 58.7502 58.8598C58.4502 58.8598 57.9802 59.1798 57.9302 60.0498C57.9002 60.2398 57.7502 60.3698 57.5702 60.3698C57.3602 60.3498 57.2202 60.1898 57.2302 60.0098C57.3102 58.6598 58.1802 58.1698 58.7402 58.1698C59.2102 58.1898 59.5202 58.4798 59.5202 58.8598ZM53.8702 61.2198C53.8702 61.2198 53.7802 61.2598 53.7202 61.2598C53.5902 61.2598 53.4802 61.1998 53.4102 61.0898C53.2702 60.7698 53.3502 60.4798 53.6002 60.2798C53.8002 60.1298 54.0802 60.0398 54.4002 60.0398C54.8802 60.0398 55.3802 60.2198 55.8002 60.5598C55.8702 60.5998 55.9102 60.6798 55.9302 60.7698C55.9402 60.8598 55.9202 60.9598 55.8602 61.0398C55.7502 61.1898 55.5102 61.2098 55.3702 61.0898C55.0802 60.8698 54.7302 60.7398 54.4002 60.7398C54.2302 60.7398 54.1102 60.7798 54.0502 60.8098C54.1002 60.9898 54.0202 61.1598 53.8702 61.2298V61.2198ZM39.9202 62.3898C38.1202 59.4498 37.8502 55.7198 39.2002 52.4198C40.0802 50.2598 41.5202 48.6798 42.9602 48.2998C45.2202 47.7098 47.3402 48.4398 48.9702 50.3598C51.2602 53.0498 52.1802 57.4498 51.7202 59.9898C51.1702 63.0098 48.1702 65.4598 45.0202 65.4598C42.9502 65.4598 41.1302 64.3698 39.9102 62.3898H39.9202ZM44.5802 71.7098C43.9402 72.3998 43.8602 73.3998 43.8502 73.4098C43.8302 73.6098 43.6602 73.7598 43.4602 73.7598C43.4502 73.7598 43.4402 73.7598 43.4302 73.7598C43.2202 73.7398 43.0602 73.5598 43.0702 73.3498C43.0702 73.2798 43.2202 71.6498 44.4502 70.7998C45.2102 70.2698 46.1802 70.1598 47.3502 70.4598C47.5602 70.5098 47.6802 70.7198 47.6302 70.9298C47.5702 71.1298 47.3702 71.2598 47.1602 71.1998C46.3802 70.9998 45.7202 71.0198 45.2002 71.2498C45.6002 71.7298 46.5102 72.6698 47.6202 72.9098C47.6902 72.9298 47.7502 72.9598 47.8002 73.0098C48.6602 73.2798 50.1002 73.5798 52.2102 73.5798C54.3202 73.5798 57.5802 73.2698 61.5302 71.7698C67.8902 69.3698 71.2702 64.6398 71.9102 62.7298C71.9102 62.7098 71.9302 62.6998 71.9402 62.6798C72.3602 61.5298 72.1802 60.0298 72.1202 59.6298C71.2202 59.8198 70.7102 60.5198 70.7002 60.5298C70.6202 60.6398 70.5002 60.6898 70.3802 60.6898C70.3002 60.6898 70.2302 60.6698 70.1602 60.6198C69.9902 60.4998 69.9402 60.2598 70.0702 60.0898C70.1002 60.0498 70.8502 59.0098 72.1902 58.8398C73.1702 58.7098 74.1802 59.0698 75.2102 59.8998C75.3802 60.0298 75.4002 60.2798 75.2602 60.4398C75.1202 60.5998 74.8802 60.6298 74.7102 60.4898C74.0802 59.9798 73.4802 59.6798 72.9002 59.5998C72.9702 60.1398 73.1202 61.6598 72.6802 62.9098C72.7702 63.7198 73.2302 69.0598 70.4602 73.3798C70.4602 73.3998 70.4502 73.4298 70.4302 73.4498C70.3602 73.5498 70.2902 73.6498 70.2102 73.7498C70.1902 73.7698 70.1802 73.7998 70.1602 73.8198C69.7502 74.3998 69.2902 74.9298 68.7902 75.4198C68.7502 75.4598 68.7002 75.5098 68.6602 75.5498C68.5202 75.6798 68.3702 75.8098 68.2202 75.9298C68.1402 75.9998 68.0502 76.0698 67.9702 76.1398C67.8302 76.2498 67.6802 76.3598 67.5402 76.4698C67.4402 76.5398 67.3302 76.6198 67.2202 76.6898C67.0802 76.7898 66.9302 76.8798 66.7802 76.9698C66.6602 77.0398 66.5302 77.1098 66.4002 77.1898C66.2602 77.2698 66.1102 77.3498 65.9602 77.4298C65.8102 77.5098 65.6502 77.5798 65.4902 77.6498C65.3502 77.7098 65.2202 77.7798 65.0802 77.8298C64.7802 77.9498 64.4702 78.0698 64.1402 78.1798C63.1702 78.4998 62.2402 78.7398 61.3402 78.8898C60.4402 79.0498 59.5702 79.1298 58.7202 79.1298C57.8702 79.1298 56.9602 79.0398 56.1002 78.8598C56.0802 78.8598 56.0602 78.8598 56.0302 78.8498C53.0702 78.2298 50.2102 76.5298 46.9002 73.4898C45.8002 73.0598 44.9602 72.1698 44.5802 71.7098Z" fill="#FFE1AB"/>
<path d="M74.2603 73.7403C74.2603 73.7403 74.2603 73.7103 74.2603 73.7003C75.5103 72.5803 76.5603 71.5003 77.4403 70.4703C82.1503 64.9903 82.1203 60.8603 81.0703 58.2103C79.7303 54.8003 76.0903 52.6203 73.2703 52.4403C73.1803 47.9903 70.6203 40.4603 65.8003 37.2003C64.1903 36.1103 62.2203 35.5303 60.1103 35.5303C56.5003 35.5303 51.8503 37.3803 49.4803 42.5203C48.0103 41.8603 46.4403 41.5303 44.8103 41.5303C40.3303 41.5303 36.0303 44.1103 34.1203 47.9503C32.5903 51.0203 32.4803 55.1503 33.8403 59.0103C34.9703 62.2303 36.9603 64.7903 39.3503 66.1503C38.0703 67.2203 37.2003 69.2303 37.0903 71.4803C36.9303 74.6303 38.2103 77.4303 40.6003 79.1703C44.1103 81.7103 47.7103 82.2503 50.1103 82.2503C50.4403 82.2503 50.7603 82.2403 51.0703 82.2203C52.6403 82.1303 53.7703 81.8503 54.1903 81.7203C54.2103 81.7303 54.2303 81.7403 54.2503 81.7503C54.9003 82.1403 55.5803 82.4703 56.2703 82.7503C56.5103 82.8503 56.7603 82.9403 57.0003 83.0203C58.4303 83.5103 59.9303 83.7603 61.4503 83.7603C64.2003 83.7603 66.7603 82.9603 68.8703 81.5903C69.1003 81.4403 69.3303 81.2803 69.5503 81.1203C71.9403 79.3303 73.6603 76.7503 74.2403 73.7403H74.2603ZM54.4703 80.9903C54.4103 80.9503 54.3403 80.9303 54.2603 80.9303C54.2203 80.9303 54.1803 80.9303 54.1303 80.9503C54.1103 80.9503 52.4903 81.4903 50.1203 81.4903C47.7503 81.4903 44.4203 80.9803 41.0803 78.5603C38.9103 76.9803 37.7403 74.4203 37.8903 71.5303C38.0003 69.2603 38.9703 67.2203 40.3003 66.4403C40.4203 66.3703 40.5003 66.2403 40.4903 66.1003C40.4903 65.9603 40.4003 65.8303 40.2703 65.7703C37.8103 64.6003 35.7403 62.0603 34.5903 58.7803C33.3003 55.1103 33.3903 51.2003 34.8403 48.3103C36.6303 44.7303 40.6403 42.3203 44.8303 42.3203C46.4803 42.3203 48.0603 42.6803 49.5203 43.4003C49.6203 43.4503 49.7303 43.4503 49.8303 43.4203C49.9303 43.3803 50.0103 43.3103 50.0503 43.2103C52.2203 38.1303 56.6803 36.3203 60.1203 36.3203C62.0703 36.3203 63.8803 36.8503 65.3703 37.8503C70.0503 41.0103 72.5603 48.7103 72.5103 52.8203C72.5103 52.9203 72.5703 53.0203 72.6403 53.0903C72.7103 53.1603 72.8403 53.2003 72.9403 53.2003C75.0903 53.2003 78.9303 54.8803 80.3603 58.5003C81.5203 61.4403 81.2903 66.3803 73.6403 73.2403C73.5803 73.3003 73.5303 73.3703 73.5203 73.4603C72.5403 79.0003 67.4603 83.0203 61.4603 83.0303C59.0003 83.0303 56.5803 82.3303 54.4603 81.0003L54.4703 80.9903Z" fill="#231F20"/>
<path d="M83.8196 57.4795C83.2696 54.1295 80.9196 51.2895 78.0796 50.5795C77.9396 50.5495 77.8396 50.4395 77.7996 50.3095C74.4296 37.5495 67.2596 30.8095 57.0696 30.8095C55.5796 30.8095 54.0296 30.9595 52.4196 31.2395C52.6796 31.2395 52.8396 31.2195 52.8496 31.2195C53.0796 31.1995 53.2496 31.3595 53.2696 31.5695C53.2896 31.7795 53.1296 31.9595 52.9096 31.9795C52.8396 31.9795 52.3696 32.0195 51.6996 31.9995C49.8296 31.9495 46.3796 31.4995 45.3996 29.0295C44.7196 27.3095 44.9696 25.6995 46.0896 24.7295C46.9796 23.9495 48.2296 23.7695 49.1796 24.2695C49.6896 24.5395 50.0596 24.9695 50.2796 25.5295C50.2496 25.0295 50.0696 24.6095 49.8796 24.2895C49.1596 23.0895 47.5696 22.2995 46.0096 22.3695C45.0696 22.4095 43.3396 22.8095 42.2996 24.9995C41.4096 26.8495 42.1196 28.4295 42.7996 29.9495C43.5696 31.6795 44.3696 33.4595 42.2496 35.1695C41.9096 35.4395 41.4996 35.7195 40.9996 35.9895C40.9396 36.0195 40.8796 36.0395 40.8096 36.0395C40.6696 36.0395 40.5396 35.9695 40.4696 35.8395C40.4096 35.7295 40.4096 35.6095 40.4696 35.4995C35.3796 38.3195 32.0296 41.9595 30.5096 46.3795C27.6896 54.5795 31.8396 63.4495 34.5696 67.9995C34.6296 68.0895 34.6396 68.2095 34.6096 68.3095C33.4596 71.8195 33.8396 74.9995 35.6996 77.5095C38.0096 80.6295 42.6296 82.6495 47.4696 82.6495C48.7496 82.6495 49.9796 82.4995 51.0996 82.2195C50.7996 82.2395 50.4796 82.2495 50.1396 82.2495C47.7396 82.2495 44.1496 81.7195 40.6296 79.1695C38.2396 77.4395 36.9596 74.6395 37.1196 71.4795C37.2296 69.2295 38.0996 67.2195 39.3796 66.1495C36.9796 64.7995 34.9996 62.2295 33.8696 59.0095C32.5196 55.1495 32.6196 51.0195 34.1496 47.9495C36.0596 44.1095 40.3596 41.5295 44.8396 41.5295C46.4696 41.5295 48.0396 41.8595 49.5096 42.5195C51.8796 37.3695 56.5196 35.5295 60.1396 35.5295C62.2496 35.5295 64.2096 36.1095 65.8296 37.1995C70.6496 40.4595 73.2096 47.9895 73.2996 52.4395C76.1196 52.6295 79.7596 54.7995 81.0996 58.2095C82.1396 60.8595 82.1796 64.9895 77.4696 70.4695C82.2596 66.4395 84.5496 61.8495 83.8396 57.4695L83.8196 57.4795Z" fill="#915600"/>
<path d="M40.6204 35.3096C40.5404 35.3496 40.4904 35.4196 40.4604 35.4896C40.4104 35.5996 40.4104 35.7196 40.4604 35.8296C40.5304 35.9596 40.6604 36.0296 40.8004 36.0296C40.8604 36.0296 40.9304 36.0196 40.9904 35.9796C41.4904 35.7096 41.9004 35.4396 42.2404 35.1596C44.3604 33.4396 43.5704 31.6596 42.7904 29.9396C42.1104 28.4196 41.4004 26.8496 42.2904 24.9896C43.3404 22.7996 45.0704 22.4096 46.0004 22.3596C47.5604 22.2796 49.1504 23.0796 49.8704 24.2796C50.0604 24.5996 50.2404 25.0196 50.2704 25.5196C50.0504 24.9596 49.6804 24.5296 49.1704 24.2596C48.2104 23.7496 46.9704 23.9396 46.0804 24.7196C44.9704 25.6896 44.7104 27.2996 45.3904 29.0196C46.3704 31.4896 49.8204 31.9296 51.6904 31.9896C52.3704 32.0096 52.8404 31.9796 52.9004 31.9696C53.1104 31.9496 53.2704 31.7696 53.2604 31.5596C53.2404 31.3496 53.0704 31.1796 52.8404 31.2096C52.8404 31.2096 52.6704 31.2196 52.4104 31.2296C51.8504 31.2396 50.8304 31.2296 49.7504 31.0296C48.2504 30.7596 46.6504 30.1396 46.1104 28.7496C45.5404 27.3196 45.7204 26.0596 46.5904 25.2996C47.2304 24.7396 48.1404 24.5896 48.8004 24.9396C49.5404 25.3296 49.8704 26.2896 49.6804 27.5596C49.6504 27.7396 49.7604 27.9096 49.9304 27.9696C50.1004 28.0296 50.3004 27.9696 50.3904 27.8096C51.2104 26.4996 51.2604 25.0996 50.5304 23.8896C49.6604 22.4296 47.8204 21.5196 45.9604 21.5996C44.0704 21.6896 42.4704 22.7996 41.5804 24.6596C40.5404 26.8296 41.3604 28.6396 42.0704 30.2396C42.6404 31.4996 43.1004 32.5396 42.6104 33.5396C42.3204 34.1296 41.7104 34.6996 40.6104 35.2996L40.6204 35.3096Z" fill="#231F20"/>
<path d="M52.7804 62.0298C52.8504 62.0798 52.9204 62.0998 53.0004 62.0998C53.1204 62.0998 53.2404 62.0398 53.3204 61.9398C53.4404 61.7698 53.4005 61.5298 53.2205 61.4098C52.9705 61.2398 52.6705 60.6298 52.7905 59.8098C52.8905 59.1198 53.3704 57.8498 55.4304 57.1698C57.0904 56.6198 58.4904 56.7198 59.2604 57.4298C59.7404 57.8798 59.9304 58.5398 59.7504 59.1598C59.6904 59.3598 59.8104 59.5698 60.0204 59.6298C60.2304 59.6898 60.4404 59.5698 60.5004 59.3598C60.7504 58.4598 60.4804 57.5098 59.8004 56.8698C59.2204 56.3298 57.8504 55.5598 55.1904 56.4398C53.3904 57.0298 52.2404 58.2198 52.0304 59.6998C51.8904 60.6798 52.2004 61.6398 52.7804 62.0398V62.0298Z" fill="#231F20"/>
<path d="M57.23 60.0099C57.22 60.1999 57.36 60.3599 57.57 60.3699C57.75 60.3699 57.9 60.2399 57.93 60.0499C57.98 59.1799 58.45 58.8599 58.75 58.8599C58.78 58.8599 58.82 58.8599 58.82 58.8599C58.82 59.0499 58.98 59.2099 59.17 59.2099C59.36 59.2099 59.52 59.0599 59.52 58.8599C59.52 58.4699 59.21 58.1899 58.74 58.1699C58.18 58.1699 57.31 58.6599 57.23 60.0099Z" fill="#231F20"/>
<path d="M55.3703 61.0803C55.5103 61.2003 55.7503 61.1803 55.8603 61.0303C55.9203 60.9503 55.9503 60.8603 55.9303 60.7603C55.9203 60.6703 55.8703 60.5903 55.8003 60.5503C55.3803 60.2203 54.8803 60.0303 54.4003 60.0303C54.0803 60.0303 53.8003 60.1103 53.6003 60.2703C53.3503 60.4703 53.2703 60.7703 53.4103 61.0803C53.4803 61.1803 53.5903 61.2503 53.7203 61.2503C53.7803 61.2503 53.8403 61.2303 53.8703 61.2103C54.0303 61.1403 54.1003 60.9703 54.0503 60.7903C54.1103 60.7503 54.2303 60.7203 54.4003 60.7203C54.7303 60.7203 55.0803 60.8503 55.3703 61.0703V61.0803Z" fill="#231F20"/>
<path d="M61.6199 73.2899C61.7599 73.2899 61.8999 73.2999 62.0399 73.3099C62.1099 73.2599 62.1999 73.2199 62.3099 73.2199C63.2399 72.2199 64.5499 71.6799 66.1099 71.6799C67.6699 71.6799 69.0699 72.1699 69.9699 72.6999C71.7699 69.7299 72.0199 66.2899 71.9899 64.3799C70.5199 66.9099 67.0999 70.4899 61.8099 72.4799C57.7399 74.0199 54.3399 74.3399 52.2099 74.3399C50.9299 74.3399 49.7199 74.2299 48.6699 74.0099C51.2099 76.1499 53.4799 77.4299 55.7899 77.9999C56.2899 75.0399 59.0699 73.2799 61.6099 73.2799L61.6199 73.2899Z" fill="#E08A22"/>
<path d="M55.7304 78.4397C55.7404 78.2897 55.7704 78.1497 55.7904 78.0097C53.4804 77.4397 51.2004 76.1597 48.6704 74.0197C49.7204 74.2297 50.9304 74.3497 52.2104 74.3497C54.3404 74.3497 57.7404 74.0297 61.8104 72.4897C67.1004 70.4897 70.5104 66.9197 71.9904 64.3897C72.0204 66.2997 71.7704 69.7397 69.9704 72.7097C70.1004 72.7897 70.2304 72.8697 70.3404 72.9497C70.4804 73.0497 70.5204 73.2297 70.4604 73.3897C73.2304 69.0697 72.7704 63.7297 72.6804 62.9197C72.6504 62.9897 72.6304 63.0697 72.6004 63.1397C72.5404 63.2897 72.3904 63.3697 72.2404 63.3697C72.1904 63.3697 72.1404 63.3697 72.0904 63.3397C71.8904 63.2597 71.8004 63.0397 71.8804 62.8397C71.9004 62.7897 71.9204 62.7397 71.9404 62.6797C71.9404 62.6997 71.9204 62.7097 71.9104 62.7297C71.2704 64.6497 67.8904 69.3797 61.5304 71.7697C57.5704 73.2597 54.2804 73.5797 52.2104 73.5797C50.1404 73.5797 48.6604 73.2697 47.8004 73.0097C47.8904 73.0997 47.9504 73.2297 47.9204 73.3597C47.8804 73.5397 47.7204 73.6597 47.5404 73.6597C47.5104 73.6597 47.4804 73.6597 47.4604 73.6597C47.2704 73.6197 47.0804 73.5597 46.9004 73.4897C50.2104 76.5297 53.0704 78.2297 56.0304 78.8497C55.8404 78.8097 55.7104 78.6397 55.7304 78.4497V78.4397Z" fill="#231F20"/>
<path d="M70.2102 73.7598C70.2102 73.7598 70.1802 73.8098 70.1602 73.8298C70.1802 73.8098 70.1902 73.7798 70.2102 73.7598Z" fill="#231F20"/>
<path d="M68.7902 75.4297C68.7902 75.4297 68.7002 75.5197 68.6602 75.5597C68.7102 75.5197 68.7502 75.4697 68.7902 75.4297Z" fill="#231F20"/>
<path d="M67.53 76.4805C67.43 76.5505 67.32 76.6305 67.21 76.7005C67.32 76.6305 67.42 76.5605 67.53 76.4805Z" fill="#231F20"/>
<path d="M67.9697 76.1504C68.0597 76.0804 68.1397 76.0104 68.2197 75.9404C68.1397 76.0104 68.0497 76.0804 67.9697 76.1504Z" fill="#231F20"/>
<path d="M58.7404 79.1301C57.8504 79.1301 56.9704 79.0401 56.1104 78.8701C56.9704 79.0501 57.8404 79.1401 58.7304 79.1401C59.6204 79.1401 60.4503 79.0601 61.3503 78.9001C60.4503 79.0601 59.5904 79.1301 58.7404 79.1301Z" fill="#231F20"/>
<path d="M72.0897 63.3404C72.0897 63.3404 72.1897 63.3704 72.2397 63.3704C72.3897 63.3704 72.5397 63.2804 72.5997 63.1404C72.6297 63.0704 72.6597 62.9904 72.6797 62.9204C73.1197 61.6704 72.9697 60.1504 72.8997 59.6104C72.6897 59.5804 72.4897 59.5804 72.2897 59.6104C72.2297 59.6104 72.1797 59.6304 72.1197 59.6504C72.1797 60.0504 72.3597 61.5504 71.9397 62.7004C71.9197 62.7504 71.8997 62.8004 71.8797 62.8604C71.7997 63.0504 71.8897 63.2804 72.0897 63.3604V63.3404Z" fill="#231F20"/>
<path d="M72.9001 59.6004C73.4801 59.6804 74.0901 59.9804 74.7101 60.4904C74.8701 60.6204 75.1201 60.6004 75.2601 60.4404C75.4001 60.2804 75.3701 60.0404 75.2101 59.9004C74.1901 59.0704 73.1701 58.7104 72.1901 58.8404C70.8501 59.0204 70.1001 60.0504 70.0701 60.0904C69.9501 60.2604 69.9902 60.5004 70.1602 60.6204C70.2302 60.6704 70.3101 60.6904 70.3801 60.6904C70.5001 60.6904 70.6201 60.6304 70.7001 60.5304C70.7001 60.5304 71.2202 59.8304 72.1202 59.6304C72.1802 59.6204 72.2301 59.6004 72.2901 59.5904C72.4901 59.5604 72.6901 59.5604 72.9001 59.5904V59.6004Z" fill="#231F20"/>
<path d="M47.5403 73.6698C47.7203 73.6698 47.8803 73.5498 47.9203 73.3698C47.9503 73.2298 47.9003 73.0998 47.8003 73.0198C47.7503 72.9698 47.6903 72.9298 47.6203 72.9198C46.5103 72.6798 45.6003 71.7298 45.2003 71.2598C45.1003 71.3098 44.9903 71.3598 44.9003 71.4298C44.7803 71.5198 44.6703 71.6098 44.5703 71.7198C44.9503 72.1898 45.7903 73.0698 46.8903 73.4998C47.0703 73.5698 47.2503 73.6298 47.4503 73.6698C47.4803 73.6698 47.5103 73.6698 47.5303 73.6698H47.5403Z" fill="#231F20"/>
<path d="M44.9098 71.42C44.9998 71.35 45.1098 71.3 45.2098 71.25C45.7298 71.01 46.3898 70.99 47.1698 71.2C47.3798 71.26 47.5898 71.13 47.6398 70.93C47.6898 70.73 47.5698 70.52 47.3598 70.46C46.1898 70.16 45.2098 70.27 44.4598 70.8C43.2298 71.66 43.0898 73.28 43.0798 73.35C43.0598 73.56 43.2198 73.74 43.4398 73.76C43.4498 73.76 43.4598 73.76 43.4698 73.76C43.6698 73.76 43.8398 73.61 43.8598 73.41C43.8598 73.4 43.9498 72.4 44.5898 71.71C44.6898 71.61 44.7898 71.51 44.9198 71.42H44.9098Z" fill="#231F20"/>
<path d="M63.2298 75.6604C63.2298 75.6604 63.1898 75.6604 63.1798 75.6604H63.1598C62.8698 75.6604 62.6398 75.4504 62.6198 75.1804C62.6198 75.1804 62.5198 74.6804 61.9698 74.1104C61.9598 74.1004 61.9498 74.0804 61.9398 74.0704C61.8398 74.0704 61.7298 74.0604 61.6198 74.0604C59.7398 74.0604 56.9998 75.3404 56.5498 78.1704C58.8298 78.5804 61.1998 78.3404 63.8998 77.4504C66.2998 76.6604 68.2098 75.2904 69.5598 73.3504C68.7398 72.8704 67.3998 72.4404 66.1098 72.4404C65.1898 72.4404 63.9498 72.6604 62.9798 73.6204C63.5598 74.3104 63.6998 74.9604 63.6998 75.1004C63.7298 75.3404 63.5298 75.6104 63.2298 75.6504V75.6604Z" fill="#E81844"/>
<path d="M70.3303 72.9504C70.2203 72.8704 70.1003 72.7904 69.9603 72.7104C69.0603 72.1804 67.6003 71.6904 66.1003 71.6904C64.6003 71.6904 63.2303 72.2204 62.3003 73.2304C62.4703 73.2204 62.6703 73.2704 62.7703 73.4204C62.8403 73.4904 62.9003 73.5704 62.9703 73.6404C63.9403 72.6804 65.1803 72.4604 66.1003 72.4604C67.4003 72.4604 68.7403 72.8904 69.5503 73.3704C68.1903 75.3004 66.2903 76.6804 63.8903 77.4704C61.1903 78.3604 58.8203 78.5904 56.5403 78.1904C56.9903 75.3604 59.7303 74.0804 61.6103 74.0804C61.7203 74.0804 61.8203 74.0804 61.9303 74.0904C61.8503 73.9804 61.8103 73.8504 61.8203 73.7204C61.8303 73.5804 61.9003 73.4504 62.0103 73.3604C62.0103 73.3604 62.0303 73.3504 62.0403 73.3404C61.9003 73.3304 61.7703 73.3204 61.6203 73.3204C59.0803 73.3204 56.3003 75.0804 55.8003 78.0404C55.7803 78.1804 55.7503 78.3304 55.7403 78.4704C55.7203 78.6604 55.8503 78.8304 56.0403 78.8704C56.0603 78.8704 56.0803 78.8704 56.1103 78.8804C56.9703 79.0504 57.8503 79.1404 58.7403 79.1404C59.6303 79.1404 60.4603 79.0604 61.3503 78.9104C62.2503 78.7504 63.1803 78.5204 64.1503 78.2004C64.4703 78.0904 64.7803 77.9804 65.0903 77.8504C65.2303 77.7904 65.3603 77.7304 65.5003 77.6704C65.6603 77.6004 65.8203 77.5304 65.9703 77.4504C66.1203 77.3804 66.2603 77.2904 66.4103 77.2104C66.5403 77.1404 66.6703 77.0704 66.7903 76.9904C66.9403 76.9004 67.0803 76.8004 67.2303 76.7104C67.3403 76.6404 67.4403 76.5704 67.5503 76.4904C67.7003 76.3804 67.8403 76.2804 67.9803 76.1604C68.0603 76.0904 68.1503 76.0204 68.2303 75.9504C68.3803 75.8304 68.5303 75.7004 68.6703 75.5704C68.7203 75.5304 68.7603 75.4804 68.8003 75.4404C69.3003 74.9504 69.7603 74.4204 70.1703 73.8404C70.1903 73.8204 70.2003 73.7904 70.2203 73.7704C70.2903 73.6704 70.3703 73.5704 70.4403 73.4704C70.4503 73.4504 70.4603 73.4204 70.4703 73.4004C70.5303 73.2404 70.4903 73.0604 70.3503 72.9604L70.3303 72.9504Z" fill="#231F20"/>
<path d="M62.0099 73.3398C61.8999 73.4298 61.8399 73.5598 61.8199 73.6998C61.8099 73.8298 61.8499 73.9598 61.9299 74.0698C61.9399 74.0798 61.9499 74.0998 61.9599 74.1098C62.5099 74.6698 62.6099 75.1798 62.6099 75.1798C62.6299 75.4598 62.8599 75.6598 63.1499 75.6598H63.1699C63.1699 75.6598 63.2099 75.6598 63.2199 75.6598C63.5199 75.6198 63.7199 75.3598 63.6899 75.1098C63.6899 74.9698 63.5499 74.3198 62.9699 73.6298C62.9099 73.5598 62.8499 73.4798 62.7699 73.4098C62.6599 73.2698 62.4699 73.2098 62.2999 73.2198C62.1899 73.2198 62.0999 73.2598 62.0299 73.3098C62.0299 73.3098 62.0099 73.3198 61.9999 73.3298L62.0099 73.3398Z" fill="#231F20"/>
<path d="M55.8098 46.7201C55.6398 50.2501 58.3898 54.4001 60.4298 55.8201C61.3498 56.4601 62.5298 56.8101 63.7798 56.8101C65.6898 56.8101 67.4598 56.0301 68.5098 54.7201C69.4798 53.5101 69.7598 51.9401 69.3298 50.1701C68.0298 44.8501 62.9598 42.3701 59.9398 42.3701C59.2598 42.3701 58.6698 42.5001 58.2398 42.7401C56.7098 43.6001 55.8898 44.9501 55.7998 46.7401L55.8098 46.7201ZM60.1698 48.8301C60.4898 48.5701 60.8898 48.4601 61.3198 48.4801C61.5698 48.2901 61.9698 48.3701 62.2198 48.6601C62.2598 48.7001 62.2898 48.7501 62.3098 48.7901C62.5698 48.9401 62.8098 49.1401 63.0298 49.3901C63.8398 50.3401 63.8598 51.6101 63.0898 52.2501C62.3298 52.8901 61.0498 52.6301 60.2398 51.6901C59.4298 50.7401 59.3998 49.4601 60.1698 48.8301Z" fill="white"/>
<path d="M59.9803 56.4398C61.0303 57.1698 62.3703 57.5698 63.7703 57.5698C65.9203 57.5698 67.9103 56.6798 69.1103 55.1798C69.8903 54.1998 70.7003 52.5098 70.0803 49.9798C68.6803 44.2598 63.2003 41.5898 59.9403 41.5898C59.1203 41.5898 58.4003 41.7498 57.8603 42.0598C56.1103 43.0498 55.1303 44.6498 55.0303 46.6798C54.8603 50.2898 57.5003 54.7198 59.9803 56.4398ZM59.9503 42.3598C62.9703 42.3598 68.0403 44.8398 69.3403 50.1598C69.7703 51.9298 69.4903 53.4998 68.5203 54.7098C67.4703 56.0198 65.7003 56.7998 63.7903 56.7998C62.5503 56.7998 61.3603 56.4498 60.4403 55.8098C58.4003 54.3898 55.6503 50.2498 55.8203 46.7098C55.9103 44.9198 56.7303 43.5798 58.2603 42.7098C58.6903 42.4698 59.2703 42.3398 59.9603 42.3398L59.9503 42.3598Z" fill="#231F20"/>
<path d="M63.0799 52.2501C63.8499 51.6101 63.8199 50.3401 63.0199 49.3901C62.8099 49.1401 62.5599 48.9401 62.2999 48.7901C62.4599 49.0701 62.4399 49.3901 62.2299 49.5701C61.9899 49.7801 61.5799 49.7001 61.3199 49.4001C61.0599 49.0901 61.0499 48.6801 61.2899 48.4901C61.2899 48.4901 61.2899 48.4901 61.2999 48.4901C60.8799 48.4601 60.4699 48.5701 60.1499 48.8401C59.3899 49.4701 59.4099 50.7601 60.2199 51.7001C61.0199 52.6401 62.2999 52.9001 63.0699 52.2601L63.0799 52.2501ZM61.5999 51.7901C61.7199 51.6801 61.9199 51.7201 62.0599 51.8701C62.1899 52.0301 62.1999 52.2401 62.0699 52.3401C61.9399 52.4501 61.7399 52.4101 61.6099 52.2501C61.4799 52.0901 61.4699 51.8901 61.6099 51.7901H61.5999Z" fill="#231F20"/>
<path d="M61.3305 49.4C61.5905 49.7 62.0005 49.78 62.2405 49.57C62.4505 49.4 62.4705 49.08 62.3105 48.79C62.2805 48.74 62.2505 48.7 62.2205 48.66C61.9705 48.37 61.5705 48.29 61.3205 48.48C61.3205 48.48 61.3205 48.48 61.3105 48.48C61.0705 48.67 61.0805 49.08 61.3405 49.39L61.3305 49.4Z" fill="white"/>
<path d="M62.0704 52.3402C62.1904 52.2402 62.1904 52.0302 62.0604 51.8702C61.9204 51.7202 61.7204 51.6802 61.6004 51.7902C61.4704 51.8902 61.4704 52.1002 61.6004 52.2502C61.7304 52.4102 61.9304 52.4402 62.0604 52.3402H62.0704Z" fill="white"/>
<path d="M45.0204 64.6896C47.7604 64.6896 50.4804 62.4696 50.9504 59.8496C51.3804 57.4696 50.4404 53.2796 48.3704 50.8396C47.2504 49.5196 45.9404 48.8496 44.4804 48.8496C44.0504 48.8496 43.6004 48.9096 43.1504 49.0296C41.9704 49.3396 40.6904 50.7796 39.9104 52.6996C38.6504 55.7896 38.9004 59.2596 40.5704 61.9896C41.9504 64.2196 43.7504 64.6896 45.0104 64.6896H45.0204ZM44.5804 55.9996C44.5504 55.6196 44.7804 55.2796 45.1004 55.2496C45.3804 54.9396 45.7504 54.7396 46.1604 54.6996C47.1604 54.6196 48.0504 55.5496 48.1504 56.7896C48.2404 58.0096 47.5104 59.0796 46.5204 59.1496C45.5204 59.2296 44.6204 58.2896 44.5304 57.0696C44.5004 56.7496 44.5304 56.4396 44.6104 56.1596C44.6004 56.1096 44.5804 56.0496 44.5804 55.9896V55.9996Z" fill="white"/>
<path d="M45.02 65.4598C48.16 65.4598 51.17 62.9998 51.72 59.9898C52.18 57.4498 51.26 53.0498 48.97 50.3598C47.33 48.4398 45.22 47.7098 42.96 48.2998C41.53 48.6798 40.09 50.2598 39.2 52.4198C37.85 55.7298 38.12 59.4598 39.92 62.3898C41.14 64.3698 42.95 65.4598 45.03 65.4598H45.02ZM39.91 52.6998C40.69 50.7898 41.96 49.3498 43.15 49.0298C43.6 48.9098 44.05 48.8498 44.48 48.8498C45.93 48.8498 47.24 49.5198 48.37 50.8398C50.45 53.2798 51.38 57.4698 50.95 59.8498C50.47 62.4798 47.76 64.6898 45.02 64.6898C43.75 64.6898 41.95 64.2198 40.58 61.9898C38.9 59.2598 38.65 55.7798 39.92 52.6998H39.91Z" fill="#231F20"/>
<path d="M44.53 57.0701C44.62 58.3001 45.52 59.2301 46.52 59.1501C47.51 59.0801 48.24 58.0101 48.15 56.7901C48.05 55.5501 47.16 54.6201 46.16 54.7001C45.75 54.7301 45.38 54.9401 45.1 55.2501C45.41 55.2201 45.7 55.5301 45.73 55.9201C45.76 56.3101 45.53 56.6501 45.21 56.6701C44.94 56.6901 44.7 56.4801 44.61 56.1701C44.53 56.4501 44.5 56.7601 44.53 57.0801V57.0701ZM47.25 57.7801C47.41 57.7801 47.57 57.9201 47.57 58.1201C47.59 58.3201 47.47 58.5001 47.31 58.5101C47.15 58.5301 47.01 58.3801 46.99 58.1701C46.98 57.9801 47.09 57.8001 47.25 57.7801Z" fill="#231F20"/>
<path d="M45.2098 56.6602C45.5298 56.6402 45.7598 56.3002 45.7298 55.9102C45.6998 55.5202 45.4098 55.2202 45.0998 55.2402C44.7798 55.2702 44.5498 55.6002 44.5798 55.9902C44.5798 56.0502 44.5998 56.1002 44.6098 56.1602C44.6998 56.4702 44.9398 56.6802 45.2098 56.6602Z" fill="white"/>
<path d="M47.3099 58.5098C47.4699 58.4998 47.5899 58.3198 47.5699 58.1198C47.5699 57.9198 47.4099 57.7698 47.2499 57.7798C47.0899 57.7998 46.9799 57.9698 46.9899 58.1698C47.0099 58.3798 47.1499 58.5198 47.3099 58.5098Z" fill="white"/>
<path d="M93.1198 21.25C93.0098 21.25 92.8998 21.26 92.7998 21.28C93.4398 21.36 94.0498 21.53 94.5898 21.78C94.1498 21.41 93.5998 21.25 93.1298 21.25H93.1198Z" fill="white"/>
<path d="M96.36 24.5602C96.17 25.8102 95.35 26.5002 94.7 26.8602C94.42 27.0202 94.11 27.1302 93.79 27.2202C93.84 27.2302 93.89 27.2602 93.93 27.2902C94.06 27.4002 94.1 27.5902 94.03 27.7402C93.69 28.4402 93.96 29.0302 94.14 29.3202C94.63 30.0902 95.64 30.4302 96.43 30.0602C96.46 29.9702 96.51 29.8902 96.6 29.8402C96.81 29.7102 97.01 29.5502 97.2 29.3702L98.85 26.0502C98.91 25.7202 98.94 25.4102 98.94 25.1102C98.87 24.7902 98.44 23.2002 96.99 23.2002C96.75 23.2002 96.49 23.2402 96.22 23.3302C96.37 23.7102 96.42 24.1102 96.36 24.5402V24.5602Z" fill="#FFE1AB"/>
<path d="M97.2305 30.3596C97.2905 31.2996 97.7905 31.8796 98.5605 31.8796C99.4105 31.8796 100.54 31.1396 101.18 29.4896C101.67 28.2196 101.61 26.9596 101.02 26.1296C100.68 25.6396 100.19 25.3796 99.7105 25.4096C99.6105 27.1396 98.7005 29.3096 97.2305 30.3496V30.3596Z" fill="#FFE1AB"/>
<path d="M92.6104 27.4003C92.6504 27.4703 92.6904 27.5403 92.7304 27.6103C92.9404 27.5503 93.1603 27.4603 93.3803 27.3203C93.1203 27.3703 92.8604 27.4003 92.6104 27.4003Z" fill="white"/>
<path d="M100.66 31.7002C101.15 31.2202 101.58 30.5802 101.88 29.8202C101.88 29.8002 101.9 29.7802 101.91 29.7602C102 29.5402 102.06 29.3102 102.12 29.0902C102.44 27.8102 102.29 26.5802 101.67 25.7002C101.16 24.9702 100.4 24.5902 99.6301 24.6502C99.3001 23.5702 98.4602 22.4602 97.0002 22.4602C96.6902 22.4602 96.3601 22.5102 96.0201 22.6202C95.5601 21.1502 94.2801 20.4902 93.1301 20.4902C92.3501 20.4902 91.6302 20.7802 91.1602 21.2802C91.7102 21.2102 92.2702 21.2202 92.8102 21.2802C92.9102 21.2702 93.0201 21.2502 93.1301 21.2502C93.6101 21.2502 94.1501 21.4002 94.5901 21.7802C94.9501 21.9502 95.2802 22.1602 95.5502 22.4102C95.8602 22.6902 96.0902 23.0102 96.2302 23.3602C96.5002 23.2802 96.7602 23.2302 97.0002 23.2302C98.4502 23.2302 98.8801 24.8202 98.9501 25.1402C98.9501 25.1302 98.9501 25.1202 98.9501 25.1102C98.9501 24.9002 99.1201 24.7302 99.3401 24.7302C99.5601 24.7302 99.7302 24.9002 99.7302 25.1102C99.7302 25.2102 99.7302 25.3202 99.7202 25.4302C100.2 25.4002 100.69 25.6602 101.03 26.1502C101.61 26.9802 101.67 28.2402 101.19 29.5102C100.56 31.1602 99.4202 31.9002 98.5702 31.9002C97.8002 31.9002 97.3002 31.3202 97.2402 30.3802C97.1702 30.4302 97.1001 30.4802 97.0201 30.5302C96.9601 30.5702 96.8902 30.5902 96.8202 30.5902C96.6902 30.5902 96.5602 30.5302 96.4902 30.4102C96.4302 30.3202 96.4201 30.2102 96.4501 30.1102C95.6601 30.4702 94.6502 30.1402 94.1602 29.3702C93.9702 29.0802 93.7102 28.4802 94.0502 27.7902C94.1302 27.6302 94.0901 27.4502 93.9501 27.3402C93.9101 27.3102 93.8602 27.2802 93.8102 27.2702C93.6702 27.3102 93.5302 27.3402 93.3902 27.3602C93.1702 27.4902 92.9502 27.5902 92.7402 27.6502C92.8602 27.8802 92.9702 28.1102 93.0602 28.3602C93.0802 28.3602 93.1002 28.3602 93.1202 28.3502C93.1202 28.3702 93.1202 28.3902 93.1202 28.4102C93.1202 28.4602 93.1202 28.5102 93.1202 28.5602C93.2002 28.8302 93.2602 29.1002 93.3002 29.3802C93.3602 29.5202 93.4202 29.6502 93.5102 29.7902C94.1602 30.8002 95.4602 31.2902 96.5302 30.9202C96.7302 31.8702 97.3202 32.4102 97.9902 32.6002C98.1802 32.6602 98.3802 32.6902 98.5702 32.6902C98.6502 32.6902 98.7302 32.6902 98.8102 32.6802C99.2201 32.6402 99.6202 32.5002 100 32.2702C100.24 32.1302 100.46 31.9502 100.68 31.7502L100.66 31.7002Z" fill="#231F20"/>
<path d="M98.8502 26.0596L97.2002 29.3796C98.0502 28.5496 98.6302 27.2496 98.8502 26.0596Z" fill="white"/>
<path d="M97.2004 29.3802C97.0104 29.5602 96.8104 29.7302 96.6004 29.8502C96.5104 29.9002 96.4604 29.9802 96.4304 30.0702C96.4004 30.1702 96.4104 30.2802 96.4704 30.3702C96.5404 30.4902 96.6704 30.5502 96.8004 30.5502C96.8704 30.5502 96.9404 30.5302 97.0004 30.4902C97.0704 30.4402 97.1504 30.3902 97.2204 30.3402C98.6904 29.3002 99.6004 27.1302 99.7004 25.4002C99.7004 25.2902 99.7104 25.1802 99.7104 25.0802C99.7104 24.8702 99.5404 24.7002 99.3204 24.7002C99.1004 24.7002 98.9304 24.8702 98.9304 25.0802C98.9304 25.0902 98.9304 25.1002 98.9304 25.1102C98.9304 25.4002 98.9004 25.7202 98.8404 26.0502C98.6204 27.2402 98.0404 28.5402 97.1904 29.3702L97.2004 29.3802Z" fill="#231F20"/>
<path d="M96.51 30.8805C95.44 31.2505 94.14 30.7605 93.49 29.7505C93.41 29.6205 93.34 29.4805 93.28 29.3405C93.31 29.5705 93.32 29.8005 93.32 30.0205C93.3 30.9705 92.99 31.7605 92.44 32.2505C92.37 32.3205 92.27 32.3505 92.18 32.3505C92.07 32.3505 91.97 32.3105 91.89 32.2305C91.82 32.1505 91.79 32.0505 91.79 31.9605C91.79 31.8605 91.84 31.7605 91.92 31.6905C92.3 31.3505 92.53 30.7305 92.55 30.0105C92.57 28.9305 92.15 27.8405 91.44 27.1505C91.31 27.0205 91.29 26.8205 91.39 26.6705C91.49 26.5205 91.69 26.4605 91.86 26.5305C92.4 26.7505 93.47 26.6905 94.33 26.2105C94.83 25.9305 95.46 25.4005 95.61 24.4605C95.69 23.9005 95.5 23.4005 95.03 22.9805C94.09 22.1305 92.25 21.7805 90.66 22.1505C89.62 22.4005 87.34 23.4305 86.21 25.5505C85.31 27.2405 85.3 29.2805 86.21 31.6105C86.23 31.6605 86.24 31.7105 86.24 31.7605H86.27C86.48 32.4905 86.76 33.2605 87.13 34.0905C87.21 34.2705 87.29 34.4605 87.37 34.6605C88.94 35.6005 90.17 37.0105 91.07 38.6705C91.15 38.3105 91.22 37.9405 91.27 37.5705C91.29 37.4205 91.4 37.2905 91.55 37.2505C91.7 37.2105 91.86 37.2605 91.96 37.3805C92.82 38.4605 93.44 40.2405 93.77 41.3805C94.03 40.7905 94.39 40.0205 94.76 39.2505C94.71 38.7605 94.66 38.2805 94.61 37.8405C94.5 36.8105 94.4 35.9205 94.4 35.1405C94.4 35.0405 94.44 34.9405 94.52 34.8705C94.6 34.8005 94.7 34.7605 94.8 34.7605H94.9C96.2 34.7605 97.33 33.9305 98 32.5905C97.33 32.3905 96.73 31.8605 96.54 30.9105L96.51 30.8805Z" fill="#FFE1AB"/>
<path d="M85.9699 32.0903C86.1199 32.0303 86.2099 31.9003 86.2199 31.7503C86.2199 31.7003 86.2199 31.6503 86.1899 31.6003C85.2899 29.2703 85.2899 27.2303 86.1899 25.5403C87.3199 23.4203 89.5999 22.3903 90.6399 22.1403C92.2299 21.7703 94.0699 22.1203 95.0099 22.9703C95.4799 23.3903 95.6699 23.8903 95.5899 24.4503C95.4399 25.4003 94.8099 25.9303 94.3099 26.2003C93.4499 26.6803 92.3799 26.7403 91.8399 26.5203C91.6699 26.4503 91.4699 26.5103 91.3699 26.6603C91.2699 26.8103 91.2899 27.0103 91.4199 27.1403C92.1299 27.8303 92.5499 28.9303 92.5299 30.0003C92.5199 30.7303 92.2899 31.3403 91.8999 31.6803C91.8199 31.7503 91.7799 31.8503 91.7699 31.9503C91.7699 32.0503 91.7999 32.1403 91.8699 32.2203C91.9499 32.3003 92.0499 32.3403 92.1599 32.3403C92.2499 32.3403 92.3499 32.3103 92.4199 32.2403C92.9699 31.7503 93.2799 30.9603 93.2999 30.0103C93.2999 29.7803 93.2999 29.5503 93.2599 29.3303C93.2299 29.0503 93.1599 28.7803 93.0799 28.5103C93.0599 28.4503 93.0399 28.3903 93.0199 28.3203C93.0199 28.3203 93.0199 28.3203 93.0199 28.3103C92.9299 28.0603 92.8299 27.8203 92.6999 27.6003C92.6599 27.5303 92.6299 27.4603 92.5799 27.3903C92.8299 27.3903 93.0899 27.3603 93.3499 27.3103C93.4899 27.2803 93.6299 27.2503 93.7699 27.2203C94.0899 27.1303 94.3999 27.0103 94.6799 26.8603C95.3299 26.5003 96.1499 25.8103 96.3399 24.5603C96.4099 24.1303 96.3599 23.7303 96.1999 23.3503C96.0599 23.0103 95.8299 22.6903 95.5199 22.4003C95.2499 22.1503 94.9199 21.9403 94.5599 21.7703C94.0299 21.5203 93.4199 21.3503 92.7699 21.2703C92.2299 21.2003 91.6699 21.2003 91.1199 21.2703C90.8899 21.3003 90.6599 21.3403 90.4399 21.3903C90.3099 21.4203 90.1699 21.4603 90.0199 21.5103C89.7699 21.5903 89.4899 21.7003 89.1899 21.8303C88.5599 22.1203 87.8599 22.5303 87.2099 23.0803C87.0199 23.2403 86.8199 23.4203 86.6399 23.6103C86.1999 24.0603 85.8099 24.5803 85.4899 25.1803C84.4799 27.0803 84.4599 29.3303 85.4499 31.8703C85.4499 31.8803 85.4699 31.8903 85.4699 31.9103C85.5599 32.0803 85.7599 32.1603 85.9499 32.0903H85.9699Z" fill="#231F20"/>
</svg>
