<svg width="147" height="69" viewBox="0 0 147 69" fill="none" xmlns="http://www.w3.org/2000/svg">
<path d="M85.3801 54.7197C85.8201 55.3797 86.5301 55.7997 87.3801 55.9297C87.3501 55.7397 87.3801 55.5297 87.5001 55.3097C87.8001 54.7397 88.6501 54.1097 89.3401 54.1097C89.5801 54.1097 89.7901 54.1897 89.9401 54.3397C90.0601 54.4597 90.1601 54.6097 90.2501 54.7897C90.3001 54.6397 90.4501 54.5497 90.6101 54.5797C90.7401 54.6097 90.8701 54.6297 91.0001 54.6497C91.0001 54.6397 90.9801 54.6197 90.9701 54.6097C90.7801 54.3297 90.7901 53.9797 90.9901 53.5997C91.3401 52.9497 92.3201 52.2197 93.1101 52.2197C93.3001 52.2197 93.4801 52.2697 93.6201 52.3597C93.6201 52.3397 93.6401 52.3197 93.6501 52.2997C93.8601 51.9097 94.3801 51.4797 94.8801 51.3297C94.2901 50.4297 93.0201 49.3697 91.5501 48.6097C91.4601 48.5597 91.4001 48.4797 91.3801 48.3797L91.3601 48.2597C91.3601 48.2597 91.3601 48.1997 91.3501 48.1797C88.4401 50.1697 85.1701 51.7297 81.5801 52.8397C82.2701 53.4597 83.2801 53.9797 85.2401 54.5897C85.3101 54.6097 85.3701 54.6597 85.4101 54.7097L85.3801 54.7197Z" fill="#208200"/>
<path d="M87.4804 56.2204C87.4204 56.1304 87.3903 56.0403 87.3803 55.9403C86.5403 55.8103 85.8203 55.3904 85.3803 54.7304C85.3403 54.6704 85.2804 54.6304 85.2104 54.6104C83.2503 53.9904 82.2404 53.4704 81.5504 52.8604C81.3204 52.9304 81.0904 53.0004 80.8604 53.0604C81.6004 53.8204 82.6704 54.4604 84.9104 55.1804C85.5504 56.0704 86.6003 56.5903 87.8103 56.6203C87.6803 56.5003 87.5604 56.3704 87.4704 56.2404L87.4804 56.2204Z" fill="#231F20"/>
<path d="M90.9805 54.6597C90.8505 54.6397 90.7305 54.6197 90.5905 54.5897C90.4305 54.5597 90.2805 54.6497 90.2305 54.7997C90.3505 55.0397 90.4405 55.3097 90.5005 55.5997C90.5905 55.4897 90.6705 55.3797 90.7305 55.2597C91.0805 55.3197 91.4105 55.3497 91.7105 55.3597C91.4205 55.1597 91.1605 54.9297 90.9805 54.6597Z" fill="#231F20"/>
<path d="M91.3301 48.1795C91.3301 48.1795 91.3301 48.2395 91.3401 48.2595L91.3601 48.3795C91.3701 48.4795 91.4401 48.5595 91.5301 48.6095C93.0001 49.3795 94.2701 50.4395 94.8601 51.3295C94.9801 51.2895 95.1001 51.2695 95.2201 51.2695C95.3701 51.2695 95.5001 51.3095 95.6101 51.3695C95.0301 50.1795 93.4501 48.9295 91.9601 48.1295C91.9401 48.0195 91.9201 47.8995 91.9001 47.7695C91.7101 47.9095 91.5201 48.0395 91.3301 48.1695V48.1795Z" fill="#231F20"/>
<path d="M89.8904 56.8902C89.8904 56.8902 89.9604 56.7702 89.9704 56.4902C90.0004 55.8802 89.7704 55.0702 89.4904 54.7902C89.4604 54.7602 89.4104 54.7402 89.3404 54.7402C88.9404 54.7402 88.2804 55.1802 88.0604 55.6102C88.0304 55.6602 87.9704 55.8002 88.0104 55.8702C88.4004 56.4502 89.5304 56.8902 89.8804 56.8902V57.2002L89.9004 56.8902H89.8904Z" fill="white"/>
<path d="M90.2402 54.8001C90.1502 54.6201 90.0502 54.4701 89.9302 54.3501C89.7802 54.2001 89.5702 54.1201 89.3302 54.1201C88.6402 54.1201 87.7902 54.7501 87.4902 55.3201C87.3702 55.5401 87.3402 55.7501 87.3702 55.9401C87.3902 56.0401 87.4202 56.1401 87.4702 56.2201C87.5602 56.3601 87.6802 56.4801 87.8102 56.6001C88.4402 57.1701 89.4202 57.5101 89.8602 57.5101C89.9202 57.5101 89.9702 57.5101 90.0202 57.4901C90.1902 57.4501 90.4102 57.3101 90.5202 56.9201C90.6102 56.5801 90.6002 56.0801 90.5002 55.5901C90.4402 55.3101 90.3502 55.0301 90.2302 54.7901L90.2402 54.8001ZM89.8702 57.2001V56.8901C89.5302 56.8901 88.3902 56.4501 88.0002 55.8701C87.9502 55.8001 88.0202 55.6701 88.0502 55.6101C88.2702 55.1901 88.9302 54.7401 89.3302 54.7401C89.4002 54.7401 89.4502 54.7501 89.4802 54.7901C89.7602 55.0701 89.9902 55.8801 89.9602 56.4901C89.9502 56.7601 89.8802 56.8801 89.8802 56.8901L89.8602 57.2001H89.8702Z" fill="#231F20"/>
<path d="M95.67 53.6102C95.8 53.4402 95.67 52.2802 95.31 51.9302C95.29 51.9102 95.24 51.9102 95.22 51.9102C94.9 51.9102 94.36 52.2802 94.18 52.6102C94.13 52.7002 94.13 52.7602 94.14 52.7802C94.46 53.2502 95.38 53.6102 95.66 53.6102H95.67Z" fill="white"/>
<path d="M94.8596 51.3403C94.3496 51.4903 93.8396 51.9203 93.6296 52.3103C93.6196 52.3303 93.6096 52.3503 93.5996 52.3703C93.6496 52.4003 93.6996 52.4403 93.7496 52.4903C94.0396 52.7803 94.2596 53.2703 94.3796 53.8003C94.8596 54.0803 95.3896 54.2403 95.6596 54.2403C95.7196 54.2403 95.7696 54.2403 95.8096 54.2203C95.9396 54.1903 96.1696 54.0803 96.2696 53.7103C96.4296 53.1203 96.2196 51.9603 95.7496 51.4903C95.7096 51.4503 95.6496 51.4103 95.5996 51.3803C95.4896 51.3203 95.3596 51.2803 95.2096 51.2803C95.0896 51.2803 94.9696 51.3103 94.8496 51.3403H94.8596ZM95.6596 53.9203V53.6103C95.3796 53.6103 94.4496 53.2503 94.1396 52.7803C94.1296 52.7603 94.1396 52.7003 94.1796 52.6103C94.3596 52.2803 94.8996 51.9103 95.2196 51.9103C95.2496 51.9103 95.2896 51.9103 95.3096 51.9303C95.6596 52.2803 95.7996 53.4403 95.6696 53.6103V53.9203H95.6596Z" fill="#231F20"/>
<path d="M93.3098 52.9304C93.3098 52.9304 93.1898 52.8604 93.0898 52.8604C92.5998 52.8604 91.7998 53.4004 91.5298 53.9104C91.4698 54.0204 91.4098 54.1704 91.4798 54.2704C91.9498 54.9804 93.2898 55.4904 93.7198 55.4904H93.7498C93.7498 55.4904 93.8098 55.4504 93.8498 55.3004C94.0298 54.6504 93.7398 53.3403 93.3198 52.9203L93.3098 52.9304Z" fill="white"/>
<path d="M93.75 52.4905C93.75 52.4905 93.66 52.4105 93.6 52.3705C93.46 52.2805 93.28 52.2305 93.09 52.2305C92.3 52.2305 91.32 52.9605 90.97 53.6105C90.77 53.9805 90.77 54.3405 90.95 54.6205C90.95 54.6305 90.97 54.6505 90.98 54.6605C91.16 54.9205 91.42 55.1605 91.71 55.3605C92.41 55.8405 93.28 56.1205 93.7 56.1205C93.77 56.1205 93.83 56.1205 93.88 56.1005C94.06 56.0505 94.31 55.9105 94.43 55.4705C94.55 55.0405 94.52 54.4005 94.37 53.7905C94.24 53.2705 94.03 52.7805 93.74 52.4805L93.75 52.4905ZM93.84 55.3005C93.8 55.4405 93.75 55.4805 93.74 55.4905H93.71C93.28 55.4905 91.94 54.9805 91.47 54.2705C91.4 54.1705 91.47 54.0205 91.52 53.9105C91.79 53.4005 92.6 52.8605 93.08 52.8605C93.18 52.8605 93.25 52.8805 93.3 52.9305C93.72 53.3505 94.01 54.6605 93.83 55.3105L93.84 55.3005Z" fill="#231F20"/>
<path d="M38.3496 49.8598C38.4196 49.8798 38.4796 49.9298 38.5196 49.9798C38.9596 50.6398 39.6696 51.0598 40.5196 51.1898C40.4896 50.9998 40.5196 50.7898 40.6396 50.5698C40.7796 50.2998 41.0496 50.0198 41.3596 49.7998C37.9896 48.4698 35.0696 46.9998 32.8096 45.5498C33.0296 45.8698 33.2196 46.1598 33.3996 46.4298C34.3996 47.9798 34.9096 48.7598 38.3596 49.8498L38.3496 49.8598Z" fill="#208200"/>
<path d="M40.6204 51.4897C40.5604 51.3997 40.5304 51.3097 40.5204 51.1997C39.6804 51.0697 38.9604 50.6497 38.5204 49.9897C38.4804 49.9297 38.4204 49.8897 38.3504 49.8697C34.9004 48.7797 34.4004 48.0097 33.3904 46.4497C33.2104 46.1797 33.0204 45.8797 32.8004 45.5697C32.2004 45.1897 31.6504 44.7997 31.1504 44.4297C31.2904 44.6097 31.4304 44.7897 31.5604 44.9597L31.6904 45.1297C32.1904 45.7697 32.5504 46.3197 32.8604 46.8097C33.8704 48.3697 34.4804 49.3097 38.0504 50.4497C38.6904 51.3397 39.7304 51.8597 40.9404 51.8897C40.8104 51.7697 40.6904 51.6497 40.6004 51.5097L40.6204 51.4897Z" fill="#231F20"/>
<path d="M43.6398 50.8604C43.6398 50.8604 43.7198 50.7604 43.7498 50.7104C43.6998 50.6904 43.6398 50.6704 43.5898 50.6504C43.6098 50.7204 43.6198 50.7904 43.6398 50.8604Z" fill="#231F20"/>
<path d="M41.1903 50.8801C41.1603 50.9301 41.1003 51.0701 41.1403 51.1401C41.5203 51.7201 42.6603 52.1601 43.0103 52.1601V52.4701L43.0303 52.1601C43.0303 52.1601 43.0903 52.0401 43.1103 51.7701C43.1303 51.3201 43.0203 50.7601 42.8403 50.3901C42.6003 50.3001 42.3503 50.2101 42.1103 50.1201C41.7503 50.2701 41.3603 50.5901 41.2003 50.8901L41.1903 50.8801Z" fill="white"/>
<path d="M42.8301 50.3796C43.0101 50.7596 43.1301 51.3096 43.1001 51.7596C43.0901 52.0296 43.0201 52.1496 43.0201 52.1496L43.0001 52.4596V52.1496C42.6501 52.1496 41.5101 51.7096 41.1301 51.1296C41.0801 51.0596 41.1501 50.9296 41.1801 50.8696C41.3401 50.5596 41.7401 50.2496 42.0901 50.0996C41.8401 49.9996 41.5901 49.9096 41.3401 49.8096C41.0301 50.0296 40.7601 50.3096 40.6201 50.5796C40.5001 50.7996 40.4701 51.0096 40.5001 51.1996C40.5201 51.2996 40.5501 51.3996 40.6001 51.4896C40.6901 51.6296 40.8101 51.7496 40.9401 51.8696C41.5701 52.4396 42.5601 52.7896 42.9901 52.7896C43.0501 52.7896 43.1001 52.7896 43.1501 52.7696C43.3201 52.7296 43.5401 52.5896 43.6501 52.1896C43.7401 51.8496 43.7301 51.3496 43.6201 50.8596C43.6101 50.7896 43.5901 50.7196 43.5701 50.6496C43.3101 50.5596 43.0601 50.4596 42.8101 50.3696L42.8301 50.3796Z" fill="#231F20"/>
<path d="M11.9901 37.0698C12.0701 36.4198 12.2501 35.7798 12.5401 35.1698C12.5601 35.1298 12.5801 35.0998 12.6001 35.0598C9.36008 34.1498 6.35008 32.7398 4.08008 30.5498C6.15008 33.2998 8.96008 35.4298 12.0001 37.0698H11.9901Z" fill="#208200"/>
<path d="M73.0598 48.3297C72.6898 50.2997 70.8598 52.6097 67.5498 53.3697C67.7298 53.6697 67.8798 53.9497 68.0298 54.2297C77.1198 54.1097 85.0098 51.8097 91.1698 47.5297C87.7398 47.5097 85.2598 46.9197 83.5798 45.7097C82.9698 45.2697 82.4198 44.7697 81.9398 44.2197C79.1798 46.0297 76.2198 47.3997 73.0498 48.3397L73.0598 48.3297Z" fill="#208200"/>
<path d="M32.0096 39.4297C31.4996 40.3997 30.6096 41.3297 29.3896 41.9897C32.2696 45.2897 40.5696 49.5597 50.6596 52.0897C50.1396 50.7497 49.8096 49.3797 49.7996 48.0497C42.4796 46.0497 36.0496 42.6497 32.0096 39.4397V39.4297Z" fill="#208200"/>
<path d="M0.05 21.5298C0.03 21.2098 0.01 20.8998 0 20.5898C0 20.8998 0.02 21.2198 0.05 21.5298Z" fill="#231F20"/>
<path d="M50.21 6.07961C50.39 5.99961 50.56 5.92961 50.73 5.84961C50.56 5.91961 50.39 5.98961 50.21 6.07961Z" fill="#231F20"/>
<path d="M91.33 47.5295C91.28 47.5295 91.23 47.5295 91.18 47.5295C85.01 51.8195 77.13 54.1095 68.04 54.2295C68.15 54.4395 68.26 54.6495 68.36 54.8495C72.84 54.7695 77.04 54.1495 80.88 53.0395C81.11 52.9695 81.34 52.9095 81.57 52.8395C85.16 51.7295 88.44 50.1695 91.34 48.1795C91.53 48.0495 91.72 47.9095 91.91 47.7795C92.03 47.6895 92.15 47.6095 92.27 47.5195C91.95 47.5195 91.64 47.5295 91.33 47.5295Z" fill="#231F20"/>
<path d="M11.9898 37.0703C8.9498 35.4403 6.1398 33.3003 4.0698 30.5503C1.8498 28.4003 0.339805 25.4803 0.0498047 21.5303C0.609805 29.1403 5.6898 34.4303 11.9398 37.7903C11.9398 37.5503 11.9598 37.3103 11.9898 37.0703Z" fill="#231F20"/>
<path d="M50.6596 52.0805C40.5796 49.5505 32.2696 45.2805 29.3896 41.9805C29.0796 42.1505 28.7396 42.3005 28.3896 42.4205C28.5896 42.4305 28.7796 42.4405 28.9796 42.4505C29.5396 43.0805 30.2796 43.7405 31.1696 44.4105C31.6696 44.7905 32.2196 45.1705 32.8196 45.5505C35.0796 47.0005 37.9996 48.4705 41.3696 49.8005C41.6196 49.9005 41.8596 49.9905 42.1196 50.0905C42.3596 50.1805 42.5996 50.2705 42.8496 50.3605C43.0996 50.4505 43.3596 50.5505 43.6096 50.6405C43.6596 50.6605 43.7196 50.6805 43.7696 50.7005C46.0296 51.5005 48.4597 52.2205 50.9897 52.8305C50.8797 52.5805 50.7696 52.3205 50.6696 52.0705L50.6596 52.0805Z" fill="#231F20"/>
<path d="M78.2902 19.3201C78.3002 19.4201 78.2701 19.5101 78.2001 19.5801C78.1402 19.6401 78.0602 19.6701 77.9802 19.6701C77.9702 19.6701 77.9502 19.6701 77.9402 19.6701L72.4002 18.9801C72.2302 18.9601 72.1102 18.8101 72.1301 18.6401C72.1501 18.4001 72.2102 17.9001 72.3002 17.3001C70.5902 17.0601 68.8102 16.8501 66.9702 16.7001C67.0702 17.0201 67.1601 17.3501 67.2402 17.6801C67.2601 17.7701 67.2402 17.8701 67.1802 17.9501C67.1202 18.0201 67.0302 18.0701 66.9402 18.0701L60.3202 17.9601C60.1502 17.9601 60.0102 17.8201 60.0102 17.6501C60.0102 17.4101 60.0102 16.9701 60.0302 16.4101C58.4202 16.4101 56.8102 16.4601 55.2202 16.5601C55.4102 17.0301 55.5802 17.5101 55.7202 18.0101C55.7502 18.1001 55.7202 18.2001 55.6702 18.2801C55.6102 18.3601 55.5202 18.4001 55.4302 18.4101L48.8102 18.5801C48.6402 18.5801 48.5102 18.4501 48.5002 18.2801C48.4902 18.0801 48.4702 17.7101 48.4702 17.2601C46.9102 17.4601 45.4202 17.6601 43.9902 17.8501C43.9702 17.8501 43.9502 17.8501 43.9202 17.8501C43.9702 17.9601 44.0302 18.0701 44.0802 18.1801C44.1202 18.2701 44.1202 18.3701 44.0702 18.4501C44.0202 18.5401 43.9402 18.5901 43.8502 18.6101L38.4802 19.5201C38.4802 19.5201 38.4402 19.5201 38.4302 19.5201C38.2802 19.5201 38.1502 19.4201 38.1202 19.2701C38.0902 19.1301 38.0502 18.9101 38.0002 18.6201C36.2202 18.8501 34.5802 19.0401 33.0702 19.2001C33.0702 19.2301 33.0902 19.2601 33.1002 19.2901C33.1302 19.3801 33.1102 19.4801 33.0602 19.5601C33.0002 19.6401 32.9102 19.6901 32.8202 19.6901L28.3402 19.8901C28.3402 19.8901 28.3402 19.8901 28.3302 19.8901C28.1702 19.8901 28.0302 19.7701 28.0202 19.6001C27.3302 19.6301 26.6602 19.6501 26.0402 19.6501C24.6302 19.6501 23.4002 19.5601 22.3302 19.3801C22.3102 19.4301 22.2802 19.4801 22.2302 19.5101C22.1802 19.5501 22.1102 19.5701 22.0502 19.5701C22.0202 19.5701 21.9902 19.5701 21.9602 19.5601L18.7802 18.5701C18.6202 18.5201 18.5302 18.3501 18.5702 18.1901C18.5902 18.1201 18.6202 18.0301 18.6402 17.9501C17.4902 17.0801 16.7602 15.8601 16.3202 14.2101C16.0802 13.3001 16.1902 12.5301 16.6602 11.9201C17.4302 10.9201 19.1102 10.4101 21.6502 10.4101C23.5802 10.4101 25.9402 10.7101 28.1202 11.2501C31.2702 12.0101 34.4502 12.4001 37.5602 12.4001C43.7902 12.4001 49.1902 10.8301 52.3802 8.09012C54.2002 6.53012 54.4502 5.79012 54.3902 5.64012C54.3802 5.60012 54.2702 5.55012 54.0102 5.55012C53.6102 5.55012 52.6302 5.69012 50.5002 6.65012C48.8902 7.37012 46.6302 8.20012 43.3902 8.20012C39.2502 8.20012 34.1902 6.86012 27.9102 4.09012C25.3302 2.95012 22.5702 2.37012 19.6902 2.37012C14.0402 2.37012 8.72016 4.60012 5.12016 8.48012C1.84016 11.9901 0.310155 16.4901 0.680155 21.4801C1.25016 29.2401 6.59016 32.8301 12.8802 34.5401C14.5702 31.7701 18.1302 30.1501 19.8802 30.3301C20.9502 29.2401 23.0202 29.1701 24.5502 29.1301C24.9002 29.1201 25.2102 29.1101 25.4602 29.0901C25.7502 29.0601 26.0402 29.0501 26.3102 29.0501C28.2402 29.0501 29.7602 29.6701 30.8302 30.9001C32.9702 33.3501 32.5702 37.2401 32.4702 38.0001C32.4302 38.2701 32.3602 38.5601 32.2602 38.8401C36.2002 42.0201 42.5602 45.4001 49.8202 47.4101C49.8902 46.5801 50.0802 45.7601 50.4602 44.9801C52.1502 41.4401 56.6102 39.3301 58.7302 39.5401C59.9402 38.2901 62.4902 38.2001 64.2002 38.1501C64.5902 38.1401 64.9402 38.1301 65.2202 38.1001C65.5502 38.0701 65.8701 38.0601 66.1702 38.0601C68.3302 38.0601 70.0402 38.7601 71.2502 40.1401C73.3602 42.5501 73.2701 46.2201 73.1402 47.6601C76.1202 46.7501 78.9202 45.4401 81.5302 43.7401C80.1402 41.9301 79.4101 39.6801 79.4902 37.2501C79.5702 34.6601 80.5501 32.1901 82.1002 30.4701C81.1502 28.5401 80.5201 26.0901 80.2001 23.1301C80.0401 21.6101 80.0202 20.1501 80.1502 18.7801C79.4902 18.6301 78.8102 18.4801 78.1102 18.3301C78.1802 18.6601 78.2402 18.9901 78.2802 19.3301L78.2902 19.3201ZM19.1502 6.51012C19.2202 6.44012 19.3202 6.40012 19.4202 6.41012L22.0502 6.73012C22.1402 6.74012 22.2102 6.79012 22.2702 6.86012C22.3202 6.93012 22.3402 7.02012 22.3202 7.10012C22.2902 7.26012 21.9802 8.68012 21.0902 8.68012C20.2502 8.68012 19.2902 7.78012 19.0802 6.79012C19.0602 6.69012 19.0802 6.59012 19.1602 6.51012H19.1502ZM11.2402 9.73012L13.5102 7.31012C13.5702 7.25012 13.6502 7.21012 13.7402 7.21012C13.8302 7.24012 13.9102 7.25012 13.9702 7.31012C14.1102 7.46012 15.2802 8.76012 14.6502 9.62012C14.2702 10.1401 13.4502 10.4701 12.5602 10.4701C12.1202 10.4701 11.7002 10.3901 11.3402 10.2301C11.2502 10.1901 11.1802 10.1101 11.1602 10.0101C11.1402 9.91012 11.1602 9.81012 11.2402 9.73012ZM8.07016 12.2201C8.07016 12.1301 8.12016 12.0601 8.18016 12.0001C8.25016 11.9501 8.33016 11.9201 8.42016 11.9301C8.79016 11.9801 10.6702 12.2601 10.7302 13.3001C10.7902 14.3301 9.58016 15.5401 8.19016 15.8501C8.17016 15.8501 8.14016 15.8501 8.12016 15.8501C8.05016 15.8501 7.97016 15.8201 7.91016 15.7701C7.83016 15.7001 7.79016 15.6101 7.80016 15.5101L8.06016 12.2001L8.07016 12.2201ZM8.92016 23.1501C8.92016 23.1501 8.83016 23.1801 8.78016 23.1801C8.73015 23.1801 8.68016 23.1701 8.64016 23.1501C8.55016 23.1101 8.49016 23.0201 8.47016 22.9301L7.85016 19.6601C7.82016 19.4901 7.93016 19.3301 8.10016 19.2901C8.14016 19.2901 9.01016 19.1101 9.83016 19.1101C10.7302 19.1101 11.2502 19.3101 11.4102 19.7301C11.7902 20.7001 10.6002 22.3201 8.91016 23.1401L8.92016 23.1501ZM15.9202 27.3101C15.9102 27.4101 15.8502 27.4901 15.7702 27.5401C15.7202 27.5701 15.6602 27.5801 15.6102 27.5801C15.5702 27.5801 15.5302 27.5801 15.5002 27.5601L12.4002 26.3501C12.2402 26.2901 12.1602 26.1101 12.2202 25.9501C12.5502 25.0401 13.4002 22.9401 14.3402 22.9401C14.3602 22.9401 14.4202 22.9401 14.4402 22.9401C15.4802 23.1001 16.1902 25.1801 15.9302 27.3001L15.9202 27.3101ZM25.9302 28.0101C25.8702 28.0801 25.7802 28.1301 25.6902 28.1301L21.2002 28.0101C21.0302 28.0101 20.8902 27.8701 20.8902 27.7001C20.8902 26.6501 20.9802 23.2201 22.2402 22.9701C22.3102 22.9601 22.3802 22.9501 22.4602 22.9501C23.7802 22.9501 25.4002 25.1401 25.9902 27.7401C26.0102 27.8301 25.9902 27.9301 25.9302 28.0101ZM37.1602 27.8301C37.1102 27.9101 37.0202 27.9701 36.9302 27.9801L31.5102 28.5101C31.5102 28.5101 31.4902 28.5101 31.4802 28.5101C31.3202 28.5101 31.1902 28.3901 31.1702 28.2401C31.0602 27.3501 30.5802 22.9001 32.0502 22.4201C32.1802 22.3801 32.3302 22.3501 32.4802 22.3501C34.0102 22.3501 36.1802 24.7301 37.2002 27.5601C37.2302 27.6501 37.2202 27.7501 37.1702 27.8301H37.1602ZM41.7502 28.1201C41.7702 27.0401 41.9602 21.6501 43.7602 21.3401C45.6402 21.0001 48.1702 24.4301 48.9902 28.3601C49.0102 28.4501 48.9902 28.5501 48.9202 28.6301C48.8602 28.7001 48.7702 28.7401 48.6802 28.7401C48.6802 28.7401 48.6802 28.7401 48.6702 28.7401L42.0502 28.4401C41.8802 28.4401 41.7502 28.2901 41.7502 28.1201ZM60.2702 30.4201C60.2102 30.4801 60.1302 30.5201 60.0402 30.5201C60.0402 30.5201 60.0202 30.5201 60.0102 30.5201L53.4102 29.9501C53.2402 29.9401 53.1102 29.7901 53.1202 29.6201C53.1802 28.5401 53.6002 23.1601 55.4102 22.9301C57.3202 22.6801 59.6802 26.1701 60.3402 30.1701C60.3602 30.2701 60.3302 30.3601 60.2602 30.4301L60.2702 30.4201ZM71.1502 32.8201C71.0902 32.8701 71.0202 32.9001 70.9402 32.9001C70.9202 32.9001 70.9001 32.9001 70.8801 32.9001L65.4102 31.8301C65.2402 31.8001 65.1302 31.6401 65.1602 31.4701C65.3102 30.5701 66.1502 26.0701 67.7202 26.0201C69.3902 26.0201 71.0602 29.1401 71.2502 32.5701C71.2502 32.6701 71.2202 32.7601 71.1402 32.8201H71.1502Z" fill="#208200"/>
<path d="M22.32 19.2895C22.32 19.2895 22.3 19.3595 22.29 19.3995C23.36 19.5795 24.59 19.6695 26 19.6695C26.63 19.6695 27.29 19.6495 27.98 19.6195C27.97 19.4595 27.96 19.2495 27.95 18.9995C27.27 19.0295 26.62 19.0495 26 19.0495C24.59 19.0495 23.38 18.9595 22.33 18.7695C22.33 18.9395 22.33 19.1195 22.33 19.2995L22.32 19.2895Z" fill="#231F20"/>
<path d="M4.06977 30.5498C6.33977 32.7498 9.35977 34.1498 12.5898 35.0598C12.6798 34.8798 12.7698 34.7098 12.8798 34.5398C6.58977 32.8298 1.23977 29.2398 0.679766 21.4798C0.309766 16.4798 1.83977 11.9898 5.09977 8.48977C8.70977 4.60977 14.0198 2.37977 19.6698 2.37977C22.5398 2.37977 25.3098 2.95977 27.8898 4.09977C34.1598 6.86977 39.2198 8.20977 43.3698 8.20977C46.6098 8.20977 48.8698 7.37977 50.4798 6.65977C52.6198 5.69977 53.5998 5.55977 53.9898 5.55977C54.2398 5.55977 54.3498 5.61977 54.3698 5.64977C54.4298 5.79977 54.1798 6.54977 52.3598 8.09977C49.1698 10.8398 43.7698 12.4098 37.5398 12.4098C34.4298 12.4098 31.2498 12.0198 28.0998 11.2598C25.9198 10.7298 23.5598 10.4198 21.6298 10.4198C19.0898 10.4198 17.4098 10.9298 16.6398 11.9298C16.1698 12.5398 16.0598 13.3098 16.2998 14.2198C16.7398 15.8698 17.4698 17.0898 18.6198 17.9598C18.6798 17.7598 18.7498 17.5398 18.8398 17.2998C17.8998 16.5198 17.2798 15.4598 16.9098 14.0598C16.7198 13.3398 16.7898 12.7598 17.1398 12.3098C17.7798 11.4798 19.3298 11.0498 21.6298 11.0498C23.5098 11.0498 25.8198 11.3498 27.9598 11.8698C31.1598 12.6498 34.3798 13.0398 37.5498 13.0398C43.9298 13.0398 49.4798 11.4198 52.7798 8.57977C54.4698 7.12977 55.2098 6.06977 54.9698 5.42977C54.8898 5.19977 54.6498 4.92977 54.0098 4.92977C53.3098 4.92977 52.1898 5.24977 50.7598 5.85977C50.5898 5.92977 50.4198 6.00977 50.2398 6.08977C48.6898 6.78977 46.5098 7.58977 43.3898 7.58977C39.3398 7.58977 34.3598 6.25977 28.1698 3.52977C25.5098 2.35977 22.6598 1.75977 19.6998 1.75977C13.8698 1.75977 8.38977 4.05976 4.66977 8.06977C1.86977 11.0398 0.309766 14.6998 0.0397656 18.7698C0.0397656 18.8098 0.0397656 18.8598 0.0397656 18.8998C0.0297656 19.1498 0.00976562 19.3998 0.00976562 19.6598C0.00976562 19.8098 0.00976562 19.9498 0.00976562 20.0998C0.00976562 20.2598 0.00976562 20.4198 0.00976562 20.5798C0.00976562 20.8898 0.0297656 21.2098 0.0597656 21.5198C0.349766 25.4798 1.85977 28.3898 4.07977 30.5398L4.06977 30.5498Z" fill="#231F20"/>
<path d="M33.0401 19.2098C34.5601 19.0498 36.2001 18.8498 37.9701 18.6298C37.9401 18.4498 37.9101 18.2398 37.8801 18.0098C36.0501 18.2398 34.3701 18.4398 32.8301 18.5998C32.9101 18.7998 32.9801 18.9998 33.0501 19.2098H33.0401Z" fill="#231F20"/>
<path d="M55.2104 16.5495C56.8004 16.4495 58.4004 16.3995 60.0204 16.3995C60.0204 16.1995 60.0404 15.9895 60.0504 15.7695C60.0504 15.7695 60.0304 15.7695 60.0204 15.7695C58.3204 15.7695 56.6204 15.8195 54.9404 15.9295C55.0304 16.1295 55.1204 16.3295 55.2004 16.5395L55.2104 16.5495Z" fill="#231F20"/>
<path d="M66.97 16.6998C68.81 16.8498 70.6 17.0598 72.3 17.2998C72.33 17.0998 72.37 16.8998 72.41 16.6798C70.6 16.4198 68.71 16.1998 66.75 16.0498C66.83 16.2598 66.9 16.4798 66.97 16.6998Z" fill="#231F20"/>
<path d="M78.12 18.3204C78.82 18.4704 79.5 18.6104 80.16 18.7704C80.18 18.5604 80.2 18.3504 80.23 18.1404C79.5 17.9704 78.74 17.8104 77.96 17.6504C78.02 17.8704 78.07 18.1004 78.12 18.3204Z" fill="#231F20"/>
<path d="M43.8996 17.8499C43.8996 17.8499 43.9396 17.8499 43.9696 17.8499C45.3896 17.6599 46.8896 17.4599 48.4496 17.2599C48.4496 17.0599 48.4496 16.8499 48.4496 16.6299C46.8596 16.8399 45.3396 17.0399 43.8896 17.2299C43.7896 17.2399 43.6996 17.2599 43.5996 17.2699C43.7096 17.4599 43.8096 17.6599 43.8996 17.8599V17.8499Z" fill="#231F20"/>
<path d="M73.1496 47.6497C73.1296 47.8497 73.1096 48.0097 73.0996 48.1097C73.0996 48.1797 73.0696 48.2597 73.0596 48.3297C76.2196 47.3897 79.1896 46.0197 81.9496 44.2097C81.8096 44.0497 81.6796 43.8897 81.5496 43.7197C78.9396 45.4197 76.1396 46.7297 73.1596 47.6397L73.1496 47.6497Z" fill="#231F20"/>
<path d="M32.2698 38.8401C32.1998 39.0401 32.1098 39.2401 32.0098 39.4301C36.0498 42.6401 42.4898 46.0401 49.7998 48.0401C49.7998 47.8301 49.7998 47.6101 49.8298 47.4001C42.5698 45.4001 36.2098 42.0101 32.2698 38.8301V38.8401Z" fill="#231F20"/>
<path d="M72.79 18.4004L77.62 19.0004C77.13 16.0004 75.53 13.6504 74.44 13.6504H74.37C73.7 13.7204 73.05 16.1104 72.79 18.4004Z" fill="#CEA702"/>
<path d="M72.3001 17.3002C72.2001 17.9002 72.1501 18.4002 72.1301 18.6402C72.1101 18.8102 72.2301 18.9602 72.4001 18.9802L77.9401 19.6702C77.9401 19.6702 77.9701 19.6702 77.9801 19.6702C78.0601 19.6702 78.1401 19.6402 78.2001 19.5802C78.2701 19.5102 78.3001 19.4202 78.2901 19.3202C78.2501 18.9802 78.1901 18.6502 78.1201 18.3202C78.0701 18.0902 78.0201 17.8702 77.9601 17.6502C77.2301 14.9702 75.7001 12.9002 74.3101 13.0302C73.2901 13.1302 72.7201 15.0802 72.4101 16.6802C72.3701 16.8902 72.3301 17.1002 72.3001 17.3002ZM74.4301 13.6502C75.5201 13.6502 77.1201 16.0002 77.6101 19.0002L72.7801 18.4002C73.0401 16.1102 73.6901 13.7202 74.3601 13.6602H74.4301V13.6502Z" fill="#231F20"/>
<path d="M60.6299 17.33L66.5399 17.43C65.5799 13.84 63.2799 11.15 61.9499 11.42C61.0399 11.61 60.6399 14.89 60.6299 17.33Z" fill="#CEA702"/>
<path d="M60.02 16.4001C60 16.9501 60 17.4001 60 17.6401C60 17.8101 60.14 17.9501 60.31 17.9501L66.93 18.0601C67.02 18.0601 67.11 18.0201 67.17 17.9401C67.23 17.8601 67.25 17.7701 67.23 17.6701C67.15 17.3401 67.06 17.0101 66.96 16.6901C66.89 16.4701 66.82 16.2501 66.74 16.0401C65.58 12.9001 63.42 10.4701 61.81 10.7901C60.55 11.0501 60.16 13.7801 60.04 15.7601C60.03 15.9801 60.02 16.1901 60.01 16.3901L60.02 16.4001ZM66.53 17.4301L60.62 17.3301C60.62 14.8901 61.03 11.6001 61.94 11.4201C63.27 11.1501 65.56 13.8501 66.53 17.4301Z" fill="#231F20"/>
<path d="M49.0795 17.9304L54.9795 17.7804C53.9195 14.4104 51.7195 11.9404 50.3695 11.9404C50.2895 11.9404 50.2195 11.9404 50.1395 11.9704C49.2395 12.1904 48.9795 15.4904 49.0695 17.9304H49.0795Z" fill="#CEA702"/>
<path d="M48.4399 17.2502C48.4399 17.7002 48.4599 18.0702 48.4699 18.2702C48.4699 18.4402 48.6199 18.5702 48.7799 18.5702L55.3999 18.4002C55.4999 18.4002 55.5899 18.3502 55.6399 18.2702C55.6999 18.1902 55.7199 18.0902 55.6899 18.0002C55.5499 17.5002 55.3799 17.0202 55.1899 16.5502C55.1099 16.3402 55.0199 16.1402 54.9299 15.9402C53.6099 13.0602 51.4999 10.9902 49.9799 11.3702C48.6899 11.6902 48.4399 14.6302 48.4199 16.6202C48.4199 16.8402 48.4199 17.0602 48.4199 17.2502H48.4399ZM50.3799 11.9502C51.7299 11.9502 53.9299 14.4202 54.9899 17.7902L49.0899 17.9402C48.9999 15.5002 49.2599 12.2002 50.1599 11.9802C50.2299 11.9602 50.3099 11.9502 50.3899 11.9502H50.3799Z" fill="#231F20"/>
<path d="M38.6502 18.8604L43.3102 18.0704C42.1102 15.6204 40.1702 13.9404 39.1002 13.9404C38.9902 13.9404 38.8902 13.9604 38.8002 13.9904C38.1902 14.2404 38.2502 16.6504 38.6502 18.8504V18.8604Z" fill="#CEA702"/>
<path d="M37.9797 18.6303C38.0297 18.9103 38.0697 19.1403 38.0997 19.2803C38.1297 19.4303 38.2597 19.5303 38.4097 19.5303C38.4297 19.5303 38.4397 19.5303 38.4597 19.5303L43.8297 18.6203C43.9297 18.6003 44.0097 18.5403 44.0497 18.4603C44.0997 18.3703 44.0997 18.2703 44.0597 18.1903C44.0097 18.0803 43.9597 17.9703 43.8997 17.8603C43.7997 17.6603 43.6997 17.4603 43.5997 17.2703C42.3597 15.0303 40.4697 13.3203 39.0997 13.3203C38.9097 13.3203 38.7297 13.3503 38.5697 13.4203C37.5097 13.8503 37.6697 16.3803 37.8897 18.0203C37.9197 18.2503 37.9497 18.4603 37.9797 18.6403V18.6303ZM38.7997 13.9903C38.8897 13.9503 38.9897 13.9403 39.0997 13.9403C40.1797 13.9403 42.1197 15.6203 43.3097 18.0703L38.6497 18.8603C38.2497 16.6503 38.1897 14.2503 38.7997 14.0003V13.9903Z" fill="#231F20"/>
<path d="M29.2996 15.4004C29.2996 15.4004 29.1996 15.4004 29.1596 15.4204C28.6896 15.5504 28.4896 17.4604 28.5796 19.2704L32.3396 19.1004C31.5896 16.9604 30.1596 15.4004 29.2896 15.4004H29.2996Z" fill="#CEA702"/>
<path d="M27.9801 19.6096C27.9901 19.7696 28.1301 19.8996 28.2901 19.8996C28.2901 19.8996 28.2901 19.8996 28.3001 19.8996L32.7801 19.6996C32.8801 19.6996 32.9701 19.6496 33.0201 19.5696C33.0801 19.4896 33.0901 19.3896 33.0601 19.2996C33.0601 19.2696 33.0401 19.2396 33.0301 19.2096C32.9701 18.9996 32.8901 18.7996 32.8101 18.5996C31.9001 16.2796 30.1601 14.4896 28.9801 14.7996C27.9301 15.0796 27.8701 17.5896 27.9301 18.9796C27.9301 19.2296 27.9501 19.4396 27.9601 19.5996L27.9801 19.6096ZM28.5801 19.2596C28.4901 17.4496 28.6801 15.5396 29.1601 15.4096C29.2001 15.3996 29.2501 15.3896 29.3001 15.3896C30.1601 15.3896 31.5901 16.9496 32.3501 19.0896L28.5901 19.2596H28.5801Z" fill="#231F20"/>
<path d="M19.2197 18.0799L21.6997 18.8499C21.6897 17.0699 20.9897 15.7099 20.4797 15.6699C20.1997 15.6699 19.6197 16.7999 19.2197 18.0799Z" fill="#CEA702"/>
<path d="M18.5996 17.9495C18.5696 18.0395 18.5496 18.1195 18.5296 18.1895C18.4796 18.3495 18.5796 18.5195 18.7396 18.5695L21.9196 19.5595C21.9196 19.5595 21.9796 19.5695 22.0096 19.5695C22.0696 19.5695 22.1396 19.5495 22.1896 19.5095C22.2396 19.4795 22.2696 19.4295 22.2896 19.3795C22.2996 19.3495 22.3196 19.3095 22.3196 19.2695C22.3196 19.0895 22.3196 18.9195 22.3196 18.7395C22.2796 16.8095 21.4796 15.0995 20.4696 15.0195C19.7596 15.0195 19.1696 16.2495 18.8096 17.2695C18.7196 17.5095 18.6496 17.7395 18.5896 17.9295L18.5996 17.9495ZM20.4796 15.6695C20.9896 15.7095 21.6896 17.0695 21.6996 18.8495L19.2196 18.0795C19.6096 16.8095 20.1996 15.6695 20.4796 15.6695Z" fill="#231F20"/>
<path d="M21.0904 8.04984C21.2904 8.04984 21.4904 7.67984 21.6204 7.30984L19.8604 7.08984C20.1504 7.62984 20.7104 8.04984 21.0904 8.04984Z" fill="#CEA702"/>
<path d="M21.0896 8.68006C21.9796 8.68006 22.2896 7.27006 22.3196 7.10006C22.3396 7.01006 22.3196 6.93006 22.2696 6.86006C22.2196 6.79006 22.1396 6.74006 22.0496 6.73006L19.4196 6.41006C19.3196 6.40006 19.2196 6.43006 19.1496 6.51006C19.0796 6.58006 19.0496 6.69006 19.0696 6.79006C19.2796 7.78006 20.2396 8.68006 21.0796 8.68006H21.0896ZM21.0896 8.36006V8.05006C20.6996 8.05006 20.1396 7.63006 19.8496 7.09006L21.6096 7.31006C21.4896 7.68006 21.2796 8.05006 21.0796 8.05006V8.36006H21.0896Z" fill="#231F20"/>
<path d="M67.7598 26.6396C67.0698 26.6596 66.2498 28.9996 65.8398 31.2596L70.6098 32.1896C70.3298 29.1596 68.8598 26.6396 67.7698 26.6396H67.7598Z" fill="#CEA702"/>
<path d="M67.73 26.0098C66.15 26.0498 65.32 30.5498 65.17 31.4598C65.14 31.6298 65.25 31.7898 65.42 31.8198L70.89 32.8898C70.89 32.8898 70.93 32.8898 70.95 32.8898C71.03 32.8898 71.1 32.8598 71.16 32.8098C71.23 32.7498 71.27 32.6498 71.27 32.5598C71.08 29.1298 69.41 26.0098 67.74 26.0098H67.73ZM65.83 31.2598C66.25 28.9998 67.07 26.6598 67.75 26.6398C68.84 26.6398 70.31 29.1598 70.59 32.1898L65.82 31.2598H65.83Z" fill="#231F20"/>
<path d="M55.5103 23.5398C54.5903 23.6598 53.9603 26.9098 53.7803 29.3398L59.6603 29.8498C58.9403 26.1498 56.8603 23.3598 55.5003 23.5298L55.5103 23.5398Z" fill="#CEA702"/>
<path d="M55.4302 22.9201C53.6202 23.1601 53.2002 28.5401 53.1402 29.6101C53.1302 29.7801 53.2602 29.9301 53.4302 29.9401L60.0302 30.5101C60.0302 30.5101 60.0502 30.5101 60.0602 30.5101C60.1502 30.5101 60.2302 30.4701 60.2902 30.4101C60.3602 30.3401 60.3902 30.2401 60.3702 30.1501C59.7202 26.1501 57.3602 22.6601 55.4402 22.9101L55.4302 22.9201ZM53.7802 29.3501C53.9602 26.9101 54.5902 23.6701 55.5102 23.5501C56.8602 23.3701 58.9502 26.1701 59.6702 29.8701L53.7902 29.3601L53.7802 29.3501Z" fill="#231F20"/>
<path d="M42.3896 27.8297L48.2896 28.0997C47.4197 24.4697 45.2096 21.7397 43.8696 21.9597C42.9596 22.1197 42.4696 25.3897 42.3896 27.8297Z" fill="#CEA702"/>
<path d="M48.67 28.7397C48.67 28.7397 48.67 28.7397 48.68 28.7397C48.77 28.7397 48.86 28.6997 48.92 28.6297C48.98 28.5597 49.01 28.4597 48.99 28.3597C48.17 24.4297 45.64 20.9997 43.76 21.3397C41.96 21.6497 41.77 27.0397 41.75 28.1197C41.75 28.2897 41.88 28.4297 42.05 28.4397L48.67 28.7397ZM48.29 28.0897L42.39 27.8197C42.47 25.3797 42.96 22.1097 43.87 21.9497C45.21 21.7297 47.42 24.4597 48.29 28.0897Z" fill="#231F20"/>
<path d="M32.4705 22.9805C32.3905 22.9805 32.3105 22.9905 32.2405 23.0105C31.6205 23.2105 31.5104 25.6205 31.7504 27.8505L36.4604 27.3905C35.4304 24.8405 33.5504 22.9805 32.4804 22.9805H32.4705Z" fill="#CEA702"/>
<path d="M32.4698 22.3496C32.3198 22.3496 32.1798 22.3696 32.0398 22.4196C30.5698 22.8996 31.0498 27.3496 31.1598 28.2396C31.1798 28.3996 31.3098 28.5096 31.4698 28.5096C31.4798 28.5096 31.4898 28.5096 31.4998 28.5096L36.9198 27.9796C37.0198 27.9796 37.0998 27.9196 37.1498 27.8296C37.1998 27.7496 37.2098 27.6496 37.1798 27.5596C36.1598 24.7396 33.9998 22.3496 32.4598 22.3496H32.4698ZM31.7498 27.8496C31.5098 25.6196 31.6198 23.2096 32.2398 23.0096C32.3098 22.9896 32.3898 22.9796 32.4698 22.9796C33.5498 22.9796 35.4198 24.8396 36.4498 27.3896L31.7398 27.8496H31.7498Z" fill="#231F20"/>
<path d="M22.3595 23.5903C21.8795 23.6803 21.5495 25.5803 21.5195 27.4003L25.2895 27.5003C24.6495 25.1803 23.2195 23.4303 22.3695 23.6003L22.3595 23.5903Z" fill="#CEA702"/>
<path d="M22.4603 22.9502C22.3903 22.9502 22.3103 22.9502 22.2403 22.9702C20.9803 23.2102 20.8803 26.6502 20.8903 27.7002C20.8903 27.8702 21.0303 28.0102 21.2003 28.0102L25.6903 28.1302C25.7803 28.1302 25.8703 28.0902 25.9303 28.0102C25.9903 27.9402 26.0103 27.8402 25.9903 27.7402C25.4003 25.1402 23.7803 22.9502 22.4603 22.9502ZM21.5203 27.3902C21.5503 25.5702 21.8803 23.6802 22.3603 23.5802C23.2103 23.4102 24.6403 25.1602 25.2803 27.4802L21.5103 27.3802L21.5203 27.3902Z" fill="#231F20"/>
<path d="M14.3402 23.5703C14.0502 23.5703 13.4002 24.6403 12.9102 25.8803L15.3302 26.8303C15.4402 25.1003 14.8402 23.6503 14.3302 23.5703H14.3402Z" fill="#CEA702"/>
<path d="M14.4304 22.9502C14.4304 22.9502 14.3504 22.9502 14.3304 22.9502C13.3904 22.9502 12.5404 25.0602 12.2104 25.9602C12.1504 26.1202 12.2304 26.3002 12.3904 26.3602L15.4904 27.5702C15.4904 27.5702 15.5704 27.5902 15.6004 27.5902C15.6604 27.5902 15.7104 27.5802 15.7604 27.5502C15.8404 27.5002 15.9004 27.4202 15.9104 27.3202C16.1704 25.2002 15.4604 23.1202 14.4204 22.9602L14.4304 22.9502ZM15.3404 26.8202L12.9204 25.8702C13.4004 24.6302 14.0504 23.5602 14.3504 23.5602C14.8604 23.6402 15.4504 25.0902 15.3504 26.8202H15.3404Z" fill="#231F20"/>
<path d="M10.8303 19.9702C10.8003 19.8902 10.5503 19.7402 9.83027 19.7402C9.35027 19.7402 8.84027 19.8002 8.53027 19.8502L9.01027 22.3802C10.3203 21.6102 11.0203 20.4302 10.8303 19.9602V19.9702Z" fill="#CEA702"/>
<path d="M9.82965 19.1201C9.00965 19.1201 8.12965 19.2901 8.09965 19.3001C7.92965 19.3301 7.81965 19.5001 7.84965 19.6701L8.46965 22.9401C8.48965 23.0401 8.54965 23.1201 8.63965 23.1601C8.67965 23.1801 8.72965 23.1901 8.77965 23.1901C8.82965 23.1901 8.86965 23.1801 8.91965 23.1601C10.6097 22.3501 11.7997 20.7201 11.4197 19.7501C11.2497 19.3301 10.7397 19.1301 9.83965 19.1301L9.82965 19.1201ZM9.00965 22.3901L8.52965 19.8601C8.84965 19.8101 9.35965 19.7501 9.82965 19.7501C10.5497 19.7501 10.7997 19.8901 10.8297 19.9801C11.0197 20.4501 10.3197 21.6301 9.00965 22.4001V22.3901Z" fill="#231F20"/>
<path d="M10.1097 13.3404C10.0897 13.0204 9.33973 12.7404 8.66973 12.6104L8.46973 15.1204C9.41973 14.7504 10.1397 13.9104 10.1097 13.3404Z" fill="#CEA702"/>
<path d="M8.11957 15.8702C8.11957 15.8702 8.16957 15.8702 8.18957 15.8702C9.57957 15.5602 10.7896 14.3402 10.7296 13.3202C10.6696 12.2802 8.79957 12.0002 8.41957 11.9502C8.32957 11.9502 8.24957 11.9602 8.17957 12.0202C8.10957 12.0702 8.06957 12.1502 8.06957 12.2402L7.80957 15.5502C7.80957 15.6502 7.83957 15.7502 7.91957 15.8102C7.97957 15.8602 8.04957 15.8902 8.12957 15.8902L8.11957 15.8702ZM8.66957 12.6102C9.33957 12.7402 10.0896 13.0202 10.1096 13.3402C10.1396 13.9002 9.42957 14.7402 8.46957 15.1202L8.66957 12.6102Z" fill="#231F20"/>
<path d="M14.14 9.24023C14.34 8.97023 14.01 8.38023 13.72 7.99023L12.04 9.79023C12.83 9.95023 13.82 9.69023 14.14 9.24023Z" fill="#CEA702"/>
<path d="M11.3404 10.23C11.7004 10.39 12.1204 10.47 12.5604 10.47C13.4504 10.47 14.2704 10.14 14.6504 9.61996C15.2804 8.75996 14.1004 7.45996 13.9704 7.30996C13.9104 7.24996 13.8304 7.23996 13.7404 7.20996C13.6504 7.20996 13.5704 7.24996 13.5104 7.30996L11.2404 9.72996C11.1704 9.79996 11.1404 9.90996 11.1604 10.01C11.1804 10.11 11.2504 10.19 11.3404 10.23ZM13.7204 7.98996C14.0204 8.37996 14.3404 8.96996 14.1404 9.23996C13.8104 9.68996 12.8204 9.94996 12.0404 9.78996L13.7204 7.98996Z" fill="#231F20"/>
<path d="M65.2497 66.44C65.5497 65.88 66.3997 65.24 67.0897 65.24C67.3297 65.24 67.5397 65.32 67.6797 65.47C67.7997 65.59 67.8997 65.74 67.9897 65.92C68.0397 65.77 68.1897 65.68 68.3497 65.71C68.4797 65.74 68.6097 65.76 68.7397 65.78C68.7397 65.77 68.7197 65.75 68.7097 65.74C68.5197 65.46 68.5297 65.1 68.7297 64.73C69.0797 64.08 70.0597 63.35 70.8497 63.35C71.0397 63.35 71.2197 63.4 71.3597 63.49C71.3597 63.47 71.3797 63.45 71.3897 63.43C71.5997 63.04 72.1197 62.61 72.6197 62.46C72.0297 61.56 70.7597 60.5 69.2897 59.74C69.1997 59.69 69.1397 59.61 69.1197 59.51L69.0997 59.36C68.9397 58.3 68.6397 56.31 66.7897 53.32C66.7397 53.23 66.7297 53.12 66.7697 53.03C66.8097 52.94 66.8997 52.87 66.9997 52.85C70.2597 52.26 72.2197 49.98 72.4797 48.03C72.7797 45.81 72.5097 42.51 70.7897 40.54C69.5497 39.12 67.7397 38.51 65.2897 38.72C64.9997 38.74 64.6397 38.76 64.2397 38.77C62.5897 38.83 60.0797 38.91 59.1097 40.07C59.0397 40.16 58.9297 40.2 58.8097 40.18C58.6997 40.16 58.5697 40.15 58.4297 40.15C56.4097 40.15 52.5197 42.14 51.0297 45.25C48.6697 50.2 53.7997 56.74 56.5597 60.25L56.8197 60.58C57.3397 61.25 57.6997 61.81 58.0197 62.3C59.0197 63.85 59.5297 64.63 62.9697 65.72C63.0397 65.74 63.0997 65.79 63.1397 65.84C63.5797 66.5 64.2897 66.92 65.1397 67.05C65.1097 66.86 65.1397 66.65 65.2597 66.43L65.2497 66.44Z" fill="#208200"/>
<path d="M68.0298 54.2298C67.8798 53.9498 67.7298 53.6698 67.5498 53.3698C70.8598 52.6098 72.6898 50.2998 73.0598 48.3298C73.0698 48.2598 73.0898 48.1798 73.0998 48.1098C73.1098 48.0098 73.1298 47.8498 73.1498 47.6498C73.2798 46.2098 73.3698 42.5398 71.2598 40.1298C70.0498 38.7498 68.3498 38.0498 66.1798 38.0498C65.8798 38.0498 65.5598 38.0598 65.2298 38.0898C64.9498 38.1098 64.5998 38.1298 64.2098 38.1398C62.4998 38.1998 59.9498 38.2798 58.7398 39.5298C56.6198 39.3198 52.1598 41.4298 50.4698 44.9698C50.0998 45.7498 49.8998 46.5698 49.8298 47.3998C49.8098 47.6098 49.7998 47.8198 49.7998 48.0398C49.7998 49.3698 50.1398 50.7398 50.6598 52.0798C50.7598 52.3298 50.8598 52.5898 50.9798 52.8398C52.3298 55.8698 54.5498 58.6998 56.0698 60.6398L56.3298 60.9698C56.8298 61.6098 57.1898 62.1598 57.4998 62.6498C58.5098 64.1998 59.1198 65.1498 62.6898 66.2898C63.3298 67.1798 64.3698 67.6998 65.5798 67.7298C65.4498 67.6098 65.3298 67.4898 65.2398 67.3498C65.1798 67.2598 65.1498 67.1598 65.1398 67.0598C64.2998 66.9298 63.5798 66.5098 63.1398 65.8498C63.0998 65.7898 63.0398 65.7498 62.9698 65.7298C59.5198 64.6398 59.0198 63.8598 58.0198 62.3098C57.6998 61.8098 57.3398 61.2498 56.8198 60.5898L56.5598 60.2598C53.7998 56.7498 48.6698 50.1998 51.0298 45.2598C52.5198 42.1498 56.3998 40.1598 58.4298 40.1598C58.5698 40.1598 58.6898 40.1598 58.8098 40.1898C58.9198 40.2098 59.0298 40.1698 59.1098 40.0798C60.0898 38.9198 62.5898 38.8298 64.2398 38.7798C64.6398 38.7698 64.9998 38.7498 65.2898 38.7298C67.7398 38.5198 69.5598 39.1398 70.7898 40.5498C72.5198 42.5198 72.7798 45.8198 72.4798 48.0398C72.2198 49.9798 70.2598 52.2598 66.9998 52.8598C66.8998 52.8798 66.8098 52.9498 66.7698 53.0398C66.7298 53.1298 66.7398 53.2398 66.7898 53.3298C68.6398 56.3298 68.9398 58.3098 69.0998 59.3698L69.1198 59.5198C69.1398 59.6198 69.1998 59.6998 69.2898 59.7498C70.7598 60.5098 72.0198 61.5698 72.6198 62.4698C72.7398 62.4298 72.8698 62.4098 72.9798 62.4098C73.1198 62.4098 73.2498 62.4398 73.3598 62.4998C72.7798 61.3398 71.2398 60.0798 69.7198 59.2698C69.5898 58.3998 69.3598 56.9498 68.3498 54.8698C68.2498 54.6698 68.1398 54.4598 68.0298 54.2498V54.2298Z" fill="#231F20"/>
<path d="M68.7402 65.7798C68.6102 65.7598 68.4902 65.7398 68.3502 65.7098C68.1902 65.6798 68.0402 65.7698 67.9902 65.9198C68.1102 66.1598 68.2002 66.4299 68.2602 66.7199C68.3502 66.6099 68.4302 66.4998 68.4902 66.3798C68.8502 66.4398 69.1802 66.4799 69.4902 66.4799C69.1902 66.2799 68.9302 66.0398 68.7402 65.7798Z" fill="#231F20"/>
<path d="M67.2404 65.9104C67.2404 65.9104 67.1604 65.8604 67.0904 65.8604C66.6904 65.8604 66.0304 66.3004 65.8104 66.7204C65.7804 66.7804 65.7204 66.9104 65.7604 66.9804C66.1504 67.5704 67.2704 68.0004 67.6204 68.0004H67.6404C67.6404 68.0004 67.7104 67.8703 67.7204 67.5903C67.7504 66.9803 67.5204 66.1804 67.2404 65.9004V65.9104Z" fill="white"/>
<path d="M67.99 65.9202C67.9 65.7402 67.8 65.5902 67.68 65.4702C67.53 65.3202 67.33 65.2402 67.09 65.2402C66.41 65.2402 65.56 65.8702 65.25 66.4402C65.13 66.6602 65.1 66.8702 65.13 67.0602C65.15 67.1602 65.18 67.2602 65.23 67.3502C65.32 67.4902 65.44 67.6102 65.57 67.7302C66.2 68.3002 67.19 68.6502 67.62 68.6502C67.68 68.6502 67.73 68.6502 67.78 68.6302C67.95 68.5902 68.17 68.4502 68.28 68.0602C68.37 67.7202 68.36 67.2102 68.26 66.7302C68.2 66.4502 68.11 66.1702 67.99 65.9302V65.9202ZM67.72 67.6002C67.71 67.8802 67.64 68.0002 67.64 68.0102H67.62C67.27 68.0102 66.15 67.5802 65.76 67.0002C65.71 66.9302 65.78 66.7902 65.81 66.7402C66.03 66.3202 66.7 65.8802 67.09 65.8802C67.16 65.8802 67.21 65.8902 67.24 65.9302C67.52 66.2102 67.75 67.0102 67.72 67.6202V67.6002Z" fill="#231F20"/>
<path d="M73.4298 64.7303C73.5598 64.5603 73.4198 63.4003 73.0698 63.0503C73.0498 63.0303 72.9998 63.0303 72.9798 63.0303C72.6598 63.0303 72.1198 63.4003 71.9398 63.7303C71.8898 63.8203 71.8898 63.8803 71.8998 63.9003C72.2198 64.3703 73.1498 64.7403 73.4298 64.7403V64.7303Z" fill="white"/>
<path d="M72.6096 62.4602C72.1096 62.6102 71.5896 63.0402 71.3796 63.4302C71.3696 63.4502 71.3596 63.4702 71.3496 63.4902C71.3996 63.5202 71.4496 63.5602 71.4996 63.6102C71.7896 63.9002 72.0096 64.3902 72.1296 64.9202C72.6096 65.2002 73.1396 65.3602 73.4096 65.3602C73.4696 65.3602 73.5196 65.3602 73.5596 65.3402C73.6896 65.3102 73.9196 65.2002 74.0196 64.8302C74.1796 64.2402 73.9696 63.0702 73.4996 62.6102C73.4496 62.5602 73.3996 62.5302 73.3396 62.5002C73.2296 62.4402 73.0996 62.4102 72.9596 62.4102C72.8396 62.4102 72.7196 62.4402 72.5996 62.4702L72.6096 62.4602ZM73.4196 65.0402V64.7302C73.1396 64.7302 72.2096 64.3702 71.8896 63.8902C71.8796 63.8702 71.8896 63.8102 71.9296 63.7202C72.1096 63.3802 72.6496 63.0202 72.9696 63.0202C72.9996 63.0202 73.0396 63.0202 73.0596 63.0402C73.4096 63.3902 73.5496 64.5502 73.4196 64.7202V65.0302V65.0402Z" fill="#231F20"/>
<path d="M71.0598 64.0505C71.0598 64.0505 70.9898 63.9805 70.8398 63.9805C70.3498 63.9805 69.5498 64.5205 69.2798 65.0305C69.2198 65.1405 69.1598 65.3005 69.2298 65.3905C69.6998 66.0905 71.0498 66.6105 71.4698 66.6105H71.4998C71.4998 66.6105 71.5498 66.5705 71.5898 66.4305C71.7698 65.7805 71.4798 64.4705 71.0598 64.0505Z" fill="white"/>
<path d="M71.4999 63.6096C71.4999 63.6096 71.3999 63.5296 71.3499 63.4896C71.2099 63.3996 71.0299 63.3496 70.8399 63.3496C70.0499 63.3496 69.0699 64.0796 68.7199 64.7296C68.5199 65.0996 68.5099 65.4596 68.6999 65.7396C68.6999 65.7496 68.7199 65.7696 68.7299 65.7796C68.9099 66.0396 69.1799 66.2796 69.4799 66.4796C70.1699 66.9496 71.0399 67.2396 71.4699 67.2396C71.5399 67.2396 71.5899 67.2396 71.6499 67.2196C71.8299 67.1696 72.0799 67.0296 72.1999 66.5996C72.3199 66.1696 72.2899 65.5296 72.1399 64.9196C72.0099 64.3996 71.7999 63.9096 71.5099 63.6096H71.4999ZM71.5899 66.4296C71.5499 66.5696 71.4999 66.6096 71.4999 66.6096H71.4699C71.0399 66.6096 69.6999 66.0996 69.2299 65.3896C69.1599 65.2896 69.2299 65.1396 69.2799 65.0296C69.5499 64.5196 70.3599 63.9796 70.8399 63.9796C70.9899 63.9796 71.0399 64.0296 71.0599 64.0496C71.4799 64.4696 71.7699 65.7796 71.5899 66.4296Z" fill="#231F20"/>
<path d="M25.47 54.1895C25.74 53.6795 26.51 53.1095 27.13 53.1095C27.35 53.1095 27.54 53.1795 27.68 53.3195C27.77 53.4095 27.85 53.5295 27.92 53.6695C27.99 53.5595 28.12 53.4995 28.25 53.5295C28.34 53.5495 28.42 53.5595 28.51 53.5695C28.36 53.3195 28.37 52.9995 28.54 52.6795C28.85 52.0995 29.73 51.4395 30.44 51.4395C30.6 51.4395 30.75 51.4795 30.88 51.5495C30.88 51.5495 30.88 51.5395 30.88 51.5295C31.06 51.1895 31.51 50.8195 31.95 50.6695C31.42 49.8895 30.32 48.9795 29.04 48.3095C28.95 48.2595 28.89 48.1795 28.87 48.0795L28.85 47.9595C28.71 47.0195 28.44 45.2695 26.81 42.6095C26.76 42.5195 26.75 42.4095 26.79 42.3195C26.83 42.2295 26.92 42.1595 27.02 42.1395C30.22 41.5595 31.66 39.2895 31.84 37.9095C32.1 35.9495 31.87 33.0495 30.35 31.3095C29.26 30.0695 27.67 29.5195 25.51 29.7095C25.25 29.7295 24.92 29.7395 24.56 29.7495C23.17 29.7895 21.08 29.8595 20.23 30.8595C20.16 30.9495 20.04 30.9895 19.93 30.9695C19.83 30.9495 19.72 30.9395 19.6 30.9395C17.82 30.9395 14.4 32.6895 13.08 35.4295C10.94 39.9195 15.71 46.0195 18 48.9595C18.49 49.5895 18.82 50.0895 19.1 50.5295C19.98 51.8895 20.43 52.5795 23.46 53.5395C23.53 53.5595 23.59 53.6095 23.63 53.6595C24 54.2195 24.61 54.5795 25.32 54.7095C25.31 54.5695 25.33 54.3895 25.44 54.1895H25.47Z" fill="#208200"/>
<path d="M29.3897 41.98C30.6097 41.33 31.4997 40.4 32.0097 39.42C32.1097 39.22 32.1998 39.03 32.2698 38.83C32.3698 38.55 32.4497 38.27 32.4797 37.99C32.5798 37.23 32.9797 33.34 30.8398 30.89C29.7698 29.66 28.2397 29.04 26.3197 29.04C26.0497 29.04 25.7697 29.05 25.4697 29.08C25.2197 29.1 24.8997 29.11 24.5597 29.12C23.0297 29.17 20.9597 29.23 19.8897 30.32C18.1397 30.15 14.5798 31.77 12.8898 34.53C12.7898 34.7 12.6898 34.87 12.5998 35.05C12.5798 35.09 12.5597 35.12 12.5397 35.16C12.2497 35.77 12.0697 36.41 11.9897 37.06C11.9597 37.3 11.9497 37.54 11.9397 37.78C11.8597 42.09 15.5697 46.85 17.5597 49.39C17.9997 49.96 18.3198 50.44 18.5998 50.87C19.4898 52.25 20.0398 53.09 23.1998 54.1C23.7698 54.89 24.6998 55.35 25.7798 55.38C25.6598 55.27 25.5497 55.16 25.4597 55.03C25.4097 54.96 25.3598 54.85 25.3498 54.71C24.6398 54.59 24.0297 54.23 23.6597 53.66C23.6198 53.6 23.5597 53.56 23.4897 53.54C20.4497 52.58 20.0097 51.9 19.1297 50.53C18.8497 50.09 18.5198 49.59 18.0298 48.96C15.7398 46.03 10.9697 39.92 13.1097 35.43C14.4197 32.69 17.8497 30.94 19.6297 30.94C19.7497 30.94 19.8597 30.94 19.9597 30.97C20.0697 30.99 20.1798 30.95 20.2598 30.86C21.1098 29.85 23.1997 29.79 24.5898 29.75C24.9497 29.74 25.2798 29.73 25.5398 29.71C27.6998 29.52 29.2997 30.07 30.3797 31.31C31.8997 33.05 32.1298 35.95 31.8698 37.91C31.6898 39.29 30.2498 41.56 27.0497 42.14C26.9497 42.16 26.8597 42.23 26.8197 42.32C26.7797 42.41 26.7898 42.52 26.8398 42.61C28.4697 45.27 28.7397 47.02 28.8797 47.96L28.8997 48.08C28.9198 48.18 28.9797 48.26 29.0697 48.31C30.3498 48.97 31.4497 49.89 31.9797 50.67C32.1097 50.63 32.2397 50.6 32.3598 50.6C32.4998 50.6 32.6197 50.63 32.7297 50.7C32.2097 49.64 30.8197 48.55 29.5098 47.84C29.3698 46.89 29.0998 45.2 27.6198 42.67C27.8998 42.6 28.1597 42.52 28.4198 42.43C28.7798 42.3 29.1098 42.15 29.4198 41.99L29.3897 41.98Z" fill="#231F20"/>
<path d="M28.5202 53.6199C28.5202 53.6199 28.5102 53.5899 28.5002 53.5799C28.4102 53.5599 28.3302 53.5599 28.2402 53.5399C28.1102 53.5099 27.9802 53.5699 27.9102 53.6799C28.0402 53.9099 28.1302 54.1899 28.1902 54.4799C28.2602 54.3899 28.3202 54.2999 28.3702 54.2099C28.6702 54.2599 28.9502 54.2899 29.2102 54.2899C28.9302 54.0999 28.6802 53.8699 28.5102 53.6199H28.5202Z" fill="#231F20"/>
<path d="M27.6097 55.57C27.7597 55.4 27.6097 54.16 27.2397 53.78C27.2197 53.76 27.1697 53.75 27.1297 53.75C26.7897 53.75 26.2197 54.14 26.0297 54.5C25.9897 54.57 25.9597 54.66 25.9897 54.7C26.3197 55.2 27.3097 55.58 27.6097 55.58V55.57Z" fill="white"/>
<path d="M27.9195 53.6801C27.8495 53.5501 27.7695 53.4301 27.6795 53.3301C27.5395 53.1901 27.3495 53.1201 27.1295 53.1201C26.5095 53.1201 25.7495 53.6901 25.4695 54.2001C25.3595 54.4001 25.3295 54.5801 25.3495 54.7201C25.3595 54.8601 25.4195 54.9701 25.4595 55.0401C25.5395 55.1701 25.6595 55.2801 25.7795 55.3901C26.3395 55.8901 27.2195 56.2001 27.5995 56.2001C27.6595 56.2001 27.6995 56.2001 27.7495 56.1801C27.8795 56.1501 28.1095 56.0401 28.2195 55.6501C28.2995 55.3501 28.2895 54.9001 28.1995 54.4701C28.1395 54.1801 28.0395 53.9101 27.9195 53.6701V53.6801ZM27.5995 55.8801V55.5701C27.2995 55.5701 26.3095 55.1901 25.9795 54.6901C25.9495 54.6501 25.9795 54.5601 26.0195 54.4901C26.2095 54.1301 26.7895 53.7401 27.1195 53.7401C27.1595 53.7401 27.1995 53.7401 27.2295 53.7701C27.6095 54.1501 27.7495 55.3901 27.5995 55.5601V55.8701H27.5895L27.5995 55.8801Z" fill="#231F20"/>
<path d="M32.7405 52.6699H32.7305V52.9799L32.7405 52.6699Z" fill="white"/>
<path d="M32.6902 52.6602C32.7902 52.4202 32.6702 51.5102 32.3902 51.2402C32.3902 51.2402 32.3802 51.2402 32.3702 51.2402C32.0902 51.2402 31.7302 51.4602 31.5302 51.7102C31.4202 51.8502 31.4102 51.9302 31.4102 51.9502C31.6702 52.3402 32.4102 52.6402 32.6902 52.6702V52.6602Z" fill="white"/>
<path d="M31.9596 50.6698C31.5196 50.8198 31.0796 51.1898 30.8896 51.5298C30.8896 51.5298 30.8896 51.5398 30.8896 51.5498C30.9496 51.5798 31.0096 51.6198 31.0596 51.6798C31.3396 51.9498 31.5396 52.4298 31.6496 52.9298C32.0596 53.1598 32.5097 53.2898 32.7397 53.2898C32.7897 53.2898 32.8297 53.2898 32.8797 53.2698C32.9997 53.2398 33.2197 53.1398 33.3097 52.7898C33.4597 52.2498 33.2696 51.2198 32.8396 50.7898C32.7996 50.7498 32.7596 50.7198 32.7096 50.6898C32.5996 50.6298 32.4796 50.5898 32.3396 50.5898C32.2196 50.5898 32.0896 50.6198 31.9596 50.6598V50.6698ZM31.3996 51.9498C31.3996 51.9498 31.3996 51.8498 31.5196 51.7098C31.7196 51.4598 32.0896 51.2398 32.3596 51.2398C32.3596 51.2398 32.3697 51.2398 32.3797 51.2398C32.6597 51.5198 32.7796 52.4198 32.6796 52.6598C32.3896 52.6298 31.6496 52.3298 31.3996 51.9398V51.9498Z" fill="#231F20"/>
<path d="M30.6105 52.1301C30.6105 52.1301 30.5205 52.0801 30.4405 52.0801C30.0205 52.0801 29.3305 52.5501 29.0905 52.9901C29.0505 53.0601 28.9905 53.2001 29.0405 53.2801C29.4505 53.8901 30.6205 54.3401 30.9905 54.3401H31.0105C31.0105 54.3401 31.0805 54.2201 31.1005 53.9601C31.1505 53.3301 30.9105 52.4401 30.6005 52.1301H30.6105Z" fill="white"/>
<path d="M31.0498 51.6804C30.9998 51.6304 30.9398 51.5904 30.8798 51.5504C30.7498 51.4804 30.6098 51.4404 30.4398 51.4404C29.7298 51.4404 28.8498 52.0904 28.5398 52.6804C28.3698 53.0104 28.3598 53.3204 28.5098 53.5704C28.5098 53.5804 28.5098 53.6004 28.5298 53.6104C28.6998 53.8604 28.9498 54.0904 29.2298 54.2804C29.8598 54.7104 30.6298 54.9604 31.0098 54.9604C31.0698 54.9604 31.1298 54.9604 31.1798 54.9404C31.3498 54.9004 31.5798 54.7604 31.6898 54.3604C31.7898 54.0004 31.7698 53.4504 31.6498 52.9304C31.5398 52.4304 31.3398 51.9604 31.0598 51.6804H31.0498ZM31.1098 53.9604C31.0898 54.2204 31.0198 54.3304 31.0198 54.3404H30.9998C30.6298 54.3404 29.4598 53.8904 29.0498 53.2804C28.9998 53.2004 29.0498 53.0704 29.0998 52.9904C29.3398 52.5504 30.0298 52.0804 30.4498 52.0804C30.5298 52.0804 30.5798 52.1004 30.6198 52.1304C30.9298 52.4304 31.1698 53.3204 31.1198 53.9604H31.1098Z" fill="#231F20"/>
<path d="M113.8 37.7004C113.92 36.2804 114.32 34.4404 115.6 34.2704C117.09 34.0804 118.59 36.9304 119.3 38.5204C119.82 38.4804 120.35 38.4303 120.9 38.3703C122.1 38.2503 123.35 38.1304 124.62 38.1304C126.24 38.1304 127.67 38.3504 128.98 38.7904C129.12 37.4004 129.54 35.7104 130.77 35.5504C131.92 35.4004 133.07 37.0604 133.87 38.5604C134.59 38.0704 135.45 37.5904 136.44 37.2304C136.53 36.6004 136.68 35.9603 136.94 35.4403C135.65 34.8503 134.14 34.4004 132.54 34.2404C128.95 33.8704 125.99 32.7004 124.2 31.8304C123.71 33.4904 122.98 35.4704 122.2 35.7504C122.14 35.7704 122.07 35.7803 122 35.7803C121.12 35.7803 119.92 33.3504 119.28 31.8904C118.95 31.8104 118.63 31.7104 118.35 31.5804C117.66 31.2704 116.81 31.1104 115.91 31.1104C113.76 31.1104 111.51 31.9904 109.74 33.4904C109.61 34.0504 109.36 35.0404 109.03 36.0504C110.5 36.4204 112.08 36.9304 113.8 37.6804V37.7004Z" fill="#D80053"/>
<path d="M124.26 31.5899C124.24 31.6699 124.21 31.7599 124.19 31.8399C125.97 32.7099 128.94 33.8799 132.53 34.2499C134.14 34.4099 135.65 34.8599 136.93 35.4499C137.03 35.2499 137.14 35.0699 137.28 34.9199C135.92 34.2799 134.32 33.7999 132.59 33.6299C129.31 33.2999 126.53 32.2499 124.77 31.4199C124.6 31.4799 124.43 31.5399 124.27 31.5999L124.26 31.5899Z" fill="#231F20"/>
<path d="M139.37 36.7101C139.63 36.7101 139.89 36.7301 140.15 36.7501C139.51 35.7201 138.81 34.9501 138.24 35.0301C137.61 35.1201 137.27 36.0201 137.1 37.0201C137.81 36.8201 138.57 36.7001 139.37 36.7001V36.7101Z" fill="white"/>
<path d="M136.93 35.4498C136.67 35.9698 136.52 36.6198 136.43 37.2398C136.65 37.1598 136.87 37.0898 137.1 37.0298C137.27 36.0298 137.61 35.1298 138.24 35.0398C138.8 34.9598 139.5 35.7298 140.15 36.7598C140.42 36.7898 140.69 36.8298 140.96 36.8798C140.19 35.5498 139.18 34.2798 138.17 34.4198C137.81 34.4698 137.51 34.6498 137.28 34.9198C137.15 35.0698 137.03 35.2498 136.93 35.4498Z" fill="#231F20"/>
<path d="M130.92 36.1797C130.92 36.1797 130.87 36.1797 130.85 36.1797C130.04 36.2897 129.71 37.7497 129.6 39.0297C130.39 39.3497 131.14 39.7597 131.85 40.2697C132.11 39.9897 132.63 39.4897 133.35 38.9397C132.6 37.4997 131.66 36.1797 130.92 36.1797Z" fill="white"/>
<path d="M130.76 35.5602C129.53 35.7202 129.11 37.4102 128.97 38.8002C129.18 38.8702 129.38 38.9402 129.59 39.0302C129.7 37.7502 130.03 36.2902 130.84 36.1802C130.86 36.1802 130.89 36.1802 130.91 36.1802C131.65 36.1802 132.58 37.5002 133.34 38.9402C133.5 38.8202 133.67 38.6902 133.86 38.5702C133.07 37.0702 131.92 35.4102 130.76 35.5602Z" fill="#231F20"/>
<path d="M115.68 34.9004C114.82 35.0104 114.51 36.6504 114.41 37.9804C114.45 38.0004 114.48 38.0104 114.51 38.0304C115.37 38.4204 116.39 38.6104 117.7 38.6104C118 38.6104 118.31 38.6004 118.62 38.5804C117.8 36.7904 116.56 34.7704 115.67 34.9104L115.68 34.9004Z" fill="white"/>
<path d="M115.6 34.2796C114.32 34.4496 113.92 36.2796 113.8 37.7096C114 37.7996 114.21 37.8896 114.42 37.9796C114.51 36.6496 114.83 35.0196 115.69 34.8996C116.58 34.7596 117.82 36.7796 118.64 38.5696C118.86 38.5596 119.08 38.5496 119.31 38.5296C118.6 36.9296 117.1 34.0896 115.61 34.2796H115.6Z" fill="#231F20"/>
<path d="M83.96 45.1998C85.52 46.3298 88 46.9098 91.33 46.9098C96.37 46.9098 102.31 45.6298 106.64 44.6998C108.57 44.2798 110.1 43.9498 111.1 43.8298C114.3 43.4398 117.71 43.0698 121.15 43.0698C124.93 43.0698 128.11 43.5398 130.86 44.4998C130.9 44.5098 130.93 44.5298 130.96 44.5598C132.98 46.3498 134.9 47.2498 136.67 47.2498C138.62 47.2498 139.99 46.1398 140.8 45.2098C142.37 43.4098 142.86 40.6198 142.41 38.9598C142.28 38.4698 142 37.8298 141.43 37.6398C140.76 37.4498 140.06 37.3398 139.37 37.3398C135.22 37.3398 132.15 40.8598 132.12 40.8998C132.01 41.0298 131.83 41.0498 131.69 40.9498C129.72 39.4698 127.47 38.7798 124.61 38.7798C123.37 38.7798 122.14 38.8998 120.95 39.0198C119.81 39.1298 118.74 39.2398 117.71 39.2398C116.3 39.2398 115.2 39.0398 114.26 38.5998C112.28 37.6898 110.49 37.0998 108.83 36.6798C108.38 37.9398 107.83 39.0898 107.25 39.2998C107.19 39.3198 107.12 39.3298 107.05 39.3298C106.31 39.3298 105.36 37.6498 104.69 36.2398C103.98 36.3598 103.3 36.3998 102.69 36.3998C100.47 36.3998 98.07 35.8598 96.07 34.9098C94.05 35.5398 92.21 35.8598 90.59 35.8598C86.93 35.8598 84.2 34.2498 82.43 31.0498C81.07 32.6598 80.21 34.8998 80.14 37.2598C80.08 39.1498 80.49 42.6998 83.97 45.1998H83.96Z" fill="#208200"/>
<path d="M140.16 36.7602C139.9 36.7302 139.64 36.7202 139.38 36.7202C138.58 36.7202 137.82 36.8402 137.11 37.0402C136.88 37.1002 136.65 37.1702 136.44 37.2502C135.45 37.6002 134.58 38.0902 133.87 38.5802C133.69 38.7002 133.52 38.8302 133.35 38.9502C132.63 39.5002 132.11 40.0002 131.85 40.2802C131.14 39.7702 130.39 39.3602 129.6 39.0402C129.4 38.9602 129.19 38.8802 128.98 38.8102C127.67 38.3702 126.24 38.1502 124.62 38.1502C123.35 38.1502 122.1 38.2702 120.9 38.3902C120.35 38.4402 119.82 38.5002 119.3 38.5402C119.07 38.5602 118.85 38.5702 118.63 38.5802C118.32 38.6002 118.01 38.6102 117.71 38.6102C116.39 38.6102 115.38 38.4302 114.52 38.0302C114.48 38.0102 114.45 38.0002 114.42 37.9802C114.21 37.8902 114.01 37.8002 113.8 37.7102C112.08 36.9702 110.5 36.4602 109.03 36.0802C108.97 36.2802 108.9 36.4802 108.83 36.6802C110.49 37.1002 112.29 37.6902 114.26 38.6002C115.21 39.0302 116.31 39.2302 117.71 39.2402C118.74 39.2402 119.82 39.1302 120.95 39.0202C122.14 38.9002 123.37 38.7802 124.61 38.7802C127.47 38.7802 129.72 39.4702 131.69 40.9502C131.82 41.0502 132.01 41.0302 132.12 40.9002C132.15 40.8602 135.23 37.3402 139.37 37.3402C140.07 37.3402 140.77 37.4402 141.43 37.6402C142.01 37.8402 142.28 38.4702 142.41 38.9602C142.85 40.6202 142.37 43.4202 140.8 45.2102C139.99 46.1402 138.61 47.2502 136.67 47.2502C134.9 47.2502 132.98 46.3402 130.96 44.5602C130.93 44.5302 130.89 44.5102 130.86 44.5002C128.11 43.5402 124.93 43.0702 121.15 43.0702C117.72 43.0702 114.3 43.4502 111.1 43.8302C110.1 43.9502 108.57 44.2802 106.64 44.7002C102.31 45.6302 96.3701 46.9102 91.3301 46.9102C88.0001 46.9102 85.5201 46.3402 83.9601 45.2002C80.4901 42.6902 80.0701 39.1502 80.1301 37.2602C80.2101 34.9002 81.0601 32.6602 82.4201 31.0502C82.3101 30.8602 82.2101 30.6602 82.1101 30.4502C80.5701 32.1802 79.5901 34.6502 79.5001 37.2302C79.4201 39.6602 80.1501 41.9202 81.5401 43.7202C81.6701 43.8902 81.8001 44.0502 81.9401 44.2102C82.4201 44.7602 82.9701 45.2602 83.5801 45.7002C85.2501 46.9102 87.7401 47.5102 91.1701 47.5202C91.2201 47.5202 91.2701 47.5202 91.3201 47.5202C91.6301 47.5202 91.9501 47.5202 92.2601 47.5102C97.1501 47.3702 102.67 46.1802 106.76 45.3002C108.6 44.9002 110.19 44.5602 111.16 44.4402C114.34 44.0602 117.73 43.6802 121.13 43.6802C124.82 43.6802 127.91 44.1302 130.58 45.0502C132.7 46.9102 134.75 47.8602 136.66 47.8602C138.39 47.8602 139.98 47.0802 141.26 45.6102C142.97 43.6602 143.49 40.6002 143.01 38.7802C142.77 37.8602 142.29 37.2502 141.61 37.0202C141.39 36.9602 141.17 36.9002 140.94 36.8602C140.67 36.8102 140.4 36.7702 140.13 36.7402L140.16 36.7602Z" fill="#231F20"/>
<path d="M141.14 30.6703C141.64 30.4703 142.4 28.4503 142.97 26.3203C141.53 27.0003 140.03 27.0903 139.58 27.0903C139.49 27.1803 139.35 27.3303 139.15 27.5003C139.94 29.2203 140.81 30.6103 141.14 30.6603V30.6703Z" fill="white"/>
<path d="M142.97 26.3204C142.4 28.4504 141.64 30.4704 141.14 30.6704C140.81 30.6204 139.94 29.2304 139.15 27.5104C139.01 27.6304 138.84 27.7704 138.65 27.9204C139.32 29.3704 140.36 31.3004 141.15 31.3004C141.22 31.3004 141.28 31.2904 141.34 31.2704C142.37 30.9004 143.32 27.5304 143.73 25.9004C143.48 26.0604 143.23 26.2004 142.97 26.3204Z" fill="#231F20"/>
<path d="M134.75 32.7603C135.19 32.5803 135.84 30.9604 136.38 29.1104C135.69 29.3404 134.92 29.4904 134.05 29.4904C133.59 29.4904 133.13 29.4404 132.66 29.3604C133.48 31.1904 134.4 32.7103 134.75 32.7603Z" fill="white"/>
<path d="M136.38 29.1101C135.84 30.9601 135.19 32.5801 134.75 32.7601C134.4 32.7101 133.47 31.1901 132.66 29.3601C132.41 29.3101 132.15 29.2501 131.9 29.1801C132.49 30.5701 133.81 33.3901 134.76 33.3901C134.83 33.3901 134.89 33.3801 134.95 33.3601C135.82 33.0501 136.64 30.5701 137.11 28.8301C136.88 28.9301 136.63 29.0301 136.38 29.1201V29.1101Z" fill="#231F20"/>
<path d="M121.99 35.17C122.42 35 123.03 33.53 123.55 31.79C122.69 32.01 121.85 32.1 121.09 32.1C120.72 32.1 120.36 32.08 120.02 32.03C120.81 33.73 121.66 35.11 121.99 35.16V35.17Z" fill="white"/>
<path d="M121.99 35.7996C122.06 35.7996 122.12 35.7896 122.19 35.7696C122.97 35.4896 123.7 33.5096 124.19 31.8496C124.21 31.7596 124.24 31.6796 124.26 31.5996C124.02 31.6796 123.78 31.7396 123.54 31.7996C123.02 33.5396 122.41 34.9996 121.98 35.1796C121.65 35.1296 120.8 33.7496 120.01 32.0496C119.75 32.0196 119.5 31.9696 119.26 31.9196C119.9 33.3796 121.1 35.8096 121.98 35.8096L121.99 35.7996Z" fill="#231F20"/>
<path d="M107.04 38.6998C107.54 38.4898 108.31 36.4498 108.88 34.2998C107.84 35.2798 106.57 35.8298 105.33 36.1098C106.04 37.5498 106.75 38.6498 107.04 38.6898V38.6998Z" fill="white"/>
<path d="M107.05 39.3198C107.12 39.3198 107.19 39.3098 107.25 39.2898C107.83 39.0798 108.38 37.9298 108.83 36.6698C108.9 36.4698 108.97 36.2698 109.03 36.0698C109.35 35.0598 109.6 34.0698 109.74 33.5098C109.5 33.7098 109.27 33.9198 109.05 34.1498C109 34.1998 108.95 34.2498 108.89 34.2998C108.32 36.4398 107.55 38.4898 107.05 38.6998C106.75 38.6498 106.04 37.5598 105.34 36.1198C105.13 36.1698 104.91 36.2098 104.7 36.2498C105.37 37.6598 106.32 39.3398 107.06 39.3398L107.05 39.3198Z" fill="#231F20"/>
<path d="M143.81 17.5702C143.73 17.5002 143.69 17.3902 143.71 17.2902C143.94 15.6602 143.62 14.2502 142.82 13.3202C142.19 12.6002 141.31 12.2002 140.33 12.2002C138.81 12.2002 137.31 13.1102 136.22 14.7102C136.17 14.7902 136.09 14.8302 135.99 14.8402C135.9 14.8502 135.81 14.8202 135.74 14.7502C134.89 13.9402 133.59 13.4702 132.16 13.4702C129.86 13.4702 127.84 14.6202 126.99 16.4002C126.95 16.4902 126.87 16.5502 126.77 16.5702C126.67 16.5902 126.58 16.5702 126.5 16.5002C126.25 16.2902 125.81 16.1802 125.24 16.1802C123.52 16.1802 120.88 17.1802 119.23 18.4602C119.1 18.5602 118.92 18.5402 118.81 18.4302C118.45 18.0502 116.38 17.1502 113.98 17.1502C113.31 17.1502 112.68 17.2202 112.09 17.3602C111.92 17.4002 111.76 17.3002 111.72 17.1402C109.73 9.80019 104.99 6.4502 101.43 6.4502C100.23 6.4502 99.1901 6.8402 98.4901 7.5602C97.8001 8.2602 97.4501 9.2602 97.4701 10.4502C97.4701 10.5702 97.4101 10.6702 97.3101 10.7302C97.2101 10.7902 97.0801 10.7802 96.9901 10.7202C94.7401 9.2502 92.3801 8.4702 90.1801 8.4702C87.6501 8.4702 85.4201 9.4602 83.7401 11.3302C81.3601 13.9802 80.3401 18.1402 80.8601 23.0402C81.7401 31.2402 84.9301 35.2202 90.6101 35.2202C92.2001 35.2202 94.0201 34.9002 96.0201 34.2602C96.0501 34.2602 96.0801 34.2502 96.1101 34.2502C96.1601 34.2502 96.2001 34.2602 96.2501 34.2802C98.1901 35.2202 100.55 35.7602 102.71 35.7602C104.48 35.7602 106.95 35.4002 108.61 33.7102C110.59 31.7002 113.32 30.5002 115.92 30.5002C116.91 30.5002 117.84 30.6802 118.61 31.0202C119.28 31.3202 120.14 31.4702 121.1 31.4702C123.54 31.4702 126.89 30.4102 128.99 27.4202C129.09 27.2802 129.28 27.2502 129.42 27.3402C130.99 28.3502 132.55 28.8702 134.06 28.8702C137.24 28.8702 139.19 26.6002 139.21 26.5802C139.27 26.5102 139.36 26.4702 139.46 26.4702C139.97 26.4702 144 26.3702 145.15 23.1802C146.36 19.8302 143.93 17.6502 143.83 17.5602L143.81 17.5702ZM100.91 10.7002C101.4 9.3702 102.42 8.6802 103.82 8.7602C107.92 9.0002 110.09 17.1802 110.18 17.5302C110.22 17.6802 110.14 17.8402 109.99 17.9002C109.96 17.9102 107.18 19.0002 104.95 20.6202C104.89 20.6602 104.83 20.6802 104.77 20.6802C104.7 20.6802 104.62 20.6502 104.56 20.6002C101.13 17.6402 100 13.1602 100.91 10.7002ZM85.8301 14.5702C86.8001 12.7002 88.5101 11.6702 90.6501 11.6702C90.8401 11.6702 91.0401 11.6702 91.2401 11.6902C99.1901 12.3402 99.7701 22.8402 99.7701 22.9402C99.7701 23.0302 99.7401 23.1102 99.6801 23.1702C99.6201 23.2302 99.5401 23.2702 99.4501 23.2702C95.6801 23.3002 91.7901 24.3702 87.8801 26.4502C87.8301 26.4702 87.7801 26.4902 87.7301 26.4902C87.6301 26.4902 87.5301 26.4402 87.4701 26.3602C84.8801 22.6802 84.1801 17.7202 85.8101 14.5702H85.8301ZM129.29 23.5302C128.38 22.0402 128.64 19.9002 129.01 18.9002C129.03 18.8502 129.06 18.8002 129.11 18.7602C129.95 18.1002 131.26 18.3602 132.85 19.5702C134.19 20.5802 134.73 20.9002 134.73 20.9002C134.81 20.9502 134.87 21.0302 134.88 21.1202C134.89 21.2002 135.22 23.1402 134.25 24.2902C133.8 24.8302 133.15 25.1002 132.32 25.1002C132.17 25.1002 132.01 25.1002 131.83 25.0702C130.68 24.9402 129.83 24.4202 129.28 23.5302H129.29Z" fill="#208200"/>
<path d="M143.28 12.9103C142.53 12.0503 141.48 11.5803 140.31 11.5803C138.68 11.5803 137.08 12.4803 135.89 14.0703C134.93 13.2903 133.59 12.8503 132.14 12.8503C129.74 12.8503 127.59 14.0003 126.57 15.8203C126.22 15.6503 125.77 15.5603 125.23 15.5603C123.43 15.5603 120.82 16.5203 119.04 17.8203C118.23 17.2303 116.15 16.5203 113.97 16.5203C113.36 16.5203 112.78 16.5703 112.23 16.6803C110.11 9.22031 105.16 5.82031 101.41 5.82031C100.04 5.82031 98.8398 6.28031 98.0198 7.11031C97.3198 7.82031 96.9198 8.77031 96.8298 9.89031C94.6198 8.55031 92.3198 7.84031 90.1398 7.84031C87.4198 7.84031 85.0398 8.90031 83.2298 10.9103C81.5998 12.7303 80.5698 15.2103 80.2098 18.1303C80.1798 18.3403 80.1598 18.5503 80.1398 18.7603C80.0198 20.1303 80.0298 21.5803 80.1898 23.1103C80.5098 26.0703 81.1398 28.5203 82.0898 30.4503C82.1898 30.6503 82.2898 30.8503 82.3998 31.0503C84.1698 34.2403 86.8998 35.8603 90.5598 35.8603C92.1798 35.8603 94.0298 35.5403 96.0398 34.9103C98.0398 35.8603 100.45 36.4003 102.66 36.4003C103.27 36.4003 103.95 36.3603 104.66 36.2403C104.87 36.2103 105.09 36.1603 105.3 36.1103C106.55 35.8303 107.82 35.2803 108.85 34.3003C108.9 34.2503 108.96 34.2003 109.01 34.1503C109.23 33.9303 109.46 33.7103 109.7 33.5103C111.48 32.0003 113.72 31.1303 115.87 31.1303C116.77 31.1303 117.61 31.2903 118.31 31.6003C118.59 31.7203 118.9 31.8303 119.24 31.9103C119.48 31.9703 119.73 32.0103 119.99 32.0403C120.33 32.0803 120.69 32.1103 121.06 32.1103C121.82 32.1103 122.66 32.0103 123.52 31.8003C123.76 31.7403 124 31.6703 124.24 31.6003C124.41 31.5503 124.58 31.4903 124.74 31.4203C126.38 30.8003 128.03 29.7203 129.28 28.0403C130.14 28.5703 131 28.9503 131.86 29.1903C132.11 29.2603 132.37 29.3203 132.62 29.3703C133.09 29.4603 133.55 29.5003 134.01 29.5003C134.88 29.5003 135.66 29.3503 136.34 29.1203C136.6 29.0303 136.84 28.9403 137.07 28.8303C137.69 28.5503 138.2 28.2203 138.6 27.9203C138.79 27.7703 138.96 27.6303 139.1 27.5103C139.3 27.3403 139.44 27.1903 139.53 27.1003C139.99 27.1003 141.48 27.0103 142.92 26.3303C143.18 26.2103 143.43 26.0703 143.68 25.9103C144.51 25.3603 145.26 24.5703 145.67 23.4103C146.86 20.1103 144.84 17.7703 144.3 17.2303C144.51 15.4903 144.14 13.9603 143.24 12.9203L143.28 12.9103ZM139.44 26.4703C139.34 26.4703 139.25 26.5103 139.19 26.5803C139.17 26.6003 137.22 28.8703 134.04 28.8703C132.52 28.8703 130.96 28.3603 129.4 27.3403C129.26 27.2503 129.07 27.2803 128.97 27.4203C126.87 30.4103 123.52 31.4703 121.08 31.4703C120.12 31.4703 119.26 31.3103 118.59 31.0203C117.82 30.6803 116.89 30.5003 115.9 30.5003C113.3 30.5003 110.57 31.7003 108.59 33.7103C106.92 35.4103 104.46 35.7603 102.69 35.7603C100.52 35.7603 98.1698 35.2203 96.2298 34.2803C96.1898 34.2603 96.1398 34.2503 96.0898 34.2503C96.0598 34.2503 96.0298 34.2503 95.9998 34.2603C93.9998 34.8903 92.1798 35.2203 90.5898 35.2203C84.9098 35.2203 81.7198 31.2303 80.8398 23.0403C80.3198 18.1303 81.3398 13.9703 83.7198 11.3303C85.3998 9.46031 87.6298 8.47031 90.1598 8.47031C92.3698 8.47031 94.7198 9.25031 96.9698 10.7203C97.0698 10.7803 97.1898 10.7903 97.2898 10.7303C97.3898 10.6703 97.4498 10.5703 97.4498 10.4503C97.4298 9.26031 97.7798 8.26031 98.4698 7.56031C99.1698 6.85031 100.22 6.45031 101.41 6.45031C104.97 6.45031 109.72 9.79031 111.7 17.1403C111.74 17.3003 111.91 17.4003 112.07 17.3603C112.66 17.2203 113.29 17.1503 113.96 17.1503C116.36 17.1503 118.43 18.0503 118.79 18.4303C118.9 18.5503 119.08 18.5603 119.21 18.4603C120.86 17.1803 123.5 16.1803 125.22 16.1803C125.79 16.1803 126.23 16.2903 126.48 16.5003C126.55 16.5603 126.65 16.5903 126.75 16.5703C126.84 16.5503 126.92 16.4903 126.97 16.4003C127.81 14.6203 129.84 13.4703 132.14 13.4703C133.57 13.4703 134.88 13.9403 135.72 14.7503C135.79 14.8103 135.88 14.8503 135.97 14.8403C136.06 14.8403 136.14 14.7803 136.2 14.7103C137.3 13.1203 138.79 12.2003 140.31 12.2003C141.29 12.2003 142.18 12.6003 142.8 13.3203C143.61 14.2503 143.92 15.6603 143.69 17.2903C143.68 17.3903 143.71 17.5003 143.79 17.5703C143.89 17.6603 146.32 19.8303 145.11 23.1903C143.96 26.3803 139.93 26.4803 139.42 26.4803L139.44 26.4703Z" fill="#231F20"/>
<path d="M87.8401 25.7698C91.6401 23.7798 95.4301 22.7298 99.1101 22.6498C98.9401 20.9198 97.8101 12.8598 91.1801 12.3198C91.0001 12.2998 90.8201 12.2998 90.6401 12.2998C88.7201 12.2998 87.2501 13.1898 86.3801 14.8698C84.8801 17.7598 85.5001 22.3098 87.8401 25.7798V25.7698ZM86.6001 19.6998C86.5301 19.1498 86.5601 18.6098 86.6701 18.1198C86.6701 18.0898 86.6501 18.0598 86.6501 18.0298C86.5801 17.4798 86.8301 16.9898 87.2301 16.7998C87.7201 16.0598 88.4501 15.5498 89.3201 15.4398C91.1001 15.2098 92.7701 16.7398 93.0501 18.8598C93.3301 20.9798 92.1101 22.8898 90.3301 23.1198C88.5501 23.3498 86.8801 21.8198 86.6001 19.7098V19.6998Z" fill="white"/>
<path d="M87.7405 26.4899C87.7905 26.4899 87.8405 26.4799 87.8905 26.4499C91.7905 24.3599 95.6905 23.2899 99.4605 23.2699C99.5505 23.2699 99.6305 23.2299 99.6905 23.1699C99.7505 23.1099 99.7805 23.0199 99.7805 22.9399C99.7805 22.8299 99.1905 12.3399 91.2505 11.6899C91.0505 11.6699 90.8505 11.6699 90.6605 11.6699C88.5305 11.6699 86.8205 12.6999 85.8405 14.5699C84.2105 17.7199 84.9005 22.6799 87.5005 26.3599C87.5605 26.4499 87.6605 26.4899 87.7605 26.4899H87.7405ZM86.3905 14.8599C87.2605 13.1799 88.7305 12.2899 90.6505 12.2899C90.8305 12.2899 91.0005 12.2899 91.1905 12.3099C97.8305 12.8499 98.9605 20.9199 99.1205 22.6399C95.4305 22.7299 91.6405 23.7799 87.8505 25.7599C85.5105 22.2899 84.8905 17.7399 86.3905 14.8499V14.8599Z" fill="#231F20"/>
<path d="M103.59 12.3099C104.84 12.1499 106.01 13.2099 106.2 14.6999C106.4 16.1799 105.54 17.5299 104.3 17.6899C103.59 17.7799 102.91 17.4699 102.42 16.9199C103 17.9999 103.78 19.0499 104.79 19.9599C106.65 18.6399 108.76 17.7199 109.5 17.4099C109.1 16.0099 107.05 9.55988 103.79 9.37988C103.73 9.37988 103.67 9.37988 103.61 9.37988C102.35 9.37988 101.77 10.2199 101.51 10.9199C101.1 12.0299 101.15 13.5899 101.69 15.2199C101.53 13.7599 102.38 12.4699 103.6 12.3099H103.59Z" fill="white"/>
<path d="M104.56 20.6001C104.62 20.6501 104.69 20.6801 104.77 20.6801C104.83 20.6801 104.9 20.6601 104.95 20.6201C107.17 19.0001 109.96 17.9101 109.99 17.9001C110.14 17.8401 110.22 17.6801 110.18 17.5301C110.09 17.1801 107.92 9.00008 103.82 8.76008C102.42 8.68008 101.41 9.38008 100.91 10.7001C100 13.1501 101.13 17.6301 104.56 20.6001ZM101.5 10.9201C101.76 10.2201 102.34 9.38008 103.6 9.38008C103.66 9.38008 103.72 9.38008 103.78 9.38008C107.04 9.57008 109.09 16.0201 109.49 17.4101C108.76 17.7101 106.64 18.6401 104.78 19.9601C103.77 19.0501 102.98 17.9901 102.41 16.9201C102.03 16.5001 101.77 15.9401 101.68 15.3001C101.68 15.2701 101.68 15.2501 101.68 15.2201C101.14 13.5901 101.09 12.0201 101.5 10.9201Z" fill="#231F20"/>
<path d="M131.91 24.4401C132.79 24.5401 133.37 24.3501 133.77 23.8801C134.42 23.1101 134.33 21.7801 134.28 21.3601C134.04 21.2101 133.48 20.8401 132.47 20.0701C131.22 19.1201 130.18 18.8001 129.57 19.2101C129.23 20.1901 129.1 22.0101 129.83 23.2101C130.27 23.9301 130.97 24.3401 131.91 24.4501V24.4401Z" fill="#CEA702"/>
<path d="M134.25 24.2905C135.22 23.1405 134.89 21.2005 134.88 21.1205C134.86 21.0305 134.81 20.9505 134.73 20.9005C134.73 20.9005 134.19 20.5805 132.85 19.5705C131.26 18.3705 129.95 18.1005 129.11 18.7605C129.07 18.7905 129.03 18.8405 129.01 18.9005C128.63 19.9005 128.38 22.0405 129.29 23.5305C129.83 24.4205 130.69 24.9405 131.84 25.0705C132.01 25.0905 132.17 25.1005 132.33 25.1005C133.16 25.1005 133.8 24.8305 134.26 24.2905H134.25ZM129.56 19.2105C130.17 18.8105 131.21 19.1205 132.46 20.0705C133.47 20.8405 134.04 21.2105 134.27 21.3605C134.32 21.7805 134.41 23.1105 133.76 23.8805C133.36 24.3505 132.77 24.5405 131.9 24.4405C130.95 24.3305 130.25 23.9205 129.82 23.2005C129.09 22.0105 129.23 20.1805 129.56 19.2005V19.2105Z" fill="#231F20"/>
<path d="M90.3302 23.1101C92.1102 22.8801 93.3302 20.9701 93.0502 18.8501C92.7702 16.7301 91.1002 15.2001 89.3202 15.4301C88.4602 15.5401 87.7302 16.0501 87.2302 16.7901C87.3102 16.7501 87.3902 16.7201 87.4802 16.7101C88.0302 16.6401 88.5402 17.1101 88.6202 17.7601C88.7102 18.4101 88.3302 18.9901 87.7902 19.0701C87.2702 19.1401 86.7802 18.7101 86.6702 18.1101C86.5602 18.6101 86.5302 19.1401 86.6002 19.6901C86.8802 21.8101 88.5502 23.3401 90.3302 23.1001V23.1101ZM92.2602 20.1801C92.5302 20.1401 92.7802 20.3801 92.8302 20.7101C92.8702 21.0301 92.6802 21.3201 92.4102 21.3601C92.1402 21.4001 91.8802 21.1701 91.8402 20.8401C91.8002 20.5101 91.9902 20.2201 92.2602 20.1901V20.1801Z" fill="#231F20"/>
<path d="M87.7904 19.07C88.3404 18.99 88.7104 18.41 88.6204 17.76C88.5404 17.11 88.0304 16.64 87.4804 16.71C87.3904 16.72 87.3104 16.75 87.2304 16.79C86.8304 16.98 86.5804 17.48 86.6504 18.02C86.6504 18.05 86.6604 18.08 86.6704 18.11C86.7904 18.71 87.2704 19.14 87.7904 19.07Z" fill="white"/>
<path d="M92.4095 21.3604C92.6895 21.3204 92.8695 21.0304 92.8295 20.7104C92.7795 20.3804 92.5295 20.1504 92.2595 20.1804C91.9795 20.2104 91.7995 20.5104 91.8395 20.8304C91.8895 21.1604 92.1395 21.3904 92.4095 21.3504V21.3604Z" fill="white"/>
<path d="M104.3 17.6899C105.55 17.5299 106.4 16.1899 106.2 14.6999C106.01 13.2099 104.84 12.1499 103.59 12.3099C102.37 12.4699 101.52 13.7699 101.68 15.2199C101.68 15.2499 101.68 15.2699 101.68 15.2999C101.76 15.9399 102.03 16.4999 102.41 16.9199C102.9 17.4699 103.59 17.7799 104.29 17.6899H104.3ZM105.65 15.6299C105.84 15.5999 106.02 15.7699 106.05 15.9899C106.08 16.2199 105.95 16.4299 105.76 16.4599C105.56 16.4799 105.38 16.3099 105.35 16.0899C105.32 15.8599 105.45 15.6499 105.65 15.6299ZM101.92 14.1599C101.86 13.6999 102.12 13.2899 102.5 13.2399C102.88 13.1899 103.24 13.5099 103.3 13.9699C103.36 14.4299 103.1 14.8399 102.72 14.8899C102.34 14.9399 101.98 14.6099 101.92 14.1599Z" fill="#231F20"/>
<path d="M103.3 13.9695C103.24 13.5095 102.88 13.1895 102.5 13.2395C102.12 13.2895 101.86 13.6995 101.92 14.1595C101.98 14.6095 102.34 14.9395 102.72 14.8895C103.1 14.8395 103.36 14.4295 103.3 13.9695Z" fill="white"/>
<path d="M105.76 16.4604C105.94 16.4304 106.08 16.2304 106.05 15.9904C106.02 15.7704 105.84 15.6004 105.65 15.6304C105.46 15.6504 105.33 15.8604 105.35 16.0904C105.38 16.3104 105.56 16.4804 105.76 16.4604Z" fill="white"/>
<path d="M85.5297 4.69965C85.7297 4.55965 85.7897 4.36965 85.7097 4.12965C85.5897 3.76965 85.1797 3.38965 84.6797 3.38965C84.3997 3.38965 84.1297 3.50965 83.8797 3.75965C82.8797 4.75965 82.6997 6.54965 82.6797 7.58965C83.4097 6.73965 84.7197 5.26965 85.5197 4.69965H85.5297Z" fill="#231F20"/>
<path d="M82.3101 8.71977C82.3101 8.71977 82.3701 8.72976 82.4001 8.72976C82.4901 8.72976 82.5801 8.68977 82.6401 8.61977C82.6601 8.58977 84.8401 5.96977 85.8901 5.20977C86.3101 4.90977 86.4601 4.42977 86.3001 3.92977C86.0901 3.25977 85.3901 2.75977 84.6801 2.75977C84.2301 2.75977 83.8001 2.94977 83.4401 3.30977C81.7801 4.96977 82.0701 8.29977 82.0801 8.43976C82.0901 8.56977 82.1801 8.66977 82.3001 8.70977L82.3101 8.71977ZM84.6801 3.38977C85.1701 3.38977 85.5901 3.75977 85.7101 4.12977C85.7901 4.36977 85.7301 4.55977 85.5301 4.69977C84.7401 5.26977 83.4201 6.73977 82.6901 7.58977C82.7001 6.54977 82.8901 4.75977 83.8901 3.75977C84.1301 3.50977 84.4001 3.38977 84.6901 3.38977H84.6801Z" fill="#231F20"/>
<path d="M99.4501 1.57012C99.4201 1.76012 99.4301 2.09012 99.8001 2.19012C100.74 2.46012 102.46 3.42012 103.43 3.98012C103.07 3.00012 102.31 1.37012 101.04 0.760117C100.85 0.670117 100.66 0.620117 100.48 0.620117C99.9201 0.620117 99.5101 1.10012 99.4501 1.56012V1.57012Z" fill="#231F20"/>
<path d="M99.6198 2.79977C100.87 3.16977 103.78 4.92977 103.81 4.94977C103.86 4.97977 103.92 4.99977 103.97 4.99977C104.04 4.99977 104.1 4.97977 104.16 4.93977C104.26 4.85977 104.31 4.73977 104.28 4.60977C104.25 4.46977 103.43 1.22977 101.31 0.209766C101.03 0.0797656 100.75 0.00976562 100.48 0.00976562C99.5798 0.00976562 98.9298 0.759766 98.8298 1.48977C98.7398 2.11977 99.0498 2.63977 99.6298 2.80977L99.6198 2.79977ZM101.04 0.769766C102.31 1.37977 103.07 3.01977 103.43 3.98977C102.46 3.42977 100.74 2.46977 99.7998 2.19977C99.4298 2.08977 99.4198 1.75977 99.4498 1.57977C99.5198 1.11977 99.9198 0.639766 100.48 0.639766C100.66 0.639766 100.84 0.689766 101.04 0.779766V0.769766Z" fill="#231F20"/>
</svg>
