<svg width="162" height="138" viewBox="0 0 162 138" fill="none" xmlns="http://www.w3.org/2000/svg">
<path d="M116.35 122.04C116.57 122.6 116.8 123.13 117.07 123.64C117.77 123.61 118.45 123.53 119.12 123.4C128.87 121.54 135.73 115.5 137.48 107.25C137.36 106.91 137.24 106.57 137.1 106.23C136.55 104.87 135.76 103.47 134.8 102.06C131.09 104.35 126.54 105.53 121.23 105.53C119.97 105.53 118.66 105.46 117.34 105.33C116 105.19 114.72 104.9 113.5 104.48C115.61 110.45 117.01 116.98 116.36 122.05L116.35 122.04Z" fill="#19BC25"/>
<path d="M122.73 128.659C122.56 128.649 122.38 128.629 122.21 128.609C122.38 128.629 122.55 128.649 122.73 128.659Z" fill="#231F20"/>
<path d="M116.43 124.3C116.36 124.17 116.36 124.01 116.43 123.88C116.5 123.75 116.64 123.67 116.79 123.66C116.88 123.66 116.97 123.66 117.06 123.65C116.8 123.15 116.56 122.61 116.34 122.05C116.27 122.59 116.18 123.12 116.06 123.63C117.33 126.3 119.2 128.25 122.17 128.62C119.72 128.3 117.83 126.88 116.42 124.3H116.43Z" fill="#231F20"/>
<path d="M123.279 128.68C123.089 128.68 122.909 128.68 122.729 128.66C122.909 128.67 123.079 128.68 123.269 128.68C123.889 128.68 124.539 128.61 125.219 128.49C124.549 128.61 123.889 128.68 123.279 128.68Z" fill="#231F20"/>
<path d="M134.79 102.05C135.75 103.46 136.54 104.86 137.09 106.22C137.23 106.56 137.35 106.9 137.47 107.24C137.47 107.21 137.49 107.17 137.49 107.14C137.53 106.95 137.69 106.81 137.89 106.8C138.08 106.78 138.26 106.91 138.33 107.09C139.97 111.95 139.64 116.75 137.4 120.59C135.08 124.58 130.86 127.35 125.52 128.42C131.03 127.32 135.31 124.43 137.6 120.26C139.86 116.14 139.96 111.03 137.9 105.89C137.33 104.47 136.52 103.02 135.53 101.56C135.29 101.72 135.04 101.88 134.79 102.04V102.05Z" fill="#231F20"/>
<path d="M123.28 127.81C123.86 127.81 124.49 127.75 125.14 127.62C130.33 126.63 134.42 123.98 136.65 120.16C138.57 116.88 139.01 113 137.96 108.88C135.68 116.73 128.81 122.42 119.28 124.24C118.71 124.35 118.14 124.43 117.55 124.47C118.97 126.71 120.85 127.8 123.28 127.8V127.81Z" fill="#725522"/>
<path d="M137.399 120.6C139.639 116.75 139.979 111.96 138.329 107.1C138.269 106.91 138.079 106.78 137.889 106.81C137.689 106.82 137.529 106.96 137.489 107.15C137.489 107.18 137.469 107.22 137.469 107.25C135.719 115.5 128.869 121.53 119.109 123.4C118.439 123.53 117.769 123.61 117.059 123.64C116.969 123.64 116.879 123.65 116.789 123.65C116.639 123.65 116.499 123.74 116.429 123.87C116.359 124 116.349 124.16 116.429 124.29C117.849 126.87 119.729 128.29 122.179 128.61H122.199C122.369 128.63 122.539 128.65 122.719 128.66C122.899 128.67 123.079 128.68 123.269 128.68C123.879 128.68 124.529 128.62 125.209 128.49C125.239 128.49 125.269 128.49 125.299 128.47C125.369 128.46 125.439 128.44 125.509 128.42C130.849 127.35 135.059 124.58 137.389 120.59L137.399 120.6ZM119.279 124.25C128.809 122.43 135.669 116.74 137.959 108.89C139.009 113.01 138.569 116.89 136.649 120.17C134.419 123.99 130.339 126.64 125.139 127.63C124.489 127.76 123.859 127.82 123.279 127.82C120.849 127.82 118.969 126.73 117.549 124.49C118.139 124.44 118.709 124.37 119.279 124.26V124.25Z" fill="#231F20"/>
<path d="M57.4899 119.29C58.7999 119.48 60.0899 119.58 61.3599 119.58C67.9899 119.58 73.7199 116.92 77.4999 112.09C77.5399 111.73 77.5799 111.37 77.6099 111C77.6899 109.95 77.6599 108.82 77.5399 107.64C74.8899 108.07 72.0499 108.32 69.0099 108.32C68.0299 108.32 67.0199 108.29 66.0299 108.24C62.7899 108.07 59.5499 107.48 56.3799 106.58C57.3299 110.94 57.8299 115.42 57.4999 119.28L57.4899 119.29Z" fill="#19BC25"/>
<path d="M56.4001 125.56C56.4001 125.56 56.3601 125.54 56.3301 125.54C56.3501 125.54 56.3701 125.56 56.4001 125.56Z" fill="#231F20"/>
<path d="M62.7802 126.599C60.9902 126.599 59.1202 126.339 57.2402 125.829C59.1202 126.339 60.9802 126.609 62.7802 126.609C70.9702 126.609 76.8402 121.399 78.2102 113.149C76.8202 121.349 70.8402 126.599 62.7702 126.599H62.7802Z" fill="#231F20"/>
<path d="M77.5302 107.65C77.6502 108.84 77.6702 109.96 77.6002 111.01C77.5702 111.38 77.5402 111.74 77.4902 112.1C77.5102 112.07 77.5402 112.04 77.5602 112.01C77.6802 111.85 77.8902 111.8 78.0702 111.87C78.2502 111.94 78.3502 112.12 78.3302 112.31C78.3802 111.9 78.4302 111.49 78.4602 111.06C78.5402 109.94 78.5102 108.74 78.3902 107.49C78.1002 107.54 77.8202 107.59 77.5302 107.64V107.65Z" fill="#231F20"/>
<path d="M56.3203 124.61C56.6803 124.75 57.0703 124.88 57.4803 124.99C59.2903 125.48 61.0703 125.73 62.7903 125.73C70.1503 125.73 75.6803 121.09 77.2203 113.77C73.3003 118.09 67.7303 120.45 61.3603 120.45C60.0603 120.45 58.7403 120.35 57.4103 120.15C57.2503 121.48 56.9903 122.73 56.6003 123.86C56.5103 124.11 56.4203 124.36 56.3303 124.6L56.3203 124.61Z" fill="#725522"/>
<path d="M78.0695 111.87C77.8895 111.8 77.6795 111.85 77.5595 112.01C77.5395 112.04 77.5095 112.07 77.4895 112.1C73.7095 116.93 67.9895 119.59 61.3495 119.59C60.0795 119.59 58.7895 119.49 57.4795 119.3C57.4795 119.32 57.4795 119.34 57.4795 119.35C57.5395 119.4 57.5795 119.46 57.6095 119.53C57.6595 119.68 57.6395 119.84 57.5295 119.96C57.4795 120.01 57.4395 120.07 57.3995 120.12C57.3995 120.13 57.3995 120.14 57.3995 120.15C58.7395 120.34 60.0595 120.45 61.3495 120.45C67.7195 120.45 73.2795 118.09 77.2095 113.77C75.6595 121.09 70.1395 125.73 62.7795 125.73C61.0595 125.73 59.2795 125.48 57.4695 124.99C57.0595 124.88 56.6795 124.75 56.3095 124.61C56.2495 124.76 56.1895 124.92 56.1195 125.07C56.1195 125.07 56.1195 125.07 56.1195 125.08C56.1195 125.1 56.0995 125.12 56.0895 125.15C56.0495 125.24 56.0095 125.32 55.9795 125.41C56.0995 125.46 56.2095 125.5 56.3295 125.54C56.3495 125.54 56.3695 125.56 56.3995 125.56C56.6695 125.65 56.9495 125.74 57.2395 125.82C59.1195 126.33 60.9795 126.59 62.7795 126.59C70.8495 126.59 76.8295 121.34 78.2195 113.14V113.12C78.2595 112.89 78.2895 112.66 78.3195 112.43C78.3195 112.4 78.3295 112.36 78.3295 112.33C78.3295 112.33 78.3295 112.33 78.3295 112.32C78.3495 112.13 78.2395 111.95 78.0695 111.88V111.87Z" fill="#231F20"/>
<path d="M57.3994 120.129C57.4494 120.079 57.4894 120.019 57.5294 119.969C57.6294 119.849 57.6594 119.679 57.6094 119.539C57.5794 119.469 57.5394 119.399 57.4794 119.359C57.4594 119.619 57.4294 119.879 57.3994 120.139V120.129Z" fill="#231F20"/>
<path d="M11.0095 77.6801C7.58951 76.1201 4.97951 75.3301 3.25951 75.3301C2.25951 75.3301 1.58951 75.5901 1.22951 76.1101C0.639506 76.9601 0.769506 78.5501 1.60951 80.8501C5.36951 91.0601 16.6495 96.4001 25.8495 96.4001C28.6895 96.4001 31.3595 95.8901 33.7095 94.9301C33.6995 94.8101 33.6895 94.7501 33.6895 94.7401C33.6895 94.7001 33.6895 94.6601 33.6895 94.6201C27.5295 89.8101 22.6195 84.5201 19.7895 80.1601C19.3395 79.4601 18.9995 78.8201 18.7595 78.2201C17.7895 78.3901 16.6595 78.5301 15.4695 78.5301C13.7595 78.5301 12.2595 78.2401 11.0095 77.6701V77.6801Z" fill="#19BC25"/>
<path d="M33.7098 94.9395C31.3598 95.8995 28.6898 96.4095 25.8498 96.4095C16.6498 96.4095 5.36984 91.0695 1.60984 80.8595C0.759842 78.5595 0.629842 76.9695 1.22984 76.1195C1.59984 75.5895 2.25984 75.3394 3.25984 75.3394C4.97984 75.3394 7.58984 76.1295 11.0098 77.6895C12.2598 78.2595 13.7598 78.5495 15.4698 78.5495C16.6598 78.5495 17.7898 78.4095 18.7598 78.2395C18.6498 77.9495 18.5598 77.6695 18.4998 77.3995C17.5998 77.5595 16.5498 77.6795 15.4798 77.6795C13.8898 77.6795 12.5098 77.4195 11.3798 76.8995C5.32984 74.1495 1.83984 73.7495 0.529842 75.6295C-0.240158 76.7395 -0.150158 78.5495 0.809842 81.1695C4.69984 91.7495 16.3598 97.2895 25.8598 97.2895C28.6998 97.2895 31.3998 96.7995 33.7898 95.8595C33.7698 95.4395 33.7398 95.1294 33.7198 94.9494L33.7098 94.9395Z" fill="#231F20"/>
<path d="M148.299 22.9697C146.929 22.9697 145.589 22.4697 144.329 21.4797C141.559 19.3097 139.959 15.8297 140.039 12.1797C140.069 10.8797 140.319 9.68973 140.729 8.73973C138.649 7.58973 135.979 6.96973 132.909 6.96973C130.569 6.96973 128.119 7.32973 125.819 8.01973C117.889 10.3797 112.729 14.5497 113.339 27.2797C113.339 27.3797 113.309 27.4797 113.249 27.5597C107.039 35.7197 110.889 42.0997 115.759 50.1797C118.019 53.9297 120.589 58.1797 122.439 63.1097C123.999 67.2697 124.529 70.6997 124.029 73.3497C124.049 73.5197 124.049 73.6897 124.049 73.8697C123.949 76.1597 121.879 78.3897 120.009 79.1397C116.329 80.6097 112.189 85.1997 107.809 90.0597C107.509 90.3897 107.199 90.7297 106.899 91.0697C108.889 93.8397 111.229 98.3697 113.109 103.4C114.469 103.93 115.909 104.31 117.429 104.46C118.729 104.59 119.999 104.66 121.229 104.66C128.589 104.66 138.319 102.24 142.839 90.7297C146.239 82.1197 142.309 70.6797 130.839 55.7497C130.719 55.5997 130.719 55.3897 130.829 55.2397C130.939 55.0897 131.139 55.0197 131.319 55.0797C131.779 55.2297 132.299 55.2997 132.869 55.2997C136.249 55.2997 141.079 52.6397 143.299 50.2497C143.399 50.1397 143.559 50.0897 143.709 50.1197C144.739 50.3397 145.789 50.4497 146.819 50.4497C154.039 50.4497 159.959 45.1897 160.899 37.9497C161.759 31.2797 157.639 25.3797 150.559 22.4897C149.839 22.7997 149.079 22.9797 148.309 22.9797L148.299 22.9697ZM126.279 11.0397C127.729 8.75973 129.689 7.25973 131.379 7.12973C133.809 6.94973 135.819 7.94973 137.249 10.0197C139.589 13.4097 139.909 19.2197 138.739 22.3197C137.659 25.1997 134.539 27.2897 131.319 27.2897C128.409 27.2897 126.089 25.5797 124.969 22.5997C123.559 18.8597 124.049 14.5397 126.279 11.0397ZM141.229 49.4697C138.619 51.6297 135.819 52.9597 133.209 53.3397C132.969 53.3697 132.729 53.3997 132.489 53.4197C132.489 53.4197 132.469 53.4197 132.459 53.4197C132.219 53.4397 131.979 53.4497 131.739 53.4497C131.649 53.4497 131.559 53.4397 131.469 53.4397C131.299 53.4397 131.119 53.4297 130.949 53.4097C130.859 53.4097 130.759 53.3897 130.669 53.3797C130.479 53.3597 130.299 53.3297 130.119 53.2897C130.059 53.2797 130.009 53.2697 129.949 53.2497C129.709 53.1997 129.479 53.1397 129.259 53.0597C128.499 52.8097 127.819 52.4297 127.239 51.9497C127.239 51.9497 127.239 51.9497 127.229 51.9497C127.059 51.7997 126.889 51.6497 126.739 51.4797C126.709 51.4497 126.679 51.4197 126.649 51.3897C126.519 51.2497 126.399 51.0997 126.289 50.9397C126.259 50.8997 126.229 50.8697 126.199 50.8297C126.189 50.8197 126.179 50.7997 126.169 50.7797C124.979 49.0397 124.029 45.7397 126.179 39.8197C126.229 39.6697 126.359 39.5697 126.519 39.5397C126.669 39.5097 126.829 39.5697 126.929 39.6897C126.989 39.7697 133.349 47.5297 141.039 48.7097C141.209 48.7397 141.349 48.8597 141.389 49.0197C141.439 49.1797 141.379 49.3597 141.249 49.4697H141.229ZM140.819 26.3697C139.839 26.3697 139.179 25.9897 139.179 25.4297C139.179 24.8697 139.859 24.4997 140.819 24.4997C141.779 24.4997 142.459 24.8697 142.459 25.4297C142.459 25.9897 141.799 26.3697 140.819 26.3697ZM146.279 26.5297C145.239 26.5297 144.189 26.1397 144.189 25.4097C144.189 24.7497 145.049 24.2897 146.279 24.2897C147.509 24.2897 148.379 24.7497 148.379 25.4097C148.379 26.1497 147.329 26.5297 146.279 26.5297Z" fill="#19BC25"/>
<path d="M151.53 21.9495C151.22 22.1595 150.89 22.3295 150.55 22.4795C157.64 25.3695 161.76 31.2695 160.89 37.9395C159.95 45.1795 154.03 50.4395 146.81 50.4395C145.77 50.4395 144.73 50.3295 143.7 50.1095C143.55 50.0795 143.4 50.1295 143.29 50.2395C141.07 52.6295 136.24 55.2895 132.86 55.2895C132.29 55.2895 131.76 55.2195 131.31 55.0695C131.13 55.0195 130.93 55.0695 130.82 55.2295C130.71 55.3795 130.72 55.5895 130.83 55.7395C142.3 70.6595 146.22 82.0995 142.83 90.7195C138.31 102.229 128.58 104.649 121.22 104.649C119.99 104.649 118.71 104.579 117.42 104.449C115.9 104.299 114.46 103.919 113.1 103.389C113.23 103.749 113.36 104.099 113.49 104.459C114.71 104.869 115.99 105.169 117.33 105.309C118.65 105.449 119.96 105.509 121.22 105.509C126.53 105.509 131.08 104.329 134.79 102.039C135.04 101.889 135.28 101.729 135.53 101.559C139.11 99.1294 141.84 95.5994 143.64 91.0294C147.09 82.2895 143.35 70.8595 132.22 56.1195C135.81 56.4495 141.16 53.6795 143.77 50.9995C144.78 51.1995 145.81 51.2995 146.82 51.2995C154.48 51.2995 160.77 45.7195 161.76 38.0395C162.65 31.1595 158.59 25.0695 151.53 21.9395V21.9495Z" fill="#231F20"/>
<path d="M124.03 73.3601C124.53 70.7101 124 67.2901 122.44 63.1201C120.59 58.1801 118.02 53.9301 115.76 50.1901C110.88 42.1101 107.03 35.7301 113.25 27.5701C113.31 27.4901 113.34 27.3901 113.34 27.2901C112.73 14.5601 117.89 10.3901 125.82 8.03012C128.12 7.34012 130.57 6.98012 132.91 6.98012C135.97 6.98012 138.64 7.60012 140.73 8.75012C140.85 8.47012 140.98 8.22012 141.13 7.98012C138.92 6.77012 136.11 6.12012 132.91 6.12012C130.49 6.12012 127.95 6.49012 125.57 7.20012C115.77 10.1101 111.96 15.9101 112.46 27.1801C106.03 35.7501 110 42.3301 115.02 50.6501C117.26 54.3701 119.8 58.5801 121.63 63.4401C122.85 66.6801 123.42 69.4401 123.35 71.6801C123.73 72.1801 123.97 72.7501 124.04 73.3701L124.03 73.3601Z" fill="#231F20"/>
<path d="M140.27 25.4295C140.54 25.4995 141.11 25.4995 141.38 25.4295C141.11 25.3595 140.54 25.3595 140.27 25.4295Z" fill="white"/>
<path d="M140.82 24.5C139.85 24.5 139.18 24.88 139.18 25.43C139.18 25.98 139.84 26.37 140.82 26.37C141.8 26.37 142.46 25.99 142.46 25.43C142.46 24.87 141.8 24.5 140.82 24.5ZM140.27 25.43C140.54 25.36 141.11 25.36 141.38 25.43C141.11 25.5 140.54 25.5 140.27 25.43Z" fill="#231F20"/>
<path d="M145.109 25.3994C145.269 25.5094 145.679 25.6594 146.289 25.6594C146.899 25.6594 147.309 25.5094 147.469 25.3994C147.319 25.2994 146.939 25.1494 146.289 25.1494C145.639 25.1494 145.259 25.2994 145.109 25.3994Z" fill="white"/>
<path d="M146.279 24.2793C145.049 24.2793 144.189 24.7393 144.189 25.3993C144.189 26.1393 145.239 26.5193 146.279 26.5193C147.319 26.5193 148.379 26.1293 148.379 25.3993C148.379 24.7393 147.519 24.2793 146.279 24.2793ZM146.279 25.6593C145.669 25.6593 145.259 25.5093 145.099 25.3993C145.249 25.2993 145.629 25.1493 146.279 25.1493C146.929 25.1493 147.309 25.2993 147.459 25.3993C147.299 25.5093 146.889 25.6593 146.279 25.6593Z" fill="#231F20"/>
<path d="M134.98 52.0196C136.63 51.4896 138.32 50.5896 139.93 49.3796C133.52 47.9696 128.32 42.6096 126.73 40.8096C126.06 42.8496 125.73 44.7096 125.76 46.3096C126.65 46.0696 127.53 45.9496 128.36 45.9496C132.01 45.9496 134.45 48.2096 134.98 52.0196Z" fill="white"/>
<path d="M131.74 53.4402C131.64 53.4402 131.55 53.4402 131.46 53.4302C131.55 53.4302 131.64 53.4402 131.73 53.4402H131.74Z" fill="#231F20"/>
<path d="M130.94 53.4099C130.85 53.4099 130.75 53.3899 130.66 53.3799C130.75 53.3899 130.84 53.4099 130.94 53.4099Z" fill="#231F20"/>
<path d="M126.72 51.4699C126.72 51.4699 126.66 51.4099 126.63 51.3799C126.66 51.4099 126.69 51.4399 126.72 51.4699Z" fill="#231F20"/>
<path d="M141.02 48.7001C133.33 47.5201 126.97 39.7601 126.91 39.6801C126.81 39.5601 126.65 39.5001 126.5 39.5301C126.35 39.5601 126.22 39.6601 126.16 39.8101C124.01 45.7301 124.95 49.0401 126.15 50.7701C125.45 49.7401 125.03 48.4401 124.92 46.9101C124.91 46.7101 125.03 46.5301 125.22 46.4701C125.4 46.4101 125.58 46.3701 125.76 46.3201C125.73 44.7101 126.06 42.8501 126.73 40.8201C128.32 42.6201 133.52 47.9801 139.93 49.3901C138.32 50.6001 136.62 51.5001 134.98 52.0301C135 52.2101 135.03 52.3801 135.05 52.5601C135.07 52.7701 134.94 52.9601 134.73 53.0201C134.21 53.1601 133.7 53.2701 133.2 53.3401C135.82 52.9701 138.62 51.6301 141.22 49.4701C141.35 49.3601 141.41 49.1801 141.36 49.0201C141.31 48.8601 141.18 48.7301 141.01 48.7101L141.02 48.7001Z" fill="#231F20"/>
<path d="M126.19 50.8193C126.19 50.8193 126.25 50.8893 126.28 50.9293C126.24 50.8793 126.2 50.8293 126.16 50.7793C126.17 50.7893 126.18 50.8093 126.19 50.8293V50.8193Z" fill="#231F20"/>
<path d="M130.109 53.29C130.049 53.28 129.999 53.27 129.939 53.25C129.999 53.26 130.049 53.27 130.109 53.29Z" fill="#231F20"/>
<path d="M131.74 52.5793C132.51 52.5793 133.32 52.4793 134.15 52.2693C133.72 48.7993 131.62 46.8193 128.36 46.8193C127.55 46.8193 126.7 46.9493 125.82 47.1893C126.18 50.6193 128.32 52.5793 131.74 52.5793Z" fill="white"/>
<path d="M135.05 52.56C135.03 52.38 135.01 52.2 134.98 52.03C134.45 48.22 132.01 45.96 128.36 45.96C127.53 45.96 126.66 46.09 125.76 46.32C125.58 46.37 125.4 46.41 125.22 46.47C125.03 46.53 124.9 46.71 124.92 46.91C125.03 48.44 125.45 49.74 126.15 50.77C126.19 50.82 126.23 50.87 126.27 50.92C126.38 51.08 126.5 51.23 126.63 51.37C126.66 51.4 126.69 51.43 126.72 51.46C126.87 51.63 127.04 51.78 127.21 51.93C127.21 51.93 127.21 51.93 127.22 51.93C127.8 52.42 128.47 52.79 129.24 53.04C129.46 53.11 129.7 53.18 129.93 53.23C129.99 53.24 130.04 53.26 130.1 53.27C130.28 53.31 130.47 53.33 130.65 53.36C130.74 53.37 130.83 53.39 130.93 53.39C131.1 53.4 131.27 53.41 131.45 53.42C131.54 53.42 131.63 53.43 131.73 53.43C131.97 53.43 132.2 53.43 132.45 53.4C132.45 53.4 132.47 53.4 132.48 53.4C132.72 53.38 132.96 53.36 133.2 53.32C133.7 53.25 134.21 53.14 134.73 53C134.93 52.94 135.06 52.75 135.05 52.54V52.56ZM128.36 46.82C131.62 46.82 133.72 48.8 134.15 52.27C133.32 52.47 132.51 52.58 131.74 52.58C128.32 52.58 126.18 50.62 125.82 47.19C126.7 46.94 127.55 46.82 128.36 46.82Z" fill="#231F20"/>
<path d="M91.7599 103.08C91.6299 105.32 91.1999 108.02 90.1799 110.95C89.5499 112.75 88.5199 114.76 87.4299 116.89C85.7099 120.24 83.8299 123.92 83.4199 127.12C84.1799 127.5 84.9099 127.81 85.6599 128.07C89.8399 129.51 93.9999 130.23 98.0199 130.23C104.62 130.23 110.46 128.28 114.92 124.6C115.03 124.25 115.13 123.9 115.21 123.55C117.4 114.46 110.83 98.1 106.33 91.71C105.61 92.5 104.89 93.29 104.15 94.08C102.47 95.86 98.3299 99.8 91.7599 103.09V103.08Z" fill="#19BC25"/>
<path d="M82.4697 127.98C82.4697 127.79 82.4897 127.6 82.5097 127.41C82.4897 127.6 82.4797 127.79 82.4697 127.98Z" fill="#231F20"/>
<path d="M82.9597 131.07C82.9597 131.07 82.9797 131.11 82.9797 131.13C82.9597 131.09 82.9497 131.05 82.9297 131C82.9297 131.02 82.9497 131.05 82.9597 131.07Z" fill="#231F20"/>
<path d="M82.7395 126.979C82.8695 126.909 83.0195 126.909 83.1495 126.979C83.2395 127.029 83.3295 127.069 83.4195 127.109C83.8195 123.909 85.7095 120.239 87.4295 116.879C88.5195 114.749 89.5495 112.739 90.1795 110.939C91.1995 108.009 91.6295 105.309 91.7595 103.069C91.4595 103.219 91.1595 103.369 90.8495 103.509C90.6895 105.589 90.2695 108.029 89.3595 110.649C88.7495 112.389 87.7295 114.379 86.6495 116.479C84.8395 119.999 82.8595 123.859 82.5195 127.299C82.5395 127.159 82.6195 127.039 82.7395 126.969V126.979Z" fill="#231F20"/>
<path d="M82.5395 129.46C82.5095 129.27 82.4995 129.07 82.4795 128.87C82.4895 129.07 82.5095 129.27 82.5395 129.46Z" fill="#231F20"/>
<path d="M82.4703 128.73C82.4703 128.53 82.4603 128.33 82.4703 128.12C82.4703 128.33 82.4703 128.53 82.4703 128.73Z" fill="#231F20"/>
<path d="M85.5198 134.179C85.4498 134.129 85.3698 134.079 85.2998 134.029C85.3698 134.079 85.4398 134.129 85.5198 134.179Z" fill="#231F20"/>
<path d="M99.9501 137.2C99.7701 137.22 99.5902 137.23 99.4102 137.25C99.5902 137.24 99.7701 137.22 99.9501 137.2Z" fill="#231F20"/>
<path d="M87.6997 135.35C87.5397 135.28 87.3797 135.21 87.2197 135.14C87.3797 135.21 87.5297 135.28 87.6997 135.35Z" fill="#231F20"/>
<path d="M86.2397 134.64C86.1297 134.58 86.0297 134.51 85.9297 134.45C86.0297 134.51 86.1397 134.58 86.2397 134.64Z" fill="#231F20"/>
<path d="M85.0196 133.81C85.0196 133.81 84.9396 133.74 84.8896 133.7C84.9296 133.74 84.9696 133.77 85.0196 133.81Z" fill="#231F20"/>
<path d="M82.8094 130.649C82.7694 130.509 82.7195 130.369 82.6895 130.229C82.7295 130.369 82.7694 130.509 82.8094 130.649Z" fill="#231F20"/>
<path d="M84.4003 133.239C84.4003 133.239 84.3403 133.179 84.3203 133.149C84.3503 133.179 84.3803 133.209 84.4003 133.239Z" fill="#231F20"/>
<path d="M88.65 135.71C88.41 135.63 88.19 135.54 87.96 135.45C88.18 135.54 88.41 135.62 88.65 135.71Z" fill="#231F20"/>
<path d="M116.35 122.039C117 116.969 115.6 110.439 113.49 104.469C113.36 104.109 113.23 103.749 113.1 103.399C111.22 98.3693 108.88 93.8293 106.89 91.0693C106.7 91.2793 106.51 91.4893 106.32 91.6993C110.83 98.0893 117.4 114.449 115.2 123.539C115.11 123.899 115.01 124.249 114.91 124.589C114.94 124.559 114.97 124.539 115 124.519C115.15 124.399 115.36 124.389 115.52 124.489C115.68 124.599 115.75 124.799 115.69 124.979C113.54 131.859 107.7 136.379 100.16 137.179C108.22 136.349 114.2 131.359 116.04 123.739C116.04 123.699 116.06 123.659 116.07 123.619C116.19 123.109 116.28 122.589 116.35 122.039Z" fill="#231F20"/>
<path d="M85.3699 128.87C84.6899 128.64 84.0199 128.36 83.3399 128.04C83.2399 131.37 85.0299 133.56 88.9299 134.89C91.9099 135.92 94.8799 136.44 97.7499 136.44C105.63 136.44 111.74 132.61 114.37 126.12C109.91 129.38 104.29 131.09 98.0099 131.09C93.8899 131.09 89.6299 130.35 85.3599 128.88L85.3699 128.87Z" fill="#725522"/>
<path d="M115.699 124.98C115.759 124.8 115.689 124.6 115.529 124.49C115.369 124.38 115.159 124.39 115.009 124.52C114.979 124.55 114.949 124.57 114.919 124.59C110.459 128.27 104.619 130.22 98.0195 130.22C93.9895 130.22 89.8295 129.49 85.6595 128.06C84.9195 127.8 84.1795 127.49 83.4195 127.11C83.3295 127.07 83.2395 127.02 83.1495 126.98C83.0195 126.91 82.8695 126.92 82.7395 126.98C82.6195 127.05 82.5395 127.17 82.5195 127.31C82.5195 127.31 82.5195 127.31 82.5195 127.32C82.5195 127.35 82.5195 127.38 82.5195 127.41C82.4995 127.6 82.4895 127.79 82.4795 127.98C82.4795 128.02 82.4795 128.07 82.4795 128.11C82.4795 128.32 82.4795 128.52 82.4795 128.72C82.4795 128.77 82.4795 128.82 82.4795 128.86C82.4895 129.06 82.5095 129.26 82.5395 129.45C82.5395 129.49 82.5495 129.52 82.5595 129.56C82.5795 129.71 82.6095 129.86 82.6395 130.01C82.6595 130.08 82.6695 130.15 82.6895 130.23C82.7295 130.37 82.7695 130.51 82.8095 130.65C82.8495 130.77 82.8895 130.88 82.9295 130.99C82.9495 131.03 82.9595 131.08 82.9795 131.12C83.1295 131.49 83.3195 131.84 83.5295 132.18C83.5295 132.18 83.5295 132.18 83.5295 132.19C83.7495 132.53 84.0095 132.85 84.2995 133.15C84.3295 133.18 84.3595 133.21 84.3795 133.24C84.5395 133.4 84.6995 133.55 84.8795 133.7C84.9195 133.74 84.9595 133.77 85.0095 133.81C85.0995 133.88 85.1895 133.95 85.2895 134.02C85.3595 134.07 85.4295 134.12 85.5095 134.17C85.6395 134.26 85.7795 134.35 85.9195 134.44C86.0195 134.5 86.1295 134.57 86.2295 134.63C86.3195 134.68 86.4195 134.73 86.5095 134.79C86.6295 134.85 86.7495 134.91 86.8695 134.97C86.9795 135.03 87.0995 135.08 87.2095 135.13C87.3695 135.2 87.5195 135.27 87.6895 135.34C87.7695 135.37 87.8595 135.41 87.9495 135.44C88.1695 135.53 88.3995 135.61 88.6395 135.7C91.7095 136.76 94.7695 137.29 97.7395 137.29C98.2995 137.29 98.8595 137.27 99.3995 137.23C99.5795 137.22 99.7595 137.2 99.9395 137.18C100.009 137.18 100.089 137.17 100.159 137.16C107.699 136.37 113.539 131.85 115.689 124.96L115.699 124.98ZM114.369 126.11C111.739 132.61 105.629 136.43 97.7495 136.43C94.8795 136.43 91.9095 135.91 88.9295 134.88C85.0195 133.55 83.2295 131.36 83.3395 128.03C84.0295 128.36 84.6995 128.63 85.3695 128.86C89.6395 130.33 93.8895 131.07 98.0195 131.07C104.299 131.07 109.919 129.36 114.379 126.1L114.369 126.11Z" fill="#231F20"/>
<path d="M32.0295 108.7C31.2295 110.43 30.0195 112.33 28.7295 114.34C26.6995 117.52 24.4695 121.01 23.7695 124.16C24.4495 124.58 25.1595 124.95 25.9195 125.3C30.9895 127.6 36.0695 128.76 41.0195 128.76C46.3995 128.76 51.3495 127.33 55.3595 124.62C55.4995 124.28 55.6295 123.93 55.7595 123.58C57.2995 119.1 56.7795 112.55 55.3795 106.3C47.8295 103.99 40.6595 99.9201 34.6095 95.3301C34.7595 97.2101 34.8495 102.54 32.0195 108.69L32.0295 108.7Z" fill="#19BC25"/>
<path d="M42.02 135.59C41.85 135.61 41.68 135.63 41.5 135.65C41.67 135.63 41.85 135.61 42.02 135.59Z" fill="#231F20"/>
<path d="M55.5295 126.359C55.4495 126.519 55.3595 126.679 55.2695 126.839C55.3595 126.679 55.4395 126.519 55.5295 126.359Z" fill="#231F20"/>
<path d="M55.8199 125.77C55.7599 125.9 55.6999 126.03 55.6299 126.16C55.6899 126.03 55.7599 125.9 55.8199 125.77Z" fill="#231F20"/>
<path d="M42.1494 135.58C47.8994 134.82 52.5394 131.74 55.2294 126.92C52.5394 131.72 47.8594 134.81 42.1494 135.58Z" fill="#231F20"/>
<path d="M24.38 130.59C24.24 130.44 24.12 130.28 24 130.12C24.12 130.28 24.25 130.44 24.38 130.59Z" fill="#231F20"/>
<path d="M24.8399 131.06C24.6799 130.91 24.5299 130.75 24.3799 130.59C24.5199 130.75 24.6799 130.91 24.8399 131.06Z" fill="#231F20"/>
<path d="M26.6603 132.42C26.4603 132.3 26.2603 132.17 26.0703 132.04C26.2603 132.17 26.4503 132.29 26.6603 132.42Z" fill="#231F20"/>
<path d="M25.9594 131.97C25.5694 131.7 25.2194 131.41 24.8994 131.12C25.2194 131.42 25.5694 131.7 25.9594 131.97Z" fill="#231F20"/>
<path d="M23.9394 130.04C23.8194 129.88 23.7094 129.71 23.6094 129.54C23.7094 129.71 23.8194 129.87 23.9394 130.04Z" fill="#231F20"/>
<path d="M23.2903 128.93C23.2103 128.75 23.1303 128.57 23.0703 128.38C23.1403 128.57 23.2103 128.75 23.2903 128.93Z" fill="#231F20"/>
<path d="M28.1802 133.21C27.9402 133.1 27.7102 132.99 27.4902 132.88C27.7102 132.99 27.9402 133.11 28.1802 133.21Z" fill="#231F20"/>
<path d="M27.3099 132.789C27.0899 132.669 26.8799 132.559 26.6699 132.439C26.8699 132.559 27.0899 132.679 27.3099 132.789Z" fill="#231F20"/>
<path d="M22.8602 124.3C22.6102 125.6 22.6102 126.86 22.9602 128.05C22.9902 128.15 23.0202 128.25 23.0602 128.34C22.6502 127.14 22.5802 125.8 22.8702 124.3H22.8602Z" fill="#231F20"/>
<path d="M23.1094 123.98C23.2394 123.92 23.3894 123.94 23.5094 124.01C23.5894 124.06 23.6794 124.11 23.7594 124.16C24.4594 121.01 26.6894 117.52 28.7194 114.34C30.0094 112.33 31.2194 110.42 32.0194 108.7C34.8394 102.55 34.7494 97.2299 34.6094 95.3399C34.2994 95.0999 33.9794 94.8699 33.6794 94.6299C33.6794 94.6699 33.6794 94.7099 33.6794 94.7499C33.6794 94.7499 33.6894 94.8199 33.6994 94.9399C33.7194 95.1199 33.7494 95.4299 33.7694 95.8499C33.8694 97.9599 33.7594 102.85 31.2394 108.33C30.4694 110 29.2694 111.88 27.9994 113.87C25.8594 117.22 23.5094 120.89 22.8594 124.29C22.8894 124.15 22.9794 124.03 23.1094 123.98Z" fill="#231F20"/>
<path d="M37.5897 135.69C34.4997 135.46 31.2797 134.62 28.1797 133.21C31.3297 134.64 34.4897 135.46 37.5897 135.69Z" fill="#231F20"/>
<path d="M56.1002 125.149C56.0502 125.259 56.0002 125.369 55.9502 125.479C55.9602 125.459 55.9702 125.429 55.9802 125.409C56.0202 125.319 56.0602 125.239 56.0902 125.149H56.1002Z" fill="#231F20"/>
<path d="M55.7701 123.58C55.6501 123.94 55.5101 124.28 55.3701 124.62C55.4101 124.6 55.4401 124.57 55.4801 124.55C55.6401 124.44 55.8501 124.45 56.0001 124.57C56.1501 124.69 56.2001 124.89 56.1301 125.06C56.1901 124.91 56.2601 124.76 56.3201 124.6C56.4201 124.36 56.5101 124.11 56.5901 123.86C56.9801 122.73 57.2401 121.48 57.4001 120.15C57.4001 120.14 57.4001 120.13 57.4001 120.12C57.4301 119.86 57.4601 119.6 57.4801 119.34C57.4801 119.32 57.4801 119.3 57.4801 119.29C57.8001 115.42 57.3001 110.94 56.3601 106.59C56.0301 106.5 55.7101 106.4 55.3901 106.3C56.7901 112.55 57.3101 119.1 55.7701 123.58Z" fill="#231F20"/>
<path d="M39.2995 134.9C46.2395 134.9 51.7795 131.71 54.6995 126.08C50.7695 128.41 46.0695 129.63 41.0295 129.63C35.9895 129.63 30.7495 128.44 25.5695 126.09C24.8795 125.78 24.2295 125.45 23.6095 125.08C23.2095 128.38 24.7795 130.72 28.5295 132.42C32.0995 134.04 35.8195 134.89 39.2995 134.89V134.9Z" fill="#725522"/>
<path d="M56.1003 125.15C56.1003 125.15 56.1203 125.11 56.1303 125.08C56.1303 125.08 56.1303 125.08 56.1303 125.07C56.2003 124.9 56.1503 124.7 56.0003 124.58C55.8503 124.46 55.6403 124.45 55.4803 124.56C55.4403 124.58 55.4103 124.61 55.3703 124.63C51.3603 127.34 46.4103 128.77 41.0303 128.77C36.0803 128.77 31.0003 127.61 25.9303 125.31C25.1603 124.97 24.4603 124.59 23.7803 124.17C23.7003 124.12 23.6103 124.07 23.5303 124.02C23.4103 123.94 23.2603 123.93 23.1303 123.99C23.0003 124.05 22.9003 124.17 22.8803 124.3C22.8803 124.3 22.8803 124.3 22.8803 124.31C22.6003 125.81 22.6603 127.15 23.0703 128.35C23.0703 128.36 23.0703 128.37 23.0803 128.39C23.1503 128.58 23.2203 128.76 23.3003 128.94C23.3103 128.97 23.3303 129 23.3403 129.03C23.4203 129.19 23.5003 129.35 23.5903 129.5C23.6003 129.52 23.6103 129.54 23.6203 129.56C23.7203 129.73 23.8303 129.89 23.9503 130.06C23.9703 130.08 23.9903 130.11 24.0003 130.13C24.1203 130.29 24.2503 130.45 24.3803 130.6C24.5203 130.76 24.6803 130.92 24.8403 131.07C24.8603 131.09 24.8803 131.11 24.9003 131.13C25.2203 131.43 25.5703 131.71 25.9603 131.98C26.0003 132 26.0303 132.03 26.0703 132.05C26.2603 132.18 26.4503 132.3 26.6603 132.43C26.6603 132.43 26.6703 132.43 26.6803 132.44C26.8803 132.56 27.1003 132.68 27.3203 132.79C27.3803 132.82 27.4403 132.85 27.5003 132.88C27.7203 132.99 27.9503 133.11 28.1903 133.21C31.2903 134.62 34.5103 135.46 37.6003 135.69C38.1703 135.73 38.7503 135.76 39.3103 135.76C39.8203 135.76 40.3303 135.74 40.8303 135.71C40.8703 135.71 40.9103 135.71 40.9503 135.71C41.1403 135.7 41.3303 135.68 41.5103 135.66C41.6803 135.64 41.8603 135.62 42.0303 135.6C42.0703 135.6 42.1203 135.59 42.1603 135.58C47.8703 134.81 52.5503 131.72 55.2403 126.92C55.2503 126.9 55.2703 126.87 55.2803 126.85C55.3703 126.69 55.4503 126.53 55.5403 126.37C55.5703 126.3 55.6103 126.24 55.6403 126.17C55.7003 126.04 55.7703 125.91 55.8303 125.78C55.8803 125.68 55.9203 125.58 55.9603 125.49C56.0103 125.38 56.0603 125.27 56.1103 125.16L56.1003 125.15ZM23.6103 125.08C24.2303 125.45 24.8803 125.78 25.5703 126.09C30.7603 128.44 35.9603 129.63 41.0303 129.63C46.1003 129.63 50.7703 128.41 54.7003 126.08C51.7803 131.71 46.2403 134.9 39.3003 134.9C35.8203 134.9 32.1003 134.04 28.5303 132.43C24.7803 130.73 23.2003 128.39 23.6103 125.09V125.08Z" fill="#231F20"/>
<path d="M64.1695 73.4594C64.3395 73.4594 64.4995 73.5394 64.5795 73.6894C67.1895 75.1394 69.8595 76.1094 72.2595 76.1094C75.1995 76.1094 78.0595 75.3694 80.7395 74.1994C80.7995 74.0294 80.9595 73.9094 81.1395 73.9094C81.2095 73.9094 81.2695 73.9194 81.3395 73.9294C90.6395 69.6194 97.5995 60.3894 97.9495 59.9094C97.2795 59.2094 96.6295 58.5194 95.9895 57.8394C95.0395 56.8294 94.1195 55.8594 93.2195 54.9194C93.3695 56.5494 92.8495 58.2594 91.6795 59.9494C88.3495 64.7294 80.5995 68.3394 73.6495 68.3394C71.7895 68.3394 70.0495 68.0794 68.4795 67.5694C64.8895 66.3894 61.7795 63.5294 60.1595 59.9094C59.2195 57.8094 58.9095 55.6994 59.2495 53.8994C57.8195 55.1094 56.3595 56.4694 54.8595 57.9594C53.6995 59.1194 52.4895 60.2394 51.2695 61.3194C52.2995 63.8194 58.0195 69.9294 64.1595 73.4594H64.1695Z" fill="#725522"/>
<path d="M86.2998 47.8594C86.2998 47.8594 86.3298 47.8794 86.3498 47.8894C86.3298 47.8794 86.3198 47.8694 86.2998 47.8594Z" fill="#231F20"/>
<path d="M85.4697 47.3701C85.4697 47.3701 85.5197 47.4001 85.5497 47.4101C85.5197 47.3901 85.4997 47.3801 85.4697 47.3701Z" fill="#231F20"/>
<path d="M60.2598 51.9393C60.2598 51.9393 60.3598 51.8593 60.4098 51.8193C60.3598 51.8593 60.3098 51.8993 60.2598 51.9393Z" fill="#231F20"/>
<path d="M88.4395 49.3496C88.6195 49.4896 88.7995 49.6296 88.9795 49.7696C88.7995 49.6296 88.6195 49.4796 88.4395 49.3496Z" fill="#231F20"/>
<path d="M92.8803 53.3894C93.0603 53.8894 93.1803 54.3994 93.2303 54.9194C94.1403 55.8494 95.0503 56.8294 96.0003 57.8394C96.6403 58.5194 97.2903 59.2094 97.9603 59.9094L97.9703 59.8894C98.1103 59.6994 98.3803 59.6494 98.5703 59.7894C98.7603 59.9294 98.8103 60.1994 98.6703 60.3894C98.6703 60.3894 98.6203 60.4494 98.5603 60.5394C99.4203 61.4294 100.31 62.3294 101.23 63.2394C101.38 63.1194 101.51 63.0094 101.62 62.9294C101.79 62.7994 102.03 62.8094 102.18 62.9594C102.41 63.1794 102.64 63.3994 102.87 63.6194C100.59 61.4694 98.5603 59.3094 96.6203 57.2394C94.0003 54.4594 91.6203 51.9194 89.0703 49.8594C90.2203 50.7994 91.4303 51.8994 92.7703 53.2294C92.8103 53.2694 92.8503 53.3294 92.8703 53.3894H92.8803Z" fill="#231F20"/>
<path d="M109.83 69.5098C109.84 69.6398 109.8 69.7598 109.71 69.8498C109.62 69.9398 109.54 70.0298 109.45 70.1198C110.34 70.7398 111.27 71.3498 112.24 71.9498C112.5 71.7598 112.75 71.5698 113.01 71.3998C111.74 70.6298 110.53 69.8298 109.39 69.0098C109.48 69.0698 109.56 69.1398 109.65 69.1998C109.75 69.2698 109.82 69.3898 109.83 69.5098Z" fill="#231F20"/>
<path d="M102.89 63.6201C105 65.6101 106.99 67.2701 109.03 68.7501C106.77 67.1001 104.75 65.3601 102.89 63.6201Z" fill="#231F20"/>
<path d="M29.7599 75.4796C31.9599 74.4596 34.4699 73.1496 37.1399 71.5596C37.1199 71.3196 37.0999 71.0896 37.0799 70.8496C37.0699 70.6896 37.1499 70.5396 37.2899 70.4496C40.2499 68.6596 43.1599 66.6696 45.9599 64.5396C46.1299 64.4096 46.3799 64.4296 46.5299 64.5796C46.6299 64.6796 46.7499 64.8096 46.8799 64.9396C48.1299 63.9696 49.3799 62.9596 50.5999 61.9096C50.5399 61.7796 50.4799 61.6596 50.4399 61.5496C50.3499 61.3296 50.4599 61.0796 50.6899 60.9896C50.9099 60.9096 51.1599 61.0196 51.2499 61.2396C51.2499 61.2596 51.2699 61.2896 51.2799 61.3096C52.5099 60.2296 53.7099 59.1096 54.8699 57.9496C56.3699 56.4496 57.8299 55.0996 59.2599 53.8896C59.3499 53.3896 59.4899 52.9096 59.6899 52.4596C59.7099 52.3996 59.7599 52.3596 59.7999 52.3096C57.9999 53.7696 56.1599 55.4396 54.2599 57.3296C46.4399 65.1396 36.1899 71.5696 29.1699 74.7896C29.3799 75.0196 29.5699 75.2496 29.7599 75.4796Z" fill="#231F20"/>
<path d="M43.6102 82.51C44.2102 82.8 44.8602 82.94 45.5502 82.94C47.6302 82.94 49.9302 81.6 51.2702 79.6C52.4702 77.82 52.7202 75.86 52.0002 74.08C50.3902 70.15 47.5602 66.9 46.1702 65.46C43.5102 67.47 40.7502 69.35 37.9502 71.05C38.2102 74.55 39.2902 80.42 43.6102 82.51Z" fill="#C98306"/>
<path d="M43.2399 83.2893C43.9499 83.6293 44.7299 83.8093 45.5599 83.8093C47.9499 83.8093 50.4799 82.3493 51.9999 80.0793C53.3399 78.0793 53.6399 75.7693 52.8099 73.7493C51.1699 69.7493 48.3299 66.4593 46.8799 64.9393C46.7499 64.8093 46.6299 64.6793 46.5299 64.5793C46.3799 64.4293 46.1299 64.4093 45.9599 64.5393C43.1599 66.6693 40.2399 68.6593 37.2899 70.4493C37.1499 70.5293 37.0699 70.6893 37.0799 70.8493C37.0999 71.0893 37.1199 71.3293 37.1399 71.5593C37.6599 77.4793 39.8099 81.6293 43.2399 83.2893ZM37.9599 71.0593C40.7599 69.3493 43.5199 67.4693 46.1799 65.4693C47.5699 66.9193 50.3899 70.1593 52.0099 74.0893C52.7399 75.8593 52.4799 77.8193 51.2799 79.6093C49.9399 81.6093 47.6399 82.9493 45.5599 82.9493C44.8699 82.9493 44.2099 82.7993 43.6199 82.5193C39.3099 80.4393 38.2199 74.5593 37.9599 71.0593Z" fill="#231F20"/>
<path d="M79.5594 87.9299C78.7494 85.7399 76.2094 84.6299 72.0194 84.6299C70.4994 84.6299 68.7895 84.7699 66.7895 85.0699C64.4695 85.4099 62.9194 86.4599 62.6394 87.8799C62.3694 89.2899 63.3895 90.8199 65.3695 91.9799C66.4395 92.5999 67.9994 92.9299 69.8794 92.9299C73.8094 92.9299 78.0294 91.4699 79.2794 89.6699C79.6794 89.0899 79.7695 88.5199 79.5495 87.9299H79.5594Z" fill="#C98306"/>
<path d="M72.0199 83.7598C70.4599 83.7598 68.7099 83.9098 66.6699 84.2098C63.9699 84.6098 62.1499 85.9198 61.7999 87.7098C61.4499 89.4998 62.6299 91.3698 64.9399 92.7298C66.1399 93.4298 67.8499 93.7998 69.8899 93.7998C73.5599 93.7998 78.3499 92.5298 79.9999 90.1698C80.5599 89.3698 80.6899 88.4898 80.3699 87.6298C79.4199 85.0598 76.6099 83.7598 72.0199 83.7598ZM69.8899 92.9298C68.0099 92.9298 66.4499 92.5998 65.3799 91.9798C63.3999 90.8198 62.3799 89.2898 62.6499 87.8798C62.9299 86.4598 64.4799 85.4098 66.7999 85.0698C68.7999 84.7798 70.5099 84.6298 72.0299 84.6298C76.2199 84.6298 78.7499 85.7398 79.5699 87.9298C79.7899 88.5198 79.6999 89.0898 79.2999 89.6698C78.0499 91.4698 73.8299 92.9298 69.8999 92.9298H69.8899Z" fill="#231F20"/>
<path d="M101.86 63.8401C99.1998 65.9701 93.2398 72.1401 92.8798 76.1601C92.7998 77.0801 93.0098 77.8001 93.5298 78.3601C93.9898 78.8601 94.5798 79.1001 95.3298 79.1001C97.2598 79.1001 101.16 77.4401 108.74 69.6101C106.45 67.9601 104.24 66.1101 101.86 63.8301V63.8401Z" fill="#C98306"/>
<path d="M101.63 62.9194C101.52 63.0094 101.38 63.1094 101.24 63.2294C98.8402 65.1994 92.4302 71.5394 92.0202 76.0794C91.9202 77.2394 92.2102 78.1994 92.8902 78.9494C93.5202 79.6294 94.3402 79.9694 95.3302 79.9694C98.3902 79.9694 103.14 76.6494 109.46 70.1194C109.55 70.0294 109.63 69.9494 109.72 69.8494C109.81 69.7594 109.85 69.6294 109.84 69.5094C109.83 69.3794 109.76 69.2694 109.66 69.1994C109.57 69.1394 109.49 69.0794 109.4 69.0094C109.28 68.9194 109.16 68.8294 109.03 68.7494C106.99 67.2594 105 65.6094 102.89 63.6194C102.66 63.3994 102.43 63.1894 102.2 62.9594C102.05 62.8094 101.81 62.7994 101.64 62.9294L101.63 62.9194ZM108.74 69.6194C101.15 77.4494 97.2602 79.1094 95.3302 79.1094C94.5802 79.1094 93.9902 78.8694 93.5302 78.3694C93.0102 77.8094 92.8002 77.0894 92.8802 76.1694C93.2402 72.1494 99.2002 65.9794 101.86 63.8494C104.24 66.1294 106.45 67.9794 108.74 69.6294V69.6194Z" fill="#231F20"/>
<path d="M84.3103 47.7193C81.8803 46.4593 79.3403 45.8193 76.7503 45.8193C71.7003 45.8193 66.3603 48.1393 60.4403 52.9093C59.6903 54.7193 59.8803 57.1293 60.9603 59.5493C62.4803 62.9493 65.4003 65.6393 68.7603 66.7393C70.2403 67.2293 71.8903 67.4693 73.6603 67.4693C80.2403 67.4693 87.8403 63.9493 90.9803 59.4493C92.3303 57.5093 92.7203 55.5493 92.1003 53.7793C89.1203 50.8193 86.7903 49.0093 84.3103 47.7193Z" fill="#C98306"/>
<path d="M59.2597 53.8902C58.9197 55.6902 59.2297 57.8002 60.1697 59.9002C61.7897 63.5202 64.8997 66.3802 68.4897 67.5602C70.0597 68.0702 71.7997 68.3302 73.6597 68.3302C80.5997 68.3302 88.3497 64.7202 91.6897 59.9402C92.8597 58.2602 93.3797 56.5502 93.2297 54.9102C93.1797 54.3902 93.0697 53.8802 92.8797 53.3802C92.8597 53.3202 92.8197 53.2702 92.7797 53.2202C91.4397 51.8902 90.2297 50.7802 89.0797 49.8502C89.0497 49.8202 89.0097 49.8002 88.9797 49.7702C88.7997 49.6202 88.6197 49.4802 88.4397 49.3502C88.2797 49.2202 88.1097 49.1002 87.9497 48.9802C87.8897 48.9402 87.8297 48.8902 87.7697 48.8502C87.2897 48.5002 86.8197 48.1802 86.3497 47.8902C86.3297 47.8802 86.3197 47.8702 86.2997 47.8602C86.0497 47.7002 85.7997 47.5602 85.5597 47.4102C85.5297 47.3902 85.5097 47.3802 85.4797 47.3702C85.2297 47.2302 84.9697 47.0902 84.7197 46.9502C82.1697 45.6202 79.4897 44.9502 76.7597 44.9502C76.5797 44.9502 76.3997 44.9502 76.2297 44.9702C76.1797 44.9702 76.1397 44.9702 76.0897 44.9702C71.1797 45.1602 66.0397 47.4102 60.4197 51.8302C60.3697 51.8702 60.3197 51.9102 60.2697 51.9502C60.1197 52.0702 59.9697 52.1802 59.8197 52.3102C59.8197 52.3102 59.8197 52.3202 59.8097 52.3302C59.7597 52.3702 59.7197 52.4202 59.6997 52.4802C59.4997 52.9302 59.3597 53.4002 59.2697 53.9102L59.2597 53.8902ZM90.9697 59.4502C87.8397 63.9502 80.2297 67.4702 73.6497 67.4702C71.8797 67.4702 70.2297 67.2202 68.7497 66.7402C65.3897 65.6402 62.4697 62.9502 60.9497 59.5502C59.8697 57.1302 59.6797 54.7202 60.4297 52.9102C66.3497 48.1402 71.6897 45.8202 76.7397 45.8202C79.3297 45.8202 81.8797 46.4602 84.2997 47.7202C86.7697 49.0102 89.0997 50.8202 92.0897 53.7802C92.7097 55.5502 92.3197 57.5102 90.9697 59.4502Z" fill="#231F20"/>
<path d="M63.1801 73.8199C63.4901 73.6399 63.8001 73.5099 64.1201 73.4499C64.1401 73.4499 64.1501 73.4499 64.1701 73.4499C58.0301 69.9099 52.3001 63.7999 51.2801 61.3099C51.2801 61.2899 51.2601 61.2599 51.2501 61.2399C51.1601 61.0199 50.9101 60.9099 50.6901 60.9899C50.4701 61.0799 50.3601 61.3299 50.4401 61.5499C50.4801 61.6599 50.5401 61.7799 50.6001 61.9099C51.9001 64.5499 57.2901 70.2399 63.1901 73.8299L63.1801 73.8199Z" fill="#231F20"/>
<path d="M64.5696 73.6895C64.5696 73.6895 64.6096 73.7694 64.6196 73.8094C64.6596 74.0494 64.4996 74.2694 64.2696 74.3094C64.2096 74.3094 64.1496 74.3395 64.0996 74.3595C66.8696 75.9195 69.7096 76.9695 72.2596 76.9695C75.4496 76.9695 78.5296 76.1295 81.4096 74.8295C81.3196 74.7895 81.2296 74.7694 81.1496 74.7694C80.9096 74.7694 80.7196 74.5794 80.7196 74.3394C80.7196 74.2894 80.7296 74.2394 80.7496 74.1994C78.0696 75.3594 75.2096 76.1095 72.2696 76.1095C69.8696 76.1095 67.1996 75.1395 64.5896 73.6895H64.5696Z" fill="#231F20"/>
<path d="M81.3398 73.92C81.6898 73.97 82.0198 74.13 82.3198 74.4C91.0698 70.09 97.6398 61.75 98.5598 60.54C98.6298 60.45 98.6698 60.4 98.6698 60.39C98.8098 60.19 98.7598 59.93 98.5698 59.79C98.3698 59.65 98.0998 59.7 97.9698 59.89C97.9698 59.89 97.9698 59.89 97.9598 59.91C97.6098 60.39 90.6398 69.62 81.3498 73.93L81.3398 73.92Z" fill="#231F20"/>
<path d="M50.59 61.9096C49.37 62.9596 48.12 63.9797 46.87 64.9397C48.32 66.4597 51.16 69.7596 52.8 73.7496C53.63 75.7696 53.33 78.0797 51.99 80.0797C50.47 82.3397 47.95 83.8096 45.55 83.8096C44.72 83.8096 43.94 83.6397 43.23 83.2896C39.8 81.6297 37.65 77.4796 37.13 71.5596C34.47 73.1496 31.95 74.4597 29.75 75.4797C30.93 76.9097 31.8 78.3796 32.2 79.1296C33.95 82.3296 39.2 88.9096 47.82 93.7696C48.03 93.8896 48.24 94.0097 48.46 94.1197C52.97 91.3197 55.89 85.7096 58.3 81.0296C58.32 80.9896 58.34 80.9497 58.36 80.9097C60.09 77.5497 61.51 74.7996 63.17 73.8096C57.27 70.2296 51.88 64.5396 50.58 61.8896L50.59 61.9096Z" fill="#704706"/>
<path d="M59.1402 81.3197C59.8302 79.9797 60.4902 78.7097 61.1202 77.6197C61.9902 76.1497 62.8202 75.0197 63.6502 74.5397C63.8002 74.4597 63.9402 74.3997 64.0902 74.3597C64.1502 74.3397 64.2102 74.3197 64.2602 74.3097C64.5002 74.2697 64.6502 74.0497 64.6102 73.8097C64.6102 73.7597 64.5802 73.7197 64.5602 73.6897C64.4802 73.5397 64.3302 73.4497 64.1502 73.4597C64.1302 73.4597 64.1202 73.4597 64.1002 73.4597C63.7702 73.5197 63.4602 73.6497 63.1602 73.8297C61.5002 74.8197 60.0802 77.5697 58.3502 80.9297C58.3302 80.9697 58.3102 81.0097 58.2902 81.0497C55.8802 85.7297 52.9702 91.3397 48.4502 94.1397C48.7402 94.2997 49.0402 94.4497 49.3302 94.5997C53.8302 91.5897 56.7202 85.9797 59.1202 81.3297L59.1402 81.3197Z" fill="#231F20"/>
<path d="M109.45 70.1193C103.14 76.6493 98.3803 79.9693 95.3203 79.9693C94.3303 79.9693 93.5103 79.6293 92.8803 78.9493C92.2003 78.2093 91.9003 77.2393 92.0103 76.0793C92.4203 71.5393 98.8303 65.2093 101.23 63.2293C100.3 62.3293 99.4203 61.4293 98.5603 60.5293C97.6303 61.7493 91.0603 70.0793 82.3203 74.3893C83.3103 75.2793 84.0903 77.3093 85.0203 79.9093C85.1003 80.1193 85.1703 80.3293 85.2503 80.5493C86.7803 84.8193 88.7803 90.3793 92.2003 92.5193C92.5703 92.2693 92.9203 92.0193 93.2703 91.7693C98.6703 87.8493 102.17 83.5193 103.67 81.4493C106.94 76.9493 109.72 73.8493 112.25 71.9393C111.28 71.3493 110.35 70.7393 109.46 70.1093L109.45 70.1193Z" fill="#704706"/>
<path d="M84.4296 80.8496C83.8996 79.3796 83.3896 77.9496 82.8796 76.8396C82.4296 75.8696 81.9796 75.1496 81.5196 74.8796C81.4796 74.8596 81.4396 74.8396 81.3996 74.8196C78.5296 76.1196 75.4396 76.9596 72.2496 76.9596C69.6996 76.9596 66.8596 75.9096 64.0896 74.3496C63.9396 74.3896 63.7996 74.4496 63.6496 74.5296C62.8096 75.0096 61.9796 76.1396 61.1196 77.6096C60.4796 78.6996 59.8296 79.9696 59.1396 81.3096C56.7396 85.9696 53.8596 91.5696 49.3496 94.5796C54.0296 96.9896 59.6096 98.8596 66.0796 99.4596C67.2896 99.5696 68.5096 99.6296 69.7096 99.6296C78.6096 99.6296 85.8596 96.6596 91.4096 93.0496C87.9396 90.6196 85.9696 85.1196 84.4296 80.8496ZM79.9996 90.1696C78.3496 92.5296 73.5596 93.7996 69.8896 93.7996C67.8496 93.7996 66.1396 93.4296 64.9396 92.7296C62.6296 91.3796 61.4496 89.4996 61.7996 87.7096C62.1496 85.9096 63.9696 84.5996 66.6696 84.2096C68.7096 83.9096 70.4596 83.7596 72.0196 83.7596C76.6096 83.7596 79.4196 85.0596 80.3696 87.6296C80.6896 88.4896 80.5596 89.3596 79.9996 90.1696Z" fill="#704706"/>
<path d="M85.25 80.5594C85.17 80.3394 85.1 80.1294 85.02 79.9194C84.09 77.3294 83.31 75.2994 82.32 74.3994C82.02 74.1294 81.69 73.9694 81.34 73.9194C81.27 73.9194 81.21 73.8994 81.14 73.8994C80.95 73.8994 80.79 74.0194 80.74 74.1894C80.72 74.2294 80.71 74.2794 80.71 74.3294C80.71 74.5694 80.9 74.7594 81.14 74.7594C81.23 74.7594 81.32 74.7794 81.4 74.8194C81.44 74.8394 81.48 74.8494 81.52 74.8794C81.98 75.1494 82.43 75.8594 82.88 76.8394C83.39 77.9394 83.9 79.3694 84.43 80.8494C85.96 85.1194 87.94 90.6294 91.41 93.0494C91.68 92.8794 91.94 92.6994 92.19 92.5294C88.77 90.3794 86.78 84.8294 85.24 80.5594H85.25Z" fill="#231F20"/>
<path d="M103.51 93.4797C104.75 92.1497 105.97 90.7997 107.16 89.4797C111.61 84.5397 115.82 79.8797 119.68 78.3397C121.5 77.6097 123.11 75.5497 123.18 73.8397C123.23 72.6997 122.64 71.8197 121.43 71.2097C120.38 70.6897 119.36 70.4297 118.31 70.4297C114.46 70.4297 110.15 73.9897 104.36 81.9597C101.21 86.3097 89.3902 100.5 69.7102 100.5C68.4802 100.5 67.2302 100.44 66.0002 100.33C45.9702 98.4797 34.2702 84.6997 31.4502 79.5497C29.6202 76.1997 26.6302 72.6197 23.7002 72.6197C23.1602 72.6197 22.6302 72.7497 22.1302 72.9997C20.5102 73.8097 19.5902 74.6797 19.3202 75.6797C19.0302 76.7297 19.4102 78.0097 20.5102 79.6997C27.3702 90.2697 46.5902 106.38 66.0502 107.39C67.0302 107.44 68.0202 107.47 68.9902 107.47C88.8302 107.47 100.42 96.7697 103.5 93.4897L103.51 93.4797Z" fill="#725522"/>
<path d="M91.7599 103.08C98.3299 99.7896 102.47 95.8596 104.15 94.0696C104.89 93.2796 105.61 92.4896 106.33 91.6996C106.52 91.4896 106.71 91.2796 106.9 91.0696C107.2 90.7296 107.51 90.3996 107.81 90.0596C112.19 85.1996 116.33 80.6096 120.01 79.1396C121.88 78.3896 123.96 76.1696 124.05 73.8696C124.05 73.6896 124.05 73.5196 124.03 73.3496C123.97 72.7196 123.73 72.1596 123.34 71.6596C122.97 71.1796 122.46 70.7596 121.81 70.4296C120.63 69.8396 119.49 69.5596 118.3 69.5596C116.59 69.5596 114.86 70.1396 113 71.3896C112.75 71.5596 112.49 71.7396 112.23 71.9396C109.7 73.8496 106.92 76.9496 103.65 81.4496C102.15 83.5196 98.6499 87.8496 93.2499 91.7696C92.8999 92.0196 92.5399 92.2696 92.1799 92.5196C91.9199 92.6996 91.6599 92.8696 91.3999 93.0396C85.8599 96.6496 78.5999 99.6196 69.6999 99.6196C68.4999 99.6196 67.2699 99.5596 66.0699 99.4496C59.5999 98.8496 54.0199 96.9796 49.3399 94.5696C49.0399 94.4196 48.7499 94.2596 48.4599 94.1096C48.2399 93.9896 48.0299 93.8696 47.8199 93.7596C39.1999 88.8996 33.9499 82.3196 32.1999 79.1196C31.7899 78.3696 30.9299 76.8996 29.7499 75.4696C29.5599 75.2396 29.3599 75.0096 29.1599 74.7796C27.6699 73.1496 25.7799 71.7396 23.6999 71.7396C23.0199 71.7396 22.3599 71.8996 21.7399 72.2096C19.8599 73.1496 18.8299 74.1696 18.4899 75.4296C18.3299 76.0296 18.3299 76.6696 18.4999 77.3696C18.5599 77.6396 18.6499 77.9196 18.7599 78.2096C18.9999 78.8096 19.3399 79.4496 19.7899 80.1496C22.6199 84.5096 27.5299 89.7996 33.6899 94.6096C33.9999 94.8496 34.3099 95.0896 34.6199 95.3196C40.6699 99.9096 47.8399 103.98 55.3899 106.29C55.7099 106.39 56.0399 106.48 56.3599 106.58C59.5399 107.48 62.7699 108.07 66.0099 108.24C67.0099 108.29 68.0099 108.32 68.9899 108.32C72.0199 108.32 74.8599 108.07 77.5199 107.64C77.8099 107.59 78.0999 107.54 78.3799 107.49C83.1699 106.63 87.3299 105.18 90.8299 103.51C91.1399 103.36 91.4399 103.22 91.7399 103.07L91.7599 103.08ZM66.0599 107.38C46.5999 106.37 27.3799 90.2596 20.5199 79.6896C19.4199 77.9996 19.0399 76.7196 19.3299 75.6696C19.5999 74.6796 20.5199 73.7996 22.1399 72.9896C22.6399 72.7396 23.1699 72.6096 23.7099 72.6096C26.6299 72.6096 29.6299 76.1896 31.4599 79.5396C34.2799 84.6896 45.9799 98.4696 66.0099 100.32C67.2499 100.44 68.4999 100.49 69.7199 100.49C89.3999 100.49 101.21 86.2996 104.37 81.9496C110.16 73.9796 114.46 70.4196 118.32 70.4196C119.37 70.4196 120.39 70.6696 121.44 71.1996C122.65 71.8096 123.24 72.6896 123.19 73.8296C123.12 75.5396 121.52 77.5996 119.69 78.3296C115.82 79.8696 111.62 84.5396 107.17 89.4696C105.98 90.7896 104.76 92.1396 103.52 93.4696C100.44 96.7496 88.8499 107.45 69.0099 107.45C68.0399 107.45 67.0499 107.42 66.0699 107.37L66.0599 107.38Z" fill="#231F20"/>
<path d="M124.29 5.42012C125 4.52012 126.31 2.94012 128.83 2.23012C129.06 2.17012 129.16 2.01012 129.13 1.76012C129.08 1.42012 128.72 0.870117 127.96 0.870117C127.7 0.870117 127.42 0.940117 127.13 1.06012C125.65 1.70012 124.53 4.24012 124.3 5.42012H124.29Z" fill="white"/>
<path d="M123.88 6.69977C123.88 6.69977 123.99 6.72977 124.04 6.72977C124.36 6.72977 124.56 6.47977 124.92 6.02977C125.56 5.21977 126.75 3.71977 129.06 3.06977C129.71 2.88977 130.07 2.32977 129.98 1.64977C129.87 0.849766 129.12 0.00976562 127.95 0.00976562C127.57 0.00976562 127.17 0.0997656 126.77 0.269766C124.84 1.10977 123.31 4.56977 123.38 5.91977C123.41 6.47977 123.7 6.64977 123.87 6.69977H123.88ZM127.95 0.869766C128.72 0.869766 129.08 1.41977 129.12 1.75977C129.15 2.00977 129.06 2.16977 128.82 2.22977C126.3 2.93977 124.99 4.52977 124.28 5.41977C124.51 4.22977 125.64 1.69977 127.11 1.05977C127.4 0.929766 127.68 0.869766 127.94 0.869766H127.95Z" fill="#231F20"/>
<path d="M138.439 2.3593C138.439 2.3593 138.459 2.8293 138.779 2.8293C139.279 2.7493 139.709 2.7093 140.129 2.7093C141.709 2.7093 142.929 3.2393 143.679 3.5993C142.969 2.7193 141.239 1.2793 139.879 1.2793C138.729 1.3093 138.449 1.9793 138.449 2.3693L138.439 2.3593Z" fill="white"/>
<path d="M139.01 3.66941C139.38 3.59941 139.76 3.56941 140.13 3.56941C141.69 3.56941 142.83 4.13941 143.52 4.47941C143.88 4.65941 144.1 4.76941 144.31 4.76941C144.42 4.76941 144.59 4.69941 144.68 4.62941C144.81 4.50941 144.99 4.23941 144.8 3.75941C144.35 2.62941 141.85 0.399414 139.88 0.399414C139.88 0.399414 139.8 0.399414 139.79 0.399414C138.32 0.439414 137.57 1.41941 137.58 2.36941C137.59 3.21941 138.19 3.80941 139.01 3.66941ZM143.67 3.58941C142.93 3.22941 141.71 2.69941 140.12 2.69941C139.7 2.69941 139.28 2.73941 138.77 2.81941C138.45 2.81941 138.43 2.39941 138.43 2.34941C138.43 1.95941 138.71 1.29941 139.86 1.25941C141.23 1.25941 142.95 2.70941 143.66 3.57941L143.67 3.58941Z" fill="#231F20"/>
<path d="M140.9 12.1997C140.83 15.5797 142.31 18.7897 144.86 20.7997C145.97 21.6697 147.12 22.1097 148.3 22.1097C149.8 22.1097 151.27 21.3597 152.36 20.0497C153.55 18.6097 154.07 16.7697 153.76 15.1297C153.15 11.7997 149.26 6.67969 145.34 6.67969C144.38 6.67969 143.46 6.98969 142.6 7.59969C141.61 8.30969 140.95 10.1097 140.9 12.1997ZM146.32 13.5097C146.86 14.6397 146.56 15.9097 145.64 16.3497C144.73 16.7897 143.55 16.1997 143.02 15.0697C142.88 14.7697 142.8 14.4697 142.77 14.1697C142.74 14.1297 142.71 14.0797 142.69 14.0297C142.52 13.6797 142.62 13.2597 142.9 13.1297C143.05 12.7397 143.32 12.4197 143.69 12.2497C144.61 11.8197 145.78 12.3897 146.32 13.5197V13.5097Z" fill="white"/>
<path d="M140.73 8.73957C140.31 9.69957 140.07 10.8896 140.04 12.1796C139.96 15.8296 141.56 19.3096 144.33 21.4796C145.59 22.4696 146.93 22.9696 148.3 22.9696C149.07 22.9696 149.83 22.7896 150.55 22.4796C150.89 22.3296 151.21 22.1596 151.53 21.9496C152.08 21.5896 152.58 21.1296 153.03 20.5996C154.38 18.9696 154.97 16.8596 154.62 14.9696C154.02 11.7396 150.05 5.80957 145.35 5.80957C144.21 5.80957 143.12 6.16957 142.11 6.89957C141.74 7.15957 141.42 7.52957 141.14 7.96957C140.99 8.19957 140.86 8.45957 140.74 8.73957H140.73ZM153.76 15.1296C154.07 16.7796 153.55 18.6196 152.36 20.0496C151.28 21.3596 149.8 22.1096 148.3 22.1096C147.13 22.1096 145.97 21.6696 144.86 20.7996C142.31 18.7996 140.83 15.5796 140.9 12.1996C140.95 10.1096 141.61 8.30957 142.6 7.59957C143.46 6.98957 144.38 6.67957 145.34 6.67957C149.25 6.67957 153.15 11.8096 153.76 15.1296Z" fill="#231F20"/>
<path d="M143.69 12.23C143.32 12.4 143.06 12.72 142.9 13.11C143.19 12.98 143.56 13.16 143.73 13.53C143.9 13.89 143.8 14.29 143.51 14.43C143.26 14.54 142.95 14.43 142.76 14.15C142.79 14.45 142.87 14.75 143.01 15.05C143.54 16.19 144.72 16.77 145.63 16.33C146.54 15.9 146.84 14.63 146.31 13.49C145.77 12.35 144.6 11.78 143.68 12.22L143.69 12.23ZM146.15 15.44C146.01 15.52 145.82 15.41 145.73 15.24C145.64 15.05 145.69 14.85 145.83 14.77C145.98 14.71 146.17 14.79 146.26 14.98C146.34 15.16 146.3 15.37 146.15 15.43V15.44Z" fill="#231F20"/>
<path d="M143.52 14.4295C143.8 14.2895 143.91 13.8894 143.74 13.5294C143.57 13.1594 143.19 12.9794 142.91 13.1094C142.62 13.2494 142.53 13.6595 142.7 14.0095C142.72 14.0595 142.75 14.1094 142.78 14.1494C142.97 14.4194 143.28 14.5395 143.53 14.4295H143.52Z" fill="white"/>
<path d="M145.83 14.7801C145.69 14.8501 145.64 15.0601 145.73 15.2501C145.81 15.4201 146.01 15.5201 146.15 15.4501C146.3 15.3801 146.35 15.1801 146.26 15.0001C146.17 14.8101 145.98 14.7301 145.83 14.7901V14.7801Z" fill="white"/>
<path d="M131.32 26.4197C134.19 26.4197 136.97 24.5697 137.93 22.0097C139.03 19.1097 138.73 13.6797 136.54 10.5097C135.38 8.82973 133.83 7.96973 131.94 7.96973C131.78 7.96973 131.61 7.96973 131.44 7.98973C130.04 8.09973 128.3 9.46973 127.01 11.4997C124.93 14.7697 124.47 18.8097 125.78 22.2897C127.13 25.8797 129.83 26.4197 131.32 26.4197ZM128.04 16.6497C128.08 16.2797 128.18 15.9297 128.33 15.6297C128.33 15.5697 128.33 15.5097 128.33 15.4497C128.38 14.9997 128.71 14.6597 129.07 14.6997C129.45 14.4097 129.9 14.2497 130.38 14.2997C131.53 14.4197 132.33 15.6697 132.18 17.1097C132.03 18.5297 130.98 19.5797 129.85 19.4697C128.71 19.3597 127.89 18.0897 128.05 16.6597L128.04 16.6497Z" fill="white"/>
<path d="M131.32 27.29C134.54 27.29 137.66 25.2 138.74 22.32C139.91 19.22 139.59 13.41 137.25 10.02C135.82 7.95002 133.81 6.95002 131.38 7.13002C129.69 7.26002 127.74 8.75002 126.28 11.04C124.05 14.54 123.56 18.86 124.97 22.6C126.09 25.58 128.4 27.29 131.32 27.29ZM127.01 11.5C128.3 9.48002 130.04 8.10002 131.44 7.99002C131.61 7.98002 131.78 7.97002 131.94 7.97002C133.83 7.97002 135.37 8.82002 136.54 10.51C138.73 13.68 139.03 19.11 137.93 22.01C136.97 24.57 134.19 26.42 131.32 26.42C129.83 26.42 127.13 25.88 125.78 22.29C124.47 18.8 124.93 14.77 127.01 11.5Z" fill="#231F20"/>
<path d="M129.84 19.4593C130.97 19.5693 132.02 18.5193 132.17 17.0993C132.32 15.6593 131.52 14.4093 130.37 14.2893C129.9 14.2393 129.45 14.3993 129.06 14.6893C129.42 14.7293 129.67 15.1293 129.63 15.5893C129.59 16.0393 129.25 16.3693 128.88 16.3393C128.57 16.3093 128.34 16.0093 128.31 15.6293C128.16 15.9393 128.06 16.2793 128.02 16.6493C127.87 18.0793 128.68 19.3493 129.82 19.4593H129.84ZM130.95 18.0493C131.14 18.0693 131.27 18.2693 131.24 18.4893C131.22 18.7293 131.05 18.8893 130.86 18.8793C130.68 18.8593 130.54 18.6493 130.57 18.4193C130.6 18.1993 130.77 18.0293 130.95 18.0393V18.0493Z" fill="#231F20"/>
<path d="M128.89 16.3296C129.26 16.3596 129.6 16.0296 129.64 15.5796C129.68 15.1196 129.43 14.7196 129.07 14.6796C128.71 14.6496 128.38 14.9796 128.33 15.4296C128.33 15.4896 128.33 15.5496 128.33 15.6096C128.36 15.9796 128.59 16.2896 128.9 16.3196L128.89 16.3296Z" fill="white"/>
<path d="M130.859 18.8901C131.049 18.9001 131.219 18.7401 131.239 18.5001C131.269 18.2701 131.139 18.0701 130.949 18.0601C130.769 18.0401 130.599 18.2201 130.569 18.4401C130.539 18.6701 130.679 18.8801 130.859 18.9001V18.8901Z" fill="white"/>
</svg>
