<?xml version="1.0" encoding="UTF-8"?>
<svg id="Layer_1" xmlns="http://www.w3.org/2000/svg" version="1.1" viewBox="0 0 200 416">
  <!-- Generator: Adobe Illustrator 29.3.0, SVG Export Plug-In . SVG Version: 2.1.0 Build 146)  -->
  <defs>
    <style>
      .st0 {
        fill: #fff;
      }
    </style>
  </defs>
  <path class="st0" d="M159.3,127.7c1.2-.9,2.6-2.2,2.3-3.3-.2-.7-1.1-1.3-2.7-1.9-2.4-.8-4.9-1.4-7.4-2-2.4-.6-4.9-1.1-7.4-1.9-5-1.7-7.6-5.2-10.1-8.7-1.2-1.7-2.5-3.5-4.1-5-1.7-1.6-4.7-2.8-7.7-3.1-.3,0-.7,0-1.2,0-2.1,0-5.4.5-7,3.2-.5.8-.9,1.7-1.3,2.4-1.4,2.6-2.7,5.1-5.7,7.3-4.3,3.3-9,5.3-13.6,5.9-.5,0-1.1.1-1.8.2-4.2.3-8.3.8-8.1,3.5.5,9.6,25.8,15.7,38.8,15.7s25.9-4.4,36.9-12.3h0Z"/>
  <path class="st0" d="M121.2,34c.3,0,.5,0,.8,0,3,0,6,.2,8.9.7.4-4.1,1.5-21.8-5.1-29.3-2-2.2-4.4-3.3-7.5-3.3s-4.4,1.1-5.4,3c-1.4,2.8-.8,6.8,1.6,10.2,4.2,6,6.1,15.8,6.6,18.8h0Z"/>
  <path class="st0" d="M100.1,157.6c.1,0,.3,0,.4.1,6.9.8,14.1,1.3,21.5,1.3,20.4,0,39.6-3.3,54-9.3,14.1-5.9,21.9-13.6,21.9-21.8s-2.7-9.5-8-13.8c-10.2-8.4-16.1-19.9-16.1-31.7v-1.4c0-24.7-23.2-44.9-51.8-44.9s-51.8,20.1-51.8,44.9v1.4c0,11.8-5.9,23.3-16.1,31.7-5.3,4.3-8,9-8,13.8,0,8.1,7.8,15.9,21.9,21.8,9,3.8,19.9,6.5,31.8,8,.1,0,.3,0,.4,0ZM81.5,124.3c-.3-4.9,6.2-5.4,10-5.7.7,0,1.3,0,1.7-.2,4.2-.5,8.6-2.4,12.6-5.5,2.6-2,3.7-4.1,5.1-6.7.4-.8.9-1.6,1.4-2.5,1.8-3.1,5.5-4.6,10.1-4.2,3.5.3,6.9,1.7,8.9,3.7,1.7,1.7,3.1,3.5,4.3,5.3,2.4,3.3,4.6,6.5,9,7.9,2.3.8,4.8,1.3,7.2,1.9,2.5.6,5.1,1.2,7.6,2,1.5.5,3.5,1.4,4.1,3.2.6,1.9-.5,3.8-3.1,5.6-11.4,8.2-24.9,12.7-38.1,12.7s-40.2-6.2-40.8-17.7h0Z"/>
  <path class="st0" d="M103,18.4c.5,1.7,1.7,3.4,3.4,4.5,6.1,3.9,6.7,10.1,6.7,11.8,1.9-.3,3.9-.5,5.9-.6-.6-3.1-2.4-12.2-6.2-17.6-1.2-1.8-2.1-3.7-2.5-5.5-3.8-.2-6.5,1.2-7.4,3.8-.4,1.2-.4,2.4,0,3.6,0,0,0,0,0,0h0Z"/>
  <path class="st0" d="M106.6,36c1.5-.4,3-.7,4.5-1,0-.4.1-6.6-5.8-10.4-1.8-1.2-3.2-2.8-4-4.7-1.9.6-3.5,2.1-3.8,3.7-.3,1.5.8,2.5,1.8,3.1.3.2.6.3.9.5,1.8,1,3.3,1.8,4.5,4,.9,1.7,1.3,3.1,1.8,4.8Z"/>
  <path class="st0" d="M147.4,164.4c-.2-.4-.4-.8-.5-1.2-.6-1.2-1.1-2.4-1.5-3.7-7.5,1-15.4,1.5-23.4,1.5s-14.3-.4-21.1-1.2c-.4,2.2-1,4.1-2,5.5-3.4,5.4-8.6,10.2-13.7,14.8-3.7,3.4-7.6,6.9-10.6,10.6-7.9,9.7-14.2,19.8-18.6,30-.3.6-.5,1.2-.8,1.8-5.1,11.9-12.1,28-28.2,28s-.6,0-.9,0c-4.5-.2-8.2-2.5-11.7-4.7-3.2-2-6.2-3.9-9.9-4.4-.7,0-1.4.1-1.9.6-.4.4-.6.9-.5,1.4,1,6.5,5.6,14.6,11.4,16.2.6.2.9.7.7,1.3-.2.6-.7.9-1.3.7h-.4c-2-.7-4-1.3-6-1.8-.5-.2-1,0-1.2.3-.1.2-.3.4-.1.8,3.5,8.4,9.9,16,18.1,21.3,4.8,3.1,9.8,5.5,14.4,6.9.4.1.9.3,1.3.4,3.8,1.1,6.7,2.1,9.5,5.6,3.9,4.9,7,10.6,10,16.1,1.5,2.7,2.9,5.4,4.5,8,.8,1.3,1.6,2.7,1.9,4.4,0,.6,0,1.2,0,1.8s0,1.1,0,1.6c0,.5.3,1,.6,1.4.2.1.4.3.5.6,2.6,2.5,8.8,3.4,12.1,3.8h.6c2.9.5,5.1.2,7-.7,0,0,.1,0,.2,0,1.2-.6,2.4-1.5,3.7-2.6,2.3-2,4.9-3.5,7.3-5,1.4-.8,2.8-1.7,4.2-2.6,3.4-2.3,6.8-5.6,10.1-9.8v-.2c.8-.8,1.5-1.8,2.5-2.4,1.4-.9,3.1-1,4.3-.3,1.4.8,1.8,2.3,2.1,3.5,1.9,6.7,6.6,14,13.5,17.6,0,0,.2,0,.3.1,1.7.9,3.6,1.5,5.6,1.9,2.3.4,4.8.5,7.2.6.9,0,1.9,0,2.8.1.4,0,.8,0,1.2,0,2.1.1,4,.3,5.9,0,11.3-1.9,21.3-16.1,27.7-27.6,6-10.9,9.9-23.3,11.8-38.1,3.1-23.8-22.2-61.6-37.3-84.2-5.5-8.2-9.8-14.7-11.6-18.5h0Z"/>
  <path class="st0" d="M181.7,231.6c0,.3.2.6.2.9.6,2.7.7,5.5.7,8.2,0,2.7,0,5.5,0,8.2-.2,5.5-1,11-2.8,16.1-1.7,5-4.4,9.8-8.1,13.6-1.6,1.6-3.5,3-5.8,3.5-1.9.4-4.3.1-5.9-1-1.3-.9-1.9-2.3-2.5-3.7-.6-1.5-1.3-3-2.4-4.2-.5.6-1,1.2-1.4,1.9-.7,1.2-.9,2.6-.6,3.9.3,1.3,1.1,2.4,2.1,3.3,2.2,2.1,5.4,3.3,8.4,3.8,2.7.4,5.5,0,7.9-1.2,2.3-1.2,4.3-3,5.8-5.1,3.4-4.5,5.3-10,6.6-15.4,1.3-5.5,1.9-11.3,1.7-17,0-3.3-.4-6.6-1.3-9.8-.6-2.2-1.5-4.3-2.8-6.1h0Z"/>
  <path class="st0" d="M77,281.8c-1.8-1.7-3.7-3.2-5.6-4.8-1.2-1-2.1-2.3-2.9-3.6-1.3-2-2.4-4.1-3.4-6.3-2-4.5-3.4-9.4-3.8-14.3-.4-4.7-.2-9.3-.2-14-1.5,8.3-3,17.9-1.7,26.3.7,4.7,2.4,9.3,5.2,13.2,2.8,3.7,6.4,7.7,10.9,9.4.9.3,1.9.5,2.8.2,1.3-.5,1.7-1.8,1.1-3.1-.5-1.1-1.5-2.1-2.4-2.9h0Z"/>
  <path class="st0" d="M108.2,166.2c5.3,1.3,10.7,1.8,16.2,2.2,2.7.2,5.3.2,8,.3,2.9,0,5.8.2,8.6.2,2.9,0,5.7-.2,8.6-.5-.9-1.5-1.6-2.8-2.1-3.9-.2-.4-.4-.8-.5-1.2-.6-1.2-1.1-2.4-1.5-3.7-7.5,1-15.4,1.5-23.4,1.5s-14.3-.4-21.1-1.2c-.2,1.3-.6,2.5-1,3.5,2.7,1.2,5.5,2.1,8.3,2.8h0Z"/>
  <path class="st0" d="M78.5,334.9h-.6c-3.3-.6-8.6-1.3-11.9-3.5-.4,4.1-1.5,8.2-2.6,12.2l-.3,1.3c-1.1,4.1-2.2,8.1-4,11.9-1.7,3.5-3.9,8.4-7.5,11.2-.7.6-1.6,1.3-2.5,2-7.3,5.7-20.8,16.3-16.7,22.9,2.4,3.9,6.1,2.6,11.5,0,1.7-.8,3.4-1.6,4.9-2,6.5-1.7,8.5,2.5,10.3,6.1,1.2,2.4,2.4,4.8,4.7,5.9,4.2,2,9.3,1.2,12.4-2,.2-.2.4-.4.6-.7.7-.8,1.6-1.7,2.8-2.2,1.7-.7,3.7-.3,5.1,0,.6.1,1.4.3,2.4.6,3.2.8,9.9,2.6,11.6.8.4-.5.5-1.3.2-2.4-2.2-7.9-8.5-14.6-14.5-21.1-2.5-2.6-5-5.4-7.2-8.1-3.2-4-1-12.6-.8-13.6.9-3.2,2-6.2,3.1-8.8,1.1-2.7,2.8-6.2,4.2-9.3.3-.5.5-1.1.8-1.6-1.7.4-3.6.5-5.9.2h0Z"/>
  <path class="st0" d="M154.2,335.2c-1.1,0-2.3,0-3.4-.2-.4,0-.8,0-1.2,0-.9,0-1.9,0-2.8-.1-2.5,0-5-.2-7.5-.6-1.6-.3-3.1-.7-4.5-1.3.9,5.7,3.4,22.3,3.2,29.6,0,1.8-1.4,3.2-3.3,3.6-.4,0-.9.1-1.4.2-2.6.4-5.5.8-6.9,2.6-.9,1.2-.9,3,0,5.7,2.4,7.3,6.7,15.3,12.8,23.8,3.9,5.5,9.9,13.8,17.5,14.9,7.4,1.1,12.9.5,15.2-1.5.7-.6,1.1-1.4,1.1-2.3s.3-1.5.8-2c1.1-.9,2.9-.6,4.9-.3,1.9.3,4,.7,5.1,0,1.1-.7,1.4-2.2.9-4.6-.2-.8-.4-1.5-.6-2.3-.2-.8-.5-1.5-.7-2.4,0-.4-.3-1.2.3-1.9.4-.6,1.2-.6,3.4-.7.8,0,1.9,0,2.2-.1,1.7-.6,3.4-1.7,4.8-3.1,1.1-1.2,1.5-2.3,1.3-3.5-.4-1.9-3-5.7-15.5-10.7-1.5-.6-3.3-1.2-5.2-1.7-6.4-2-14.3-4.5-17-9.9-1.1-2.2-1.3-4.5-1.3-6.6-.1-5.6.8-11.4,1.7-16.9.4-2.7.9-5.5,1.2-8.2-.7.2-1.4.4-2.1.5-1,.2-2,.2-3,.2h0Z"/>
  <path class="st0" d="M38.7,383.4c6-4.1,11.3-9.1,15.7-14.8,4.4-5.7,7.9-12.1,10.3-18.9,1.9-5.5,3-11.3,3.4-17.1-.7-.3-1.4-.7-2-1.1-.4,4.1-1.5,8.2-2.6,12.2l-.3,1.3c-1.1,4.1-2.2,8.1-4,11.9-1.7,3.5-3.9,8.4-7.5,11.2-.7.6-1.6,1.3-2.5,2-5.4,4.2-14.3,11.2-16.8,17.2,2.2-1.2,4.4-2.5,6.5-4h0Z"/>
  <path class="st0" d="M138.3,358.6c.5-2.2.8-4.4.8-6.6,0-2.4,0-4.8.2-7.2.2-3.5.5-7,.8-10.5-.3,0-.5,0-.8-.1-1.6-.3-3.1-.7-4.5-1.3.8,5.1,2.9,18.7,3.1,26.9.1-.4.2-.8.3-1.2h0Z"/>
  <path class="st0" d="M138,395.5c-2.1-5.7-3.7-11.7-4-17.7-.1-2.7.2-5.3.9-7.9.4-1.5.9-2.9,1.3-4.3-.4.3-.9.5-1.5.6-.4,0-.9.1-1.4.2-2.6.4-5.5.8-6.9,2.6-.9,1.2-.9,3,0,5.7,2.4,7.3,6.6,15.2,12.6,23.5-.3-.8-.7-1.7-1-2.5h0Z"/>
  <path d="M122,161.1c-20.7,0-40.2-3.4-54.8-9.5-15-6.2-23.2-14.7-23.2-23.7s3-10.7,8.8-15.4c9.8-8,15.4-18.9,15.4-30.1v-1.4c0-25.9,24.2-47,53.9-47s53.9,21.1,53.9,47v1.4c0,11.1,5.6,22.1,15.4,30.1,5.7,4.7,8.8,10,8.8,15.4,0,9-8.2,17.5-23.2,23.7-14.7,6.1-34.1,9.5-54.8,9.5ZM122,36.1c-28.6,0-51.8,20.1-51.8,44.9v1.4c0,11.8-5.9,23.3-16.1,31.7-5.3,4.3-8,9-8,13.8,0,8.1,7.8,15.9,21.9,21.8,14.4,6,33.6,9.3,54,9.3s39.6-3.3,54-9.3c14.1-5.9,21.9-13.6,21.9-21.8s-2.7-9.5-8-13.8c-10.2-8.4-16.1-19.9-16.1-31.7v-1.4c0-24.7-23.2-44.9-51.8-44.9Z"/>
  <path d="M107.6,85.9c0,3.6-.6,6.9-1.4,9.2-.4,1.2-.9,2.1-1.5,2.7-.5.6-1.1.9-1.6.9s-1-.3-1.6-.9c-.5-.6-1.1-1.5-1.5-2.7-.9-2.3-1.4-5.6-1.4-9.2s.6-6.9,1.4-9.2c.4-1.2.9-2.1,1.5-2.7.5-.6,1.1-.9,1.6-.9s1,.3,1.6.9c.5.6,1.1,1.5,1.5,2.7.9,2.3,1.4,5.6,1.4,9.2Z"/>
  <path d="M144.6,85.9c0,3.6-.6,6.9-1.4,9.2-.4,1.2-.9,2.1-1.5,2.7-.5.6-1.1.9-1.6.9s-1-.3-1.6-.9c-.5-.6-1.1-1.5-1.5-2.7-.9-2.3-1.4-5.6-1.4-9.2s.6-6.9,1.4-9.2c.4-1.2.9-2.1,1.5-2.7.5-.6,1.1-.9,1.6-.9s1,.3,1.6.9c.5.6,1.1,1.5,1.5,2.7.9,2.3,1.4,5.6,1.4,9.2Z"/>
  <path d="M131.8,36.7s0,0-.1,0c-.6,0-1-.6-.9-1.2,0-.2,2.5-21.7-5-30.2-2-2.2-4.4-3.3-7.5-3.3s-4.4,1.1-5.4,3c-1.4,2.8-.8,6.8,1.6,10.2,4.9,7,6.7,19.1,6.7,19.6,0,.6-.3,1.1-.9,1.2-.6,0-1.1-.3-1.2-.9,0-.1-1.7-12.1-6.4-18.7-2.9-4.2-3.6-8.9-1.8-12.4C112.4,1.5,115.1,0,118.3,0s6.7,1.4,9.1,4c3.4,3.9,5.4,10.4,5.9,19.5.3,6.6-.3,12.1-.3,12.3,0,.5-.5.9-1,.9h0Z"/>
  <path d="M112.1,36.1h0c-.6,0-1-.5-1-1.1,0-.3.2-6.5-5.8-10.4-3.7-2.4-5.5-6.8-4.3-10.5,1.3-3.7,5.1-5.6,10.3-5.1.6,0,1,.6.9,1.1,0,.6-.6,1-1.1.9-4.3-.4-7.2,1-8.2,3.7-1,2.8.5,6.2,3.4,8.1,7,4.5,6.7,11.9,6.7,12.2,0,.6-.5,1-1,1h0Z"/>
  <path d="M105.8,38.3c-.5,0-.9-.3-1-.8v-.4c-.6-1.9-1-3.2-1.9-5-.9-1.7-2-2.3-3.6-3.2-.3-.2-.6-.3-.9-.5-2.2-1.2-3.2-3.1-2.9-5.2.5-2.7,3.2-5.1,6.3-5.6.6,0,1.1.3,1.2.9s-.3,1.1-.9,1.2c-2.3.4-4.3,2.1-4.6,3.9-.3,1.5.8,2.5,1.8,3.1.3.2.6.3.9.5,1.8,1,3.3,1.8,4.5,4,1,2,1.4,3.5,1.9,5.4v.4c.2.6,0,1.1-.6,1.3,0,0-.2,0-.3,0h0Z"/>
  <path d="M154.2,335.2c-1.1,0-2.3,0-3.4-.2-.4,0-.8,0-1.2,0-.9,0-1.9,0-2.8-.1-2.5,0-5-.2-7.5-.6-11-2-18.5-12-20.9-21.1h0c-.3-.9-.5-1.9-1.2-2.2-.6-.3-1.4-.2-2.2.3-.7.5-1.3,1.2-1.9,1.9v.2c-3.5,4.4-7.1,7.8-10.7,10.3-1.4.9-2.9,1.8-4.3,2.7-2.5,1.5-4.9,2.9-7,4.8-3.6,3.1-6.9,4.8-12.6,4h-.6c-4.9-.8-14-2.1-15-7.6-.1-.7-.1-1.3-.1-1.9,0-.5,0-1,0-1.5-.2-1.2-.9-2.5-1.6-3.6-1.6-2.6-3.1-5.4-4.5-8.1-3-5.4-6-11-9.8-15.8-2.4-3-5-3.8-8.5-4.9-.4-.1-.8-.3-1.3-.4-4.9-1.5-10-4-14.9-7.2-8.6-5.5-15.3-13.4-18.9-22.2-.4-1-.2-2.1.5-2.9.8-.8,2-1.2,3.1-1-3.6-3.7-6.1-9.2-6.8-14.1-.2-1.2.2-2.3,1.1-3.2.9-.9,2.3-1.4,3.6-1.2,4.1.6,7.5,2.7,10.7,4.7,3.5,2.2,6.7,4.2,10.7,4.4,15.4.6,22.2-15.2,27.1-26.8.3-.6.5-1.2.8-1.8,4.5-10.4,10.9-20.6,18.9-30.5,3.1-3.8,7-7.3,10.8-10.8,5-4.5,10.1-9.2,13.3-14.3.9-1.4,1.5-3.4,1.8-5.8,0-.6.6-1,1.2-.9.6,0,1,.6.9,1.2-.3,2.7-1.1,4.9-2.1,6.6-3.4,5.4-8.6,10.2-13.7,14.8-3.7,3.4-7.6,6.9-10.6,10.6-7.9,9.7-14.2,19.8-18.6,30-.3.6-.5,1.2-.8,1.8-2.5,5.8-5.6,13-10.1,18.5-5.4,6.7-11.6,9.8-19,9.5-4.5-.2-8.2-2.5-11.7-4.7-3.2-2-6.2-3.9-9.9-4.4-.7,0-1.4.1-1.9.6-.4.4-.6.9-.5,1.4,1.2,8.4,6.8,14.9,11.4,16.2h0c.6.2.9.7.7,1.3-.2.6-.7.9-1.3.7h-.4c-2-.7-4-1.3-6.1-1.8-.5-.2-1,0-1.2.3-.1.2-.3.4-.1.8,3.5,8.4,9.9,16,18.1,21.3,4.8,3.1,9.8,5.5,14.4,6.9.4.1.9.3,1.3.4,3.8,1.1,6.7,2.1,9.5,5.6,3.9,4.9,7,10.6,10,16.1,1.5,2.7,2.9,5.4,4.5,8,.8,1.3,1.6,2.7,1.9,4.4,0,.6,0,1.2,0,1.8s0,1.1,0,1.6c.7,4,9.2,5.2,13.2,5.8h.6c4.9.8,7.6-.6,10.9-3.4,2.3-2,4.9-3.5,7.3-5,1.4-.8,2.8-1.7,4.2-2.6,3.4-2.3,6.8-5.6,10.1-9.8v-.2c.8-.8,1.5-1.7,2.5-2.4,1.4-.9,3.1-1,4.3-.3,1.4.8,1.8,2.3,2.1,3.5h0c2.3,8.5,9.2,17.8,19.3,19.6,2.3.4,4.8.5,7.2.6.9,0,1.9,0,2.8.1.4,0,.8,0,1.2,0,2.1.1,4,.3,5.9,0,11.3-1.9,21.3-16.1,27.7-27.6,6-10.9,9.9-23.3,11.8-38.1,1.4-10.4-2.4-24.2-11.5-42.1-7.8-15.2-17.8-30.1-25.8-42.1-5.5-8.2-9.8-14.7-11.6-18.5-1-2.2-1.7-3.7-2-5.8-.1-.6.3-1.1.8-1.2.6-.1,1.1.3,1.2.8.3,1.9.9,3.2,1.9,5.3,1.7,3.7,6,10.1,11.4,18.2,8.1,12,18.1,27,25.9,42.4,9.3,18.3,13.2,32.4,11.7,43.3-2,15.1-5.9,27.8-12.1,38.9-6.6,12-17.1,26.7-29.2,28.7-1,.2-2,.2-3,.2h0Z"/>
  <path d="M163.4,415.9c-2.1,0-4.5-.2-7.1-.6-8.4-1.2-14.7-10-18.8-15.7-6.2-8.6-10.6-16.8-13.1-24.3-.7-2.1-1.4-5.2.4-7.6,1.9-2.5,5.4-3,8.3-3.4.5,0,.9-.1,1.3-.2.9-.2,1.5-.8,1.6-1.6.3-8.6-3.4-30.9-3.5-31.2,0-.6.3-1.1.9-1.2.6,0,1.1.3,1.2.9.2.9,3.8,22.8,3.5,31.6,0,1.8-1.4,3.2-3.3,3.6-.4,0-.9.1-1.4.2-2.6.4-5.5.8-6.9,2.6-.9,1.2-.9,3,0,5.7,2.4,7.3,6.7,15.3,12.8,23.8,3.9,5.5,9.9,13.8,17.5,14.9,7.4,1.1,12.9.5,15.2-1.5.7-.6,1.1-1.4,1.1-2.3s.3-1.5.8-2c1.1-.9,2.9-.6,4.9-.3,1.9.3,4,.7,5.1,0,1.1-.7,1.4-2.2.9-4.6-.2-.8-.4-1.5-.6-2.3-.2-.8-.5-1.5-.7-2.3,0-.4-.3-1.2.3-1.9.4-.6,1.2-.6,3.4-.7.8,0,1.9,0,2.2-.1,1.7-.6,3.4-1.7,4.8-3.1,1.1-1.2,1.5-2.3,1.3-3.5-1-4.4-10.1-8.6-15.5-10.7-1.5-.6-3.3-1.2-5.2-1.7-6.4-2-14.3-4.5-17-9.9-1.1-2.2-1.3-4.5-1.3-6.6-.1-5.6.8-11.4,1.7-16.9.5-3.2,1.1-6.6,1.4-9.8,0-.6.6-1,1.1-.9.6,0,1,.6.9,1.1-.3,3.3-.9,6.7-1.4,9.9-.9,5.5-1.8,11.1-1.7,16.6,0,1.8.2,3.9,1.1,5.7,2.3,4.6,9.8,7,15.8,8.8,1.9.6,3.8,1.2,5.3,1.8,10.3,4.1,15.9,8.2,16.8,12.2.4,1.9-.2,3.7-1.8,5.4-1.6,1.7-3.6,2.9-5.6,3.6-.5.2-1.4.2-2.8.2-.5,0-1.2,0-1.7,0,.2.7.4,1.4.6,2.2.2.8.5,1.6.7,2.5.7,3.2,0,5.5-1.8,6.7-1.8,1.2-4.3.8-6.6.4-1.1-.2-2.9-.5-3.2-.2,0,0,0,.2,0,.4,0,1.5-.6,2.8-1.8,3.8-1.9,1.7-5.3,2.5-9.7,2.5h0Z"/>
  <path d="M148.5,345c-2.8,0-6.3-.4-10.6-1.7-.6-.2-.9-.7-.7-1.3.2-.6.7-.9,1.3-.7,6.3,1.9,10.6,1.8,13.2,1.4,2.7-.4,4-1.3,4-1.3.5-.3,1.1-.2,1.4.3.3.5.2,1.1-.3,1.4-.2.1-2.8,1.9-8.3,1.9Z"/>
  <path d="M148.8,353.3c-2.6,0-5.9-.5-9.6-2-.5-.2-.8-.8-.6-1.4.2-.5.8-.8,1.4-.6,8.5,3.5,14.5.9,14.5.8.5-.2,1.1,0,1.4.5.2.5,0,1.1-.5,1.4-.2,0-2.6,1.2-6.7,1.2h0Z"/>
  <path d="M148.5,361.9c-2.5,0-5.4-.5-8-2.4-.5-.3-.6-1-.2-1.5.3-.5,1-.6,1.5-.2,4.8,3.6,11.5,1.4,11.6,1.3.5-.2,1.1.1,1.3.6.2.5-.1,1.1-.6,1.3-.2,0-2.5.8-5.4.8h0Z"/>
  <path d="M68.5,406.3c-1.9,0-3.9-.4-5.7-1.3-3-1.4-4.4-4.3-5.7-6.9-1.8-3.6-3.1-6.3-8-5-1.3.3-2.9,1.1-4.5,1.8-4.7,2.2-10.6,5-14.1-.8-5-8.2,8.9-19.1,17.2-25.6.9-.7,1.8-1.4,2.5-2,3.2-2.6,5.4-7.2,6.9-10.5,1.7-3.7,2.8-7.6,3.9-11.6l.3-1.3c1.2-4.6,2.5-9.3,2.7-13.9,0-.6.5-1,1.1-1,.6,0,1,.5,1,1.1-.2,4.8-1.5,9.7-2.8,14.4l-.3,1.3c-1.1,4.1-2.2,8.1-4,11.9-1.7,3.5-3.9,8.4-7.5,11.2-.8.6-1.6,1.3-2.5,2-7.3,5.7-20.8,16.3-16.7,22.9,2.4,3.9,6.1,2.6,11.5,0,1.7-.8,3.4-1.6,4.9-2,6.5-1.7,8.5,2.5,10.3,6.1,1.2,2.4,2.4,4.8,4.7,5.9,4.2,2,9.3,1.2,12.4-2,.2-.2.4-.4.6-.7.7-.8,1.6-1.7,2.8-2.2,1.7-.7,3.7-.3,5.1,0,.6.1,1.4.3,2.4.6,3.2.8,9.9,2.6,11.6.8.4-.5.5-1.3.2-2.4-2.2-7.9-8.5-14.6-14.5-21.1-2.5-2.6-5-5.4-7.2-8.1-1.2-1.5-1.8-3.8-1.8-6.8,0-3,.7-5.7,1-6.7.9-3.2,2-6.2,3.1-8.8,1.1-2.7,2.8-6.2,4.2-9.3.7-1.4,1.3-2.7,1.8-3.8.2-.5.9-.7,1.4-.5.5.2.7.9.5,1.4-.5,1.2-1.2,2.5-1.8,3.9-1.5,3-3.1,6.5-4.2,9.1-1,2.5-2.2,5.5-3,8.6-1.8,6.6-.6,10.5.4,11.7,2.1,2.7,4.6,5.2,7.1,8,6.2,6.6,12.7,13.5,15,22,.5,1.9.3,3.4-.7,4.4-2.3,2.4-8,1.2-13.6-.3-.9-.2-1.7-.4-2.3-.6-1.5-.3-2.8-.5-3.9,0-.8.3-1.4,1-2,1.7-.2.2-.4.5-.7.7-2.4,2.4-5.7,3.7-9.1,3.7h0Z"/>
  <path d="M79.7,342.1c-.3,0-7.6,0-13.4-3.6-.5-.3-.6-.9-.3-1.4s.9-.6,1.4-.3c5.2,3.2,12.2,3.3,12.3,3.3.6,0,1,.5,1,1s-.5,1-1,1h0Z"/>
  <path d="M76.7,349.3c-.3,0-7.6,0-13.4-3.6-.5-.3-.6-.9-.3-1.4.3-.5.9-.6,1.4-.3,5.2,3.2,12.2,3.3,12.3,3.3.6,0,1,.5,1,1s-.5,1-1,1h0Z"/>
  <path d="M74.4,356.7c-.3,0-7.6,0-13.4-3.6-.5-.3-.6-.9-.3-1.4.3-.5.9-.6,1.4-.3,5.2,3.2,12.2,3.3,12.3,3.3.6,0,1,.5,1,1s-.5,1-1,1h0Z"/>
  <path d="M122.4,142c-13.5,0-40.2-6.2-40.8-17.7-.3-4.9,6.2-5.4,10-5.7.7,0,1.3,0,1.7-.2,4.2-.5,8.6-2.4,12.6-5.5,2.6-2,3.7-4.1,5.1-6.7.4-.8.9-1.6,1.4-2.5,1.8-3.1,5.5-4.6,10.1-4.2,3.5.3,6.9,1.7,8.9,3.7,1.7,1.7,3.1,3.5,4.3,5.3,2.4,3.3,4.6,6.5,9,7.9,2.3.8,4.8,1.3,7.2,1.9,2.5.6,5.1,1.2,7.6,2,1.5.5,3.5,1.4,4.1,3.2.6,1.9-.5,3.8-3.1,5.6-11.4,8.2-24.9,12.7-38.1,12.7h0ZM121,101.7c-4.5,0-6.3,2.2-6.9,3.2-.5.8-.9,1.7-1.3,2.4-1.4,2.6-2.7,5.1-5.7,7.3-4.3,3.3-9,5.3-13.6,5.9-.5,0-1.2.1-1.8.2-4.2.3-8.3.8-8.1,3.5.5,9.6,25.8,15.7,38.8,15.7s25.9-4.4,36.9-12.3c1.2-.9,2.6-2.2,2.3-3.3-.2-.7-1.1-1.3-2.7-1.9-2.4-.8-4.9-1.4-7.4-2-2.4-.6-4.9-1.1-7.4-1.9-5-1.7-7.6-5.2-10.1-8.7-1.2-1.7-2.5-3.5-4.1-5-1.7-1.6-4.7-2.8-7.7-3.1-.4,0-.9,0-1.3,0h0Z"/>
  <path d="M119.6,113.2c0,1.6-.6,3-1.3,3s-1.3-1.3-1.3-3,.6-3,1.3-3,1.3,1.3,1.3,3Z"/>
  <path d="M128.1,113.2c0,1.6-.6,3-1.3,3s-1.3-1.3-1.3-3,.6-3,1.3-3,1.3,1.3,1.3,3Z"/>
  <path class="st0" d="M91.4,48.7c-9.6,6.8-15.6,18-15.9,29.7,0,1.7,2.6,1.7,2.7,0,.3-10.8,5.8-21.2,14.6-27.4,1.4-1,0-3.3-1.3-2.3Z"/>
  <path class="st0" d="M74.1,90.1c-.4,2.7-1.2,5.3-2.5,7.7-.8,1.5,1.5,2.9,2.3,1.3,1.4-2.6,2.3-5.4,2.8-8.3.3-1.7-2.3-2.4-2.6-.7Z"/>
  <path class="st0" d="M175.5,245c.6,7.2-1.2,14.3-5.1,20.4-.9,1.5,1.4,2.8,2.3,1.4,4.1-6.4,6.1-14.1,5.4-21.7-.1-1.7-2.8-1.7-2.7,0h0Z"/>
  <path class="st0" d="M14.3,268.4c2.8,5.1,7.2,9.3,12.4,11.8,1.5.7,2.9-1.6,1.3-2.3-4.9-2.4-8.9-6.1-11.5-10.9-.8-1.5-3.1-.2-2.3,1.4h0Z"/>
  <path class="st0" d="M34,284.3c1.6.9,3.1,1.7,4.7,2.6,1.5.8,2.9-1.5,1.3-2.3-1.6-.9-3.1-1.7-4.7-2.6-1.5-.8-2.9,1.5-1.3,2.3Z"/>
  <path class="st0" d="M186.3,386.2c.9,1.6-.3,3.5-2,3.8-1.7.3-1,2.9.7,2.6,3.5-.6,5.2-4.8,3.6-7.8-.8-1.5-3.1-.2-2.3,1.4h0Z"/>
  <path d="M117.9,309.5c-14.4,0-27.7-10.8-34.5-28.3l-.2-.5.4-.5c.4-.5.8-1.1,1.1-1.7.9-1.6,1.7-3.7,2.2-5.7l.7-2.7,1.1,2.6c.6,1.3,1.3,2.3,2.1,2.8,1.1.7,2.3.9,3.7.4,4.9-1.5,4.6-7.2,4.3-11.8,0-.2,0-.4,0-.6v-2c-.1,0,1.5,1.1,1.5,1.1,2,1.3,4.6,1.7,7.2,1.1,1.7-.4,2.9-1.3,3.6-2.8,1.9-4.1-.3-12.9-6.1-24-2.9-5.6-4.9-12-5.9-19-.4-2.9-.7-5.8-.7-8.7v-.5s.4-.3.4-.3c5.8-4.5,12.4-6.8,19.1-6.8,10,0,19.6,5.2,26.9,14.7l.3.3v.8c-.1.2-.1.4-.2.6-1,7-3,13.3-5.9,19-8.2,15.8-7,22.1-6.1,24,.7,1.5,1.9,2.4,3.6,2.8,2.6.6,5.1.2,7.2-1.1l1.6-1v1.9c0,.2,0,.3,0,.5h0c-.3,5.7-.2,10.5,4.3,11.9h0c1.2.4,2.2.3,3.1,0l2-.9-.7,2.1c-6.2,19.7-20.3,32.5-36,32.5ZM85.4,281c6.6,16.4,19,26.5,32.4,26.5s27.3-11.5,33.5-29.3c-.8,0-1.7,0-2.6-.3h0c-5.9-1.8-6-8-5.8-12.6-2.1.9-4.6,1.1-7.1.5-2.3-.5-4-1.9-4.9-3.9-1.6-3.4-1.8-10.6,6.1-25.8,2.8-5.4,4.7-11.6,5.7-18.3,0-.2,0-.3,0-.5-6.9-8.7-15.8-13.6-25-13.6s-12.1,2.1-17.5,6.1c0,2.6.3,5.3.7,8,1,6.7,2.9,12.9,5.7,18.3,4.4,8.4,8.9,19.7,6.1,25.8-.9,2.1-2.6,3.4-4.9,3.9-2.5.6-4.9.4-7.1-.5.2,4.6.1,10.8-5.8,12.6-2,.6-3.9.4-5.4-.7-.6-.4-1.2-1-1.6-1.6-.5,1.4-1.1,2.7-1.7,3.9-.3.6-.6,1.1-1,1.6Z"/>
  <path d="M79.3,283.4c-4.9,0-9.5-5.7-10.8-7.4-10.6-14.4-9.3-33.1-6.3-46.2.1-.6.7-.9,1.2-.8.6.1.9.7.8,1.2-2.9,12.7-4.2,30.7,5.9,44.5,3.8,5.1,7.4,6.8,9.5,6.6,1.6-.1,3-1.2,4.1-3.3,1.5-2.9,3-7.4,2.8-10.5h0c0-.6.4-1.1,1-1.1.6,0,1.1.4,1.1,1h0c.1,1.6.8,5.9,2.9,7.3.8.5,1.7.6,2.8.3,3.8-1.2,3.9-5.3,3.6-10.7,0-1.1-.1-2.1-.1-3,0-.4.3-.8.7-.9.4-.1.8,0,1.1.3,1.9,2.1,4.7,2.9,7.8,2.2,1.4-.3,2.3-1,2.8-2.2,1.7-3.8-.5-12.4-6.1-23.1-3-5.7-5-12.2-6-19.3-1.1-7.8-1-15.2.2-22.1.1-.6.6-.9,1.2-.8.6.1.9.6.8,1.2-1.2,6.7-1.3,13.9-.2,21.5,1,6.8,2.9,13.1,5.8,18.6,3.5,6.7,8.9,18.9,6.1,24.9-.8,1.8-2.2,2.9-4.2,3.4-2.9.7-5.7.2-7.9-1.2,0,.2,0,.4,0,.6.3,4.6.7,11-5,12.8-1.7.5-3.2.3-4.6-.6-1.1-.8-1.9-2-2.5-3.3-.6,2.2-1.4,4.3-2.3,5.9-1.5,2.8-3.4,4.3-5.8,4.4-.2,0-.3,0-.5,0h0Z"/>
  <path d="M164.7,283.4c-.2,0-.3,0-.5,0-2.4-.2-4.3-1.7-5.8-4.4-.8-1.6-1.7-3.7-2.3-5.9-.6,1.3-1.4,2.5-2.5,3.3-1.3.9-2.8,1.1-4.6.6-5.7-1.8-5.3-8.1-5-12.8,0-.2,0-.4,0-.6-2.2,1.4-5,1.9-7.9,1.2-2-.5-3.4-1.6-4.2-3.4-1.2-2.6-2-9.3,6.1-24.9,2.9-5.5,4.8-11.8,5.8-18.6,1.1-7.6,1-14.8-.2-21.5-.1-.6.3-1.1.8-1.2.6-.1,1.1.3,1.2.8,1.3,6.9,1.3,14.3.2,22.1-1,7.1-3,13.6-6,19.3-5.5,10.7-7.8,19.3-6.1,23.1.5,1.2,1.5,1.9,2.8,2.2,3.1.7,5.9,0,7.8-2.2.3-.3.7-.4,1.1-.3.4.1.7.5.7.9,0,.9,0,1.9-.1,3-.3,5.3-.3,9.5,3.6,10.7,1.1.3,2,.2,2.8-.3,2.1-1.4,2.8-5.8,2.9-7.3,0-.6.5-1,1.1-1,.5,0,.9.4.9.8,0,0,0,.2,0,.3h0c-.2,3.1,1.2,7.6,2.8,10.5,1.1,2.1,2.5,3.2,4.1,3.3,2.1.2,5.7-1.5,9.5-6.6,10.2-13.8,8.8-31.8,5.9-44.5-.1-.6.2-1.1.8-1.2.6-.1,1.1.2,1.2.8,3,13.1,4.4,31.8-6.3,46.2-1.3,1.8-5.9,7.4-10.8,7.4h0Z"/>
</svg>