<svg width="111" height="231" viewBox="0 0 111 231" fill="none" xmlns="http://www.w3.org/2000/svg">
<path d="M88.2975 70.7653C88.986 70.27 89.7659 69.5497 89.5727 68.9173C89.4497 68.5203 88.9544 68.1795 88.0516 67.8739C86.7307 67.4242 85.3256 67.1009 83.9661 66.7882C82.6171 66.4756 81.2225 66.1558 79.8841 65.7097C77.0948 64.7821 75.6791 62.8041 74.3091 60.8929C73.6241 59.9373 72.9145 58.9465 72.0363 58.0998C71.0878 57.1863 69.4578 56.5293 67.7857 56.3853C67.61 56.3712 67.3852 56.3572 67.1358 56.3572C65.966 56.3572 64.1568 56.6277 63.2645 58.149C62.9905 58.6162 62.7517 59.0695 62.5198 59.5051C61.754 60.9491 61.0303 62.3158 59.3863 63.5736C57.0081 65.3935 54.405 66.5247 51.8476 66.8409C51.5631 66.8761 51.2118 66.9042 50.8254 66.9323C48.5068 67.108 46.2516 67.3996 46.3288 68.8576C46.6204 74.1733 60.6053 77.5671 67.8243 77.5671C75.0433 77.5671 82.1956 75.1535 88.2975 70.7688V70.7653Z" fill="#FF861A"/>
<path d="M67.1672 18.8665C67.3147 18.8665 67.4623 18.8559 67.6098 18.8559C69.296 18.8559 70.9506 18.9859 72.5595 19.2213C72.7668 16.9342 73.4096 7.14603 69.7246 2.99327C68.6215 1.74956 67.262 1.14526 65.5653 1.14526C64.1988 1.14526 63.1449 1.72848 62.5934 2.7895C61.7995 4.31429 62.1578 6.54525 63.5068 8.46704C65.8463 11.8047 66.8897 17.2187 67.1637 18.8665H67.1672Z" fill="#FFE400"/>
<path d="M55.4904 87.3694C55.5642 87.38 55.631 87.4046 55.6942 87.4362C59.5162 87.8999 63.5174 88.1459 67.6135 88.1459C78.9391 88.1459 89.5796 86.3084 97.5715 82.9672C105.405 79.6963 109.719 75.4066 109.719 70.8884C109.719 68.2148 108.223 65.636 105.272 63.2258C99.5914 58.5847 96.335 52.1835 96.335 45.6592V44.8828C96.335 31.1632 83.4496 20.0049 67.6135 20.0049C51.7773 20.0049 38.892 31.1667 38.892 44.8828V45.6592C38.892 52.1835 35.6355 58.5882 29.9551 63.2258C27.0043 65.636 25.5078 68.2148 25.5078 70.8884C25.5078 75.403 29.8217 79.6928 37.6554 82.9672C42.6508 85.0542 48.6789 86.5543 55.2586 87.387C55.3324 87.3659 55.4096 87.3589 55.4904 87.3694ZM45.1836 68.9209C45.036 66.2157 48.6087 65.9487 50.741 65.7871C51.1063 65.7589 51.4365 65.7344 51.707 65.7027C54.0572 65.4111 56.4705 64.3571 58.6872 62.6602C60.131 61.5535 60.7352 60.4117 61.5045 58.9642C61.7399 58.518 61.9858 58.0577 62.2703 57.5659C63.2645 55.8654 65.309 55.0152 67.8804 55.2365C69.8055 55.4017 71.699 56.1816 72.8301 57.2708C73.7821 58.1912 74.5233 59.2242 75.24 60.2219C76.5608 62.0664 77.8079 63.8055 80.2424 64.6171C81.5316 65.0457 82.8981 65.3619 84.2225 65.6676C85.6101 65.9873 87.0433 66.3176 88.4204 66.7848C89.2354 67.0589 90.3525 67.5472 90.6686 68.5766C90.9848 69.606 90.4122 70.6565 88.9684 71.6965C82.6733 76.2216 75.1662 78.7126 67.8278 78.7126C60.4893 78.7126 45.5314 75.2555 45.1836 68.9174V68.9209Z" fill="#FFE400"/>
<path d="M57.0782 10.1992C57.3627 11.1584 58.0302 12.0648 58.9892 12.6832C62.3862 14.872 62.7058 18.2623 62.7234 19.2144C63.7983 19.0598 64.8944 18.9509 66.0044 18.8982C65.6988 17.1591 64.6766 12.1351 62.5688 9.13118C61.8768 8.14393 61.4131 7.09696 61.1847 6.07107C59.0594 5.98675 57.577 6.74211 57.0852 8.17555C56.8639 8.81849 56.8744 9.51413 57.0711 10.1887C57.0711 10.1922 57.0711 10.1992 57.0746 10.2027L57.0782 10.1992Z" fill="#FFE400"/>
<path d="M59.0842 19.9451C59.9027 19.7343 60.7283 19.5446 61.5749 19.3935C61.5854 19.1475 61.6451 15.7572 58.3676 13.6457C57.3559 12.9922 56.6041 12.0752 56.1755 11.0669C55.1182 11.3971 54.2399 12.2298 54.0854 13.1046C53.9378 13.9513 54.5561 14.4924 55.1041 14.798C55.2797 14.8964 55.4449 14.9843 55.6065 15.0686C56.5971 15.5991 57.4542 16.0558 58.1006 17.3101C58.5994 18.2762 58.8348 19.0457 59.0842 19.9451Z" fill="#FFE400"/>
<path d="M81.7318 91.1426C81.6264 90.9177 81.5281 90.7069 81.4297 90.5032C81.0995 89.811 80.8044 89.1927 80.6112 88.4619C76.4589 89.01 72.0889 89.2981 67.6134 89.2981C63.5947 89.2981 59.6602 89.0627 55.8944 88.62C55.6801 89.8427 55.3148 90.8721 54.8089 91.6836C52.933 94.6735 50.0243 97.3155 47.214 99.8697C45.1414 101.753 43.0021 103.699 41.3475 105.726C36.9669 111.105 33.4961 116.699 31.0336 122.355C30.8896 122.685 30.742 123.026 30.5945 123.374C27.7596 129.954 23.8954 138.92 14.9621 138.92C14.7934 138.92 14.6248 138.92 14.4527 138.91C11.948 138.815 9.91754 137.536 7.95031 136.296C6.17278 135.175 4.49362 134.118 2.4737 133.844C2.08025 133.791 1.69383 133.917 1.43388 134.181C1.21256 134.402 1.1142 134.687 1.15987 134.982C1.68681 138.597 4.2442 143.07 7.46202 143.987C7.76764 144.074 7.94329 144.391 7.85898 144.696C7.77115 145.002 7.45148 145.178 7.14937 145.093L6.90698 145.023C5.7969 144.707 4.69034 144.394 3.58026 144.074C3.28166 143.99 3.03927 144.113 2.91983 144.247C2.83904 144.338 2.75824 144.482 2.83904 144.675C4.76762 149.355 8.33322 153.543 12.8789 156.462C15.5206 158.159 18.2888 159.487 20.8848 160.302C21.1272 160.38 21.3626 160.45 21.5944 160.52C23.6741 161.156 25.3181 161.659 26.8778 163.612C29.0629 166.352 30.7807 169.504 32.4458 172.553C33.2502 174.025 34.0793 175.55 34.9435 176.98C35.372 177.69 35.8533 178.494 35.9868 179.415C36.036 179.752 36.0325 180.079 36.0325 180.395C36.0325 180.701 36.0289 180.989 36.0746 181.256C36.1238 181.537 36.2397 181.797 36.4118 182.029C36.5453 182.096 36.6472 182.212 36.6964 182.352C38.1261 183.726 41.5688 184.221 43.4025 184.485L43.7117 184.53C45.3416 184.769 46.5325 184.587 47.618 184.07C47.6531 184.049 47.6918 184.031 47.7304 184.017C48.4225 183.67 49.0759 183.188 49.7749 182.587C51.0431 181.502 52.4658 180.652 53.8429 179.83C54.6087 179.373 55.4026 178.898 56.1544 178.393C58.0583 177.11 59.9413 175.28 61.7539 172.95L61.8347 172.849C62.186 172.395 62.5865 171.879 63.1521 171.517C63.9179 171.025 64.8523 170.955 65.5338 171.338C66.3102 171.773 66.535 172.596 66.7177 173.253C67.7434 176.973 70.3605 180.999 74.2001 183.013C74.2493 183.03 74.2985 183.055 74.3407 183.086C75.2997 183.575 76.3325 183.937 77.4355 184.137C78.7353 184.372 80.1018 184.425 81.4262 184.474C81.9461 184.492 82.4695 184.513 82.9894 184.544C83.2107 184.558 83.4356 184.573 83.6569 184.587C84.8021 184.664 85.8876 184.734 86.9485 184.558C93.219 183.519 98.7588 175.652 102.307 169.237C105.634 163.218 107.776 156.308 108.862 148.101C110.604 134.922 96.5598 113.944 88.171 101.409C85.1323 96.8658 82.7295 93.2787 81.7459 91.1426H81.7318Z" fill="#FFE400"/>
<path d="M100.747 128.412C100.793 128.584 100.835 128.76 100.874 128.936C101.193 130.422 101.26 131.957 101.274 133.471C101.288 134.986 101.281 136.514 101.228 138.028C101.12 141.06 100.691 144.103 99.6969 146.98C98.7449 149.735 97.2589 152.398 95.2214 154.499C94.3502 155.402 93.2823 156.185 92.0247 156.42C90.9638 156.621 89.6394 156.491 88.7401 155.848C88.0411 155.349 87.6757 154.572 87.356 153.803C87.0083 152.977 86.6535 152.166 86.0528 151.495C85.7612 151.814 85.4942 152.159 85.2869 152.538C84.9181 153.209 84.7635 153.979 84.9497 154.727C85.1253 155.44 85.5785 156.052 86.1054 156.547C87.3455 157.72 89.0879 158.402 90.7565 158.673C92.2565 158.915 93.7811 158.704 95.1441 158.023C96.4404 157.373 97.5154 156.35 98.3866 155.201C100.266 152.721 101.351 149.664 102.058 146.66C102.778 143.586 103.087 140.375 103.02 137.22C102.981 135.404 102.799 133.57 102.317 131.813C101.987 130.608 101.499 129.417 100.754 128.409L100.747 128.412Z" fill="#FFBF00"/>
<path d="M42.6824 156.216C41.7093 155.254 40.6133 154.439 39.5805 153.543C38.9306 152.981 38.4318 152.25 37.9575 151.54C37.2233 150.44 36.6051 149.263 36.0781 148.051C34.9821 145.539 34.2163 142.855 33.9563 140.125C33.7104 137.547 33.858 134.964 33.8439 132.378C33.0289 137.005 32.2034 142.275 32.899 146.959C33.2854 149.562 34.2093 152.134 35.7901 154.252C37.3393 156.329 39.3311 158.535 41.8252 159.449C42.3311 159.635 42.8932 159.74 43.4025 159.565C44.1438 159.312 44.3229 158.556 44.0208 157.854C43.7503 157.225 43.1672 156.694 42.6859 156.22L42.6824 156.216Z" fill="#FFBF00"/>
<path d="M59.9553 92.1194C62.8921 92.8291 65.9096 93.1382 68.9202 93.3139C70.3956 93.4017 71.8745 93.4509 73.3535 93.4966C74.9483 93.5458 76.5467 93.609 78.1451 93.588C79.7329 93.5669 81.3207 93.4685 82.9016 93.3069C82.4097 92.4777 82.0128 91.747 81.7317 91.1392C81.6264 90.9143 81.528 90.7035 81.4296 90.4997C81.0994 89.8076 80.8043 89.1893 80.6111 88.4585C76.4589 89.0066 72.0888 89.2947 67.6134 89.2947C63.5946 89.2947 59.6602 89.0593 55.8943 88.6166C55.7679 89.3439 55.5817 89.9903 55.3499 90.5735C56.8288 91.234 58.3815 91.7364 59.9588 92.1159L59.9553 92.1194Z" fill="#FFBF00"/>
<path d="M85.3262 152.725C85.3232 152.727 85.3201 152.729 85.317 152.731L85.3161 152.731C84.8911 152.987 84.4063 153.083 83.9578 153.111C83.5075 153.139 83.0571 153.101 82.6821 153.06L85.3262 152.725ZM85.3262 152.725C85.0687 153.666 84.774 154.598 84.4379 155.518C83.5225 158.022 82.3389 160.432 80.8413 162.624C79.3954 164.739 77.6466 166.65 75.575 168.127L75.5746 168.128C73.5313 169.588 71.1777 170.571 68.6994 170.938L68.6982 170.938C67.8864 171.061 67.0636 171.11 66.2379 171.104C66.1222 170.964 65.954 170.879 65.7654 170.864L65.7654 170.864L65.7548 170.863C65.7342 170.862 65.7128 170.86 65.6859 170.858C65.1068 170.565 64.4205 170.531 63.7798 170.701C61.456 170.485 59.1539 170.148 56.92 169.548C54.1182 168.795 51.4353 167.603 49.2533 165.737C47.1482 163.933 45.7001 161.563 44.706 158.948C44.4636 158.31 44.2499 157.663 44.056 157.006C44.893 156.709 45.6837 156.263 46.3501 155.738L46.352 155.737C46.8563 155.335 47.3065 154.848 47.6079 154.224L47.6089 154.222C47.8022 153.818 47.9578 153.374 48.1015 152.963C48.1668 152.777 48.2297 152.597 48.2925 152.432C48.4261 152.083 48.5584 151.765 48.7223 151.509C49.0564 151.905 49.4463 152.248 49.8584 152.534M49.8584 152.534C49.858 152.534 49.8576 152.534 49.8572 152.533L50.1438 152.124L49.859 152.535C49.8588 152.534 49.8586 152.534 49.8584 152.534ZM49.8584 152.534C50.5046 152.986 51.3633 153.402 52.2867 153.343M52.2867 153.343C52.2864 153.343 52.2862 153.343 52.286 153.343L52.255 152.844L52.2874 153.343C52.2871 153.343 52.2869 153.343 52.2867 153.343Z" fill="white" stroke="black"/>
<path d="M43.536 185.672L43.2269 185.626C41.3897 185.363 38.4845 184.941 36.6332 183.754C36.4013 186.034 35.7831 188.314 35.1789 190.528L34.9856 191.234C34.3709 193.503 33.7386 195.717 32.7409 197.839C31.824 199.792 30.5664 202.473 28.5816 204.071C28.1671 204.405 27.6893 204.778 27.1729 205.182C23.1472 208.333 15.6541 214.197 17.9059 217.882C19.2408 220.071 21.2959 219.312 24.2783 217.907C25.2373 217.454 26.1472 217.025 26.9868 216.811C30.5734 215.89 31.7116 218.181 32.7128 220.205C33.3592 221.508 34.0266 222.857 35.3264 223.479C37.6379 224.589 40.4728 224.122 42.2152 222.344C42.3311 222.225 42.447 222.098 42.5595 221.972C42.967 221.522 43.4271 221.013 44.0946 220.732C45.0606 220.328 46.1391 220.542 46.9295 220.7C47.2668 220.767 47.7234 220.886 48.2504 221.023C50.0314 221.487 53.741 222.45 54.686 221.491C54.9354 221.238 54.9741 220.784 54.7984 220.145C53.5865 215.739 50.1087 212.036 46.7433 208.46C45.3733 207.002 43.9541 205.491 42.7421 203.98C40.9435 201.739 42.1765 196.996 42.3206 196.462C42.8018 194.712 43.4482 193.015 44.0208 191.589C44.6215 190.088 45.5525 188.156 46.3745 186.449C46.5185 186.15 46.659 185.858 46.796 185.57C45.8546 185.802 44.8007 185.851 43.536 185.669V185.672Z" fill="#FF861A"/>
<path d="M85.452 185.817C84.8162 185.817 84.1874 185.774 83.5656 185.732C83.3443 185.718 83.1265 185.704 82.9087 185.69C82.3958 185.662 81.8829 185.641 81.37 185.623C80.007 185.574 78.5983 185.521 77.2178 185.268C76.3466 185.11 75.5175 184.857 74.7306 184.534C75.233 187.693 76.617 196.873 76.4836 200.955C76.4519 201.943 75.7002 202.754 74.6569 202.93C74.4109 202.972 74.1545 203.007 73.8875 203.046C72.4472 203.253 70.8172 203.492 70.062 204.483C69.5491 205.157 69.5385 206.131 70.0374 207.638C71.3863 211.706 73.7681 216.137 77.1159 220.806C79.3044 223.855 82.6066 228.458 86.7974 229.069C90.8759 229.666 93.9532 229.368 95.2425 228.251C95.6499 227.899 95.8537 227.478 95.8537 227C95.8537 226.522 96.0083 226.15 96.3139 225.893C96.9322 225.373 97.9123 225.542 99.0434 225.738C100.069 225.918 101.235 226.118 101.861 225.703C102.479 225.296 102.644 224.467 102.367 223.177C102.275 222.752 102.145 222.334 102.012 221.895C101.882 221.473 101.748 221.041 101.646 220.591C101.601 220.395 101.499 219.931 101.794 219.534C102.033 219.211 102.437 219.186 103.684 219.155C104.106 219.144 104.745 219.126 104.903 219.081C105.862 218.761 106.803 218.15 107.559 217.363C108.18 216.713 108.412 216.077 108.268 215.413C108.043 214.376 106.624 212.23 99.6617 209.482C98.8432 209.159 97.8455 208.843 96.7916 208.513C93.2542 207.395 88.8525 206.008 87.37 203.021C86.7693 201.813 86.6675 200.506 86.6429 199.382C86.5796 196.262 87.0995 193.072 87.6019 189.987C87.8478 188.487 88.0937 186.944 88.2729 185.427C87.8899 185.535 87.5071 185.627 87.1171 185.69C86.5621 185.781 86.0035 185.813 85.4485 185.813L85.452 185.817Z" fill="#FF861A"/>
<path d="M21.4468 212.521C24.7455 210.244 27.7033 207.476 30.1623 204.31C32.6143 201.155 34.5605 197.614 35.8708 193.837C36.9352 190.77 37.557 187.569 37.7502 184.337C37.3497 184.165 36.9739 183.975 36.6331 183.754C36.4013 186.034 35.783 188.314 35.1788 190.528L34.9856 191.234C34.3708 193.503 33.7385 195.717 32.7408 197.839C31.824 199.792 30.5663 202.473 28.5815 204.071C28.167 204.405 27.6893 204.778 27.1729 205.182C24.1728 207.529 19.2513 211.383 17.8672 214.72C19.0967 214.049 20.2946 213.319 21.4468 212.525V212.521Z" fill="#EF7714"/>
<path d="M76.6416 198.763C76.9192 197.569 77.0737 196.346 77.0878 195.12C77.1053 193.795 77.1264 192.471 77.1967 191.146C77.2985 189.203 77.4566 187.268 77.6393 185.332C77.4988 185.311 77.3583 185.297 77.2213 185.268C76.3501 185.11 75.521 184.857 74.7341 184.534C75.1803 187.341 76.3255 194.909 76.48 199.424C76.5398 199.206 76.596 198.984 76.6451 198.763H76.6416Z" fill="#EF7714"/>
<path d="M76.4801 219.26C75.3348 216.108 74.418 212.785 74.2529 209.422C74.1791 207.915 74.3442 206.478 74.7376 205.02C74.9554 204.212 75.2119 203.418 75.4789 202.624C75.2365 202.772 74.9625 202.88 74.6569 202.933C74.4109 202.975 74.1545 203.01 73.8875 203.049C72.4472 203.256 70.8172 203.495 70.062 204.486C69.5491 205.161 69.5385 206.134 70.0374 207.641C71.3723 211.667 73.7189 216.048 77.014 220.665C76.8313 220.201 76.6522 219.734 76.4801 219.263V219.26Z" fill="#EF7714"/>
<path d="M67.6135 89.2982C56.1404 89.2982 45.3417 87.4291 37.2128 84.0317C28.9224 80.5676 24.3591 75.9019 24.3591 70.8918C24.3591 67.8985 26.0418 64.9403 29.228 62.3404C34.6414 57.9206 37.7433 51.8391 37.7433 45.6626V44.8862C37.7433 30.5343 51.145 18.856 67.6135 18.856C84.082 18.856 97.4837 30.5307 97.4837 44.8862V45.6626C97.4837 51.8426 100.589 57.9206 105.999 62.3404C109.185 64.9403 110.868 67.8985 110.868 70.8918C110.868 75.9019 106.305 80.5676 98.0142 84.0317C89.8853 87.4291 79.0866 89.2982 67.6135 89.2982ZM67.6135 20.0083C51.7773 20.0083 38.892 31.1702 38.892 44.8862V45.6626C38.892 52.1869 35.6355 58.5917 29.9552 63.2293C27.0043 65.6394 25.5078 68.2182 25.5078 70.8918C25.5078 75.4065 29.8217 79.6963 37.6555 82.9707C45.6473 86.3083 56.2879 88.1493 67.6135 88.1493C78.9391 88.1493 89.5797 86.3119 97.5715 82.9707C105.405 79.6963 109.719 75.41 109.719 70.8918C109.719 68.2182 108.223 65.6394 105.272 63.2293C99.5915 58.5882 96.335 52.1869 96.335 45.6626V44.8862C96.335 31.1667 83.4497 20.0083 67.6135 20.0083Z" fill="#231F20"/>
<path d="M57.1381 54.9766C58.663 54.9766 59.8992 51.6702 59.8992 47.5916C59.8992 43.5129 58.663 40.2065 57.1381 40.2065C55.6132 40.2065 54.377 43.5129 54.377 47.5916C54.377 51.6702 55.6132 54.9766 57.1381 54.9766Z" fill="#231F20"/>
<path d="M77.6569 54.9941C79.1818 54.9941 80.418 51.6878 80.418 47.6091C80.418 43.5305 79.1818 40.2241 77.6569 40.2241C76.132 40.2241 74.8958 43.5305 74.8958 47.6091C74.8958 51.6878 76.132 54.9941 77.6569 54.9941Z" fill="#231F20"/>
<path d="M73.0867 20.3527C73.0656 20.3527 73.041 20.3527 73.0164 20.3492C72.7002 20.3105 72.4754 20.026 72.5141 19.7098C72.5281 19.5903 73.8946 7.68716 69.7283 2.99336C68.6253 1.74964 67.2658 1.14534 65.569 1.14534C64.2025 1.14534 63.1487 1.72856 62.5971 2.78958C61.8032 4.31437 62.1615 6.54533 63.5105 8.46712C66.2365 12.3529 67.2025 19.0668 67.2447 19.3514C67.2904 19.6641 67.0691 19.9557 66.7564 20.0014C66.4438 20.047 66.1522 19.8257 66.1065 19.513C66.096 19.4463 65.137 12.7885 62.569 9.13114C60.9531 6.8264 60.5702 4.1914 61.5749 2.26258C62.3231 0.825632 63.7775 0 65.5655 0C67.5819 0 69.2681 0.751852 70.5855 2.23448C72.493 4.38463 73.589 8.01742 73.8384 13.0239C74.0211 16.7024 73.6663 19.7238 73.6522 19.8503C73.6171 20.1419 73.3677 20.3562 73.0831 20.3562L73.0867 20.3527Z" fill="#231F20"/>
<path d="M62.151 20.012C62.151 20.012 62.13 20.012 62.1229 20.012C61.8068 19.9944 61.5644 19.7274 61.5784 19.4112C61.5855 19.2636 61.7014 15.796 58.3712 13.6493C56.2985 12.3143 55.3044 9.85493 56.007 7.80314C56.706 5.76541 58.8454 4.70087 61.7295 4.95735C62.0457 4.98545 62.281 5.26301 62.2529 5.57921C62.2248 5.89541 61.9473 6.12729 61.6311 6.10269C59.274 5.89541 57.6194 6.65077 57.096 8.17907C56.562 9.73899 57.363 11.6327 58.9965 12.6867C62.8993 15.2022 62.7377 19.2988 62.7307 19.4709C62.7166 19.7766 62.4602 20.0155 62.1581 20.0155L62.151 20.012Z" fill="#231F20"/>
<path d="M58.6768 21.2135C58.4239 21.2135 58.192 21.0448 58.1218 20.7883L58.0691 20.5881C57.7775 19.52 57.5878 18.8139 57.0819 17.8372C56.5972 16.8991 55.9859 16.5724 55.0655 16.0805C54.9004 15.9927 54.7283 15.9013 54.5491 15.7994C53.3337 15.1249 52.7541 14.0709 52.9578 12.9044C53.2142 11.4288 54.7143 10.1043 56.4496 9.81974C56.7623 9.76704 57.0574 9.98135 57.1101 10.294C57.1627 10.6067 56.9485 10.9018 56.6358 10.9545C55.3817 11.1583 54.2646 12.1034 54.0925 13.1012C53.9449 13.9479 54.5632 14.489 55.1112 14.7946C55.2869 14.893 55.452 14.9808 55.6136 15.0651C56.6042 15.5956 57.4613 16.0524 58.1112 17.3066C58.6733 18.3958 58.9016 19.2284 59.1862 20.2859L59.2389 20.4827C59.3232 20.7883 59.1405 21.1045 58.8349 21.1889C58.7857 21.2029 58.733 21.2099 58.6838 21.2099L58.6768 21.2135Z" fill="#231F20"/>
<path d="M85.4556 185.816C84.8197 185.816 84.1909 185.774 83.5727 185.732C83.3513 185.718 83.1336 185.704 82.9122 185.69C82.4029 185.662 81.8794 185.641 81.3736 185.623C80.0106 185.574 78.6019 185.521 77.2213 185.268C71.1194 184.158 66.9918 178.596 65.6077 173.576V173.558C65.4637 173.056 65.3231 172.539 64.9648 172.339C64.6592 172.167 64.1674 172.23 63.7634 172.487C63.3629 172.743 63.0573 173.137 62.7341 173.555L62.6533 173.66C60.7669 176.084 58.7927 177.999 56.7903 179.348C56.0104 179.872 55.206 180.357 54.4226 180.82C53.028 181.653 51.7071 182.44 50.5163 183.462C48.5315 185.166 46.6696 186.129 43.5361 185.672L43.227 185.627C40.508 185.233 35.4494 184.506 34.9295 181.449C34.8663 181.08 34.8698 180.729 34.8733 180.388C34.8733 180.104 34.8768 179.833 34.8417 179.58C34.7433 178.888 34.3393 178.221 33.9494 177.574C33.0747 176.123 32.2386 174.588 31.4307 173.105C29.7901 170.098 28.0934 166.992 25.9716 164.332C24.6367 162.656 23.2175 162.224 21.2503 161.624C21.0184 161.553 20.7795 161.48 20.5336 161.402C17.8427 160.559 14.9762 159.185 12.2502 157.432C7.50779 154.386 3.78763 150.012 1.77122 145.114C1.53937 144.552 1.64827 143.941 2.05928 143.484C2.48083 143.013 3.14125 142.806 3.77357 142.943C1.79932 140.898 0.415239 137.856 0.0217937 135.154C-0.0730547 134.504 0.144746 133.858 0.615475 133.38C1.12836 132.863 1.88012 132.614 2.62486 132.712C4.89419 133.018 6.75954 134.192 8.56166 135.33C10.4832 136.542 12.2959 137.684 14.4914 137.765C23.0032 138.088 26.7796 129.319 29.5372 122.921C29.6883 122.573 29.8358 122.229 29.9798 121.898C32.481 116.147 36.008 110.462 40.4553 105.003C42.1626 102.905 44.3371 100.931 46.4413 99.0196C49.1954 96.5181 52.0444 93.9288 53.8359 91.0724C54.3383 90.2749 54.679 89.1963 54.8512 87.8718C54.8933 87.5556 55.1814 87.3343 55.494 87.3764C55.8102 87.4186 56.0315 87.7067 55.9894 88.0193C55.7961 89.5125 55.3992 90.7457 54.809 91.6838C52.9331 94.6736 50.0244 97.3156 47.2141 99.8698C45.1415 101.753 43.0022 103.699 41.3476 105.727C36.967 111.105 33.4962 116.699 31.0337 122.355C30.8897 122.685 30.7421 123.026 30.5946 123.374C29.214 126.578 27.4962 130.562 25.0126 133.654C22.0442 137.346 18.591 139.068 14.4528 138.91C11.9481 138.815 9.91764 137.536 7.95041 136.296C6.17289 135.175 4.49372 134.118 2.4738 133.844C2.08387 133.791 1.69394 133.917 1.43398 134.181C1.21267 134.402 1.11431 134.687 1.15998 134.982C1.83445 139.623 4.95391 143.266 7.45861 143.983H7.46212C7.76774 144.071 7.94339 144.387 7.85908 144.693C7.77126 144.999 7.4551 145.178 7.14947 145.09L6.9387 145.03C5.81808 144.71 4.69747 144.394 3.58037 144.071C3.28177 143.983 3.03938 144.11 2.91994 144.243C2.83914 144.334 2.75835 144.479 2.83914 144.672C4.76773 149.352 8.33332 153.539 12.879 156.459C15.5207 158.156 18.2889 159.484 20.8849 160.299C21.1273 160.376 21.3627 160.447 21.5945 160.517C23.6742 161.153 25.3182 161.655 26.8779 163.609C29.063 166.349 30.7843 169.5 32.4459 172.55C33.2503 174.022 34.0794 175.547 34.9436 176.977C35.3721 177.687 35.8534 178.491 35.9869 179.412C36.0361 179.749 36.0326 180.076 36.0326 180.392C36.0326 180.697 36.029 180.986 36.0747 181.253C36.4541 183.48 41.1473 184.158 43.4026 184.485L43.7153 184.53C46.4448 184.931 47.9518 184.155 49.7785 182.588C51.0467 181.502 52.4694 180.652 53.8465 179.83C54.6123 179.373 55.4062 178.899 56.1615 178.393C58.0655 177.11 59.9484 175.28 61.7611 172.951L61.8419 172.849C62.1931 172.395 62.5936 171.879 63.1592 171.517C63.925 171.025 64.8594 170.955 65.5409 171.338C66.3173 171.774 66.5421 172.592 66.7248 173.253V173.27C68.021 177.943 71.8326 183.118 77.4427 184.137C78.7424 184.372 80.1089 184.425 81.4298 184.474C81.9427 184.492 82.4696 184.513 82.993 184.545C83.2143 184.559 83.4392 184.573 83.664 184.587C84.8092 184.664 85.8947 184.734 86.9521 184.559C93.2226 183.519 98.7625 175.652 102.311 169.237C105.637 163.219 107.78 156.308 108.866 148.101C109.631 142.318 107.538 134.687 102.472 124.769C98.1618 116.333 92.6219 108.056 88.1711 101.409C85.1324 96.8659 82.7296 93.2788 81.746 91.1427C81.1839 89.9201 80.8256 89.1085 80.6183 87.935C80.5621 87.6223 80.7694 87.3237 81.082 87.2675C81.3947 87.2113 81.6933 87.4186 81.7495 87.7313C81.9357 88.7677 82.2483 89.4844 82.7893 90.6579C83.7343 92.7132 86.1125 96.2651 89.1266 100.766C93.595 107.441 99.1559 115.747 103.494 124.242C108.669 134.374 110.798 142.226 110.004 148.248C108.901 156.6 106.712 163.644 103.315 169.789C99.6477 176.425 93.862 184.569 87.1383 185.686C86.5832 185.778 86.0247 185.809 85.4696 185.809L85.4556 185.816Z" fill="#231F20"/>
<path d="M43.947 157.091C41.2105 157.091 38.6707 153.954 37.94 152.963C32.0383 144.984 32.7866 134.631 34.4517 127.351C34.5219 127.042 34.8311 126.849 35.1402 126.919C35.4493 126.989 35.6425 127.298 35.5723 127.607C33.9599 134.652 33.2222 144.651 38.8639 152.278C40.9576 155.106 42.9564 156.023 44.1262 155.932C45.0185 155.865 45.7843 155.24 46.3991 154.08C47.2421 152.482 48.0396 149.97 47.9272 148.259C47.9272 148.252 47.9272 148.245 47.9272 148.241C47.9061 147.925 48.1485 147.651 48.4646 147.633C48.7808 147.612 49.0548 147.851 49.0759 148.167C49.0759 148.167 49.0759 148.171 49.0759 148.175C49.1356 149.035 49.5466 151.435 50.7094 152.229C51.1344 152.52 51.6368 152.573 52.2375 152.383C54.3558 151.726 54.3874 149.418 54.2118 146.474C54.1766 145.87 54.1415 145.297 54.1555 144.805C54.1626 144.57 54.3101 144.363 54.5279 144.282C54.7457 144.201 54.9951 144.257 55.1532 144.433C56.2317 145.606 57.7668 146.038 59.4776 145.645C60.2329 145.473 60.7457 145.072 61.0443 144.426C62.0104 142.335 60.7563 137.55 57.686 131.627C56.0385 128.447 54.9178 124.846 54.3593 120.922C53.741 116.597 53.7832 112.469 54.4822 108.646C54.5385 108.333 54.837 108.126 55.1497 108.182C55.4623 108.239 55.6696 108.537 55.6134 108.85C54.9389 112.549 54.9003 116.555 55.4975 120.756C56.0385 124.551 57.1204 128.029 58.7083 131.093C60.6369 134.813 63.6404 141.552 62.0912 144.904C61.638 145.884 60.8476 146.506 59.7375 146.762C58.1251 147.131 56.583 146.885 55.3429 146.084C55.3499 146.189 55.357 146.295 55.3605 146.404C55.515 148.979 55.7258 152.503 52.5783 153.48C51.6298 153.775 50.7796 153.669 50.0525 153.17C49.4307 152.742 48.9881 152.071 48.6754 151.361C48.3522 152.563 47.885 153.733 47.4178 154.614C46.6063 156.15 45.5314 156.975 44.2175 157.077C44.1297 157.084 44.0419 157.088 43.9541 157.088L43.947 157.091Z" fill="#231F20"/>
<path d="M91.2765 157.091C91.1887 157.091 91.1009 157.091 91.013 157.081C89.6992 156.983 88.6207 156.153 87.8128 154.618C87.3456 153.733 86.8784 152.566 86.5552 151.365C86.2425 152.074 85.7999 152.745 85.1781 153.174C84.4509 153.677 83.6008 153.778 82.6523 153.483C79.5048 152.507 79.7155 148.979 79.8701 146.407C79.8771 146.299 79.8842 146.193 79.8877 146.088C78.6476 146.889 77.1054 147.138 75.493 146.766C74.3829 146.509 73.5926 145.887 73.1394 144.907C72.4754 143.47 72.0293 139.76 76.5223 131.096C78.1101 128.033 79.1921 124.555 79.7331 120.76C80.3338 116.558 80.2952 112.553 79.6172 108.853C79.561 108.541 79.7682 108.242 80.0809 108.186C80.3935 108.13 80.6921 108.337 80.7483 108.65C81.4474 112.472 81.486 116.6 80.8713 120.925C80.3127 124.846 79.1921 128.451 77.5446 131.63C74.4743 137.554 73.2167 142.339 74.1862 144.429C74.4848 145.076 74.9977 145.476 75.753 145.649C77.4638 146.042 78.9989 145.61 80.0774 144.436C80.2355 144.264 80.4849 144.205 80.7027 144.285C80.9205 144.366 81.068 144.573 81.075 144.809C81.0891 145.301 81.054 145.87 81.0188 146.478C80.8432 149.422 80.8748 151.73 82.9931 152.387C83.5938 152.573 84.0961 152.524 84.5212 152.233C85.684 151.435 86.095 149.035 86.1547 148.171C86.1758 147.855 86.4498 147.616 86.7659 147.637C87.0294 147.655 87.2367 147.844 87.2894 148.09C87.2999 148.14 87.3034 148.192 87.2999 148.245C87.2999 148.248 87.2999 148.252 87.2999 148.259C87.1875 149.97 87.9814 152.478 88.828 154.081C89.4428 155.243 90.2051 155.865 91.1009 155.932C92.2742 156.023 94.2695 155.106 96.3632 152.278C102.005 144.647 101.267 134.652 99.6548 127.608C99.5845 127.298 99.7777 126.989 100.087 126.919C100.396 126.849 100.705 127.042 100.775 127.351C102.444 134.631 103.189 144.981 97.2871 152.963C96.5564 153.951 94.0166 157.091 91.28 157.091H91.2765Z" fill="#231F20"/>
<path d="M90.5914 230.524C89.4146 230.524 88.0903 230.418 86.6324 230.204C81.9567 229.519 78.486 224.681 76.1885 221.48C72.767 216.713 70.3325 212.177 68.9485 208C68.5585 206.819 68.151 205.098 69.1487 203.787C70.1885 202.42 72.1487 202.136 73.7225 201.908C73.9789 201.869 74.2319 201.834 74.4707 201.795C74.9696 201.711 75.3244 201.349 75.3384 200.917C75.493 196.163 73.445 183.772 73.4239 183.645C73.3712 183.333 73.582 183.037 73.8981 182.985C74.2108 182.936 74.5059 183.143 74.5586 183.459C74.6429 183.972 76.6452 196.089 76.4871 200.955C76.4555 201.943 75.7038 202.754 74.6604 202.93C74.4145 202.972 74.1546 203.007 73.8876 203.046C72.4473 203.253 70.8173 203.492 70.062 204.483C69.5492 205.157 69.5386 206.131 70.0374 207.638C71.3864 211.706 73.7646 216.136 77.116 220.806C79.3045 223.855 82.6066 228.458 86.7975 229.069C90.876 229.666 93.9533 229.368 95.2425 228.25C95.65 227.899 95.8538 227.478 95.8538 227C95.8538 226.522 96.0083 226.149 96.314 225.893C96.9322 225.37 97.9123 225.542 99.0435 225.738C100.069 225.918 101.236 226.118 101.861 225.703C102.479 225.296 102.644 224.47 102.367 223.181C102.275 222.756 102.145 222.338 102.012 221.898C101.882 221.477 101.748 221.045 101.647 220.598C101.601 220.402 101.499 219.938 101.794 219.541C102.033 219.218 102.437 219.193 103.684 219.161C104.106 219.151 104.745 219.133 104.903 219.088C105.862 218.768 106.803 218.157 107.559 217.37C108.181 216.72 108.412 216.084 108.268 215.42C107.741 213.006 102.651 210.666 99.6618 209.489C98.8433 209.166 97.8456 208.85 96.7917 208.52C93.2542 207.402 88.8526 206.015 87.3701 203.028C86.7694 201.82 86.6675 200.513 86.6429 199.388C86.5797 196.269 87.0996 193.079 87.6055 189.994C87.8971 188.202 88.1992 186.347 88.3783 184.555C88.4099 184.239 88.691 184.007 89.0071 184.039C89.3233 184.07 89.5551 184.351 89.5235 184.668C89.3409 186.495 89.0387 188.367 88.7402 190.18C88.2448 193.216 87.7319 196.353 87.7952 199.367C87.8163 200.362 87.9041 201.514 88.4029 202.519C89.6676 205.066 93.8093 206.373 97.1395 207.423C98.2145 207.764 99.2297 208.084 100.087 208.421C105.774 210.666 108.904 212.939 109.392 215.177C109.621 216.231 109.284 217.236 108.391 218.171C107.51 219.088 106.403 219.801 105.272 220.18C104.984 220.275 104.496 220.293 103.719 220.314C103.431 220.321 103.038 220.331 102.774 220.352C102.866 220.753 102.985 221.15 103.115 221.565C103.252 222.011 103.396 222.471 103.498 222.945C103.881 224.727 103.544 225.977 102.504 226.669C101.495 227.337 100.094 227.095 98.8538 226.88C98.2215 226.771 97.2695 226.606 97.0587 226.782C97.0271 226.806 97.0095 226.894 97.0095 227.01C97.0095 227.825 96.6617 228.56 96.0013 229.129C94.9229 230.06 93.0856 230.534 90.5985 230.534L90.5914 230.524Z" fill="#231F20"/>
<path d="M82.3256 191.231C80.787 191.231 78.8373 190.992 76.438 190.278C76.1324 190.187 75.9602 189.867 76.0516 189.565C76.1429 189.26 76.4626 189.087 76.7647 189.179C80.2354 190.212 82.6453 190.173 84.0575 189.962C85.5715 189.734 86.2811 189.263 86.2882 189.256C86.5481 189.08 86.9064 189.144 87.0856 189.404C87.2647 189.664 87.2015 190.018 86.9451 190.198C86.8573 190.257 85.4205 191.231 82.3256 191.231Z" fill="#231F20"/>
<path d="M82.4768 195.822C81.0329 195.822 79.2308 195.562 77.1758 194.712C76.8842 194.589 76.7437 194.255 76.8631 193.96C76.9861 193.669 77.3198 193.528 77.6149 193.648C82.3503 195.604 85.6454 194.129 85.677 194.111C85.9651 193.978 86.3058 194.101 86.4393 194.389C86.5728 194.677 86.4498 195.018 86.1653 195.151C86.074 195.193 84.7074 195.819 82.4768 195.819V195.822Z" fill="#231F20"/>
<path d="M82.3044 200.635C80.9309 200.635 79.2939 200.34 77.8466 199.279C77.5901 199.093 77.5339 198.731 77.7236 198.475C77.9098 198.218 78.2716 198.162 78.5281 198.352C81.2154 200.323 84.904 199.104 84.9426 199.09C85.2412 198.988 85.5679 199.146 85.6733 199.448C85.7752 199.747 85.6171 200.073 85.3185 200.179C85.2237 200.21 83.9555 200.635 82.308 200.635H82.3044Z" fill="#231F20"/>
<path d="M37.9648 225.222C36.8968 225.222 35.8219 224.99 34.8242 224.516C33.1661 223.722 32.3757 222.123 31.6767 220.714C30.6755 218.694 29.9518 217.236 27.2645 217.925C26.5267 218.115 25.6696 218.519 24.7598 218.947C22.1462 220.18 18.8932 221.712 16.919 218.48C14.1332 213.92 21.8511 207.884 26.46 204.276C26.9659 203.879 27.4436 203.506 27.8546 203.172C29.6322 201.739 30.8265 199.202 31.6942 197.347C32.6497 195.31 33.268 193.149 33.8687 190.928L34.0619 190.219C34.754 187.682 35.4706 185.061 35.5654 182.517C35.576 182.201 35.8465 181.952 36.1626 181.966C36.4788 181.976 36.7282 182.243 36.7142 182.563C36.6158 185.237 35.8816 187.924 35.172 190.524L34.9788 191.231C34.364 193.5 33.7317 195.714 32.7341 197.836C31.8172 199.793 30.5596 202.47 28.5748 204.068C28.1567 204.406 27.6755 204.781 27.1661 205.178C23.1403 208.33 15.6473 214.194 17.8991 217.879C19.234 220.068 21.289 219.309 24.2715 217.904C25.2305 217.451 26.1403 217.022 26.9799 216.808C30.5701 215.887 31.7048 218.178 32.7059 220.201C33.3523 221.505 34.0198 222.854 35.3195 223.476C37.631 224.586 40.4659 224.119 42.2083 222.341C42.3278 222.222 42.4402 222.095 42.5526 221.969C42.9601 221.519 43.4203 221.01 44.0877 220.728C45.0538 220.324 46.1323 220.539 46.9227 220.697C47.2599 220.764 47.7166 220.883 48.2435 221.02C50.0246 221.484 53.7342 222.446 54.6791 221.487C54.9286 221.234 54.9672 220.781 54.7916 220.142C53.5796 215.736 50.1018 212.033 46.7365 208.456C45.3629 206.998 43.9472 205.488 42.7353 203.977C42.0608 203.137 41.7341 201.865 41.7622 200.193C41.7903 198.538 42.1557 197.031 42.3137 196.458C42.795 194.705 43.4414 193.012 44.014 191.585C44.6147 190.085 45.5456 188.153 46.3676 186.445C46.7365 185.679 47.0843 184.956 47.3829 184.316C47.5163 184.028 47.8571 183.902 48.1452 184.039C48.4332 184.172 48.5562 184.513 48.4227 184.801C48.1206 185.448 47.7728 186.175 47.4004 186.944C46.5854 188.634 45.665 190.552 45.0784 192.014C44.5198 193.412 43.884 195.067 43.4203 196.764C42.4156 200.432 43.0795 202.572 43.6276 203.26C44.8114 204.736 46.1498 206.162 47.569 207.669C51.0292 211.351 54.6089 215.156 55.8946 219.84C56.1862 220.904 56.0527 221.73 55.4906 222.299C54.1909 223.62 51.0538 222.942 47.9484 222.137C47.4391 222.004 46.9964 221.891 46.6908 221.828C45.8583 221.663 45.117 221.544 44.5233 221.793C44.0948 221.972 43.754 222.348 43.3957 222.742C43.2763 222.875 43.1498 223.012 43.0163 223.149C41.6884 224.502 39.8301 225.222 37.9472 225.222H37.9648Z" fill="#231F20"/>
<path d="M44.1825 189.618C44.0103 189.618 39.9494 189.597 36.7597 187.622C36.4892 187.457 36.4049 187.102 36.5735 186.832C36.7422 186.561 37.0934 186.477 37.3639 186.646C40.2726 188.444 44.1438 188.469 44.1825 188.469C44.4986 188.469 44.7551 188.725 44.7551 189.045C44.7551 189.361 44.4986 189.618 44.179 189.618H44.1825Z" fill="#231F20"/>
<path d="M42.5209 193.627C42.3487 193.627 38.2878 193.606 35.0981 191.631C34.8276 191.466 34.7433 191.111 34.9119 190.841C35.077 190.57 35.4318 190.486 35.7023 190.654C38.611 192.453 42.4822 192.478 42.5209 192.478C42.837 192.478 43.0935 192.734 43.0935 193.054C43.0935 193.37 42.837 193.63 42.5173 193.63L42.5209 193.627Z" fill="#231F20"/>
<path d="M41.2352 197.727C41.0631 197.727 37.0022 197.706 33.8125 195.731C33.542 195.566 33.4576 195.211 33.6263 194.941C33.7914 194.67 34.1462 194.586 34.4167 194.754C37.3254 196.553 41.1966 196.578 41.2352 196.578C41.5514 196.578 41.8078 196.834 41.8078 197.154C41.8078 197.47 41.5514 197.727 41.2317 197.727H41.2352Z" fill="#231F20"/>
<path d="M67.8278 78.7126C60.3242 78.7126 45.5314 75.2555 45.1836 68.9175C45.0361 66.2122 48.6087 65.9452 50.741 65.7836C51.1169 65.7555 51.4436 65.7309 51.7071 65.6993C54.0572 65.4077 56.4741 64.3537 58.6872 62.6603C60.131 61.5536 60.7352 60.4117 61.5046 58.9642C61.7399 58.518 61.9858 58.0578 62.2704 57.5694C63.2645 55.869 65.3126 55.0188 67.8805 55.2401C69.8021 55.4052 71.699 56.1852 72.8302 57.2743C73.7822 58.1948 74.5234 59.2277 75.24 60.2255C76.5609 62.07 77.808 63.8091 80.2424 64.6207C81.5316 65.0493 82.8981 65.3655 84.2225 65.6712C85.6101 65.9909 87.0434 66.3211 88.4204 66.7884C89.2354 67.066 90.3525 67.5508 90.6687 68.5802C90.9848 69.6096 90.4123 70.6601 88.9684 71.7C82.6733 76.2252 75.1663 78.7162 67.8278 78.7162V78.7126ZM67.0796 56.3538C64.5994 56.3538 63.5948 57.5835 63.2645 58.1491C62.9905 58.6164 62.7517 59.0696 62.5198 59.5053C61.754 60.9493 61.0303 62.3159 59.3863 63.5737C57.0081 65.3936 54.405 66.5249 51.8476 66.8411C51.556 66.8762 51.2012 66.9044 50.8253 66.9325C48.5068 67.1081 46.2515 67.3997 46.3288 68.8578C46.6204 74.1734 60.6053 77.5673 67.8243 77.5673C74.9274 77.5673 82.1956 75.1536 88.2975 70.769C88.986 70.2736 89.7659 69.5534 89.5727 68.921C89.4497 68.524 88.9544 68.1832 88.0516 67.8775C86.7307 67.4278 85.3256 67.1046 83.9661 66.7919C82.6171 66.4792 81.2225 66.1595 79.8806 65.7133C77.0913 64.7858 75.6756 62.8078 74.3056 60.8966C73.6206 59.9409 72.911 58.9502 72.0327 58.1035C71.0843 57.19 69.4543 56.533 67.7821 56.389C67.5362 56.3679 67.3009 56.3573 67.076 56.3573L67.0796 56.3538Z" fill="#231F20"/>
<path d="M66.2751 62.7761C66.2751 63.6791 65.9414 64.4133 65.5304 64.4133C65.1194 64.4133 64.7856 63.6791 64.7856 62.7761C64.7856 61.8732 65.1194 61.1389 65.5304 61.1389C65.9414 61.1389 66.2751 61.8732 66.2751 62.7761Z" fill="#231F20"/>
<path d="M71.0141 62.7761C71.0141 63.6791 70.6804 64.4133 70.2694 64.4133C69.8584 64.4133 69.5247 63.6791 69.5247 62.7761C69.5247 61.8732 69.8584 61.1389 70.2694 61.1389C70.6804 61.1389 71.0141 61.8732 71.0141 62.7761Z" fill="#231F20"/>
<path d="M50.6638 27.0141C45.3453 30.8014 42.0291 36.9673 41.8429 43.5021C41.8148 44.4577 43.3008 44.4577 43.3254 43.5021C43.494 37.5224 46.5362 31.7711 51.4121 28.2964C52.1849 27.7484 51.4437 26.459 50.6638 27.0141Z" fill="white"/>
<path d="M41.0559 49.9491C40.8206 51.4493 40.3709 52.8616 39.6648 54.2072C39.2222 55.0539 40.5044 55.8058 40.947 54.9556C41.7058 53.5011 42.2327 51.9622 42.4857 50.3426C42.6332 49.408 41.2035 49.004 41.0559 49.9491Z" fill="white"/>
<path d="M97.2765 135.832C97.6067 139.823 96.6301 143.765 94.4591 147.134C93.9392 147.939 95.2249 148.684 95.7413 147.883C98.0388 144.317 99.1137 140.059 98.7624 135.832C98.6851 134.887 97.1992 134.88 97.28 135.832H97.2765Z" fill="white"/>
<path d="M7.90463 148.772C9.46788 151.618 11.8812 153.922 14.804 155.338C15.6611 155.753 16.4129 154.474 15.5522 154.056C12.8367 152.742 10.6377 150.666 9.18333 148.024C8.72314 147.187 7.44093 147.936 7.90112 148.772H7.90463Z" fill="white"/>
<path d="M18.8544 157.576C19.7221 158.058 20.5898 158.542 21.4574 159.024C22.2935 159.487 23.0418 158.205 22.2057 157.741C21.338 157.26 20.4703 156.775 19.6026 156.294C18.7666 155.83 18.0183 157.112 18.8544 157.576Z" fill="white"/>
<path d="M103.249 214.113C103.73 214.998 103.073 216.077 102.135 216.235C101.197 216.393 101.594 217.823 102.528 217.665C104.446 217.341 105.437 215.019 104.531 213.361C104.074 212.521 102.792 213.269 103.249 214.109V214.113Z" fill="white"/>
</svg>
