<svg width="488" height="442" viewBox="0 0 488 442" fill="none" xmlns="http://www.w3.org/2000/svg">
<path d="M208.063 424.848C207.823 424.848 207.703 425.207 207.703 425.447C207.703 426.047 207.943 426.407 208.543 426.407C208.783 426.407 209.143 426.407 209.023 425.927C208.903 425.447 208.663 424.968 208.183 424.848H208.063Z" fill="#7489C3"/>
<path d="M340.292 240.131C330.813 243.13 321.094 243.25 311.255 241.93C300.695 240.491 290.736 237.252 280.897 233.294C269.498 228.616 258.219 223.579 248.26 216.142C246.46 214.823 244.42 213.863 242.5 212.544C241.54 211.944 240.94 211.944 240.34 213.023C240.1 213.503 239.86 213.863 239.5 214.223C233.621 222.739 226.661 230.296 218.502 236.653C210.343 242.89 201.344 247.808 191.744 251.646C178.185 257.043 164.147 260.522 149.508 260.642C149.148 260.642 148.668 260.642 148.548 261.122C150.468 271.677 153.227 281.992 156.827 292.188C160.307 301.783 164.507 311.019 170.506 319.295C178.305 330.09 188.385 338.487 199.784 345.324C200.264 345.683 200.744 346.403 201.583 345.923C201.583 345.683 201.583 345.324 201.583 345.084C201.344 330.81 199.904 316.656 197.024 302.743C196.784 301.903 196.664 300.944 196.664 300.104C196.664 299.624 197.024 299.264 197.504 299.024C198.104 298.905 198.584 299.024 198.824 299.504C199.184 300.344 199.544 301.184 199.784 302.023C202.423 313.298 204.223 324.693 204.583 336.328C205.183 357.798 206.023 379.148 206.143 400.618C206.143 401.338 205.903 402.178 206.503 402.897C206.863 402.897 207.103 402.778 207.343 402.658C211.423 400.379 215.502 401.698 217.542 406.256C218.142 407.695 218.622 409.135 219.342 410.814C220.662 408.415 221.742 406.136 223.662 404.337C227.021 401.338 231.341 401.578 234.101 404.937C235.061 406.136 235.781 407.335 236.261 408.775C236.741 410.094 237.101 411.534 237.581 413.093C237.941 412.613 238.181 412.253 238.3 411.893C239.86 408.655 242.14 406.256 245.14 404.337C248.38 402.298 251.139 402.538 254.019 405.057C255.819 406.616 257.019 408.655 257.979 410.934C259.899 415.492 260.739 420.41 261.459 425.207C261.699 426.767 260.979 428.926 262.299 429.885C263.618 430.845 265.538 429.765 267.218 429.405C272.978 428.446 277.777 426.167 279.217 419.69C279.577 418.251 279.697 416.811 279.697 415.252C280.177 399.899 280.417 384.426 279.457 369.073C278.257 350.361 275.377 332.01 269.138 314.258C268.898 313.658 268.658 312.938 268.658 312.218C268.658 311.619 269.018 311.259 269.498 311.019C269.978 310.779 270.578 311.019 270.818 311.379C271.298 311.979 271.538 312.698 271.898 313.538C275.377 322.774 278.017 332.249 279.577 342.085C280.897 350.481 282.217 358.877 282.577 367.394C282.577 368.953 283.297 369.433 284.857 369.673C289.656 370.272 294.456 370.272 299.375 369.673C301.895 369.313 301.895 369.553 302.615 367.034C305.615 356.239 308.975 345.443 313.414 335.128C315.334 330.45 317.374 325.892 319.414 321.334C319.774 320.615 320.254 319.775 321.094 320.135C322.174 320.495 322.174 321.334 321.814 322.294C321.094 323.973 320.494 325.772 319.654 327.452C313.294 342.445 307.775 357.798 304.175 373.631C302.495 381.067 301.295 388.504 300.695 396.18C300.695 396.9 300.095 397.86 301.415 397.98C305.015 398.459 306.695 401.098 308.255 403.977C309.335 406.016 309.815 408.295 310.655 410.694C311.255 409.734 311.734 408.895 312.334 408.055C313.894 405.656 315.694 403.497 318.214 401.938C321.934 399.659 325.413 400.139 328.293 403.497C329.733 405.056 330.573 406.976 331.173 409.015C331.533 410.094 331.653 411.294 332.013 412.493C332.853 411.773 332.973 410.814 333.453 409.974C334.293 408.535 335.013 406.976 336.212 405.776C340.892 400.978 346.772 401.938 349.651 407.935C350.971 410.574 351.571 413.573 351.931 416.451C352.651 421.609 352.531 426.887 352.291 432.404C353.731 432.164 354.931 432.044 356.131 431.924C361.53 431.205 365.49 428.446 368.01 423.648C368.97 421.849 370.05 420.17 370.77 418.49C376.169 406.616 380.249 394.261 383.249 381.667C385.528 372.431 387.448 362.956 390.208 353.84C396.568 332.489 402.567 311.019 406.767 289.069C409.646 274.076 410.846 259.202 408.687 243.969C406.887 230.895 402.327 219.261 392.608 209.785C387.448 204.867 382.049 200.309 375.689 196.951C373.769 195.871 371.73 194.912 369.57 194.552C368.97 195.991 369.21 197.191 369.09 198.27C368.85 202.588 368.13 206.906 367.05 211.104C363.57 225.858 354.451 235.693 340.052 240.251L340.292 240.131Z" fill="white"/>
<path d="M203.023 403.617C203.023 402.898 203.023 402.418 203.023 401.818C203.023 394.381 202.903 386.945 202.663 379.628C202.423 370.392 202.183 361.037 201.823 351.801C201.823 350.961 202.183 350.122 200.864 349.282C191.984 344.124 183.465 338.367 176.266 330.93C176.026 331.17 175.786 331.41 175.546 331.65C179.265 354.2 179.505 376.989 180.225 399.779C185.145 399.779 186.585 400.859 188.385 405.297C188.745 406.256 188.745 407.456 189.584 408.415C194.624 400.859 197.144 399.899 202.903 403.737L203.023 403.617Z" fill="white"/>
<path d="M236.501 83.3622C246.94 98.7152 252.099 115.987 254.019 134.339C255.099 144.894 255.219 155.45 254.739 166.005C254.019 180.278 250.66 193.832 244.06 206.546C243.22 208.106 243.7 208.705 244.9 209.545C253.539 215.542 262.299 221.54 272.018 225.618C284.257 230.775 296.496 236.053 309.815 238.092C319.294 239.532 328.773 239.771 338.012 237.133C350.131 233.654 358.891 226.337 362.85 213.983C367.53 199.47 367.17 185.196 361.171 171.162C356.971 161.567 351.811 152.571 342.332 147.053C340.292 145.854 340.292 144.295 342.092 142.735C343.892 141.056 345.812 139.497 347.732 137.937C357.091 130.261 360.931 120.066 360.331 108.311C359.611 96.3163 353.971 86.4808 344.852 78.6843C343.652 77.6048 342.452 76.6452 341.252 75.5657C339.572 73.8865 339.332 72.5671 340.532 70.528C341.372 68.9687 342.332 67.4094 343.292 65.9701C347.132 59.9728 350.251 53.6156 351.691 46.5388C354.211 35.0241 349.651 23.1494 340.052 16.3125C332.493 10.915 324.094 8.15621 314.974 7.67643C302.975 7.0767 291.096 8.51605 279.457 11.6346C268.658 14.3934 258.219 18.1117 248.74 24.2289C234.581 33.3448 222.102 44.3798 211.423 57.334C210.823 58.0536 210.103 58.6534 209.983 59.6129C212.863 61.652 215.862 63.5711 218.742 65.6102C225.702 70.528 231.701 76.2854 236.381 83.3622H236.501Z" fill="white"/>
<path d="M214.062 405.776C212.863 404.097 211.543 403.617 209.743 404.337C207.583 405.177 206.503 406.376 206.623 408.415C206.863 412.134 207.463 415.852 208.903 419.33C209.863 421.729 211.303 423.888 213.103 425.687C214.062 426.527 214.902 427.367 216.462 427.487C216.942 421.849 217.422 416.332 216.102 410.814C215.622 409.135 215.142 407.336 214.182 405.896L214.062 405.776Z" fill="white"/>
<path d="M149.268 132.78C151.188 131.94 153.108 131.1 155.147 131.1C161.627 131.1 167.026 133.739 170.866 139.017C171.586 139.976 172.066 141.056 172.786 142.016C174.586 144.295 176.746 144.055 178.066 141.416C178.905 139.737 179.145 137.817 179.145 136.138C179.145 134.819 179.145 133.739 178.785 132.66C175.906 120.785 162.227 114.188 151.068 119.466C147.108 121.265 144.708 124.503 144.108 128.702C143.508 132.42 145.668 134.099 149.148 132.66L149.268 132.78Z" fill="white"/>
<path d="M232.541 407.695C230.621 404.457 227.861 404.097 225.342 406.856C224.622 407.575 224.022 408.415 223.662 409.254C221.742 412.853 220.422 416.691 220.302 420.769C220.182 423.288 220.302 425.927 219.582 428.806C224.142 430.125 228.461 430.485 232.901 430.605C235.301 430.605 235.421 430.605 235.421 428.326C235.421 423.408 235.421 418.49 234.581 413.572C234.221 411.533 233.741 409.494 232.661 407.695H232.541Z" fill="white"/>
<path d="M255.459 412.493C254.859 410.814 254.019 409.254 252.819 407.935C250.18 405.176 248.62 405.536 246.34 407.215C242.98 409.614 240.94 412.853 239.74 416.811C238.541 420.889 238.421 424.967 238.301 429.165C238.301 430.725 238.9 430.965 240.22 430.965C242.98 430.965 245.74 430.965 248.5 430.965C248.5 430.965 248.5 430.965 248.5 430.845C251.139 430.845 253.779 430.845 256.539 430.845C258.819 430.845 258.939 430.845 258.699 428.566C258.339 423.168 257.379 417.771 255.459 412.733V412.493Z" fill="white"/>
<path d="M325.653 405.177C324.093 403.497 322.414 403.257 320.374 404.217C319.414 404.697 318.574 405.416 317.734 406.136C315.214 408.535 313.654 411.654 312.454 414.892C310.895 418.97 311.374 423.288 310.655 427.367C310.415 428.446 311.135 429.046 312.094 429.286C313.534 429.645 314.974 430.005 316.414 430.245C320.614 431.085 324.933 431.805 329.373 431.685C329.613 425.088 329.733 418.73 328.773 412.373C328.413 409.734 327.693 407.096 325.773 405.177H325.653Z" fill="white"/>
<path d="M346.772 409.015C344.732 405.056 341.612 404.577 338.492 407.695C337.052 409.134 336.093 411.054 335.373 412.973C333.213 418.49 332.733 424.248 332.733 430.125C332.733 431.564 333.333 432.044 334.653 432.044C336.812 432.044 338.972 432.044 341.132 432.044C341.132 432.044 341.132 432.164 341.132 432.284C343.052 432.284 345.092 432.284 347.012 432.284C348.572 432.284 349.051 431.804 349.171 430.365C349.531 425.327 349.411 420.289 348.572 415.252C348.212 413.093 347.732 410.934 346.772 409.015Z" fill="white"/>
<path d="M304.895 403.857C304.295 402.777 303.455 401.698 302.375 401.098C301.175 400.379 300.455 400.858 300.335 402.298C300.095 406.616 299.855 410.934 299.975 415.252C299.975 417.171 300.335 418.97 300.815 420.769C301.655 424.128 303.815 426.407 307.295 427.486C307.415 425.687 307.415 424.248 307.655 422.808C308.135 420.17 308.135 417.531 307.895 414.892C307.535 411.054 306.695 407.335 304.775 403.977L304.895 403.857Z" fill="white"/>
<path d="M400.047 355.279C399.687 348.682 399.327 342.085 399.567 335.488C398.727 335.488 398.847 336.088 398.727 336.447C395.368 347.362 392.008 358.277 389.368 369.432C386.728 380.467 384.449 391.622 380.489 402.178C380.489 402.417 380.489 402.537 380.369 402.777C380.009 403.617 380.129 404.097 381.089 404.337C383.969 405.176 385.288 407.455 386.128 409.974C386.968 412.373 387.568 414.892 387.688 417.531C387.808 420.529 388.048 423.648 388.168 426.766C390.088 426.527 391.648 425.927 393.328 425.447C397.767 424.008 400.407 421.009 401.487 416.571C402.807 411.054 402.567 405.536 402.207 400.019C401.487 385.145 400.767 370.272 400.047 355.279Z" fill="white"/>
<path d="M368.61 428.686C370.21 428.686 370.85 427.766 370.53 425.927C369.57 426.767 368.85 427.487 368.61 428.686Z" fill="#7489C3"/>
<path d="M383.369 411.414C383.009 410.214 382.649 409.015 381.689 408.055C380.129 406.376 379.049 406.616 378.329 408.655C377.249 411.654 376.289 414.892 374.609 417.651C372.809 420.769 373.289 423.888 373.649 427.126C373.769 428.086 374.249 428.446 375.209 428.326C378.329 428.086 381.569 428.086 384.568 427.366C384.568 424.488 384.568 421.849 384.568 419.21C384.568 416.571 383.969 413.932 383.249 411.294L383.369 411.414Z" fill="white"/>
<path d="M184.665 403.857C184.065 402.778 183.225 402.178 182.025 402.418C180.705 402.658 180.465 403.737 180.345 404.817C180.345 406.736 180.345 408.775 180.345 410.694C180.465 415.492 183.225 418.85 187.185 421.969C187.545 416.811 187.185 412.493 186.225 408.175C185.865 406.616 185.385 405.177 184.545 403.857H184.665Z" fill="white"/>
<path d="M65.7547 106.751C63.8349 112.389 62.635 118.266 62.155 124.263C62.515 124.143 62.755 124.143 62.875 124.024C67.4346 118.026 73.5541 115.267 80.9935 114.908C85.0732 114.788 89.0328 115.387 92.6325 117.546C97.1922 120.305 99.712 124.383 100.072 129.661C100.312 133.979 96.3522 139.017 90.7127 135.418C88.3129 133.859 85.6731 133.619 83.0333 134.219C78.5937 135.298 74.754 137.337 72.3542 141.416C71.7542 142.375 71.2743 143.215 70.5543 144.054C68.5145 146.453 66.1147 147.053 63.115 145.854C62.635 145.614 62.155 145.014 61.4351 145.734C61.4351 146.813 61.4351 148.013 61.4351 149.212C61.5551 157.488 60.2352 165.525 57.2354 173.321C55.9155 176.8 54.7156 180.398 53.8757 183.996C52.1959 190.354 51.7159 196.831 53.5157 203.308C54.3557 206.186 55.6756 208.825 57.7154 211.584C59.0353 205.707 61.5551 200.789 64.1949 195.991C66.9546 191.193 70.7943 187.235 74.754 183.277C73.9141 182.917 73.4341 182.677 73.0741 182.437C68.7545 180.158 66.7147 176.32 67.0746 171.522C67.4346 167.324 70.3144 163.606 74.874 162.406C81.1135 160.847 84.8332 163.126 86.633 168.283C87.113 169.723 87.353 171.282 87.353 173.081C88.9128 172.242 90.2327 171.522 91.6726 170.682C92.2726 170.323 92.8725 170.682 93.2325 171.042C93.5925 171.642 93.4725 172.242 92.9925 172.602C92.6325 172.961 92.2726 173.201 91.7926 173.441C87.473 176.08 83.6333 179.438 79.9136 182.677C72.1142 189.394 65.7547 197.19 62.275 207.146C59.6352 214.702 59.5153 222.139 63.4749 229.456C65.1548 232.574 66.9546 235.693 69.2345 238.452C71.2743 240.971 73.3141 243.489 75.354 246.128C78.3537 249.847 80.6335 253.925 81.9534 258.603C83.1533 262.441 83.8733 266.399 84.3532 270.477C85.3131 281.032 81.5934 289.429 72.8342 295.426C68.9945 298.065 64.7948 299.984 60.2352 301.183C55.1956 302.623 50.156 303.582 44.6365 303.702C46.7963 307.78 46.7963 311.739 45.1164 315.577C44.5165 316.896 45.1164 317.256 46.0764 317.736C47.9962 318.456 49.916 319.295 51.8359 319.895C65.2748 324.693 78.5937 325.053 91.6726 318.456C100.912 313.778 107.871 306.941 111.471 296.985C113.031 292.547 114.111 288.109 114.591 283.431C115.431 276.115 116.031 268.678 116.871 261.361C118.31 249.127 125.63 240.971 137.629 238.092C141.469 237.132 145.428 237.132 149.388 236.413C152.268 235.933 154.907 234.973 156.827 232.574C154.427 229.816 152.868 226.577 152.268 223.099C152.028 221.659 151.908 220.1 152.268 218.661C152.388 217.821 152.988 217.341 153.948 217.461C154.787 217.581 155.027 218.181 155.027 218.901C155.027 219.38 155.027 219.86 155.027 220.34C155.027 223.339 155.987 226.217 157.787 228.616C160.187 232.095 163.547 234.254 167.506 235.573C168.706 235.933 170.146 236.173 169.786 237.972C169.546 238.932 168.346 239.291 166.426 238.572C163.787 237.732 161.387 236.413 158.987 234.494C155.147 237.852 153.708 238.452 148.908 239.411C145.428 240.011 141.829 240.251 138.349 241.091C132.109 242.65 126.83 245.648 123.47 251.406C122.51 252.965 122.51 252.965 124.31 253.565C135.949 257.043 147.828 257.523 159.827 256.324C169.426 255.364 178.545 252.725 187.545 249.367C203.863 243.37 218.142 234.494 229.661 221.419C241.9 207.506 248.74 191.433 250.9 173.201C252.219 162.406 252.099 151.491 251.38 140.696C250.66 130.021 249.1 119.466 245.62 109.39C240.7 94.6368 233.501 81.3228 221.262 71.2474C215.982 66.9293 210.583 62.8512 204.343 59.9725C198.224 57.2137 191.864 55.0547 185.385 53.2555C177.586 51.2165 169.546 50.1369 161.507 49.5372C153.828 49.0574 146.268 49.1774 138.709 50.3768C124.43 52.7758 111.111 57.5736 98.872 65.49C83.3933 75.5654 71.7542 88.8794 65.5148 106.511L65.7547 106.751ZM169.186 177.639C168.706 177.999 168.226 178.239 167.626 178.479C163.307 180.398 159.707 183.277 156.707 186.875C155.267 188.674 154.427 188.914 153.588 188.075C152.508 186.755 153.588 185.916 154.307 185.076C154.547 184.716 154.907 184.356 155.507 183.637C151.188 183.517 147.828 182.077 145.668 178.599C144.108 176.2 143.508 173.561 144.108 170.682C145.428 164.685 150.708 161.087 156.947 162.046C163.067 163.006 166.187 168.523 165.227 176.56C166.426 176.32 167.386 175.48 168.466 175.6C169.066 175.6 169.426 175.96 169.666 176.44C169.906 176.92 169.666 177.399 169.306 177.759L169.186 177.639ZM141.109 129.541C141.469 124.143 144.108 119.945 148.908 117.427C159.347 111.789 177.946 115.028 182.025 132.54C182.265 133.619 182.265 134.939 182.385 136.018C182.385 138.297 182.025 140.576 181.065 142.615C178.785 147.413 173.626 148.013 170.386 143.815C169.666 142.855 169.186 141.775 168.466 140.816C165.107 136.258 160.667 134.099 155.027 133.979C153.468 133.979 151.908 134.339 150.588 135.298C148.548 136.618 146.388 137.218 144.228 135.778C141.948 134.339 140.989 132.06 141.109 129.421V129.541Z" fill="white"/>
<path d="M68.1543 142.135C68.8743 141.176 69.4742 140.096 70.0742 139.137C73.9139 133.739 79.3134 131.1 86.0329 131.1C88.4327 131.1 90.5925 132.3 92.7523 133.019C94.9122 133.739 96.232 133.019 96.712 130.98C96.952 129.781 96.832 128.581 96.592 127.502C95.3921 123.544 92.9923 120.785 89.1526 119.226C86.7528 118.266 84.233 117.906 82.0732 117.906C71.7541 117.906 64.4346 123.544 62.1548 132.54C61.4349 135.658 61.5549 138.657 62.8748 141.536C64.0747 144.054 66.2345 144.294 68.0344 142.135H68.1543Z" fill="white"/>
<path d="M452.123 272.757C457.043 270.358 461.362 267.959 464.962 264.6C471.321 258.843 475.041 251.526 477.681 243.61C480.201 235.933 480.441 228.137 478.281 220.34C477.441 217.342 476.121 214.583 473.601 212.664C471.921 211.224 470.841 211.584 470.122 213.623C469.762 214.583 469.762 215.542 469.402 216.502C468.802 217.821 467.602 218.061 466.642 216.862C466.402 216.502 466.162 216.022 465.922 215.542C464.482 212.064 461.482 210.265 458.243 209.065C455.723 208.106 453.803 209.065 452.843 211.584C452.123 213.263 452.363 215.063 452.363 216.862C452.363 219.141 451.643 219.741 449.603 219.021C446.723 218.061 445.884 218.421 444.444 221.06C442.764 224.179 442.404 227.657 443.004 231.135C443.964 236.293 446.243 241.091 448.163 245.889C451.643 254.405 454.043 263.041 452.003 272.877L452.123 272.757Z" fill="white"/>
<path d="M21.9581 139.017C23.158 139.736 24.238 140.456 25.4379 141.296C26.9977 142.375 27.2377 143.815 26.7577 145.494C26.5178 146.453 26.0378 147.293 25.5578 148.133C23.278 152.451 20.9982 156.649 18.7184 160.967C16.4386 165.405 14.6387 169.963 13.4388 174.761C12.119 180.398 11.519 186.035 13.1989 191.793C16.0786 201.748 25.9178 208.945 35.877 208.225C40.4366 207.866 44.7563 206.666 49.0759 205.227C50.2758 204.867 50.5158 204.387 50.1558 203.068C48.716 196.951 48.9559 190.953 50.3958 184.836C51.3557 180.998 52.4356 177.159 53.7555 173.561C56.9953 165.165 58.4352 156.529 58.1952 147.533C58.1952 142.615 58.1952 137.697 58.1952 132.66C58.4352 125.583 59.0351 118.506 60.835 111.549C65.2746 94.9966 74.2739 81.4427 87.3528 70.4077C95.3921 63.6908 104.391 58.773 113.751 54.335C113.751 53.3754 113.151 52.7757 112.671 52.176C100.912 34.544 85.4329 21.3499 65.7546 13.1936C55.9154 9.11547 45.7162 7.07639 35.1571 8.99553C21.4782 11.5144 14.3988 20.7502 12.8389 31.7852C11.639 40.0615 13.3189 47.8579 16.1986 55.5345C18.1185 60.8121 20.8782 65.7299 23.998 70.4077C25.6778 73.0465 25.5578 74.0061 23.398 76.0452C16.7986 82.5223 11.879 90.0788 8.27927 98.475C5.15952 105.672 4.31959 113.108 7.19936 120.665C10.0791 128.342 14.7587 134.459 21.7182 138.777L21.9581 139.017Z" fill="white"/>
<path d="M42.1165 314.258C44.1564 310.18 43.7964 307.181 41.1566 304.662C40.0767 307.901 40.3167 311.019 42.1165 314.258Z" fill="white"/>
<path d="M200.744 406.376C199.184 403.977 197.504 403.737 195.464 405.776C193.304 407.935 191.984 410.574 191.264 413.453C190.544 416.212 190.664 418.97 190.664 421.609C190.664 423.888 190.664 424.008 192.944 424.488C196.784 425.327 200.624 425.927 204.943 425.807C204.703 419.57 203.743 413.693 201.704 407.935C201.464 407.336 201.224 406.856 200.864 406.376H200.744Z" fill="white"/>
<path d="M176.385 330.93C176.385 330.45 175.786 329.851 175.546 329.971C174.826 330.21 175.306 330.93 175.546 331.41C175.546 331.41 175.666 331.53 175.785 331.65C175.666 331.05 175.905 330.81 176.505 330.93H176.385Z" fill="#7489C3"/>
<path d="M481.161 219.86C480.321 216.502 478.761 213.383 476.241 210.864C472.881 207.506 470.242 207.506 467.002 211.224C464.842 209.065 462.442 207.146 459.562 206.067C454.283 204.028 449.963 206.546 449.123 212.064C449.003 213.023 448.883 213.983 448.763 215.063C443.964 214.583 441.924 217.701 440.364 221.42C440.004 222.259 439.884 223.099 439.644 223.939C438.684 227.897 439.404 231.735 440.604 235.573C442.164 240.371 444.204 244.929 446.123 249.607C448.523 255.724 449.723 262.081 449.243 268.678C448.883 274.556 446.723 279.114 441.924 282.472C440.004 283.911 437.964 285.111 435.684 285.831C427.525 288.469 419.966 287.75 413.366 281.632C412.046 280.313 411.326 278.994 411.686 276.954C413.486 265.8 413.126 254.525 411.686 243.25C409.766 227.897 403.767 214.703 392.008 204.267C385.888 198.87 379.529 193.952 371.49 191.553C369.45 190.953 368.85 189.994 368.61 187.955C367.41 176.32 363.09 165.765 356.611 156.169C353.851 152.091 350.611 148.373 346.412 145.494C345.812 145.134 344.972 144.894 344.612 143.935C346.052 142.735 347.612 141.416 349.171 140.216C359.851 131.58 364.17 120.185 363.21 106.991C362.25 94.2772 356.251 83.7219 346.292 75.4457C341.732 71.6074 342.092 72.9268 345.092 68.129C348.811 62.1317 352.051 56.0145 353.971 49.1776C358.171 34.3043 351.691 19.3111 339.692 11.7545C331.173 6.35694 321.934 3.95803 311.974 3.59819C301.175 3.3583 290.496 4.79765 280.057 7.31651C269.378 9.95531 258.819 13.3138 249.34 19.1911C233.501 28.9067 219.702 40.7814 208.303 55.5347C206.863 57.4538 206.863 57.4538 204.583 56.4943C190.064 49.8972 174.826 46.4188 158.867 45.6991C145.668 45.0994 132.949 47.0185 120.47 51.2166C116.151 52.656 117.35 53.0158 114.831 49.1776C102.112 30.3461 85.553 16.5523 64.1948 8.51597C54.3556 4.79765 44.1564 3.23835 33.7173 5.27743C21.7183 7.67635 13.6789 14.7531 10.4392 26.6278C8.63933 33.3447 8.9993 40.1816 10.4392 46.8986C12.359 55.4147 15.7187 63.4511 20.6383 70.6479C21.3583 71.7274 21.5983 72.447 20.3984 73.5266C13.7989 80.2435 8.75932 87.92 5.03962 96.5561C2.27985 103.033 1.19994 109.87 2.75981 116.827C5.03962 126.782 10.4392 134.699 19.0785 140.336C20.1584 141.056 21.2383 141.776 22.3182 142.375C23.1581 142.855 23.2781 143.455 22.9182 144.295C22.5582 145.014 22.1982 145.734 21.8382 146.334C18.7185 152.091 15.3588 157.609 12.959 163.726C9.71924 171.642 7.67941 179.798 8.9993 188.555C10.6792 200.189 22.3182 211.224 35.2771 210.385C39.4768 210.145 43.4365 209.305 47.3961 208.106C48.716 207.746 50.0359 206.906 51.4758 207.026C53.0357 209.545 54.3556 211.944 55.9154 214.223C56.5154 215.182 56.8754 216.022 56.8754 217.222C56.7554 221.3 57.8353 225.018 59.5152 228.616C61.315 232.335 63.2349 235.813 65.8746 238.932C68.0345 241.571 70.0743 244.209 72.1141 246.848C78.8336 255.124 81.1134 264.72 80.7534 275.035C80.6334 280.073 78.7136 284.391 75.1139 288.109C71.8741 291.468 68.1544 293.867 63.8348 295.666C56.8754 298.545 49.556 300.104 41.8766 299.864C40.0767 299.864 39.1168 300.464 38.3969 301.903C37.9169 302.983 37.557 304.062 37.317 305.262C36.957 308.74 37.317 312.099 39.1168 315.337C40.1967 317.376 41.5166 318.816 43.6765 319.655C47.0362 320.975 50.3959 322.294 53.9956 323.374C65.0347 326.612 76.0738 327.092 87.1129 323.014C102.352 317.376 112.311 306.821 115.911 290.748C117.35 284.391 117.83 277.914 118.55 271.437C119.03 266.639 119.15 261.721 120.35 257.044C120.59 255.844 120.95 255.484 122.39 255.844C126.47 257.163 130.789 258.243 135.109 258.603C137.989 258.963 140.868 259.203 143.628 259.322C144.828 259.322 145.428 259.802 145.548 261.002C145.548 261.601 145.788 262.201 145.908 262.801C147.468 272.636 149.988 282.232 153.347 291.708C157.307 302.983 162.227 313.658 169.786 323.014C170.626 324.093 170.986 325.293 171.346 326.492C172.186 329.851 172.906 333.209 173.266 336.688C175.066 351.201 175.666 365.834 176.266 380.468C176.746 390.183 176.626 399.779 176.746 409.495C176.746 413.693 178.305 417.171 180.945 420.29C184.545 424.488 189.105 426.647 194.504 427.366C199.664 428.086 204.943 428.566 210.103 428.566C210.943 428.566 211.783 428.566 212.623 429.046C216.342 431.565 220.782 432.164 224.982 432.524C233.981 433.244 242.98 433.604 251.979 433.244C258.219 433.004 264.338 432.644 270.458 430.965C276.697 429.286 280.537 425.567 281.857 419.09C283.177 412.613 283.537 405.896 283.297 399.299C282.937 390.663 282.817 381.907 282.577 373.271C282.577 372.671 282.217 371.832 283.057 371.232C288.816 372.191 294.696 372.311 300.695 371.472C298.776 380.708 297.336 389.464 296.736 398.46C296.376 404.577 295.896 410.694 296.496 416.811C296.976 423.048 299.855 427.486 306.095 429.765C311.854 431.924 317.854 433.244 323.973 433.604C333.093 434.323 342.092 434.323 351.211 434.203C355.051 434.203 358.651 433.484 362.13 431.924C363.93 431.205 365.73 430.725 367.53 430.725C372.09 430.725 376.649 430.365 381.089 430.005C385.768 429.645 390.208 428.686 394.648 427.007C399.567 425.087 402.567 421.609 403.887 416.571C404.967 412.133 405.327 407.575 404.967 403.017C404.367 394.022 404.127 385.026 403.647 376.03C402.807 358.997 401.847 341.845 401.847 324.813C401.847 323.134 401.967 321.454 402.447 319.895C404.607 311.739 406.527 303.463 408.087 295.066C408.807 291.108 409.646 287.03 410.486 282.832C411.806 283.911 412.886 284.871 413.966 285.591C415.046 286.31 416.246 287.03 417.566 287.63C428.605 292.667 442.764 288.349 449.603 277.674C451.043 275.515 452.723 274.076 455.003 272.996C460.042 270.597 464.722 267.719 468.562 263.641C474.801 257.044 478.641 249.007 480.921 240.371C482.84 233.294 482.72 226.098 480.921 219.021L481.161 219.86ZM41.8766 314.018C39.8368 310.779 40.1967 307.781 40.5567 304.302C43.1965 306.821 43.5565 309.7 41.8766 314.018ZM213.103 54.935C219.102 47.3784 226.061 40.9013 233.501 34.7841C243.22 26.8677 253.539 19.7909 265.538 15.5928C276.097 11.8744 286.777 9.11569 297.936 8.03618C303.815 7.43645 309.815 7.19656 315.694 7.67635C320.134 8.03618 324.693 8.51597 328.893 10.555C341.252 14.8731 349.651 22.7895 351.811 36.2234C352.531 40.9013 351.811 45.4593 350.491 50.0172C348.811 55.8945 345.932 61.1721 342.692 66.2099C341.852 67.5293 341.012 68.8487 340.292 70.288C338.972 72.6869 339.092 73.8864 341.132 75.8055C342.332 77.005 343.652 77.9645 344.972 79.0441C354.451 87.5602 360.211 97.9955 360.091 110.95C360.091 122.225 355.651 131.82 346.412 138.897C344.852 140.096 343.292 141.296 341.852 142.735C340.052 144.534 340.172 145.854 342.212 147.293C343.172 148.013 344.252 148.613 345.212 149.212C347.612 150.892 349.771 153.051 351.571 155.33C359.851 166.125 365.01 178.239 365.73 192.033C366.21 200.789 364.77 209.425 361.29 217.461C356.851 227.897 348.571 234.014 337.892 237.133C335.373 237.852 332.733 238.572 330.093 238.452C329.133 239.172 328.053 238.932 326.973 239.052C312.694 239.891 299.135 236.893 286.057 231.615C279.937 229.216 273.938 226.577 267.818 223.939C264.338 222.499 261.099 220.7 258.099 218.421C253.299 215.902 248.86 212.664 244.42 209.545C243.1 208.585 243.1 207.746 243.82 206.426C248.38 197.55 251.499 188.315 253.059 178.479C253.779 174.281 254.139 170.083 254.259 165.765C255.219 147.413 254.379 129.301 249.22 111.549C245.5 98.7152 239.74 86.8405 230.981 76.7651C225.582 70.5279 218.862 65.7301 212.023 61.2921C211.303 60.8123 210.703 60.4525 209.983 60.0926C209.863 60.0926 209.743 59.8527 209.503 59.6128C210.463 58.0536 211.663 56.6142 212.983 55.2948L213.103 54.935ZM49.676 202.348C50.1559 204.387 50.1559 204.387 48.1161 204.987C46.6762 205.467 45.3563 206.187 43.9164 206.067C42.3566 206.786 40.7967 207.146 39.1168 207.266C25.6779 210.864 11.7591 199.11 11.7591 184.956C11.7591 176.8 13.9189 169.243 17.6386 161.927C19.9184 157.369 22.4382 152.811 24.838 148.373C25.198 147.533 25.6779 146.813 26.0379 145.974C27.1178 143.455 26.7578 142.255 24.598 140.696C23.2781 139.737 21.9582 139.017 20.6383 138.057C12.479 132.54 7.43943 124.863 5.75956 115.148C4.67965 109.39 5.75956 103.633 8.15937 98.3553C11.8791 89.9591 16.6787 82.4025 23.2781 75.9255C25.5579 73.6465 25.6779 72.9268 23.8781 70.0481C20.2784 64.5306 17.2786 58.8932 15.2388 52.656C12.719 45.0994 11.6391 37.3029 13.199 29.3865C15.5988 17.6318 24.838 9.71542 36.717 8.63591C40.6767 7.5564 44.7564 7.91624 48.716 8.39602C65.9946 10.7949 80.5134 18.9512 93.5924 30.1062C98.9919 34.7841 103.912 39.9417 108.231 45.5792C108.831 46.4188 109.671 47.1385 110.031 48.3379C111.591 50.0172 112.791 51.8164 113.751 53.9754C108.111 56.7341 102.472 59.253 97.312 62.7314C87.2329 69.2085 78.3536 77.1249 71.7542 87.0804C64.5547 97.8755 59.9951 109.75 58.7952 122.824C58.1953 129.781 58.1953 136.858 58.1953 143.815C58.1953 150.412 58.1953 157.009 56.6354 163.486C55.6755 167.684 54.1156 171.642 52.7957 175.6C51.2358 180.038 50.0359 184.596 49.316 189.394C48.596 193.712 48.956 198.03 49.9159 202.348H49.676ZM89.0327 131.34C80.3934 129.781 73.674 132.78 68.8744 140.216C68.5144 140.696 68.2744 141.176 67.9145 141.656C65.9946 144.055 63.7148 143.695 62.3949 140.936C61.555 138.897 61.195 136.738 61.435 134.579C62.2749 128.822 64.6747 123.904 70.0743 120.905C76.3138 116.947 82.7932 116.587 89.5127 119.346C93.5924 121.025 95.6322 124.384 96.4721 128.582C96.7121 129.661 96.4721 130.741 95.8722 131.7C95.0322 133.14 94.3123 133.499 92.7524 133.02C91.4325 132.54 90.2326 131.94 88.9127 131.46L89.0327 131.34ZM123.95 253.565C123.11 253.325 123.11 253.325 122.75 252.366C123.59 250.207 125.03 248.407 126.83 246.968C130.669 242.89 135.829 241.451 141.108 240.491C145.308 239.771 149.748 239.531 153.827 238.092C155.387 236.893 156.947 235.093 158.627 234.854C160.067 234.734 161.747 236.533 163.427 237.372C164.747 238.092 166.066 238.572 167.626 238.812C168.466 238.812 169.306 238.812 169.546 237.852C169.906 236.773 169.186 236.173 168.346 235.813C167.626 235.573 166.786 235.333 166.066 235.093C161.507 233.294 158.027 230.296 155.987 225.738C155.387 224.298 154.907 222.739 154.907 221.18C154.907 220.58 154.907 219.98 154.907 219.381C154.907 218.301 154.787 217.341 153.347 217.341C151.908 217.341 151.908 218.541 151.908 219.501C151.788 222.019 152.148 224.418 153.107 226.697C153.947 228.856 155.267 230.655 156.707 232.575C154.787 234.973 152.148 235.933 149.268 236.413C145.308 237.133 141.228 237.133 137.269 238.212C136.309 238.452 135.349 238.572 134.389 238.812C133.909 239.531 132.949 239.531 132.229 239.771C123.59 243.49 118.67 250.087 116.99 259.083C116.031 264.48 115.911 270.118 115.311 275.515C114.471 282.592 113.751 289.669 111.351 296.386C107.751 306.461 101.032 313.418 91.5525 318.216C79.0736 324.573 66.2346 324.693 53.1557 320.255C50.3959 319.295 47.7561 318.216 45.1163 317.256C44.8764 317.256 44.6364 316.896 44.2764 316.657C45.4763 313.778 46.1962 310.659 45.8363 307.541C45.3563 306.341 44.9963 305.022 44.5164 303.582C47.5161 303.343 50.1559 303.103 52.9157 302.743C55.5555 302.023 58.1953 301.423 60.835 300.584C63.3548 299.744 65.7546 298.665 68.2744 297.705C70.7942 296.026 73.434 294.467 75.7138 292.428C81.5933 287.27 84.2331 280.673 83.9931 272.996C83.6332 262.321 80.7534 252.486 73.554 244.089C69.9543 239.891 66.4746 235.453 63.5948 230.416C58.4352 221.3 58.9152 212.184 63.5948 203.068C63.5948 202.348 64.0748 201.749 64.5547 201.269C65.5147 198.63 66.9545 196.111 68.7544 193.952C70.1943 191.793 71.6342 189.874 73.554 188.315C75.3539 186.156 77.3937 184.236 79.5535 182.557C83.0332 179.199 86.8729 176.2 90.9526 173.561C91.5525 173.201 92.1525 172.842 92.6324 172.362C93.1124 171.882 93.2324 171.282 92.8724 170.803C92.5125 170.323 92.0325 169.963 91.3125 170.323C89.9927 171.042 88.5528 171.762 86.9929 172.602C86.7529 170.922 86.7529 169.363 86.273 167.804C84.5931 163.246 82.0733 161.327 77.1537 161.447C76.3138 161.447 75.5938 161.447 74.7539 161.567C74.3939 161.807 74.154 161.927 73.794 162.166C69.2344 163.846 66.8346 167.324 66.7146 172.002C66.5946 176.32 68.6344 179.679 72.5941 181.838C73.074 182.077 73.674 182.317 74.3939 182.677C72.1141 185.196 69.8343 187.595 67.5545 189.994C62.8749 196.351 59.3952 203.188 57.3553 210.984C55.1955 208.346 53.7556 205.347 52.9157 202.108C51.5958 196.831 51.5958 191.553 52.9157 186.276C53.9956 181.718 55.1955 177.16 57.1153 172.842C58.0753 169.123 59.5152 165.525 60.1151 161.687C60.835 157.249 61.195 152.931 61.195 148.493C61.195 147.293 61.075 146.094 61.435 144.774C64.5547 146.693 67.4345 146.334 70.0743 143.935C70.9142 142.615 71.6342 141.176 72.5941 139.976C75.9538 135.538 80.5134 133.26 86.153 133.499C87.5929 133.499 88.9127 133.859 90.1126 134.699C92.2725 136.018 94.4323 136.858 96.7121 135.299C99.2319 133.619 100.192 130.981 99.7119 128.102C98.6319 122.225 95.5122 118.026 89.7527 115.867C84.4731 113.828 79.0736 114.188 73.794 115.508C73.194 115.628 72.7141 115.867 72.1141 115.987C68.3944 118.026 64.7947 120.065 62.5149 123.904C61.675 123.424 61.915 122.824 62.035 122.344C64.0748 105.792 70.4343 91.2785 82.1933 79.2839C84.8331 76.6451 87.2329 73.7664 90.4726 71.7274C92.3925 69.6883 94.7923 68.009 97.1921 66.4498C109.071 58.6533 122.03 53.4956 135.949 50.7369C136.189 50.7369 136.549 50.7369 136.789 50.7369C143.628 49.1776 150.708 48.6978 157.667 49.0576C164.507 49.4175 171.226 49.8972 177.945 51.2166C187.185 53.0158 196.304 55.6546 204.583 59.8527C220.062 67.7692 232.301 79.2839 239.98 95.2367C245.86 107.351 249.34 120.065 250.659 133.499C252.099 146.933 252.219 160.367 250.659 173.681C248.62 190.594 242.5 205.587 231.581 218.781C219.702 233.174 204.703 243.01 187.305 249.247C178.305 252.486 169.066 255.124 159.587 256.084C147.588 257.283 135.709 256.804 124.07 253.325L123.95 253.565ZM186.825 421.729C182.865 418.73 180.465 415.492 180.105 410.934C179.865 408.895 179.865 406.856 179.985 404.817C179.985 403.737 180.225 402.538 181.545 402.298C182.865 401.938 183.825 402.658 184.425 403.737C184.905 404.697 185.385 405.656 185.745 406.736C187.065 411.534 187.425 416.331 186.945 421.729H186.825ZM188.145 405.416C186.465 400.619 185.025 399.539 179.985 399.419C179.625 398.939 179.745 398.46 179.745 397.98C179.745 383.226 178.905 368.593 177.825 353.84C177.345 346.043 176.746 338.247 174.946 330.69C174.586 330.33 174.106 329.731 174.706 329.371C175.066 329.131 175.546 329.611 175.546 330.09C181.425 336.927 188.865 341.725 196.304 346.643C197.984 347.722 200.264 348.322 201.104 349.762C201.943 351.441 201.583 353.84 201.583 355.879C201.943 370.992 202.183 386.105 202.543 401.218C202.543 401.818 202.783 402.538 202.423 403.137C196.304 399.779 194.864 400.259 189.105 408.055C188.745 407.096 188.505 406.256 188.145 405.416ZM191.624 424.008C190.544 423.768 190.064 423.288 190.064 422.089C190.184 418.85 190.064 415.612 191.024 412.493C191.864 409.854 193.184 407.336 195.224 405.416C197.024 403.737 198.704 403.857 200.144 405.896C200.744 406.856 201.344 407.935 201.703 409.135C203.263 414.412 204.463 419.81 204.343 425.687C199.784 425.687 195.704 425.207 191.624 424.128V424.008ZM208.183 426.047C207.703 426.047 207.463 425.687 207.463 425.327C207.463 425.087 207.463 424.608 207.703 424.608C208.303 424.608 208.423 425.087 208.663 425.447C208.903 425.927 208.423 425.927 208.183 425.927V426.047ZM216.582 420.65C216.462 422.809 216.462 424.968 215.862 427.127C213.822 426.887 212.623 425.447 211.423 424.008C208.423 420.29 207.103 415.852 206.503 411.294C206.503 410.454 206.383 409.734 206.263 408.895C206.023 406.376 206.863 404.817 209.383 403.977C211.303 403.257 212.983 403.977 214.182 406.256C215.742 409.375 216.222 412.733 216.582 416.211C216.702 417.651 216.582 419.21 216.582 420.65ZM234.941 428.926C234.941 429.885 234.461 430.245 233.501 430.245C229.181 430.245 224.862 429.765 220.662 428.806C219.582 428.566 219.222 428.086 219.462 426.767C219.822 424.848 219.582 422.809 219.702 420.889C220.062 416.331 221.142 412.013 223.782 408.175C224.862 406.136 226.301 404.457 228.701 404.697C231.221 404.937 232.301 406.976 233.021 409.015C233.861 411.414 234.581 413.813 234.461 416.451C235.301 420.53 235.061 424.728 235.061 428.806L234.941 428.926ZM257.139 430.245C251.259 430.245 245.38 430.245 239.5 430.365C238.54 430.365 237.94 430.125 238.06 429.046C238.18 425.447 237.941 421.729 239.14 418.251C239.86 413.213 242.26 409.255 246.58 406.376C248.74 404.937 250.18 405.177 252.099 406.856C252.939 407.695 253.659 408.655 254.139 409.734C256.059 413.693 257.379 417.891 257.619 422.329C258.339 424.368 258.219 426.527 258.579 428.686C258.699 429.765 258.099 430.005 257.139 430.005V430.245ZM307.775 419.09C307.775 421.729 307.295 424.368 306.935 427.127C303.815 426.287 301.775 424.488 300.815 421.609C300.215 419.93 299.735 418.251 299.735 416.451C299.615 411.774 299.735 407.216 299.855 402.538C299.855 401.818 299.735 400.978 300.455 400.738C301.295 400.379 302.015 400.738 302.615 401.338C303.935 402.418 304.775 403.857 305.495 405.416C307.415 409.854 308.015 414.532 307.775 419.33V419.09ZM329.133 427.726C329.133 428.926 329.013 430.125 328.893 431.445C324.573 431.565 320.254 430.845 316.054 430.005C314.614 429.765 313.174 429.406 311.734 429.046C310.895 428.806 310.175 428.446 310.295 427.486C310.895 422.329 310.295 417.051 313.174 412.253C314.254 409.135 316.294 406.496 318.934 404.577C321.814 402.538 324.213 403.017 326.253 405.896C327.933 408.415 328.293 411.414 328.653 414.412C328.773 415.852 328.773 417.411 328.773 418.85C329.493 421.729 329.133 424.728 329.133 427.726ZM348.811 423.168C348.811 425.447 348.811 427.726 348.811 430.005C348.811 431.325 348.331 432.044 346.892 432.044C342.572 432.044 338.252 432.044 333.813 431.804C332.853 431.804 332.133 431.565 332.133 430.365C332.133 427.606 331.893 424.848 332.733 422.089C332.973 417.531 334.293 413.213 336.572 409.255C337.292 408.055 338.252 407.096 339.452 406.376C341.852 404.937 343.892 405.296 345.572 407.695C346.292 408.655 346.772 409.734 347.012 410.934C348.211 415.012 348.931 419.21 348.691 423.408L348.811 423.168ZM370.53 428.086C370.05 428.806 369.09 428.446 368.01 428.326C368.73 427.247 369.33 426.527 370.05 425.447C370.65 426.407 371.13 427.247 370.65 428.086H370.53ZM379.409 427.846C377.849 427.846 376.289 427.966 374.729 428.086C373.769 428.086 373.409 427.726 373.169 426.767C372.689 423.288 372.569 420.05 374.369 416.811C375.809 414.172 376.649 411.174 377.849 408.415C378.569 406.496 379.529 406.256 381.089 407.815C382.049 408.775 382.529 409.974 382.889 411.174C383.249 412.373 383.609 413.693 383.849 414.892C384.209 417.411 384.329 419.93 384.569 422.569C384.569 426.007 382.889 427.846 379.529 428.086L379.409 427.846ZM401.967 404.697C402.087 408.415 401.847 412.133 401.007 415.852C400.047 420.53 397.287 423.648 392.848 425.087C391.168 425.687 389.488 426.167 387.328 426.527C387.328 424.368 387.328 422.329 387.328 420.29C387.328 416.571 386.728 412.973 385.528 409.495C384.688 406.976 383.369 404.817 380.609 403.977C379.289 403.617 379.649 402.778 379.889 401.938C380.849 399.299 381.689 396.78 382.529 394.141C385.048 386.345 386.608 378.309 388.528 370.272C391.288 358.638 394.888 347.243 398.247 335.848C398.247 335.488 398.607 335.128 398.967 334.289C399.327 358.038 400.887 381.307 401.967 404.577V404.697ZM406.887 287.03C402.447 310.779 395.848 333.809 389.008 356.838C386.488 365.235 384.928 373.871 382.769 382.387C379.649 394.621 375.809 406.616 370.41 418.131C369.69 419.69 368.85 421.129 368.13 422.569C365.13 428.566 360.211 431.445 353.611 431.684C352.771 432.044 351.811 432.644 351.931 430.965C352.291 426.767 351.931 422.569 351.931 418.49C351.571 415.492 351.091 412.493 350.131 409.495C349.411 407.455 348.571 405.656 347.012 404.217C344.732 402.178 341.852 401.698 339.092 403.017C336.812 404.097 335.253 405.656 334.053 407.815C333.333 409.135 332.733 410.454 332.013 411.654C331.053 411.414 331.293 410.574 331.173 409.974C330.693 407.815 329.973 405.776 328.773 403.977C325.773 399.779 321.574 398.939 317.254 401.938C314.854 403.617 313.174 405.896 311.495 408.295C311.375 409.015 311.015 409.495 310.295 410.214C309.695 408.415 309.215 406.856 308.615 405.296C307.775 403.017 306.575 400.858 304.535 399.179C303.815 398.579 303.095 397.98 302.255 397.98C300.455 397.86 300.095 397.02 300.335 395.341C301.535 384.546 303.335 373.871 306.335 363.435C306.335 363.195 306.575 362.956 306.815 362.716C308.375 355.999 310.655 349.522 313.054 343.045C315.454 336.568 317.974 330.21 320.734 323.853C321.094 323.014 321.574 322.054 321.574 321.095C321.574 320.375 321.214 319.895 320.614 319.775C320.134 319.655 319.654 319.895 319.414 320.375C319.054 320.975 318.814 321.574 318.574 322.294C315.814 328.771 313.054 335.128 310.295 341.605C307.415 350.241 304.415 358.997 302.015 367.873C301.775 368.953 301.295 369.433 300.095 369.553C294.816 370.032 289.416 370.272 284.137 369.553C283.177 369.433 282.457 369.313 282.457 368.113C281.977 360.077 280.657 352.041 279.697 344.004C278.017 334.049 275.617 324.213 272.018 314.617C271.658 313.778 271.418 312.938 271.058 312.099C270.458 310.899 269.498 310.659 268.418 311.499C268.178 312.578 268.658 313.418 269.018 314.378C273.458 326.852 276.097 339.806 277.777 352.88C280.297 371.712 280.177 390.663 279.577 409.614C279.577 411.654 279.577 413.813 279.577 415.852C279.577 418.49 278.737 420.889 277.657 423.288C276.577 425.567 274.777 427.007 272.378 427.726C269.498 429.286 266.258 429.406 263.138 430.005C262.179 430.125 261.819 429.765 261.699 428.686C261.579 426.527 261.339 424.368 261.099 422.329C260.139 419.45 259.899 416.331 258.819 413.453C257.859 410.934 256.899 408.415 255.219 406.376C251.859 402.298 248.14 401.818 243.82 404.937C241.06 406.976 239.02 409.495 237.581 412.613C236.501 412.253 236.861 411.414 236.621 410.814C236.021 409.015 235.421 407.216 234.461 405.656C231.581 401.338 226.781 400.858 223.062 404.337C222.462 404.937 221.862 405.656 221.262 406.256C220.542 407.575 219.822 408.775 219.222 410.094C218.142 409.854 218.502 409.015 218.262 408.415C217.662 406.856 217.062 405.296 216.102 403.977C214.302 401.698 211.903 400.738 209.023 401.578C208.063 401.818 207.223 402.298 206.263 402.658C205.663 402.178 205.903 401.578 205.903 401.098C205.663 378.668 204.943 356.239 204.223 333.689C204.223 332.969 204.223 332.369 204.223 331.65C203.263 322.294 202.063 312.818 199.904 303.582C199.544 302.263 199.184 300.944 198.824 299.624C198.584 299.025 198.104 298.785 197.384 298.905C196.784 299.025 196.304 299.504 196.424 300.224C196.424 300.944 196.664 301.543 196.784 302.263C198.224 309.58 199.544 317.016 200.024 324.453C200.744 327.692 200.744 330.93 200.984 334.169C201.224 337.647 201.224 341.125 201.344 344.484C201.344 344.964 201.463 345.444 200.984 345.803C200.744 345.803 200.504 345.803 200.384 345.803C182.145 335.128 168.106 320.615 159.827 300.944C154.667 288.469 150.828 275.635 148.308 262.441C148.308 261.961 148.308 261.482 148.188 260.762C151.068 260.282 154.067 260.402 156.947 260.162C167.146 259.322 176.986 256.804 186.585 253.445C197.744 249.487 208.183 244.209 217.662 237.133C220.182 235.213 222.462 233.174 224.982 231.135C229.421 226.577 233.741 221.899 237.581 216.862C238.42 215.542 239.38 214.223 240.22 212.904C240.82 211.944 241.3 212.064 242.14 212.544C244.66 214.103 247.3 215.542 249.58 217.341C257.259 222.859 265.538 227.177 274.178 230.775C282.937 234.374 291.576 238.092 300.935 240.251C310.895 242.53 320.974 243.61 331.173 242.29C342.212 240.851 351.811 236.533 359.131 227.777C359.251 227.657 359.491 227.537 359.611 227.417C365.97 218.661 368.13 208.585 368.97 198.03C368.97 197.55 368.97 197.071 369.09 196.591C369.09 196.231 369.09 195.751 369.09 195.391C369.09 195.032 368.73 194.312 369.69 194.792C373.049 195.391 375.929 197.191 378.809 198.87C386.608 203.788 393.328 209.905 398.727 217.222C403.527 223.699 406.167 231.135 407.607 238.932C410.726 255.124 409.886 271.317 406.887 287.51V287.03ZM478.161 240.611C475.401 250.566 470.841 259.562 462.562 266.159C459.682 268.438 456.443 270.118 453.203 271.917C452.123 272.517 451.763 272.037 452.123 270.957C452.123 268.438 452.363 265.8 452.243 263.281C452.123 258.003 450.563 252.965 448.643 248.048C446.843 243.49 444.804 238.932 443.364 234.254C442.164 230.416 441.804 226.577 443.124 222.619C443.604 221.3 444.204 219.98 445.164 219.021C445.883 218.301 446.843 217.461 447.923 218.541C448.043 218.541 448.283 218.541 448.403 218.541C449.003 218.541 449.363 218.541 449.723 219.021C451.283 219.021 452.003 218.301 452.003 216.622C452.003 215.302 451.883 213.863 452.003 212.544C452.483 208.945 455.003 207.506 458.362 208.945C461.602 210.265 464.242 212.184 465.562 215.542C465.922 216.502 466.402 217.461 467.602 217.222C468.682 216.982 469.042 216.022 469.042 214.943C469.042 214.103 469.402 213.143 469.882 212.424C470.481 211.464 471.201 210.984 472.281 211.944C475.761 213.983 476.961 217.341 477.921 220.94C479.721 227.417 479.721 234.134 477.921 240.491L478.161 240.611Z" fill="black"/>
<path d="M168.706 177.999C169.426 177.64 169.786 177.16 169.546 176.32C169.306 175.481 168.586 175.481 167.866 175.6C167.026 175.6 166.306 176.44 165.346 176.2C165.107 174.881 165.586 173.681 165.586 172.482C165.586 166.964 161.267 162.526 155.987 161.927C150.828 161.327 145.188 164.805 144.108 170.683C143.148 176.32 146.628 181.838 152.028 183.157C152.987 183.397 154.067 183.397 155.147 183.517C154.907 184.716 153.947 185.196 153.467 186.036C152.987 186.755 152.988 187.595 153.707 188.195C154.427 188.795 155.027 188.555 155.627 188.075C156.107 187.715 156.467 187.235 156.827 186.755C159.827 183.277 163.307 180.398 167.506 178.599C167.866 178.479 168.226 178.239 168.586 178.119L168.706 177.999ZM165.107 176.44C165.107 176.44 165.107 176.32 165.107 176.2C165.107 175.96 165.226 175.96 165.466 176.08C165.466 176.32 165.466 176.44 165.226 176.44H165.107Z" fill="black"/>
<path d="M150.108 135.299C151.428 134.459 152.987 133.979 154.547 133.979C160.067 133.979 164.507 136.138 167.746 140.456C168.466 141.416 169.066 142.495 169.666 143.455C171.106 145.614 173.026 146.813 175.666 146.453C178.305 146.094 179.745 144.294 180.705 142.015C181.545 139.976 181.545 137.817 181.785 135.778C181.785 133.379 181.305 131.34 180.585 129.301C175.546 115.867 160.907 112.389 150.228 116.347C144.708 118.386 141.588 122.704 140.628 128.462C140.149 131.46 141.108 133.979 143.628 135.658C145.788 137.098 147.948 136.498 149.988 135.179L150.108 135.299ZM143.748 128.701C144.108 127.022 144.468 125.223 145.788 123.904C147.948 120.065 151.548 118.746 155.507 118.146C158.627 117.666 161.747 117.906 164.866 118.746C172.066 120.665 177.825 127.262 178.545 134.579C178.785 136.858 178.545 139.137 177.705 141.296C176.506 144.174 174.586 144.414 172.426 142.135C171.346 141.416 171.106 140.216 170.386 139.377C166.546 134.099 161.267 131.46 154.787 131.46C152.627 131.46 150.588 132.3 148.548 133.139C147.468 133.619 146.148 134.459 144.948 133.379C143.748 132.18 143.268 130.741 143.628 129.061L143.748 128.701Z" fill="black"/>
</svg>
