<svg width="188" height="322" viewBox="0 0 188 322" fill="none" xmlns="http://www.w3.org/2000/svg">
<g clip-path="url(#clip0_1001_4753)">
<g clip-path="url(#clip1_1001_4753)">
<path d="M191.503 113.585C191.56 113.111 191.596 112.694 191.668 112.277C192.059 109.899 193.911 108.864 196.159 109.719C197.409 110.198 198.422 110.996 199.338 111.938C200.753 110.373 201.874 110.347 203.325 111.804C204.4 112.885 205.048 114.213 205.419 115.665C206.19 118.723 206.226 121.812 205.419 124.849C204.431 128.576 202.795 131.989 200.105 134.831C198.448 136.581 196.431 137.817 194.276 138.831C193.298 139.289 192.568 139.907 191.961 140.859C189.049 145.415 182.948 147.269 178.235 145.122C177.7 144.88 177.186 144.571 176.697 144.242C176.214 143.912 175.781 143.511 175.21 143.052C174.845 144.875 174.49 146.594 174.161 148.314C173.472 151.892 172.654 155.439 171.738 158.96C171.553 159.665 171.481 160.37 171.481 161.096C171.491 168.437 171.908 175.758 172.273 183.089C172.463 186.945 172.592 190.801 172.839 194.651C172.962 196.608 172.839 198.548 172.35 200.458C171.8 202.631 170.493 204.134 168.404 204.937C166.537 205.653 164.597 206.049 162.606 206.219C160.662 206.384 158.722 206.507 156.768 206.523C155.965 206.528 155.188 206.698 154.432 207.027C152.945 207.676 151.366 207.964 149.74 207.985C145.841 208.031 141.941 208 138.052 207.702C135.433 207.501 132.887 206.95 130.402 206.028C127.768 205.055 126.528 203.14 126.312 200.463C126.096 197.838 126.256 195.207 126.431 192.587C126.688 188.736 127.295 184.937 128.113 180.994C125.51 181.344 122.984 181.313 120.535 180.88C120.154 181.143 120.298 181.467 120.309 181.735C120.448 185.462 120.473 189.194 120.628 192.927C120.746 195.758 120.597 198.595 120.031 201.4C119.475 204.155 117.829 205.781 115.159 206.481C112.561 207.166 109.896 207.321 107.237 207.439C103.378 207.609 99.5198 207.439 95.6769 207.146C93.8301 207.001 91.9626 206.729 90.3524 205.668C89.9923 205.431 89.6322 205.478 89.2566 205.472C87.0085 205.442 84.7758 205.241 82.5534 204.942C80.2487 204.633 78.268 203.696 76.7453 201.884C75.6135 200.541 74.9601 199.037 74.9293 197.256C74.8624 193.102 74.8778 188.942 74.6978 184.793C74.4251 178.522 74.1422 172.257 73.3859 166.018C73.2059 164.546 72.9384 163.089 72.5628 161.652C72.4239 161.122 72.2644 160.602 71.9043 160.154C68.6942 156.134 66.5644 151.547 64.8667 146.728C63.4417 142.687 62.3408 138.569 61.672 134.332C61.6308 134.079 61.5382 133.837 61.5228 133.585C61.4971 133.05 61.2244 132.89 60.71 132.859C59.4856 132.787 58.2612 132.674 57.042 132.54C55.1899 132.339 53.3791 131.902 51.6094 131.33C51.0281 131.145 50.8789 131.31 50.7554 131.825C50.2667 133.858 50.2255 135.938 50.0043 138.002C49.7111 140.782 49.5002 143.572 48.8828 146.311C47.3241 153.215 43.0799 157.709 36.5207 160.149C31.8032 161.905 27.0651 161.724 22.3219 160.329C20.8249 159.887 19.3742 159.295 17.9183 158.733C16.9768 158.368 16.4058 157.755 15.9479 156.896C15.2174 155.531 15.0116 154.1 15.1917 152.587C15.2534 152.082 15.4232 151.609 15.6341 151.135C15.9325 150.476 16.3492 150.213 17.1106 150.239C20.367 150.347 23.5 149.683 26.5095 148.458C28.3307 147.717 29.9357 146.646 31.3248 145.23C32.8527 143.665 33.6655 141.781 33.7272 139.644C33.8558 135.207 32.8887 131.068 30.0181 127.531C29.1075 126.414 28.2226 125.276 27.3224 124.154C26.2317 122.79 25.3675 121.287 24.6164 119.716C23.8807 118.167 23.428 116.545 23.4794 114.815C23.4949 114.321 23.3508 113.945 23.073 113.539C22.4094 112.561 21.8229 111.526 21.1593 110.44C20.578 110.409 20.0224 110.738 19.4359 110.913C17.7279 111.423 16.0148 111.794 14.2245 111.907C8.63764 112.272 3.67837 107.51 2.953 102.532C2.40769 98.7947 3.25138 95.2889 4.65582 91.8809C5.72073 89.2915 7.1406 86.8822 8.48331 84.4317C8.64793 84.1331 8.79712 83.8345 8.96174 83.5359C9.16238 83.1756 9.09036 82.9027 8.73024 82.6865C8.25695 82.4034 7.79909 82.0997 7.33609 81.8011C3.65265 79.3866 1.33764 75.9941 0.339613 71.7315C-0.360035 68.7405 0.113257 65.7958 1.30677 63.0313C2.89127 59.3505 5.07767 56.0248 7.90198 53.1625C8.401 52.658 8.29811 52.3852 7.97915 51.9064C5.88535 48.7764 4.45519 45.3581 3.6115 41.6927C2.94786 38.8046 2.79353 35.8805 3.57034 33.0028C4.93362 27.8547 8.39071 24.8483 13.5146 23.7981C17.9954 22.8766 22.3734 23.5767 26.597 25.1623C35.7336 28.5909 42.8741 34.5523 48.3118 42.6142C49.4076 44.241 48.8931 44.0968 50.7554 43.479C56.1108 41.703 61.5897 40.8844 67.2383 41.1264C74.0804 41.4198 80.6191 42.9128 86.8542 45.7442C87.7956 46.1715 87.7956 46.1612 88.4284 45.3375C93.2847 39.0054 99.2266 33.8779 106.002 29.7183C110.071 27.2215 114.578 25.7595 119.182 24.6218C123.678 23.5046 128.252 22.8972 132.887 23.0156C137.146 23.1185 141.103 24.1945 144.776 26.4905C149.91 29.7029 152.667 36.1791 150.872 42.537C150.044 45.4662 148.655 48.102 147.07 50.6709C145.789 52.7455 145.645 52.1895 147.6 53.8266C151.824 57.3685 154.422 61.873 154.833 67.3454C155.26 73.0185 153.393 77.94 148.835 81.6209C148.181 82.146 147.533 82.6814 146.89 83.2065C147.029 83.6492 147.399 83.7161 147.662 83.8963C149.442 85.1113 150.826 86.6969 152.029 88.4626C154.843 92.5914 156.654 97.1062 157.189 102.095C157.282 102.939 157.539 103.366 158.434 103.634C161.835 104.648 164.587 106.759 167.206 109.07C172.258 113.523 174.84 119.202 175.653 125.796C176.244 130.615 176.368 135.439 175.612 140.247C175.473 141.127 175.745 141.704 176.332 142.26C179.136 144.895 182.387 145.209 185.89 144.056C186.858 143.737 187.717 143.191 188.55 142.599C190.592 141.143 191.539 139.171 191.693 136.674C191.873 133.817 191.369 131.114 190.34 128.473C189.553 126.465 188.658 124.499 188 122.44C187.475 120.808 187.192 119.145 187.583 117.436C187.67 117.065 187.737 116.684 187.881 116.334C188.535 114.718 189.409 113.364 191.493 113.585H191.503Z" fill="black"/>
<path d="M86.6689 163.464C86.2368 159.428 85.7481 155.397 84.8426 151.433C84.7089 150.857 84.534 150.29 84.3539 149.729C84.2665 149.456 84.0195 149.343 83.7469 149.4C83.4639 149.456 83.3096 149.667 83.3353 149.951C83.3662 150.244 83.4485 150.527 83.4999 150.815C84.1018 153.971 84.6831 157.132 84.8889 160.344C84.4722 160.844 84.4568 160.864 83.9012 160.571C82.6562 159.917 81.5399 159.063 80.4956 158.136C74.2399 152.571 70.2015 145.626 67.8762 137.636C67.4595 136.2 67.6601 135.902 69.1211 135.701C77.4912 134.542 84.4928 130.666 90.517 124.88C92.1632 123.299 94.1335 122.074 95.5534 120.252C97.4672 118.311 99.2934 116.293 100.945 114.12C101.506 113.76 101.809 114.249 102.133 114.527C106.527 118.285 111.182 121.662 116.316 124.334C123.035 127.824 130.068 130.089 137.759 129.533C144.241 129.065 149.143 126.038 152.348 120.334C152.657 119.783 152.95 119.217 153.274 118.671C155.986 114.913 156.917 110.584 157.308 106.079C157.328 105.868 157.354 105.662 157.375 105.451C157.642 105.369 157.884 105.451 158.1 105.585C162.57 108.396 166.773 111.5 169.716 116.03C171.872 119.34 172.474 123.098 172.911 126.898C173.05 128.107 173.168 129.333 173.219 130.563C173.492 136.576 172.52 142.47 171.568 148.365C170.421 155.454 168.451 162.347 166.285 169.163C163.723 177.24 161.331 185.359 159.201 193.56C158.429 196.525 157.339 199.372 155.595 201.92C155.152 202.569 154.828 203.367 153.928 203.562C153.053 203.526 152.173 203.557 151.299 203.537C150.44 203.516 149.966 203.207 150.075 202.244C150.126 201.802 150.177 201.328 149.992 200.885C149.817 199.588 149.637 198.291 149.21 197.045C148.922 196.195 148.526 195.408 147.857 194.79C146.906 193.905 145.645 193.714 144.462 194.265C143.51 194.708 142.79 195.397 142.281 196.309C141.972 196.86 141.694 197.421 141.406 197.982C140.969 197.879 141.108 197.513 141.051 197.261C140.84 196.35 140.557 195.47 140.012 194.697C138.726 192.875 136.905 192.556 135.078 193.838C134.06 194.553 133.345 195.552 132.624 196.545C132.12 196.587 132.012 196.195 131.853 195.851C130.824 193.596 130.201 191.228 130.032 188.757C129.764 184.798 129.414 180.829 130.623 176.942C131.302 174.059 132.285 171.263 133.304 168.489C134.322 165.709 135.433 162.965 136.622 160.252C136.786 159.871 136.992 159.49 137.002 159.047C137.002 158.754 136.853 158.553 136.596 158.476C136.38 158.414 136.169 158.543 136.056 158.728C135.907 158.98 135.809 159.263 135.691 159.536C134.502 162.29 133.314 165.045 132.12 167.804C131.745 168.458 131.102 168.659 130.417 168.756C127.243 169.209 124.059 169.575 120.844 169.431C120.17 169.4 119.485 169.343 118.976 168.803C118.235 164.509 117.217 160.283 115.663 156.205C115.529 155.85 115.421 155.485 115.257 155.14C115.005 154.604 114.609 154.537 114.135 154.877C113.538 155.238 113.785 155.768 113.893 156.241C115.041 161.456 115.895 166.723 116.615 172.015C117.114 175.665 117.217 179.351 117.572 183.011C118.03 187.681 117.356 192.314 117.474 196.968C117.515 198.615 117.474 200.355 116.615 201.899C115.277 202.435 113.857 202.584 112.443 202.744C111.939 202.8 111.434 202.764 111.013 202.414C110.622 201.163 110.503 199.845 110.056 198.61C109.665 197.529 109.253 196.468 108.523 195.567C107.087 193.796 105.493 193.591 103.656 194.95C102.483 195.82 101.583 196.916 100.981 198.244C100.518 198.095 100.662 197.735 100.58 197.482C100.333 196.715 100.086 195.953 99.633 195.274C98.4086 193.436 96.3508 193.189 94.7457 194.697C94.4679 194.955 94.2261 195.248 93.9638 195.526C93.2333 195.609 92.9452 195.027 92.5799 194.579C90.2443 191.717 88.9376 188.406 88.31 184.798C87.6104 180.787 87.3994 176.731 87.2811 172.674C87.1937 169.595 86.9467 166.532 86.6535 163.469L86.6689 163.464Z" fill="#C8D4ED"/>
<path d="M18.7515 153.292C18.5612 152.751 18.3708 152.216 18.1599 151.608C19.4203 151.49 20.5984 151.382 21.7816 151.268C23.5616 151.315 25.1975 150.702 26.8232 150.11C27.4868 149.868 28.1556 149.616 28.773 149.256C30.6353 148.236 32.4152 147.135 33.7682 145.415C36.1707 142.373 36.8549 138.959 36.0421 135.248C35.1521 131.165 33.4647 127.484 30.5118 124.411C28.4437 122.254 26.8849 119.732 25.8663 116.895C25.0329 114.568 25.0535 112.267 25.9486 109.955C26.1287 109.492 26.3962 109.044 26.3756 108.514C26.3808 108.19 26.566 107.953 26.7718 107.721C27.8727 106.825 29.1845 106.527 30.5478 106.398C33.6859 106.105 36.6131 106.764 39.314 108.39C41.0168 109.42 42.7659 110.383 44.2269 111.762C44.4121 111.937 44.6128 112.097 44.8443 112.2C45.0809 112.303 45.3381 112.39 45.5594 112.195C45.7806 111.999 45.7343 111.737 45.6417 111.489C45.4719 111.042 45.1684 110.686 44.8031 110.393C42.4161 108.457 39.8233 106.872 36.9578 105.755C34.6428 104.849 32.23 104.941 29.807 105.121C29.344 105.157 28.6546 105.538 28.5826 104.591C29.1742 103.69 29.8379 102.846 30.6661 102.146C31.7722 101.224 33.0686 101.528 34.3033 101.652C35.6923 101.796 37.0041 102.295 38.3057 102.794C38.7378 102.964 39.1596 103.155 39.6021 103.299C40.0805 103.453 40.703 103.721 40.9396 103.124C41.1711 102.537 40.5332 102.254 40.0959 102.053C38.4497 101.291 36.7623 100.643 34.936 100.416C34.3135 100.339 33.5573 100.447 33.2332 99.6541C34.7302 98.2127 36.361 96.9308 38.0999 95.788C38.3468 95.6284 38.5989 95.4688 38.8252 95.2783C39.0465 95.093 39.1082 94.8407 38.9178 94.6039C38.7532 94.4031 38.5372 94.2641 38.2542 94.4186C37.6677 94.7378 37.0813 95.0518 36.3971 95.4224C36.2839 94.6811 36.2993 94.017 36.073 93.389C35.3733 91.4121 34.2724 90.6039 32.1786 90.6399C31.8391 90.6451 31.5047 90.6811 31.1651 90.7068C30.6713 90.954 30.4449 90.5987 30.3214 90.2487C29.6321 88.2718 29.1691 86.2332 28.8656 84.1637C28.8141 83.8188 29.0405 83.5253 29.1022 83.1959C29.4623 82.6244 29.7761 82.0221 30.1877 81.4919C31.6487 79.5974 33.5779 78.6295 35.9958 78.7016C36.5977 78.7171 37.1687 78.8715 37.678 79.201C38.5835 79.7827 39.5455 80.1173 40.5126 79.4532C41.5827 78.7222 42.0251 77.6154 41.7988 76.3438C41.346 73.8316 39.9776 72.0092 37.5391 71.0877C35.2756 70.2331 32.9863 70.3515 30.6918 70.959C30.4501 71.0259 30.2031 71.0928 29.9613 71.1597C29.236 71.1597 29.4109 70.6089 29.488 70.2588C30.9645 63.6384 33.1869 57.3527 37.7758 52.1532C38.6195 51.2523 39.6226 50.5521 40.6412 49.8777C45.7291 46.5058 51.2954 44.3024 57.2733 43.1132C57.3916 43.0875 57.5254 43.1235 57.6489 43.1287C60.4269 43.0411 63.1895 42.6499 65.9778 42.758C74.3478 43.0875 82.2394 45.1106 89.3131 49.6976C93.619 52.4929 96.8343 56.3746 99.3036 60.8637C102.75 67.1237 105.096 73.7698 106.105 80.8535C106.871 86.2332 106.634 91.5769 105.41 96.8793C104.484 100.89 103.383 104.838 101.521 108.545C100.23 111.114 98.5474 113.389 96.6902 115.536C92.4615 120.416 87.3839 124.138 81.3957 126.614C77.1052 128.391 72.6913 129.76 68.0921 130.326C62.9117 130.965 57.7055 131.062 52.5558 129.899C52.2729 129.832 51.9642 129.817 51.7224 129.611C52.1031 128.689 52.6896 127.932 53.4664 127.309C53.9037 127.109 54.3564 127.14 54.8246 127.196C58.1787 127.582 61.1368 126.671 63.6988 124.468C64.1155 124.107 64.5939 123.845 65.0363 123.531C65.7154 123.037 66.3636 122.223 67.089 122.151C67.7269 122.084 68.4368 122.877 69.1416 123.237C69.7024 123.526 70.2888 123.778 70.9319 123.84C71.2971 123.876 71.647 123.814 71.7601 123.428C71.8939 122.98 71.6058 122.712 71.22 122.558C70.9062 122.434 70.5718 122.367 70.2631 122.244C68.3031 121.451 66.7957 120.179 65.9315 118.208C65.6588 117.58 65.4839 116.936 65.4736 116.246C65.4736 115.994 65.4736 115.737 65.4582 115.484C65.4376 115.042 65.3913 114.589 64.7997 114.604C64.2081 114.619 64.1926 115.109 64.1721 115.526C64.1155 116.591 64.2801 117.626 64.6711 118.63C65.026 119.551 65.5919 120.334 66.1938 121.132C65.3707 122.172 64.2286 122.553 63.0094 122.784C61.3117 123.103 59.5626 123.083 57.8804 123.531C57.474 123.639 57.0624 123.706 56.6508 123.793C49.0885 125.219 44.6128 129.853 42.7608 137.194C42.2823 139.083 41.8913 140.993 41.593 142.918C40.4818 150.095 34.1335 153.842 29.3851 154.862C26.0207 155.582 22.8311 154.779 19.6261 153.981C19.2454 153.889 18.9161 153.698 18.7567 153.307L18.7515 153.292Z" fill="#C8D4ED"/>
<path d="M140.583 123.541C140.171 123.834 139.693 123.747 139.235 123.773C133.134 124.123 127.326 122.831 121.698 120.591C119.074 119.551 116.491 118.419 113.899 117.302C112.427 116.668 111.033 115.896 109.757 114.918C109.413 114.45 109.557 113.961 109.67 113.456C110.771 108.751 111.856 104.04 112.407 99.232C113.451 90.1508 113.343 81.1418 110.74 72.2768C108.127 63.3707 103.733 55.5714 96.639 49.4607C95.1059 48.1377 93.4134 46.9845 91.5871 46.063C91.0984 45.8159 90.409 45.6821 90.4553 44.8841C93.0224 41.6563 96.0114 38.8455 99.1958 36.2406C103.378 32.8223 107.797 29.8055 112.932 27.9779C117.443 26.3718 122.048 25.2032 126.827 24.7089C129.363 24.4464 131.899 24.328 134.43 24.5288C136.354 24.6832 138.299 24.8737 140.069 25.7797C141.91 26.8969 143.721 28.0346 145.249 29.6047C148.583 33.0333 150.286 39.4066 147.42 44.4311C146.726 45.646 146.041 46.861 145.29 48.045C144.673 49.018 144.23 50.0527 144.184 51.2471C144.138 52.4775 144.606 53.3938 145.445 54.2844C149.853 58.9692 152.359 64.4673 151.757 70.9898C151.422 74.6295 149.426 77.569 146.69 79.9732C146.499 80.143 146.288 80.282 146.093 80.4468C143.942 82.2795 144.297 83.4275 145.877 85.0337C150.471 89.703 153.604 95.0981 154.195 101.863C154.576 106.166 154.051 110.223 152.456 114.182C150.419 119.227 146.618 122.141 141.355 123.263C141.092 123.32 140.758 123.212 140.573 123.526L140.583 123.541Z" fill="#C8D4ED"/>
<path d="M17.949 109.755C17.306 110.059 16.6269 110.218 15.917 110.249C10.2323 110.517 4.45508 103.649 5.79264 96.6479C6.50257 92.9104 8.14881 89.5951 9.98538 86.3364C10.3609 85.6723 10.6799 84.9773 10.9834 84.2772C11.7551 82.5062 11.5493 81.7083 10.0471 80.5345C9.04394 79.752 8.02534 79.0056 7.0839 78.1407C2.91174 74.3208 2.09891 69.6928 3.66797 64.4418C4.67629 61.0698 6.63119 58.2744 8.89475 55.6592C10.5101 53.7905 10.649 53.0388 9.38348 50.9127C7.72696 48.1173 6.59518 45.1109 5.6846 42.0117C5.08785 39.9731 4.94895 37.8779 5.0827 35.7363C5.43767 30.0065 11.0914 25.4247 16.4108 25.2703C17.095 25.2497 17.7895 25.157 18.4017 25.1673C17.2648 24.8945 16.025 25.7439 14.8212 24.9975C16.5291 24.5547 18.2628 24.6628 19.9759 24.9048C27.3891 25.9447 33.6191 29.4557 39.2163 34.2382C41.5467 36.2253 43.6354 38.4441 45.4874 40.8843C45.7652 41.2498 46.115 41.5793 46.2487 42.0426C46.0584 42.6501 45.4925 42.8148 45.0141 43.0516C34.9361 48.0864 27.9756 56.0196 23.6028 66.2848C22.0697 69.8884 21.4936 73.77 21.0871 77.6671C20.7785 80.6323 20.9328 83.5925 20.8402 86.5577C20.763 88.9825 20.3618 91.3712 19.6416 93.6878C18.659 96.8538 17.9079 100.061 17.5941 103.371C17.4294 105.086 17.6867 106.754 17.9799 108.421C18.0571 108.864 18.304 109.322 17.9542 109.76L17.949 109.755Z" fill="#C8D4ED"/>
<path d="M90.4604 44.8894C90.6405 45.3373 91.0778 45.4454 91.4482 45.6359C94.0718 46.9589 96.392 48.6784 98.4961 50.7325C100.893 53.0748 103.106 55.5665 104.932 58.3721C106.804 61.2499 108.26 64.349 109.5 67.5511C110.658 70.5473 111.532 73.6258 112.15 76.7815C112.875 80.5139 113.533 84.2411 113.358 88.0661C113.297 89.3788 113.348 90.6915 113.348 92.0043C113.348 93.6105 113.091 95.1909 112.89 96.7765C112.746 97.904 112.777 99.0417 112.633 100.179C112.294 102.856 111.8 105.502 111.229 108.133C110.74 110.393 110.251 112.658 109.762 114.918C107.71 113.817 105.827 112.452 103.918 111.124C103.332 110.712 103.347 110.378 103.646 109.786C105.575 105.992 106.923 101.997 107.617 97.7907C107.916 95.9889 108.055 94.1716 108.147 92.3544C108.543 84.4933 108.209 76.6889 105.976 69.0698C104.366 63.5717 101.938 58.4854 98.1514 54.1199C95.821 51.4377 92.9709 49.394 90.018 47.4737C89.7351 47.2884 89.4418 47.1185 89.1589 46.9332C89.092 46.892 89.0457 46.8148 88.9634 46.7221C89.3698 46.0426 89.8688 45.4248 90.4656 44.8843L90.4604 44.8894Z" fill="#9DAEDA"/>
<path d="M18.7516 153.292C20.4492 153.966 22.2292 154.301 24.0246 154.548C24.6471 154.635 25.249 154.815 25.8972 154.826C29.6321 154.867 32.9554 153.724 35.9187 151.474C37.0299 150.63 38.069 149.714 38.9076 148.571C40.2966 146.676 40.9345 144.514 41.3615 142.254C41.6805 140.555 42.0251 138.862 42.3853 137.173C42.9563 134.481 44.0521 131.989 45.7343 129.842C48.1419 126.769 51.1926 124.56 55.1281 123.819C55.622 123.726 56.1416 123.788 56.6457 123.778C56.4194 124.071 56.049 124.076 55.7454 124.205C52.0569 125.791 49.9579 128.622 49.2377 132.519C48.8056 134.856 48.7593 137.235 48.4969 139.593C48.1625 142.62 47.8487 145.647 46.8146 148.55C45.2816 152.859 42.3647 155.86 38.3468 157.899C32.976 160.622 27.4663 160.658 21.864 158.764C20.7065 158.373 19.5695 157.914 18.4275 157.477C18.3143 157.436 18.2268 157.333 18.0776 157.225C18.6178 155.969 18.9059 154.666 18.7567 153.292H18.7516Z" fill="#9DAED9"/>
<path d="M95.5585 120.247C94.8845 121.559 93.6859 122.404 92.6518 123.377C92.194 123.804 91.6795 124.19 91.2423 124.643C88.1864 127.804 84.647 130.347 80.7784 132.37C77.7123 133.971 74.4301 135.109 70.9936 135.752C69.975 135.943 68.8741 135.819 67.8864 136.406C68.4934 139.016 69.4348 141.498 70.5203 143.922C71.8579 146.903 73.4733 149.74 75.4847 152.309C77.9438 155.449 80.691 158.311 84.1635 160.381C84.4464 160.551 84.6676 160.71 84.894 160.34C85.2181 161.704 85.2181 163.104 85.3158 164.494C85.4187 165.971 85.4187 167.459 85.4547 168.942C85.4547 169.143 85.5165 169.359 85.321 169.508C85.2284 169.508 85.1306 169.539 85.074 169.508C77.2442 164.926 71.2354 158.708 67.7063 150.239C65.4839 144.906 63.8634 139.397 62.7573 133.734C62.7162 133.529 62.7162 133.317 62.6853 133.019C63.9406 132.803 65.2009 132.854 66.4408 132.751C70.8136 132.386 75.0115 131.315 79.127 129.848C83.896 128.144 88.3665 125.868 92.4358 122.841C93.5161 122.038 94.5193 121.117 95.5533 120.252L95.5585 120.247Z" fill="#9DAED9"/>
<path d="M74.4251 162.96C76.9613 165.874 80.156 167.959 83.3301 170.064C84.0298 170.528 85.0432 170.785 85.3931 171.423C85.7789 172.124 85.5834 173.153 85.604 174.039C85.748 180.52 85.8818 187.007 86.0104 193.488C86.0155 193.766 86.1236 194.059 85.9384 194.327C83.289 192.865 82.7179 193.071 80.2074 196.427C80.0583 196.005 79.9296 195.64 79.801 195.274C79.0808 193.2 78.448 192.731 76.3234 192.7C76.1845 192.515 76.205 192.299 76.205 192.093C76.2308 185.771 75.8295 179.47 75.4025 173.169C75.1762 169.833 74.9138 166.492 74.1473 163.217C74.0752 162.955 74.1884 162.893 74.4199 162.96H74.4251Z" fill="#9DAED9"/>
<path d="M17.949 109.755C17.3883 107.706 17.0333 105.621 17.2237 103.505C17.45 100.988 17.8925 98.5062 18.5715 96.0609C18.9625 94.64 19.4924 93.2552 19.7702 91.7983C20.1509 89.8112 20.5419 87.8292 20.511 85.7905C20.4904 84.3954 20.4801 82.9951 20.511 81.6C20.6242 76.6425 21.3084 71.7724 22.9186 67.0723C24.0195 63.8547 25.7326 60.9461 27.6001 58.1095C29.7299 54.8765 32.1581 51.8958 35.0493 49.3578C37.9662 46.7941 41.1043 44.4981 44.6591 42.8456C45.1942 42.5985 45.7189 42.3102 46.2436 42.0425C46.933 42.7375 47.4269 43.556 47.859 44.4672C45.4308 45.641 43.018 46.7581 40.7905 48.2047C36.4846 51.0001 32.6777 54.372 29.8328 58.6552C26.7512 63.2884 24.7758 68.385 24.2613 74.0067C23.9887 77.0131 24.0298 80.0144 23.9784 83.0209C23.9321 85.8575 23.9424 88.6992 23.2993 91.4894C22.8877 93.2655 22.2344 94.9643 21.6582 96.6889C21.01 98.6143 20.4853 100.571 20.1817 102.589C19.8988 104.468 20.0531 106.3 20.4338 108.138C20.6139 109.003 20.619 109.024 19.765 109.281C19.1631 109.461 18.6024 109.796 17.9439 109.765L17.949 109.755Z" fill="#9DAEDA"/>
<path d="M153.28 118.661C153.244 119.732 152.652 120.607 152.101 121.425C149.889 124.715 147.158 127.433 143.289 128.741C141.607 129.312 139.847 129.714 138.103 129.811C135.84 129.94 133.556 130.007 131.266 129.678C128.704 129.307 126.23 128.674 123.776 127.881C119.768 126.584 116.07 124.663 112.463 122.517C109.443 120.72 106.655 118.604 103.893 116.442C103.131 115.845 102.421 115.176 101.696 114.532C101.475 114.331 101.269 114.115 100.945 114.115C101.32 113.554 101.716 113.003 102.066 112.427C102.303 112.035 102.529 112.04 102.884 112.272C103.949 112.962 105.076 113.564 106.1 114.311C109.366 116.699 112.942 118.517 116.656 120.066C120.396 121.631 124.136 123.207 128.108 124.128C132.383 125.122 136.699 125.595 141.077 125.003C145.815 124.365 149.925 122.517 153.069 118.795C153.12 118.733 153.202 118.702 153.274 118.656L153.28 118.661Z" fill="#9DAEDA"/>
<path d="M170.215 164.834C170.39 175.022 171.028 185.004 171.475 194.991C171.547 196.607 171.419 198.209 171.079 199.789C170.652 201.781 169.505 203.115 167.56 203.758C166.84 204 166.12 204.221 165.215 204.386C165.215 203.465 165.23 202.595 165.215 201.719C165.184 200.144 164.947 198.595 164.438 197.102C164.073 196.026 163.522 195.084 162.334 194.734C161.778 194.569 161.902 194.224 162.04 193.838C162.431 192.721 162.817 191.598 163.183 190.471C164.278 187.125 164.927 183.67 165.734 180.252C166.912 175.264 168.456 170.378 169.912 165.472C169.958 165.318 170.05 165.174 170.215 164.829V164.834Z" fill="#9DAED9"/>
<path d="M51.7275 129.606C52.8439 129.384 53.8831 129.879 54.9634 129.971C56.2598 130.085 57.5459 130.347 58.8526 130.378C61.6872 130.45 64.527 130.414 67.341 130.1C69.7229 129.832 72.0688 129.287 74.3941 128.659C77.6299 127.789 80.7732 126.646 83.7622 125.158C86.2521 123.917 88.6494 122.486 90.8409 120.725C92.765 119.181 94.4884 117.426 96.1397 115.613C98.9435 112.53 101.192 109.075 102.668 105.127C104.021 101.513 104.906 97.7806 105.631 94.0123C105.837 92.9518 106.079 91.8552 105.976 90.7433C105.899 89.935 106.238 89.1731 106.238 88.3546C106.238 84.0302 105.683 79.7882 104.716 75.572C103.275 69.312 100.744 63.5256 97.2458 58.1922C93.7218 52.8125 88.8912 48.9309 82.8104 46.6863C80.9481 45.9965 79.1167 45.2397 77.1927 44.7198C75.3561 44.2204 73.4886 43.927 71.6212 43.6129C68.2722 43.0467 64.8922 43.0724 61.5072 43.1033C60.5349 43.1136 59.5986 43.4894 58.6108 43.3555C58.2867 43.3092 57.9215 43.4328 57.6643 43.1187C60.6172 42.4495 63.6113 42.2487 66.6208 42.4134C69.5325 42.573 72.4495 42.7532 75.3252 43.3349C79.2762 44.1329 83.1757 45.2294 86.7408 47.0467C93.3875 50.4392 98.6194 55.3711 101.912 62.218C104.417 67.4278 105.904 72.9001 106.511 78.6351C107.118 84.3906 107.185 90.1461 106.506 95.8965C105.647 103.135 102.992 109.611 98.3416 115.274C93.2537 121.467 86.8385 125.657 79.3585 128.36C75.4898 129.755 71.5595 130.898 67.4696 131.315C62.3406 131.84 57.2476 131.639 52.2626 130.131C51.9127 130.028 51.9127 130.023 51.743 129.596L51.7275 129.606Z" fill="#EEF2FA"/>
<path d="M154.015 203.408C155.744 201.452 156.968 199.197 157.832 196.746C159.53 191.918 160.621 186.924 161.891 181.977C162.704 178.821 163.934 175.799 164.911 172.7C166.346 168.149 167.638 163.557 168.8 158.929C169.521 156.067 170.416 153.245 170.915 150.332C171.244 148.381 171.542 146.429 171.841 144.473C172.072 142.975 172.314 141.482 172.499 139.979C172.654 138.728 172.813 137.467 172.844 136.205C172.901 134.131 172.947 132.046 172.844 129.976C172.643 126.136 172.17 122.321 170.781 118.702C170.097 116.921 168.929 115.402 167.73 113.909C165.096 110.63 161.65 108.334 158.223 106.012C157.946 105.822 157.663 105.631 157.385 105.441C157.385 105.271 157.385 105.101 157.385 104.931C157.457 104.833 157.467 104.679 157.627 104.658C159.062 104.941 160.307 105.662 161.521 106.424C164.86 108.519 167.725 111.14 170.076 114.3C172.139 117.075 173.245 120.267 173.888 123.624C175.221 130.589 174.861 137.503 173.559 144.458C171.656 154.625 168.8 164.54 165.868 174.435C164.798 178.049 164.124 181.76 163.198 185.41C161.866 190.661 160.199 195.804 157.915 200.731C157.611 201.38 157.236 201.997 156.912 202.641C155.631 205.199 153.526 206.435 150.707 206.543C149.997 206.656 150.028 206.188 150.383 205.936C151.587 205.086 152.564 203.902 154.01 203.403L154.015 203.408Z" fill="#EEF2FA"/>
<path d="M140.583 123.541C140.516 123.387 140.506 123.562 140.449 123.515C140.223 123.335 140.285 123.299 140.511 123.258C141.885 122.99 143.212 122.563 144.483 121.992C147.976 120.416 150.574 117.966 152.045 114.367C152.703 112.756 153.218 111.104 153.583 109.415C154.092 107.093 154.17 104.756 153.861 102.378C153.65 100.746 153.449 99.1189 153.125 97.5076C152.693 95.3505 151.664 93.4664 150.512 91.6337C150.085 90.9541 149.642 90.2849 149.236 89.5899C148.156 87.7417 146.705 86.2179 145.172 84.7456C143.773 83.4019 143.757 82.3312 145.115 80.936C145.728 80.3028 146.458 79.7777 147.106 79.1754C149.277 77.1574 150.677 74.6554 151.35 71.8034C151.736 70.156 151.68 68.4006 151.402 66.748C150.826 63.2937 149.529 60.0813 147.471 57.219C146.859 56.3644 146.216 55.5047 145.455 54.7891C143.227 52.699 143.485 50.439 144.858 48.1379C145.83 46.5059 146.87 44.9203 147.662 43.1854C148.325 41.7337 148.578 40.1687 148.634 38.6346C148.691 37.1314 148.151 35.6539 147.682 34.2073C146.489 30.5316 143.675 28.3539 140.562 26.4389C140.341 26.305 139.811 26.3411 140.074 25.8057C145.373 27.6693 148.994 31.0515 149.91 36.807C150.224 38.7993 149.925 40.771 149.365 42.7067C148.639 45.2138 147.42 47.4738 146.046 49.6668C145.686 50.2383 145.316 50.8097 144.992 51.4017C144.426 52.4416 144.498 52.9255 145.367 53.7595C145.887 54.2589 146.468 54.6862 147.003 55.1649C151.062 58.82 153.542 63.3091 153.485 68.833C153.434 73.6721 151.597 77.8112 147.6 80.8073C146.926 81.317 146.268 81.8575 145.661 82.4444C144.863 83.2115 144.925 83.7675 145.81 84.411C146.221 84.7096 146.664 84.9567 147.086 85.2449C148.14 85.976 149.041 86.8717 149.817 87.8807C153.382 92.5294 155.584 97.7187 155.872 103.618C156.058 107.387 155.44 111.062 153.974 114.542C152.076 119.032 148.506 121.636 143.942 122.98C142.857 123.299 141.746 123.603 140.583 123.546V123.541Z" fill="#EEF2FA"/>
<path d="M14.8211 24.9976H19.2093L19.2196 25.2447C17.7432 25.2447 16.2924 25.4557 14.8623 25.7955C10.1242 26.9229 6.81631 29.6154 5.62794 34.4905C5.02604 36.9565 5.32442 39.4327 5.98805 41.8419C6.92435 45.2397 8.31335 48.4572 9.98531 51.5512C10.9113 53.2552 10.8084 54.0891 9.32167 55.7159C6.93464 58.3208 4.92315 61.1831 3.96113 64.6529C3.55472 66.115 3.19975 67.6079 3.22547 69.1266C3.28206 72.1536 4.30067 74.8049 6.43562 77.0134C7.70631 78.3313 9.12618 79.4484 10.5975 80.5192C11.755 81.3635 12.0843 82.3982 11.5852 83.7316C10.9473 85.4356 10.0985 87.0572 9.15705 88.6068C7.52625 91.294 6.49221 94.1975 6.06008 97.2606C5.55077 100.885 6.65169 104.071 9.20849 106.784C10.9782 108.669 13.0771 109.734 15.5979 110.059C15.7111 110.074 15.8088 110.182 15.9169 110.249C10.1757 111.804 4.16691 106.764 4.19263 100.653C4.20807 97.1422 5.14436 93.8886 6.69799 90.7895C7.68573 88.823 8.75063 86.9028 9.77953 84.9568C9.95958 84.6222 10.1499 84.2927 10.2991 83.9426C10.7621 82.8512 10.6232 82.3364 9.66635 81.6569C9.11589 81.2657 8.52428 80.9259 7.96867 80.5501C4.46529 78.1717 2.33034 74.8769 1.56381 70.7276C1.10081 68.2308 1.61525 65.8061 2.61328 63.5409C4.19263 59.9579 6.28129 56.6786 9.07988 53.9038C10.0419 52.9514 10.1242 52.5962 9.31653 51.371C7.77833 49.0286 6.47678 46.5679 5.59707 43.9012C4.52188 40.6373 4.04344 37.3065 4.7328 33.8985C5.75141 28.8534 9.74866 25.4454 14.8211 24.9976Z" fill="#EEF2FA"/>
<path d="M118.991 168.798C120.396 169.132 121.826 169.096 123.246 169.055C125.839 168.978 128.416 168.695 130.978 168.288C131.405 168.221 131.755 167.984 132.13 167.799C130.885 171.526 129.589 175.243 128.601 179.052C128.478 179.531 128.282 179.732 127.758 179.783C125.474 180 123.2 180.108 120.916 179.763C120.499 179.701 120.211 179.675 120.175 179.14C119.959 175.67 119.424 172.236 118.986 168.792L118.991 168.798Z" fill="#9DAED9"/>
<path d="M116.399 201.894C116.821 201.272 116.774 200.52 116.857 199.84C117.026 198.425 117.268 197.004 117.165 195.557C117.114 194.8 117.181 194.033 117.155 193.272C117.078 190.862 117.69 188.458 117.366 186.064C117.088 184.01 117.33 181.936 116.954 179.892C116.738 178.697 116.79 177.457 116.697 176.242C116.497 173.637 116.018 171.078 115.689 168.494C115.159 164.273 114.315 160.118 113.42 155.964C113.25 155.166 113.42 154.939 114.151 154.877C114.048 155.325 114.274 155.706 114.413 156.098C116.337 161.462 117.448 167.006 118.184 172.643C119.239 180.736 119.228 188.865 118.976 197.004C118.95 197.894 118.94 198.785 118.935 199.671C118.93 200.798 118.58 201.843 118.107 202.842C117.649 203.81 116.872 204.427 115.843 204.736C115.349 203.985 115.54 203.012 116.399 201.9V201.894Z" fill="#EEF1FA"/>
<path d="M29.1075 83.1909C29.3339 85.559 29.9821 87.8396 30.62 90.1202C30.7074 90.4291 30.836 90.6556 31.1756 90.7019C31.0315 90.7791 30.8926 90.8769 30.7383 90.9387C28.7834 91.6749 27.7699 93.1575 27.7082 95.1756C27.6516 97.0391 28.5262 98.4858 30.2136 99.3867C30.4348 99.5051 30.6611 99.6132 30.9698 99.7728C29.9872 100.838 29.0252 101.883 28.0632 102.929C27.4818 103.17 27.4253 102.692 27.3378 102.357C26.7308 100.128 25.6967 98.1511 24.0042 96.5449C23.7315 96.2824 23.4846 95.989 23.5258 95.5668C23.9219 93.9709 24.5444 92.4368 24.8067 90.8049C25.1102 88.9258 25.2594 87.0262 25.2954 85.1214C25.3057 84.6221 25.2286 84.1124 25.4138 83.541C26.7359 84.3595 27.9757 84.2308 29.1126 83.2012L29.1075 83.1909Z" fill="#9DAED9"/>
<path d="M23.5206 95.5566C24.8684 96.9054 26.1443 98.3005 26.8799 100.108C27.1835 100.849 27.5693 101.559 27.6259 102.378C27.6465 102.671 27.7854 102.846 28.058 102.923C26.0723 105.642 24.5546 108.581 23.7007 111.943C22.7644 110.785 22.147 109.513 21.7869 108.128C21.2056 105.878 21.2313 103.618 21.7406 101.348C22.183 99.3713 22.7181 97.4254 23.5206 95.5618V95.5566Z" fill="#B58CA7"/>
<path d="M37.7811 52.1431C37.1174 53.6103 35.9908 54.7737 35.178 56.1534C33.0636 59.7416 31.5151 63.546 30.4554 67.5563C30.2084 68.4932 30.0026 69.4353 29.7557 70.3723C29.6683 70.6915 29.6683 70.9489 29.9666 71.1496C28.3667 72.0042 26.8131 72.9206 25.8305 74.5319C25.4498 74.3363 25.5938 74.0583 25.6196 73.8524C26.5096 66.7687 29.2258 60.5344 34.2468 55.3863C35.3632 54.2435 36.4281 53.0337 37.7811 52.1431Z" fill="#9DAED9"/>
<path d="M26.3757 108.509C26.7512 108.988 26.3139 109.374 26.2007 109.786C25.9435 110.759 25.6297 111.711 25.568 112.741C25.3982 115.536 26.4888 117.94 27.8264 120.262C28.8399 122.023 30.1414 123.567 31.5407 125.039C33.0738 126.651 34.0718 128.617 34.9515 130.63C35.574 132.061 36.0112 133.554 36.3559 135.083C37.4826 140.087 35.7952 144.7 31.7413 147.835C30.8565 148.52 29.8533 148.942 28.8964 149.472C28.5415 149.647 28.3203 149.601 28.3614 149.137C29.4418 148.406 30.5684 147.742 31.5561 146.872C34.0872 144.648 35.2344 141.812 35.1161 138.517C34.9515 133.93 33.7374 129.688 30.661 126.105C29.0919 124.278 27.6052 122.383 26.4117 120.262C24.1995 116.324 24.4053 112.427 26.3808 108.504L26.3757 108.509Z" fill="#EDF1FA"/>
<path d="M29.1692 73.1782C31.8237 71.469 34.6429 71.3403 37.5032 72.4884C39.2369 73.1833 40.1321 74.6608 40.5025 76.4626C40.6002 76.9466 40.4922 77.3893 40.2658 77.8063C39.9314 78.4343 39.6022 78.5836 38.918 78.352C38.3624 78.1615 37.8325 77.899 37.2923 77.6673C35.0596 76.5502 32.8475 76.1589 30.5428 77.5695C29.3081 78.3262 28.3461 77.7445 28.3306 76.3031C28.3204 75.2014 28.4438 74.0997 29.1692 73.1782Z" fill="#91A7D6"/>
<path d="M99.5971 200.108C99.9777 201.858 99.8388 203.634 99.8388 205.405C99.8388 205.833 99.6228 205.992 99.2061 205.982C97.3489 205.946 95.5021 205.776 93.6861 205.379C93.2179 205.277 93.0739 205.076 93.1768 204.515C93.3259 203.696 93.2333 202.831 93.2899 201.992C93.4288 200.036 93.8867 198.177 95.0236 196.535C96.5824 197.688 98.0126 199.001 99.6022 200.113L99.5971 200.108Z" fill="#7489C3"/>
<path d="M86.6689 163.464C87.1164 164.051 86.9467 164.777 87.029 165.42C87.1782 166.584 87.3068 167.763 87.4303 168.937C87.6669 171.248 87.4663 173.58 87.8778 175.876C87.9293 176.164 87.8984 176.468 87.8984 176.767C87.955 180.576 88.382 184.35 89.4726 188.005C90.3266 190.867 91.7876 193.426 93.9792 195.521C93.6808 196.072 93.3824 196.623 93.0892 197.168C92.6313 197.091 92.7754 196.705 92.6776 196.463C92.405 195.799 92.1786 195.114 91.7362 194.538C90.9697 193.534 89.9408 193.163 88.7164 193.488C88.3202 193.596 87.9396 193.781 87.5537 193.93C87.2965 193.745 87.3942 193.477 87.3891 193.256C87.2862 183.614 86.9724 173.982 86.6534 164.344C86.6432 164.051 86.6637 163.758 86.674 163.459L86.6689 163.464Z" fill="#9DAED9"/>
<path d="M86.7254 203.943C84.7962 203.943 83.0111 203.717 81.2517 203.254C80.7732 203.125 80.5623 202.97 80.588 202.414C80.6549 201.024 80.6138 199.624 81.0202 198.27C81.37 197.122 81.9204 196.077 82.8002 195.254C83.5924 194.512 84.3126 194.589 84.9197 195.48C85.2026 195.892 85.4238 196.366 85.5679 196.844C86.2572 199.109 86.7305 201.416 86.7254 203.949V203.943Z" fill="#7489C3"/>
<path d="M28.5929 104.586C28.7884 104.967 29.1176 104.936 29.4674 104.88C32.9862 104.319 36.325 104.735 39.494 106.512C41.418 107.588 43.2598 108.756 45.0192 110.074C45.5182 110.445 45.8217 110.949 46.0944 111.464C46.295 111.845 46.295 112.308 45.9246 112.633C45.6005 112.921 45.2249 112.828 44.8545 112.663C44.4533 112.488 44.1858 112.154 43.8617 111.886C41.1557 109.688 38.2851 107.732 34.8228 106.965C32.3586 106.419 29.8738 106.46 27.5022 107.531C27.2656 107.634 27.0341 107.732 26.7717 107.711C27.2039 106.568 27.7903 105.513 28.5877 104.581L28.5929 104.586Z" fill="#9DAFDA"/>
<path d="M140.084 201.076C140.377 202.327 140.228 203.599 140.223 204.86C140.223 205.364 140.171 205.869 140.14 206.461C138.278 206.518 136.457 206.204 134.636 205.859C134.013 205.74 133.401 205.586 132.784 205.431C132.444 205.344 132.1 205.2 132.151 204.772C132.408 202.569 132.192 200.273 133.381 198.245C133.746 198.322 133.916 198.636 134.121 198.893C135.243 200.304 136.709 201.117 138.438 201.56C139.137 201.74 139.657 201.658 140.084 201.076Z" fill="#7489C3"/>
<path d="M101.624 200.844C101.938 198.687 102.951 196.968 104.793 195.773C105.734 195.161 106.341 195.233 107.159 196C107.53 196.35 107.828 196.757 108.055 197.215C108.898 198.929 109.438 200.731 109.572 202.641C109.372 202.893 109.089 202.981 108.79 202.991C106.532 203.084 104.34 202.744 102.241 201.884C101.825 201.714 101.367 201.467 101.629 200.844H101.624Z" fill="#91A7D6"/>
<path d="M141.823 202.394C141.915 200.422 142.497 198.594 143.484 196.89C143.788 196.37 144.189 195.943 144.704 195.629C145.743 194.996 146.617 195.171 147.327 196.175C147.621 196.587 147.821 197.05 147.97 197.539C148.49 199.289 148.783 201.065 148.67 202.898C148.382 203.181 148.017 203.243 147.636 203.269C146 203.377 144.4 203.058 142.78 202.914C142.404 202.883 142.059 202.708 141.823 202.383V202.394Z" fill="#91A7D6"/>
<path d="M29.1692 73.1777C29.0251 73.8727 28.8965 74.578 28.7268 75.2678C28.6239 75.69 28.629 76.107 28.6547 76.524C28.7216 77.6102 29.3544 77.9706 30.2649 77.3837C31.0521 76.874 31.8392 76.4519 32.8012 76.3592C34.4834 76.2048 36.0422 76.3953 37.2974 77.672C33.6037 77.0233 30.6919 78.3052 28.6599 81.4764C28.521 81.6874 28.3924 81.9088 28.2329 82.1044C27.3995 83.1186 26.4117 82.995 25.8819 81.7853C25.5012 80.9204 25.3674 79.9731 25.4909 79.0516C25.8304 76.5548 26.9056 74.4853 29.1743 73.1777H29.1692Z" fill="#7489C3"/>
<path d="M140.084 201.076C139.914 202.209 139.919 202.178 138.772 201.941C137.049 201.586 135.5 200.937 134.291 199.588C133.921 199.176 133.612 198.739 133.381 198.239C133.859 196.88 134.698 195.784 135.855 194.95C137.09 194.054 138.129 194.265 138.978 195.542C139.708 196.638 139.852 197.91 140.007 199.171C140.084 199.799 140.063 200.438 140.084 201.071V201.076Z" fill="#91A7D6"/>
<path d="M163.965 202.543C163.975 204.026 163.249 204.819 161.788 204.922C161.115 204.968 160.435 204.973 159.762 205.009C159.34 205.03 159.18 204.834 159.118 204.422C158.887 202.94 158.851 201.534 159.648 200.129C160.291 199.001 160.641 197.714 161.13 196.499C161.459 195.676 161.871 195.593 162.514 196.216C162.925 196.613 163.121 197.127 163.265 197.663C163.404 198.193 163.589 198.718 163.656 199.259C163.795 200.35 163.867 201.447 163.965 202.538V202.543Z" fill="#7489C3"/>
<path d="M101.624 200.844C101.706 201.426 102.185 201.508 102.622 201.668C104.87 202.481 107.19 202.749 109.567 202.641C109.896 203.521 109.834 204.463 109.968 205.375C110.035 205.828 109.773 205.961 109.371 205.961C106.84 205.982 104.314 206.008 101.783 206.033C101.397 206.033 101.13 205.92 101.151 205.462C101.207 203.912 101.073 202.347 101.624 200.849V200.844Z" fill="#7489C3"/>
<path d="M91.6643 204.607C90.7794 204.484 90.2547 203.871 89.7505 203.258C88.4438 201.668 87.9139 199.778 87.6567 197.781C87.6156 197.446 87.5847 197.112 87.5487 196.777C87.4252 195.686 87.8265 195.052 88.8862 194.677C89.7351 194.378 90.4296 194.687 90.9337 195.66C91.6282 196.993 91.8186 198.466 91.9523 199.938C92.0089 200.566 91.9935 201.204 91.9523 201.832C91.9009 202.754 91.8752 203.681 91.6591 204.607H91.6643Z" fill="#7489C3"/>
<path d="M130.706 204.607C129.373 204.226 128.509 203.465 128.067 202.219C127.814 201.498 127.604 200.757 127.583 199.995C127.526 198.008 127.537 196.015 127.645 194.028C127.66 193.745 127.578 193.38 127.897 193.23C128.231 193.076 128.55 193.256 128.828 193.472C129.409 193.935 129.764 194.569 130.047 195.228C130.865 197.127 131.133 199.14 131.05 201.189C131.004 202.311 130.829 203.434 130.7 204.613L130.706 204.607Z" fill="#7389C3"/>
<path d="M141.823 202.394C144.091 202.744 146.37 202.991 148.67 202.908C148.675 203.881 148.685 204.854 148.69 205.827C148.69 206.378 148.505 206.692 147.878 206.682C146.015 206.651 144.148 206.702 142.291 206.569C141.859 206.538 141.555 206.455 141.576 205.925C141.622 204.746 141.457 203.552 141.823 202.399V202.394Z" fill="#7489C3"/>
<path d="M130.634 176.937C130.788 177.966 130.464 178.949 130.32 179.943C130.047 181.837 130.037 183.711 130.32 185.601C130.407 186.182 130.376 186.78 130.381 187.372C130.407 190.224 131.014 192.968 131.992 195.634C132.12 195.989 132.259 196.355 132.64 196.54C132.588 196.839 132.414 197.05 132.146 197.343C131.878 196.561 131.673 195.892 131.421 195.238C131.04 194.239 130.525 193.312 129.697 192.623C129.414 192.386 129.059 192.118 128.715 192.087C127.933 192.015 127.783 191.67 127.866 190.944C128.396 186.321 129.147 181.74 130.448 177.261C130.484 177.142 130.577 177.045 130.639 176.937H130.634Z" fill="#9DAED9"/>
<path d="M65.0365 123.521C62.0784 126.913 58.395 128.195 53.9707 127.356C53.8061 127.325 53.6363 127.32 53.4666 127.304C55.1231 125.554 57.3043 124.931 59.573 124.53C61.3942 124.21 63.2616 124.133 65.0365 123.521Z" fill="#9DAEDA"/>
<path d="M33.2436 99.6494C34.2262 100.226 35.3734 100.03 36.428 100.324C37.7399 100.684 38.9848 101.189 40.235 101.703C40.6259 101.863 41.0066 102.064 41.2484 102.44C41.4336 102.733 41.5571 103.027 41.3719 103.387C41.1712 103.778 40.8677 103.922 40.4459 103.922C40.0909 103.922 39.7977 103.752 39.4839 103.629C37.8736 102.996 36.284 102.311 34.5555 102.028C33.2488 101.812 31.9575 101.786 30.6714 102.141C31.4173 101.199 32.3073 100.396 33.2436 99.6494Z" fill="#9DAFDA"/>
<path d="M79.2093 202.286C77.5271 201.004 76.4879 199.588 76.313 197.663C76.2307 196.782 76.2204 195.897 76.2461 195.012C76.2564 194.564 76.3387 194.054 76.8995 193.91C77.4859 193.761 77.8769 194.09 78.1393 194.553C78.3656 194.955 78.5714 195.382 78.6897 195.825C79.2402 197.869 79.3945 199.943 79.2145 202.286H79.2093Z" fill="#7388C2"/>
<path d="M116.399 201.894C116.198 202.615 116.013 203.336 115.797 204.046C115.72 204.293 115.627 204.515 115.843 204.731C114.608 205.41 113.219 205.477 111.872 205.709C111.434 205.786 111.29 205.591 111.27 205.158C111.218 204.237 111.11 203.32 111.028 202.404C112.659 202.517 114.228 202.064 115.822 201.858C116.018 201.833 116.213 201.699 116.399 201.889V201.894Z" fill="#9DAFDA"/>
<path d="M99.5969 200.108C98.3468 199.835 97.5134 198.898 96.5617 198.173C95.9752 197.725 95.399 197.205 95.0183 196.53C95.4607 195.645 96.1038 194.955 97.1481 195.037C98.2233 195.12 98.6709 196.016 98.995 196.901C99.3705 197.931 99.6792 198.986 99.5969 200.108Z" fill="#90A6D5"/>
<path d="M154.015 203.408C152.966 204.355 151.87 205.246 150.666 205.992C150.296 206.224 150.301 206.394 150.712 206.543C150.368 206.698 149.92 206.976 149.982 206.255C150.141 204.463 149.982 202.672 150.002 200.88C150.383 201.318 150.229 201.853 150.234 202.342C150.234 202.934 150.45 203.187 151.057 203.166C151.86 203.135 152.662 203.161 153.465 203.161C153.686 203.161 153.881 203.218 154.015 203.408Z" fill="#9BACD6"/>
<path d="M28.3564 149.137C28.449 149.384 28.6548 149.456 28.8914 149.472C27.0188 150.579 24.9456 151.099 22.8364 151.485C22.4814 151.552 22.0698 151.629 21.7766 151.268C22.9135 150.965 24.0608 150.713 25.1771 150.352C26.2523 150.007 27.2966 149.549 28.3512 149.142L28.3564 149.137Z" fill="#DFE8F4"/>
<path d="M17.0641 156.046C16.1741 154.677 16.3542 153.354 16.5085 151.871C17.6557 152.942 17.7998 154.203 17.0641 156.046Z" fill="#7287BE"/>
<path d="M156.86 205.122C157.174 204.679 157.405 204.35 157.719 203.907C157.976 204.319 158.187 204.685 157.951 205.04C157.75 205.344 157.354 205.21 156.86 205.122Z" fill="#5F73A3"/>
<path d="M88.5311 203.917C88.6237 204.139 88.454 204.134 88.3511 204.139C88.1556 204.149 88.063 204.005 88.0167 203.835C87.9858 203.717 87.991 203.547 88.1196 203.536C88.3768 203.516 88.4385 203.753 88.5311 203.917Z" fill="#5A6B99"/>
<path d="M74.4252 162.96C74.2657 162.97 74.2142 163.099 74.1525 163.217C73.9776 163.042 73.8027 162.811 74.0496 162.641C74.1988 162.538 74.384 162.749 74.4252 162.96Z" fill="#374457"/>
<path d="M157.621 104.658C157.539 104.751 157.462 104.844 157.38 104.931C157.369 104.761 157.22 104.468 157.621 104.658Z" fill="#C8D4ED"/>
<path d="M139.528 178.095C139.343 178.708 139.173 179.269 138.88 179.784C138.505 180.443 138.139 181.102 137.769 181.76C137.707 181.869 137.646 181.982 137.568 182.08C137.064 182.744 136.488 182.965 136.097 182.651C135.665 182.306 135.639 181.776 136.118 181.06C136.802 180.041 137.219 178.883 137.846 177.838C138.299 177.091 138.921 177.045 139.338 177.673C139.426 177.807 139.472 177.972 139.523 178.09L139.528 178.095Z" fill="#9EB0DA"/>
<path d="M94.5194 168.617C94.5502 169.312 93.1715 171.367 92.549 171.552C92.2198 171.65 91.9831 171.49 91.7671 171.269C91.5819 171.073 91.4481 170.852 91.6024 170.594C92.122 169.735 92.6313 168.87 93.1972 168.041C93.403 167.737 93.7837 167.742 94.1181 167.892C94.4216 168.025 94.5142 168.303 94.5194 168.617Z" fill="#9EB0DA"/>
<path d="M162.951 124.664C162.931 124.082 162.992 123.711 163.44 123.572C163.846 123.449 164.196 123.562 164.417 123.943C164.886 124.751 165.199 125.621 165.323 126.553C165.379 126.96 165.21 127.315 164.829 127.49C164.392 127.696 164.047 127.423 163.887 127.083C163.497 126.249 163.131 125.4 162.946 124.664H162.951Z" fill="#9EB0DA"/>
<path d="M92.4668 131.768C92.2456 132.458 91.9215 133.225 91.3865 133.879C91.0881 134.244 90.6611 134.316 90.2598 134.054C89.8894 133.812 89.8688 133.41 90.0335 133.045C90.3216 132.396 90.6508 131.763 90.9749 131.13C91.2013 130.682 91.582 130.553 92.0295 130.713C92.4565 130.867 92.508 131.253 92.4719 131.773L92.4668 131.768Z" fill="#9EB0DA"/>
<path d="M152.081 161.163C151.422 161.142 151.047 160.617 151.324 160.087C151.71 159.351 152.184 158.651 152.672 157.976C152.827 157.76 153.135 157.58 153.454 157.75C153.763 157.915 154.061 158.172 153.994 158.532C153.794 159.547 153.295 160.411 152.456 161.045C152.333 161.137 152.148 161.148 152.081 161.168V161.163Z" fill="#9EB0DA"/>
<path d="M161.66 124.03C161.572 124.375 161.439 124.993 161.248 125.59C161.094 126.074 160.77 126.404 160.199 126.27C159.592 126.121 159.612 125.621 159.638 125.153C159.674 124.556 159.972 124.02 160.116 123.454C160.25 122.929 160.59 122.604 161.104 122.666C161.732 122.738 161.691 123.284 161.655 124.036L161.66 124.03Z" fill="#9EB0DA"/>
<path d="M94.509 133.683C94.509 133.472 94.509 133.389 94.509 133.302C94.509 132.777 94.509 132.236 95.2138 132.185C95.898 132.138 96.0266 132.617 96.0626 133.173C96.0935 133.673 96.3559 134.136 96.2993 134.656C96.2581 135.021 96.1501 135.315 95.7643 135.418C95.3476 135.526 95.0286 135.377 94.8023 135.011C94.5193 134.558 94.4884 134.064 94.509 133.678V133.683Z" fill="#9EB0DA"/>
<path d="M96.7882 171.418C96.675 171.804 96.675 172.391 96.212 172.762C95.9651 172.962 95.6564 173.204 95.3014 172.983C94.967 172.772 94.7201 172.489 94.8333 172.041C94.9259 171.675 95.003 171.305 95.1214 170.95C95.2808 170.476 95.6152 170.08 96.1348 170.193C96.6235 170.301 96.8396 170.754 96.7882 171.418Z" fill="#A0B1DB"/>
<path d="M121.466 140.417C121.373 140.89 121.121 141.379 120.797 141.827C120.607 142.09 120.298 142.131 119.99 142.059C119.66 141.982 119.485 141.755 119.455 141.431C119.382 140.653 119.768 140.041 120.216 139.475C120.417 139.222 120.761 139.248 121.044 139.366C121.471 139.552 121.492 139.943 121.466 140.417Z" fill="#9EB0DA"/>
<path d="M141.324 181.833C141.308 182.142 141.38 182.533 141.113 182.857C140.892 183.125 140.629 183.382 140.259 183.248C139.888 183.114 139.559 182.842 139.595 182.42C139.636 181.966 139.75 181.503 139.935 181.086C140.089 180.746 140.398 180.453 140.845 180.587C141.231 180.7 141.319 181.024 141.324 181.385C141.324 181.513 141.324 181.637 141.324 181.827V181.833Z" fill="#A0B1DB"/>
<path d="M155.507 161.544C155.116 161.575 154.694 161.184 154.679 160.767C154.653 160.154 155.193 159.289 155.641 159.294C156.083 159.305 156.469 159.495 156.536 160C156.618 160.618 156.011 161.503 155.507 161.544Z" fill="#9FB0DA"/>
<path d="M124.28 141.421C124.301 140.638 124.779 140.031 125.34 140.072C125.865 140.108 126.05 140.437 126.055 140.921C126.065 141.513 125.448 142.321 124.98 142.255C124.517 142.188 124.229 141.91 124.28 141.426V141.421Z" fill="#A0B2DB"/>
<path d="M128.056 152.123C128.066 152.556 127.567 152.993 127.027 153.029C126.436 153.065 126.086 152.798 126.076 152.293C126.06 151.753 126.575 151.248 127.12 151.264C127.567 151.279 128.051 151.722 128.061 152.123H128.056Z" fill="#A0B2DB"/>
<path d="M99.1443 172.123C99.5816 172.144 99.844 172.401 99.844 172.906C99.844 173.472 99.4633 173.894 98.9591 173.894C98.4858 173.894 98.1463 173.719 98.1051 173.194C98.0588 172.654 98.5424 172.128 99.1494 172.118L99.1443 172.123Z" fill="#9FB1DB"/>
<path d="M102.642 128.061C102.658 128.55 102.097 129.086 101.547 129.07C101.073 129.055 100.888 128.751 100.888 128.313C100.888 127.737 101.274 127.33 101.799 127.33C102.323 127.33 102.622 127.593 102.637 128.061H102.642Z" fill="#A0B2DB"/>
<path d="M145.259 181.061C145.609 181.061 146.026 181.529 146.026 181.92C146.026 182.317 145.604 182.806 145.259 182.77C144.796 182.718 144.503 182.43 144.421 181.977C144.349 181.586 144.858 181.061 145.264 181.061H145.259Z" fill="#A1B3DD"/>
<path d="M69.5738 106.774C69.5018 100.581 74.2553 95.6285 80.6241 95.6079C87.101 95.5925 91.8596 100.39 91.9162 106.738C91.9728 113.513 86.8438 118.079 80.7322 118.089C74.173 118.1 69.4092 112.957 69.5789 106.774H69.5738Z" fill="#E3AAB9"/>
<path d="M69.8361 96.787C70.2476 96.9363 70.546 96.5657 70.9216 96.5451C71.2251 96.5296 71.544 96.4936 71.6469 96.8745C71.7344 97.2092 71.5749 97.4408 71.2662 97.5798C71.1119 97.6467 70.9627 97.7291 70.8135 97.8012C69.0078 98.6146 67.4902 99.7986 66.2247 101.317C66.0652 101.513 65.8903 101.703 65.7051 101.868C65.4633 102.079 65.1906 102.172 64.9077 101.94C64.5887 101.678 64.599 101.364 64.7842 101.034C64.9797 100.674 65.3913 100.452 65.4993 99.9479C65.026 99.8913 64.5733 99.881 64.1411 99.778C61.8158 99.2169 60.2982 96.8642 60.7252 94.4344C61.1728 91.8861 63.6061 90.4086 65.8131 90.6557C68.1024 90.908 69.9081 92.8333 69.939 95.1911C69.9493 95.7368 69.7229 96.2722 69.8669 96.8231L69.8464 96.7973L69.8361 96.787Z" fill="black"/>
<path d="M77.1311 79.4791C77.059 80.3285 77.0436 81.2706 76.6784 82.1406C76.2668 83.1239 75.6392 83.9013 74.5023 84.0403C73.3808 84.1793 72.5422 83.6645 71.93 82.7533C71.6471 82.3311 71.4053 81.8832 71.0966 81.4817C69.6664 79.613 67.7681 78.6812 65.4171 78.6812C64.7278 78.6812 64.0847 78.8665 63.4982 79.2423C62.6288 79.7983 61.6925 80.0763 60.7717 79.4431C59.7016 78.712 59.254 77.6104 59.4753 76.3388C59.9022 73.8729 61.2244 72.0196 63.6011 71.1238C68.1848 69.3941 74.4354 70.9231 76.6012 76.6683C76.9356 77.5537 77.1053 78.4546 77.1311 79.4688V79.4791Z" fill="#020203"/>
<path d="M46.1715 105.163C46.1561 105.729 45.796 106.059 45.2044 105.945C44.1857 105.745 43.3472 105.147 42.6012 104.473C42.1537 104.066 42.5755 103.294 43.2443 103.186C43.9131 103.078 45.8577 104.21 46.1046 104.854C46.1509 104.967 46.1561 105.101 46.1715 105.168V105.163Z" fill="#9EB0DA"/>
<path d="M54.305 54.7892C53.878 55.7621 53.3996 56.7815 52.4582 57.4867C52.237 57.6515 51.9643 57.6 51.7688 57.4044C51.527 57.1624 51.3212 56.8741 51.4704 56.5086C51.8563 55.5717 52.4736 54.7686 53.0755 53.9706C53.2401 53.7544 53.5334 53.7647 53.7649 53.914C54.053 54.0942 54.2947 54.3258 54.305 54.7943V54.7892Z" fill="#9EB0DA"/>
<path d="M98.4189 98.0942C98.779 98.1097 99.0157 98.295 99.1546 98.5524C99.3295 98.8819 99.4581 99.2371 99.5558 99.5975C99.6536 99.9372 99.6021 100.282 99.2677 100.483C98.9076 100.699 98.5424 100.648 98.2286 100.37C97.7913 99.9836 97.6421 99.4379 97.6318 98.9076C97.6215 98.4546 97.9971 98.1921 98.4189 98.0994V98.0942Z" fill="#9FB1DB"/>
<path d="M90.4552 72.1073C90.5375 72.6788 90.1877 73.0752 89.7452 73.4304C89.56 73.5745 89.3594 73.6003 89.1691 73.4664C88.8038 73.1987 88.562 72.8744 88.7781 72.3956C88.9993 71.9066 88.809 71.1446 89.6732 71.0932C90.2751 71.0571 90.4603 71.2682 90.45 72.1073H90.4552Z" fill="#9FB0DA"/>
<path d="M102.653 99.3868C102.632 99.8758 102.272 100.174 101.814 100.035C101.238 99.8604 100.765 99.5052 100.477 98.9698C100.25 98.5528 100.708 97.8887 101.176 97.8887C101.747 97.8887 102.678 98.8359 102.653 99.3868Z" fill="#9EB0DA"/>
<path d="M92.2249 72.6631C92.2043 71.999 92.4409 71.6438 92.8885 71.6387C93.4647 71.6387 93.9843 72.2461 94.0049 72.9566C94.0254 73.5537 93.7425 73.8884 93.2332 73.8832C92.6519 73.8729 92.2454 73.3839 92.2249 72.6631Z" fill="#9FB0DA"/>
<path d="M56.1314 56.0915C56.6201 56.0966 57.0831 56.5394 57.042 56.9461C57.0008 57.3785 56.4401 58.022 56.0954 58.0375C55.6633 58.0529 55.2208 57.5793 55.2414 57.1211C55.2671 56.4982 55.6273 56.0812 56.1314 56.0915Z" fill="#9FB1DB"/>
<path d="M123.004 33.6926C123.231 32.7197 123.653 31.618 124.234 30.5832C124.399 30.2846 124.712 30.0478 125.088 30.1868C125.53 30.3516 125.803 30.7994 125.7 31.1958C125.407 32.2975 125.026 33.3735 124.604 34.4339C124.44 34.8458 124.018 35.0466 123.539 34.9127C123.004 34.7634 123.004 34.3258 123.01 33.6926H123.004Z" fill="#9DAFDA"/>
<path d="M129.291 33.6615C129.275 33.749 129.275 33.8416 129.239 33.9086C128.704 34.8146 128.139 35.7001 127.279 36.3436C126.991 36.5598 126.631 36.5392 126.338 36.3076C126.034 36.0656 126.004 35.7207 126.132 35.3861C126.487 34.4594 127.259 33.8313 127.871 33.1003C128.118 32.8017 128.576 32.8378 128.931 33.0334C129.157 33.1569 129.255 33.4092 129.296 33.6615H129.291Z" fill="#9EB0DA"/>
<path d="M132.13 116.236C132.202 116.854 132.028 117.096 131.683 117.261C131.343 117.42 131.132 117.24 130.901 117.044C130.134 116.391 129.769 115.484 129.419 114.584C129.27 114.197 129.424 113.842 129.815 113.626C130.093 113.472 130.397 113.384 130.633 113.626C131.421 114.419 131.858 115.412 132.13 116.241V116.236Z" fill="#9EB0DA"/>
<path d="M135.135 89.4045C135.166 89.7957 134.764 90.1715 134.317 90.1818C133.72 90.1921 131.894 88.8588 131.77 88.2719C131.683 87.86 131.873 87.5306 132.3 87.407C132.974 87.2062 135.078 88.7043 135.135 89.4096V89.4045Z" fill="#9EB0DA"/>
<path d="M136.961 86.9953C136.961 87.402 136.452 87.9271 136.03 87.8344C135.336 87.6851 134.651 87.4792 133.993 87.2115C133.689 87.088 133.509 86.7276 133.597 86.3621C133.689 85.976 133.905 85.5899 134.348 85.6414C135.13 85.734 135.938 85.8267 136.586 86.3621C136.781 86.5268 136.941 86.7224 136.956 86.9953H136.961Z" fill="#9FB1DB"/>
<path d="M144.868 72.0868C144.884 72.6479 144.354 73.0804 143.85 72.8127C143.274 72.5089 142.697 72.1434 142.327 71.5669C142.126 71.258 142.116 70.9542 142.327 70.6351C142.522 70.3416 142.8 70.3159 143.093 70.3365C143.695 70.3828 144.848 71.5308 144.863 72.092L144.868 72.0868Z" fill="#9EB0DA"/>
<path d="M134.672 113.585C134.698 114.156 134.08 114.723 133.669 114.537C133.185 114.321 132.691 114.053 132.357 113.611C132.105 113.276 132.069 112.9 132.347 112.576C132.635 112.231 133.026 112.061 133.453 112.339C133.977 112.679 134.451 113.075 134.672 113.585Z" fill="#9FB1DB"/>
<path d="M133.648 47.4224C133.658 47.8034 133.514 48.0196 133.309 48.1638C133 48.38 132.666 48.555 132.336 48.7352C131.987 48.9257 131.616 49.0595 131.318 48.6734C131.035 48.3028 131.014 47.8343 131.292 47.4997C131.668 47.0415 132.228 46.7583 132.82 46.7223C133.293 46.6914 133.514 47.1136 133.648 47.4224Z" fill="#9FB1DB"/>
<path d="M133.926 51.242C133.926 51.7001 133.674 51.9678 133.17 52.009C132.588 52.0554 132.208 51.7928 132.187 51.2986C132.172 50.7889 132.434 50.5264 132.943 50.4852C133.53 50.4389 133.895 50.7014 133.931 51.2471L133.926 51.242Z" fill="#A0B3DD"/>
<path d="M141.812 106.362C141.833 106.908 141.519 107.232 141.036 107.207C140.583 107.186 140.341 106.939 140.315 106.491C140.29 106.007 140.609 105.688 141.092 105.708C141.545 105.729 141.782 105.976 141.812 106.362Z" fill="#9FB2DC"/>
<path d="M31.9369 41.4044C31.9369 41.5743 31.9523 41.7442 31.9369 41.9141C31.9009 42.3002 31.6797 42.537 31.2938 42.5833C30.9183 42.6297 30.5788 42.501 30.4759 42.1303C30.2598 41.3581 30.0746 40.5807 29.9409 39.7931C29.8637 39.3504 30.1981 39.093 30.5891 38.9694C31.0366 38.8253 31.3607 39.0569 31.4945 39.4482C31.7105 40.0814 31.8546 40.7403 32.0244 41.3941C31.9935 41.3993 31.9678 41.4044 31.9369 41.4147V41.4044Z" fill="#9DAFDA"/>
<path d="M18.9367 32.416C18.9264 32.7918 18.7978 33.0131 18.5406 33.1007C18.129 33.2397 17.6609 33.2963 17.3779 32.9102C16.9612 32.3336 16.6165 31.6952 16.4519 30.9951C16.3542 30.5781 16.6114 30.2744 16.9355 30.0427C17.1824 29.8677 17.4448 29.9501 17.63 30.1199C18.3451 30.7635 18.5509 31.6901 18.9316 32.4211L18.9367 32.416Z" fill="#9EB0DA"/>
<path d="M13.7924 32.4313C14.5229 32.6527 15.2277 33.0954 15.7833 33.7389C16.02 34.0066 15.984 34.3773 15.773 34.6759C15.5827 34.9436 15.2792 35.0208 14.9859 34.9333C14.2143 34.6964 13.5558 34.2486 13.0207 33.6462C12.815 33.4146 12.8355 33.0954 12.9693 32.8123C13.1133 32.5085 13.3809 32.4159 13.7924 32.4313Z" fill="#9EB0DA"/>
<path d="M9.49674 76.4316C8.79195 76.2359 8.07687 75.9168 7.5367 75.2887C7.35664 75.0828 7.30005 74.8614 7.43381 74.5989C7.583 74.3157 7.77334 74.1201 8.11288 74.1458C8.98744 74.2076 9.69223 74.6658 10.3662 75.1548C10.6594 75.3711 10.6337 75.7572 10.4588 76.0763C10.2684 76.4264 9.92373 76.4367 9.49674 76.4264V76.4316Z" fill="#9EB0DA"/>
<path d="M9.53276 103.675C8.98745 103.675 8.5193 103.706 8.36497 103.186C8.22092 102.676 8.60161 102.403 8.96687 102.192C9.48132 101.899 10.0421 101.703 10.6285 101.636C11.0298 101.595 11.4053 101.672 11.5442 102.12C11.6677 102.527 11.57 102.892 11.179 103.098C10.6234 103.392 10.0884 103.762 9.52762 103.675H9.53276Z" fill="#9EB0DA"/>
<path d="M9.98034 100.344C9.38358 100.252 8.87942 99.8912 8.47815 99.3764C8.23122 99.0572 8.27752 98.7484 8.53474 98.4652C8.8074 98.1615 9.11607 97.9659 9.53277 98.2078C9.89803 98.4189 10.253 98.6454 10.6183 98.8513C11.0607 99.0984 11.1841 99.4794 11.0092 99.9221C10.8395 100.355 10.4382 100.37 9.98034 100.344Z" fill="#9EB0DA"/>
<path d="M14.4714 54.547C13.6997 54.5264 13.1235 54.0785 13.139 53.5122C13.1544 52.9871 13.5042 52.7452 14.2142 52.7709C14.9241 52.7966 15.4025 53.2085 15.3974 53.7851C15.3974 54.2896 15.0681 54.5573 14.4714 54.5418V54.547Z" fill="#A0B1DB"/>
<path d="M35.7952 40.0605C36.2634 40.0811 36.7984 40.7246 36.7367 41.224C36.6749 41.6925 36.3354 41.8315 35.9187 41.8315C35.3991 41.8315 35.0184 41.4093 35.0081 40.8379C35.003 40.3488 35.3168 40.0399 35.7952 40.0605Z" fill="#9FB1DB"/>
<path d="M9.56357 96.7097C9.54814 96.1177 9.84137 95.7728 10.3558 95.7934C10.8857 95.8191 11.0863 96.1434 11.0915 96.6325C11.1018 97.2245 10.8137 97.5643 10.2992 97.5488C9.82594 97.5334 9.579 97.2502 9.56357 96.7097Z" fill="#9EB0DA"/>
<path d="M16.8122 51.8806C16.8122 52.2718 16.3955 52.7403 16.0456 52.7403C15.6392 52.7403 15.1299 52.2152 15.2019 51.824C15.2842 51.3761 15.5775 51.0826 16.0405 51.0312C16.3852 50.9951 16.807 51.4893 16.807 51.8806H16.8122Z" fill="#A1B3DD"/>
<path d="M69.8362 96.7867C69.8722 96.8794 69.8362 96.936 69.7436 96.9412C69.7281 96.9412 69.6921 96.8742 69.6973 96.8485C69.723 96.7455 69.7847 96.7352 69.8568 96.8176L69.8362 96.7919V96.7867Z" fill="#C8D4ED"/>
<path d="M61.6822 74.3569C62.5927 72.7044 64.1721 72.1381 65.8749 71.8807C67.2176 71.6799 68.5758 71.7623 69.903 72.1175C73 72.9412 75.4745 75.7726 75.7883 78.8872C75.8861 79.8653 75.7986 80.8434 75.4179 81.7546C74.8983 82.985 74.0855 83.0931 73.1338 82.0944C72.3467 80.4213 71.8837 78.5886 70.5204 77.1986C69.1571 75.8086 67.5674 75.299 65.6743 75.6645C64.9232 75.8086 64.1927 76.0403 63.4364 76.1227C62.2018 76.2565 61.5639 75.5924 61.6822 74.362V74.3569Z" fill="#91A7D6"/>
<path d="M61.6822 74.3569C61.9394 75.6285 62.4899 75.9992 63.6886 75.7315C64.2648 75.6028 64.8564 75.541 65.4223 75.3865C67.9842 74.6813 69.9185 75.7212 71.4001 77.6774C72.3673 78.9541 73.0361 80.4316 73.139 82.0893C72.6914 81.801 72.5525 81.281 72.2541 80.8795C70.5976 78.6092 68.3495 77.4972 65.5612 77.4561C64.6146 77.4406 63.7657 77.8267 62.9015 78.1665C62.4282 78.3467 61.8983 78.7585 61.3736 78.254C60.854 77.7495 60.6379 77.1266 60.8077 76.411C60.9826 75.68 61.1369 74.9335 61.6822 74.3569Z" fill="#7489C3"/>
</g>
</g>
<defs>
<clipPath id="clip0_1001_4753">
<rect width="188" height="322" fill="white"/>
</clipPath>
<clipPath id="clip1_1001_4753">
<rect width="206" height="185" fill="white" transform="translate(0 23)"/>
</clipPath>
</defs>
</svg>
