<svg width="206" height="185" viewBox="0 0 206 185" fill="none" xmlns="http://www.w3.org/2000/svg">
<g clip-path="url(#clip0_1396_7393)">
<path d="M191.503 90.5851C191.56 90.1115 191.596 89.6945 191.668 89.2775C192.059 86.8991 193.911 85.8643 196.159 86.7189C197.409 87.1977 198.422 87.9956 199.338 88.9377C200.753 87.3727 201.874 87.347 203.325 88.8038C204.4 89.8849 205.048 91.2131 205.419 92.6649C206.19 95.7228 206.226 98.8116 205.419 101.849C204.431 105.576 202.795 108.989 200.105 111.831C198.448 113.581 196.431 114.817 194.276 115.831C193.298 116.289 192.568 116.907 191.961 117.859C189.049 122.415 182.948 124.269 178.235 122.122C177.7 121.88 177.186 121.571 176.697 121.242C176.214 120.912 175.781 120.511 175.21 120.052C174.845 121.875 174.49 123.594 174.161 125.314C173.472 128.892 172.654 132.439 171.738 135.96C171.553 136.665 171.481 137.37 171.481 138.096C171.491 145.437 171.908 152.758 172.273 160.089C172.463 163.945 172.592 167.801 172.839 171.651C172.962 173.608 172.839 175.548 172.35 177.458C171.8 179.631 170.493 181.134 168.404 181.937C166.537 182.653 164.597 183.049 162.606 183.219C160.662 183.384 158.722 183.507 156.768 183.523C155.965 183.528 155.188 183.698 154.432 184.027C152.945 184.676 151.366 184.964 149.74 184.985C145.841 185.031 141.941 185 138.052 184.702C135.433 184.501 132.887 183.95 130.402 183.028C127.768 182.055 126.528 180.14 126.312 177.463C126.096 174.838 126.256 172.207 126.431 169.587C126.688 165.736 127.295 161.937 128.113 157.994C125.51 158.344 122.984 158.313 120.535 157.88C120.154 158.143 120.298 158.467 120.309 158.735C120.448 162.462 120.473 166.194 120.628 169.927C120.746 172.758 120.597 175.595 120.031 178.4C119.475 181.155 117.829 182.781 115.159 183.481C112.561 184.166 109.896 184.321 107.237 184.439C103.378 184.609 99.5198 184.439 95.6769 184.146C93.8301 184.001 91.9626 183.729 90.3524 182.668C89.9923 182.431 89.6322 182.478 89.2566 182.472C87.0085 182.442 84.7758 182.241 82.5534 181.942C80.2487 181.633 78.268 180.696 76.7453 178.884C75.6135 177.541 74.9601 176.037 74.9293 174.256C74.8624 170.102 74.8778 165.942 74.6978 161.793C74.4251 155.522 74.1422 149.257 73.3859 143.018C73.2059 141.546 72.9384 140.089 72.5628 138.652C72.4239 138.122 72.2644 137.602 71.9043 137.154C68.6942 133.134 66.5644 128.547 64.8667 123.728C63.4417 119.687 62.3408 115.569 61.672 111.332C61.6308 111.079 61.5382 110.837 61.5228 110.585C61.4971 110.05 61.2244 109.89 60.71 109.859C59.4856 109.787 58.2612 109.674 57.042 109.54C55.1899 109.339 53.3791 108.902 51.6094 108.33C51.0281 108.145 50.8789 108.31 50.7554 108.825C50.2667 110.858 50.2255 112.938 50.0043 115.002C49.7111 117.782 49.5002 120.572 48.8828 123.311C47.3241 130.215 43.0799 134.709 36.5207 137.149C31.8032 138.905 27.0651 138.724 22.3219 137.329C20.8249 136.887 19.3742 136.295 17.9183 135.733C16.9768 135.368 16.4058 134.755 15.9479 133.896C15.2174 132.531 15.0116 131.1 15.1917 129.587C15.2534 129.082 15.4232 128.609 15.6341 128.135C15.9325 127.476 16.3492 127.213 17.1106 127.239C20.367 127.347 23.5 126.683 26.5095 125.458C28.3307 124.717 29.9357 123.646 31.3248 122.23C32.8527 120.665 33.6655 118.781 33.7272 116.644C33.8558 112.207 32.8887 108.068 30.0181 104.531C29.1075 103.414 28.2226 102.276 27.3224 101.154C26.2317 99.7898 25.3675 98.2865 24.6164 96.7164C23.8807 95.1668 23.428 93.5452 23.4794 91.8155C23.4949 91.3212 23.3508 90.9454 23.073 90.5387C22.4094 89.5606 21.8229 88.5259 21.1593 87.4396C20.578 87.4087 20.0224 87.7382 19.4359 87.9132C17.7279 88.4229 16.0148 88.7935 14.2245 88.9068C8.63764 89.2723 3.67837 84.5104 2.953 79.5322C2.40769 75.7947 3.25138 72.2889 4.65582 68.8809C5.72073 66.2915 7.1406 63.8822 8.48331 61.4317C8.64793 61.1331 8.79712 60.8345 8.96174 60.5359C9.16238 60.1756 9.09036 59.9027 8.73024 59.6865C8.25695 59.4034 7.79909 59.0997 7.33609 58.8011C3.65265 56.3866 1.33764 52.9941 0.339613 48.7315C-0.360035 45.7405 0.113257 42.7958 1.30677 40.0313C2.89127 36.3505 5.07767 33.0248 7.90198 30.1625C8.401 29.658 8.29811 29.3852 7.97915 28.9064C5.88535 25.7764 4.45519 22.3581 3.6115 18.6927C2.94786 15.8046 2.79353 12.8805 3.57034 10.0028C4.93362 4.85474 8.39071 1.84828 13.5146 0.798084C17.9954 -0.123415 22.3734 0.576718 26.597 2.16231C35.7336 5.59091 42.8741 11.5523 48.3118 19.6142C49.4076 21.241 48.8931 21.0968 50.7554 20.479C56.1108 18.703 61.5897 17.8844 67.2383 18.1264C74.0804 18.4198 80.6191 19.9128 86.8542 22.7442C87.7956 23.1715 87.7956 23.1612 88.4284 22.3375C93.2847 16.0054 99.2266 10.8779 106.002 6.71833C110.071 4.22153 114.578 2.75949 119.182 1.62177C123.678 0.504646 128.252 -0.102823 132.887 0.0155818C137.146 0.118543 141.103 1.19448 144.776 3.49051C149.91 6.70289 152.667 13.1791 150.872 19.537C150.044 22.4662 148.655 25.102 147.07 27.6709C145.789 29.7455 145.645 29.1895 147.6 30.8266C151.824 34.3685 154.422 38.873 154.833 44.3454C155.26 50.0185 153.393 54.94 148.835 58.6209C148.181 59.146 147.533 59.6814 146.89 60.2065C147.029 60.6492 147.399 60.7161 147.662 60.8963C149.442 62.1113 150.826 63.6969 152.029 65.4626C154.843 69.5914 156.654 74.1062 157.189 79.0946C157.282 79.9389 157.539 80.3662 158.434 80.6339C161.835 81.6481 164.587 83.7588 167.206 86.0702C172.258 90.5233 174.84 96.2016 175.653 102.796C176.244 107.615 176.368 112.439 175.612 117.247C175.473 118.127 175.745 118.704 176.332 119.26C179.136 121.895 182.387 122.209 185.89 121.056C186.858 120.737 187.717 120.191 188.55 119.599C190.592 118.143 191.539 116.171 191.693 113.674C191.873 110.817 191.369 108.114 190.34 105.473C189.553 103.465 188.658 101.499 188 99.4397C187.475 97.8078 187.192 96.145 187.583 94.4358C187.67 94.0651 187.737 93.6842 187.881 93.3341C188.535 91.7176 189.409 90.3637 191.493 90.5851H191.503Z" fill="black"/>
<path d="M86.6689 140.464C86.2368 136.428 85.7481 132.397 84.8426 128.433C84.7089 127.857 84.534 127.29 84.3539 126.729C84.2665 126.456 84.0195 126.343 83.7469 126.4C83.4639 126.456 83.3096 126.667 83.3353 126.951C83.3662 127.244 83.4485 127.527 83.4999 127.815C84.1018 130.971 84.6831 134.132 84.8889 137.344C84.4722 137.844 84.4568 137.864 83.9012 137.571C82.6562 136.917 81.5399 136.063 80.4956 135.136C74.2399 129.571 70.2015 122.626 67.8762 114.636C67.4595 113.2 67.6601 112.902 69.1211 112.701C77.4912 111.542 84.4928 107.666 90.517 101.88C92.1632 100.299 94.1335 99.0739 95.5534 97.2515C97.4672 95.3107 99.2934 93.2927 100.945 91.1202C101.506 90.7598 101.809 91.2489 102.133 91.5269C106.527 95.285 111.182 98.6621 116.316 101.334C123.035 104.824 130.068 107.089 137.759 106.533C144.241 106.065 149.143 103.038 152.348 97.3339C152.657 96.7831 152.95 96.2168 153.274 95.6711C155.986 91.913 156.917 87.5835 157.308 83.079C157.328 82.8679 157.354 82.662 157.375 82.4509C157.642 82.3685 157.884 82.4509 158.1 82.5848C162.57 85.3956 166.773 88.4999 169.716 93.0301C171.872 96.3403 172.474 100.098 172.911 103.898C173.05 105.107 173.168 106.333 173.219 107.563C173.492 113.576 172.52 119.47 171.568 125.365C170.421 132.454 168.451 139.347 166.285 146.163C163.723 154.24 161.331 162.359 159.201 170.56C158.429 173.525 157.339 176.372 155.595 178.92C155.152 179.569 154.828 180.367 153.928 180.562C153.053 180.526 152.173 180.557 151.299 180.537C150.44 180.516 149.966 180.207 150.075 179.244C150.126 178.802 150.177 178.328 149.992 177.885C149.817 176.588 149.637 175.291 149.21 174.045C148.922 173.195 148.526 172.408 147.857 171.79C146.906 170.905 145.645 170.714 144.462 171.265C143.51 171.708 142.79 172.397 142.281 173.309C141.972 173.86 141.694 174.421 141.406 174.982C140.969 174.879 141.108 174.513 141.051 174.261C140.84 173.35 140.557 172.47 140.012 171.697C138.726 169.875 136.905 169.556 135.078 170.838C134.06 171.553 133.345 172.552 132.624 173.545C132.12 173.587 132.012 173.195 131.853 172.851C130.824 170.596 130.201 168.228 130.032 165.757C129.764 161.798 129.414 157.829 130.623 153.942C131.302 151.059 132.285 148.263 133.304 145.489C134.322 142.709 135.433 139.965 136.622 137.252C136.786 136.871 136.992 136.49 137.002 136.047C137.002 135.754 136.853 135.553 136.596 135.476C136.38 135.414 136.169 135.543 136.056 135.728C135.907 135.98 135.809 136.263 135.691 136.536C134.502 139.29 133.314 142.045 132.12 144.804C131.745 145.458 131.102 145.659 130.417 145.756C127.243 146.209 124.059 146.575 120.844 146.431C120.17 146.4 119.485 146.343 118.976 145.803C118.235 141.509 117.217 137.283 115.663 133.205C115.529 132.85 115.421 132.485 115.257 132.14C115.005 131.604 114.609 131.537 114.135 131.877C113.538 132.238 113.785 132.768 113.893 133.241C115.041 138.456 115.895 143.723 116.615 149.015C117.114 152.665 117.217 156.351 117.572 160.011C118.03 164.681 117.356 169.314 117.474 173.968C117.515 175.615 117.474 177.355 116.615 178.899C115.277 179.435 113.857 179.584 112.443 179.744C111.939 179.8 111.434 179.764 111.013 179.414C110.622 178.163 110.503 176.845 110.056 175.61C109.665 174.529 109.253 173.468 108.523 172.567C107.087 170.796 105.493 170.591 103.656 171.95C102.483 172.82 101.583 173.916 100.981 175.244C100.518 175.095 100.662 174.735 100.58 174.482C100.333 173.715 100.086 172.953 99.633 172.274C98.4086 170.436 96.3508 170.189 94.7457 171.697C94.4679 171.955 94.2261 172.248 93.9638 172.526C93.2333 172.609 92.9452 172.027 92.5799 171.579C90.2443 168.717 88.9376 165.406 88.31 161.798C87.6104 157.787 87.3994 153.731 87.2811 149.674C87.1937 146.595 86.9467 143.532 86.6535 140.469L86.6689 140.464Z" fill="#C8D4ED"/>
<path d="M18.7515 130.292C18.5612 129.751 18.3708 129.216 18.1599 128.608C19.4203 128.49 20.5984 128.382 21.7816 128.268C23.5616 128.315 25.1975 127.702 26.8232 127.11C27.4868 126.868 28.1556 126.616 28.773 126.256C30.6353 125.236 32.4152 124.135 33.7682 122.415C36.1707 119.373 36.8549 115.959 36.0421 112.248C35.1521 108.165 33.4647 104.484 30.5118 101.411C28.4437 99.254 26.8849 96.7315 25.8663 93.8949C25.0329 91.568 25.0535 89.2668 25.9486 86.9554C26.1287 86.4921 26.3962 86.0442 26.3756 85.5139C26.3808 85.1896 26.566 84.9528 26.7718 84.7211C27.8727 83.8254 29.1845 83.5268 30.5478 83.3981C33.6859 83.1046 36.6131 83.7636 39.314 85.3904C41.0168 86.42 42.7659 87.3827 44.2269 88.7623C44.4121 88.9374 44.6128 89.097 44.8443 89.1999C45.0809 89.3029 45.3381 89.3904 45.5594 89.1948C45.7806 88.9991 45.7343 88.7366 45.6417 88.4895C45.4719 88.0416 45.1684 87.6864 44.8031 87.393C42.4161 85.4573 39.8233 83.8717 36.9578 82.7546C34.6428 81.8485 32.23 81.9412 29.807 82.1214C29.344 82.1574 28.6546 82.5384 28.5826 81.5911C29.1742 80.6902 29.8379 79.8459 30.6661 79.1458C31.7722 78.2243 33.0686 78.528 34.3033 78.6516C35.6923 78.7957 37.0041 79.2951 38.3057 79.7944C38.7378 79.9643 39.1596 80.1548 39.6021 80.299C40.0805 80.4534 40.703 80.7211 40.9396 80.1239C41.1711 79.537 40.5332 79.2539 40.0959 79.0531C38.4497 78.2912 36.7623 77.6426 34.936 77.4161C34.3135 77.3388 33.5573 77.4469 33.2332 76.6541C34.7302 75.2127 36.361 73.9308 38.0999 72.788C38.3468 72.6284 38.5989 72.4688 38.8252 72.2783C39.0465 72.093 39.1082 71.8407 38.9178 71.6039C38.7532 71.4031 38.5372 71.2641 38.2542 71.4186C37.6677 71.7378 37.0813 72.0518 36.3971 72.4224C36.2839 71.6811 36.2993 71.017 36.073 70.389C35.3733 68.4121 34.2724 67.6039 32.1786 67.6399C31.8391 67.6451 31.5047 67.6811 31.1651 67.7068C30.6713 67.954 30.4449 67.5987 30.3214 67.2487C29.6321 65.2718 29.1691 63.2332 28.8656 61.1637C28.8141 60.8188 29.0405 60.5253 29.1022 60.1959C29.4623 59.6244 29.7761 59.0221 30.1877 58.4919C31.6487 56.5974 33.5779 55.6295 35.9958 55.7016C36.5977 55.7171 37.1687 55.8715 37.678 56.201C38.5835 56.7827 39.5455 57.1173 40.5126 56.4532C41.5827 55.7222 42.0251 54.6154 41.7988 53.3438C41.346 50.8316 39.9776 49.0092 37.5391 48.0877C35.2756 47.2331 32.9863 47.3515 30.6918 47.959C30.4501 48.0259 30.2031 48.0928 29.9613 48.1597C29.236 48.1597 29.4109 47.6089 29.488 47.2588C30.9645 40.6384 33.1869 34.3527 37.7758 29.1532C38.6195 28.2523 39.6226 27.5521 40.6412 26.8777C45.7291 23.5058 51.2954 21.3024 57.2733 20.1132C57.3916 20.0875 57.5254 20.1235 57.6489 20.1287C60.4269 20.0411 63.1895 19.6499 65.9778 19.758C74.3478 20.0875 82.2394 22.1106 89.3131 26.6976C93.619 29.4929 96.8343 33.3746 99.3036 37.8637C102.75 44.1237 105.096 50.7698 106.105 57.8535C106.871 63.2332 106.634 68.5769 105.41 73.8793C104.484 77.8897 103.383 81.8382 101.521 85.5448C100.23 88.1137 98.5474 90.3891 96.6902 92.5359C92.4615 97.4162 87.3839 101.138 81.3957 103.614C77.1052 105.391 72.6913 106.76 68.0921 107.326C62.9117 107.965 57.7055 108.062 52.5558 106.899C52.2729 106.832 51.9642 106.817 51.7224 106.611C52.1031 105.689 52.6896 104.932 53.4664 104.309C53.9037 104.109 54.3564 104.14 54.8246 104.196C58.1787 104.582 61.1368 103.671 63.6988 101.468C64.1155 101.107 64.5939 100.845 65.0363 100.531C65.7154 100.037 66.3636 99.2232 67.089 99.1511C67.7269 99.0842 68.4368 99.877 69.1416 100.237C69.7024 100.526 70.2888 100.778 70.9319 100.84C71.2971 100.876 71.647 100.814 71.7601 100.428C71.8939 99.9799 71.6058 99.7122 71.22 99.5578C70.9062 99.4342 70.5718 99.3673 70.2631 99.2437C68.3031 98.451 66.7957 97.1794 65.9315 95.2077C65.6588 94.5796 65.4839 93.9361 65.4736 93.2463C65.4736 92.994 65.4736 92.7366 65.4582 92.4844C65.4376 92.0416 65.3913 91.5886 64.7997 91.6041C64.2081 91.6195 64.1926 92.1086 64.1721 92.5256C64.1155 93.5912 64.2801 94.626 64.6711 95.6298C65.026 96.5513 65.5919 97.3338 66.1938 98.1318C65.3707 99.1717 64.2286 99.5526 63.0094 99.7843C61.3117 100.103 59.5626 100.083 57.8804 100.531C57.474 100.639 57.0624 100.706 56.6508 100.793C49.0885 102.219 44.6128 106.853 42.7608 114.194C42.2823 116.083 41.8913 117.993 41.593 119.918C40.4818 127.095 34.1335 130.842 29.3851 131.862C26.0207 132.582 22.8311 131.779 19.6261 130.981C19.2454 130.889 18.9161 130.698 18.7567 130.307L18.7515 130.292Z" fill="#C8D4ED"/>
<path d="M140.583 100.541C140.171 100.834 139.693 100.747 139.235 100.773C133.134 101.123 127.326 99.8306 121.698 97.5912C119.074 96.5513 116.491 95.4187 113.899 94.3016C112.427 93.6684 111.033 92.8962 109.757 91.9181C109.413 91.4496 109.557 90.9605 109.67 90.456C110.771 85.7507 111.856 81.0403 112.407 76.232C113.451 67.1508 113.343 58.1418 110.74 49.2768C108.127 40.3707 103.733 32.5714 96.639 26.4607C95.1059 25.1377 93.4134 23.9845 91.5871 23.063C91.0984 22.8159 90.409 22.6821 90.4553 21.8841C93.0224 18.6563 96.0114 15.8455 99.1958 13.2406C103.378 9.82225 107.797 6.8055 112.932 4.97795C117.443 3.37176 122.048 2.20315 126.827 1.70894C129.363 1.44639 131.899 1.32798 134.43 1.52876C136.354 1.6832 138.299 1.87368 140.069 2.77973C141.91 3.89686 143.721 5.03457 145.249 6.60473C148.583 10.0333 150.286 16.4066 147.42 21.4311C146.726 22.646 146.041 23.861 145.29 25.045C144.673 26.018 144.23 27.0527 144.184 28.2471C144.138 29.4775 144.606 30.3938 145.445 31.2844C149.853 35.9692 152.359 41.4673 151.757 47.9898C151.422 51.6295 149.426 54.569 146.69 56.9732C146.499 57.143 146.288 57.282 146.093 57.4468C143.942 59.2795 144.297 60.4275 145.877 62.0337C150.471 66.703 153.604 72.0981 154.195 78.8626C154.576 83.1664 154.051 87.2231 152.456 91.1819C150.419 96.227 146.618 99.1408 141.355 100.263C141.092 100.32 140.758 100.212 140.573 100.526L140.583 100.541Z" fill="#C8D4ED"/>
<path d="M17.949 86.7548C17.306 87.0585 16.6269 87.2181 15.917 87.249C10.2323 87.5167 4.45508 80.6492 5.79264 73.6479C6.50257 69.9104 8.14881 66.5951 9.98538 63.3364C10.3609 62.6723 10.6799 61.9773 10.9834 61.2772C11.7551 59.5062 11.5493 58.7083 10.0471 57.5345C9.04394 56.752 8.02534 56.0056 7.0839 55.1407C2.91174 51.3208 2.09891 46.6928 3.66797 41.4418C4.67629 38.0698 6.63119 35.2744 8.89475 32.6592C10.5101 30.7905 10.649 30.0388 9.38348 27.9127C7.72696 25.1173 6.59518 22.1109 5.6846 19.0117C5.08785 16.9731 4.94895 14.8779 5.0827 12.7363C5.43767 7.0065 11.0914 2.42475 16.4108 2.27031C17.095 2.24971 17.7895 2.15705 18.4017 2.16734C17.2648 1.8945 16.025 2.74393 14.8212 1.99746C16.5291 1.55473 18.2628 1.66284 19.9759 1.90479C27.3891 2.9447 33.6191 6.45566 39.2163 11.2382C41.5467 13.2253 43.6354 15.4441 45.4874 17.8843C45.7652 18.2498 46.115 18.5793 46.2487 19.0426C46.0584 19.6501 45.4925 19.8148 45.0141 20.0516C34.9361 25.0864 27.9756 33.0196 23.6028 43.2848C22.0697 46.8884 21.4936 50.77 21.0871 54.6671C20.7785 57.6323 20.9328 60.5925 20.8402 63.5577C20.763 65.9825 20.3618 68.3712 19.6416 70.6878C18.659 73.8538 17.9079 77.0611 17.5941 80.3712C17.4294 82.0855 17.6867 83.7535 17.9799 85.4215C18.0571 85.8642 18.304 86.3224 17.9542 86.76L17.949 86.7548Z" fill="#C8D4ED"/>
<path d="M90.4604 21.8894C90.6405 22.3373 91.0778 22.4454 91.4482 22.6359C94.0718 23.9589 96.392 25.6784 98.4961 27.7325C100.893 30.0748 103.106 32.5665 104.932 35.3721C106.804 38.2499 108.26 41.349 109.5 44.5511C110.658 47.5473 111.532 50.6258 112.15 53.7815C112.875 57.5139 113.533 61.2411 113.358 65.0661C113.297 66.3788 113.348 67.6915 113.348 69.0043C113.348 70.6105 113.091 72.1909 112.89 73.7765C112.746 74.904 112.777 76.0417 112.633 77.1794C112.294 79.8564 111.8 82.5025 111.229 85.1331C110.74 87.3931 110.251 89.6582 109.762 91.9182C107.71 90.8166 105.827 89.4523 103.918 88.1241C103.332 87.7123 103.347 87.3777 103.646 86.7856C105.575 82.9915 106.923 78.9967 107.617 74.7907C107.916 72.9889 108.055 71.1716 108.147 69.3544C108.543 61.4933 108.209 53.6889 105.976 46.0698C104.366 40.5717 101.938 35.4854 98.1514 31.1199C95.821 28.4377 92.9709 26.394 90.018 24.4737C89.7351 24.2884 89.4418 24.1185 89.1589 23.9332C89.092 23.892 89.0457 23.8148 88.9634 23.7221C89.3698 23.0426 89.8688 22.4248 90.4656 21.8843L90.4604 21.8894Z" fill="#9DAEDA"/>
<path d="M18.7516 130.292C20.4492 130.966 22.2292 131.301 24.0246 131.548C24.6471 131.635 25.249 131.815 25.8972 131.826C29.6321 131.867 32.9554 130.724 35.9187 128.474C37.0299 127.63 38.069 126.714 38.9076 125.571C40.2966 123.676 40.9345 121.514 41.3615 119.254C41.6805 117.555 42.0251 115.862 42.3853 114.173C42.9563 111.481 44.0521 108.989 45.7343 106.842C48.1419 103.769 51.1926 101.56 55.1281 100.819C55.622 100.726 56.1416 100.788 56.6457 100.778C56.4194 101.071 56.049 101.076 55.7454 101.205C52.0569 102.791 49.9579 105.622 49.2377 109.519C48.8056 111.856 48.7593 114.235 48.4969 116.593C48.1625 119.62 47.8487 122.647 46.8146 125.55C45.2816 129.859 42.3647 132.86 38.3468 134.899C32.976 137.622 27.4663 137.658 21.864 135.764C20.7065 135.373 19.5695 134.914 18.4275 134.477C18.3143 134.436 18.2268 134.333 18.0776 134.225C18.6178 132.969 18.9059 131.666 18.7567 130.292H18.7516Z" fill="#9DAED9"/>
<path d="M95.5585 97.2466C94.8845 98.5593 93.6859 99.4036 92.6518 100.377C92.194 100.804 91.6795 101.19 91.2423 101.643C88.1864 104.804 84.647 107.347 80.7784 109.37C77.7123 110.971 74.4301 112.109 70.9936 112.752C69.975 112.943 68.8741 112.819 67.8864 113.406C68.4934 116.016 69.4348 118.498 70.5203 120.922C71.8579 123.903 73.4733 126.74 75.4847 129.309C77.9438 132.449 80.691 135.311 84.1635 137.381C84.4464 137.551 84.6676 137.71 84.894 137.34C85.2181 138.704 85.2181 140.104 85.3158 141.494C85.4187 142.971 85.4187 144.459 85.4547 145.942C85.4547 146.143 85.5165 146.359 85.321 146.508C85.2284 146.508 85.1306 146.539 85.074 146.508C77.2442 141.926 71.2354 135.708 67.7063 127.239C65.4839 121.906 63.8634 116.397 62.7573 110.734C62.7162 110.529 62.7162 110.317 62.6853 110.019C63.9406 109.803 65.2009 109.854 66.4408 109.751C70.8136 109.386 75.0115 108.315 79.127 106.848C83.896 105.144 88.3665 102.868 92.4358 99.8412C93.5161 99.0381 94.5193 98.1166 95.5533 97.2517L95.5585 97.2466Z" fill="#9DAED9"/>
<path d="M74.4251 139.96C76.9613 142.874 80.156 144.959 83.3301 147.064C84.0298 147.528 85.0432 147.785 85.3931 148.423C85.7789 149.124 85.5834 150.153 85.604 151.039C85.748 157.52 85.8818 164.007 86.0104 170.488C86.0155 170.766 86.1236 171.059 85.9384 171.327C83.289 169.865 82.7179 170.071 80.2074 173.427C80.0583 173.005 79.9296 172.64 79.801 172.274C79.0808 170.2 78.448 169.731 76.3234 169.7C76.1845 169.515 76.205 169.299 76.205 169.093C76.2308 162.771 75.8295 156.47 75.4025 150.169C75.1762 146.833 74.9138 143.492 74.1473 140.217C74.0752 139.955 74.1884 139.893 74.4199 139.96H74.4251Z" fill="#9DAED9"/>
<path d="M17.949 86.7547C17.3883 84.7057 17.0333 82.6208 17.2237 80.5049C17.45 77.9876 17.8925 75.5062 18.5715 73.0609C18.9625 71.64 19.4924 70.2552 19.7702 68.7983C20.1509 66.8112 20.5419 64.8292 20.511 62.7905C20.4904 61.3954 20.4801 59.9951 20.511 58.6C20.6242 53.6425 21.3084 48.7724 22.9186 44.0723C24.0195 40.8547 25.7326 37.9461 27.6001 35.1095C29.7299 31.8765 32.1581 28.8958 35.0493 26.3578C37.9662 23.7941 41.1043 21.4981 44.6591 19.8456C45.1942 19.5985 45.7189 19.3102 46.2436 19.0425C46.933 19.7375 47.4269 20.556 47.859 21.4672C45.4308 22.641 43.018 23.7581 40.7905 25.2047C36.4846 28.0001 32.6777 31.372 29.8328 35.6552C26.7512 40.2884 24.7758 45.385 24.2613 51.0067C23.9887 54.0131 24.0298 57.0144 23.9784 60.0209C23.9321 62.8575 23.9424 65.6992 23.2993 68.4894C22.8877 70.2655 22.2344 71.9643 21.6582 73.6889C21.01 75.6143 20.4853 77.5706 20.1817 79.5886C19.8988 81.4676 20.0531 83.3003 20.4338 85.1382C20.6139 86.0031 20.619 86.0236 19.765 86.281C19.1631 86.4612 18.6024 86.7958 17.9439 86.765L17.949 86.7547Z" fill="#9DAEDA"/>
<path d="M153.28 95.6608C153.244 96.7316 152.652 97.6067 152.101 98.4253C149.889 101.715 147.158 104.433 143.289 105.741C141.607 106.312 139.847 106.714 138.103 106.811C135.84 106.94 133.556 107.007 131.266 106.678C128.704 106.307 126.23 105.674 123.776 104.881C119.768 103.584 116.07 101.663 112.463 99.5167C109.443 97.72 106.655 95.6042 103.893 93.442C103.131 92.8448 102.421 92.1756 101.696 91.5321C101.475 91.3313 101.269 91.1151 100.945 91.1151C101.32 90.5539 101.716 90.0031 102.066 89.4265C102.303 89.0353 102.529 89.0404 102.884 89.2721C103.949 89.9619 105.076 90.5642 106.1 91.3107C109.366 93.6994 112.942 95.5166 116.656 97.0662C120.396 98.6312 124.136 100.207 128.108 101.128C132.383 102.122 136.699 102.595 141.077 102.003C145.815 101.365 149.925 99.5167 153.069 95.7946C153.12 95.7329 153.202 95.702 153.274 95.6556L153.28 95.6608Z" fill="#9DAEDA"/>
<path d="M170.215 141.834C170.39 152.022 171.028 162.004 171.475 171.991C171.547 173.607 171.419 175.209 171.079 176.789C170.652 178.781 169.505 180.115 167.56 180.758C166.84 181 166.12 181.221 165.215 181.386C165.215 180.465 165.23 179.595 165.215 178.719C165.184 177.144 164.947 175.595 164.438 174.102C164.073 173.026 163.522 172.084 162.334 171.734C161.778 171.569 161.902 171.224 162.04 170.838C162.431 169.721 162.817 168.598 163.183 167.471C164.278 164.125 164.927 160.67 165.734 157.252C166.912 152.264 168.456 147.378 169.912 142.472C169.958 142.318 170.05 142.174 170.215 141.829V141.834Z" fill="#9DAED9"/>
<path d="M51.7275 106.606C52.8439 106.384 53.8831 106.879 54.9634 106.971C56.2598 107.085 57.5459 107.347 58.8526 107.378C61.6872 107.45 64.527 107.414 67.341 107.1C69.7229 106.832 72.0688 106.287 74.3941 105.659C77.6299 104.789 80.7732 103.646 83.7622 102.158C86.2521 100.917 88.6494 99.4861 90.8409 97.7254C92.765 96.181 94.4884 94.4256 96.1397 92.6134C98.9435 89.5298 101.192 86.0754 102.668 82.1269C104.021 78.513 104.906 74.7806 105.631 71.0123C105.837 69.9518 106.079 68.8552 105.976 67.7433C105.899 66.935 106.238 66.1731 106.238 65.3546C106.238 61.0302 105.683 56.7882 104.716 52.572C103.275 46.312 100.744 40.5256 97.2458 35.1922C93.7218 29.8125 88.8912 25.9309 82.8104 23.6863C80.9481 22.9965 79.1167 22.2397 77.1927 21.7198C75.3561 21.2204 73.4886 20.927 71.6212 20.6129C68.2722 20.0467 64.8922 20.0724 61.5072 20.1033C60.5349 20.1136 59.5986 20.4894 58.6108 20.3555C58.2867 20.3092 57.9215 20.4328 57.6643 20.1187C60.6172 19.4495 63.6113 19.2487 66.6208 19.4134C69.5325 19.573 72.4495 19.7532 75.3252 20.3349C79.2762 21.1329 83.1757 22.2294 86.7408 24.0467C93.3875 27.4392 98.6194 32.3711 101.912 39.218C104.417 44.4278 105.904 49.9001 106.511 55.6351C107.118 61.3906 107.185 67.1461 106.506 72.8965C105.647 80.1346 102.992 86.6108 98.3416 92.2737C93.2537 98.4668 86.8385 102.657 79.3585 105.36C75.4898 106.755 71.5595 107.898 67.4696 108.315C62.3406 108.84 57.2476 108.639 52.2626 107.131C51.9127 107.028 51.9127 107.023 51.743 106.596L51.7275 106.606Z" fill="#EEF2FA"/>
<path d="M154.015 180.408C155.744 178.452 156.968 176.197 157.832 173.746C159.53 168.918 160.621 163.924 161.891 158.977C162.704 155.821 163.934 152.799 164.911 149.7C166.346 145.149 167.638 140.557 168.8 135.929C169.521 133.067 170.416 130.245 170.915 127.332C171.244 125.381 171.542 123.429 171.841 121.473C172.072 119.975 172.314 118.482 172.499 116.979C172.654 115.728 172.813 114.467 172.844 113.205C172.901 111.131 172.947 109.046 172.844 106.976C172.643 103.136 172.17 99.3211 170.781 95.7021C170.097 93.9208 168.929 92.4022 167.73 90.9092C165.096 87.6299 161.65 85.3339 158.223 83.0121C157.946 82.8217 157.663 82.6312 157.385 82.4407C157.385 82.2708 157.385 82.1009 157.385 81.931C157.457 81.8332 157.467 81.6788 157.627 81.6582C159.062 81.9413 160.307 82.6621 161.521 83.424C164.86 85.5192 167.725 88.1396 170.076 91.3005C172.139 94.0753 173.245 97.2671 173.888 100.624C175.221 107.589 174.861 114.503 173.559 121.458C171.656 131.625 168.8 141.54 165.868 151.435C164.798 155.049 164.124 158.76 163.198 162.41C161.866 167.661 160.199 172.804 157.915 177.731C157.611 178.38 157.236 178.997 156.912 179.641C155.631 182.199 153.526 183.435 150.707 183.543C149.997 183.656 150.028 183.188 150.383 182.936C151.587 182.086 152.564 180.902 154.01 180.403L154.015 180.408Z" fill="#EEF2FA"/>
<path d="M191.997 92.3455C192.671 92.33 192.995 92.016 192.954 91.3107C192.918 90.7187 192.887 90.1164 192.964 89.5398C193.185 87.9748 194.245 87.3827 195.706 87.9799C197.085 88.5411 198.206 89.3802 198.808 90.7959C198.978 91.1974 199.184 91.635 199.698 91.5321C200.171 91.4343 200.3 90.9915 200.336 90.5436C200.367 90.1575 200.496 89.792 200.691 89.4677C200.943 89.0559 201.267 88.8345 201.704 89.2721C204.884 92.8345 204.616 96.9118 203.402 101.092C202.245 105.077 199.924 108.407 197.265 111.522C196.936 111.908 196.596 112.443 195.912 112.181C195.629 111.769 195.649 111.295 195.691 110.832C196.01 107.141 195.181 103.707 193.453 100.459C192.799 99.2284 192.172 97.9826 191.472 96.7728C190.896 95.7741 190.495 94.7033 190.587 93.5141C190.628 92.9632 190.659 92.4021 191.225 92.0829C191.302 92.0572 191.364 92.0726 191.416 92.1344C191.585 92.2785 191.817 92.2425 191.997 92.3506V92.3455Z" fill="#C8D4ED"/>
<path d="M140.583 100.541C140.516 100.387 140.506 100.562 140.449 100.515C140.223 100.335 140.285 100.299 140.511 100.258C141.885 99.9904 143.212 99.5631 144.483 98.9917C147.976 97.4164 150.574 94.9659 152.045 91.3674C152.703 89.7561 153.218 88.1036 153.583 86.415C154.092 84.0932 154.17 81.756 153.861 79.3776C153.65 77.7457 153.449 76.1189 153.125 74.5076C152.693 72.3505 151.664 70.4664 150.512 68.6337C150.085 67.9541 149.642 67.2849 149.236 66.5899C148.156 64.7417 146.705 63.2179 145.172 61.7456C143.773 60.4019 143.757 59.3312 145.115 57.936C145.728 57.3028 146.458 56.7777 147.106 56.1754C149.277 54.1574 150.677 51.6554 151.35 48.8034C151.736 47.156 151.68 45.4006 151.402 43.748C150.826 40.2937 149.529 37.0813 147.471 34.219C146.859 33.3644 146.216 32.5047 145.455 31.7891C143.227 29.699 143.485 27.439 144.858 25.1379C145.83 23.5059 146.87 21.9203 147.662 20.1854C148.325 18.7337 148.578 17.1687 148.634 15.6346C148.691 14.1314 148.151 12.6539 147.682 11.2073C146.489 7.53157 143.675 5.35394 140.562 3.43887C140.341 3.30502 139.811 3.34106 140.074 2.80566C145.373 4.66925 148.994 8.05152 149.91 13.807C150.224 15.7993 149.925 17.771 149.365 19.7067C148.639 22.2138 147.42 24.4738 146.046 26.6668C145.686 27.2383 145.316 27.8097 144.992 28.4017C144.426 29.4416 144.498 29.9255 145.367 30.7595C145.887 31.2589 146.468 31.6862 147.003 32.1649C151.062 35.82 153.542 40.3091 153.485 45.833C153.434 50.6721 151.597 54.8112 147.6 57.8073C146.926 58.317 146.268 58.8575 145.661 59.4444C144.863 60.2115 144.925 60.7675 145.81 61.411C146.221 61.7096 146.664 61.9567 147.086 62.2449C148.14 62.976 149.041 63.8717 149.817 64.8807C153.382 69.5294 155.584 74.7187 155.872 80.6183C156.058 84.3867 155.44 88.0624 153.974 91.5424C152.076 96.0315 148.506 98.6365 143.942 99.9801C142.857 100.299 141.746 100.603 140.583 100.546V100.541Z" fill="#EEF2FA"/>
<path d="M14.8211 1.99756H19.2093L19.2196 2.24466C17.7432 2.24466 16.2924 2.45573 14.8623 2.7955C10.1242 3.92293 6.81631 6.61535 5.62794 11.4905C5.02604 13.9565 5.32442 16.4327 5.98805 18.8419C6.92435 22.2397 8.31335 25.4572 9.98531 28.5512C10.9113 30.2552 10.8084 31.0891 9.32167 32.7159C6.93464 35.3208 4.92315 38.1831 3.96113 41.6529C3.55472 43.115 3.19975 44.6079 3.22547 46.1266C3.28206 49.1536 4.30067 51.8049 6.43562 54.0134C7.70631 55.3313 9.12618 56.4484 10.5975 57.5192C11.755 58.3635 12.0843 59.3982 11.5852 60.7316C10.9473 62.4356 10.0985 64.0572 9.15705 65.6068C7.52625 68.294 6.49221 71.1975 6.06008 74.2606C5.55077 77.8848 6.65169 81.0715 9.20849 83.7845C10.9782 85.6687 13.0771 86.7343 15.5979 87.0586C15.7111 87.0741 15.8088 87.1822 15.9169 87.2491C10.1757 88.8038 4.16691 83.7639 4.19263 77.6532C4.20807 74.1422 5.14436 70.8886 6.69799 67.7895C7.68573 65.823 8.75063 63.9028 9.77953 61.9568C9.95958 61.6222 10.1499 61.2927 10.2991 60.9426C10.7621 59.8512 10.6232 59.3364 9.66635 58.6569C9.11589 58.2657 8.52428 57.9259 7.96867 57.5501C4.46529 55.1717 2.33034 51.8769 1.56381 47.7276C1.10081 45.2308 1.61525 42.8061 2.61328 40.5409C4.19263 36.9579 6.28129 33.6786 9.07988 30.9038C10.0419 29.9514 10.1242 29.5962 9.31653 28.371C7.77833 26.0286 6.47678 23.5679 5.59707 20.9012C4.52188 17.6373 4.04344 14.3065 4.7328 10.8985C5.75141 5.85344 9.74866 2.44544 14.8211 1.99756Z" fill="#EEF2FA"/>
<path d="M118.991 145.798C120.396 146.132 121.826 146.096 123.246 146.055C125.839 145.978 128.416 145.695 130.978 145.288C131.405 145.221 131.755 144.984 132.13 144.799C130.885 148.526 129.589 152.243 128.601 156.052C128.478 156.531 128.282 156.732 127.758 156.783C125.474 157 123.2 157.108 120.916 156.763C120.499 156.701 120.211 156.675 120.175 156.14C119.959 152.67 119.424 149.236 118.986 145.792L118.991 145.798Z" fill="#9DAED9"/>
<path d="M116.399 178.894C116.821 178.272 116.774 177.52 116.857 176.84C117.026 175.425 117.268 174.004 117.165 172.557C117.114 171.8 117.181 171.033 117.155 170.272C117.078 167.862 117.69 165.458 117.366 163.064C117.088 161.01 117.33 158.936 116.954 156.892C116.738 155.697 116.79 154.457 116.697 153.242C116.497 150.637 116.018 148.078 115.689 145.494C115.159 141.273 114.315 137.118 113.42 132.964C113.25 132.166 113.42 131.939 114.151 131.877C114.048 132.325 114.274 132.706 114.413 133.098C116.337 138.462 117.448 144.006 118.184 149.643C119.239 157.736 119.228 165.865 118.976 174.004C118.95 174.894 118.94 175.785 118.935 176.671C118.93 177.798 118.58 178.843 118.107 179.842C117.649 180.81 116.872 181.427 115.843 181.736C115.349 180.985 115.54 180.012 116.399 178.9V178.894Z" fill="#EEF1FA"/>
<path d="M29.1075 60.1909C29.3339 62.559 29.9821 64.8396 30.62 67.1202C30.7074 67.4291 30.836 67.6556 31.1756 67.7019C31.0315 67.7791 30.8926 67.8769 30.7383 67.9387C28.7834 68.6749 27.7699 70.1575 27.7082 72.1756C27.6516 74.0391 28.5262 75.4858 30.2136 76.3867C30.4348 76.5051 30.6611 76.6132 30.9698 76.7728C29.9872 77.8384 29.0252 78.8835 28.0632 79.9285C27.4818 80.1705 27.4253 79.6917 27.3378 79.3571C26.7308 77.128 25.6967 75.1511 24.0042 73.5449C23.7315 73.2824 23.4846 72.989 23.5258 72.5668C23.9219 70.9709 24.5444 69.4368 24.8067 67.8049C25.1102 65.9258 25.2594 64.0262 25.2954 62.1214C25.3057 61.6221 25.2286 61.1124 25.4138 60.541C26.7359 61.3595 27.9757 61.2308 29.1126 60.2012L29.1075 60.1909Z" fill="#9DAED9"/>
<path d="M191.225 92.0776C190.469 93.9309 191.143 95.5423 192.043 97.1279C193.442 99.5835 194.883 102.024 195.536 104.819C195.768 105.802 195.906 106.796 196.045 107.8C196.251 109.282 195.999 110.729 195.984 112.191C195.299 113.37 194.379 114.245 192.99 114.528C193.02 113.432 193.103 112.33 193.067 111.233C192.995 108.963 192.326 106.822 191.518 104.721C190.762 102.75 189.862 100.829 189.234 98.8061C188.72 97.1536 188.576 95.4856 189.141 93.8125C189.332 93.2462 189.589 92.7057 190.031 92.2939C190.366 91.985 190.731 91.6195 191.225 92.0725V92.0776Z" fill="#9DAEDA"/>
<path d="M23.5206 72.5566C24.8684 73.9054 26.1443 75.3005 26.8799 77.1075C27.1835 77.8488 27.5693 78.5593 27.6259 79.3778C27.6465 79.6712 27.7854 79.8463 28.058 79.9235C26.0723 82.6417 24.5546 85.5812 23.7007 88.9429C22.7644 87.7845 22.147 86.513 21.7869 85.1282C21.2056 82.8785 21.2313 80.6185 21.7406 78.3482C22.183 76.3713 22.7181 74.4254 23.5206 72.5618V72.5566Z" fill="#B58CA7"/>
<path d="M37.7811 29.1431C37.1174 30.6103 35.9908 31.7737 35.178 33.1534C33.0636 36.7416 31.5151 40.546 30.4554 44.5563C30.2084 45.4932 30.0026 46.4353 29.7557 47.3723C29.6683 47.6915 29.6683 47.9489 29.9666 48.1496C28.3667 49.0042 26.8131 49.9206 25.8305 51.5319C25.4498 51.3363 25.5938 51.0583 25.6196 50.8524C26.5096 43.7687 29.2258 37.5344 34.2468 32.3863C35.3632 31.2435 36.4281 30.0337 37.7811 29.1431Z" fill="#9DAED9"/>
<path d="M26.3757 85.5091C26.7512 85.9878 26.3139 86.3739 26.2007 86.7858C25.9435 87.7588 25.6297 88.7111 25.568 89.7407C25.3982 92.5361 26.4888 94.9403 27.8264 97.262C28.8399 99.0227 30.1414 100.567 31.5407 102.039C33.0738 103.651 34.0718 105.617 34.9515 107.63C35.574 109.061 36.0112 110.554 36.3559 112.083C37.4826 117.087 35.7952 121.7 31.7413 124.835C30.8565 125.52 29.8533 125.942 28.8964 126.472C28.5415 126.647 28.3203 126.601 28.3614 126.137C29.4418 125.406 30.5684 124.742 31.5561 123.872C34.0872 121.648 35.2344 118.812 35.1161 115.517C34.9515 110.93 33.7374 106.688 30.661 103.105C29.0919 101.278 27.6052 99.383 26.4117 97.262C24.1995 93.3238 24.4053 89.4267 26.3808 85.5039L26.3757 85.5091Z" fill="#EDF1FA"/>
<path d="M29.1692 50.1782C31.8237 48.469 34.6429 48.3403 37.5032 49.4884C39.2369 50.1833 40.1321 51.6608 40.5025 53.4626C40.6002 53.9466 40.4922 54.3893 40.2658 54.8063C39.9314 55.4343 39.6022 55.5836 38.918 55.352C38.3624 55.1615 37.8325 54.899 37.2923 54.6673C35.0596 53.5502 32.8475 53.1589 30.5428 54.5695C29.3081 55.3262 28.3461 54.7445 28.3306 53.3031C28.3204 52.2014 28.4438 51.0997 29.1692 50.1782Z" fill="#91A7D6"/>
<path d="M99.5971 177.108C99.9777 178.858 99.8388 180.634 99.8388 182.405C99.8388 182.833 99.6228 182.992 99.2061 182.982C97.3489 182.946 95.5021 182.776 93.6861 182.379C93.2179 182.277 93.0739 182.076 93.1768 181.515C93.3259 180.696 93.2333 179.831 93.2899 178.992C93.4288 177.036 93.8867 175.177 95.0236 173.535C96.5824 174.688 98.0126 176.001 99.6022 177.113L99.5971 177.108Z" fill="#7489C3"/>
<path d="M86.6689 140.464C87.1164 141.051 86.9467 141.777 87.029 142.42C87.1782 143.584 87.3068 144.763 87.4303 145.937C87.6669 148.248 87.4663 150.58 87.8778 152.876C87.9293 153.164 87.8984 153.468 87.8984 153.767C87.955 157.576 88.382 161.35 89.4726 165.005C90.3266 167.867 91.7876 170.426 93.9792 172.521C93.6808 173.072 93.3824 173.623 93.0892 174.168C92.6313 174.091 92.7754 173.705 92.6776 173.463C92.405 172.799 92.1786 172.114 91.7362 171.538C90.9697 170.534 89.9408 170.163 88.7164 170.488C88.3202 170.596 87.9396 170.781 87.5537 170.93C87.2965 170.745 87.3942 170.477 87.3891 170.256C87.2862 160.614 86.9724 150.982 86.6534 141.344C86.6432 141.051 86.6637 140.758 86.674 140.459L86.6689 140.464Z" fill="#9DAED9"/>
<path d="M86.7254 180.943C84.7962 180.943 83.0111 180.717 81.2517 180.254C80.7732 180.125 80.5623 179.97 80.588 179.414C80.6549 178.024 80.6138 176.624 81.0202 175.27C81.37 174.122 81.9204 173.077 82.8002 172.254C83.5924 171.512 84.3126 171.589 84.9197 172.48C85.2026 172.892 85.4238 173.366 85.5679 173.844C86.2572 176.109 86.7305 178.416 86.7254 180.949V180.943Z" fill="#7489C3"/>
<path d="M28.5929 81.5862C28.7884 81.9672 29.1176 81.9363 29.4674 81.8796C32.9862 81.3185 36.325 81.7355 39.494 83.5116C41.418 84.5875 43.2598 85.7561 45.0192 87.074C45.5182 87.4447 45.8217 87.9492 46.0944 88.464C46.295 88.8449 46.295 89.3083 45.9246 89.6326C45.6005 89.9209 45.2249 89.8282 44.8545 89.6635C44.4533 89.4884 44.1858 89.1538 43.8617 88.8861C41.1557 86.6879 38.2851 84.7317 34.8228 83.9646C32.3586 83.4189 29.8738 83.4601 27.5022 84.5309C27.2656 84.6338 27.0341 84.7317 26.7717 84.7111C27.2039 83.5682 27.7903 82.5129 28.5877 81.5811L28.5929 81.5862Z" fill="#9DAFDA"/>
<path d="M140.084 178.076C140.377 179.327 140.228 180.599 140.223 181.86C140.223 182.364 140.171 182.869 140.14 183.461C138.278 183.518 136.457 183.204 134.636 182.859C134.013 182.74 133.401 182.586 132.784 182.431C132.444 182.344 132.1 182.2 132.151 181.772C132.408 179.569 132.192 177.273 133.381 175.245C133.746 175.322 133.916 175.636 134.121 175.893C135.243 177.304 136.709 178.117 138.438 178.56C139.137 178.74 139.657 178.658 140.084 178.076Z" fill="#7489C3"/>
<path d="M101.624 177.844C101.938 175.687 102.951 173.968 104.793 172.773C105.734 172.161 106.341 172.233 107.159 173C107.53 173.35 107.828 173.757 108.055 174.215C108.898 175.929 109.438 177.731 109.572 179.641C109.372 179.893 109.089 179.981 108.79 179.991C106.532 180.084 104.34 179.744 102.241 178.884C101.825 178.714 101.367 178.467 101.629 177.844H101.624Z" fill="#91A7D6"/>
<path d="M141.823 179.394C141.915 177.422 142.497 175.594 143.484 173.89C143.788 173.37 144.189 172.943 144.704 172.629C145.743 171.996 146.617 172.171 147.327 173.175C147.621 173.587 147.821 174.05 147.97 174.539C148.49 176.289 148.783 178.065 148.67 179.898C148.382 180.181 148.017 180.243 147.636 180.269C146 180.377 144.4 180.058 142.78 179.914C142.404 179.883 142.059 179.708 141.823 179.383V179.394Z" fill="#91A7D6"/>
<path d="M29.1692 50.1777C29.0251 50.8727 28.8965 51.578 28.7268 52.2678C28.6239 52.69 28.629 53.107 28.6547 53.524C28.7216 54.6102 29.3544 54.9706 30.2649 54.3837C31.0521 53.874 31.8392 53.4519 32.8012 53.3592C34.4834 53.2048 36.0422 53.3953 37.2974 54.672C33.6037 54.0233 30.6919 55.3052 28.6599 58.4764C28.521 58.6874 28.3924 58.9088 28.2329 59.1044C27.3995 60.1186 26.4117 59.995 25.8819 58.7853C25.5012 57.9204 25.3674 56.9731 25.4909 56.0516C25.8304 53.5548 26.9056 51.4853 29.1743 50.1777H29.1692Z" fill="#7489C3"/>
<path d="M140.084 178.076C139.914 179.209 139.919 179.178 138.772 178.941C137.049 178.586 135.5 177.937 134.291 176.588C133.921 176.176 133.612 175.739 133.381 175.239C133.859 173.88 134.698 172.784 135.855 171.95C137.09 171.054 138.129 171.265 138.978 172.542C139.708 173.638 139.852 174.91 140.007 176.171C140.084 176.799 140.063 177.438 140.084 178.071V178.076Z" fill="#91A7D6"/>
<path d="M163.965 179.543C163.975 181.026 163.249 181.819 161.788 181.922C161.115 181.968 160.435 181.973 159.762 182.009C159.34 182.03 159.18 181.834 159.118 181.422C158.887 179.94 158.851 178.534 159.648 177.129C160.291 176.001 160.641 174.714 161.13 173.499C161.459 172.676 161.871 172.593 162.514 173.216C162.925 173.613 163.121 174.127 163.265 174.663C163.404 175.193 163.589 175.718 163.656 176.259C163.795 177.35 163.867 178.447 163.965 179.538V179.543Z" fill="#7489C3"/>
<path d="M101.624 177.844C101.706 178.426 102.185 178.508 102.622 178.668C104.87 179.481 107.19 179.749 109.567 179.641C109.896 180.521 109.834 181.463 109.968 182.375C110.035 182.828 109.773 182.961 109.371 182.961C106.84 182.982 104.314 183.008 101.783 183.033C101.397 183.033 101.13 182.92 101.151 182.462C101.207 180.912 101.073 179.347 101.624 177.849V177.844Z" fill="#7489C3"/>
<path d="M91.6643 181.607C90.7794 181.484 90.2547 180.871 89.7505 180.258C88.4438 178.668 87.9139 176.778 87.6567 174.781C87.6156 174.446 87.5847 174.112 87.5487 173.777C87.4252 172.686 87.8265 172.052 88.8862 171.677C89.7351 171.378 90.4296 171.687 90.9337 172.66C91.6282 173.993 91.8186 175.466 91.9523 176.938C92.0089 177.566 91.9935 178.204 91.9523 178.832C91.9009 179.754 91.8752 180.681 91.6591 181.607H91.6643Z" fill="#7489C3"/>
<path d="M192.99 114.534C194.085 113.88 195.001 112.994 195.984 112.196C197.342 111.332 198.15 109.957 199.076 108.721C200.876 106.307 202.373 103.702 203.16 100.757C203.783 98.4203 204.21 96.0728 203.664 93.6377C203.351 92.2426 202.877 90.9711 201.854 89.9414C201.689 89.7767 201.247 89.6068 201.704 89.2773C203.176 90.1422 203.731 91.6146 204.138 93.1281C204.884 95.9235 204.894 98.7652 204.127 101.545C202.949 105.818 201.015 109.669 197.445 112.505C196.21 113.489 194.821 114.199 193.458 114.951C192.979 115.218 192.846 115.023 192.99 114.544V114.534Z" fill="#EDF1FA"/>
<path d="M130.706 181.607C129.373 181.226 128.509 180.465 128.067 179.219C127.814 178.498 127.604 177.757 127.583 176.995C127.526 175.008 127.537 173.015 127.645 171.028C127.66 170.745 127.578 170.38 127.897 170.23C128.231 170.076 128.55 170.256 128.828 170.472C129.409 170.935 129.764 171.569 130.047 172.228C130.865 174.127 131.133 176.14 131.05 178.189C131.004 179.311 130.829 180.434 130.7 181.613L130.706 181.607Z" fill="#7389C3"/>
<path d="M141.823 179.394C144.091 179.744 146.37 179.991 148.67 179.908C148.675 180.881 148.685 181.854 148.69 182.827C148.69 183.378 148.505 183.692 147.878 183.682C146.015 183.651 144.148 183.702 142.291 183.569C141.859 183.538 141.555 183.455 141.576 182.925C141.622 181.746 141.457 180.552 141.823 179.399V179.394Z" fill="#7489C3"/>
<path d="M130.634 153.937C130.788 154.966 130.464 155.949 130.32 156.943C130.047 158.837 130.037 160.711 130.32 162.601C130.407 163.182 130.376 163.78 130.381 164.372C130.407 167.224 131.014 169.968 131.992 172.634C132.12 172.989 132.259 173.355 132.64 173.54C132.588 173.839 132.414 174.05 132.146 174.343C131.878 173.561 131.673 172.892 131.421 172.238C131.04 171.239 130.525 170.312 129.697 169.623C129.414 169.386 129.059 169.118 128.715 169.087C127.933 169.015 127.783 168.67 127.866 167.944C128.396 163.321 129.147 158.74 130.448 154.261C130.484 154.142 130.577 154.045 130.639 153.937H130.634Z" fill="#9DAED9"/>
<path d="M65.0365 100.521C62.0784 103.913 58.395 105.195 53.9707 104.356C53.8061 104.325 53.6363 104.32 53.4666 104.304C55.1231 102.554 57.3043 101.931 59.573 101.53C61.3942 101.21 63.2616 101.133 65.0365 100.521Z" fill="#9DAEDA"/>
<path d="M33.2436 76.6494C34.2262 77.226 35.3734 77.0304 36.428 77.3238C37.7399 77.6842 38.9848 78.1887 40.235 78.7035C40.6259 78.8631 41.0066 79.0638 41.2484 79.4397C41.4336 79.7331 41.5571 80.0265 41.3719 80.3869C41.1712 80.7781 40.8677 80.9223 40.4459 80.9223C40.0909 80.9223 39.7977 80.7524 39.4839 80.6288C37.8736 79.9956 36.284 79.3109 34.5555 79.0278C33.2488 78.8116 31.9575 78.7858 30.6714 79.1411C31.4173 78.199 32.3073 77.3959 33.2436 76.6494Z" fill="#9DAFDA"/>
<path d="M79.2093 179.286C77.5271 178.004 76.4879 176.588 76.313 174.663C76.2307 173.782 76.2204 172.897 76.2461 172.012C76.2564 171.564 76.3387 171.054 76.8995 170.91C77.4859 170.761 77.8769 171.09 78.1393 171.553C78.3656 171.955 78.5714 172.382 78.6897 172.825C79.2402 174.869 79.3945 176.943 79.2145 179.286H79.2093Z" fill="#7388C2"/>
<path d="M116.399 178.894C116.198 179.615 116.013 180.336 115.797 181.046C115.72 181.293 115.627 181.515 115.843 181.731C114.608 182.41 113.219 182.477 111.872 182.709C111.434 182.786 111.29 182.591 111.27 182.158C111.218 181.237 111.11 180.32 111.028 179.404C112.659 179.517 114.228 179.064 115.822 178.858C116.018 178.833 116.213 178.699 116.399 178.889V178.894Z" fill="#9DAFDA"/>
<path d="M99.5969 177.108C98.3468 176.835 97.5134 175.898 96.5617 175.173C95.9752 174.725 95.399 174.205 95.0183 173.53C95.4607 172.645 96.1038 171.955 97.1481 172.037C98.2233 172.12 98.6709 173.016 98.995 173.901C99.3705 174.931 99.6792 175.986 99.5969 177.108Z" fill="#90A6D5"/>
<path d="M154.015 180.408C152.966 181.355 151.87 182.246 150.666 182.992C150.296 183.224 150.301 183.394 150.712 183.543C150.368 183.698 149.92 183.976 149.982 183.255C150.141 181.463 149.982 179.672 150.002 177.88C150.383 178.318 150.229 178.853 150.234 179.342C150.234 179.934 150.45 180.187 151.057 180.166C151.86 180.135 152.662 180.161 153.465 180.161C153.686 180.161 153.881 180.218 154.015 180.408Z" fill="#9BACD6"/>
<path d="M28.3564 126.137C28.449 126.384 28.6548 126.456 28.8914 126.472C27.0188 127.579 24.9456 128.099 22.8364 128.485C22.4814 128.552 22.0698 128.629 21.7766 128.268C22.9135 127.965 24.0608 127.713 25.1771 127.352C26.2523 127.007 27.2966 126.549 28.3512 126.142L28.3564 126.137Z" fill="#DFE8F4"/>
<path d="M17.0641 133.046C16.1741 131.677 16.3542 130.354 16.5085 128.871C17.6557 129.942 17.7998 131.203 17.0641 133.046Z" fill="#7287BE"/>
<path d="M156.86 182.122C157.174 181.679 157.405 181.35 157.719 180.907C157.976 181.319 158.187 181.685 157.951 182.04C157.75 182.344 157.354 182.21 156.86 182.122Z" fill="#5F73A3"/>
<path d="M88.5311 180.917C88.6237 181.139 88.454 181.134 88.3511 181.139C88.1556 181.149 88.063 181.005 88.0167 180.835C87.9858 180.717 87.991 180.547 88.1196 180.536C88.3768 180.516 88.4385 180.753 88.5311 180.917Z" fill="#5A6B99"/>
<path d="M74.4252 139.96C74.2657 139.97 74.2142 140.099 74.1525 140.217C73.9776 140.042 73.8027 139.811 74.0496 139.641C74.1988 139.538 74.384 139.749 74.4252 139.96Z" fill="#374457"/>
<path d="M191.997 92.3457C191.755 92.4023 191.56 92.3354 191.416 92.1295C191.652 92.0883 191.843 92.1655 191.997 92.3457Z" fill="#9DAEDA"/>
<path d="M157.621 81.6582C157.539 81.7509 157.462 81.8435 157.38 81.9311C157.369 81.7612 157.22 81.4677 157.621 81.6582Z" fill="#C8D4ED"/>
<path d="M139.528 155.095C139.343 155.708 139.173 156.269 138.88 156.784C138.505 157.443 138.139 158.102 137.769 158.76C137.707 158.869 137.646 158.982 137.568 159.08C137.064 159.744 136.488 159.965 136.097 159.651C135.665 159.306 135.639 158.776 136.118 158.06C136.802 157.041 137.219 155.883 137.846 154.838C138.299 154.091 138.921 154.045 139.338 154.673C139.426 154.807 139.472 154.972 139.523 155.09L139.528 155.095Z" fill="#9EB0DA"/>
<path d="M94.5194 145.617C94.5502 146.312 93.1715 148.367 92.549 148.552C92.2198 148.65 91.9831 148.49 91.7671 148.269C91.5819 148.073 91.4481 147.852 91.6024 147.594C92.122 146.735 92.6313 145.87 93.1972 145.041C93.403 144.737 93.7837 144.742 94.1181 144.892C94.4216 145.025 94.5142 145.303 94.5194 145.617Z" fill="#9EB0DA"/>
<path d="M162.951 101.664C162.931 101.082 162.992 100.711 163.44 100.572C163.846 100.449 164.196 100.562 164.417 100.943C164.886 101.751 165.199 102.621 165.323 103.553C165.379 103.96 165.21 104.315 164.829 104.49C164.392 104.696 164.047 104.423 163.887 104.083C163.497 103.249 163.131 102.4 162.946 101.664H162.951Z" fill="#9EB0DA"/>
<path d="M92.4668 108.768C92.2456 109.458 91.9215 110.225 91.3865 110.879C91.0881 111.244 90.6611 111.316 90.2598 111.054C89.8894 110.812 89.8688 110.41 90.0335 110.045C90.3216 109.396 90.6508 108.763 90.9749 108.13C91.2013 107.682 91.582 107.553 92.0295 107.713C92.4565 107.867 92.508 108.253 92.4719 108.773L92.4668 108.768Z" fill="#9EB0DA"/>
<path d="M152.081 138.163C151.422 138.142 151.047 137.617 151.324 137.087C151.71 136.351 152.184 135.651 152.672 134.976C152.827 134.76 153.135 134.58 153.454 134.75C153.763 134.915 154.061 135.172 153.994 135.532C153.794 136.547 153.295 137.411 152.456 138.045C152.333 138.137 152.148 138.148 152.081 138.168V138.163Z" fill="#9EB0DA"/>
<path d="M161.66 101.03C161.572 101.375 161.439 101.993 161.248 102.59C161.094 103.074 160.77 103.404 160.199 103.27C159.592 103.121 159.612 102.621 159.638 102.153C159.674 101.556 159.972 101.02 160.116 100.454C160.25 99.9288 160.59 99.6044 161.104 99.6662C161.732 99.7383 161.691 100.284 161.655 101.036L161.66 101.03Z" fill="#9EB0DA"/>
<path d="M94.509 110.683C94.509 110.472 94.509 110.389 94.509 110.302C94.509 109.777 94.509 109.236 95.2138 109.185C95.898 109.138 96.0266 109.617 96.0626 110.173C96.0935 110.673 96.3559 111.136 96.2993 111.656C96.2581 112.021 96.1501 112.315 95.7643 112.418C95.3476 112.526 95.0286 112.377 94.8023 112.011C94.5193 111.558 94.4884 111.064 94.509 110.678V110.683Z" fill="#9EB0DA"/>
<path d="M96.7882 148.418C96.675 148.804 96.675 149.391 96.212 149.762C95.9651 149.962 95.6564 150.204 95.3014 149.983C94.967 149.772 94.7201 149.489 94.8333 149.041C94.9259 148.675 95.003 148.305 95.1214 147.95C95.2808 147.476 95.6152 147.08 96.1348 147.193C96.6235 147.301 96.8396 147.754 96.7882 148.418Z" fill="#A0B1DB"/>
<path d="M121.466 117.417C121.373 117.89 121.121 118.379 120.797 118.827C120.607 119.09 120.298 119.131 119.99 119.059C119.66 118.982 119.485 118.755 119.455 118.431C119.382 117.653 119.768 117.041 120.216 116.475C120.417 116.222 120.761 116.248 121.044 116.366C121.471 116.552 121.492 116.943 121.466 117.417Z" fill="#9EB0DA"/>
<path d="M141.324 158.833C141.308 159.142 141.38 159.533 141.113 159.857C140.892 160.125 140.629 160.382 140.259 160.248C139.888 160.114 139.559 159.842 139.595 159.42C139.636 158.966 139.75 158.503 139.935 158.086C140.089 157.746 140.398 157.453 140.845 157.587C141.231 157.7 141.319 158.024 141.324 158.385C141.324 158.513 141.324 158.637 141.324 158.827V158.833Z" fill="#A0B1DB"/>
<path d="M155.507 138.544C155.116 138.575 154.694 138.184 154.679 137.767C154.653 137.154 155.193 136.289 155.641 136.294C156.083 136.305 156.469 136.495 156.536 137C156.618 137.618 156.011 138.503 155.507 138.544Z" fill="#9FB0DA"/>
<path d="M124.28 118.421C124.301 117.638 124.779 117.031 125.34 117.072C125.865 117.108 126.05 117.437 126.055 117.921C126.065 118.513 125.448 119.321 124.98 119.255C124.517 119.188 124.229 118.91 124.28 118.426V118.421Z" fill="#A0B2DB"/>
<path d="M128.056 129.123C128.066 129.556 127.567 129.993 127.027 130.029C126.436 130.065 126.086 129.798 126.076 129.293C126.06 128.753 126.575 128.248 127.12 128.264C127.567 128.279 128.051 128.722 128.061 129.123H128.056Z" fill="#A0B2DB"/>
<path d="M99.1443 149.123C99.5816 149.144 99.844 149.401 99.844 149.906C99.844 150.472 99.4633 150.894 98.9591 150.894C98.4858 150.894 98.1463 150.719 98.1051 150.194C98.0588 149.654 98.5424 149.128 99.1494 149.118L99.1443 149.123Z" fill="#9FB1DB"/>
<path d="M102.642 105.061C102.658 105.55 102.097 106.086 101.547 106.07C101.073 106.055 100.888 105.751 100.888 105.313C100.888 104.737 101.274 104.33 101.799 104.33C102.323 104.33 102.622 104.593 102.637 105.061H102.642Z" fill="#A0B2DB"/>
<path d="M145.259 158.061C145.609 158.061 146.026 158.529 146.026 158.92C146.026 159.317 145.604 159.806 145.259 159.77C144.796 159.718 144.503 159.43 144.421 158.977C144.349 158.586 144.858 158.061 145.264 158.061H145.259Z" fill="#A1B3DD"/>
<path d="M69.5738 83.774C69.5018 77.581 74.2553 72.6285 80.6241 72.6079C87.101 72.5925 91.8596 77.3905 91.9162 83.738C91.9728 90.5128 86.8438 95.0792 80.7322 95.0895C74.173 95.0997 69.4092 89.9568 69.5789 83.774H69.5738Z" fill="#E3AAB9"/>
<path d="M69.8361 73.787C70.2476 73.9363 70.546 73.5657 70.9216 73.5451C71.2251 73.5296 71.544 73.4936 71.6469 73.8745C71.7344 74.2092 71.5749 74.4408 71.2662 74.5798C71.1119 74.6467 70.9627 74.7291 70.8135 74.8012C69.0078 75.6146 67.4902 76.7986 66.2247 78.3173C66.0652 78.5129 65.8903 78.7034 65.7051 78.8681C65.4633 79.0792 65.1906 79.1719 64.9077 78.9402C64.5887 78.6777 64.599 78.3636 64.7842 78.0342C64.9797 77.6738 65.3913 77.4524 65.4993 76.9479C65.026 76.8913 64.5733 76.881 64.1411 76.778C61.8158 76.2169 60.2982 73.8642 60.7252 71.4344C61.1728 68.8861 63.6061 67.4086 65.8131 67.6557C68.1024 67.908 69.9081 69.8333 69.939 72.1911C69.9493 72.7368 69.7229 73.2722 69.8669 73.8231L69.8464 73.7973L69.8361 73.787Z" fill="black"/>
<path d="M77.1311 56.4791C77.059 57.3285 77.0436 58.2706 76.6784 59.1406C76.2668 60.1239 75.6392 60.9013 74.5023 61.0403C73.3808 61.1793 72.5422 60.6645 71.93 59.7533C71.6471 59.3311 71.4053 58.8832 71.0966 58.4817C69.6664 56.613 67.7681 55.6812 65.4171 55.6812C64.7278 55.6812 64.0847 55.8665 63.4982 56.2423C62.6288 56.7983 61.6925 57.0763 60.7717 56.4431C59.7016 55.712 59.254 54.6104 59.4753 53.3388C59.9022 50.8729 61.2244 49.0196 63.6011 48.1238C68.1848 46.3941 74.4354 47.9231 76.6012 53.6683C76.9356 54.5537 77.1053 55.4546 77.1311 56.4688V56.4791Z" fill="#020203"/>
<path d="M46.1715 82.1628C46.1561 82.7291 45.796 83.0585 45.2044 82.9453C44.1857 82.7445 43.3472 82.1473 42.6012 81.4729C42.1537 81.0662 42.5755 80.294 43.2443 80.1859C43.9131 80.0778 45.8577 81.2104 46.1046 81.8539C46.1509 81.9672 46.1561 82.101 46.1715 82.1679V82.1628Z" fill="#9EB0DA"/>
<path d="M54.305 31.7892C53.878 32.7621 53.3996 33.7815 52.4582 34.4867C52.237 34.6515 51.9643 34.6 51.7688 34.4044C51.527 34.1624 51.3212 33.8741 51.4704 33.5086C51.8563 32.5717 52.4736 31.7686 53.0755 30.9706C53.2401 30.7544 53.5334 30.7647 53.7649 30.914C54.053 31.0942 54.2947 31.3258 54.305 31.7943V31.7892Z" fill="#9EB0DA"/>
<path d="M98.4189 75.0942C98.779 75.1097 99.0157 75.295 99.1546 75.5524C99.3295 75.8819 99.4581 76.2371 99.5558 76.5975C99.6536 76.9372 99.6021 77.2822 99.2677 77.4829C98.9076 77.6991 98.5424 77.6477 98.2286 77.3697C97.7913 76.9836 97.6421 76.4379 97.6318 75.9076C97.6215 75.4546 97.9971 75.1921 98.4189 75.0994V75.0942Z" fill="#9FB1DB"/>
<path d="M90.4552 49.1073C90.5375 49.6788 90.1877 50.0752 89.7452 50.4304C89.56 50.5745 89.3594 50.6003 89.1691 50.4664C88.8038 50.1987 88.562 49.8744 88.7781 49.3956C88.9993 48.9066 88.809 48.1446 89.6732 48.0932C90.2751 48.0571 90.4603 48.2682 90.45 49.1073H90.4552Z" fill="#9FB0DA"/>
<path d="M102.653 76.3868C102.632 76.8758 102.272 77.1744 101.814 77.0354C101.238 76.8604 100.765 76.5052 100.477 75.9698C100.25 75.5528 100.708 74.8887 101.176 74.8887C101.747 74.8887 102.678 75.8359 102.653 76.3868Z" fill="#9EB0DA"/>
<path d="M92.2249 49.6631C92.2043 48.999 92.4409 48.6438 92.8885 48.6387C93.4647 48.6387 93.9843 49.2461 94.0049 49.9566C94.0254 50.5537 93.7425 50.8884 93.2332 50.8832C92.6519 50.8729 92.2454 50.3839 92.2249 49.6631Z" fill="#9FB0DA"/>
<path d="M56.1314 33.0915C56.6201 33.0966 57.0831 33.5394 57.042 33.9461C57.0008 34.3785 56.4401 35.022 56.0954 35.0375C55.6633 35.0529 55.2208 34.5793 55.2414 34.1211C55.2671 33.4982 55.6273 33.0812 56.1314 33.0915Z" fill="#9FB1DB"/>
<path d="M123.004 10.6926C123.231 9.71965 123.653 8.61797 124.234 7.58321C124.399 7.28463 124.712 7.04782 125.088 7.18681C125.53 7.35155 125.803 7.79943 125.7 8.19583C125.407 9.29751 125.026 10.3735 124.604 11.4339C124.44 11.8458 124.018 12.0466 123.539 11.9127C123.004 11.7634 123.004 11.3258 123.01 10.6926H123.004Z" fill="#9DAFDA"/>
<path d="M129.291 10.6615C129.275 10.749 129.275 10.8416 129.239 10.9086C128.704 11.8146 128.139 12.7001 127.279 13.3436C126.991 13.5598 126.631 13.5392 126.338 13.3076C126.034 13.0656 126.004 12.7207 126.132 12.3861C126.487 11.4594 127.259 10.8313 127.871 10.1003C128.118 9.80173 128.576 9.83777 128.931 10.0334C129.157 10.1569 129.255 10.4092 129.296 10.6615H129.291Z" fill="#9EB0DA"/>
<path d="M132.13 93.2361C132.202 93.8538 132.028 94.0958 131.683 94.2605C131.343 94.4201 131.132 94.2399 130.901 94.0443C130.134 93.3905 129.769 92.4844 129.419 91.5835C129.27 91.1974 129.424 90.8422 129.815 90.626C130.093 90.4716 130.397 90.384 130.633 90.626C131.421 91.4188 131.858 92.4124 132.13 93.2412V93.2361Z" fill="#9EB0DA"/>
<path d="M135.135 66.4045C135.166 66.7957 134.764 67.1715 134.317 67.1818C133.72 67.1921 131.894 65.8588 131.77 65.2719C131.683 64.86 131.873 64.5306 132.3 64.407C132.974 64.2062 135.078 65.7043 135.135 66.4096V66.4045Z" fill="#9EB0DA"/>
<path d="M136.961 63.9953C136.961 64.402 136.452 64.9271 136.03 64.8344C135.336 64.6851 134.651 64.4792 133.993 64.2115C133.689 64.088 133.509 63.7276 133.597 63.3621C133.689 62.976 133.905 62.5899 134.348 62.6414C135.13 62.734 135.938 62.8267 136.586 63.3621C136.781 63.5268 136.941 63.7224 136.956 63.9953H136.961Z" fill="#9FB1DB"/>
<path d="M144.868 49.0868C144.884 49.6479 144.354 50.0804 143.85 49.8127C143.274 49.5089 142.697 49.1434 142.327 48.5669C142.126 48.258 142.116 47.9542 142.327 47.6351C142.522 47.3416 142.8 47.3159 143.093 47.3365C143.695 47.3828 144.848 48.5308 144.863 49.092L144.868 49.0868Z" fill="#9EB0DA"/>
<path d="M134.672 90.585C134.698 91.1565 134.08 91.7227 133.669 91.5374C133.185 91.3212 132.691 91.0535 132.357 90.6108C132.105 90.2761 132.069 89.9003 132.347 89.576C132.635 89.2311 133.026 89.0612 133.453 89.3392C133.977 89.679 134.451 90.0754 134.672 90.585Z" fill="#9FB1DB"/>
<path d="M133.648 24.4224C133.658 24.8034 133.514 25.0196 133.309 25.1638C133 25.38 132.666 25.555 132.336 25.7352C131.987 25.9257 131.616 26.0595 131.318 25.6734C131.035 25.3028 131.014 24.8343 131.292 24.4997C131.668 24.0415 132.228 23.7583 132.82 23.7223C133.293 23.6914 133.514 24.1136 133.648 24.4224Z" fill="#9FB1DB"/>
<path d="M133.926 28.242C133.926 28.7001 133.674 28.9678 133.17 29.009C132.588 29.0554 132.208 28.7928 132.187 28.2986C132.172 27.7889 132.434 27.5264 132.943 27.4852C133.53 27.4389 133.895 27.7014 133.931 28.2471L133.926 28.242Z" fill="#A0B3DD"/>
<path d="M141.812 83.3623C141.833 83.9079 141.519 84.2323 141.036 84.2065C140.583 84.186 140.341 83.9388 140.315 83.491C140.29 83.007 140.609 82.6879 141.092 82.7085C141.545 82.7291 141.782 82.9762 141.812 83.3623Z" fill="#9FB2DC"/>
<path d="M31.9369 18.4044C31.9369 18.5743 31.9523 18.7442 31.9369 18.9141C31.9009 19.3002 31.6797 19.537 31.2938 19.5833C30.9183 19.6297 30.5788 19.501 30.4759 19.1303C30.2598 18.3581 30.0746 17.5807 29.9409 16.7931C29.8637 16.3504 30.1981 16.093 30.5891 15.9694C31.0366 15.8253 31.3607 16.0569 31.4945 16.4482C31.7105 17.0814 31.8546 17.7403 32.0244 18.3941C31.9935 18.3993 31.9678 18.4044 31.9369 18.4147V18.4044Z" fill="#9DAFDA"/>
<path d="M18.9367 9.41597C18.9264 9.79178 18.7978 10.0131 18.5406 10.1007C18.129 10.2397 17.6609 10.2963 17.3779 9.91019C16.9612 9.3336 16.6165 8.69525 16.4519 7.99511C16.3542 7.57812 16.6114 7.27439 16.9355 7.04273C17.1824 6.86769 17.4448 6.95006 17.63 7.11995C18.3451 7.76345 18.5509 8.6901 18.9316 9.42112L18.9367 9.41597Z" fill="#9EB0DA"/>
<path d="M13.7924 9.43131C14.5229 9.65267 15.2277 10.0954 15.7833 10.7389C16.02 11.0066 15.984 11.3773 15.773 11.6759C15.5827 11.9436 15.2792 12.0208 14.9859 11.9333C14.2143 11.6964 13.5558 11.2486 13.0207 10.6462C12.815 10.4146 12.8355 10.0954 12.9693 9.81226C13.1133 9.50853 13.3809 9.41586 13.7924 9.43131Z" fill="#9EB0DA"/>
<path d="M9.49674 53.4316C8.79195 53.2359 8.07687 52.9168 7.5367 52.2887C7.35664 52.0828 7.30005 51.8614 7.43381 51.5989C7.583 51.3157 7.77334 51.1201 8.11288 51.1458C8.98744 51.2076 9.69223 51.6658 10.3662 52.1548C10.6594 52.3711 10.6337 52.7572 10.4588 53.0763C10.2684 53.4264 9.92373 53.4367 9.49674 53.4264V53.4316Z" fill="#9EB0DA"/>
<path d="M9.53276 80.6748C8.98745 80.6748 8.5193 80.7057 8.36497 80.1857C8.22092 79.6761 8.60161 79.4032 8.96687 79.1921C9.48132 78.8987 10.0421 78.7031 10.6285 78.6362C11.0298 78.595 11.4053 78.6722 11.5442 79.1201C11.6677 79.5268 11.57 79.8923 11.179 80.0982C10.6234 80.3916 10.0884 80.7623 9.52762 80.6748H9.53276Z" fill="#9EB0DA"/>
<path d="M9.98034 77.3443C9.38358 77.2516 8.87942 76.8912 8.47815 76.3764C8.23122 76.0572 8.27752 75.7484 8.53474 75.4652C8.8074 75.1615 9.11607 74.9659 9.53277 75.2078C9.89803 75.4189 10.253 75.6454 10.6183 75.8513C11.0607 76.0984 11.1841 76.4794 11.0092 76.9221C10.8395 77.3545 10.4382 77.37 9.98034 77.3443Z" fill="#9EB0DA"/>
<path d="M14.4714 31.547C13.6997 31.5264 13.1235 31.0785 13.139 30.5122C13.1544 29.9871 13.5042 29.7452 14.2142 29.7709C14.9241 29.7966 15.4025 30.2085 15.3974 30.7851C15.3974 31.2896 15.0681 31.5573 14.4714 31.5418V31.547Z" fill="#A0B1DB"/>
<path d="M35.7952 17.0605C36.2634 17.0811 36.7984 17.7246 36.7367 18.224C36.6749 18.6925 36.3354 18.8315 35.9187 18.8315C35.3991 18.8315 35.0184 18.4093 35.0081 17.8379C35.003 17.3488 35.3168 17.0399 35.7952 17.0605Z" fill="#9FB1DB"/>
<path d="M9.56357 73.7097C9.54814 73.1177 9.84137 72.7728 10.3558 72.7934C10.8857 72.8191 11.0863 73.1434 11.0915 73.6325C11.1018 74.2245 10.8137 74.5643 10.2992 74.5488C9.82594 74.5334 9.579 74.2502 9.56357 73.7097Z" fill="#9EB0DA"/>
<path d="M16.8122 28.8806C16.8122 29.2718 16.3955 29.7403 16.0456 29.7403C15.6392 29.7403 15.1299 29.2152 15.2019 28.824C15.2842 28.3761 15.5775 28.0826 16.0405 28.0312C16.3852 27.9951 16.807 28.4893 16.807 28.8806H16.8122Z" fill="#A1B3DD"/>
<path d="M194.775 95.6815C194.965 95.2542 194.98 94.7188 195.413 94.3739C195.706 94.1422 196.02 94.0856 196.349 94.2297C196.704 94.3893 196.827 94.7136 196.735 95.0689C196.611 95.5476 196.534 96.0573 196.138 96.4228C195.824 96.7059 195.474 96.778 195.099 96.5772C194.754 96.3919 194.713 96.0573 194.77 95.6815H194.775Z" fill="#9FB1DB"/>
<path d="M198.654 97.4317C198.144 97.4111 197.239 96.3146 197.321 95.7637C197.388 95.3056 197.697 95.0018 198.16 94.9555C198.612 94.9092 199.472 96.0263 199.487 96.6389C199.497 96.9993 199.029 97.4471 198.654 97.4317Z" fill="#9FB0DA"/>
<path d="M199.688 100.438C199.667 100.85 199.245 101.298 198.885 101.236C198.433 101.159 198.144 100.865 198.078 100.412C198.026 100.062 198.499 99.635 198.901 99.6247C199.276 99.6144 199.703 100.057 199.688 100.438Z" fill="#A0B3DD"/>
<path d="M69.8362 73.7867C69.8722 73.8794 69.8362 73.936 69.7436 73.9412C69.7281 73.9412 69.6921 73.8742 69.6973 73.8485C69.723 73.7455 69.7847 73.7352 69.8568 73.8176L69.8362 73.7919V73.7867Z" fill="#C8D4ED"/>
<path d="M61.6822 51.3569C62.5927 49.7044 64.1721 49.1381 65.8749 48.8807C67.2176 48.6799 68.5758 48.7623 69.903 49.1175C73 49.9412 75.4745 52.7726 75.7883 55.8872C75.8861 56.8653 75.7986 57.8434 75.4179 58.7546C74.8983 59.985 74.0855 60.0931 73.1338 59.0944C72.3467 57.4213 71.8837 55.5886 70.5204 54.1986C69.1571 52.8086 67.5674 52.299 65.6743 52.6645C64.9232 52.8086 64.1927 53.0403 63.4364 53.1227C62.2018 53.2565 61.5639 52.5924 61.6822 51.362V51.3569Z" fill="#91A7D6"/>
<path d="M61.6822 51.3569C61.9394 52.6285 62.4899 52.9992 63.6886 52.7315C64.2648 52.6028 64.8564 52.541 65.4223 52.3865C67.9842 51.6813 69.9185 52.7212 71.4001 54.6774C72.3673 55.9541 73.0361 57.4316 73.139 59.0893C72.6914 58.801 72.5525 58.281 72.2541 57.8795C70.5976 55.6092 68.3495 54.4972 65.5612 54.4561C64.6146 54.4406 63.7657 54.8267 62.9015 55.1665C62.4282 55.3467 61.8983 55.7585 61.3736 55.254C60.854 54.7495 60.6379 54.1266 60.8077 53.411C60.9826 52.68 61.1369 51.9335 61.6822 51.3569Z" fill="#7489C3"/>
</g>
<defs>
<clipPath id="clip0_1396_7393">
<rect width="206" height="185" fill="white"/>
</clipPath>
</defs>
</svg>
