<svg width="139" height="120" viewBox="0 0 139 120" fill="none" xmlns="http://www.w3.org/2000/svg">
<path d="M138.128 60.2944C137.848 59.0988 137.308 58.0035 136.24 57.2454C135.489 56.7111 134.843 56.7946 134.217 57.4691C134.144 57.5493 134.072 57.6294 133.982 57.7229C133.408 57.0717 132.726 56.5909 131.921 56.2736C130.437 55.6892 129.261 56.2636 128.853 57.7597C128.767 58.0803 128.798 58.4109 128.739 58.7916C127.435 58.5712 126.865 59.3727 126.398 60.3044C126.312 60.4747 126.253 60.6617 126.201 60.8487C125.82 62.1712 125.98 63.4702 126.457 64.7326C126.937 65.9949 127.46 67.2405 127.975 68.4895C128.756 70.3897 129.095 72.3366 128.784 74.3837C128.635 75.3722 128.272 76.2138 127.525 76.9251C126.433 77.9603 125.15 78.6516 123.652 78.8586C121.629 79.1358 119.81 78.6816 118.361 77.1856C118.092 76.905 117.957 76.6279 118.022 76.2271C118.569 72.8843 118.493 69.5414 117.998 66.2019C117.459 62.5385 116.044 59.2792 113.267 56.6443C111.196 54.6807 108.962 52.9675 106.113 52.176C105.725 52.0692 105.722 51.8421 105.694 51.5682C105.428 48.6696 104.432 46.0013 102.9 43.5167C101.945 41.9739 100.842 40.5446 99.2758 39.5127C99.096 39.3958 98.8608 39.3423 98.7744 39.1353C98.7882 39.0819 98.7882 39.0485 98.802 39.0351C99.3484 38.5943 99.9086 38.1702 100.438 37.7127C103.36 35.1847 104.501 31.942 104.041 28.2819C103.612 24.889 101.883 22.0738 99.096 19.8964C97.8787 18.9447 98.0516 19.2185 98.7605 18.1065C99.8083 16.4634 100.77 14.797 101.344 12.9302C102.637 8.71914 100.967 4.35441 97.0418 2.09691C94.6488 0.721036 92.0828 0.0798517 89.3405 0.00972221C86.2248 -0.0670863 83.1505 0.326975 80.1281 1.04497C77.033 1.783 74.0002 2.72474 71.2648 4.34439C66.7381 7.02935 62.7509 10.3188 59.5037 14.4096C59.0161 15.0241 59.0126 15.0308 58.238 14.6935C54.0433 12.8635 49.6376 11.9251 45.0383 11.7481C41.2966 11.6045 37.6725 12.1455 34.1279 13.2742C33.0697 13.6115 33.0835 13.6082 32.4749 12.7399C28.8231 7.51358 24.0335 3.63642 17.8919 1.41231C15.0597 0.377067 12.1306 -0.0403703 9.1082 0.49395C5.41145 1.14849 2.81784 3.73994 2.21267 7.33324C1.84956 9.4772 2.16425 11.551 2.83168 13.5915C3.48526 15.5885 4.39476 17.472 5.65698 19.1751C3.65126 21.0753 2.14696 23.2727 0.995403 25.6805C0.18274 27.3769 -0.218405 29.1869 0.120493 31.057C0.646131 33.9524 2.15734 36.2667 4.66449 37.9598C4.9446 38.1501 5.23508 38.3205 5.52211 38.4975C5.97628 38.778 6.06965 39.1587 5.80222 39.6396C5.61202 39.9769 5.41491 40.3108 5.22471 40.6481C4.50887 41.9271 3.76192 43.1928 3.17057 44.5319C2.32679 46.4455 1.80115 48.4291 1.88069 50.533C2.00864 53.9527 4.36017 56.7512 7.80102 57.5126C9.12549 57.8064 10.4638 57.6695 11.7744 57.3422C12.4626 57.1719 13.1404 56.9749 13.8147 56.7645C14.0983 56.6743 14.2539 56.681 14.4199 56.9749C14.7865 57.6261 15.198 58.2506 15.6268 58.8651C15.7547 59.0487 15.7617 59.219 15.7582 59.4061C15.7167 60.7953 16.187 62.0476 16.8164 63.2665C17.6118 64.806 18.7288 66.1318 19.8838 67.4175C21.7927 69.5381 22.55 72.0561 22.7056 74.7711C22.8163 76.7347 22.135 78.4379 20.5408 79.7536C19.6002 80.5317 18.5489 81.1195 17.3939 81.5302C15.5127 82.1981 13.5692 82.6022 11.5566 82.5221C10.9652 82.4987 10.6678 82.7158 10.45 83.1933C10.239 83.6575 10.1837 84.1484 10.156 84.6427C10.0972 85.6144 10.4984 86.4593 10.9791 87.2842C11.311 87.8519 11.9266 87.9454 12.4557 88.1825C12.7635 88.3194 13.0851 88.4363 13.4032 88.5499C16.4429 89.6385 19.5518 90.2196 22.7644 89.4482C27.7995 88.2393 31.3752 85.4708 32.7273 80.4382C33.3256 78.2175 33.4501 75.9366 33.6956 73.6691C33.8201 72.5002 33.8374 71.3114 34.2835 70.1292C36.3341 70.8338 38.4332 71.111 40.5635 71.2412C41.2931 71.2847 41.2862 71.3181 41.4003 71.9826C41.8395 74.5039 42.4412 76.9885 43.2988 79.413C44.5057 82.836 45.9754 86.1254 48.3443 88.9773C48.5829 89.2612 48.6763 89.6051 48.7696 89.9558C49.3817 92.2033 49.5685 94.5075 49.7379 96.8084C50.0664 101.28 50.3362 105.755 50.305 110.243C50.2981 111.342 50.2843 112.444 50.4053 113.543C50.4779 114.214 50.7062 114.828 51.0866 115.386C51.9511 116.652 53.1096 117.523 54.6692 117.857C56.4017 118.228 58.1619 118.285 59.9256 118.362C60.2022 118.375 60.4789 118.325 60.7486 118.495C61.831 119.183 63.0863 119.353 64.3243 119.447C66.8799 119.641 69.4459 119.741 72.0083 119.637C73.7962 119.564 75.5841 119.454 77.3373 119.029C79.2981 118.555 80.3874 117.373 80.7332 115.463C81.1724 113.032 81.1309 110.587 80.9891 108.146C80.8785 106.253 80.9269 104.359 80.8612 102.436C81.7741 102.509 82.6145 102.576 83.4548 102.646C84.3159 102.719 85.1769 102.479 86.0691 102.536C86.0276 102.823 86.0069 103.017 85.9689 103.204C85.1839 106.85 84.8035 110.537 84.8277 114.261C84.8311 114.899 84.9383 115.516 85.1009 116.131C85.3913 117.24 86.0622 118.028 87.1515 118.509C88.9359 119.293 90.8275 119.644 92.7572 119.811C95.4269 120.041 98.1069 120.001 100.784 119.991C101.786 119.991 102.772 119.798 103.692 119.42C104.314 119.166 104.933 119.029 105.59 119.039C106.932 119.056 108.267 118.933 109.598 118.822C110.847 118.719 112.071 118.455 113.24 118.004C114.564 117.493 115.432 116.582 115.813 115.232C116.113 114.157 116.228 113.068 116.183 111.966C116.041 108.587 115.906 105.204 115.709 101.828C115.467 97.7068 115.273 93.5858 115.263 89.4582C115.263 89.0708 115.308 88.6968 115.411 88.3194C116.089 85.8215 116.684 83.3069 117.182 80.7688C117.365 79.8338 117.566 78.8987 117.777 77.8701C118.462 78.4078 119.06 78.8987 119.783 79.216C122.843 80.5551 126.789 79.5366 128.819 76.7414C129.438 75.8865 130.147 75.2887 131.105 74.8947C131.312 74.8078 131.509 74.6943 131.71 74.5908C133.601 73.5922 135.106 72.2064 136.198 70.403C136.79 69.4279 137.281 68.4093 137.689 67.3541C138.578 65.0465 138.699 62.6821 138.138 60.2944H138.128ZM60.2334 14.8037C63.3111 11.1803 66.8972 8.10801 70.9778 5.57333C73.7097 3.87686 76.7218 2.84496 79.841 2.06017C83.1954 1.21862 86.5982 0.804523 90.0633 0.968158C92.7088 1.09506 95.1295 1.86648 97.2943 3.36926C100.05 5.28279 101.364 8.58222 100.652 11.7948C100.216 13.7584 99.3242 15.5217 98.221 17.2048C97.9479 17.6222 97.6677 18.0397 97.4291 18.4772C97.111 19.0582 97.1698 19.4189 97.6539 19.8831C97.9755 20.1903 98.3352 20.4642 98.681 20.7514C101.313 22.922 102.938 25.6604 103.149 28.9932C103.356 32.2559 102.232 35.1045 99.5351 37.2451C98.9853 37.6826 98.4182 38.1001 97.8994 38.5709C97.3911 39.0351 97.3946 39.4659 97.9651 39.7865C100.701 41.3293 102.181 43.8273 103.384 46.4956C105.137 50.3861 105.241 54.3734 103.882 58.4042C102.724 61.8372 100.223 63.8877 96.7168 64.8494C94.0436 65.5808 91.3151 65.5173 88.5901 65.13C84.755 64.5856 81.2381 63.1062 77.7074 61.6669C74.8821 60.5148 72.3784 58.855 69.8816 57.1786C69.5254 56.9382 69.4147 56.7612 69.6395 56.3404C71.5415 52.7972 72.5063 49.0236 72.7069 45.0362C72.8556 42.0874 72.8245 39.1487 72.5063 36.2199C71.953 31.1205 70.4798 26.3216 67.4678 22.0337C66.0915 20.0734 64.3624 18.4571 62.367 17.0979C61.5302 16.5302 60.676 15.9892 59.8322 15.4349C59.8737 15.161 60.0777 14.9941 60.2368 14.807L60.2334 14.8037ZM13.8216 50.2725C13.4032 51.9623 13.3583 53.6488 13.7629 55.3352C13.8493 55.6892 13.7767 55.8295 13.4447 55.9296C12.1963 56.3037 10.941 56.6643 9.63038 56.7545C6.77396 56.9515 3.93828 54.9578 3.09449 52.1694C2.61381 50.5864 2.80055 49.0102 3.17057 47.4406C3.48527 46.0915 4.02473 44.8225 4.67832 43.6035C5.31808 42.408 5.99242 41.2325 6.64946 40.0436C6.78087 39.8032 6.92266 39.5561 7.00565 39.2989C7.15781 38.8381 7.0679 38.424 6.62872 38.1334C6.30019 37.9164 5.96821 37.7027 5.63277 37.4989C3.62359 36.29 2.26108 34.5802 1.4415 32.4463C0.632298 30.3391 0.860535 28.2519 1.76311 26.2615C2.81784 23.9372 4.22877 21.8066 6.12728 20.0133C6.73938 19.4356 6.79816 19.1684 6.30019 18.4304C5.40799 17.118 4.60916 15.7621 4.04548 14.2827C3.22936 12.1421 2.74522 9.96477 3.0772 7.66385C3.5233 4.57482 5.57052 1.99672 9.50589 1.31213C12.5767 0.777807 15.5161 1.3689 18.3414 2.49097C24.0093 4.74179 28.4703 8.42526 31.8524 13.341C31.9769 13.5213 32.1394 13.685 32.1498 13.9421C29.4386 15.151 26.8381 16.5202 24.5281 18.4003C20.7552 21.4727 18.172 25.2563 16.8959 29.8582C16.3634 31.7784 16.187 33.7554 16.1248 35.7357C16.0833 37.1116 16.0764 38.4874 16.104 39.8633C16.1559 42.3679 15.734 44.7824 14.8072 47.1267C14.4026 48.1519 14.0879 49.2072 13.8251 50.2759L13.8216 50.2725ZM11.4252 86.289C10.9237 85.374 10.8546 84.5158 11.1623 83.6141C11.8989 84.3221 11.9958 85.1402 11.4252 86.289ZM35.1307 69.4947C34.6189 69.3444 34.6189 69.3344 34.8817 68.8969C35.8466 67.2906 37.3647 66.4591 39.1698 66.0216C40.1658 65.7812 41.1928 65.7377 42.1992 65.5574C43.5859 65.3103 44.0181 65.1166 45.1178 64.1982C45.7887 64.7125 46.4873 65.0765 47.248 65.3236C47.8013 65.5006 48.161 65.4305 48.2232 65.15C48.3408 64.6391 47.9189 64.5923 47.5662 64.4821C46.425 64.1214 45.474 63.4936 44.7789 62.5418C44.274 61.8539 44.0009 61.0825 43.9801 60.2309C43.9801 60.094 43.9801 59.9571 43.9766 59.8202C43.9663 59.6098 43.8936 59.4428 43.6481 59.4061C43.3715 59.366 43.1951 59.5129 43.1501 59.75C43.0706 60.1574 43.0914 60.5715 43.164 60.9823C43.3438 61.9808 43.8003 62.8558 44.4954 63.6372C43.9351 64.3151 43.1709 64.5689 42.3479 64.7192C41.2309 64.9229 40.0897 64.9363 38.9727 65.1867C35.5388 65.9615 33.3947 68.2424 32.997 71.6487C32.7584 73.6958 32.5613 75.7496 32.3331 77.8C32.1878 79.0891 31.8801 80.3414 31.4201 81.5603C30.3827 84.3154 28.4081 86.2189 25.728 87.5246C21.9517 89.3614 18.1201 89.2512 14.2366 87.9254C13.6764 87.735 13.1266 87.5113 12.5663 87.3142C12.2586 87.204 12.0995 87.0938 12.2724 86.7232C12.7773 85.6412 12.7877 84.5425 12.1479 83.4004C13.7317 83.377 15.1945 83.1031 16.6297 82.7024C17.923 82.3417 19.1334 81.8174 20.2469 81.0827C22.7921 79.4063 23.8675 77.0687 23.5771 74.1332C23.4664 73.0112 23.2278 71.9058 22.8993 70.8238C22.5085 69.5414 21.8342 68.4027 20.98 67.3574C20.3956 66.6461 19.8111 65.9381 19.2233 65.2268C18.5801 64.452 18.0613 63.6038 17.5737 62.7289C16.436 60.7018 16.4775 58.6313 17.2452 56.514C18.2412 53.759 20.074 51.5849 22.3252 49.7015C23.4214 48.7831 24.5211 47.8647 25.7661 47.1301C25.8871 47.0599 26.0081 46.9798 26.1084 46.8863C26.2433 46.7594 26.2744 46.5924 26.1638 46.4388C26.0566 46.2952 25.9079 46.2251 25.7246 46.3219C25.3303 46.5289 24.9361 46.7393 24.4866 46.9764C24.49 46.4789 24.4139 46.0514 24.2687 45.6373C23.7534 44.1813 22.6849 43.5434 20.8901 43.9909C19.6071 44.3115 18.7703 45.3401 18.6561 46.5256C18.5282 47.8647 19.1368 48.9434 20.3783 49.5746C20.5028 49.638 20.6342 49.6881 20.8659 49.795C19.7109 50.8937 18.6112 52.0024 17.8227 53.3449C17.0377 54.6807 16.3288 56.0532 15.938 57.6862C15.3259 56.9315 14.9559 56.1935 14.7104 55.3953C14.164 53.5953 14.3265 51.8087 14.8003 50.0221C15.0666 49.0102 15.402 48.015 15.779 47.0399C16.6158 44.8759 17.0135 42.6451 16.9789 40.3375C16.972 40.0069 16.9789 39.6796 16.9789 39.3858C17.2037 39.1854 17.3247 39.3757 17.4665 39.4325C18.3069 39.7731 19.0227 39.6162 19.6002 38.9349C19.7973 38.7012 19.9668 38.444 20.1258 38.1835C20.8278 37.0381 21.9448 36.4604 23.2174 36.1631C23.9713 35.9895 24.7459 36.0663 25.4375 36.4938C27.0456 37.4923 28.2006 36.083 28.1245 34.8875C28.0277 33.4147 27.3015 32.276 25.9909 31.5146C24.9603 30.9168 23.8122 30.7398 22.6295 30.7865C20.4959 30.87 18.7149 31.6448 17.4112 33.3246C17.3835 33.3613 17.3109 33.368 17.2106 33.4047C17.3524 31.7216 17.6879 30.1086 18.255 28.529C20.0325 23.5966 23.3903 19.9031 27.8617 17.0979C31.3648 14.9005 35.2241 13.5547 39.3324 12.8935C41.4972 12.5462 43.6827 12.4994 45.889 12.643C48.2232 12.7967 50.5229 13.0905 52.7845 13.6716C54.6519 14.1525 56.4847 14.757 58.2346 15.5384C60.019 16.3365 61.5959 17.4786 63.114 18.6909C66.6448 21.5027 68.7127 25.2096 70.1375 29.3105C71.1231 32.1424 71.5968 35.0711 71.7905 38.0433C71.9841 41.0655 72.0014 44.0978 71.6349 47.11C71.0193 52.1827 69.0309 56.6743 65.5105 60.5381C62.1734 64.2016 58.0651 66.6795 53.3586 68.3325C50.7615 69.2476 48.116 69.9823 45.3634 70.2561C41.9156 70.6001 38.4886 70.4698 35.1411 69.488L35.1307 69.4947ZM17.2279 35.7257C17.8884 33.2177 19.9944 31.6882 22.9684 31.6548C23.5736 31.6281 24.2964 31.735 24.9914 32.0055C26.098 32.4329 26.7897 33.2177 27.1286 34.3064C27.2289 34.6303 27.2634 34.9576 27.1804 35.2815C27.0283 35.8659 26.6548 36.0396 26.0393 35.8526C25.3926 35.6555 24.7874 35.3149 24.0854 35.3182C22.1696 35.3283 20.6204 36.0429 19.4965 37.5624C19.2993 37.8296 19.1437 38.1301 18.9293 38.3839C18.4279 38.9717 17.7881 38.9115 17.4458 38.2169C17.0585 37.4255 16.9997 36.5772 17.221 35.7257H17.2279ZM53.2618 116.321C52.1171 115.44 51.3529 114.518 51.301 113.182C51.2802 112.634 51.2629 112.09 51.2733 111.542C51.2802 111.235 51.3529 110.914 51.7402 110.858C52.0791 110.808 52.3315 110.978 52.5079 111.262C52.743 111.643 52.8986 112.053 52.9886 112.481C53.2445 113.686 53.369 114.902 53.2583 116.324L53.2618 116.321ZM53.611 111.629C53.1131 110.387 52.6877 110.086 51.2733 110.083C51.0624 103.751 50.9828 97.4062 49.9212 91.1313C49.8797 90.951 49.9592 90.8975 50.1321 90.9409C52.1966 93.0248 54.6381 94.6344 57.2075 96.0671C57.5706 96.2708 57.4669 96.5112 57.4738 96.7517C57.5637 99.3364 57.6501 101.921 57.7158 104.506C57.7677 106.57 57.7815 108.63 57.8127 110.694C57.8127 110.848 57.8127 111.001 57.8127 111.195C56.1389 110.133 55.4231 110.38 53.9672 112.487C53.7217 112.24 53.7251 111.906 53.611 111.629ZM54.856 116.996C54.2024 116.859 54.2093 116.835 54.2093 116.201C54.2093 115.433 54.1851 114.668 54.396 113.913C54.6243 113.105 54.9908 112.374 55.6133 111.783C56.1977 111.228 56.6957 111.295 57.1418 111.96C57.2352 112.097 57.3147 112.244 57.3735 112.397C57.9648 113.977 58.2588 115.61 58.321 117.36C57.0761 117.39 55.9591 117.226 54.8525 116.996H54.856ZM59.3896 117.517C59.2167 117.503 59.1613 117.4 59.1648 117.25C59.1648 117.173 59.1925 117.066 59.2685 117.086C59.4034 117.123 59.4795 117.243 59.5244 117.376C59.5659 117.503 59.4553 117.487 59.393 117.52L59.3896 117.517ZM61.672 117.807C61.2224 117.781 60.9492 117.553 60.6898 117.306C60.1607 116.799 59.7631 116.204 59.476 115.536C59.0576 114.561 58.9124 113.533 58.8328 112.494C58.7913 111.943 59.1026 111.596 59.7388 111.375C60.2437 111.202 60.6483 111.329 60.9872 111.786C61.2916 112.194 61.423 112.674 61.5509 113.152C61.9555 114.688 61.8103 116.231 61.6685 117.807H61.672ZM67.1047 118.048C67.0909 118.696 67.0701 118.702 66.3681 118.682C65.0955 118.649 63.8298 118.539 62.5261 118.175C62.7682 117.376 62.699 116.658 62.7336 115.947C62.7889 114.802 63.159 113.746 63.7123 112.748C63.8437 112.507 64.0166 112.284 64.2102 112.083C64.9399 111.332 65.7526 111.425 66.2989 112.317C66.6067 112.818 66.7589 113.376 66.8592 113.947C67.1012 115.306 67.1254 116.675 67.0978 118.048H67.1047ZM73.2464 118.682C72.4786 118.696 71.7109 118.682 70.9398 118.682C70.9398 118.696 70.9398 118.709 70.9398 118.726C70.1444 118.726 69.3456 118.712 68.5502 118.732C68.1663 118.742 67.9934 118.659 68.0073 118.235C68.0453 117.079 68.0557 115.93 68.4084 114.808C68.7508 113.723 69.3317 112.808 70.3104 112.15C70.964 111.713 71.4101 111.602 72.1709 112.367C72.5305 112.728 72.7484 113.179 72.9351 113.643C73.5092 115.062 73.772 116.548 73.8861 118.058C73.9311 118.655 73.9069 118.669 73.2498 118.682H73.2464ZM87.9815 116.515C87.9123 116.919 87.9123 117.333 87.8743 117.824C86.8472 117.517 86.249 116.902 85.9896 115.95C85.8513 115.443 85.751 114.935 85.7337 114.414C85.6991 113.209 85.7579 112.003 85.8374 110.801C85.8651 110.394 86.0691 110.277 86.4322 110.47C86.7642 110.647 86.9821 110.941 87.1654 111.252C87.7256 112.197 87.9711 113.235 88.0576 114.307C88.1164 115.045 88.1094 115.783 87.9815 116.518V116.515ZM94.2027 118.999C92.9197 119.039 91.699 118.836 90.4783 118.609C90.0633 118.532 89.6483 118.432 89.2368 118.335C88.9601 118.268 88.7561 118.108 88.808 117.814C89.0189 116.658 88.8875 115.46 89.3371 114.331C89.6967 113.422 90.1463 112.584 90.8725 111.9C91.0973 111.689 91.3324 111.496 91.6195 111.362C92.2212 111.085 92.6915 111.158 93.1583 111.616C93.7255 112.177 93.9087 112.905 94.0194 113.633C94.2926 115.396 94.2822 117.169 94.1992 118.999H94.2027ZM99.9432 118.609C99.9155 119.023 99.7599 119.183 99.3138 119.156C98.7467 119.12 98.1761 119.146 97.6055 119.146C97.6055 119.126 97.6055 119.103 97.6055 119.083C96.9796 119.083 96.3537 119.076 95.7277 119.083C95.3473 119.09 95.1779 118.973 95.1744 118.562C95.1675 116.929 95.3128 115.323 95.9421 113.79C96.1635 113.252 96.4228 112.728 96.8482 112.31C97.7438 111.435 98.6637 111.586 99.2377 112.688C99.5213 113.232 99.6631 113.82 99.7634 114.418C99.9951 115.807 100.037 117.203 99.9432 118.609ZM105.538 118.155C105.615 117.824 105.826 117.617 106.088 117.39C106.187 117.897 106.004 118.152 105.538 118.155ZM110.134 117.817C109.253 118.008 108.343 118.014 107.437 118.068C107.15 118.084 107.019 117.998 106.977 117.727C106.846 116.825 106.721 115.947 107.236 115.089C107.707 114.307 107.966 113.426 108.295 112.578C108.519 111.996 108.827 111.946 109.277 112.401C109.543 112.668 109.667 113.005 109.764 113.349C109.968 114.064 110.124 114.792 110.127 115.54C110.131 116.281 110.127 117.019 110.127 117.817H110.134ZM114.972 114.772C114.651 116.037 113.893 116.849 112.621 117.256C112.14 117.41 111.666 117.563 111.127 117.64C111.082 116.762 111.037 115.917 110.992 115.069C110.954 114.351 110.781 113.656 110.549 112.978C110.3 112.25 109.923 111.619 109.083 111.392C108.831 111.325 108.772 111.185 108.886 110.965C108.91 110.918 108.914 110.858 108.934 110.808C110.096 107.845 110.753 104.75 111.5 101.677C112.254 98.5784 113.243 95.5394 114.208 92.4938C114.236 92.4003 114.205 92.2634 114.436 92.2367C114.381 94.0801 114.495 95.9068 114.582 97.7368C114.779 101.884 114.99 106.032 115.197 110.18C115.273 111.719 115.363 113.249 114.976 114.775L114.972 114.772ZM116.577 79.2226C115.367 85.3272 113.641 91.2983 111.794 97.2392C110.999 99.794 110.439 102.399 109.792 104.987C108.91 108.51 107.731 111.943 106.178 115.249C105.943 115.747 105.642 116.218 105.372 116.702C104.639 118.034 103.495 118.799 101.949 119.009C101.613 119.056 101.275 119.093 100.849 119.146C100.891 117.604 100.956 116.151 100.732 114.705C100.607 113.887 100.441 113.082 100.064 112.334C99.217 110.661 97.519 110.404 96.1773 111.736C95.8349 112.077 95.5998 112.481 95.375 112.895C95.247 113.132 95.2021 113.419 94.9566 113.613C94.877 113.279 94.8148 112.955 94.7214 112.638C94.5589 112.077 94.3168 111.556 93.9087 111.115C93.0684 110.207 92.0794 110.06 91.0074 110.694C90.2881 111.122 89.7624 111.736 89.306 112.404C89.1503 112.631 89.012 112.865 88.8391 113.145C88.5901 112.481 88.4518 111.84 88.1337 111.265C87.6945 110.474 87.2103 109.739 86.1729 109.602C85.7925 109.552 85.9619 109.275 85.9758 109.084C86.1521 106.971 86.4807 104.877 86.9752 102.816C88.0368 98.3914 89.5999 94.1268 91.4465 89.9558C91.6575 89.4782 91.8442 88.9873 92.0552 88.5065C92.1728 88.236 92.1555 87.9955 91.8546 87.892C91.5814 87.7985 91.4466 88.0256 91.3532 88.2293C90.7722 89.5116 90.1843 90.7907 89.6241 92.0797C88.3688 94.9684 87.3902 97.9472 86.5256 100.963C86.325 101.661 86.3216 101.624 85.5885 101.707C84.1948 101.868 82.8116 101.858 81.4145 101.704C80.958 101.654 80.7747 101.531 80.7505 101.083C80.626 98.7186 80.2456 96.381 79.8687 94.0467C79.4295 91.325 78.6583 88.6868 77.652 86.112C77.5725 85.9083 77.4791 85.7046 77.3546 85.5243C77.282 85.4174 77.1368 85.3439 76.9811 85.4141C76.8463 85.4775 76.7529 85.5777 76.7529 85.7313C76.7529 85.9284 76.8324 86.102 76.8981 86.2857C78.6998 91.2248 79.5505 96.3376 79.886 101.541C80.1626 105.828 80.0935 110.12 79.9482 114.408C79.9344 114.818 79.8929 115.226 79.803 115.633C79.4088 117.437 78.029 118.071 76.3587 118.338C75.8884 118.412 75.3351 118.726 74.9547 118.462C74.5674 118.195 74.7852 117.597 74.7126 117.149C74.4947 115.79 74.2665 114.438 73.7028 113.159C73.4331 112.544 73.0873 111.98 72.5651 111.536C71.7351 110.828 70.9225 110.758 69.9922 111.335C69.1381 111.863 68.4534 112.551 68.0142 113.449C67.9692 113.543 67.8966 113.626 67.7998 113.776C67.6511 113.322 67.537 112.942 67.4055 112.561C67.2672 112.167 67.0667 111.803 66.79 111.482C65.9912 110.557 64.729 110.484 63.771 111.309C63.2108 111.793 62.8719 112.431 62.5088 113.099C62.329 112.634 62.1872 112.217 62.0039 111.816C61.423 110.55 60.2264 110.183 59.0611 110.808C58.9919 110.844 58.9124 110.858 58.8224 110.888C58.6634 110.677 58.7325 110.454 58.7291 110.247C58.7049 104.276 58.4663 98.3112 58.2899 92.3435C58.1965 89.1209 57.6674 85.9451 56.917 82.8026C56.8617 82.5655 56.7683 82.3317 56.6576 82.1113C56.5954 81.9878 56.4467 81.9343 56.2876 81.9777C56.1355 82.0211 56.0248 82.118 56.0352 82.2683C56.049 82.5121 56.0871 82.7592 56.1389 82.9996C56.9793 86.8868 57.3908 90.8207 57.4599 94.788C57.4599 94.8682 57.4426 94.9483 57.4357 95.0218C57.1902 95.1587 57.0588 94.945 56.9066 94.8582C53.6318 92.9513 50.7373 90.6304 48.4722 87.6215C46.7328 85.3139 45.5224 82.7458 44.5265 80.0742C43.4752 77.2523 42.6868 74.367 42.1335 71.4349C42.1888 71.278 42.3167 71.298 42.417 71.298C46.6567 71.2746 50.682 70.2861 54.6001 68.7934C57.3666 67.7381 59.9671 66.3789 62.3186 64.629C64.6771 62.8725 66.6759 60.7586 68.3635 58.3842C68.443 58.2706 68.526 58.1571 68.5917 58.0369C68.7473 57.7497 68.9202 57.7363 69.2003 57.92C69.7433 58.2706 70.345 58.5411 70.8671 58.9185C73.7339 61.0023 76.9673 62.4016 80.2629 63.704C83.0882 64.8194 85.9689 65.721 88.9947 66.1251C91.8166 66.5025 94.6349 66.4658 97.3634 65.6376C101.527 64.3752 104.145 61.6569 105.155 57.5359C105.445 56.3571 105.66 55.1682 105.729 53.956C105.746 53.6321 105.704 53.2981 105.864 52.9107C106.496 53.0376 107.077 53.3015 107.641 53.5886C109.467 54.5237 111.04 55.7794 112.52 57.1653C115.308 59.7767 116.625 63.0328 117.151 66.6695C117.76 70.8873 117.407 75.0449 116.58 79.2126L116.577 79.2226ZM136.983 66.6461C136.219 68.8535 135.137 70.8873 133.307 72.4869C132.242 73.4186 131.015 74.0832 129.59 74.7577C130.143 72.036 129.486 69.6249 128.466 67.2539C127.892 65.9147 127.238 64.5956 126.969 63.153C126.785 62.1778 126.882 61.2361 127.38 60.3578C127.795 59.6265 128.037 59.5396 128.874 59.7934C129.49 59.9771 129.714 59.8235 129.683 59.179C129.659 58.6814 129.621 58.1905 129.815 57.7163C130.102 57.0116 130.648 56.7345 131.374 57.0016C132.325 57.3489 133.155 57.8565 133.587 58.8083C133.643 58.9319 133.698 59.0654 133.781 59.1723C134.037 59.5029 134.414 59.4695 134.57 59.0855C134.673 58.8317 134.687 58.5478 134.781 58.2907C134.991 57.7129 135.306 57.6228 135.801 58.0135C136.51 58.5745 136.911 59.3293 137.146 60.1641C137.758 62.3381 137.72 64.5155 136.98 66.6528L136.983 66.6461Z" fill="black"/>
<path d="M50.132 90.9407C50.0629 91.0042 49.9937 91.0677 49.9211 91.1311C49.9003 91.1111 49.8761 91.0977 49.8658 91.0743C49.8035 90.9407 49.6825 90.7704 49.8727 90.6903C49.9626 90.6502 50.1044 90.7971 50.132 90.9441V90.9407Z" fill="#A2A9AE"/>
<path d="M46.9056 47.9482C47.2652 47.8814 47.5211 47.6643 47.8531 47.6911C48.0122 47.7044 48.1228 47.7746 48.1851 47.9115C48.2508 48.0584 48.1816 48.1887 48.0675 48.2721C47.9326 48.369 47.777 48.4425 47.6214 48.5126C46.3799 49.0536 45.3356 49.8317 44.4711 50.8502C44.0595 51.3378 43.8036 51.4146 43.5788 51.1708C43.2503 50.8135 43.5823 50.5764 43.776 50.3226C43.8555 50.2157 43.9454 50.1122 44.1045 49.9185C42.8699 49.8751 41.8913 49.4844 41.2619 48.5092C40.8262 47.8347 40.6463 47.11 40.8262 46.3052C41.1962 44.6388 42.742 43.6302 44.5264 43.9141C46.2831 44.1946 47.1961 45.7174 46.909 47.9515L46.9056 47.9482Z" fill="#000100"/>
<path d="M51.761 35.6753C50.5645 30.8164 45.232 29.9114 42.2096 31.4709C40.8333 32.1822 40.0932 33.3544 39.9722 34.8605C39.9134 35.5952 40.2073 36.223 40.8575 36.6271C41.4834 37.0145 42.1059 36.8508 42.6903 36.4835C43.0811 36.2364 43.5168 36.1195 43.9802 36.1228C45.5917 36.1328 46.8885 36.754 47.8429 38.0197C48.0435 38.2868 48.1991 38.584 48.4031 38.8445C49.3368 40.02 50.8238 39.8597 51.4774 38.5106C51.761 37.9261 51.8371 37.3017 51.8509 36.6605C51.8232 36.3332 51.8371 35.9959 51.7575 35.6787L51.761 35.6753ZM50.6509 38.1866C50.274 38.9146 49.6377 38.9848 49.1155 38.3503C48.9046 38.0931 48.7524 37.7926 48.5518 37.5254C47.4383 36.0393 45.9098 35.3314 44.0286 35.318C43.4234 35.3147 42.8736 35.5484 42.3203 35.7688C41.3243 36.1629 40.7192 35.7054 40.8817 34.6601C41.0719 33.4679 41.7566 32.5896 42.8943 32.0753C46.0931 30.6327 50.0216 32.4561 50.8688 35.7622C50.9449 36.0594 50.9656 36.3566 50.9656 36.7239C50.9483 37.1848 50.893 37.7057 50.6475 38.1833L50.6509 38.1866Z" fill="#030303"/>
</svg>
