<svg width="53" height="134" viewBox="0 0 53 134" fill="none" xmlns="http://www.w3.org/2000/svg">
<path fill-rule="evenodd" clip-rule="evenodd" d="M23.8554 103.851C21.8153 103.231 19.6043 103.057 17.5563 103.739C16.919 103.952 15.9737 104.384 15.4678 104.853L14.9395 105.342L13.7503 103.464L14.1561 103.126C15.9635 101.627 18.088 100.557 20.3664 99.991C21.2668 99.7672 22.4245 99.5625 23.3631 99.5782L23.8375 99.5861L24.8334 104.148L23.8554 103.85V103.851Z" fill="#000001"/>
<path fill-rule="evenodd" clip-rule="evenodd" d="M29.5701 115.768C29.741 117.581 29.8466 119.412 29.9781 121.226C30.0793 122.611 30.1838 124 30.33 125.381C30.43 126.326 30.5402 127.407 30.7807 128.326L30.7841 128.341C30.9639 129.113 31.173 129.914 31.2798 130.699C31.363 131.313 31.4079 132.109 30.9077 132.569C30.1748 133.244 28.7305 133.497 27.7672 133.503C26.7016 133.51 25.473 133.256 24.7469 132.411C24.4962 132.12 24.3568 131.541 24.2781 130.905C24.2275 131.421 24.1275 131.881 23.9454 132.17L23.9151 132.218L23.8757 132.26C23.208 132.971 21.5377 133.17 20.6149 133.16C19.5594 133.148 18.26 132.903 17.5665 132.028C17.2158 131.586 17.3057 130.492 17.3405 129.957C17.417 128.765 17.5687 127.561 17.7182 126.377C18.1476 122.959 18.6377 119.554 19.0232 116.129C19.1075 115.38 19.1873 114.63 19.2604 113.879C19.4223 112.221 19.5302 110.559 19.6223 108.897C19.7033 107.44 19.7685 105.982 19.8696 104.527C19.9483 103.408 20.0416 102.235 20.2653 101.134C20.4126 100.407 20.6632 99.4782 21.2151 98.9497C22.7011 97.5259 25.5314 96.4092 27.4592 95.7209C29.2082 95.0956 30.9999 94.5592 32.7939 94.0801C33.5346 93.8822 34.2843 93.6876 35.033 93.5144C35.2117 93.168 35.3567 92.7677 35.4781 92.4146C35.7242 91.6982 35.9277 90.9593 36.1143 90.2261C36.6527 88.1084 37.0753 85.9379 37.4665 83.7877C38.5568 77.8036 39.4111 71.7408 40.2148 65.7129C40.28 65.2226 40.371 64.7278 40.4463 64.2386C40.5947 63.2793 40.7285 62.3177 40.8476 61.3551C41.1781 58.6672 41.395 55.9344 41.3894 53.2264C41.3838 50.4452 41.1455 46.9499 39.9855 44.3926C39.3616 43.0172 38.7738 41.6249 38.1432 40.2517C37.3395 38.5019 36.4223 36.635 35.2578 35.0954C34.4012 33.964 33.2424 32.8012 31.7856 32.5459L31.3112 32.4627L30.8032 20.8398L31.5709 21.0175C38.8176 22.691 43.8679 28.1419 47.3176 34.4656C50.1277 39.6186 51.4046 44.3228 51.888 50.1494C52.0768 52.42 52.0779 54.7502 52.0408 57.0276C51.9959 59.7525 51.8745 62.4786 51.7272 65.2001C51.5845 67.834 51.4147 70.4678 51.2439 73.1005C51.1 75.3194 50.9494 77.5393 50.8381 79.7593C50.674 83.0184 50.4008 86.2697 50.2502 89.5311C50.1412 91.8815 50.0805 94.2578 50.1907 96.6082C50.2997 98.9238 50.3042 101.261 50.3154 103.58C50.3289 106.386 50.3345 109.191 50.3874 111.996C50.4424 114.893 50.5402 117.806 50.7864 120.694C50.9797 122.967 51.2619 125.442 51.8913 127.638C52.1206 128.439 52.3837 129.262 52.5545 130.077C52.677 130.659 52.7681 131.337 52.523 131.901C51.4102 134.467 46.5364 134.312 44.8323 132.52C44.1242 131.776 44.2422 129.576 44.2861 128.617C44.3782 126.558 44.6109 124.481 44.8144 122.429C44.9807 120.746 45.1493 119.05 45.2303 117.36C45.2629 116.675 45.2831 115.983 45.2606 115.298C45.2516 115.019 45.2359 114.725 45.2033 114.434C44.367 114.631 43.2879 114.844 42.4483 114.881C42.3673 118.996 42.5348 123.067 42.9754 127.163C43.1024 128.341 43.2609 129.518 43.3823 130.696C43.4374 131.228 43.5487 132.17 43.343 132.669C42.8709 133.811 40.6161 133.892 39.5909 133.836C38.586 133.78 37.1855 133.531 36.4504 132.786C36.1019 132.432 36.0154 131.779 35.9749 131.306C35.9142 130.584 35.9333 129.826 35.9659 129.103C36.0558 127.113 36.2818 125.1 36.5156 123.122C36.7213 121.376 36.9506 119.631 37.1698 117.887C37.2552 117.207 37.3395 116.526 37.4148 115.844C37.4384 115.623 37.4643 115.398 37.4845 115.174C35.3297 115.327 33.1738 115.51 31.019 115.668C30.5368 115.704 30.0546 115.739 29.5712 115.773L29.5701 115.768ZM24.1938 126.685C24.2253 125.258 24.2927 123.828 24.3557 122.408C24.449 120.308 24.5726 118.178 24.5861 116.073C24.5367 116.075 24.4883 116.076 24.4389 116.077C23.9544 117.987 23.9353 120.299 23.978 122.219C24.0117 123.711 24.1073 125.197 24.1927 126.685H24.1938Z" fill="#000001"/>
<path fill-rule="evenodd" clip-rule="evenodd" d="M24.0297 103.277L23.353 100.179C23.353 100.179 18.7523 100.095 14.5394 103.589L15.061 104.412C15.061 104.412 18.1948 101.503 24.0297 103.277Z" fill="white"/>
<path fill-rule="evenodd" clip-rule="evenodd" d="M31.889 31.9557L31.4371 21.6025C37.381 22.9757 42.6663 27.1885 46.7927 34.7537C49.6028 39.9056 50.8167 44.4749 51.2922 50.1991C51.9149 57.6857 50.6256 72.0728 50.2401 79.728C49.9973 84.5537 49.3386 91.2339 49.5926 96.6354C49.9568 104.403 49.197 120.398 51.3147 127.803C51.8722 129.752 52.2768 130.959 51.9722 131.661C51.0494 133.79 46.6949 133.608 45.2651 132.107C43.8645 130.635 46.5735 117.454 45.6843 113.697C45.6843 113.697 42.9777 114.403 41.8615 114.268C41.5726 125.644 43.2204 131.39 42.7877 132.439C42.3549 133.487 38.0723 133.577 36.8752 132.362C35.6781 131.147 38.0184 117.31 38.1285 114.526C37.027 114.6 32.6016 114.958 28.9125 115.215C29.2801 118.775 29.5577 126.017 30.2007 128.479C30.6019 130.202 30.9942 131.677 30.503 132.129C29.6016 132.959 26.3823 133.394 25.2021 132.022C24.2387 130.902 25.2099 120.474 25.1874 115.448C24.6794 115.473 24.2669 115.487 23.9825 115.488C22.4392 120.613 24.4085 130.312 23.4396 131.852C22.7258 132.613 19.1401 133.047 18.0374 131.657C17.4439 130.908 19.067 122.045 19.8572 113.94C20.5328 107.01 20.2192 100.738 21.6287 99.3862C24.6895 96.4533 35.4252 94.0443 35.4252 94.0443C37.0292 91.397 39.0412 79.0555 40.8082 65.7964C40.9701 64.5795 43.5487 50.8031 40.5306 44.1476C38.3376 39.3118 35.9322 32.6653 31.889 31.958V31.9557Z" fill="white"/>
<path fill-rule="evenodd" clip-rule="evenodd" d="M50.72 71.9974C50.0029 71.9614 49.3397 71.66 48.871 71.1079C48.291 70.4241 47.9954 69.7482 48.0516 68.8451C48.0999 68.0692 48.3168 67.4709 48.1583 66.669C47.6683 64.1938 49.2352 63.3919 51.3158 64.4074L51.5383 64.5165L51.5249 64.7639C51.4035 67.0593 51.2607 69.3535 51.1123 71.6477L51.0887 72.0165L50.72 71.9974ZM37.5485 23.7505C39.5538 25.0067 41.3242 26.5913 42.8754 28.3738L43.2946 28.8551L42.6708 28.9867C42.2931 29.0665 41.9053 29.1126 41.5198 29.1351C40.6104 29.1869 38.9243 29.098 38.1431 28.5818C37.5688 28.2028 37.181 27.4212 36.9921 26.7802C36.7224 25.867 36.7179 24.8751 36.991 23.9619L37.1315 23.4907L37.5485 23.7516V23.7505ZM47.1343 34.5985C48.0201 36.2247 48.8047 37.9004 49.4499 39.6368L49.6275 40.1136L49.1205 40.1417C48.2921 40.1889 47.0377 40.1046 46.352 39.5884C44.5322 38.2175 43.8769 35.018 46.7286 34.4118L47.0017 34.3533L47.1355 34.5985H47.1343ZM51.4698 48.2288C51.5473 48.8743 51.6114 49.5198 51.6654 50.1665C51.7834 51.5869 51.8216 53.023 51.8317 54.449L51.834 54.8123L51.4709 54.8258C50.6751 54.8561 49.4948 54.7605 48.8373 54.2657C46.9534 52.8464 46.3756 49.5929 49.3408 49.0644C49.9366 48.9587 50.4255 48.4301 50.8291 48.0129L51.3765 47.4461L51.4698 48.2288ZM51.1281 61.8579C50.7751 61.669 50.448 61.398 50.2805 61.0257C49.7545 59.8573 50.4941 58.8282 51.1045 57.8779L51.8261 56.7556L51.7946 58.0894C51.7677 59.241 51.7272 60.3914 51.6789 61.5419L51.6541 62.1391L51.1281 61.8568V61.8579ZM49.696 82.6306C49.786 82.6059 49.8781 82.5834 49.9692 82.5643L50.4525 82.4619L50.4199 82.9556C50.3367 84.2175 50.2513 85.4793 50.1749 86.7422L50.1468 87.2055L49.6994 87.0807C49.3959 86.9964 49.0992 86.8614 48.8564 86.659C47.6997 85.6941 47.992 82.8061 49.6949 82.6329L49.696 82.6306ZM23.3923 97.7701C24.0746 97.7701 24.5973 98.0704 24.9379 98.6687C25.4257 99.5268 26.2676 100.362 25.7967 101.439C25.4516 102.226 24.2826 102.478 23.5137 102.484C22.8831 102.489 22.1525 102.35 21.6568 101.935C21.0364 101.417 20.8835 100.429 20.997 99.6662L21.0083 99.5931L21.0465 99.5301C21.1364 99.3794 21.2432 99.2355 21.3702 99.114C21.903 98.6035 22.5684 98.1772 23.2114 97.8185L23.2968 97.7713H23.3946L23.3923 97.7701ZM33.5615 94.4143L33.4233 94.1489L33.1333 94.2254C30.6941 94.8698 28.2156 95.6176 25.8765 96.5657L25.6337 96.6646L25.6427 96.9267C25.6584 97.3731 25.7989 97.7859 26.0204 98.1705C26.4722 98.9532 27.331 99.4852 28.1617 99.7854C29.2059 100.162 30.367 100.245 31.4607 100.071C32.3341 99.9328 33.2367 99.5942 33.9224 99.0241C34.4585 98.5776 34.916 97.9231 34.8519 97.1921C34.8272 96.9121 34.7272 96.6534 34.5676 96.424C34.1517 95.829 33.8988 95.0654 33.5604 94.4154L33.5615 94.4143ZM36.003 91.4948C36.3278 90.3792 36.5942 89.2388 36.8415 88.103C37.1607 86.6387 37.444 85.1655 37.7115 83.6911L37.7632 83.4021L38.0555 83.383C38.9524 83.3256 39.9068 83.5978 40.6374 84.1241L40.6509 84.1331L40.6632 84.1432C41.6367 84.9822 42.2369 86.1079 42.3931 87.3821C42.528 88.4786 42.3212 89.6459 41.794 90.6176C40.9218 92.2224 37.8644 92.2652 36.2918 91.9649L35.8872 91.8873L36.0018 91.4914L36.003 91.4948ZM39.2627 74.1263C39.6168 71.7343 39.9517 69.34 40.2754 66.9434L40.3069 66.7095L40.5306 66.6364C41.6569 66.2698 42.9653 66.2023 43.7645 67.2414C45.2111 69.1218 45.8417 74.3164 42.9349 75.2037C41.6074 75.6097 40.3744 75.4354 39.3695 74.448L39.2335 74.3141L39.2616 74.1252L39.2627 74.1263ZM44.8065 59.6323C46.9893 59.8213 47.3873 63.5696 45.926 64.8134C45.2887 65.3566 44.3332 65.5444 43.5172 65.5467C42.6135 65.5478 41.35 65.3037 40.7475 64.5638L40.6419 64.4344L40.6677 64.2702C40.7992 63.4155 40.9207 62.5586 41.0297 61.7005L41.0398 61.6173L41.0848 61.5464C41.2792 61.2416 41.4872 60.9403 41.6625 60.6242C42.3594 59.3703 43.5475 59.2983 44.8053 59.6335L44.8065 59.6323ZM41.5512 55.8536L41.54 56.0977L41.7592 56.2068C42.6404 56.6454 43.389 56.6454 44.3175 56.3147C44.7638 56.1562 45.1459 55.8795 45.4404 55.5095C46.5442 54.1184 46.1283 51.9839 44.5918 51.0864C43.8083 50.6287 42.7989 50.4982 41.9042 50.5399L41.5254 50.5579L41.5479 50.9357C41.6434 52.5698 41.6288 54.2185 41.5524 55.8536H41.5512ZM41.3433 48.7416C41.1466 47.2515 40.8127 45.6759 40.1889 44.3005C39.8877 43.6359 39.5943 42.9667 39.3009 42.2976L39.175 42.0108L39.4347 41.8365C40.561 41.0785 42.0009 40.8761 43.2081 41.579C43.9803 42.0288 44.4524 42.6743 44.8435 43.4593C45.1482 44.07 45.3932 44.7762 45.7821 45.334C45.9429 45.5635 46.0418 45.8221 46.0665 46.1021C46.1306 46.8331 45.6742 47.4877 45.1369 47.9341C44.4513 48.5054 43.5487 48.8428 42.6753 48.9811C42.3594 49.0318 42.0402 49.0599 41.721 49.0666L41.386 49.0734L41.3422 48.7405L41.3433 48.7416ZM40.5711 34.7897C42.754 34.9786 43.1519 38.7269 41.6906 39.9708C40.9409 40.6084 39.7483 40.7659 38.794 40.6826L38.5759 40.6635L38.4849 40.4645C37.97 39.3309 37.4305 38.2018 36.8213 37.1154L36.7111 36.9197L36.8314 36.7308C37.0315 36.4159 37.2462 36.1055 37.4271 35.7793C38.124 34.5265 39.3133 34.4534 40.5699 34.7897H40.5711ZM34.4181 30.5117C33.4638 30.6084 32.9905 31.5474 32.9017 32.4156L32.8759 32.663L33.0928 32.7823C34.0112 33.2872 34.7811 34.1014 35.4106 34.928L35.5342 35.0911L35.7388 35.0753C36.4357 35.0191 37.4103 34.747 37.7194 34.0429C38.1915 32.9656 37.3484 32.1311 36.8606 31.273C36.3121 30.3081 35.3892 30.2451 34.4169 30.5128L34.4181 30.5117ZM33.1029 107.402C32.2599 107.702 31.5203 107.74 30.6986 107.368C29.9905 107.047 29.5083 106.632 28.7023 106.497C27.8784 106.359 26.8634 106.006 26.6476 105.087C26.3992 104.029 27.3872 102.951 28.1527 102.363C28.9148 101.777 30.3119 101.589 31.2471 101.624C31.9722 101.651 32.7455 101.804 33.3783 102.173C34.9149 103.072 35.3308 105.206 34.227 106.596C33.9336 106.966 33.5503 107.244 33.1041 107.401L33.1029 107.402ZM39.2784 96.6905C41.4613 96.8794 41.8592 100.629 40.398 101.872C39.7606 102.414 38.8063 102.603 37.9891 102.604C37.0124 102.606 35.4713 102.302 35.0217 101.304C34.4012 99.9238 35.5163 98.7935 36.1345 97.6802C36.8314 96.4273 38.0206 96.3542 39.2773 96.6905H39.2784ZM45.2201 78.1592C46.9028 79.5627 45.0886 82.8668 43.1789 83.0512C42.3459 83.1322 41.4546 82.7408 40.7835 82.2752C39.9809 81.7186 38.8895 80.5883 39.0918 79.511C39.3706 78.0242 40.9319 77.7352 42.0762 77.1751C43.3609 76.5465 44.3816 77.1673 45.2201 78.1603V78.1592Z" fill="#000001"/>
<path fill-rule="evenodd" clip-rule="evenodd" d="M49.1577 70.8648C47.7425 69.1936 48.8621 68.286 48.5271 66.5958C48.0527 64.1992 49.6039 63.9878 51.1517 64.7435C51.0281 67.0737 50.882 69.4095 50.7392 71.6228C50.1423 71.5924 49.5679 71.3506 49.1577 70.8648ZM37.3496 24.0686C39.2009 25.2281 40.9555 26.7384 42.5933 28.6199C41.0095 28.955 39.0087 28.7031 38.35 28.269C37.5755 27.7585 36.7955 25.9276 37.3496 24.0697V24.0686ZM46.8062 34.7783C47.7346 36.4832 48.4889 38.1262 49.0992 39.767C48.0584 39.8255 47.0602 39.6523 46.5769 39.288C45.0178 38.1139 44.2883 35.3125 46.8062 34.7783ZM51.0978 48.2736C51.1731 48.9023 51.2372 49.5422 51.2911 50.1978C51.3945 51.445 51.4451 52.8845 51.4563 54.4511C50.4627 54.4893 49.5252 54.315 49.0621 53.9653C47.4795 52.7732 46.7522 49.9054 49.4061 49.4331C50.0951 49.3105 50.6088 48.7785 51.0978 48.2725V48.2736ZM51.4204 58.0813C51.3934 59.2014 51.354 60.3553 51.3057 61.5271C50.9854 61.3562 50.7415 61.1358 50.6234 60.8715C50.1761 59.8773 50.8482 58.972 51.4215 58.0813H51.4204ZM50.0468 82.9296C49.967 84.1442 49.8804 85.4184 49.8017 86.7173C49.5309 86.6419 49.2869 86.5261 49.097 86.3687C48.1674 85.5927 48.3989 83.1039 49.7635 83.0005C49.8602 82.9735 49.9546 82.9498 50.0468 82.9296ZM21.3669 99.7223C21.4467 99.5884 21.5332 99.4749 21.6277 99.3849C22.0728 98.9587 22.6798 98.5437 23.3924 98.1456C23.8982 98.1456 24.3186 98.339 24.612 98.8552C25.0548 99.6334 25.8383 100.411 25.4528 101.29C25.0672 102.169 22.8259 102.425 21.8952 101.649C21.4321 101.263 21.2578 100.453 21.3657 99.7234L21.3669 99.7223ZM26.0182 96.913C28.4955 95.9087 31.3259 95.09 33.23 94.5873C33.5942 95.2868 33.8426 96.0369 34.2619 96.6375C35.0509 97.7655 33.6661 99.341 31.4034 99.6998C29.1419 100.059 27.0478 99.1982 26.3453 97.9825C26.1384 97.6238 26.0294 97.2718 26.017 96.9141L26.0182 96.913ZM36.3627 91.5992C36.9135 89.7042 37.4935 86.9962 38.0803 83.7584C39.0717 83.6943 39.9237 84.0722 40.4194 84.4298C42.3752 86.1156 42.3887 88.7427 41.4647 90.442C40.7454 91.7657 38.0162 91.9164 36.3627 91.6003V91.5992ZM39.6337 74.1813C39.9765 71.8646 40.316 69.45 40.6476 66.9939C41.6255 66.6756 42.781 66.5766 43.4678 67.4707C44.8312 69.2431 45.364 74.071 42.826 74.8459C41.3737 75.2901 40.362 74.8976 39.6325 74.1813H39.6337ZM41.0387 64.3263C41.1444 63.6425 41.2736 62.7631 41.4018 61.7464C41.603 61.4304 41.8177 61.1178 41.9919 60.8051C42.5775 59.7514 43.5611 59.6816 44.7436 60.0044C46.5814 60.127 46.9253 63.4727 45.6844 64.5287C44.53 65.5116 41.8379 65.3081 41.0398 64.3274L41.0387 64.3263ZM41.9256 55.8703C42.002 54.2408 42.0166 52.5505 41.9211 50.9142C42.7933 50.8737 43.7151 51.0086 44.403 51.4101C46.27 52.5021 46.0036 55.3193 44.1928 55.9626C43.1474 56.3337 42.5157 56.165 41.9267 55.8715L41.9256 55.8703ZM41.7143 48.692C41.4917 47.0039 41.1174 45.4396 40.5295 44.1452C40.2395 43.5052 39.945 42.8327 39.6438 42.1467C40.6251 41.4854 41.9166 41.2605 43.0193 41.9027C44.503 42.7664 44.6862 44.4207 45.4742 45.5487C46.2633 46.6767 44.8785 48.2522 42.6158 48.611C42.31 48.6593 42.0088 48.6852 41.712 48.692H41.7143ZM38.8266 40.308C38.2994 39.1485 37.7453 37.9947 37.1484 36.9308C37.3552 36.6046 37.5767 36.283 37.7554 35.9614C38.341 34.9087 39.3246 34.8379 40.5071 35.1606C42.3449 35.2832 42.6888 38.6289 41.4479 39.6849C40.8353 40.2056 39.7922 40.3923 38.8266 40.308ZM35.7096 34.6995C34.9711 33.729 34.1663 32.944 33.275 32.4526C33.3559 31.6653 33.7605 30.9366 34.4856 30.8804C35.3623 30.6318 36.0929 30.6779 36.5358 31.455C36.9787 32.2333 37.7621 33.0104 37.3766 33.8898C37.1754 34.3487 36.4706 34.6366 35.7096 34.6984V34.6995ZM32.9771 107.05C30.9134 107.782 30.4626 106.414 28.7631 106.128C26.1047 105.682 26.8095 103.869 28.3798 102.661C29.2565 101.987 31.7418 101.653 33.1873 102.498C35.0543 103.59 34.7879 106.407 32.9771 107.05ZM39.2155 97.0615C38.033 96.7387 37.0484 96.8095 36.4639 97.8622C35.8794 98.9148 34.834 99.9708 35.3646 101.149C35.8951 102.328 38.9143 102.642 40.1564 101.586C41.3973 100.53 41.0533 97.1829 39.2155 97.0615ZM44.9549 78.4267C44.1692 77.4865 43.3217 76.9815 42.2392 77.5101C41.1579 78.0398 39.6966 78.3074 39.4594 79.5783C39.2211 80.8491 41.5198 82.8329 43.1418 82.6766C44.7638 82.5202 46.3925 79.5771 44.9549 78.4267Z" fill="white"/>
<path fill-rule="evenodd" clip-rule="evenodd" d="M13.3468 107.664C12.461 108.185 11.3494 108.615 10.5963 108.175C9.60711 107.599 10.1174 106.198 10.6884 105.179C10.6131 105.128 10.5446 105.064 10.4839 104.987C10.1882 104.608 10.2737 104.124 10.4636 103.721C10.9515 102.687 11.6967 101.637 12.8646 101.334C13.8627 101.075 14.8642 101.45 15.7017 101.983C17.1517 102.905 17.1933 103.472 16.9561 105.09C16.8437 105.862 16.4964 106.597 15.9759 107.178C15.5791 107.622 14.989 108.065 14.3775 108.113C13.9684 108.146 13.5705 108.023 13.3479 107.664H13.3468Z" fill="#000001"/>
<path fill-rule="evenodd" clip-rule="evenodd" d="M15.3791 102.489C13.4716 101.275 12.0339 101.794 11.0043 103.977C10.7165 104.587 10.9751 104.888 11.7012 104.694C11.7012 104.694 9.98816 107.127 10.8975 107.656C11.8069 108.186 13.9133 106.556 13.9133 106.556C13.9133 106.556 13.4491 107.585 14.3281 107.515C15.0272 107.458 16.1502 106.443 16.3615 105.003C16.5717 103.568 16.5795 103.253 15.3779 102.489H15.3791Z" fill="white"/>
<path fill-rule="evenodd" clip-rule="evenodd" d="M25.6292 7.27929C24.7097 6.66413 24.5434 5.91514 24.721 4.72305C24.8424 3.91108 25.3448 2.40973 26.3396 2.32426C27.5502 2.21967 29.2059 2.28827 30.1209 3.19471C30.5019 3.57145 30.7009 4.01792 30.7514 4.54874C30.7897 4.95135 30.7323 5.32135 30.7335 5.71833C30.738 6.54717 30.0253 7.88208 29.0935 7.88658C28.8619 7.88771 28.6304 7.87084 28.4 7.85734C28.1021 9.03256 27.8739 10.2483 27.6457 11.4314C27.2703 13.3736 26.9443 15.3326 26.5093 17.2625L26.47 17.4357L26.343 17.5594C25.8304 18.0609 25.0042 18.3691 24.3208 18.0328C24.0398 17.8934 23.8184 17.6718 23.8442 17.3277C23.86 17.1286 23.9319 17.0252 24.0398 16.9138V16.8722C24.0308 15.1347 24.5737 13.3454 24.9323 11.6507C25.2335 10.228 25.5854 8.74354 25.6269 7.28042L25.6292 7.27929ZM15.3038 15.5216L15.3015 15.48C15.1958 13.7458 15.6376 11.9284 15.9017 10.2168C16.1232 8.77952 16.3918 7.27817 16.3514 5.81392C15.3993 5.25162 15.1902 4.51275 15.3026 3.31279C15.3791 2.49632 15.7961 0.969102 16.7852 0.827401C17.988 0.655335 19.6459 0.631719 20.6092 1.4853C21.0105 1.84068 21.2342 2.2759 21.3151 2.80222C21.3758 3.20258 21.3387 3.5737 21.3634 3.97069C21.414 4.7984 20.7778 6.17043 19.8471 6.22666C19.6156 6.24128 19.384 6.23678 19.1525 6.23565C18.9209 7.42549 18.7602 8.65132 18.5983 9.84678C18.3319 11.8059 18.115 13.7818 17.789 15.7319L17.7598 15.9062L17.6406 16.0366C17.1562 16.5663 16.3491 16.9195 15.6477 16.6214C15.3588 16.4989 15.1262 16.2897 15.1329 15.9444C15.1374 15.7442 15.2037 15.6374 15.306 15.5204L15.3038 15.5216Z" fill="#000001"/>
<path fill-rule="evenodd" clip-rule="evenodd" d="M25.9249 17.1298C26.3115 15.4159 26.7319 13.0002 27.0579 11.3167C27.3277 9.92216 27.639 8.35895 27.9425 7.24108C28.3528 7.23883 28.7271 7.28832 29.0913 7.28607C29.6218 7.28382 30.1367 6.25143 30.1344 5.72061C30.131 5.01885 30.3468 4.26312 29.6983 3.61984C28.935 2.8641 27.3974 2.83486 26.3914 2.92146C26.0249 2.95294 25.4854 3.66932 25.3145 4.81193C25.1167 6.13109 25.464 6.52358 26.2329 6.94306C26.2407 8.55238 25.8552 10.1999 25.5213 11.7744C25.1684 13.4354 24.6333 15.2517 24.6412 16.8678C24.7727 17.3525 24.1837 17.294 24.5873 17.4942C24.911 17.6539 25.4663 17.5785 25.9249 17.1298ZM17.1967 15.6329C17.4867 13.8999 17.7722 11.464 18.0026 9.76584C18.1937 8.35895 18.4174 6.77999 18.6591 5.64751C19.0682 5.62277 19.4448 5.65089 19.809 5.62839C20.3384 5.59578 20.7947 4.5364 20.7633 4.00671C20.7206 3.3072 20.8937 2.53909 20.2102 1.93405C19.4065 1.22104 17.87 1.2784 16.8685 1.42122C16.5043 1.47296 16.0052 2.21857 15.8984 3.36905C15.7748 4.69722 16.1435 5.06946 16.9337 5.44508C17.0315 7.05103 16.7381 8.7177 16.493 10.3079C16.2345 11.9869 15.8006 13.8291 15.8984 15.4429C16.0569 15.9197 15.4645 15.8938 15.8793 16.0704C16.212 16.2121 16.7617 16.1064 17.1944 15.6329H17.1967Z" fill="white"/>
<path fill-rule="evenodd" clip-rule="evenodd" d="M29.6881 13.757C30.3592 11.8126 31.5529 9.56224 33.5279 8.94596C35.015 8.48149 36.7606 8.68167 37.7014 10.0548C38.0701 10.5935 38.2387 11.2357 38.214 11.8857C38.1724 12.9721 37.8127 13.9415 37.2428 14.8592C36.3751 16.2537 35.4354 16.8475 33.9269 17.4311C33.6807 17.5256 33.4267 17.6122 33.1727 17.6921C33.7178 18.9145 34.0213 20.2449 34.2326 21.5596C34.5305 23.413 34.6699 25.3113 34.852 27.1793C35.0599 29.3093 35.2004 31.4483 35.3072 33.5851C35.5826 39.0956 36.8348 44.4544 36.1255 50.0055C35.7332 53.0757 35.6714 54.3937 33.656 56.9455L33.5841 57.0377L33.4829 57.095C29.025 59.6322 21.9278 59.3488 16.9055 58.9619C15.4668 58.8506 14.0044 58.6549 12.578 58.4356C11.1752 58.2197 9.69368 57.9722 8.32459 57.5989C7.00497 57.239 5.69322 56.7936 4.47252 56.1717C3.60588 55.7298 2.8404 55.2169 2.06031 54.6411C1.97376 54.577 1.88609 54.5129 1.79954 54.4477L1.72535 54.3926L1.6714 54.3173C1.10263 53.5278 0.452932 52.6135 0.315799 51.6272C0.235992 51.0536 0.315807 50.4632 0.39449 49.893C0.51701 49.0001 0.631659 48.1274 0.700226 47.2266C0.857592 45.1461 1.09813 43.0801 1.4567 41.0244C1.73322 39.4387 2.08167 37.8766 2.43911 36.3089C2.8685 34.4251 3.27316 32.5628 3.56653 30.6509C3.91049 28.4073 4.24994 26.1503 4.72879 23.9303C5.15367 21.9566 5.69996 19.975 6.53175 18.1318C7.16684 16.7238 7.93906 15.3214 8.98329 14.1686C8.7776 14.009 8.58538 13.8324 8.39991 13.6468C7.48944 12.7291 6.49916 11.2604 6.02593 10.0515C5.43919 8.55234 5.54147 6.8137 6.92629 5.79592C7.64231 5.26961 8.54492 5.08517 9.41605 5.228C10.4254 5.39331 11.2921 5.96799 11.9339 6.75072C13.0253 8.08113 13.5323 9.7703 13.7751 11.455C16.257 10.9084 19.1199 11.1131 21.5737 11.4122C24.2264 11.735 27.3254 12.3299 29.6904 13.7615L29.6881 13.757Z" fill="#000001"/>
<path fill-rule="evenodd" clip-rule="evenodd" d="M30.0186 14.6949C30.5064 13.0293 31.6271 10.1661 33.7066 9.51716C36.0109 8.79741 37.6834 10.0885 37.6149 11.8608C37.5767 12.8404 37.2496 13.7097 36.7336 14.5397C35.9963 15.7239 35.2443 16.2761 33.7111 16.8687C33.3109 17.0239 32.8006 17.1791 32.3218 17.3163C33.665 19.7972 33.8527 23.0923 34.2562 27.2354C34.4619 29.3474 34.6069 31.5663 34.7092 33.6131C34.9801 39.0348 36.2368 44.4104 35.532 49.9267C35.1667 52.7877 35.1656 54.0652 33.1873 56.572C29.0103 58.9494 22.2987 58.7695 16.9516 58.3624C14.7845 58.1903 10.6165 57.601 8.48309 57.0185C5.01992 56.0738 3.62498 55.0549 2.1581 53.9651C0.22138 51.2784 0.982355 51.446 1.29933 47.2703C1.89395 39.4419 3.26529 36.5663 4.16003 30.7397C4.88953 25.986 5.53922 21.7878 7.07804 18.3757C7.90646 16.5392 8.80119 15.1143 9.92635 14.0617C9.58914 13.8896 9.23957 13.6389 8.82593 13.2216C7.83452 12.2218 6.93978 10.7362 6.58458 9.8298C5.14581 6.15345 9.1946 4.35295 11.4708 7.12736C12.6746 8.59385 13.0894 10.5462 13.2636 12.1982C15.3105 11.6101 17.9453 11.5707 21.5017 12.0037C25.555 12.4963 28.2258 13.3903 30.0208 14.6949H30.0186Z" fill="white"/>
<path fill-rule="evenodd" clip-rule="evenodd" d="M30.9336 15.5473C31.0021 14.6982 31.8531 13.4915 32.4263 12.8977C32.9569 12.3477 34.4777 11.8911 35.1499 12.3556C36.1604 13.0529 36.0772 14.4204 35.4253 15.3313C34.8531 16.1309 33.5987 16.7348 32.6444 16.917C32.387 16.9665 32.1408 17.0182 31.8755 17.0003L31.6934 16.9879L31.59 16.8361C31.4124 16.574 31.2168 16.3232 31.0055 16.0871L30.9077 15.9769L30.9111 15.8295C30.9134 15.7351 30.9212 15.6417 30.9336 15.5484V15.5473ZM12.1891 12.9888C11.6877 13.2171 11.2145 13.4982 10.775 13.8311L10.603 13.9616L10.4041 13.8772C9.52059 13.5061 8.4359 12.6829 8.03686 11.8001C7.57713 10.7834 7.76596 9.42038 8.88776 8.93567C9.63749 8.61178 11.0414 9.3574 11.454 9.99955C11.9024 10.6979 12.3802 11.8079 12.4094 12.6334L12.4184 12.8842L12.1902 12.9876L12.1891 12.9888Z" fill="#000001"/>
<path fill-rule="evenodd" clip-rule="evenodd" d="M31.3067 15.5866C31.3483 15.0018 31.9666 13.9143 32.6961 13.1575C33.1299 12.7076 34.4574 12.3331 34.9374 12.6638C35.7714 13.2384 35.6455 14.3788 35.1206 15.112C34.6564 15.7598 33.5481 16.3615 32.5747 16.5471C32.3937 16.5819 32.1374 16.6404 31.9014 16.6246C31.7159 16.3502 31.5102 16.0882 31.2865 15.8363C31.2888 15.7598 31.2944 15.6766 31.3067 15.5855V15.5866ZM12.0339 12.648C12.0126 12.0216 11.6439 10.9926 11.1381 10.2042C10.7997 9.67793 9.57115 9.05152 9.0361 9.28207C8.10652 9.68243 8.00649 10.8262 8.37854 11.6471C8.70114 12.3613 9.64421 13.153 10.5491 13.5331C11.0043 13.1867 11.4966 12.8932 12.0339 12.648Z" fill="white"/>
<path fill-rule="evenodd" clip-rule="evenodd" d="M34.2157 32.6606C33.0996 32.5953 32.5701 31.0614 32.3734 30.1549C32.2206 29.4464 32.0902 28.2555 32.3925 27.5751C32.6994 26.8846 33.3356 26.2042 34.0988 26.0456L34.5091 25.9601L34.5485 26.3774C34.5743 26.6506 34.6002 26.925 34.6271 27.1983C34.7912 28.8852 34.9126 30.5767 35.0104 32.2692L35.0329 32.6516L34.6496 32.6651C34.5046 32.6707 34.3596 32.6684 34.2157 32.6606ZM34.1022 23.8605C33.3885 24.3463 32.424 24.5229 31.5742 24.5251C30.4682 24.5274 28.6978 24.1855 28.1875 23.0519C27.4805 21.4819 28.7709 20.174 29.4768 18.9043C30.2029 17.5975 31.4113 17.4086 32.7702 17.7156L32.9568 17.7583L33.0321 17.9349C33.7684 19.6634 34.055 21.654 34.2641 23.5096L34.2888 23.7345L34.1022 23.8616V23.8605ZM28.2572 13.3589L28.1954 13.2397L28.0717 13.1868C26.0451 12.3254 23.7206 11.8946 21.5444 11.6303C19.2727 11.3537 16.7594 11.1715 14.4899 11.5415L14.4146 11.5539L14.3506 11.5944C14.1584 11.7158 13.9729 11.8474 13.7975 11.9925C11.8451 13.6063 12.2104 15.6801 13.639 17.4839C14.3146 18.3375 15.4195 19.3351 16.4098 19.8096C17.6283 20.3933 19.0221 20.9905 20.3912 21.0411C21.0881 21.067 21.7951 21.0141 22.483 20.9073C23.9443 20.6801 26.3295 19.9941 27.2579 18.7536C28.4033 17.223 29.2171 15.1954 28.2583 13.3577L28.2572 13.3589ZM5.57404 21.4414C5.88877 20.345 6.2642 19.2619 6.73293 18.2217C7.16906 17.2545 7.667 16.2997 8.27174 15.4248L8.53476 15.0447L8.85175 15.3809C9.76784 16.3503 9.81617 17.6999 10.3523 18.8368C10.4187 18.9774 10.4659 19.1247 10.4962 19.2777C10.7727 20.6835 9.56551 21.9993 8.25487 22.3051C7.38262 22.5098 6.47439 22.3524 5.7269 21.8564L5.49761 21.7046L5.57291 21.4403L5.57404 21.4414ZM5.57854 22.5481C6.51824 22.5683 7.28034 22.9349 7.75693 23.7739C8.10089 24.3801 8.41787 25.0098 8.65504 25.6655C9.02822 26.6968 9.23167 27.8821 8.77643 28.9212C8.2796 30.0548 6.67335 30.6475 5.53695 30.805C5.08171 30.8679 4.61411 30.8814 4.15775 30.8286L3.76996 30.7847L3.82952 30.399C4.21732 27.8742 4.60286 25.3169 5.20647 22.8337L5.27729 22.5413L5.57854 22.5481Z" fill="#000001"/>
<path fill-rule="evenodd" clip-rule="evenodd" d="M34.2371 32.2863C34.3697 32.2941 34.5035 32.2953 34.6361 32.2908C34.5406 30.6297 34.4158 28.9001 34.254 27.2356C34.227 26.9579 34.2011 26.6835 34.1753 26.4136C33.602 26.5328 33.0288 27.0636 32.7343 27.7282C32.279 28.7527 32.8826 32.2075 34.2371 32.2863ZM33.892 23.5514C33.656 21.4461 33.3457 19.6243 32.6882 18.0813C31.454 17.8024 30.4311 17.9576 29.8039 19.0867C29.1261 20.308 27.9144 21.5316 28.5292 22.898C29.1182 24.2071 32.3543 24.5962 33.892 23.5503V23.5514ZM27.9256 13.5334C28.799 15.2068 28.0391 17.086 26.9567 18.53C26.0271 19.7716 22.9293 20.7601 20.4035 20.6668C18.8872 20.6106 17.1843 19.7649 16.5705 19.4713C14.9328 18.6875 10.7795 14.9718 14.0358 12.2817C14.1977 12.149 14.3697 12.0253 14.5495 11.9117C16.3884 11.6126 18.6467 11.6553 21.4983 12.0028C24.2073 12.3323 26.2991 12.8417 27.9245 13.5323L27.9256 13.5334ZM8.58085 15.6387C8.03794 16.4236 7.54561 17.3334 7.07576 18.376C6.62839 19.3679 6.25633 20.4261 5.93485 21.5451C6.55083 21.9522 7.34328 22.1355 8.17057 21.941C9.63295 21.5991 10.5254 20.0854 10.014 18.9979C9.53179 17.9745 9.39691 16.5035 8.58085 15.6387ZM5.57067 22.9228C5.01202 25.2215 4.61636 27.7473 4.19934 30.4565C5.89215 30.65 7.9469 29.8785 8.43249 28.7707C9.09567 27.2593 8.19194 25.2957 7.43096 23.9585C7.00495 23.2084 6.33839 22.9396 5.56954 22.9228H5.57067Z" fill="white"/>
<path fill-rule="evenodd" clip-rule="evenodd" d="M5.80115 39.6626C8.40892 39.2342 13.0422 38.8518 16.6178 38.9777C23.2935 39.2117 32.2779 40.8682 33.4548 41.9422C34.6317 43.0162 34.9239 47.482 34.4013 51.1449C33.8786 54.8078 32.4398 57.2943 25.7709 57.6868C19.1019 58.0793 9.94885 56.6398 7.9874 55.9864C6.02595 55.3318 2.36495 54.0239 2.10305 50.884C1.91084 48.5819 2.42678 45.0068 2.74038 42.9847C3.18326 40.135 3.26756 40.081 5.80115 39.6649V39.6626Z" fill="#000001"/>
<path fill-rule="evenodd" clip-rule="evenodd" d="M5.87307 40.1056C5.37962 40.1866 4.2196 40.3249 3.84642 40.6836C3.42715 41.0851 3.26866 42.5044 3.18436 43.0509C2.96967 44.4331 2.77522 45.8197 2.64595 47.2131C2.53692 48.3895 2.45261 49.6648 2.5504 50.8445C2.77858 53.5784 5.91353 54.8189 8.12902 55.5577C8.66406 55.7366 9.27779 55.858 9.83082 55.9682C10.7705 56.1549 11.7181 56.3112 12.6656 56.4507C15.1543 56.8173 17.68 57.0782 20.1911 57.2132C22.0334 57.311 23.9005 57.3448 25.7428 57.2368C28.2572 57.0883 31.499 56.6239 32.9524 54.2723C33.5414 53.3198 33.7976 52.1772 33.955 51.0807C34.0494 50.4216 34.1135 49.757 34.154 49.0912C34.2383 47.6708 34.2225 46.1605 34.0157 44.7514C33.9202 44.0968 33.6627 42.7406 33.1513 42.2738C32.6118 41.7813 29.9197 41.1728 29.1789 41.012C26.6937 40.4733 24.1298 40.0876 21.604 39.8076C19.9438 39.6231 18.2712 39.4848 16.602 39.4263C15.2869 39.3802 13.9628 39.4027 12.6488 39.4601C11.409 39.514 10.1692 39.6018 8.93383 39.721C7.9132 39.8199 6.88696 39.9392 5.87532 40.1056H5.87307Z" fill="white"/>
<path fill-rule="evenodd" clip-rule="evenodd" d="M26.1272 27.2268C25.3808 27.4708 24.9582 28.3255 25.1841 29.1341C25.41 29.9438 26.198 30.4027 26.9444 30.1586C27.6907 29.9146 28.1134 29.0599 27.8874 28.2502C27.6615 27.4404 26.8735 26.9827 26.1272 27.2256V27.2268ZM12.6904 25.7097C11.944 25.9537 11.5214 26.8073 11.7473 27.617C11.9733 28.4267 12.7612 28.8856 13.5076 28.6415C14.2539 28.3975 14.6766 27.5428 14.4506 26.7331C14.2247 25.9233 13.4368 25.4656 12.6904 25.7097Z" fill="#000001"/>
<path fill-rule="evenodd" clip-rule="evenodd" d="M27.9683 50.5195C29.6578 50.4172 30.8223 51.9748 30.2827 53.1713C29.7421 54.3668 27.621 55.0708 26.6352 54.0227C25.6494 52.9745 26.2182 50.7118 27.9683 50.5195ZM8.32008 47.762C9.27664 47.8834 10.7413 48.6032 10.3209 50.3981C9.7757 52.7204 5.99105 52.3065 5.97757 49.91C5.97195 48.8821 6.84084 47.7946 8.3212 47.7631L8.32008 47.762Z" fill="#000001"/>
</svg>
