<svg width="87" height="139" viewBox="0 0 87 139" fill="none" xmlns="http://www.w3.org/2000/svg">
<g clip-path="url(#clip0_65_9433)">
<rect width="86" height="138" transform="translate(0.748291 0.218506)" fill="white"/>
<path d="M52.8402 89.5841C57.657 90.1308 56.2394 90.1439 60.2822 90.0602C64.0003 89.9836 64.1769 89.9238 64.1769 89.9238C64.1769 89.9238 69.6977 91.3736 70.7004 90.8174C71.7031 90.2624 72.1464 89.1882 72.1464 89.1882L80.3635 87.145C80.3635 87.145 81.9375 107.221 76.8861 116.073C71.8323 124.929 68.215 124.168 62.7641 123.504C56.6294 122.756 54.5671 116.482 54.5671 116.482C54.5671 116.482 58.6597 107.787 58.604 102.774C58.5269 95.802 52.8426 92.6416 52.8426 92.6416V89.5829L52.8402 89.5841Z" fill="white"/>
<path d="M30.1798 95.4945C30.1194 95.4945 30.0577 95.4838 29.9973 95.4622C29.7211 95.3605 29.5777 95.0519 29.6785 94.772C31.6993 89.1677 41.9124 60.2983 44.5305 42.2798C46.8915 26.028 48.3719 22.6762 50.7968 21.3089C51.054 21.1642 51.3788 21.2563 51.5222 21.5159C51.6656 21.7755 51.5743 22.1032 51.3171 22.248C49.2963 23.388 47.8551 26.8223 45.5866 42.4353C42.953 60.5567 32.7091 89.5182 30.6812 95.1393C30.6029 95.3582 30.3979 95.4933 30.1798 95.4933V95.4945Z" fill="#1D1D1B"/>
<path d="M65.4249 65.07C65.2057 65.07 65.0006 64.9324 64.9224 64.7123C63.2714 60.0423 62.1608 56.5183 61.6215 54.2371C59.7406 46.2691 62.0565 38.4315 62.1561 38.1014C62.2331 37.8454 62.4856 37.6863 62.7475 37.7257C62.7783 37.7305 65.9358 38.2126 70.685 38.3562C75.1319 38.4877 78.7741 36.0606 79.0574 33.7986C79.189 32.7555 79.0254 31.9791 78.5454 31.3535C77.7773 30.3547 76.1714 29.7123 73.635 29.3905C69.572 28.875 66.4893 26.4024 63.5072 24.0112C62.6598 23.3317 61.8598 22.6905 61.0431 22.0972C57.6332 19.6223 53.3747 21.4788 53.3321 21.4979C53.063 21.6187 52.7477 21.4955 52.628 21.224C52.5083 20.9524 52.6304 20.6342 52.8995 20.5134C53.0962 20.4249 57.7636 18.3913 61.6654 21.2228C62.5022 21.8305 63.3496 22.5099 64.1698 23.1678C67.0356 25.467 69.9999 27.8438 73.7665 28.3211C76.598 28.68 78.4375 29.4563 79.3869 30.692C80.0435 31.5461 80.2805 32.606 80.1146 33.9314C79.9368 35.3489 78.8381 36.7676 77.1018 37.825C75.286 38.9303 72.9938 39.4985 70.6518 39.4292C66.897 39.3167 64.1164 38.9925 63.0557 38.8526C62.6017 40.6122 61.0917 47.3517 62.6586 53.9835C63.1884 56.2264 64.2883 59.7134 65.9263 64.3463C66.0258 64.6262 65.8812 64.9348 65.6027 65.0341C65.5434 65.0556 65.483 65.0652 65.4237 65.0652L65.4249 65.07Z" fill="#1D1D1B"/>
<path d="M48.0281 24.9335C47.0349 24.9335 43.0964 24.7014 39.4092 21.2611C33.1903 15.4583 32.1497 8.71405 32.1082 8.43054C32.0821 8.25111 32.1473 8.07048 32.2824 7.94966C32.4163 7.83004 32.6024 7.78578 32.7767 7.83244C32.9675 7.88507 37.5211 9.15186 42.6745 12.14C48.2356 15.365 50.529 20.9716 50.625 21.2085C50.7352 21.4836 50.6036 21.7982 50.3299 21.9095C50.0573 22.0207 49.7455 21.8879 49.6353 21.6116C49.6045 21.5363 47.3656 16.1019 42.1435 13.0742C38.3934 10.8995 34.903 9.63991 33.3479 9.13392C33.8362 11.1053 35.4695 16.1186 40.1345 20.4716C43.9569 24.0387 48.1585 23.8569 48.2 23.8545C48.4939 23.8414 48.7452 24.0662 48.7618 24.3629C48.7784 24.6596 48.5544 24.9132 48.2605 24.9299C48.2391 24.9311 48.1585 24.9347 48.0293 24.9347L48.0281 24.9335Z" fill="#1D1D1B"/>
<path d="M61.0052 21.962C60.9566 21.962 60.908 21.9561 60.8594 21.9417C60.5761 21.8604 60.4114 21.5637 60.492 21.2766C60.5038 21.2323 61.7234 16.7394 60.3438 11.4665C59.1408 6.86821 56.288 3.29392 54.9914 1.8465C54.5445 3.84298 53.5952 8.51778 53.7279 11.6387C53.946 16.743 57.0134 19.8615 57.0442 19.8926C57.254 20.1019 57.2563 20.4416 57.0489 20.6534C56.8427 20.8651 56.5049 20.8675 56.2951 20.6594C56.1564 20.5218 52.8982 17.2298 52.6612 11.6842C52.4822 7.48545 54.1095 0.902688 54.1783 0.62397C54.2245 0.438557 54.3644 0.291423 54.5469 0.238789C54.7294 0.18496 54.925 0.234004 55.0625 0.365588C55.2521 0.547412 59.7228 4.88369 61.3726 11.1913C62.8293 16.7621 61.5694 21.3759 61.516 21.5697C61.4497 21.8065 61.2363 21.962 61.0028 21.962H61.0052Z" fill="#1D1D1B"/>
<path d="M63.8675 138.219C63.7916 138.219 63.7146 138.219 63.6364 138.219C59.4881 138.207 53.9377 137.841 48.0068 137.189C42.4303 136.576 38.1825 135.5 35.3806 133.989C32.2006 132.275 31.4812 130.296 31.4385 128.938C31.429 128.642 31.6602 128.393 31.9541 128.383C32.2516 128.377 32.4945 128.607 32.504 128.904C32.6154 132.411 38.3081 135.04 48.1218 136.118C54.0171 136.765 59.5284 137.129 63.6399 137.141C63.7134 137.141 63.7881 137.141 63.8604 137.141C70.4775 137.141 71.8737 136.238 72.1664 135.845C72.2482 135.736 72.285 135.619 72.1984 135.405C72.0373 135.004 70.9776 134.011 64.6284 133.448C60.5003 133.082 55.5626 133.014 51.9571 132.965C49.4871 132.931 47.7022 132.907 46.9934 132.803C45.8106 132.631 44.9619 131.962 44.6656 130.968C44.1275 129.166 45.3827 126.724 48.1099 124.271C52.3826 120.426 61.5018 106.326 56.7182 97.3559C54.7685 93.7003 51.5613 91.8844 47.1914 91.949C43.8621 92.0005 41.0708 93.1775 41.0436 93.1895C40.7722 93.3055 40.4593 93.1775 40.3443 92.9048C40.2293 92.6309 40.355 92.3151 40.6264 92.199C40.7461 92.1476 43.6108 90.9346 47.1428 90.8724C51.8943 90.7911 55.5294 92.8546 57.6581 96.8451C60.4754 102.126 58.7592 108.603 56.8237 113.104C54.5267 118.448 51.0647 123.054 48.821 125.073C46.0322 127.583 45.3732 129.603 45.6885 130.657C45.9125 131.407 46.6047 131.659 47.1475 131.737C47.7887 131.831 49.6353 131.856 51.9737 131.887C55.5958 131.936 60.5571 132.004 64.7244 132.374C71.5347 132.978 72.8254 134.095 73.1893 135C73.4062 135.539 73.3469 136.056 73.0198 136.494C72.4639 137.235 70.9089 138.216 63.8687 138.216L63.8675 138.219Z" fill="#1D1D1B"/>
<path d="M75.0323 136.679C74.3378 136.679 73.5899 136.665 72.7863 136.635C72.4924 136.624 72.2625 136.374 72.2731 136.077C72.2838 135.781 72.5303 135.548 72.8255 135.559C78.9981 135.787 80.834 135.057 81.288 134.405C81.3816 134.271 81.4835 134.041 81.3034 133.593C81.1422 133.192 80.0826 132.199 73.7333 131.634C69.6052 131.268 64.6664 131.2 61.0609 131.151C58.5909 131.118 56.8071 131.094 56.0984 130.991C55.117 130.849 54.4272 130.271 54.157 129.365C53.5478 127.323 55.168 124.125 58.1891 121.407C58.4084 121.208 58.7462 121.229 58.9417 121.45C59.1373 121.672 59.1183 122.012 58.899 122.209C55.9158 124.894 54.7697 127.685 55.1786 129.054C55.3291 129.558 55.68 129.843 56.2513 129.925C56.8913 130.018 58.739 130.044 61.0763 130.075C64.6984 130.124 69.6597 130.192 73.8282 130.561C80.6397 131.166 81.9304 132.283 82.293 133.187C82.6391 134.048 82.4127 134.66 82.1627 135.021C81.378 136.151 79.1475 136.679 75.0335 136.679H75.0323Z" fill="#1D1D1B"/>
<path d="M66.66 39.221C66.5877 39.221 66.513 39.2054 66.4431 39.1743C63.9245 38.0379 63.4598 35.4553 63.4421 35.3465C63.3923 35.0534 63.5878 34.7747 63.8782 34.7256C64.1686 34.6754 64.4436 34.8716 64.4934 35.1634C64.51 35.2544 64.8928 37.2963 66.8792 38.1911C67.1483 38.3119 67.2692 38.6313 67.1483 38.9016C67.0594 39.1014 66.865 39.2198 66.6611 39.2198L66.66 39.221Z" fill="#1D1D1B"/>
<path d="M21.2812 132.209C18.5291 132.209 15.3752 131.668 12.1988 129.997C7.84547 127.707 4.68922 124.5 2.81774 120.464C0.543295 115.562 0.141504 109.371 1.62304 102.062C2.5807 97.3367 3.66755 93.0902 4.6264 89.3424C6.5038 82.0085 7.98652 76.2152 7.76251 70.4112C7.58591 65.8428 6.10082 62.5939 5.21309 60.6525C4.62995 59.3785 4.27913 58.6093 4.50077 58.0112C4.59203 57.7672 4.771 57.5782 5.02108 57.4657C5.77133 57.1272 7.43657 57.5435 9.16463 58.5029C11.2222 59.6452 16.129 63.1573 17.2633 71.0595C18.6121 80.4594 16.6031 88.98 14.99 95.8259C14.6297 97.3571 14.2884 98.8033 14.011 100.15C13.1292 104.439 13.7325 108.152 15.5862 109.841C16.5415 110.712 17.7706 110.94 19.1395 110.503C23.9148 108.981 28.5194 97.0628 28.5656 96.9432C28.6711 96.6657 28.9804 96.5269 29.2554 96.6346C29.5304 96.741 29.6667 97.0532 29.5612 97.3308C29.3656 97.8415 24.7207 109.853 19.4619 111.531C17.7362 112.081 16.1053 111.765 14.8715 110.64C12.7381 108.695 12.0092 104.592 12.9668 99.9313C13.2465 98.5688 13.5891 97.1154 13.9518 95.5771C15.5447 88.8197 17.5264 80.4103 16.2072 71.2138C15.1524 63.8583 10.6331 60.5687 8.73913 59.4957C7.06441 58.5471 5.81992 58.3617 5.49754 58.4347C5.50465 58.7194 5.86259 59.5041 6.18142 60.2015C7.10234 62.2159 8.64313 65.5868 8.82802 70.3693C9.05796 76.3312 7.55865 82.1915 5.65873 89.6116C4.70344 93.3462 3.61896 97.5796 2.66722 102.277C0.0549821 115.165 3.42813 124.17 12.6919 129.042C17.626 131.638 22.5186 131.346 25.7542 130.644C29.2874 129.879 31.6768 128.471 31.7005 128.456C31.9542 128.306 32.2813 128.39 32.4306 128.646C32.58 128.902 32.497 129.233 32.2434 129.383C32.1414 129.444 29.7082 130.882 26.0162 131.69C24.6745 131.983 23.0614 132.209 21.2824 132.209H21.2812Z" fill="#1D1D1B"/>
<path d="M75.8442 88.9764C75.5704 88.9764 75.3369 88.7647 75.3132 88.4848C75.0928 85.9034 74.96 82.365 75.5811 80.1747C76.3171 77.5777 78.0985 77.1196 79.9854 76.6339C80.9656 76.3815 82.0761 76.0956 83.2068 75.4879C84.8069 74.6278 85.7752 73.4843 85.6745 72.5763C85.6116 72.0057 85.1067 71.5608 84.2546 71.3251C81.7656 70.6361 75.2729 70.4913 73.309 70.6169C73.0151 70.6349 72.7614 70.41 72.7425 70.1133C72.7235 69.8167 72.9475 69.5607 73.2414 69.5415C74.9802 69.4303 81.7549 69.5164 84.5366 70.2856C85.8202 70.6409 86.6215 71.4316 86.7352 72.4555C86.8893 73.8455 85.7574 75.3336 83.7094 76.4365C82.4649 77.1064 81.2879 77.409 80.2497 77.6758C78.3984 78.1519 77.1752 78.4665 76.6075 80.469C76.0315 82.5013 76.1642 85.8986 76.3775 88.3903C76.4024 88.6869 76.1855 88.9477 75.8916 88.9728C75.8762 88.974 75.8608 88.9752 75.8454 88.9752L75.8442 88.9764Z" fill="#1D1D1B"/>
<path d="M64.4233 84.4019C64.2989 84.4019 64.1744 84.3577 64.0725 84.2692C63.8509 84.0742 63.8272 83.7333 64.0215 83.5096C65.2127 82.1315 66.4465 80.9246 67.5346 79.8599C68.1852 79.2235 68.747 78.6745 69.1797 78.2032C71.3415 75.8526 70.8864 71.0187 70.8816 70.9697C70.852 70.6742 71.0653 70.4098 71.3581 70.3799C71.6508 70.3488 71.9128 70.5653 71.9424 70.8608C71.9649 71.0785 72.4521 76.2258 69.9607 78.9352C69.508 79.4269 68.9379 79.9855 68.2765 80.6327C67.2027 81.6829 65.9867 82.8732 64.8239 84.2177C64.7185 84.3397 64.5703 84.4019 64.4222 84.4019H64.4233Z" fill="#1D1D1B"/>
<path d="M71.9294 89.754C71.6627 89.754 71.4328 89.5531 71.4008 89.2791C71.3664 88.9837 71.575 88.7169 71.8678 88.681C75.5479 88.2432 77.3234 87.7456 80.1288 86.3651C80.3931 86.2348 80.7131 86.346 80.8423 86.6128C80.9715 86.8795 80.8613 87.2025 80.597 87.3329C77.6991 88.7588 75.7684 89.3019 71.9934 89.7504C71.9721 89.7528 71.9507 89.754 71.9306 89.754H71.9294Z" fill="#1D1D1B"/>
<path d="M59.2522 90.5984C55.1857 90.5984 52.4739 90.3388 52.3222 90.3244L52.372 89.7885L52.014 89.389C52.1254 89.2873 52.2748 89.2371 52.4253 89.2514C52.6268 89.2718 57.427 89.7299 63.9232 89.4046C64.2148 89.3902 64.4672 89.6187 64.4826 89.9153C64.4968 90.212 64.2705 90.4644 63.9765 90.4799C62.2698 90.5649 60.678 90.5972 59.2522 90.5972V90.5984Z" fill="#1D1D1B"/>
<path d="M69.8304 71.6479C68.689 71.6479 67.1162 71.392 65.5162 70.3273C62.572 68.3679 61.6345 66.0329 61.5954 65.9348C61.5373 65.7865 61.548 65.619 61.6239 65.4791C61.6997 65.3391 61.8337 65.2398 61.9889 65.2099C62.2023 65.1681 67.2703 64.223 71.1934 68.3033C71.3984 68.5163 71.3937 68.8572 71.1815 69.0641C70.9706 69.2711 70.6328 69.2663 70.4277 69.0522C67.7491 66.265 64.389 66.1035 62.9276 66.1872C63.3875 66.9516 64.3558 68.2663 66.1028 69.4278C68.6819 71.1443 71.2325 70.4075 71.2574 70.3991C71.5383 70.3142 71.8358 70.4757 71.9211 70.7592C72.0053 71.0427 71.8476 71.3429 71.5667 71.429C71.5087 71.447 70.8366 71.6456 69.8292 71.6456L69.8304 71.6479Z" fill="#1D1D1B"/>
<path d="M73.2746 70.6181C73.0328 70.6181 72.8135 70.4506 72.7555 70.203C72.7187 70.0451 71.8737 66.2938 73.1833 63.2183C74.5037 60.1189 77.0733 58.8725 77.1823 58.821C77.3293 58.7517 77.4999 58.7528 77.6445 58.8258C77.7903 58.8988 77.8946 59.034 77.9302 59.1942C77.9859 59.449 79.2398 65.4983 75.683 70.3609C75.5076 70.6001 75.1745 70.6504 74.9375 70.4745C74.7004 70.2975 74.6506 69.9614 74.8249 69.7221C77.3944 66.2077 77.2084 61.8989 77.0033 60.1823C76.2329 60.7146 74.9398 61.8223 74.1623 63.6454C72.9925 66.3895 73.7854 69.9243 73.7925 69.9602C73.8589 70.2497 73.6811 70.5391 73.3943 70.6061C73.354 70.6157 73.3125 70.6205 73.2722 70.6205L73.2746 70.6181Z" fill="#1D1D1B"/>
<path d="M56.1079 30.4912C56.0676 30.4912 56.0261 30.4864 55.9846 30.4768C55.6978 30.4086 55.5212 30.118 55.5887 29.8285C55.6018 29.7758 55.9135 28.527 57.5301 28.3523C57.8229 28.32 58.086 28.5342 58.1168 28.8308C58.1476 29.1263 57.9367 29.3919 57.6427 29.423C56.7811 29.5163 56.627 30.0713 56.6258 30.0773C56.5677 30.3249 56.3485 30.4912 56.1079 30.4912Z" fill="#1D1D1B"/>
<path d="M62.9785 27.754L62.463 27.6177L61.9438 27.4933C61.9569 27.4406 62.2686 26.1918 63.8852 26.0171C64.178 25.9848 64.4411 26.199 64.4719 26.4956C64.5039 26.7911 64.2918 27.0566 63.999 27.0877C63.1658 27.1775 62.9951 27.6954 62.9785 27.754Z" fill="#1D1D1B"/>
<path d="M81.4397 77.2175C79.0289 77.2175 77.9918 75.4914 77.7773 74.5248C77.7133 74.2353 77.8935 73.9471 78.1815 73.8813C78.4671 73.8167 78.7528 73.9973 78.8179 74.2856C78.8677 74.4973 79.3703 76.3239 81.7952 76.1242C82.088 76.1002 82.3464 76.3203 82.3701 76.617C82.3938 76.9137 82.1757 77.1732 81.8818 77.1972C81.73 77.2091 81.5819 77.2163 81.4397 77.2163V77.2175Z" fill="#1D1D1B"/>
<path d="M75.6712 29.9467C74.7965 30.6489 75.7707 32.1717 77.0614 32.3272C78.3521 32.4827 79.3146 31.7829 78.7978 30.8223C78.281 29.8618 76.3989 29.363 75.6712 29.9467Z" fill="#1D1D1B"/>
<path d="M64.8833 124.216C62.2817 124.216 60.3095 123.481 58.9418 122.692C56.5405 121.305 55.4477 119.481 55.4027 119.404C55.2521 119.148 55.3351 118.818 55.5888 118.666C55.8424 118.514 56.1683 118.598 56.3188 118.853C56.3354 118.882 57.3488 120.547 59.5178 121.784C62.4334 123.446 65.9583 123.595 69.9952 122.226C75.8206 120.25 78.2989 112.257 79.3525 105.898C80.6089 98.3092 80.3292 90.3939 79.8337 86.9249C79.7923 86.6306 79.9937 86.3579 80.2853 86.3148C80.5769 86.2729 80.8471 86.4763 80.8898 86.7705C81.3947 90.3066 81.6815 98.3654 80.405 106.075C79.6939 110.372 78.5952 113.964 77.1409 116.749C75.3773 120.127 73.0874 122.312 70.3353 123.245C68.2813 123.942 66.4656 124.214 64.8821 124.214L64.8833 124.216Z" fill="#1D1D1B"/>
<path d="M69.0872 91.5902C66.6942 91.5902 63.0414 90.504 58.5339 87.4094C52.2736 83.1114 46.1519 74.2762 45.8947 73.9018C45.7264 73.6578 45.7868 73.3216 46.0286 73.153C46.2704 72.9831 46.6023 73.0441 46.7706 73.2881C46.8322 73.3779 53.0392 82.3363 59.1337 86.5207C64.5063 90.2086 68.4721 90.9179 70.3921 90.3533C70.865 90.2146 71.1981 89.9909 71.3036 89.7421C71.671 88.8784 70.4147 88.1451 68.3002 87.0386C67.0925 86.407 65.7223 85.6905 64.6379 84.7802C61.3915 82.0552 60.1589 80.7836 56.3982 75.4617C52.5379 69.9997 51.4878 63.2064 51.4439 62.9194C51.4001 62.6251 51.6004 62.3512 51.8919 62.3069C52.1835 62.2614 52.4549 62.4648 52.4988 62.7591C52.5094 62.8272 53.5584 69.5894 57.2658 74.836C60.9791 80.091 62.1074 81.2549 65.3194 83.9524C66.315 84.7885 67.6294 85.4764 68.7897 86.0828C69.8469 86.6355 70.8461 87.1582 71.5181 87.7372C72.3916 88.4896 72.6488 89.3066 72.2826 90.1667C72.1154 90.5591 71.7042 91.0878 70.6896 91.3869C70.2452 91.5172 69.7083 91.5914 69.086 91.5914L69.0872 91.5902Z" fill="#1D1D1B"/>
<path d="M46.0868 21.9226C45.9208 21.9226 45.7573 21.8448 45.653 21.6989C43.6381 18.871 38.7313 17.3076 38.6815 17.292C38.4006 17.2035 38.243 16.9021 38.3307 16.6186C38.4184 16.3351 38.717 16.176 38.9979 16.2645C39.2137 16.3315 44.2983 17.9535 46.5194 21.0709C46.6912 21.3125 46.6367 21.6486 46.3973 21.8221C46.3025 21.8903 46.1946 21.9238 46.0868 21.9238V21.9226Z" fill="#1D1D1B"/>
<path d="M59.1349 18.9285C58.9654 18.9285 58.7983 18.8472 58.694 18.694C56.3958 15.3088 56.7395 8.9138 56.7549 8.64226C56.7727 8.3456 57.0252 8.12071 57.3179 8.13626C57.6118 8.1542 57.8358 8.4078 57.8193 8.70446C57.8157 8.76666 57.4827 15.0037 59.5734 18.084C59.7393 18.3292 59.6777 18.6641 59.4347 18.8328C59.3423 18.8962 59.238 18.9273 59.1337 18.9273L59.1349 18.9285Z" fill="#1D1D1B"/>
</g>
<defs>
<clipPath id="clip0_65_9433">
<rect width="86" height="138" fill="white" transform="translate(0.748291 0.218506)"/>
</clipPath>
</defs>
</svg>
