<svg width="119" height="140" viewBox="0 0 119 140" fill="none" xmlns="http://www.w3.org/2000/svg">
<g clip-path="url(#clip0_65_9417)">
<path d="M118.224 48.18C119.006 44.771 118.506 41.2542 116.814 38.2764C113.998 33.3179 109.329 32.4488 106.741 32.3814C109.033 30.6197 110.161 28.1067 110.098 24.8931C109.987 19.4529 106.295 14.6359 100.907 12.9011C94.5197 10.8463 89.9279 13.0864 88.0214 14.3462C88.2966 11.6716 87.6186 9.11821 86.0007 6.74675C82.1205 1.05052 74.6958 -1.27715 68.3419 1.20884C62.9747 3.31082 60.5076 7.85163 59.5846 10.0951C58.6582 7.85163 56.1944 3.30745 50.8273 1.20884C44.4767 -1.27715 37.0486 1.05389 33.1684 6.74675C31.5506 9.12158 30.8725 11.6716 31.1478 14.3462C29.2412 13.0864 24.6528 10.8463 18.2619 12.9011C12.8746 14.6359 9.17906 19.4529 9.07165 24.8931C9.00787 28.1067 10.1357 30.6163 12.4282 32.3814C9.8403 32.4488 5.16796 33.3179 2.35516 38.2764C0.663454 41.2542 0.163326 44.7744 0.945406 48.18C1.70399 51.4912 3.70786 55.5807 8.88368 57.1167C6.93352 58.0734 3.61723 60.3842 2.63711 65.2888C1.2475 72.2516 5.44991 79.3391 12.2067 81.4175C14.9758 82.2697 17.7719 82.2192 20.531 81.2693C19.8059 83.6576 18.4834 89.8355 22.2428 94.8883C22.9208 95.8012 23.7298 96.5995 24.6327 97.2766C21.7527 103.354 19.2286 108.619 17.1308 112.927C15.6438 115.989 15.9996 119.644 18.0337 122.244C18.5841 122.948 19.1917 123.558 19.8361 124.063C21.8199 125.623 24.4951 125.956 26.6466 124.909C28.0597 124.222 29.0701 123.073 29.6541 121.473C29.6642 121.443 30.3758 119.172 31.6647 115.426C30.9363 122.312 30.5503 128.24 30.3724 131.454C30.2549 133.606 31.3391 135.618 33.2053 136.702C35.0145 137.753 36.9043 138.43 38.1731 138.814C39.0525 139.08 39.942 139.215 40.818 139.215C41.5095 139.215 42.1909 139.131 42.8454 138.962L42.9025 138.949C45.1413 138.36 46.692 136.301 46.6685 133.937C46.6282 130.107 47.2056 125.552 47.4137 124.047C48.0313 124.185 48.7093 124.316 49.4645 124.451C56.181 125.633 62.9915 125.633 69.7113 124.451C70.4666 124.316 71.1412 124.185 71.7588 124.047C71.9669 125.562 72.5476 130.154 72.504 133.994C72.4771 136.301 74.001 138.333 76.2432 138.939C76.2566 138.939 76.2701 138.946 76.317 138.959C77.8107 139.343 79.4319 139.289 81.0028 138.811C82.285 138.42 84.1915 137.733 86.0074 136.672C87.8468 135.601 88.9176 133.617 88.8001 131.498C88.6558 128.833 88.394 124.777 87.9576 119.991C90.4448 123.056 93.6839 124.185 96.1073 124.579C96.4833 124.639 96.8659 124.67 97.2452 124.67C98.8228 124.67 100.38 124.151 101.646 123.177C103.196 121.988 104.163 120.27 104.364 118.34C104.378 118.219 104.385 118.104 104.391 117.986C104.455 116.949 104.277 115.841 103.858 114.692C103.468 113.614 103.327 112.509 103.431 111.398C104.036 111.701 104.7 111.859 105.368 111.859C105.674 111.859 105.982 111.825 106.284 111.761C107.795 111.428 108.909 110.539 109.581 109.848C110.067 109.343 110.416 108.75 110.708 108.235C111.477 106.867 114.045 106.57 114.072 106.57L115.189 106.449L114.327 105.725C113.514 105.041 112.612 104.785 111.954 104.694C112.726 103.849 113.77 103.485 113.78 103.481L114.787 103.145L113.867 102.609C108.879 99.7054 104.509 102.097 102.861 103.256C102.2 103.717 101.673 104.303 101.337 104.95C100.672 106.234 100.672 107.706 101.337 109.205C101.485 109.535 101.669 109.845 101.887 110.124C101.401 111.937 101.73 114.045 101.978 115.17C102.176 116.063 102.22 116.905 102.106 117.677C102.025 118.205 101.897 118.684 101.72 119.105C100.951 120.971 98.9302 122.11 96.8055 121.87C90.8845 121.21 87.632 114.463 87.3266 113.806C87.048 111.327 86.7257 108.74 86.3532 106.119C88.0751 105.624 93.8853 103.805 94.6237 103.556C99.8936 101.797 107.214 98.2771 110.51 94.1472C112.289 91.9173 112.974 88.8889 112.299 86.2379C111.736 84.018 110.255 82.3034 108.131 81.4141C107.943 81.3366 107.751 81.2693 107.557 81.212C113.954 78.9045 117.868 72.0394 116.522 65.2855C115.542 60.3809 112.226 58.07 110.275 57.1134C115.451 55.5807 117.455 51.4879 118.214 48.1766L118.224 48.18ZM102.193 105.398C102.458 104.89 102.878 104.421 103.415 104.047C104.391 103.36 106.415 102.195 108.956 102.195C110.071 102.195 111.286 102.42 112.555 103.007C111.927 103.37 111.128 103.983 110.635 104.91L110.215 105.701L111.104 105.617C111.104 105.617 111.863 105.55 112.712 105.877C111.742 106.153 110.47 106.705 109.876 107.766C109.618 108.228 109.305 108.757 108.896 109.181C108.319 109.774 107.362 110.542 106.083 110.825C105.133 111.034 104.136 110.815 103.341 110.219C103.143 110.074 102.955 109.902 102.78 109.7C102.552 109.44 102.361 109.144 102.22 108.817C101.669 107.578 101.662 106.429 102.196 105.395L102.193 105.398ZM88.9847 118.182C91.2303 120.91 93.8987 122.517 96.7015 122.83C99.2457 123.113 101.676 121.736 102.606 119.479C102.814 118.987 102.965 118.431 103.055 117.821C103.186 116.932 103.139 115.969 102.914 114.962C102.901 114.901 102.888 114.84 102.874 114.776C102.901 114.857 102.928 114.938 102.958 115.022C103.331 116.046 103.492 117.023 103.435 117.926C103.428 118.034 103.421 118.138 103.408 118.246C103.233 119.907 102.398 121.389 101.058 122.416C99.6955 123.46 97.9467 123.905 96.255 123.632C93.6873 123.214 90.1427 121.918 87.773 118.091L87.7428 117.808C87.6925 117.299 87.6421 116.784 87.5884 116.262C87.961 116.848 88.4242 117.508 88.978 118.182H88.9847ZM107.771 82.3068C110.128 83.2938 111.034 85.1229 111.38 86.4804C111.981 88.8451 111.366 91.5535 109.772 93.551C106.607 97.5158 99.474 100.928 94.3317 102.646C93.5564 102.905 87.6857 104.741 86.0914 105.199C85.4133 102.831 84.2452 100.699 84.2452 100.699C84.9233 102.841 85.2455 104.977 85.3496 105.799C85.3596 105.863 85.3663 105.927 85.3764 105.991C85.3898 106.095 85.3965 106.156 85.3965 106.156H85.3999C85.7993 108.966 86.1417 111.734 86.4337 114.379L86.803 117.912C87.3635 123.625 87.6824 128.5 87.8502 131.552C87.9475 133.31 87.0581 134.954 85.5308 135.843C83.7955 136.857 81.9628 137.517 80.7276 137.895C79.3212 138.322 77.8812 138.37 76.5889 138.04C76.5486 138.026 76.5084 138.016 76.4647 138.006C74.679 137.521 73.4438 135.877 73.4673 134.007C73.5143 129.881 72.8531 124.919 72.6785 123.683C76.0854 122.541 77.5657 119.617 77.5657 119.617C75.733 121.904 72.984 122.76 72.2053 122.962L72.0542 122.999C71.3158 123.174 70.4968 123.339 69.5469 123.508C62.9378 124.67 56.2381 124.673 49.6324 123.508C48.6825 123.339 47.8635 123.171 47.125 122.999L46.937 122.955C46.1147 122.736 43.4194 121.874 41.6102 119.617C41.6102 119.617 43.0904 122.544 46.5007 123.686C46.3261 124.916 45.6716 129.834 45.7153 133.95C45.732 135.87 44.4767 137.544 42.6608 138.023L42.7783 138.488L42.6171 138.033C41.2947 138.373 39.8547 138.326 38.4483 137.895C37.2299 137.524 35.414 136.874 33.6853 135.87C32.1346 134.967 31.2317 133.297 31.329 131.505C31.5203 128.032 31.9567 121.382 32.8059 113.786C34.0512 107.989 35.2797 102.272 35.2797 102.272L33.353 107.783L32.1682 111.098C29.9898 117.188 28.7512 121.139 28.7478 121.16C28.2611 122.494 27.4119 123.464 26.2304 124.036C24.4044 124.922 22.1253 124.633 20.4269 123.299C19.8429 122.841 19.2924 122.285 18.7889 121.641C16.9797 119.331 16.6709 116.07 17.9967 113.341C20.0812 109.063 22.5852 103.842 25.4416 97.8156C26.0827 98.2198 26.7641 98.5634 27.479 98.8464C27.5227 98.8632 27.5697 98.8801 27.6167 98.8969C27.7912 98.9643 27.9691 99.0283 28.147 99.0855C28.2343 99.1159 28.3215 99.1394 28.4088 99.1664C28.5464 99.2102 28.6874 99.2506 28.825 99.2877C28.9324 99.318 29.0398 99.3449 29.1506 99.3719C29.2714 99.4022 29.3923 99.4258 29.5131 99.4527C29.6373 99.4797 29.7582 99.5032 29.8857 99.5268C29.9898 99.547 30.0972 99.5605 30.2046 99.5773C30.3422 99.5976 30.4798 99.6211 30.6208 99.638C30.6913 99.6481 30.7651 99.6515 30.839 99.6582C31.0001 99.675 31.1612 99.6952 31.3223 99.7054C31.3827 99.7087 31.4398 99.7121 31.4968 99.7155C31.658 99.7256 31.8258 99.7323 32.0003 99.739C32.101 99.7424 32.1984 99.7458 32.2991 99.7458C32.4132 99.7458 32.534 99.7491 32.6515 99.7491C33.2624 99.7491 33.8632 99.7323 34.4439 99.6818C37.2936 99.4426 39.8043 98.5702 41.8955 97.1183C41.9727 97.0644 42.0532 97.0105 42.1304 96.9532C42.2144 96.8926 42.2983 96.832 42.3822 96.768C42.5198 96.6636 42.6574 96.5524 42.795 96.4412C42.8219 96.4176 42.8521 96.3974 42.879 96.3739C43.0501 96.229 43.2213 96.0774 43.3925 95.9225C43.4261 95.8921 43.4563 95.8618 43.4899 95.8281C43.6275 95.7001 43.7617 95.5654 43.896 95.4273C43.9329 95.3902 43.9698 95.3532 44.0068 95.3128C44.141 95.1713 44.2719 95.0298 44.4028 94.8782C44.4297 94.8479 44.4565 94.8176 44.4834 94.7873C44.6378 94.6087 44.7888 94.4268 44.9365 94.2348C45.0272 94.949 45.2017 95.8854 45.5306 96.9229C44.4364 99.4089 43.7147 102.134 43.3858 105.031C42.6071 111.903 47.0914 118.175 53.8214 119.617C56.6677 120.23 59.0307 120.264 59.5074 120.264C59.5544 120.264 59.5846 120.264 59.5913 120.264C59.6987 120.264 62.2497 120.291 65.3746 119.62C72.1046 118.178 76.5923 111.906 75.8169 105.034C75.488 102.164 74.7764 99.4594 73.6989 96.9937C74.0279 95.9427 74.1991 94.9894 74.2796 94.2618C74.434 94.4605 74.5951 94.6525 74.7562 94.8378C74.914 95.0231 75.0785 95.1982 75.2396 95.3667C75.253 95.3801 75.2664 95.3936 75.2799 95.4071C75.4443 95.5789 75.6122 95.7439 75.7833 95.8989C75.7833 95.8989 75.7867 95.9023 75.7901 95.9056C76.1425 96.2324 76.5017 96.5322 76.8675 96.8084C76.9112 96.8421 76.9581 96.8758 77.0051 96.9095C77.1327 97.0038 77.2602 97.0914 77.3911 97.1789C77.4616 97.2261 77.5288 97.2733 77.5993 97.3204C77.7 97.3844 77.8006 97.4484 77.9013 97.5091C78.0994 97.6337 78.3041 97.7516 78.5089 97.8628C78.5257 97.8729 78.5424 97.883 78.5592 97.8931C80.3718 98.8801 82.4461 99.4864 84.7454 99.6818C86.0175 99.7896 87.1453 99.7559 87.867 99.7054C91.3813 99.4662 94.5566 97.8392 96.6578 95.2319C96.7518 95.114 96.8458 94.9995 96.9364 94.8782C97.1277 94.6188 97.3056 94.3561 97.4735 94.0933C97.4903 94.0664 97.5104 94.0394 97.5272 94.0091C97.695 93.7396 97.8461 93.4668 97.9904 93.1939C98.0005 93.1704 98.0139 93.1501 98.0239 93.1266C99.0678 91.0852 99.4438 88.9563 99.4773 87.0329C100.209 86.1806 100.877 85.2711 101.464 84.3245C102.777 82.2057 105.492 81.3333 107.785 82.2967L107.771 82.3068ZM46.1818 98.6443C46.1818 98.6443 46.1952 98.6712 46.202 98.6847C46.2523 98.7925 46.3027 98.8969 46.3564 99.0047C46.3832 99.0586 46.4134 99.1159 46.4403 99.1698C46.4772 99.2371 46.5108 99.3079 46.5477 99.3752C46.5779 99.4325 46.6115 99.4898 46.6417 99.547C46.6786 99.6144 46.7189 99.6818 46.7591 99.7491C46.7927 99.8064 46.8263 99.8637 46.8598 99.9209C46.9001 99.9883 46.9438 100.056 46.984 100.123C47.021 100.18 47.0545 100.234 47.0914 100.291C47.1351 100.359 47.1821 100.43 47.2291 100.497C47.266 100.551 47.3029 100.605 47.3432 100.662C47.3935 100.733 47.4439 100.8 47.4942 100.871C47.5312 100.921 47.5681 100.975 47.6084 101.026C47.6654 101.1 47.7258 101.174 47.7829 101.248C47.8198 101.292 47.8534 101.339 47.8903 101.383C47.9675 101.477 48.0514 101.572 48.132 101.666C48.1521 101.689 48.1723 101.713 48.1924 101.733C48.2964 101.848 48.4005 101.962 48.5113 102.077C48.5482 102.114 48.5851 102.148 48.6187 102.185C48.6959 102.262 48.7697 102.336 48.8503 102.414C48.8973 102.457 48.9443 102.501 48.9913 102.545C49.0617 102.612 49.1356 102.676 49.2094 102.744C49.2598 102.788 49.3135 102.835 49.3672 102.879C49.441 102.939 49.5149 103 49.5887 103.06C49.6458 103.104 49.7029 103.151 49.7599 103.195C49.8371 103.252 49.9143 103.313 49.9915 103.37C50.0519 103.414 50.1124 103.458 50.1728 103.502C50.2533 103.559 50.3339 103.613 50.4178 103.67C50.4816 103.711 50.542 103.754 50.6058 103.795C50.6897 103.849 50.777 103.903 50.8642 103.956C50.928 103.997 50.9918 104.034 51.0589 104.074C51.1529 104.128 51.2469 104.179 51.3409 104.233C51.4046 104.266 51.4684 104.303 51.5355 104.337C51.6429 104.394 51.7504 104.445 51.8611 104.499C51.9182 104.526 51.9752 104.556 52.0357 104.583C52.1901 104.654 52.3478 104.725 52.5089 104.792C52.5257 104.799 52.5425 104.809 52.5593 104.815C52.7372 104.89 52.9184 104.96 53.1064 105.031C53.1668 105.055 53.2306 105.075 53.291 105.095C53.4186 105.139 53.5461 105.186 53.6804 105.23C53.7576 105.253 53.8348 105.277 53.912 105.301C54.0328 105.338 54.1537 105.375 54.2778 105.408C54.3618 105.432 54.449 105.455 54.5363 105.476C54.6571 105.506 54.7813 105.54 54.9055 105.567C54.9962 105.587 55.0901 105.607 55.1808 105.627C55.305 105.654 55.4291 105.681 55.5567 105.705C55.6507 105.725 55.748 105.742 55.8454 105.759C55.9763 105.782 56.1072 105.802 56.2381 105.823C56.3354 105.839 56.4361 105.853 56.5368 105.866C56.6744 105.887 56.812 105.903 56.9497 105.917C56.9832 105.92 57.0168 105.927 57.0537 105.93C57.1209 105.937 57.188 105.944 57.2551 105.951C57.3961 105.964 57.5438 105.978 57.6881 105.988C57.7552 105.994 57.8224 106.001 57.8929 106.005C57.9298 106.005 57.9667 106.008 58.0003 106.011C58.1446 106.021 58.2923 106.028 58.44 106.035C58.5541 106.042 58.6649 106.048 58.7824 106.052C58.92 106.055 59.061 106.058 59.2019 106.058C59.3295 106.058 59.4537 106.065 59.5812 106.065C59.7088 106.065 59.8262 106.062 59.9504 106.058C60.0981 106.058 60.2425 106.058 60.3868 106.052C60.5076 106.048 60.6285 106.042 60.7493 106.035C60.8903 106.028 61.0313 106.021 61.1689 106.015C61.2058 106.015 61.2461 106.011 61.283 106.008C61.3636 106.001 61.4408 105.994 61.518 105.988C61.6522 105.978 61.7865 105.964 61.9207 105.954C61.9912 105.947 62.0584 105.941 62.1288 105.93C62.1758 105.924 62.2228 105.92 62.2698 105.914C62.394 105.9 62.5216 105.883 62.6458 105.866C62.7465 105.853 62.8438 105.839 62.9445 105.823C62.9613 105.823 62.9747 105.819 62.9915 105.816C62.9915 105.816 62.9982 105.816 63.0016 105.816C63.1157 105.799 63.2298 105.779 63.3439 105.759C63.4413 105.742 63.5353 105.725 63.6292 105.705C63.7601 105.681 63.8877 105.654 64.0152 105.627C64.1059 105.607 64.1965 105.587 64.2871 105.567C64.4147 105.536 64.5389 105.506 64.6631 105.476C64.747 105.455 64.8342 105.432 64.9148 105.412C65.0424 105.378 65.1699 105.338 65.2941 105.301C65.3679 105.277 65.4418 105.257 65.5156 105.233C65.6566 105.189 65.7942 105.139 65.9318 105.092C65.9855 105.075 66.0392 105.055 66.0896 105.038C66.2776 104.97 66.4622 104.9 66.6401 104.826C66.6669 104.815 66.6938 104.802 66.7206 104.792C66.8717 104.728 67.0194 104.664 67.1671 104.596C67.2241 104.57 67.2812 104.543 67.3382 104.512C67.449 104.458 67.5598 104.404 67.6705 104.347C67.7343 104.314 67.7947 104.28 67.8585 104.246C67.9558 104.192 68.0532 104.142 68.1505 104.084C68.2143 104.047 68.2781 104.01 68.3385 103.973C68.4291 103.919 68.5197 103.866 68.607 103.808C68.6674 103.768 68.7312 103.731 68.7916 103.69C68.8755 103.633 68.9595 103.576 69.0434 103.519C69.1004 103.478 69.1609 103.438 69.2179 103.394C69.2985 103.333 69.379 103.276 69.4596 103.215C69.5133 103.175 69.567 103.131 69.6207 103.091C69.7013 103.027 69.7785 102.963 69.8557 102.899C69.906 102.858 69.953 102.818 70.0033 102.777C70.0839 102.707 70.1611 102.636 70.2417 102.565C70.2819 102.528 70.3256 102.491 70.3659 102.454C70.4598 102.367 70.5505 102.276 70.6411 102.185C70.6612 102.164 70.6847 102.141 70.7082 102.121C70.819 102.006 70.9264 101.892 71.0305 101.777C71.0573 101.75 71.0808 101.72 71.1043 101.693C71.1815 101.605 71.2587 101.518 71.3326 101.427C71.3695 101.383 71.403 101.339 71.4366 101.299C71.497 101.225 71.5574 101.147 71.6145 101.073C71.6514 101.026 71.6883 100.975 71.7253 100.928C71.779 100.857 71.8293 100.787 71.883 100.713C71.9199 100.662 71.9535 100.611 71.9904 100.558C72.0374 100.487 72.0878 100.416 72.1314 100.345C72.165 100.291 72.1985 100.241 72.2321 100.187C72.2757 100.116 72.3194 100.046 72.363 99.9748C72.3966 99.9209 72.4268 99.867 72.4604 99.8131C72.5006 99.7424 72.5409 99.6717 72.5812 99.6009C72.6114 99.547 72.6416 99.4931 72.6685 99.4426C72.7087 99.3685 72.7457 99.2978 72.7826 99.2236C72.8094 99.1731 72.8363 99.1192 72.8631 99.0687C72.8799 99.035 72.8967 99.0013 72.9135 98.9676C72.9437 98.9036 72.9739 98.843 73.0041 98.779C73.0175 98.7487 73.031 98.7217 73.0444 98.6914C73.0578 98.6611 73.0713 98.6308 73.0847 98.6005C73.1283 98.5095 73.1686 98.4152 73.2089 98.3242C74.0312 100.446 74.5851 102.737 74.8637 105.152C75.5853 111.532 71.4198 117.353 65.1732 118.691C62.1557 119.341 59.6282 119.314 59.5879 119.314C59.5611 119.314 57.0437 119.341 54.016 118.691C47.7695 117.353 43.6073 111.532 44.329 105.152C44.6076 102.71 45.1715 100.393 46.0106 98.2468C46.0677 98.3781 46.1281 98.5129 46.1919 98.6476L46.1818 98.6443ZM98.6382 81.2693C99.8868 81.7004 101.146 81.943 102.404 82.007C101.706 82.4752 101.099 83.0849 100.635 83.8294C100.266 84.4256 99.8566 85.005 99.4236 85.5675C99.2994 83.7485 98.9235 82.2125 98.6348 81.2726L98.6382 81.2693ZM108.614 56.5239L106.449 56.9146L108.58 57.4637C108.637 57.4772 114.3 59.0065 115.592 65.4775C116.888 71.9619 112.974 78.561 106.681 80.4979C103.807 81.3838 100.897 81.2187 98.0374 80.0094L96.9734 79.5614L97.4063 80.6326C97.4298 80.6932 99.2994 85.4429 98.0508 90.3004C98.0508 90.3105 98.0474 90.3172 98.0441 90.3273C97.9602 90.6541 97.8595 90.9774 97.7454 91.3042C97.7151 91.3918 97.6849 91.476 97.6514 91.5636C97.5977 91.705 97.544 91.8465 97.4835 91.988C97.3929 92.1968 97.3023 92.4057 97.2016 92.6078C97.1613 92.692 97.1143 92.7762 97.0707 92.8571C96.9733 93.039 96.8726 93.2175 96.7686 93.396C96.725 93.4702 96.6813 93.5443 96.6343 93.615C96.4833 93.8542 96.3289 94.0866 96.1577 94.3157C94.231 96.9061 91.1833 98.523 87.7931 98.7554C87.5515 98.7723 87.3031 98.7857 87.0513 98.7925C87.0043 98.7925 86.9607 98.7925 86.9137 98.7959C86.8802 98.7959 86.8432 98.7959 86.8097 98.7959C86.229 98.806 85.5476 98.7958 84.8125 98.7318C82.4931 98.5331 80.449 97.9234 78.6901 96.9061C78.6801 96.9027 78.6733 96.896 78.6633 96.8926C78.4552 96.7713 78.2538 96.6467 78.0557 96.5153C78.0255 96.4951 77.9987 96.4749 77.9685 96.4547C77.8006 96.3435 77.6395 96.2256 77.4784 96.1044C77.4415 96.0774 77.4046 96.0505 77.371 96.0235C77.1898 95.8854 77.0152 95.7439 76.8407 95.5957C76.8071 95.5688 76.7769 95.5385 76.7433 95.5081C76.599 95.3835 76.4614 95.2555 76.3238 95.1241C76.2801 95.0837 76.2365 95.0433 76.1962 94.9995C75.8639 94.6694 75.545 94.3224 75.2429 93.9519C75.2127 93.9148 75.1792 93.8744 75.149 93.834C75.0214 93.6756 74.8972 93.5106 74.7764 93.3422C74.7495 93.3051 74.7227 93.2714 74.6992 93.2344C74.5548 93.0289 74.4105 92.82 74.2729 92.6044L73.3901 91.2233L73.3431 91.1526L73.3868 92.8773C73.3868 92.9278 73.4774 97.8392 70.0369 101.383C69.7415 101.686 69.4294 101.969 69.1038 102.239C69.0937 102.245 69.0836 102.255 69.0769 102.262C68.748 102.528 68.4056 102.774 68.0431 103C68.0364 103.007 68.0263 103.01 68.0196 103.013C67.8585 103.114 67.694 103.212 67.5262 103.303C67.4859 103.327 67.4423 103.35 67.402 103.37C67.261 103.448 67.1167 103.522 66.9724 103.593C66.9254 103.616 66.8784 103.64 66.828 103.663C66.6703 103.738 66.5125 103.808 66.348 103.879C66.3145 103.892 66.2809 103.909 66.244 103.923C66.046 104.004 65.8446 104.081 65.6398 104.155C65.5962 104.172 65.5492 104.186 65.5056 104.199C65.3478 104.253 65.1867 104.307 65.0222 104.357C64.9417 104.381 64.8577 104.404 64.7738 104.428C64.6429 104.465 64.512 104.502 64.3811 104.536C64.2838 104.559 64.1864 104.583 64.0857 104.607C63.9649 104.637 63.8407 104.664 63.7165 104.691C63.6091 104.714 63.4983 104.735 63.3909 104.758C63.2734 104.782 63.1526 104.802 63.0318 104.822C62.9143 104.842 62.7934 104.863 62.6726 104.879C62.5585 104.896 62.441 104.91 62.3269 104.927C62.196 104.943 62.0651 104.96 61.9342 104.974C61.8301 104.984 61.7227 104.994 61.6153 105.004C61.4676 105.018 61.3199 105.031 61.1689 105.041C61.0883 105.048 61.0078 105.048 60.9272 105.055C60.4942 105.078 60.0511 105.095 59.5913 105.095C59.1314 105.095 58.6984 105.078 58.2755 105.055C58.195 105.051 58.111 105.048 58.0305 105.041C57.8929 105.031 57.762 105.018 57.6311 105.007C57.5102 104.997 57.3894 104.987 57.2719 104.974C57.1578 104.96 57.0504 104.947 56.9396 104.933C56.802 104.917 56.6677 104.9 56.5335 104.879C56.4361 104.866 56.3421 104.849 56.2481 104.832C56.1038 104.809 55.9595 104.782 55.8185 104.755C55.7346 104.738 55.6507 104.721 55.5701 104.704C55.4191 104.674 55.268 104.64 55.1203 104.603C55.0499 104.586 54.9794 104.57 54.9122 104.553C54.7478 104.512 54.5867 104.468 54.4289 104.421C54.3785 104.408 54.3248 104.391 54.2745 104.378C54.0832 104.32 53.8918 104.256 53.7039 104.192C53.6904 104.186 53.6737 104.182 53.6602 104.175C53.0191 103.946 52.4116 103.677 51.841 103.364C51.841 103.364 51.841 103.364 51.8376 103.364C50.8844 102.838 50.0284 102.198 49.2833 101.44C46.2355 98.3478 45.8529 94.1877 45.8059 93.1299C45.8059 93.1165 45.8059 93.1064 45.8059 93.0963C45.8059 93.076 45.8059 93.0558 45.8059 93.0356C45.8059 93.012 45.8059 92.9885 45.8059 92.9682C45.8059 92.9682 45.8059 92.9615 45.8059 92.9581C45.8059 92.9076 45.8059 92.8773 45.8059 92.8739V92.5438L45.8227 91.1998L45.101 92.3282L44.9197 92.6112C44.7888 92.8167 44.6512 93.0188 44.5102 93.2141C44.4666 93.2748 44.423 93.332 44.3827 93.3893C44.282 93.5274 44.1779 93.6622 44.0705 93.7969C44.0235 93.8575 43.9732 93.9182 43.9262 93.9788C43.7919 94.1439 43.6543 94.3022 43.5133 94.4572C43.4697 94.5043 43.4261 94.5481 43.3858 94.5953C43.265 94.7233 43.1441 94.8513 43.0199 94.9725C42.9528 95.0365 42.889 95.1005 42.8219 95.1645C42.7212 95.2622 42.6171 95.3566 42.5097 95.4475C42.446 95.5048 42.3822 95.5654 42.3151 95.6193C42.164 95.7473 42.0063 95.8753 41.8485 95.9966C41.778 96.0505 41.7042 96.1044 41.6303 96.1583C41.5195 96.2391 41.4054 96.32 41.2913 96.3974C41.2208 96.4446 41.1503 96.4951 41.0798 96.5389C40.9087 96.6501 40.7375 96.7579 40.5629 96.8623C40.5059 96.896 40.4488 96.9263 40.3951 96.96C40.2373 97.0509 40.0762 97.1351 39.9151 97.2194C39.8748 97.2396 39.8379 97.2598 39.7976 97.28C39.5862 97.3844 39.3747 97.4855 39.1565 97.5798C39.1397 97.5865 39.123 97.5933 39.1062 97.6C37.6864 98.2063 36.1054 98.5836 34.3734 98.7285C33.6685 98.7891 32.9368 98.8093 32.1883 98.7891C32.1447 98.7891 32.1044 98.7857 32.0608 98.7824C31.903 98.7756 31.7452 98.7689 31.5875 98.7588C31.5237 98.7554 31.4599 98.7521 31.3962 98.7487C31.2955 98.742 31.1981 98.7285 31.0974 98.7217C30.9665 98.7083 30.839 98.6982 30.7114 98.6813C30.5939 98.6678 30.4798 98.6476 30.3657 98.6308C30.2415 98.6106 30.1139 98.5904 29.9898 98.5668C29.8823 98.5466 29.7749 98.5264 29.6709 98.5028C29.5232 98.4725 29.3789 98.4354 29.2345 98.3984C29.154 98.3781 29.0734 98.3579 28.9929 98.3377C28.7646 98.2737 28.5364 98.203 28.3115 98.1255C28.2947 98.1188 28.2779 98.112 28.2645 98.1087C28.0463 98.0312 27.8315 97.9503 27.62 97.8594C27.5831 97.8459 27.5495 97.8291 27.5126 97.8122C27.3045 97.7213 27.0964 97.627 26.895 97.5259C26.8816 97.5192 26.8681 97.5124 26.8547 97.5057C26.3982 97.2733 25.9585 97.0105 25.5356 96.7174L25.3678 96.5995C24.4816 95.9595 23.6928 95.1915 23.035 94.3089C18.6983 88.4746 21.7527 80.7067 21.7863 80.6292L22.2193 79.5547L21.1553 80.0027C18.2955 81.212 15.3887 81.3771 12.5121 80.4911C6.22192 78.5542 2.30817 71.9552 3.60045 65.4707C4.88601 59.0233 10.3807 57.5176 10.6123 57.457L12.7437 56.9079L10.5787 56.5171C4.79203 55.4762 2.66732 51.2891 1.90203 47.9576C1.17365 44.7845 1.64021 41.5136 3.21109 38.7446C6.89995 32.2433 13.8648 33.3651 14.1602 33.4156L17.1744 33.9377L14.4623 32.5162C11.4682 30.9464 9.98463 28.3863 10.0551 24.9066C10.1558 19.8774 13.5829 15.4174 18.5808 13.8106C22.6657 12.4969 25.9552 13.0998 27.996 13.8376C30.218 14.6393 31.4901 15.7711 31.5036 15.7812L32.5877 16.7615L32.2957 15.3265C31.715 12.4834 32.2823 9.77844 33.9874 7.27898C37.6192 1.94992 44.5673 -0.232898 50.5084 2.0914C57.1779 4.70203 59.1348 11.5705 59.1516 11.6379L59.6148 13.3188L60.078 11.6379C60.0981 11.5671 62.0516 4.70203 68.7211 2.0914C74.6623 -0.232898 81.6103 1.94656 85.2421 7.27898C86.9439 9.77844 87.5145 12.4868 86.9339 15.3265L86.6418 16.7615L87.726 15.7812C87.7764 15.7374 92.8078 11.2876 100.649 13.8072C105.647 15.414 109.074 19.874 109.174 24.9032C109.245 28.383 107.761 30.9431 104.767 32.5128L102.055 33.9343L105.069 33.4122C105.365 33.3617 112.326 32.24 116.015 38.7413C117.586 41.5102 118.053 44.7811 117.324 47.9543C116.559 51.2858 114.434 55.4729 108.647 56.5138L108.614 56.5239Z" fill="#232343"/>
<path d="M97.8594 28.1438C97.7587 23.7041 94.7411 19.773 90.5219 18.5839C83.1341 16.4987 79.17 24.2969 77.6696 28.2651C77.3877 28.1438 77.1024 28.0259 76.8137 27.9148L77.0151 27.8946L74.7763 27.2074C74.7561 27.2006 74.7327 27.1939 74.7125 27.1905C74.491 27.1232 74.2694 27.0625 74.0446 27.0019C73.9573 26.9783 73.87 26.9514 73.7827 26.9278C73.4739 26.8469 73.1618 26.7695 72.8463 26.6987C68.6908 25.7589 64.23 25.2806 59.5845 25.2806C54.939 25.2806 50.4781 25.7589 46.3227 26.6987C46.0038 26.7695 45.6883 26.8503 45.3728 26.9312C45.309 26.948 45.2486 26.9648 45.1848 26.9817C44.9331 27.0491 44.6813 27.1198 44.433 27.1973C44.4195 27.2006 44.4061 27.204 44.396 27.2074L42.1572 27.8946L42.3552 27.9148C42.0666 28.0259 41.7813 28.1438 41.4993 28.2651C39.9956 24.2969 36.0348 16.4954 28.647 18.5839C24.4278 19.773 21.4103 23.7041 21.3096 28.1438C21.229 31.701 22.7328 36.0869 30.2078 37.1716C28.6101 39.3342 27.3346 41.7359 26.4619 44.3129L22.9409 54.7386C20.1784 62.9107 22.7663 71.7464 29.5332 77.2472C40.3682 86.056 54.9155 86.6623 58.6883 86.6623C59.1884 86.6623 59.5006 86.6522 59.5878 86.6489C60.3296 86.6792 77.3642 87.2283 89.6392 77.2472C96.406 71.7464 98.9905 62.9107 96.2314 54.7386L92.7104 44.3129C91.8411 41.7359 90.5656 39.3342 88.9645 37.1716C96.4395 36.0869 97.9433 31.6977 97.8627 28.1438H97.8594ZM83.6578 31.7549C84.7654 30.0572 86.4101 28.0529 88.3234 27.3623C90.3037 26.6448 91.841 27.7059 92.4855 29.0736C93.1434 30.4715 92.989 32.4859 91.0959 33.6144C90.0822 34.2207 88.7597 34.6721 87.1586 34.9584C86.974 34.7563 86.7827 34.5609 86.5947 34.3656C86.5175 34.2881 86.4471 34.2072 86.3699 34.1298C86.0678 33.8266 85.759 33.5335 85.4468 33.2438C85.3629 33.1663 85.2756 33.0956 85.1917 33.0215C84.9567 32.8126 84.7184 32.6038 84.4734 32.4017C84.3526 32.3006 84.225 32.2029 84.1042 32.1053C83.9565 31.9874 83.8122 31.8661 83.6611 31.7516L83.6578 31.7549ZM56.8522 60.7144C57.3557 60.6504 57.8089 60.5089 58.1949 60.3472C59.0776 59.9666 60.0846 59.9666 60.9707 60.3472C61.3567 60.5089 61.8099 60.6504 62.31 60.7144C64.2971 60.9636 65.8512 59.2053 65.6431 57.3256C67.4019 58.6899 68.5297 60.5594 69.2447 62.2572C70.359 64.9015 69.7213 67.9197 67.6637 69.7657C67.1267 70.2474 66.5057 70.6954 65.8176 71.0895C61.971 73.3094 57.1912 73.3094 53.3446 71.0895C52.6599 70.6954 52.0389 70.2474 51.4985 69.7657C49.4409 67.9197 48.8066 64.9015 49.9176 62.2572C50.6292 60.5628 51.757 58.6932 53.5158 57.329C53.3111 59.2086 54.8652 60.967 56.8489 60.7144H56.8522ZM60.8298 53.5865C60.4438 53.5461 60.0309 53.5225 59.5845 53.5225C59.1381 53.5225 58.7218 53.5461 58.3358 53.5865C58.3895 50.8546 58.2821 45.0506 56.718 39.5767C54.8215 32.9407 51.4616 28.922 46.7154 27.5948C46.9235 27.5476 47.1316 27.5072 47.3397 27.4634C47.6183 27.4061 47.8969 27.3455 48.1789 27.2882C48.3702 27.2512 48.5649 27.2209 48.7596 27.1838C49.0919 27.1232 49.4208 27.0625 49.7531 27.0086C49.9008 26.9851 50.0518 26.9648 50.1995 26.9413C50.5822 26.884 50.9648 26.8234 51.3508 26.7728C51.4482 26.7594 51.5489 26.7493 51.6496 26.7358C52.0859 26.6785 52.5256 26.6246 52.9653 26.5775C53.0056 26.5741 53.0425 26.5707 53.0828 26.5674C55.1975 26.3484 57.3691 26.2372 59.5845 26.2372C61.2594 26.2372 62.9108 26.3012 64.5321 26.4259C64.5455 26.4259 64.5623 26.4259 64.5757 26.4259C65.0255 26.4596 65.4719 26.5034 65.915 26.5471C66.0123 26.5572 66.113 26.564 66.2137 26.5741C66.6064 26.6145 66.9958 26.665 67.3851 26.7122C67.5328 26.7324 67.6839 26.7459 67.8316 26.7661C68.1806 26.8133 68.5264 26.8672 68.8721 26.9211C69.0567 26.948 69.2413 26.9749 69.4259 27.0053C69.7414 27.0558 70.0502 27.1131 70.3624 27.1703C70.5739 27.2074 70.7853 27.2444 70.9968 27.2849C71.2821 27.3388 71.5607 27.3994 71.8426 27.46C72.0474 27.5038 72.2555 27.5442 72.4569 27.5914C67.7107 28.922 64.3508 32.9407 62.4543 39.5733C60.8902 45.0472 60.7794 50.8513 60.8331 53.5831L60.8298 53.5865ZM35.0581 32.112C34.9372 32.2097 34.813 32.304 34.6922 32.4051C34.4472 32.6072 34.2089 32.816 33.9705 33.0282C33.8866 33.1023 33.8027 33.1731 33.7188 33.2472C33.4033 33.5335 33.0945 33.83 32.7957 34.1331C32.7185 34.2106 32.6447 34.2948 32.5675 34.3723C32.3795 34.5677 32.1882 34.7597 32.0036 34.9618C30.4025 34.6755 29.08 34.2241 28.0663 33.6177C26.1766 32.4926 26.0222 30.4749 26.6767 29.0769C27.1769 28.0125 28.2174 27.1333 29.5869 27.1333C29.9796 27.1333 30.3958 27.204 30.8389 27.3657C32.7521 28.0563 34.3968 30.0605 35.5045 31.7549C35.3534 31.8695 35.2058 31.9941 35.0581 32.112ZM22.2628 28.1674C22.3535 24.1454 25.0857 20.5848 28.9021 19.5102C29.6406 19.3014 30.3387 19.2071 31.0033 19.2071C36.3436 19.2071 39.378 25.3648 40.6165 28.6491C39.0859 29.3633 37.6359 30.2189 36.2799 31.189C35.0883 29.3734 33.3059 27.231 31.1645 26.4562C28.6202 25.5332 26.6398 26.8975 25.8107 28.6626C24.975 30.4412 25.1696 33.008 27.5763 34.4397C28.5631 35.0292 29.805 35.4839 31.2719 35.7905C31.1309 35.9555 30.9933 36.1206 30.8624 36.289C25.0488 35.5951 22.1554 32.8632 22.2628 28.164V28.1674ZM95.3185 55.0485C97.9466 62.8366 95.4796 71.258 89.0316 76.5028C76.8339 86.4198 59.7758 85.6956 59.6046 85.6888H59.5811H59.5576C59.3864 85.6956 42.3284 86.4198 30.1306 76.5028C23.6793 71.258 21.2122 62.8366 23.8438 55.0485L27.3648 44.6228C29.5768 38.0777 34.4841 32.6981 40.7508 29.6597C40.8414 29.6159 40.9321 29.5721 41.0227 29.5283C42.1673 28.9893 43.3521 28.5312 44.5773 28.1539C57.1275 29.6058 57.4833 48.9009 57.3725 53.7314C55.6674 54.0918 54.6738 54.88 54.0999 55.766C51.5086 57.2515 49.9545 59.6971 49.0348 61.8765C47.7627 64.8981 48.4944 68.3543 50.8574 70.4764C51.4448 71.0053 52.1195 71.4904 52.8646 71.9182C54.9356 73.114 57.255 73.7103 59.5778 73.7103C61.9005 73.7103 64.2199 73.114 66.2909 71.9182C67.036 71.4904 67.7107 71.0053 68.2981 70.4764C70.6611 68.3576 71.3962 64.9015 70.1241 61.8765C69.2044 59.6937 67.6503 57.2481 65.0557 55.7626C64.4851 54.8733 63.4882 54.0884 61.7864 53.728C61.6756 48.8975 62.0348 29.6024 74.585 28.1506C75.8068 28.5279 76.995 28.986 78.1362 29.5249C78.2268 29.5687 78.3175 29.6125 78.4081 29.6563C84.6748 32.6948 89.5821 38.0743 91.7941 44.6194L95.3151 55.0451L95.3185 55.0485ZM88.3032 36.2924C88.169 36.1239 88.0314 35.9589 87.8937 35.7938C89.3572 35.4839 90.5991 35.0325 91.5893 34.443C93.996 33.0114 94.1907 30.4446 93.3549 28.666C92.5258 26.9042 90.5454 25.5366 88.0045 26.4596C85.863 27.231 84.0807 29.3767 82.8891 31.1924C81.5331 30.2222 80.083 29.3666 78.5524 28.6525C79.9454 24.9572 83.6108 17.6306 90.2668 19.5136C94.0832 20.5915 96.8155 24.1521 96.9061 28.1708C97.0135 32.8699 94.1235 35.6018 88.3099 36.2957L88.3032 36.2924Z" fill="#232343"/>
<path d="M44.4764 59.6344L37.9592 61.8916L38.2713 62.7991L44.7885 60.5419L44.4764 59.6344Z" fill="#232343"/>
<path d="M45.2997 62.8L41.3514 66.8547L42.0356 67.5257L45.9839 63.471L45.2997 62.8Z" fill="#232343"/>
<path d="M74.688 59.6391L74.3759 60.5466L80.8931 62.8038L81.2052 61.8963L74.688 59.6391Z" fill="#232343"/>
<path d="M73.8613 62.8014L73.1771 63.4724L77.1254 67.5271L77.8095 66.8561L73.8613 62.8014Z" fill="#232343"/>
<path d="M50.2599 53.6404C51.6395 52.4412 52.4316 50.6895 52.4719 48.857C52.5021 47.4591 52.3813 46.2868 52.1698 45.3032C51.1931 40.7826 45.3459 39.6373 42.8151 43.5044C41.8148 45.0337 41.2845 46.7854 41.0227 47.9172C40.8179 48.8065 40.7407 49.7261 40.8649 50.6289C40.8817 50.7468 40.8985 50.8613 40.9186 50.9725C41.6034 54.6678 45.8326 56.4329 49.0549 54.5196C49.5114 54.2467 49.9109 53.9402 50.2599 53.6404Z" fill="#232343"/>
<path d="M78.247 50.9759C78.2671 50.8648 78.2872 50.7502 78.3007 50.6323C78.4249 49.7262 78.3477 48.8099 78.1429 47.9206C77.8811 46.7888 77.3541 45.0372 76.3505 43.5078C73.8197 39.6407 67.9692 40.7827 66.9958 45.3066C66.7843 46.2903 66.6635 47.4625 66.6937 48.8605C66.734 50.693 67.5228 52.4446 68.9057 53.6438C69.2547 53.947 69.6542 54.2535 70.1107 54.523C73.333 56.4397 77.5656 54.6712 78.247 50.9759Z" fill="#232343"/>
<path d="M52.7036 65.1103L53.2943 65.5381C56.0937 67.566 59.1213 65.4741 59.5845 65.1305C59.9 65.3663 61.4071 66.4105 63.223 66.4105C64.0689 66.4105 64.9852 66.1815 65.8747 65.5381L66.4655 65.1103L65.7874 65.3697C65.7505 65.3831 61.9777 66.771 59.6684 63.3182L59.6382 63.2744H59.5375L59.5107 63.3182C57.2013 66.771 53.4286 65.3831 53.3916 65.3697L52.7136 65.1103H52.7036Z" fill="#232343"/>
<path d="M57.8626 115.022C58.0304 115.191 58.3056 115.191 58.4735 115.022L59.5811 113.911L60.6888 115.022C60.8566 115.191 61.1319 115.191 61.2997 115.022C61.4675 114.854 61.4675 114.578 61.2997 114.409L60.192 113.298L61.2997 112.186C61.4675 112.018 61.4675 111.741 61.2997 111.573C61.1319 111.404 60.8566 111.404 60.6888 111.573L59.5811 112.684L58.4735 111.573C58.3056 111.404 58.0304 111.404 57.8626 111.573C57.6947 111.741 57.6947 112.018 57.8626 112.186L58.9702 113.298L57.8626 114.409C57.6947 114.578 57.6947 114.854 57.8626 115.022Z" fill="#232343"/>
<path d="M48.9945 47.1053C50.1198 47.1053 51.032 46.1898 51.032 45.0606C51.032 43.9313 50.1198 43.0159 48.9945 43.0159C47.8693 43.0159 46.9571 43.9313 46.9571 45.0606C46.9571 46.1898 47.8693 47.1053 48.9945 47.1053Z" fill="white"/>
<path d="M70.1711 47.1053C71.2963 47.1053 72.2085 46.1898 72.2085 45.0606C72.2085 43.9313 71.2963 43.0159 70.1711 43.0159C69.0459 43.0159 68.1337 43.9313 68.1337 45.0606C68.1337 46.1898 69.0459 47.1053 70.1711 47.1053Z" fill="white"/>
</g>
<defs>
<clipPath id="clip0_65_9417">
<rect width="118" height="139" fill="white" transform="translate(0.582825 0.218506)"/>
</clipPath>
</defs>
</svg>
