<svg width="115" height="138" viewBox="0 0 115 138" fill="none" xmlns="http://www.w3.org/2000/svg">
<path fill-rule="evenodd" clip-rule="evenodd" d="M76.8313 117.936L77.6919 118.132L76.9941 119.105C76.9565 119.139 76.3769 119.739 76.3393 119.775L77.4968 119.587L76.1246 120.813C75.1692 121.395 74.4447 121.615 73.3175 121.495L72.6627 121.425L72.6788 120.766C72.6842 120.514 72.5858 120.242 72.5178 120C72.2154 118.919 72.4838 118.158 73.1762 117.29L73.237 117.215L73.9866 116.624L74.2478 117.349C74.586 117.093 75.2551 116.379 75.7024 116.234C75.9868 116.136 76.1246 116.032 76.4627 116.062L77.0943 116.12L77.1122 116.755C77.1211 117.058 77.0102 117.498 76.8277 117.935L76.8313 117.936Z" fill="#000001"/>
<path fill-rule="evenodd" clip-rule="evenodd" d="M75.7542 120.202C74.9312 120.704 74.3623 120.888 73.3944 120.784C73.4176 119.776 72.541 119.236 73.7361 117.736L73.8148 117.679V118.778C74.5877 117.976 74.4374 117.392 75.9242 116.912C76.0655 116.866 76.2301 116.757 76.4001 116.773C76.4144 117.253 75.7649 118.713 75.366 118.778C75.6075 118.694 76.4323 118.649 76.7561 118.649C76.6398 118.704 75.5628 119.982 74.9724 120.104C74.942 120.111 74.9348 120.136 74.9133 120.168C74.9974 120.168 75.7435 120.202 75.7542 120.201V120.202Z" fill="white"/>
<path fill-rule="evenodd" clip-rule="evenodd" d="M59.375 117.777C59.4752 117.466 59.536 117.104 59.5951 116.782C59.6881 116.275 59.774 115.769 59.8795 115.264L60.1729 113.844L61.1212 114.942C61.878 115.817 62.6652 116.676 63.4577 117.519C64.007 118.103 64.5652 118.681 65.1377 119.241C65.508 119.603 65.9356 120.027 66.3543 120.331C66.9035 120.732 67.4456 121.167 68.0092 121.545C68.2775 121.726 68.6228 121.942 68.952 121.987C69.3778 122.046 69.8663 121.806 70.2277 121.608C71.1777 121.085 72.0829 120.57 72.9507 119.916C73.2065 119.725 73.491 119.47 73.7718 119.311L74.8382 118.706L74.1923 120.33C73.5733 121.889 72.1474 122.852 70.7179 123.675C68.3777 125.023 66.9787 123.924 65.0554 122.53C64.4417 122.084 64.066 121.66 63.5597 121.123C63.2037 120.745 62.8834 120.51 62.4129 120.283C62.259 120.208 62.073 120.081 61.9245 119.99C61.6203 119.803 61.318 119.617 61.0138 119.431C60.7133 119.247 60.4109 119.061 60.1103 118.874C59.9618 118.783 59.7418 118.661 59.6058 118.552L59.2247 118.244L59.375 117.777Z" fill="#000001"/>
<path fill-rule="evenodd" clip-rule="evenodd" d="M36.3048 98.2267C33.2239 98.062 30.1431 97.9278 27.0641 97.7112C24.2964 97.5179 21.4839 97.278 18.743 96.8395C18.4854 96.8126 18.2385 96.7285 18.0184 96.5889C16.2919 95.4952 17.3457 92.1962 18.0721 90.7964C18.285 90.3865 18.5301 89.9909 18.8092 89.6222C19.2708 89.0118 19.8236 88.4354 20.6269 88.3549C21.3283 88.2833 22.1351 88.6753 22.8472 88.797C25.5809 89.266 28.3415 89.9945 31.0323 90.6729C33.4028 91.2708 35.8217 91.9098 38.2298 92.3788C38.4588 91.6896 38.6735 90.9969 38.8667 90.2952L39.3033 88.7164L40.4608 89.8728C40.8437 90.2272 42.8582 90.5745 43.386 90.6586C45.2932 90.9593 47.2594 91.1222 49.1844 91.2547C51.0344 91.3836 52.8879 91.4748 54.7414 91.55C55.9383 91.5983 57.1406 91.6306 58.3375 91.6896L59.1246 91.729L59.2356 92.5094C59.3858 93.5745 59.6095 94.6288 59.8725 95.6724C61.8298 95.948 63.8031 96.1575 65.7658 96.3759C68.5245 96.6819 71.3656 96.9665 74.0904 97.4821C74.8007 97.6163 75.6934 97.5322 76.3268 97.8437C77.0514 98.2017 77.368 98.9338 77.5863 99.6677C77.7187 100.112 77.8099 100.568 77.8672 101.028C78.0586 102.594 77.8922 106.051 75.8938 106.471C75.638 106.525 75.3786 106.516 75.1263 106.452C72.4051 105.904 69.6857 105.143 67.0235 104.357C65.3525 103.863 63.6868 103.346 62.0248 102.823C63.7638 108.435 65.1199 114.011 63.2736 119.898L63.2235 120.056L63.1233 120.188C62.9175 120.46 62.5812 120.659 62.2234 120.811C62.5418 121.912 62.8764 123.006 63.2199 124.099C63.719 125.685 64.025 127.318 64.322 128.95C64.5903 130.42 64.8515 131.929 65.3042 133.354C65.3865 133.613 65.5117 133.88 65.6012 134.143C65.8481 134.868 65.9804 135.826 65.2505 136.27C64.9911 136.509 64.6905 136.701 64.3721 136.851C62.5704 137.702 59.2624 137.542 57.4536 136.762L57.221 136.662L57.069 136.459C56.8113 136.117 56.7666 135.418 56.7219 134.997C56.6378 134.218 56.5716 133.434 56.5054 132.652C56.314 130.37 56.1369 128.087 55.9311 125.807C55.8166 124.533 55.6932 123.258 55.5518 121.987C55.0885 122.018 54.6233 122.037 54.1653 122.03C50.4171 121.982 46.5992 121.898 42.8671 121.427C42.9566 122.188 43.055 122.947 43.1552 123.706C43.4164 125.657 43.7098 127.61 43.9263 129.566C44.0712 130.882 44.2644 132.668 44.0426 133.973L44.0032 134.206L43.8601 134.394C42.9155 135.629 41.3357 136.135 39.8364 136.212C38.2549 136.293 35.3046 135.833 34.7303 134.05L34.6802 133.892L34.6856 133.726C34.6946 133.459 34.8234 132.98 34.8735 132.702C34.9075 132.516 34.9415 132.326 34.9647 132.138C35.4549 127.975 35.7108 123.806 35.9129 119.623C35.8253 119.572 35.7394 119.521 35.6535 119.465C34.521 118.729 34.2205 117.131 34.1221 115.885C33.9968 114.294 34.131 112.591 34.3063 111.007C34.453 109.688 34.6481 108.374 34.852 107.062C34.9951 106.147 35.1633 105.21 35.2617 104.291C35.48 102.236 35.7913 100.219 36.3012 98.2285L36.3048 98.2267Z" fill="#000001"/>
<path fill-rule="evenodd" clip-rule="evenodd" d="M60.0568 117.997C60.2357 117.446 60.3519 116.513 60.5792 115.409C61.9031 116.941 64.8211 120.099 65.9339 120.91C68.9987 123.14 68.8555 123.707 73.4463 120.249C73.6306 120.109 73.9741 119.791 74.153 119.678C73.5179 121.033 71.7539 122.347 70.4478 123.099C68.5389 124.198 67.435 123.371 65.4759 121.951C64.152 120.992 64.1538 120.333 62.7261 119.64C62.6939 119.624 60.1086 118.038 60.0586 117.997H60.0568Z" fill="white"/>
<path fill-rule="evenodd" clip-rule="evenodd" d="M38.8666 93.4705C34.3456 92.665 27.1964 90.5152 22.6861 89.7401C21.0008 89.452 20.693 88.7163 19.5695 90.2002C17.9647 92.3178 17.4512 95.7796 18.8646 95.8924C24.4788 96.7927 32.6621 97.0613 37.5409 97.3387C37.0131 99.1019 36.5516 101.203 36.2134 104.39C35.9111 107.234 33.7373 117.081 36.1741 118.663C36.387 118.801 36.6303 118.931 36.8968 119.055C36.6893 123.446 36.4478 127.722 35.9146 132.251C35.8574 132.743 35.6427 133.729 35.6427 133.758C36.1436 135.315 41.3141 136.158 43.1068 133.814C43.5094 131.46 42.2981 125.358 41.7918 120.317C46.4846 121.024 52.2526 121.053 54.1831 121.078C54.7538 121.085 55.5392 121.042 56.398 120.961C57.1029 126.858 57.5949 135.566 57.8364 135.888C59.2015 136.477 62.2787 136.79 63.9694 135.99C64.2539 135.856 64.499 135.689 64.6904 135.489C65.152 135.312 64.5222 134.037 64.3988 133.647C63.5025 130.826 63.2914 127.497 62.3127 124.389C61.8172 122.816 61.4182 121.486 61.0568 120.195C61.7277 120.013 62.2125 119.814 62.3646 119.613C64.3469 113.293 62.429 107.221 60.5648 101.361C65.1073 102.802 70.9165 104.633 75.3463 105.523C76.7096 105.909 77.4395 102.487 76.6756 99.9414C76.1424 98.1567 75.5967 98.7385 73.9168 98.4199C69.9343 97.6645 63.6384 97.1973 59.112 96.526C58.765 95.2211 58.4769 93.927 58.2944 92.6418C55.6412 92.5111 41.4662 92.2247 39.7898 90.5474C39.4839 91.6555 39.1744 92.5934 38.8684 93.4669L38.8666 93.4705Z" fill="white"/>
<path fill-rule="evenodd" clip-rule="evenodd" d="M109.098 23.1666C112.413 26.1577 112.862 38.6035 112.955 42.8673C113.039 46.7391 112.971 50.6628 112.683 54.5256C112.57 56.0363 112.423 57.5579 112.194 59.0561C112.044 60.0388 111.844 61.1898 111.491 62.0848C111.321 62.5967 111.182 63.1534 111.033 63.6743C110.683 64.9147 110.334 66.1588 109.987 67.4011C108.967 71.0527 107.958 74.7078 106.961 78.3648C105.875 82.3458 104.791 86.3339 103.773 90.3345C102.558 95.1085 102.846 99.6748 97.0122 101.014C91.797 102.209 87.0291 102.65 81.7012 102.129C79.5006 101.914 77.3143 101.563 75.1334 101.202C72.634 100.788 70.14 100.367 67.6282 100.027C65.2021 99.698 62.7618 99.0465 60.4145 98.3573C57.7899 97.5894 55.1922 96.732 52.5765 95.9319C48.9607 94.8256 45.1285 93.7302 41.3625 93.3292C39.2102 93.1001 37.2332 92.5846 35.1436 92.0565C34.1631 91.8095 33.1774 91.5804 32.1898 91.3602C30.8712 91.0649 29.5491 90.7838 28.2269 90.5082C27.7886 90.4169 27.3485 90.3256 26.9084 90.2361C26.776 90.2092 26.5702 90.1734 26.3931 90.1287C19.1795 88.6305 12.5366 86.5093 5.97059 83.1155C1.31716 80.7097 0.182884 75.7622 0.458405 70.9095C0.753605 65.7024 1.60698 60.7387 2.98816 55.7141C4.50711 50.1866 6.54489 44.7773 8.42702 39.3643C9.16233 37.2521 9.9388 35.1417 10.7045 33.0402C11.1625 31.7854 11.6223 30.5306 12.0929 29.2812C12.3881 28.4954 12.6868 27.6631 13.0321 26.8987L13.0912 26.7699L13.1842 26.6624C13.381 26.4369 13.5975 26.0395 13.7478 25.78C14.1002 25.1678 14.433 24.5413 14.7658 23.9184C15.7981 21.9923 16.8268 20.0717 17.9092 18.1743C20.965 12.8132 24.4054 7.59 28.4631 2.93242L28.5203 2.86798L28.5883 2.81427C31.2917 0.659113 39.0241 0.338708 42.3769 0.403148C44.5399 0.444318 46.7423 0.61615 48.8749 0.99921L48.9822 1.0189L49.0824 1.06186C53.2456 2.84112 57.4661 4.47004 61.7349 5.98259C65.7067 7.39132 69.7107 8.69981 73.7236 9.98682C77.7849 11.2899 81.8532 12.5751 85.8984 13.9284C90.2656 15.3908 94.5987 16.9338 98.889 18.611C100.562 19.2644 102.229 19.9482 103.884 20.6498C104.918 21.0884 105.954 21.5359 106.972 22.012C107.611 22.311 108.47 22.6976 109.031 23.1165L109.067 23.1433L109.101 23.1737L109.098 23.1666Z" fill="#000001"/>
<path fill-rule="evenodd" clip-rule="evenodd" d="M29.1823 3.5571C31.7211 1.53261 41.6738 0.675192 48.7049 1.93535C66.5118 9.54285 80.5043 12.4462 98.5384 19.4953C100.168 20.1325 107.237 22.9697 108.459 23.8772C113.035 28.0067 112.59 56.6664 110.591 61.7697C110.463 62.0973 105.113 81.2019 102.848 90.0964C101.607 94.9778 101.973 98.8925 96.7976 100.079C84.723 102.847 79.1857 100.629 67.7552 99.0787C60.2929 98.0673 50.0307 93.2934 41.4627 92.3787C39.2871 92.146 37.575 91.6842 35.3762 91.1293C31.9769 90.2701 26.6204 89.2104 26.5864 89.1925C19.9113 87.8053 13.3721 85.8667 6.40718 82.267C2.12946 80.0563 1.15439 75.4489 1.40844 70.9631C2.08293 59.0954 5.38202 51.019 9.32519 39.6775C9.55419 39.0206 13.17 28.9071 13.8999 27.2889C15.2131 25.7889 20.3889 13.6491 29.1806 3.5571H29.1823Z" fill="white"/>
<path fill-rule="evenodd" clip-rule="evenodd" d="M90.126 15.5036C89.9828 15.568 89.8254 15.6521 89.702 15.7148C89.3083 15.9153 88.9165 16.1247 88.5283 16.3377C87.4513 16.923 86.3832 17.528 85.3187 18.1366C84.2506 18.747 83.1843 19.3646 82.1251 19.9911C81.5652 20.3222 80.9157 20.6784 80.3879 21.0508C77.724 22.9267 75.3302 24.8939 72.99 27.1582C70.9773 29.1058 69.0469 31.1356 67.0323 33.0831L66.6477 33.4555L66.1306 33.323C64.7763 32.974 63.1393 32.104 61.9137 31.422C60.6453 30.7168 59.1943 29.8629 58.0618 28.9554L57.704 28.669V28.2108C57.704 24.1618 57.5269 20.1951 56.9812 16.182C56.3944 11.8734 55.4569 7.57386 54.591 3.31366L54.2707 1.73486L55.8094 2.21101C56.5143 2.42939 57.2192 2.66924 57.9223 2.89836C59.4412 3.39419 60.9601 3.88824 62.4791 4.38228C63.9658 4.86737 65.4544 5.35067 66.9429 5.83397C67.655 6.06488 68.3724 6.31011 69.088 6.52849C69.7214 6.67348 70.3547 6.82564 70.9845 6.98853C73.2924 7.58102 75.5466 8.31492 77.7973 9.09178C82.0088 10.5453 86.1989 12.099 90.3818 13.6294L91.2012 13.9283L90.7522 15.6145L90.1278 15.5071L90.126 15.5036ZM45.5704 25.9572L45.9676 26.3205L45.7994 26.8915C45.6473 27.4071 45.3449 28.0031 45.1052 28.4864C44.7402 29.2239 44.3556 29.9542 43.9638 30.6792C43.5791 31.3916 43.1855 32.1004 42.7812 32.8039C42.511 33.2729 42.2301 33.7705 41.926 34.2162L41.5914 34.7067L41.0046 34.6226C40.2621 34.5152 39.4839 34.3147 38.7575 34.1321C37.6214 33.8439 36.4907 33.5324 35.3618 33.2174C32.4241 32.3976 29.4953 31.5419 26.5612 30.7096C23.6665 29.8862 20.7592 29.0682 17.8376 28.3414C16.7266 28.0658 15.6066 27.7991 14.4831 27.5825C13.8551 27.4625 13.0733 27.3104 12.4328 27.3104H11.5078L11.4792 26.385C11.4541 25.6117 13.0017 22.7262 13.3756 21.9977C14.6995 19.4308 16.1076 16.8908 17.5692 14.3991C19.0435 11.8842 20.6161 9.30299 22.3515 6.95988C22.9634 6.13469 23.6522 5.25044 24.4036 4.54876C24.9958 3.99565 25.8206 3.38705 26.6793 3.67345L26.826 3.72178L26.9495 3.81484C33.0467 8.37755 40.8167 16.3771 43.9065 23.3438C44.1337 23.7823 44.4719 24.2763 44.7402 24.697C44.9853 25.0836 45.2877 25.601 45.5721 25.9607L45.5704 25.9572ZM8.45023 37.1661C10.4791 39.3392 12.5258 41.557 14.6584 43.6298C15.7104 44.6519 16.7731 45.6078 17.9825 46.4419C18.9808 47.1311 20.0471 47.7486 21.083 48.3823C22.9383 49.5189 24.7543 50.7003 26.5523 51.9265C26.5988 51.9569 26.6418 51.9784 26.6919 52.0017C26.9173 52.1055 27.0997 52.2111 27.2983 52.3632L27.5649 52.5691L27.6418 52.8967C27.6955 53.1204 27.7367 53.3477 27.7671 53.5768C27.9478 54.948 27.7259 56.3281 27.4737 57.6742C27.2679 58.7696 27.0085 59.9367 27.0085 61.0519V61.7464L26.3465 61.9594C24.6433 62.509 22.7272 62.7327 20.9453 62.8437C18.8503 62.9761 16.732 62.9582 14.6334 62.8902C12.1089 62.8079 9.59168 62.6396 7.07085 62.4946C6.03496 62.4356 4.99729 62.3783 3.95961 62.3478C3.20282 62.3264 2.42277 62.3121 1.66956 62.3676L0.907428 62.423L0.68556 61.6909C-0.310966 58.3884 2.7967 53.9259 2.7967 50.2904V50.0255L2.93446 49.7982C3.29049 49.2057 3.61967 48.2588 3.8612 47.6054C4.31026 46.39 4.71997 45.1567 5.11357 43.9216C5.52685 42.6238 5.92403 41.3171 6.28185 40.0033C6.41424 39.5164 6.54484 39.0259 6.65756 38.5337C6.71302 38.2938 6.78817 37.9895 6.80607 37.7443L6.9653 35.5677L8.45561 37.1626L8.45023 37.1661ZM7.00107 83.1047C9.33047 82.0271 11.7153 80.7705 13.7388 79.1792C15.052 78.1482 16.0718 77.0491 17.1506 75.789C17.8072 75.0211 18.4584 74.2603 19.1687 73.5425C20.0597 72.6404 21.0151 71.8259 22.0402 71.0777L22.4034 70.811L22.8399 70.9237C23.8096 71.1726 24.756 71.6845 25.6237 72.1767C26.5487 72.703 27.4594 73.2579 28.4183 73.7215C29.032 74.0187 29.6707 74.28 30.3327 74.4501L31.3238 74.706L31 75.6762C30.2164 78.0283 29.2681 80.3302 28.3163 82.6196C27.2948 85.0773 26.2642 87.5296 25.3411 90.0266L24.9904 90.9735L24.0655 90.5708C23.7774 90.4455 23.4053 90.3417 23.1029 90.2468C22.4463 90.041 21.7879 89.844 21.1295 89.6471C19.2921 89.0976 17.4512 88.557 15.6156 88.0003C13.6798 87.4114 11.7297 86.8136 9.82248 86.1405C9.14978 85.9043 8.46277 85.6537 7.81333 85.3601C7.3088 85.131 6.67188 84.8303 6.49118 84.261L6.23533 83.4573L6.99928 83.1029L7.00107 83.1047ZM60.2749 81.27C60.2749 87.7999 63.998 92.8709 65.4884 98.9623L65.7782 100.144H64.5616C62.463 100.144 60.6256 99.877 58.62 99.2791C57.4339 98.9247 56.2692 98.5023 55.0884 98.1335C53.5694 97.6592 52.0505 97.2833 50.4832 96.9987C48.9983 96.7302 47.4865 96.5315 45.9962 96.2827C45.0605 96.1269 44.1212 95.9623 43.1927 95.76C42.5182 95.6132 41.7095 95.4306 41.0797 95.146L39.5733 94.4622L40.9187 93.501C43.3054 91.7916 47.6493 83.3589 48.2504 80.4197L48.3739 79.8129L48.9786 79.6786C50.3956 79.3654 52.0791 79.4406 53.5193 79.573C54.7663 79.6858 56.0026 79.8684 57.2406 80.0599C57.6915 80.1297 58.1423 80.2013 58.5932 80.2604C58.7721 80.2837 59.0637 80.332 59.2408 80.3212L60.2749 80.2335V81.2735V81.27ZM79.0604 89.2014L78.3913 88.4282L79.2698 87.8231C80.2824 87.125 81.1805 86.452 81.9838 85.5194C82.576 84.8303 83.1145 84.1751 83.7622 83.5271L84.1701 83.119L84.7211 83.2908C85.6926 83.5951 86.6372 84.0409 87.5443 84.5027C88.5945 85.0379 89.6268 85.6143 90.6699 86.1674C93.2497 87.535 95.801 88.7056 98.6188 89.5129C99.7244 89.8297 100.581 89.9479 101.719 89.9747C102.973 90.0051 103.966 90.109 105.196 90.424L105.94 90.6155L105.913 91.3835C105.818 94.0291 104.39 96.7713 102.735 98.7779C100.7 101.248 97.4917 103.591 94.1264 103.291C93.4501 103.23 92.7005 103.255 92.0206 103.271C91.0044 103.296 89.9882 103.344 88.9738 103.396C87.9003 103.452 86.8251 103.512 85.7516 103.57C85.0056 103.609 84.2381 103.657 83.492 103.657H82.9481L82.6708 103.188C82.1645 102.331 81.8156 101.155 81.5526 100.197C81.193 98.8907 80.9014 97.5554 80.6259 96.229C80.3056 94.6932 80.0158 93.1502 79.6902 91.6161C79.5864 91.1293 79.2948 89.6382 79.0604 89.2032V89.2014ZM113.543 53.5894C114.443 55.0321 114.136 57.4468 113.857 59.0363C113.433 61.4493 112.713 63.8873 111.999 66.2304C111.386 68.2459 110.733 70.2507 110.144 72.2734C109.904 73.0968 109.674 73.9256 109.48 74.7615C109.344 75.3486 109.212 75.9805 109.169 76.5837L109.044 78.3182L107.648 77.2818C105.203 75.4668 102.465 73.9846 99.8586 72.4094C96.6955 70.4959 93.7614 68.4768 91.0545 65.9368L90.7539 65.654V65.2405C90.7539 64.6892 90.9472 64.0054 91.1028 63.4773C91.3139 62.7578 91.5572 62.0436 91.797 61.3311C91.9956 60.7422 92.7702 58.5638 92.738 58.0232L92.679 57.0119H96.1516C98.0016 57.0119 99.9248 56.6646 101.719 56.2332C103.952 55.698 106.129 54.9856 108.31 54.2714C109.158 53.9939 110.012 53.7093 110.872 53.4712C111.441 53.3119 112.173 53.1186 112.763 53.1365L113.273 53.1526L113.543 53.5858V53.5894ZM103.644 19.1337C103.925 19.2966 104.346 19.463 104.621 19.5848C105.281 19.8747 105.947 20.1558 106.612 20.435C107.333 20.7375 108.056 21.0382 108.775 21.3443C109.128 21.4947 109.781 21.7435 110.083 21.9619C112.683 23.8414 113.656 28.9465 114.025 31.934C114.248 33.7544 114.357 35.6178 114.331 37.4525C114.311 38.8022 114.232 40.3684 113.905 41.6805L113.801 42.0958L113.42 42.2945C112.295 42.8816 110.922 43.3577 109.722 43.7784C107.969 44.3906 106.194 44.9544 104.415 45.4878C102.319 46.1197 100.2 46.7211 98.0749 47.2438C97.2448 47.4479 94.9995 48.0314 94.1836 47.8829L93.5825 47.7737L93.4304 47.1812C93.1388 46.0463 92.4303 44.9795 91.9759 43.8947C91.6091 43.0212 91.3891 42.1352 91.4177 41.1811L91.4266 40.9019L91.5841 40.6709C93.3392 38.1005 95.2857 35.6697 97.0587 33.1136C97.1983 32.9131 97.3378 32.5784 97.4362 32.3546C97.6598 31.848 97.8638 31.3289 98.0642 30.8134C98.6081 29.4083 99.1144 27.9852 99.6153 26.564C100.179 24.9601 100.73 23.3509 101.283 21.7435C101.467 21.2065 101.651 20.6677 101.841 20.1325C101.991 19.7083 102.109 19.191 102.558 18.9708L103.262 18.6271L103.646 19.1301L103.644 19.1337Z" fill="#000001"/>
<path fill-rule="evenodd" clip-rule="evenodd" d="M90.0545 14.5227C76.5379 9.57869 73.6109 8.54407 68.8412 7.45038C68.7536 7.43069 55.5948 3.14184 55.5268 3.12036C57.62 13.42 58.6595 17.9881 58.6595 28.209C60.1766 29.4244 64.415 31.8946 66.3705 32.3976C71.4211 27.5073 73.6592 24.6201 79.8406 20.2704C80.7315 19.6439 89.6913 14.4618 90.0545 14.5245V14.5227ZM12.4311 26.3528C12.3971 25.2859 23.9028 3.75402 26.3753 4.57742C32.2703 8.98977 40.0135 16.9248 43.0443 23.7555C43.1427 23.9792 44.7171 26.4691 44.8817 26.6213C44.5596 27.7185 41.808 32.693 41.1371 33.6757C37.4194 33.1423 16.4816 26.3528 12.4293 26.3528H12.4311ZM1.59632 61.4207C0.719668 58.5137 3.74682 54.1873 3.74682 50.2958C4.76302 48.6096 7.64166 39.3285 7.75258 37.8177C18.5319 49.3579 15.5727 45.5917 26.0121 52.7141C26.2733 52.8931 26.3914 52.8698 26.7116 53.1169C27.3199 55.6783 26.0514 58.494 26.0514 61.0519C19.6697 63.1122 6.25513 61.077 1.59632 61.4171V61.4207ZM24.4466 89.6955C23.1012 89.1102 7.71144 84.9431 7.40193 83.9711C17.9379 79.0969 16.6873 76.1703 22.6039 71.8474C24.7418 72.3969 27.2555 74.6416 30.0948 75.3737C28.6152 79.8165 26.3663 84.4973 24.4466 89.6955ZM64.5617 99.1897C58.8992 99.1897 57.2729 97.26 50.6533 96.059C48.6942 95.7045 43.0461 94.9903 41.4752 94.2761C44.1875 92.334 48.5797 83.5773 49.1862 80.6095C52.3762 79.9024 58.3303 81.3559 59.3215 81.27C59.3215 88.0917 63.1018 93.22 64.5617 99.1879V99.1897ZM104.959 91.3495C104.784 96.2559 99.2325 102.788 94.2123 102.338C92.1585 102.154 85.2651 102.7 83.4921 102.7C81.8855 99.9844 80.6009 89.5219 79.8101 88.609C82.7693 86.572 82.4991 86.1406 84.4367 84.2002C87.7734 85.2402 91.8883 88.5732 98.3559 90.4294C101.449 91.3172 101.909 90.5654 104.959 91.3477V91.3495ZM108.217 76.5175C108.556 71.817 114.91 57.5847 112.735 54.0942C110.754 54.0298 102.428 57.9678 96.1553 57.9678H93.6935C93.7651 59.1867 91.7112 63.9106 91.7112 65.2423C97.4936 70.6696 103.478 72.9948 108.219 76.5175H108.217ZM112.98 41.4496C113.955 37.5438 113.279 25.4506 109.525 22.737C109.175 22.4828 103.197 20.1236 102.975 19.8318C102.857 19.8891 98.8604 32.19 97.8388 33.6631C96.0283 36.2729 94.1229 38.6447 92.3678 41.2152C92.2998 43.4383 93.8366 44.9437 94.3501 46.9467C95.7295 47.1973 109.767 43.1269 112.976 41.4496H112.98Z" fill="white"/>
<path fill-rule="evenodd" clip-rule="evenodd" d="M89.4891 31.2002C90.0312 31.1179 90.8845 30.776 91.3247 30.6059C92.4214 30.1817 93.5038 29.7181 94.6005 29.2921C95.1211 29.0898 95.6453 28.8947 96.1749 28.7139C97.4273 28.2879 99.0911 27.5486 100.388 28.1321C101.209 28.5009 101.639 29.2598 101.846 30.1029C102.106 31.1608 102.167 32.3547 102.186 33.4431C102.21 34.7874 102.129 36.1137 102.129 37.4509C102.129 39.0261 101.979 40.6299 101.791 42.1926C101.553 44.158 101.236 46.1163 100.884 48.0638C100.059 52.6283 99.041 57.1767 97.9604 61.6875C96.0443 69.6942 93.8938 77.6471 91.6646 85.5715C90.686 89.0512 87.2044 92.2249 83.7335 93.0966C82.6672 93.3651 81.236 93.3794 80.1393 93.4063C77.3805 93.4761 74.6038 93.4582 71.8432 93.4582C67.8947 93.4582 63.9998 93.2953 60.0871 92.7315C56.7325 92.2482 53.4317 91.4928 50.1451 90.673C41.5378 88.5285 33.1344 85.6216 24.6577 83.0225C18.4799 81.1287 14.6351 77.8762 12.5151 71.6882C11.5221 68.7884 11.2752 66.9948 11.3539 63.9339C11.4488 60.2483 12.3594 56.2495 13.2969 52.6927C14.4741 48.2303 15.9179 43.8143 17.4047 39.4449C17.8448 38.1526 18.2903 36.862 18.7393 35.5714C19.4854 33.4234 20.4604 31.2342 21.3979 29.165C22.8059 26.0557 24.3195 22.9769 25.944 19.9751C26.1712 19.5545 26.402 19.1356 26.6346 18.7185C27.3019 17.521 28.0015 16.3378 28.7261 15.1743C29.6063 13.7602 30.5259 12.3622 31.5009 11.0126C32.3204 9.87414 33.2006 8.72496 34.1595 7.70108C35.0344 6.7667 36.2939 5.46717 37.6948 5.60142C38.8237 5.70882 39.5644 6.65929 40.0779 7.57935C40.9491 9.14023 43.5022 13.796 44.0049 16.1087C51.0271 18.2997 58.0475 20.4978 65.0411 22.7765C73.2405 25.4471 81.3898 28.2413 89.4891 31.2002Z" fill="#000001"/>
<path fill-rule="evenodd" clip-rule="evenodd" d="M12.3076 63.957C12.4883 56.9617 16.1005 46.0695 19.6393 35.8844C20.5875 33.1564 23.7578 25.8318 27.4666 19.1837C29.66 15.2475 32.6317 10.7242 34.8538 8.35421C36.7377 6.34404 37.9328 5.69783 39.2424 8.04452C40.756 10.7528 43.2392 15.6073 43.1337 16.837C59.3983 21.9117 72.9883 26.1826 89.3639 32.1701C90.6037 32.1129 93.6953 30.5645 96.4809 29.6176C98.4256 28.9535 100.358 28.0478 100.918 30.33C101.424 32.3975 101.172 35.9023 101.172 37.4506C101.172 47.9633 93.4001 75.873 90.7432 85.3117C89.8183 88.6035 86.4798 91.4209 83.4992 92.1692C82.2755 92.477 79.5811 92.5021 71.8415 92.5021C63.1143 92.5021 58.3625 91.736 50.3741 89.7455C41.8795 87.6279 34.5621 85.0611 24.9368 82.1094C18.9809 80.2835 15.4152 77.2137 13.4168 71.3783C12.4382 68.5233 12.2271 67.0035 12.3076 63.9587V63.957Z" fill="white"/>
<path fill-rule="evenodd" clip-rule="evenodd" d="M63.9086 32.2616L65.1073 37.8679L65.1109 37.8983C65.3667 39.989 65.4651 41.9992 65.5331 44.0989C65.5904 45.8513 65.6923 47.5464 65.9214 49.2881C66.2505 51.8048 66.5529 54.3234 66.6352 56.8634C66.7121 59.2817 66.6495 61.7286 66.6495 64.1504V66.2662C66.6495 69.9053 65.1503 73.3779 62.1374 75.5134C60.309 76.8111 58.1209 77.4466 55.8845 77.409C52.4727 77.3499 47.669 76.1309 44.5542 74.7365C42.5916 73.8576 40.6468 72.7102 39.3945 70.9095C38.1439 69.1141 37.8183 67.0162 37.9095 64.87C37.9417 64.1129 37.956 63.3557 37.9829 62.5985C38.0026 62.049 38.0312 61.4995 38.1206 60.9553C38.3317 59.654 38.9221 58.3723 39.4696 57.1838C40.6504 54.6258 42.0191 52.1181 43.411 49.6693C45.642 45.7403 48.0107 41.8989 50.4153 38.0755C51.4816 36.3786 52.4602 34.6011 53.5999 32.9543C54.4729 31.6924 55.6699 30.1744 57.1709 29.6571C58.6737 29.1398 60.4718 28.8839 61.9639 29.5766C63.0481 30.0796 63.8281 31.0551 63.9086 32.2616Z" fill="#000001"/>
<path fill-rule="evenodd" clip-rule="evenodd" d="M63.1966 32.3582C63.1161 30.6487 61.1159 29.0556 57.4035 30.3337C55.1063 31.1231 53.251 34.9089 51.02 38.4549C49.1862 41.369 43.1319 50.9563 40.1191 57.4826C38.4964 61 38.7844 61.1002 38.6234 64.9004C38.4159 69.8265 40.6236 72.1928 44.8459 74.0831C47.7907 75.4023 52.6016 76.6356 55.8971 76.6929C61.4773 76.7896 65.9321 72.4506 65.9321 66.2661V64.1486C65.9321 57.2714 66.1289 56.3818 65.2111 49.3793C64.6154 44.8434 64.9982 42.8619 64.3989 37.9841L63.1948 32.3564L63.1966 32.3582Z" fill="white"/>
<path fill-rule="evenodd" clip-rule="evenodd" d="M61.7975 47.1489C63.3594 49.6066 59.5433 51.6239 57.8508 51.6239C56.8471 51.6239 54.9453 51.4467 54.405 51.0655C52.3046 49.5744 50.5817 49.1681 50.435 45.6543C50.3491 43.5994 51.7661 43.5009 52.5193 43.7587C55.4266 44.7557 61.7636 47.0523 61.7975 47.1489Z" fill="#000001"/>
<path fill-rule="evenodd" clip-rule="evenodd" d="M54.7074 48.6455C54.9185 48.3985 55.2906 48.3699 55.5375 48.5811C55.7844 48.7923 55.813 49.1646 55.6019 49.4117C55.16 49.929 54.5821 51.3914 54.1098 52.9505C53.6142 54.5847 53.2493 56.2852 53.2886 57.0925C53.3047 57.4183 53.0525 57.694 52.7286 57.7083C52.403 57.7226 52.1275 57.472 52.1132 57.148C52.0685 56.2119 52.4549 54.3556 52.9845 52.6086C53.4979 50.917 54.1581 49.2899 54.7074 48.6455ZM46.499 59.8581C46.5813 59.543 46.9033 59.3551 47.2182 59.4374C47.5331 59.5198 47.721 59.842 47.6387 60.157C47.3578 61.2221 47.2683 62.2209 47.3524 63.1213C47.4562 64.2167 47.8194 65.1672 48.4133 65.9065C49.0019 66.6386 49.8249 67.1738 50.8555 67.4459C51.5854 67.6374 52.4173 67.7019 53.3441 67.6142H53.3548C54.3084 67.5211 55.1511 66.9966 55.8059 66.2717C56.5716 65.4214 57.0708 64.3062 57.1906 63.2734C57.2282 62.9494 57.5198 62.7167 57.8437 62.7543C58.1675 62.7901 58.4001 63.0837 58.3625 63.4077C58.214 64.6732 57.6093 66.0318 56.6808 67.061C55.847 67.9865 54.7485 68.6577 53.4729 68.7848H53.4532C52.3833 68.8886 51.4119 68.8135 50.5549 68.5879C49.2721 68.2496 48.2398 67.5766 47.4937 66.6475C46.7548 65.7275 46.304 64.5622 46.1788 63.234C46.0804 62.1958 46.1805 61.0574 46.4972 59.8599L46.499 59.8581Z" fill="#000001"/>
<path fill-rule="evenodd" clip-rule="evenodd" d="M80.5937 48.2461C83.1253 48.588 85.1434 50.1614 86.156 52.4956C87.0434 54.5416 87.0649 57.0476 85.9145 58.9987C85.4636 59.7612 84.8536 60.4002 84.1093 60.8764C81.372 62.6288 78.0317 63.3519 75.205 61.3686C73.135 59.9169 71.8916 57.2677 72.1385 54.7456C72.3209 52.893 73.3497 51.1459 74.7577 49.9538C76.3893 48.5719 78.4772 47.9615 80.5955 48.2479L80.5937 48.2461ZM34.818 50.0612C32.6997 50.3476 30.61 49.7372 28.9801 48.3553C27.5739 47.1632 26.5434 45.4162 26.3609 43.5635C26.114 41.0396 27.3574 38.3922 29.4274 36.9405C32.2542 34.9572 35.5944 35.6803 38.3317 37.4328C39.0796 37.9107 39.6897 38.5515 40.1405 39.3158C41.2909 41.2669 41.2676 43.7711 40.3802 45.8153C39.3676 48.1477 37.3477 49.7211 34.818 50.063V50.0612Z" fill="#000001"/>
<path fill-rule="evenodd" clip-rule="evenodd" d="M80.4989 48.955C76.3106 48.3894 73.1564 51.683 72.8505 54.8137C72.4247 59.1598 77.0262 64.5584 83.7228 60.2714C87.8824 57.6079 86.3957 49.7498 80.4989 48.955ZM34.7213 49.3524C30.533 49.918 27.3807 46.6244 27.0729 43.4937C26.6471 39.1476 31.2487 33.7472 37.9452 38.036C42.1067 40.6995 40.6182 48.5576 34.7213 49.3524Z" fill="white"/>
<path fill-rule="evenodd" clip-rule="evenodd" d="M79.8244 52.528C77.7097 52.2434 76.1156 53.9063 75.96 55.4869C75.7453 57.6815 78.0711 60.4094 81.4525 58.2435C83.5546 56.8992 82.8014 52.929 79.8244 52.528ZM33.9556 46.374C31.8391 46.6604 30.2468 44.9957 30.0929 43.4152C29.8764 41.2206 32.2023 38.4927 35.5837 40.6586C37.6858 42.0046 36.9344 45.9731 33.9556 46.374Z" fill="#000001"/>
<path fill-rule="evenodd" clip-rule="evenodd" d="M4.1421 52.5029C3.99003 52.5029 3.86658 52.3794 3.86658 52.2273C3.86658 52.0751 3.99003 51.9516 4.1421 51.9516C5.78986 51.9516 7.68092 52.136 9.72049 52.3347C12.091 52.5656 14.6673 52.8162 17.317 52.8162H21.4194C21.5715 52.8162 21.6949 52.9397 21.6949 53.0918C21.6949 53.244 21.5715 53.3675 21.4194 53.3675H17.317C14.6566 53.3675 12.0588 53.1151 9.66862 52.8824C7.65052 52.6855 5.78091 52.5029 4.1421 52.5029ZM6.03317 43.5118C5.88109 43.5064 5.76302 43.3793 5.76659 43.2289C5.77196 43.0768 5.899 42.9587 6.04929 42.9622C6.41963 42.9748 8.82237 43.8769 11.1589 44.8274C13.3058 45.7027 15.4205 46.6264 15.8732 46.9486C16.6604 47.3567 18.0469 47.9044 19.3154 48.4074C20.4014 48.837 21.4033 49.2344 21.8935 49.4886C22.0277 49.5584 22.0814 49.7249 22.0098 49.8591C21.94 49.9952 21.7736 50.047 21.6377 49.9772C21.1743 49.7356 20.1849 49.3436 19.1115 48.9194C17.8233 48.4092 16.4135 47.8507 15.6012 47.4283L15.5619 47.4032C15.2059 47.1311 13.1037 46.2147 10.9514 45.3376C8.65956 44.4032 6.33552 43.5207 6.03138 43.51L6.03317 43.5118ZM97.1857 76.5015C97.3199 76.5731 97.37 76.7395 97.2966 76.8738C97.2251 77.008 97.0587 77.0581 96.9245 76.9848C95.4879 76.2133 93.7525 75.4865 91.8775 74.7043C89.6644 73.7789 87.2598 72.7729 84.909 71.5092L81.295 69.5688C81.1608 69.4972 81.1107 69.3307 81.1823 69.1965C81.2539 69.0622 81.4202 69.0121 81.5544 69.0855L85.1684 71.0259C87.496 72.2771 89.8862 73.2777 92.0886 74.1959C93.9761 74.9853 95.724 75.7174 97.1857 76.5015ZM99.9678 72.7013C97.5847 71.7938 95.7956 71.1726 93.9833 70.6231C92.1781 70.0772 90.3335 69.5992 87.8377 68.9799C87.6373 68.9298 85.6336 68.3534 84.0753 67.8862C83.1521 67.6087 82.3953 67.3743 82.3041 67.3259C82.1699 67.2543 82.0035 67.3044 81.9319 67.4387C81.8603 67.5729 81.9104 67.7394 82.0446 67.811C82.1752 67.8808 82.966 68.1296 83.9196 68.416C85.4743 68.8814 87.496 69.4632 87.7071 69.5151C90.1778 70.1291 92.0099 70.6034 93.8258 71.1529C95.6328 71.6989 97.4094 72.3165 99.7746 73.2168C99.9159 73.2705 100.075 73.1989 100.131 73.0575C100.184 72.9161 100.113 72.7568 99.9714 72.7013H99.9678ZM99.7549 67.6786C99.8909 67.7466 99.9463 67.9113 99.8783 68.0491C99.8103 68.1851 99.6458 68.2406 99.508 68.1726C99.2343 68.0366 96.776 67.7143 94.3196 67.453C92.0045 67.206 89.7127 67.0163 89.2708 67.0879L89.2189 67.0914C88.2957 67.0789 86.7947 66.9035 85.4224 66.7442C84.2738 66.6099 83.2165 66.4864 82.703 66.4793C82.5509 66.4793 82.4293 66.3522 82.4311 66.2018C82.4311 66.0497 82.5581 65.9279 82.7084 65.9297C83.2666 65.9369 84.3293 66.0622 85.4833 66.1964C86.8412 66.3539 88.3261 66.5294 89.2082 66.5419C89.752 66.4703 92.0618 66.6583 94.3769 66.9053C96.8852 67.172 99.4239 67.5157 99.7531 67.6786H99.7549Z" fill="#000001"/>
<path fill-rule="evenodd" clip-rule="evenodd" d="M77.6471 69.2715C79.5024 69.5221 80.9874 70.6784 81.7298 72.3897C82.3811 73.8933 82.3936 75.7298 81.5474 77.1618C81.2128 77.7274 80.7602 78.2 80.2091 78.5544C78.2053 79.8361 75.7668 80.3426 73.7039 78.8945C72.185 77.8277 71.2726 75.8891 71.4551 74.0383C71.5875 72.6797 72.3407 71.398 73.3748 70.5245C74.5645 69.5167 76.1049 69.0656 77.6507 69.2733L77.6471 69.2715ZM26.1856 64.3705C24.6398 64.5799 23.0994 64.1288 21.9097 63.1211C20.8774 62.2457 20.1259 60.9641 19.9918 59.6055C19.8093 57.7528 20.7199 55.8143 22.2407 54.7474C24.3035 53.2993 26.7438 53.8059 28.7458 55.0893C29.3004 55.4438 29.7531 55.9181 30.0876 56.4855C30.9321 57.9175 30.9214 59.7523 30.2683 61.2559C29.5259 62.9671 28.0409 64.1217 26.1856 64.3723V64.3705Z" fill="#000001"/>
<path fill-rule="evenodd" clip-rule="evenodd" d="M77.5505 69.9821C74.602 69.5847 72.3782 71.9028 72.1635 74.1081C71.8629 77.1654 75.1066 80.9709 79.8208 77.953C82.7514 76.0771 81.7012 70.5424 77.5505 69.9839V69.9821ZM26.0907 63.6616C23.1405 64.059 20.9221 61.741 20.7056 59.5357C20.405 56.4748 23.6451 52.6728 28.3611 55.6926C31.2917 57.5685 30.2432 63.1014 26.0907 63.6616Z" fill="white"/>
<path fill-rule="evenodd" clip-rule="evenodd" d="M38.6073 16.4434C38.3282 16.4434 33.1291 15.722 32.986 15.6236C32.9895 15.5126 37.0347 7.76904 37.3191 12.3622C37.3639 13.1068 38.6073 15.2154 38.6073 16.4434ZM98.6887 38.3566C97.9945 38.174 95.1462 35.131 92.7167 34.372C94.0352 33.7097 97.6313 32.1453 98.6887 32.1453C98.8819 34.3344 98.6887 36.162 98.6887 38.3548V38.3566Z" fill="white"/>
<path fill-rule="evenodd" clip-rule="evenodd" d="M45.8155 98.1925C47.3487 98.0529 48.8373 98.3429 50.1809 99.1037C54.6375 101.628 56.6055 108.884 56.6055 113.689C56.6055 120.022 43.4968 119.139 39.7773 117.322C37.8773 116.393 36.6571 114.734 36.1955 112.688C35.8073 110.964 35.9773 108.992 36.709 107.377C37.3584 105.941 37.8147 104.556 38.2458 103.047C38.5196 102.091 38.7987 101.01 39.4338 100.224C40.0152 99.5046 40.806 99.1162 41.6755 98.8549C42.9655 98.4664 44.4772 98.3143 45.8155 98.1925Z" fill="#000001"/>
<path fill-rule="evenodd" clip-rule="evenodd" d="M45.8799 98.9051C37.8057 99.6408 40.3981 100.965 37.3602 107.671C36.124 110.399 36.4406 114.893 40.0904 116.676C43.5451 118.364 55.8881 119.159 55.8881 113.687C55.8881 108.578 53.2921 98.2285 45.8799 98.9033V98.9051Z" fill="white"/>
</svg>
