<svg width="758" height="824" viewBox="0 0 758 824" fill="none" xmlns="http://www.w3.org/2000/svg">
<g clip-path="url(#clip0_1513_7060)">
<path d="M126.04 303.63C125.34 303.63 124.66 303.7 124 303.84C124.66 303.71 125.34 303.63 126.04 303.63Z" fill="white"/>
<path d="M99.39 297.31C88.45 306.04 84.67 320.53 83.56 333.89C82.53 346.14 82.96 358.58 83.76 370.89C87.53 370.53 91.34 370.38 95.14 370.39C94.93 361.67 94.7 352.95 94.71 344.24C94.71 334.01 95.45 323.52 99.22 313.89C102.98 304.29 110.5 295.56 119.76 291.59C119.66 291.56 119.57 291.54 119.47 291.53C112.36 290.14 104.93 292.89 99.39 297.31Z" fill="white"/>
<path d="M137.16 467.9C134.78 466.98 132.47 465.93 130.27 464.72C115.36 456.56 108.23 438.18 114.2 422.17C117.21 414.12 122.76 408.29 129.8 403.56C136.61 398.98 142.64 394.59 146.68 388.05C146.65 386.8 146.61 385.54 146.57 384.29C137.27 378.32 125.78 376.43 114.84 375.4C109.64 374.9 104.39 374.51 99.1398 374.37C97.8498 374.33 96.5298 374.3 95.2398 374.3C91.4898 374.3 87.7398 374.44 84.0298 374.78C82.7398 374.89 81.4498 375.04 80.1598 375.22C77.8898 375.51 75.6398 375.89 73.3898 376.38C72.5198 376.7 71.6598 377.05 70.7798 377.39C67.9298 378.5 64.8598 379.39 62.8498 381.82C62.7198 381.99 62.5898 382.15 62.4698 382.33C62.4198 382.41 62.3498 382.49 62.2898 382.55C61.3198 383.84 60.4198 385.15 59.5698 386.49C53.3998 396.23 50.2198 407.55 50.5598 419.35C51.3598 447.17 70.2698 471.27 94.3998 483.56C108.9 490.95 124.89 494.64 141.2 496.06C134.89 487.65 134.34 477.42 137.18 467.89L137.16 467.9Z" fill="white"/>
<path d="M214.26 395.7C213.34 395.7 212.28 396.34 211.51 396.77C209.94 397.61 208.54 398.71 207.35 400.02C207.29 400.08 207.24 400.14 207.18 400.2C208.26 399.67 209.38 399.19 210.5 398.76C211.63 398.35 215.02 397.99 215.73 397.26C216.46 396.51 215.32 395.69 214.27 395.69L214.26 395.7Z" fill="white"/>
<path d="M325.3 287.72C314.31 283.77 300.55 288.45 292.14 295.84C280.44 306.14 275.27 321.84 273.46 336.9C271.75 351.18 272.1 365.75 272.24 380.17C276.2 378.64 280.58 377.95 284.69 377.2C285.21 377.11 285.74 377.02 286.26 376.93C284.46 356.21 283.86 334.74 293.08 315.58C299.45 302.34 311.2 291.31 325.3 287.72Z" fill="white"/>
<path d="M60.2099 136C55.1499 132.48 50.1899 131.24 45.3899 131.57C45.3199 131.71 45.2099 131.86 45.0799 131.99C32.5199 145.19 32.6799 164.24 33.0399 181.28C33.0899 183.79 29.1999 183.78 29.1499 181.28C28.7899 164.58 28.9599 146.47 39.3199 132.77C30.7399 135.59 22.8799 142.61 16.2999 149.26C14.5299 151.04 11.7899 148.3 13.5499 146.51C21.7599 138.2 31.9499 129.47 43.1399 127.8C48.6299 126.99 54.3499 127.88 60.1899 131.34C64.9399 134.17 69.1599 137.94 72.8199 142.29C77.6799 133.08 83.2599 124.1 89.5499 115.7C82.5299 110.81 74.6299 107.42 65.5799 106.52C44.1599 104.42 18.3299 115.62 8.16991 135.21C2.40991 146.33 3.87991 157.17 6.74991 168.9C8.99991 178.06 10.4799 187.38 12.5999 196.58C14.6599 205.48 17.3499 214.44 22.5499 222.05C27.7699 229.69 35.3999 234.94 44.1799 237.53C47.8999 205.8 56.4499 174.71 70.8299 146.12C67.7299 142.23 64.1799 138.77 60.1999 135.99L60.2099 136Z" fill="white"/>
<path d="M337.29 311.88C337.29 305.26 331.93 299.89 325.3 299.89C324.06 299.89 322.86 300.08 321.73 300.43C322.86 300.08 324.05 299.89 325.29 299.89C331.92 299.89 337.28 305.26 337.28 311.88H337.29Z" fill="white"/>
<path d="M438.45 151.4C448.23 156.43 457.27 162.67 463.6 172C464.53 173.37 463.24 174.75 461.92 174.93C459.54 175.24 457.18 175.56 454.81 175.87C461.47 182.76 466.89 190.68 470.91 199.41C471.37 200.42 471.09 202.05 469.74 202.27C468.41 202.49 467.08 202.71 465.74 202.93C471.39 213.99 477.03 225.06 482.67 236.13C483.38 237.5 482.5 238.95 481 239.06C478.87 239.22 476.75 239.38 474.63 239.53C476.99 243.02 479.2 246.61 481.25 250.26C483.58 250.82 485.9 251.32 488.2 251.68C499.14 253.37 510.91 253.46 521.54 249.91C522.83 249.48 524.1 249 525.35 248.46C525.35 248.46 525.38 248.46 525.39 248.44C545.98 239.53 552.14 217.65 556.19 197.5C558.4 186.55 561.38 175.64 563.28 164.65C565.46 152.08 562.05 139.75 553.98 129.87C538.88 111.34 509.12 101.41 486.18 108.65C481.91 110 477.93 111.8 474.2 113.97C473.07 114.62 471.98 115.3 470.89 116.02C457.62 124.81 447.5 138.2 438.45 151.4ZM470.51 182.72C472.96 172.89 476.92 163.48 482.4 154.96C484.73 151.33 487.33 147.71 490.25 144.38C491.15 143.35 492.09 142.35 493.06 141.39C495.82 138.61 498.85 136.12 502.19 134.14C507.97 130.7 514.3 129.43 520.61 130.14C523.58 130.47 526.54 131.25 529.45 132.44C538.84 136.29 546.13 143.58 553.15 150.66C554.92 152.44 552.16 155.2 550.4 153.41C543.8 146.74 536.99 139.77 528.18 136.11C526.89 135.58 525.58 135.13 524.28 134.79C536.24 149.83 536.4 170.07 536.01 188.61C535.95 191.12 532.06 191.12 532.12 188.61C532.52 169.91 532.69 148.96 518.89 134.49C518.7 134.31 518.57 134.11 518.48 133.9C512.77 133.65 507.18 135.29 502.08 138.85C499.53 140.63 497.13 142.66 494.91 144.92C493.93 145.87 492.99 146.89 492.08 147.94C483.29 158.05 477.37 171.32 474.28 183.76C473.68 186.18 469.92 185.15 470.53 182.72H470.51Z" fill="white"/>
<path d="M60.9202 378.28C62.2902 377 63.8802 376.08 65.6302 375.29C66.1502 375.05 66.6902 374.83 67.2402 374.61C67.3202 374.58 67.4002 374.55 67.4802 374.52C68.0702 374.28 68.6802 374.04 69.2802 373.81C69.2002 373.68 69.1102 373.55 69.0302 373.42C61.7502 361.58 57.9602 348.11 56.2302 334.35C52.5602 305.06 55.4002 270.6 69.1702 243.07C69.8702 241.66 70.6102 240.28 71.3702 238.91C74.7302 232.85 78.6702 227.18 83.2402 222.04C82.4602 218.32 82.7902 214.27 84.2302 210.81C86.4802 205.39 90.6902 201.26 95.3702 197.85C100.45 194.17 106.07 190.76 112.48 190.44C113.14 190.41 113.63 190.66 113.93 191.05C119.97 191.99 124.77 196.39 125.56 201.78C141.43 197.41 159.78 200.55 174.91 205.29C182.07 207.55 189.26 209.83 196.67 211.22C205.24 212.82 213.95 212.77 222.57 211.55C239.52 209.16 255.7 203.06 272.31 199.13C286.61 195.74 301.26 193.36 315.94 192.26C316.7 188.87 319.26 186.09 322.32 184.18C334.23 176.71 346.53 184.15 357.67 189.3C363.24 191.88 368.6 194.56 372.35 199.6C375.66 204.04 377.44 209.65 376.66 215.2C376.32 217.66 375.4 219.94 374.08 221.95C377.1 225.8 379.92 229.81 382.51 233.96C389.79 245.61 395.36 258.35 398.91 271.62C402.9 286.53 403.87 301.83 403.53 317.21C403.04 339.2 403.51 365.68 391.7 385.32C398.32 387.99 404.33 391.99 409.11 397.43C419.89 409.67 423.18 426.67 420.61 442.47C419.86 447.06 418.63 451.65 416.86 455.98C422.84 452.04 428.65 447.79 434.26 443.29C434.9 442.77 435.53 442.26 436.16 441.73C437.51 440.63 438.84 439.51 440.16 438.37C466.84 415.43 488.31 386.67 502.35 354.36C516.07 322.78 522.62 288.29 521.69 253.94C511.75 257.04 500.96 257.2 490.71 255.93C488.35 255.64 486.01 255.26 483.69 254.82C486.08 259.44 488.24 264.19 490.16 269.06C490.59 270.12 489.7 271.1 488.8 271.45C487.86 271.83 486.95 272.08 486.03 272.23C489.98 279.81 491.96 288.15 491.84 296.78C491.8 299.29 487.91 299.29 487.95 296.78C488.07 287.72 485.75 279.11 481.08 271.34C480.37 270.17 481.25 268.26 482.75 268.4C483.81 268.51 484.75 268.48 485.69 268.31C483.64 263.32 481.32 258.48 478.75 253.76C477.87 252.14 476.95 250.54 476 248.95C473.95 245.5 471.76 242.12 469.42 238.82C468.49 237.52 469.76 235.99 471.1 235.89C473.37 235.72 475.65 235.56 477.92 235.39C472.32 224.4 466.71 213.41 461.12 202.42C460.6 201.41 460.96 199.77 462.27 199.56L466.34 198.9C462.03 190.25 456.31 182.52 449.26 175.85C447.91 174.57 449.1 172.74 450.64 172.53C453.24 172.19 455.84 171.85 458.43 171.5C452.59 164.06 444.69 158.88 436.26 154.61C435.1 154.02 433.92 153.44 432.74 152.89C429.16 151.19 425.53 149.64 421.96 148.11C419.67 147.13 421.65 143.77 423.93 144.74C427.6 146.31 431.31 147.92 434.93 149.66C444.23 136.13 454.83 122.26 468.29 113.08C429.4 69.7804 371.84 50.8304 314.65 47.8704C312.74 47.7704 310.83 47.6904 308.92 47.6304C307.55 46.2804 306.16 44.9404 304.75 43.6204C298.7 37.9304 292.35 32.5704 285.6 27.7204C262.61 11.1504 233.66 0.110425 204.99 5.32043C199.25 6.36042 193.06 8.28043 189.05 12.7804C184.12 18.3204 187.2 24.6204 192.86 28.0304C196.8 30.4004 201.25 32.0204 205.67 33.5304C207.89 34.2904 210.1 35.0304 212.25 35.8204C213.91 36.4204 215.57 37.0404 217.24 37.6504C213.43 37.5104 209.56 37.4604 205.68 37.5404C197.14 37.7204 188.56 38.5904 180.43 40.7904C171.38 43.2304 149.86 53.8804 158.2 66.0204C158.43 66.3404 158.69 66.6804 158.96 67.0204C159.62 67.8204 160.32 68.5804 161.09 69.2704C168.24 75.9004 179.48 78.0304 189.08 76.7604C190.55 76.5804 191.98 76.3004 193.35 75.9604C194.16 75.7504 194.8 76.0204 195.22 76.4904C193.64 77.6404 192.18 78.9704 190.86 80.4304C186.35 85.4204 183.53 91.9404 183.27 98.7304C183.09 103.59 184.63 113.27 191.17 113.51C194.46 113.63 197.78 110.49 200.13 108.51C202.96 106.09 205.48 103.32 207.71 100.33C209.2 98.3404 212.58 100.3 211.08 102.3C208.25 106.1 205.08 109.54 201.37 112.49C198.57 114.73 195.42 117.23 191.69 117.38C184.53 117.65 180.49 109.86 179.64 103.77C178.5 95.6304 180.86 87.5004 185.52 80.9704C176.49 81.3004 167.39 78.7704 160.06 73.3004C158.91 72.4304 157.79 71.4704 156.78 70.4004C138.5 75.6104 122.06 86.0104 108.38 99.6004C103.54 104.4 99.0302 109.5 94.8202 114.86C94.0202 115.87 93.2502 116.87 92.4802 117.9C85.9902 126.53 80.2802 135.78 75.2702 145.45C74.5902 146.76 73.9302 148.07 73.2802 149.41C61.2102 173.89 53.5902 200.8 49.5202 227.14C48.9402 230.92 48.4302 234.71 47.9702 238.52C47.8202 239.81 47.6802 241.1 47.5402 242.39C42.7502 287.68 47.4302 334.43 60.8402 378.09C60.8702 378.16 60.8902 378.23 60.9002 378.3L60.9202 378.28Z" fill="white"/>
<path d="M354.31 192.01C348.29 189.24 341.77 185.19 335.01 184.78C330.25 184.5 321.9 186.84 319.96 192.01C319.58 193.04 319.44 194.21 319.65 195.47C319.67 195.58 319.69 195.71 319.72 195.81C320.94 201.74 328 204.16 332.67 206.66C342.71 212.05 349.67 224.59 361.73 225.65C361.8 225.65 361.87 225.65 361.94 225.68H361.96C364.64 225.28 367.14 223.95 369.09 221.99C370.03 221.05 370.84 219.96 371.48 218.76C371.48 218.76 371.48 218.76 371.48 218.74C374.24 213.52 372.86 207.18 369.65 202.5C365.97 197.12 360.01 194.65 354.3 192L354.31 192.01Z" fill="white"/>
<path d="M109.86 194.83C109.64 194.86 109.45 194.85 109.26 194.81C101.9 196.56 93.9799 202.66 89.9899 208.33C88.1499 210.94 86.9499 214.65 86.8099 218.23C86.7399 220.02 86.9499 221.79 87.4899 223.37C88.5899 226.65 91.0999 229.14 95.5199 229.52C100.03 229.9 103.5 226.41 106.36 223.39C109.61 219.95 112.77 216.42 115.97 212.94C118.99 209.67 123.05 206 121.56 201.08C120.01 195.95 114.66 194.34 109.85 194.83H109.86Z" fill="white"/>
<path d="M174.17 398.01C173.46 397.63 172.49 397.04 171.66 397.04C170.71 397.04 169.67 397.78 170.33 398.47C170.98 399.13 174.07 399.45 175.09 399.83C176.11 400.22 177.13 400.65 178.11 401.14C178.06 401.08 178.01 401.03 177.95 400.97C176.87 399.77 175.59 398.77 174.17 398V398.01Z" fill="white"/>
<path d="M257.7 555.33C257.27 559.47 256.88 563.62 256.5 567.78C255.41 579.99 254.35 592.13 254.63 604.2C254.66 606.08 254.74 607.96 254.86 609.84C253.57 611.53 252.42 613.33 251.39 615.2C248.93 619.63 247.12 624.46 245.62 629.28C242.1 640.56 239.47 652.15 236.5 663.59C231.9 681.29 227.3 698.98 222.7 716.68C222.68 716.75 222.67 716.82 222.65 716.89V716.91C222.57 717.18 222.4 717.44 222.17 717.7C220.25 719.64 218.48 721.71 216.82 723.87C204.31 740.11 198.02 761.55 182.9 775.25C181.65 776.39 180.35 777.46 178.97 778.49C177.05 778.17 175.12 777.9 173.18 777.69C172.04 777.56 170.9 777.44 169.76 777.37C163.88 776.91 151.8 776.71 151.83 785.47C151.86 793.17 162.2 794.1 167.72 794.3C174.55 794.55 181.45 794.55 188.24 793.71C202.67 791.92 213.97 785.11 224.32 775.18C230.64 769.12 236.78 762.85 242.88 756.55C243.79 755.61 244.69 754.69 245.6 753.75L245.64 753.8C246.52 754.74 247.33 755.75 248.12 756.8C252.22 762.23 255.64 768.72 261.75 771.85C265.37 773.7 270.86 773.83 273.43 770.1C276.25 766.02 273.33 761.06 271.16 757.42C269.21 754.13 267.48 750.96 266.97 747.12C266.42 742.99 267.14 738.84 267.11 734.71C267.11 733.98 267.07 733.25 267.04 732.53C266.96 731.02 266.8 729.52 266.58 728.03C266.41 726.92 266.2 725.82 265.95 724.73C265.57 723.03 265.08 721.36 264.52 719.71C263.3 716.17 261.67 712.74 259.67 709.5C258.35 707.36 261.73 705.41 263.03 707.54C264.53 709.96 265.82 712.49 266.91 715.09C279.24 691.71 294.49 669.9 312.29 650.35C317.14 645.03 323.2 639.98 325.37 632.88C326.81 628.16 327.19 622.96 327.43 617.83C301.8 599.64 278.37 578.76 257.74 555.34L257.7 555.33Z" fill="white"/>
<path d="M510.42 781.3C516.62 778.27 523.09 775.76 529.7 773.79C544.92 769.23 560.73 767.46 576.55 767.68C570.44 761.15 564.7 754.23 558.99 747.39C541.88 726.91 524.33 704.89 515.71 679.45C503.96 678.3 492.27 676.7 480.62 674.79C477.14 674.21 473.65 673.61 470.17 673C473.41 680.1 477.33 686.92 481.63 693.44C490.32 706.63 500.52 718.75 510.68 730.81C515.23 736.22 519.87 741.61 524.8 746.67C526.16 748.07 527.53 749.43 528.94 750.77C527 750.63 525.06 750.53 523.11 750.47C512.46 750.11 501.8 750.71 491.3 752.56C481.22 754.34 471.29 757.23 461.96 761.51C457.59 763.51 452.53 765.67 449.62 769.66C447.88 772.02 446.68 775.7 448.37 778.42C448.5 778.61 448.63 778.8 448.79 778.98C448.92 778.44 449.1 777.9 449.33 777.36C453.63 767.14 466.99 768.53 475.54 765.03C477.87 764.08 478.85 767.85 476.57 768.78C470.5 771.27 463.37 770.83 457.62 774.09C455.06 775.54 452.72 777.86 452.4 780.77C452.32 781.48 452.36 782.21 452.55 782.98C452.7 783.58 452.91 784.13 453.17 784.62C454.05 786.24 455.51 787.27 457.2 787.7C457.24 786.64 457.52 785.63 458.06 784.69C460.22 780.96 466.24 779.55 470.08 778.63C475.44 777.34 480.92 777.11 486.38 777.81C488.83 778.13 488.86 782.03 486.38 781.7C480.36 780.93 474.39 781.29 468.57 783.08C466.05 783.85 461.88 784.9 461.27 787.61C461.14 788.2 461.17 788.87 461.44 789.63C461.67 790.31 462.02 790.87 462.44 791.33C463.08 792.03 463.92 792.49 464.85 792.77C464.88 792.77 464.9 792.77 464.93 792.77C465.48 792.88 466.02 792.98 466.57 793.08C466.57 793.08 466.6 793.08 466.61 793.08C468.92 793.51 471.24 793.85 473.56 794.14C481.07 795.06 488.61 795.32 496.16 795.22C496.34 794.42 496.6 793.65 496.9 792.91C499.37 787.15 505.06 783.92 510.44 781.28L510.42 781.3Z" fill="white"/>
<path d="M722.27 313.53C670.42 278.85 581.2 299.63 570.32 367.62C564.69 402.79 583.93 434.23 606.39 459.48C617.67 472.17 631.13 483.19 641.27 496.85C648.84 507.06 653.88 519.66 652.87 532.14C657.64 539.13 661.41 546.8 663.76 555.22C666.59 565.34 667.34 575.72 666.43 585.98C677.62 576.24 686.45 563.61 690.33 549.2C694.22 534.76 692.53 519.28 687.25 505.41C677.16 478.96 655.88 458.65 639.56 436.11C623.09 413.38 605.18 377.1 627.21 351.95C644.16 332.61 679.13 335.8 698.32 350.01C703.88 354.14 708.85 360 710.34 366.92C711.67 373.1 710.91 379.53 710.91 385.77C710.91 392.01 711.32 399.83 717.31 403.52C724.69 408.06 735.15 403.32 740.84 398.04C752.67 387.01 755.29 369.16 751.68 354.01C747.64 337.14 736.56 323.09 722.29 313.53H722.27Z" fill="white"/>
<path d="M264.3 504.66C265.26 504.14 266.21 503.6 267.14 503.02C267.73 502.65 268.31 502.27 268.9 501.86C270.41 500.82 271.87 499.69 273.26 498.47C280.13 492.43 285.13 484.3 285.83 474.99C286.01 472.51 289.91 472.5 289.72 474.99C289.02 484.27 284.69 492.49 278.37 498.97C288.39 499.89 298.45 500.33 308.52 500.12C328.88 499.69 349.35 496.41 368.54 489.47C374.98 487.14 381.28 484.38 387.17 480.91C390.25 479.11 393.21 477.11 396 474.89C397.65 473.56 399.36 472.29 401.01 470.98C401.03 470.94 401.05 470.9 401.07 470.87C401.17 470.7 401.33 470.57 401.49 470.44C403.34 468.89 405.11 467.23 406.82 465.52C407.98 464.08 409.06 462.57 410.03 460.98C410.25 460.63 410.46 460.27 410.66 459.91C410.97 459.39 411.25 458.85 411.54 458.31C415.63 450.27 417.63 440.95 417.58 431.9C417.58 431 417.55 430.1 417.51 429.2C416.59 410.79 406.14 395.3 389.5 388.66C388.26 388.16 386.97 387.72 385.66 387.31C384.91 387.09 384.14 386.88 383.37 386.68C380.93 386.08 381.98 382.32 384.4 382.92C385.6 383.22 386.78 383.56 387.93 383.93C393.79 374.44 396.38 363.16 397.66 352.03C399.3 337.82 399.82 323.26 399.72 308.97C399.62 294.63 397.8 280.51 393.47 266.82C388.68 251.69 381.2 237.52 371.52 225.02C367.58 228.75 361.98 230.64 356.45 229.21C355.69 229.02 355.26 228.52 355.12 227.94C351.01 226.29 347.4 223.58 343.98 220.51C341.05 217.88 338.28 215.03 335.08 212.71C332.31 210.71 329.22 209.33 326.22 207.74C321.56 205.27 316.84 201.66 315.87 196.14C313.83 196.32 311.85 196.53 309.96 196.72C293.17 198.41 276.64 201.7 260.4 206.25C245.25 210.5 230.04 215.47 214.2 216.25C199.31 216.99 185.4 212.63 171.35 208.25C157.45 203.91 140.29 201.51 125.84 205.73C125.69 205.77 125.54 205.79 125.4 205.81C125.02 207.44 124.27 209.11 123.06 210.75C119.04 216.24 113.81 221.19 109.12 226.14C105.57 229.89 101.3 233.65 95.8102 233.46C90.5102 233.28 86.8402 230.39 84.7902 226.43C84.3002 227 83.8202 227.58 83.3502 228.18C80.8102 231.35 78.5002 234.64 76.4202 238.07C75.5502 239.51 74.7102 240.97 73.9102 242.44C64.4902 259.86 60.3002 279.92 59.2002 299.67C57.8202 324.34 59.4302 351.03 72.9902 372.41C73.0102 372.44 73.0302 372.47 73.0302 372.49C75.3002 372.01 77.5802 371.62 79.8802 371.34C79.8802 371.2 79.8502 371.06 79.8402 370.92C78.7202 354.99 78.0502 338.49 81.1602 322.95C83.8702 309.37 90.9902 295.85 104.13 289.92C111.57 286.54 119.17 286.79 125.78 289.78C127.83 290.7 129.77 291.89 131.6 293.31C133.94 295.14 136.06 297.35 137.92 299.91C147.49 313.12 147.35 331.36 148.47 346.94C149.27 358.08 149.89 369.23 150.32 380.38C150.35 380.98 150.36 381.6 150.39 382.22C150.45 383.9 150.51 385.58 150.57 387.27C150.59 387.89 150.61 388.52 150.63 389.14C149.54 391.1 148.29 392.94 146.89 394.66C144.43 397.7 141.51 400.38 138.15 402.73C129.48 408.81 121.17 413.74 117.58 424.36C114.81 432.53 115.63 441.5 119.82 449.03C124.02 456.61 130.7 461.15 138.5 464.11C139.45 464.47 140.42 464.81 141.4 465.12C141.65 465.2 141.91 465.29 142.16 465.36C159.88 470.97 178.68 473.38 197.25 472.96C216.66 472.52 235.99 468.87 254.2 462.06C271.28 455.68 285.58 445.35 294.93 429.69C292.73 427.84 288.26 424.54 285.35 424.68C284.22 426.28 281.19 425.25 281.88 423.07C283.45 418.13 290.82 422.37 293.58 424.01C294.87 424.77 296.08 425.63 297.24 426.57C298.13 427.3 298.99 428.08 299.79 428.91C302.12 431.3 304.05 434.06 305.52 437.09C306.6 439.33 303.25 441.31 302.15 439.05C300.99 436.65 299.56 434.44 297.81 432.47C293.06 440.26 286.98 447.17 279.76 452.78C270.88 459.69 260.56 464.12 249.97 467.69C230.37 474.28 209.54 477.35 188.87 476.84C178.91 476.6 168.95 475.52 159.17 473.63C153.14 472.46 146.82 471.16 140.79 469.19C139.49 473.52 138.94 478.07 139.62 482.61C140.41 488.02 143.06 492.61 146.65 496.47C147.95 497.86 149.37 499.16 150.88 500.37C150.88 500.37 150.9 500.4 150.92 500.4C171.72 517.12 200.55 515.87 225.82 513.68C227.02 513.57 228.21 513.47 229.39 513.36C229.67 513.34 229.95 513.31 230.23 513.28C240.32 512.34 250.73 510.78 260.1 506.73C261.53 506.12 262.95 505.44 264.33 504.69L264.3 504.66ZM185.37 409.2C185.05 409.79 184.23 409.92 183.6 409.69C182.98 409.47 182.49 408.97 182.02 408.52L181.57 408.1C179.84 406.52 177.79 405.26 175.66 404.27C173.13 403.1 170.16 402.95 167.74 401.71C164.45 400.05 164.72 395.72 167.69 393.84C171.41 391.47 176.45 394.4 179.31 396.88C180.98 398.31 182.37 400.06 183.43 401.98C184.45 403.82 185.19 405.85 185.49 407.93C185.55 408.36 185.59 408.83 185.37 409.21V409.2ZM218.58 400.83C215.91 402.19 212.64 402.35 209.87 403.65C207.53 404.74 205.27 406.13 203.35 407.87C203.19 408.02 203.03 408.18 202.87 408.33C202.35 408.83 201.81 409.38 201.13 409.62C200.44 409.87 199.54 409.73 199.18 409.09C198.94 408.68 198.98 408.15 199.05 407.68C199.39 405.39 200.2 403.17 201.32 401.14C202.48 399.02 204.02 397.11 205.85 395.54C209 392.8 214.54 389.57 218.64 392.19C221.89 394.25 222.19 399 218.58 400.84V400.83ZM228.5 392.94C226.96 386.76 221.76 382.68 215.68 381.32C208.36 379.68 202.19 382.5 195.16 383.74C189.47 384.75 184.02 381.81 178.26 382.46C172.14 383.14 166.68 386.22 162.65 390.84C161.01 392.73 158.26 389.97 159.89 388.08C164.27 383.06 170.25 379.73 176.84 378.75C180.03 378.27 183.18 378.4 186.34 379.02C188.61 379.47 190.87 380.22 193.21 380.09C195.39 379.96 197.52 379.04 199.61 378.47C211.97 375.13 228.6 377.35 232.24 391.9C232.84 394.33 229.09 395.36 228.49 392.93L228.5 392.94ZM290.44 380.18C289.58 380.31 288.73 380.45 287.88 380.59C287.46 380.66 287.04 380.73 286.61 380.8C281.96 381.53 276.64 382.23 272.26 384.35C270.84 385.04 269.54 385.87 268.38 386.9C268.38 385.31 268.38 383.71 268.35 382.1C268.16 362.96 267.17 343.1 271.74 324.51C275.37 309.72 283.42 295.19 297.13 287.6C307.34 281.95 321.61 280.17 331.81 286.62C333.34 287.59 334.79 288.75 336.11 290.1C336.21 290.2 336.29 290.29 336.38 290.39C341.28 295.61 343.13 302.84 344.22 309.73C345.66 318.84 345.91 328.06 346.17 337.27C346.53 350.41 346.9 363.55 347.26 376.7C352.15 377.49 357 378.48 361.82 379.67C364.26 380.26 363.22 384.02 360.79 383.42C356.35 382.33 351.88 381.41 347.38 380.66C346.07 380.44 344.76 380.24 343.46 380.05C338.02 379.25 332.54 378.71 327.05 378.41C322.31 378.16 317.55 378.09 312.78 378.21C305.29 378.41 297.83 379.05 290.43 380.19L290.44 380.18Z" fill="white"/>
<path d="M651.96 537.82C651 536.22 649.97 534.65 648.9 533.14C636.6 515.7 617.96 503.58 599.23 493.55C550.15 467.24 496.57 449.14 441.21 442.39C432.79 449.55 423.86 456.15 414.46 462.09C412.17 466.26 408.35 469.82 404.47 472.53C398.62 478.65 391.3 483.46 383.6 487.31C378.64 489.79 373.51 491.86 368.53 493.63C347.17 501.17 324.36 504.25 301.77 504.08C292.67 504.01 283.58 503.43 274.52 502.51C272.21 504.41 269.73 506.1 267.12 507.57C265.95 508.23 264.77 508.84 263.56 509.4C262.2 510.06 260.79 510.66 259.38 511.2C250.9 514.49 241.75 516 232.66 516.94C239.57 527.03 246.95 536.8 254.79 546.17C255.93 547.53 257.08 548.89 258.25 550.24C265.25 558.39 272.6 566.26 280.29 573.78C294.99 588.19 310.9 601.24 327.6 613.21C328.81 614.09 330.02 614.95 331.25 615.8C334.42 618.05 337.62 620.24 340.84 622.4C342.96 623.82 345.07 625.23 347.21 626.63C349.87 623.31 352.61 620.08 355.44 616.9C342.59 593.64 337.41 566.4 333.86 540.08C333.53 537.62 337.28 536.57 337.61 539.04C341.05 564.57 345.92 591.14 358.18 613.87C358.84 615.07 359.49 616.25 360.19 617.42C359.27 618.43 358.36 619.43 357.47 620.45C355.07 623.18 352.75 625.95 350.47 628.78C349.64 629.81 348.81 630.85 348 631.9C324.16 662.51 307.59 698.58 299.96 736.63C324.18 758.98 351.73 777.52 381.5 791.53C392.57 787.95 403.49 783.17 412.45 776.01C413.46 775.21 414.45 774.37 415.41 773.49C418.04 771.13 420.47 768.5 422.63 765.61C419.03 756.24 413.7 747.48 404.56 743.77C402.65 745.8 401.02 748.07 399.64 750.51C400.38 751.77 401.13 753 401.89 754.24C403.9 753.58 405.99 753.12 408.15 752.83C410.63 752.49 410.59 756.39 408.15 756.72C406.73 756.9 405.34 757.19 404 757.58C402.71 757.95 401.46 758.41 400.26 758.94C399.15 759.44 398.06 760.01 397.02 760.65C395.93 761.31 394.87 762.06 393.85 762.88C393.02 761.88 392.17 760.9 391.3 759.93C380.43 747.67 367.64 736.98 352.79 730.31C351.5 729.73 350.19 729.18 348.86 728.67C345.39 727.3 341.79 726.17 338.1 725.28C335.66 724.69 336.7 720.94 339.13 721.53C343.63 722.61 347.95 724.03 352.12 725.78C356.41 722.06 360.87 718.55 365.43 715.16C388.06 698.42 413.69 684.86 434.61 665.84C435.83 664.74 437.02 663.61 438.21 662.46C440.68 660.08 443.06 657.61 445.37 655.03C449.21 650.73 452.09 646.16 452.82 640.34C453.46 635.23 452.94 629.94 452.58 624.82C451.85 614.23 450.61 603.68 448.85 593.22C445.36 572.42 439.84 552 432.5 532.22C431.63 529.87 435.39 528.86 436.25 531.19C444.7 553.96 450.71 577.58 454.05 601.63C455.45 611.73 456.48 621.92 456.89 632.11C457.27 642.01 455.11 649.75 448.54 657.29C446.69 659.42 444.75 661.47 442.75 663.47C449.74 665.02 456.75 666.49 463.79 667.84C465.29 668.13 466.79 668.41 468.29 668.69C483.58 671.54 498.96 673.86 514.41 675.42C512.77 669.94 511.57 664.29 510.88 658.47C506.68 622.99 522.44 588.26 543.88 560.91C545.43 558.94 548.16 561.71 546.64 563.66C534.59 579.04 524.7 596.37 519.04 615.13C514.11 631.47 512.54 648.87 515.94 665.67C516.64 669.12 517.52 672.5 518.58 675.83C519 677.18 519.45 678.52 519.93 679.84C523.82 690.77 529.41 701.07 535.8 710.77C545.07 724.87 555.96 737.83 566.83 750.72C571.75 756.56 576.74 762.37 582.06 767.84C583.41 769.22 584.77 770.58 586.15 771.92C584.22 771.79 582.27 771.7 580.34 771.64C568.99 771.24 557.61 771.89 546.43 773.85C535.56 775.77 524.85 778.89 514.82 783.52C510.02 785.72 504.19 788.19 501.27 792.87C500.84 793.55 500.47 794.33 500.19 795.15C499.75 796.4 499.53 797.75 499.65 799.02C499.74 799.94 499.99 800.84 500.48 801.64C500.66 801.92 500.86 802.2 501.09 802.44C501.25 801.77 501.47 801.08 501.76 800.4C501.99 799.88 502.24 799.39 502.51 798.93C503.45 797.29 504.65 795.97 506.04 794.91C512.37 790.06 522.49 790.35 529.59 787.42C531.91 786.47 532.91 790.24 530.62 791.17C526.65 792.81 522.25 793.25 518.02 794.15C515.28 794.74 512.62 795.51 510.2 796.94C509.36 797.44 508.54 798.02 507.81 798.68C506.17 800.15 504.92 802.02 504.73 804.2C504.67 804.81 504.7 805.44 504.82 806.08C504.95 806.81 505.18 807.48 505.48 808.07C506.42 809.98 508.15 811.18 510.13 811.64C510.16 810.62 510.39 809.61 510.86 808.67C512.92 804.57 519.26 803.05 523.32 802.03C529.15 800.56 535.15 800.28 541.1 801.06C543.55 801.38 543.58 805.28 541.1 804.95C534.35 804.08 527.63 804.57 521.15 806.72C518.5 807.6 514.57 808.96 514.06 811.59C513.89 812.45 514.1 813.44 514.83 814.62C514.98 814.86 515.15 815.08 515.33 815.29C516.05 816.13 516.97 816.66 518 817C518.06 817 518.11 817 518.17 817.03C518.87 817.17 519.57 817.3 520.27 817.42C522.61 817.85 524.96 818.2 527.31 818.49C547.32 820.97 567.58 819.04 587.65 817.54C598.14 816.75 608.63 816.09 619.15 816.2C627.36 816.28 635.83 816.81 643.84 814.59C664.01 808.97 664.91 786.41 658.33 770.02C651.37 752.68 640.3 736.28 629.47 721.15C621.83 710.46 613.58 700.23 604.78 690.49C603.91 689.52 603.04 688.57 602.15 687.6C603.07 686.68 603.99 685.76 604.9 684.84C622.71 666.84 639.81 647.84 651.13 625.03C655.82 615.58 659.37 605.33 661.29 594.84C661.6 593.06 661.88 591.28 662.11 589.5C664.03 574.42 662.42 559.04 655.81 545.01C654.64 542.53 653.35 540.14 651.94 537.83L651.96 537.82Z" fill="white"/>
<path d="M474.26 183.76C477.35 171.32 483.27 158.05 492.06 147.94C492.97 146.89 493.91 145.88 494.89 144.92C497.11 142.66 499.51 140.62 502.06 138.85C507.16 135.29 512.75 133.65 518.46 133.9C518.55 134.11 518.68 134.31 518.87 134.49C532.67 148.96 532.51 169.91 532.1 188.61C532.04 191.12 535.93 191.12 535.99 188.61C536.38 170.07 536.22 149.82 524.26 134.79C525.56 135.13 526.87 135.58 528.16 136.11C536.97 139.77 543.78 146.75 550.38 153.41C552.15 155.19 554.9 152.44 553.13 150.66C546.11 143.57 538.82 136.29 529.43 132.44C526.52 131.25 523.55 130.47 520.59 130.14C514.27 129.43 507.95 130.7 502.17 134.14C498.83 136.13 495.8 138.61 493.04 141.39C492.07 142.35 491.13 143.35 490.23 144.38C487.32 147.7 484.71 151.33 482.38 154.96C476.9 163.48 472.94 172.89 470.49 182.72C469.89 185.15 473.64 186.18 474.24 183.76H474.26Z" fill="#1D1D1B"/>
<path d="M326.11 374.46C326.37 374.31 326.69 374.22 327.06 374.22C327.52 374.22 327.9 374.35 328.2 374.57C333.26 374.87 338.33 375.37 343.35 376.1C343 363.41 342.64 350.73 342.29 338.04C342.05 329.42 341.9 320.76 340.68 312.21C339.67 305.06 338.09 297.11 332.49 292.03C331.95 291.54 331.39 291.09 330.82 290.66C314.65 292.65 301.57 305.22 295.23 320.24C287.74 337.96 288.43 357.46 290.09 376.31C296.64 375.31 303.25 374.67 309.87 374.4C315.29 374.17 320.7 374.19 326.11 374.45V374.46ZM313.31 311.88C313.31 306.5 316.86 301.94 321.74 300.43C322.87 300.08 324.07 299.89 325.31 299.89C331.94 299.89 337.3 305.26 337.3 311.88C337.3 317.27 333.76 321.82 328.88 323.34C327.75 323.69 326.55 323.88 325.31 323.88C318.69 323.88 313.32 318.51 313.32 311.88H313.31Z" fill="#1D1D1B"/>
<path d="M313.31 311.88C313.31 318.51 318.68 323.88 325.3 323.88C326.54 323.88 327.74 323.69 328.87 323.34C333.75 321.82 337.29 317.27 337.29 311.88C337.29 305.26 331.93 299.89 325.3 299.89C324.06 299.89 322.86 300.08 321.74 300.43C316.86 301.95 313.31 306.5 313.31 311.88Z" fill="white"/>
<path d="M325.3 323.88C318.68 323.88 313.31 318.51 313.31 311.88C313.31 306.5 316.85 301.95 321.74 300.43C316.86 301.95 313.31 306.5 313.31 311.88C313.31 318.51 318.68 323.88 325.3 323.88Z" fill="white"/>
<path d="M327.06 378.4C332.55 378.71 338.03 379.25 343.47 380.04C344.77 380.23 346.08 380.43 347.39 380.65C351.89 381.4 356.36 382.32 360.8 383.41C363.23 384 364.27 380.25 361.83 379.66C357.01 378.48 352.16 377.48 347.27 376.69C346.9 363.54 346.54 350.4 346.18 337.26C345.92 328.06 345.67 318.83 344.23 309.72C343.15 302.83 341.29 295.6 336.39 290.38C336.3 290.28 336.22 290.19 336.12 290.09C334.8 288.73 333.35 287.58 331.82 286.61C321.62 280.16 307.35 281.94 297.14 287.59C283.43 295.17 275.38 309.7 271.75 324.5C267.17 343.09 268.16 362.94 268.36 382.09C268.38 383.7 268.39 385.3 268.39 386.89C269.55 385.86 270.86 385.03 272.27 384.34C276.64 382.22 281.96 381.52 286.62 380.79C287.05 380.72 287.47 380.65 287.89 380.58C288.75 380.44 289.6 380.3 290.45 380.17C297.85 379.03 305.31 378.39 312.8 378.19C317.57 378.07 322.33 378.14 327.07 378.39L327.06 378.4ZM286.26 376.94C285.74 377.03 285.21 377.12 284.69 377.21C280.58 377.95 276.21 378.65 272.24 380.18C272.11 365.76 271.76 351.18 273.46 336.91C275.26 321.85 280.43 306.15 292.14 295.85C300.55 288.47 314.31 283.78 325.3 287.73C311.2 291.33 299.45 302.35 293.08 315.59C283.86 334.76 284.46 356.22 286.26 376.94ZM290.09 376.32C288.44 357.47 287.75 337.97 295.23 320.25C301.57 305.22 314.65 292.66 330.82 290.67C331.39 291.1 331.95 291.55 332.49 292.04C338.09 297.12 339.66 305.07 340.68 312.22C341.9 320.77 342.05 329.44 342.29 338.05C342.64 350.74 343 363.42 343.35 376.11C338.33 375.38 333.26 374.88 328.2 374.58C327.9 374.36 327.53 374.23 327.06 374.23C326.68 374.23 326.37 374.32 326.11 374.47C320.7 374.21 315.29 374.19 309.87 374.42C303.25 374.69 296.64 375.33 290.09 376.33V376.32Z" fill="#1D1D1B"/>
<path d="M199.63 378.48C197.54 379.05 195.4 379.97 193.23 380.1C190.89 380.23 188.63 379.48 186.36 379.03C183.2 378.41 180.05 378.28 176.86 378.76C170.26 379.74 164.29 383.07 159.91 388.09C158.27 389.97 161.02 392.73 162.67 390.85C166.69 386.23 172.15 383.15 178.28 382.47C184.04 381.81 189.49 384.76 195.18 383.75C202.21 382.51 208.38 379.68 215.7 381.33C221.77 382.69 226.98 386.77 228.52 392.95C229.12 395.38 232.88 394.35 232.27 391.92C228.63 377.37 212 375.15 199.64 378.49L199.63 378.48Z" fill="#1D1D1B"/>
<path d="M218.64 392.18C214.55 389.56 209 392.79 205.85 395.53C204.02 397.1 202.48 399.01 201.32 401.13C200.2 403.16 199.39 405.38 199.05 407.67C198.98 408.14 198.95 408.67 199.18 409.08C199.54 409.72 200.44 409.87 201.13 409.61C201.81 409.37 202.35 408.82 202.87 408.32C203.03 408.16 203.19 408 203.35 407.86C205.27 406.12 207.52 404.74 209.87 403.64C212.64 402.35 215.91 402.18 218.58 400.82C222.19 398.98 221.9 394.23 218.64 392.17V392.18ZM215.72 397.27C215.01 398 211.62 398.35 210.49 398.77C209.36 399.2 208.25 399.68 207.17 400.21C207.23 400.15 207.28 400.09 207.34 400.03C208.54 398.72 209.94 397.62 211.5 396.78C212.28 396.35 213.34 395.71 214.25 395.71C215.3 395.71 216.45 396.52 215.71 397.28L215.72 397.27Z" fill="#1D1D1B"/>
<path d="M183.43 401.98C182.37 400.06 180.98 398.31 179.31 396.88C176.45 394.4 171.4 391.46 167.69 393.84C164.72 395.72 164.45 400.05 167.74 401.71C170.16 402.95 173.14 403.1 175.66 404.27C177.79 405.26 179.84 406.52 181.57 408.1L182.02 408.52C182.49 408.98 182.98 409.47 183.6 409.69C184.23 409.92 185.04 409.79 185.37 409.2C185.59 408.82 185.55 408.35 185.49 407.92C185.18 405.84 184.45 403.81 183.43 401.97V401.98ZM175.09 399.83C174.07 399.45 170.98 399.13 170.33 398.47C169.67 397.79 170.71 397.04 171.66 397.04C172.49 397.04 173.46 397.63 174.17 398.01C175.59 398.78 176.86 399.78 177.95 400.98C178.01 401.03 178.05 401.08 178.11 401.15C177.13 400.66 176.12 400.22 175.09 399.84V399.83Z" fill="#1D1D1B"/>
<path d="M98.6602 350.12C98.7702 356.9 98.9102 363.69 99.0502 370.46C105.13 370.62 111.22 371.12 117.23 371.76C127.31 372.84 137.6 374.79 146.39 379.68C145.99 369.27 145.42 358.87 144.68 348.47C143.63 333.67 144.01 316.16 135.55 303.31C133 299.44 129.6 295.98 125.53 293.75C113.48 296.33 104.31 308.64 101.05 320.77C98.4902 330.32 98.5002 340.32 98.6602 350.13V350.12ZM124 303.83C124.66 303.69 125.34 303.62 126.04 303.62C131.63 303.62 136.17 308.15 136.17 313.74C136.17 318.28 133.17 322.13 129.05 323.41C128.1 323.71 127.09 323.87 126.04 323.87C120.45 323.87 115.92 319.33 115.92 313.74C115.92 308.85 119.39 304.77 124 303.82V303.83Z" fill="#1D1D1B"/>
<path d="M657.68 293.17C626.15 294.86 595.83 309.26 578.39 336.27C569.18 350.54 564.71 367.36 565.5 384.32C566.26 400.88 572.01 416.7 580.31 430.92C588.92 445.66 600.06 458.8 611.82 471.1C624.39 484.27 640.1 496.52 646.48 514.19C647.98 518.35 648.92 522.69 649.11 527.06C639.6 515.03 627.1 505.21 613.93 497.32C588.82 482.28 561.54 470.16 533.97 460.39C505.18 450.19 475.41 442.96 445.14 438.99C484.54 404.02 512.15 356.34 521.76 303.64C524.83 286.79 526.11 269.67 525.53 252.58C546.82 244.02 554.81 223 559.23 201.99C560.4 196.46 561.41 190.9 562.56 185.36C563.88 179.02 565.71 172.78 566.9 166.41C569.17 154.31 567.07 142.48 560.36 132.09C547.08 111.52 518.28 99.7598 494.29 102.89C485.88 103.98 478.38 106.88 471.58 110.99C442.81 78.9098 401.63 58.1098 359.05 49.3898C343.07 46.1198 326.81 44.3498 310.52 43.7698C291.88 25.7498 270.46 10.3598 245.11 3.64978C230.43 -0.240216 213.52 -1.70022 198.79 2.75978C189.02 5.70978 177.07 15.6098 185.14 26.4398C187.91 30.1798 192.12 32.4098 196.48 34.1598C192.93 34.5098 189.39 34.9898 185.88 35.6098C175.73 37.4098 165.34 41.1598 158.19 48.8998C154.87 52.4998 152.15 57.1498 152.67 62.2198C152.86 63.9898 153.45 65.6298 154.31 67.1298C129.06 74.7598 108.18 91.7698 91.8502 112.69C87.1102 109.4 81.9502 106.72 76.2402 104.85C54.7502 97.8498 27.2502 106.49 12.1002 122.93C4.86019 130.78 0.0201891 141.19 0.000189109 152.01C-0.0198109 158.11 1.55019 164.05 2.99019 169.94C4.28019 175.14 5.33019 180.4 6.37019 185.67C10.1102 204.79 14.6502 226.33 32.8802 236.96C36.3002 238.96 39.9602 240.43 43.7402 241.47C41.3602 264.35 41.4602 287.51 43.6502 310.27C46.0002 334.6 50.7402 358.57 58.0302 381.81C43.3702 402.82 43.5102 430.49 56.4502 453.15C70.7802 478.27 96.9802 492.49 124.77 497.57C131.35 498.78 137.97 499.58 144.61 500.05C152.89 508.52 164.7 513.62 176.02 516.19C191.72 519.76 207.97 518.88 223.9 517.69C225.34 517.58 226.8 517.46 228.25 517.35C236.28 529.19 244.96 540.53 254.22 551.34C253.64 556.82 253.1 562.3 252.61 567.79C251.39 581.54 250.23 595.2 250.91 608.76C247.7 613.28 245.29 618.38 243.36 623.74C239.35 634.88 236.87 646.62 233.89 658.07C228.94 677.15 223.97 696.24 219.01 715.32C202.39 732.49 196.73 759.54 177.86 774.39C176.39 774.17 174.9 773.97 173.42 773.81C167.63 773.16 161.08 772.39 155.58 774.86C146.11 779.11 145.66 790.9 154.9 795.72C160 798.37 166.19 798.19 171.78 798.27C178.13 798.37 184.46 798.16 190.74 797.23C203.7 795.31 214.47 789.38 224.09 780.66C231.46 773.97 238.45 766.8 245.39 759.59C250.29 765.96 254.34 773.68 262.35 776.32C269.38 778.63 278.25 774.79 278.42 766.65C278.51 762.08 276.08 758.17 273.85 754.38C270.53 748.73 270.63 743.77 270.89 737.42C271.14 731.49 270.36 725.64 268.65 720.05C278.9 700.11 291.23 681.25 305.55 663.97C309.2 659.56 312.97 655.27 316.85 651.08C320.37 647.28 324.28 643.62 326.87 639.08C329.48 634.51 330.17 629.34 330.6 624.18C330.7 622.89 330.8 621.59 330.9 620.3C335.47 623.5 340.08 626.67 344.74 629.75C323.37 657.24 307.71 689.1 299.07 722.89C298.17 726.41 297.36 729.95 296.62 733.5C296.31 734.99 296.01 736.49 295.73 738C296.84 739.05 297.97 740.08 299.1 741.11C322.13 762.03 348.09 779.57 376.04 793.18C377.77 794.03 379.51 794.85 381.27 795.67C383.07 795.1 384.88 794.5 386.67 793.87C396.82 790.3 406.66 785.6 414.92 779.03C415.93 778.23 416.91 777.39 417.88 776.52C420.13 774.5 422.25 772.32 424.18 769.96C425.15 768.77 426.1 767.54 426.98 766.24C426.44 764.73 425.85 763.24 425.22 761.77C421.46 752.93 416.07 744.84 407.66 740.81C406.37 740.19 405.02 739.66 403.58 739.24C402.48 740.27 401.44 741.36 400.47 742.49C399.36 743.79 398.34 745.18 397.41 746.62C396.6 747.89 395.85 749.21 395.19 750.58C395.94 751.9 396.71 753.21 397.51 754.51C397.73 754.9 397.97 755.27 398.18 755.65C396.89 756.24 395.64 756.91 394.44 757.67C383.53 745.32 370.79 734.49 356.01 727.49C372.68 713.4 391.91 702.02 409.82 689.71C419.98 682.73 430.16 675.34 439.25 666.86C447.99 668.78 456.76 670.53 465.55 672.15C474.38 692.72 489 710.93 503.27 728C508.49 734.25 513.73 740.55 519.3 746.51C504.24 746.32 489.2 748.07 474.74 752.51C468.43 754.44 462.25 756.88 456.36 759.87C451.58 762.29 446.73 765.36 444.66 770.56C443.01 774.68 443.4 779.86 447.1 782.74C447.62 783.15 448.17 783.48 448.74 783.75C449.76 788 453.56 791.26 458.04 791.74C458.51 792.7 459.13 793.59 459.88 794.29C460.95 795.3 462.17 795.98 463.48 796.41C463.63 796.45 463.77 796.5 463.92 796.53C464.59 796.73 465.28 796.84 465.98 796.91C466.02 796.93 466.06 796.93 466.1 796.93C475.95 798.69 485.87 799.2 495.82 799.07C496 801.76 497.1 804.32 499.35 806.07C499.9 806.5 500.49 806.87 501.09 807.15C502.15 811.67 506.22 815.16 511.02 815.65C511.51 816.72 512.2 817.68 513.04 818.47C514.16 819.52 515.45 820.21 516.83 820.66C516.94 820.7 517.05 820.73 517.17 820.76C517.94 820.99 518.74 821.13 519.53 821.21H519.58C540.64 824.95 561.97 823.37 583.17 821.74C594.4 820.87 605.66 820.03 616.94 820.04C625.85 820.04 635.01 820.76 643.77 818.6C661.15 814.31 668.46 797.4 665.56 780.7C663.89 771.08 659.32 762.21 654.65 753.74C649.83 744.98 644.62 736.44 639.06 728.13C629.54 713.91 618.99 700.39 607.54 687.7C623.76 671.3 639.38 654.11 650.77 633.98C658.17 620.92 663.63 606.36 665.78 591.46C684.28 576.74 696.94 555.05 696.29 530.65C695.52 501.28 677.21 477.49 659.6 455.57C650.38 444.08 640.95 432.62 633.48 419.87C624.78 405.01 618.01 386.81 622.41 369.48C630.47 337.71 672.46 336.5 695.35 352.66C702.34 357.6 706.75 364.41 707.12 373C707.41 379.72 706.49 386.46 707.42 393.15C708.2 398.81 710.57 404.15 715.72 407.09C722.07 410.71 730.4 408.97 736.57 405.78C749.18 399.22 755.96 384.5 756.97 370.83C758.22 353.63 751.26 336.33 739.89 323.6C719.61 300.93 687.34 291.57 657.68 293.15V293.17ZM474.19 113.97C477.92 111.8 481.9 110 486.17 108.65C509.11 101.42 538.87 111.34 553.97 129.87C562.03 139.76 565.45 152.08 563.27 164.65C561.37 175.64 558.4 186.54 556.18 197.5C552.13 217.65 545.97 239.52 525.38 248.44C525.38 248.44 525.35 248.44 525.34 248.46C524.09 249 522.82 249.48 521.53 249.91C510.9 253.46 499.14 253.37 488.19 251.68C485.88 251.32 483.56 250.82 481.24 250.26C479.18 246.6 476.98 243.02 474.62 239.53C476.74 239.37 478.86 239.21 480.99 239.06C482.49 238.95 483.37 237.49 482.66 236.13C477.03 225.06 471.38 213.99 465.73 202.93C467.07 202.71 468.4 202.49 469.73 202.27C471.09 202.05 471.36 200.42 470.9 199.41C466.88 190.68 461.46 182.76 454.8 175.87C457.17 175.56 459.53 175.24 461.91 174.93C463.23 174.75 464.52 173.36 463.59 172C457.27 162.67 448.22 156.43 438.44 151.4C447.48 138.19 457.61 124.81 470.88 116.02C471.96 115.3 473.06 114.62 474.19 113.97ZM22.5502 222.06C17.3502 214.45 14.6502 205.48 12.6002 196.59C10.4802 187.4 9.00019 178.07 6.75019 168.91C3.88019 157.18 2.41019 146.34 8.17019 135.22C18.3302 115.63 44.1602 104.43 65.5802 106.53C74.6202 107.42 82.5302 110.82 89.5502 115.71C83.2602 124.12 77.6902 133.09 72.8202 142.3C69.1502 137.94 64.9402 134.17 60.1902 131.35C54.3502 127.89 48.6302 126.99 43.1402 127.81C31.9502 129.48 21.7602 138.21 13.5502 146.52C11.7802 148.3 14.5302 151.05 16.3002 149.27C22.8902 142.62 30.7402 135.6 39.3202 132.78C28.9502 146.48 28.7902 164.59 29.1502 181.29C29.2002 183.79 33.1002 183.8 33.0402 181.29C32.6702 164.25 32.5202 145.2 45.0802 132C45.2102 131.87 45.3202 131.72 45.3902 131.58C50.1902 131.26 55.1502 132.5 60.2102 136.01C64.1902 138.79 67.7402 142.25 70.8402 146.14C56.4602 174.73 47.9002 205.82 44.1902 237.55C35.4102 234.96 27.7802 229.71 22.5602 222.07L22.5502 222.06ZM47.5502 242.37C47.6902 241.08 47.8302 239.79 47.9802 238.5C48.4402 234.69 48.9502 230.9 49.5302 227.12C53.6002 200.78 61.2202 173.86 73.2902 149.39C73.9502 148.05 74.6002 146.74 75.2802 145.43C80.2902 135.76 86.0002 126.52 92.4902 117.88C93.2502 116.86 94.0302 115.85 94.8302 114.84C99.0402 109.48 103.55 104.38 108.39 99.5798C122.07 85.9998 138.51 75.5898 156.79 70.3798C157.8 71.4598 158.92 72.4198 160.07 73.2798C167.4 78.7598 176.51 81.2798 185.53 80.9498C180.88 87.4798 178.51 95.5998 179.65 103.75C180.5 109.84 184.54 117.63 191.7 117.36C195.44 117.21 198.58 114.71 201.38 112.47C205.09 109.52 208.26 106.08 211.09 102.28C212.59 100.28 209.21 98.3298 207.72 100.31C205.49 103.3 202.97 106.07 200.14 108.49C197.8 110.48 194.47 113.62 191.18 113.49C184.64 113.24 183.1 103.57 183.28 98.7098C183.54 91.9198 186.37 85.3998 190.87 80.4098C192.18 78.9598 193.64 77.6298 195.23 76.4698C194.81 75.9998 194.16 75.7298 193.36 75.9398C191.99 76.2798 190.56 76.5498 189.09 76.7398C179.49 78.0098 168.24 75.8798 161.1 69.2498C160.33 68.5598 159.62 67.8098 158.97 66.9998C158.7 66.6698 158.44 66.3298 158.21 65.9998C149.86 53.8698 171.38 43.2098 180.44 40.7698C188.58 38.5698 197.16 37.6998 205.69 37.5198C209.57 37.4398 213.44 37.4898 217.25 37.6298C215.59 37.0198 213.93 36.4098 212.26 35.7998C210.12 35.0098 207.9 34.2698 205.68 33.5098C201.25 31.9998 196.81 30.3798 192.87 28.0098C187.21 24.6098 184.12 18.2998 189.06 12.7598C193.07 8.24978 199.26 6.33978 205 5.29978C233.67 0.0897846 262.62 11.1298 285.63 27.6898C292.38 32.5498 298.73 37.9098 304.78 43.5898C306.19 44.9098 307.58 46.2498 308.95 47.5998C310.86 47.6598 312.77 47.7498 314.68 47.8398C371.87 50.8098 429.43 69.7498 468.32 113.05C454.86 122.23 444.26 136.1 434.96 149.63C431.33 147.88 427.62 146.27 423.96 144.71C421.69 143.74 419.7 147.1 421.99 148.08C425.56 149.6 429.19 151.16 432.77 152.86C433.95 153.41 435.13 153.99 436.29 154.58C444.71 158.85 452.61 164.04 458.46 171.47C455.86 171.82 453.26 172.16 450.67 172.5C449.13 172.71 447.94 174.55 449.29 175.82C456.34 182.49 462.06 190.22 466.37 198.87L462.3 199.53C460.99 199.74 460.63 201.38 461.15 202.39C466.75 213.38 472.36 224.37 477.95 235.36C475.68 235.53 473.4 235.69 471.13 235.86C469.79 235.96 468.52 237.49 469.45 238.79C471.79 242.09 473.98 245.47 476.03 248.92C476.97 250.51 477.89 252.11 478.78 253.73C481.34 258.45 483.67 263.29 485.72 268.28C484.78 268.45 483.84 268.48 482.78 268.37C481.28 268.23 480.4 270.14 481.11 271.31C485.78 279.08 488.1 287.69 487.98 296.75C487.94 299.26 491.84 299.26 491.87 296.75C491.99 288.12 490.02 279.78 486.06 272.2C486.99 272.05 487.9 271.8 488.83 271.42C489.72 271.07 490.61 270.09 490.19 269.03C488.27 264.16 486.11 259.41 483.72 254.79C486.04 255.23 488.37 255.61 490.74 255.9C500.98 257.18 511.78 257.01 521.72 253.91C522.65 288.26 516.1 322.75 502.38 354.33C488.35 386.64 466.87 415.41 440.19 438.34C438.87 439.48 437.54 440.6 436.19 441.7C435.56 442.23 434.93 442.74 434.29 443.26C428.68 447.77 422.87 452.01 416.89 455.95C418.67 451.61 419.89 447.03 420.64 442.44C423.21 426.64 419.91 409.64 409.14 397.4C404.36 391.97 398.35 387.96 391.73 385.29C403.55 365.65 403.08 339.17 403.56 317.18C403.9 301.8 402.93 286.49 398.94 271.59C395.39 258.32 389.82 245.58 382.54 233.93C379.95 229.77 377.12 225.77 374.11 221.92C375.43 219.91 376.35 217.63 376.69 215.17C377.47 209.62 375.68 204.02 372.38 199.57C368.63 194.53 363.27 191.86 357.7 189.27C346.56 184.13 334.26 176.68 322.35 184.15C319.29 186.07 316.73 188.84 315.97 192.23C301.28 193.32 286.64 195.7 272.34 199.1C255.73 203.03 239.55 209.13 222.6 211.52C213.98 212.74 205.27 212.79 196.7 211.19C189.3 209.8 182.11 207.52 174.94 205.26C159.81 200.52 141.45 197.38 125.59 201.75C124.8 196.36 120 191.96 113.96 191.02C113.65 190.63 113.16 190.38 112.51 190.41C106.1 190.73 100.48 194.14 95.4002 197.82C90.7102 201.22 86.5002 205.35 84.2602 210.78C82.8302 214.24 82.4902 218.29 83.2702 222.01C78.7002 227.15 74.7602 232.82 71.4002 238.88C70.6302 240.25 69.9002 241.64 69.2002 243.04C55.4302 270.57 52.5902 305.03 56.2602 334.32C57.9802 348.08 61.7802 361.54 69.0602 373.39C69.1402 373.52 69.2302 373.65 69.3102 373.78C68.7102 374.01 68.1002 374.25 67.5102 374.49C67.4302 374.52 67.3502 374.55 67.2702 374.58C66.7202 374.8 66.1902 375.03 65.6602 375.26C63.9102 376.05 62.3302 376.97 60.9502 378.25C60.9502 378.18 60.9202 378.11 60.8902 378.04C47.4702 334.38 42.7902 287.63 47.5902 242.34L47.5502 242.37ZM371.49 218.75C371.49 218.75 371.49 218.75 371.49 218.77C370.85 219.97 370.04 221.06 369.1 222C367.15 223.96 364.65 225.29 361.97 225.69H361.95C361.88 225.67 361.81 225.66 361.74 225.66C349.68 224.6 342.72 212.06 332.68 206.67C328.01 204.16 320.95 201.75 319.73 195.82C319.7 195.71 319.68 195.59 319.66 195.48C319.45 194.21 319.59 193.05 319.97 192.02C321.9 186.85 330.26 184.51 335.02 184.79C341.78 185.19 348.3 189.24 354.32 192.02C360.03 194.66 365.99 197.14 369.67 202.52C372.88 207.21 374.26 213.54 371.5 218.76L371.49 218.75ZM115.98 212.94C112.78 216.42 109.62 219.96 106.37 223.39C103.51 226.41 100.05 229.9 95.5302 229.52C91.1102 229.14 88.6002 226.65 87.5002 223.37C86.9602 221.79 86.7502 220.02 86.8202 218.23C86.9502 214.64 88.1602 210.93 90.0002 208.33C93.9902 202.66 101.91 196.56 109.27 194.81C109.45 194.84 109.65 194.85 109.87 194.83C114.68 194.34 120.03 195.95 121.58 201.08C123.07 206 119.01 209.67 115.99 212.94H115.98ZM94.3902 483.56C70.2602 471.27 51.3402 447.16 50.5502 419.35C50.2102 407.56 53.3902 396.24 59.5602 386.49C60.4102 385.14 61.3102 383.83 62.2802 382.55C62.3402 382.48 62.4102 382.4 62.4602 382.32C62.5802 382.14 62.7102 381.98 62.8402 381.81C64.8502 379.39 67.9202 378.49 70.7702 377.38C71.6502 377.04 72.5102 376.69 73.3802 376.37C75.6302 375.89 77.8902 375.5 80.1502 375.21C81.4402 375.03 82.7202 374.89 84.0202 374.77C87.7402 374.43 91.4802 374.29 95.2302 374.29C96.5202 374.29 97.8402 374.32 99.1302 374.36C104.38 374.5 109.63 374.89 114.83 375.39C125.76 376.42 137.26 378.31 146.56 384.28C146.6 385.53 146.65 386.79 146.67 388.04C142.63 394.58 136.6 398.97 129.79 403.55C122.75 408.27 117.2 414.11 114.19 422.16C108.22 438.17 115.34 456.55 130.26 464.71C132.46 465.92 134.77 466.97 137.15 467.89C134.32 477.42 134.87 487.65 141.17 496.06C124.86 494.64 108.87 490.95 94.3702 483.56H94.3902ZM99.2102 313.89C95.4402 323.52 94.7102 334.01 94.7002 344.24C94.7002 352.95 94.9202 361.67 95.1302 370.39C91.3202 370.39 87.5202 370.53 83.7502 370.89C82.9502 358.58 82.5202 346.13 83.5502 333.89C84.6602 320.53 88.4402 306.04 99.3802 297.31C104.92 292.88 112.34 290.14 119.46 291.53C119.56 291.53 119.65 291.57 119.75 291.59C110.49 295.55 102.97 304.29 99.2102 313.89ZM125.53 293.74C129.61 295.97 133.01 299.44 135.55 303.3C144.01 316.16 143.63 333.66 144.68 348.46C145.41 358.86 145.98 369.26 146.39 379.67C137.61 374.77 127.31 372.83 117.23 371.75C111.22 371.11 105.13 370.61 99.0502 370.45C98.9102 363.68 98.7702 356.89 98.6602 350.11C98.4902 340.3 98.4802 330.31 101.05 320.75C104.3 308.62 113.47 296.31 125.53 293.73V293.74ZM229.35 513.33C228.17 513.44 226.98 513.54 225.78 513.65C200.51 515.84 171.68 517.09 150.88 500.37C150.86 500.37 150.85 500.35 150.84 500.34C149.34 499.13 147.92 497.83 146.61 496.44C143.01 492.58 140.36 487.99 139.58 482.58C138.91 478.04 139.45 473.49 140.75 469.16C146.78 471.13 153.1 472.43 159.13 473.6C168.91 475.49 178.86 476.57 188.83 476.81C209.5 477.32 230.33 474.26 249.93 467.66C260.52 464.09 270.85 459.66 279.72 452.75C286.95 447.13 293.02 440.22 297.77 432.44C299.52 434.41 300.95 436.62 302.11 439.02C303.21 441.28 306.56 439.3 305.48 437.06C304.01 434.03 302.08 431.27 299.75 428.88C298.95 428.05 298.09 427.27 297.2 426.54C296.05 425.6 294.83 424.74 293.54 423.98C290.78 422.34 283.42 418.1 281.84 423.04C281.15 425.22 284.18 426.25 285.31 424.65C288.21 424.51 292.68 427.82 294.89 429.66C285.54 445.32 271.25 455.65 254.16 462.03C235.96 468.84 216.62 472.49 197.21 472.93C178.64 473.35 159.84 470.94 142.12 465.33C141.87 465.26 141.61 465.17 141.36 465.09C140.38 464.77 139.41 464.43 138.46 464.08C130.67 461.11 123.98 456.57 119.78 449C115.59 441.48 114.77 432.5 117.54 424.33C121.14 413.71 129.45 408.78 138.11 402.7C141.47 400.35 144.39 397.66 146.85 394.63C148.26 392.91 149.5 391.07 150.59 389.11C150.57 388.49 150.55 387.86 150.53 387.24C150.48 385.55 150.42 383.87 150.35 382.19C150.32 381.58 150.31 380.96 150.28 380.35C149.85 369.2 149.24 358.04 148.43 346.91C147.31 331.33 147.45 313.09 137.88 299.88C136.03 297.33 133.9 295.11 131.56 293.28C129.73 291.85 127.79 290.66 125.74 289.75C119.13 286.76 111.53 286.51 104.09 289.89C90.9502 295.82 83.8302 309.34 81.1202 322.92C78.0102 338.46 78.6802 354.96 79.8002 370.89C79.8002 371.03 79.8302 371.17 79.8402 371.31C77.5402 371.6 75.2602 371.98 72.9902 372.46C72.9902 372.44 72.9602 372.41 72.9502 372.38C59.3802 351 57.7702 324.31 59.1602 299.64C60.2602 279.9 64.4502 259.84 73.8702 242.41C74.6702 240.94 75.5102 239.49 76.3802 238.04C78.4602 234.61 80.7702 231.31 83.3102 228.15C83.7802 227.55 84.2602 226.97 84.7502 226.4C86.8002 230.36 90.4702 233.26 95.7702 233.43C101.26 233.61 105.53 229.86 109.08 226.11C113.77 221.17 118.99 216.22 123.02 210.72C124.23 209.08 124.98 207.41 125.36 205.78C125.5 205.76 125.65 205.74 125.8 205.7C140.25 201.48 157.41 203.88 171.31 208.22C185.36 212.6 199.27 216.96 214.16 216.22C229.99 215.44 245.21 210.47 260.36 206.22C276.6 201.66 293.14 198.37 309.92 196.69C311.82 196.51 313.8 196.3 315.83 196.11C316.8 201.63 321.52 205.24 326.18 207.71C329.18 209.3 332.27 210.68 335.04 212.68C338.23 215 341.01 217.85 343.94 220.48C347.36 223.55 350.97 226.25 355.08 227.91C355.22 228.49 355.65 228.99 356.41 229.18C361.94 230.61 367.55 228.72 371.48 224.99C381.15 237.48 388.63 251.65 393.43 266.79C397.77 280.48 399.58 294.61 399.68 308.94C399.78 323.23 399.27 337.8 397.62 352C396.34 363.14 393.75 374.41 387.89 383.9C386.74 383.53 385.55 383.19 384.36 382.89C381.94 382.3 380.89 386.05 383.33 386.65C384.1 386.85 384.87 387.06 385.62 387.28C386.93 387.68 388.22 388.13 389.46 388.63C406.1 395.28 416.55 410.76 417.47 429.17C417.51 430.07 417.54 430.97 417.54 431.87C417.59 440.92 415.6 450.24 411.5 458.28C411.22 458.82 410.93 459.36 410.62 459.88C410.42 460.24 410.21 460.6 409.99 460.95C409.02 462.54 407.94 464.05 406.78 465.49C405.07 467.2 403.31 468.86 401.45 470.41C401.29 470.54 401.14 470.67 401.03 470.84C401 470.88 400.99 470.91 400.97 470.95C399.32 472.26 397.61 473.53 395.96 474.86C393.18 477.08 390.21 479.08 387.13 480.88C381.23 484.34 374.94 487.11 368.5 489.44C349.31 496.38 328.84 499.66 308.48 500.09C298.41 500.29 288.34 499.85 278.33 498.94C284.65 492.47 288.98 484.24 289.68 474.96C289.86 472.47 285.97 472.48 285.79 474.96C285.09 484.27 280.09 492.39 273.22 498.44C271.84 499.66 270.38 500.79 268.86 501.83C268.27 502.23 267.69 502.62 267.1 502.99C266.16 503.58 265.22 504.12 264.26 504.63C262.88 505.37 261.46 506.06 260.03 506.67C250.66 510.72 240.24 512.29 230.16 513.22C229.88 513.25 229.6 513.28 229.32 513.3L229.35 513.33ZM325.33 632.88C323.16 639.97 317.1 645.03 312.25 650.35C294.45 669.9 279.2 691.71 266.87 715.09C265.79 712.49 264.49 709.96 262.99 707.54C261.69 705.41 258.31 707.36 259.63 709.5C261.63 712.74 263.26 716.17 264.48 719.71C265.04 721.36 265.53 723.03 265.91 724.73C266.16 725.81 266.37 726.92 266.54 728.03C266.77 729.52 266.92 731.01 267 732.53C267.03 733.25 267.06 733.98 267.07 734.71C267.1 738.85 266.38 742.99 266.93 747.12C267.44 750.97 269.17 754.14 271.12 757.42C273.3 761.07 276.21 766.03 273.39 770.1C270.83 773.83 265.33 773.7 261.71 771.85C255.6 768.72 252.18 762.23 248.08 756.8C247.29 755.75 246.48 754.74 245.6 753.8L245.56 753.75C244.65 754.69 243.75 755.61 242.84 756.55C236.73 762.85 230.59 769.12 224.28 775.18C213.93 785.11 202.63 791.91 188.2 793.71C181.4 794.55 174.51 794.54 167.68 794.3C162.15 794.11 151.81 793.17 151.79 785.47C151.76 776.71 163.84 776.91 169.72 777.37C170.86 777.45 172 777.56 173.14 777.69C175.08 777.9 177.02 778.17 178.93 778.49C180.3 777.47 181.61 776.39 182.86 775.25C197.98 761.55 204.27 740.1 216.78 723.87C218.44 721.71 220.22 719.64 222.13 717.7C222.37 717.45 222.53 717.18 222.61 716.91C222.61 716.91 222.61 716.91 222.61 716.89C222.63 716.82 222.64 716.75 222.66 716.68C227.26 698.98 231.86 681.29 236.46 663.59C239.43 652.16 242.07 640.57 245.58 629.28C247.08 624.46 248.9 619.62 251.35 615.2C252.38 613.33 253.54 611.53 254.82 609.84C254.71 607.96 254.63 606.08 254.59 604.2C254.31 592.13 255.37 579.99 256.46 567.78C256.84 563.62 257.23 559.47 257.66 555.33C278.3 578.76 301.72 599.63 327.35 617.82C327.11 622.95 326.73 628.15 325.29 632.87L325.33 632.88ZM496.88 792.93C496.57 793.67 496.32 794.44 496.14 795.24C488.59 795.34 481.04 795.08 473.54 794.16C471.22 793.87 468.9 793.53 466.59 793.1C466.57 793.1 466.55 793.1 466.55 793.1C466.01 793 465.47 792.91 464.91 792.79C464.88 792.79 464.86 792.79 464.83 792.79C463.9 792.51 463.06 792.05 462.42 791.35C462 790.89 461.65 790.34 461.42 789.65C461.16 788.89 461.12 788.22 461.25 787.63C461.85 784.92 466.03 783.87 468.55 783.1C474.37 781.31 480.34 780.95 486.36 781.72C488.84 782.04 488.81 778.15 486.36 777.83C480.9 777.13 475.43 777.37 470.06 778.65C466.22 779.57 460.2 780.99 458.04 784.71C457.51 785.65 457.23 786.66 457.18 787.72C455.48 787.29 454.02 786.26 453.15 784.64C452.89 784.14 452.68 783.6 452.53 783C452.35 782.23 452.3 781.5 452.38 780.79C452.7 777.89 455.04 775.57 457.6 774.11C463.35 770.85 470.48 771.29 476.55 768.8C478.83 767.86 477.84 764.09 475.52 765.05C466.97 768.55 453.62 767.16 449.31 777.38C449.08 777.92 448.9 778.46 448.77 779C448.61 778.82 448.48 778.63 448.35 778.44C446.66 775.71 447.86 772.04 449.6 769.68C452.51 765.69 457.57 763.53 461.94 761.53C471.26 757.25 481.2 754.37 491.28 752.58C501.79 750.73 512.45 750.13 523.09 750.49C525.03 750.55 526.97 750.65 528.92 750.79C527.51 749.45 526.14 748.09 524.78 746.69C519.86 741.63 515.21 736.24 510.66 730.83C500.5 718.77 490.3 706.65 481.61 693.46C477.31 686.93 473.39 680.12 470.15 673.02C473.63 673.63 477.12 674.24 480.6 674.81C492.24 676.73 503.94 678.32 515.69 679.47C524.31 704.92 541.86 726.93 558.97 747.41C564.68 754.26 570.42 761.18 576.53 767.7C560.71 767.48 544.9 769.26 529.68 773.81C523.07 775.79 516.6 778.3 510.4 781.32C505.02 783.95 499.33 787.18 496.86 792.95L496.88 792.93ZM662.13 589.49C661.9 591.27 661.62 593.06 661.31 594.83C659.39 605.32 655.84 615.57 651.15 625.02C639.83 647.83 622.73 666.82 604.92 684.83C604.01 685.76 603.09 686.68 602.17 687.59C603.06 688.55 603.94 689.51 604.8 690.48C613.6 700.23 621.86 710.45 629.49 721.14C640.32 736.27 651.39 752.67 658.35 770.01C664.94 786.39 664.04 808.95 643.86 814.58C635.86 816.8 627.39 816.27 619.17 816.19C608.65 816.08 598.16 816.74 587.67 817.53C567.6 819.03 547.34 820.96 527.33 818.48C524.98 818.19 522.63 817.84 520.29 817.41C519.59 817.3 518.89 817.16 518.19 817.02C518.13 817 518.08 816.99 518.02 816.99C517 816.66 516.07 816.12 515.35 815.28C515.17 815.07 515 814.84 514.85 814.61C514.12 813.44 513.91 812.44 514.08 811.58C514.6 808.95 518.52 807.59 521.17 806.71C527.65 804.56 534.37 804.07 541.12 804.94C543.6 805.26 543.57 801.36 541.12 801.05C535.17 800.27 529.17 800.55 523.34 802.02C519.28 803.03 512.94 804.56 510.88 808.66C510.41 809.6 510.17 810.6 510.15 811.63C508.16 811.17 506.44 809.97 505.5 808.06C505.19 807.47 504.97 806.81 504.84 806.07C504.73 805.43 504.69 804.8 504.75 804.19C504.94 802.01 506.19 800.14 507.83 798.67C508.56 798.01 509.38 797.43 510.22 796.93C512.64 795.5 515.3 794.73 518.04 794.14C522.27 793.24 526.66 792.8 530.64 791.16C532.92 790.22 531.93 786.45 529.61 787.41C522.51 790.34 512.39 790.04 506.06 794.9C504.67 795.97 503.47 797.28 502.53 798.92C502.26 799.38 502.01 799.86 501.78 800.39C501.48 801.07 501.26 801.76 501.11 802.43C500.87 802.18 500.67 801.91 500.5 801.63C500.01 800.83 499.76 799.93 499.67 799.01C499.56 797.73 499.77 796.39 500.21 795.14C500.5 794.32 500.87 793.54 501.29 792.86C504.21 788.18 510.04 785.71 514.84 783.51C524.87 778.88 535.58 775.76 546.45 773.84C557.64 771.87 569.01 771.22 580.36 771.63C582.29 771.69 584.23 771.78 586.17 771.91C584.79 770.57 583.42 769.22 582.08 767.83C576.76 762.36 571.77 756.55 566.85 750.71C555.99 737.82 545.09 724.86 535.82 710.76C529.43 701.06 523.84 690.75 519.95 679.83C519.47 678.51 519.02 677.17 518.6 675.82C517.54 672.49 516.66 669.1 515.96 665.66C512.56 648.86 514.12 631.46 519.06 615.12C524.72 596.36 534.6 579.03 546.66 563.65C548.18 561.71 545.45 558.93 543.9 560.9C522.45 588.25 506.7 622.98 510.9 658.46C511.59 664.29 512.8 669.93 514.43 675.41C498.98 673.85 483.6 671.54 468.31 668.68C466.81 668.4 465.31 668.12 463.81 667.83C456.78 666.48 449.76 665.01 442.77 663.46C444.77 661.46 446.71 659.4 448.56 657.28C455.13 649.75 457.29 642.01 456.91 632.1C456.5 621.91 455.47 611.72 454.07 601.62C450.73 577.56 444.72 553.95 436.27 531.18C435.4 528.85 431.65 529.86 432.52 532.21C439.86 551.99 445.38 572.41 448.87 593.21C450.63 603.67 451.87 614.22 452.6 624.81C452.96 629.93 453.48 635.22 452.84 640.33C452.1 646.15 449.23 650.71 445.39 655.02C443.09 657.59 440.7 660.07 438.23 662.45C437.05 663.6 435.85 664.72 434.63 665.83C413.71 684.85 388.08 698.41 365.45 715.15C360.88 718.54 356.42 722.05 352.14 725.77C347.97 724.02 343.65 722.59 339.15 721.52C336.72 720.93 335.68 724.69 338.12 725.27C341.81 726.15 345.41 727.29 348.88 728.66C350.21 729.18 351.51 729.73 352.81 730.3C367.65 736.97 380.44 747.65 391.32 759.92C392.19 760.89 393.03 761.87 393.87 762.87C394.88 762.05 395.94 761.3 397.04 760.64C398.08 759.99 399.17 759.42 400.28 758.93C401.49 758.4 402.74 757.93 404.02 757.57C405.36 757.18 406.75 756.9 408.17 756.71C410.61 756.38 410.65 752.48 408.17 752.82C406.01 753.11 403.92 753.57 401.91 754.23C401.15 753 400.41 751.76 399.66 750.5C401.04 748.06 402.68 745.79 404.58 743.76C413.72 747.47 419.05 756.23 422.65 765.6C420.49 768.5 418.07 771.12 415.43 773.48C414.48 774.36 413.49 775.2 412.47 776C403.51 783.16 392.6 787.94 381.52 791.52C351.74 777.51 324.2 758.97 299.98 736.62C307.61 698.58 324.19 662.5 348.02 631.89C348.82 630.84 349.66 629.8 350.49 628.77C352.76 625.94 355.09 623.17 357.49 620.44C358.38 619.43 359.29 618.42 360.21 617.41C359.51 616.24 358.85 615.06 358.2 613.86C345.94 591.13 341.06 564.57 337.63 539.03C337.3 536.56 333.54 537.61 333.88 540.07C337.43 566.39 342.61 593.63 355.46 616.89C352.63 620.07 349.89 623.3 347.23 626.62C345.1 625.22 342.98 623.8 340.86 622.39C337.64 620.23 334.44 618.03 331.27 615.79C330.04 614.94 328.83 614.08 327.62 613.2C310.92 601.22 295.02 588.17 280.31 573.77C272.62 566.25 265.26 558.38 258.27 550.23C257.11 548.88 255.95 547.53 254.81 546.16C246.97 536.78 239.59 527.02 232.68 516.93C241.78 515.99 250.92 514.48 259.4 511.19C260.81 510.65 262.22 510.05 263.58 509.39C264.79 508.83 265.97 508.22 267.14 507.56C269.75 506.1 272.23 504.4 274.54 502.5C283.59 503.42 292.69 504 301.79 504.07C324.38 504.24 347.19 501.16 368.55 493.62C373.54 491.85 378.66 489.78 383.62 487.3C391.33 483.46 398.64 478.65 404.49 472.52C408.37 469.82 412.19 466.26 414.48 462.08C423.88 456.14 432.81 449.54 441.23 442.38C496.58 449.13 550.16 467.23 599.25 493.54C617.98 503.57 636.62 515.69 648.92 533.13C650 534.64 651.02 536.21 651.98 537.81C653.39 540.12 654.67 542.51 655.85 544.99C662.45 559.02 664.06 574.4 662.15 589.48L662.13 589.49ZM740.83 398.03C735.14 403.31 724.68 408.05 717.3 403.51C711.31 399.82 710.9 392.08 710.9 385.76C710.9 379.44 711.66 373.08 710.33 366.91C708.84 359.99 703.87 354.13 698.31 350C679.13 335.79 644.15 332.6 627.2 351.94C605.17 377.09 623.08 413.37 639.55 436.1C655.87 458.63 677.15 478.95 687.24 505.4C692.52 519.27 694.21 534.75 690.32 549.19C686.44 563.61 677.61 576.24 666.42 585.97C667.33 575.7 666.59 565.33 663.75 555.21C661.4 546.79 657.63 539.12 652.86 532.13C653.87 519.66 648.83 507.05 641.26 496.84C631.12 483.18 617.66 472.16 606.38 459.47C583.93 434.22 564.68 402.78 570.31 367.61C581.19 299.62 670.42 278.83 722.26 313.52C736.54 323.07 747.61 337.12 751.65 354C755.26 369.14 752.64 387 740.81 398.03H740.83Z" fill="#1D1D1B"/>
<path d="M115.92 313.75C115.92 319.34 120.45 323.88 126.04 323.88C127.09 323.88 128.1 323.72 129.05 323.42C133.17 322.14 136.17 318.29 136.17 313.75C136.17 308.16 131.63 303.63 126.04 303.63C125.34 303.63 124.66 303.7 124 303.84C119.39 304.78 115.92 308.86 115.92 313.75Z" fill="white"/>
<path d="M126.04 323.88C120.45 323.88 115.92 319.34 115.92 313.75C115.92 308.86 119.39 304.78 124 303.84C119.39 304.78 115.92 308.86 115.92 313.76C115.92 319.35 120.45 323.89 126.04 323.89V323.88Z" fill="white"/>
</g>
<defs>
<clipPath id="clip0_1513_7060">
<rect width="757.12" height="823.53" fill="white"/>
</clipPath>
</defs>
</svg>
