<svg width="806" height="210" viewBox="0 0 806 210" fill="none" xmlns="http://www.w3.org/2000/svg">
<rect x="0.158569" width="805.683" height="210" rx="82" fill="#9C008D" fill-opacity="0.5"/>
<g filter="url(#filter1_d_1129_9780)">
<path d="M142.032 115.112C140.112 113.021 138.746 110.845 137.936 108.584C137.125 106.28 136.72 103.72 136.72 100.904C136.72 97.704 137.296 94.824 138.448 92.264C139.642 89.704 141.285 87.464 143.376 85.544C145.21 83.88 147.322 82.5573 149.712 81.576C152.144 80.5947 154.768 80.104 157.584 80.104C160.4 80.104 163.002 80.5307 165.392 81.384C167.781 82.1947 169.936 83.496 171.856 85.288C173.904 87.208 175.504 89.5333 176.656 92.264C177.85 94.952 178.448 97.832 178.448 100.904C178.448 103.72 178.042 106.28 177.232 108.584C176.421 110.845 175.056 113.021 173.136 115.112C171.088 117.288 168.656 118.931 165.84 120.04C163.066 121.107 160.208 121.619 157.264 121.576C154.405 121.576 151.653 121.043 149.008 119.976C146.405 118.909 144.08 117.288 142.032 115.112ZM157.584 90.664C156.048 90.664 154.682 91.0267 153.488 91.752C152.336 92.4773 151.376 93.3947 150.608 94.504C149.968 95.4 149.498 96.4027 149.2 97.512C148.944 98.6213 148.816 99.752 148.816 100.904C148.816 102.141 149.029 103.379 149.456 104.616C149.882 105.853 150.458 106.941 151.184 107.88C151.994 108.861 152.912 109.629 153.936 110.184C155.002 110.696 156.218 110.952 157.584 110.952C158.736 110.952 159.802 110.739 160.784 110.312C161.808 109.843 162.682 109.245 163.408 108.52C164.389 107.539 165.114 106.387 165.584 105.064C166.096 103.699 166.352 102.312 166.352 100.904C166.352 99.7093 166.181 98.5573 165.84 97.448C165.541 96.296 165.05 95.272 164.368 94.376C163.6 93.2667 162.64 92.3707 161.488 91.688C160.378 91.0053 159.077 90.664 157.584 90.664ZM186.344 115.112C184.424 113.021 183.059 110.845 182.248 108.584C181.438 106.28 181.032 103.72 181.032 100.904C181.032 97.704 181.608 94.824 182.76 92.264C183.955 89.704 185.598 87.464 187.688 85.544C189.523 83.88 191.635 82.5573 194.024 81.576C196.456 80.5947 199.08 80.104 201.896 80.104C204.712 80.104 207.315 80.5307 209.704 81.384C212.094 82.1947 214.248 83.496 216.168 85.288C218.216 87.208 219.816 89.5333 220.968 92.264C222.163 94.952 222.76 97.832 222.76 100.904C222.76 103.72 222.355 106.28 221.544 108.584C220.734 110.845 219.368 113.021 217.448 115.112C215.4 117.288 212.968 118.931 210.152 120.04C207.379 121.107 204.52 121.619 201.576 121.576C198.718 121.576 195.966 121.043 193.32 119.976C190.718 118.909 188.392 117.288 186.344 115.112ZM201.896 90.664C200.36 90.664 198.995 91.0267 197.8 91.752C196.648 92.4773 195.688 93.3947 194.92 94.504C194.28 95.4 193.811 96.4027 193.512 97.512C193.256 98.6213 193.128 99.752 193.128 100.904C193.128 102.141 193.342 103.379 193.768 104.616C194.195 105.853 194.771 106.941 195.496 107.88C196.307 108.861 197.224 109.629 198.248 110.184C199.315 110.696 200.531 110.952 201.896 110.952C203.048 110.952 204.115 110.739 205.096 110.312C206.12 109.843 206.995 109.245 207.72 108.52C208.702 107.539 209.427 106.387 209.896 105.064C210.408 103.699 210.664 102.312 210.664 100.904C210.664 99.7093 210.494 98.5573 210.152 97.448C209.854 96.296 209.363 95.272 208.68 94.376C207.912 93.2667 206.952 92.3707 205.8 91.688C204.691 91.0053 203.39 90.664 201.896 90.664ZM242.753 80.68C244.545 80.68 246.337 80.872 248.129 81.256C249.963 81.5973 251.649 82.2587 253.185 83.24C254.806 84.264 256.107 85.672 257.089 87.464C258.07 89.256 258.539 91.432 258.497 93.992C258.454 96.168 258.091 98.216 257.409 100.136C256.769 102.056 255.553 103.699 253.761 105.064C252.353 106.173 250.689 106.984 248.769 107.496C246.849 108.008 244.609 108.264 242.049 108.264H239.169V121H226.113V80.68H242.753ZM239.169 98.984H239.937C240.534 98.984 241.131 98.9627 241.729 98.92C242.369 98.8773 242.966 98.7493 243.521 98.536C244.161 98.3227 244.715 97.9387 245.185 97.384C245.654 96.7867 245.889 96.0187 245.889 95.08C245.931 94.1413 245.718 93.4373 245.249 92.968C244.822 92.456 244.31 92.0933 243.713 91.88C243.158 91.6667 242.582 91.56 241.985 91.56C241.387 91.5173 240.747 91.496 240.065 91.496H239.169V98.984ZM269.75 106.792C268.555 106.365 267.446 105.917 266.422 105.448C265.44 104.936 264.587 104.317 263.862 103.592C263.094 102.867 262.496 102.013 262.07 101.032C261.686 100.051 261.515 98.92 261.558 97.64C261.6 95.8053 262.048 94.184 262.902 92.776C263.755 91.3253 264.886 90.1307 266.294 89.192C267.616 88.3387 269.088 87.7413 270.71 87.4C272.331 87.016 273.995 86.824 275.702 86.824C276.854 86.824 278.006 86.952 279.158 87.208C280.352 87.4213 281.483 87.7627 282.55 88.232C284.171 88.9573 285.579 89.9387 286.774 91.176C288.011 92.4133 288.864 93.8213 289.334 95.4L281.782 99.816C281.099 98.5787 280.267 97.6187 279.286 96.936C278.347 96.2107 277.131 95.8053 275.638 95.72C275.296 95.72 274.891 95.7413 274.422 95.784C273.995 95.8267 273.611 95.912 273.27 96.04C272.928 96.2107 272.63 96.4453 272.374 96.744C272.16 97 272.075 97.32 272.118 97.704C272.118 98.2587 272.352 98.664 272.822 98.92C273.334 99.176 273.91 99.4107 274.55 99.624L280.95 101.8C282.443 102.312 283.766 102.867 284.918 103.464C286.112 104.019 287.094 104.744 287.862 105.64C288.502 106.408 288.95 107.304 289.206 108.328C289.504 109.352 289.611 110.355 289.526 111.336C289.44 112.915 288.971 114.408 288.118 115.816C287.307 117.224 286.219 118.376 284.854 119.272C283.574 120.125 282.123 120.744 280.502 121.128C278.923 121.512 277.238 121.704 275.446 121.704C273.824 121.661 272.267 121.469 270.774 121.128C269.323 120.829 267.936 120.317 266.614 119.592C264.224 118.269 262.176 116.371 260.47 113.896L268.086 108.648C268.427 109.245 268.896 109.8 269.494 110.312C270.134 110.824 270.816 111.272 271.542 111.656C272.822 112.339 274.102 112.701 275.382 112.744C275.808 112.787 276.235 112.787 276.662 112.744C277.088 112.659 277.451 112.509 277.75 112.296C278.262 111.955 278.475 111.485 278.39 110.888C278.39 110.419 278.198 110.077 277.814 109.864C277.472 109.651 276.939 109.416 276.214 109.16L269.75 106.792Z" fill="white"/>
</g>
<rect x="359.159" y="66" width="307.683" height="78" rx="39" fill="#8335F7"/>
<rect x="359.159" y="66" width="307.683" height="78" rx="39" stroke="url(#paint0_linear_1129_9780)" stroke-width="8"/>
<rect x="359.159" y="66" width="307.683" height="78" rx="39" stroke="url(#paint1_radial_1129_9780)" stroke-width="8"/>
<g filter="url(#filter3_d_1129_9780)">
<path d="M418.629 96.764H411.447V116H402.753V96.764H395.361L395.613 89.54H418.839L418.629 96.764ZM430.792 99.872C430.372 99.872 430.008 99.956 429.7 100.124C429.392 100.292 429.126 100.502 428.902 100.754C428.706 101.006 428.538 101.272 428.398 101.552C428.258 101.832 428.146 102.098 428.062 102.35V116H420.292V94.034H427.81L427.936 95.84C428.552 95.056 429.308 94.468 430.204 94.076C431.1 93.684 432.038 93.488 433.018 93.488C434.418 93.488 435.678 93.88 436.798 94.664C437.33 95.028 437.792 95.49 438.184 96.05C438.604 96.582 438.898 97.17 439.066 97.814L433.774 102.77C433.634 102.406 433.452 102.042 433.228 101.678C433.032 101.286 432.794 100.936 432.514 100.628C432.01 100.124 431.436 99.872 430.792 99.872ZM464.652 96.05L451.296 122.972L444.534 119.402L448.524 111.926L439.998 96.176L447.558 92.858L452.724 104.156L457.386 92.942L464.652 96.05ZM486.802 93.74C488.23 93.768 489.462 93.922 490.498 94.202C491.534 94.454 492.416 94.874 493.144 95.462C494.18 96.33 494.894 97.464 495.286 98.864C495.706 100.264 495.916 101.972 495.916 103.988V116H488.818L488.398 113.942C487.754 114.754 486.984 115.356 486.088 115.748C485.22 116.112 484.324 116.28 483.4 116.252C482.504 116.252 481.678 116.098 480.922 115.79C480.166 115.454 479.522 115.006 478.99 114.446C477.758 113.13 477.184 111.464 477.268 109.448C477.324 108.44 477.548 107.53 477.94 106.718C478.36 105.906 478.892 105.248 479.536 104.744C480.6 103.876 482 103.4 483.736 103.316C484.464 103.26 485.192 103.288 485.92 103.4C486.676 103.512 487.418 103.68 488.146 103.904V103.232C488.146 102.14 487.978 101.286 487.642 100.67C487.334 100.026 486.69 99.676 485.71 99.62C485.122 99.592 484.576 99.662 484.072 99.83C483.596 99.998 483.148 100.222 482.728 100.502C482.336 100.754 481.972 101.062 481.636 101.426C481.328 101.762 481.062 102.098 480.838 102.434L477.436 97.94C477.912 97.408 478.444 96.89 479.032 96.386C479.648 95.854 480.334 95.392 481.09 95C481.846 94.608 482.686 94.3 483.61 94.076C484.562 93.824 485.626 93.712 486.802 93.74ZM488.146 108.062C487.838 107.922 487.474 107.838 487.054 107.81C486.662 107.782 486.284 107.81 485.92 107.894C485.556 107.95 485.248 108.076 484.996 108.272C484.744 108.468 484.618 108.72 484.618 109.028C484.618 109.42 484.744 109.728 484.996 109.952C485.276 110.176 485.598 110.33 485.962 110.414C486.354 110.47 486.746 110.47 487.138 110.414C487.558 110.33 487.894 110.19 488.146 109.994V108.062ZM513.874 117.134C515.806 117.526 517.276 118.296 518.284 119.444C519.292 120.62 519.768 122.132 519.712 123.98C519.684 125.24 519.376 126.346 518.788 127.298C518.228 128.25 517.458 129.048 516.478 129.692C514.882 130.756 512.81 131.302 510.262 131.33C508.89 131.358 507.56 131.176 506.272 130.784C505.012 130.42 503.934 129.818 503.038 128.978C502.366 128.362 501.834 127.648 501.442 126.836C501.05 126.024 500.854 125.086 500.854 124.022C500.854 122.258 501.372 120.802 502.408 119.654C503.472 118.506 504.9 117.694 506.692 117.218V115.832C505.712 115.636 504.76 115.314 503.836 114.866C502.94 114.39 502.114 113.746 501.358 112.934C500.322 111.758 499.594 110.512 499.174 109.196C498.782 107.88 498.586 106.466 498.586 104.954C498.586 103.274 498.908 101.706 499.552 100.25C500.196 98.766 501.064 97.492 502.156 96.428C503.22 95.448 504.48 94.734 505.936 94.286C507.392 93.81 508.89 93.572 510.43 93.572C510.99 93.572 511.592 93.614 512.236 93.698C512.236 93.446 512.278 93.194 512.362 92.942C512.586 92.018 512.922 91.276 513.37 90.716C513.846 90.128 514.392 89.68 515.008 89.372C515.652 89.036 516.366 88.826 517.15 88.742C517.934 88.658 518.76 88.644 519.628 88.7C520.3 88.756 521.056 88.868 521.896 89.036C522.764 89.204 523.52 89.4 524.164 89.624L522.442 95.546C521.966 95.266 521.476 95.098 520.972 95.042C520.468 94.958 520.02 95.028 519.628 95.252C519.18 95.476 518.858 95.882 518.662 96.47C518.746 96.526 518.816 96.596 518.872 96.68C518.956 96.764 519.04 96.848 519.124 96.932C520.16 98.108 520.888 99.354 521.308 100.67C521.756 101.986 521.98 103.4 521.98 104.912C521.98 106.592 521.658 108.174 521.014 109.658C520.37 111.114 519.488 112.374 518.368 113.438C517.724 114.054 517.01 114.544 516.226 114.908C515.47 115.272 514.686 115.552 513.874 115.748V117.134ZM505.894 104.912C505.894 106.34 506.23 107.516 506.902 108.44C507.602 109.336 508.722 109.798 510.262 109.826C511.718 109.854 512.81 109.406 513.538 108.482C514.294 107.558 514.672 106.41 514.672 105.038C514.672 104.366 514.588 103.722 514.42 103.106C514.252 102.49 513.986 101.944 513.622 101.468C513.286 100.992 512.852 100.614 512.32 100.334C511.788 100.054 511.158 99.914 510.43 99.914C509.702 99.914 509.058 100.054 508.498 100.334C507.938 100.586 507.462 100.936 507.07 101.384C506.706 101.832 506.412 102.364 506.188 102.98C505.992 103.568 505.894 104.212 505.894 104.912ZM513.076 123.98C513.048 123.252 512.754 122.706 512.194 122.342C511.634 121.978 511.004 121.796 510.304 121.796C509.632 121.796 509.016 121.964 508.456 122.3C507.896 122.636 507.588 123.168 507.532 123.896C507.448 124.764 507.686 125.408 508.246 125.828C508.806 126.248 509.45 126.472 510.178 126.5C510.934 126.528 511.606 126.332 512.194 125.912C512.81 125.52 513.104 124.876 513.076 123.98ZM534.667 93.74C536.095 93.768 537.327 93.922 538.363 94.202C539.399 94.454 540.281 94.874 541.01 95.462C542.046 96.33 542.76 97.464 543.152 98.864C543.571 100.264 543.781 101.972 543.781 103.988V116H536.683L536.264 113.942C535.619 114.754 534.849 115.356 533.953 115.748C533.085 116.112 532.189 116.28 531.265 116.252C530.369 116.252 529.543 116.098 528.787 115.79C528.031 115.454 527.387 115.006 526.855 114.446C525.623 113.13 525.049 111.464 525.133 109.448C525.189 108.44 525.413 107.53 525.805 106.718C526.225 105.906 526.757 105.248 527.401 104.744C528.465 103.876 529.865 103.4 531.601 103.316C532.329 103.26 533.057 103.288 533.785 103.4C534.541 103.512 535.283 103.68 536.011 103.904V103.232C536.011 102.14 535.843 101.286 535.507 100.67C535.199 100.026 534.555 99.676 533.575 99.62C532.987 99.592 532.441 99.662 531.937 99.83C531.461 99.998 531.013 100.222 530.593 100.502C530.201 100.754 529.837 101.062 529.501 101.426C529.193 101.762 528.927 102.098 528.703 102.434L525.301 97.94C525.777 97.408 526.309 96.89 526.897 96.386C527.513 95.854 528.199 95.392 528.955 95C529.711 94.608 530.551 94.3 531.475 94.076C532.427 93.824 533.491 93.712 534.667 93.74ZM536.011 108.062C535.703 107.922 535.339 107.838 534.919 107.81C534.527 107.782 534.149 107.81 533.785 107.894C533.421 107.95 533.113 108.076 532.861 108.272C532.609 108.468 532.483 108.72 532.483 109.028C532.483 109.42 532.609 109.728 532.861 109.952C533.141 110.176 533.463 110.33 533.827 110.414C534.219 110.47 534.612 110.47 535.003 110.414C535.423 110.33 535.759 110.19 536.011 109.994V108.062ZM555.271 86.6C555.299 87.412 555.187 88.112 554.935 88.7C554.683 89.26 554.333 89.736 553.885 90.128C553.465 90.492 552.961 90.758 552.373 90.926C551.813 91.094 551.239 91.178 550.651 91.178C550.063 91.15 549.489 91.038 548.929 90.842C548.397 90.618 547.921 90.31 547.501 89.918C547.109 89.526 546.801 89.036 546.577 88.448C546.381 87.86 546.325 87.174 546.409 86.39C546.465 85.718 546.619 85.144 546.871 84.668C547.151 84.192 547.487 83.8 547.879 83.492C548.299 83.184 548.761 82.96 549.265 82.82C549.769 82.652 550.287 82.568 550.819 82.568C551.379 82.568 551.911 82.652 552.415 82.82C552.947 82.96 553.409 83.198 553.801 83.534C554.221 83.87 554.557 84.29 554.809 84.794C555.089 85.298 555.243 85.9 555.271 86.6ZM546.955 116V94.034H554.725V116H546.955ZM569.313 99.872C568.473 99.872 567.759 100.138 567.171 100.67C566.611 101.202 566.219 101.762 565.995 102.35V116H558.225V94.034H565.743L565.869 95.84C566.149 95.504 566.471 95.21 566.835 94.958C567.227 94.678 567.619 94.44 568.011 94.244C568.543 93.992 569.145 93.81 569.817 93.698C570.489 93.558 571.161 93.488 571.833 93.488C572.813 93.488 573.779 93.642 574.731 93.95C575.711 94.258 576.537 94.706 577.209 95.294C578.105 96.106 578.735 97.142 579.099 98.402C579.463 99.662 579.645 101.132 579.645 102.812V116H571.917V105.584C571.917 104.94 571.903 104.184 571.875 103.316C571.847 102.448 571.679 101.692 571.371 101.048C571.175 100.684 570.909 100.404 570.573 100.208C570.265 99.984 569.845 99.872 569.313 99.872Z" fill="white"/>
</g>
<g filter="url(#filter4_d_1129_9780)">
<g filter="url(#filter5_d_1129_9780)">
<path fill-rule="evenodd" clip-rule="evenodd" d="M607.921 100.5L607.842 94.3311C607.79 90.2176 610.518 87.3697 613.013 88.9366L628.521 98.6706C631.482 100.53 631.648 106.831 628.794 109.047L613.562 120.871C611.098 122.784 608.172 120.107 608.118 115.891L608.052 110.725L596.271 110.725C593.448 110.725 591.159 108.436 591.159 105.613C591.159 102.789 593.448 100.5 596.271 100.5L607.921 100.5Z" fill="white"/>
</g>
</g>
<defs>
<filter id="filter1_d_1129_9780" x="132.72" y="80.104" width="160.934" height="49.6001" filterUnits="userSpaceOnUse" color-interpolation-filters="sRGB">
<feFlood flood-opacity="0" result="BackgroundImageFix"/>
<feColorMatrix in="SourceAlpha" type="matrix" values="0 0 0 0 0 0 0 0 0 0 0 0 0 0 0 0 0 0 127 0" result="hardAlpha"/>
<feOffset dy="4"/>
<feGaussianBlur stdDeviation="2"/>
<feComposite in2="hardAlpha" operator="out"/>
<feColorMatrix type="matrix" values="0 0 0 0 0 0 0 0 0 0 0 0 0 0 0 0 0 0 0.25 0"/>
<feBlend mode="normal" in2="BackgroundImageFix" result="effect1_dropShadow_1129_9780"/>
<feBlend mode="normal" in="SourceGraphic" in2="effect1_dropShadow_1129_9780" result="shape"/>
</filter>
<filter id="filter3_d_1129_9780" x="391.361" y="82.5679" width="192.285" height="56.8042" filterUnits="userSpaceOnUse" color-interpolation-filters="sRGB">
<feFlood flood-opacity="0" result="BackgroundImageFix"/>
<feColorMatrix in="SourceAlpha" type="matrix" values="0 0 0 0 0 0 0 0 0 0 0 0 0 0 0 0 0 0 127 0" result="hardAlpha"/>
<feOffset dy="4"/>
<feGaussianBlur stdDeviation="2"/>
<feComposite in2="hardAlpha" operator="out"/>
<feColorMatrix type="matrix" values="0 0 0 0 0 0 0 0 0 0 0 0 0 0 0 0 0 0 0.25 0"/>
<feBlend mode="normal" in2="BackgroundImageFix" result="effect1_dropShadow_1129_9780"/>
<feBlend mode="normal" in="SourceGraphic" in2="effect1_dropShadow_1129_9780" result="shape"/>
</filter>
<filter id="filter4_d_1129_9780" x="587.159" y="88.5" width="47.6829" height="41" filterUnits="userSpaceOnUse" color-interpolation-filters="sRGB">
<feFlood flood-opacity="0" result="BackgroundImageFix"/>
<feColorMatrix in="SourceAlpha" type="matrix" values="0 0 0 0 0 0 0 0 0 0 0 0 0 0 0 0 0 0 127 0" result="hardAlpha"/>
<feOffset dy="4"/>
<feGaussianBlur stdDeviation="2"/>
<feComposite in2="hardAlpha" operator="out"/>
<feColorMatrix type="matrix" values="0 0 0 0 0 0 0 0 0 0 0 0 0 0 0 0 0 0 0.25 0"/>
<feBlend mode="normal" in2="BackgroundImageFix" result="effect1_dropShadow_1129_9780"/>
<feBlend mode="normal" in="SourceGraphic" in2="effect1_dropShadow_1129_9780" result="shape"/>
</filter>
<filter id="filter5_d_1129_9780" x="587.159" y="88.5" width="47.6829" height="41" filterUnits="userSpaceOnUse" color-interpolation-filters="sRGB">
<feFlood flood-opacity="0" result="BackgroundImageFix"/>
<feColorMatrix in="SourceAlpha" type="matrix" values="0 0 0 0 0 0 0 0 0 0 0 0 0 0 0 0 0 0 127 0" result="hardAlpha"/>
<feOffset dy="4"/>
<feGaussianBlur stdDeviation="2"/>
<feComposite in2="hardAlpha" operator="out"/>
<feColorMatrix type="matrix" values="0 0 0 0 0 0 0 0 0 0 0 0 0 0 0 0 0 0 0.25 0"/>
<feBlend mode="normal" in2="BackgroundImageFix" result="effect1_dropShadow_1129_9780"/>
<feBlend mode="normal" in="SourceGraphic" in2="effect1_dropShadow_1129_9780" result="shape"/>
</filter>
<linearGradient id="paint0_linear_1129_9780" x1="350.769" y1="57.2008" x2="372.771" y2="177.068" gradientUnits="userSpaceOnUse">
<stop stop-color="#575EFF"/>
<stop offset="1" stop-color="#E478FF"/>
</linearGradient>
<radialGradient id="paint1_radial_1129_9780" cx="0" cy="0" r="1" gradientUnits="userSpaceOnUse" gradientTransform="translate(513 104.124) scale(157.841 42.124)">
<stop stop-color="#50249E"/>
<stop offset="1" stop-color="#27005F" stop-opacity="0"/>
</radialGradient>
</defs>
</svg>
