<svg width="314" height="360" viewBox="0 0 314 360" fill="none" xmlns="http://www.w3.org/2000/svg">
<path d="M184.062 98.9446C184.062 98.9446 196.096 88.5232 212.973 94.4443C229.848 100.365 235.593 116.653 235.593 116.653L184.062 98.9418V98.9446Z" fill="#B2510F"/>
<path d="M184.062 98.9445C184.062 98.9445 206.908 89.3182 221.979 101.404C238.115 114.344 267.067 144.557 250.42 194.661C236.24 237.33 251.781 234.242 251.781 234.242C251.781 234.242 206.146 232.879 184.349 206.263C191.381 196.554 193.101 135.706 184.062 98.9445Z" fill="#7C3903"/>
<path d="M193.585 111.472C193.585 111.472 211.481 109.668 226.978 120.355C240.783 129.877 253.148 157.125 238.843 200.8C235.451 211.158 236.118 230.829 249.739 234.239C243.609 235.605 210.232 228.096 202.741 222.637C189.389 212.91 186.626 211.235 186.979 205.341C196.96 193.422 212.041 235.545 193.585 111.469V111.472Z" fill="#542302"/>
<path d="M195.019 113.693C195.019 113.693 237.028 115.543 229.848 182.542C226.975 194.018 212.276 222.64 212.276 222.64L189.799 211.721C189.799 211.721 201.866 159.915 195.019 113.693Z" fill="#3F1A01"/>
<path d="M186.402 111.841C186.402 111.841 229.984 114.811 223.173 187.835C217.043 218.545 229.304 230.829 229.304 230.829L183.529 208.082C183.529 208.082 193.248 158.063 186.402 111.841Z" fill="#2B1201"/>
<path d="M82.4799 118.926C82.4799 118.926 65.5017 102.567 45.8286 124.079C26.1555 145.591 24.6605 177.397 11.249 175.093C-3.05891 172.634 -0.126265 174.025 1.11458 176.323C10.1202 192.991 31.1845 242.786 68.7432 216.973C68.7432 216.973 95.681 226.113 64.9059 159.114C58.7837 145.788 63.6487 136.37 72.0612 138.831C78.424 140.695 81.6873 131.304 83.3874 120.393L82.4799 118.929V118.926Z" fill="#7C3903" stroke="#7C3903" stroke-miterlimit="10"/>
<path d="M75.4093 139.785C75.4093 139.785 71.1265 134.014 65.1683 138.222C56.7093 144.198 53.7793 171.183 61.4239 198.026C66.4201 215.571 63.6405 222.88 50.9751 224.766C53.7247 226.495 96.49 225.233 95.8887 209.385C95.0004 185.886 62.1154 157.753 64.1324 145.966C65.9281 135.487 75.4093 139.788 75.4093 139.788V139.785Z" fill="#2B1201"/>
<path d="M83.7536 130.012C83.7536 130.012 80.7089 126.011 72.1241 127.181C68.582 127.664 55.6871 125.708 42.7921 169.891C37.5254 187.933 26.4835 198.434 9.79502 192.177C23.8269 219.547 46.9601 231.578 51.8934 220.329C57.1766 208.279 50.8767 184.968 53.6618 159.136C56.1298 136.247 65.1683 134.31 74.6495 139.001C80.9029 142.094 83.7509 130.009 83.7509 130.009L83.7536 130.012Z" fill="#542302"/>
<path d="M80.3372 124.421C80.3372 124.421 58.3054 108.745 40.1629 144.433C25.7948 178.137 22.8403 184.184 12.3669 179.504C12.3478 180.394 24.5731 189.294 35.5302 168.022C49.6851 140.542 59.415 113.899 80.3372 124.424V124.421Z" fill="#AA4E0F" stroke="#AA4E0F" stroke-miterlimit="10"/>
<path d="M76.3742 114.644C73.3623 112.773 69.9595 110.74 65.2421 109.578C69.2325 111.147 71.6404 113.117 73.5372 114.978C75.434 116.838 77.0629 118.74 80.1432 120.538C82.6057 121.975 84.4642 120.336 84.1117 119.579C83.5596 118.401 78.2819 115.83 76.3742 114.644Z" fill="#AA4E0F"/>
<path d="M86.6507 118.267C86.5879 117.896 86.4239 117.538 86.1561 117.243C85.4181 116.426 84.18 116.379 83.3874 117.139C82.9282 117.576 72.1241 128.014 67.486 139.777C67.0788 140.81 67.5598 141.987 68.5629 142.408C69.5659 142.829 70.7084 142.332 71.1156 141.299C75.4312 130.353 85.9483 120.199 86.0549 120.095C86.5605 119.612 86.7601 118.918 86.6507 118.267Z" fill="#8E52AA"/>
<path d="M82.5974 116.229C82.4963 115.628 82.1327 115.082 81.567 114.781C80.6049 114.27 79.4242 114.658 78.9268 115.647C78.6398 116.218 71.8972 129.809 71.3943 142.499C71.3505 143.611 72.1896 144.553 73.2719 144.6C74.3515 144.646 75.2644 143.78 75.3081 142.665C75.7755 130.859 82.3404 117.634 82.406 117.5C82.611 117.093 82.6657 116.647 82.5946 116.227L82.5974 116.229Z" fill="#F98506"/>
<path d="M52.2952 215C51.6365 213.394 51.0243 211.522 51.2238 209.612C51.4233 207.702 52.8473 206.131 53.8121 207.243C54.2166 207.71 54.4325 208.495 54.7004 209.178C55.4793 211.145 56.7803 212.35 58.0293 213.478C59.8496 215.123 61.3419 217.736 62.3422 218.126C63.3425 218.517 68.4644 218.801 69.4101 218.126C69.5276 228.171 68.7787 236.906 68.899 246.95C66.8491 247.251 64.813 245.633 61.167 247.251C59.5462 247.97 48.6984 251.369 47.4248 251.443C45.7056 251.541 42.5871 249.625 41.2151 247.918C39.6217 245.934 40.0863 242.292 38.9384 239.207C37.3614 234.969 38.8591 229.537 40.1792 225.517C41.707 220.864 54.2603 219.807 52.2952 215.003V215Z" fill="#EAA973"/>
<path d="M208.691 86.8455C197.468 90.0588 188.143 97.1767 183.431 106.123C168.475 96.4417 200.759 89.1188 208.691 86.8455Z" fill="#994A14"/>
<path d="M196.331 85.1892C188.769 90.8125 183.598 99.4497 182.321 108.581C168.754 103.622 190.985 89.1621 196.331 85.1892Z" fill="#994A14"/>
<path d="M64.6955 220.061C63.3344 226.643 63.9275 246.975 63.9275 246.975L68.8226 247.052L69.9896 218.591C69.9896 218.591 65.6221 215.572 64.6955 220.061Z" fill="#A02C15"/>
<path d="M101.677 293.432C100.901 296.172 98.6382 307.848 106.862 312.807C106.906 312.835 116.729 318.387 134.729 316.526C134.962 316.502 135.637 316.187 135.757 315.977C136.678 314.362 142.152 307.463 141.458 299.443C141.431 299.14 141.204 298.897 140.922 298.853C111.129 294.41 104.036 293.271 102.358 292.976C102.055 292.924 101.765 293.115 101.675 293.429L101.677 293.432Z" fill="#F9D606"/>
<path d="M149.28 314.85C149.28 314.85 150.119 319.282 149.28 324.266C148.08 331.387 146.036 339.959 150.338 341.83C156.829 344.653 174.679 347.475 182.791 350.295C190.906 353.118 206.342 356.727 207.941 345.593C208.753 339.948 206.624 340.434 197.394 337.128C176.961 329.808 179.219 312.468 179.219 312.468L149.277 314.85H149.28Z" fill="#9CB729"/>
<path d="M207.155 343.711C201.584 344.385 203.946 349.356 200.734 350.296C182.983 355.498 176.262 342.814 167.674 342.301C159.811 341.831 150.986 339.008 148.578 334.306C147.753 332.693 147.774 332.423 146.17 336.188C144.566 339.951 145.123 343.691 154.195 348.416C161.416 352.178 165.428 348.416 169.44 348.416C173.452 348.416 176.199 351.536 179.069 354.061C185.489 359.706 201.535 358.763 207.152 351.238C210.232 347.11 209.409 343.44 207.152 343.713L207.155 343.711Z" fill="#FED53A"/>
<path d="M208.024 345.564C202.276 346.238 204.714 351.209 201.401 352.149C183.089 357.351 176.158 344.667 167.3 344.154C159.188 343.684 150.084 340.861 147.6 336.159C146.747 334.546 146.771 334.276 145.115 338.041C143.459 341.804 144.036 345.544 153.391 350.269C160.842 354.031 164.98 350.269 169.117 350.269C173.255 350.269 176.09 353.389 179.05 355.914C185.672 361.559 202.227 360.616 208.018 353.091C211.197 348.963 210.347 345.293 208.018 345.566L208.024 345.564Z" fill="#020202"/>
<path d="M184.568 295.325C185.366 297.773 184.751 308.758 179.225 312.635C179.184 312.665 172.324 317.619 150.508 315.958C150.27 315.938 149.573 315.657 149.45 315.466C148.502 314.023 142.169 305.766 142.882 298.601C142.91 298.331 142.593 299.254 142.882 299.216C173.586 295.249 182.138 295.178 183.866 294.915C184.18 294.869 184.478 295.041 184.568 295.322V295.325Z" fill="#F9D606"/>
<path d="M69.432 220.337C69.432 220.337 69.432 209.913 88.266 216.496C101.686 221.187 144.137 238.442 144.137 238.442L142.882 299.441C142.882 299.441 68.1775 292.211 67.5489 285.076C66.9203 277.945 83.8711 247.768 83.8711 247.768C83.8711 247.768 69.3063 253.583 68.4289 245.738C67.5489 237.893 69.4347 220.335 69.4347 220.335L69.432 220.337Z" fill="#F98506"/>
<path d="M218.196 221.432C218.196 221.432 206.914 207.167 194.987 214.301C183.059 221.432 144.137 238.442 144.137 238.442L142.882 298.792C142.882 298.792 219.454 293.306 220.08 286.174C220.708 279.043 203.757 248.866 203.757 248.866C203.757 248.866 218.322 254.68 219.199 246.836C220.079 238.991 218.196 221.432 218.196 221.432Z" fill="#F98506"/>
<path d="M105.974 312.283C105.974 312.283 129.67 314.69 131.827 312.468C133.98 310.247 135.489 304.842 135.489 304.842L135.418 304.323L140.983 304.618C140.983 304.618 141.163 310.911 136.495 314.835L105.974 312.28V312.283Z" fill="#C1A102"/>
<path d="M104.539 215.487C104.539 215.487 118.183 236.955 143.317 236.586C146.547 237.327 171.323 234.737 178.145 216.968C118.902 220.67 109.062 217.634 109.062 217.634L104.539 215.487Z" fill="#A02C15"/>
<path d="M91.4746 208.842C91.4746 208.842 69.0629 218.938 124.308 240.295C144.082 249.678 154.126 250.325 195.435 216.413C197.569 215.637 195.875 216.348 195.875 216.348C195.875 216.348 214.96 187.742 91.4773 208.842H91.4746Z" fill="#D13E05"/>
<path d="M193.885 288.839C187.55 302.807 281.334 241.882 192.524 206.262C183.734 215.452 176.822 220.146 180.263 228.1C189.119 248.574 204.104 266.318 193.885 288.839Z" fill="#D13E05"/>
<path d="M149.16 304.878C149.16 304.878 153.183 314.744 155.982 315.149C158.778 315.551 163.157 315.157 163.157 315.157C163.157 315.157 151.333 316.605 149.463 315.479C147.979 313.922 143.587 306.099 143.587 304.454C149.179 304.435 149.16 304.878 149.16 304.878Z" fill="#C1A102"/>
<path d="M120.279 219.19V221.777C120.279 221.777 142.251 250.254 165.187 224.365C167.36 221.13 167.989 218.539 167.989 218.539L120.279 219.187V219.19Z" fill="#E0944F"/>
<path d="M194.232 265.14C194.232 265.14 195.249 249.937 202.06 257.445C210.167 266.38 212.626 279.13 200.699 288.838C197.93 291.319 190.592 291.674 184.317 291.674C191.849 289.731 201.896 277.28 194.396 266.531L194.235 265.14H194.232Z" fill="#A02C15"/>
<path d="M200.753 162.91C199.466 172.523 201.565 180.764 205.443 181.316C209.319 181.868 213.506 174.52 214.793 164.908C216.081 155.292 213.982 147.054 210.103 146.502C206.228 145.95 202.041 153.298 200.753 162.91Z" fill="#FCDBAC"/>
<path d="M68.1035 188.671C72.5941 196.647 79.088 201.404 82.6082 199.297C86.1285 197.191 85.3387 189.018 80.8454 181.042C76.3548 173.066 69.8609 168.309 66.3407 170.416C62.8231 172.522 63.6103 180.695 68.1035 188.671Z" fill="#FCDBAC"/>
<path d="M71.1046 187.254C73.753 191.956 78.7519 194.06 82.2722 191.953C85.7898 189.847 87.4406 190.576 84.7922 185.874C82.1437 181.171 73.231 173.034 69.7107 175.138C66.1932 177.245 68.4562 182.551 71.1046 187.254Z" fill="#EDAE74"/>
<path d="M211.35 163.355C211.005 169.003 207.698 173.386 203.968 173.145C200.237 172.902 199.16 174.38 199.504 168.73C199.849 163.082 204.025 151.198 207.756 151.442C211.486 151.685 211.694 157.707 211.35 163.355Z" fill="#EDAE74"/>
<path d="M86.6371 121.998C86.6371 121.998 97.1023 102.13 123.871 96.2473C159.932 88.3206 195.9 109.672 204.64 145.805C212.184 176.993 194.142 205.546 166.737 219.189C162.391 221.353 160.161 224.255 155.37 225.889C140.261 231.048 131.4 225.015 120.277 221.558C98.5017 214.79 80.5368 201.456 74.7507 177.539C69.0467 153.956 76.6748 138.851 86.6371 121.998Z" fill="#FCDBAC"/>
<path d="M163.897 162.341C163.064 167.334 166.513 172.11 171.596 173.012C176.683 173.913 181.479 170.596 182.31 165.607C183.144 160.615 179.695 155.838 174.611 154.937C169.525 154.035 164.728 157.352 163.897 162.341Z" fill="#020202"/>
<path d="M100.084 170.473C99.2532 175.46 102.683 180.228 107.745 181.124C112.807 182.021 117.584 178.706 118.415 173.722C119.246 168.736 115.816 163.968 110.754 163.071C105.692 162.175 100.915 165.49 100.084 170.473Z" fill="#020202"/>
<path d="M142.295 186.804C139.231 186.804 136.396 185.665 133.975 183.438L132.832 182.386L134.204 181.662C134.355 181.58 138.006 179.514 137.173 173.888C137.085 173.29 137.495 172.733 138.094 172.645C138.69 172.555 139.247 172.97 139.335 173.569C140.07 178.525 137.949 181.356 136.487 182.679C142.579 187.149 149.095 182.55 149.384 182.342C149.874 181.99 150.557 182.099 150.909 182.588C151.262 183.077 151.155 183.761 150.669 184.116C150.579 184.181 148.406 185.747 145.287 186.46C144.271 186.692 143.273 186.807 142.297 186.807L142.295 186.804Z" fill="#E5A865"/>
<path d="M172.22 187.169C172.22 187.169 152.831 205.307 115.13 193.462C115.13 193.462 148.882 228.256 172.22 187.169Z" fill="#FF1D1C"/>
<path d="M144.224 207.385C136.593 207.385 129.586 204.136 124.808 201.199C118.907 197.57 115.045 193.619 115.007 193.578L114.537 193.092L115.182 193.294C134.604 199.396 149.045 197.371 157.742 194.598C167.163 191.592 172.056 187.086 172.105 187.04L172.925 186.275L172.37 187.25C165.564 199.234 157.198 205.937 147.507 207.175C146.402 207.317 145.307 207.383 144.224 207.383V207.385ZM115.756 193.835C116.978 195.005 120.35 198.06 124.994 200.915C130.4 204.237 138.687 207.965 147.463 206.841C156.813 205.645 164.925 199.284 171.586 187.925C169.875 189.286 165.247 192.565 157.863 194.923C152.295 196.702 146.271 197.62 139.955 197.65C139.846 197.65 139.736 197.65 139.627 197.65C132.04 197.65 124.013 196.368 115.753 193.838L115.756 193.835Z" fill="#FF1D1C"/>
<path d="M75.6935 289.469L75.0785 294.316C75.0785 294.316 87.3558 303.32 141.494 304.705C178.252 305.645 205.821 299.164 213.186 294.316L213.329 289.887C213.329 289.887 145.667 306.782 75.6908 289.469H75.6935Z" fill="#F9B826"/>
<path d="M140.275 243.989L139.113 297.293H146.02V244.175L140.275 243.989Z" fill="#D13E05"/>
<path d="M143.847 296.369C143.765 296.369 143.68 296.35 143.601 296.309L139.471 294.18L142.68 292.626L139.512 290.994L142.721 289.442L139.551 287.811L142.759 286.259L139.591 284.628L142.8 283.076L139.632 281.445L142.841 279.893L139.671 278.261L142.879 276.709L139.712 275.078L142.92 273.526L139.753 271.895L142.961 270.343L139.794 268.712L143.002 267.16L139.835 265.528L143.043 263.976L139.876 262.345L143.084 260.793L139.917 259.162L143.125 257.61L139.958 255.981L143.166 254.429L139.999 252.798L143.207 251.246L140.04 249.615L143.248 248.063L140.081 246.432L144.262 244.41C144.53 244.281 144.853 244.393 144.981 244.661C145.11 244.929 144.998 245.251 144.73 245.382L142.497 246.464L145.665 248.096L142.456 249.648L145.624 251.279L142.415 252.831L145.583 254.462L142.374 256.014L145.542 257.643L142.333 259.195L145.501 260.826L142.292 262.378L145.46 264.009L142.251 265.561L145.419 267.192L142.21 268.744L145.378 270.376L142.169 271.928L145.337 273.559L142.128 275.111L145.296 276.742L142.087 278.294L145.255 279.925L142.046 281.477L145.214 283.109L142.005 284.661L145.173 286.292L141.964 287.844L145.132 289.475L141.923 291.027L145.091 292.658L141.882 294.213L144.09 295.35C144.355 295.487 144.459 295.812 144.323 296.077C144.227 296.263 144.038 296.369 143.844 296.369H143.847Z" fill="#7131A3"/>
<path d="M113.312 312.061C113.312 312.061 107.726 306.561 109.609 305.266C111.492 303.971 113.312 312.061 113.312 312.061Z" fill="#C1A102"/>
<path d="M165.376 314.282C165.376 314.282 159.79 308.782 161.673 307.487C163.556 306.192 165.376 314.282 165.376 314.282Z" fill="#C1A102"/>
<path d="M175.428 312.801C175.428 312.801 169.842 307.301 171.725 306.006C173.608 304.711 175.428 312.801 175.428 312.801Z" fill="#C1A102"/>
<path d="M175.713 312.326C175.713 312.326 175.016 302.907 177.672 303.315C180.329 303.722 175.713 312.326 175.713 312.326Z" fill="#C1A102"/>
<path d="M176.735 312.49C176.735 312.49 178.659 305.274 180.537 306.269C182.414 307.263 176.735 312.49 176.735 312.49Z" fill="#C1A102"/>
<path d="M114.007 312.998C114.007 312.998 113.927 303.552 116.551 304.134C119.175 304.716 114.007 312.998 114.007 312.998Z" fill="#C1A102"/>
<path d="M115.351 312.57C115.351 312.57 117.991 308.039 119.079 309.061C120.167 310.083 115.351 312.57 115.351 312.57Z" fill="#C1A102"/>
<path d="M85.328 270.914L82.6632 268.168L107.524 242.54L110.186 245.286L85.328 270.914Z" fill="#D13E05"/>
<path d="M156.064 238.745C156.064 239.996 155.08 241.01 153.867 241.01C152.653 241.01 151.669 239.996 151.669 238.745C151.669 237.493 152.653 236.479 153.867 236.479C155.08 236.479 156.064 237.493 156.064 238.745Z" fill="#7131A3"/>
<path d="M153.867 241.661C152.306 241.661 151.038 240.352 151.038 238.745C151.038 237.138 152.306 235.83 153.867 235.83C155.427 235.83 156.695 237.138 156.695 238.745C156.695 240.352 155.427 241.661 153.867 241.661Z" fill="#7131A3"/>
<path d="M153.867 237.13C153.003 237.13 152.301 237.854 152.301 238.745C152.301 239.636 153.003 240.36 153.867 240.36C154.73 240.36 155.433 239.636 155.433 238.745C155.433 237.854 154.73 237.13 153.867 237.13Z" fill="black"/>
<path d="M130.886 240.27C132.1 240.27 133.084 239.256 133.084 238.005C133.084 236.754 132.1 235.74 130.886 235.74C129.673 235.74 128.689 236.754 128.689 238.005C128.689 239.256 129.673 240.27 130.886 240.27Z" fill="#7131A3"/>
<path d="M130.886 240.92C129.326 240.92 128.058 239.611 128.058 238.005C128.058 236.398 129.326 235.089 130.886 235.089C132.447 235.089 133.715 236.398 133.715 238.005C133.715 239.611 132.447 240.92 130.886 240.92Z" fill="#7131A3"/>
<path d="M130.886 236.39C130.023 236.39 129.32 237.114 129.32 238.005C129.32 238.896 130.023 239.62 130.886 239.62C131.75 239.62 132.452 238.896 132.452 238.005C132.452 237.114 131.75 236.39 130.886 236.39Z" fill="black"/>
<path d="M152.924 270.4C152.924 270.4 152.905 270.4 152.896 270.4C152.393 270.383 152 269.962 152.014 269.46L152.956 238.717C152.973 238.215 153.394 237.827 153.894 237.835C154.397 237.851 154.79 238.272 154.777 238.775L153.834 269.517C153.817 270.012 153.413 270.402 152.924 270.402V270.4Z" fill="#CD92E8"/>
<path d="M153.063 274.666C152.085 274.666 150.098 274.092 150.098 273.39L151.284 267.854C151.284 267.152 152.085 266.578 153.063 266.578C154.041 266.578 154.842 267.152 154.842 267.854L155.435 273.39C155.435 274.092 154.041 274.666 153.063 274.666Z" fill="#F9B826"/>
<path d="M129.697 283.991C129.697 283.991 129.681 283.991 129.673 283.991C129.17 283.978 128.774 283.557 128.787 283.054L130.042 237.751C130.056 237.248 130.479 236.841 130.977 236.866C131.479 236.879 131.876 237.3 131.862 237.803L130.608 283.106C130.594 283.601 130.189 283.994 129.697 283.994V283.991Z" fill="#CD92E8"/>
<path d="M129.837 288.253C128.858 288.253 126.871 287.68 126.871 286.975L128.058 281.439C128.058 280.737 128.858 280.163 129.837 280.163C130.815 280.163 131.616 280.737 131.616 281.439L132.209 286.975C132.209 287.677 130.815 288.253 129.837 288.253Z" fill="#F9B826"/>
<path d="M116.431 168.484C116.431 169.727 115.455 170.733 114.25 170.733C113.045 170.733 112.069 169.725 112.069 168.484C112.069 167.244 113.045 166.235 114.25 166.235C115.455 166.235 116.431 167.244 116.431 168.484Z" fill="#FCEBA4"/>
<path d="M129.312 174.028C129.312 174.438 128.99 174.768 128.593 174.768C128.197 174.768 127.875 174.438 127.875 174.028C127.875 173.618 128.197 173.287 128.593 173.287C128.99 173.287 129.312 173.618 129.312 174.028Z" fill="#F4602A"/>
<path d="M125.363 176.99C125.363 177.4 125.04 177.731 124.644 177.731C124.248 177.731 123.925 177.4 123.925 176.99C123.925 176.58 124.248 176.25 124.644 176.25C125.04 176.25 125.363 176.58 125.363 176.99Z" fill="#F4602A"/>
<path d="M130.75 178.1C130.75 178.509 130.427 178.84 130.031 178.84C129.635 178.84 129.312 178.509 129.312 178.1C129.312 177.69 129.635 177.359 130.031 177.359C130.427 177.359 130.75 177.69 130.75 178.1Z" fill="#F4602A"/>
<path d="M146.905 175.509C146.905 175.919 146.583 176.25 146.186 176.25C145.79 176.25 145.468 175.919 145.468 175.509C145.468 175.099 145.79 174.769 146.186 174.769C146.583 174.769 146.905 175.099 146.905 175.509Z" fill="#F4602A"/>
<path d="M154.807 173.288C154.807 173.697 154.484 174.028 154.088 174.028C153.692 174.028 153.369 173.697 153.369 173.288C153.369 172.878 153.692 172.547 154.088 172.547C154.484 172.547 154.807 172.878 154.807 173.288Z" fill="#F4602A"/>
<path d="M123.209 172.178C123.209 172.588 122.887 172.919 122.49 172.919C122.094 172.919 121.772 172.588 121.772 172.178C121.772 171.768 122.094 171.438 122.49 171.438C122.887 171.438 123.209 171.768 123.209 172.178Z" fill="#F4602A"/>
<path d="M156.6 167.735C156.6 168.145 156.277 168.475 155.881 168.475C155.485 168.475 155.162 168.145 155.162 167.735C155.162 167.325 155.485 166.994 155.881 166.994C156.277 166.994 156.6 167.325 156.6 167.735Z" fill="#F4602A"/>
<path d="M133.622 171.806C133.622 172.216 133.3 172.547 132.903 172.547C132.507 172.547 132.185 172.216 132.185 171.806C132.185 171.397 132.507 171.066 132.903 171.066C133.3 171.066 133.622 171.397 133.622 171.806Z" fill="#F4602A"/>
<path d="M127.877 169.957C127.877 170.367 127.555 170.698 127.158 170.698C126.762 170.698 126.44 170.367 126.44 169.957C126.44 169.547 126.762 169.217 127.158 169.217C127.555 169.217 127.877 169.547 127.877 169.957Z" fill="#F4602A"/>
<path d="M145.828 169.216C145.828 169.626 145.506 169.956 145.11 169.956C144.713 169.956 144.391 169.626 144.391 169.216C144.391 168.806 144.713 168.475 145.11 168.475C145.506 168.475 145.828 168.806 145.828 169.216Z" fill="#F4602A"/>
<path d="M151.573 166.995C151.573 167.404 151.251 167.735 150.855 167.735C150.458 167.735 150.136 167.404 150.136 166.995C150.136 166.585 150.458 166.254 150.855 166.254C151.251 166.254 151.573 166.585 151.573 166.995Z" fill="#F4602A"/>
<path d="M150.139 172.178C150.139 172.588 149.816 172.919 149.42 172.919C149.023 172.919 148.701 172.588 148.701 172.178C148.701 171.768 149.023 171.438 149.42 171.438C149.816 171.438 150.139 171.768 150.139 172.178Z" fill="#F4602A"/>
<path d="M179.826 160.578C179.826 161.822 178.847 162.83 177.642 162.83C176.437 162.83 175.458 161.822 175.458 160.578C175.458 159.335 176.437 158.327 177.642 158.327C178.847 158.327 179.826 159.335 179.826 160.578Z" fill="#FCEBA4"/>
<path d="M136.495 314.69C136.495 314.69 135.891 319.272 136.73 324.256C137.93 331.377 139.974 339.948 135.672 341.82C129.181 344.643 111.331 347.465 103.219 350.285C95.1043 353.108 79.6676 356.717 78.066 345.582C77.2542 339.937 79.3834 340.424 88.6132 337.117C109.046 329.797 105.821 312.627 105.821 312.627L136.495 314.693V314.69Z" fill="#9CB729"/>
<path d="M78.8533 343.699C84.4234 344.374 82.062 349.344 85.2734 350.284C103.025 355.487 109.746 342.803 118.333 342.289C126.197 341.819 135.022 338.997 137.43 334.294C138.255 332.682 138.233 332.414 139.838 336.177C141.442 339.939 140.884 343.68 131.813 348.404C124.592 352.167 120.58 348.404 116.568 348.404C112.556 348.404 109.809 351.525 106.939 354.049C100.519 359.695 84.4726 358.752 78.856 351.227C75.7758 347.098 76.5984 343.429 78.856 343.702L78.8533 343.699Z" fill="#FED53A"/>
<path d="M77.9866 345.553C83.7344 346.227 81.2964 351.198 84.609 352.138C102.921 357.34 109.852 344.656 118.71 344.143C126.822 343.673 135.926 340.85 138.411 336.148C139.263 334.535 139.239 334.265 140.895 338.03C142.551 341.793 141.975 345.533 132.619 350.258C125.169 354.02 121.031 350.258 116.893 350.258C112.755 350.258 109.921 353.378 106.961 355.903C100.338 361.548 83.7835 360.605 77.992 353.08C74.8134 348.952 75.6634 345.282 77.992 345.555L77.9866 345.553Z" fill="#020202"/>
<path d="M189.777 107.289C189.777 107.289 223.687 100.729 238.84 135.969C228.929 122.79 214.318 109.352 193.582 111.473C189.632 107.401 189.774 107.289 189.774 107.289H189.777Z" fill="#AA4E0F"/>
<path d="M196.35 125.378C196.73 125.446 197.132 125.405 197.512 125.236C198.559 124.771 199.043 123.523 198.594 122.443C198.335 121.82 192.125 107.076 182.455 98.1658C181.608 97.3844 180.302 97.4581 179.542 98.3353C178.782 99.2124 178.856 100.557 179.706 101.338C188.703 109.628 194.746 123.979 194.806 124.121C195.093 124.81 195.689 125.26 196.353 125.378H196.35Z" fill="#8E52AA"/>
<path d="M199.748 121.956C200.363 122.066 201.016 121.888 201.505 121.415C202.339 120.615 202.382 119.268 201.606 118.41C201.158 117.915 190.474 106.207 178.448 101.196C177.393 100.756 176.188 101.28 175.762 102.371C175.335 103.461 175.844 104.699 176.901 105.138C188.091 109.8 198.488 121.197 198.591 121.312C198.911 121.664 199.321 121.88 199.748 121.956Z" fill="#F98506"/>
<path d="M204.602 138.922C204.602 138.922 198.518 142.384 188.785 146.174C187.449 146.693 167.415 143.261 165.972 142.666C152.519 137.105 182.042 148.633 180.711 149.071C160.136 155.825 129.733 161.055 103.708 146.456C103.536 147.483 107.152 156.596 123.288 158.399L126.281 158.929C126.281 158.929 104.301 161.385 83.0375 153.382C75.7099 154.202 74.2532 172.793 70.4869 167.042C70.4869 167.042 66.6031 138.329 86.2872 115.372C88.6841 112.576 94.8419 100.002 122.129 89.2663C123.671 88.6597 116.578 93.4879 112.115 96.0591C106.887 99.0702 101.861 104.103 103.76 103.049C104.279 101.833 111.498 96.9635 121.61 94.5645C144.213 89.2007 185.557 91.4331 204.604 138.925L204.602 138.922Z" fill="#7C3903"/>
<path d="M94.4838 126.648C94.4838 126.648 117.822 167.735 178.861 148.857C161.268 154.409 118.18 180.321 93.407 126.648H94.4838Z" fill="#3F1A01"/>
<path d="M204.782 138.698C204.782 138.698 182.092 148.117 159.114 135.903C166.655 140.346 182.381 149.524 191.931 144.933C201.481 140.343 204.782 138.698 204.782 138.698Z" fill="#3F1A01"/>
<path d="M76.6748 137.16C76.6748 137.16 86.0112 155.817 98.8651 157.147C81.4879 153.519 76.8907 149.595 76.5327 138.121L76.6775 137.16H76.6748Z" fill="#3F1A01"/>
<path d="M109.923 117.766C109.923 117.766 132.543 138.865 167.371 145.527C141.16 142.937 120.695 131.092 109.923 117.766Z" fill="#3F1A01"/>
<path d="M155.173 98.5183C160.579 99.9774 166.608 103.877 171.681 106.289C176.297 108.486 187.839 120.725 189.274 123.686C189.537 124.227 187.569 124.982 186.383 124.353C120.697 89.6298 183.464 124.599 181.878 124.648C178.946 124.738 176.054 124.678 174.972 124.594C149.42 122.577 137.022 110.555 131.747 104.937C130.424 103.53 127.661 101.1 129.451 99.1631C130.905 97.5893 135.762 97.4827 137.76 97.2504C143.574 96.5728 149.513 96.9909 155.173 98.5183Z" fill="#AA4E0F" stroke="#AA4E0F" stroke-miterlimit="10"/>
<path d="M187.624 294.478C187.624 294.478 188.198 301.732 187.479 301.732C191.786 300.992 210.893 297.265 213.189 294.317L213.471 289.898C213.471 289.898 191.786 293.587 187.621 294.475L187.624 294.478Z" fill="#EDA524"/>
<path d="M101.306 294.33L75.6935 289.469L75.0785 294.316C75.0785 294.316 81.198 298.401 100.155 301.511C101.016 294.551 101.303 293.958 101.303 293.958V294.327L101.306 294.33Z" fill="#EDA524"/>
<path d="M105.821 312.624L105.974 314.318L136.276 317.649L136.853 314.318L105.821 312.624Z" fill="#768903"/>
<path d="M82.6631 268.168L107.524 242.54L81.917 266.938L82.6631 268.168Z" fill="#A02C15"/>
<path d="M202.202 291.798V298.771C202.202 298.771 209.169 296.987 210.101 295.853C210.533 290.339 210.675 290.257 210.675 290.257L202.202 291.798Z" fill="#D88916"/>
<path d="M102.833 191.794C106.948 191.794 110.284 190.013 110.284 187.816C110.284 185.619 106.948 183.837 102.833 183.837C98.7186 183.837 95.3828 185.619 95.3828 187.816C95.3828 190.013 98.7186 191.794 102.833 191.794Z" fill="#F9B180"/>
<path d="M188.665 176.585C189.214 178.708 186.435 181.315 182.458 182.408C178.481 183.501 174.813 182.665 174.264 180.539C173.715 178.416 176.494 175.809 180.471 174.716C184.448 173.623 188.115 174.46 188.665 176.585Z" fill="#F9B180"/>
<path d="M149.778 315.799C149.778 315.799 156.764 316.804 175.63 316.539C177.784 322.463 183.171 334.122 198.969 337.639C195.019 336.158 178.503 330.605 179.58 312.468C175.917 314.135 170.424 315.023 149.778 315.799Z" fill="#768903"/>
<path d="M290.302 173.291L313.288 138.865L274.944 159.424L290.302 173.291Z" fill="#02BBC9"/>
<path d="M300.294 148.544L298.318 146.899L274.944 159.424L279.965 164.094L300.294 148.544Z" fill="#E2A269"/>
<path d="M302.645 150.393L304.615 151.899L290.305 173.43L285.896 169.449L302.645 150.393Z" fill="#F2C38B"/>
<path d="M302.645 150.393L300.294 148.543L279.965 164.093L285.896 169.449L302.645 150.393Z" fill="#FCD9A2"/>
<path d="M187.039 245.296L275.33 159.334L280.266 163.802L191.975 249.761L187.039 245.296Z" fill="#028293"/>
<path d="M191.748 249.555L280.039 163.596L285.888 168.886L197.594 254.845L191.748 249.555Z" fill="#02BBC9"/>
<path d="M197.367 254.64L285.658 168.679L290.597 173.146L202.303 259.105L197.367 254.64Z" fill="#03647A"/>
<path d="M264.583 170.648L289.58 124.288L245.473 153.431L264.583 170.648Z" fill="#F9D606"/>
<path d="M274.81 137.712L272.364 135.679L245.473 153.432L251.729 159.241L274.81 137.712Z" fill="#E2A269"/>
<path d="M277.718 139.989L280.151 141.838L264.597 170.829L259.109 165.886L277.718 139.989Z" fill="#F2C38B"/>
<path d="M277.718 139.989L274.81 137.713L251.729 159.241L259.109 165.886L277.718 139.989Z" fill="#FCD9A2"/>
<path d="M146.881 270.879L245.924 153.295L252.068 158.839L153.028 276.423L146.881 270.879Z" fill="#F9D606"/>
<path d="M152.743 276.166L251.784 158.582L259.062 165.151L160.022 282.735L152.743 276.166Z" fill="#FFE773"/>
<path d="M159.74 282.48L258.781 164.894L264.925 170.44L165.884 288.024L159.74 282.48Z" fill="#E0B603"/>
<path d="M280.203 203.615L310.631 170.302L267.942 185.016L280.203 203.615Z" fill="#9CB729"/>
<path d="M295.569 178.294L293.964 176.056L267.942 185.015L271.919 191.248L295.569 178.294Z" fill="#E2A269"/>
<path d="M297.506 180.835L299.141 182.92L280.175 203.771L276.655 198.429L297.506 180.835Z" fill="#F2C38B"/>
<path d="M297.506 180.834L295.568 178.293L271.919 191.248L276.655 198.428L297.506 180.834Z" fill="#FCD9A2"/>
<path d="M167.087 257.812L268.344 184.999L272.288 190.986L171.031 263.796L167.087 257.812Z" fill="#789324"/>
<path d="M170.848 263.52L272.105 190.707L276.776 197.798L175.518 270.611L170.848 263.52Z" fill="#9CB729"/>
<path d="M175.338 270.335L276.595 197.521L280.539 203.508L179.282 276.319L175.338 270.335Z" fill="#127001"/>
<path d="M262.675 228.569L291.289 203.713L254.968 210.806L262.675 228.569Z" fill="#FF1D1C"/>
<path d="M278.139 208.645L277.106 206.489L254.968 210.806L257.447 216.741L278.139 208.645Z" fill="#E2A269"/>
<path d="M279.405 211.107L280.479 213.132L262.634 228.701L260.421 223.6L279.405 211.107Z" fill="#F2C38B"/>
<path d="M279.405 211.107L278.139 208.645L257.447 216.741L260.42 223.599L279.405 211.107Z" fill="#FCD9A2"/>
<path d="M164.627 260.554L255.296 210.841L257.775 216.56L167.106 266.271L164.627 260.554Z" fill="#EA0606"/>
<path d="M166.991 266.006L257.66 216.295L260.595 223.069L169.926 272.78L166.991 266.006Z" fill="#FF1D1C"/>
<path d="M169.812 272.515L260.481 222.804L262.96 228.52L172.291 278.231L169.812 272.515Z" fill="#D30202"/>
<path d="M196.61 262.222C196.61 262.222 200.696 269.356 200.696 276.548C200.696 279.805 198.652 288.27 188.536 290.68C191.737 288.467 195.894 282.215 197.288 278.502C198.685 274.791 193.202 264.952 193.202 264.952L196.607 262.222H196.61Z" fill="#631C08"/>
<path d="M245.068 170.101L261.317 119.981L222.471 157.338L245.068 170.101Z" fill="#CD92E8"/>
<path d="M249.015 136.044L246.156 134.577L222.471 157.338L229.902 161.683L249.015 136.044Z" fill="#E2A269"/>
<path d="M252.388 137.654L255.2 138.947L245.117 170.276L238.629 166.612L252.388 137.654Z" fill="#F2C38B"/>
<path d="M252.387 137.654L249.015 136.044L229.902 161.683L238.629 166.612L252.387 137.654Z" fill="#FCD9A2"/>
<path d="M139.023 303.426L222.895 157.117L230.165 161.229L146.293 307.538L139.023 303.426Z" fill="#B272CA"/>
<path d="M145.957 307.348L229.828 161.038L238.438 165.907L154.566 312.217L145.957 307.348Z" fill="#CD92E8"/>
<path d="M154.233 312.028L238.102 165.718L245.372 169.828L161.5 316.137L154.233 312.028Z" fill="#9118C4"/>
<path d="M182.185 291.986C182.185 291.986 175.292 292.762 172.258 290.467C169.224 288.171 164.556 285.822 164.253 285.136C163.946 284.45 161.883 282.526 164.468 278.4L168.166 280.381C168.166 280.381 159.623 276.551 165.097 268.982C165.887 269.851 170.32 274.386 170.32 274.386C170.32 274.386 164.253 269.796 165.816 266.984C167.379 264.173 168.177 262.361 169.148 262.733C170.118 263.104 172.351 267.208 172.351 267.208C172.351 267.208 168.888 263.044 170.449 260.23C171.443 258.44 172.31 257.309 173.236 256.607C173.87 256.126 174.767 256.508 174.931 257.303C175.39 259.514 177.134 262.323 179.528 263.145C181.98 263.987 185.609 265.916 185.705 263.787C186.235 252.005 190.933 254.098 191.108 255.735C191.507 259.44 191.111 259.998 191.906 261.91C193.103 264.793 193.869 265.32 194.702 267.263C197.337 273.395 198.395 275.468 197.498 277.969C196.599 280.466 192.469 292.511 182.182 291.991L182.185 291.986Z" fill="#FCDBAC"/>
<path d="M169.91 262.662C169.91 262.662 172.34 268.222 173.327 268.047C174.034 267.922 169.91 262.662 169.91 262.662Z" fill="#D1955A"/>
<path d="M165.103 268.955C165.103 268.955 168.251 273.657 169 273.537C169.749 273.417 165.103 268.955 165.103 268.955Z" fill="#D1955A"/>
<path d="M164.679 278.365C164.679 278.365 167.858 280.898 168.341 280.644C168.825 280.39 164.679 278.365 164.679 278.365Z" fill="#D1955A"/>
<path d="M184.502 265.738C184.931 265.763 185.626 265.784 185.672 265.364C185.918 263.14 185.918 261.495 185.918 261.082C185.519 261.904 185.019 264.301 183.669 264.268C183.144 264.257 182.114 263.768 181.624 263.585C180.222 263.06 179.927 263.14 177.932 262.317C178.331 262.73 182.324 265.61 184.502 265.738Z" fill="#E0944F"/>
<path d="M36.6945 89.3342C34.661 89.1156 31.6546 89.2167 31.6546 89.2167C31.6546 89.2167 28.6946 89.7495 26.7513 90.3916C25.669 100.737 28.3858 148.548 30.8948 165.913C33.4038 183.277 40.6493 229.518 43.8498 262.916C47.0503 296.311 53.1971 292.612 53.1971 292.612C53.1971 292.612 59.9808 294.937 56.1161 261.612C52.2515 228.288 49.6495 181.55 48.4661 164.046C47.2826 146.543 39.925 99.2228 36.6999 89.3369L36.6945 89.3342Z" fill="#E2AB5A"/>
<path d="M48.9526 163.948C50.1361 181.452 52.738 228.19 56.6027 261.514C60.4673 294.839 53.6837 292.513 53.6837 292.513C53.6837 292.513 52.5549 293.194 51.0134 291.338C51.3441 291.33 51.5354 291.218 51.5354 291.218C51.5354 291.218 58.3191 293.543 54.4544 260.219C50.5898 226.895 46.7771 174.99 45.5936 157.486C44.4512 140.597 38.7717 101.119 35.3908 89.1211C36.0058 89.143 36.6317 89.1785 37.1838 89.2386C40.4089 99.1245 47.7692 146.444 48.9499 163.948H48.9526Z" fill="#C1883E"/>
<path d="M26.8662 90.3781C26.8662 90.3781 17.1336 81.8366 16.013 69.549C14.8924 57.2613 15.5237 51.3184 23.0317 33.7599C25.5735 25.437 27.7217 20.2017 27.0958 19.3984C26.4699 18.595 29.3944 20.6772 29.2495 26.1338C29.1074 31.5904 28.651 46.0038 30.6516 44.4846C32.6523 42.9654 30.996 39.2247 30.996 39.2247C30.996 39.2247 34.8415 40.7248 37.2029 45.0939C52.216 72.8798 37.4872 88.5911 37.4872 88.5911C37.4872 88.5911 29.2085 92.0859 26.8662 90.3754V90.3781Z" fill="#784317"/>
<path d="M46.7224 138.747C43.6285 138.52 40.3432 138.569 36.9623 138.93C33.9094 139.255 30.9904 139.81 28.26 140.556C26.8306 120.412 25.9642 96.6706 26.7978 89.733C28.8887 89.0745 32.0728 88.5198 32.0728 88.5198C32.0728 88.5198 35.3033 88.3941 37.4844 88.5963C39.7583 95.2224 43.9018 118.721 46.7224 138.747Z" fill="#A2A5A9"/>
<path d="M46.7005 138.547C45.6318 138.471 44.544 138.424 43.4344 138.416C40.622 118.524 36.5168 95.2907 34.2538 88.722C33.4339 88.6455 32.4691 88.6154 31.5808 88.6099C31.8869 88.5526 32.07 88.5198 32.07 88.5198C32.07 88.5198 35.3006 88.3941 37.4816 88.5936C39.7528 95.1923 43.8853 118.598 46.6977 138.547H46.7005Z" fill="#7D7E7F"/>
<path d="M28.2737 140.709C29.3013 140.409 30.3563 140.135 31.4386 139.892C30.012 119.773 29.151 96.1025 29.9846 89.1759C30.769 88.93 31.7065 88.6977 32.5729 88.501C32.2613 88.5092 32.0755 88.5174 32.0755 88.5174C32.0755 88.5174 28.8914 89.0748 26.8005 89.7306C25.9642 96.6873 26.8361 120.533 28.2737 140.706V140.709Z" fill="#CCCDCE"/>
<path d="M21.3261 59.2093C21.5283 50.8317 23.5153 34.6395 23.4661 34.94C22.8921 38.5523 22.7965 43.9379 22.5942 47.9135C21.2577 74.4179 26.3195 79.8308 27.8009 87.7028C25.6909 87.3476 23.3868 78.4099 22.7391 75.407C21.5939 70.0815 21.1949 64.491 21.3233 59.2066L21.3261 59.2093Z" fill="#512C10"/>
<path d="M18.1585 63.4092C18.1612 57.9253 19.2053 47.2962 19.1779 47.4929C18.8609 49.8674 18.88 53.3922 18.809 55.9962C18.3443 73.3579 21.7088 76.798 22.7884 81.9158C21.4164 81.7245 19.7847 75.9264 19.3201 73.9754C18.4974 70.5162 18.153 66.8684 18.1557 63.4065L18.1585 63.4092Z" fill="#512C10"/>
<path d="M41.1687 64.3439C40.3406 59.7835 37.8726 51.0862 37.9245 51.2474C38.5449 53.1793 39.0615 56.1139 39.5097 58.2698C42.508 72.6477 40.2258 75.973 40.1001 80.3804C41.2125 80.0306 41.6962 74.9812 41.7892 73.2953C41.9532 70.3033 41.6908 67.2211 41.1687 64.3439Z" fill="#512C10"/>
<path d="M38.2087 65.0597C37.1701 58.5675 33.8384 46.1159 33.9095 46.3454C34.7622 49.1161 35.4018 53.2912 35.9812 56.3679C39.8459 76.8664 36.219 81.3776 35.8118 87.5802C37.52 87.1758 38.4984 80.0961 38.7198 77.7271C39.1134 73.5219 38.8619 69.1583 38.206 65.0624L38.2087 65.0597Z" fill="#512C10"/>
<path d="M24.8437 53.5697C25.2537 43.6565 27.637 24.6581 27.5823 25.0106C26.9209 29.2349 26.6886 35.6123 26.3906 40.3066C24.3955 71.6008 29.2823 78.5384 30.5559 88.0253C28.4706 87.386 26.407 76.5493 25.8413 72.9261C24.8382 66.494 24.584 59.8242 24.8437 53.567V53.5697Z" fill="#512C10"/>
<path d="M32.9447 63.431C31.5262 56.7913 27.5823 44.1976 27.6643 44.4326C28.6428 47.2224 29.5283 51.4958 30.2799 54.6326C35.2897 75.5355 32.2942 80.6151 32.368 87.1073C33.904 86.5034 34.2894 79.0358 34.3222 76.5493C34.3796 72.1364 33.8357 67.6225 32.942 63.4337L32.9447 63.431Z" fill="#512C10"/>
<path d="M50.4806 226.07C51.6477 225.482 52.8885 224.455 52.8776 222.873C52.8639 220.788 50.7621 219.534 49.0648 219.703C45.6375 220.045 42.273 220.842 37.3616 221.449C36.1153 221.602 35.186 223.001 34.7296 224.392C34.2732 225.783 34.735 227.769 35.9403 228.302C36.3257 228.471 36.8177 228.548 36.9844 229.007C37.1921 229.575 36.692 230.072 36.2601 230.332C35.0002 231.094 34.3169 231.884 34.008 233.581C33.7675 234.914 34.3879 235.819 35.2079 236.841C36.0278 237.863 35.5085 238.893 35.2707 240.073C34.7542 242.647 35.7108 244.382 35.9294 244.612C36.8833 245.623 36.0907 246.366 35.9923 247.844C35.8966 249.292 37.1976 250.555 38.3291 251.128C39.4579 251.702 41.1388 252.006 42.3195 251.863C46.851 251.32 50.8277 251.41 52.4813 248.861C52.8612 248.276 52.6316 247.022 52.4294 246.273C52.2353 245.56 51.8691 245.068 51.2678 244.953C48.5565 244.439 42.3523 246.478 40.4992 246.002C38.638 245.524 48.2832 243.464 50.0925 242.986C52.3528 242.39 55.1789 241.808 56.2913 240.54C57.6278 239.013 56.8871 236.742 55.1597 235.696C54.5257 235.311 52.2134 235.278 49.3846 235.862C46.3782 236.483 42.0243 236.988 40.89 236.964C38.5559 236.912 50.4451 235.054 53.3231 234.013C54.4901 233.589 55.2691 233.398 56.0589 232.291C56.8488 231.185 56.7504 229.567 56.048 228.255C55.2171 226.703 54.3179 226.925 52.6152 226.887C50.6911 226.843 40.737 229.204 40.1548 228.545C39.0452 227.285 49.3382 226.635 50.4779 226.061L50.4806 226.07Z" fill="#FCDBAC"/>
<path d="M86.4156 46.0066C99.6793 46.0066 110.432 35.9079 110.432 23.4506C110.432 10.9932 99.6793 0.894531 86.4156 0.894531C73.1519 0.894531 62.3996 10.9932 62.3996 23.4506C62.3996 35.9079 73.1519 46.0066 86.4156 46.0066Z" fill="#FF1D1C"/>
<path d="M134.934 37.8283C144.581 37.8283 152.401 30.4834 152.401 21.4229C152.401 12.3625 144.581 5.01758 134.934 5.01758C125.287 5.01758 117.467 12.3625 117.467 21.4229C117.467 30.4834 125.287 37.8283 134.934 37.8283Z" fill="#F9D606"/>
<path d="M170.744 37.312C177.462 37.312 182.909 32.1972 182.909 25.8878C182.909 19.5784 177.462 14.4636 170.744 14.4636C164.025 14.4636 158.578 19.5784 158.578 25.8878C158.578 32.1972 164.025 37.312 170.744 37.312Z" fill="#B272CA"/>
<path d="M205.87 37.5689C205.87 42.2604 201.817 46.0612 196.821 46.0612C191.824 46.0612 187.777 42.2522 187.779 37.5607C187.779 32.8691 191.833 29.0684 196.829 29.0684C201.825 29.0684 205.873 32.8773 205.87 37.5689Z" fill="#9CB729"/>
<path d="M213.676 56.5754C216.948 56.5754 219.601 54.0835 219.601 51.0095C219.601 47.9355 216.948 45.4436 213.676 45.4436C210.403 45.4436 207.75 47.9355 207.75 51.0095C207.75 54.0835 210.403 56.5754 213.676 56.5754Z" fill="#F98506"/>
<path d="M231.315 64.147C231.315 65.7209 229.924 66.9969 228.208 66.9969C226.491 66.9969 225.1 65.7209 225.1 64.147C225.1 62.5732 226.491 61.2971 228.208 61.2971C229.924 61.2971 231.315 62.5732 231.315 64.147Z" fill="#594BDD"/>
<path d="M200.704 119.683C200.704 120.325 200.185 120.845 199.543 120.845C198.9 120.845 198.381 120.325 198.381 119.683C198.381 119.041 198.9 118.522 199.543 118.522C200.185 118.522 200.704 119.041 200.704 119.683Z" fill="#EF6D14"/>
<path d="M200.355 119.683C200.355 119.716 200.355 119.749 200.352 119.779C200.349 119.847 200.352 119.795 200.352 119.779C200.344 119.831 200.33 119.88 200.316 119.932C200.308 119.962 200.297 119.992 200.286 120.019C200.292 120.006 200.316 119.965 200.286 120.019C200.256 120.074 200.226 120.126 200.193 120.175C200.141 120.254 200.221 120.145 200.182 120.189C200.166 120.208 200.15 120.227 200.13 120.243C200.114 120.26 200.01 120.353 200.065 120.309C200.024 120.339 199.983 120.366 199.936 120.391C199.92 120.402 199.901 120.41 199.882 120.418C199.846 120.435 199.846 120.435 199.882 120.418C199.868 120.424 199.852 120.429 199.838 120.435C199.789 120.451 199.74 120.465 199.688 120.475C199.671 120.478 199.6 120.489 199.671 120.481C199.644 120.484 199.617 120.486 199.592 120.486C199.537 120.486 199.485 120.486 199.431 120.481C199.371 120.475 199.51 120.5 199.414 120.478C199.384 120.47 199.354 120.465 199.324 120.456C199.294 120.448 199.264 120.437 199.237 120.429C199.177 120.402 199.223 120.424 199.237 120.429C199.19 120.407 199.146 120.383 199.103 120.355C199.081 120.342 199.062 120.328 199.04 120.312C198.993 120.279 199.095 120.366 199.029 120.301C198.985 120.257 198.941 120.216 198.903 120.169C198.911 120.18 198.944 120.216 198.903 120.169C198.887 120.145 198.87 120.12 198.854 120.093C198.843 120.074 198.78 119.945 198.808 120.011C198.788 119.965 198.772 119.913 198.761 119.863C198.756 119.844 198.753 119.822 198.747 119.803C198.739 119.762 198.742 119.762 198.747 119.803C198.747 119.787 198.745 119.771 198.742 119.754C198.739 119.705 198.739 119.656 198.742 119.609C198.742 119.598 198.758 119.497 198.742 119.577C198.745 119.555 198.75 119.536 198.753 119.514C198.764 119.462 198.78 119.415 198.797 119.363C198.827 119.273 198.764 119.415 198.81 119.333C198.827 119.306 198.838 119.279 198.854 119.254C198.868 119.232 198.881 119.21 198.895 119.191C198.906 119.175 198.947 119.126 198.903 119.178C198.936 119.139 198.969 119.101 199.007 119.068C199.007 119.068 199.081 119.005 199.04 119.036C199.002 119.068 199.078 119.008 199.078 119.008C199.13 118.975 199.182 118.945 199.237 118.918C199.177 118.94 199.223 118.923 199.237 118.918C199.267 118.907 199.294 118.899 199.324 118.891C199.343 118.885 199.365 118.88 199.384 118.874C199.384 118.874 199.483 118.855 199.431 118.863C199.379 118.872 199.483 118.861 199.48 118.861C199.507 118.861 199.535 118.861 199.562 118.861C199.589 118.861 199.617 118.861 199.644 118.863C199.726 118.866 199.606 118.85 199.677 118.869C199.737 118.885 199.797 118.899 199.857 118.918C199.95 118.948 199.822 118.899 199.873 118.923C199.906 118.94 199.936 118.956 199.966 118.973C199.983 118.984 200.002 118.995 200.018 119.005C200.035 119.016 200.051 119.027 200.068 119.041C200.037 119.016 200.037 119.019 200.068 119.041C200.103 119.076 200.139 119.112 200.174 119.148C200.24 119.213 200.141 119.093 200.196 119.172C200.212 119.197 200.229 119.221 200.245 119.249C200.262 119.276 200.275 119.303 200.289 119.328C200.324 119.391 200.278 119.281 200.303 119.358C200.322 119.418 200.338 119.475 200.352 119.538C200.355 119.552 200.36 119.607 200.352 119.538C200.357 119.582 200.357 119.623 200.36 119.667C200.36 119.85 200.518 120.025 200.71 120.016C200.896 120.008 201.062 119.863 201.06 119.667C201.051 119.027 200.655 118.47 200.057 118.246C199.485 118.03 198.786 118.216 198.398 118.689C197.993 119.183 197.914 119.883 198.247 120.437C198.578 120.992 199.218 121.26 199.846 121.145C200.549 121.019 201.049 120.363 201.057 119.664C201.057 119.481 200.896 119.306 200.707 119.314C200.516 119.322 200.36 119.467 200.357 119.664L200.355 119.683Z" fill="#EF6D14"/>
<path d="M196.902 117.931C197.544 117.931 198.064 117.412 198.064 116.77C198.064 116.129 197.544 115.609 196.902 115.609C196.261 115.609 195.741 116.129 195.741 116.77C195.741 117.412 196.261 117.931 196.902 117.931Z" fill="#EF6D14"/>
<path d="M197.714 116.77C197.714 116.803 197.714 116.836 197.712 116.866C197.709 116.934 197.712 116.882 197.712 116.866C197.703 116.918 197.69 116.967 197.676 117.019C197.668 117.049 197.657 117.079 197.646 117.106C197.651 117.093 197.676 117.052 197.646 117.106C197.616 117.161 197.586 117.213 197.553 117.262C197.501 117.341 197.58 117.232 197.542 117.276C197.526 117.295 197.509 117.314 197.49 117.33C197.474 117.347 197.37 117.44 197.425 117.396C197.384 117.426 197.343 117.453 197.296 117.478C197.28 117.489 197.261 117.497 197.241 117.505C197.206 117.522 197.206 117.522 197.241 117.505C197.228 117.511 197.211 117.516 197.198 117.522C197.149 117.538 197.099 117.552 197.047 117.563C197.031 117.565 196.96 117.576 197.031 117.568C197.004 117.571 196.976 117.574 196.952 117.574C196.897 117.574 196.845 117.574 196.79 117.568C196.73 117.563 196.87 117.587 196.774 117.565C196.744 117.557 196.714 117.552 196.684 117.544C196.654 117.535 196.624 117.524 196.596 117.516C196.536 117.489 196.583 117.511 196.596 117.516C196.55 117.494 196.506 117.47 196.463 117.442C196.441 117.429 196.422 117.415 196.4 117.399C196.353 117.366 196.454 117.453 196.389 117.388C196.345 117.344 196.301 117.303 196.263 117.257C196.271 117.268 196.304 117.303 196.263 117.257C196.247 117.232 196.23 117.207 196.214 117.18C196.203 117.161 196.14 117.033 196.167 117.098C196.148 117.052 196.132 117 196.121 116.951C196.115 116.931 196.113 116.91 196.107 116.89C196.099 116.849 196.102 116.849 196.107 116.89C196.107 116.874 196.104 116.858 196.102 116.841C196.099 116.792 196.099 116.743 196.102 116.696C196.102 116.686 196.118 116.584 196.102 116.664C196.104 116.642 196.11 116.623 196.113 116.601C196.124 116.549 196.14 116.502 196.156 116.451C196.186 116.36 196.124 116.502 196.17 116.421C196.186 116.393 196.197 116.366 196.214 116.341C196.227 116.319 196.241 116.298 196.255 116.278C196.266 116.262 196.307 116.213 196.263 116.265C196.296 116.227 196.329 116.188 196.367 116.155C196.367 116.155 196.441 116.093 196.4 116.123C196.361 116.153 196.438 116.095 196.438 116.095C196.49 116.063 196.542 116.033 196.596 116.005C196.536 116.027 196.583 116.011 196.596 116.005C196.626 115.994 196.654 115.986 196.684 115.978C196.703 115.972 196.725 115.967 196.744 115.961C196.744 115.961 196.842 115.942 196.79 115.951C196.739 115.959 196.842 115.948 196.84 115.948C196.867 115.948 196.894 115.948 196.922 115.948C196.949 115.948 196.976 115.948 197.004 115.951C197.086 115.953 196.965 115.937 197.036 115.956C197.097 115.972 197.157 115.986 197.217 116.005C197.31 116.035 197.181 115.986 197.233 116.011C197.266 116.027 197.296 116.043 197.326 116.06C197.343 116.071 197.362 116.082 197.378 116.093C197.394 116.104 197.411 116.115 197.427 116.128C197.397 116.104 197.397 116.106 197.427 116.128C197.463 116.164 197.498 116.199 197.534 116.235C197.599 116.3 197.501 116.18 197.556 116.259C197.572 116.284 197.589 116.309 197.605 116.336C197.621 116.363 197.635 116.39 197.649 116.415C197.684 116.478 197.638 116.369 197.662 116.445C197.681 116.505 197.698 116.563 197.712 116.625C197.714 116.639 197.72 116.694 197.712 116.625C197.717 116.669 197.717 116.71 197.72 116.754C197.72 116.937 197.878 117.112 198.07 117.104C198.255 117.095 198.422 116.951 198.419 116.754C198.411 116.114 198.015 115.557 197.416 115.333C196.845 115.117 196.145 115.303 195.757 115.776C195.353 116.27 195.274 116.97 195.607 117.524C195.938 118.079 196.577 118.347 197.206 118.232C197.908 118.106 198.409 117.451 198.417 116.751C198.417 116.568 198.255 116.393 198.067 116.401C197.876 116.41 197.72 116.554 197.717 116.751L197.714 116.77Z" fill="#EF6D14"/>
<path d="M195.192 114.174C195.192 114.817 194.672 115.336 194.03 115.336C193.388 115.336 192.868 114.817 192.868 114.174C192.868 113.532 193.388 113.013 194.03 113.013C194.672 113.013 195.192 113.532 195.192 114.174Z" fill="#EF6D14"/>
<path d="M194.845 114.175C194.845 114.207 194.845 114.24 194.842 114.27C194.839 114.339 194.842 114.287 194.842 114.27C194.834 114.322 194.82 114.371 194.806 114.423C194.798 114.453 194.787 114.481 194.776 114.511C194.782 114.497 194.806 114.456 194.776 114.511C194.746 114.565 194.716 114.617 194.683 114.666C194.631 114.746 194.711 114.636 194.672 114.68C194.656 114.699 194.64 114.718 194.62 114.735C194.604 114.751 194.5 114.844 194.555 114.8C194.514 114.83 194.473 114.858 194.426 114.882C194.41 114.893 194.391 114.901 194.372 114.91C194.336 114.926 194.336 114.926 194.372 114.91C194.358 114.915 194.342 114.921 194.328 114.926C194.279 114.942 194.23 114.956 194.178 114.967C194.159 114.97 194.09 114.981 194.161 114.972C194.134 114.975 194.107 114.978 194.082 114.978C194.027 114.978 193.975 114.978 193.921 114.972C193.861 114.967 194 114.992 193.904 114.97C193.874 114.962 193.844 114.956 193.814 114.948C193.784 114.94 193.754 114.929 193.727 114.921C193.667 114.893 193.713 114.915 193.727 114.921C193.68 114.899 193.636 114.874 193.593 114.847C193.571 114.833 193.552 114.819 193.53 114.803C193.483 114.77 193.585 114.858 193.519 114.792C193.475 114.748 193.432 114.707 193.393 114.661C193.401 114.672 193.434 114.707 193.393 114.661C193.377 114.636 193.36 114.612 193.344 114.584C193.333 114.565 193.27 114.437 193.298 114.502C193.278 114.456 193.262 114.404 193.251 114.355C193.246 114.336 193.243 114.314 193.237 114.295C193.229 114.254 193.232 114.254 193.237 114.295C193.237 114.278 193.235 114.262 193.232 114.246C193.229 114.196 193.229 114.147 193.232 114.101C193.232 114.09 193.248 113.989 193.232 114.068C193.235 114.046 193.24 114.027 193.243 114.005C193.254 113.953 193.27 113.907 193.287 113.855C193.317 113.765 193.254 113.907 193.3 113.825C193.317 113.797 193.328 113.77 193.344 113.746C193.358 113.724 193.371 113.702 193.385 113.683C193.396 113.666 193.437 113.617 193.393 113.669C193.426 113.631 193.459 113.593 193.497 113.56C193.497 113.56 193.571 113.497 193.53 113.527C193.492 113.557 193.568 113.5 193.568 113.5C193.62 113.467 193.672 113.437 193.727 113.409C193.667 113.431 193.713 113.415 193.727 113.409C193.757 113.399 193.784 113.39 193.814 113.382C193.833 113.377 193.855 113.371 193.874 113.366C193.874 113.366 193.973 113.347 193.921 113.355C193.869 113.363 193.973 113.352 193.97 113.352C193.997 113.352 194.025 113.352 194.052 113.352C194.079 113.352 194.107 113.352 194.134 113.355C194.216 113.358 194.096 113.341 194.167 113.36C194.227 113.377 194.287 113.39 194.347 113.409C194.44 113.44 194.312 113.39 194.363 113.415C194.396 113.431 194.426 113.448 194.456 113.464C194.473 113.475 194.492 113.486 194.508 113.497C194.525 113.508 194.541 113.519 194.558 113.532C194.527 113.508 194.527 113.511 194.558 113.532C194.593 113.568 194.629 113.604 194.664 113.639C194.73 113.705 194.631 113.584 194.686 113.664C194.702 113.688 194.719 113.713 194.735 113.74C194.752 113.767 194.765 113.795 194.779 113.819C194.814 113.882 194.768 113.773 194.793 113.849C194.812 113.91 194.828 113.967 194.842 114.03C194.845 114.043 194.85 114.098 194.842 114.03C194.847 114.073 194.847 114.114 194.85 114.158C194.85 114.341 195.009 114.516 195.2 114.508C195.386 114.5 195.552 114.355 195.55 114.158C195.541 113.519 195.145 112.961 194.547 112.737C193.975 112.521 193.276 112.707 192.888 113.18C192.483 113.675 192.404 114.374 192.737 114.929C193.068 115.483 193.708 115.751 194.336 115.636C195.039 115.511 195.539 114.855 195.547 114.155C195.547 113.972 195.386 113.798 195.197 113.806C195.006 113.814 194.85 113.959 194.847 114.155L194.845 114.175Z" fill="#EF6D14"/>
<path d="M192.169 111.767C192.169 112.409 191.65 112.929 191.007 112.929C190.365 112.929 189.846 112.409 189.846 111.767C189.846 111.125 190.365 110.606 191.007 110.606C191.65 110.606 192.169 111.125 192.169 111.767Z" fill="#EF6D14"/>
<path d="M191.821 111.768C191.821 111.8 191.821 111.833 191.819 111.863C191.816 111.932 191.819 111.88 191.819 111.863C191.811 111.915 191.797 111.964 191.783 112.016C191.775 112.046 191.764 112.076 191.753 112.104C191.759 112.09 191.783 112.049 191.753 112.104C191.723 112.158 191.693 112.21 191.66 112.259C191.608 112.339 191.688 112.229 191.649 112.273C191.633 112.292 191.616 112.311 191.597 112.328C191.581 112.344 191.474 112.437 191.532 112.393C191.491 112.423 191.45 112.451 191.403 112.475C191.387 112.486 191.368 112.494 191.349 112.503C191.313 112.519 191.313 112.519 191.349 112.503C191.335 112.508 191.319 112.514 191.305 112.519C191.256 112.535 191.207 112.549 191.155 112.56C191.135 112.563 191.067 112.574 191.138 112.565C191.111 112.568 191.084 112.571 191.059 112.571C191.004 112.571 190.952 112.571 190.898 112.565C190.838 112.56 190.977 112.585 190.881 112.563C190.851 112.555 190.821 112.549 190.791 112.541C190.761 112.533 190.731 112.522 190.704 112.514C190.643 112.486 190.69 112.508 190.704 112.514C190.657 112.492 190.613 112.467 190.57 112.44C190.548 112.426 190.529 112.412 190.507 112.396C190.46 112.363 190.561 112.451 190.496 112.385C190.452 112.341 190.408 112.3 190.37 112.254C190.378 112.265 190.411 112.3 190.37 112.254C190.354 112.229 190.337 112.205 190.321 112.177C190.31 112.158 190.247 112.03 190.275 112.095C190.255 112.049 190.239 111.997 190.228 111.948C190.223 111.929 190.22 111.907 190.214 111.888C190.206 111.847 190.209 111.847 190.214 111.888C190.214 111.871 190.212 111.855 190.209 111.839C190.206 111.789 190.206 111.74 190.209 111.694C190.209 111.683 190.225 111.582 190.209 111.661C190.212 111.639 190.217 111.62 190.22 111.598C190.231 111.546 190.247 111.5 190.264 111.448C190.294 111.358 190.231 111.5 190.277 111.418C190.294 111.391 190.305 111.363 190.321 111.339C190.335 111.317 190.348 111.295 190.362 111.276C190.373 111.259 190.414 111.21 190.37 111.262C190.403 111.224 190.436 111.186 190.474 111.153C190.474 111.153 190.548 111.09 190.507 111.12C190.469 111.153 190.545 111.093 190.545 111.093C190.597 111.06 190.649 111.03 190.704 111.003C190.643 111.024 190.69 111.008 190.704 111.003C190.734 110.992 190.761 110.983 190.791 110.975C190.81 110.97 190.832 110.964 190.851 110.959C190.851 110.959 190.95 110.94 190.898 110.948C190.846 110.956 190.95 110.945 190.947 110.945C190.974 110.945 191.002 110.945 191.029 110.945C191.056 110.945 191.084 110.945 191.111 110.948C191.193 110.951 191.073 110.934 191.144 110.953C191.204 110.97 191.264 110.983 191.324 111.003C191.417 111.033 191.289 110.983 191.34 111.008C191.373 111.024 191.403 111.041 191.433 111.057C191.45 111.068 191.469 111.079 191.485 111.09C191.502 111.101 191.518 111.112 191.535 111.125C191.504 111.101 191.504 111.104 191.535 111.125C191.57 111.161 191.606 111.197 191.641 111.232C191.707 111.298 191.608 111.177 191.663 111.257C191.679 111.281 191.696 111.306 191.712 111.333C191.729 111.36 191.742 111.388 191.756 111.412C191.791 111.475 191.745 111.366 191.77 111.442C191.789 111.503 191.805 111.56 191.819 111.623C191.821 111.636 191.827 111.691 191.819 111.623C191.824 111.667 191.824 111.707 191.827 111.751C191.827 111.934 191.985 112.109 192.177 112.101C192.363 112.093 192.529 111.948 192.527 111.751C192.518 111.112 192.122 110.554 191.524 110.33C190.952 110.114 190.253 110.3 189.865 110.773C189.46 111.268 189.381 111.967 189.714 112.522C190.045 113.076 190.685 113.344 191.313 113.229C192.016 113.104 192.516 112.448 192.524 111.748C192.524 111.565 192.363 111.391 192.174 111.399C191.983 111.407 191.827 111.552 191.824 111.748L191.821 111.768Z" fill="#EF6D14"/>
<path d="M189.162 109.308C189.162 109.95 188.643 110.469 188.001 110.469C187.358 110.469 186.839 109.95 186.839 109.308C186.839 108.666 187.358 108.147 188.001 108.147C188.643 108.147 189.162 108.666 189.162 109.308Z" fill="#EF6D14"/>
<path d="M188.815 109.308C188.815 109.341 188.815 109.374 188.812 109.404C188.81 109.472 188.812 109.42 188.812 109.404C188.804 109.456 188.791 109.505 188.777 109.557C188.769 109.587 188.758 109.617 188.747 109.644C188.752 109.631 188.777 109.59 188.747 109.644C188.717 109.699 188.687 109.751 188.654 109.8C188.602 109.879 188.681 109.77 188.643 109.814C188.627 109.833 188.61 109.852 188.591 109.868C188.575 109.885 188.468 109.978 188.525 109.934C188.484 109.964 188.443 109.991 188.397 110.016C188.381 110.027 188.361 110.035 188.342 110.043C188.307 110.06 188.307 110.06 188.342 110.043C188.329 110.049 188.312 110.054 188.299 110.06C188.249 110.076 188.2 110.09 188.148 110.101C188.129 110.103 188.061 110.114 188.132 110.106C188.105 110.109 188.077 110.111 188.053 110.111C187.998 110.111 187.946 110.111 187.891 110.106C187.831 110.101 187.971 110.125 187.875 110.103C187.845 110.095 187.815 110.09 187.785 110.081C187.755 110.073 187.725 110.062 187.697 110.054C187.637 110.027 187.684 110.049 187.697 110.054C187.651 110.032 187.607 110.008 187.563 109.98C187.542 109.967 187.522 109.953 187.501 109.937C187.454 109.904 187.555 109.991 187.49 109.926C187.446 109.882 187.402 109.841 187.364 109.794C187.372 109.805 187.405 109.841 187.364 109.794C187.347 109.77 187.331 109.745 187.315 109.718C187.304 109.699 187.241 109.57 187.268 109.636C187.249 109.59 187.233 109.538 187.222 109.488C187.216 109.469 187.214 109.447 187.208 109.428C187.2 109.387 187.203 109.387 187.208 109.428C187.208 109.412 187.205 109.396 187.203 109.379C187.2 109.33 187.2 109.281 187.203 109.234C187.203 109.223 187.219 109.122 187.203 109.202C187.205 109.18 187.211 109.161 187.214 109.139C187.225 109.087 187.241 109.04 187.257 108.988C187.287 108.898 187.224 109.04 187.271 108.958C187.287 108.931 187.298 108.904 187.315 108.879C187.328 108.857 187.342 108.835 187.356 108.816C187.367 108.8 187.408 108.751 187.364 108.803C187.397 108.764 187.429 108.726 187.468 108.693C187.468 108.693 187.542 108.63 187.501 108.661C187.462 108.693 187.539 108.633 187.539 108.633C187.591 108.6 187.643 108.57 187.697 108.543C187.637 108.565 187.684 108.549 187.697 108.543C187.727 108.532 187.755 108.524 187.785 108.516C187.804 108.51 187.826 108.505 187.845 108.499C187.845 108.499 187.943 108.48 187.891 108.488C187.839 108.497 187.943 108.486 187.941 108.486C187.968 108.486 187.995 108.486 188.023 108.486C188.05 108.486 188.077 108.486 188.105 108.488C188.187 108.491 188.066 108.475 188.137 108.494C188.197 108.51 188.258 108.524 188.318 108.543C188.411 108.573 188.282 108.524 188.334 108.549C188.367 108.565 188.397 108.581 188.427 108.598C188.443 108.609 188.463 108.62 188.479 108.63C188.495 108.641 188.512 108.652 188.528 108.666C188.498 108.641 188.498 108.644 188.528 108.666C188.564 108.702 188.599 108.737 188.635 108.773C188.7 108.838 188.602 108.718 188.657 108.797C188.673 108.822 188.689 108.846 188.706 108.874C188.722 108.901 188.736 108.928 188.75 108.953C188.785 109.016 188.739 108.906 188.763 108.983C188.782 109.043 188.799 109.1 188.812 109.163C188.815 109.177 188.821 109.232 188.812 109.163C188.818 109.207 188.818 109.248 188.821 109.292C188.821 109.475 188.979 109.65 189.17 109.641C189.356 109.633 189.523 109.488 189.52 109.292C189.512 108.652 189.116 108.095 188.517 107.871C187.946 107.655 187.246 107.841 186.858 108.314C186.454 108.808 186.374 109.508 186.708 110.062C187.039 110.617 187.678 110.885 188.307 110.77C189.009 110.644 189.509 109.988 189.518 109.289C189.518 109.106 189.356 108.931 189.168 108.939C188.976 108.947 188.821 109.092 188.818 109.289L188.815 109.308Z" fill="#EF6D14"/>
</svg>
