<svg width="1060" height="944" viewBox="0 0 1060 944" fill="none" xmlns="http://www.w3.org/2000/svg">
<path d="M327.481 824.232L314.485 870.273C314.485 870.273 247.482 893.544 249.178 900.128C250.874 906.738 302.686 890.85 302.686 890.85C302.686 890.85 289.939 938.887 296.724 941.356C303.509 943.825 323.765 892.696 323.765 892.696C323.765 892.696 370.288 902.024 373.156 897.634C377.596 890.775 329.277 873.566 329.277 873.566L340.952 824.207H327.456L327.481 824.232Z" fill="white"/>
<path d="M297.423 944C296.874 944 296.375 943.875 295.901 943.7C288.966 941.181 293.556 916.49 299.169 894.516C285.075 898.681 255.24 906.837 248.779 903.246C247.457 902.497 246.958 901.475 246.784 900.752C246.11 898.108 245.187 894.516 280.285 880.4C294.13 874.838 308.274 869.8 312.465 868.328L325.087 823.534C325.386 822.461 326.384 821.713 327.482 821.713H340.977C341.75 821.713 342.449 822.062 342.923 822.661C343.397 823.259 343.571 824.032 343.397 824.781L332.221 871.969C344.045 876.259 373.107 887.533 375.676 895.165C376.125 896.512 375.975 897.858 375.252 899.006C374.329 900.427 371.56 904.692 325.311 895.564C323.665 899.629 319.574 909.481 315.059 919.034C305.056 940.159 300.441 944 297.398 944H297.423ZM302.711 888.356C303.335 888.356 303.958 888.605 304.432 889.054C305.081 889.678 305.355 890.625 305.106 891.498C299.867 911.202 295.801 934.123 297.622 938.712C302.062 935.744 313.238 912.624 321.47 891.798C321.919 890.675 323.066 890.027 324.289 890.276C343.272 894.092 365.448 897.235 370.662 896.187C367.768 892.022 347.188 882.619 328.454 875.96C327.257 875.536 326.584 874.264 326.858 873.042L337.809 826.751H329.353L316.88 870.972C316.655 871.745 316.057 872.393 315.308 872.643C287.819 882.195 258.333 894.217 252.496 899.28C258.882 900.103 282.056 894.616 301.963 888.505C302.212 888.431 302.461 888.406 302.686 888.406L302.711 888.356Z" fill="#231F20"/>
<path d="M483.016 824.232L470.019 870.273C470.019 870.273 403.016 893.544 404.712 900.128C406.409 906.738 458.22 890.85 458.22 890.85C458.22 890.85 445.473 938.887 452.258 941.356C459.043 943.825 479.299 892.696 479.299 892.696C479.299 892.696 525.822 902.024 528.69 897.634C533.131 890.775 484.812 873.566 484.812 873.566L496.486 824.207H482.991L483.016 824.232Z" fill="white"/>
<path d="M452.931 944C452.383 944 451.884 943.875 451.41 943.7C444.475 941.181 449.065 916.49 454.678 894.516C440.583 898.681 410.749 906.837 404.288 903.246C402.966 902.497 402.467 901.475 402.292 900.752C401.619 898.108 400.696 894.516 435.794 880.4C449.639 874.838 463.783 869.8 467.973 868.328L480.596 823.534C480.895 822.461 481.893 821.713 482.99 821.713H496.486C497.259 821.713 497.958 822.062 498.432 822.661C498.906 823.259 499.08 824.032 498.906 824.781L487.73 871.969C499.554 876.259 528.615 887.533 531.185 895.165C531.634 896.512 531.484 897.858 530.761 899.006C529.838 900.427 527.069 904.692 480.82 895.564C479.174 899.629 475.083 909.481 470.568 919.034C460.565 940.159 455.95 944 452.906 944H452.931ZM458.245 888.356C458.868 888.356 459.492 888.605 459.966 889.054C460.614 889.678 460.889 890.625 460.639 891.498C455.401 911.202 451.335 934.123 453.156 938.712C457.596 935.744 468.772 912.624 477.004 891.798C477.453 890.675 478.6 890.027 479.822 890.276C498.806 894.092 520.982 897.235 526.196 896.187C523.302 892.022 502.722 882.619 483.988 875.96C482.791 875.536 482.117 874.264 482.392 873.042L493.343 826.751H484.886L472.414 870.972C472.189 871.745 471.59 872.393 470.842 872.643C443.352 882.195 413.867 894.217 408.03 899.28C414.441 900.103 437.59 894.616 457.496 888.505C457.746 888.431 457.995 888.406 458.22 888.406L458.245 888.356Z" fill="#231F20"/>
<path d="M303.784 767.864C303.784 767.864 307.95 841.566 327.881 841.566C347.812 841.566 376.399 775.571 376.399 775.571L303.784 767.864Z" fill="white"/>
<path d="M327.856 844.035C306.203 844.035 301.713 775.771 301.289 767.989C301.239 767.266 301.539 766.543 302.062 766.044C302.586 765.545 303.31 765.296 304.033 765.37L376.649 773.077C377.447 773.152 378.146 773.626 378.545 774.299C378.944 774.973 378.994 775.821 378.669 776.544C375.676 783.453 348.81 844.035 327.856 844.035ZM306.453 770.658C308.349 798.293 315.533 839.072 327.856 839.072C342.05 839.072 363.827 797.37 372.707 777.691L306.453 770.658Z" fill="#231F20"/>
<path d="M456.399 767.864C456.399 767.864 460.565 841.566 480.496 841.566C500.427 841.566 529.015 775.571 529.015 775.571L456.399 767.864Z" fill="white"/>
<path d="M480.471 844.035C458.819 844.035 454.328 775.771 453.879 767.989C453.83 767.266 454.129 766.543 454.653 766.044C455.177 765.545 455.9 765.296 456.623 765.37L529.239 773.077C530.037 773.152 530.736 773.626 531.135 774.299C531.534 774.973 531.584 775.821 531.26 776.544C528.266 783.453 501.4 844.035 480.446 844.035H480.471ZM459.068 770.658C460.964 798.293 468.148 839.072 480.471 839.072C494.665 839.072 516.442 797.37 525.323 777.691L459.068 770.658Z" fill="#231F20"/>
<path d="M450.786 380.154C450.786 380.154 416.137 63.3757 505.242 61.7295C551.44 63.3757 558.051 109.567 558.051 109.567C558.051 109.567 591.228 62.403 628.447 61.7295C673.548 60.9065 676.84 117.822 676.84 117.822C676.84 117.822 714.458 55.7437 768.14 76.0209C817.632 94.7268 800.594 150.82 800.594 150.82C800.594 150.82 864.953 107.821 901.248 145.332C925.794 170.698 897.955 220.954 897.955 220.954C897.955 220.954 965.607 208.583 992.024 244.873C1018.42 281.162 975.535 324.061 975.535 324.061C975.535 324.061 1044.83 325.707 1056.38 371.898C1067.93 418.09 985.439 451.087 985.439 451.087C985.439 451.087 1049.8 482.438 1034.93 528.629C1020.09 574.82 960.668 581.43 960.668 581.43C960.668 581.43 1003.57 607.817 982.121 644.132C960.668 680.421 904.566 672.191 904.566 672.191C904.566 672.191 958.672 704.864 926.019 739.831C902.92 764.573 844.348 744.77 844.348 744.77C844.348 744.77 877.176 780.585 843.525 805.826C780.812 852.84 553.112 652.387 553.112 652.387L450.811 380.154H450.786Z" fill="white"/>
<path d="M818.879 815.378C735.537 815.378 559.772 661.591 551.416 654.258C551.116 653.984 550.867 653.635 550.717 653.261L448.416 381.027C448.342 380.828 448.292 380.628 448.267 380.429C447.169 370.427 422.099 134.808 475.831 73.7515C484.113 64.3237 493.991 59.4352 505.142 59.2357C543.233 60.5825 555.681 91.1355 559.223 103.806C568.603 91.8837 596.716 59.8343 628.347 59.2357C665.69 58.6371 675.843 95.5751 678.437 111.039C689.488 96.0489 723.812 56.6418 768.988 73.7016C810.323 89.3148 807.13 130.218 804.286 145.607C820.575 136.105 871.314 110.889 902.994 143.612C924.447 165.785 908.632 204.643 902.321 217.762C918.635 215.617 970.846 211.627 993.97 243.402C1016.57 274.453 990.677 310.169 980.774 321.892C997.537 323.288 1048.62 330.895 1058.73 371.3C1069.13 412.952 1008.94 443.355 991.051 451.361C1005.82 459.866 1050.12 489.247 1037.22 529.402C1024.9 567.712 982.645 579.709 966.854 582.901C977.855 591.606 1001.95 615.325 984.191 645.404C967.303 673.962 930.734 676.157 913.446 675.433C922.427 682.417 936.346 695.636 938.591 711.823C940.038 722.273 936.396 732.274 927.765 741.527C908.657 762.004 867.822 753.873 850.934 749.359C855.723 756.393 862.159 768.489 860.962 781.558C860.014 791.709 854.625 800.538 844.947 807.821C837.962 813.059 829.106 815.378 818.829 815.378H818.879ZM555.207 650.916C566.807 661.017 782.958 848.076 842.028 803.831C850.534 797.446 855.249 789.814 856.072 781.134C857.744 763.376 842.652 746.64 842.502 746.466C841.729 745.618 841.629 744.371 842.253 743.423C842.876 742.475 844.049 742.051 845.146 742.425C845.72 742.625 902.471 761.431 924.198 738.135C931.781 730.03 934.974 721.4 933.752 712.521C930.783 691.146 903.568 674.486 903.294 674.336C902.271 673.712 901.847 672.465 902.246 671.368C902.645 670.246 903.768 669.572 904.965 669.747C905.514 669.822 959.67 677.304 980 642.91C999.982 609.115 961.067 584.622 959.396 583.6C958.498 583.051 958.049 581.979 958.273 580.931C958.498 579.884 959.371 579.11 960.418 578.986C960.992 578.911 1018.42 572.002 1032.59 527.906C1046.6 484.284 984.99 453.681 984.366 453.357C983.468 452.933 982.919 452.01 982.969 451.012C982.994 450.015 983.618 449.142 984.541 448.793C985.339 448.468 1064.89 416.07 1054.01 372.522C1043.04 328.676 976.184 326.581 975.51 326.556C974.513 326.556 973.615 325.907 973.265 324.984C972.891 324.062 973.116 322.989 973.814 322.291C974.213 321.867 1014.9 280.464 990.053 246.32C964.859 211.701 899.128 223.249 898.454 223.374C897.506 223.548 896.534 223.149 895.985 222.376C895.436 221.603 895.361 220.555 895.835 219.707C896.109 219.209 922.502 170.773 899.527 147.029C865.103 111.463 802.664 152.441 802.041 152.865C801.168 153.439 800.02 153.414 799.172 152.79C798.324 152.167 797.975 151.069 798.274 150.072C798.948 147.877 814.04 95.9741 767.317 78.3407C716.129 59.0112 679.385 118.496 679.036 119.095C678.462 120.017 677.364 120.491 676.292 120.217C675.244 119.943 674.471 119.045 674.396 117.947C674.271 115.728 670.729 64.199 629.444 64.199C629.145 64.199 628.821 64.199 628.521 64.199C592.974 64.8475 560.446 110.515 560.121 110.989C559.523 111.812 558.5 112.211 557.502 111.986C556.504 111.737 555.756 110.939 555.606 109.916C555.357 108.12 548.696 65.7703 505.192 64.199C495.613 64.3736 486.982 68.6884 479.648 77.0188C428.211 135.456 452.208 369.604 453.256 379.556L555.232 650.891L555.207 650.916Z" fill="#231F20"/>
<path d="M461.513 435.35C461.513 435.35 434.771 190.826 503.545 189.554C539.217 190.826 544.306 226.492 544.306 226.492C544.306 226.492 569.925 190.078 598.662 189.554C633.485 188.906 636.03 232.852 636.03 232.852C636.03 232.852 665.066 184.94 706.5 200.578C744.716 215.019 731.545 258.317 731.545 258.317C731.545 258.317 781.211 225.12 809.25 254.077C828.208 273.656 806.705 312.439 806.705 312.439C806.705 312.439 858.941 302.887 879.321 330.896C899.701 358.905 866.574 392.027 866.574 392.027C866.574 392.027 920.082 393.299 928.987 428.965C937.893 464.631 874.207 490.096 874.207 490.096C874.207 490.096 923.873 514.289 912.424 549.955C900.949 585.62 855.099 590.708 855.099 590.708C855.099 590.708 888.227 611.085 871.663 639.094C855.099 667.103 811.794 660.743 811.794 660.743C811.794 660.743 853.553 685.959 828.358 712.97C810.522 732.075 765.296 716.786 765.296 716.786C765.296 716.786 790.641 744.421 764.648 763.9C716.254 800.19 540.464 645.454 540.464 645.454L461.488 435.325L461.513 435.35Z" fill="white"/>
<path d="M745.764 771.831C681.056 771.831 545.279 653.036 538.818 647.35C538.519 647.075 538.269 646.726 538.12 646.352L459.143 436.222C459.068 436.023 459.018 435.823 458.993 435.624C458.145 427.892 438.763 245.771 480.421 198.458C486.932 191.05 494.69 187.234 503.471 187.06C532.233 188.082 542.31 210.355 545.454 220.805C553.361 210.953 574.64 187.484 598.562 187.06C626.875 186.461 635.207 213.497 637.577 226.242C646.931 213.896 673.148 185.364 707.348 198.258C738.605 210.08 737.283 240.384 735.162 253.204C748.832 245.422 786.924 227.489 810.996 252.356C827.31 269.216 816.185 298.272 811.021 309.296C824.741 307.625 863.706 305.306 881.267 329.449C898.429 353.043 879.92 379.98 871.738 389.906C885.782 391.228 923.649 397.663 931.332 428.391C939.29 460.166 894.887 483.486 879.845 490.37C892.293 497.578 924.697 519.775 914.744 550.752C905.314 580.083 874.357 589.511 861.236 592.23C870.191 599.612 887.179 617.67 873.758 640.416C861.111 661.816 834.42 664.21 820.351 663.936C827.335 669.622 836.989 679.424 838.636 691.321C839.783 699.577 836.914 707.433 830.129 714.716C815.686 730.18 785.602 724.842 771.707 721.3C775.324 726.912 779.59 735.766 778.717 745.294C777.969 753.3 773.728 760.259 766.12 765.97C760.682 770.06 753.747 771.881 745.739 771.881L745.764 771.831ZM542.61 644.033C552.688 652.812 718.125 795.7 763.176 761.955C769.612 757.141 773.179 751.38 773.803 744.845C775.075 731.377 763.6 718.657 763.475 718.532C762.702 717.684 762.602 716.437 763.226 715.489C763.85 714.541 765.022 714.117 766.12 714.491C766.544 714.641 810.023 729.032 826.537 711.324C832.25 705.188 834.694 698.704 833.746 692.019C831.476 675.783 810.722 663.088 810.497 662.938C809.474 662.314 809.05 661.067 809.449 659.97C809.849 658.848 810.996 658.174 812.169 658.349C812.593 658.399 854.027 664.135 869.518 637.897C884.66 612.282 855.074 593.676 853.802 592.903C852.904 592.354 852.455 591.282 852.68 590.234C852.904 589.187 853.777 588.414 854.825 588.289C855.274 588.239 899.228 582.927 910.054 549.256C920.73 516.084 873.609 492.639 873.135 492.39C872.237 491.966 871.688 491.043 871.738 490.045C871.763 489.048 872.386 488.2 873.309 487.826C873.933 487.576 934.874 462.76 926.593 429.613C918.236 396.217 867.048 394.57 866.524 394.57C865.527 394.57 864.653 393.922 864.279 392.999C863.905 392.076 864.13 391.004 864.828 390.306C865.152 389.981 896.184 358.356 877.326 332.417C858.118 306.004 807.703 314.833 807.179 314.933C806.232 315.108 805.259 314.709 804.71 313.936C804.136 313.162 804.086 312.115 804.56 311.267C804.76 310.893 824.941 273.855 807.504 255.847C781.236 228.711 733.466 260.112 732.992 260.437C732.119 261.01 730.972 260.985 730.124 260.362C729.275 259.738 728.926 258.641 729.225 257.643C729.724 255.972 741.224 216.39 705.677 202.972C666.663 188.232 638.499 233.725 638.2 234.198C637.626 235.121 636.529 235.595 635.456 235.321C634.408 235.071 633.635 234.149 633.56 233.051C633.461 231.355 630.717 191.524 598.737 192.098C571.571 192.597 546.626 227.614 546.377 227.963C545.778 228.811 544.755 229.185 543.757 228.961C542.759 228.711 542.011 227.913 541.861 226.891C541.662 225.519 536.598 193.27 503.471 192.098C496.187 192.247 489.826 195.415 484.213 201.8C444.774 246.594 463.059 426.171 463.982 434.826L542.635 644.082L542.61 644.033Z" fill="#231F20"/>
<path d="M491.896 465.703C491.896 465.703 472.688 290.141 522.08 289.219C547.699 290.141 551.341 315.731 551.341 315.731C551.341 315.731 569.726 289.593 590.355 289.219C615.35 288.77 617.171 320.32 617.171 320.32C617.171 320.32 638.026 285.901 667.785 297.15C695.225 307.525 685.771 338.602 685.771 338.602C685.771 338.602 721.443 314.758 741.574 335.559C755.194 349.626 739.753 377.461 739.753 377.461C739.753 377.461 777.245 370.602 791.888 390.729C806.531 410.857 782.733 434.626 782.733 434.626C782.733 434.626 821.149 435.549 827.56 461.138C833.971 486.753 788.221 505.035 788.221 505.035C788.221 505.035 823.893 522.419 815.661 548.009C807.429 573.623 774.501 577.265 774.501 577.265C774.501 577.265 798.274 591.905 786.4 612.008C774.501 632.135 743.42 627.546 743.42 627.546C743.42 627.546 773.404 645.654 755.318 665.033C742.522 678.751 710.043 667.776 710.043 667.776C710.043 667.776 728.228 687.63 709.594 701.622C674.845 727.685 548.622 616.572 548.622 616.572L491.921 465.678L491.896 465.703Z" fill="white"/>
<path d="M696.123 707.957C649.226 707.957 551.565 622.533 546.95 618.468C546.651 618.193 546.402 617.844 546.252 617.47L489.551 466.576C489.477 466.376 489.427 466.177 489.402 465.977C488.803 460.415 474.859 329.349 504.943 295.155C509.757 289.693 515.494 286.849 522.005 286.725C542.036 287.448 549.719 302.163 552.438 310.219C558.725 302.587 573.617 287.024 590.28 286.725C590.48 286.725 590.68 286.725 590.854 286.725C608.615 286.725 616.348 301.989 618.793 313.811C626.376 304.283 644.836 285.827 668.658 294.831C690.486 303.086 690.66 323.588 689.288 333.614C700.139 327.678 726.407 316.33 743.345 333.814C754.844 345.686 747.935 365.589 744.018 374.343C754.919 373.171 781.536 372.298 793.884 389.233C805.932 405.794 794.108 424.55 787.822 432.481C798.898 433.728 824.542 438.916 829.955 460.515C835.592 483.037 805.708 499.623 793.809 505.26C803.563 511.146 825.04 526.933 818.031 548.757C811.495 569.084 790.84 576.292 780.613 578.686C788.82 585.77 797.177 598.664 788.546 613.28C779.84 627.995 762.128 630.464 751.527 630.514C756.416 634.779 762.328 641.439 763.426 649.37C764.274 655.505 762.153 661.367 757.139 666.754C747.086 677.529 726.831 674.61 716.154 672.091C718.574 676.207 720.969 682.043 720.395 688.303C719.846 694.264 716.703 699.427 711.065 703.642C707.074 706.635 701.985 707.982 696.123 707.982V707.957ZM550.717 615.101C585.79 645.878 681.006 719.879 708.072 699.602C712.537 696.259 715.007 692.294 715.431 687.779C716.304 678.401 708.272 669.522 708.197 669.448C707.423 668.6 707.324 667.353 707.947 666.405C708.571 665.457 709.768 665.033 710.841 665.407C711.14 665.507 741.948 675.708 753.497 663.312C757.514 659.022 759.135 654.657 758.486 650.018C756.915 638.695 742.272 629.741 742.122 629.641C741.1 629.018 740.676 627.771 741.075 626.673C741.474 625.551 742.621 624.878 743.794 625.052C744.093 625.102 773.379 629.118 784.28 610.711C794.807 592.903 774.127 579.909 773.229 579.36C772.331 578.811 771.882 577.739 772.107 576.691C772.331 575.644 773.204 574.87 774.252 574.746C774.576 574.721 805.683 570.93 813.316 547.211C820.8 523.94 787.498 507.404 787.174 507.23C786.276 506.806 785.727 505.883 785.777 504.885C785.802 503.888 786.425 503.015 787.348 502.666C787.797 502.491 830.977 484.883 825.19 461.687C819.303 438.193 783.107 437.07 782.733 437.045C781.735 437.045 780.837 436.397 780.488 435.474C780.114 434.551 780.339 433.479 781.037 432.78C781.262 432.556 803.139 410.258 789.943 392.126C776.397 373.495 740.626 379.78 740.276 379.855C739.329 380.03 738.356 379.631 737.807 378.857C737.233 378.084 737.183 377.037 737.657 376.189C737.807 375.914 752.051 349.776 739.877 337.231C721.443 318.2 687.592 340.398 687.268 340.623C686.395 341.196 685.247 341.171 684.399 340.548C683.551 339.924 683.202 338.827 683.501 337.829C683.85 336.657 691.908 308.823 667.012 299.42C639.497 289.019 619.616 321.218 619.416 321.543C618.843 322.465 617.745 322.939 616.673 322.665C615.625 322.415 614.852 321.493 614.777 320.395C614.702 319.223 612.806 291.638 590.979 291.638C590.829 291.638 590.655 291.638 590.505 291.638C571.397 291.987 553.661 316.854 553.486 317.103C552.887 317.926 551.865 318.325 550.867 318.101C549.869 317.851 549.121 317.053 548.971 316.031C548.821 315.058 545.254 292.461 522.08 291.638C517.091 291.738 512.701 293.933 508.809 298.372C480.821 330.172 493.692 457.846 494.441 465.054L550.817 615.051L550.717 615.101Z" fill="#231F20"/>
<path d="M120.761 583.075C120.761 583.075 161.92 812.285 424.395 797.545C659.504 784.351 665.69 636.15 655.413 517.081C647.156 421.381 500.303 304.258 279.188 360.35C58.073 416.443 120.785 583.075 120.785 583.075H120.761Z" fill="white"/>
<path d="M400.846 800.712C278.963 800.712 209.491 745.418 172.173 697.356C130.539 643.782 119.114 587.689 118.341 583.724C116.869 579.583 96.0395 518.452 127.121 458.943C152.141 411.056 203.08 377.061 278.539 357.906C392.639 328.949 502.274 343.789 579.33 398.56C624.93 430.984 654.29 475.204 657.882 516.831C664.069 588.562 663.719 669.546 614.378 726.462C575.787 770.957 513.698 795.001 424.519 800.014C416.412 800.463 408.529 800.687 400.846 800.687V800.712ZM390.868 348.403C355.046 348.403 317.678 353.142 279.787 362.745C205.749 381.525 155.883 414.672 131.562 461.237C100.555 520.622 122.881 581.554 123.105 582.177C123.155 582.327 123.205 582.477 123.23 582.626C123.33 583.2 133.956 640.116 176.264 694.463C212.908 741.527 281.134 795.724 400.921 795.724C408.504 795.724 416.262 795.5 424.27 795.051C512.027 790.112 572.968 766.618 610.636 723.22C658.78 667.726 659.03 587.964 652.943 517.28C649.476 477.075 620.888 434.226 576.486 402.65C526.146 366.86 461.563 348.403 390.918 348.403H390.868Z" fill="#231F20"/>
<path d="M98.2097 145.308C98.2097 145.308 2.49463 184.914 2.49463 193.719C2.49463 202.523 112.528 227.813 112.528 227.813L98.1847 145.333L98.2097 145.308Z" fill="white"/>
<path d="M112.528 230.307C112.354 230.307 112.154 230.307 111.979 230.233C111.705 230.158 84.1155 223.823 56.8752 216.465C0 201.126 0 196.662 0 193.719C0 191.075 0 186.61 49.3168 163.964C73.0149 153.065 97.0122 143.138 97.2617 143.038C97.9601 142.739 98.7584 142.789 99.4319 143.163C100.105 143.537 100.554 144.185 100.679 144.909L115.023 227.389C115.172 228.212 114.898 229.06 114.274 229.634C113.8 230.083 113.202 230.307 112.553 230.307H112.528ZM5.18862 193.569C10.7015 199.106 61.1658 213.298 109.435 224.521L96.2639 148.8C53.7571 166.508 9.5291 187.409 5.18862 193.569Z" fill="#231F20"/>
<path d="M60.8667 161.445C60.8667 161.445 82.1201 207.336 63.6606 242.354C40.9853 285.427 12.6724 312.514 46.4982 333.19C83.9411 356.086 105.569 260.411 94.8921 205.815L84.2155 151.219L60.8667 161.445Z" fill="white"/>
<path d="M57.6238 339.126C53.5327 339.126 49.3669 337.854 45.1761 335.31C16.2395 317.626 29.9594 294.78 47.2964 265.848C51.9612 258.092 56.7756 250.061 61.4404 241.206C79.1016 207.66 58.7962 162.966 58.5966 162.517C58.3222 161.918 58.2973 161.22 58.5218 160.596C58.7712 159.973 59.2452 159.474 59.8439 159.2L83.1927 148.974C83.8911 148.675 84.6894 148.699 85.3629 149.049C86.0364 149.398 86.5104 150.046 86.6601 150.77L97.3366 205.366C105.743 248.29 94.418 318 69.7222 335.16C65.8806 337.829 61.7896 339.176 57.6238 339.176V339.126ZM64.1594 162.716C68.3003 172.693 82.5191 211.925 65.8806 243.501C61.166 252.48 56.3017 260.561 51.6119 268.392C32.3542 300.492 24.1472 316.579 47.8203 331.045C54.6303 335.21 60.8916 335.21 66.9283 331.02C89.5787 315.282 100.53 247.392 92.4723 206.289L82.3944 154.76L64.1844 162.741L64.1594 162.716Z" fill="#231F20"/>
<path d="M299.019 329C289.914 279.516 320.921 228.287 327.008 159.649C329.877 127.699 317.105 99.8148 293.556 80.211C301.314 67.1418 311.068 48.4359 308 41.4523C303.06 30.2787 266.79 44.7446 266.79 44.7446C266.79 44.7446 279.936 24.5671 265.917 17.1596C251.898 9.7271 219.718 26.2382 219.718 26.2382C219.718 26.2382 231.268 9.75204 219.718 3.14262C185.194 -5.48704 127.321 71.9804 127.296 72.0053C107.489 86.2717 90.3271 109.891 84.3901 148.3C84.2654 148.425 84.2654 148.575 84.2654 148.7C82.9433 157.928 82.145 167.979 82.145 178.928C82.145 250.734 138.247 256.545 164.913 274.877C172.846 280.289 178.11 286.749 178.633 296.401C181.926 358.705 120.162 370.851 90.9757 452.683C72.7656 504.162 92.6969 612.781 130.589 616.073C168.605 619.365 168.605 569.882 168.605 569.882C168.605 569.882 182.874 606.171 222.986 597.866C244.639 593.501 234.611 534.64 234.611 534.64C234.611 534.64 261.003 569.882 282.406 559.98C303.135 550.478 289.79 486.728 288.867 482.114C290.837 483.959 314.61 506.007 340.878 485.556C368.467 464.031 304.981 362.022 299.019 329.025V329Z" fill="white"/>
<path d="M134.156 618.717C132.934 618.717 131.661 618.667 130.364 618.542C121.06 617.719 112.503 611.359 104.945 599.612C82.5939 564.894 74.5117 491.691 88.6307 451.81C102.326 413.426 122.856 390.455 140.966 370.202C161.596 347.132 177.86 328.925 176.164 296.501C175.74 288.645 171.823 282.584 163.516 276.922C157.754 272.957 150.445 269.54 142.687 265.898C114.599 252.729 79.6504 236.343 79.6504 178.903C79.6504 168.578 80.3738 158.327 81.7707 148.45C81.7707 148.101 81.8705 147.752 81.9952 147.452C87.3834 113.233 102.026 87.2444 125.525 70.1846C132.609 60.8566 186.142 -7.83152 220.317 0.698374C220.541 0.748256 220.741 0.848021 220.94 0.947786C224.183 2.81838 226.229 5.48709 227.002 8.90403C227.9 12.9445 226.803 17.3092 225.381 20.8259C235.933 16.2866 256.113 9.10356 267.089 14.9149C270.906 16.9351 273.351 19.953 274.373 23.8688C275.82 29.4307 273.949 35.666 272.003 40.1304C283.653 36.1149 305.705 30.1041 310.27 40.4048C311.292 42.6994 314.336 49.5832 296.774 79.6124C320.697 100.314 332.296 128.722 329.502 159.823C326.883 189.453 319.499 216.365 312.989 240.109C304.058 272.657 296.375 300.766 301.464 328.501C303.36 338.976 311.617 357.532 320.372 377.186C340.129 421.531 362.505 471.763 342.399 487.451C321.42 503.788 302.087 494.859 292.583 488.224C296.799 511.644 301.614 553.87 283.428 562.2C266.516 570.007 247.532 552.947 238.277 542.821C240.323 560.23 242.219 596.469 223.485 600.26C193.775 606.421 177.436 588.987 170.426 578.337C169.204 587.391 165.762 601.607 155.983 610.561C150.096 615.948 142.762 618.667 134.131 618.667L134.156 618.717ZM86.685 149.248C85.313 158.876 84.6145 168.877 84.6145 178.928C84.6145 233.2 116.569 248.19 144.783 261.409C152.715 265.125 160.224 268.642 166.31 272.832C175.889 279.367 180.604 286.824 181.103 296.277C182.924 330.745 165.188 350.574 144.658 373.57C126.847 393.498 106.666 416.069 93.3204 453.531C79.8749 491.517 87.8574 563.921 109.111 596.968C115.796 607.344 123.08 612.955 130.788 613.629C139.619 614.377 146.953 612.157 152.615 606.969C165.961 594.748 166.111 570.156 166.111 569.907C166.111 568.71 166.959 567.687 168.131 567.463C169.329 567.238 170.476 567.887 170.925 568.984C171.474 570.381 184.969 603.228 222.487 595.447C238.327 592.254 234.835 550.802 232.141 535.089C231.941 533.941 232.565 532.844 233.613 532.37C234.66 531.921 235.908 532.246 236.606 533.168C236.856 533.493 262.05 566.664 281.358 557.735C295.028 551.475 292.683 513.54 286.497 482.962L286.422 482.612C286.222 481.54 286.696 480.468 287.644 479.944C288.592 479.42 289.765 479.57 290.563 480.293C294.579 484.059 315.857 501.867 339.331 483.585C356.368 470.292 332.92 417.691 315.807 379.281C306.553 358.505 298.545 340.547 296.55 329.473C291.236 300.616 299.094 272.009 308.174 238.887C314.934 214.195 321.944 188.655 324.513 159.474C327.232 129.345 315.658 101.91 291.935 82.1813C290.987 81.4081 290.762 80.0364 291.386 78.9888C307.575 51.753 306.428 44.1959 305.68 42.5248C302.961 36.4142 281.408 41.6518 267.688 47.1389C266.665 47.538 265.518 47.2387 264.844 46.4156C264.146 45.5676 264.096 44.3954 264.67 43.4726C264.744 43.3728 271.48 32.8476 269.509 25.2156C268.86 22.6716 267.289 20.801 264.719 19.4292C254.143 13.8424 229.447 24.0932 220.816 28.5078C219.793 29.0316 218.546 28.7822 217.797 27.9342C217.049 27.0612 216.974 25.8142 217.623 24.8664C219.269 22.5219 223.26 15.264 222.088 10.0763C221.664 8.1558 220.541 6.65932 218.72 5.53697C186.616 -1.87057 131.636 70.4091 129.292 73.5018C129.142 73.7013 128.917 73.9258 128.718 74.0754C106.042 90.387 91.9484 115.503 86.8097 148.724C86.7847 148.924 86.7349 149.099 86.66 149.273L86.685 149.248Z" fill="#231F20"/>
<path d="M373.456 518.727C456.2 411.755 616.598 552.548 586.09 597.916C572.894 620.188 540.714 596.27 540.714 596.27C540.714 596.27 579.504 625.975 566.283 644.107C553.087 662.264 513.474 639.168 513.474 639.168C513.474 639.168 558.351 673.538 528.99 689.5C491.048 710.126 299.443 614.427 373.456 518.752V518.727Z" fill="white"/>
<path d="M514.646 694.813C479.847 694.813 414.316 664.235 379.143 622.932C357.765 597.816 339.081 559.108 371.485 517.206C418.707 456.15 490.898 474.507 538.394 508.776C575.014 535.214 603.651 576.292 588.16 599.313C584.917 604.8 580.202 608.242 574.265 609.439C568.428 610.611 562.142 609.439 556.529 607.444C566.607 618.293 576.91 633.757 568.303 645.579C559.398 657.8 540.664 653.635 527.293 648.447C534.553 656.179 542.161 666.754 541.412 676.506C540.914 682.791 537.147 687.904 530.212 691.67C526.296 693.79 520.982 694.813 514.671 694.813H514.646ZM450.412 482.239C423.371 482.239 396.705 492.789 375.451 520.274C345.093 559.532 362.779 596.021 382.96 619.715C425.192 669.323 506.439 698.953 527.817 687.305C533.255 684.337 536.074 680.696 536.423 676.132C537.621 660.992 512.226 641.339 511.952 641.139C510.904 640.341 510.655 638.87 511.403 637.772C512.127 636.675 513.598 636.35 514.721 636.999C515.095 637.223 552.538 658.748 564.262 642.636C573.916 629.367 549.42 606.097 539.192 598.24C538.095 597.417 537.895 595.846 538.718 594.749C539.542 593.651 541.088 593.427 542.186 594.25C542.36 594.374 559.872 607.219 573.293 604.526C577.858 603.603 581.325 601.034 583.944 596.619C596.167 578.437 574.39 540.876 535.475 512.792C511.353 495.383 480.646 482.189 450.412 482.189V482.239Z" fill="#231F20"/>
<path d="M401.121 527.308C458.57 453.033 550.493 543.046 529.289 574.547C520.135 590.01 497.784 573.399 497.784 573.399C497.784 573.399 524.7 594.026 515.545 606.621C506.39 619.216 478.875 603.179 478.875 603.179C478.875 603.179 510.032 627.048 489.651 638.122C463.309 652.438 349.708 593.751 401.121 527.308Z" fill="white"/>
<path d="M479.199 642.736C458.046 642.736 422.798 626.898 402.068 602.53C381.039 577.814 380.017 550.578 399.175 525.811C430.955 484.708 472.963 492.215 501.675 512.942C528.441 532.271 541.787 560.529 531.41 575.968C529.065 579.934 525.622 582.453 521.282 583.326C517.964 583.974 514.497 583.6 511.204 582.727C517.69 590.284 523.352 600.261 517.615 608.142C511.778 616.173 500.253 614.502 491.073 611.409C495.513 616.622 499.554 623.132 499.081 629.218C498.706 633.857 495.962 637.598 490.898 640.366C487.905 641.987 483.914 642.761 479.249 642.761L479.199 642.736ZM401.12 527.308L403.091 528.829C380.59 557.936 392.165 583.201 405.835 599.263C429.383 626.923 473.736 643.908 488.454 635.927C491.996 634.006 493.817 631.662 494.042 628.794C494.69 620.413 482.218 608.89 477.353 605.174C476.305 604.376 476.056 602.905 476.804 601.807C477.528 600.71 479 600.385 480.122 601.034C487.232 605.174 507.088 613.978 513.499 605.149C519.835 596.445 503.196 580.707 496.237 575.369C495.139 574.546 494.94 572.975 495.763 571.878C496.586 570.78 498.133 570.556 499.23 571.379C499.355 571.479 511.279 580.183 520.209 578.387C523.153 577.789 525.398 576.118 527.094 573.274C535.775 560.38 522.429 534.117 498.656 516.957C471.84 497.603 432.626 490.544 403.041 528.829L401.07 527.308H401.12Z" fill="#231F20"/>
<path d="M158.253 234.123C198.302 234.123 230.769 200.735 230.769 159.549C230.769 118.363 198.302 84.9746 158.253 84.9746C118.203 84.9746 85.7368 118.363 85.7368 159.549C85.7368 200.735 118.203 234.123 158.253 234.123Z" fill="white"/>
<path d="M158.253 236.617C116.893 236.617 83.2422 202.049 83.2422 159.549C83.2422 117.049 116.893 82.4805 158.253 82.4805C199.612 82.4805 233.263 117.049 233.263 159.549C233.263 202.049 199.612 236.617 158.253 236.617ZM158.253 87.4687C119.637 87.4687 88.2312 119.793 88.2312 159.549C88.2312 199.305 119.637 231.629 158.253 231.629C196.868 231.629 228.274 199.305 228.274 159.549C228.274 119.793 196.868 87.4687 158.253 87.4687Z" fill="#231F20"/>
<path d="M151.667 222.301C142.238 218.809 137.424 208.334 140.916 198.906C144.408 189.478 154.885 184.665 164.315 188.157C173.744 191.648 178.558 202.124 175.066 211.551C171.574 220.979 161.097 225.793 151.667 222.301Z" fill="white"/>
<path d="M157.953 225.917C155.559 225.917 153.139 225.493 150.794 224.62C140.093 220.654 134.605 208.733 138.571 198.033C140.492 192.845 144.308 188.73 149.347 186.41C154.361 184.091 159.999 183.891 165.163 185.812C170.351 187.732 174.467 191.548 176.787 196.586C179.082 201.599 179.307 207.236 177.386 212.424C174.293 220.754 166.36 225.917 157.953 225.917ZM152.515 219.956C160.623 222.949 169.678 218.809 172.696 210.678C174.143 206.737 173.993 202.472 172.247 198.656C170.501 194.84 167.358 191.947 163.441 190.476C159.5 189.029 155.234 189.179 151.418 190.925C147.601 192.67 144.707 195.813 143.236 199.729C141.789 203.67 141.939 207.934 143.685 211.75C145.431 215.566 148.574 218.46 152.49 219.931L152.515 219.956Z" fill="#231F20"/>
<path d="M130.663 130.417C127.77 144.559 136.875 158.401 151.043 161.294C165.187 164.187 179.032 155.084 181.926 140.917C184.819 126.776 175.714 112.933 161.545 110.04C147.401 107.147 133.557 116.25 130.663 130.417Z" fill="white"/>
<path d="M156.307 164.337C154.411 164.337 152.465 164.138 150.545 163.739C143.036 162.193 136.6 157.828 132.385 151.443C128.169 145.058 126.697 137.401 128.244 129.919C131.412 114.43 146.603 104.429 162.069 107.621C177.535 110.789 187.563 125.978 184.37 141.441C181.602 154.984 169.628 164.337 156.307 164.337ZM156.282 112.011C145.281 112.011 135.403 119.743 133.108 130.916C131.836 137.102 133.058 143.412 136.525 148.699C140.018 153.987 145.331 157.578 151.518 158.85C164.314 161.469 176.837 153.214 179.456 140.419C182.076 127.649 173.819 115.103 161.022 112.485C159.425 112.16 157.829 112.011 156.257 112.011H156.282Z" fill="#231F20"/>
<path d="M138.172 133.56C136.151 143.387 142.487 152.989 152.316 155.01C162.144 157.03 171.748 150.695 173.769 140.868C175.789 131.041 169.453 121.439 159.625 119.418C149.796 117.398 140.192 123.733 138.172 133.56Z" fill="black"/>
<path d="M158.452 125.254C157.454 130.168 160.622 134.956 165.512 135.979C170.426 136.977 175.215 133.809 176.238 128.896C177.236 123.982 174.068 119.194 169.179 118.171C164.264 117.173 159.475 120.341 158.452 125.254Z" fill="white"/>
</svg>
