<svg width="144" height="87" viewBox="0 0 144 87" fill="none" xmlns="http://www.w3.org/2000/svg">
<path fill-rule="evenodd" clip-rule="evenodd" d="M134.532 43.9514C134.433 45.7649 132.795 46.9412 131.207 48.093C129.619 49.2448 128.079 50.372 121.875 52.0382C115.671 53.7047 104.8 55.9099 92.9622 54.6847C81.1241 53.4595 68.318 48.8035 59.6317 43.8288C50.9453 38.8541 46.3786 33.5611 44.9147 29.8608C43.4503 26.1606 45.0883 24.0531 47.3964 22.7298C49.7044 21.4066 52.6826 20.8676 55.1643 19.9364C57.646 19.0053 59.6317 17.6817 62.5105 15.746C65.3893 13.81 69.1617 11.2615 73.3562 9.52189C77.5502 7.78191 82.1668 6.85079 88.3216 6.82618C94.4764 6.80158 102.17 7.68387 108.747 10.2323C115.324 12.7808 120.783 16.9958 124.432 21.7741C128.08 26.5527 129.916 31.8949 131.554 35.7913C133.192 39.6876 134.632 42.138 134.533 43.9514H134.532Z" stroke="black" stroke-miterlimit="2.61"/>
<path d="M55.966 20.2185C58.6918 22.8957 61.418 25.5726 65.2154 28.4267C69.0131 31.2804 73.8824 34.3113 78.6287 36.2838C83.3749 38.2562 87.9985 39.1702 93.4581 39.603C98.9177 40.0359 105.213 39.9879 111.455 38.97C117.697 37.952 123.885 35.9639 130.073 33.9759" stroke="black" stroke-miterlimit="2.61"/>
<path d="M72.0374 10.3972C75.4609 13.747 78.8848 17.0964 82.574 19.3737C86.2636 21.6509 90.2186 22.8556 94.1491 23.4098C98.0797 23.9639 101.986 23.8675 105.175 23.4098C108.364 22.952 110.836 22.1329 113.229 21.032C115.622 19.9312 117.937 18.549 120.252 17.1668" stroke="black" stroke-miterlimit="2.61"/>
<path d="M85.4303 21.1113C83.866 22.509 82.3018 23.9066 80.516 26.1385C78.7305 28.3705 76.7234 31.4375 74.716 34.5042" stroke="black" stroke-miterlimit="2.61"/>
<path d="M105.073 23.79C106.097 25.2769 107.121 26.7638 108.162 29.2936C109.204 31.8234 110.264 35.3958 111.323 38.9686" stroke="black" stroke-miterlimit="2.61"/>
<path d="M74.716 34.5042C73.1491 35.4824 71.5823 36.4606 69.9453 38.5441C68.3083 40.6273 66.6012 43.8157 64.8945 47.0042" stroke="black" stroke-miterlimit="2.61"/>
<path d="M111.323 38.9685C112.338 40.4426 113.353 41.9167 114.097 44.2975C114.841 46.6783 115.314 49.9663 115.787 53.2542" stroke="black" stroke-miterlimit="2.61"/>
<path d="M92.2634 39.8613C92.4877 41.5797 92.7119 43.2981 92.4659 45.8279C92.2198 48.3576 91.5038 51.6988 90.7874 55.0399" stroke="black" stroke-miterlimit="2.61"/>
<path d="M62.216 25.5757C59.5068 26.2304 56.7977 26.8848 54.268 28.2241C51.7384 29.5634 49.3879 31.5876 47.0374 33.6114" stroke="black" stroke-miterlimit="2.61"/>
<path d="M52.9655 38.9685C52.4382 40.5623 51.9106 42.1556 50.7935 43.2266C49.6765 44.2972 47.9696 44.8454 46.653 45.8163C45.3363 46.7876 44.4098 48.1825 44.3609 49.9009C44.3119 51.6193 45.1412 53.6616 47.8476 56.0524C50.554 58.4433 55.1382 61.183 58.4054 62.5775C61.673 63.9724 63.6235 64.022 64.9888 63.5988C66.354 63.1753 67.1344 62.279 68.0613 61.7562C68.9877 61.2334 70.0607 61.0837 71.1823 61.1337C72.3039 61.1834 73.4744 61.4327 74.6691 62.0555C75.8637 62.6779 77.0832 63.6742 77.8391 65.8412C78.595 68.0081 78.8876 71.3453 79.1803 74.6828" stroke="black" stroke-miterlimit="2.61"/>
<path fill-rule="evenodd" clip-rule="evenodd" d="M60.516 77.482C60.2161 76.1439 60.7158 73.883 61.8152 72.5218C62.9145 71.1606 64.6132 70.6991 66.0872 70.4454C67.5612 70.1917 68.8103 70.1454 70.933 70.3335C73.0553 70.5217 76.0512 70.9439 77.7749 72.0742C79.4986 73.2045 79.9505 75.0432 80.0516 76.3317C80.1527 77.6202 79.9026 78.3582 79.203 78.9351C78.5035 79.5117 77.3543 79.9271 74.5814 80.0194C71.8085 80.1117 67.4115 79.8808 64.6633 79.558C61.9151 79.2351 60.8162 78.8197 60.5163 77.4816L60.516 77.482Z" stroke="black" stroke-miterlimit="2.61"/>
<path d="M64.8945 63.9685C63.7042 66.6473 62.5139 69.3258 61.3231 72.0042" stroke="black" stroke-miterlimit="2.61"/>
<path fill-rule="evenodd" clip-rule="evenodd" d="M104.266 77.2495C103.966 75.7898 104.466 73.3233 105.565 71.8384C106.664 70.3534 108.363 69.85 109.837 69.5732C111.311 69.2965 112.56 69.2459 114.682 69.4512C116.805 69.6564 119.801 70.1171 121.525 71.3501C123.249 72.5832 123.7 74.589 123.802 75.9946C123.903 77.4003 123.653 78.2053 122.953 78.8347C122.253 79.4636 121.104 79.9169 118.331 80.0176C115.558 80.1183 111.161 79.8668 108.413 79.5142C105.665 79.162 104.566 78.7091 104.266 77.2495Z" stroke="black" stroke-miterlimit="2.61"/>
<path d="M122.93 72.0043C121.903 69.1329 120.876 66.2611 119.593 64.5516C118.309 62.8417 116.77 62.2937 115.382 62.1984C113.993 62.1031 112.757 62.4605 111.685 62.873C110.614 63.2852 109.708 63.753 108.783 65.2417C107.857 66.7307 106.911 69.2415 105.966 71.7518" stroke="black" stroke-miterlimit="2.61"/>
<path d="M77.3945 65.7542C80.869 66.6773 84.343 67.6004 88.5739 68.0619C92.8048 68.5235 97.7917 68.5235 101.114 68.2305C104.436 67.9374 106.094 67.351 107.752 66.765" stroke="black" stroke-miterlimit="2.61"/>
<path d="M119.359 63.9685C122.095 62.3463 124.831 60.7238 127.212 57.599C129.592 54.4738 131.618 49.8463 133.645 45.2185" stroke="black" stroke-miterlimit="2.61"/>
<path d="M57.7517 62.1827C59.6649 59.7834 61.5777 57.384 63.066 54.8544C64.5539 52.3244 65.6173 49.6644 66.6802 47.0042" stroke="black" stroke-miterlimit="2.61"/>
<path d="M77.3946 51.4685C76.9754 53.1381 76.5562 54.8082 75.8122 56.445C75.0681 58.0818 73.9992 59.6859 72.9303 61.2899" stroke="black" stroke-miterlimit="2.61"/>
<path d="M89.8945 54.1472C89.1058 56.8737 88.317 59.6002 87.2752 61.6835C86.2334 63.7669 84.939 65.2069 83.6445 66.6472" stroke="black" stroke-miterlimit="2.61"/>
<path d="M101.502 55.04C101.159 57.3521 100.817 59.6641 99.7753 61.8965C98.7339 64.1284 96.9928 66.2807 95.2517 68.4329" stroke="black" stroke-miterlimit="2.61"/>
<path d="M114.002 54.1472C114.002 55.3197 114.002 56.4925 114.002 57.8316C114.002 59.171 114.002 60.677 114.002 62.1829" stroke="black" stroke-miterlimit="2.61"/>
<path d="M57.7517 42.54C56.733 44.025 55.7147 45.51 54.3259 46.8891C52.9375 48.2682 51.1786 49.5417 50.0509 51.0312C48.9232 52.5208 48.4267 54.2266 47.9302 55.9329" stroke="black" stroke-miterlimit="2.61"/>
<path d="M45.2031 26.0851C44.9167 22.8438 44.6303 19.6025 44.9376 16.0511C45.2449 12.4994 46.1458 8.63786 42.2918 5.41951C38.4386 2.20153 29.8299 -0.372923 22.3225 0.914114C14.8154 2.20153 8.40915 7.35045 5.45611 12.5739C2.50345 17.7974 3.00361 23.0947 4.38002 26.7091C5.75643 30.3232 8.00871 32.2542 10.7863 33.0962C13.5638 33.9377 16.8671 33.6903 19.5198 32.7742C22.1725 31.8581 24.1743 30.2739 25.1754 29.4075C26.1765 28.541 26.1765 28.3923 26.2263 28.4669C26.2762 28.541 26.3763 28.8381 26.4764 29.1352" stroke="black" stroke-miterlimit="2.61"/>
<path d="M8.64453 31.8257C9.50524 34.4584 10.3656 37.0914 13.0653 38.6777C15.765 40.264 20.3034 40.8035 23.178 41.7601C26.0526 42.7167 27.2631 44.0905 29.5827 45.3169C31.9023 46.5432 35.3315 47.6226 37.9791 48.3258C40.6266 49.0289 42.4929 49.3559 44.3588 49.6828" stroke="black" stroke-miterlimit="2.61"/>
<path fill-rule="evenodd" clip-rule="evenodd" d="M29.1803 24.6829C31.6393 24.6829 33.6445 21.6747 33.6445 17.9865C33.6445 14.2982 31.6389 11.29 29.1803 11.29C26.7216 11.29 24.716 14.2982 24.716 17.9865C24.716 21.6747 26.7216 24.6829 29.1803 24.6829Z" stroke="black" stroke-miterlimit="2.61"/>
<path fill-rule="evenodd" clip-rule="evenodd" d="M28.7338 24.6828C30.4552 24.6828 31.8588 22.4768 31.8588 19.772C31.8588 17.0673 30.4552 14.8613 28.7338 14.8613C27.0125 14.8613 25.6088 17.0673 25.6088 19.772C25.6088 22.4768 27.0128 24.6828 28.7338 24.6828Z" fill="black" stroke="black" stroke-miterlimit="2.61"/>
<path fill-rule="evenodd" clip-rule="evenodd" d="M17.5731 10.3972C19.5401 10.3972 21.1445 8.99348 21.1445 7.27222C21.1445 5.55095 19.5401 4.14722 17.5731 4.14722C15.6061 4.14722 14.0017 5.55095 14.0017 7.27222C14.0017 8.99348 15.6061 10.3972 17.5731 10.3972Z" stroke="black" stroke-miterlimit="2.61"/>
<path fill-rule="evenodd" clip-rule="evenodd" d="M12.6624 13.9684C13.8917 13.9684 14.8946 12.9656 14.8946 11.7363C14.8946 10.507 13.8917 9.50415 12.6624 9.50415C11.4331 9.50415 10.4303 10.507 10.4303 11.7363C10.4303 12.9656 11.4331 13.9684 12.6624 13.9684Z" stroke="black" stroke-miterlimit="2.61"/>
<path fill-rule="evenodd" clip-rule="evenodd" d="M41.6803 14.8613C43.1555 14.8613 44.3588 13.6579 44.3588 12.1827C44.3588 10.7076 43.1555 9.50415 41.6803 9.50415C40.205 9.50415 39.0017 10.7076 39.0017 12.1827C39.0017 13.6579 40.205 14.8613 41.6803 14.8613Z" stroke="black" stroke-miterlimit="2.61"/>
<path fill-rule="evenodd" clip-rule="evenodd" d="M39.8945 20.2186C40.8779 20.2186 41.6803 19.4163 41.6803 18.4329C41.6803 17.4496 40.8783 16.6472 39.8945 16.6472C38.9108 16.6472 38.1088 17.4492 38.1088 18.4329C38.1088 19.4167 38.9112 20.2186 39.8945 20.2186Z" stroke="black" stroke-miterlimit="2.61"/>
<path d="M30.966 0.575684C31.0324 2.14584 31.0992 3.71638 32.232 5.11971C33.3644 6.52266 35.5631 7.7584 37.3153 7.71756C39.0678 7.67633 40.374 6.35813 41.6803 5.03993" stroke="black" stroke-miterlimit="2.61"/>
<path d="M63.1088 67.9143C59.269 67.0988 55.4292 66.2836 52.8575 66.8187C50.2858 67.3538 48.9815 69.2395 48.8367 70.7383C48.6917 72.2372 49.7062 73.3491 51.84 73.9421C53.9738 74.5351 57.2281 74.609 60.4816 74.6829" stroke="black" stroke-miterlimit="2.61"/>
<path d="M52.3945 66.6472C52.9399 65.3935 53.4848 64.1395 53.9314 63.2468C54.378 62.3537 54.7258 61.8219 55.0731 61.29" stroke="black" stroke-miterlimit="2.61"/>
<path d="M104.674 77.3614C99.1017 77.2434 93.5297 77.1258 90.9173 76.2038C88.3048 75.2818 88.6528 73.5562 90.2424 72.2873C91.8323 71.0183 94.6638 70.2061 97.4915 70.2186C100.319 70.2308 103.143 71.0677 105.966 71.9051" stroke="black" stroke-miterlimit="2.61"/>
<path d="M92.5731 71.1114C93.4661 70.2184 94.3587 69.3258 95.2517 68.4329" stroke="black" stroke-miterlimit="2.61"/>
<path d="M49.4287 57.7185C35.2174 58.4553 21.0061 59.1917 13.2569 60.3537C5.5078 61.5158 4.22041 63.1031 5.5078 64.8893C6.79518 66.6755 10.6566 68.6597 16.9937 69.7513C23.3308 70.8428 32.1437 71.0413 34.9654 71.7355C37.7876 72.4302 34.619 73.6206 32.6881 75.4562C30.7573 77.2918 30.0641 79.7722 34.0742 81.7565C38.0843 83.7407 46.7981 85.2292 64.9924 85.9238C83.1871 86.6184 110.863 86.5192 125.245 83.8898C139.627 81.2603 140.716 76.101 139.008 73.2236C137.3 70.3463 132.795 69.7509 132.201 69.1061C131.607 68.4613 134.924 67.7666 138.018 66.5264C141.112 65.2862 143.984 63.5 141.817 62.3993C139.65 61.2981 132.444 60.8821 125.238 60.466" stroke="black" stroke-miterlimit="2.61"/>
<path d="M8.42127 61.29C7.48771 55.8714 6.55376 50.4527 6.95397 47.0918C7.35418 43.7306 9.08816 42.4268 10.6733 42.5477C12.2589 42.6685 13.6956 44.2136 13.9565 47.4278C14.2174 50.6421 13.3026 55.5257 12.3878 60.4092" stroke="black" stroke-miterlimit="2.61"/>
<path d="M8.64454 61.0092C6.9583 55.8505 5.27165 50.6922 3.58091 49.8212C1.89058 48.9499 0.195751 52.3662 0.698802 55.253C1.20185 58.1399 3.90278 60.4975 5.23689 61.5083C6.57099 62.5193 6.53827 62.183 6.50555 61.8475" stroke="black" stroke-miterlimit="2.61"/>
<path d="M12.216 58.2901C13.8677 54.5969 15.5189 50.904 16.9599 49.4957C18.4009 48.0874 19.6312 48.964 20.3534 50.5709C21.0755 52.1777 21.2895 54.5149 21.0516 56.1255C20.814 57.7361 20.1245 58.6202 19.435 59.5043" stroke="black" stroke-miterlimit="2.61"/>
<path d="M32.8245 70.7715C32.078 67.7991 31.3316 64.8267 32.3692 63.0335C33.4069 61.2403 36.2284 60.6261 36.9899 62.169C37.751 63.7119 36.4518 67.4117 35.1526 71.1115" stroke="black" stroke-miterlimit="2.61"/>
<path d="M32.7517 63.1938C30.8295 62.513 28.9077 61.8323 27.5686 62.3863C26.2294 62.94 25.4737 64.7285 25.6289 66.3888C25.7844 68.0486 26.8516 69.5802 27.9185 71.1114" stroke="black" stroke-miterlimit="2.61"/>
<path d="M69.3588 14.8613C67.8709 15.7542 66.3829 16.647 64.8945 17.5399" stroke="black" stroke-miterlimit="2.61"/>
<path d="M68.466 17.54C67.2753 18.1353 66.0847 18.7305 64.8945 19.3258" stroke="black" stroke-miterlimit="2.61"/>
<path d="M84.5374 25.5757C83.6445 26.7662 82.7517 27.9566 81.8588 29.1471" stroke="black" stroke-miterlimit="2.61"/>
<path d="M84.5374 27.3613C83.9423 28.5516 83.3468 29.7424 82.7517 30.9328" stroke="black" stroke-miterlimit="2.61"/>
<path d="M98.8231 10.3972C97.3349 10.3972 95.847 10.3972 94.3588 10.3972" stroke="black" stroke-miterlimit="2.61"/>
<path d="M97.0374 12.1829C95.8468 11.8849 94.6566 11.588 93.466 11.29" stroke="black" stroke-miterlimit="2.61"/>
<path d="M57.7517 29.1472C56.2633 30.0401 54.7757 30.9329 53.2874 31.8258" stroke="black" stroke-miterlimit="2.61"/>
<path d="M56.8588 30.9329C55.9658 31.5281 55.0732 32.1233 54.1802 32.7186" stroke="black" stroke-miterlimit="2.61"/>
<path d="M95.2517 42.54C95.5497 44.0284 95.8465 45.5163 96.1445 47.0043" stroke="black" stroke-miterlimit="2.61"/>
<path d="M97.0374 44.3257C97.3344 45.5164 97.6323 46.7068 97.9303 47.8971" stroke="black" stroke-miterlimit="2.61"/>
<path d="M64.8945 80.0399C64.8945 78.8495 64.8945 77.659 64.8945 76.4685" stroke="black" stroke-miterlimit="2.61"/>
<path d="M72.0374 80.0399C72.3348 78.8496 72.6329 77.6589 72.9303 76.4685" stroke="black" stroke-miterlimit="2.61"/>
<path d="M57.7517 74.6827C57.7517 73.7897 57.7517 72.8968 57.7517 72.0042" stroke="black" stroke-miterlimit="2.61"/>
<path d="M53.2874 74.6827C53.2874 73.7897 53.2874 72.8972 53.2874 72.0042" stroke="black" stroke-miterlimit="2.61"/>
<path d="M101.502 76.4686C101.502 75.5756 101.502 74.683 101.502 73.79" stroke="black" stroke-miterlimit="2.61"/>
<path d="M94.3588 76.4686C94.6565 75.5759 94.9541 74.6832 95.2517 73.79" stroke="black" stroke-miterlimit="2.61"/>
<path d="M110.43 79.1471C110.43 77.9568 110.43 76.766 110.43 75.5757" stroke="black" stroke-miterlimit="2.61"/>
<path d="M116.68 80.0399C116.68 78.8496 116.68 77.6589 116.68 76.4685" stroke="black" stroke-miterlimit="2.61"/>
</svg>
