<svg width="402" height="341" viewBox="0 0 402 341" fill="none" xmlns="http://www.w3.org/2000/svg">
<path d="M288.77 302.89C289.31 304.28 289.9 305.61 290.55 306.85C292.3 306.76 293.97 306.57 295.63 306.25C319.84 301.62 336.84 286.65 341.19 266.18C340.9 265.33 340.59 264.49 340.25 263.64C338.89 260.27 336.93 256.79 334.54 253.28C325.33 258.97 314.03 261.9 300.86 261.9C297.74 261.9 294.49 261.73 291.2 261.39C287.87 261.05 284.69 260.31 281.67 259.28C286.92 274.09 290.38 290.29 288.77 302.88V302.89Z" fill="white"/>
<path d="M304.59 319.32C304.16 319.29 303.73 319.25 303.31 319.2C303.73 319.25 304.15 319.29 304.59 319.32Z" fill="#231F20"/>
<path d="M288.97 308.48C288.79 308.15 288.79 307.76 288.97 307.43C289.16 307.11 289.5 306.9 289.87 306.89C290.1 306.89 290.32 306.87 290.54 306.86C289.89 305.61 289.3 304.29 288.76 302.9C288.59 304.25 288.35 305.55 288.06 306.81C291.21 313.45 295.85 318.27 303.23 319.2C297.15 318.41 292.47 314.89 288.95 308.49L288.97 308.48Z" fill="#231F20"/>
<path d="M305.96 319.37C305.5 319.37 305.04 319.36 304.6 319.33C305.04 319.36 305.48 319.38 305.93 319.38C307.46 319.38 309.09 319.22 310.78 318.9C309.11 319.21 307.49 319.37 305.97 319.37H305.96Z" fill="#231F20"/>
<path d="M334.54 253.29C336.93 256.79 338.89 260.27 340.25 263.65C340.59 264.5 340.9 265.34 341.19 266.19C341.21 266.11 341.23 266.02 341.25 265.94C341.35 265.47 341.75 265.11 342.24 265.09C342.71 265.03 343.17 265.36 343.32 265.82C347.4 277.88 346.58 289.78 341.01 299.33C335.24 309.22 324.78 316.1 311.53 318.76C325.2 316.04 335.84 308.86 341.51 298.51C347.11 288.27 347.38 275.61 342.26 262.86C340.84 259.34 338.83 255.73 336.38 252.12C335.78 252.53 335.17 252.92 334.55 253.3L334.54 253.29Z" fill="#231F20"/>
<path d="M305.96 317.21C307.41 317.21 308.97 317.05 310.59 316.74C323.48 314.28 333.62 307.71 339.15 298.23C343.9 290.08 345 280.47 342.39 270.23C336.72 289.72 319.69 303.84 296.04 308.36C294.63 308.63 293.21 308.82 291.74 308.94C295.26 314.5 299.92 317.21 305.96 317.21Z" fill="white"/>
<path d="M341 299.32C346.57 289.77 347.39 277.87 343.31 265.81C343.15 265.35 342.7 265.02 342.23 265.08C341.75 265.11 341.34 265.46 341.24 265.93C341.22 266.01 341.2 266.1 341.18 266.18C336.84 286.66 319.83 301.63 295.62 306.25C293.96 306.57 292.29 306.77 290.54 306.85C290.32 306.86 290.1 306.88 289.87 306.88C289.5 306.89 289.16 307.1 288.97 307.42C288.79 307.75 288.78 308.14 288.97 308.47C292.48 314.87 297.17 318.4 303.25 319.18C303.27 319.18 303.29 319.18 303.31 319.18C303.73 319.23 304.16 319.27 304.59 319.3C305.04 319.33 305.49 319.34 305.95 319.34C307.47 319.34 309.09 319.18 310.76 318.87C310.83 318.86 310.91 318.85 310.98 318.83C311.16 318.8 311.33 318.75 311.51 318.72C324.76 316.06 335.22 309.19 340.99 299.29L341 299.32ZM296.04 308.37C319.69 303.85 336.73 289.73 342.39 270.24C345 280.48 343.9 290.09 339.15 298.24C333.62 307.72 323.48 314.29 310.59 316.75C308.97 317.06 307.41 317.22 305.96 317.22C299.92 317.22 295.26 314.51 291.74 308.95C293.21 308.84 294.63 308.65 296.04 308.37Z" fill="#231F20"/>
<path d="M142.68 296.07C145.93 296.55 149.13 296.79 152.28 296.79C168.74 296.79 182.95 290.19 192.33 278.21C192.44 277.32 192.53 276.42 192.6 275.5C192.79 272.9 192.72 270.1 192.43 267.16C185.84 268.23 178.79 268.85 171.27 268.85C168.83 268.85 166.33 268.78 163.86 268.65C155.81 268.23 147.78 266.77 139.9 264.54C142.25 275.35 143.49 286.47 142.69 296.07H142.68Z" fill="white"/>
<path d="M194.38 279.03C194.3 279.61 194.22 280.18 194.13 280.75C194.22 280.18 194.31 279.61 194.38 279.03Z" fill="#231F20"/>
<path d="M139.98 311.63C139.92 311.61 139.87 311.59 139.82 311.57C139.88 311.59 139.93 311.61 139.98 311.63Z" fill="#231F20"/>
<path d="M155.81 314.2C151.36 314.2 146.74 313.56 142.07 312.28C146.74 313.56 151.36 314.21 155.82 314.21C176.13 314.21 190.72 301.27 194.12 280.82C190.68 301.18 175.84 314.21 155.81 314.21V314.2Z" fill="#231F20"/>
<path d="M192.42 267.17C192.71 270.11 192.78 272.91 192.59 275.51C192.52 276.43 192.43 277.33 192.32 278.22C192.38 278.14 192.44 278.08 192.5 278C192.8 277.61 193.31 277.48 193.76 277.66C194.2 277.84 194.46 278.29 194.41 278.76C194.54 277.74 194.65 276.71 194.73 275.66C194.93 272.88 194.86 269.91 194.55 266.8C193.84 266.93 193.13 267.05 192.41 267.17H192.42Z" fill="#231F20"/>
<path d="M139.77 309.26C140.67 309.61 141.62 309.93 142.64 310.2C147.12 311.42 151.56 312.04 155.81 312.04C174.08 312.04 187.79 300.53 191.63 282.37C181.89 293.09 168.07 298.94 152.27 298.94C149.05 298.94 145.77 298.69 142.45 298.21C142.06 301.51 141.4 304.6 140.43 307.41C140.22 308.03 139.99 308.65 139.75 309.26H139.77Z" fill="white"/>
<path d="M193.77 277.66C193.32 277.48 192.8 277.61 192.51 278C192.45 278.08 192.39 278.15 192.33 278.22C182.95 290.2 168.74 296.8 152.28 296.8C149.14 296.8 145.93 296.55 142.68 296.08C142.68 296.12 142.68 296.17 142.67 296.21C142.81 296.33 142.93 296.48 143 296.67C143.14 297.04 143.06 297.45 142.81 297.74C142.7 297.87 142.59 298.01 142.48 298.15C142.48 298.18 142.48 298.2 142.48 298.23C145.8 298.71 149.08 298.96 152.3 298.96C168.1 298.96 181.92 293.11 191.66 282.39C187.82 300.55 174.11 312.06 155.84 312.06C151.58 312.06 147.15 311.44 142.67 310.22C141.65 309.95 140.7 309.63 139.8 309.28C139.65 309.66 139.49 310.04 139.34 310.42C139.34 310.43 139.34 310.44 139.34 310.45C139.32 310.51 139.29 310.56 139.27 310.61C139.18 310.83 139.08 311.04 138.99 311.25C139.28 311.36 139.57 311.47 139.87 311.58C139.93 311.6 139.98 311.62 140.03 311.64C140.7 311.88 141.39 312.1 142.12 312.29C146.79 313.57 151.41 314.21 155.86 314.21C175.89 314.21 190.73 301.18 194.17 280.82C194.17 280.8 194.17 280.78 194.18 280.76C194.28 280.19 194.36 279.62 194.43 279.04C194.44 278.96 194.46 278.88 194.47 278.79C194.47 278.79 194.47 278.77 194.47 278.76C194.52 278.29 194.26 277.84 193.82 277.66H193.77Z" fill="#231F20"/>
<path d="M142.47 298.14C142.58 298.01 142.69 297.87 142.8 297.73C143.05 297.43 143.13 297.02 142.99 296.66C142.92 296.48 142.81 296.32 142.66 296.2C142.6 296.85 142.54 297.5 142.46 298.14H142.47Z" fill="#231F20"/>
<path d="M27.3299 192.79C18.8399 188.93 12.3699 186.97 8.08989 186.97C5.60989 186.97 3.94989 187.61 3.03989 188.91C1.56989 191.01 1.88989 194.98 3.98989 200.68C13.3099 226.02 41.3099 239.28 64.1499 239.28C71.1899 239.28 77.8299 238.02 83.6599 235.63C83.6299 235.34 83.5999 235.17 83.5999 235.16C83.5799 235.06 83.5899 234.95 83.5999 234.85C68.3199 222.91 56.1399 209.77 49.1099 198.95C47.9799 197.22 47.1399 195.63 46.5499 194.14C44.1499 194.57 41.3399 194.91 38.3899 194.91C34.1399 194.91 30.4099 194.2 27.3199 192.78L27.3299 192.79Z" fill="white"/>
<path d="M83.6699 235.63C77.8399 238.02 71.2 239.28 64.16 239.28C41.32 239.28 13.3199 226.02 3.99995 200.68C1.89995 194.98 1.57995 191.02 3.04995 188.91C3.95995 187.6 5.60995 186.97 8.09995 186.97C12.3699 186.97 18.8499 188.93 27.3399 192.79C30.4399 194.2 34.1599 194.92 38.4099 194.92C41.3499 194.92 44.1699 194.58 46.5699 194.15C46.2899 193.43 46.0799 192.74 45.9199 192.07C43.6799 192.46 41.0899 192.77 38.4099 192.77C34.4699 192.77 31.0399 192.12 28.2299 190.84C13.2199 184.01 4.53995 183.03 1.28995 187.69C-0.630052 190.45 -0.400053 194.94 1.98995 201.43C11.6499 227.7 40.5799 241.44 64.1699 241.44C71.2299 241.44 77.9199 240.22 83.8499 237.89C83.7999 236.85 83.7299 236.08 83.6799 235.63H83.6699Z" fill="#231F20"/>
<path d="M368.05 57.0198C364.64 57.0198 361.33 55.7698 358.19 53.3098C351.32 47.9198 347.34 39.2998 347.54 30.2298C347.61 27.0098 348.23 24.0598 349.26 21.6798C344.09 18.8298 337.46 17.2998 329.86 17.2998C324.06 17.2998 317.97 18.1998 312.26 19.8998C292.57 25.7498 279.77 36.1098 281.27 67.6998C281.28 67.9498 281.2 68.1998 281.05 68.3998C265.63 88.6498 275.19 104.49 287.29 124.55C292.9 133.85 299.27 144.39 303.87 156.65C307.75 166.98 309.05 175.48 307.81 182.06C307.85 182.48 307.87 182.91 307.85 183.35C307.61 189.04 302.46 194.56 297.82 196.42C288.69 200.06 278.41 211.45 267.54 223.51C266.79 224.34 266.03 225.18 265.28 226.01C270.21 232.88 276.03 244.12 280.69 256.62C284.07 257.94 287.65 258.87 291.41 259.25C294.62 259.58 297.8 259.75 300.85 259.75C319.12 259.75 343.25 253.75 354.48 225.19C362.91 203.82 353.17 175.42 324.7 138.39C324.41 138.02 324.4 137.5 324.67 137.12C324.94 136.74 325.43 136.58 325.88 136.71C327.02 137.07 328.32 137.26 329.74 137.26C338.14 137.26 350.12 130.65 355.62 124.72C355.88 124.44 356.26 124.33 356.63 124.4C359.19 124.94 361.79 125.21 364.36 125.21C382.28 125.21 396.98 112.16 399.31 94.1798C401.45 77.6198 391.23 62.9798 373.64 55.8098C371.85 56.5898 369.96 57.0298 368.05 57.0298V57.0198ZM313.41 27.3898C317.02 21.7298 321.87 18.0098 326.06 17.6898C332.09 17.2398 337.09 19.7298 340.64 24.8598C346.45 33.2698 347.25 47.6898 344.33 55.3798C341.65 62.5298 333.9 67.7098 325.91 67.7098C318.68 67.7098 312.94 63.4698 310.16 56.0698C306.66 46.7898 307.88 36.0598 313.41 27.3698V27.3898ZM350.51 122.77C344.04 128.12 337.1 131.44 330.6 132.37C330 132.46 329.4 132.52 328.81 132.57C328.79 132.57 328.76 132.57 328.74 132.57C328.14 132.61 327.54 132.64 326.95 132.64C326.72 132.64 326.5 132.61 326.27 132.61C325.84 132.6 325.41 132.58 324.99 132.55C324.76 132.53 324.53 132.49 324.3 132.47C323.83 132.41 323.37 132.34 322.92 132.26C322.78 132.23 322.64 132.2 322.49 132.17C321.9 132.04 321.32 131.89 320.77 131.7C320.77 131.7 320.76 131.7 320.75 131.7C318.85 131.08 317.18 130.15 315.75 128.94C315.75 128.94 315.73 128.92 315.72 128.92C315.29 128.56 314.89 128.17 314.5 127.76C314.43 127.68 314.35 127.61 314.28 127.53C313.96 127.18 313.67 126.8 313.38 126.41C313.31 126.32 313.23 126.24 313.17 126.14C313.14 126.1 313.12 126.06 313.09 126.02C313.09 126.02 313.09 126.02 313.09 126.01C310.13 121.7 307.78 113.5 313.13 98.7998C313.26 98.4398 313.58 98.1698 313.96 98.1098C314.34 98.0398 314.73 98.1898 314.97 98.4898C315.13 98.6798 330.9 117.94 349.99 120.88C350.41 120.95 350.75 121.25 350.86 121.66C350.97 122.07 350.83 122.5 350.51 122.78V122.77ZM349.5 65.4398C347.06 65.4398 345.42 64.5098 345.42 63.1198C345.42 61.7298 347.1 60.8098 349.5 60.8098C351.9 60.8098 353.58 61.7398 353.58 63.1198C353.58 64.4998 351.94 65.4398 349.5 65.4398ZM363.05 65.8398C360.47 65.8398 357.86 64.8798 357.86 63.0498C357.86 61.4098 360 60.2598 363.05 60.2598C366.1 60.2598 368.25 61.4098 368.25 63.0498C368.25 64.8798 365.63 65.8398 363.05 65.8398Z" fill="white"/>
<path d="M376.07 54.4902C375.29 55.0102 374.48 55.4402 373.65 55.8102C391.24 62.9902 401.46 77.6302 399.32 94.1802C396.99 112.16 382.29 125.21 364.37 125.21C361.8 125.21 359.2 124.94 356.64 124.4C356.27 124.33 355.89 124.44 355.63 124.72C350.13 130.65 338.14 137.26 329.75 137.26C328.33 137.26 327.03 137.08 325.89 136.71C325.45 136.57 324.96 136.73 324.68 137.12C324.41 137.5 324.42 138.02 324.71 138.39C353.18 175.43 362.92 203.82 354.49 225.19C343.26 253.76 319.13 259.75 300.86 259.75C297.81 259.75 294.63 259.58 291.42 259.25C287.66 258.87 284.08 257.93 280.7 256.62C281.03 257.5 281.35 258.39 281.67 259.28C284.7 260.31 287.87 261.05 291.2 261.39C294.49 261.73 297.74 261.9 300.86 261.9C314.03 261.9 325.33 258.97 334.54 253.28C335.16 252.9 335.77 252.5 336.37 252.1C345.25 246.07 352.04 237.32 356.5 225.98C365.06 204.29 355.78 175.93 328.15 139.33C337.07 140.14 350.35 133.26 356.81 126.62C359.32 127.11 361.87 127.36 364.39 127.36C383.41 127.36 399 113.52 401.48 94.4602C403.68 77.3902 393.62 62.2602 376.1 54.4902H376.07Z" fill="#231F20"/>
<path d="M307.83 182.06C309.07 175.48 307.76 166.98 303.89 156.65C299.29 144.39 292.93 133.85 287.31 124.55C275.21 104.5 265.65 88.6597 281.07 68.3997C281.22 68.1996 281.3 67.9496 281.29 67.6996C279.78 36.1096 292.59 25.7496 312.28 19.8996C317.99 18.1996 324.08 17.2996 329.88 17.2996C337.48 17.2996 344.1 18.8296 349.28 21.6796C349.58 20.9896 349.91 20.3596 350.27 19.7696C344.78 16.7596 337.82 15.1396 329.88 15.1396C323.87 15.1396 317.58 16.0696 311.67 17.8296C287.34 25.0596 277.89 39.4297 279.13 67.4097C263.16 88.6697 273.02 105.01 285.48 125.66C291.05 134.88 297.35 145.33 301.88 157.41C304.9 165.46 306.31 172.29 306.14 177.87C307.09 179.11 307.68 180.51 307.84 182.07L307.83 182.06Z" fill="#231F20"/>
<path d="M348.13 63.1204C348.8 63.3004 350.21 63.3004 350.88 63.1204C350.21 62.9404 348.8 62.9404 348.13 63.1204Z" fill="white"/>
<path d="M349.5 60.7998C347.1 60.7998 345.42 61.7498 345.42 63.1098C345.42 64.4698 347.06 65.4298 349.5 65.4298C351.94 65.4298 353.58 64.4998 353.58 63.1098C353.58 61.7198 351.94 60.7998 349.5 60.7998ZM348.13 63.1198C348.8 62.9398 350.21 62.9398 350.88 63.1198C350.21 63.2998 348.8 63.2998 348.13 63.1198Z" fill="#231F20"/>
<path d="M360.14 63.0402C360.53 63.3002 361.54 63.6802 363.06 63.6802C364.58 63.6802 365.6 63.3002 365.98 63.0402C365.62 62.7902 364.66 62.4102 363.06 62.4102C361.46 62.4102 360.5 62.7902 360.14 63.0402Z" fill="white"/>
<path d="M363.05 60.2598C359.99 60.2598 357.86 61.4098 357.86 63.0498C357.86 64.8798 360.47 65.8398 363.05 65.8398C365.63 65.8398 368.25 64.8798 368.25 63.0498C368.25 61.4098 366.11 60.2598 363.05 60.2598ZM363.05 63.6898C361.54 63.6898 360.52 63.3098 360.13 63.0498C360.49 62.7998 361.45 62.4198 363.05 62.4198C364.65 62.4198 365.61 62.7998 365.97 63.0498C365.58 63.3098 364.56 63.6898 363.05 63.6898Z" fill="#231F20"/>
<path d="M335.01 129.12C339.09 127.8 343.3 125.57 347.3 122.56C331.38 119.06 318.49 105.76 314.53 101.29C312.86 106.35 312.05 110.96 312.12 114.95C314.34 114.36 316.5 114.05 318.57 114.05C327.64 114.05 333.7 119.66 335.01 129.12Z" fill="white"/>
<path d="M326.95 132.64C326.71 132.64 326.49 132.62 326.26 132.61C326.49 132.61 326.71 132.64 326.94 132.64C327.53 132.64 328.13 132.61 328.73 132.57C328.13 132.61 327.54 132.64 326.95 132.64Z" fill="#231F20"/>
<path d="M324.98 132.55C324.75 132.53 324.52 132.49 324.29 132.47C324.52 132.5 324.75 132.53 324.98 132.55Z" fill="#231F20"/>
<path d="M314.5 127.75C314.43 127.67 314.35 127.6 314.28 127.52C314.35 127.6 314.42 127.67 314.5 127.75Z" fill="#231F20"/>
<path d="M330.59 132.37C329.99 132.46 329.39 132.52 328.8 132.57C329.39 132.53 329.99 132.46 330.59 132.37Z" fill="#231F20"/>
<path d="M349.99 120.87C330.9 117.93 315.13 98.6796 314.97 98.4796C314.73 98.1796 314.33 98.0196 313.96 98.0996C313.58 98.1696 313.26 98.4296 313.13 98.7896C307.79 113.49 310.13 121.69 313.09 126C311.36 123.45 310.31 120.22 310.04 116.41C310.01 115.91 310.32 115.46 310.79 115.31C311.24 115.17 311.68 115.06 312.12 114.94C312.05 110.95 312.86 106.33 314.53 101.28C318.49 105.75 331.38 119.05 347.3 122.55C343.3 125.56 339.09 127.79 335.01 129.11C335.07 129.54 335.13 129.98 335.17 130.43C335.22 130.95 334.89 131.42 334.39 131.56C333.11 131.92 331.84 132.19 330.6 132.36C337.1 131.43 344.04 128.11 350.51 122.76C350.84 122.49 350.97 122.05 350.86 121.64C350.75 121.23 350.41 120.93 349.99 120.86V120.87Z" fill="#231F20"/>
<path d="M313.18 126.13C313.25 126.22 313.33 126.3 313.39 126.4C313.3 126.27 313.19 126.15 313.1 126.02C313.13 126.06 313.15 126.1 313.18 126.14V126.13Z" fill="#231F20"/>
<path d="M322.909 132.25C322.769 132.22 322.629 132.19 322.479 132.16C322.619 132.19 322.759 132.22 322.909 132.25Z" fill="#231F20"/>
<path d="M315.74 128.93C315.74 128.93 315.72 128.91 315.71 128.91C315.71 128.91 315.73 128.93 315.74 128.93Z" fill="#231F20"/>
<path d="M326.95 130.49C328.85 130.49 330.86 130.23 332.93 129.72C331.86 121.11 326.66 116.2 318.56 116.2C316.56 116.2 314.44 116.51 312.25 117.12C313.15 125.63 318.46 130.48 326.94 130.48L326.95 130.49Z" fill="white"/>
<path d="M335.18 130.43C335.14 129.98 335.08 129.55 335.02 129.11C333.71 119.65 327.65 114.04 318.58 114.04C316.52 114.04 314.35 114.35 312.13 114.94C311.69 115.06 311.25 115.17 310.8 115.31C310.33 115.46 310.01 115.92 310.05 116.41C310.31 120.22 311.36 123.45 313.1 126C313.1 126 313.1 126 313.1 126.01C313.19 126.14 313.3 126.26 313.39 126.39C313.67 126.78 313.97 127.15 314.29 127.51C314.36 127.59 314.43 127.66 314.51 127.74C314.89 128.15 315.3 128.54 315.73 128.9C315.73 128.9 315.75 128.92 315.76 128.92C317.19 130.13 318.87 131.06 320.76 131.68C320.76 131.68 320.77 131.68 320.78 131.68C321.34 131.86 321.91 132.02 322.5 132.15C322.64 132.18 322.78 132.21 322.93 132.24C323.38 132.33 323.84 132.4 324.31 132.45C324.54 132.48 324.76 132.51 325 132.53C325.42 132.57 325.85 132.58 326.28 132.59C326.51 132.59 326.74 132.62 326.97 132.62C327.55 132.62 328.15 132.6 328.75 132.55C328.77 132.55 328.8 132.55 328.82 132.55C329.41 132.51 330.01 132.44 330.61 132.35C331.85 132.17 333.12 131.9 334.4 131.55C334.9 131.41 335.23 130.94 335.18 130.42V130.43ZM318.57 116.2C326.67 116.2 331.86 121.11 332.94 129.72C330.87 130.23 328.86 130.49 326.96 130.49C318.48 130.49 313.17 125.63 312.27 117.13C314.46 116.52 316.57 116.21 318.58 116.21L318.57 116.2Z" fill="#231F20"/>
<path d="M227.72 255.83C227.39 261.4 226.32 268.09 223.79 275.36C222.23 279.82 219.67 284.81 216.96 290.09C212.69 298.42 208.02 307.53 207.01 315.47C208.89 316.41 210.72 317.18 212.56 317.82C222.93 321.38 233.25 323.19 243.25 323.19C259.63 323.19 274.13 318.36 285.19 309.23C285.45 308.37 285.7 307.5 285.91 306.61C291.35 284.05 275.05 243.45 263.86 227.6C262.08 229.56 260.28 231.52 258.46 233.48C254.3 237.91 244.01 247.68 227.72 255.84V255.83Z" fill="white"/>
<path d="M204.68 317.63C204.7 317.17 204.73 316.7 204.77 316.22C204.73 316.69 204.7 317.17 204.68 317.63Z" fill="#231F20"/>
<path d="M205.9 325.3C205.9 325.3 205.94 325.39 205.96 325.44C205.92 325.33 205.87 325.23 205.83 325.12C205.85 325.18 205.87 325.24 205.9 325.3Z" fill="#231F20"/>
<path d="M205.34 315.15C205.65 314.98 206.03 314.98 206.35 315.14C206.57 315.26 206.79 315.36 207.01 315.47C208.01 307.53 212.69 298.42 216.96 290.09C219.67 284.81 222.23 279.82 223.79 275.36C226.33 268.09 227.39 261.4 227.72 255.83C226.98 256.2 226.22 256.57 225.46 256.93C225.07 262.09 224.02 268.16 221.76 274.65C220.25 278.97 217.72 283.9 215.05 289.11C210.56 297.85 205.65 307.44 204.8 315.96C204.84 315.62 205.05 315.32 205.35 315.15H205.34Z" fill="#231F20"/>
<path d="M207.36 328.1C207.36 328.1 207.34 328.08 207.34 328.06C207.34 328.07 207.36 328.08 207.36 328.1Z" fill="#231F20"/>
<path d="M204.85 321.3C204.78 320.82 204.74 320.33 204.71 319.83C204.74 320.32 204.78 320.81 204.85 321.3Z" fill="#231F20"/>
<path d="M204.69 319.48C204.67 318.98 204.66 318.48 204.67 317.96C204.66 318.47 204.67 318.98 204.69 319.48Z" fill="#231F20"/>
<path d="M212.24 333.01C212.06 332.88 211.88 332.76 211.71 332.63C211.88 332.76 212.06 332.89 212.24 333.01Z" fill="#231F20"/>
<path d="M248.05 340.51C247.61 340.55 247.17 340.59 246.72 340.63C247.17 340.6 247.61 340.56 248.05 340.51Z" fill="#231F20"/>
<path d="M205.11 322.68C205.03 322.31 204.96 321.94 204.9 321.57C204.96 321.95 205.03 322.32 205.11 322.68Z" fill="#231F20"/>
<path d="M214.04 334.15C213.77 334 213.51 333.84 213.26 333.68C213.52 333.84 213.77 334 214.04 334.15Z" fill="#231F20"/>
<path d="M211.02 332.09C210.91 332 210.81 331.91 210.71 331.83C210.81 331.92 210.91 332.01 211.02 332.09Z" fill="#231F20"/>
<path d="M205.529 324.27C205.419 323.93 205.319 323.58 205.229 323.22C205.319 323.57 205.419 323.92 205.529 324.27Z" fill="#231F20"/>
<path d="M220.01 336.81C219.42 336.61 218.86 336.39 218.3 336.18C218.85 336.4 219.42 336.61 220.01 336.81Z" fill="#231F20"/>
<path d="M288.77 302.89C290.37 290.3 286.91 274.09 281.67 259.29C281.35 258.4 281.03 257.51 280.7 256.63C276.04 244.13 270.22 232.89 265.29 226.02C264.82 226.54 264.35 227.06 263.87 227.59C275.06 243.44 291.36 284.04 285.92 306.6C285.71 307.49 285.46 308.36 285.2 309.22C285.28 309.16 285.36 309.1 285.43 309.04C285.8 308.73 286.32 308.71 286.72 308.97C287.12 309.23 287.29 309.73 287.15 310.19C281.82 327.27 267.32 338.49 248.61 340.46C268.61 338.41 283.46 326.02 288.02 307.11C288.04 307.01 288.06 306.91 288.09 306.81C288.38 305.55 288.62 304.25 288.79 302.9L288.77 302.89Z" fill="#231F20"/>
<path d="M211.87 319.85C210.19 319.27 208.52 318.59 206.82 317.78C206.56 326.05 211.01 331.47 220.7 334.78C228.1 337.33 235.47 338.62 242.59 338.62C262.15 338.62 277.31 329.12 283.84 312.99C272.78 321.08 258.83 325.33 243.24 325.33C233.01 325.33 222.45 323.48 211.86 319.84L211.87 319.85Z" fill="white"/>
<path d="M287.14 310.18C287.28 309.72 287.11 309.23 286.71 308.96C286.32 308.7 285.79 308.72 285.42 309.03C285.34 309.09 285.26 309.15 285.19 309.21C274.13 318.34 259.63 323.17 243.25 323.17C233.26 323.17 222.93 321.36 212.56 317.8C210.71 317.17 208.89 316.39 207.01 315.45C206.79 315.34 206.57 315.24 206.35 315.12C206.03 314.96 205.66 314.96 205.34 315.13C205.04 315.3 204.84 315.6 204.79 315.94C204.79 315.95 204.79 315.96 204.79 315.97C204.79 316.05 204.79 316.12 204.78 316.2C204.74 316.68 204.71 317.15 204.69 317.61C204.69 317.72 204.68 317.83 204.68 317.94C204.67 318.46 204.68 318.96 204.7 319.46C204.7 319.58 204.71 319.7 204.72 319.81C204.75 320.31 204.8 320.8 204.86 321.28C204.87 321.37 204.89 321.46 204.9 321.54C204.96 321.92 205.03 322.29 205.11 322.65C205.15 322.83 205.19 323.01 205.23 323.19C205.32 323.55 205.42 323.89 205.53 324.24C205.62 324.53 205.73 324.81 205.84 325.09C205.88 325.2 205.92 325.3 205.97 325.41C206.35 326.33 206.8 327.2 207.35 328.03C207.35 328.04 207.37 328.05 207.37 328.07C207.92 328.91 208.55 329.7 209.27 330.45C209.34 330.52 209.41 330.59 209.48 330.66C209.87 331.05 210.28 331.43 210.72 331.8C210.82 331.89 210.92 331.98 211.03 332.06C211.25 332.24 211.49 332.42 211.72 332.59C211.89 332.72 212.07 332.85 212.25 332.97C212.58 333.2 212.91 333.42 213.26 333.64C213.52 333.8 213.77 333.96 214.04 334.11C214.27 334.24 214.5 334.37 214.74 334.5C215.03 334.66 215.33 334.81 215.63 334.96C215.91 335.1 216.19 335.24 216.48 335.37C216.87 335.55 217.26 335.72 217.67 335.89C217.88 335.98 218.09 336.06 218.3 336.15C218.86 336.37 219.42 336.58 220.01 336.78C227.63 339.41 235.23 340.74 242.6 340.74C243.99 340.74 245.37 340.69 246.72 340.59C247.17 340.56 247.61 340.52 248.05 340.47C248.23 340.45 248.41 340.44 248.59 340.42C267.31 338.45 281.8 327.23 287.13 310.15L287.14 310.18ZM283.85 312.99C277.32 329.11 262.16 338.62 242.6 338.62C235.47 338.62 228.11 337.33 220.71 334.78C211.02 331.47 206.57 326.05 206.83 317.78C208.53 318.59 210.19 319.28 211.88 319.85C222.47 323.49 233.03 325.34 243.26 325.34C258.85 325.34 272.8 321.08 283.86 313L283.85 312.99Z" fill="#231F20"/>
<path d="M79.5002 269.77C77.5202 274.06 74.5102 278.78 71.3102 283.78C66.2602 291.68 60.7402 300.33 58.9902 308.16C60.6802 309.2 62.4302 310.13 64.3302 310.98C76.9202 316.68 89.5302 319.57 101.82 319.57C115.17 319.57 127.47 316.02 137.42 309.3C137.77 308.45 138.1 307.6 138.4 306.71C142.22 295.59 140.93 279.34 137.46 263.83C118.72 258.11 100.93 248 85.9102 236.61C86.2802 241.28 86.4902 254.5 79.4902 269.76L79.5002 269.77Z" fill="white"/>
<path d="M104.28 336.52C103.85 336.57 103.43 336.63 102.99 336.67C103.42 336.63 103.85 336.57 104.28 336.52Z" fill="#231F20"/>
<path d="M104.61 336.48C118.89 334.6 130.4 326.95 137.07 314.98C130.4 326.9 118.78 334.57 104.61 336.48Z" fill="#231F20"/>
<path d="M60.5098 324.1C60.1698 323.72 59.8498 323.32 59.5498 322.92C59.8498 323.32 60.1598 323.71 60.5098 324.1Z" fill="#231F20"/>
<path d="M66.1502 328.65C65.6402 328.35 65.1602 328.04 64.7002 327.72C65.1702 328.04 65.6502 328.35 66.1502 328.65Z" fill="#231F20"/>
<path d="M64.4398 327.53C63.4798 326.86 62.5998 326.15 61.7998 325.41C62.5898 326.15 63.4698 326.86 64.4398 327.53Z" fill="#231F20"/>
<path d="M67.7802 329.56C67.2402 329.27 66.7102 328.98 66.2002 328.68C66.7002 328.98 67.2302 329.27 67.7802 329.56Z" fill="#231F20"/>
<path d="M56.7302 308.5C56.1102 311.73 56.1002 314.86 56.9702 317.8C57.0402 318.05 57.1302 318.29 57.2102 318.53C56.1802 315.55 56.0202 312.22 56.7302 308.5Z" fill="#231F20"/>
<path d="M57.3702 307.69C57.7002 307.55 58.0702 307.58 58.3702 307.77C58.5802 307.9 58.7902 308.03 59.0002 308.15C60.7402 300.32 66.2702 291.68 71.3202 283.77C74.5102 278.77 77.5302 274.05 79.5102 269.76C86.5102 254.5 86.3002 241.28 85.9302 236.61C85.1602 236.02 84.3802 235.44 83.6202 234.84C83.6102 234.94 83.6002 235.04 83.6202 235.15C83.6202 235.16 83.6502 235.33 83.6802 235.62C83.7302 236.07 83.8002 236.84 83.8502 237.88C84.1002 243.11 83.8102 255.24 77.5602 268.87C75.6502 273.02 72.6702 277.69 69.5102 282.62C64.2002 290.93 58.3802 300.04 56.7402 308.47C56.8102 308.12 57.0402 307.83 57.3702 307.69Z" fill="#231F20"/>
<path d="M93.3004 336.77C85.6204 336.2 77.6304 334.11 69.9404 330.62C77.7604 334.16 85.6004 336.21 93.3004 336.77Z" fill="#231F20"/>
<path d="M139.22 310.59C139.1 310.87 138.98 311.14 138.86 311.41C138.89 311.35 138.91 311.29 138.94 311.23C139.03 311.02 139.13 310.8 139.22 310.59Z" fill="#231F20"/>
<path d="M138.41 306.72C138.11 307.6 137.77 308.46 137.43 309.31C137.52 309.25 137.61 309.19 137.7 309.13C138.09 308.86 138.62 308.88 138.99 309.18C139.35 309.47 139.48 309.97 139.31 310.4C139.47 310.02 139.62 309.65 139.77 309.26C140.01 308.65 140.23 308.04 140.45 307.41C141.42 304.6 142.07 301.51 142.47 298.21C142.47 298.18 142.47 298.16 142.47 298.13C142.55 297.49 142.61 296.85 142.67 296.19C142.67 296.15 142.67 296.1 142.68 296.06C143.49 286.46 142.24 275.35 139.89 264.53C139.08 264.3 138.28 264.07 137.47 263.82C140.93 279.33 142.23 295.58 138.41 306.7V306.72Z" fill="#231F20"/>
<path d="M97.5502 334.8C114.78 334.8 128.51 326.87 135.77 312.91C126.01 318.69 114.36 321.72 101.84 321.72C89.3202 321.72 76.3402 318.76 63.4702 312.94C61.7602 312.17 60.1602 311.35 58.6102 310.44C57.6102 318.63 61.5202 324.45 70.8302 328.66C79.6802 332.67 88.9202 334.8 97.5502 334.8Z" fill="white"/>
<path d="M139.22 310.59C139.24 310.53 139.27 310.48 139.29 310.43C139.29 310.42 139.29 310.41 139.29 310.4C139.46 309.97 139.33 309.48 138.97 309.18C138.6 308.88 138.08 308.86 137.68 309.13C137.59 309.19 137.5 309.25 137.41 309.31C127.46 316.03 115.16 319.58 101.81 319.58C89.5303 319.58 76.9103 316.69 64.3203 310.99C62.4203 310.13 60.6603 309.2 58.9803 308.17C58.7703 308.04 58.5603 307.92 58.3503 307.79C58.0503 307.6 57.6703 307.57 57.3503 307.71C57.0203 307.85 56.7903 308.14 56.7203 308.49C56.7203 308.49 56.7203 308.51 56.7203 308.52C56.0203 312.24 56.1703 315.58 57.2003 318.55C57.2103 318.58 57.2203 318.61 57.2303 318.64C57.3903 319.1 57.5803 319.55 57.7803 319.99C57.8103 320.06 57.8503 320.14 57.8903 320.21C58.0803 320.61 58.2903 320.99 58.5103 321.38C58.5403 321.43 58.5603 321.48 58.5903 321.52C58.8403 321.94 59.1203 322.35 59.4103 322.75C59.4503 322.81 59.5003 322.87 59.5403 322.93C59.8403 323.33 60.1503 323.72 60.5003 324.11C60.8503 324.51 61.2303 324.9 61.6303 325.28C61.6803 325.33 61.7303 325.37 61.7803 325.42C62.5703 326.16 63.4503 326.87 64.4203 327.54C64.5103 327.6 64.6003 327.66 64.6903 327.72C65.1603 328.04 65.6403 328.35 66.1403 328.65C66.1603 328.66 66.1703 328.67 66.1903 328.68C66.6903 328.98 67.2303 329.27 67.7703 329.56C67.9203 329.64 68.0603 329.71 68.2103 329.79C68.7603 330.07 69.3303 330.35 69.9203 330.62C77.6203 334.11 85.6103 336.2 93.2803 336.77C94.7103 336.88 96.1303 336.95 97.5303 336.95C98.8003 336.95 100.06 336.9 101.3 336.82C101.4 336.82 101.49 336.8 101.59 336.8C102.06 336.76 102.52 336.73 102.98 336.68C103.41 336.64 103.84 336.59 104.27 336.53C104.38 336.52 104.49 336.5 104.6 336.49C118.77 334.58 130.39 326.91 137.06 314.99C137.09 314.93 137.13 314.87 137.16 314.81C137.38 314.42 137.59 314.02 137.8 313.62C137.88 313.46 137.97 313.29 138.05 313.12C138.21 312.8 138.37 312.48 138.52 312.16C138.63 311.92 138.74 311.67 138.85 311.43C138.97 311.16 139.1 310.88 139.21 310.61L139.22 310.59ZM58.6003 310.43C60.1403 311.34 61.7403 312.16 63.4603 312.93C76.3303 318.76 89.2403 321.71 101.83 321.71C114.42 321.71 126.01 318.67 135.76 312.9C128.51 326.86 114.77 334.79 97.5403 334.79C88.9103 334.79 79.6703 332.67 70.8203 328.65C61.5103 324.43 57.6003 318.62 58.6003 310.43Z" fill="#231F20"/>
<path d="M159.26 182.31C159.69 182.29 160.08 182.51 160.27 182.88C166.75 186.48 173.38 188.88 179.34 188.88C186.64 188.88 193.74 187.04 200.38 184.15C200.53 183.73 200.91 183.42 201.38 183.42C201.55 183.42 201.71 183.45 201.88 183.47C224.96 172.78 242.23 149.86 243.11 148.67C241.46 146.93 239.84 145.22 238.25 143.52C235.9 141.01 233.62 138.59 231.37 136.28C231.75 140.33 230.46 144.58 227.55 148.76C219.28 160.63 200.04 169.59 182.81 169.59C178.19 169.59 173.88 168.94 169.99 167.67C161.08 164.75 153.36 157.65 149.33 148.66C147 143.45 146.23 138.21 147.07 133.74C143.52 136.76 139.89 140.11 136.18 143.82C133.3 146.7 130.31 149.48 127.26 152.17C129.8 158.37 144.01 173.53 159.26 182.31Z" fill="white"/>
<path d="M214.18 118.77C214.18 118.77 214.26 118.82 214.3 118.85C214.26 118.82 214.22 118.8 214.18 118.77Z" fill="#231F20"/>
<path d="M212.13 117.55C212.2 117.59 212.26 117.62 212.33 117.66C212.27 117.62 212.2 117.59 212.13 117.55Z" fill="#231F20"/>
<path d="M149.56 128.91C149.68 128.81 149.8 128.72 149.93 128.62C149.81 128.72 149.69 128.81 149.56 128.91Z" fill="#231F20"/>
<path d="M219.49 122.49C219.93 122.83 220.38 123.18 220.83 123.54C220.39 123.18 219.94 122.83 219.49 122.49Z" fill="#231F20"/>
<path d="M230.51 132.5C230.97 133.74 231.25 135.01 231.37 136.29C233.62 138.6 235.89 141.02 238.25 143.53C239.84 145.22 241.45 146.94 243.11 148.68C243.13 148.66 243.14 148.64 243.14 148.63C243.48 148.15 244.15 148.03 244.64 148.38C245.12 148.72 245.24 149.39 244.9 149.87C244.89 149.89 244.79 150.02 244.62 150.24C246.75 152.46 248.95 154.69 251.25 156.93C251.61 156.63 251.94 156.37 252.23 156.16C252.65 155.84 253.24 155.87 253.62 156.24C254.2 156.8 254.77 157.33 255.34 157.87C249.68 152.55 244.63 147.17 239.82 142.05C233.33 135.14 227.4 128.85 221.07 123.73C223.93 126.05 226.94 128.8 230.26 132.1C230.37 132.21 230.46 132.34 230.51 132.49V132.5Z" fill="#231F20"/>
<path d="M272.58 172.52C272.61 172.83 272.5 173.14 272.29 173.37C272.07 173.6 271.86 173.81 271.65 174.03C273.86 175.58 276.17 177.09 278.57 178.57C279.21 178.09 279.85 177.63 280.48 177.21C277.32 175.3 274.33 173.33 271.5 171.29C271.71 171.44 271.93 171.6 272.14 171.75C272.4 171.93 272.56 172.21 272.59 172.52H272.58Z" fill="#231F20"/>
<path d="M255.35 157.89C260.6 162.83 265.52 166.94 270.59 170.63C264.98 166.53 259.96 162.23 255.35 157.89Z" fill="#231F20"/>
<path d="M73.8504 187.34C79.3104 184.82 85.5504 181.55 92.1604 177.61C92.1104 177.02 92.0504 176.44 92.0104 175.84C91.9804 175.44 92.1804 175.06 92.5304 174.85C99.8604 170.4 107.11 165.47 114.06 160.18C114.49 159.85 115.1 159.9 115.48 160.28C115.74 160.54 116.03 160.85 116.34 161.17C119.45 158.77 122.54 156.25 125.57 153.64C125.42 153.33 125.28 153.03 125.18 152.75C124.97 152.2 125.24 151.57 125.8 151.36C126.35 151.15 126.98 151.42 127.19 151.98C127.21 152.04 127.25 152.1 127.27 152.16C130.32 149.48 133.31 146.69 136.19 143.81C139.9 140.1 143.53 136.74 147.08 133.73C147.31 132.48 147.66 131.3 148.15 130.19C148.21 130.05 148.31 129.93 148.43 129.83C143.96 133.44 139.38 137.59 134.68 142.29C115.28 161.68 89.8304 177.62 72.4004 185.62C72.9104 186.18 73.4004 186.75 73.8704 187.32L73.8504 187.34Z" fill="#231F20"/>
<path d="M108.24 204.79C109.72 205.5 111.34 205.86 113.07 205.86C118.23 205.86 123.93 202.52 127.26 197.56C130.23 193.13 130.87 188.27 129.06 183.87C125.05 174.12 118.04 166.06 114.6 162.47C108 167.45 101.15 172.12 94.21 176.35C94.85 185.03 97.54 199.61 108.25 204.78L108.24 204.79Z" fill="white"/>
<path d="M107.31 206.72C109.08 207.57 111.02 208.01 113.07 208.01C119 208.01 125.27 204.38 129.04 198.76C132.37 193.79 133.1 188.06 131.05 183.05C126.98 173.13 119.94 164.96 116.34 161.18C116.03 160.85 115.73 160.54 115.48 160.29C115.1 159.91 114.49 159.86 114.06 160.19C107.11 165.48 99.8702 170.41 92.5302 174.86C92.1902 175.07 91.9902 175.45 92.0102 175.85C92.0502 176.45 92.1102 177.03 92.1602 177.62C93.4502 192.31 98.7802 202.62 107.31 206.73V206.72ZM94.2002 176.35C101.14 172.12 107.99 167.45 114.59 162.47C118.03 166.06 125.04 174.11 129.05 183.87C130.86 188.27 130.22 193.13 127.25 197.56C123.92 202.52 118.22 205.86 113.06 205.86C111.34 205.86 109.71 205.5 108.23 204.79C97.5302 199.62 94.8302 185.04 94.1902 176.36L94.2002 176.35Z" fill="#231F20"/>
<path d="M197.46 218.23C195.44 212.79 189.15 210.03 178.75 210.03C174.98 210.03 170.74 210.38 165.78 211.12C160.02 211.96 156.17 214.57 155.49 218.1C154.81 221.6 157.34 225.41 162.26 228.29C164.91 229.84 168.78 230.66 173.46 230.66C183.21 230.66 193.68 227.03 196.79 222.56C197.79 221.13 198.01 219.72 197.46 218.24V218.23Z" fill="white"/>
<path d="M178.75 207.88C174.88 207.88 170.53 208.24 165.47 208.99C158.77 209.97 154.25 213.22 153.38 217.69C152.52 222.12 155.43 226.78 161.17 230.14C164.15 231.88 168.4 232.8 173.45 232.8C182.57 232.8 194.46 229.64 198.54 223.78C199.93 221.79 200.25 219.61 199.47 217.48C197.1 211.11 190.13 207.87 178.75 207.87V207.88ZM173.46 230.64C168.78 230.64 164.91 229.82 162.26 228.27C157.34 225.39 154.81 221.58 155.49 218.08C156.18 214.55 160.02 211.94 165.78 211.1C170.74 210.37 174.98 210.01 178.75 210.01C189.14 210.01 195.44 212.77 197.46 218.21C198 219.69 197.78 221.1 196.79 222.53C193.68 226.99 183.21 230.63 173.46 230.63V230.64Z" fill="#231F20"/>
<path d="M252.8 158.44C246.2 163.72 231.41 179.03 230.51 189.01C230.3 191.28 230.83 193.07 232.11 194.47C233.25 195.71 234.72 196.31 236.58 196.31C241.38 196.31 251.04 192.2 269.87 172.76C264.18 168.67 258.71 164.07 252.79 158.42L252.8 158.44Z" fill="white"/>
<path d="M252.22 156.16C251.94 156.37 251.61 156.64 251.24 156.93C245.28 161.83 229.37 177.55 228.35 188.81C228.09 191.68 228.82 194.08 230.51 195.92C232.06 197.6 234.1 198.46 236.56 198.46C244.15 198.46 255.95 190.23 271.63 174.02C271.85 173.8 272.06 173.59 272.27 173.36C272.49 173.13 272.59 172.82 272.56 172.51C272.53 172.2 272.37 171.92 272.11 171.74C271.9 171.59 271.68 171.43 271.47 171.28C271.17 171.06 270.86 170.84 270.56 170.63C265.49 166.94 260.57 162.83 255.32 157.89C255.32 157.89 255.32 157.89 255.31 157.88C254.74 157.34 254.17 156.81 253.59 156.25C253.21 155.88 252.62 155.85 252.2 156.17L252.22 156.16ZM269.87 172.78C251.04 192.21 241.38 196.33 236.58 196.33C234.72 196.33 233.25 195.73 232.11 194.49C230.82 193.09 230.3 191.3 230.51 189.03C231.42 179.05 246.2 163.74 252.8 158.46C258.71 164.11 264.19 168.7 269.88 172.8L269.87 172.78Z" fill="#231F20"/>
<path d="M209.25 118.42C203.23 115.29 196.91 113.7 190.48 113.7C177.94 113.7 164.7 119.46 150.01 131.29C148.15 135.79 148.61 141.78 151.3 147.77C155.08 156.21 162.32 162.88 170.66 165.61C174.33 166.82 178.42 167.43 182.81 167.43C199.13 167.43 218.01 158.69 225.79 147.52C229.15 142.7 230.11 137.84 228.58 133.45C221.18 126.11 215.39 121.61 209.26 118.41L209.25 118.42Z" fill="white"/>
<path d="M147.06 133.74C146.22 138.21 146.99 143.46 149.32 148.66C153.34 157.65 161.07 164.75 169.98 167.67C173.87 168.95 178.18 169.59 182.8 169.59C200.04 169.59 219.27 160.64 227.54 148.76C230.45 144.58 231.74 140.34 231.36 136.28C231.24 134.99 230.96 133.73 230.5 132.49C230.45 132.34 230.36 132.21 230.25 132.1C226.93 128.8 223.92 126.05 221.06 123.73C220.98 123.66 220.9 123.6 220.82 123.53C220.37 123.17 219.93 122.82 219.48 122.48C219.07 122.17 218.67 121.86 218.27 121.57C218.12 121.46 217.97 121.35 217.82 121.24C216.63 120.38 215.46 119.58 214.29 118.85C214.25 118.82 214.21 118.8 214.17 118.77C213.55 118.38 212.94 118.01 212.32 117.66C212.25 117.62 212.19 117.59 212.12 117.55C211.49 117.19 210.86 116.84 210.22 116.51C203.89 113.22 197.24 111.55 190.45 111.55C190.01 111.55 189.57 111.57 189.13 111.59C189.02 111.59 188.9 111.59 188.79 111.59C176.61 112.06 163.86 117.64 149.91 128.61C149.79 128.71 149.67 128.8 149.54 128.9C149.17 129.2 148.79 129.48 148.42 129.78C148.41 129.79 148.4 129.81 148.39 129.82C148.28 129.92 148.18 130.04 148.11 130.18C147.63 131.29 147.28 132.47 147.04 133.72L147.06 133.74ZM225.78 147.54C218 158.7 199.12 167.45 182.8 167.45C178.41 167.45 174.32 166.84 170.65 165.63C162.31 162.9 155.07 156.23 151.29 147.79C148.6 141.79 148.14 135.8 150 131.31C164.69 119.47 177.93 113.72 190.47 113.72C196.91 113.72 203.23 115.31 209.24 118.44C215.38 121.63 221.16 126.13 228.56 133.48C230.09 137.87 229.13 142.73 225.77 147.55L225.78 147.54Z" fill="#231F20"/>
<path d="M156.8 183.22C157.56 182.77 158.33 182.45 159.14 182.31C159.18 182.31 159.22 182.31 159.26 182.31C144.02 173.53 129.81 158.37 127.26 152.17C127.24 152.11 127.2 152.04 127.18 151.99C126.97 151.44 126.34 151.16 125.79 151.37C125.24 151.58 124.96 152.21 125.17 152.76C125.28 153.04 125.41 153.33 125.56 153.65C128.79 160.21 142.16 174.34 156.8 183.22Z" fill="#231F20"/>
<path d="M160.26 182.88C160.31 182.98 160.36 183.08 160.38 183.19C160.48 183.77 160.09 184.33 159.5 184.43C159.35 184.45 159.21 184.51 159.07 184.55C165.95 188.43 173 191.03 179.33 191.03C187.24 191.03 194.9 188.95 202.03 185.72C201.81 185.63 201.59 185.57 201.37 185.57C200.78 185.57 200.29 185.09 200.29 184.49C200.29 184.37 200.32 184.25 200.36 184.14C193.72 187.03 186.62 188.87 179.32 188.87C173.36 188.87 166.74 186.47 160.25 182.87L160.26 182.88Z" fill="#231F20"/>
<path d="M201.88 183.47C202.75 183.58 203.56 183.98 204.31 184.65C226.01 173.95 242.32 153.26 244.62 150.24C244.79 150.02 244.89 149.89 244.9 149.87C245.24 149.38 245.12 148.72 244.64 148.38C244.15 148.03 243.49 148.15 243.14 148.63C243.14 148.63 243.12 148.65 243.11 148.68C242.23 149.87 224.96 172.79 201.88 183.48V183.47Z" fill="#231F20"/>
<path d="M125.56 153.65C122.53 156.26 119.44 158.78 116.33 161.18C119.93 164.96 126.97 173.13 131.04 183.05C133.1 188.06 132.37 193.79 129.03 198.76C125.26 204.38 118.99 208.01 113.06 208.01C111.01 208.01 109.07 207.58 107.3 206.72C98.7799 202.6 93.4398 192.29 92.1498 177.61C85.5398 181.55 79.2998 184.82 73.8398 187.34C76.7698 190.9 78.9198 194.55 79.9298 196.4C84.2698 204.33 97.3098 220.68 118.7 232.74C119.22 233.04 119.75 233.33 120.28 233.62C131.48 226.68 138.72 212.74 144.7 201.14C144.75 201.04 144.8 200.95 144.85 200.85C149.14 192.52 152.66 185.69 156.79 183.23C142.15 174.34 128.78 160.22 125.55 153.66L125.56 153.65Z" fill="white"/>
<path d="M146.77 201.82C148.48 198.49 150.11 195.33 151.69 192.64C153.84 188.98 155.9 186.19 157.98 185C158.34 184.79 158.71 184.65 159.07 184.55C159.21 184.51 159.36 184.46 159.5 184.43C160.08 184.33 160.48 183.77 160.38 183.19C160.36 183.08 160.31 182.98 160.26 182.88C160.07 182.51 159.69 182.29 159.25 182.31C159.21 182.31 159.17 182.3 159.13 182.31C158.32 182.45 157.55 182.77 156.79 183.22C152.66 185.68 149.13 192.51 144.85 200.84C144.8 200.94 144.75 201.03 144.7 201.13C138.73 212.74 131.48 226.68 120.28 233.61C121 234 121.73 234.38 122.47 234.76C133.65 227.28 140.81 213.38 146.76 201.82H146.77Z" fill="#231F20"/>
<path d="M271.65 174.03C255.98 190.24 244.18 198.47 236.58 198.47C234.12 198.47 232.08 197.62 230.53 195.93C228.83 194.08 228.11 191.69 228.37 188.82C229.39 177.56 245.29 161.84 251.26 156.94C248.96 154.7 246.76 152.46 244.63 150.25C242.33 153.27 226.02 173.96 204.32 184.66C206.79 186.88 208.72 191.92 211.03 198.35C211.22 198.87 211.41 199.4 211.6 199.94C215.41 210.54 220.36 224.33 228.84 229.66C229.75 229.04 230.63 228.42 231.5 227.79C244.89 218.07 253.58 207.31 257.3 202.18C265.41 191.01 272.31 183.31 278.59 178.58C276.19 177.11 273.88 175.59 271.67 174.04L271.65 174.03Z" fill="white"/>
<path d="M209.549 200.66C208.239 197.01 206.969 193.46 205.699 190.72C204.579 188.3 203.459 186.52 202.319 185.86C202.219 185.8 202.129 185.76 202.029 185.72C194.899 188.94 187.229 191.03 179.329 191.03C172.999 191.03 165.949 188.43 159.069 184.55C158.709 184.66 158.339 184.8 157.979 185C155.899 186.19 153.839 188.98 151.689 192.64C150.109 195.33 148.479 198.49 146.769 201.82C140.819 213.38 133.659 227.28 122.479 234.76C134.089 240.74 147.939 245.38 163.999 246.87C166.999 247.15 170.039 247.29 173.019 247.29C195.099 247.29 213.109 239.92 226.869 230.95C218.269 224.93 213.359 211.26 209.549 200.66ZM198.549 223.78C194.469 229.64 182.579 232.8 173.459 232.8C168.399 232.8 164.159 231.88 161.179 230.14C155.439 226.78 152.519 222.12 153.389 217.69C154.259 213.23 158.779 209.98 165.479 208.99C170.539 208.25 174.889 207.88 178.759 207.88C190.149 207.88 197.119 211.11 199.479 217.49C200.259 219.62 199.939 221.79 198.549 223.79V223.78Z" fill="white"/>
<path d="M211.58 199.93C211.39 199.39 211.2 198.86 211.01 198.34C208.7 191.91 206.77 186.87 204.3 184.65C203.55 183.98 202.75 183.58 201.87 183.47C201.7 183.45 201.54 183.42 201.37 183.42C200.9 183.42 200.51 183.73 200.37 184.15C200.33 184.26 200.3 184.38 200.3 184.5C200.3 185.09 200.78 185.58 201.38 185.58C201.6 185.58 201.82 185.64 202.04 185.73C202.14 185.77 202.23 185.81 202.33 185.87C203.47 186.53 204.59 188.31 205.71 190.73C206.98 193.47 208.25 197.02 209.56 200.67C213.37 211.27 218.28 224.94 226.88 230.96C227.54 230.53 228.18 230.1 228.82 229.66C220.34 224.34 215.39 210.54 211.58 199.94V199.93Z" fill="#231F20"/>
<path d="M256.9 232C259.99 228.7 263 225.36 265.96 222.08C277.01 209.83 287.45 198.26 297.04 194.43C301.57 192.62 305.54 187.51 305.72 183.27C305.84 180.45 304.38 178.26 301.37 176.75C298.76 175.45 296.23 174.82 293.63 174.82C284.06 174.82 273.39 183.65 259.02 203.44C251.19 214.23 221.86 249.45 173.03 249.45C169.98 249.45 166.88 249.31 163.81 249.02C114.1 244.42 85.0502 210.22 78.0502 197.44C73.5102 189.13 66.0802 180.25 58.8202 180.25C57.4802 180.25 56.1702 180.56 54.9202 181.19C50.9002 183.2 48.6302 185.37 47.9602 187.83C47.2502 190.43 48.1902 193.6 50.9202 197.8C67.9502 224.03 115.65 264.02 163.95 266.53C166.39 266.66 168.84 266.72 171.25 266.72C220.48 266.72 249.25 240.16 256.89 232.01L256.9 232Z" fill="white"/>
<path d="M227.72 255.83C244.02 247.67 254.3 237.9 258.46 233.47C260.29 231.52 262.08 229.56 263.86 227.59C264.34 227.06 264.81 226.54 265.28 226.02C266.03 225.19 266.8 224.35 267.54 223.52C278.42 211.46 288.69 200.07 297.82 196.43C302.46 194.58 307.61 189.05 307.85 183.36C307.87 182.92 307.85 182.49 307.81 182.07C307.65 180.52 307.06 179.11 306.11 177.87C305.19 176.67 303.93 175.63 302.32 174.83C299.4 173.38 296.56 172.67 293.61 172.67C289.37 172.67 285.07 174.12 280.45 177.21C279.82 177.63 279.18 178.09 278.54 178.57C272.26 183.3 265.36 191 257.25 202.17C253.53 207.3 244.84 218.05 231.45 227.78C230.58 228.41 229.7 229.03 228.79 229.65C228.15 230.09 227.51 230.52 226.85 230.95C213.1 239.92 195.09 247.29 173 247.29C170.02 247.29 166.98 247.15 163.98 246.87C147.91 245.38 134.07 240.75 122.46 234.76C121.72 234.38 120.99 234 120.27 233.61C119.74 233.32 119.21 233.03 118.69 232.73C97.2998 220.67 84.2598 204.33 79.9198 196.39C78.9098 194.54 76.7698 190.89 73.8298 187.33C73.3598 186.76 72.8698 186.19 72.3598 185.63C68.6598 181.59 63.9698 178.08 58.8098 178.08C57.1298 178.08 55.4998 178.47 53.9498 179.24C49.2898 181.57 46.7198 184.11 45.8698 187.24C45.4698 188.72 45.4798 190.32 45.8998 192.06C46.0598 192.73 46.2698 193.42 46.5498 194.14C47.1398 195.62 47.9798 197.22 49.1098 198.95C56.1398 209.77 68.3198 222.91 83.5998 234.85C84.3598 235.44 85.1398 236.03 85.9098 236.62C100.93 248.01 118.71 258.12 137.46 263.84C138.26 264.09 139.07 264.32 139.88 264.55C147.76 266.79 155.79 268.24 163.84 268.66C166.31 268.79 168.8 268.86 171.25 268.86C178.78 268.86 185.83 268.24 192.41 267.17C193.13 267.05 193.84 266.93 194.55 266.8C206.44 264.66 216.75 261.06 225.45 256.93C226.22 256.57 226.97 256.2 227.71 255.83H227.72ZM163.96 266.51C115.66 264 67.9598 224.01 50.9298 197.78C48.1998 193.58 47.2598 190.41 47.9698 187.81C48.6398 185.35 50.9198 183.18 54.9298 181.17C56.1698 180.55 57.4798 180.23 58.8298 180.23C66.0898 180.23 73.5198 189.11 78.0598 197.42C85.0598 210.21 114.11 244.4 163.82 249C166.89 249.29 169.99 249.43 173.04 249.43C221.87 249.43 251.2 214.21 259.03 203.42C273.4 183.63 284.08 174.8 293.64 174.8C296.24 174.8 298.78 175.43 301.38 176.73C304.38 178.24 305.85 180.43 305.73 183.25C305.55 187.49 301.58 192.6 297.05 194.41C287.45 198.24 277.02 209.81 265.97 222.06C263.02 225.33 260 228.68 256.91 231.98C249.27 240.12 220.51 266.69 171.27 266.69C168.86 266.69 166.41 266.62 163.97 266.5L163.96 266.51Z" fill="#231F20"/>
<path d="M308.47 13.4604C310.24 11.2404 313.48 7.30039 319.74 5.53039C320.31 5.37039 320.56 4.98039 320.47 4.36039C320.36 3.51039 319.46 2.15039 317.56 2.15039C316.92 2.15039 316.22 2.31039 315.5 2.63039C311.84 4.22039 309.05 10.5104 308.47 13.4604Z" fill="white"/>
<path d="M307.45 16.62C307.56 16.65 307.73 16.68 307.85 16.68C308.65 16.68 309.14 16.06 310.04 14.94C311.63 12.94 314.59 9.21 320.32 7.6C321.94 7.15 322.84 5.77 322.61 4.07C322.34 2.1 320.49 0 317.57 0C316.63 0 315.64 0.22 314.65 0.66C309.85 2.75 306.07 11.34 306.24 14.68C306.31 16.06 307.04 16.49 307.46 16.63L307.45 16.62ZM317.56 2.15C319.46 2.15 320.35 3.51 320.47 4.36C320.55 4.98 320.31 5.37 319.74 5.53C313.48 7.3 310.24 11.24 308.47 13.46C309.05 10.52 311.83 4.22 315.5 2.63C316.23 2.31 316.92 2.15 317.56 2.15Z" fill="#231F20"/>
<path d="M343.59 5.85039C343.59 5.97039 343.63 7.01039 344.42 7.01039C345.67 6.81039 346.73 6.72039 347.77 6.72039C351.7 6.72039 354.73 8.03039 356.57 8.92039C354.8 6.74039 350.52 3.15039 347.13 3.15039C344.27 3.24039 343.57 4.89039 343.59 5.85039Z" fill="white"/>
<path d="M345 9.11C345.93 8.95 346.86 8.87 347.78 8.87C351.64 8.87 354.49 10.28 356.2 11.13C357.09 11.57 357.63 11.84 358.15 11.84C358.42 11.84 358.86 11.68 359.06 11.49C359.37 11.2 359.82 10.53 359.35 9.33C358.23 6.51 352.02 1 347.15 1C347.14 1 346.94 1 346.93 1C343.29 1.11 341.42 3.54 341.45 5.88C341.48 7.98 342.95 9.46 345 9.11ZM356.58 8.92C354.74 8.03 351.71 6.72 347.78 6.72C346.74 6.72 345.68 6.81 344.43 7.01C343.64 7.01 343.6 5.97 343.6 5.85C343.59 4.89 344.28 3.24 347.14 3.15C350.53 3.15 354.81 6.74 356.58 8.92Z" fill="#231F20"/>
<path d="M349.7 30.2803C349.52 38.6703 353.19 46.6503 359.52 51.6203C362.26 53.7803 365.13 54.8703 368.05 54.8703C371.76 54.8703 375.43 53.0103 378.12 49.7603C381.07 46.2003 382.37 41.6303 381.6 37.5403C380.08 29.2903 370.42 16.5703 360.71 16.5703C358.34 16.5703 356.05 17.3403 353.92 18.8603C351.47 20.6103 349.81 25.0903 349.7 30.2803ZM363.14 33.5203C364.47 36.3403 363.73 39.4903 361.46 40.5703C359.19 41.6503 356.28 40.2003 354.95 37.3803C354.6 36.6403 354.4 35.8803 354.33 35.1403C354.26 35.0403 354.19 34.9203 354.13 34.8003C353.7 33.9203 353.94 32.9003 354.65 32.5603C354.65 32.5603 354.66 32.5603 354.67 32.5603C355.05 31.5903 355.7 30.8003 356.63 30.3703C358.9 29.2903 361.81 30.7103 363.15 33.5303L363.14 33.5203Z" fill="white"/>
<path d="M349.27 21.6899C348.24 24.0699 347.62 27.0199 347.55 30.2399C347.35 39.3099 351.33 47.9299 358.2 53.3199C361.33 55.7799 364.65 57.0299 368.06 57.0299C369.97 57.0299 371.86 56.5899 373.65 55.8099C374.48 55.4499 375.3 55.0099 376.07 54.4899C377.42 53.5899 378.68 52.4699 379.79 51.1299C383.15 47.0799 384.62 41.8499 383.72 37.1499C382.24 29.1399 372.39 14.4199 360.71 14.4199C357.88 14.4199 355.17 15.3299 352.67 17.1099C351.76 17.7599 350.96 18.6699 350.26 19.7799C349.9 20.3599 349.56 20.9999 349.27 21.6899ZM381.61 37.5399C382.38 41.6299 381.08 46.1899 378.13 49.7599C375.44 53.0099 371.77 54.8699 368.06 54.8699C365.14 54.8699 362.28 53.7799 359.53 51.6199C353.19 46.6499 349.52 38.6699 349.71 30.2799C349.82 25.0999 351.48 20.6099 353.93 18.8599C356.06 17.3399 358.34 16.5699 360.72 16.5699C370.44 16.5699 380.09 29.2899 381.61 37.5399Z" fill="#231F20"/>
<path d="M356.62 30.3599C355.7 30.7899 355.04 31.5799 354.66 32.5499C355.37 32.2199 356.3 32.6799 356.73 33.5799C357.14 34.4799 356.89 35.4599 356.19 35.8199C355.57 36.0999 354.8 35.8199 354.32 35.1399C354.39 35.8799 354.59 36.6399 354.94 37.3799C356.27 40.1999 359.18 41.6499 361.45 40.5699C363.72 39.4899 364.46 36.3399 363.13 33.5199C361.8 30.6999 358.89 29.2799 356.61 30.3599H356.62ZM362.73 38.3299C362.39 38.5199 361.9 38.2699 361.69 37.8399C361.46 37.3799 361.59 36.8599 361.94 36.6799C362.31 36.5199 362.79 36.7399 363.01 37.1999C363.22 37.6499 363.11 38.1599 362.73 38.3299Z" fill="#231F20"/>
<path d="M356.2 35.8203C356.91 35.4603 357.16 34.4803 356.74 33.5803C356.31 32.6703 355.38 32.2203 354.67 32.5503C354.67 32.5503 354.66 32.5503 354.65 32.5503C353.94 32.8903 353.7 33.9203 354.13 34.7903C354.19 34.9103 354.26 35.0303 354.33 35.1303C354.81 35.8103 355.57 36.1003 356.2 35.8103V35.8203Z" fill="white"/>
<path d="M361.939 36.6798C361.589 36.8598 361.459 37.3798 361.689 37.8398C361.899 38.2598 362.389 38.5198 362.729 38.3298C363.109 38.1698 363.219 37.6498 363.009 37.1998C362.789 36.7398 362.309 36.5198 361.939 36.6798Z" fill="white"/>
<path d="M325.91 65.5798C333.04 65.5798 339.94 60.9798 342.32 54.6398C345.04 47.4498 344.3 33.9598 338.87 26.0998C335.98 21.9198 332.15 19.7998 327.47 19.7998C327.07 19.7998 326.65 19.8098 326.23 19.8498C322.75 20.1098 318.43 23.5298 315.23 28.5498C310.06 36.6698 308.92 46.6798 312.18 55.3298C315.53 64.2398 322.23 65.5698 325.92 65.5698L325.91 65.5798ZM317.77 41.3198C317.87 40.3998 318.12 39.5398 318.48 38.7798C318.47 38.6298 318.47 38.4798 318.48 38.3298C318.61 37.2098 319.43 36.3798 320.32 36.4598C321.27 35.7298 322.39 35.3498 323.56 35.4698C326.4 35.7798 328.4 38.8698 328.02 42.4498C327.64 45.9598 325.04 48.5898 322.23 48.3098C319.39 48.0298 317.38 44.8898 317.76 41.3398L317.77 41.3198Z" fill="white"/>
<path d="M325.91 67.73C333.9 67.73 341.65 62.54 344.33 55.4C347.24 47.71 346.44 33.29 340.64 24.88C337.09 19.75 332.09 17.26 326.06 17.71C321.87 18.03 317.02 21.74 313.41 27.41C307.87 36.1 306.66 46.82 310.16 56.11C312.94 63.51 318.68 67.75 325.91 67.75V67.73ZM315.22 28.55C318.42 23.53 322.74 20.11 326.22 19.85C326.64 19.82 327.05 19.8 327.46 19.8C332.14 19.8 335.98 21.92 338.86 26.1C344.29 33.96 345.04 47.45 342.31 54.64C339.93 60.98 333.03 65.58 325.9 65.58C322.21 65.58 315.51 64.25 312.16 55.34C308.9 46.69 310.04 36.67 315.21 28.56L315.22 28.55Z" fill="#231F20"/>
<path d="M322.24 48.3003C325.05 48.5803 327.65 45.9603 328.03 42.4403C328.41 38.8603 326.41 35.7703 323.57 35.4603C322.4 35.3403 321.27 35.7203 320.33 36.4503C321.22 36.5403 321.85 37.5403 321.74 38.6703C321.63 39.7903 320.79 40.6203 319.88 40.5303C319.11 40.4503 318.54 39.7003 318.47 38.7703C318.11 39.5303 317.85 40.3903 317.76 41.3103C317.38 44.8703 319.4 48.0003 322.23 48.2803L322.24 48.3003ZM325 44.8103C325.46 44.8503 325.79 45.3503 325.72 45.9103C325.66 46.5003 325.25 46.9103 324.78 46.8803C324.32 46.8203 323.99 46.3103 324.05 45.7403C324.12 45.2003 324.55 44.7603 325 44.8103Z" fill="#231F20"/>
<path d="M319.89 40.5404C320.8 40.6204 321.64 39.7904 321.75 38.6804C321.86 37.5404 321.23 36.5504 320.34 36.4604C319.44 36.3804 318.63 37.2104 318.5 38.3304C318.48 38.4804 318.48 38.6404 318.5 38.7804C318.57 39.7104 319.15 40.4604 319.91 40.5404H319.89Z" fill="white"/>
<path d="M324.78 46.89C325.25 46.92 325.67 46.51 325.72 45.92C325.79 45.35 325.46 44.86 325 44.82C324.55 44.78 324.12 45.21 324.05 45.75C323.99 46.33 324.32 46.83 324.78 46.89Z" fill="white"/>
</svg>
