<svg width="466" height="427" viewBox="0 0 466 427" fill="none" xmlns="http://www.w3.org/2000/svg">
<g clip-path="url(#clip0_1658_7705)">
<path d="M93.2571 166.654C83.8743 171.317 81.3308 183.012 79.941 192.443C78.9082 199.448 78.5401 206.563 79.2488 213.58C81.1715 213.013 83.1217 212.601 85.0993 212.32C84.7587 206.899 84.8961 201.466 85.5608 196.061C86.3189 189.88 87.3901 183.166 90.0544 177.492C93.0813 171.025 98.9099 168.139 105.37 166.951C101.915 164.905 97.7947 164.399 93.2571 166.665V166.654Z" fill="white"/>
<path d="M246.64 409.723C244.827 407.474 239.323 408.634 237.389 410.383C237.164 410.586 236.966 410.801 236.796 411.032C236.499 413.451 236.302 415.882 236.164 418.318C240.867 420.605 245.855 422.271 251.024 423.211C250.848 421.71 250.579 420.215 250.211 418.735C249.497 415.865 248.524 412.066 246.64 409.723Z" fill="white"/>
<path d="M185.943 395.531C184.498 394.591 183.454 395.504 182.9 396.724C182.444 399.815 182.24 402.955 182.295 406.094C184.504 406.82 186.739 407.447 188.986 407.975C188.574 405.093 188.146 402.212 187.635 399.353C187.404 398.066 187.13 396.301 185.937 395.531H185.943Z" fill="white"/>
<path d="M88.0438 124.776C87.6648 124.754 87.3791 124.589 87.1869 124.358C84.1709 124.65 81.2814 125.728 78.7928 127.581C75.2495 130.22 71.1404 136.049 74.2113 140.398C77.3975 144.912 83.7424 139.496 86.8133 137.225C88.9063 135.675 90.9499 133.772 91.7025 131.182C92.499 128.416 91.2795 124.974 88.0383 124.776H88.0438Z" fill="white"/>
<path d="M241.075 380.531C241.059 380.476 241.037 380.432 241.02 380.377C239.158 376.594 237.972 372.492 237.719 368.214C237.697 367.9 237.691 367.587 237.68 367.273C235.961 366.713 234.263 366.097 232.588 365.42C218.36 359.702 208.592 348.809 199.226 337.075C197.084 334.391 194.925 331.664 192.854 328.871C190.283 341.666 190.332 354.874 193.002 367.653C194.26 366.075 195.606 364.563 197.034 363.122C198.127 362.022 199.819 363.721 198.732 364.826C196.908 366.669 195.221 368.632 193.689 370.688C193.057 371.535 192.442 372.398 191.865 373.278C187.932 379.2 185.146 385.815 183.625 392.732C184.344 392.523 185.157 392.529 186.025 392.831C187.388 393.31 188.267 394.222 188.865 395.339C189.42 394.943 190.112 394.695 190.843 394.613C193.013 394.365 195.348 395.515 197.012 396.823C197.71 397.368 198.331 397.956 198.874 398.588C198.896 398.572 198.913 398.566 198.929 398.561C202.638 397.005 208.702 395.124 212.07 398.385C213.613 399.881 214.163 402.053 214.63 404.076C215.064 405.962 215.476 407.854 215.877 409.74C222.458 409.08 228.968 407.628 235.247 405.379C235.34 404.89 235.439 404.4 235.543 403.911C237.027 397.032 239.872 390.489 242.701 384.011C242.108 382.879 241.559 381.724 241.059 380.536L241.075 380.531Z" fill="white"/>
<path d="M211.389 401.541C209.417 397.488 203.813 399.177 200.319 400.568C202.022 403.372 202.797 406.693 203.275 410.02C204.758 410.102 206.252 410.141 207.736 410.141C209.653 410.141 211.564 410.075 213.471 409.938C213.284 409.074 213.092 408.216 212.905 407.348C212.493 405.462 212.24 403.295 211.389 401.536V401.541Z" fill="white"/>
<path d="M194.991 398.297C194.721 398.121 189.667 395.949 190.074 397.604C190.167 397.984 190.09 398.313 189.904 398.561C190.025 399.177 190.118 399.798 190.211 400.386C190.623 403.092 191.035 405.797 191.442 408.508C194.562 409.14 197.71 409.591 200.863 409.85C200.484 407.221 199.88 404.615 198.578 402.306C197.693 400.738 196.496 399.303 194.985 398.297H194.991Z" fill="white"/>
<path d="M193.002 282.203C195.276 276.974 195.364 270.986 195.276 265.372C195.232 262.908 195.062 260.45 194.606 258.064C192.618 268.616 188.953 278.86 183.713 288.268C183.163 289.252 182.597 290.226 182.01 291.194C187.113 290.759 191.046 286.707 193.002 282.198V282.203Z" fill="white"/>
<path d="M196.177 300.805C199.314 297.974 201.66 294.064 203.533 290.11C204.203 288.708 204.813 287.301 205.379 285.931C205.401 285.887 205.417 285.838 205.439 285.799C207.664 280.378 209.296 274.736 210.922 269.116C211.356 267.632 213.668 268.264 213.24 269.754C211.85 274.571 210.438 279.393 208.675 284.084C210.691 283.045 212.773 282.121 214.882 281.252C221.074 278.695 227.314 276.237 233.577 273.856C244.338 269.765 255.485 266.752 266.197 262.551C276.47 258.52 285.726 252.653 292.077 243.432C296.664 236.768 299.559 229.498 301.322 221.916C301.536 220.975 301.74 220.03 301.921 219.078C302.674 215.202 303.157 211.254 303.437 207.273C303.602 206.294 303.673 205.293 303.624 204.265C303.624 204.232 303.624 204.199 303.624 204.161C303.635 203.886 303.651 203.611 303.662 203.336C303.624 203.292 303.591 203.253 303.553 203.209C303.492 202.615 303.404 202.038 303.289 201.461C301.663 199.234 300.119 196.93 298.652 194.565C296.411 190.969 294.373 187.247 292.599 183.453C289.066 175.919 286.512 167.963 282.414 160.699C281.656 159.346 283.732 158.142 284.49 159.489C286.353 162.783 287.918 166.22 289.385 169.706C294.741 182.474 300.504 195.28 309.705 205.761C310.529 206.701 311.381 207.625 312.265 208.532C312.381 208.647 312.496 208.763 312.611 208.878C322.225 218.457 336.453 223.378 349.5 218.001C356.389 215.163 362.3 209.67 364.964 202.637C367.766 195.242 367.81 186.823 369.051 179.07C371.457 164.075 375.446 149.922 384.142 137.302C388.399 131.116 393.157 125.271 397.007 118.81C400.71 112.608 403.193 105.877 404.363 98.7453C406.758 84.1353 403.803 68.8875 398.095 55.3827C387.125 29.44 364.799 6.13105 335.783 2.55691C320.648 0.692855 306.25 4.94333 294.164 14.1371C288.753 18.2556 283.556 22.9515 278.793 28.0653C277.871 29.0495 276.97 30.0503 276.091 31.0731C271.416 36.4508 267.246 42.2354 263.824 48.2674C263.06 49.6146 260.984 48.3994 261.747 47.0522C263.769 43.4946 266.027 40.0799 268.493 36.8137C271.042 33.454 273.767 30.2263 276.64 27.1305C256.122 14.1316 231.951 6.78539 207.604 4.6794C196.386 3.71163 185.097 3.77761 173.879 4.70689C172.396 4.82786 170.918 4.96533 169.441 5.11929C167.529 4.36047 165.573 3.8216 163.579 3.44769C157.849 2.39195 151.856 2.76036 145.989 3.54117C147.664 4.01956 149.307 4.62441 150.884 5.34474C152.076 5.88361 153.235 6.49396 154.361 7.1758C156.86 8.66594 159.184 10.4915 161.283 12.6085C162.184 13.5213 161.239 14.8135 160.113 14.621C152.438 13.3068 144.555 13.4553 136.958 15.2149C131.761 16.4191 126.52 18.4316 122.598 22.0717C136.243 19.3059 150.84 23.3749 161.052 32.9701C161.827 33.7014 161.217 35.0156 160.2 35.0266C149.735 35.1256 139.693 39.7225 132.722 47.4041C139.106 44.7538 146.401 44.6218 152.922 47.2227C154.344 47.7891 153.724 50.115 152.284 49.5431C144.462 46.4254 135.727 47.4426 128.827 52.287C127.849 52.9798 126.542 51.6161 127.185 50.6429C133.914 40.4483 145.082 33.8334 157.168 32.7777C146.72 24.3152 132.365 21.4504 119.433 25.3544C118.494 25.6404 117.445 24.4527 118.077 23.5894C126.421 12.3006 143.237 10.2441 156.701 11.7452C154.8 10.2166 152.74 8.91338 150.565 7.85214C134.249 10.8269 117.703 15.1104 103.167 23.0175C99.3383 25.107 95.6907 27.4329 92.2353 29.9788C91.598 30.4517 90.9608 30.9301 90.3345 31.4195C69.9648 47.2062 56.4398 70.5811 50.2487 95.1767C46.0627 111.788 44.953 129.038 46.0077 146.089C47.1174 163.993 50.4794 181.682 51.4298 199.602C51.6056 202.956 51.6385 206.305 51.6166 209.654C51.6056 210.709 51.6001 211.754 51.5836 212.804C51.5342 216.467 51.4628 220.129 51.4847 223.796C51.5452 231.538 52.1549 239.6 55.6817 246.665C59.2525 253.808 65.6194 258.718 72.4039 262.815C79.397 267.043 86.61 270.942 93.7405 274.94C95.2457 273.675 96.9267 272.641 98.7231 271.811C98.6297 271.591 98.6022 271.332 98.6736 271.041C100.173 264.97 103.678 260.17 108.254 256.607C108.727 250.806 110.265 244.713 113.259 239.764C114.923 232.798 116.445 225.776 117.434 218.683C107.853 215.867 97.4706 213.492 87.6537 214.35C86.8572 214.421 86.0606 214.515 85.2696 214.625C83.3249 214.91 81.4077 215.328 79.5234 215.911C78.7433 216.148 77.9687 216.417 77.2051 216.72C74.3101 217.847 71.5249 219.386 68.888 221.443C67.6795 222.383 65.971 220.695 67.1906 219.744C70.2724 217.346 73.53 215.581 76.8975 214.344C75.8483 204.842 76.6998 195.099 78.6774 185.8C80.6935 176.332 85.5717 165.428 96.0258 163.124C101.091 162.008 105.458 163.547 108.963 166.445C109.787 167.121 110.562 167.88 111.281 168.694C113.297 170.943 114.923 173.632 116.137 176.414C121.691 189.149 121.96 203.165 120.153 216.989C120.049 217.792 119.939 218.595 119.818 219.397C119.032 224.742 117.956 230.043 116.78 235.212C119.554 232.435 123.087 230.444 127.503 229.702C129.014 229.449 129.662 231.764 128.141 232.022C122.367 232.99 118.285 236.273 115.511 240.639C114.649 241.997 113.918 243.454 113.297 244.977C112.034 248.084 111.248 251.466 110.842 254.803C115.478 251.878 120.922 250.042 126.416 249.277C127.932 249.068 128.58 251.383 127.053 251.598C121.164 252.422 115.302 254.468 110.572 257.877C109.776 258.444 109.012 259.054 108.282 259.703C105.035 262.606 102.525 266.29 101.228 270.81C102.766 270.282 104.359 269.892 105.963 269.622C112.764 268.49 120.378 268.446 126.635 271.651C128.014 272.361 126.8 274.434 125.427 273.73C119.785 270.838 112.731 270.948 106.606 271.943C102.711 272.575 98.9153 273.95 95.861 276.309C95.2457 276.782 94.6579 277.293 94.1141 277.854C93.1582 278.816 92.3122 279.905 91.6035 281.137C91.5706 281.192 91.5376 281.247 91.4992 281.296C92.1199 281.51 92.7297 281.774 93.3285 282.088C98.1243 284.562 101.316 289.258 103.942 293.806C104.722 295.153 102.645 296.362 101.871 295.021C99.5526 291.012 96.8498 286.866 92.7462 284.507C87.857 281.686 82.1712 282.77 76.9525 283.88C79.3531 288.268 80.8583 293.157 81.3088 298.27C81.4461 299.816 79.04 299.799 78.9081 298.27C78.1226 289.352 73.7498 281.054 66.9324 275.352C66.7236 275.17 66.5039 274.995 66.2896 274.83C66.2731 275.083 66.2512 275.335 66.2237 275.588C65.8941 278.536 64.8339 281.291 62.4497 283.386C58.0714 287.24 51.5946 289.445 45.9034 290.231C41.97 290.77 37.8609 290.402 34.1034 289.154C40.7999 301.96 49.6994 313.788 61.2521 322.531C74.5848 332.61 90.752 337.218 107.408 336.008C124.306 334.787 140.578 328.123 154.174 318.132C160.602 313.414 166.337 307.954 171.319 301.927C171.836 301.3 172.347 300.673 172.846 300.03C174.566 297.842 176.197 295.576 177.714 293.25C178.192 292.535 178.653 291.809 179.098 291.084C186.305 279.454 191.057 266.367 192.985 252.741C193.183 251.378 193.348 250.014 193.48 248.645C193.645 247.039 193.766 245.417 193.842 243.795C190.805 243.68 187.64 244.229 184.844 245.027C183.355 245.45 182.718 243.13 184.207 242.706C187.239 241.843 190.645 241.299 193.936 241.425C194.749 241.453 195.556 241.524 196.348 241.651C200.874 242.321 204.939 244.51 207.153 249.178C207.818 250.575 205.741 251.79 205.077 250.393C203.231 246.506 199.957 244.653 196.26 244.031C196.122 246.863 195.87 249.69 195.502 252.499C197.27 256.915 197.682 261.77 197.693 266.56C197.71 272.751 197.402 279.355 194.359 284.903C191.881 289.429 187.503 293.124 182.224 293.58C181.636 293.635 181.059 293.641 180.488 293.624C178.779 296.274 176.939 298.848 174.967 301.328C176.478 302.191 178.054 302.928 179.653 303.494C180.548 303.813 181.449 304.077 182.356 304.269C187.113 305.314 191.969 304.605 196.188 300.794L196.177 300.805ZM287.946 59.7597C295.263 48.3719 305.772 37.9794 317.303 30.8751C328.751 23.8148 343.897 20.862 355.521 29.2035C361.201 33.2835 365.596 38.9967 369.925 44.4129C374.556 50.2195 378.956 56.2515 382.571 62.751C389.641 75.4474 393.585 90.2279 390.338 104.673C389.998 106.185 387.68 105.536 388.02 104.035C391.563 88.2758 386.021 72.4176 377.637 59.1603C373.847 53.1668 369.48 47.5581 364.953 42.1034C360.998 37.3251 356.861 32.3872 351.324 29.407C338.832 22.6711 324.285 28.4227 313.787 36.1648C293.055 51.4677 273.597 77.8778 282.98 104.86C283.49 106.328 281.167 106.955 280.661 105.498C275.3 90.0684 279.315 73.182 287.946 59.7597ZM92.0705 135.57C89.8896 138.385 86.6924 140.31 83.7094 142.157C81.1605 143.741 78.3863 145.49 75.3154 144.269C68.8551 141.701 70.4647 133.524 73.8157 129.159C74.5683 128.185 75.4198 127.289 76.3537 126.486C78.7983 124.369 82.0119 122.687 85.2256 122.148C87.5658 121.752 90.1313 122.225 91.9496 123.819C92.5814 124.375 93.1087 125.057 93.4823 125.854C94.9381 128.944 94.1141 132.942 92.076 135.57H92.0705ZM215.926 119.607C215.981 118.788 216.162 117.98 216.476 117.226C217.025 115.918 217.959 114.818 219.085 113.971C222.227 111.596 227.001 110.436 230.775 111.761C232.736 112.443 234.571 113.74 236.164 115.054C237.867 116.457 239.4 118.051 240.828 119.734C243.987 123.478 246.953 129.593 242.811 133.843C238.697 138.072 231.374 135.086 227.012 132.887C222.161 130.445 215.509 125.854 215.926 119.613V119.607ZM198.666 211.177C197.88 211.397 197.095 211.628 196.315 211.881C193.711 212.705 191.151 213.684 188.651 214.828C187.91 215.163 187.179 215.515 186.448 215.884C186.229 215.097 186.031 214.306 185.844 213.508C183.537 203.666 183.449 193.339 185.734 183.458C187.855 174.303 192.398 164.779 200.88 159.99C208.499 155.679 218.354 155.739 224.771 162.14L224.881 162.25C225.611 162.992 226.276 163.767 226.869 164.581C232.456 172.142 232.615 182.512 232.571 191.602C232.549 196.99 232.28 202.373 231.775 207.735C236.016 208.614 240.18 209.89 244.212 211.556C245.624 212.145 244.998 214.465 243.575 213.877C239.669 212.26 235.637 211.017 231.539 210.154C230.753 209.989 229.962 209.835 229.176 209.698C219.047 207.933 208.581 208.433 198.671 211.177H198.666Z" fill="white"/>
<path d="M236.186 133.458C239.521 133.81 242.35 132.172 242.41 128.554C242.46 125.557 240.493 122.989 238.614 120.844C238.351 120.547 238.087 120.251 237.818 119.959C236.373 118.386 234.807 116.891 233.044 115.676C231.879 114.873 230.643 114.114 229.292 113.674C226.15 112.657 222.293 114.196 219.991 116.379C217.074 119.14 218.662 123.148 220.975 125.678C224.595 129.637 230.841 132.903 236.192 133.464L236.186 133.458Z" fill="white"/>
<path d="M44.7498 287.971C49.8807 287.438 55.3357 285.546 59.5821 282.583C62.5321 280.521 63.6528 277.584 63.889 274.411C63.911 274.087 63.9275 273.746 63.933 273.416C62.0212 273.086 60.1205 273.306 58.3351 274.087C58.3351 274.087 58.3315 274.087 58.3241 274.087C57.7968 274.219 57.2694 274.39 56.742 274.598C51.298 276.732 46.0353 282.374 41.4152 284.309C40.8659 284.535 40.2946 284.716 39.7068 284.864C38.1137 285.277 36.3997 285.464 34.7407 285.772C34.6198 285.788 34.499 285.81 34.3726 285.838C34.3287 285.838 34.2792 285.854 34.2353 285.86C33.8507 285.953 33.4882 286.08 33.2574 286.294C36.8172 287.801 40.8714 288.367 44.7553 287.966L44.7498 287.971Z" fill="white"/>
<path d="M43.2336 133.568C43.294 116.05 45.843 98.4098 51.7979 81.8423C59.1152 61.4862 71.7447 43.0876 88.8019 29.7973C83.0722 23.9302 76.3097 19.0639 68.8496 15.6932C62.6255 12.8834 55.9949 11.7671 49.2489 13.1143C43.2501 14.3075 37.5313 16.8864 32.3895 20.1636C15.9091 30.6606 5.18031 49.2406 2.77967 68.4805C2.07101 74.2212 2.18637 80.0168 2.62036 85.7739C3.0873 91.9929 3.59819 98.3329 5.021 104.414C6.39437 110.287 9.16308 115.615 11.1682 121.273C13.1513 126.866 14.2226 132.733 15.129 138.578C16.9418 150.295 18.2987 162.288 16.3705 174.083C14.5137 185.448 7.89409 195.808 7.37221 207.405C7.28981 209.269 7.16346 211.573 8.08086 213.255C8.77304 214.52 10.0585 215.334 11.2671 216.043C13.5359 217.379 15.9915 218.353 18.5459 218.996C23.9295 220.36 29.6702 220.178 35.0263 218.776C40.2561 217.407 45.0135 214.877 49.2379 211.617C49.2764 203.957 48.9358 196.341 48.1887 188.704C46.4033 170.327 43.1731 152.077 43.2391 133.563L43.2336 133.568Z" fill="white"/>
<path d="M221.277 162.272C214.317 157.147 204.341 159.286 198.188 164.884C191.414 171.048 188.371 180.351 187.091 189.182C185.959 196.946 186.344 204.837 188.074 212.453C190.711 211.27 193.42 210.253 196.177 209.412C195.908 203.649 196.073 197.876 196.71 192.135C197.419 185.795 198.303 179.01 201.544 173.401C205.879 165.917 213.339 162.926 221.282 162.272H221.277Z" fill="white"/>
<path d="M116.637 185.498C118.137 191.569 118.675 197.881 118.604 204.133C118.681 197.881 118.137 191.563 116.637 185.498Z" fill="white"/>
<path d="M426.068 292.414C425.733 290.534 425.332 288.67 424.87 286.828C424.085 283.649 423.101 280.532 421.915 277.513C418.229 268.138 412.537 259.67 404.204 252.912C391.948 242.981 376.292 237.312 360.8 235.113C346.369 233.056 331.624 234.112 317.654 238.104C321.802 244.053 325.515 250.3 328.762 256.81C329.449 258.196 327.378 259.411 326.686 258.026C323.346 251.328 319.511 244.917 315.226 238.83C314.743 238.142 314.248 237.46 313.754 236.779C310.507 232.336 307.019 228.074 303.283 224.011C301.174 232.204 297.708 240.089 292.577 246.808C286.226 255.122 277.53 260.538 267.944 264.421C257.061 268.83 245.64 271.838 234.653 276.001C228.743 278.244 222.87 280.581 217.014 282.951C213.679 284.304 210.361 285.739 207.285 287.57C207.076 288.054 206.873 288.538 206.653 289.011C204.181 294.509 200.935 300.668 195.815 304.137C191.771 306.876 187.432 307.547 183.18 306.898C185.185 312.688 188.19 318.11 191.678 323.256C192.271 324.142 192.887 325.021 193.513 325.89C197.259 331.114 201.418 336.068 205.39 340.863C210.164 346.62 215.273 352.24 221.376 356.628C226.369 360.213 231.94 362.808 237.746 364.727C238.054 360.274 239.444 355.924 241.828 352.179C236.571 342.183 232.94 331.389 231.094 320.21C230.841 318.693 233.159 318.044 233.412 319.572C235.164 330.201 238.537 340.445 243.405 349.98C244.075 349.133 244.811 348.33 245.602 347.577C246.723 346.51 248.42 348.209 247.305 349.276C246.294 350.238 245.41 351.256 244.63 352.306C244.075 353.048 243.58 353.813 243.141 354.593C241.218 357.992 240.301 361.72 240.213 365.514C240.196 366.366 240.213 367.224 240.284 368.082C240.603 372.459 241.965 376.847 244.108 380.844C244.564 381.707 245.064 382.554 245.596 383.384C245.525 383.549 245.459 383.709 245.382 383.874C246.75 386.326 248.327 388.641 250.145 390.808C251.134 391.99 249.436 393.7 248.448 392.512C246.876 390.632 245.454 388.658 244.196 386.59C241.773 392.155 239.438 397.797 238.087 403.669C238.032 403.906 237.983 404.137 237.928 404.373C237.724 405.291 237.549 406.215 237.384 407.144C237.362 407.276 237.334 407.414 237.318 407.546C239.631 406.297 242.564 406.028 245.08 406.237C248.953 406.561 250.31 411.312 251.425 414.414C251.579 414.848 251.727 415.277 251.865 415.717C252.233 413.787 252.875 411.978 253.974 410.586C256.034 407.958 259.687 407.513 262.654 408.744C265.659 409.998 267.927 412.489 269.581 415.497C270.905 412.753 273.371 410.63 276.646 410.399C283.205 409.938 284.743 418.153 285.809 423.767C296.016 423.327 306.283 422.414 316.193 420.044C314.875 414.562 313.556 409.08 312.221 403.598C311.243 399.578 310.062 395.746 308.063 392.105C307.349 390.791 306.563 389.516 305.744 388.267C304.283 390.379 302.58 392.369 300.641 394.2C299.515 395.262 297.812 393.568 298.938 392.501C301.004 390.555 302.789 388.405 304.283 386.106C304.761 385.381 305.201 384.638 305.618 383.885C306.601 382.092 307.425 380.228 308.079 378.315C308.343 377.539 308.585 376.759 308.793 375.961C310.864 368.219 310.293 359.861 306.937 352.394C306.536 351.498 306.102 350.623 305.613 349.76C304.679 348.077 303.591 346.444 302.349 344.899C301.394 343.706 303.086 341.996 304.052 343.2C305.091 344.492 306.03 345.839 306.871 347.225C310.606 339.291 312.798 330.685 313.265 321.832C313.347 320.287 315.748 320.287 315.666 321.832C315.149 331.598 312.639 341.122 308.293 349.799C312.474 358.041 313.419 367.444 311.221 376.159C318.138 376.687 325.07 377.012 331.987 377.039C333.173 377.05 334.354 377.039 335.541 377.039C342.172 376.973 348.797 376.632 355.383 375.928C352.944 371.529 350.873 366.872 348.83 362.325C343.029 349.458 338.486 335.634 339.914 321.343C340.062 319.814 342.468 319.803 342.314 321.343C340.958 334.908 345.089 348.05 350.544 360.301C352.845 365.464 355.23 370.688 358.015 375.626C358.229 376 358.443 376.374 358.658 376.753C358.839 377.072 359.026 377.385 359.218 377.693C359.262 377.759 359.3 377.825 359.344 377.891C359.789 378.617 360.256 379.332 360.751 380.025C363.217 383.522 366.293 386.535 370.474 387.926C371.941 388.41 371.309 390.736 369.842 390.247C365.673 388.861 362.426 386.112 359.789 382.752C357.888 388.575 356.971 394.646 356.521 400.777C356.493 401.173 356.466 401.563 356.438 401.954C356.411 402.388 356.383 402.822 356.361 403.257C356.295 404.428 356.24 405.61 356.191 406.781C356.416 406.55 356.663 406.336 356.927 406.127C359.059 404.472 361.673 404.285 364.003 405.687C366.189 407.012 367.7 408.959 368.782 411.18C368.837 411.076 368.892 410.966 368.952 410.856C370.364 408.392 373.006 407.221 375.775 407.535C379.56 407.969 381.873 410.185 383.257 413.094C384.455 411.521 386.284 410.63 388.322 410.889C393.612 411.543 394.887 416.794 395.03 421.375C402.704 421.309 410.34 420.693 417.63 418.098C418.02 417.96 418.41 417.817 418.795 417.674C418.481 403.515 417.092 389.367 412.724 375.862C410.84 378.469 408.769 380.949 406.489 383.275C405.407 384.38 403.709 382.681 404.792 381.57C407.385 378.914 409.703 376.06 411.757 373.052C412.219 372.382 412.664 371.705 413.092 371.018C419.597 360.746 423.343 348.82 425.392 336.794C427.656 323.537 428.567 309.048 426.535 295.307C426.398 294.333 426.238 293.366 426.057 292.409L426.068 292.414ZM269.361 383.423C262.434 382.021 254.04 379.024 252.716 371.045C252.705 370.974 252.694 370.908 252.683 370.831C252.562 370.023 252.562 369.22 252.667 368.445C253.337 363.402 258.413 359.438 263.571 361.654C264.988 362.264 263.763 364.332 262.357 363.732C259.792 362.627 256.858 364.271 255.622 366.592C255.238 367.306 255.04 368.076 254.985 368.862C254.919 369.742 255.034 370.644 255.281 371.507C255.512 372.327 255.864 373.107 256.287 373.817C259.143 378.601 264.917 380.069 270.004 381.097C271.52 381.405 270.872 383.725 269.367 383.417L269.361 383.423ZM383.065 382.312C377.736 381.872 370.644 380.828 366.453 376.841C365.783 376.203 365.184 375.488 364.678 374.691C364.552 374.493 364.431 374.29 364.321 374.086C363.03 371.7 362.706 368.615 363.843 366.108C364.525 364.606 366.936 361.747 368.568 363.842C369.507 365.046 367.821 366.762 366.865 365.541C366.991 365.701 365.755 367.79 365.667 368.214C365.447 369.247 365.53 370.347 365.799 371.359C366.096 372.453 366.64 373.415 367.348 374.251C368.007 375.037 368.809 375.697 369.683 376.269C369.732 376.302 369.776 376.33 369.82 376.363C373.649 378.777 378.626 379.557 383.049 379.915C384.581 380.041 384.592 382.444 383.049 382.318L383.065 382.312Z" fill="white"/>
<path d="M389.47 413.77C387.592 412.759 385.664 413.402 384.708 415.288C384.554 415.585 384.438 415.898 384.351 416.217C384.785 417.911 385.015 419.692 385.114 421.397C387.652 421.419 390.174 421.408 392.673 421.397C392.673 418.444 392.239 415.255 389.47 413.776V413.77Z" fill="white"/>
<path d="M427.793 288.67C428.139 290.27 428.436 291.881 428.688 293.503C433.017 294.812 437.917 293.981 441.79 291.106C444.328 289.22 446.152 286.784 447.333 284.073C444.982 286.102 442.252 287.861 439.428 288.741C435.978 289.824 431.347 290.105 427.798 288.664L427.793 288.67Z" fill="white"/>
<path d="M459.051 264.189C460.798 259.296 459.842 253.967 457.079 249.733C456.101 248.238 454.903 246.874 453.513 245.719C452.684 245.027 451.805 244.416 450.887 243.888C446.207 241.166 440.543 240.457 435.165 241.111C441.202 244.752 447.075 249.662 446.657 257.36C446.57 258.905 444.169 258.911 444.257 257.36C444.493 253.077 442.46 249.81 439.582 247.188C439.763 252.912 435.978 257.932 435.764 263.717C435.528 270.161 441.142 276.66 447.449 278.332C447.894 278.453 448.338 278.541 448.789 278.612C448.789 278.612 448.805 278.612 448.811 278.612C448.866 278.612 448.91 278.612 448.959 278.623C449.761 278.656 450.508 278.645 451.223 278.568C451.31 278.557 451.398 278.552 451.481 278.536C452.783 278.36 453.986 277.969 455.205 277.287C455.672 277.029 456.145 276.726 456.628 276.375C456.771 276.27 456.914 276.204 457.057 276.177C461.495 272.707 463.923 264.657 463.522 260.043C463.352 258.08 462.748 256.326 461.841 254.77C462.633 258.069 462.545 261.556 461.374 264.822C460.858 266.268 458.54 265.647 459.056 264.184L459.051 264.189Z" fill="white"/>
<path d="M381.944 416.074C381.164 413.413 379.67 411.131 376.786 410.213C372.259 408.772 370.666 411.983 370.353 415.53C370.826 417.278 371.155 419.065 371.441 420.748C374.946 421.111 378.478 421.276 382.01 421.353C381.763 419.599 381.593 417.79 381.95 416.074H381.944Z" fill="white"/>
<path d="M326.169 395.108C325.856 397.115 325.779 399.039 325.999 400.738C326.361 400.854 326.724 400.964 327.087 401.068C329.405 401.739 331.762 402.157 334.157 402.36C332.597 398.72 330.223 395.421 326.175 395.102L326.169 395.108Z" fill="white"/>
<path d="M333.97 397.269C335.118 398.83 336.025 400.656 336.766 402.509C338.321 402.559 339.897 402.526 341.474 402.432C342.331 402.377 343.188 402.328 344.05 402.267C343.567 401.002 342.941 399.809 342.056 398.765C340.128 396.477 336.431 395.229 333.964 397.263L333.97 397.269Z" fill="white"/>
<path d="M269.043 423.602C268.515 422.161 268.361 420.583 268.543 419.032C267.455 416.476 265.933 414.144 263.917 412.379C261.105 409.921 256.561 409.558 255.029 413.611C253.853 416.723 253.738 420.358 253.76 423.651C259.011 424.361 264.362 424.432 269.696 424.317C269.416 424.19 269.18 423.959 269.048 423.607L269.043 423.602Z" fill="white"/>
<path d="M278.728 413.127C276.036 411.84 273.047 414.095 271.784 416.344C271.388 417.053 271.119 417.784 270.965 418.549C270.674 420.006 270.828 421.523 271.355 422.959C271.586 423.591 271.284 424.064 270.822 424.284C271.405 424.267 271.987 424.256 272.569 424.234C275.239 424.152 277.904 424.042 280.551 423.959C281.458 423.932 282.37 423.899 283.282 423.866C282.881 422.09 282.469 420.319 282.002 418.565C281.48 416.602 280.722 414.084 278.728 413.127Z" fill="white"/>
<path d="M357.877 380.091C357.471 379.47 357.086 378.843 356.707 378.21C348.863 379.101 340.958 379.486 333.052 379.481C330.19 382.851 327.817 387.872 326.653 392.721C328.976 392.941 330.861 393.97 332.404 395.449C335.129 393.172 339.068 393.486 341.979 395.449C344.309 397.021 345.649 399.463 346.539 402.091C349.06 401.888 351.587 401.613 354.087 401.217C354.581 394.124 355.642 387.063 358.064 380.371C358.004 380.278 357.938 380.19 357.883 380.096L357.877 380.091Z" fill="white"/>
<path d="M367.799 415.2C367.211 413.275 366.392 411.449 365.134 409.893C363.42 407.782 360.718 406.072 358.284 408.145C357.114 409.14 356.471 410.493 356.037 411.928C356.026 412.362 356.015 412.797 356.01 413.237C355.977 414.661 355.949 416.079 355.993 417.487C359.932 418.867 364.014 419.763 368.172 420.346C368.161 420.319 368.156 420.286 368.156 420.258C367.942 418.631 367.722 416.893 367.81 415.2H367.799Z" fill="white"/>
<path d="M383.098 380.162C378.676 379.799 373.699 379.024 369.87 376.61C369.82 376.583 369.776 376.555 369.732 376.517C368.859 375.945 368.057 375.279 367.398 374.499C366.689 373.668 366.151 372.706 365.849 371.606C365.574 370.595 365.491 369.495 365.717 368.461C365.805 368.043 367.041 365.948 366.914 365.789C367.865 367.009 369.551 365.294 368.617 364.09C366.986 361.995 364.574 364.854 363.893 366.355C362.756 368.862 363.074 371.947 364.371 374.334C364.481 374.543 364.602 374.741 364.728 374.939C365.233 375.736 365.827 376.451 366.502 377.089C370.694 381.075 377.786 382.125 383.115 382.56C384.658 382.686 384.647 380.278 383.115 380.157L383.098 380.162Z" fill="#1D1D1B"/>
<path d="M459.029 248.518C457.98 246.94 456.705 245.505 455.25 244.279C448.663 238.742 439.549 237.768 431.391 239.594C430.381 239.819 430.221 241.304 431.106 241.793C432.996 242.833 435.017 243.976 436.896 245.296C436.896 245.373 436.912 245.455 436.934 245.538C437.989 249.706 436.077 253.676 434.77 257.553C433.523 261.242 432.82 265.025 434.149 268.797C436.149 274.494 441.324 279.696 447.328 281.065C445.147 283.182 442.587 285.2 439.807 286.327C436.489 287.669 431.43 288.131 428.134 286.426C427.766 286.234 427.414 286.014 427.085 285.761C424.179 274.335 418.828 263.678 410.225 255.287C398.771 244.119 383.329 237.389 367.827 234.167C350.753 230.614 332.91 231.351 316.21 236.284C312.452 231.082 308.365 226.128 303.981 221.454C304.196 220.491 304.382 219.529 304.558 218.567C305.316 214.399 305.772 210.198 306.014 205.986C306.541 206.508 307.091 207.02 307.64 207.537C307.613 207.399 307.58 207.251 307.558 207.108C308.113 207.762 308.695 208.4 309.288 209.032C317.237 217.451 327.439 223.411 339.552 222.867C346.215 222.57 352.665 220.211 357.927 216.103C364.036 211.336 367.546 204.87 368.947 197.304C370.469 189.061 371.095 180.675 372.727 172.438C374.358 164.201 376.589 155.975 380.379 148.448C387.433 134.415 399.617 123.561 404.572 108.39C409.225 94.1483 408.127 78.532 403.809 64.3509C395.47 36.951 374.627 10.6398 346.325 2.52926C331.998 -1.57826 316.347 -0.852431 302.965 5.97143C296.049 9.50158 289.902 14.4119 284.271 19.7236C282.227 21.6537 280.222 23.6277 278.277 25.6677C261.077 14.6978 241.295 7.55505 221.019 4.26134C204.138 1.5175 186.91 1.28106 169.902 2.99115C159.888 -0.786446 148.78 0.824667 138.386 2.56225C136.974 2.79319 137.436 4.8332 138.705 4.92668C141.358 5.11364 143.951 5.63051 146.434 6.43882C134.816 8.68778 123.345 11.833 112.523 16.276C104.645 19.5092 97.3666 23.6772 90.725 28.6095C85.7754 23.5012 80.0786 19.1353 73.7996 15.7316C68.7566 12.9987 63.2851 10.8653 57.528 10.4309C51.3478 9.96897 45.2006 11.5416 39.5533 13.9445C20.8426 21.9176 7.42752 39.5849 2.28014 59.0172C-0.884096 70.9713 -0.230373 83.1069 1.1375 95.281C1.86264 101.692 3.09867 107.829 5.52678 113.828C8.02082 119.97 10.3281 125.936 11.63 132.463C14.2339 145.517 16.1841 159.555 14.2229 172.823C12.4211 185.014 5.18619 196.055 4.97194 208.51C4.91701 211.584 5.25211 214.536 7.65276 216.692C9.70182 218.523 12.3881 219.733 14.9591 220.667C20.8206 222.812 27.2919 223.07 33.3897 221.888C39.2017 220.755 44.5029 218.259 49.2328 214.883C49.2328 215.103 49.2328 215.323 49.2218 215.543C49.057 223.274 48.8428 231.115 50.4359 238.736C51.985 246.132 55.5283 252.758 61.2196 257.915C67.2899 263.409 74.7884 267.203 81.9025 271.217C85.2645 273.114 88.6265 275.011 91.9885 276.908C91.0711 277.892 90.258 278.986 89.5549 280.191C89.3956 280.46 89.3516 280.729 89.4011 280.971C85.0777 280.081 80.5126 280.944 76.1783 281.862C76.0025 281.901 75.8542 281.967 75.7333 282.06C73.2887 278.222 70.1135 274.835 66.3285 272.108C66.3285 272.108 66.312 272.097 66.312 272.091C66.1802 271.855 65.9494 271.668 65.6143 271.574C62.8456 270.826 60.0385 271.024 57.451 272.13C57.451 272.13 57.4401 272.13 57.4346 272.141C51.0292 274.181 45.0633 281.065 39.1084 282.874C38.9381 282.923 38.7787 282.967 38.6085 283.017H38.592C37.345 283.22 36.1089 283.424 34.8674 283.633C34.0104 283.77 33.126 283.853 32.3624 284.271C32.2635 284.326 32.1701 284.381 32.0767 284.447C31.9723 284.518 31.8735 284.595 31.7856 284.678C31.5054 284.914 31.2802 285.183 31.1154 285.469C30.7912 286.019 30.6594 286.641 30.6869 287.278C30.6979 287.526 30.7253 287.768 30.7803 288.015C30.7967 288.07 30.8022 288.12 30.8242 288.175C31.022 288.576 31.2252 288.978 31.4285 289.379C37.5812 301.449 45.6291 312.666 55.9129 321.508C68.5039 332.329 84.023 338.592 100.679 338.862C128.701 339.307 155.647 324.928 173.462 303.505C175.709 304.819 178.077 305.886 180.499 306.562C182.779 313.755 186.619 320.309 191.003 326.5C187.762 340.935 187.806 356.001 191.14 370.424C188.404 374.24 186.136 378.364 184.372 382.697C182.609 387.024 181.345 391.561 180.631 396.185C180.274 398.44 180.054 400.722 179.972 403.009C179.955 403.229 179.955 403.449 179.95 403.669C179.939 403.828 179.939 403.982 179.939 404.142C179.928 404.466 179.922 404.802 179.922 405.126V405.517C179.922 405.714 179.922 405.912 179.922 406.105C179.933 406.77 179.955 407.43 179.988 408.095C180.801 408.381 181.614 408.651 182.433 408.915C184.729 409.646 187.053 410.273 189.399 410.795C190.223 410.977 191.041 411.153 191.871 411.307C194.958 411.906 198.084 412.324 201.215 412.566C202.017 412.626 202.825 412.681 203.627 412.72C207.099 412.89 210.576 412.846 214.042 412.588C214.844 412.533 215.652 412.456 216.454 412.373C222.695 411.73 228.869 410.383 234.835 408.337C234.731 409.019 234.632 409.701 234.544 410.388C234.242 412.709 234.028 415.046 233.879 417.383C233.824 418.268 233.78 419.148 233.736 420.033C234.214 420.28 234.687 420.517 235.17 420.753C235.472 420.902 235.78 421.045 236.088 421.193C240.911 423.442 246.014 425.053 251.277 425.944C251.673 426.01 252.068 426.076 252.469 426.131C252.876 426.192 253.293 426.247 253.7 426.302C259.276 427.022 264.934 427.077 270.581 426.945C271.378 426.928 272.18 426.906 272.982 426.884C275.531 426.807 278.069 426.708 280.596 426.631C281.689 426.598 282.777 426.56 283.87 426.521C284.683 426.488 285.496 426.455 286.309 426.417C296.565 425.95 306.838 424.993 316.77 422.612C317.55 422.43 318.325 422.232 319.099 422.024C318.918 421.254 318.731 420.484 318.545 419.714C317.16 413.924 315.776 408.134 314.348 402.355C312.881 396.411 310.321 391.324 307.14 386.398C308.585 383.978 309.733 381.427 310.574 378.787C316.122 379.227 321.681 379.535 327.252 379.673C328.175 379.695 329.092 379.711 330.015 379.722C327.312 383.45 325.214 388.421 324.203 393.221C323.703 395.624 323.467 397.967 323.571 400.1C323.604 400.887 323.687 401.634 323.818 402.349C323.851 402.547 323.923 402.707 324.027 402.828C324.373 402.96 324.719 403.075 325.065 403.191C325.225 403.246 325.389 403.295 325.549 403.35C328.68 404.351 331.872 404.912 335.135 405.126C335.981 405.181 336.832 405.214 337.684 405.22C338.645 405.231 339.612 405.209 340.584 405.165C341.991 405.099 343.408 405.022 344.836 404.923C345.638 404.868 346.446 404.807 347.253 404.736C349.495 404.549 351.736 404.296 353.956 403.949C353.813 406.6 353.725 409.261 353.659 411.917C353.642 412.731 353.62 413.545 353.604 414.353C353.593 414.809 353.587 415.266 353.587 415.722C353.587 416.096 353.587 416.47 353.587 416.844C353.598 417.718 353.626 418.587 353.686 419.45C354.51 419.769 355.345 420.061 356.18 420.33C364.712 423.118 373.842 423.849 382.906 424.025C383.648 424.042 384.389 424.047 385.125 424.053C387.647 424.08 390.163 424.069 392.652 424.064C393.14 424.064 393.629 424.064 394.113 424.064C394.42 424.064 394.728 424.064 395.036 424.053C402.919 423.981 410.813 423.349 418.301 420.693C418.487 420.627 418.68 420.561 418.866 420.484C419.663 420.198 420.459 419.901 421.251 419.588C421.234 418.735 421.223 417.889 421.201 417.036C420.833 402.322 419.278 387.624 414.455 373.663C420.459 364.54 424.321 354.071 426.651 343.354C429.969 328.117 431.067 311.857 429.084 296.362C433.787 297.418 438.934 296.423 443.027 293.453C447.191 290.435 449.729 286.135 450.805 281.411C450.816 281.367 450.822 281.329 450.833 281.285C451.212 281.268 451.58 281.224 451.943 281.18C454.03 280.894 455.914 280.125 457.859 278.717C457.974 278.634 458.068 278.541 458.145 278.437C462.715 275.071 465.555 268.105 465.951 262.837C466.412 256.656 463.407 251.911 459.029 248.524V248.518ZM35.0542 219.04C29.7035 220.442 23.9574 220.623 18.5738 219.26C16.0193 218.616 13.5637 217.643 11.2949 216.307C10.0864 215.598 8.80089 214.784 8.10871 213.519C7.18581 211.842 7.31765 209.538 7.40006 207.669C7.92194 196.072 14.5471 185.712 16.3984 174.347C18.3321 162.546 16.9697 150.554 15.1568 138.842C14.2559 132.991 13.1792 127.129 11.196 121.537C9.19093 115.879 6.42222 110.551 5.04885 104.678C3.62604 98.5967 3.11515 92.2567 2.6537 86.0377C2.21971 80.2806 2.09886 74.485 2.81301 68.7444C5.20816 49.499 15.9424 30.9244 32.4118 20.4275C37.5537 17.1447 43.2779 14.5714 49.2713 13.3782C56.0173 12.031 62.6479 13.1472 68.872 15.957C76.3376 19.3222 83.0946 24.1941 88.8242 30.0611C71.767 43.3515 59.143 61.75 51.8202 82.1062C45.8653 98.6737 43.3218 116.313 43.2559 133.832C43.19 152.346 46.4202 170.596 48.2055 188.973C48.9527 196.611 49.2932 204.232 49.2548 211.886C45.0303 215.147 40.273 217.671 35.0432 219.045L35.0542 219.04ZM34.2686 286.129C34.3181 286.118 34.3675 286.107 34.4059 286.107C34.5323 286.08 34.6532 286.058 34.774 286.041C36.433 285.733 38.147 285.546 39.7401 285.134C40.3334 284.985 40.9047 284.804 41.4486 284.579C46.0741 282.643 51.3313 276.996 56.7754 274.868C57.2972 274.659 57.8301 274.494 58.3575 274.357C58.3575 274.357 58.3611 274.357 58.3685 274.357C60.1538 273.57 62.0546 273.35 63.9663 273.686C63.9663 274.016 63.9443 274.357 63.9224 274.681C63.6861 277.854 62.5655 280.79 59.6155 282.852C55.3745 285.816 49.9195 287.707 44.7886 288.241C40.8992 288.642 36.8505 288.076 33.2908 286.569C33.527 286.355 33.8841 286.228 34.2686 286.135V286.129ZM179.681 303.769C178.082 303.208 176.511 302.466 174.995 301.602C176.967 299.123 178.807 296.549 180.516 293.899C181.087 293.915 181.664 293.91 182.252 293.855C187.525 293.398 191.904 289.703 194.387 285.178C197.43 279.63 197.738 273.026 197.721 266.834C197.71 262.05 197.298 257.19 195.529 252.774C195.897 249.964 196.156 247.144 196.287 244.306C199.985 244.933 203.259 246.781 205.104 250.668C205.769 252.065 207.846 250.844 207.181 249.453C204.967 244.785 200.902 242.596 196.375 241.925C195.584 241.799 194.777 241.727 193.964 241.7C190.673 241.568 187.267 242.112 184.235 242.981C182.752 243.404 183.383 245.725 184.872 245.301C187.668 244.504 190.838 243.954 193.87 244.07C193.793 245.692 193.673 247.314 193.508 248.92C193.376 250.289 193.211 251.658 193.013 253.016C191.085 266.636 186.333 279.723 179.126 291.358C178.681 292.09 178.219 292.81 177.742 293.525C176.225 295.851 174.594 298.116 172.874 300.305C172.374 300.943 171.864 301.575 171.347 302.202C166.365 308.228 160.624 313.689 154.202 318.406C140.6 328.398 124.334 335.056 107.436 336.283C90.7799 337.492 74.6126 332.884 61.28 322.805C49.7217 314.068 40.8278 302.24 34.1313 289.428C37.8888 290.677 41.9979 291.045 45.9312 290.506C51.6225 289.72 58.0993 287.515 62.4776 283.66C64.8617 281.565 65.9165 278.81 66.2516 275.863C66.2791 275.61 66.3065 275.357 66.3175 275.104C66.5318 275.275 66.7515 275.445 66.9602 275.627C73.7721 281.329 78.1504 289.626 78.936 298.545C79.0678 300.074 81.4795 300.09 81.3366 298.545C80.8862 293.426 79.381 288.543 76.9803 284.155C82.1991 283.044 87.8849 281.961 92.7741 284.782C96.8777 287.146 99.586 291.292 101.899 295.295C102.673 296.632 104.75 295.427 103.97 294.08C101.338 289.533 98.1522 284.842 93.3564 282.363C92.7576 282.049 92.1478 281.785 91.527 281.571C91.5655 281.521 91.5984 281.472 91.6314 281.411C92.3401 280.185 93.1861 279.091 94.1474 278.129C94.6968 277.573 95.2791 277.056 95.8943 276.583C98.9487 274.219 102.745 272.844 106.64 272.218C112.765 271.228 119.818 271.118 125.46 274.005C126.834 274.714 128.053 272.635 126.669 271.926C120.412 268.72 112.798 268.764 105.997 269.897C104.387 270.167 102.794 270.557 101.261 271.085C102.558 266.57 105.068 262.886 108.315 259.977C109.046 259.329 109.809 258.718 110.606 258.152C115.341 254.743 121.203 252.692 127.086 251.872C128.613 251.663 127.965 249.343 126.455 249.552C120.961 250.316 115.517 252.153 110.881 255.078C111.287 251.74 112.073 248.359 113.336 245.252C113.957 243.729 114.693 242.272 115.55 240.914C118.324 236.553 122.406 233.265 128.179 232.297C129.696 232.044 129.053 229.724 127.542 229.977C123.125 230.719 119.593 232.71 116.819 235.486C117.989 230.318 119.066 225.017 119.857 219.672C119.978 218.869 120.088 218.067 120.192 217.264C121.999 203.44 121.73 189.429 116.176 176.689C114.962 173.907 113.331 171.218 111.32 168.969C110.6 168.155 109.82 167.402 109.002 166.72C105.497 163.822 101.13 162.282 96.0646 163.399C85.6106 165.697 80.7324 176.601 78.7163 186.075C76.7386 195.373 75.8926 205.117 76.9364 214.619C73.5689 215.862 70.3113 217.627 67.2294 220.019C66.0099 220.964 67.7183 222.652 68.9269 221.718C71.5638 219.661 74.3544 218.122 77.244 216.994C78.0076 216.692 78.7822 216.422 79.5623 216.186C81.4465 215.598 83.3637 215.18 85.3084 214.899C86.0995 214.789 86.896 214.696 87.6926 214.624C97.5094 213.767 107.892 216.142 117.473 218.957C116.484 226.051 114.962 233.072 113.298 240.039C110.304 244.988 108.766 251.081 108.293 256.882C103.712 260.445 100.212 265.245 98.7125 271.316C98.6411 271.607 98.6685 271.866 98.7619 272.086C96.9656 272.91 95.2846 273.95 93.7794 275.214C86.6488 271.217 79.4359 267.318 72.4427 263.09C65.6583 258.993 59.2914 254.083 55.7206 246.94C52.1938 239.874 51.584 231.813 51.5236 224.071C51.5016 220.403 51.573 216.741 51.6225 213.079C51.639 212.029 51.6445 210.984 51.6554 209.934C51.6774 206.574 51.6445 203.231 51.4687 199.877C50.5183 181.962 47.1563 164.267 46.0466 146.364C44.9919 129.312 46.107 112.063 50.2876 95.4515C56.4842 70.8559 70.0036 47.481 90.3734 31.6943C91.0051 31.2049 91.6369 30.721 92.2741 30.2536C95.7295 27.7077 99.3772 25.3818 103.206 23.2923C117.736 15.3852 134.288 11.1017 150.604 8.12691C152.779 9.18266 154.839 10.4913 156.74 12.02C143.276 10.5188 126.455 12.5753 118.115 23.8641C117.484 24.7274 118.527 25.9151 119.472 25.6292C132.398 21.7251 146.758 24.59 157.207 33.0524C145.121 34.1082 133.953 40.7176 127.224 50.9176C126.581 51.8964 127.888 53.2546 128.866 52.5617C135.76 47.7174 144.501 46.7057 152.323 49.8179C153.763 50.3898 154.378 48.0693 152.955 47.4975C146.434 44.9021 139.139 45.0286 132.756 47.6789C139.721 39.9973 149.769 35.4059 160.234 35.3014C161.25 35.2904 161.86 33.9762 161.085 33.2449C150.873 23.6497 136.282 19.5807 122.631 22.3465C126.553 18.7119 131.794 16.6939 136.991 15.4896C144.588 13.7356 152.472 13.5871 160.146 14.8958C161.272 15.0882 162.217 13.8016 161.316 12.8833C159.223 10.7663 156.894 8.94622 154.394 7.45058C153.263 6.76874 152.109 6.15839 150.917 5.61952C149.335 4.89919 147.698 4.29433 146.022 3.81595C151.889 3.02964 157.888 2.66123 163.612 3.71697C165.606 4.08538 167.562 4.62425 169.474 5.38857C170.952 5.23461 172.429 5.09714 173.913 4.97617C185.13 4.04139 196.419 3.98091 207.637 4.94868C231.984 7.05467 256.15 14.4064 276.673 27.3998C273.806 30.4955 271.076 33.7178 268.527 37.083C266.055 40.3492 263.802 43.7639 261.781 47.3215C261.017 48.6742 263.094 49.8839 263.857 48.5367C267.28 42.5047 271.449 36.72 276.124 31.3423C277.003 30.3251 277.904 29.3243 278.827 28.3346C283.584 23.2153 288.786 18.5194 294.198 14.4064C306.283 5.20712 320.682 0.962134 335.816 2.82619C364.833 6.39483 387.158 29.7092 398.128 55.652C403.836 69.1568 406.792 84.4046 404.397 99.0146C403.226 106.146 400.738 112.877 397.041 119.079C393.19 125.546 388.433 131.391 384.175 137.571C375.484 150.191 371.491 164.344 369.085 179.339C367.838 187.092 367.799 195.511 364.997 202.907C362.333 209.939 356.422 215.433 349.533 218.27C336.486 223.648 322.258 218.721 312.645 209.148C312.529 209.032 312.414 208.917 312.299 208.801C311.414 207.899 310.557 206.976 309.739 206.03C300.537 195.549 294.774 182.743 289.418 169.975C287.952 166.489 286.386 163.052 284.529 159.759C283.771 158.411 281.694 159.621 282.453 160.968C286.551 168.237 289.111 176.194 292.637 183.722C294.417 187.51 296.455 191.233 298.691 194.835C300.158 197.199 301.707 199.503 303.328 201.73C303.443 202.307 303.531 202.89 303.591 203.479C303.63 203.523 303.663 203.561 303.701 203.605C303.69 203.88 303.674 204.155 303.663 204.43C303.663 204.468 303.663 204.501 303.663 204.534C303.712 205.557 303.641 206.558 303.476 207.542C303.19 211.518 302.712 215.471 301.96 219.348C301.779 220.299 301.575 221.25 301.361 222.185C299.598 229.768 296.703 237.031 292.116 243.701C285.765 252.923 276.509 258.79 266.236 262.82C255.524 267.021 244.383 270.035 233.616 274.126C227.353 276.501 221.112 278.959 214.921 281.521C212.812 282.39 210.724 283.314 208.714 284.353C210.477 279.663 211.889 274.84 213.279 270.024C213.713 268.533 211.395 267.896 210.961 269.386C209.334 275.005 207.703 280.647 205.478 286.069C205.462 286.113 205.44 286.162 205.418 286.201C204.857 287.57 204.248 288.978 203.572 290.38C201.699 294.333 199.353 298.237 196.216 301.075C191.997 304.891 187.141 305.594 182.384 304.55C181.483 304.357 180.576 304.093 179.681 303.774V303.769ZM182.037 291.457C182.625 290.49 183.191 289.516 183.74 288.532C188.981 279.118 192.645 268.88 194.634 258.328C195.09 260.714 195.266 263.172 195.304 265.636C195.398 271.25 195.304 277.238 193.03 282.467C191.074 286.976 187.141 291.028 182.037 291.463V291.457ZM85.1381 212.573C83.1605 212.854 81.2048 213.266 79.2876 213.833C78.5789 206.822 78.947 199.701 79.9798 192.696C81.3696 183.265 83.9131 171.57 93.2959 166.907C97.839 164.647 101.954 165.153 105.409 167.193C98.9487 168.38 93.1201 171.273 90.0932 177.734C87.4289 183.408 86.3577 190.122 85.5996 196.303C84.9349 201.702 84.7975 207.141 85.1381 212.562V212.573ZM99.7233 171.548C100.816 171.02 101.976 170.591 103.173 170.239C101.976 170.585 100.816 171.02 99.7233 171.548ZM116.671 185.756C118.516 193.223 118.906 201.07 118.489 208.708C118.346 211.331 118.104 213.943 117.786 216.543C118.104 213.943 118.341 211.331 118.489 208.708C118.912 201.07 118.516 193.223 116.671 185.756ZM108.639 169.739C110.166 171.24 111.501 173.021 112.611 174.94C111.507 173.016 110.166 171.234 108.639 169.739ZM106.766 169.436C107.216 169.365 107.678 169.299 108.134 169.238C107.672 169.293 107.216 169.359 106.766 169.436ZM91.2743 212.122C90.0163 212.139 88.7583 212.199 87.5168 212.309C88.7638 212.199 90.0163 212.139 91.2743 212.122ZM182.329 406.352C182.274 403.213 182.477 400.073 182.933 396.983C183.488 395.762 184.526 394.849 185.976 395.789C187.168 396.559 187.443 398.319 187.674 399.611C188.185 402.47 188.613 405.352 189.025 408.233C186.778 407.705 184.542 407.078 182.329 406.352ZM191.475 408.772C191.069 406.066 190.657 403.356 190.245 400.65C190.151 400.056 190.058 399.44 189.937 398.825C190.118 398.577 190.201 398.247 190.107 397.868C189.701 396.213 194.755 398.385 195.024 398.561C196.535 399.567 197.732 401.002 198.611 402.569C199.913 404.884 200.517 407.485 200.897 410.113C197.738 409.855 194.59 409.404 191.475 408.772ZM207.774 410.399C206.291 410.399 204.802 410.361 203.314 410.278C202.836 406.952 202.061 403.63 200.358 400.826C203.852 399.429 209.455 397.747 211.427 401.799C212.284 403.559 212.532 405.725 212.944 407.611C213.13 408.475 213.323 409.338 213.51 410.201C211.603 410.333 209.692 410.405 207.774 410.405V410.399ZM235.599 404.164C235.494 404.648 235.39 405.143 235.302 405.632C229.023 407.881 222.508 409.338 215.932 409.992C215.531 408.101 215.119 406.209 214.685 404.329C214.218 402.311 213.669 400.133 212.125 398.638C208.758 395.377 202.693 397.263 198.985 398.814C198.968 398.825 198.946 398.83 198.924 398.841C198.375 398.209 197.754 397.62 197.062 397.076C195.392 395.773 193.063 394.624 190.893 394.866C190.162 394.948 189.465 395.195 188.915 395.591C188.322 394.475 187.438 393.568 186.075 393.084C185.213 392.782 184.4 392.771 183.68 392.985C185.202 386.073 187.992 379.453 191.92 373.531C192.497 372.651 193.107 371.788 193.744 370.941C195.277 368.884 196.958 366.921 198.787 365.079C199.88 363.979 198.183 362.275 197.09 363.375C195.661 364.815 194.315 366.327 193.057 367.906C190.387 355.127 190.338 341.919 192.909 329.123C194.98 331.917 197.139 334.644 199.281 337.327C208.653 349.062 218.415 359.954 232.643 365.673C234.319 366.344 236.016 366.96 237.736 367.526C237.747 367.84 237.758 368.153 237.774 368.466C238.021 372.75 239.208 376.846 241.076 380.629C241.092 380.684 241.109 380.728 241.131 380.783C241.631 381.971 242.18 383.126 242.773 384.259C239.944 390.731 237.098 397.279 235.615 404.158L235.599 404.164ZM236.203 418.581C236.34 416.14 236.533 413.71 236.835 411.296C237.011 411.059 237.203 410.845 237.428 410.641C239.362 408.893 244.866 407.732 246.679 409.981C248.563 412.324 249.536 416.123 250.25 418.994C250.618 420.473 250.887 421.969 251.063 423.47C245.899 422.529 240.911 420.863 236.203 418.576V418.581ZM253.788 423.904C253.766 420.616 253.881 416.976 255.057 413.863C256.589 409.811 261.138 410.174 263.945 412.632C265.961 414.397 267.488 416.723 268.571 419.285C268.389 420.836 268.543 422.414 269.07 423.855C269.202 424.212 269.439 424.443 269.719 424.564C264.385 424.679 259.034 424.608 253.782 423.899L253.788 423.904ZM280.585 424.218C277.937 424.3 275.273 424.41 272.603 424.492C272.02 424.509 271.438 424.525 270.856 424.542C271.317 424.328 271.619 423.849 271.389 423.217C270.861 421.776 270.713 420.264 270.999 418.807C271.152 418.048 271.422 417.311 271.817 416.602C273.081 414.353 276.069 412.093 278.761 413.385C280.75 414.342 281.508 416.86 282.035 418.823C282.502 420.577 282.908 422.348 283.315 424.124C282.403 424.157 281.491 424.185 280.585 424.218ZM327.114 401.332C326.752 401.228 326.389 401.118 326.027 401.002C325.812 399.298 325.889 397.373 326.203 395.371C330.251 395.69 332.624 398.99 334.185 402.63C331.789 402.421 329.433 402.008 327.114 401.338V401.332ZM341.518 402.696C339.936 402.789 338.365 402.822 336.81 402.773C336.069 400.914 335.162 399.094 334.014 397.532C336.486 395.498 340.178 396.746 342.106 399.034C342.991 400.078 343.617 401.272 344.1 402.536C343.238 402.591 342.381 402.646 341.524 402.701L341.518 402.696ZM346.567 402.344C345.677 399.715 344.336 397.274 342.007 395.701C339.101 393.744 335.157 393.43 332.438 395.701C330.894 394.222 329.01 393.194 326.686 392.974C327.851 388.119 330.224 383.104 333.086 379.733C340.991 379.733 348.896 379.354 356.741 378.463C357.12 379.095 357.51 379.722 357.911 380.344C357.966 380.437 358.032 380.525 358.092 380.618C355.664 387.31 354.609 394.371 354.115 401.464C351.615 401.865 349.088 402.135 346.567 402.338V402.344ZM356.021 417.751C355.977 416.343 356.005 414.925 356.038 413.501C356.049 413.061 356.054 412.626 356.065 412.192C356.504 410.751 357.147 409.404 358.312 408.409C360.751 406.336 363.454 408.046 365.162 410.157C366.42 411.714 367.244 413.539 367.827 415.464C367.739 417.157 367.958 418.9 368.173 420.522C368.173 420.55 368.184 420.577 368.195 420.61C364.036 420.028 359.954 419.131 356.016 417.751H356.021ZM371.474 421.001C371.189 419.318 370.859 417.531 370.386 415.783C370.705 412.236 372.293 409.025 376.819 410.465C379.703 411.384 381.198 413.671 381.978 416.321C381.621 418.037 381.796 419.846 382.038 421.6C378.511 421.523 374.974 421.353 371.469 420.995L371.474 421.001ZM385.153 421.65C385.054 419.94 384.823 418.163 384.389 416.47C384.477 416.151 384.593 415.838 384.746 415.541C385.702 413.66 387.63 413.017 389.509 414.023C392.278 415.502 392.712 418.691 392.712 421.644C390.212 421.655 387.691 421.666 385.153 421.644V421.65ZM425.437 337.058C423.382 349.084 419.641 361.01 413.137 371.282C412.708 371.969 412.263 372.645 411.802 373.316C409.747 376.33 407.429 379.178 404.836 381.834C403.748 382.939 405.451 384.644 406.534 383.538C408.813 381.212 410.884 378.732 412.769 376.126C417.136 389.631 418.526 403.779 418.839 417.938C418.454 418.081 418.064 418.224 417.674 418.361C410.384 420.957 402.749 421.567 395.074 421.639C394.931 417.058 393.657 411.807 388.367 411.153C386.329 410.9 384.499 411.785 383.302 413.358C381.917 410.449 379.605 408.233 375.82 407.798C373.051 407.485 370.408 408.662 368.997 411.12C368.936 411.224 368.876 411.334 368.826 411.444C367.739 409.223 366.233 407.276 364.047 405.951C361.723 404.549 359.108 404.736 356.971 406.391C356.708 406.6 356.461 406.814 356.235 407.045C356.285 405.874 356.334 404.692 356.406 403.52C356.428 403.086 356.455 402.652 356.483 402.217C356.504 401.821 356.537 401.431 356.565 401.041C357.015 394.915 357.933 388.845 359.834 383.016C362.47 386.376 365.717 389.125 369.887 390.511C371.359 391 371.985 388.68 370.518 388.19C366.343 386.799 363.261 383.786 360.795 380.289C360.3 379.59 359.834 378.881 359.389 378.155C359.345 378.095 359.306 378.023 359.262 377.957C359.07 377.644 358.883 377.33 358.702 377.017C358.488 376.643 358.268 376.269 358.059 375.89C355.274 370.952 352.89 365.734 350.588 360.565C345.133 348.308 341.007 335.166 342.359 321.607C342.513 320.067 340.107 320.078 339.958 321.607C338.53 335.898 343.078 349.721 348.88 362.588C350.929 367.136 352.994 371.793 355.433 376.192C348.852 376.896 342.221 377.237 335.591 377.303C334.404 377.314 333.223 377.319 332.037 377.303C325.12 377.275 318.188 376.951 311.271 376.423C313.474 367.708 312.524 358.31 308.343 350.062C312.689 341.385 315.194 331.862 315.715 322.096C315.798 320.551 313.392 320.551 313.315 322.096C312.842 330.949 310.651 339.549 306.92 347.489C306.08 346.103 305.135 344.756 304.102 343.464C303.135 342.254 301.443 343.97 302.399 345.163C303.641 346.714 304.729 348.341 305.662 350.024C306.146 350.887 306.585 351.767 306.986 352.658C310.343 360.13 310.92 368.483 308.849 376.225C308.634 377.017 308.398 377.803 308.134 378.578C307.481 380.492 306.657 382.356 305.673 384.149C305.256 384.902 304.811 385.644 304.339 386.37C302.844 388.669 301.059 390.819 298.993 392.765C297.862 393.826 299.565 395.525 300.696 394.464C302.636 392.633 304.338 390.643 305.8 388.531C306.618 389.779 307.398 391.055 308.118 392.369C310.118 396.009 311.299 399.842 312.277 403.861C313.606 409.338 314.93 414.826 316.248 420.308C306.338 422.678 296.071 423.591 285.864 424.031C284.798 418.416 283.26 410.201 276.701 410.663C273.427 410.894 270.966 413.017 269.636 415.761C267.988 412.753 265.714 410.262 262.709 409.008C259.743 407.776 256.089 408.222 254.029 410.85C252.931 412.247 252.288 414.056 251.92 415.981C251.782 415.541 251.634 415.112 251.48 414.677C250.365 411.576 249.008 406.825 245.135 406.501C242.625 406.292 239.686 406.556 237.373 407.809C237.395 407.678 237.417 407.54 237.439 407.408C237.604 406.479 237.78 405.555 237.983 404.637C238.038 404.4 238.087 404.169 238.142 403.933C239.494 398.06 241.828 392.419 244.251 386.854C245.509 388.921 246.932 390.896 248.503 392.776C249.492 393.964 251.189 392.259 250.2 391.071C248.382 388.9 246.805 386.59 245.438 384.138C245.514 383.973 245.58 383.813 245.652 383.648C245.119 382.823 244.619 381.977 244.163 381.108C242.021 377.11 240.653 372.722 240.34 368.345C240.274 367.488 240.252 366.63 240.268 365.778C240.356 361.989 241.273 358.261 243.196 354.857C243.636 354.076 244.136 353.312 244.685 352.57C245.465 351.514 246.355 350.502 247.36 349.54C248.481 348.473 246.778 346.774 245.657 347.841C244.872 348.594 244.136 349.397 243.46 350.244C238.593 340.704 235.225 330.465 233.467 319.836C233.215 318.313 230.902 318.956 231.149 320.474C232.995 331.658 236.626 342.452 241.883 352.443C239.499 356.188 238.109 360.537 237.802 364.991C231.99 363.072 226.425 360.477 221.431 356.892C215.328 352.504 210.219 346.89 205.445 341.127C201.473 336.332 197.315 331.378 193.568 326.154C192.942 325.285 192.327 324.405 191.733 323.52C188.251 318.373 185.24 312.952 183.235 307.162C187.487 307.81 191.827 307.14 195.87 304.401C200.99 300.932 204.242 294.773 206.709 289.274C206.923 288.796 207.132 288.318 207.34 287.834C210.422 286.008 213.735 284.568 217.069 283.215C222.925 280.845 228.798 278.508 234.709 276.265C245.701 272.102 257.117 269.1 267.999 264.684C277.585 260.797 286.281 255.386 292.632 247.072C297.763 240.353 301.229 232.462 303.339 224.275C307.074 228.333 310.568 232.594 313.809 237.042C314.309 237.719 314.798 238.406 315.281 239.093C319.566 245.181 323.401 251.592 326.741 258.289C327.433 259.675 329.504 258.46 328.817 257.074C325.571 250.564 321.857 244.317 317.71 238.368C331.685 234.376 346.429 233.32 360.855 235.376C376.347 237.576 392.003 243.239 404.259 253.176C412.598 259.933 418.284 268.401 421.97 277.777C423.157 280.79 424.135 283.908 424.926 287.091C425.387 288.928 425.788 290.798 426.123 292.678C426.299 293.64 426.458 294.608 426.601 295.576C428.634 309.312 427.722 323.806 425.458 337.063L425.437 337.058ZM441.824 291.369C437.956 294.24 433.056 295.076 428.722 293.767C428.469 292.145 428.172 290.534 427.826 288.934C431.375 290.374 436.006 290.094 439.456 289.01C442.28 288.131 445.01 286.371 447.361 284.342C446.185 287.053 444.356 289.489 441.818 291.375L441.824 291.369ZM457.084 276.435C456.947 276.457 456.799 276.528 456.656 276.633C456.178 276.985 455.7 277.287 455.233 277.546C454.014 278.222 452.811 278.618 451.509 278.794C451.421 278.81 451.333 278.816 451.25 278.827C450.536 278.904 449.789 278.92 448.987 278.882C448.938 278.882 448.888 278.882 448.839 278.871C448.839 278.871 448.822 278.871 448.817 278.871C448.366 278.805 447.921 278.711 447.476 278.59C441.17 276.919 435.561 270.419 435.792 263.975C436.006 258.196 439.796 253.17 439.61 247.446C442.488 250.069 444.521 253.335 444.285 257.619C444.197 259.169 446.603 259.164 446.685 257.619C447.108 249.92 441.23 245.01 435.193 241.37C440.577 240.716 446.235 241.425 450.915 244.147C451.833 244.675 452.706 245.285 453.541 245.978C454.931 247.133 456.129 248.491 457.106 249.992C459.87 254.226 460.825 259.554 459.079 264.448C458.562 265.911 460.88 266.537 461.397 265.086C462.567 261.82 462.649 258.333 461.864 255.034C462.77 256.59 463.374 258.344 463.545 260.307C463.946 264.921 461.518 272.971 457.079 276.44L457.084 276.435Z" fill="#1D1D1B"/>
<path d="M270.037 381.361C264.956 380.332 259.176 378.859 256.32 374.08C255.897 373.371 255.545 372.59 255.315 371.771C255.062 370.908 254.946 370.006 255.018 369.126C255.078 368.34 255.271 367.57 255.655 366.855C256.897 364.529 259.825 362.885 262.39 363.996C263.791 364.595 265.016 362.528 263.599 361.917C258.44 359.701 253.37 363.666 252.694 368.708C252.59 369.483 252.59 370.286 252.711 371.095C252.722 371.166 252.733 371.232 252.744 371.309C254.067 379.288 262.462 382.279 269.389 383.687C270.899 383.994 271.548 381.674 270.026 381.366L270.037 381.361Z" fill="#1D1D1B"/>
<path d="M229.204 209.956C229.995 210.094 230.786 210.248 231.566 210.412C235.664 211.276 239.697 212.518 243.602 214.135C245.031 214.729 245.651 212.403 244.24 211.815C240.207 210.143 236.043 208.873 231.802 207.993C232.308 202.632 232.577 197.249 232.599 191.86C232.643 182.771 232.484 172.4 226.897 164.839C226.303 164.026 225.639 163.245 224.908 162.508L224.798 162.398C218.382 155.998 208.521 155.937 200.907 160.248C192.425 165.037 187.882 174.561 185.762 183.716C183.476 193.603 183.564 203.93 185.872 213.767C186.058 214.564 186.256 215.356 186.476 216.142C187.206 215.779 187.943 215.427 188.684 215.086C191.184 213.943 193.744 212.958 196.348 212.139C197.128 211.892 197.908 211.661 198.699 211.435C208.609 208.691 219.074 208.191 229.204 209.956ZM217.822 206.514C217.151 206.514 216.481 206.514 215.811 206.53C216.481 206.514 217.151 206.508 217.822 206.514ZM230.209 190.936C230.209 188.451 230.193 185.844 230.039 183.227C230.198 185.844 230.209 188.456 230.209 190.936ZM196.205 209.676C193.447 210.517 190.739 211.534 188.102 212.716C186.371 205.101 185.992 197.21 187.124 189.446C188.404 180.615 191.447 171.311 198.221 165.147C204.374 159.55 214.355 157.411 221.31 162.535C213.366 163.19 205.906 166.181 201.572 173.665C198.331 179.273 197.446 186.059 196.738 192.399C196.1 198.139 195.936 203.913 196.205 209.676ZM199.589 188.396C199.572 188.5 199.561 188.605 199.545 188.704C199.561 188.599 199.572 188.495 199.589 188.396ZM199.149 192.107C199.034 193.279 198.93 194.45 198.836 195.599C198.93 194.45 199.028 193.284 199.149 192.107ZM198.572 208.994C198.507 207.322 198.485 205.651 198.49 203.974C198.485 205.645 198.501 207.322 198.572 208.994C203 207.801 207.538 207.036 212.108 206.701C207.543 207.031 203.006 207.795 198.572 208.994Z" fill="#1D1D1B"/>
<path d="M227.045 133.145C231.407 135.344 238.73 138.33 242.844 134.101C246.986 129.856 244.014 123.736 240.861 119.992C239.433 118.309 237.9 116.709 236.197 115.312C234.604 113.998 232.764 112.701 230.808 112.019C227.029 110.694 222.26 111.854 219.118 114.229C217.992 115.076 217.058 116.176 216.509 117.484C216.195 118.238 216.014 119.046 215.959 119.865C215.542 126.106 222.194 130.698 227.045 133.139V133.145ZM220.019 116.632C222.326 114.455 226.177 112.91 229.319 113.927C230.671 114.367 231.912 115.126 233.071 115.928C234.835 117.144 236.395 118.639 237.845 120.212C238.114 120.503 238.378 120.8 238.642 121.097C240.521 123.242 242.487 125.809 242.438 128.806C242.377 132.424 239.548 134.063 236.214 133.711C230.863 133.15 224.617 129.884 221.002 125.925C218.69 123.396 217.102 119.387 220.019 116.627V116.632Z" fill="#1D1D1B"/>
<path d="M233.72 420.149V420.027C233.72 420.027 233.703 420.016 233.687 420.005C233.698 420.061 233.703 420.099 233.72 420.143V420.149Z" fill="#1D1D1B"/>
<path d="M91.9827 124.078C90.1644 122.483 87.5989 122.016 85.2587 122.406C82.0505 122.945 78.8314 124.628 76.3868 126.745C75.4529 127.547 74.6014 128.449 73.8488 129.417C70.4923 133.777 68.8827 141.954 75.3485 144.527C78.4194 145.748 81.1991 143.999 83.7425 142.416C86.7255 140.563 89.9227 138.638 92.1036 135.828C94.1472 133.2 94.9657 129.202 93.5099 126.112C93.1364 125.315 92.609 124.633 91.9772 124.078H91.9827ZM91.741 131.44C90.9939 134.03 88.9503 135.933 86.8518 137.484C83.781 139.76 77.4305 145.176 74.2498 140.656C71.179 136.307 75.2881 130.478 78.8314 127.839C81.3199 125.986 84.215 124.908 87.2254 124.617C87.4177 124.848 87.7033 125.013 88.0824 125.034C91.3235 125.232 92.5431 128.675 91.7465 131.44H91.741Z" fill="#1D1D1B"/>
<path d="M283.012 105.113C273.63 78.1308 293.088 51.7206 313.82 36.4178C324.312 28.6756 338.865 22.924 351.357 29.6599C356.894 32.6402 361.031 37.5835 364.986 42.3563C369.513 47.811 373.88 53.4197 377.67 59.4133C386.053 72.6761 391.596 88.5343 388.053 104.288C387.713 105.795 390.025 106.438 390.371 104.926C393.618 90.4753 389.674 75.7003 382.604 63.0039C378.983 56.5045 374.589 50.4724 369.958 44.6658C365.634 39.2496 361.234 33.5365 355.554 29.4564C343.93 21.1095 328.784 24.0622 317.336 31.128C305.805 38.2323 295.296 48.6248 287.979 60.0126C279.348 73.4349 275.333 90.3213 280.694 105.751C281.2 107.202 283.518 106.575 283.012 105.113Z" fill="#1D1D1B"/>
</g>
<defs>
<clipPath id="clip0_1658_7705">
<rect width="466" height="427" fill="white"/>
</clipPath>
</defs>
</svg>
