<svg width="371" height="417" viewBox="0 0 371 417" fill="none" xmlns="http://www.w3.org/2000/svg">
<path d="M257.54 78.8801C257.54 78.7401 257.53 78.6001 257.54 78.4601C257.49 78.4301 257.44 78.4001 257.39 78.3701C257.45 78.5401 257.5 78.7101 257.55 78.8801H257.54Z" fill="white"/>
<path d="M271 90.0596C269.14 93.7596 266.01 96.0696 262.42 96.0696H262.14C261.86 96.0596 261.57 96.1596 261.36 96.3596C261.15 96.5596 261.03 96.8296 261.03 97.1196C261.03 99.2896 261.3 101.75 261.61 104.59C261.75 105.83 261.89 107.14 262.02 108.5C262.44 107.62 262.86 106.75 263.28 105.9C263.4 105.66 263.61 105.49 263.86 105.4C263.82 105.05 263.78 104.7 263.75 104.36C263.49 102.03 263.26 99.9596 263.2 98.1496C267.54 97.8296 271.23 94.8296 273.26 90.2696C273.04 90.2896 272.83 90.2996 272.61 90.2996C272.07 90.2996 271.52 90.2096 271 90.0596Z" fill="#231F20"/>
<path d="M241.62 95.8096C241.41 95.2796 241.19 94.7496 240.97 94.2396C239.96 91.9496 239.18 89.8196 238.6 87.8096H238.5C238.48 88.2196 238.23 88.5996 237.81 88.7496C237.3 88.9396 236.74 88.7096 236.49 88.2396C237.04 90.1496 237.76 92.1796 238.67 94.3096C239.69 94.7396 240.68 95.2396 241.62 95.7996V95.8096Z" fill="#231F20"/>
<path d="M204.25 79.2098C215.02 75.0398 224.34 71.4398 219.45 49.5998C218.63 49.5398 217.83 49.5098 217.05 49.5098C207.38 49.5098 203.08 54.3998 201.18 58.4998C197.82 65.7598 199.65 74.8498 203.32 79.5698L204.24 79.2098H204.25Z" fill="white"/>
<path d="M203.39 81.8102L205.04 81.1702C215.87 76.9802 227.06 72.6502 221.38 48.3702C221.28 47.9302 220.9 47.6002 220.44 47.5602C210.28 46.5302 202.68 50.1702 199.23 57.6102C195.78 65.0402 197.11 75.7602 202.18 81.5202C202.39 81.7602 202.69 81.8802 202.99 81.8802C203.12 81.8802 203.26 81.8602 203.39 81.8002V81.8102ZM201.19 58.4902C203.09 54.3902 207.39 49.5002 217.06 49.5002C217.83 49.5002 218.64 49.5302 219.46 49.5902C224.35 71.4302 215.03 75.0302 204.26 79.2002L203.34 79.5602C199.66 74.8402 197.83 65.7402 201.2 58.4902H201.19Z" fill="#231F20"/>
<path d="M237.56 38.2996C244.19 38.2996 248.15 34.5296 250.29 31.3696C253.88 26.0796 255.03 18.6396 253.16 13.3496L252.17 13.3996C240.83 13.9896 231.02 14.4996 228.65 36.3196C231.8 37.6296 234.79 38.2996 237.55 38.2996H237.56Z" fill="white"/>
<path d="M227.07 37.9399C230.76 39.5799 234.29 40.4099 237.56 40.4099C243.48 40.4099 248.63 37.6099 252.08 32.5399C256.2 26.4799 257.38 17.7699 254.88 11.8499C254.7 11.4399 254.28 11.1499 253.83 11.1999L252.07 11.2999C240.65 11.8899 228.85 12.5099 226.45 36.8799C226.43 37.0799 226.48 37.2699 226.56 37.4399C226.66 37.5599 226.76 37.6899 226.87 37.8099C226.94 37.8599 227 37.9099 227.08 37.9499L227.07 37.9399ZM252.18 13.3999L253.17 13.3499C255.05 18.6399 253.89 26.0799 250.3 31.3699C248.15 34.5299 244.2 38.2999 237.57 38.2999C234.81 38.2999 231.82 37.6299 228.67 36.3199C231.04 14.4999 240.85 13.9899 252.19 13.3999H252.18Z" fill="#231F20"/>
<path d="M307.38 87.6401C316.86 88.0901 320.91 83.5101 322.59 79.7301C325.3 73.6101 323.62 65.6701 320.31 61.6201L319.61 61.9201C310.52 65.7801 302.64 69.1201 307.39 87.6401H307.38Z" fill="white"/>
<path d="M306.46 89.6998C307.18 89.7498 307.88 89.7698 308.55 89.7698C316.24 89.7698 321.92 86.4998 324.55 80.5598C327.48 73.9498 326.05 64.5498 321.38 59.6198C321.07 59.2898 320.58 59.1898 320.16 59.3698L318.74 59.9798C309.47 63.9198 299.87 67.9898 305.49 88.9198C305.61 89.3598 305.99 89.6698 306.45 89.6998H306.46ZM319.6 61.9198L320.3 61.6198C323.61 65.6698 325.29 73.6098 322.58 79.7298C320.91 83.5098 316.85 88.0898 307.37 87.6398C302.62 69.1198 310.49 65.7798 319.59 61.9198H319.6Z" fill="#231F20"/>
<path d="M278.42 87.6998C282.21 89.5098 286.08 91.2198 290.04 92.7998C295.56 95.0198 301.41 97.0498 307.45 98.8498C325.5 104.21 344.01 107.43 362.45 108.42L362.6 109.47V108.42C365.3 108.42 368.44 106.27 368.52 104.82C368.57 103.92 367.08 102.79 362.74 102.3C344.8 101.34 326.78 98.1998 309.25 92.9898C303.63 91.3298 297.96 89.3598 292.37 87.1298C288.76 85.6898 285.23 84.1498 281.78 82.5098C280.94 84.6098 279.78 86.3798 278.41 87.6998H278.42Z" fill="white"/>
<path d="M203.54 7.30937C200.96 2.47937 199.111 2.10938 198.611 2.10938C197.901 2.10938 197.441 2.72938 197.171 3.23938C196.311 4.91937 196.381 7.92938 197.981 10.0594C209.521 31.3694 224.011 49.3194 241.311 63.8394C243.131 62.3094 245.061 61.1794 246.791 60.3894C229.451 46.1694 214.98 28.4294 203.54 7.30937Z" fill="white"/>
<path d="M362.93 100.19C345.1 99.23 327.25 96.13 309.88 90.96C304.33 89.31 298.71 87.37 293.19 85.16C289.53 83.7 285.95 82.13 282.45 80.46C282.29 81.08 282.11 81.7 281.87 82.32C281.85 82.38 281.82 82.44 281.8 82.5C285.25 84.14 288.78 85.68 292.39 87.12C297.97 89.35 303.65 91.32 309.27 92.98C326.8 98.2 344.82 101.33 362.76 102.29C367.1 102.78 368.59 103.91 368.54 104.81C368.46 106.27 365.32 108.41 362.62 108.41V109.46L362.47 108.41C344.03 107.43 325.52 104.21 307.47 98.84C301.43 97.04 295.57 95.01 290.06 92.79C286.1 91.21 282.22 89.51 278.44 87.69C277.85 88.26 277.22 88.74 276.57 89.13C280.69 91.13 284.92 93.01 289.25 94.74C294.82 96.98 300.75 99.04 306.85 100.86C325.07 106.27 343.74 109.52 362.37 110.52C362.38 110.52 362.61 110.52 362.62 110.52C366.03 110.52 370.51 107.89 370.68 104.93C370.78 103.18 369.53 100.93 362.93 100.19Z" fill="#231F20"/>
<path d="M257.53 78.46C257.53 78.4 257.53 78.35 257.53 78.29C257.48 78.31 257.43 78.31 257.37 78.33C257.37 78.33 257.37 78.35 257.37 78.36C257.42 78.39 257.47 78.42 257.52 78.45L257.53 78.46Z" fill="#231F20"/>
<path d="M241.301 63.8498C224.011 49.3298 209.521 31.3798 197.971 10.0698C196.371 7.93976 196.301 4.92977 197.161 3.24977C197.431 2.72977 197.891 2.11977 198.601 2.11977C199.111 2.11977 200.961 2.49977 203.531 7.31977C214.971 28.4398 229.431 46.1798 246.781 60.3998C247.601 60.0298 248.371 59.7298 249.071 59.5098C241.051 53.0298 233.641 45.7898 226.861 37.8198C226.761 37.6998 226.661 37.5698 226.551 37.4498C218.641 28.0898 211.591 17.7098 205.431 6.33977C203.191 2.13977 200.891 0.00976562 198.601 0.00976562C197.211 0.00976562 195.991 0.849766 195.251 2.30977C194.081 4.57977 194.051 8.40977 196.161 11.1998C207.751 32.5998 222.321 50.6798 239.721 65.3198C240.231 64.7998 240.761 64.3098 241.301 63.8598V63.8498Z" fill="#231F20"/>
<path d="M242.62 315.11C247.25 315.11 252.17 314.37 257.24 312.92C292.55 302.79 287.03 263.47 277.63 220.6C270.1 186.33 276.58 165.74 286.79 155.81C285.22 153.04 281.78 148.01 276.71 146.02C263.32 164.19 259.67 194.23 266.05 219.51C274.81 254.35 275.14 278.41 267.01 291.01C263.55 296.37 258.55 299.73 252.13 300.99C247.86 301.83 243.96 302.26 240.53 302.26C233.5 302.26 228.38 300.5 224.47 297.45C224.19 298.41 223.86 299.36 223.51 300.31C226.43 303.86 230.28 308.8 233.89 314.2C236.62 314.79 239.53 315.12 242.63 315.12L242.62 315.11Z" fill="white"/>
<path d="M296.12 129.169C296.64 129.009 297.16 128.859 297.68 128.729C297.15 128.869 296.63 129.009 296.12 129.169Z" fill="#231F20"/>
<path d="M326.7 130.24C326.87 130.32 327.03 130.4 327.2 130.49C327.04 130.4 326.87 130.32 326.7 130.24Z" fill="#231F20"/>
<path d="M333.71 151.15C333.71 151.15 333.72 151.13 333.73 151.12C333.72 151.14 333.71 151.16 333.69 151.17C333.69 151.17 333.7 151.16 333.71 151.15Z" fill="#231F20"/>
<path d="M333.67 151.2C333.1 151.97 332.5 152.63 331.86 153.22C332.52 152.65 333.12 151.99 333.67 151.2Z" fill="#231F20"/>
<path d="M287.97 157.09C287.64 157.03 287.35 156.83 287.2 156.54C287.08 156.32 286.94 156.07 286.79 155.8C276.58 165.73 270.1 186.32 277.63 220.59C287.03 263.47 292.55 302.79 257.24 312.91C252.17 314.36 247.25 315.1 242.62 315.1C239.52 315.1 236.61 314.77 233.88 314.18C234.42 314.99 234.96 315.81 235.48 316.64C237.75 317.01 240.12 317.21 242.62 317.21C247.46 317.21 252.58 316.44 257.84 314.94C298 303.42 287 253.3 279.73 220.14C272.3 186.34 278.66 166.35 288.55 157.03C288.43 157.08 288.29 157.1 288.15 157.1C288.09 157.1 288.03 157.1 287.97 157.09Z" fill="#231F20"/>
<path d="M325.85 129.82C321.8 127.93 316.82 126.88 311.35 126.88C307.04 126.88 302.44 127.5 297.68 128.73C302.38 127.52 306.94 126.9 311.24 126.9C316.75 126.9 321.77 127.94 325.85 129.82Z" fill="#231F20"/>
<path d="M224.46 297.44C228.38 300.49 233.5 302.25 240.52 302.25C243.95 302.25 247.86 301.82 252.12 300.98C258.53 299.72 263.54 296.36 267 291C275.13 278.4 274.8 254.34 266.04 219.5C259.66 194.22 263.31 164.18 276.7 146.01C276.44 145.91 276.18 145.8 275.91 145.72C275.58 145.62 275.32 145.36 275.22 145.04C275.12 144.71 275.18 144.36 275.39 144.09C280.31 137.67 286.15 133.07 292.82 130.35C264.68 141.77 255.02 184.57 263.97 220.02C272.59 254.28 273 277.79 265.2 289.88C262.07 294.73 257.53 297.78 251.71 298.92C247.58 299.73 243.82 300.15 240.53 300.15C233.6 300.15 228.72 298.42 225.04 295.28C224.87 296.01 224.67 296.73 224.46 297.45V297.44Z" fill="#231F20"/>
<path d="M277.98 144.24C283.06 146.42 286.52 151.08 288.45 154.39C291.03 152.34 293.56 151.57 296.21 150.75L296.75 150.58C298.56 150.01 300.43 149.73 302.46 149.73C306.7 149.73 310.74 150.94 314.65 152.12C318.02 153.13 321.2 154.09 324.06 154.09C327.35 154.09 329.85 152.77 331.95 149.93C334.53 146.43 334.9 142.49 333.01 138.83C330.55 134.08 323.54 129 311.25 129C307.13 129 302.75 129.59 298.23 130.76C290.41 132.79 283.6 137.31 277.98 144.23V144.24Z" fill="white"/>
<path d="M275.39 144.079C275.18 144.349 275.12 144.709 275.22 145.029C275.32 145.359 275.58 145.609 275.91 145.709C276.18 145.799 276.44 145.899 276.7 145.999C281.77 147.989 285.21 153.019 286.78 155.789C286.93 156.059 287.07 156.309 287.19 156.529C287.35 156.819 287.63 157.029 287.96 157.079C288.02 157.089 288.08 157.089 288.14 157.089C288.28 157.089 288.41 157.059 288.54 157.019C288.66 156.969 288.78 156.899 288.88 156.809C291.46 154.409 293.96 153.649 296.85 152.759L297.39 152.589C298.99 152.089 300.65 151.839 302.45 151.839C306.37 151.839 310.25 153.009 314.01 154.139C317.54 155.199 320.87 156.199 324.05 156.199C327.12 156.199 329.69 155.209 331.85 153.209C332.49 152.619 333.09 151.959 333.66 151.189C333.66 151.189 333.66 151.179 333.67 151.169C333.68 151.149 333.69 151.129 333.71 151.119C336.7 147.019 337.14 142.199 334.9 137.879C333.33 134.849 330.65 132.349 327.18 130.489C327.02 130.399 326.85 130.319 326.68 130.239C326.4 130.099 326.12 129.949 325.83 129.819C321.75 127.939 316.74 126.899 311.22 126.899C306.92 126.899 302.36 127.509 297.66 128.729C297.13 128.869 296.61 129.009 296.1 129.169C295.98 129.209 295.86 129.249 295.74 129.289C295.33 129.419 294.93 129.549 294.53 129.689C294.43 129.729 294.33 129.759 294.23 129.799C293.8 129.959 293.37 130.119 292.95 130.289C292.9 130.309 292.85 130.329 292.8 130.349C286.13 133.069 280.29 137.679 275.37 144.089L275.39 144.079ZM298.23 130.769C302.75 129.599 307.13 129.009 311.25 129.009C323.54 129.009 330.55 134.089 333.01 138.839C334.91 142.499 334.53 146.449 331.95 149.939C329.85 152.779 327.35 154.099 324.06 154.099C321.2 154.099 318.02 153.139 314.65 152.129C310.74 150.949 306.7 149.739 302.46 149.739C300.43 149.739 298.56 150.019 296.75 150.589L296.21 150.759C293.55 151.579 291.03 152.349 288.45 154.399C286.53 151.089 283.07 146.419 277.98 144.249C283.6 137.329 290.4 132.799 298.23 130.779V130.769Z" fill="#231F20"/>
<path d="M174.48 377.909C171.38 383.409 170.6 389.249 172.52 392.459C173.53 394.139 175.17 394.939 177.41 394.799C179.38 394.669 180.27 392.739 181.42 389.809C182.4 387.289 183.42 384.679 186.01 384.679C186.38 384.679 186.76 384.739 187.16 384.849C188.14 385.139 188.87 385.789 189.28 386.739C190.9 390.549 186.79 399.019 183.56 405.059C182.86 406.339 182.91 407.869 183.69 409.149C184.93 411.179 187.54 411.869 190.24 410.759C190.29 410.739 190.34 410.739 190.39 410.729C198.61 404.749 196.03 391.409 196 391.269C195.91 390.729 196.23 390.249 196.73 390.119C196.77 390.109 196.89 390.099 196.93 390.099C197.41 390.099 197.8 390.409 197.89 390.849C197.92 390.989 200.67 404.939 192.07 411.859C193.15 413.189 194.85 414.409 196.9 414.409C199.39 414.409 201.67 412.569 203.51 409.079C203.6 408.899 203.75 408.759 203.92 408.659C207.45 403.109 203.94 392.849 203.9 392.749C203.76 392.189 204.03 391.669 204.51 391.509C204.56 391.489 204.74 391.469 204.8 391.469C205.22 391.469 205.59 391.719 205.73 392.099C206.33 393.919 208.79 402.179 206.34 408.089C206.78 407.839 207.21 407.489 207.61 407.029C210.57 403.569 211.71 394.819 210.28 386.679C209.16 380.359 210.2 375.119 211.38 371.639C210.86 368.569 210.99 365.489 211.15 363.609C209.25 364.529 205.99 366.589 203.55 370.629C203.32 371.019 202.86 371.209 202.4 371.119C201.95 371.029 201.61 370.659 201.56 370.209C201.24 367.489 202.16 361.789 202.66 358.979C201.06 359.329 198.49 359.799 195.77 359.899C187.49 364.529 178.01 371.659 174.5 377.929L174.48 377.909Z" fill="white"/>
<path d="M212.05 374.459C211.74 373.539 211.53 372.589 211.36 371.629C210.18 375.109 209.14 380.349 210.26 386.669C211.7 394.809 210.55 403.559 207.59 407.019C207.19 407.489 206.77 407.829 206.32 408.079C206.02 408.799 205.67 409.479 205.22 410.109C205.08 410.349 204.78 410.509 204.44 410.509C204.23 410.509 204.05 410.449 203.88 410.339C203.67 410.199 203.53 409.969 203.49 409.709C203.45 409.449 203.52 409.189 203.67 408.989C203.75 408.879 203.82 408.759 203.89 408.649C203.72 408.749 203.58 408.889 203.48 409.069C201.64 412.559 199.36 414.399 196.87 414.399C194.82 414.399 193.12 413.179 192.04 411.849C191.77 412.069 191.48 412.279 191.18 412.489C191.01 412.579 190.85 412.679 190.62 412.679C190.34 412.679 190.06 412.539 189.86 412.289C189.69 412.079 189.62 411.829 189.66 411.569C189.7 411.309 189.85 411.079 190.08 410.919C190.18 410.849 190.26 410.779 190.36 410.709C190.31 410.719 190.26 410.709 190.21 410.739C187.51 411.849 184.9 411.159 183.66 409.129C182.88 407.849 182.83 406.319 183.53 405.039C186.76 398.999 190.87 390.539 189.25 386.719C188.85 385.779 188.12 385.119 187.13 384.829C186.74 384.709 186.35 384.659 185.98 384.659C183.39 384.659 182.37 387.269 181.39 389.789C180.25 392.719 179.35 394.659 177.38 394.779C175.14 394.919 173.5 394.129 172.49 392.439C170.57 389.229 171.36 383.389 174.45 377.889C177.97 371.619 187.45 364.489 195.72 359.859C195.38 359.869 195.03 359.879 194.68 359.879C193.66 359.879 192.7 359.819 191.81 359.689C184.23 364.269 176.05 370.639 172.56 376.859C169.06 383.079 168.3 389.609 170.63 393.499C171.94 395.689 174.16 396.889 176.89 396.889C177.09 396.889 177.29 396.889 177.5 396.869C180.99 396.639 182.31 393.249 183.38 390.519C184.4 387.889 185.04 386.399 186.5 386.829C186.87 386.939 187.1 387.149 187.26 387.509C187.91 389.029 187.45 393.129 181.63 404.019C180.58 405.959 180.65 408.259 181.81 410.189C183.44 412.869 186.82 414.019 190.2 412.959C191.89 415.149 194.37 416.479 196.86 416.479C199.1 416.479 202.31 415.439 205.06 410.579C206.61 410.479 208.03 409.709 209.21 408.339C212.64 404.319 213.93 395.249 212.35 386.269C211.58 381.909 211.94 378.069 212.62 375.049C212.35 374.929 212.12 374.709 212.03 374.419L212.05 374.459Z" fill="#231F20"/>
<path d="M205.72 392.09C205.58 391.71 205.21 391.46 204.79 391.46C204.73 391.46 204.56 391.48 204.5 391.5C204.02 391.66 203.75 392.18 203.89 392.74C203.93 392.84 207.44 403.1 203.91 408.65C203.84 408.76 203.77 408.88 203.69 408.99C203.53 409.19 203.46 409.46 203.51 409.71C203.55 409.97 203.7 410.2 203.9 410.34C204.06 410.45 204.25 410.51 204.46 410.51C204.8 410.51 205.1 410.35 205.24 410.11C205.69 409.48 206.05 408.79 206.34 408.08C208.79 402.17 206.33 393.91 205.73 392.09H205.72Z" fill="#231F20"/>
<path d="M197.88 390.85C197.79 390.41 197.4 390.1 196.92 390.1C196.87 390.1 196.76 390.11 196.72 390.12C196.22 390.25 195.9 390.72 195.99 391.27C196.02 391.4 198.59 404.75 190.38 410.73C190.29 410.8 190.2 410.87 190.1 410.94C189.88 411.09 189.72 411.33 189.68 411.59C189.64 411.85 189.71 412.1 189.88 412.31C190.09 412.56 190.36 412.7 190.64 412.7C190.87 412.7 191.03 412.61 191.2 412.51C191.5 412.3 191.78 412.09 192.06 411.87C200.66 404.96 197.92 391.01 197.88 390.86V390.85Z" fill="#231F20"/>
<path d="M216.86 339.18C216.94 339.49 216.88 339.83 216.68 340.09C210.19 348.52 203.45 354.23 195.75 357.77C199.84 357.61 203.67 356.54 203.71 356.53C204.07 356.42 204.46 356.52 204.73 356.77C205.01 357.02 205.13 357.39 205.06 357.75C205.05 357.82 204.06 362.83 203.73 366.71C207.55 362.23 211.91 360.98 212.13 360.92C212.23 360.89 212.33 360.88 212.42 360.88C212.68 360.88 212.93 360.97 213.13 361.15C213.4 361.39 213.53 361.75 213.48 362.1C213.47 362.15 212.75 366.71 213.46 371.12C217.58 364.1 223.32 360.07 228.45 356.48C234.07 352.54 239.39 348.82 241.77 341.8C245.04 332.19 230.74 312.64 222.58 302.55C218.26 312.23 209.9 320.58 195.84 325.1C200.57 329.4 207.71 334.93 216.25 338.47C216.56 338.6 216.78 338.86 216.87 339.17L216.86 339.18Z" fill="white"/>
<path d="M233.88 314.19C230.27 308.79 226.42 303.85 223.5 300.3C223.21 301.06 222.9 301.81 222.57 302.56C230.74 312.65 245.03 332.2 241.76 341.81C239.38 348.83 234.06 352.55 228.44 356.49C223.31 360.08 217.57 364.1 213.45 371.13C212.74 366.72 213.46 362.16 213.47 362.11C213.53 361.75 213.4 361.39 213.12 361.16C212.92 360.98 212.67 360.89 212.41 360.89C212.31 360.89 212.22 360.9 212.12 360.93C211.9 360.99 207.55 362.24 203.72 366.72C204.04 362.84 205.04 357.83 205.05 357.76C205.12 357.4 205 357.03 204.72 356.78C204.45 356.53 204.06 356.44 203.7 356.54C203.66 356.55 199.83 357.61 195.74 357.78C203.44 354.23 210.18 348.52 216.67 340.1C216.87 339.84 216.94 339.5 216.85 339.19C216.76 338.87 216.54 338.62 216.23 338.49C207.69 334.95 200.55 329.42 195.82 325.12C195.17 325.33 194.52 325.54 193.84 325.73C193.84 325.73 193.84 325.73 193.83 325.73C193.83 325.73 193.83 325.73 193.82 325.73C193.7 325.77 193.57 325.8 193.45 325.84C198.04 330.14 205.25 335.94 214.14 339.88C206.98 348.88 199.5 354.5 190.7 357.52C190.24 357.68 189.95 358.11 189.98 358.59C190.01 359.07 190.36 359.46 190.83 359.56C191.16 359.63 191.5 359.68 191.86 359.73C192.75 359.85 193.7 359.92 194.73 359.92C195.08 359.92 195.42 359.92 195.77 359.9C198.49 359.8 201.06 359.33 202.66 358.98C202.16 361.79 201.24 367.49 201.56 370.21C201.61 370.66 201.95 371.03 202.4 371.12C202.86 371.21 203.31 371.01 203.55 370.63C205.99 366.59 209.25 364.53 211.15 363.61C210.98 365.49 210.86 368.57 211.38 371.64C211.54 372.6 211.76 373.55 212.07 374.47C212.17 374.76 212.39 374.98 212.66 375.1C212.77 375.15 212.89 375.18 213.02 375.19C213.04 375.19 213.07 375.19 213.09 375.19C213.5 375.19 213.88 374.95 214.06 374.58C217.96 366.44 223.93 362.26 229.7 358.22C235.62 354.07 241.21 350.16 243.82 342.48C246.03 335.98 241.37 325.89 235.5 316.65C234.97 315.82 234.44 315 233.9 314.19H233.88Z" fill="#231F20"/>
<path d="M90.7805 372.82C90.8605 373.2 90.9905 373.52 91.1505 373.82C92.1505 366.86 99.6805 360.41 99.7605 360.34C100.131 360.03 100.761 360.06 101.091 360.42C101.261 360.6 101.351 360.85 101.341 361.11C101.331 361.37 101.211 361.61 101.021 361.78C100.931 361.86 92.6905 369.13 93.0005 375.68C93.0705 375.83 93.1205 375.99 93.1105 376.17C92.9805 379.31 93.6605 381.74 95.0605 383.17C96.3005 384.44 97.8505 384.71 98.9305 384.71C99.8205 384.71 100.761 384.53 101.631 384.19C97.7305 374.16 106.751 363.57 107.151 363.11C107.531 362.71 108.161 362.7 108.521 363.04C108.681 363.16 108.821 363.39 108.841 363.65C108.871 363.92 108.781 364.18 108.611 364.37C108.511 364.48 99.5005 374.67 103.651 384.03C103.691 384.07 103.741 384.08 103.771 384.13C105.011 385.72 106.681 386.59 108.471 386.59C111.021 386.59 113.271 384.88 113.701 382.62C113.991 381.06 114.221 378.81 114.461 376.42C115.321 367.76 116.061 362.51 119.001 362.51C119.061 362.51 119.291 362.53 119.351 362.54C121.891 362.96 121.531 365.95 121.151 369.11C120.791 372.11 120.341 375.85 122.281 377.32C123.091 377.93 124.071 378.25 125.121 378.25C129.371 378.25 133.701 373.35 133.771 364C133.831 356.24 129.041 345.07 124.401 337.12C122.191 335.74 120.281 334.15 119.111 333.09C118.131 335.78 116.041 341.18 114.401 343.38C114.191 343.66 113.871 343.81 113.531 343.81C113.421 343.81 113.311 343.79 113.211 343.76C112.771 343.62 112.471 343.23 112.461 342.77C112.381 338.08 110.591 334.7 109.401 332.97C108.781 334.29 107.771 336.23 106.421 338.14C105.661 342.17 103.791 348.32 99.2305 353.75C93.4105 360.64 89.8505 368.66 90.7605 372.83L90.7805 372.82Z" fill="white"/>
<path d="M124.42 337.1C129.07 345.05 133.86 356.22 133.79 363.98C133.73 373.33 129.4 378.23 125.14 378.23C124.09 378.23 123.1 377.91 122.3 377.3C120.35 375.83 120.8 372.09 121.17 369.09C121.55 365.92 121.91 362.94 119.37 362.52C119.31 362.51 119.08 362.49 119.02 362.49C116.08 362.49 115.35 367.75 114.48 376.4C114.24 378.79 114.02 381.04 113.72 382.6C113.29 384.86 111.05 386.57 108.49 386.57C106.7 386.57 105.03 385.7 103.79 384.11C103.76 384.07 103.71 384.05 103.67 384.01C103.72 384.12 103.76 384.23 103.81 384.34C103.92 384.58 103.93 384.85 103.84 385.08C103.75 385.32 103.57 385.5 103.33 385.61C103.21 385.65 103.09 385.69 102.94 385.69C102.57 385.69 102.23 385.48 102.07 385.16C101.91 384.83 101.77 384.51 101.65 384.18C100.77 384.52 99.8397 384.7 98.9497 384.7C97.8697 384.7 96.3197 384.43 95.0797 383.16C93.6797 381.72 92.9997 379.3 93.1297 376.16C93.1297 375.99 93.0897 375.82 93.0197 375.67C93.0197 375.79 93.0197 375.92 93.0197 376.04C93.0397 376.31 92.9497 376.56 92.7797 376.75C92.6097 376.94 92.3697 377.06 92.1097 377.07H92.0597C91.5697 377.07 91.1497 376.7 91.0997 376.22C91.0197 375.42 91.0597 374.61 91.1697 373.82C91.0197 373.52 90.8797 373.2 90.7997 372.82C89.8897 368.66 93.4597 360.63 99.2697 353.74C103.84 348.31 105.7 342.16 106.46 338.13C105.56 339.41 104.51 340.68 103.31 341.77C102.27 345.08 100.53 348.93 97.6097 352.4C92.4497 358.5 87.4597 367.64 88.6897 373.26C89.0197 374.77 89.7997 375.95 90.9597 376.71C90.9297 380.18 91.7897 382.84 93.5297 384.62C94.9297 386.05 96.7997 386.8 98.9497 386.8C100.2 386.8 101.47 386.54 102.66 386.05C104.25 387.75 106.3 388.67 108.5 388.67C112.07 388.67 115.22 386.22 115.84 382.97C116.15 381.32 116.38 379.02 116.62 376.59C116.99 372.86 117.76 365.11 119.02 364.58C119.54 364.67 119.2 367.47 119.04 368.82C118.62 372.35 118.09 376.75 121 378.96C122.19 379.85 123.62 380.33 125.15 380.33C130.46 380.33 135.87 374.71 135.94 363.98C136 356.77 132.09 346.8 127.84 338.87C126.66 338.38 125.51 337.76 124.42 337.08V337.1Z" fill="#231F20"/>
<path d="M101.03 361.769C101.22 361.599 101.34 361.359 101.35 361.099C101.36 360.839 101.27 360.589 101.1 360.409C100.77 360.049 100.14 360.009 99.7699 360.329C99.6799 360.399 92.1599 366.849 91.1599 373.809C91.0499 374.609 91.0099 375.409 91.0899 376.209C91.1499 376.689 91.5599 377.059 92.0499 377.059H92.0999C92.3599 377.039 92.5999 376.929 92.7699 376.739C92.9399 376.549 93.0299 376.289 93.0099 376.029C92.9999 375.909 93.0099 375.789 93.0099 375.659C92.6999 369.109 100.93 361.839 101.03 361.759V361.769Z" fill="#231F20"/>
<path d="M108.63 364.35C108.8 364.16 108.89 363.9 108.86 363.63C108.83 363.37 108.7 363.13 108.54 363.02C108.17 362.68 107.54 362.69 107.17 363.09C106.77 363.55 97.7499 374.14 101.65 384.17C101.78 384.5 101.92 384.83 102.07 385.15C102.23 385.47 102.57 385.68 102.94 385.68C103.09 385.68 103.21 385.64 103.33 385.6C103.56 385.5 103.74 385.31 103.84 385.07C103.93 384.83 103.92 384.56 103.81 384.33C103.76 384.22 103.72 384.11 103.67 384C99.5199 374.64 108.53 364.45 108.63 364.34V364.35Z" fill="#231F20"/>
<path d="M93.8297 299.06C92.3597 306.33 95.0897 312.15 97.9897 318.31C100.63 323.93 103.6 330.23 103.62 338.35C106.47 334.87 108.14 330.57 108.16 330.52C108.29 330.18 108.58 329.93 108.94 329.86C109.01 329.85 109.09 329.84 109.16 329.84C109.45 329.84 109.72 329.95 109.93 330.16C110.09 330.32 113.22 333.54 114.29 339.28C115.96 335.75 117.64 330.91 117.66 330.84C117.78 330.49 118.08 330.23 118.44 330.15C118.81 330.07 119.19 330.18 119.45 330.44C119.49 330.48 122.28 333.28 125.73 335.42C120.82 328.57 117.85 320.32 116.47 309.83C116.43 309.51 116.54 309.18 116.77 308.95C117 308.72 117.33 308.6 117.66 308.64C119.94 308.91 122.34 309.05 124.78 309.05C129.41 309.05 133.81 308.56 137.63 307.9C134.14 302.61 132.03 297.03 131.35 292.1C130.46 285.68 130.91 279.48 132 273.71C120.34 278.16 95.9497 288.64 93.8397 299.06H93.8297Z" fill="white"/>
<path d="M137.62 307.9C133.8 308.56 129.4 309.05 124.77 309.05C122.33 309.05 119.93 308.91 117.65 308.64C117.32 308.59 116.99 308.71 116.76 308.95C116.53 309.18 116.42 309.5 116.46 309.83C117.84 320.31 120.82 328.57 125.72 335.42C122.27 333.29 119.48 330.48 119.44 330.44C119.18 330.17 118.8 330.06 118.43 330.15C118.07 330.23 117.77 330.49 117.65 330.84C117.63 330.91 115.95 335.74 114.28 339.28C113.22 333.54 110.08 330.32 109.92 330.16C109.72 329.95 109.44 329.84 109.15 329.84C109.08 329.84 109 329.84 108.93 329.86C108.57 329.93 108.28 330.18 108.15 330.52C108.13 330.57 106.46 334.87 103.61 338.35C103.59 330.23 100.63 323.93 97.9796 318.31C95.0796 312.15 92.3396 306.32 93.8196 299.06C95.9296 288.64 120.32 278.17 131.98 273.71C132.14 272.88 132.31 272.05 132.49 271.24C121.13 275.47 94.1396 286.7 91.7196 298.65C90.1096 306.59 92.9896 312.72 96.0396 319.2C99.0196 325.53 102.09 332.07 101.36 341.05C101.33 341.48 101.56 341.89 101.95 342.08C102.34 342.27 102.82 342.21 103.14 341.92C103.19 341.87 103.24 341.82 103.29 341.77C104.49 340.69 105.54 339.41 106.44 338.13C107.79 336.21 108.8 334.28 109.42 332.96C110.61 334.69 112.39 338.07 112.48 342.76C112.48 343.21 112.79 343.61 113.23 343.75C113.34 343.78 113.45 343.8 113.55 343.8C113.89 343.8 114.21 343.64 114.42 343.37C116.05 341.17 118.14 335.76 119.13 333.08C120.3 334.14 122.21 335.73 124.42 337.11C125.5 337.79 126.66 338.41 127.84 338.9C128.26 339.07 128.68 339.24 129.1 339.37C129.22 339.41 129.34 339.42 129.45 339.42C130.01 339.35 130.54 338.95 130.54 338.36C130.54 338 130.36 337.69 130.08 337.49C124.04 330.59 120.43 322.11 118.77 310.89C120.71 311.07 122.73 311.17 124.77 311.17C129.97 311.17 134.84 310.59 138.96 309.83C138.49 309.19 138.05 308.55 137.62 307.9Z" fill="#231F20"/>
<path d="M49.3203 212.91C49.3203 212.91 49.2703 212.91 49.2403 212.91C48.9603 212.89 48.7103 212.76 48.5303 212.57C48.5503 212.59 48.5603 212.61 48.5703 212.62C50.1803 214.14 54.1603 216.5 58.1303 218.68C57.4903 217.78 56.9703 216.85 56.7103 215.91C56.6703 215.76 56.6703 215.6 56.7103 215.45C54.0503 213.93 51.6703 212.46 50.4103 211.39C50.4103 211.57 50.4103 211.77 50.4103 211.93C50.3703 212.49 49.9003 212.91 49.3403 212.91H49.3203Z" fill="#231F20"/>
<path d="M47.2601 231.61L47.5401 231.63C48.3901 231.68 49.2001 231.72 49.9801 231.76C47.1701 230.57 44.5301 229.32 42.6801 228.18C42.5101 228.07 42.3101 228.02 42.1101 228.02C41.9901 228.02 41.8701 228.04 41.7501 228.08C40.3201 228.58 38.7801 228.84 37.1801 228.84C31.4701 228.84 25.8501 225.64 22.8601 220.69C22.6301 220.31 22.1901 220.12 21.7501 220.19C20.9801 220.33 20.1001 220.39 19.1401 220.39C13.0301 220.39 6.0101 217.79 5.0301 215.78C4.6101 214.91 4.6401 214.05 5.1301 213.29C5.9701 211.97 7.9601 211.19 10.3401 211.24C10.2101 211.17 10.1201 211.12 10.0901 211.11C9.5701 210.83 9.3801 210.19 9.6701 209.68C9.9501 209.19 10.5701 209 11.0701 209.25C11.0501 209.25 11.0401 209.22 11.0101 209.22C4.8401 206.72 1.6301 203.7 2.2101 200.92C2.6001 199.02 4.9401 197.7 7.8901 197.7C9.1501 197.7 10.4201 197.95 11.5801 198.42C11.5301 198.38 11.4701 198.34 11.4301 198.31C10.9701 197.94 10.9001 197.27 11.2801 196.82C11.6401 196.39 12.2601 196.32 12.7201 196.63C12.7001 196.61 12.6801 196.59 12.6601 196.58C8.0601 193.91 7.2901 190.25 8.2201 188.62C8.9501 187.34 10.6701 187.07 11.9801 187.07C14.3201 187.07 17.2901 187.9 20.5701 189.46C23.6201 190.9 27.2601 192.99 30.8901 195.4C30.0901 194.42 28.9501 192.89 28.1401 191.15C25.8101 189.75 23.5401 188.52 21.5101 187.56C17.9401 185.86 14.6501 184.96 11.9801 184.96C8.5601 184.96 7.0301 186.39 6.3501 187.59C5.1501 189.69 5.6301 192.84 8.0701 195.59H7.9001C3.8601 195.59 0.730096 197.56 0.120096 200.5C-0.559904 203.76 1.8101 206.93 6.8501 209.62C5.3101 210.13 4.0701 211.01 3.3201 212.17C2.4301 213.55 2.3601 215.15 3.1001 216.69C4.9001 220.39 15.3801 223.1 21.4101 222.37C24.8501 227.6 30.9701 230.94 37.1901 230.94C38.8601 230.94 40.4701 230.7 41.9901 230.22C43.1601 230.91 44.6001 231.64 46.1701 232.37C46.1701 232.34 46.1701 232.31 46.1901 232.28C46.3501 231.84 46.7701 231.56 47.2601 231.6V231.61Z" fill="#231F20"/>
<path d="M48.3105 212.2C48.3505 212.32 48.4205 212.42 48.4905 212.51C48.4105 212.42 48.3505 212.31 48.3105 212.2Z" fill="#231F20"/>
<path d="M48.2999 212.19C48.2599 212.06 48.2299 211.92 48.2499 211.77C48.2499 211.77 48.2499 211.76 48.2499 211.75H48.1299C48.1899 211.89 48.2499 212.03 48.2999 212.17V212.19Z" fill="#231F20"/>
<path d="M25.9605 205.2C26.4405 205.2 26.8805 204.88 27.0005 204.4C27.1405 203.83 26.7905 203.26 26.2205 203.12C23.5905 202.47 15.8705 199.15 12.7905 196.67C12.7705 196.65 12.7405 196.65 12.7205 196.63C12.2605 196.32 11.6405 196.39 11.2805 196.82C10.9005 197.27 10.9705 197.94 11.4305 198.31C11.4805 198.35 11.5305 198.39 11.5805 198.42C15.1305 201.19 22.9105 204.48 25.7005 205.17C25.7905 205.19 25.8705 205.2 25.9605 205.2Z" fill="#231F20"/>
<path d="M23.9703 214.619C24.5603 214.589 25.0203 214.089 24.9903 213.509C24.9603 212.929 24.4703 212.469 23.8603 212.509C17.7503 212.809 11.1903 209.309 11.1303 209.279C11.1103 209.279 11.0903 209.279 11.0803 209.259C10.5703 209.009 9.95026 209.199 9.68026 209.689C9.40026 210.199 9.58026 210.839 10.1003 211.119C10.1303 211.129 10.2203 211.179 10.3503 211.249C11.5803 211.879 17.2603 214.639 23.0603 214.639C23.3703 214.639 23.6703 214.639 23.9803 214.619H23.9703Z" fill="#231F20"/>
<path d="M50.6798 224.649C50.2898 224.349 50.1598 223.829 50.3598 223.389C50.5598 222.949 51.0398 222.679 51.5198 222.779C54.3198 223.259 57.2598 223.499 60.2698 223.499C61.2598 223.499 62.1398 223.469 62.8998 223.439C61.3798 222.249 59.4698 220.549 58.1398 218.679C54.1698 216.499 50.1898 214.139 48.5798 212.619C48.5598 212.599 48.5498 212.579 48.5398 212.569C48.5198 212.549 48.5098 212.539 48.4998 212.519C48.4198 212.429 48.3598 212.319 48.3198 212.209C48.2698 212.069 48.2098 211.919 48.1498 211.779H48.2698C48.6598 206.149 44.0298 191.869 37.5698 184.899C35.8398 183.029 33.5598 182.259 31.7698 182.959C30.2098 183.559 29.3298 185.179 29.3398 187.409C29.3598 190.839 33.3798 195.029 33.4198 195.069C33.7598 195.419 33.8098 195.949 33.5498 196.359C33.3698 196.639 29.2498 203.319 33.2998 209.909C33.4198 210.109 33.4498 210.329 33.4298 210.549C33.3998 210.869 33.2398 211.179 32.9398 211.359C32.4298 211.659 31.7698 211.499 31.4698 210.999C27.4898 204.519 30.2298 198.049 31.3398 195.939C31.2198 195.799 31.0698 195.629 30.9198 195.439C27.2898 193.039 23.6598 190.949 20.5998 189.499C17.3198 187.929 14.3498 187.109 12.0098 187.109C10.6998 187.109 8.9798 187.379 8.2498 188.659C7.3198 190.289 8.0798 193.949 12.6898 196.619C12.7098 196.629 12.7298 196.659 12.7498 196.669C12.7698 196.689 12.7998 196.689 12.8198 196.709C15.9098 199.189 23.6198 202.509 26.2498 203.159C26.8298 203.299 27.1798 203.879 27.0298 204.439C26.9098 204.919 26.4698 205.239 25.9898 205.239C25.8998 205.239 25.8198 205.229 25.7298 205.209C22.9398 204.519 15.1598 201.229 11.6098 198.459C10.4498 197.989 9.1798 197.739 7.9198 197.739C4.9698 197.739 2.6398 199.059 2.2398 200.959C1.6598 203.729 4.8698 206.759 11.0398 209.259C11.0598 209.259 11.0798 209.289 11.0998 209.289C11.1198 209.289 11.1398 209.289 11.1498 209.309C11.2198 209.349 17.7698 212.839 23.8798 212.539C24.4898 212.499 24.9798 212.959 25.0098 213.539C25.0398 214.119 24.5898 214.619 23.9898 214.649C23.6898 214.669 23.3798 214.669 23.0698 214.669C17.2598 214.669 11.5798 211.919 10.3598 211.279C7.9798 211.229 5.9998 212.009 5.1498 213.329C4.6698 214.079 4.6298 214.939 5.0498 215.819C6.0298 217.829 13.0498 220.429 19.1598 220.429C20.1298 220.429 21.0098 220.359 21.7698 220.229C22.2098 220.159 22.6498 220.349 22.8798 220.729C25.8598 225.679 31.4798 228.879 37.1998 228.879C38.8098 228.879 40.3398 228.619 41.7698 228.119C41.8898 228.079 42.0098 228.059 42.1298 228.059C42.3298 228.059 42.5298 228.109 42.6998 228.219C44.5398 229.349 47.1898 230.599 49.9998 231.799C54.0798 231.979 57.2798 231.879 60.4698 230.949C56.6398 229.409 53.3598 226.809 51.4198 225.269L50.6898 224.699L50.6798 224.649Z" fill="white"/>
<path d="M30.8801 195.4C31.0301 195.59 31.1801 195.76 31.3001 195.9C30.1901 198.01 27.4501 204.49 31.4301 210.96C31.7301 211.46 32.3901 211.62 32.9001 211.32C33.2001 211.14 33.3701 210.83 33.3901 210.51C33.4101 210.29 33.3901 210.07 33.2601 209.87C29.2101 203.28 33.3401 196.6 33.5101 196.32C33.7701 195.91 33.7101 195.38 33.3801 195.03C33.3401 194.99 29.3201 190.81 29.3001 187.37C29.2801 185.14 30.1701 183.52 31.7301 182.92C33.5301 182.23 35.8101 182.99 37.5301 184.86C43.9901 191.84 48.6201 206.11 48.2301 211.75C48.2301 211.75 48.2301 211.76 48.2301 211.77C48.2201 211.92 48.2301 212.06 48.2801 212.19C48.3201 212.31 48.3901 212.41 48.4601 212.5C48.4701 212.52 48.4901 212.54 48.5001 212.55C48.6801 212.74 48.9301 212.87 49.2101 212.89C49.2401 212.89 49.2601 212.89 49.2901 212.89C49.8501 212.89 50.3201 212.47 50.3601 211.91C50.3701 211.74 50.3601 211.55 50.3601 211.37C50.5001 205.1 45.9401 190.82 39.1001 183.43C36.7701 180.9 33.5601 179.93 30.9301 180.94C28.5301 181.86 27.1101 184.27 27.1401 187.37C27.1401 188.64 27.5501 189.93 28.1101 191.14C28.9201 192.87 30.0501 194.41 30.8601 195.39L30.8801 195.4Z" fill="#231F20"/>
<path d="M131.261 230.73C130.271 230.73 129.281 230.69 128.301 230.63C123.931 231.11 119.521 231.37 115.121 231.37C92.5405 231.37 72.5905 224.88 60.7705 218.58C62.6305 220.68 65.2205 222.59 66.4305 223.37C66.8005 223.61 66.9905 224.05 66.8905 224.48C66.7905 224.91 66.4405 225.23 65.9905 225.3C65.9005 225.31 63.6805 225.62 60.2705 225.62C58.5205 225.62 56.7905 225.54 55.0905 225.38C57.4805 227.12 60.6805 229.12 64.0505 229.81C64.5105 229.9 64.8505 230.28 64.9005 230.74C64.9505 231.2 64.6805 231.63 64.2505 231.81C60.5705 233.33 57.2505 233.97 53.1705 233.97C52.4705 233.97 51.7805 233.95 51.0605 233.92C62.8405 240.86 85.3205 246.97 102.211 249.46L104.151 249.75C110.371 250.69 117.431 251.75 124.311 251.75C130.421 251.75 135.571 250.92 140.051 249.22C140.181 249.17 140.311 249.15 140.441 249.15C140.711 249.15 140.981 249.25 141.191 249.45C141.491 249.73 141.591 250.17 141.461 250.56C141.001 251.85 140.501 253.21 139.981 254.63C136.211 264.87 131.511 277.61 133.481 291.81C134.011 295.59 135.431 299.79 137.701 303.91C131.781 285.69 137.381 262.71 155.701 228.91C153.781 228.14 151.911 227.22 150.111 226.14C145.171 229.1 138.511 230.72 131.281 230.72L131.261 230.73Z" fill="white"/>
<path d="M256.17 132.4C254.02 145.95 245.35 154.13 232.91 154.44C233.36 155.8 233.72 157.21 233.95 158.65C236.51 174.36 226.1 190.86 205.39 203.98C203.79 212.32 199.04 219.45 192.42 224.4C195.09 234.93 199.92 249.46 208.51 267.04C218.08 286.67 219.99 299.68 214.79 310.98C225.06 299.47 226.02 283.49 222.27 269.54C220.48 262.89 217.27 256.34 214.17 250.01C209.78 241.04 205.23 231.76 204.49 221.86C204.46 221.47 204.65 221.1 204.98 220.89C233.78 202.69 244.08 185.21 251.6 172.44L251.75 172.19C258.25 161.2 268.19 138.81 263.76 109.85C261.8 113.98 260.06 117.98 260.03 118.03C259.85 118.45 259.4 118.7 258.94 118.67C258.48 118.63 258.09 118.29 257.99 117.85C257.97 117.77 256.5 111.35 254.03 106.85C253.81 107.93 253.56 108.98 253.3 109.97C256.31 117.03 257.3 125.2 256.15 132.42L256.17 132.4Z" fill="white"/>
<path d="M141.72 312.91C140.03 310.03 138.69 307.04 137.67 303.91C135.39 299.79 133.98 295.6 133.45 291.81C131.48 277.62 136.18 264.87 139.95 254.63C140.47 253.21 140.97 251.85 141.43 250.56C141.57 250.17 141.46 249.74 141.16 249.45C140.96 249.26 140.69 249.15 140.41 249.15C140.28 249.15 140.15 249.17 140.02 249.22C135.53 250.93 130.38 251.75 124.28 251.75C117.4 251.75 110.35 250.68 104.12 249.75L102.18 249.46C85.2996 246.97 62.8096 240.87 51.0296 233.92C51.7496 233.95 52.4396 233.97 53.1396 233.97C57.2196 233.97 60.5396 233.32 64.2196 231.81C64.6496 231.63 64.9196 231.2 64.8696 230.74C64.8296 230.28 64.4796 229.9 64.0196 229.81C60.6496 229.11 57.4496 227.12 55.0596 225.38C56.7596 225.54 58.4896 225.62 60.2396 225.62C63.6496 225.62 65.8696 225.32 65.9596 225.3C66.3996 225.24 66.7596 224.91 66.8596 224.48C66.9596 224.05 66.7696 223.61 66.3996 223.37C65.1796 222.59 62.5896 220.68 60.7396 218.58C72.5596 224.88 92.5096 231.37 115.09 231.37C119.49 231.37 123.9 231.11 128.27 230.63C125.06 230.44 121.91 229.95 118.89 229.18C117.63 229.22 116.36 229.26 115.1 229.26C90.4996 229.26 69.1296 221.44 58.2996 214.74C57.9196 214.5 57.4396 214.53 57.0896 214.79C56.8696 214.95 56.7296 215.2 56.6796 215.45C56.6496 215.6 56.6496 215.76 56.6796 215.91C56.9396 216.85 57.4596 217.78 58.0996 218.68C59.4396 220.55 61.3496 222.25 62.8596 223.44C62.0996 223.48 61.2196 223.5 60.2296 223.5C57.2196 223.5 54.2796 223.26 51.4796 222.78C50.9996 222.68 50.5096 222.95 50.3196 223.39C50.1196 223.83 50.2496 224.35 50.6396 224.65L51.3696 225.22C53.3196 226.76 56.5896 229.36 60.4196 230.9C57.2196 231.83 54.0196 231.93 49.9496 231.75C49.1696 231.72 48.3596 231.67 47.5096 231.62L47.2296 231.6C46.7396 231.56 46.3196 231.85 46.1596 232.28C46.1496 232.31 46.1596 232.34 46.1396 232.37C46.0296 232.78 46.1596 233.23 46.5096 233.49C57.2096 241.5 82.9996 248.77 101.84 251.54L103.77 251.83C110.07 252.78 117.21 253.86 124.25 253.86C129.68 253.86 134.41 253.22 138.62 251.92C138.39 252.57 138.14 253.22 137.9 253.9C136.07 258.86 133.91 264.74 132.45 271.22C132.27 272.03 132.1 272.86 131.94 273.69C130.85 279.46 130.4 285.66 131.29 292.08C131.98 297.01 134.09 302.6 137.57 307.88C138 308.53 138.44 309.17 138.91 309.81C140.86 312.46 143.17 315.01 145.83 317.31C144.36 315.95 142.96 314.48 141.68 312.89L141.72 312.91Z" fill="#231F20"/>
<path d="M263.3 105.9C262.88 106.74 262.46 107.62 262.04 108.5C261.02 110.64 260.04 112.78 259.31 114.4C258.39 111.24 256.67 106.31 254.3 103.33C254.03 103 253.59 102.85 253.18 102.96C252.76 103.07 252.45 103.41 252.4 103.83C252.25 104.86 252.06 105.88 251.85 106.88C252.39 107.87 252.88 108.9 253.33 109.95C253.59 108.96 253.84 107.92 254.06 106.83C256.53 111.33 258 117.76 258.02 117.83C258.12 118.28 258.5 118.61 258.97 118.65C259.43 118.68 259.87 118.44 260.06 118.01C260.08 117.96 261.83 113.96 263.79 109.83C268.22 138.79 258.28 161.18 251.78 172.17L251.63 172.42C244.11 185.18 233.81 202.66 205.01 220.87C204.68 221.08 204.49 221.45 204.52 221.84C205.27 231.75 209.81 241.02 214.2 249.99C217.3 256.33 220.51 262.88 222.3 269.52C226.05 283.47 225.09 299.45 214.82 310.96C214.43 311.81 214.01 312.65 213.54 313.49C213.5 313.56 213.45 313.62 213.4 313.68C208.29 319.26 201.73 323.31 193.87 325.71C194.55 325.52 195.2 325.31 195.85 325.1C209.91 320.58 218.27 312.23 222.59 302.55C222.92 301.8 223.24 301.05 223.52 300.29C223.87 299.35 224.2 298.4 224.48 297.43C224.69 296.71 224.88 295.99 225.06 295.26C227.17 286.5 226.59 277.21 224.38 268.98C222.54 262.14 219.29 255.5 216.14 249.07C211.93 240.47 207.58 231.58 206.72 222.3C235.54 203.94 245.91 186.35 253.49 173.48L253.64 173.23C260.53 161.58 271.21 137.38 265.34 106.16C265.26 105.71 264.89 105.37 264.43 105.31C264.25 105.29 264.07 105.33 263.9 105.39C263.66 105.48 263.44 105.65 263.32 105.89L263.3 105.9Z" fill="#231F20"/>
<path d="M170.02 231.73C165.82 231.73 161.67 231.02 157.71 229.67C131.57 277.96 135.29 297.72 143.5 311.72C151.19 321.21 162.66 326.5 175.72 326.5C181.27 326.5 187.15 325.56 193.21 323.7C200.65 321.42 206.88 317.61 211.71 312.36C218 301.17 216.51 288.28 206.59 267.95C198.12 250.62 193.28 236.3 190.56 225.71C184.71 229.52 177.62 231.73 170.02 231.73Z" fill="white"/>
<path d="M193.83 325.729C201.68 323.329 208.25 319.279 213.36 313.699C213.41 313.639 213.46 313.579 213.5 313.509C213.97 312.679 214.39 311.829 214.78 310.979C219.98 299.679 218.07 286.669 208.5 267.039C199.91 249.459 195.08 234.929 192.41 224.399C191.8 224.849 191.18 225.289 190.54 225.709C193.26 236.299 198.1 250.619 206.57 267.949C216.49 288.289 217.97 301.169 211.69 312.359C206.86 317.609 200.64 321.429 193.19 323.699C187.13 325.559 181.25 326.499 175.7 326.499C162.64 326.499 151.17 321.199 143.48 311.719C135.27 297.719 131.55 277.949 157.69 229.669C157.01 229.439 156.33 229.179 155.66 228.909C137.33 262.709 131.74 285.689 137.66 303.909C138.68 307.039 140.02 310.029 141.71 312.909C143 314.499 144.39 315.969 145.86 317.329C153.75 324.639 164.13 328.619 175.7 328.619C181.34 328.619 187.3 327.679 193.43 325.839C193.55 325.799 193.67 325.769 193.8 325.729H193.82H193.83Z" fill="#231F20"/>
<path d="M254.05 132.08C256.29 117.97 250.03 100.01 236.03 95.6001C233.97 94.9501 231.83 94.6201 229.67 94.6201C223.39 94.6201 217.02 97.4401 212.17 102.36C209.52 105.05 207.52 108.16 206.25 111.46C208.48 115.17 210.5 119.25 212.3 123.67C213.64 120.55 215.64 117.47 218.06 115.02C222.09 110.93 226.59 109.21 230.68 110.21C239.09 112.26 241.86 121.74 240.87 129.68C239.97 136.93 235.9 144.2 228.7 146.39C230.07 148.2 231.22 150.21 232.13 152.37C232.15 152.37 232.16 152.37 232.18 152.37C243.86 152.37 252.03 144.79 254.05 132.09V132.08Z" fill="white"/>
<path d="M206.25 111.45C207.52 108.15 209.52 105.04 212.17 102.35C217.02 97.4298 223.4 94.6098 229.67 94.6098C231.82 94.6098 233.96 94.9398 236.03 95.5898C250.04 99.9998 256.29 117.96 254.05 132.07C252.03 144.77 243.86 152.35 232.18 152.35C232.16 152.35 232.15 152.35 232.13 152.35C232.42 153.03 232.68 153.73 232.91 154.43C245.34 154.12 254.02 145.94 256.17 132.39C257.32 125.18 256.33 117.01 253.32 109.94C252.87 108.89 252.38 107.86 251.84 106.87C249.37 102.29 245.95 98.3798 241.62 95.7898C240.68 95.2298 239.7 94.7298 238.67 94.2998C238.02 94.0298 237.36 93.7698 236.68 93.5598C227.84 90.7898 217.7 93.6898 210.63 100.86C208.18 103.35 206.24 106.18 204.87 109.21C205.34 109.93 205.8 110.68 206.25 111.43V111.45Z" fill="#231F20"/>
<path d="M238.75 129.409C239.62 122.359 237.31 113.979 230.17 112.249C229.58 112.109 228.97 112.029 228.36 112.029C225.54 112.029 222.43 113.609 219.6 116.479C216.79 119.329 214.6 123.059 213.47 126.639C214.82 130.229 216.04 134.009 217.12 138.019C220.92 139.119 224.41 141.459 227.24 144.599C234.06 143.009 237.91 136.179 238.75 129.409Z" fill="white"/>
<path d="M240.881 129.66C241.861 121.72 239.091 112.24 230.691 110.19C226.611 109.19 222.101 110.91 218.071 115C215.651 117.45 213.651 120.53 212.311 123.65C212.711 124.62 213.101 125.61 213.471 126.62C214.601 123.04 216.801 119.31 219.601 116.46C222.421 113.59 225.531 112.01 228.361 112.01C228.971 112.01 229.581 112.08 230.171 112.23C237.311 113.97 239.621 122.34 238.751 129.39C237.911 136.16 234.061 142.98 227.241 144.58C227.751 145.15 228.241 145.74 228.711 146.36C235.911 144.17 239.991 136.89 240.881 129.65V129.66Z" fill="#231F20"/>
<path d="M51.7599 165.39C44.6099 174.43 46.7299 187.05 51.0999 195.85C56.5799 206.88 66.1599 214.01 75.4999 214.01C80.6599 214.01 85.6599 211.96 90.3599 207.91C91.1199 207.16 91.7799 206.37 92.3799 205.55C92.0399 203.99 91.8399 202.38 91.7699 200.74C88.9899 202.82 85.9299 203.85 82.6299 203.85C74.0199 203.85 66.3299 196.86 63.1799 189.95C60.4799 184.03 60.9699 178.38 64.5199 174.44C66.5899 172.16 69.6999 170.96 73.5199 170.96C77.7199 170.96 82.4199 172.41 86.3799 174.68C84.4399 170.09 82.6799 165.02 81.4399 159.68C77.8799 158.06 73.8899 157.14 69.8299 157.14C62.3699 157.14 55.9499 160.06 51.7499 165.37L51.7599 165.39Z" fill="white"/>
<path d="M92.4006 205.55C91.8006 206.37 91.1305 207.16 90.3805 207.91C85.6705 211.96 80.6705 214.01 75.5205 214.01C66.1805 214.01 56.6005 206.88 51.1205 195.85C46.7505 187.05 44.6305 174.44 51.7805 165.39C55.9805 160.08 62.4006 157.16 69.8605 157.16C73.9205 157.16 77.9105 158.08 81.4706 159.7C81.2705 158.85 81.0905 158 80.9205 157.14C77.4805 155.79 73.7206 155.05 69.8605 155.05C61.8405 155.05 54.6306 158.35 50.0806 164.1C43.5906 172.31 43.2505 184.83 49.1905 196.78C55.0305 208.53 65.3605 216.13 75.5205 216.13C81.2105 216.13 86.6905 213.9 91.8505 209.46C92.2905 209.03 92.7005 208.58 93.0905 208.13C92.8205 207.29 92.6006 206.43 92.4106 205.57L92.4006 205.55Z" fill="#231F20"/>
<path d="M66.1401 175.86C63.1801 179.14 62.8201 183.96 65.1601 189.09C68.0301 195.38 74.9601 201.74 82.6501 201.74C85.8301 201.74 88.7601 200.61 91.3601 198.37C91.5101 198.22 91.6501 198.06 91.7901 197.91C91.9401 194.96 92.5201 191.89 93.5101 188.74C91.7701 185.81 89.8501 182.29 88.0001 178.32C83.9501 175.24 78.3101 173.08 73.5301 173.08C71.3001 173.08 68.2101 173.56 66.1301 175.85L66.1401 175.86Z" fill="white"/>
<path d="M64.5405 174.45C60.9905 178.38 60.5005 184.04 63.2005 189.96C66.3505 196.86 74.0405 203.86 82.6505 203.86C85.9505 203.86 89.0005 202.82 91.7905 200.75C91.7505 199.82 91.7505 198.88 91.7905 197.92C91.6505 198.07 91.5105 198.23 91.3605 198.38C88.7605 200.62 85.8305 201.75 82.6505 201.75C74.9605 201.75 68.0305 195.39 65.1605 189.1C62.8205 183.97 63.1805 179.15 66.1405 175.87C68.2205 173.58 71.3105 173.1 73.5405 173.1C78.3205 173.1 83.9605 175.26 88.0105 178.34C87.4605 177.17 86.9305 175.96 86.4005 174.71C82.4405 172.44 77.7405 170.99 73.5405 170.99C69.7205 170.99 66.6105 172.19 64.5405 174.47V174.45Z" fill="#231F20"/>
<path d="M128.29 230.629C129.27 230.689 130.26 230.729 131.25 230.729C138.49 230.729 145.14 229.109 150.08 226.149C150.03 226.119 149.97 226.089 149.92 226.059C148.75 226.399 145.63 227.189 141.29 227.429C138.2 228.209 134.8 228.619 131.25 228.619C117.87 228.619 105.09 223.039 98.7104 214.399C93.5604 207.439 92.5204 198.639 95.7004 188.939C95.7904 188.649 95.7604 188.339 95.6004 188.079C88.0504 175.479 76.5504 150.949 84.3604 128.269C88.5604 116.059 97.8204 105.989 111.92 98.1893C112.01 97.9793 112.15 97.7993 112.37 97.6793C115.43 96.0193 117.11 94.4393 117.9 92.8193C99.3504 101.259 87.3804 112.929 82.3304 127.589C78.9204 137.489 79.0504 147.679 80.9004 157.129C81.0704 157.989 81.2504 158.849 81.4504 159.689C82.6904 165.029 84.4504 170.099 86.3904 174.689C86.9204 175.939 87.4504 177.149 88.0004 178.319C89.8504 182.289 91.7704 185.819 93.5104 188.739C92.5104 191.889 91.9404 194.959 91.7904 197.909C91.7404 198.869 91.7404 199.809 91.7904 200.739C91.8604 202.389 92.0604 203.989 92.4004 205.549C92.5904 206.419 92.8104 207.279 93.0804 208.109C93.9504 210.779 95.2504 213.299 96.9804 215.639C101.72 222.049 109.73 226.859 118.91 229.179C121.94 229.939 125.09 230.439 128.29 230.629Z" fill="#231F20"/>
<path d="M145.01 86.3894C149.47 85.5994 153.76 85.1994 157.87 85.1994C186.04 85.1994 205.87 103.849 215.2 139.139C215.3 139.509 215.6 139.799 215.98 139.899C223.81 141.869 230.33 149.709 231.85 158.989C233.82 171.099 227.49 183.809 214.24 194.939C211.79 197.789 208.88 200.769 205.43 203.879C205.43 203.919 205.41 203.949 205.41 203.989C226.12 190.869 236.53 174.369 233.97 158.659C233.74 157.219 233.37 155.809 232.93 154.449C232.7 153.739 232.44 153.049 232.15 152.369C231.24 150.209 230.09 148.199 228.72 146.389C228.25 145.769 227.77 145.179 227.25 144.609C224.42 141.469 220.93 139.129 217.13 138.029C216.05 134.019 214.83 130.229 213.48 126.649C213.1 125.639 212.71 124.649 212.32 123.679C210.51 119.259 208.49 115.189 206.27 111.469C205.82 110.719 205.36 109.969 204.89 109.249C193.75 92.0394 177.85 83.1094 157.89 83.1094C151.54 83.1094 144.77 84.0294 137.66 85.8394C140.64 86.3794 143.49 86.4294 145.03 86.4094L145.01 86.3894Z" fill="#231F20"/>
<path d="M170.02 229.62C186.62 229.62 200.65 218.49 203.37 203.16C203.41 202.93 203.53 202.72 203.7 202.56C224.85 183.6 225.47 169.93 222.27 161.8C218.34 151.8 207.71 147.15 201.76 147.15C201.47 147.15 201.13 147.04 200.93 146.84C200.73 146.64 200.55 146.37 200.56 146.09C200.7 134.72 193.75 113.42 180.82 104.67C176.72 101.89 171.7 100.43 166.3 100.43C156.76 100.43 144.43 105.44 138.44 119.49C138.32 119.76 138.1 119.97 137.82 120.07C137.54 120.17 137.24 120.15 136.97 120.03C132.92 118.05 128.55 117.04 123.99 117.04C112.39 117.04 101.28 123.7 96.35 133.61C92.36 141.6 92.1 152.43 95.67 162.58C98.85 171.64 104.58 178.69 111.39 181.92C111.75 182.09 111.98 182.44 112 182.83C112.02 183.22 111.82 183.58 111.48 183.78C107.8 185.94 105.12 191.6 104.8 197.87C104.4 205.87 107.62 212.96 113.63 217.33C122.87 224.03 132.34 225.43 138.65 225.43C144.96 225.43 149.69 223.96 149.73 223.94C149.84 223.9 149.96 223.88 150.08 223.88C150.28 223.88 150.48 223.94 150.65 224.05C156.52 227.71 163.21 229.65 170.01 229.65L170.02 229.62ZM152.24 129.13C152.51 123.5 155.22 119.07 160.06 116.34C161.56 115.49 163.55 115.05 165.81 115.05C174.84 115.05 190 122.42 193.86 138.26C195.56 145.25 193.34 149.94 191.18 152.64C187.87 156.77 182.35 159.24 176.41 159.24C172.54 159.24 168.81 158.13 165.92 156.12C159.07 151.36 151.76 139.11 152.24 129.13ZM143.92 165.1C144.52 161.02 147.7 157.73 152.67 156.09C160.03 153.65 163.81 155.79 165.42 157.29C167.32 159.06 168.07 161.71 167.36 164.19C167.2 164.75 166.62 165.09 166.04 164.92C165.47 164.77 165.13 164.18 165.29 163.62C165.78 161.89 165.26 160.05 163.94 158.82C161.81 156.83 157.95 156.57 153.35 158.09C147.64 159.98 146.32 163.48 146.04 165.4C145.71 167.67 146.53 169.36 147.22 169.84C147.71 170.17 147.83 170.83 147.49 171.31C147.28 171.6 146.95 171.76 146.61 171.76C146.4 171.76 146.18 171.7 146 171.57C144.38 170.46 143.53 167.8 143.93 165.1H143.92ZM164.63 162.81C164.63 163.35 164.21 163.76 163.67 163.76C163.13 163.76 162.71 163.33 162.71 162.81C162.71 162.84 162.6 162.81 162.53 162.81C161.69 162.81 160.39 163.69 160.25 166.1C160.17 166.63 159.76 166.99 159.27 166.99H159.26C158.69 166.94 158.28 166.49 158.32 165.98C158.55 162.24 160.95 160.88 162.5 160.88C163.8 160.94 164.64 161.72 164.64 162.8L164.63 162.81ZM149.01 169.33C148.94 169.38 148.77 169.43 148.6 169.43C148.25 169.43 147.93 169.26 147.74 168.97C147.35 168.1 147.56 167.29 148.26 166.72C148.81 166.29 149.6 166.06 150.48 166.06C151.82 166.06 153.2 166.57 154.36 167.49C154.54 167.61 154.68 167.83 154.72 168.07C154.76 168.33 154.69 168.59 154.52 168.81C154.21 169.21 153.55 169.28 153.15 168.95C152.35 168.33 151.37 167.97 150.47 167.97C150 167.97 149.68 168.07 149.51 168.17C149.65 168.67 149.44 169.13 149.01 169.33ZM110.41 172.57C105.42 164.44 104.68 154.13 108.42 144.98C110.87 139 114.85 134.64 118.81 133.59C125.07 131.96 130.92 133.97 135.45 139.28C141.78 146.71 144.33 158.89 143.06 165.91C141.54 174.26 133.23 181.05 124.53 181.05C118.79 181.05 113.78 178.04 110.41 172.56V172.57ZM123.31 198.35C121.55 200.26 121.3 203.03 121.3 203.06C121.26 203.61 120.79 204.03 120.23 204.03C120.2 204.03 120.17 204.03 120.14 204.03C119.55 203.98 119.11 203.48 119.16 202.9C119.18 202.71 119.57 198.21 122.97 195.83C125.06 194.37 127.76 194.06 131.01 194.9C131.58 195.05 131.92 195.63 131.77 196.19C131.62 196.75 131.04 197.1 130.46 196.94C128.3 196.38 126.49 196.43 125.05 197.09C126.15 198.4 128.67 201.02 131.74 201.69C131.94 201.73 132.1 201.84 132.23 201.97C134.6 202.7 138.59 203.55 144.42 203.55C150.25 203.55 159.26 202.68 170.2 198.55C187.79 191.92 197.14 178.83 198.91 173.53C198.93 173.48 198.96 173.44 198.98 173.39C200.13 170.22 199.64 166.07 199.48 164.96C197 165.5 195.57 167.43 195.56 167.45C195.35 167.74 195.02 167.9 194.68 167.9C194.47 167.9 194.25 167.84 194.06 167.71C193.58 167.38 193.46 166.72 193.8 166.24C193.89 166.12 195.96 163.26 199.66 162.77C202.37 162.41 205.18 163.39 208.01 165.69C208.47 166.06 208.53 166.73 208.15 167.18C207.77 167.63 207.09 167.69 206.64 167.32C204.91 165.91 203.23 165.09 201.63 164.87C201.84 166.36 202.25 170.57 201.03 174.03C201.28 176.28 202.54 191.05 194.88 202.99C194.85 203.06 194.84 203.13 194.8 203.19C194.61 203.48 194.4 203.75 194.2 204.03C194.15 204.1 194.1 204.16 194.06 204.23C192.92 205.84 191.66 207.31 190.26 208.65C190.14 208.77 190.02 208.89 189.89 209.01C189.5 209.38 189.09 209.73 188.68 210.07C188.45 210.26 188.22 210.45 187.99 210.64C187.6 210.95 187.2 211.25 186.79 211.54C186.5 211.75 186.21 211.94 185.91 212.14C185.51 212.4 185.11 212.67 184.7 212.92C184.36 213.13 184 213.32 183.64 213.52C183.24 213.74 182.85 213.97 182.43 214.17C182.01 214.38 181.56 214.58 181.12 214.77C180.75 214.94 180.38 215.12 180 215.28C179.17 215.62 178.3 215.94 177.41 216.24C174.73 217.12 172.17 217.78 169.68 218.22C167.19 218.66 164.79 218.87 162.43 218.87C160.07 218.87 157.56 218.62 155.18 218.14C155.12 218.13 155.06 218.12 154.99 218.11C154.99 218.11 154.98 218.11 154.97 218.11C146.78 216.39 138.87 211.7 129.71 203.28C126.66 202.09 124.35 199.64 123.29 198.35H123.31Z" fill="white"/>
<path d="M205.4 203.98C205.4 203.98 205.42 203.91 205.42 203.87C208.87 200.76 211.78 197.78 214.23 194.93C227.26 179.78 227.17 168.35 224.28 161.02C220.56 151.58 210.52 145.57 202.71 145.06C202.47 132.75 195.39 111.94 182.04 102.91C177.58 99.8898 172.14 98.2998 166.31 98.2998C156.32 98.2998 143.47 103.4 136.92 117.64C132.86 115.83 128.52 114.91 124.01 114.91C111.61 114.91 99.7303 122.04 94.4403 132.66C90.2003 141.14 89.9103 152.58 93.6503 163.25C96.7703 172.15 102.27 179.24 108.9 182.99C105.36 185.96 102.97 191.52 102.65 197.74C102.21 206.46 105.75 214.21 112.35 219C122.06 226.04 132.01 227.52 138.64 227.52C139.57 227.52 140.45 227.49 141.28 227.44C145.63 227.19 148.75 226.4 149.91 226.07C149.96 226.1 150.02 226.13 150.07 226.16C151.87 227.24 153.74 228.16 155.66 228.93C156.33 229.2 157.01 229.46 157.69 229.69C161.66 231.04 165.81 231.75 170 231.75C177.6 231.75 184.69 229.55 190.54 225.73C191.18 225.31 191.8 224.87 192.41 224.42C199.03 219.47 203.77 212.34 205.38 204L205.4 203.98ZM150.66 224.01C150.49 223.9 150.29 223.84 150.09 223.84C149.97 223.84 149.86 223.86 149.74 223.9C149.7 223.92 145.21 225.39 138.66 225.39C132.11 225.39 122.88 223.98 113.64 217.29C107.62 212.93 104.41 205.83 104.81 197.83C105.12 191.56 107.81 185.9 111.49 183.74C111.83 183.54 112.03 183.17 112.01 182.79C111.99 182.4 111.76 182.05 111.4 181.88C104.59 178.65 98.8603 171.61 95.6803 162.54C92.1203 152.39 92.3703 141.56 96.3603 133.57C101.3 123.66 112.41 117 124 117C128.56 117 132.92 118.01 136.98 119.99C137.25 120.12 137.55 120.13 137.83 120.03C138.11 119.93 138.33 119.72 138.45 119.45C144.45 105.4 156.78 100.39 166.31 100.39C171.7 100.39 176.72 101.86 180.83 104.63C193.76 113.38 200.71 134.67 200.57 146.05C200.57 146.33 200.74 146.6 200.94 146.8C201.14 147 201.48 147.11 201.77 147.11C207.72 147.11 218.35 151.77 222.28 161.76C225.48 169.89 224.85 183.56 203.71 202.52C203.53 202.68 203.42 202.89 203.38 203.12C200.66 218.45 186.63 229.58 170.03 229.58C163.23 229.58 156.53 227.64 150.67 223.98L150.66 224.01Z" fill="#231F20"/>
<path d="M231.84 158.99C230.33 149.72 223.81 141.87 215.97 139.9C215.59 139.81 215.29 139.51 215.19 139.14C205.86 103.85 186.04 85.2001 157.86 85.2001C153.75 85.2001 149.45 85.6001 145 86.3901C145.72 86.3801 146.16 86.3501 146.19 86.3501C146.82 86.2801 147.29 86.7501 147.34 87.3301C147.38 87.9101 146.94 88.4201 146.35 88.4601C146.17 88.4701 144.86 88.5601 142.99 88.5101C137.82 88.3601 128.27 87.1401 125.56 80.3001C123.67 75.5501 124.38 71.1001 127.46 68.4101C129.93 66.2501 133.37 65.7501 136.01 67.1401C137.42 67.8801 138.45 69.0701 139.06 70.6101C138.97 69.2301 138.49 68.0801 137.95 67.1801C135.96 63.8601 131.57 61.6701 127.26 61.8801C124.67 62.0001 119.89 63.0901 116.99 69.1401C114.54 74.2701 116.49 78.6201 118.38 82.8201C120.52 87.6001 122.72 92.5201 116.86 97.2701C115.92 98.0301 114.79 98.7801 113.41 99.5301C113.25 99.6201 113.07 99.6601 112.89 99.6601C112.51 99.6601 112.14 99.4601 111.95 99.1101C111.78 98.8101 111.79 98.4701 111.92 98.1801C97.8297 105.98 88.5697 116.06 84.3597 128.26C76.5497 150.95 88.0497 175.47 95.5997 188.07C95.7597 188.33 95.7897 188.64 95.6997 188.93C92.5197 198.63 93.5597 207.43 98.7097 214.39C105.1 223.03 117.87 228.61 131.25 228.61C134.8 228.61 138.2 228.2 141.29 227.42C140.45 227.47 139.57 227.5 138.65 227.5C132.02 227.5 122.07 226.02 112.36 218.98C105.76 214.19 102.22 206.44 102.66 197.72C102.97 191.49 105.37 185.94 108.91 182.97C102.28 179.22 96.7797 172.13 93.6597 163.23C89.9197 152.56 90.2097 141.13 94.4497 132.64C99.7397 122.03 111.62 114.89 124.02 114.89C128.53 114.89 132.87 115.81 136.93 117.62C143.49 103.39 156.33 98.2801 166.32 98.2801C172.15 98.2801 177.59 99.8701 182.05 102.89C195.39 111.92 202.47 132.74 202.72 145.04C210.53 145.56 220.58 151.56 224.29 161C227.17 168.33 227.27 179.76 214.24 194.91C227.49 183.77 233.82 171.07 231.85 158.96L231.84 158.99Z" fill="white"/>
<path d="M112.37 97.6793C112.16 97.7993 112.01 97.9793 111.92 98.1893C111.79 98.4793 111.78 98.8193 111.95 99.1193C112.14 99.4693 112.51 99.6693 112.89 99.6693C113.07 99.6693 113.24 99.6293 113.41 99.5393C114.79 98.7893 115.92 98.0393 116.86 97.2793C122.73 92.5293 120.53 87.6093 118.38 82.8293C116.49 78.6293 114.54 74.2793 116.99 69.1493C119.89 63.0993 124.67 61.9993 127.26 61.8893C131.58 61.6793 135.96 63.8693 137.95 67.1893C138.49 68.0893 138.96 69.2493 139.06 70.6193C138.45 69.0793 137.42 67.8893 136.01 67.1493C133.36 65.7493 129.93 66.2593 127.46 68.4193C124.38 71.1093 123.67 75.5593 125.56 80.3093C128.27 87.1393 137.82 88.3693 142.99 88.5193C144.86 88.5693 146.16 88.4893 146.35 88.4693C146.94 88.4193 147.38 87.9193 147.34 87.3393C147.3 86.7593 146.82 86.2993 146.19 86.3593C146.16 86.3593 145.72 86.3893 145 86.3993C143.46 86.4293 140.62 86.3793 137.63 85.8293C133.48 85.0693 129.07 83.3493 127.55 79.5293C125.98 75.5793 126.46 72.0993 128.88 69.9893C130.65 68.4393 133.16 68.0393 134.99 68.9993C137.05 70.0893 137.94 72.7293 137.43 76.2593C137.36 76.7493 137.65 77.2293 138.13 77.3993C138.61 77.5593 139.14 77.3793 139.41 76.9593C141.68 73.3293 141.82 69.4793 139.8 66.1093C137.39 62.0793 132.3 59.5393 127.16 59.7693C121.93 60.0093 117.51 63.0893 115.04 68.2393C112.17 74.2393 114.42 79.2493 116.4 83.6793C117.96 87.1693 119.25 90.0393 117.89 92.8193C117.1 94.4393 115.41 96.0293 112.36 97.6793H112.37Z" fill="#231F20"/>
<path d="M146 171.57C146.19 171.7 146.4 171.76 146.61 171.76C146.95 171.76 147.28 171.6 147.49 171.31C147.83 170.83 147.71 170.17 147.22 169.84C146.53 169.37 145.71 167.68 146.04 165.4C146.32 163.48 147.64 159.98 153.35 158.09C157.95 156.57 161.81 156.83 163.94 158.82C165.26 160.05 165.78 161.89 165.29 163.62C165.13 164.18 165.47 164.76 166.04 164.92C166.62 165.08 167.2 164.75 167.36 164.19C168.06 161.71 167.32 159.07 165.42 157.29C163.82 155.8 160.03 153.66 152.67 156.09C147.7 157.73 144.51 161.01 143.92 165.1C143.52 167.8 144.38 170.46 145.99 171.57H146Z" fill="#231F20"/>
<path d="M158.31 165.989C158.27 166.499 158.67 166.949 159.25 166.999H159.26C159.75 166.999 160.17 166.629 160.24 166.109C160.38 163.689 161.68 162.819 162.52 162.819C162.6 162.819 162.7 162.839 162.7 162.819C162.7 163.349 163.13 163.769 163.66 163.769C164.19 163.769 164.62 163.349 164.62 162.819C164.62 161.749 163.77 160.959 162.48 160.899C160.93 160.899 158.53 162.259 158.3 165.999L158.31 165.989Z" fill="#231F20"/>
<path d="M153.15 168.95C153.54 169.28 154.21 169.21 154.52 168.81C154.69 168.59 154.76 168.33 154.72 168.07C154.68 167.82 154.54 167.61 154.36 167.49C153.2 166.57 151.82 166.06 150.48 166.06C149.6 166.06 148.81 166.29 148.26 166.72C147.56 167.28 147.35 168.09 147.74 168.97C147.93 169.26 148.25 169.43 148.6 169.43C148.77 169.43 148.94 169.38 149.01 169.33C149.44 169.13 149.66 168.67 149.51 168.17C149.68 168.07 150 167.97 150.47 167.97C151.37 167.97 152.36 168.33 153.15 168.95Z" fill="#231F20"/>
<path d="M170.44 202.739C170.83 202.739 171.21 202.779 171.59 202.809C171.78 202.659 172.04 202.569 172.34 202.549C174.92 199.769 178.52 198.299 182.86 198.299C187.2 198.299 191.04 199.659 193.53 201.119C198.5 192.899 199.19 183.399 199.12 178.109C195.05 185.119 185.6 195.009 170.98 200.529C159.73 204.779 150.33 205.669 144.43 205.669C140.89 205.669 137.55 205.359 134.64 204.759C141.66 210.669 147.95 214.209 154.35 215.789C155.74 207.599 163.43 202.749 170.46 202.749L170.44 202.739Z" fill="white"/>
<path d="M154.16 216.979C154.2 216.569 154.27 216.169 154.33 215.779C147.94 214.199 141.64 210.669 134.62 204.749C137.53 205.339 140.87 205.659 144.41 205.659C150.31 205.659 159.71 204.769 170.96 200.519C185.59 194.999 195.03 185.109 199.1 178.099C199.18 183.389 198.48 192.899 193.51 201.109C193.88 201.329 194.22 201.549 194.52 201.769C194.91 202.059 195.03 202.549 194.86 202.989C202.51 191.049 201.26 176.279 201.01 174.029C200.94 174.239 200.86 174.439 200.78 174.639C200.61 175.049 200.21 175.289 199.79 175.289C199.65 175.289 199.51 175.259 199.38 175.209C198.83 174.989 198.58 174.369 198.8 173.829C198.86 173.689 198.91 173.539 198.96 173.399C198.94 173.449 198.91 173.489 198.89 173.539C197.12 178.839 187.77 191.919 170.18 198.559C159.24 202.689 150.12 203.559 144.4 203.559C138.68 203.559 134.57 202.709 132.21 201.979C132.47 202.229 132.62 202.589 132.53 202.959C132.42 203.449 131.97 203.789 131.48 203.789C131.4 203.789 131.32 203.789 131.25 203.769C130.72 203.649 130.21 203.489 129.71 203.289C138.87 211.709 146.78 216.399 154.97 218.119C154.45 217.999 154.09 217.529 154.14 216.999L154.16 216.979Z" fill="#231F20"/>
<path d="M194.201 204.02C194.151 204.09 194.101 204.15 194.061 204.22C194.111 204.15 194.161 204.09 194.201 204.02Z" fill="#231F20"/>
<path d="M190.27 208.649C190.15 208.769 190.03 208.889 189.9 209.009C190.03 208.889 190.14 208.769 190.27 208.649Z" fill="#231F20"/>
<path d="M180.02 215.29C179.18 215.64 178.31 215.96 177.43 216.25C178.33 215.95 179.19 215.63 180.02 215.29Z" fill="#231F20"/>
<path d="M184.71 212.92C184.37 213.13 184.01 213.32 183.65 213.52C184.01 213.32 184.36 213.13 184.71 212.92Z" fill="#231F20"/>
<path d="M186.8 211.54C186.51 211.75 186.22 211.94 185.92 212.14C186.22 211.94 186.51 211.74 186.8 211.54Z" fill="#231F20"/>
<path d="M182.45 214.17C182.02 214.38 181.58 214.58 181.14 214.77C181.58 214.57 182.03 214.38 182.45 214.17Z" fill="#231F20"/>
<path d="M188 210.639C188.24 210.449 188.46 210.259 188.69 210.069C188.46 210.259 188.23 210.449 188 210.639Z" fill="#231F20"/>
<path d="M162.47 218.87C160.01 218.87 157.56 218.62 155.2 218.14C157.58 218.63 159.99 218.87 162.45 218.87C164.91 218.87 167.21 218.65 169.7 218.22C167.22 218.65 164.83 218.87 162.47 218.87Z" fill="#231F20"/>
<path d="M199.4 175.2C199.53 175.26 199.67 175.28 199.81 175.28C200.23 175.28 200.63 175.04 200.8 174.63C200.88 174.43 200.96 174.23 201.03 174.02C202.25 170.56 201.84 166.35 201.63 164.86C201.06 164.78 200.5 164.77 199.95 164.86C199.78 164.88 199.64 164.93 199.48 164.96C199.64 166.07 200.13 170.22 198.98 173.39C198.93 173.53 198.88 173.68 198.82 173.82C198.59 174.36 198.85 174.97 199.4 175.2Z" fill="#231F20"/>
<path d="M201.63 164.86C203.23 165.08 204.91 165.9 206.64 167.31C207.09 167.68 207.77 167.62 208.15 167.17C208.53 166.72 208.46 166.05 208.01 165.68C205.18 163.38 202.37 162.39 199.66 162.76C195.96 163.25 193.89 166.11 193.8 166.23C193.46 166.71 193.58 167.37 194.06 167.7C194.25 167.83 194.46 167.89 194.68 167.89C195.02 167.89 195.35 167.73 195.56 167.44C195.58 167.42 197 165.49 199.48 164.95C199.64 164.92 199.78 164.87 199.95 164.85C200.5 164.77 201.06 164.78 201.63 164.85V164.86Z" fill="#231F20"/>
<path d="M131.5 203.77C131.99 203.77 132.44 203.44 132.55 202.94C132.63 202.57 132.49 202.21 132.23 201.96C132.09 201.83 131.93 201.72 131.74 201.68C128.67 201.01 126.15 198.4 125.05 197.08C124.76 197.21 124.48 197.36 124.22 197.54C123.88 197.78 123.58 198.05 123.32 198.34C124.38 199.63 126.7 202.08 129.74 203.27C130.24 203.46 130.75 203.63 131.28 203.75C131.36 203.77 131.44 203.77 131.51 203.77H131.5Z" fill="#231F20"/>
<path d="M124.21 197.55C124.47 197.37 124.75 197.22 125.04 197.09C126.48 196.43 128.3 196.38 130.45 196.94C131.03 197.09 131.61 196.75 131.76 196.19C131.91 195.62 131.57 195.05 131 194.9C127.76 194.06 125.06 194.37 122.96 195.83C119.56 198.2 119.17 202.7 119.15 202.9C119.1 203.48 119.55 203.99 120.13 204.03C120.16 204.03 120.19 204.03 120.22 204.03C120.77 204.03 121.24 203.61 121.29 203.06C121.29 203.03 121.54 200.26 123.3 198.35C123.57 198.06 123.86 197.79 124.2 197.55H124.21Z" fill="#231F20"/>
<path d="M174.89 209.29C174.89 209.29 174.79 209.3 174.74 209.3H174.68C173.89 209.3 173.25 208.72 173.19 207.96C173.19 207.96 172.91 206.57 171.39 205.01C171.36 204.97 171.33 204.93 171.3 204.89C171.01 204.87 170.72 204.85 170.43 204.85C165.22 204.85 157.65 208.39 156.4 216.23C162.72 217.36 169.27 216.71 176.73 214.25C183.38 212.07 188.65 208.26 192.4 202.92C190.15 201.6 186.44 200.42 182.85 200.42C180.31 200.42 176.86 201.02 174.19 203.69C175.79 205.59 176.18 207.4 176.18 207.78C176.27 208.46 175.71 209.18 174.89 209.29Z" fill="white"/>
<path d="M194.54 201.77C194.24 201.55 193.9 201.33 193.53 201.11C191.04 199.65 187.01 198.29 182.86 198.29C178.71 198.29 174.92 199.76 172.34 202.54C172.82 202.51 173.35 202.66 173.65 203.06C173.85 203.26 174.02 203.47 174.19 203.67C176.86 201 180.31 200.4 182.85 200.4C186.44 200.4 190.15 201.59 192.4 202.9C188.65 208.25 183.39 212.05 176.73 214.23C169.27 216.69 162.72 217.34 156.4 216.21C157.65 208.37 165.22 204.83 170.43 204.83C170.73 204.83 171.02 204.84 171.3 204.87C171.07 204.55 170.96 204.2 170.99 203.85C171.02 203.46 171.21 203.1 171.5 202.85C171.52 202.83 171.55 202.81 171.58 202.79C171.2 202.76 170.82 202.72 170.43 202.72C163.4 202.72 155.71 207.58 154.32 215.76C154.25 216.16 154.18 216.55 154.15 216.96C154.1 217.49 154.46 217.96 154.98 218.08C154.98 218.08 154.99 218.08 155 218.08C155.06 218.09 155.12 218.1 155.19 218.11C157.56 218.59 160.01 218.84 162.46 218.84C164.91 218.84 167.21 218.63 169.69 218.19C172.18 217.75 174.74 217.1 177.42 216.21C178.31 215.92 179.17 215.6 180.01 215.25C180.39 215.09 180.76 214.91 181.13 214.74C181.57 214.54 182.01 214.35 182.44 214.14C182.85 213.93 183.25 213.71 183.65 213.49C184 213.29 184.36 213.1 184.71 212.89C185.12 212.64 185.52 212.38 185.92 212.11C186.22 211.91 186.51 211.71 186.8 211.51C187.21 211.22 187.61 210.92 188 210.61C188.23 210.42 188.46 210.23 188.69 210.04C189.1 209.69 189.51 209.34 189.9 208.98C190.03 208.86 190.14 208.74 190.27 208.62C191.66 207.28 192.93 205.8 194.07 204.2C194.12 204.13 194.17 204.07 194.21 204C194.41 203.72 194.62 203.45 194.81 203.16C194.85 203.1 194.87 203.03 194.89 202.96C195.06 202.53 194.94 202.03 194.55 201.74L194.54 201.77Z" fill="#231F20"/>
<path d="M171.51 202.87C171.21 203.12 171.03 203.47 171 203.87C170.97 204.22 171.08 204.58 171.31 204.89C171.34 204.93 171.36 204.97 171.4 205.01C172.92 206.57 173.2 207.97 173.2 207.97C173.25 208.73 173.89 209.31 174.69 209.31H174.75C174.8 209.31 174.85 209.31 174.9 209.3C175.72 209.19 176.29 208.46 176.19 207.79C176.19 207.41 175.8 205.59 174.2 203.7C174.03 203.5 173.86 203.29 173.66 203.09C173.36 202.7 172.83 202.54 172.35 202.57C172.05 202.59 171.79 202.68 171.6 202.83C171.57 202.85 171.54 202.87 171.52 202.89L171.51 202.87Z" fill="#231F20"/>
<path d="M154.38 129.23C153.91 139 161.5 150.47 167.15 154.39C169.69 156.15 172.97 157.12 176.41 157.12C181.7 157.12 186.59 154.95 189.49 151.33C192.17 147.98 192.96 143.64 191.77 138.75C188.18 124.02 174.15 117.16 165.81 117.16C163.92 117.16 162.3 117.51 161.12 118.17C156.88 120.56 154.61 124.28 154.37 129.22L154.38 129.23ZM166.42 135.07C167.3 134.34 168.42 134.04 169.59 134.11C170.29 133.57 171.39 133.8 172.08 134.6C172.18 134.72 172.26 134.84 172.34 134.97C173.06 135.38 173.73 135.93 174.32 136.62C176.55 139.24 176.63 142.76 174.49 144.52C172.38 146.29 168.84 145.58 166.62 142.98C164.38 140.36 164.31 136.82 166.42 135.06V135.07Z" fill="white"/>
<path d="M165.92 156.12C168.81 158.13 172.54 159.24 176.41 159.24C182.35 159.24 187.87 156.77 191.18 152.64C193.34 149.94 195.57 145.25 193.86 138.26C190 122.43 174.84 115.05 165.81 115.05C163.55 115.05 161.56 115.5 160.06 116.34C155.21 119.07 152.51 123.49 152.24 129.13C151.76 139.11 159.07 151.36 165.92 156.12ZM165.82 117.16C174.17 117.16 188.19 124.02 191.78 138.75C192.97 143.63 192.18 147.98 189.5 151.33C186.59 154.96 181.7 157.12 176.42 157.12C172.98 157.12 169.7 156.15 167.16 154.39C161.51 150.47 153.92 139 154.39 129.23C154.63 124.28 156.9 120.56 161.14 118.18C162.32 117.52 163.94 117.17 165.83 117.17L165.82 117.16Z" fill="#231F20"/>
<path d="M174.491 144.53C176.621 142.77 176.551 139.24 174.321 136.63C173.731 135.95 173.061 135.4 172.341 134.98C172.791 135.76 172.731 136.65 172.141 137.12C171.471 137.69 170.341 137.47 169.631 136.65C168.921 135.8 168.891 134.66 169.551 134.14C169.561 134.14 169.571 134.13 169.591 134.12C168.421 134.04 167.291 134.34 166.421 135.08C164.311 136.84 164.381 140.38 166.621 143C168.841 145.6 172.381 146.31 174.491 144.54V144.53ZM170.381 143.25C170.721 142.96 171.271 143.07 171.651 143.48C172.011 143.92 172.031 144.49 171.681 144.77C171.321 145.06 170.751 144.96 170.401 144.53C170.031 144.1 170.011 143.53 170.371 143.25H170.381Z" fill="#231F20"/>
<path d="M169.641 136.649C170.351 137.469 171.481 137.689 172.151 137.119C172.741 136.639 172.801 135.759 172.351 134.979C172.281 134.849 172.191 134.729 172.091 134.609C171.401 133.809 170.301 133.579 169.601 134.119C169.591 134.119 169.581 134.129 169.561 134.139C168.901 134.669 168.931 135.809 169.641 136.649Z" fill="white"/>
<path d="M171.68 144.77C172.02 144.49 172.01 143.92 171.65 143.48C171.27 143.07 170.72 142.95 170.38 143.25C170.01 143.53 170.03 144.1 170.41 144.53C170.76 144.96 171.33 145.07 171.69 144.77H171.68Z" fill="white"/>
<path d="M124.53 178.95C132.11 178.95 139.63 172.81 140.95 165.55C142.14 158.97 139.55 147.39 133.8 140.64C130.69 136.99 127.07 135.14 123.05 135.14C121.86 135.14 120.62 135.31 119.36 135.64C116.08 136.5 112.57 140.48 110.4 145.78C106.91 154.32 107.6 163.93 112.24 171.49C116.04 177.66 121.02 178.96 124.53 178.96V178.95ZM123.3 154.89C123.22 153.83 123.84 152.89 124.73 152.82C125.51 151.96 126.52 151.4 127.66 151.31C130.43 151.1 132.89 153.67 133.18 157.09C133.44 160.48 131.42 163.43 128.67 163.63C125.9 163.85 123.43 161.26 123.17 157.87C123.09 156.99 123.17 156.14 123.39 155.36C123.35 155.21 123.32 155.06 123.3 154.9V154.89Z" fill="white"/>
<path d="M124.53 181.06C133.23 181.06 141.54 174.27 143.06 165.92C144.33 158.9 141.78 146.72 135.45 139.29C130.92 133.97 125.07 131.96 118.81 133.6C114.84 134.65 110.86 139.01 108.42 144.99C104.68 154.14 105.42 164.45 110.41 172.58C113.78 178.05 118.8 181.07 124.53 181.07V181.06ZM110.41 145.77C112.58 140.47 116.09 136.5 119.37 135.63C120.63 135.3 121.87 135.13 123.06 135.13C127.08 135.13 130.7 136.98 133.81 140.63C139.56 147.38 142.14 158.96 140.96 165.54C139.64 172.8 132.12 178.94 124.54 178.94C121.03 178.94 116.05 177.64 112.25 171.47C107.61 163.91 106.92 154.3 110.41 145.76V145.77Z" fill="#231F20"/>
<path d="M123.17 157.86C123.43 161.26 125.9 163.85 128.67 163.62C131.42 163.42 133.44 160.47 133.18 157.08C132.9 153.65 130.43 151.08 127.66 151.3C126.52 151.39 125.5 151.95 124.73 152.81C124.73 152.81 124.74 152.81 124.75 152.81C125.61 152.74 126.4 153.57 126.49 154.66C126.57 155.74 125.93 156.67 125.05 156.73C124.31 156.79 123.63 156.2 123.39 155.34C123.18 156.12 123.1 156.97 123.17 157.85V157.86ZM130.68 159.84C131.13 159.82 131.56 160.24 131.58 160.78C131.63 161.33 131.3 161.82 130.85 161.85C130.41 161.9 130.01 161.49 129.96 160.91C129.92 160.37 130.24 159.89 130.68 159.84Z" fill="#231F20"/>
<path d="M125.05 156.74C125.94 156.68 126.58 155.75 126.49 154.67C126.4 153.58 125.61 152.75 124.75 152.82C124.75 152.82 124.74 152.82 124.73 152.82C123.84 152.89 123.22 153.83 123.3 154.89C123.31 155.05 123.34 155.2 123.39 155.35C123.63 156.21 124.32 156.8 125.05 156.74Z" fill="white"/>
<path d="M130.85 161.84C131.3 161.81 131.63 161.33 131.58 160.77C131.56 160.23 131.14 159.81 130.68 159.83C130.24 159.88 129.92 160.36 129.96 160.9C130.01 161.47 130.41 161.88 130.85 161.84Z" fill="white"/>
<path d="M257.56 58.7695C257.26 58.7695 256.96 58.7995 256.67 58.8395C258.45 59.0595 260.14 59.5295 261.61 60.2295C260.39 59.1995 258.88 58.7695 257.56 58.7695Z" fill="white"/>
<path d="M266.55 67.9395C266.01 71.3995 263.75 73.3195 261.96 74.3095C261.18 74.7395 260.33 75.0695 259.45 75.3095C259.59 75.3495 259.72 75.4095 259.84 75.5095C260.21 75.8195 260.32 76.3395 260.11 76.7695C259.18 78.6895 259.91 80.3395 260.43 81.1395C261.79 83.2695 264.57 84.1995 266.76 83.1895C266.83 82.9495 266.98 82.7195 267.22 82.5795C267.81 82.2195 268.36 81.7695 268.88 81.2695L273.43 72.0995C273.59 71.1995 273.68 70.3195 273.69 69.5095C273.49 68.6295 272.31 64.2295 268.29 64.2295C267.63 64.2295 266.92 64.3495 266.17 64.5895C266.6 65.6295 266.73 66.7595 266.55 67.9395Z" fill="white"/>
<path d="M268.94 83.9702C269.1 86.5702 270.49 88.1902 272.62 88.1902C274.96 88.1902 278.11 86.1502 279.86 81.5902C281.21 78.0702 281.05 74.6002 279.43 72.3002C278.48 70.9502 277.13 70.2202 275.8 70.3102C275.52 75.0902 273.01 81.1102 268.94 83.9802V83.9702Z" fill="white"/>
<path d="M256.18 75.8001C256.29 75.9801 256.4 76.1801 256.5 76.3701C257.09 76.2101 257.7 75.9501 258.3 75.5801C257.58 75.7101 256.87 75.8001 256.18 75.8001Z" fill="white"/>
<path d="M278.42 87.7002C279.79 86.3802 280.96 84.6102 281.79 82.5102C281.81 82.4502 281.84 82.3902 281.86 82.3302C282.1 81.7102 282.28 81.0902 282.44 80.4702C283.33 76.9402 282.91 73.5302 281.19 71.0902C279.78 69.0802 277.68 68.0202 275.55 68.1902C274.64 65.2002 272.32 62.1202 268.28 62.1202C267.42 62.1202 266.51 62.2702 265.56 62.5602C264.29 58.5002 260.75 56.6602 257.56 56.6602C255.39 56.6602 253.4 57.4702 252.11 58.8402C253.64 58.6502 255.18 58.6602 256.67 58.8402C256.96 58.8002 257.25 58.7702 257.56 58.7702C258.88 58.7702 260.39 59.2002 261.61 60.2302C262.62 60.7102 263.52 61.2902 264.27 61.9702C265.14 62.7602 265.77 63.6402 266.16 64.5902C266.91 64.3602 267.62 64.2302 268.28 64.2302C272.29 64.2302 273.48 68.6202 273.68 69.5102C273.68 69.4802 273.68 69.4502 273.68 69.4202C273.68 68.8402 274.16 68.3602 274.75 68.3602C275.34 68.3602 275.82 68.8302 275.82 69.4202C275.82 69.7102 275.81 70.0102 275.79 70.3102C277.11 70.2202 278.47 70.9502 279.42 72.3002C281.04 74.6002 281.2 78.0802 279.85 81.5902C278.1 86.1502 274.95 88.1902 272.61 88.1902C270.48 88.1902 269.09 86.5802 268.93 83.9702C268.73 84.1102 268.53 84.2502 268.32 84.3802C268.15 84.4902 267.95 84.5402 267.76 84.5402C267.4 84.5402 267.05 84.3602 266.85 84.0402C266.69 83.7802 266.66 83.4702 266.74 83.2002C264.55 84.2102 261.77 83.2802 260.41 81.1502C259.89 80.3402 259.16 78.7002 260.09 76.7802C260.3 76.3502 260.19 75.8402 259.82 75.5202C259.71 75.4202 259.57 75.3602 259.43 75.3202C259.05 75.4302 258.67 75.5102 258.28 75.5802C257.68 75.9502 257.07 76.2102 256.48 76.3702C256.82 77.0002 257.12 77.6502 257.35 78.3402C257.4 78.3202 257.45 78.3202 257.51 78.3002C257.51 78.3602 257.51 78.4102 257.51 78.4702C257.51 78.6102 257.51 78.7502 257.51 78.8902C257.73 79.6302 257.9 80.3902 258 81.1602C258.16 81.5402 258.34 81.9202 258.58 82.2802C260.38 85.0802 263.97 86.4402 266.93 85.4202C267.48 88.0402 269.12 89.5302 270.98 90.0702C271.51 90.2202 272.05 90.3102 272.59 90.3102C272.81 90.3102 273.03 90.3002 273.24 90.2802C274.37 90.1702 275.48 89.7802 276.52 89.1602C277.17 88.7702 277.8 88.2802 278.39 87.7202L278.42 87.7002Z" fill="#231F20"/>
<path d="M273.42 72.0898L268.87 81.2598C271.21 78.9798 272.82 75.3698 273.42 72.0898Z" fill="white"/>
<path d="M268.87 81.2698C268.35 81.7798 267.8 82.2298 267.21 82.5798C266.97 82.7198 266.82 82.9499 266.75 83.1898C266.67 83.4698 266.7 83.7698 266.86 84.0298C267.06 84.3598 267.42 84.5298 267.77 84.5298C267.96 84.5298 268.16 84.4799 268.33 84.3699C268.54 84.2399 268.74 84.0998 268.94 83.9598C273.01 81.0798 275.52 75.0698 275.8 70.2898C275.82 69.9898 275.83 69.6898 275.83 69.3998C275.83 68.8198 275.35 68.3398 274.76 68.3398C274.17 68.3398 273.69 68.8098 273.69 69.3998C273.69 69.4298 273.69 69.4598 273.69 69.4898C273.69 70.3098 273.6 71.1798 273.43 72.0798C272.83 75.3598 271.22 78.9698 268.88 81.2498L268.87 81.2698Z" fill="#231F20"/>
<path d="M266.96 85.3998C264 86.4198 260.41 85.0598 258.61 82.2598C258.38 81.8998 258.19 81.5198 258.03 81.1398C258.11 81.7698 258.14 82.3998 258.13 83.0298C258.08 85.6498 257.21 87.8398 255.7 89.1998C255.49 89.3898 255.23 89.4798 254.98 89.4798C254.69 89.4798 254.4 89.3598 254.19 89.1398C253.99 88.9298 253.9 88.6598 253.91 88.3898C253.92 88.1198 254.04 87.8498 254.26 87.6498C255.32 86.6998 255.95 84.9998 255.99 82.9898C256.05 80.0198 254.87 76.9798 252.91 75.0698C252.55 74.7198 252.49 74.1498 252.77 73.7398C253.05 73.3198 253.6 73.1598 254.07 73.3498C255.55 73.9598 258.52 73.7898 260.9 72.4798C262.28 71.7098 264.02 70.2498 264.43 67.6298C264.66 66.0798 264.13 64.6998 262.83 63.5298C260.22 61.1698 255.14 60.2098 250.74 61.2298C247.86 61.9198 241.56 64.7798 238.43 70.6398C235.93 75.3198 235.93 80.9698 238.43 87.4098C238.48 87.5498 238.51 87.6898 238.5 87.8298H238.6C239.18 89.8398 239.97 91.9798 240.97 94.2598C241.2 94.7698 241.41 95.2998 241.62 95.8298C245.95 98.4198 249.37 102.33 251.84 106.91C252.05 105.91 252.25 104.88 252.39 103.86C252.45 103.44 252.76 103.09 253.17 102.99C253.59 102.87 254.03 103.02 254.29 103.36C256.66 106.34 258.37 111.27 259.3 114.43C260.03 112.81 261.01 110.67 262.03 108.53C261.9 107.17 261.76 105.86 261.62 104.62C261.3 101.77 261.03 99.3198 261.04 97.1498C261.04 96.8598 261.16 96.5898 261.37 96.3898C261.58 96.1898 261.87 96.0798 262.15 96.0898H262.43C266.02 96.0898 269.15 93.7798 271.01 90.0798C269.16 89.5398 267.51 88.0498 266.96 85.4298V85.3998Z" fill="white"/>
<path d="M237.81 88.7497C238.23 88.5997 238.48 88.2097 238.5 87.7997C238.5 87.6597 238.48 87.5197 238.43 87.3797C235.93 80.9397 235.93 75.2897 238.43 70.6097C241.56 64.7497 247.85 61.8897 250.74 61.1997C255.13 60.1797 260.22 61.1397 262.83 63.4997C264.13 64.6697 264.66 66.0497 264.43 67.5997C264.02 70.2197 262.29 71.6797 260.9 72.4497C258.52 73.7697 255.56 73.9297 254.07 73.3197C253.59 73.1297 253.05 73.2897 252.77 73.7097C252.49 74.1297 252.54 74.6897 252.91 75.0397C254.87 76.9497 256.05 79.9897 255.99 82.9597C255.95 84.9697 255.32 86.6597 254.26 87.6197C254.04 87.8197 253.92 88.0897 253.91 88.3597C253.9 88.6297 253.99 88.8997 254.19 89.1097C254.4 89.3397 254.69 89.4497 254.98 89.4497C255.24 89.4497 255.5 89.3597 255.7 89.1697C257.21 87.8097 258.08 85.6197 258.13 82.9997C258.14 82.3697 258.11 81.7397 258.03 81.1097C257.93 80.3397 257.76 79.5797 257.54 78.8397C257.49 78.6697 257.44 78.4997 257.38 78.3297C257.38 78.3297 257.38 78.3097 257.38 78.2997C257.14 77.6097 256.84 76.9597 256.51 76.3297C256.41 76.1397 256.3 75.9497 256.19 75.7597C256.88 75.7597 257.59 75.6697 258.31 75.5397C258.7 75.4697 259.08 75.3897 259.46 75.2797C260.33 75.0297 261.19 74.7097 261.97 74.2797C263.77 73.2797 266.02 71.3697 266.56 67.9097C266.74 66.7297 266.6 65.5997 266.18 64.5597C265.79 63.6097 265.17 62.7197 264.29 61.9397C263.54 61.2597 262.63 60.6797 261.63 60.1997C260.16 59.4997 258.47 59.0297 256.69 58.8097C255.2 58.6297 253.66 58.6197 252.13 58.8097C251.5 58.8897 250.87 58.9997 250.25 59.1397C249.9 59.2197 249.5 59.3397 249.08 59.4797C248.38 59.6997 247.61 59.9997 246.79 60.3697C245.05 61.1597 243.12 62.2897 241.31 63.8197C240.77 64.2697 240.24 64.7597 239.73 65.2797C238.53 66.5197 237.43 67.9597 236.54 69.6097C233.74 74.8497 233.7 81.0797 236.43 88.1097C236.45 88.1497 236.48 88.1797 236.5 88.2097C236.75 88.6797 237.31 88.9097 237.82 88.7197L237.81 88.7497Z" fill="#231F20"/>
</svg>
