<svg width="338" height="378" viewBox="0 0 338 378" fill="none" xmlns="http://www.w3.org/2000/svg">
<path d="M103.37 366.3C103.83 368.44 106.21 368.76 107.59 368.76C109.23 368.76 110.69 368.32 111.34 367.92C111.68 367.71 112.12 367.69 112.47 367.88C112.83 368.07 113.06 368.43 113.09 368.83C113.23 371.01 113.89 373.12 120.46 374.97C121.49 375.26 122.65 375.41 123.91 375.41C128.29 375.41 133.09 373.61 135.34 371.13C135.56 370.89 135.87 370.75 136.19 370.75C136.28 370.75 136.37 370.76 136.46 370.78C136.87 370.88 137.19 371.19 137.3 371.59C138.21 374.88 141.46 375.57 144.02 375.57C144.68 375.57 145.37 375.52 146.09 375.44C148.78 375.1 151.23 373.44 152.68 371C151.09 372.33 148.8 373.08 145.93 373.2H145.45C142.9 373.21 140.84 372.24 139.48 370.39C138.18 368.62 137.71 366.32 137.68 364.19C132.9 368.57 124.21 371.56 119.81 370.31C117.19 369.58 115.5 368.25 114.8 366.36C114.27 364.94 114.39 363.38 114.84 361.88C112.71 363.44 110.14 364.98 107.75 364.98C106.87 364.98 106.05 364.77 105.32 364.37C104.64 363.99 104.18 363.53 103.89 363.02C103.3 364.01 103.06 365.09 103.32 366.3H103.37Z" fill="white"/>
<path d="M153.999 360.41C155.939 364.93 155.139 367.79 154.129 369.39C153.749 370 153.269 370.53 152.709 371C151.259 373.44 148.799 375.1 146.119 375.44C145.399 375.53 144.699 375.57 144.049 375.57C141.489 375.57 138.239 374.88 137.329 371.59C137.219 371.18 136.899 370.87 136.489 370.78C136.399 370.76 136.309 370.75 136.219 370.75C135.899 370.75 135.589 370.88 135.369 371.13C133.119 373.61 128.309 375.41 123.939 375.41C122.689 375.41 121.529 375.26 120.489 374.97C113.919 373.12 113.249 371.01 113.119 368.83C113.099 368.43 112.859 368.06 112.499 367.88C112.139 367.69 111.709 367.71 111.369 367.92C110.709 368.32 109.259 368.76 107.619 368.76C106.239 368.76 103.869 368.44 103.399 366.3C103.139 365.09 103.379 364.01 103.969 363.02C103.779 362.68 103.649 362.32 103.639 361.93C103.569 359.72 106.459 357.82 110.459 355.19C111.549 354.47 112.659 353.73 113.749 352.96C112.569 353.76 111.319 354.52 110.089 355.26C105.119 358.27 99.9893 361.38 101.149 366.78C101.729 369.46 104.149 371.06 107.619 371.06C108.799 371.06 110.019 370.87 111.049 370.55C111.689 373.27 113.799 375.48 119.879 377.19C121.119 377.54 122.489 377.71 123.949 377.71C128.289 377.71 132.879 376.18 135.799 373.87C137.219 376.47 140.099 377.87 144.069 377.87C144.809 377.87 145.599 377.82 146.429 377.72C149.889 377.28 153.019 375.14 154.819 372C156.719 368.68 156.929 364.69 155.369 361.04C152.569 354.55 155.019 347.42 155.049 347.34C155.089 347.22 155.119 347.09 155.119 346.96C155.119 346.83 155.099 346.72 155.089 346.6C153.849 349.86 152.089 355.89 154.029 360.39L153.999 360.41Z" fill="#231F20"/>
<path d="M116.349 353.92C114.829 355.06 113.229 356.11 111.689 357.12C109.379 358.64 105.879 360.93 105.909 361.85C105.909 361.89 106.019 362.08 106.499 362.36C108.769 363.64 112.979 360.5 115.509 358.49C116.299 357.86 116.979 357.33 117.459 357.04C117.919 356.76 118.519 356.83 118.889 357.22C119.269 357.61 119.319 358.21 119.019 358.66C117.119 361.51 116.399 363.96 116.989 365.57C117.419 366.72 118.579 367.57 120.459 368.1C120.969 368.25 121.579 368.32 122.269 368.32C127.849 368.32 136.569 363.65 138.339 359.7C138.529 359.27 138.949 359.02 139.389 359.02C139.529 359.02 139.659 359.04 139.799 359.1C140.369 359.32 140.669 359.94 140.489 360.52C139.819 362.65 139.649 366.7 141.369 369.04C142.299 370.3 143.639 370.92 145.479 370.92H145.869C148.909 370.78 151.149 369.81 152.179 368.18C153.209 366.55 153.109 364.18 151.879 361.33C149.869 356.63 151.159 350.83 152.439 347.09C145.929 348.35 139.999 348.96 134.409 348.96C130.469 348.96 126.719 348.65 123.139 348.02C121.689 349.5 119.469 351.58 116.359 353.93L116.349 353.92Z" fill="white"/>
<path d="M154.75 346.6C153.97 346.77 153.2 346.92 152.43 347.06C151.15 350.8 149.86 356.6 151.87 361.3C153.09 364.15 153.19 366.52 152.17 368.15C151.14 369.79 148.9 370.76 145.86 370.88H145.47C143.64 370.88 142.29 370.28 141.36 369.01C139.64 366.67 139.82 362.62 140.48 360.49C140.66 359.91 140.36 359.28 139.79 359.07C139.65 359.02 139.52 358.99 139.38 358.99C138.94 358.99 138.52 359.24 138.33 359.67C136.55 363.62 127.84 368.29 122.26 368.29C121.57 368.29 120.97 368.22 120.45 368.07C118.57 367.55 117.41 366.69 116.98 365.54C116.39 363.93 117.1 361.48 119.01 358.63C119.31 358.18 119.26 357.58 118.88 357.19C118.5 356.8 117.91 356.73 117.45 357.01C116.96 357.31 116.29 357.83 115.5 358.46C112.97 360.47 108.76 363.61 106.49 362.33C106.01 362.06 105.9 361.86 105.9 361.82C105.87 360.9 109.36 358.61 111.68 357.09C113.22 356.08 114.82 355.03 116.34 353.89C119.45 351.53 121.68 349.46 123.12 347.98C122.2 347.82 121.29 347.63 120.39 347.43C119.05 348.72 117.25 350.31 114.95 352.05C114.54 352.35 114.12 352.64 113.7 352.94C112.61 353.7 111.5 354.45 110.41 355.17C106.41 357.79 103.52 359.69 103.59 361.91C103.6 362.3 103.73 362.66 103.92 363C104.21 363.51 104.67 363.96 105.35 364.35C106.08 364.76 106.89 364.96 107.78 364.96C110.17 364.96 112.74 363.42 114.87 361.86C114.42 363.36 114.3 364.92 114.83 366.34C115.53 368.23 117.21 369.55 119.84 370.29C124.23 371.54 132.93 368.55 137.71 364.17C137.74 366.3 138.21 368.6 139.51 370.37C140.86 372.21 142.93 373.19 145.48 373.19H145.96C148.83 373.06 151.11 372.31 152.71 370.98C153.27 370.51 153.75 369.98 154.13 369.37C155.14 367.77 155.94 364.91 154 360.39C152.07 355.89 153.82 349.85 155.06 346.6C155.07 346.57 155.08 346.55 155.09 346.52C154.97 346.54 154.87 346.56 154.75 346.59V346.6Z" fill="#231F20"/>
<path d="M68.1401 145.59C57.2801 142.23 44.3601 138.48 30.4601 134.96C26.4301 133.94 22.6701 133.42 19.2801 133.42C14.2801 133.42 7.63008 134.58 4.33008 140.13C2.79008 142.72 1.73008 146.73 2.61008 152.82C2.88008 151.52 3.33008 150.34 3.96008 149.28C6.08008 145.72 10.1601 143.83 15.7701 143.83C24.0101 143.83 35.2701 147.98 45.8901 154.93C78.2401 176.09 95.7901 192.71 100.78 197.71C101.48 196.17 102.15 194.73 102.78 193.4C106.81 184.89 107.15 177.27 106.44 171.71C106.14 170.44 105.8 169.19 105.41 167.95C89.7301 162.26 75.9701 154.55 68.1401 145.57V145.59Z" fill="white"/>
<path d="M106.44 171.73C106.27 170.4 106.04 169.19 105.79 168.11C105.66 168.06 105.54 168.02 105.41 167.97C105.8 169.2 106.14 170.45 106.44 171.73Z" fill="#231F20"/>
<path d="M2.60969 152.82C1.71969 146.73 2.78969 142.72 4.32969 140.13C7.62969 134.58 14.2797 133.42 19.2797 133.42C22.6697 133.42 26.4297 133.94 30.4597 134.96C44.3497 138.49 57.2697 142.23 68.1397 145.59C67.2297 144.55 66.4197 143.49 65.6797 142.42C55.4697 139.31 43.6497 135.92 31.0397 132.72C26.8197 131.65 22.8697 131.11 19.2897 131.11C11.2597 131.11 5.40969 133.82 2.35969 138.95C-2.09031 146.43 -0.180312 158.55 7.83969 174.09C3.27969 165.13 1.53969 158 2.61969 152.81L2.60969 152.82Z" fill="#231F20"/>
<path d="M44.6297 156.87C34.3697 150.15 23.5797 146.14 15.7697 146.14C12.4597 146.14 8.05968 146.89 5.93968 150.46C3.93968 153.82 3.21968 160.87 11.1097 175.37C28.9397 208.14 62.8997 229.35 87.0597 232.31C91.1997 219.93 95.8897 208.62 99.7797 199.95C96.1897 196.3 78.6797 179.13 44.6397 156.86L44.6297 156.87Z" fill="white"/>
<path d="M87.0493 232.32C62.8893 229.35 28.9293 208.15 11.0993 175.38C3.20928 160.88 3.93928 153.83 5.92928 150.47C8.04928 146.9 12.4493 146.15 15.7593 146.15C23.5693 146.15 34.3593 150.16 44.6193 156.88C78.6593 179.14 96.1693 196.31 99.7593 199.97C100.099 199.2 100.439 198.46 100.769 197.74C95.7793 192.74 78.2293 176.12 45.8793 154.96C35.2593 148.01 23.9993 143.86 15.7593 143.86C10.1493 143.86 6.06928 145.74 3.94928 149.31C3.31928 150.37 2.86928 151.55 2.59928 152.85C1.51928 158.04 3.25928 165.17 7.81928 174.13C8.21928 174.91 8.62927 175.7 9.06927 176.51C27.1393 209.72 61.5393 231.28 86.3193 234.57C86.5593 233.83 86.8093 233.09 87.0493 232.35V232.32Z" fill="#231F20"/>
<path d="M244.88 158.28C240.45 160.61 234.88 162.98 228.58 165.24C229.35 171.18 231.52 178.18 233.46 184.17C243.35 178.69 262.38 169.16 290.84 159.08C299.1 156.15 307.51 154.54 314.52 154.54C323.87 154.54 330.26 157.33 332.51 162.4C333.09 163.71 333.46 165.37 333.36 167.41C336.04 160.85 335.6 156.27 334.23 153.19C331.45 146.91 323.02 143.31 311.11 143.31H310.56C292.26 143.49 275.42 144.4 262.54 145.33C257.88 150.21 252 154.53 244.88 158.28Z" fill="white"/>
<path d="M336.34 152.25C333.13 145 324.17 141 311.12 141H310.54C293.3 141.17 277.35 141.99 264.76 142.86C264.06 143.7 263.31 144.52 262.54 145.33C275.42 144.4 292.27 143.49 310.56 143.31H311.11C323.02 143.31 331.45 146.91 334.23 153.18C335.59 156.26 336.04 160.84 333.36 167.4C333.13 171.93 330.56 178.39 322.68 187.39C338.72 169.23 339 158.27 336.33 152.24L336.34 152.25Z" fill="#231F20"/>
<path d="M240.749 201.96C243.639 208.14 247.179 215.72 250.639 224.05C272.499 220.96 299.789 209.22 319.819 187.16C331.569 174.22 332.059 167.05 330.419 163.32C328.569 159.14 322.929 156.83 314.539 156.83C307.789 156.83 299.649 158.4 291.629 161.24C262.839 171.44 243.799 181.04 234.199 186.38L234.899 188.54C235.749 191.22 237.959 195.95 240.759 201.95L240.749 201.96Z" fill="white"/>
<path d="M333.36 167.41C333.46 165.36 333.09 163.71 332.51 162.4C330.27 157.33 323.88 154.54 314.52 154.54C307.51 154.54 299.1 156.15 290.84 159.08C262.38 169.16 243.35 178.69 233.46 184.17C233.61 184.64 233.76 185.11 233.91 185.56L234.18 186.39C243.78 181.05 262.82 171.45 291.61 161.25C299.63 158.41 307.77 156.84 314.52 156.84C322.91 156.84 328.55 159.14 330.4 163.33C332.05 167.06 331.55 174.22 319.8 187.17C299.77 209.23 272.48 220.97 250.62 224.06C250.92 224.78 251.22 225.52 251.52 226.25C273.74 222.96 301.27 211 321.51 188.72C321.91 188.28 322.3 187.84 322.68 187.41C330.56 178.41 333.13 171.95 333.36 167.42V167.41Z" fill="#231F20"/>
<path d="M208.099 171.48C207.029 171.8 205.959 172.11 204.899 172.41C216.409 194.77 234.169 236.52 234.829 259.79C235.669 288.54 218.099 308.24 202.799 316.36C190.299 323 177.359 326.37 164.329 326.37C137.619 326.37 112.189 311.49 99.5593 288.47C84.4293 260.91 100.849 207.96 120.729 173.36C116.659 172.14 112.559 170.73 108.409 169.1C109.569 175.11 109.749 184.09 104.869 194.39C93.5293 218.44 68.7193 277.89 83.1393 310.54C93.8793 334.83 110.649 346.63 134.399 346.63C140.489 346.63 146.989 345.88 154.269 344.34C163.909 342.29 171.339 341.34 177.659 341.34C178.209 341.34 178.719 341.37 179.249 341.38C179.139 341.23 179.029 341.08 178.919 340.93C177.419 339.17 176.589 337.17 176.919 334.75C176.939 334.58 176.959 334.42 176.989 334.26C176.989 334.21 176.999 334.16 177.009 334.11C177.419 332.23 178.589 330.85 180.359 330.09C181.069 329.78 181.869 329.57 182.769 329.47C183.219 329.42 183.679 329.39 184.169 329.39C185.549 329.39 186.989 329.62 188.179 330.02C188.839 326.92 191.159 324.41 198.109 322.44C199.509 322.05 201.049 321.85 202.699 321.85C207.649 321.85 212.889 323.62 216.139 326.29C217.989 322.74 222.259 321.12 228.109 321.84C228.509 321.89 228.909 321.97 229.309 322.07C232.699 322.86 235.699 325.1 237.499 328.25C237.849 328.86 238.129 329.5 238.379 330.15C239.349 332.37 239.689 334.72 239.309 337C239.269 337.24 239.159 337.45 238.989 337.62C238.829 338.4 238.599 339.18 238.309 339.94C238.909 339.6 239.459 339.25 239.929 338.89C255.189 327.28 263.259 314.07 262.209 277.59C261.479 251.81 247.179 221.22 238.649 202.94C235.809 196.87 233.569 192.07 232.679 189.26L231.719 186.28C229.619 179.81 227.239 172.45 226.349 166.03C220.689 167.98 214.509 169.84 208.099 171.48Z" fill="white"/>
<path d="M180.579 342.91C180.119 342.46 179.669 341.94 179.249 341.39C178.719 341.38 178.209 341.35 177.659 341.35C171.339 341.35 163.899 342.3 154.269 344.35C146.989 345.89 140.489 346.64 134.399 346.64C110.649 346.64 93.8793 334.83 83.1393 310.55C68.7193 277.9 93.5293 218.45 104.869 194.4C109.749 184.1 109.559 175.12 108.409 169.11C107.889 168.91 107.369 168.7 106.849 168.49C106.499 168.37 106.149 168.24 105.799 168.11C106.049 169.19 106.279 170.4 106.449 171.73C107.159 177.29 106.819 184.9 102.789 193.42C102.159 194.75 101.489 196.2 100.789 197.73C100.459 198.45 100.119 199.2 99.7793 199.96C95.8893 208.64 91.2093 219.94 87.0593 232.32C86.8093 233.06 86.5693 233.79 86.3293 234.54C77.8193 260.65 71.9993 291.04 81.0393 311.48C89.9593 331.64 102.919 343.51 120.419 347.46C121.319 347.66 122.219 347.85 123.149 348.01C126.719 348.63 130.479 348.95 134.419 348.95C140.019 348.95 145.939 348.33 152.449 347.08C153.219 346.93 153.979 346.78 154.769 346.62C154.889 346.6 154.989 346.57 155.109 346.55C164.409 344.59 171.599 343.67 177.679 343.67C179.259 343.67 180.749 343.73 182.159 343.85C181.889 343.66 181.639 343.46 181.379 343.26C181.089 343.26 180.799 343.14 180.589 342.93L180.579 342.91Z" fill="#231F20"/>
<path d="M250.63 224.05C247.17 215.72 243.63 208.14 240.74 201.96C237.94 195.97 235.72 191.23 234.88 188.55L234.18 186.39L233.91 185.56C233.76 185.1 233.61 184.63 233.46 184.17C231.52 178.18 229.34 171.18 228.58 165.24C227.85 165.5 227.1 165.76 226.35 166.02C227.24 172.44 229.62 179.8 231.72 186.27L232.68 189.25C233.57 192.07 235.81 196.86 238.65 202.93C247.19 221.21 261.49 251.79 262.21 277.58C263.26 314.05 255.19 327.26 239.93 338.88C239.45 339.24 238.91 339.59 238.31 339.93C238.24 340.11 238.19 340.3 238.11 340.48C237.74 341.33 237.47 342.19 237.24 343.04C238.84 342.32 240.23 341.54 241.33 340.71C259.4 326.96 265.46 310.42 264.52 277.51C264.05 260.82 258.05 242.27 251.53 226.23C251.23 225.49 250.93 224.76 250.63 224.04V224.05Z" fill="#231F20"/>
<path d="M101.57 287.36C113.81 309.65 138.44 324.06 164.32 324.06C176.97 324.06 189.55 320.78 201.71 314.32C216.43 306.5 233.33 287.55 232.52 259.85C231.88 237.23 213.91 195.05 202.61 173.04C187.45 177.14 173.3 179.15 159.66 179.15C147.25 179.15 135.25 177.49 123.02 174.04C103.7 207.69 86.9995 260.82 101.57 287.37V287.36Z" fill="white"/>
<path d="M202.62 173.04C213.93 195.05 231.89 237.23 232.53 259.85C233.34 287.55 216.44 306.51 201.72 314.32C189.56 320.78 176.98 324.06 164.33 324.06C138.45 324.06 113.81 309.65 101.58 287.36C87.0098 260.81 103.7 207.68 123.03 174.03C122.26 173.81 121.5 173.58 120.73 173.35C100.85 207.95 84.4398 260.91 99.5598 288.46C112.2 311.48 137.62 326.36 164.33 326.36C177.36 326.36 190.31 322.99 202.8 316.35C218.1 308.22 235.67 288.53 234.83 259.78C234.17 236.51 216.41 194.76 204.9 172.4C204.13 172.62 203.37 172.83 202.61 173.04H202.62Z" fill="#231F20"/>
<path d="M69.7896 112.18C71.0796 99.2598 82.8196 80.0998 87.2496 72.8898L87.9596 71.7298C89.0596 69.9198 90.1796 67.9698 91.3396 65.9598C96.5196 56.9298 102.4 46.6998 109.49 44.7398C110.72 44.3998 111.98 44.2298 113.23 44.2298C124.21 44.2298 133.92 57.2398 136.3 75.1598C138.06 88.4798 135.39 101.88 133.44 109.27C135.54 108.27 137.85 107.75 140.36 107.75C147.43 107.75 154.69 111.9 158.75 116.02C161.57 118.88 164.82 121.47 167.3 123.13C166.51 118.96 165.26 113.13 164.42 110.58C163.11 106.59 160.76 86.6298 162.08 77.6498L162.14 77.2598C163.54 67.7898 166.44 48.0798 181.57 43.0298C183.97 42.2298 186.45 41.8198 188.96 41.8198C200.77 41.8198 210.32 50.6098 214.4 54.3598L214.65 54.5898C216.3 56.0898 218.17 58.3198 221.01 61.6798C226.2 67.8398 234.04 77.1498 248.7 91.9398C257.58 100.91 260.74 113.04 257.59 126.09C254.1 140.54 243.66 153.74 229.5 162.46C234.99 160.43 239.87 158.32 243.82 156.24C265.14 145 275.02 128.48 273.17 107.14C271.78 91.2298 260.13 80.8498 249.84 71.6898C244.05 66.5298 238.58 61.6598 235.72 56.3998C230.81 47.3698 204.2 2.2998 162.75 2.2998C162.01 2.2998 161.27 2.3098 160.52 2.3398C131.29 3.4598 112.19 12.1998 95.0196 55.0698C92.0896 62.3698 84.3596 73.4698 76.6496 81.4698C66.6696 91.8398 51.8596 117.56 67.2396 140.65C70.6696 145.8 76.3196 150.62 83.3496 154.94C67.0096 139.97 68.8696 121.23 69.7896 112.17V112.18Z" fill="white"/>
<path d="M68.1398 145.59C75.9798 154.57 89.7398 162.28 105.41 167.97C105.54 168.02 105.66 168.06 105.79 168.11C106.14 168.24 106.48 168.36 106.84 168.49C104.58 167.58 102.3 166.62 99.9998 165.59C92.9998 162.45 87.5798 158.83 83.3598 154.96C76.3298 150.64 70.6798 145.82 67.2498 140.67C51.8698 117.57 66.6798 91.86 76.6598 81.49C84.3698 73.49 92.0998 62.39 95.0298 55.09C112.19 12.21 131.29 3.47 160.52 2.35C161.27 2.32 162.01 2.31 162.75 2.31C204.21 2.31 230.81 47.38 235.72 56.41C238.58 61.67 244.05 66.54 249.84 71.7C260.12 80.86 271.78 91.25 273.17 107.15C275.01 128.49 265.14 145 243.82 156.25C239.87 158.33 235 160.44 229.5 162.47C224.75 165.4 219.58 167.82 214.11 169.61C212.09 170.27 210.1 170.89 208.11 171.48C214.52 169.83 220.7 167.98 226.36 166.03C227.11 165.77 227.86 165.51 228.59 165.25C234.88 162.99 240.46 160.62 244.89 158.29C252.01 154.54 257.89 150.21 262.55 145.34C263.32 144.53 264.06 143.71 264.77 142.87C273.09 132.97 276.67 120.96 275.46 106.96C273.99 90.14 261.97 79.43 251.37 69.99C245.74 64.97 240.41 60.23 237.75 55.32C232.72 46.07 205.51 0 162.75 0C161.98 0 161.21 0.01 160.43 0.05C130.94 1.18 110.43 10.41 92.8898 54.23C90.0998 61.17 82.4098 72.2 74.9898 79.89C60.4798 94.97 51.2598 120.83 65.3198 141.95C65.4298 142.11 65.5598 142.27 65.6698 142.43C66.4098 143.5 67.2298 144.56 68.1298 145.6L68.1398 145.59Z" fill="#231F20"/>
<path d="M170.139 125.99C170.269 126.82 170.339 127.44 170.329 127.73C170.329 127.95 170.259 128.17 170.139 128.36C171.059 138.25 167.839 144.57 164.779 148.23C159.929 154.01 153.299 156.08 148.719 156.08C148.419 156.08 148.119 156.08 147.829 156.05C139.719 155.59 132.099 148.87 131.179 141.39C130.459 135.71 132.769 131.63 134.549 129.39C133.829 129.29 133.089 129.23 132.309 129.23C128.929 129.23 125.739 130.12 123.829 130.66C123.149 130.85 122.629 130.99 122.289 131.05C121.959 131.11 121.629 131.02 121.369 130.81C121.109 130.6 120.959 130.29 120.939 129.95C120.929 129.51 120.709 119.11 130.309 111.24C130.379 111.18 130.449 111.13 130.529 111.08C132.369 104.72 135.929 89.8501 134.019 75.4501C131.829 58.9601 122.889 46.5201 113.229 46.5201C112.189 46.5201 111.129 46.6701 110.099 46.9501C103.919 48.6601 98.2993 58.4601 93.3293 67.1001C92.1693 69.1301 91.0293 71.1001 89.9193 72.9201L89.2093 74.0901C85.2793 80.5001 73.3193 100.01 72.0793 112.41C70.8893 124.25 68.4094 148.9 100.939 163.48C121.289 172.59 139.949 176.84 159.659 176.84C176.449 176.84 194.019 173.76 213.379 167.41C234.389 160.52 250.859 144.09 255.339 125.55C258.299 113.3 255.349 101.94 247.049 93.5601C232.329 78.7001 224.139 68.9701 219.239 63.1601C216.459 59.8601 214.629 57.6901 213.089 56.2801L212.839 56.0501C208.959 52.4801 199.869 44.1201 188.959 44.1201C186.699 44.1201 184.459 44.4901 182.299 45.2101C168.519 49.8001 165.749 68.5701 164.419 77.5901L164.359 77.9801C163.109 86.4901 165.369 106.11 166.609 109.85C167.549 112.74 169.199 120.46 169.939 124.81C170.109 125.03 170.209 125.31 170.189 125.6C170.189 125.73 170.149 125.86 170.129 125.98L170.139 125.99ZM113.369 70.6501C123.119 70.6501 131.059 79.0701 131.059 89.4201C131.059 99.7701 123.129 108.2 113.369 108.2C103.609 108.2 95.6894 99.7701 95.6894 89.4201C95.6894 79.0701 103.619 70.6501 113.369 70.6501ZM189.689 68.0901C199.879 68.0901 208.169 76.8901 208.169 87.7101C208.169 98.5301 199.879 107.33 189.689 107.33C179.499 107.33 171.199 98.5301 171.199 87.7101C171.199 76.8901 179.489 68.0901 189.689 68.0901Z" fill="white"/>
<path d="M123.02 174.04C135.26 177.49 147.25 179.15 159.66 179.15C173.31 179.15 187.45 177.14 202.61 173.04C203.37 172.83 204.14 172.62 204.9 172.4C205.96 172.1 207.03 171.79 208.1 171.47C210.08 170.88 212.08 170.26 214.1 169.6C219.57 167.81 224.74 165.39 229.49 162.46C243.65 153.74 254.09 140.54 257.58 126.09C260.73 113.03 257.58 100.9 248.69 91.9403C234.03 77.1403 226.19 67.8403 221 61.6803C218.17 58.3103 216.29 56.0903 214.64 54.5903L214.39 54.3603C210.31 50.6103 200.76 41.8203 188.95 41.8203C186.44 41.8203 183.96 42.2303 181.56 43.0303C166.43 48.0703 163.53 67.7803 162.13 77.2603L162.07 77.6503C160.75 86.6303 163.09 106.59 164.41 110.58C165.25 113.14 166.5 118.97 167.29 123.13C167.85 123.5 168.35 123.82 168.82 124.08C168.94 124.11 169.05 124.14 169.16 124.2C169.22 124.24 169.27 124.3 169.32 124.35C169.4 124.39 169.49 124.45 169.57 124.49C169.72 124.57 169.84 124.68 169.94 124.81C169.2 120.46 167.55 112.74 166.61 109.85C165.38 106.1 163.11 86.4903 164.36 77.9803L164.42 77.5903C165.75 68.5703 168.51 49.8103 182.3 45.2103C184.46 44.4903 186.7 44.1203 188.96 44.1203C199.87 44.1203 208.96 52.4803 212.84 56.0503L213.09 56.2803C214.63 57.6903 216.46 59.8603 219.24 63.1603C224.14 68.9703 232.33 78.7003 247.05 93.5603C255.35 101.94 258.29 113.3 255.34 125.55C250.87 144.09 234.4 160.52 213.38 167.41C194.02 173.75 176.45 176.84 159.66 176.84C139.95 176.84 121.29 172.6 100.94 163.48C68.4096 148.89 70.8896 124.25 72.0796 112.41C73.3196 100.01 85.2796 80.5103 89.2096 74.0903L89.9196 72.9203C91.0296 71.1003 92.1596 69.1203 93.3296 67.1003C98.2896 58.4603 103.92 48.6603 110.1 46.9503C111.13 46.6703 112.19 46.5203 113.23 46.5203C122.89 46.5203 131.82 58.9603 134.02 75.4503C135.93 89.8403 132.37 104.72 130.53 111.08C131.45 110.36 132.42 109.75 133.44 109.26C135.4 101.87 138.07 88.4703 136.3 75.1503C133.91 57.2303 124.21 44.2203 113.23 44.2203C111.98 44.2203 110.72 44.3903 109.49 44.7303C102.4 46.6903 96.5196 56.9203 91.3396 65.9503C90.1896 67.9603 89.0596 69.9203 87.9596 71.7203L87.2496 72.8803C82.8296 80.0903 71.0796 99.2503 69.7896 112.17C68.8796 121.24 67.0096 139.97 83.3496 154.94C87.5796 158.81 92.9996 162.44 99.9896 165.57C102.29 166.6 104.56 167.56 106.83 168.47C107.35 168.68 107.87 168.89 108.39 169.09C112.54 170.71 116.64 172.13 120.71 173.35C121.48 173.58 122.25 173.81 123.01 174.03L123.02 174.04Z" fill="#231F20"/>
<path d="M170.329 127.73C170.329 127.44 170.269 126.83 170.139 125.99C170.099 126.22 170.039 126.46 169.949 126.7C170.029 127.27 170.089 127.82 170.139 128.37C170.269 128.17 170.329 127.95 170.329 127.74V127.73Z" fill="#231F20"/>
<path d="M133.46 141.11C134.25 147.57 140.88 153.35 147.95 153.76C148.2 153.77 148.45 153.78 148.71 153.78C152.59 153.78 158.65 151.94 163 146.76C165.68 143.57 168.48 138.1 167.91 129.53C167.6 129.82 167.26 130.1 166.89 130.37C166.01 132.72 164 137.36 160.81 140.68C160.64 140.85 160.48 141.03 160.31 141.19C160.21 141.28 160.11 141.37 160.02 141.46C159.79 141.67 159.56 141.87 159.33 142.06C159.24 142.13 159.16 142.2 159.07 142.27C158.75 142.52 158.43 142.75 158.1 142.95C158.1 142.95 158.08 142.96 158.07 142.97C154.78 145.03 150.47 146.25 146.54 146.25C146.23 146.25 145.94 146.23 145.64 146.22C145.57 146.22 145.51 146.22 145.44 146.22C145.11 146.2 144.79 146.17 144.47 146.13C144.44 146.13 144.42 146.13 144.39 146.13C141.37 145.77 138.9 144.63 137.18 142.77C137.03 142.61 136.93 142.41 136.89 142.19C136.12 137.8 136.62 134.28 138.58 130.63C138.1 130.39 137.59 130.18 137.07 130C135.62 131.53 132.72 135.37 133.45 141.13L133.46 141.11Z" fill="white"/>
<path d="M131.18 141.39C132.09 148.88 139.72 155.59 147.83 156.05C148.12 156.07 148.42 156.08 148.72 156.08C153.3 156.08 159.93 154.02 164.78 148.23C167.84 144.58 171.06 138.26 170.14 128.36C170.09 127.81 170.03 127.26 169.95 126.69C169.6 127.66 168.89 128.62 167.92 129.52C168.49 138.09 165.69 143.56 163.01 146.75C158.66 151.93 152.59 153.77 148.72 153.77C148.46 153.77 148.21 153.77 147.96 153.75C140.89 153.35 134.26 147.56 133.47 141.1C132.74 135.34 135.64 131.5 137.09 129.97C136.3 129.7 135.45 129.51 134.55 129.39C132.77 131.62 130.46 135.71 131.18 141.39Z" fill="#231F20"/>
<path d="M169.17 124.2C169.07 124.13 168.95 124.11 168.83 124.08C169 124.18 169.17 124.27 169.33 124.36C169.28 124.31 169.23 124.25 169.17 124.21V124.2Z" fill="#231F20"/>
<path d="M139.119 141.42C139.199 141.5 139.289 141.56 139.369 141.63C141.399 138.3 144.409 134.92 149.579 134.92C150.259 134.92 150.969 134.98 151.679 135.1C154.899 135.64 157.709 136.65 160.039 138.11C161.559 136.26 162.749 134.09 163.609 132.25C162.449 132.75 161.199 133.17 159.879 133.45C157.929 133.88 155.679 134.1 153.389 134.1C150.079 134.1 145.349 133.64 140.659 131.59C139.169 134.29 138.439 137.25 139.109 141.42H139.119Z" fill="white"/>
<path d="M136.909 142.17C136.949 142.39 137.049 142.59 137.199 142.75C138.919 144.61 141.389 145.75 144.409 146.11C142.379 145.86 140.559 145.25 139.089 144.31C138.579 143.98 138.409 143.31 138.709 142.78C138.919 142.4 139.139 142.02 139.369 141.64C139.289 141.57 139.199 141.5 139.119 141.43C138.449 137.26 139.179 134.3 140.669 131.6C140.039 131.33 139.419 131.03 138.789 130.7C138.729 130.67 138.659 130.65 138.599 130.61C136.639 134.26 136.139 137.78 136.909 142.17Z" fill="#231F20"/>
<path d="M146.57 146.24C146.26 146.24 145.96 146.23 145.66 146.21C145.96 146.22 146.25 146.24 146.56 146.24C150.49 146.24 154.8 145.01 158.09 142.96C158.09 142.96 158.11 142.95 158.12 142.94C158.11 142.94 158.1 142.96 158.09 142.96C154.81 145.01 150.5 146.23 146.58 146.23L146.57 146.24Z" fill="#231F20"/>
<path d="M160.319 141.2C160.219 141.29 160.119 141.38 160.029 141.47C160.129 141.38 160.229 141.3 160.319 141.2Z" fill="#231F20"/>
<path d="M160.91 138.69C161.18 138.88 161.35 139.18 161.39 139.51C161.43 139.84 161.32 140.17 161.1 140.41C161.01 140.51 160.92 140.6 160.83 140.69C164.01 137.37 166.03 132.73 166.91 130.38C165.96 131.08 164.85 131.72 163.62 132.26C162.76 134.1 161.57 136.27 160.05 138.12C160.35 138.31 160.64 138.5 160.92 138.7L160.91 138.69Z" fill="#231F20"/>
<path d="M151.3 137.38C150.71 137.28 150.13 137.23 149.58 137.23C145.5 137.23 143.08 139.95 141.3 142.9C145.32 144.77 152.24 143.9 156.87 141.01C157.39 140.69 157.91 140.29 158.43 139.83C156.44 138.67 154 137.84 151.31 137.38H151.3Z" fill="white"/>
<path d="M161.39 139.5C161.35 139.17 161.18 138.87 160.91 138.68C160.63 138.48 160.34 138.29 160.04 138.1C157.71 136.65 154.9 135.63 151.68 135.09C150.96 134.97 150.26 134.91 149.58 134.91C144.41 134.91 141.4 138.29 139.37 141.62C139.14 142 138.91 142.38 138.71 142.76C138.41 143.29 138.58 143.96 139.09 144.29C140.56 145.23 142.38 145.84 144.41 146.09C144.44 146.09 144.46 146.09 144.49 146.09C144.81 146.13 145.13 146.16 145.46 146.18C145.53 146.18 145.59 146.18 145.66 146.18C145.96 146.19 146.26 146.21 146.57 146.21C150.49 146.21 154.8 144.98 158.08 142.94C158.09 142.94 158.1 142.92 158.11 142.92C158.44 142.72 158.76 142.49 159.08 142.24C159.17 142.17 159.25 142.1 159.34 142.03C159.57 141.84 159.8 141.64 160.03 141.43C160.13 141.34 160.23 141.26 160.32 141.16C160.49 141 160.65 140.82 160.82 140.65C160.91 140.55 161 140.47 161.09 140.37C161.31 140.13 161.42 139.8 161.38 139.47L161.39 139.5ZM156.86 141.01C152.24 143.89 145.32 144.77 141.29 142.9C143.07 139.95 145.49 137.23 149.57 137.23C150.12 137.23 150.7 137.28 151.29 137.38C153.98 137.83 156.42 138.67 158.41 139.83C157.9 140.29 157.38 140.69 156.85 141.01H156.86Z" fill="#231F20"/>
<path d="M189.69 105.03C198.61 105.03 205.86 97.2596 205.86 87.7096C205.86 78.1596 198.61 70.3896 189.69 70.3896C180.77 70.3896 173.51 78.1596 173.51 87.7096C173.51 97.2596 180.77 105.03 189.69 105.03ZM182.2 79.1897C182.2 77.4797 183.53 76.0996 185.2 75.9496C187.1 74.4896 189.43 73.6197 191.96 73.6197C198.36 73.6197 203.53 79.1796 203.53 86.0196C203.53 92.8596 198.36 98.3896 191.96 98.3896C185.56 98.3896 180.34 92.8596 180.34 86.0196C180.34 83.5396 181.03 81.2297 182.21 79.2896C182.21 79.2497 182.2 79.2196 182.2 79.1796V79.1897Z" fill="white"/>
<path d="M189.689 107.33C199.879 107.33 208.169 98.5298 208.169 87.7098C208.169 76.8898 199.879 68.0898 189.689 68.0898C179.499 68.0898 171.199 76.8898 171.199 87.7098C171.199 98.5298 179.489 107.33 189.689 107.33ZM189.689 70.3898C198.609 70.3898 205.859 78.1598 205.859 87.7098C205.859 97.2598 198.609 105.03 189.689 105.03C180.769 105.03 173.509 97.2598 173.509 87.7098C173.509 78.1598 180.769 70.3898 189.689 70.3898Z" fill="#231F20"/>
<path d="M191.96 98.3901C198.36 98.3901 203.53 92.8601 203.53 86.0201C203.53 79.1801 198.36 73.6201 191.96 73.6201C189.43 73.6201 187.1 74.4901 185.2 75.9501C185.3 75.9501 185.4 75.9201 185.5 75.9201C187.33 75.9201 188.8 77.3701 188.8 79.1901C188.8 81.0101 187.33 82.4301 185.5 82.4301C183.67 82.4301 182.27 81.0301 182.21 79.3001C181.03 81.2401 180.34 83.5501 180.34 86.0301C180.34 92.8601 185.53 98.4001 191.96 98.4001V98.3901ZM194.69 89.0501C195.72 89.0501 196.55 89.8701 196.55 90.8801C196.55 91.8901 195.72 92.7101 194.69 92.7101C193.66 92.7101 192.84 91.8901 192.84 90.8801C192.84 89.8701 193.67 89.0501 194.69 89.0501Z" fill="#231F20"/>
<path d="M185.499 82.4299C187.329 82.4299 188.799 80.9799 188.799 79.1899C188.799 77.3999 187.329 75.9199 185.499 75.9199C185.399 75.9199 185.299 75.9399 185.199 75.9499C183.529 76.0999 182.199 77.4799 182.199 79.1899C182.199 79.2299 182.199 79.2599 182.209 79.2999C182.269 81.0399 183.729 82.4299 185.499 82.4299Z" fill="white"/>
<path d="M194.69 92.7098C195.72 92.7098 196.55 91.8898 196.55 90.8798C196.55 89.8698 195.72 89.0498 194.69 89.0498C193.66 89.0498 192.84 89.8698 192.84 90.8798C192.84 91.8898 193.67 92.7098 194.69 92.7098Z" fill="white"/>
<path d="M113.369 105.89C121.849 105.89 128.749 98.5004 128.749 89.4104C128.749 80.3204 121.849 72.9404 113.369 72.9404C104.889 72.9404 97.9893 80.3304 97.9893 89.4104C97.9893 98.4904 104.889 105.89 113.369 105.89ZM106.129 82.0404C106.129 80.4104 107.379 79.1004 108.979 78.9504C110.789 77.5604 113.009 76.7404 115.409 76.7404C121.509 76.7404 126.479 82.0204 126.479 88.5404C126.479 95.0604 121.509 100.35 115.409 100.35C109.309 100.35 104.349 95.0904 104.349 88.5404C104.349 86.1704 105.009 83.9704 106.139 82.1304C106.139 82.1004 106.139 82.0804 106.139 82.0504L106.129 82.0404Z" fill="white"/>
<path d="M113.369 108.2C123.119 108.2 131.059 99.7704 131.059 89.4204C131.059 79.0704 123.129 70.6504 113.369 70.6504C103.609 70.6504 95.6895 79.0704 95.6895 89.4204C95.6895 99.7704 103.619 108.2 113.369 108.2ZM113.369 72.9504C121.849 72.9504 128.749 80.3404 128.749 89.4204C128.749 98.5004 121.849 105.9 113.369 105.9C104.889 105.9 97.9894 98.5104 97.9894 89.4204C97.9894 80.3304 104.889 72.9504 113.369 72.9504Z" fill="#231F20"/>
<path d="M115.41 100.35C121.51 100.35 126.48 95.0902 126.48 88.5402C126.48 81.9902 121.51 76.7402 115.41 76.7402C113.01 76.7402 110.8 77.5702 108.98 78.9502C109.08 78.9502 109.17 78.9202 109.27 78.9202C111.02 78.9202 112.43 80.3102 112.43 82.0402C112.43 83.7702 111.02 85.1502 109.27 85.1502C107.52 85.1502 106.18 83.7902 106.13 82.1202C105 83.9702 104.34 86.1702 104.34 88.5302C104.34 95.0802 109.3 100.34 115.4 100.34L115.41 100.35ZM118.02 91.4302C119 91.4302 119.79 92.2302 119.79 93.1802C119.79 94.1302 119 94.9202 118.02 94.9202C117.04 94.9202 116.26 94.1402 116.26 93.1802C116.26 92.2202 117.06 91.4302 118.02 91.4302Z" fill="#231F20"/>
<path d="M109.27 85.1499C111.02 85.1499 112.43 83.7399 112.43 82.0399C112.43 80.3399 111.02 78.9199 109.27 78.9199C109.17 78.9199 109.07 78.9399 108.98 78.9499C107.38 79.0999 106.13 80.4099 106.13 82.0399C106.13 82.0699 106.13 82.0899 106.13 82.1199C106.17 83.7899 107.55 85.1499 109.27 85.1499Z" fill="white"/>
<path d="M118.02 94.9304C119 94.9304 119.79 94.1504 119.79 93.1904C119.79 92.2304 119 91.4404 118.02 91.4404C117.04 91.4404 116.26 92.2404 116.26 93.1904C116.26 94.1404 117.06 94.9304 118.02 94.9304Z" fill="white"/>
<path d="M167.709 126.1C164.989 124.53 160.749 121.32 157.099 117.63C153.379 113.86 146.749 110.05 140.349 110.05C137.069 110.05 134.179 111.05 131.759 113.03C125.099 118.49 123.639 125.42 123.319 128.4C125.349 127.83 128.669 126.92 132.289 126.92C135.159 126.92 137.709 127.5 139.859 128.65C143.649 130.67 148.449 131.79 153.379 131.79C155.509 131.79 157.579 131.58 159.379 131.19C163.839 130.23 166.919 127.8 167.699 126.09L167.709 126.1ZM151.129 119.32C151.709 120.93 150.639 122.7 148.649 123.43C148.139 123.63 147.599 123.72 147.019 123.72C145.609 123.72 144.479 123.03 144.059 121.91C143.489 120.3 144.569 118.53 146.549 117.77C148.499 117.06 150.599 117.8 151.129 119.31V119.32Z" fill="white"/>
<path d="M140.359 107.75C137.849 107.75 135.539 108.27 133.439 109.27C132.419 109.76 131.439 110.37 130.529 111.09C130.459 111.15 130.379 111.19 130.309 111.25C120.709 119.11 120.929 129.52 120.939 129.96C120.949 130.29 121.109 130.61 121.369 130.82C121.629 131.03 121.959 131.12 122.289 131.06C122.619 131 123.149 130.86 123.829 130.67C125.739 130.14 128.929 129.24 132.309 129.24C133.089 129.24 133.829 129.31 134.549 129.4C135.449 129.52 136.289 129.71 137.089 129.98C137.619 130.16 138.119 130.37 138.599 130.61C138.659 130.64 138.729 130.66 138.789 130.7C139.409 131.03 140.039 131.33 140.669 131.6C145.359 133.64 150.089 134.11 153.399 134.11C155.689 134.11 157.929 133.88 159.889 133.46C161.199 133.18 162.459 132.76 163.619 132.26C164.849 131.73 165.959 131.09 166.909 130.38C167.279 130.11 167.619 129.83 167.929 129.54C168.899 128.65 169.609 127.68 169.959 126.71C170.049 126.47 170.109 126.24 170.149 126C170.169 125.87 170.199 125.74 170.209 125.62C170.229 125.33 170.129 125.05 169.959 124.83C169.859 124.7 169.739 124.59 169.589 124.51C169.519 124.47 169.419 124.41 169.339 124.37C169.179 124.29 169.019 124.19 168.839 124.09C168.379 123.82 167.869 123.51 167.309 123.14C164.829 121.49 161.579 118.89 158.759 116.03C154.699 111.91 147.439 107.76 140.369 107.76L140.359 107.75ZM159.389 131.2C157.589 131.59 155.519 131.8 153.389 131.8C148.459 131.8 143.659 130.69 139.869 128.66C137.719 127.51 135.169 126.93 132.299 126.93C128.679 126.93 125.359 127.84 123.329 128.41C123.649 125.42 125.109 118.49 131.769 113.04C134.189 111.06 137.079 110.06 140.359 110.06C146.759 110.06 153.389 113.87 157.109 117.64C160.749 121.33 164.999 124.54 167.719 126.11C166.939 127.82 163.859 130.24 159.399 131.21L159.389 131.2Z" fill="#231F20"/>
<path d="M147.359 119.95C146.519 120.27 146.129 120.86 146.229 121.14C146.339 121.42 147.229 121.52 147.839 121.28C148.629 120.99 149.069 120.42 148.949 120.09C148.919 120 148.629 119.81 148.119 119.81C147.869 119.81 147.599 119.86 147.349 119.95H147.359Z" fill="white"/>
<path d="M144.06 121.92C144.48 123.04 145.61 123.73 147.02 123.73C147.6 123.73 148.14 123.63 148.65 123.44C150.64 122.71 151.71 120.93 151.13 119.33C150.61 117.82 148.51 117.08 146.55 117.79C144.56 118.55 143.49 120.32 144.06 121.93V121.92ZM148.96 120.09C149.08 120.42 148.63 120.99 147.85 121.28C147.24 121.51 146.34 121.42 146.24 121.14C146.14 120.86 146.53 120.27 147.37 119.95C147.62 119.86 147.89 119.81 148.14 119.81C148.65 119.81 148.94 120 148.97 120.09H148.96Z" fill="#231F20"/>
<path d="M230.74 332.13C229.39 331.96 228.16 331.88 227.09 331.88C221.78 331.88 220.62 333.91 220.22 335.45C220.11 335.86 219.79 336.17 219.38 336.27C218.97 336.37 218.54 336.24 218.25 335.92C215.87 333.28 209.74 331.71 205.19 331.71C203.9 331.71 202.79 331.84 202.06 332.08C195.96 334.11 194.91 335.8 194.74 336.44C194.67 336.71 194.64 337.16 195.27 337.86C195.65 338.29 195.66 338.93 195.29 339.36C194.93 339.8 194.3 339.9 193.81 339.61C193.2 339.24 191.62 338.85 189.57 338.85C186.96 338.85 183.81 339.55 182.8 341.46C184.34 342.66 186.24 343.82 188.24 345.03C190.17 346.21 192.17 347.42 193.98 348.78C195.3 349.77 196.44 350.62 197.46 351.37C201.76 354.56 203.73 356.02 205.74 358.45C208.1 361.3 213.94 363.13 220.6 363.14C224.6 363.14 228.47 362.45 231.22 361.26C233.13 360.43 235.39 358.97 235.51 356.7C235.05 355.28 232.71 347.24 236.01 339.59C236.39 338.71 236.65 337.81 236.81 336.9C235.27 334.86 233.24 332.44 230.76 332.14L230.74 332.13Z" fill="white"/>
<path d="M236.71 327.26C237.4 328.18 237.95 329.15 238.38 330.15C238.13 329.5 237.85 328.86 237.5 328.25C235.7 325.1 232.69 322.87 229.31 322.07C232.05 322.76 234.75 324.64 236.71 327.26Z" fill="#231F20"/>
<path d="M176.92 334.75C176.59 337.17 177.43 339.17 178.92 340.93C177.62 339.06 176.72 336.81 176.92 334.75Z" fill="#231F20"/>
<path d="M180.359 330.09C178.589 330.86 177.419 332.24 177.009 334.11C176.999 334.16 176.999 334.21 176.989 334.26C176.989 334.21 176.999 334.16 177.009 334.11C177.409 332.23 178.579 330.86 180.359 330.09Z" fill="#231F20"/>
<path d="M238.12 340.49C238.2 340.31 238.25 340.12 238.32 339.94C238.61 339.17 238.85 338.4 239 337.62C238.85 337.77 238.67 337.88 238.45 337.94C238 338.05 237.53 337.88 237.25 337.51C237.1 337.31 236.95 337.11 236.79 336.9C236.63 337.81 236.37 338.71 235.99 339.59C232.69 347.24 235.03 355.28 235.49 356.7C235.38 358.97 233.11 360.43 231.2 361.26C228.46 362.46 224.59 363.14 220.58 363.14C213.91 363.14 208.08 361.3 205.72 358.45C203.71 356.02 201.74 354.56 197.44 351.37C196.42 350.62 195.28 349.76 193.96 348.78C192.15 347.42 190.15 346.21 188.22 345.03C186.22 343.81 184.32 342.66 182.78 341.46C182.67 341.67 182.58 341.88 182.52 342.12C182.5 342.27 182.47 342.43 182.43 342.52C182.29 342.88 181.98 343.14 181.6 343.22C181.52 343.24 181.44 343.24 181.36 343.24C181.36 343.24 181.36 343.24 181.35 343.24C181.6 343.44 181.86 343.64 182.13 343.83C183.65 344.94 185.34 345.97 187.02 347C188.91 348.15 190.86 349.34 192.58 350.62C193.9 351.61 195.05 352.47 196.07 353.22C200.22 356.3 202.11 357.7 203.95 359.92C207.33 363.99 214.76 365.44 220.58 365.44C224.95 365.44 229.05 364.7 232.12 363.37C236.81 361.33 237.79 358.52 237.79 356.52C237.79 356.39 237.77 356.26 237.72 356.14C237.69 356.07 235.5 349.68 237.22 343.06C237.44 342.21 237.72 341.35 238.09 340.5L238.12 340.49Z" fill="#231F20"/>
<path d="M234.87 328.64C233.02 326.17 230.32 324.44 227.83 324.13C227.01 324.03 226.22 323.98 225.48 323.98C222.52 323.98 218.76 324.78 217.7 328.61C217.59 329.01 217.26 329.33 216.85 329.42C216.44 329.51 216.01 329.38 215.73 329.07C213.17 326.22 207.69 324.16 202.7 324.16C201.26 324.16 199.93 324.33 198.74 324.66C191.18 326.8 190.43 329.24 190.29 331.76C190.27 332.17 190.03 332.53 189.67 332.72C189.31 332.91 188.87 332.89 188.53 332.68C187.76 332.2 186.07 331.69 184.18 331.69C182.58 331.69 179.82 332.07 179.28 334.6C178.94 336.18 179.8 338.24 181.04 339.91C183.18 336.71 188.73 336.12 192.42 336.78C192.42 336.43 192.46 336.11 192.53 335.84C193.12 333.62 196.01 331.67 201.35 329.89C202.32 329.57 203.65 329.4 205.21 329.4C209.66 329.4 215.34 330.7 218.68 333.2C220.44 330.12 224.4 329.01 231.05 329.84C233.53 330.14 235.48 331.74 237.05 333.51C236.76 331.83 236.03 330.17 234.89 328.64H234.87Z" fill="white"/>
<path d="M239.32 337C239.7 334.72 239.36 332.37 238.39 330.15C237.96 329.15 237.41 328.18 236.72 327.26C234.76 324.64 232.06 322.77 229.32 322.07C228.92 321.97 228.52 321.89 228.12 321.84C222.26 321.12 218 322.74 216.15 326.29C212.9 323.62 207.65 321.85 202.71 321.85C201.06 321.85 199.52 322.05 198.12 322.44C191.17 324.4 188.85 326.91 188.19 330.02C187 329.62 185.56 329.39 184.18 329.39C183.69 329.39 183.23 329.42 182.78 329.47C181.89 329.58 181.08 329.79 180.37 330.09C178.6 330.86 177.43 332.24 177.02 334.11C177.01 334.16 177.01 334.21 177 334.26C176.97 334.42 176.94 334.59 176.93 334.75C176.73 336.81 177.64 339.06 178.93 340.93C179.04 341.08 179.15 341.24 179.26 341.38C179.68 341.93 180.13 342.45 180.59 342.9C180.8 343.11 181.09 343.22 181.38 343.23C181.38 343.23 181.38 343.23 181.39 343.23C181.47 343.23 181.55 343.23 181.63 343.21C182.01 343.13 182.32 342.87 182.46 342.51C182.5 342.42 182.53 342.25 182.55 342.11C182.61 341.88 182.7 341.66 182.81 341.45C183.82 339.54 186.97 338.84 189.58 338.84C191.63 338.84 193.21 339.24 193.82 339.6C194.31 339.9 194.94 339.79 195.3 339.35C195.67 338.91 195.66 338.27 195.28 337.85C194.65 337.15 194.68 336.7 194.75 336.43C194.92 335.8 195.97 334.11 202.07 332.07C202.79 331.83 203.91 331.7 205.2 331.7C209.75 331.7 215.87 333.28 218.26 335.91C218.54 336.22 218.97 336.36 219.39 336.26C219.8 336.16 220.12 335.85 220.23 335.44C220.64 333.91 221.79 331.87 227.1 331.87C228.18 331.87 229.4 331.96 230.75 332.12C233.23 332.42 235.26 334.84 236.8 336.88C236.96 337.09 237.11 337.29 237.26 337.49C237.54 337.86 238.01 338.03 238.46 337.92C238.67 337.87 238.86 337.75 239.01 337.6C239.17 337.43 239.29 337.22 239.33 336.98L239.32 337ZM231.02 329.84C224.38 329.01 220.41 330.12 218.65 333.2C215.32 330.7 209.64 329.4 205.18 329.4C203.62 329.4 202.29 329.57 201.32 329.89C195.98 331.67 193.09 333.62 192.5 335.84C192.43 336.11 192.38 336.42 192.39 336.78C188.71 336.12 183.15 336.71 181.01 339.91C179.77 338.24 178.91 336.18 179.25 334.6C179.79 332.07 182.55 331.69 184.15 331.69C186.04 331.69 187.73 332.2 188.5 332.68C188.84 332.89 189.28 332.91 189.64 332.72C190 332.53 190.23 332.17 190.26 331.76C190.4 329.24 191.15 326.8 198.71 324.66C199.9 324.32 201.24 324.16 202.67 324.16C207.66 324.16 213.14 326.23 215.7 329.07C215.98 329.38 216.41 329.52 216.82 329.42C217.23 329.32 217.55 329.01 217.67 328.61C218.73 324.79 222.49 323.98 225.45 323.98C226.19 323.98 226.98 324.03 227.8 324.13C230.29 324.44 232.99 326.17 234.84 328.64C235.98 330.16 236.71 331.83 237 333.51C235.43 331.74 233.48 330.14 231 329.84H231.02Z" fill="#231F20"/>
</svg>
