<svg width="307" height="400" viewBox="0 0 307 400" fill="none" xmlns="http://www.w3.org/2000/svg">
<path d="M225.76 217.99C227.55 218.01 229.7 218.31 232.42 218.7C238.14 219.51 246.25 220.67 258.62 220.36C274.31 219.99 286.25 212.79 292.08 208.43C284.16 207.63 275.29 198.55 269.82 185.81C267.98 186.44 265.92 186.81 263.98 186.81C259.77 186.81 256.87 185.17 256.02 182.3C255.64 180.96 255.95 179.38 256.94 177.72C258.29 175.43 261.2 172.69 265.52 171.09C265.5 170.96 265.48 170.83 265.46 170.7C264.03 171.02 262.43 171.21 260.91 171.21C256.88 171.21 254.39 169.93 253.9 167.61C253.51 165.63 255.44 163.02 256.28 162C257.49 160.53 259.16 159.02 261.08 157.88C259.53 157.41 258.3 156.63 257.96 155.44C255.68 157.15 253.32 159.03 250.88 160.97C244.74 165.86 237.88 171.32 229.89 175.97C229.85 175.99 229.81 176.02 229.77 176.04C229.55 176.17 229.32 176.29 229.1 176.42C226.08 178.15 223.07 179.67 220.06 180.96C217 184.45 213.35 187.16 209.43 189.14C211.95 194.79 215.47 200.68 219.76 207.85C221.64 210.98 223.64 214.33 225.76 217.99Z" fill="white"/>
<path d="M232.17 173.3C232.49 173.82 232.33 174.51 231.81 174.83C231.17 175.23 230.53 175.61 229.89 175.99C237.88 171.35 244.74 165.89 250.88 160.99C253.32 159.04 255.68 157.17 257.96 155.46C257.92 155.33 257.89 155.2 257.88 155.05C257.78 154.07 258.25 152.96 259.28 151.75C256.14 153.96 252.9 156.53 249.5 159.24C243.93 163.68 237.76 168.6 230.69 172.91C231.21 172.61 231.87 172.78 232.18 173.29L232.17 173.3Z" fill="#231F20"/>
<path d="M293.2 208.5C292.83 208.5 292.45 208.47 292.07 208.44C286.24 212.8 274.3 220 258.61 220.37C246.24 220.67 238.13 219.52 232.41 218.71C229.7 218.32 227.54 218.02 225.75 218C226.19 218.76 226.63 219.53 227.08 220.32C228.48 220.42 230.12 220.64 232.09 220.92C237.24 221.65 244.3 222.65 254.67 222.65C255.95 222.65 257.28 222.63 258.66 222.6C278.18 222.14 291.79 211.84 296.12 208.08C295.18 208.36 294.2 208.51 293.19 208.51L293.2 208.5Z" fill="#231F20"/>
<path d="M220.06 180.97C223.07 179.68 226.08 178.17 229.1 176.43C229.32 176.3 229.55 176.18 229.77 176.05C229.81 176.03 229.85 176 229.89 175.98C230.53 175.6 231.17 175.22 231.81 174.82C232.33 174.5 232.5 173.81 232.17 173.29C231.85 172.78 231.19 172.61 230.68 172.91C230.67 172.91 230.66 172.91 230.64 172.92C228.07 174.49 225.51 175.9 222.95 177.14C222.06 178.5 221.1 179.78 220.06 180.96V180.97Z" fill="#231F20"/>
<path d="M268.91 147.95C265.83 149.17 262.8 151.15 261.14 152.99C260.06 154.19 260.08 154.76 260.09 154.82C260.14 155.32 262.19 156.23 265.39 156.23C265.42 156.23 265.45 156.23 265.48 156.22C266.15 152.83 267.31 150.04 268.91 147.96V147.95Z" fill="white"/>
<path d="M257.87 155.05C257.88 155.19 257.92 155.32 257.95 155.46C258.29 156.65 259.52 157.43 261.07 157.9C262.4 157.11 263.86 156.52 265.38 156.24C262.19 156.24 260.14 155.32 260.08 154.83C260.08 154.77 260.05 154.2 261.13 153C262.79 151.16 265.81 149.19 268.9 147.96C270.04 146.47 271.4 145.34 272.95 144.6C268.12 145.1 262.27 148.4 259.48 151.5C259.4 151.59 259.34 151.67 259.26 151.75C258.23 152.96 257.76 154.07 257.86 155.05H257.87Z" fill="#231F20"/>
<path d="M257.99 163.43C256.51 165.23 255.98 166.71 256.07 167.18C256.35 168.52 258.74 169 260.89 169C262.41 169 263.91 168.79 265.15 168.5C264.76 165.01 264.73 161.65 265.11 158.56C262.25 159.3 259.65 161.42 257.99 163.43Z" fill="white"/>
<path d="M256.27 162.01C255.42 163.04 253.5 165.64 253.89 167.62C254.37 169.94 256.86 171.22 260.9 171.22C262.42 171.22 264.02 171.03 265.45 170.71C265.34 169.96 265.24 169.23 265.16 168.49C263.92 168.79 262.42 168.99 260.9 168.99C258.75 168.99 256.35 168.51 256.08 167.17C255.99 166.69 256.52 165.21 258 163.42C259.66 161.41 262.26 159.29 265.12 158.55C265.14 158.42 265.14 158.28 265.16 158.14C265.25 157.47 265.36 156.83 265.48 156.2C265.45 156.2 265.42 156.2 265.39 156.21C263.87 156.49 262.41 157.09 261.08 157.87C259.15 159.01 257.49 160.52 256.28 161.99L256.27 162.01Z" fill="#231F20"/>
<path d="M258.85 178.86C258.21 179.95 257.95 180.98 258.16 181.68C258.94 184.3 262.49 184.58 263.98 184.58C265.64 184.58 267.4 184.27 268.97 183.75C268.76 183.21 268.55 182.66 268.35 182.1C267.3 179.16 266.49 176.21 265.9 173.31C262.31 174.73 259.9 177.05 258.84 178.85L258.85 178.86Z" fill="white"/>
<path d="M256.93 177.73C255.95 179.39 255.63 180.97 256.01 182.31C256.86 185.18 259.76 186.82 263.97 186.82C265.91 186.82 267.97 186.45 269.81 185.82C269.52 185.14 269.24 184.46 268.97 183.76C267.4 184.29 265.64 184.59 263.98 184.59C262.49 184.59 258.93 184.3 258.16 181.69C257.96 180.98 258.21 179.95 258.85 178.87C259.91 177.07 262.32 174.75 265.91 173.33C265.76 172.59 265.63 171.85 265.51 171.11C261.19 172.7 258.28 175.45 256.93 177.74V177.73Z" fill="#231F20"/>
<path d="M300.07 170.76C294.99 156.56 285.21 145.85 277.31 145.85C276.37 145.85 275.46 146 274.61 146.31C270.79 147.68 268.21 151.98 267.35 158.44C266.46 165.16 267.56 173.3 270.44 181.36C275.52 195.56 285.3 206.28 293.19 206.28C294.13 206.28 295.04 206.13 295.89 205.82C304.05 202.9 305.92 187.17 300.06 170.77L300.07 170.76Z" fill="white"/>
<path d="M268.91 147.95C267.31 150.04 266.14 152.83 265.48 156.21C265.36 156.84 265.24 157.48 265.16 158.15C265.14 158.28 265.14 158.42 265.12 158.56C264.75 161.65 264.77 165 265.16 168.5C265.24 169.23 265.34 169.97 265.45 170.72C265.47 170.85 265.49 170.98 265.51 171.11C265.63 171.85 265.75 172.58 265.91 173.33C266.5 176.23 267.3 179.18 268.36 182.12C268.56 182.68 268.77 183.22 268.98 183.77C269.25 184.47 269.53 185.15 269.82 185.83C275.29 198.57 284.16 207.65 292.08 208.45C292.46 208.49 292.83 208.51 293.21 208.51C294.22 208.51 295.2 208.36 296.14 208.08C296.32 208.03 296.49 207.98 296.67 207.92C306.15 204.52 308.57 187.88 302.18 170.02C296.71 154.73 286.26 143.63 277.33 143.63C276.13 143.63 274.97 143.83 273.88 144.22C273.57 144.33 273.27 144.46 272.97 144.6C271.41 145.33 270.06 146.47 268.92 147.96L268.91 147.95ZM295.91 205.82C295.06 206.12 294.15 206.28 293.21 206.28C285.32 206.28 275.54 195.57 270.46 181.36C267.57 173.3 266.48 165.16 267.37 158.44C268.23 151.99 270.8 147.68 274.63 146.31C275.48 146 276.39 145.85 277.33 145.85C285.22 145.85 295.01 156.56 300.09 170.76C305.96 187.16 304.09 202.89 295.92 205.81L295.91 205.82Z" fill="#231F20"/>
<path d="M81.7399 292.99C75.3199 281.36 69.4499 273.62 61.7299 273.62C60.3299 273.62 58.8899 273.87 57.3799 274.37C57.3899 274.39 57.3899 274.41 57.4099 274.44C57.5999 274.75 57.9899 274.97 58.5599 275.1C58.8799 275.17 59.1499 275.38 59.2999 275.67C59.3299 275.72 59.3499 275.79 59.3799 275.85C59.4999 275.85 59.6199 275.84 59.7399 275.84C63.3799 275.84 68.3599 277.26 71.3599 284.02C77.8699 298.67 86.5099 313.65 101.21 313.65C101.3 313.65 101.39 313.65 101.47 313.65C101.19 310.67 100.98 307.4 100.81 303.76C100.81 303.62 100.81 303.49 100.8 303.35C100.16 303.4 99.4999 303.44 98.8199 303.44C93.6699 303.44 86.5199 301.63 81.7599 293L81.7399 292.99Z" fill="white"/>
<path d="M57.2597 273.52C57.2597 273.52 57.1697 273.98 57.3697 274.37C58.8797 273.87 60.3297 273.62 61.7197 273.62C69.4497 273.62 75.3097 281.36 81.7297 292.99C86.4997 301.62 93.6397 303.43 98.7897 303.43C99.4697 303.43 100.13 303.39 100.77 303.34C100.74 302.59 100.71 301.85 100.69 301.12C100.07 301.17 99.4397 301.21 98.7897 301.21C92.1697 301.21 87.0797 298.09 83.6797 291.92C75.6097 277.32 68.0497 268.53 56.6797 272.27C57.1297 272.51 57.3797 273.02 57.2397 273.53L57.2597 273.52Z" fill="#231F20"/>
<path d="M101.46 313.63C101.37 313.63 101.28 313.63 101.2 313.63C86.5001 313.63 77.8601 298.65 71.3501 284C68.3501 277.24 63.3701 275.82 59.7301 275.82C59.6101 275.82 59.4901 275.82 59.3701 275.83C59.6501 276.43 59.8701 277.18 60.0001 278.07C64.2001 278.17 67.3401 280.46 69.3101 284.91C76.1101 300.22 85.2201 315.87 101.19 315.87C101.35 315.87 101.52 315.86 101.68 315.85C101.6 315.13 101.52 314.39 101.45 313.63H101.46Z" fill="#231F20"/>
<path d="M57.5002 277.11C56.5902 276.8 55.9102 276.29 55.4802 275.57C55.1602 275.04 55.0402 274.49 55.0102 274.03C53.5202 273.61 52.0002 273.39 50.4802 273.39C44.3502 273.39 38.5102 276.81 34.8602 282.53C31.0802 288.46 30.3702 295.62 32.8002 302.52C35.7302 296.92 40.2602 295.7 44.6502 294.52C47.6202 293.72 50.6902 292.9 53.3702 290.67C58.0002 286.83 58.4702 279.78 57.5002 277.11Z" fill="white"/>
<path d="M59.3701 275.84C59.3401 275.78 59.3201 275.72 59.2901 275.66C59.1401 275.37 58.8701 275.16 58.5501 275.09C57.9801 274.96 57.5901 274.74 57.4001 274.43C57.3901 274.41 57.3801 274.39 57.3701 274.36C57.1701 273.97 57.2601 273.51 57.2601 273.51C57.4001 273 57.1501 272.49 56.7001 272.25C56.6501 272.22 56.6001 272.18 56.5401 272.16C54.5601 271.49 52.5201 271.16 50.4801 271.16C43.5801 271.16 37.0401 274.96 32.9801 281.33C28.3401 288.6 27.8901 297.53 31.7501 305.84C31.9301 306.23 32.3301 306.49 32.7601 306.49C32.7801 306.49 32.7901 306.49 32.8101 306.49C33.2601 306.47 33.6601 306.18 33.8101 305.76C36.2201 299.1 40.4001 297.97 45.2301 296.67C48.4301 295.81 51.7401 294.92 54.8001 292.39C59.4301 288.55 60.6101 282.1 60.0101 278.07C59.8801 277.19 59.6601 276.43 59.3801 275.83L59.3701 275.84ZM53.3701 290.67C50.6901 292.89 47.6201 293.72 44.6501 294.52C40.2601 295.7 35.7301 296.92 32.8001 302.52C30.3701 295.62 31.0801 288.46 34.8601 282.53C38.5101 276.81 44.3501 273.39 50.4801 273.39C52.0001 273.39 53.5201 273.6 55.0101 274.03C55.0401 274.49 55.1601 275.03 55.4801 275.57C55.9101 276.29 56.5901 276.8 57.5001 277.11C58.4801 279.79 58.0001 286.84 53.3701 290.67Z" fill="#231F20"/>
<path d="M104.819 326.61C105.269 326.31 105.839 326.38 106.209 326.74C104.379 321.51 103.519 314.24 103.019 303.64C102.859 300.22 102.859 297.01 102.979 293.96C102.249 293.72 101.519 293.46 100.789 293.19C100.669 295.72 100.629 298.35 100.699 301.11C100.719 301.84 100.749 302.59 100.779 303.33C100.779 303.47 100.779 303.6 100.789 303.74C100.959 307.37 101.169 310.65 101.449 313.63C101.519 314.39 101.599 315.13 101.679 315.85C102.499 322.96 103.839 328.18 106.279 332.17C105.969 330.74 105.389 329.42 104.519 328.16C104.169 327.65 104.299 326.96 104.809 326.61H104.819Z" fill="#231F20"/>
<path d="M198.77 388.91C198.75 388.56 198.74 388.2 198.73 387.86C196.68 387.65 194.75 387.34 192.97 386.93C185.94 385.29 181.37 382.12 179.38 377.5C176.03 369.7 180.88 360.41 182.45 357.74C186.87 350.21 186.86 339.82 186.7 336.17C186.34 336.18 185.98 336.21 185.61 336.21H185.59C184.98 336.21 184.49 335.73 184.48 335.12C184.47 334.51 184.96 334 185.57 333.98C185.72 333.98 185.87 333.97 186.02 333.96C185.87 333.88 185.7 333.82 185.52 333.82C185.49 333.82 185.46 333.82 185.43 333.82C185.38 333.82 180.18 334.26 175.38 334.26C174.04 334.26 172.73 334.23 171.5 334.14C170.71 334.14 169.95 334.11 169.22 334.09C169.22 334.83 169.22 335.57 169.24 336.32C169.94 336.35 170.66 336.37 171.42 336.37C175.72 336.69 181.94 336.32 184.49 336.14C184.63 339.46 184.67 349.59 180.56 356.61C178.86 359.5 173.61 369.62 177.37 378.38C179.65 383.69 184.74 387.29 192.5 389.1C194.82 389.64 197.37 390 200.09 390.2C199.98 390.17 199.85 390.15 199.74 390.11C199.17 389.88 198.84 389.44 198.8 388.92L198.77 388.91Z" fill="#231F20"/>
<path d="M225.759 217.99C223.639 214.34 221.639 210.98 219.759 207.85C215.469 200.68 211.949 194.79 209.429 189.14C208.769 189.47 208.109 189.79 207.439 190.08C210.039 195.93 213.619 201.92 217.859 208.99C221.459 215 225.549 221.82 229.959 230.07C245.259 258.64 248.829 291.92 239.469 319.18C235.549 335.03 239.169 346.13 242.999 357.88C243.209 358.53 243.419 359.21 243.639 359.87C244.369 359.68 245.109 359.66 245.829 359.83C245.879 359.84 245.929 359.87 245.989 359.89C245.699 358.99 245.409 358.08 245.119 357.19C241.389 345.75 237.859 334.95 241.599 319.81C251.129 292.06 247.509 258.12 231.919 229.02C230.259 225.92 228.649 223.03 227.099 220.3C226.649 219.51 226.209 218.74 225.769 217.98L225.759 217.99Z" fill="#231F20"/>
<path d="M129.12 396.8C129.09 396.37 129.08 395.94 129.08 395.51C121.4 393.68 114.31 390.54 109.84 388C102.89 384.05 98.2297 378.52 96.7097 372.43C95.3597 367.01 96.4997 361.23 100.01 355.72C107.81 343.43 111.39 334.8 106.64 327.35C106.54 327.2 106.47 327.05 106.36 326.9C106.32 326.84 106.25 326.8 106.2 326.75C105.83 326.39 105.26 326.31 104.81 326.62C104.3 326.97 104.17 327.66 104.52 328.17C105.39 329.43 105.96 330.75 106.28 332.18C107.4 337.29 104.91 343.83 98.1197 354.53C94.2797 360.57 93.0397 366.95 94.5397 372.98C96.1997 379.67 101.24 385.7 108.73 389.95C113.74 392.79 121.93 396.35 130.69 398.13C130.37 398.01 130.06 397.88 129.75 397.74C129.38 397.57 129.14 397.22 129.11 396.81L129.12 396.8Z" fill="#231F20"/>
<path d="M169.21 334.09C169.25 328.6 169.92 323.3 172.07 318.19C172.31 317.62 172.04 316.97 171.48 316.73C170.92 316.49 170.26 316.75 170.02 317.32C169.93 317.53 169.86 317.73 169.78 317.94C166.15 327.02 166.83 336.44 167.56 346.39C168.08 353.45 168.6 360.65 167.64 368.12C168.21 368.01 168.79 368.04 169.36 368.23C169.55 368.3 169.7 368.42 169.83 368.58C170.84 360.87 170.3 353.48 169.77 346.23C169.52 342.86 169.28 339.56 169.22 336.32C169.2 335.57 169.2 334.83 169.2 334.09H169.21Z" fill="#231F20"/>
<path d="M168.24 370.27C168.07 370.27 167.91 370.32 167.73 370.41C163.79 372.42 164.28 381.73 164.8 385.15C164.89 385.74 164.5 386.3 163.91 386.41C163.32 386.52 162.75 386.16 162.61 385.58C161.84 382.42 158.89 374.23 154.48 374.23C153.93 374.23 153.36 374.35 152.78 374.59C145.8 377.47 146.18 389.14 146.18 389.26C146.2 389.81 145.82 390.3 145.27 390.4C144.73 390.5 144.19 390.19 144.01 389.67C143.45 388.05 141.28 383.44 138.82 383.44C138.38 383.44 137.95 383.58 137.48 383.86C133.65 386.2 131.17 391.1 131.29 395.96C133.41 396.81 136.12 397.24 139.35 397.24C148.1 397.24 158.62 394.08 164.49 390.95C171.95 386.97 173.14 380.39 168.22 370.26L168.24 370.27Z" fill="white"/>
<path d="M169.36 368.24C168.79 368.04 168.2 368.02 167.64 368.13C167.33 368.19 167.02 368.28 166.72 368.43C163.47 370.08 162.46 374.44 162.25 378.35C160.58 375.15 158.03 372 154.49 372C153.65 372 152.79 372.18 151.94 372.53C146.56 374.75 144.79 380.81 144.22 385.01C142.98 383.09 141.18 381.21 138.84 381.21C138 381.21 137.16 381.46 136.34 381.96C131.92 384.66 129.11 389.99 129.08 395.51C129.08 395.94 129.08 396.37 129.12 396.8C129.15 397.2 129.4 397.56 129.76 397.73C130.06 397.87 130.37 398 130.7 398.12C133.05 399.02 135.96 399.47 139.37 399.48C148.48 399.48 159.44 396.19 165.56 392.93C174.32 388.26 175.77 380.36 169.99 368.79C169.95 368.71 169.89 368.65 169.83 368.58C169.7 368.43 169.55 368.3 169.36 368.23V368.24ZM139.37 397.24C136.14 397.24 133.44 396.81 131.31 395.96C131.18 391.1 133.66 386.19 137.5 383.86C137.97 383.58 138.41 383.44 138.84 383.44C141.3 383.44 143.46 388.05 144.03 389.67C144.21 390.19 144.75 390.5 145.29 390.4C145.83 390.3 146.22 389.81 146.2 389.26C146.2 389.14 145.81 377.48 152.8 374.59C153.38 374.35 153.96 374.23 154.5 374.23C158.91 374.23 161.87 382.42 162.63 385.58C162.77 386.16 163.34 386.52 163.93 386.41C164.52 386.29 164.91 385.74 164.82 385.15C164.3 381.73 163.8 372.43 167.75 370.41C167.92 370.32 168.09 370.28 168.26 370.27C173.18 380.4 171.99 386.98 164.53 390.96C158.66 394.08 148.14 397.25 139.39 397.25L139.37 397.24Z" fill="#231F20"/>
<path d="M229.5 309.88C229.76 309.32 229.52 308.66 228.96 308.4C228.4 308.14 227.74 308.38 227.48 308.94C227.25 309.44 226.98 309.96 226.69 310.49C221.85 319.39 209.09 332.68 187.58 333.91C187.06 333.94 186.54 333.96 186.01 333.97C185.86 333.97 185.71 333.99 185.56 333.99C184.94 334 184.46 334.51 184.47 335.13C184.48 335.74 184.98 336.22 185.58 336.22H185.6C185.97 336.22 186.33 336.19 186.69 336.18C211.15 335.21 225.09 319.29 229.49 309.89L229.5 309.88Z" fill="#231F20"/>
<path d="M244.99 361.96C244.59 361.93 244.19 362.01 243.79 362.18C239.31 364.22 239.31 371.23 239.51 374.14C239.55 374.69 239.19 375.18 238.65 375.3C238.12 375.42 237.57 375.14 237.37 374.64C236.13 371.62 233.38 366.55 228.78 366.55C227.91 366.55 227.02 366.72 226.14 367.05C219.28 369.64 217.97 377.24 217.72 380.39C217.68 380.89 217.32 381.3 216.83 381.4C216.34 381.49 215.85 381.26 215.62 380.82C215.05 379.72 212.96 376.14 209.94 376.14C209.26 376.14 208.55 376.33 207.82 376.71C203.37 379.07 200.84 383.31 200.96 388.15C202.93 388.68 205.41 388.96 208.28 388.96C218.79 388.96 232.15 385.26 239.9 381.6C244.32 379.54 247.01 376.93 247.9 373.86C248.85 370.58 247.9 366.68 244.98 361.96H244.99Z" fill="white"/>
<path d="M243.64 359.88C243.39 359.95 243.13 360.03 242.88 360.15C239.03 361.91 237.69 366 237.33 369.75C235.48 366.95 232.71 364.32 228.79 364.32C227.65 364.32 226.5 364.54 225.37 364.96C219.1 367.33 216.79 373.09 215.94 377.22C214.59 375.56 212.59 373.91 209.96 373.91C208.92 373.91 207.86 374.19 206.8 374.74C201.69 377.45 198.73 382.29 198.75 387.86C198.75 388.21 198.76 388.56 198.79 388.91C198.84 389.43 199.16 389.87 199.73 390.1C199.84 390.13 199.96 390.16 200.08 390.19C202.36 390.85 205.12 391.19 208.3 391.19C219.14 391.19 232.89 387.38 240.87 383.62C245.89 381.27 248.99 378.2 250.07 374.48C251.24 370.48 250.13 365.89 246.75 360.55C246.62 360.3 246.3 360.02 246 359.89C245.95 359.87 245.89 359.84 245.84 359.83C245.12 359.66 244.38 359.68 243.65 359.87L243.64 359.88ZM247.91 373.86C247.02 376.93 244.32 379.54 239.91 381.6C232.15 385.26 218.8 388.96 208.29 388.96C205.42 388.96 202.94 388.68 200.97 388.15C200.85 383.31 203.38 379.07 207.83 376.71C208.56 376.33 209.27 376.14 209.95 376.14C212.97 376.14 215.06 379.72 215.63 380.82C215.86 381.26 216.35 381.49 216.84 381.4C217.33 381.3 217.69 380.89 217.73 380.39C217.98 377.24 219.29 369.64 226.15 367.05C227.03 366.72 227.92 366.55 228.79 366.55C233.38 366.55 236.14 371.62 237.38 374.64C237.59 375.15 238.13 375.43 238.66 375.3C239.19 375.18 239.56 374.68 239.52 374.14C239.31 371.22 239.31 364.22 243.8 362.18C244.2 362 244.6 361.93 245 361.96C247.92 366.69 248.88 370.58 247.92 373.86H247.91Z" fill="#231F20"/>
<path d="M251.46 41.1205C258.45 46.9705 264.39 53.4605 269.24 60.3305C270.94 59.4705 273.03 59.1405 275.35 59.4305C275.92 59.5005 276.46 59.6005 276.98 59.7205C270.23 46.4705 260.36 33.6205 247.99 22.7305C228.72 5.79047 209.85 2.23047 197.41 2.23047C181.93 2.23047 167.54 7.83047 158.91 17.2205C158.69 17.4605 158.49 17.6905 158.28 17.9305C170.15 19.3605 180.2 24.5205 188.94 30.6305C195.37 26.4205 203 24.1605 211.14 24.1605C224.26 24.1605 238.2 30.0205 251.46 41.1205Z" fill="white"/>
<path d="M158.28 17.93C158.49 17.69 158.69 17.45 158.91 17.22C167.54 7.83 181.94 2.23 197.41 2.23C209.85 2.23 228.72 5.79 247.99 22.73C260.36 33.62 270.23 46.47 276.98 59.72C278.02 59.96 278.98 60.27 279.9 60.62C273.01 46.43 262.62 32.65 249.46 21.06C229.67 3.65 210.23 0 197.41 0C181.32 0 166.32 5.87 157.27 15.71C156.68 16.35 156.13 17.01 155.6 17.67C156.51 17.73 157.4 17.82 158.29 17.93H158.28Z" fill="#231F20"/>
<path d="M266.4 62.7796C266.7 62.3496 267.05 61.9697 267.42 61.6096C262.68 54.8997 256.87 48.5497 250.03 42.8297C237.17 32.0797 223.73 26.3896 211.14 26.3896C203.75 26.3896 196.81 28.3496 190.89 32.0196C195.63 35.4696 199.98 39.1496 204.02 42.5696C211.51 48.9096 217.99 54.3797 224.21 56.3797C239.25 61.2197 258.46 73.9796 263.11 93.9996C263.33 94.9496 263.51 95.9097 263.66 96.8697C266.8 92.7297 268.69 87.6296 269.12 81.8796C263.42 71.1196 264.48 65.5496 266.39 62.7796H266.4Z" fill="white"/>
<path d="M250.029 42.8302C256.869 48.5502 262.679 54.9102 267.419 61.6102C267.959 61.1002 268.559 60.6702 269.239 60.3302C264.399 53.4602 258.449 46.9702 251.459 41.1202C238.199 30.0302 224.259 24.1602 211.139 24.1602C202.999 24.1602 195.369 26.4202 188.939 30.6302C189.599 31.0902 190.249 31.5502 190.889 32.0202C196.809 28.3502 203.739 26.3902 211.139 26.3902C223.729 26.3902 237.169 32.0702 250.029 42.8302Z" fill="#231F20"/>
<path d="M60.0296 60.7598C37.8696 60.7598 4.19963 82.6698 2.32963 129.7C1.08963 160.64 10.6896 189.87 27.9996 207.89C35.2096 215.39 43.2296 220.31 51.5796 222.45C26.4696 210.43 11.0696 179.99 13.3596 144.79C15.7796 107.49 37.8096 90.7898 58.5596 90.7898C66.2096 90.7898 73.5396 92.9998 79.6696 96.9998C79.1496 88.0798 79.5496 79.1598 81.5796 70.5798C81.0796 69.9898 80.5796 69.4098 80.0696 68.8498C75.2896 63.5598 68.3596 60.7598 60.0196 60.7598H60.0296Z" fill="white"/>
<path d="M100.78 203.78C102.2 201.79 103.51 199.7 104.71 197.5C103.52 199.7 102.21 201.8 100.78 203.79V203.78Z" fill="#231F20"/>
<path d="M60.7899 225.87C60.6899 225.87 60.5999 225.85 60.4999 225.83C57.4099 224.96 54.4399 223.82 51.5899 222.46C43.2399 220.32 35.2099 215.4 28.0099 207.9C10.6999 189.87 1.09991 160.64 2.32991 129.7C4.19991 82.6703 37.8599 60.7603 60.0299 60.7603C68.3699 60.7603 75.3099 63.5603 80.0799 68.8503C80.5799 69.4103 81.0799 69.9903 81.5899 70.5803C81.7999 69.7003 82.0199 68.8303 82.2599 67.9603C82.0799 67.7603 81.9099 67.5503 81.7299 67.3603C76.5899 61.6703 68.8799 58.5303 60.0199 58.5303C36.9999 58.5303 2.02991 81.1203 0.109914 129.61C-1.15009 161.15 8.67991 190.99 26.3999 209.43C36.7599 220.21 48.7799 225.91 61.1599 225.91C66.4599 225.91 71.6999 224.87 76.8499 222.8C71.7399 224.84 66.5199 225.87 61.2099 225.87H60.7799H60.7899Z" fill="#231F20"/>
<path d="M93.8803 211.73C93.6103 211.98 93.3403 212.23 93.0703 212.48C93.3403 212.23 93.6103 211.99 93.8803 211.73Z" fill="#231F20"/>
<path d="M96.5598 208.99C96.1498 209.44 95.7198 209.89 95.2998 210.33C95.7298 209.89 96.1498 209.44 96.5598 208.99Z" fill="#231F20"/>
<path d="M100.54 204.11C100.16 204.63 99.7799 205.14 99.3799 205.64C99.7699 205.14 100.16 204.63 100.54 204.11Z" fill="#231F20"/>
<path d="M98.7402 206.45C98.3902 206.89 98.0302 207.32 97.6602 207.75C98.0302 207.32 98.3802 206.89 98.7402 206.45Z" fill="#231F20"/>
<path d="M15.59 144.94C13.12 183.01 31.76 215.34 60.95 223.64H61.21C70.17 223.64 78.93 220.53 87.25 214.39C93.57 209.76 98.7 203.78 102.61 196.67C91.7 192.13 82.97 185.13 77.78 176.28C69.05 161.33 74.31 147.02 78.53 135.53C81.01 128.78 83.15 122.96 82.3 118.18C81.24 112.18 80.35 106.02 79.86 99.8395C73.83 95.4595 66.37 93.0195 58.56 93.0195C40.29 93.0195 18.06 106.62 15.58 144.93L15.59 144.94Z" fill="white"/>
<path d="M102.61 196.67C98.7099 203.78 93.5699 209.76 87.2499 214.39C78.9299 220.53 70.1699 223.64 61.2099 223.64H60.9499C31.7599 215.34 13.1099 183 15.5899 144.94C18.0699 106.62 40.2999 93.0298 58.5699 93.0298C66.3799 93.0298 73.8399 95.4598 79.8699 99.8498C79.7999 98.8998 79.7299 97.9598 79.6799 97.0098C73.5599 93.0098 66.2199 90.7998 58.5699 90.7998C37.8099 90.7998 15.7799 107.5 13.3699 144.8C11.0799 179.99 26.4899 210.44 51.5899 222.46C54.4399 223.82 57.4099 224.96 60.4999 225.83C60.5899 225.86 60.6899 225.87 60.7899 225.87H61.2199C66.5199 225.87 71.7499 224.84 76.8599 222.81C80.8499 221.22 84.7599 219.01 88.5799 216.19C89.3599 215.62 90.1199 215.02 90.8699 214.4C91.1099 214.2 91.3499 213.99 91.5899 213.79C92.0899 213.36 92.5899 212.93 93.0699 212.49C93.3399 212.24 93.6099 212 93.8799 211.74C94.3599 211.28 94.8299 210.81 95.2899 210.34C95.7199 209.9 96.1399 209.45 96.5499 209C96.9199 208.59 97.2999 208.18 97.6599 207.76C98.0299 207.33 98.3799 206.9 98.7399 206.46C98.9599 206.19 99.1699 205.92 99.3799 205.65C99.7699 205.15 100.16 204.64 100.54 204.12C100.62 204.01 100.7 203.9 100.77 203.79C102.19 201.8 103.5 199.7 104.7 197.5C104 197.23 103.3 196.96 102.61 196.67Z" fill="#231F20"/>
<path d="M239.47 319.19C248.83 291.93 245.26 258.65 229.96 230.08C225.54 221.83 221.46 215.01 217.86 209C213.62 201.93 210.05 195.94 207.44 190.09C202.47 192.25 197.2 193.29 192.26 193.29C187.32 193.29 183.15 192.37 179.57 190.63C165.31 198.4 149.38 202.5 133.46 202.5C132.72 202.5 131.98 202.49 131.25 202.47C128.74 202.41 126.27 202.24 123.84 201.98C114.77 220.32 100.97 229.24 89.7998 236.45C88.1498 237.52 86.5598 238.55 85.0498 239.56C85.1398 239.7 85.2298 239.82 85.3098 239.99C85.6298 240.66 85.7898 241.55 85.8498 242.51C88.9698 239.05 93.5298 236.85 96.1598 236.85C96.6898 236.85 97.1598 236.94 97.5498 237.11C98.3898 237.48 99.4798 238.32 99.8898 240.27C100.11 241.3 100.1 242.49 99.9298 243.73C102.4 241.7 105.03 240.64 107.1 240.64C107.97 240.64 108.75 240.82 109.41 241.18C111.07 242.07 112.13 243.67 112.48 245.79C113 248.98 111.86 252.84 110.15 255.8C124.17 264.75 132.49 276.91 131.31 285.82C137.11 280.78 147.33 269.97 151.23 253.68C154.19 241.29 155.05 232.36 155.68 225.83C156.26 219.82 156.62 216.13 158.25 213.8C158.31 213.72 158.36 213.64 158.42 213.56C158.8 213.07 159.5 212.98 159.98 213.35C160.47 213.73 160.56 214.42 160.19 214.91C158.8 216.72 158.45 220.43 157.91 226.04C157.28 232.63 156.41 241.66 153.41 254.19C148.59 274.32 134.86 286.13 130.04 289.75C129.95 289.91 129.87 290.07 129.77 290.23C127.36 294.1 122.48 296.24 116.02 296.24C112.01 296.24 107.56 295.44 103 293.93C102.88 296.98 102.88 300.2 103.04 303.61C103.54 314.21 104.4 321.48 106.23 326.71C106.28 326.76 106.35 326.8 106.39 326.86C106.49 327.01 106.57 327.16 106.67 327.31C111.41 334.76 107.83 343.39 100.04 355.68C96.5298 361.19 95.3898 366.97 96.7398 372.39C98.2498 378.48 102.92 384.01 109.87 387.96C114.34 390.49 121.43 393.64 129.11 395.47C129.13 389.95 131.94 384.62 136.37 381.92C137.19 381.42 138.03 381.17 138.87 381.17C141.21 381.17 143.01 383.06 144.25 384.97C144.82 380.76 146.58 374.71 151.97 372.49C152.83 372.14 153.68 371.96 154.52 371.96C158.06 371.96 160.61 375.1 162.28 378.31C162.49 374.4 163.5 370.04 166.75 368.39C167.05 368.24 167.35 368.15 167.67 368.09C168.63 360.62 168.1 353.42 167.59 346.36C166.86 336.41 166.18 326.99 169.81 317.91C169.89 317.7 169.97 317.49 170.05 317.29C170.29 316.72 170.94 316.46 171.51 316.7C172.08 316.94 172.34 317.59 172.1 318.16C169.94 323.27 169.28 328.57 169.24 334.06C169.97 334.09 170.73 334.11 171.52 334.11C172.76 334.2 174.07 334.23 175.4 334.23C180.19 334.23 185.4 333.8 185.45 333.79C185.48 333.79 185.51 333.79 185.54 333.79C185.72 333.79 185.89 333.85 186.04 333.93C186.57 333.91 187.09 333.9 187.61 333.87C209.12 332.65 221.88 319.35 226.72 310.45C227.01 309.92 227.28 309.4 227.51 308.9C227.77 308.34 228.43 308.1 228.99 308.36C229.55 308.62 229.79 309.29 229.53 309.84C225.13 319.23 211.19 335.16 186.73 336.13C186.89 339.78 186.9 350.17 182.48 357.7C180.91 360.37 176.07 369.67 179.41 377.46C181.39 382.08 185.96 385.25 193 386.89C194.79 387.31 196.72 387.62 198.76 387.82C198.75 382.25 201.7 377.41 206.81 374.7C207.87 374.15 208.93 373.87 209.97 373.87C212.6 373.87 214.61 375.52 215.95 377.18C216.8 373.06 219.11 367.29 225.38 364.92C226.52 364.49 227.67 364.28 228.8 364.28C232.72 364.28 235.5 366.91 237.34 369.71C237.7 365.96 239.04 361.86 242.89 360.11C243.14 360 243.4 359.91 243.65 359.84C243.44 359.18 243.22 358.5 243.01 357.85C239.17 346.1 235.55 335 239.48 319.15L239.47 319.19Z" fill="white"/>
<path d="M85.0399 239.57C86.5499 238.55 88.1399 237.52 89.7899 236.46C100.96 229.24 114.76 220.32 123.83 201.99C123.04 201.9 122.26 201.81 121.48 201.7C112.67 219.02 99.3799 227.62 88.5899 234.59C86.6299 235.86 84.7299 237.09 82.9199 238.33C83.1799 238.34 83.4299 238.38 83.6599 238.45C84.0799 238.59 84.6099 238.91 85.0499 239.58L85.0399 239.57Z" fill="#231F20"/>
<path d="M153.39 254.22C156.39 241.68 157.26 232.66 157.89 226.07C158.43 220.46 158.79 216.75 160.17 214.94C160.54 214.45 160.45 213.75 159.96 213.38C159.47 213.01 158.77 213.1 158.4 213.59C158.34 213.67 158.29 213.75 158.23 213.83C156.6 216.16 156.24 219.86 155.66 225.86C155.03 232.39 154.17 241.32 151.21 253.71C147.31 269.99 137.09 280.81 131.29 285.85C131.1 287.25 130.68 288.58 130.01 289.79C134.83 286.17 148.56 274.36 153.38 254.23L153.39 254.22Z" fill="#231F20"/>
<path d="M83.2802 240.95C83.1802 240.73 83.0602 240.59 82.9602 240.56H82.9501C80.7901 240.56 76.4102 244.25 73.6602 248.43C76.1102 247.21 79.1702 246.57 82.7102 246.57C82.8902 246.57 83.0702 246.58 83.2502 246.58C83.2702 246.54 83.2802 246.5 83.2902 246.46C83.7502 244.31 83.7902 242.02 83.2802 240.95Z" fill="white"/>
<path d="M73.6603 248.43C76.4103 244.25 80.7903 240.56 82.9503 240.56H82.9603C83.0603 240.59 83.1803 240.74 83.2803 240.95C83.7903 242.02 83.7503 244.31 83.2903 246.46C83.8803 245.02 84.7703 243.7 85.8303 242.52C85.7703 241.55 85.6103 240.67 85.2903 240C85.2103 239.83 85.1203 239.7 85.0303 239.57C84.5903 238.9 84.0503 238.58 83.6403 238.44C83.4103 238.37 83.1603 238.33 82.9003 238.32C82.8503 238.32 82.8103 238.31 82.7603 238.31C78.9403 238.31 71.5703 245.36 69.5303 251.75C70.5803 250.39 71.9703 249.27 73.6503 248.43H73.6603Z" fill="#231F20"/>
<path d="M97.7099 240.74C97.4499 239.51 96.8499 239.25 96.6599 239.16C96.6099 239.14 96.4599 239.09 96.1599 239.09C93.6699 239.09 87.8399 242.19 85.6299 246.7C88.7899 246.98 92.1499 247.7 95.5799 248.82C95.9799 248.15 96.4099 247.53 96.8599 246.94C97.6099 244.79 98.0599 242.4 97.7099 240.74Z" fill="white"/>
<path d="M96.1498 239.09C96.4498 239.09 96.5998 239.14 96.6498 239.16C96.8498 239.25 97.4398 239.5 97.6998 240.74C98.0498 242.4 97.5998 244.8 96.8498 246.94C97.7998 245.69 98.8498 244.62 99.9198 243.74C100.08 242.5 100.1 241.31 99.8798 240.28C99.4698 238.33 98.3798 237.49 97.5398 237.12C97.1498 236.95 96.6798 236.86 96.1498 236.86C93.5198 236.86 88.9498 239.06 85.8398 242.52C84.7798 243.7 83.8898 245.02 83.2998 246.46C83.2798 246.5 83.2698 246.54 83.2598 246.58C84.0398 246.59 84.8298 246.63 85.6298 246.7C87.8398 242.18 93.6698 239.09 96.1598 239.09H96.1498Z" fill="#231F20"/>
<path d="M110.28 246.16C110.05 244.73 109.4 243.71 108.35 243.15C106.47 242.13 101.26 244 97.7197 249.58C101.23 250.88 104.79 252.59 108.24 254.65C109.7 252.11 110.71 248.81 110.28 246.17V246.16Z" fill="white"/>
<path d="M112.48 245.8C112.13 243.68 111.07 242.08 109.41 241.19C108.75 240.83 107.97 240.65 107.1 240.65C105.03 240.65 102.4 241.71 99.9301 243.74C98.8501 244.62 97.8101 245.69 96.8601 246.94C96.4101 247.53 95.9801 248.15 95.5801 248.82C96.2901 249.05 97.0101 249.31 97.7301 249.57C101.27 244 106.49 242.12 108.36 243.14C109.41 243.7 110.06 244.72 110.29 246.15C110.72 248.79 109.71 252.09 108.25 254.63C108.62 254.85 108.99 255.07 109.36 255.3C109.63 255.47 109.89 255.64 110.16 255.81C111.87 252.84 113.01 248.99 112.49 245.8H112.48Z" fill="#231F20"/>
<path d="M90.5396 285.64C99.1496 290.98 108.43 294.04 116.01 294.04C121.67 294.04 125.88 292.28 127.87 289.09C132.73 281.25 123.89 266.95 108.18 257.21C99.5796 251.87 90.2996 248.81 82.7196 248.81C77.0596 248.81 72.8396 250.57 70.8596 253.77C66.0096 261.61 74.8396 275.91 90.5396 285.66V285.64Z" fill="white"/>
<path d="M102.99 293.96C107.56 295.46 112 296.27 116.01 296.27C122.47 296.27 127.36 294.14 129.76 290.26C129.86 290.1 129.94 289.94 130.03 289.78C130.7 288.56 131.13 287.24 131.31 285.84C132.48 276.93 124.17 264.77 110.15 255.82C109.88 255.65 109.62 255.48 109.35 255.31C108.98 255.08 108.61 254.86 108.24 254.64C104.78 252.58 101.23 250.88 97.7196 249.57C96.9996 249.3 96.2896 249.05 95.5696 248.82C92.1396 247.7 88.7796 246.98 85.6196 246.7C84.8096 246.63 84.0296 246.59 83.2496 246.58C83.0696 246.58 82.8896 246.57 82.7096 246.57C79.1696 246.57 76.0996 247.22 73.6596 248.43C71.9696 249.27 70.5796 250.38 69.5396 251.75C69.3296 252.02 69.1396 252.29 68.9596 252.58C63.3696 261.61 72.3296 276.97 89.3696 287.53C93.1096 289.85 96.9796 291.75 100.81 293.18C101.54 293.45 102.27 293.72 103 293.95L102.99 293.96ZM70.8496 253.75C72.8396 250.55 77.0496 248.79 82.7096 248.79C90.2896 248.79 99.5696 251.85 108.17 257.19C123.88 266.93 132.72 281.23 127.86 289.07C125.87 292.26 121.66 294.02 116 294.02C108.42 294.02 99.1396 290.96 90.5296 285.62C74.8196 275.87 65.9896 261.57 70.8496 253.73V253.75Z" fill="#231F20"/>
<path d="M231.92 163.79C230.47 164.24 229.02 164.65 227.58 165.01C226.79 165.8 225.98 166.59 225.16 167.38C225.03 167.51 224.93 167.67 224.87 167.85C218.01 189.76 192.6 194.93 180.06 188.39C179.73 188.22 179.33 188.22 179.01 188.4C164.95 196.17 149.2 200.28 133.46 200.28C109.4 200.28 88.8001 190.66 79.7201 175.16C71.5201 161.12 76.37 147.94 80.64 136.3C83.23 129.25 85.47 123.16 84.52 117.79C79.36 88.6904 78.25 56.0604 109.1 34.6304C109.2 34.5604 109.29 34.4704 109.37 34.3704C110.78 32.4104 111.04 30.3404 110.11 28.5304C108.95 26.2704 106.05 24.7504 102.88 24.7504C102.24 24.7504 101.62 24.8104 101.03 24.9304C102.53 23.9604 104.66 23.2804 107.13 23.2804C109.6 23.2804 113.95 23.9604 117.61 28.4804C117.96 28.9104 118.58 29.0204 119.06 28.7304C119.25 28.6104 119.45 28.5104 119.65 28.4204C120.01 28.2504 120.25 27.9104 120.29 27.5104C121.35 15.7704 128.7 11.7704 133.82 13.8304C131.49 14.3104 129.35 16.0104 128.44 18.2104C127.65 20.1404 128 22.0404 129.4 23.4104C129.7 23.7104 130.16 23.8104 130.55 23.6604C137.81 21.0704 144.94 19.7604 151.73 19.7604C173.61 19.7604 189.68 33.3504 202.6 44.2704C210.27 50.7604 216.9 56.3604 223.54 58.5004C238.02 63.1604 256.51 75.3904 260.95 94.5104C261.3 96.0304 261.56 97.5804 261.73 99.1404C262.42 98.4204 263.07 97.6704 263.67 96.8704C263.52 95.9104 263.34 94.9504 263.12 94.0004C258.47 73.9804 239.26 61.2204 224.22 56.3804C218 54.3804 211.53 48.9104 204.03 42.5704C199.99 39.1504 195.63 35.4704 190.9 32.0204C190.26 31.5504 189.61 31.0904 188.95 30.6304C180.21 24.5304 170.16 19.3604 158.29 17.9304C157.4 17.8204 156.51 17.7404 155.6 17.6704C154.33 17.5804 153.04 17.5304 151.73 17.5304C144.91 17.5304 137.79 18.8004 130.55 21.3004C130.09 20.5104 130.25 19.6604 130.5 19.0404C131.12 17.5204 132.96 15.9104 135.14 15.9104C135.86 15.9104 136.55 16.0904 137.2 16.4604C137.38 16.5604 137.57 16.6104 137.77 16.6004C138.39 16.5904 138.91 16.1104 138.91 15.4904C138.91 15.1304 138.74 14.8104 138.47 14.6104C133.2 8.05038 120.37 10.3504 118.23 25.8204C115.21 22.7304 111.33 21.0404 107.13 21.0404C101.53 21.0404 96.7601 24.1204 96.4801 27.9204C96.4501 28.3904 96.71 28.8304 97.14 29.0204C97.57 29.2104 98.0701 29.1104 98.4001 28.7704C99.5001 27.6104 101.1 26.9704 102.89 26.9704C105.2 26.9704 107.36 28.0304 108.14 29.5404C108.66 30.5604 108.5 31.6904 107.68 32.9104C93.5201 42.7904 85.9201 54.9204 82.2901 67.9604C82.0501 68.8304 81.8201 69.7004 81.6201 70.5804C79.5901 79.1604 79.19 88.0904 79.71 97.0004C79.76 97.9504 79.8301 98.8904 79.9001 99.8404C80.3901 106.02 81.28 112.17 82.34 118.18C83.19 122.96 81.05 128.78 78.57 135.53C74.34 147.03 69.08 161.33 77.82 176.28C83.01 185.12 91.7401 192.13 102.65 196.67C103.34 196.96 104.03 197.23 104.74 197.5C109.93 199.46 115.56 200.88 121.51 201.69C122.29 201.8 123.07 201.89 123.86 201.98C126.29 202.24 128.76 202.41 131.27 202.47C132 202.49 132.74 202.5 133.48 202.5C149.41 202.5 165.34 198.4 179.59 190.63C183.17 192.37 187.54 193.29 192.28 193.29C197.02 193.29 202.5 192.25 207.46 190.09C208.13 189.8 208.8 189.48 209.45 189.15C213.36 187.17 217.02 184.46 220.08 180.97C221.12 179.79 222.08 178.51 222.97 177.15C224.59 174.67 225.94 171.88 226.93 168.78C228.66 167.1 230.33 165.44 231.94 163.78L231.92 163.79Z" fill="#231F20"/>
<path d="M217.29 170.68C217.71 169.54 218.01 168.23 218.12 166.72C216.86 166.86 215.6 166.96 214.34 167.03C215.36 167.98 216.36 169.19 217.29 170.68Z" fill="white"/>
<path d="M190.82 170.9C192.54 168.98 194.82 167.13 197.39 165.76C193.98 165.03 190.62 164.01 187.34 162.71C187.84 164.67 188.89 167.93 190.82 170.9Z" fill="white"/>
<path d="M185.35 163.88C186.09 166.56 187.62 170.78 190.48 174.2L190.67 174.04C190.45 173.78 190.23 173.52 190.02 173.25C189.69 172.84 189.69 172.26 190.02 171.85C190.27 171.53 190.55 171.22 190.83 170.9C188.9 167.92 187.85 164.67 187.35 162.71C187.06 162.59 186.76 162.47 186.47 162.35C186.13 162.86 185.76 163.38 185.36 163.88H185.35Z" fill="#231F20"/>
<path d="M193.189 176.95C193.189 176.95 193.429 177.14 193.459 177.16C193.479 177.17 193.619 177.29 193.639 177.3L193.759 177.39C193.759 177.39 193.969 177.55 194.009 177.57L194.149 177.36C193.849 177.15 193.569 176.93 193.289 176.7L193.189 176.95Z" fill="#231F20"/>
<path d="M190.83 174.21L190.68 174.43L190.85 174.61C190.85 174.61 191 174.77 191 174.78L191.24 175.02C191.27 175.07 191.43 175.27 191.47 175.31C191.64 175.49 191.85 175.7 192.01 175.85C192.06 175.92 192.17 176.03 192.23 176.08C192.28 176.14 192.34 176.2 192.41 176.25H192.44C192.56 176.39 192.69 176.5 192.93 176.71L193.09 176.51C192.26 175.79 191.53 175.02 190.83 174.21Z" fill="#231F20"/>
<path d="M204.48 180.6C202.26 180.6 200.08 180.22 198.18 179.5C196.62 178.91 195.37 178.23 194.3 177.47L194.21 177.7C194.32 177.79 194.44 177.86 194.55 177.94L195.1 178.28C195.1 178.28 195.39 178.46 195.4 178.47L196.67 179.13C197.21 179.38 197.69 179.59 198.08 179.72C198.64 179.95 199.1 180.08 199.46 180.17C199.66 180.24 199.86 180.31 199.94 180.28C200.25 180.38 200.56 180.44 201.03 180.54C201.09 180.55 201.32 180.59 201.37 180.59C201.39 180.59 201.61 180.62 201.62 180.63C201.9 180.67 202.17 180.71 202.62 180.76L202.9 180.79C203.04 180.81 203.18 180.82 203.26 180.82C203.67 180.84 204.08 180.86 204.5 180.86C204.51 180.86 204.53 180.86 204.54 180.86H204.73C204.97 180.86 205.23 180.84 205.5 180.82L205.47 180.58C205.14 180.6 204.8 180.61 204.47 180.61L204.48 180.6Z" fill="#231F20"/>
<path d="M218.22 172.29C218.39 172.62 218.39 173.02 218.2 173.35C215.81 177.59 211.18 180.24 205.66 180.57L205.73 180.81C205.94 180.81 206.12 180.79 206.43 180.76C206.75 180.73 207.06 180.69 207.28 180.65C207.44 180.63 207.56 180.61 207.81 180.57C209.65 180.26 211.41 179.66 213.02 178.79C213.05 178.77 213.08 178.76 213.11 178.74C216.28 176.98 220.02 173.42 220.38 166.44C219.63 166.55 218.88 166.65 218.13 166.73C218.02 168.24 217.72 169.55 217.3 170.69C217.61 171.19 217.92 171.72 218.22 172.29Z" fill="#231F20"/>
<path d="M192.33 172.55C194.06 174.61 195.73 176.2 198.97 177.42C200.62 178.05 202.52 178.38 204.48 178.38C209.46 178.38 213.7 176.3 215.95 172.78C214.51 170.17 212.77 168.31 210.77 167.15C210.72 167.15 210.68 167.15 210.63 167.15C207.5 167.15 204.4 166.92 201.33 166.47C197.78 167.63 194.53 170.04 192.33 172.55Z" fill="white"/>
<path d="M190.82 170.9C190.54 171.22 190.26 171.53 190.01 171.85C189.68 172.26 189.69 172.84 190.01 173.25C190.23 173.52 190.44 173.78 190.66 174.04C190.71 174.1 190.76 174.16 190.81 174.22C191.51 175.03 192.24 175.8 193.07 176.52C193.14 176.58 193.2 176.64 193.28 176.7C193.55 176.93 193.84 177.14 194.14 177.36C194.19 177.4 194.24 177.44 194.29 177.47C195.36 178.23 196.62 178.91 198.17 179.5C200.07 180.22 202.25 180.6 204.47 180.6C204.81 180.6 205.14 180.59 205.47 180.57C205.53 180.57 205.59 180.57 205.64 180.57C211.16 180.24 215.8 177.59 218.18 173.35C218.36 173.02 218.37 172.62 218.2 172.29C217.9 171.72 217.59 171.19 217.28 170.69C216.35 169.2 215.36 167.99 214.33 167.04C213.13 167.11 211.94 167.15 210.75 167.15C212.75 168.31 214.48 170.17 215.93 172.78C213.68 176.3 209.44 178.38 204.46 178.38C202.5 178.38 200.6 178.05 198.95 177.42C195.72 176.2 194.05 174.61 192.31 172.55C194.51 170.04 197.76 167.62 201.31 166.47C199.99 166.28 198.67 166.04 197.36 165.77C194.79 167.14 192.52 168.99 190.79 170.91L190.82 170.9Z" fill="#231F20"/>
<path d="M127.8 131.62C130.45 135.58 134.93 137.85 140.1 137.85C143.62 137.85 147.08 136.78 150.13 134.74C157.85 129.58 160.4 119.78 155.8 112.9C153.15 108.94 148.68 106.66 143.52 106.66C140 106.66 136.52 107.74 133.46 109.77C125.75 114.92 123.21 124.72 127.79 131.61L127.8 131.62ZM149.05 114.39C152.49 119.52 150.74 126.71 145.2 130.42C139.63 134.12 132.32 132.95 128.88 127.82C125.47 122.67 127.19 115.5 132.75 111.78C138.33 108.08 145.61 109.23 149.05 114.39Z" fill="white"/>
<path d="M140.09 140.08C144.05 140.08 147.94 138.88 151.36 136.6C160.1 130.75 162.92 119.57 157.65 111.67C154.63 107.14 149.34 104.44 143.51 104.44C139.55 104.44 135.64 105.64 132.22 107.93C123.49 113.76 120.67 124.95 125.94 132.86C128.97 137.38 134.26 140.08 140.09 140.08ZM155.8 112.91C160.39 119.79 157.84 129.58 150.13 134.75C147.08 136.78 143.61 137.86 140.1 137.86C134.94 137.86 130.45 135.59 127.8 131.63C123.22 124.74 125.76 114.95 133.47 109.79C136.53 107.76 140.01 106.68 143.53 106.68C148.69 106.68 153.17 108.95 155.81 112.92L155.8 112.91Z" fill="#231F20"/>
<path d="M128.88 127.82C132.32 132.95 139.62 134.12 145.2 130.42C150.74 126.71 152.49 119.52 149.05 114.39C145.62 109.23 138.33 108.08 132.75 111.78C127.19 115.5 125.47 122.67 128.88 127.82ZM133.05 129.19C132.26 129.74 131.2 129.56 130.7 128.82C130.22 128.07 130.46 127.04 131.25 126.51C132.06 125.97 133.12 126.15 133.6 126.89C134.11 127.63 133.86 128.66 133.06 129.2L133.05 129.19ZM133.71 112.02C135.23 111.01 137.24 111.33 138.2 112.75C139.13 114.16 138.65 116.15 137.12 117.17C135.58 118.2 133.57 117.86 132.64 116.45C131.69 115.05 132.16 113.06 133.71 112.02Z" fill="#231F20"/>
<path d="M132.63 116.44C133.56 117.86 135.58 118.19 137.11 117.16C138.64 116.14 139.12 114.15 138.19 112.74C137.23 111.32 135.22 111 133.7 112.01C132.15 113.04 131.68 115.03 132.63 116.44Z" fill="white"/>
<path d="M131.25 126.51C130.46 127.04 130.22 128.07 130.7 128.82C131.21 129.56 132.26 129.74 133.05 129.19C133.85 128.65 134.1 127.62 133.59 126.88C133.12 126.15 132.05 125.97 131.24 126.5L131.25 126.51Z" fill="white"/>
<path d="M199.93 87.7296C202.09 92.8396 207.42 96.1396 213.52 96.1396C215.86 96.1396 218.18 95.6596 220.4 94.7296C228.6 91.2796 232.78 82.5196 229.73 75.1996C227.58 70.0996 222.24 66.8096 216.14 66.8096C213.79 66.8096 211.48 67.2796 209.25 68.2196C201.04 71.6796 196.85 80.4296 199.93 87.7296ZM222.44 76.2196C224.74 81.6696 221.81 88.1196 215.88 90.6096C209.99 93.0996 203.35 90.6796 201.05 85.1996C198.75 79.7496 201.66 73.3096 207.57 70.8296C213.46 68.3496 220.13 70.7496 222.43 76.2196H222.44Z" fill="white"/>
<path d="M213.52 98.3703C216.17 98.3703 218.77 97.8303 221.27 96.7803C230.6 92.8603 235.32 82.7903 231.78 74.3303C229.28 68.4003 223.13 64.5703 216.13 64.5703C213.48 64.5703 210.88 65.1003 208.38 66.1503C199.03 70.0803 194.32 80.1503 197.87 88.5803C200.38 94.5203 206.52 98.3603 213.52 98.3603V98.3703ZM229.73 75.2003C232.79 82.5203 228.6 91.2803 220.4 94.7303C218.18 95.6703 215.86 96.1403 213.52 96.1403C207.42 96.1403 202.08 92.8403 199.93 87.7303C196.86 80.4303 201.04 71.6703 209.25 68.2203C211.47 67.2803 213.79 66.8103 216.14 66.8103C222.24 66.8103 227.58 70.1103 229.73 75.2003Z" fill="#231F20"/>
<path d="M201.05 85.1998C203.35 90.6698 209.99 93.0898 215.88 90.6098C221.81 88.1298 224.73 81.6798 222.44 76.2198C220.14 70.7498 213.47 68.3498 207.58 70.8298C201.67 73.3098 198.76 79.7498 201.06 85.1998H201.05ZM206.74 87.5398C205.89 87.8998 204.91 87.5398 204.6 86.7598C204.24 85.9698 204.67 85.0398 205.53 84.6798C206.39 84.3098 207.36 84.6698 207.68 85.4598C208.02 86.2498 207.59 87.1798 206.74 87.5398ZM212.33 72.4498C212.97 73.9698 212.18 75.7398 210.54 76.4398C208.91 77.1098 207.05 76.4698 206.42 74.9398C205.79 73.4398 206.61 71.6598 208.24 70.9498C209.87 70.2798 211.74 70.9498 212.33 72.4498Z" fill="#231F20"/>
<path d="M206.42 74.9299C207.05 76.4599 208.91 77.1099 210.54 76.4299C212.18 75.7399 212.97 73.9699 212.33 72.4399C211.73 70.9399 209.86 70.2599 208.24 70.9399C206.61 71.6399 205.79 73.4299 206.42 74.9299Z" fill="white"/>
<path d="M205.53 84.67C204.67 85.03 204.25 85.96 204.6 86.75C204.91 87.54 205.89 87.89 206.74 87.53C207.59 87.17 208.02 86.24 207.68 85.45C207.35 84.65 206.39 84.3 205.53 84.67Z" fill="white"/>
<path d="M276.97 59.7201C276.45 59.6001 275.91 59.5001 275.34 59.4301C273.02 59.1401 270.93 59.4701 269.23 60.3301C268.55 60.6701 267.95 61.1001 267.41 61.6101C267.04 61.9701 266.68 62.3501 266.39 62.7801C264.48 65.5601 263.42 71.1201 269.12 81.8801C268.68 87.6301 266.8 92.7301 263.66 96.8701C263.06 97.6601 262.41 98.4201 261.72 99.1401C260.19 100.74 258.44 102.15 256.48 103.35C246.54 109.44 232.38 109.55 218.6 103.65C192.33 92.4001 182.4 95.7301 171.24 106.89C170.8 107.33 170.8 108.03 171.24 108.47C171.53 108.76 171.93 108.84 172.3 108.74C172.49 108.69 172.67 108.61 172.82 108.47C177.61 103.68 182.25 99.8901 189.65 99.1401C191.41 98.2201 192.91 97.6601 193.86 97.4801C194.47 97.3601 195.05 97.7701 195.16 98.3701C195.21 98.6401 195.15 98.9001 195.02 99.1201C200.82 99.5901 208.1 101.58 217.73 105.7C226.01 109.25 234.45 110.7 242.14 110.08C242.16 109.34 242.21 108.88 242.23 108.79C242.3 108.18 242.87 107.74 243.47 107.82C244.08 107.89 244.52 108.45 244.45 109.06C244.45 109.08 244.42 109.36 244.4 109.85C249.25 109.18 253.76 107.66 257.66 105.27C265.34 100.57 270.1 92.9101 271.22 83.5801C270.25 83.0301 269.67 82.6001 269.61 82.5601C269.12 82.1901 269.02 81.4901 269.38 81.0001C269.75 80.5101 270.45 80.4001 270.94 80.7701C270.94 80.7701 271.02 80.8301 271.14 80.9101C267.08 73.2501 266.05 67.2701 268.25 64.0601C269.56 62.1501 272.05 61.2801 275.08 61.6601C277.19 61.9301 278.99 62.6501 280.73 63.3501C283.64 64.5201 286.65 65.7201 290.84 64.7101C295.98 63.4601 300.65 65.1301 302.75 68.9501C304.63 72.3801 304.46 78.1401 298.33 84.0301C298.78 83.6101 299.48 83.6301 299.9 84.0701C300.32 84.5201 300.31 85.2201 299.86 85.6401C299.79 85.7101 299 86.4201 297.75 87.0701C294.92 110.58 275.28 137.99 250.17 153.09C229.09 165.76 206.95 168.35 187.6 160.45C187.26 161.09 186.88 161.73 186.45 162.37C186.74 162.49 187.04 162.61 187.33 162.73C190.61 164.03 193.96 165.06 197.38 165.78C198.69 166.06 200 166.29 201.33 166.48C204.39 166.93 207.5 167.16 210.63 167.16C210.68 167.16 210.72 167.16 210.77 167.16C211.96 167.16 213.15 167.11 214.35 167.05C215.61 166.98 216.86 166.88 218.13 166.74C218.88 166.66 219.63 166.56 220.38 166.45C222.77 166.1 225.18 165.63 227.59 165.03C229.04 164.67 230.48 164.26 231.93 163.81C238.43 161.78 244.94 158.85 251.34 155C277.7 139.15 298.17 109.92 300.18 85.3401C306.91 78.6701 306.95 71.9701 304.7 67.8801C302.1 63.1501 296.46 61.0501 290.31 62.5401C286.8 63.3801 284.37 62.4001 281.55 61.2701C281.01 61.0501 280.46 60.8401 279.9 60.6301C278.98 60.2901 278.02 59.9701 276.98 59.7301L276.97 59.7201Z" fill="#231F20"/>
<path d="M174.37 116.84C173.64 119.45 173.32 122.32 173.62 125.44C173.67 126.02 174.16 126.45 174.73 126.45C174.76 126.45 174.8 126.45 174.84 126.45C175.45 126.39 175.9 125.85 175.85 125.24C175.81 124.79 175.78 124.36 175.77 123.92C175.26 110 187.79 101.9 193.02 100.05C193.5 99.8797 193.93 99.7497 194.28 99.6897C194.62 99.6297 194.88 99.4096 195.03 99.1396C195.15 98.9196 195.22 98.6596 195.17 98.3896C195.06 97.7896 194.48 97.3896 193.87 97.4996C192.92 97.6796 191.42 98.2397 189.66 99.1597C184.44 101.88 176.91 107.84 174.39 116.86L174.37 116.84Z" fill="#231F20"/>
<path d="M249.25 127.26C249.46 127.42 249.7 127.5 249.95 127.5C250.28 127.5 250.6 127.36 250.82 127.08C251.2 126.6 251.13 125.9 250.64 125.51C250.06 125.04 249.54 124.55 249.06 124.03C245.36 120.06 244.52 114.82 244.39 111.7C244.36 110.93 244.37 110.29 244.39 109.82C244.41 109.33 244.44 109.04 244.44 109.03C244.51 108.42 244.07 107.87 243.46 107.79C242.86 107.71 242.3 108.15 242.22 108.76C242.21 108.85 242.16 109.31 242.13 110.05C242.03 113.29 242.46 121.81 249.25 127.24V127.26Z" fill="#231F20"/>
<path d="M278.55 86.1903C279.08 86.1903 279.56 85.8003 279.65 85.2603C279.75 84.6503 279.34 84.0803 278.73 83.9803C274.91 83.3403 271.89 81.4203 271.12 80.8903C271 80.8103 270.93 80.7503 270.92 80.7503C270.43 80.3803 269.73 80.4803 269.36 80.9803C268.99 81.4703 269.09 82.1703 269.59 82.5403C269.65 82.5803 270.23 83.0103 271.2 83.5603C272.75 84.4503 275.31 85.6603 278.37 86.1703C278.43 86.1803 278.49 86.1903 278.55 86.1903Z" fill="#231F20"/>
<path d="M293.93 85.8304C294.65 85.8104 295.32 85.6504 295.9 85.4404L293.93 85.8304Z" fill="white"/>
<path d="M293.93 85.8299C293.15 85.8599 292.31 85.7399 291.43 85.3699C290.86 85.1399 290.21 85.4099 289.97 85.9799C289.74 86.5499 290.01 87.1999 290.58 87.4299C291.69 87.8899 292.76 88.0699 293.74 88.0699C295.35 88.0699 296.72 87.5799 297.77 87.0499C299.02 86.4099 299.81 85.6899 299.88 85.6199C300.32 85.1999 300.34 84.4899 299.92 84.0499C299.5 83.6099 298.79 83.5899 298.35 84.0099C298.28 84.0799 297.35 84.9299 295.92 85.4399C295.34 85.6499 294.68 85.7999 293.95 85.8299H293.93Z" fill="#231F20"/>
<path d="M287.85 73.9798H288.19C293.82 73.8598 295.92 71.5298 296.06 70.4298C296.08 70.2598 296.14 69.8098 295.36 69.5998C293.7 69.1498 291.59 69.3998 289.61 69.7298C288.38 69.9298 287.11 70.1398 285.84 70.1398C283.75 70.1298 281.34 69.1498 279.02 68.1998C277.29 67.4898 275.5 66.7598 274.5 66.7598C274.13 66.7598 274.12 66.7998 274.08 67.0298C274 67.5198 274.28 68.1798 274.87 68.8798C276.96 71.3498 282.68 73.9898 287.87 73.9898L287.85 73.9798Z" fill="white"/>
<path d="M273.16 70.31C275.96 73.62 282.41 76.21 287.86 76.21H288.24C294.68 76.07 297.96 73.26 298.27 70.71C298.46 69.17 297.55 67.9 295.95 67.46C293.91 66.9 291.45 67.17 289.25 67.54C288.06 67.74 286.93 67.92 285.79 67.92C284.19 67.92 281.89 66.97 279.86 66.14C277.75 65.28 275.93 64.54 274.49 64.54C273.05 64.54 272.11 65.31 271.87 66.67C271.73 67.49 271.84 68.78 273.15 70.33L273.16 70.31ZM274.49 66.75C275.49 66.75 277.28 67.48 279.01 68.19C281.34 69.14 283.74 70.12 285.83 70.13C287.1 70.13 288.37 69.92 289.6 69.72C291.58 69.4 293.7 69.14 295.35 69.59C296.12 69.8 296.07 70.25 296.05 70.42C295.91 71.53 293.81 73.85 288.18 73.97H287.84C282.65 73.97 276.93 71.33 274.84 68.87C274.25 68.17 273.97 67.52 274.05 67.02C274.09 66.78 274.1 66.75 274.47 66.75H274.49Z" fill="#231F20"/>
<path d="M291.419 85.3702C292.299 85.7402 293.149 85.8502 293.919 85.8302L295.889 85.4402C297.319 84.9202 298.249 84.0702 298.319 84.0102C304.439 78.1202 304.619 72.3602 302.739 68.9302C300.639 65.1102 295.969 63.4402 290.829 64.6902C286.629 65.7002 283.619 64.4902 280.719 63.3302C278.979 62.6302 277.179 61.9102 275.069 61.6402C272.039 61.2602 269.539 62.1402 268.239 64.0402C266.039 67.2502 267.069 73.2302 271.129 80.8902C271.899 81.4202 274.919 83.3402 278.739 83.9802C279.349 84.0802 279.759 84.6602 279.659 85.2602C279.569 85.8102 279.099 86.1902 278.559 86.1902C278.499 86.1902 278.439 86.1902 278.379 86.1702C275.319 85.6602 272.759 84.4402 271.209 83.5602C270.099 92.8902 265.329 100.55 257.649 105.25C253.749 107.64 249.239 109.17 244.389 109.83C244.369 110.29 244.359 110.93 244.389 111.71C244.529 114.83 245.359 120.07 249.059 124.04C249.539 124.56 250.059 125.05 250.639 125.52C251.119 125.9 251.199 126.61 250.819 127.09C250.599 127.37 250.279 127.51 249.949 127.51C249.709 127.51 249.459 127.43 249.249 127.27C242.469 121.85 242.029 113.32 242.129 110.08C234.439 110.7 225.999 109.25 217.719 105.7C208.099 101.58 200.819 99.5902 195.009 99.1202C194.849 99.4002 194.589 99.6102 194.259 99.6702C193.919 99.7302 193.489 99.8602 192.999 100.03C187.769 101.89 175.239 109.99 175.749 123.9C175.769 124.33 175.789 124.77 175.829 125.22C175.889 125.83 175.439 126.38 174.819 126.43C174.779 126.43 174.749 126.43 174.709 126.43C174.139 126.43 173.659 126 173.599 125.42C173.309 122.3 173.619 119.43 174.349 116.82C176.869 107.8 184.399 101.85 189.619 99.1202C182.219 99.8702 177.579 103.66 172.789 108.45C172.639 108.6 172.459 108.68 172.269 108.72C171.899 108.81 171.499 108.73 171.209 108.45C170.769 108.01 170.769 107.31 171.209 106.87C182.369 95.7102 192.309 92.3702 218.569 103.63C232.339 109.53 246.499 109.42 256.449 103.33C258.41 102.13 260.159 100.71 261.689 99.1202C261.519 97.5602 261.269 96.0102 260.909 94.4902C256.469 75.3802 237.979 63.1502 223.499 58.4802C216.859 56.3402 210.229 50.7402 202.559 44.2502C189.639 33.3302 173.569 19.7402 151.689 19.7402C144.899 19.7402 137.769 21.0502 130.509 23.6402C130.109 23.7902 129.659 23.6902 129.359 23.3902C127.959 22.0202 127.609 20.1202 128.399 18.1902C129.299 15.9802 131.439 14.2902 133.779 13.8102C128.659 11.7502 121.309 15.7502 120.249 27.4902C120.209 27.8902 119.969 28.2302 119.609 28.4002C119.409 28.4902 119.209 28.5902 119.019 28.7102C118.539 29.0002 117.919 28.8902 117.569 28.4602C113.909 23.9402 109.439 23.2602 107.089 23.2602C104.619 23.2602 102.499 23.9402 100.989 24.9102C101.589 24.7902 102.209 24.7302 102.839 24.7302C105.999 24.7302 108.909 26.2502 110.069 28.5102C110.999 30.3202 110.729 32.3902 109.329 34.3502C109.259 34.4502 109.169 34.5402 109.059 34.6102C78.2095 56.0402 79.3295 88.6702 84.4795 117.77C85.4295 123.14 83.1895 129.23 80.5995 136.28C76.3195 147.91 71.4695 161.1 79.6795 175.14C88.7595 190.63 109.359 200.26 133.419 200.26C149.159 200.26 164.909 196.15 178.969 188.38C179.299 188.2 179.689 188.2 180.019 188.37C192.559 194.92 217.969 189.74 224.829 167.83C224.889 167.65 224.979 167.49 225.119 167.36C225.939 166.57 226.749 165.78 227.539 164.99C225.129 165.59 222.729 166.07 220.329 166.41C219.969 173.39 216.229 176.95 213.059 178.71C213.029 178.73 212.999 178.75 212.969 178.76C211.349 179.63 209.599 180.22 207.759 180.54C207.509 180.58 207.389 180.61 207.229 180.62C207.019 180.66 206.709 180.7 206.379 180.73C206.079 180.76 205.889 180.77 205.679 180.78L205.609 180.54C205.549 180.54 205.489 180.54 205.439 180.54L205.469 180.78C205.199 180.81 204.939 180.82 204.699 180.82H204.509C204.509 180.82 204.479 180.82 204.469 180.82C204.049 180.82 203.639 180.8 203.229 180.78C203.159 180.78 203.019 180.77 202.869 180.75L202.589 180.72C202.139 180.67 201.869 180.64 201.589 180.59C201.579 180.59 201.349 180.56 201.339 180.55C201.279 180.55 201.049 180.51 200.999 180.5C200.529 180.4 200.219 180.34 199.909 180.24C199.829 180.27 199.629 180.2 199.429 180.13C199.069 180.04 198.609 179.91 198.049 179.68C197.659 179.55 197.179 179.35 196.639 179.09L195.369 178.43C195.369 178.43 195.079 178.25 195.069 178.24L194.519 177.9C194.399 177.82 194.289 177.74 194.179 177.66L194.269 177.43C194.219 177.39 194.169 177.35 194.119 177.32L193.979 177.53C193.979 177.53 193.769 177.37 193.729 177.35L193.609 177.26C193.609 177.26 193.449 177.14 193.429 177.12C193.399 177.1 193.189 176.94 193.159 176.91L193.259 176.66C193.189 176.6 193.119 176.54 193.049 176.48L192.889 176.68C192.659 176.48 192.519 176.36 192.399 176.22H192.369C192.299 176.17 192.239 176.12 192.189 176.05C192.129 176 192.019 175.88 191.969 175.82C191.809 175.67 191.599 175.47 191.429 175.28C191.389 175.23 191.229 175.04 191.199 174.99L190.959 174.75C190.959 174.75 190.819 174.59 190.809 174.58L190.639 174.4L190.789 174.18C190.739 174.12 190.689 174.06 190.639 174L190.449 174.16C187.589 170.74 186.059 166.53 185.319 163.84C182.869 166.94 179.259 169.81 173.959 171.38C173.849 171.41 173.749 171.43 173.639 171.43C173.159 171.43 172.719 171.12 172.569 170.63C172.389 170.04 172.729 169.42 173.319 169.24C173.929 169.06 174.489 168.85 175.049 168.63C183.849 165.22 186.819 157.65 187.789 153.52C187.969 152.76 188.089 152.1 188.159 151.62C188.249 151.01 188.819 150.6 189.419 150.67C190.029 150.76 190.449 151.32 190.369 151.93C190.139 153.54 189.459 156.86 187.569 160.38C206.919 168.28 229.069 165.69 250.139 153.02C275.249 137.92 294.889 110.51 297.719 87.0002C296.669 87.5402 295.299 88.0202 293.689 88.0202C292.709 88.0202 291.649 87.8402 290.529 87.3802C289.959 87.1502 289.689 86.4902 289.919 85.9302C290.16 85.3602 290.809 85.0902 291.379 85.3202L291.419 85.3702ZM208.379 66.1602C210.879 65.1102 213.479 64.5802 216.129 64.5802C223.129 64.5802 229.269 68.4102 231.779 74.3402C235.309 82.8002 230.589 92.8702 221.269 96.7902C218.769 97.8402 216.169 98.3802 213.519 98.3802C206.519 98.3802 200.379 94.5402 197.869 88.6002C194.319 80.1602 199.039 70.1002 208.379 66.1702V66.1602ZM151.359 136.6C147.939 138.88 144.049 140.08 140.089 140.08C134.259 140.08 128.969 137.38 125.939 132.86C120.679 124.95 123.499 113.77 132.219 107.93C135.649 105.65 139.549 104.44 143.509 104.44C149.339 104.44 154.619 107.14 157.649 111.67C162.919 119.57 160.099 130.75 151.359 136.6ZM288.239 76.2002H287.859C282.419 76.2002 275.959 73.6102 273.159 70.3102C271.849 68.7602 271.739 67.4702 271.879 66.6502C272.109 65.3002 273.069 64.5202 274.499 64.5202C275.929 64.5202 277.759 65.2602 279.869 66.1202C281.899 66.9502 284.199 67.8902 285.799 67.9002C286.939 67.9002 288.069 67.7202 289.259 67.5202C291.459 67.1602 293.919 66.8902 295.959 67.4402C297.559 67.8802 298.469 69.1602 298.279 70.6902C297.959 73.2402 294.689 76.0502 288.249 76.1902L288.239 76.2002Z" fill="white"/>
<path d="M190.4 151.98C190.49 151.37 190.06 150.81 189.45 150.72C188.85 150.64 188.28 151.06 188.19 151.67C188.12 152.15 188 152.81 187.82 153.57C186.85 157.7 183.88 165.28 175.08 168.68C174.52 168.9 173.96 169.11 173.35 169.29C172.76 169.47 172.42 170.09 172.6 170.68C172.74 171.16 173.19 171.48 173.67 171.48C173.77 171.48 173.88 171.46 173.99 171.43C179.29 169.85 182.89 166.98 185.35 163.89C185.75 163.38 186.12 162.87 186.46 162.36C186.89 161.72 187.26 161.08 187.61 160.44C189.5 156.92 190.18 153.6 190.41 151.99L190.4 151.98Z" fill="#231F20"/>
</svg>
