<svg width="181" height="168" viewBox="0 0 181 168" fill="none" xmlns="http://www.w3.org/2000/svg">
<path d="M61.785 131.157C58.2001 131.737 54.1248 133.797 51.3069 135.598C47.9806 137.72 45.5461 140.538 42.7906 143.294C41.6402 144.444 40.3115 145.586 38.7331 146.397C37.8235 146.95 36.9139 147.494 35.9776 147.993C29.9939 151.132 21.9681 152.086 17.0011 147.119C11.6505 141.769 13.6124 133.056 17.1348 126.226C17.6342 125.254 18.1782 124.317 18.7667 123.434C22.735 118.458 28.469 114.829 29.8067 108.141C30.2882 105.947 30.2169 103.887 29.7621 101.943C29.5391 100.971 29.2092 100.035 28.7901 99.143C28.469 98.1978 27.8983 97.4398 27.1403 97.0563C17.9731 90.9389 9.94728 81.9678 13.006 70.4999C13.5767 68.5915 13.5767 66.6832 13.2824 64.6946C13.113 63.4372 12.8544 62.2155 12.5244 61.0205C10.8658 55.0369 7.35227 49.7131 3.33046 44.6747C2.75082 43.4976 2.27819 42.2758 1.86798 41.0541C0.200403 36.1406 -0.557589 31.0843 3.25912 27.9008C6.18408 25.4395 9.61733 24.2981 13.2557 24.1197C14.4685 24.0573 15.6991 24.1108 16.9475 24.2535C21.0318 24.6548 24.474 26.1886 27.7199 28.8639C30.5825 31.1557 33.0705 34.8832 35.7636 37.8438C36.6642 38.8248 37.5917 39.7165 38.6172 40.314C39.5624 40.8936 40.6593 41.0809 41.7472 40.9204C42.9957 40.7064 44.1461 40.1356 45.1002 39.3687C49.4966 35.3558 53.5095 31.1557 59.2345 29.6219C65.352 27.9008 70.3191 24.842 75.3218 21.1502C76.3919 20.3833 77.4798 19.652 78.5767 19.0367C81.8762 17.1997 85.3095 16.4328 89.037 19.1081C93.4333 22.1668 97.0628 28.4715 102.859 25.7784C103.911 25.3325 104.857 24.7618 105.713 24.1019C111.581 18.9208 112.544 10.3243 117.885 4.39412C120.944 0.951947 126.482 -0.189498 131.262 1.14813C135.274 2.2985 138.137 6.88211 135.462 10.1281C129.942 16.6468 122.531 22.577 120.935 30.8525C120.703 32.0296 120.596 33.2602 120.632 34.5443C120.944 37.4425 123.432 39.1636 126.107 38.7802C132.795 37.9419 143.719 35.2042 146.858 42.0886C147.304 43.0695 147.59 44.2466 147.625 45.6645C147.438 46.8951 147.028 47.992 146.457 48.9818C145.886 49.9717 145.155 50.8724 144.335 51.7195C141.392 54.8318 136.799 56.3567 135.845 60.3695C134.508 66.6743 142.533 68.1992 146.35 71.4541C148.401 73.193 149.748 75.3778 149.409 78.16C148.883 82.4761 145.057 85.8024 141.65 88.0853C138.975 89.8777 139.965 91.5899 141.231 94.0333C146.172 103.602 158.175 105.492 168.287 105.858C169.562 106.197 170.784 106.598 171.943 107.062C175.43 108.453 178.444 110.415 179.782 114.044C182.841 121.49 175.582 129.9 168.323 132.191C167.333 132.477 166.343 132.611 165.344 132.628C164.346 132.646 163.347 132.548 162.348 132.388C160.725 131.986 159.111 131.425 157.452 130.782C150.746 128.187 141.954 122.641 136.229 128.945C132.724 132.611 133.339 140.512 128.961 143.249C128.087 143.793 127.008 144.132 125.661 144.194C118.081 144.614 115.406 135.643 108.718 134.109C105.945 133.44 102.939 134.296 100.603 136.142C99.8272 136.757 99.1138 137.48 98.5163 138.291C96.1086 140.993 96.3048 145.006 96.8487 148.412C97.0806 149.946 97.3749 151.534 97.6246 153.112C97.7851 154.164 97.9278 155.217 98.008 156.251C98.445 159.131 97.4819 161.887 95.52 163.653C94.8691 164.241 94.1021 164.723 93.2461 165.053C88.8497 167.532 83.4992 168.869 78.9156 165.82C77.7652 165.035 76.7308 164.134 75.8568 163.135C74.9027 162.19 74.332 160.852 73.7523 159.711C70.0783 152.372 77.1231 130.711 63.4615 130.997C62.9264 131.005 62.3646 131.059 61.7939 131.157H61.785Z" fill="#325EDA"/>
</svg>
