<svg width="151" height="151" viewBox="0 0 151 151" fill="none" xmlns="http://www.w3.org/2000/svg">
<path d="M75.1407 150.463C116.561 150.463 150.139 116.894 150.139 75.4848C150.139 34.0756 116.561 0.506836 75.1407 0.506836C33.7205 0.506836 0.142822 34.0756 0.142822 75.4848C0.142822 116.894 33.7205 150.463 75.1407 150.463Z" fill="#6D2100"/>
<path d="M150.141 75.8243C150.141 116.997 116.562 150.38 75.1426 150.38C69.757 150.38 64.5064 149.814 59.4453 148.741C60.85 148.823 62.2655 148.862 63.6941 148.862C105.113 148.862 138.692 115.482 138.692 74.3068C138.692 38.4855 113.275 8.56228 79.3915 1.39062C118.833 3.57652 150.143 36.0689 150.143 75.8243H150.141Z" fill="#934E29"/>
<path d="M144.043 74.5179C144.043 115.21 110.856 148.2 69.9207 148.2C64.5982 148.2 59.4086 147.641 54.4062 146.581C55.7935 146.663 57.1938 146.7 58.605 146.7C99.5405 146.7 132.727 113.709 132.727 73.0178C132.727 37.6167 107.609 8.04183 74.1194 0.955078C113.101 3.11485 144.043 35.2284 144.043 74.5179Z" fill="#B0590C"/>
</svg>
