<svg width="150" height="152" viewBox="0 0 150 152" fill="none" xmlns="http://www.w3.org/2000/svg">
<path d="M74.9988 150.574C116.42 150.574 149.998 117.005 149.998 75.5952C149.998 34.1855 116.42 0.616211 74.9988 0.616211C33.5781 0.616211 0 34.1855 0 75.5952C0 117.005 33.5781 150.574 74.9988 150.574Z" fill="#F54500"/>
<path d="M149.998 76.069C149.998 117.477 116.418 151.048 74.9989 151.048C69.6132 151.048 64.3626 150.48 59.3014 149.4C60.7061 149.485 62.1216 149.522 63.5503 149.522C104.97 149.522 138.549 115.951 138.549 74.5427C138.549 38.5185 113.132 8.42285 79.2478 1.21191C118.69 3.40873 150 36.0887 150 76.069H149.998Z" fill="#C60202"/>
<path d="M141.505 74.3646C141.505 115.22 107.925 148.342 66.5056 148.342C61.12 148.342 55.8693 147.78 50.8081 146.716C52.2128 146.798 53.6284 146.835 55.057 146.835C96.4765 146.835 130.056 113.713 130.056 72.8579C130.056 37.3149 104.639 7.62198 70.7545 0.506836C110.197 2.67534 141.507 34.9156 141.507 74.3624L141.505 74.3646Z" fill="#EA0606"/>
</svg>
