<svg width="189" height="190" viewBox="0 0 189 190" fill="none" xmlns="http://www.w3.org/2000/svg">
<path d="M94.6291 189.188C146.746 189.188 188.995 146.95 188.995 94.8472C188.995 42.7445 146.746 0.506836 94.6291 0.506836C42.5125 0.506836 0.263672 42.7445 0.263672 94.8472C0.263672 146.95 42.5125 189.188 94.6291 189.188Z" fill="#FFA600"/>
<path d="M188.997 95.2747C188.997 147.08 146.747 189.084 94.6316 189.084C87.8552 189.084 81.2487 188.371 74.8806 187.021C76.648 187.125 78.4291 187.174 80.2267 187.174C132.342 187.174 174.592 145.173 174.592 93.3653C174.592 48.2935 142.612 10.6428 99.9777 1.61914C149.605 4.36953 189 45.2527 189 95.2747H188.997Z" fill="#FF8E2B"/>
<path d="M181.325 93.6311C181.325 144.831 139.568 186.342 88.0609 186.342C81.364 186.342 74.8342 185.637 68.54 184.303C70.2855 184.407 72.0474 184.454 73.8231 184.454C125.33 184.454 167.087 142.944 167.087 91.7436C167.087 47.2005 135.482 9.98813 93.3439 1.07129C142.393 3.7888 181.325 44.1953 181.325 93.6311Z" fill="#FF8113"/>
</svg>
