<svg width="150" height="151" viewBox="0 0 150 151" fill="none" xmlns="http://www.w3.org/2000/svg">
<path d="M74.9979 150.463C116.418 150.463 149.996 116.894 149.996 75.4848C149.996 34.0756 116.418 0.506836 74.9979 0.506836C33.5777 0.506836 0 34.0756 0 75.4848C0 116.894 33.5777 150.463 74.9979 150.463Z" fill="#2B7471"/>
<path d="M149.998 75.8243C149.998 116.997 116.419 150.38 74.9998 150.38C69.6142 150.38 64.3636 149.814 59.3025 148.741C60.7071 148.823 62.1227 148.862 63.5513 148.862C104.97 148.862 138.549 115.482 138.549 74.3068C138.549 38.4855 113.133 8.56228 79.2486 1.39062C118.69 3.57652 150 36.0689 150 75.8243H149.998Z" fill="#186A67"/>
<path d="M143.9 74.5179C143.9 115.21 110.713 148.2 69.7778 148.2C64.4554 148.2 59.2658 147.641 54.2634 146.581C55.6507 146.663 57.051 146.7 58.4622 146.7C99.3976 146.7 132.585 113.709 132.585 73.0178C132.585 37.6167 107.466 8.04183 73.9766 0.955078C112.959 3.11485 143.9 35.2284 143.9 74.5179Z" fill="#28A19C"/>
</svg>
