<svg width="109" height="101" viewBox="0 0 109 101" fill="none" xmlns="http://www.w3.org/2000/svg">
<g filter="url(#filter0_d_25_4307)">
<path d="M104.423 34.4763C105.725 23.7485 90.1319 26.8588 84.4788 28.5983C82.3225 29.2578 79.0524 29.8657 75.7887 30.7775C78.0033 25.7466 79.2337 20.1467 79.6093 16.2862C80.0431 11.7597 78.502 7.53066 73.4446 7.29786C68.5557 7.07154 66.0432 11.3717 63.3753 15.0834C63.1033 8.8692 62.2615 1.22588 56.9063 0.301185C51.6418 -0.610582 47.6205 6.21151 46.1182 10.2078C44.6742 14.0488 43.7935 18.0839 43.4115 22.1706C43.269 23.6709 43.2302 25.1387 43.2625 26.6195C42.6215 25.4491 41.961 24.2916 41.2616 23.1665C39.0341 19.597 36.2561 16.3444 33.6594 13.04C30.8167 9.41885 24.1664 3.35981 21.3496 10.447C20.2358 13.247 22.8908 16.4608 23.6484 18.9698C24.9305 23.2311 27.0804 27.2727 29.554 30.9456C30.8426 32.8596 32.3773 34.8254 34.0998 36.6554C31.4708 36.4485 28.7187 36.7201 26.3163 37.2568C18.3256 39.048 7.48568 46.7172 4.96025 54.8714C4.02779 57.8912 4.39041 61.2731 7.18133 63.2131C11.086 65.9225 15.6771 65.2758 19.9703 63.892C27.4624 61.4801 34.9027 57.7231 41.689 53.2742C40.1349 56.6367 38.8592 60.0962 38.406 63.9179C37.7131 69.8024 36.2367 78.4415 40.4911 83.4271C44.4605 88.0765 49.5049 85.2571 52.9693 81.5777C55.3522 79.0493 57.0423 76.2235 58.4281 73.236C59.4706 82.108 62.527 91.0058 71.5214 92.7258C80.995 94.5364 78.2624 81.8881 77.5436 74.9302C78.5797 75.2471 79.5963 75.6997 80.5935 76.0618C82.7693 76.8508 85.0033 77.0835 87.2956 76.896C91.3622 76.5662 94.5222 74.1025 97.3649 71.3996C102.228 66.7761 104.125 58.803 99.9681 53.1772C97.7405 50.1638 94.6712 49.0257 91.3622 48.4437C97.2613 45.2299 103.672 40.5547 104.41 34.4763H104.423Z" fill="#F6CA43"/>
<path d="M41.2616 23.1665C39.5173 20.3713 37.4354 17.7704 35.3673 15.1868C34.7945 14.4711 34.2227 13.7568 33.6594 13.04L6.87085 55.4627C7.96476 51.9311 10.959 48.2862 14.824 45.2509C18.6675 42.2326 23.1086 40.0256 26.7531 39.2085C28.9938 38.708 31.5438 38.4605 33.9429 38.6493L39.1055 39.0556L35.5561 35.2847C33.915 33.541 32.4471 31.6616 31.2131 29.8287L31.2129 29.8284C28.8132 26.2652 26.7711 22.4068 25.5636 18.3935L25.563 18.3916C25.3231 17.5971 24.9507 16.7989 24.6129 16.1015C24.5323 15.9351 24.4533 15.7736 24.376 15.6157C24.1073 15.0666 23.8596 14.5605 23.6398 14.0398C23.0559 12.6562 22.9617 11.8053 23.208 11.1862L23.2082 11.1857C23.7816 9.74313 24.3867 9.35808 24.7217 9.24095C25.105 9.10694 25.7214 9.11699 26.6645 9.54739C28.5956 10.4286 30.7283 12.5452 32.0863 14.275L32.0869 14.2758C32.6761 15.0256 33.265 15.7615 33.8482 16.4903C35.9035 19.0586 37.8879 21.5383 39.5638 24.2235M41.2616 23.1665L39.563 24.2223C39.5633 24.2227 39.5635 24.2231 39.5638 24.2235M41.2616 23.1665C41.2816 23.1986 41.3016 23.2308 41.3215 23.263L42.0124 82.1289C42.7983 83.0492 43.548 83.501 44.2133 83.7045C44.8814 83.9089 45.6054 83.9061 46.4046 83.6931C48.0736 83.2484 49.8904 81.9302 51.5131 80.2067L51.5138 80.206C53.7057 77.8803 55.2869 75.2549 56.6137 72.3944L59.5891 65.9799L60.4144 73.0026C60.9228 77.3294 61.9053 81.4644 63.7312 84.6739C65.5177 87.8142 68.0798 90.0314 71.8969 90.7614C73.8493 91.1346 74.7099 90.699 75.1628 90.2567C75.7291 89.7036 76.178 88.6435 76.3662 86.9014C76.5492 85.2074 76.4533 83.1951 76.2476 81.0957C76.1457 80.0558 76.0199 79.0205 75.8949 78.0129C75.8815 77.9047 75.8681 77.7967 75.8547 77.689C75.7446 76.8029 75.6366 75.934 75.5542 75.1357L75.2442 72.1356L78.1285 73.0177C78.8472 73.2375 79.6583 73.5554 80.3533 73.8278C80.698 73.9629 81.0141 74.0868 81.2762 74.1819C83.146 74.8598 85.0869 75.07 87.1326 74.9027L87.134 74.9026C90.4627 74.6326 93.1853 72.6139 95.9868 69.9502L95.9869 69.9501C100.342 65.8091 101.75 58.9539 98.3596 54.3658C96.5707 51.946 94.096 50.9553 91.0158 50.4135L85.3841 49.423L90.4054 46.6875C93.2843 45.119 96.1882 43.2454 98.438 41.0901C100.698 38.9249 102.133 36.6349 102.425 34.2351L102.484 33.7501C102.607 31.902 102.047 30.9129 101.338 30.2961C100.444 29.5181 98.9491 29.0153 96.9037 28.856C92.8356 28.5392 87.8095 29.6659 85.067 30.5098L85.0638 30.5108C83.9107 30.8635 82.4859 31.1955 81.0179 31.5376L81.0029 31.5411L80.9779 31.5469C79.4836 31.8952 77.9012 32.2639 76.3269 32.7037L72.2548 33.8413L73.9582 29.9717C76.077 25.1586 77.2607 19.7696 77.6185 16.094C77.8129 14.0634 77.5329 12.3463 76.8583 11.1892C76.2555 10.1552 75.2408 9.38266 73.3527 9.29575L73.3521 9.29573C71.6153 9.21532 70.272 9.89846 68.9626 11.1562C67.8341 12.2402 66.8756 13.5988 65.8004 15.1226C65.5414 15.4896 65.2758 15.8661 64.9993 16.2507L61.6297 20.9388L61.3772 15.1709C61.2414 12.0674 60.9666 8.8473 60.1455 6.32863C59.3201 3.79664 58.1527 2.54599 56.566 2.27202L56.565 2.27185C54.9576 1.99345 53.2802 2.84053 51.5989 4.73966C49.9561 6.59547 48.6843 9.06534 47.9903 10.9115L47.9903 10.9116C46.6142 14.5718 45.7698 18.4312 45.4028 22.3568L45.4025 22.3597C45.2685 23.7706 45.2311 25.1597 45.2621 26.5758L41.5084 27.5803C40.8781 26.4295 40.237 25.3067 39.5638 24.2235M41.2616 23.1665L39.5649 24.2253C39.5645 24.2247 39.5642 24.2241 39.5638 24.2235M19.3568 61.9885L19.3574 61.9883C26.649 59.6409 33.9278 55.9708 40.5925 51.6015L46.4359 47.7708L43.5045 54.1132C41.9916 57.3865 40.8101 60.6286 40.392 64.1535C40.336 64.6295 40.2761 65.1155 40.2151 65.6096C39.8879 68.264 39.5319 71.151 39.5928 73.9663C39.6652 77.3134 40.33 80.157 42.0121 82.1285L19.3568 61.9885ZM19.3568 61.9885C15.1862 63.3328 11.413 63.7142 8.32283 61.5708L19.3568 61.9885ZM8.32259 61.5706C6.53431 60.3275 6.0753 58.0406 6.87072 55.4631L8.32259 61.5706Z" stroke="#C6A800" stroke-width="4"/>
</g>
<defs>
<filter id="filter0_d_25_4307" x="0.5" y="0.218262" width="108" height="100.683" filterUnits="userSpaceOnUse" color-interpolation-filters="sRGB">
<feFlood flood-opacity="0" result="BackgroundImageFix"/>
<feColorMatrix in="SourceAlpha" type="matrix" values="0 0 0 0 0 0 0 0 0 0 0 0 0 0 0 0 0 0 127 0" result="hardAlpha"/>
<feOffset dy="4"/>
<feGaussianBlur stdDeviation="2"/>
<feComposite in2="hardAlpha" operator="out"/>
<feColorMatrix type="matrix" values="0 0 0 0 0 0 0 0 0 0 0 0 0 0 0 0 0 0 0.25 0"/>
<feBlend mode="normal" in2="BackgroundImageFix" result="effect1_dropShadow_25_4307"/>
<feBlend mode="normal" in="SourceGraphic" in2="effect1_dropShadow_25_4307" result="shape"/>
</filter>
</defs>
</svg>
