<svg width="366" height="431" viewBox="0 0 366 431" fill="none" xmlns="http://www.w3.org/2000/svg">
<path d="M89.0709 274.662C82.4793 283.283 118.192 296.731 123.508 297.992C126.479 298.836 133.504 300.941 136.475 299.668C143.283 296.933 137.112 290.215 134.141 287.48C126.696 280.75 116.917 273.188 106.716 272.142C102.254 271.725 95.2414 270.881 91.6209 273.616L89.0709 274.662Z" fill="#29577C"/>
<path d="M125.637 309.027C123.003 307.219 120.718 305.091 119.25 302.618C115.148 295.674 113.717 284.544 118.192 277.398C113.729 272.772 106.5 271.726 101.4 268.147C89.9249 283.7 98.2125 309.966 114.583 319.217C115.028 319.467 115.774 319.823 116.748 320.24C120.669 318.266 124.964 313.391 125.649 309.027H125.637Z" fill="#FFD8D4"/>
<path d="M125.637 309.027C124.952 313.39 120.657 318.266 116.736 320.239C122.329 322.665 135.224 327.243 138.123 326.173L145.989 317.35C145.989 317.35 134.045 314.805 125.637 309.027Z" fill="#E8F5FD"/>
<path d="M196.725 349.597C193.477 357.54 188.533 364.71 181.557 370.287L188.148 377.849C197.398 374.793 203.93 364.032 208.103 354.247C203.917 353.83 199.335 352.522 196.725 349.585V349.597Z" fill="#E8F5FD"/>
<path d="M212.373 289.585C207.057 291.904 201.536 293.795 196.219 296.101C201.752 300.727 201.752 315.852 201.752 322.368C201.752 331.702 200.201 341.095 196.725 349.585C199.323 352.51 203.918 353.818 208.103 354.246C209.402 351.214 210.473 348.277 211.327 345.697C216.848 327.623 218.123 307.659 212.385 289.585H212.373Z" fill="#FFD8D4"/>
<path d="M162.203 320.692L159.365 319.835C158.523 321.31 157.645 322.749 156.887 324.057C152.208 332.879 146.687 341.5 140.095 348.86C137.629 351.726 135.26 355.162 132.662 358.135C133.395 358.349 134.189 358.551 135.103 358.682C141.635 354.271 163.166 323.379 162.215 320.692H162.203Z" fill="#EF9360"/>
<path d="M159.365 319.835L141.803 314.544C140.685 315.328 133.191 326.993 133.191 326.993L140.841 328.575C139.217 330.418 135.296 334.746 132.048 339.573C133.985 339.419 136.09 339.859 137.762 340.418C139.59 341.072 142.08 342.534 143.836 344.377C148.804 338.099 153.134 331.143 156.887 324.056C157.645 322.748 158.523 321.321 159.365 319.835Z" fill="#DB4740"/>
<path d="M137.761 340.417C136.077 339.847 133.985 339.407 132.048 339.573C127.104 346.945 123.748 355.483 132.661 358.134C135.26 355.162 137.641 351.725 140.095 348.86C141.382 347.421 142.621 345.911 143.836 344.389C142.092 342.546 139.602 341.083 137.761 340.429V340.417Z" fill="#FFB692"/>
<path d="M144.401 323.688C144.401 321.512 146.193 319.74 148.395 319.74C150.596 319.74 152.388 321.512 152.388 323.688C152.388 325.864 150.596 327.647 148.395 327.647C146.193 327.647 144.401 325.876 144.401 323.688Z" fill="#EF9360"/>
<path d="M89.071 274.663C104.058 268.04 138.435 284.413 139.313 297.243C139.566 296.684 153.278 279.705 159.653 271.512C159.978 280.026 159.329 289.17 159.653 297.992C193.91 311.464 218.328 292 218.328 292C213.228 276.233 202.703 223.593 197.603 221.702C194.091 220.121 185.803 222.333 181.978 222.333C176.878 222.333 171.778 221.393 166.353 221.072C159.653 220.763 152.954 220.133 146.266 219.812C142.116 219.503 133.516 219.182 130.316 216.97C125.529 221.381 94.8086 264.889 89.071 274.663Z" fill="#5094BA"/>
<mask id="mask0_24_3623" style="mask-type:luminance" maskUnits="userSpaceOnUse" x="89" y="216" width="130" height="87">
<path d="M89.071 274.663C104.058 268.04 138.435 284.413 139.313 297.243C139.566 296.684 153.278 279.705 159.653 271.512C159.978 280.026 159.329 289.17 159.653 297.992C193.91 311.464 218.328 292 218.328 292C213.228 276.233 202.703 223.593 197.603 221.702C194.091 220.121 185.803 222.333 181.978 222.333C176.878 222.333 171.778 221.393 166.353 221.072C159.653 220.763 152.954 220.133 146.266 219.812C142.116 219.503 133.516 219.182 130.316 216.97C125.529 221.381 94.8086 264.889 89.071 274.663Z" fill="white"/>
</mask>
<g mask="url(#mask0_24_3623)">
<path d="M97.0697 258.908C98.5612 264.794 106.632 260.799 108.978 258.064C113.873 264.794 124.711 254.282 118.336 247.35C120.886 246.72 122.582 245.674 124.073 243.569C125.986 246.72 131.086 246.72 133.431 243.569C135.344 240.834 134.49 236.839 132.577 234.116C128.752 228.444 120.669 228.028 114.511 228.028L97.0817 258.92L97.0697 258.908Z" fill="#D15656"/>
<path d="M131.363 251.44C131.363 252.891 129.534 254.068 127.285 254.068C125.036 254.068 123.208 252.891 123.208 251.44C123.208 249.99 125.036 248.812 127.285 248.812C129.534 248.812 131.363 249.99 131.363 251.44Z" fill="#D15656"/>
<path d="M138.099 248.503C138.099 249.145 137.293 249.657 136.294 249.657C135.296 249.657 134.49 249.133 134.49 248.503C134.49 247.873 135.296 247.35 136.294 247.35C137.293 247.35 138.099 247.873 138.099 248.503Z" fill="#D15656"/>
<path d="M143.836 236.946C143.836 237.933 142.549 238.73 140.973 238.73C139.398 238.73 138.111 237.933 138.111 236.946C138.111 235.959 139.398 235.163 140.973 235.163C142.549 235.163 143.836 235.959 143.836 236.946Z" fill="#D15656"/>
<path d="M120.453 265.626C120.453 266.209 118.986 266.672 117.181 266.672C115.377 266.672 113.91 266.197 113.91 265.626C113.91 265.055 115.377 264.58 117.181 264.58C118.986 264.58 120.453 265.055 120.453 265.626Z" fill="#D15656"/>
</g>
<mask id="mask1_24_3623" style="mask-type:luminance" maskUnits="userSpaceOnUse" x="89" y="216" width="130" height="87">
<path d="M89.071 274.663C104.058 268.04 138.435 284.413 139.313 297.243C139.566 296.684 153.278 279.705 159.653 271.512C159.978 280.026 159.329 289.17 159.653 297.992C193.91 311.464 218.328 292 218.328 292C213.228 276.233 202.703 223.593 197.603 221.702C194.091 220.121 185.803 222.333 181.978 222.333C176.878 222.333 171.778 221.393 166.353 221.072C159.653 220.763 152.954 220.133 146.266 219.812C142.116 219.503 133.516 219.182 130.316 216.97C125.529 221.381 94.8086 264.889 89.071 274.663Z" fill="white"/>
</mask>
<g mask="url(#mask1_24_3623)">
<path d="M170.395 305.579C168.422 303.878 168.182 299.503 169.168 297.315C170.647 292.701 176.782 291.964 180.968 291.001C179.007 285.412 174.088 277.148 181.208 272.535C190.302 266.709 197.928 275.448 199.648 283.712C200.634 277.636 202.102 273.26 209.475 272.785C207.262 267.684 205.542 258.207 213.156 256.506C219.795 254.806 219.302 266.471 220.529 270.835C222.249 276.673 227.169 283.712 227.662 289.538C228.155 295.127 213.901 300.716 208.741 302.166C201.861 304.354 195.462 307.029 188.834 308.968C183.674 310.668 179.007 309.217 174.328 308.242L170.395 305.567V305.579Z" fill="#FFA6D1"/>
<path d="M202.595 264.009C202.595 266.292 200.225 268.159 197.314 268.159C194.403 268.159 192.034 266.304 192.034 264.009C192.034 261.714 194.403 259.859 197.314 259.859C200.225 259.859 202.595 261.714 202.595 264.009Z" fill="#FFA6D1"/>
<path d="M184.408 264.033C184.408 264.841 183.421 265.495 182.194 265.495C180.968 265.495 179.981 264.841 179.981 264.033C179.981 263.224 180.968 262.57 182.194 262.57C183.421 262.57 184.408 263.224 184.408 264.033Z" fill="#FFA6D1"/>
<path d="M192.021 251.036C192.021 252.439 190.975 253.593 189.688 253.593C188.401 253.593 187.354 252.451 187.354 251.036C187.354 249.621 188.401 248.48 189.688 248.48C190.975 248.48 192.021 249.621 192.021 251.036Z" fill="#FFA6D1"/>
</g>
<path d="M55.596 121.774C51.771 121.144 48.5835 127.136 53.3587 128.076C50.4839 130.287 49.5337 134.699 53.6835 135.959C57.5085 137.22 65.4833 130.597 59.421 128.397C62.6085 125.876 61.3335 121.774 57.8212 121.465L55.584 121.786L55.596 121.774Z" fill="#AED35E"/>
<path d="M8.80572 117.351C7.53071 120.502 10.4055 123.023 13.2682 120.823C17.0933 117.351 11.9932 115.781 9.11846 116.721L8.79369 117.351H8.80572Z" fill="#AED35E"/>
<path d="M16.7802 72.5826C15.8179 74.7942 17.1049 78.2544 19.9677 76.3638C23.1552 74.7823 20.6052 71.6313 17.7304 71.9524L16.7681 72.5826H16.7802Z" fill="#AED35E"/>
<path d="M-10.2354 107.041C-14.0604 94.7464 -29.0478 112.083 -19.1604 114.604C-15.9729 115.234 -16.9232 110.501 -21.073 110.501C-24.898 110.822 -27.448 114.913 -28.0855 118.385C-29.6853 125.638 -18.8357 131.631 -17.2479 123.426C-8.63564 133.201 2.2019 113.343 -10.5481 112.713C-8.63564 111.132 -9.27314 110.192 -9.58588 108.611L-10.2234 107.029L-10.2354 107.041Z" fill="#AED35E"/>
<path d="M30.8176 152.345C27.9428 152.975 24.4425 155.496 25.7175 158.647C29.2298 169.681 47.4046 151.714 35.2801 151.084C39.7426 146.982 30.4928 141.31 27.9428 148.873C25.7055 155.496 32.7301 156.435 31.1303 152.345H30.8055H30.8176Z" fill="#AED35E"/>
<path d="M20.9303 169.681C19.9681 170.632 18.6931 174.413 19.9681 175.674C22.8428 178.194 27.3054 170.311 21.2431 169.681H20.9183H20.9303Z" fill="#AED35E"/>
<path d="M34.6425 190.489C33.6802 191.75 32.7299 196.482 35.6047 196.791C38.7922 197.1 38.7922 190.798 34.9672 190.489H34.6425Z" fill="#AED35E"/>
<path d="M40.3557 55.6979C42.6772 52.7252 44.6739 49.5267 45.8046 47.9928C43.868 50.5731 42.0637 53.1414 40.3557 55.6979Z" fill="#AED35E"/>
<path d="M83.8743 109.277C80.7469 112.142 73.5419 111.524 71.6294 105.27C70.9678 106.685 68.5983 107.636 66.2888 107.802C67.1428 109.562 68.069 111.358 69.0794 113.248C79.9169 133.64 106.716 144.14 107.666 144.461H107.991C109.591 140.359 111.179 135.947 113.416 131.857C101.797 127.291 91.4521 119.265 83.8863 109.277H83.8743Z" fill="#FFD8D4"/>
<path d="M71.6296 105.27C73.5422 111.524 80.7471 112.142 83.8745 109.277C73.1572 95.1389 68.0452 77.089 72.9046 59.3483C74.8172 52.4161 76.4169 44.8418 80.5547 38.5398C84.067 32.868 92.0297 27.5053 92.0297 20.2521L83.1047 5.11538C76.7297 0.703974 60.7801 16.78 56.9551 21.1914C46.755 33.1771 28.3035 59.8596 31.1182 62.1782C33.9689 62.8798 37.409 59.4553 40.3439 55.6979C42.0519 53.1414 43.8562 50.573 45.7927 47.9928C44.6621 49.5267 42.6654 52.7133 40.3439 55.6979C21.0023 84.6871 16.3113 111.049 18.3561 111.049C22.6622 112.463 29.5184 91.1912 34.9432 82.0474C33.0307 90.5611 25.4287 113.415 26.9684 134.069C27.233 137.66 30.0115 138.064 31.4309 132.808C34.9432 119.883 35.3281 111.774 47.3805 74.485C46.1055 82.0474 38.8404 110.953 43.8682 111.049C47.8015 112 55.668 75.1152 59.1803 70.0617C59.1803 76.9939 59.493 84.485 60.7801 91.7382C61.9709 97.8381 63.8112 102.689 66.2891 107.802C68.5985 107.636 70.9681 106.685 71.6296 105.27Z" fill="#AED35E"/>
<path d="M64.6171 54.9371C66.5296 46.4234 71.3169 37.9098 76.4169 30.9776C68.1293 30.3474 74.5044 17.7315 78.0166 15.5317C82.4792 12.6899 93.004 9.85993 97.4665 13.3201C104.166 18.9919 98.8498 27.0299 92.4747 28.9205C88.0122 30.1809 86.629 30.0263 83.7542 34.1167C81.5169 37.2677 80.7471 38.5519 78.8346 41.7029C75.9598 46.1143 74.6968 52.1666 72.9166 59.3366" fill="#AED35E"/>
<path d="M64.6172 54.937C65.4953 50.5375 67.1191 46.3164 69.0797 42.2736C71.0524 38.2308 73.458 34.402 76.0802 30.7397L76.3929 31.3937C75.3224 31.3224 74.1557 31.037 73.2776 30.2522C72.3755 29.4674 71.9785 28.3022 71.8943 27.2201C71.75 25.0204 72.4476 22.9633 73.3017 21.0608C74.1918 19.1583 75.2743 17.3509 76.826 15.817C77.6439 15.0204 78.6302 14.5566 79.5684 14.081C80.5187 13.6173 81.493 13.2249 82.4793 12.8682C84.464 12.1666 86.5088 11.6553 88.6017 11.3581C90.6947 11.0846 92.8598 10.9895 94.9888 11.5364C96.0473 11.8099 97.0817 12.2499 97.9959 12.999C98.8018 13.7005 99.5355 14.5329 100.089 15.4841C101.231 17.3747 101.448 19.7885 100.75 21.8456C99.3551 25.9835 95.4699 28.9442 91.3322 29.7647C89.3114 30.2641 87.3387 30.6922 85.9675 32.1428C85.2578 32.8206 84.6444 33.6291 84.055 34.4496C83.4536 35.2819 82.8522 36.1024 82.2748 36.9466C80.0496 40.3711 77.5958 43.7005 76.3087 47.5768C74.9375 51.4174 74.0113 55.4127 72.9288 59.3484C73.855 55.3651 74.6609 51.358 75.9479 47.446C76.5974 45.5078 77.3913 43.5697 78.4739 41.8098C79.4963 40.0382 80.5427 38.2665 81.6614 36.5423C82.2267 35.6743 82.8041 34.8301 83.3814 33.9858C83.9708 33.1297 84.5843 32.2855 85.342 31.5245C86.0878 30.7635 87.038 30.1214 88.0484 29.729C89.0588 29.3366 90.0692 29.0869 91.0555 28.8016C93.0642 28.3497 94.8444 27.5293 96.372 26.2451C97.8756 24.9847 99.1025 23.3557 99.6798 21.5245C100.269 19.6934 100.077 17.6839 99.0784 16.0549C98.5973 15.2344 97.9478 14.5091 97.202 13.867C96.5164 13.3081 95.6142 12.9039 94.676 12.6779C92.7876 12.2142 90.7428 12.2618 88.7461 12.5115C86.7493 12.7731 84.7647 13.2606 82.8401 13.9146C81.8899 14.2475 80.9397 14.6161 80.0375 15.0561C79.1474 15.5079 78.2333 15.936 77.5597 16.5899C76.1764 17.9455 75.0939 19.6934 74.2399 21.4889C73.4099 23.2843 72.7724 25.2463 72.8566 27.1488C72.9047 28.0881 73.2175 28.9918 73.879 29.5982C74.5286 30.2046 75.4908 30.49 76.4531 30.5733L77.2109 30.6446L76.7658 31.2391C74.0715 34.8063 71.6538 38.5756 69.5488 42.5233C67.4438 46.4591 65.7238 50.6208 64.6292 54.9608L64.6172 54.937Z" fill="#45AF33"/>
<path d="M83.7543 13.9501C82.7921 15.5316 78.967 17.4222 77.0545 16.1618C69.0797 12.0595 82.7921 -1.80489 85.3421 4.81816L83.7423 13.962L83.7543 13.9501Z" fill="#AED35E"/>
<path d="M83.7543 13.9499C83.4536 14.5088 82.9844 14.9725 82.4792 15.3649C81.962 15.7573 81.4087 16.0902 80.8073 16.3518C80.2179 16.6134 79.5804 16.8275 78.8948 16.8869C78.2212 16.9464 77.4755 16.8869 76.838 16.4826L76.874 16.5064C76.02 16.1021 75.2021 15.4838 74.6849 14.6158C74.1436 13.7597 73.9993 12.7133 74.0835 11.7621C74.2639 9.8239 75.2141 8.12355 76.3328 6.66101C77.4755 5.21036 78.8828 3.93807 80.6149 3.09384C81.4809 2.70145 82.4793 2.3923 83.5618 2.58254C84.0911 2.68956 84.6203 2.95115 84.9932 3.34354C85.3661 3.73593 85.6187 4.18777 85.775 4.6515L85.8231 4.7823L85.7991 4.88932C85.1736 7.92141 84.5241 10.9535 83.7543 13.9499ZM83.7543 13.9499C84.0429 10.8584 84.4639 7.79062 84.8969 4.73474L84.921 4.97255C84.6083 4.23533 84.067 3.71215 83.3573 3.60513C82.6476 3.49812 81.8417 3.73593 81.108 4.10454C79.6165 4.84175 78.3295 6.05459 77.2589 7.37445C76.2125 8.70619 75.3705 10.252 75.154 11.8572C75.0578 12.6539 75.166 13.4505 75.5269 14.1402C75.8757 14.8298 76.5012 15.4006 77.2349 15.8049L77.271 15.8286C77.692 16.1378 78.2693 16.2448 78.8587 16.2329C79.4481 16.2091 80.0495 16.1021 80.6389 15.9119C81.2283 15.7216 81.7936 15.4719 82.3229 15.1509C82.8521 14.8298 83.3694 14.4612 83.7422 13.9499H83.7543Z" fill="#45AF33"/>
<path d="M89.4917 13.3201C86.6169 13.9503 83.4294 15.2107 81.5169 12.6899C76.4169 6.06688 89.8045 -2.44677 92.0417 5.12753L89.4917 13.3201Z" fill="#AED35E"/>
<path d="M89.4919 13.32C88.3371 13.6768 87.1944 14.081 85.9796 14.3307C84.7888 14.5923 83.3935 14.6161 82.2267 13.8789C81.6614 13.5341 81.1923 12.9871 80.8435 12.4996C80.4706 11.9526 80.1819 11.37 80.0135 10.7279C79.6767 9.44371 79.8692 8.05251 80.4105 6.87534C81.5291 4.52101 83.622 2.7612 86.0758 1.95265C87.3027 1.56026 88.722 1.42946 90.0211 1.96454C90.6586 2.23802 91.236 2.67797 91.6449 3.22494C92.0539 3.7719 92.3065 4.39021 92.4749 5.00852L92.511 5.15121L92.4749 5.25822C91.9938 6.60186 91.5367 7.96928 91.0435 9.31291C90.5263 10.6565 90.0452 12.0002 89.5039 13.3319L89.4919 13.32ZM89.4919 13.32C89.7926 11.9169 90.1655 10.5376 90.5022 9.14644C90.8631 7.75525 91.248 6.38783 91.6209 4.99663V5.24633C91.2721 4.18807 90.5744 3.29628 89.6001 2.93956C88.6258 2.57095 87.4831 2.70175 86.4246 3.04658C84.3197 3.78379 82.3951 5.36524 81.4329 7.35097C80.9397 8.33788 80.7593 9.4556 80.9878 10.502C81.084 11.0252 81.3006 11.5483 81.5772 12.0121C81.8899 12.5234 82.1906 12.9276 82.6477 13.2487C83.5138 13.9027 84.7286 13.974 85.9074 13.8789C87.0982 13.7719 88.289 13.4865 89.4919 13.32Z" fill="#45AF33"/>
<path d="M95.8667 12.3806C92.9919 16.1618 86.3041 14.5923 87.2544 9.22963C88.2046 1.97637 101.604 -4.32563 100.967 6.70882L95.8667 12.3806Z" fill="#AED35E"/>
<path d="M95.8668 12.3805C94.1708 14.7467 90.2736 15.3769 88.0243 13.1653C87.4831 12.6183 87.1102 11.9049 86.9418 11.1558C86.7614 10.4067 86.8095 9.59812 86.9057 8.88468C87.1102 7.3508 87.7958 5.93582 88.71 4.73487C89.6241 3.52203 90.7788 2.49945 92.0779 1.70278C93.377 0.917999 94.8444 0.311579 96.4322 0.228345C97.226 0.180783 98.056 0.299689 98.7897 0.668296C99.5355 1.02501 100.137 1.63143 100.51 2.32109C101.243 3.72417 101.268 5.26995 101.135 6.70871V6.78005L101.087 6.81572C99.2829 8.62309 97.5628 10.4899 95.8548 12.3686L95.8668 12.3805ZM95.8668 12.3805C97.5508 10.478 99.2348 8.56364 100.835 6.5898L100.786 6.69682C100.798 5.28184 100.618 3.80741 99.8963 2.68969C99.1746 1.53631 97.8274 1.12014 96.5043 1.27472C95.1812 1.4174 93.8701 1.97626 92.7034 2.70158C91.5246 3.42691 90.4661 4.35437 89.576 5.41264C88.6979 6.4709 87.9883 7.69563 87.6875 9.01548C87.3387 10.371 87.4349 11.8098 88.3371 12.8799C89.2151 13.9382 90.7067 14.497 92.138 14.3781C93.5935 14.3068 94.9647 13.5339 95.8548 12.3805H95.8668Z" fill="#45AF33"/>
<path d="M98.1041 15.8407C92.3666 17.7313 92.0418 10.7991 94.5919 7.32704C101.292 -2.12597 111.492 6.37579 102.567 13.9501L98.1041 15.8407Z" fill="#AED35E"/>
<path d="M98.1044 15.8408C97.3947 16.0786 96.6489 16.2332 95.8911 16.1619C95.1454 16.0905 94.3996 15.7576 93.9185 15.1631C92.9442 13.9621 92.7638 12.3212 92.9322 10.8349C93.0885 9.33668 93.6779 7.81468 94.6041 6.58995C95.4942 5.32955 96.6128 4.19995 98.0322 3.42706C99.4275 2.66606 101.172 2.30935 102.795 2.77308C104.419 3.20114 105.803 4.49721 106.248 6.06677C106.729 7.64821 106.368 9.31289 105.622 10.6327C104.888 11.9883 103.782 13.0703 102.627 13.9978V14.0097C101.123 14.5923 99.6199 15.2106 98.1284 15.8289L98.1044 15.8408ZM98.1044 15.8408C99.5839 15.1987 101.075 14.5566 102.543 13.8789H102.519C103.613 12.9038 104.564 11.7267 105.141 10.4068C105.73 9.09886 105.875 7.61254 105.369 6.36403C104.876 5.11552 103.77 4.19995 102.483 3.8789C101.196 3.54597 99.7883 3.80756 98.5614 4.42587C97.3225 5.04418 96.24 6.01921 95.3138 7.10125C94.3395 8.18329 93.714 9.47936 93.4253 10.9062C93.1607 12.2855 93.1367 13.8789 94.0268 15.0798C94.4598 15.6625 95.1574 16.043 95.9032 16.1262C96.6489 16.2094 97.3947 16.0786 98.1044 15.8527V15.8408Z" fill="#45AF33"/>
<path d="M83.1167 28.1356C82.7919 21.2034 90.7667 19.943 95.8788 19.6219C96.0872 19.6219 96.0872 19.6219 95.8788 19.6219C92.0537 19.6219 82.1664 15.8407 87.904 11.4293C90.7787 9.5387 100.979 11.4293 102.891 13.9501C106.716 18.6825 101.941 25.6148 97.4665 28.1356C93.9542 30.0262 86.7132 28.4804 83.658 33.4982" fill="#AED35E"/>
<path d="M83.1168 28.1354C82.9965 26.7799 83.2131 25.353 83.9468 24.1521C84.6565 22.9392 85.7871 22.0118 87.026 21.3459C89.5159 20.0023 92.3546 19.5623 95.1091 19.277L95.6263 19.2294L95.915 19.2056H96.0473H96.1075C96.1075 20.8703 96.1075 19.6693 96.1075 20.038H96.0714C95.7225 20.038 95.3497 20.0379 94.9888 20.0023C94.2671 19.9309 93.5695 19.8001 92.8839 19.6337C91.5126 19.3007 90.1655 18.8132 88.9145 18.1355C88.289 17.7906 87.6756 17.3982 87.1103 16.9107C86.5569 16.4232 86.0277 15.8287 85.7631 15.0439C85.4744 14.2591 85.6308 13.3198 86.0397 12.642C86.4367 11.9524 86.99 11.4292 87.5673 10.9773H87.5914L87.6034 10.9536C88.6499 10.3115 89.7324 10.1926 90.7789 10.1093C91.8254 10.038 92.8718 10.0736 93.8942 10.1688C95.9511 10.3709 97.9718 10.8109 99.9204 11.5124C100.895 11.881 101.857 12.2972 102.747 12.9987C102.964 13.1771 103.192 13.3911 103.361 13.6289C103.505 13.8192 103.685 14.057 103.818 14.2829C104.106 14.7466 104.335 15.2342 104.503 15.7573C105.177 17.8501 104.72 20.0855 103.818 21.9404C102.903 23.8073 101.58 25.4244 100.029 26.7799C99.2469 27.4458 98.4169 28.0522 97.4667 28.5278C96.4924 28.9797 95.4699 29.1818 94.4596 29.3364C92.4508 29.6336 90.4421 29.7288 88.5055 30.252C86.593 30.7395 84.7527 31.7858 83.6581 33.4981C84.1513 32.6301 84.8369 31.8572 85.6668 31.2627C86.4968 30.6681 87.435 30.252 88.4093 29.9428C90.3579 29.3245 92.3907 29.1224 94.3513 28.7537C95.3256 28.5754 96.2999 28.3495 97.1419 27.9214C97.9718 27.4696 98.7657 26.8513 99.4874 26.1973C100.919 24.8655 102.122 23.2841 102.903 21.5362C103.697 19.812 104.058 17.8382 103.469 16.1022C103.324 15.6741 103.12 15.2579 102.879 14.8774C102.747 14.6753 102.639 14.5207 102.47 14.3067C102.338 14.1402 102.206 14.0094 102.025 13.8667C101.328 13.3198 100.426 12.9274 99.5115 12.5944C97.6711 11.9405 95.7105 11.56 93.7619 11.3578C92.7876 11.2508 91.8013 11.2151 90.839 11.2627C89.8888 11.3222 88.9025 11.4648 88.2169 11.8929L88.2529 11.8691C87.2305 12.6301 86.4126 13.7003 86.7855 14.7229C87.1463 15.7692 88.277 16.6135 89.4077 17.2437C90.5624 17.8739 91.8254 18.3614 93.1124 18.73C93.7619 18.9083 94.4115 19.051 95.073 19.1343C95.4098 19.1818 95.7105 19.1937 96.0593 19.2056H96.0954C96.0954 19.5742 96.0954 18.3733 96.0954 20.038H96.0353H95.903H95.6744L95.1572 20.0736C92.4388 20.2401 89.6963 20.6444 87.2426 21.774C86.0277 22.3447 84.9091 23.1652 84.1753 24.2829C83.4296 25.4006 83.0928 26.768 83.1168 28.1235V28.1354Z" fill="#45AF33"/>
<path d="M293.432 121.774C297.258 121.144 300.445 127.136 295.67 128.076C298.545 130.287 299.495 134.699 295.357 135.959C291.532 137.22 283.557 130.597 289.619 128.397C286.432 125.876 287.707 121.774 291.219 121.465L293.457 121.786L293.432 121.774Z" fill="#3A8CC9"/>
<path d="M328.194 117.351C329.469 120.502 326.595 123.023 323.732 120.823C319.907 117.351 325.007 115.781 327.882 116.721L328.194 117.351Z" fill="#3A8CC9"/>
<path d="M320.22 72.5827C321.182 74.7943 319.907 78.2545 317.032 76.3639C313.845 74.7824 316.395 71.6314 319.269 71.9525L320.22 72.5827Z" fill="#3A8CC9"/>
<path d="M347.235 130.823C351.06 118.528 366.048 135.864 356.16 138.385C352.973 139.015 353.923 134.283 358.073 134.283C361.898 134.604 364.448 138.694 365.085 142.166C366.685 149.42 355.836 155.412 354.248 147.208C345.635 156.982 334.798 137.125 347.548 136.494C345.635 134.913 346.273 133.974 346.598 132.392L347.235 130.811V130.823Z" fill="#3A8CC9"/>
<path d="M320.628 147.588C323.503 148.219 327.003 150.739 325.728 153.89C322.216 164.925 304.041 146.958 316.166 146.328C311.703 142.226 320.953 136.554 323.503 144.116C325.74 150.739 318.716 151.679 320.316 147.588H320.64H320.628Z" fill="#3A8CC9"/>
<path d="M316.07 169.681C317.02 170.632 318.307 174.413 317.02 175.674C314.145 178.194 309.683 170.311 315.745 169.681H316.07Z" fill="#3A8CC9"/>
<path d="M302.357 190.49C303.32 191.75 304.27 196.483 301.407 196.792C298.22 197.101 298.22 190.799 302.045 190.49H302.357Z" fill="#3A8CC9"/>
<path d="M296.644 55.698C294.322 52.7254 292.326 49.5268 291.207 47.9929C293.144 50.5732 294.948 53.1415 296.644 55.698Z" fill="#3A8CC9"/>
<path d="M253.125 109.277C256.253 112.142 263.458 111.524 265.37 105.27C266.032 106.685 268.401 107.636 270.711 107.802C269.857 109.562 268.931 111.358 267.92 113.248C257.083 133.64 230.283 144.14 229.333 144.461H229.02C227.421 140.359 225.833 135.947 223.596 131.857C235.215 127.291 245.559 119.265 253.125 109.277Z" fill="#FFD8D4"/>
<path d="M265.37 105.27C263.458 111.524 256.253 112.142 253.125 109.277C263.843 95.1389 268.955 77.089 264.095 59.3483C262.183 52.4161 260.583 44.8418 256.445 38.5398C252.933 32.868 244.97 27.5053 244.97 20.2521L253.895 5.11538C260.27 0.703974 276.22 16.78 280.045 21.1914C290.245 33.1771 308.696 59.8596 305.87 62.1782C303.019 62.8798 299.579 59.4553 296.644 55.6979C294.948 53.1414 293.144 50.573 291.207 47.9928C292.338 49.5267 294.334 52.7133 296.644 55.6979C315.985 84.6871 320.677 111.049 318.632 111.049C314.326 112.463 307.469 91.1912 302.045 82.0474C303.957 90.5611 311.559 113.415 310.019 134.069C309.755 137.66 306.976 138.064 305.557 132.808C302.045 119.883 301.672 111.774 289.607 74.485C290.882 82.0474 298.147 110.953 293.12 111.049C289.186 112 281.32 75.1152 277.807 70.0617C277.807 76.9939 277.483 84.485 276.208 91.7382C275.017 97.8381 273.177 102.689 270.699 107.802C268.389 107.636 266.02 106.685 265.358 105.27H265.37Z" fill="#3A8CC9"/>
<path d="M272.383 54.9373C270.47 46.4237 265.683 37.91 260.583 30.9778C268.871 30.3476 262.495 17.7317 258.983 15.532C254.521 12.6901 243.996 9.86017 239.533 13.3203C232.834 18.9921 238.15 27.0302 244.525 28.9208C248.988 30.1812 250.371 30.0266 253.246 34.1169C255.483 37.2679 256.253 38.5521 258.165 41.7031C261.04 46.1145 262.303 52.1668 264.083 59.3369" fill="#3A8CC9"/>
<path d="M272.383 54.9374C271.276 50.5973 269.556 46.4475 267.463 42.4998C265.358 38.5641 262.94 34.7829 260.246 31.2157L259.801 30.6212L260.559 30.5498C261.521 30.4666 262.483 30.1812 263.133 29.5748C263.794 28.9684 264.107 28.0647 264.155 27.1253C264.239 25.2228 263.602 23.2609 262.772 21.4654C261.918 19.6699 260.835 17.922 259.452 16.5665C258.791 15.9125 257.876 15.4845 256.974 15.0326C256.072 14.5927 255.122 14.2241 254.172 13.8911C252.259 13.2371 250.274 12.7377 248.266 12.488C246.269 12.2383 244.224 12.1908 242.336 12.6545C241.398 12.8804 240.495 13.2847 239.81 13.8436C239.064 14.4856 238.415 15.211 237.933 16.0314C236.935 17.6604 236.743 19.6699 237.332 21.5011C237.909 23.3322 239.136 24.9731 240.64 26.2216C242.167 27.5058 243.948 28.3263 245.956 28.7781C246.943 29.0516 247.953 29.3013 248.963 29.7056C249.974 30.098 250.924 30.7282 251.67 31.5011C252.428 32.2621 253.053 33.1063 253.63 33.9624C254.208 34.8066 254.785 35.6628 255.35 36.5189C256.469 38.243 257.516 40.0147 258.538 41.7864C259.62 43.5581 260.402 45.4844 261.064 47.4225C262.351 51.3227 263.169 55.3417 264.083 59.325C263 55.3773 262.086 51.3821 260.703 47.5533C259.416 43.677 256.962 40.3477 254.737 36.9232C254.16 36.0789 253.558 35.2585 252.957 34.4261C252.367 33.6057 251.754 32.809 251.044 32.1194C249.673 30.6806 247.7 30.2526 245.68 29.7413C241.542 28.9089 237.657 25.9601 236.261 21.8221C235.564 19.7651 235.78 17.3513 236.923 15.4607C237.476 14.5094 238.21 13.6771 239.016 12.9755C239.918 12.2264 240.952 11.7865 242.023 11.513C244.152 10.966 246.317 11.0612 248.41 11.3346C250.503 11.62 252.548 12.1432 254.533 12.8447C255.519 13.2015 256.493 13.5939 257.443 14.0576C258.37 14.5332 259.368 14.9969 260.186 15.7936C261.737 17.3275 262.808 19.1468 263.71 21.0374C264.552 22.9398 265.262 24.9969 265.117 27.1967C265.033 28.2787 264.636 29.4559 263.734 30.2288C262.844 31.0135 261.689 31.2989 260.619 31.3703L260.932 30.7163C263.554 34.3786 265.947 38.2073 267.932 42.2501C269.893 46.2929 271.517 50.526 272.395 54.9136L272.383 54.9374Z" fill="#006699"/>
<path d="M253.246 13.9502C254.196 15.5317 258.033 17.4223 259.946 16.1619C267.92 12.0596 254.208 -1.80477 251.658 4.81828L253.258 13.9621L253.246 13.9502Z" fill="#3A8CC9"/>
<path d="M253.246 13.9501C253.619 14.4614 254.148 14.8181 254.665 15.151C255.194 15.4721 255.772 15.7218 256.361 15.912C256.95 16.1023 257.552 16.2093 258.141 16.233C258.731 16.2449 259.308 16.1379 259.729 15.8288L259.765 15.805C260.499 15.3888 261.124 14.83 261.473 14.1403C261.822 13.4507 261.942 12.654 261.846 11.8573C261.63 10.2521 260.788 8.70631 259.741 7.37457C258.683 6.05471 257.384 4.84188 255.892 4.10466C255.158 3.73605 254.352 3.49824 253.643 3.60526C252.945 3.71227 252.392 4.22357 252.079 4.97267L252.103 4.73486C252.548 7.80263 252.957 10.8704 253.246 13.9501ZM253.246 13.9501C252.476 10.9417 251.826 7.92154 251.201 4.88944L251.177 4.78242L251.225 4.65163C251.381 4.18789 251.634 3.72416 252.007 3.34366C252.38 2.95127 252.909 2.68968 253.438 2.58267C254.521 2.39242 255.519 2.70157 256.385 3.09396C258.117 3.93819 259.525 5.21048 260.667 6.66113C261.786 8.12368 262.736 9.81214 262.917 11.7622C263.001 12.7134 262.844 13.7598 262.315 14.6159C261.798 15.4839 260.98 16.1023 260.126 16.5065L260.162 16.4827C259.513 16.8751 258.767 16.9465 258.105 16.887C257.432 16.8276 256.794 16.6254 256.193 16.352C255.603 16.0785 255.038 15.7574 254.521 15.365C254.016 14.9726 253.546 14.5089 253.246 13.9501Z" fill="#006699"/>
<path d="M247.508 13.3201C250.383 13.9503 253.57 15.2107 255.483 12.6899C260.583 6.06688 247.195 -2.44677 244.958 5.12753L247.508 13.3201Z" fill="#3A8CC9"/>
<path d="M247.508 13.3202C248.711 13.4867 249.902 13.772 251.093 13.8791C252.271 13.9742 253.474 13.9028 254.352 13.2489C254.797 12.9278 255.11 12.5235 255.423 12.0122C255.699 11.5485 255.904 11.0253 256.012 10.5021C256.241 9.44388 256.06 8.33806 255.567 7.35114C254.605 5.36541 252.692 3.78397 250.575 3.04675C249.517 2.70192 248.374 2.58302 247.4 2.93973C246.426 3.29645 245.74 4.18825 245.379 5.24651V4.9968C245.752 6.37611 246.137 7.75542 246.498 9.14661C246.835 10.5378 247.207 11.9171 247.508 13.3202ZM247.508 13.3202C246.967 11.9885 246.486 10.6448 245.969 9.30119C245.475 7.95756 245.018 6.60203 244.537 5.24651L244.501 5.13949L244.537 4.9968C244.706 4.37849 244.958 3.76018 245.367 3.21322C245.764 2.66625 246.353 2.2263 246.991 1.95282C248.29 1.41774 249.709 1.54854 250.936 1.94093C253.402 2.76138 255.483 4.52118 256.602 6.86362C257.131 8.04079 257.323 9.43199 256.999 10.7162C256.83 11.3583 256.541 11.9409 256.169 12.4879C255.832 12.9754 255.363 13.5342 254.785 13.8672C253.619 14.6044 252.211 14.5687 251.033 14.319C249.818 14.0693 248.675 13.665 247.52 13.3083L247.508 13.3202Z" fill="#006699"/>
<path d="M241.133 12.3809C244.008 16.1621 250.696 14.5925 249.745 9.22987C248.783 1.97662 235.396 -4.32539 236.033 6.70907L241.133 12.3809Z" fill="#3A8CC9"/>
<path d="M241.133 12.3805C242.023 13.522 243.394 14.2949 244.85 14.3781C246.281 14.497 247.773 13.9501 248.651 12.8799C249.565 11.8098 249.649 10.371 249.3 9.01548C249 7.69563 248.29 6.4709 247.412 5.41264C246.522 4.35438 245.463 3.42691 244.284 2.70159C243.118 1.97626 241.807 1.4174 240.483 1.27472C239.172 1.12014 237.813 1.53631 237.092 2.6897C236.358 3.8193 236.189 5.29373 236.201 6.69682L236.153 6.58981C237.753 8.56364 239.437 10.478 241.121 12.3805H241.133ZM241.133 12.3805C239.413 10.5018 237.693 8.62309 235.901 6.82762L235.865 6.79194V6.7206C235.732 5.28184 235.744 3.73607 236.49 2.33298C236.863 1.64333 237.464 1.03691 238.21 0.680189C238.956 0.323472 239.786 0.192675 240.568 0.240238C242.167 0.323472 243.623 0.929891 244.922 1.71467C246.209 2.52323 247.376 3.53393 248.29 4.74677C249.204 5.94771 249.89 7.36269 250.094 8.89658C250.19 9.61001 250.238 10.4186 250.058 11.1677C249.878 11.9168 249.517 12.6302 248.976 13.1772C246.714 15.3888 242.817 14.7586 241.133 12.3924V12.3805Z" fill="#006699"/>
<path d="M238.896 15.8408C244.633 17.7314 244.958 10.7992 242.408 7.32716C235.708 -2.12585 225.508 6.37592 234.433 13.9502L238.896 15.8408Z" fill="#3A8CC9"/>
<path d="M238.896 15.8409C239.605 16.0669 240.363 16.2096 241.097 16.1144C241.843 16.0431 242.54 15.6507 242.973 15.0681C243.864 13.879 243.839 12.2857 243.575 10.8945C243.286 9.46759 242.661 8.18341 241.686 7.10137C240.76 6.01933 239.678 5.0443 238.439 4.42599C237.212 3.79579 235.805 3.54609 234.518 3.87902C233.23 4.20007 232.136 5.11564 231.631 6.36415C231.113 7.61266 231.27 9.09899 231.859 10.4069C232.437 11.7268 233.387 12.8921 234.481 13.8909H234.457C235.925 14.5568 237.404 15.1989 238.896 15.8409ZM238.896 15.8409C237.404 15.2226 235.913 14.6043 234.397 14.0217V14.0098C233.23 13.0704 232.136 11.9884 231.402 10.6448C230.656 9.31302 230.296 7.66023 230.777 6.07878C231.234 4.49733 232.617 3.20126 234.229 2.7732C235.853 2.30947 237.597 2.66619 238.992 3.42718C240.399 4.20007 241.53 5.32967 242.408 6.59008C243.322 7.80291 243.912 9.3368 244.08 10.835C244.248 12.3213 244.08 13.9622 243.094 15.1632C242.601 15.7577 241.867 16.0906 241.121 16.162C240.375 16.2333 239.618 16.0788 238.908 15.8409H238.896Z" fill="#006699"/>
<path d="M253.883 28.1356C254.196 21.2034 246.233 19.943 241.121 19.6219C240.912 19.6219 240.912 19.6219 241.121 19.6219C244.946 19.6219 254.833 15.8407 249.096 11.4293C246.221 9.5387 236.021 11.4293 234.108 13.9501C230.283 18.6825 235.071 25.6148 239.533 28.1356C243.045 30.0262 250.286 28.4804 253.342 33.4982" fill="#3A8CC9"/>
<path d="M253.883 28.1356C253.895 26.7801 253.57 25.4007 252.825 24.2949C252.079 23.1772 250.96 22.3568 249.757 21.786C247.304 20.6564 244.561 20.2521 241.843 20.0857L241.338 20.0619H241.109H240.977H240.917C240.917 18.3972 240.917 19.5981 240.917 19.2295H240.953C241.302 19.2295 241.602 19.2058 241.939 19.1582C242.589 19.075 243.25 18.9323 243.9 18.7539C245.187 18.3853 246.45 17.8978 247.604 17.2676C248.723 16.6374 249.866 15.7932 250.227 14.7468C250.599 13.7123 249.782 12.654 248.759 11.893L248.795 11.9168C248.122 11.4888 247.123 11.3461 246.173 11.2866C245.211 11.2391 244.224 11.2866 243.25 11.3818C241.302 11.5839 239.341 11.9644 237.501 12.6184C236.598 12.9513 235.684 13.3437 234.987 13.8907C234.818 14.0334 234.674 14.1642 234.542 14.3306C234.373 14.5446 234.265 14.6992 234.133 14.9014C233.892 15.2819 233.688 15.698 233.543 16.1261C232.954 17.8621 233.315 19.836 234.109 21.5601C234.89 23.308 236.093 24.9013 237.525 26.2212C238.234 26.8752 239.028 27.4935 239.87 27.9453C240.712 28.3734 241.686 28.5993 242.661 28.7777C244.621 29.1463 246.654 29.3484 248.603 29.9667C249.577 30.2759 250.515 30.7039 251.345 31.2866C252.175 31.8811 252.849 32.654 253.354 33.522C252.259 31.8217 250.431 30.7753 248.507 30.2759C246.582 29.7527 244.573 29.6576 242.552 29.3603C241.554 29.2057 240.52 29.0036 239.545 28.5517C238.595 28.0761 237.765 27.4697 236.983 26.8038C235.432 25.4602 234.109 23.8312 233.194 21.9644C232.304 20.1094 231.835 17.8859 232.509 15.7813C232.677 15.2581 232.906 14.7706 233.194 14.3068C233.339 14.0809 233.507 13.8312 233.652 13.6529C233.82 13.415 234.048 13.201 234.265 13.0227C235.155 12.3211 236.117 11.9049 237.092 11.5363C239.04 10.8348 241.061 10.3948 243.118 10.1927C244.14 10.0976 245.187 10.0619 246.233 10.1332C247.28 10.2284 248.362 10.3354 249.409 10.9775H249.421L249.445 11.0013C250.01 11.4531 250.575 11.9763 250.972 12.6659C251.381 13.3437 251.538 14.2831 251.249 15.0678C250.972 15.8526 250.455 16.4471 249.902 16.9347C249.349 17.4222 248.735 17.8146 248.098 18.1594C246.835 18.8371 245.499 19.3247 244.128 19.6576C243.443 19.8241 242.745 19.9549 242.023 20.0262C241.674 20.0619 241.29 20.0738 240.941 20.0619H240.905C240.905 19.6933 240.905 20.8942 240.905 19.2295H240.965H241.097L241.386 19.2533L241.903 19.3009C244.657 19.5863 247.484 20.0262 249.986 21.3698C251.213 22.0357 252.344 22.9632 253.065 24.176C253.799 25.377 254.016 26.8157 253.895 28.1594L253.883 28.1356Z" fill="#006699"/>
<path d="M111.816 128.076C107.991 136.269 103.204 145.733 101.292 154.877C110.541 157.398 125.529 161.5 135.091 158.349C134.767 171.595 122.329 211.001 119.466 221.405C155.239 241.583 201.752 226.768 207.803 225.816C204.29 214.152 198.878 166.233 199.515 154.568C210.04 155.198 218.015 157.41 228.852 157.089C230.693 145.84 229.418 134.711 227.253 126.506C194.728 138.587 171.585 129.431 141.779 133.129C125.95 135.091 111.804 128.088 111.804 128.088L111.816 128.076Z" fill="#E59D3E"/>
<mask id="mask2_24_3623" style="mask-type:luminance" maskUnits="userSpaceOnUse" x="101" y="126" width="129" height="106">
<path d="M111.816 128.076C107.991 136.269 103.204 145.733 101.292 154.877C110.541 157.398 125.529 161.5 135.091 158.349C134.767 171.595 122.329 211.001 119.466 221.405C155.239 241.583 201.752 226.768 207.803 225.816C204.29 214.152 198.878 166.233 199.515 154.568C210.04 155.198 218.015 157.41 228.852 157.089C230.693 145.84 229.418 134.711 227.253 126.506C194.728 138.587 171.585 129.431 141.779 133.129C125.95 135.091 111.804 128.088 111.804 128.088L111.816 128.076Z" fill="white"/>
</mask>
<g mask="url(#mask2_24_3623)">
<path d="M206.131 163.379C202.306 161.489 196.243 163.379 192.731 165.9C184.119 171.572 186.356 181.667 187.944 190.49C181.881 188.278 176.781 192.071 176.144 198.052C175.506 205.306 180.294 207.196 186.031 209.396C180.606 213.498 179.969 224.533 182.206 230.204C185.394 238.397 194.644 238.397 202.294 238.397C212.818 238.076 218.243 232.725 221.106 222.63C222.381 217.589 226.206 203.712 222.706 198.992C222.068 198.04 222.393 198.682 221.431 198.361L206.131 163.367V163.379Z" fill="#F4E55B"/>
<path d="M171.128 180.336C171.128 177.625 173.353 175.425 176.096 175.425C178.838 175.425 181.063 177.625 181.063 180.336C181.063 183.047 178.838 185.246 176.096 185.246C173.353 185.246 171.128 183.047 171.128 180.336Z" fill="#F4E55B"/>
<path d="M178.093 210.692C178.093 211.941 176.866 212.963 175.35 212.963C173.835 212.963 172.608 211.953 172.608 210.692C172.608 209.432 173.835 208.421 175.35 208.421C176.866 208.421 178.093 209.432 178.093 210.692Z" fill="#F4E55B"/>
<path d="M167.724 205.722C167.724 206.566 166.798 207.256 165.655 207.256C164.512 207.256 163.586 206.566 163.586 205.722C163.586 204.878 164.512 204.188 165.655 204.188C166.798 204.188 167.724 204.878 167.724 205.722Z" fill="#F4E55B"/>
</g>
<path d="M156.141 129.966C152.954 137.85 158.691 145.412 166.341 147.303C172.079 149.193 177.828 147.933 181.653 143.201C184.203 139.729 186.116 132.487 182.928 129.015L156.141 129.954V129.966Z" fill="#F9B7B7"/>
<path d="M168.903 25.9355C157.416 18.052 141.791 21.8332 133.179 31.9283C126.804 39.4907 117.867 64.4015 104.154 55.5668C102.242 64.3896 114.355 65.971 119.467 61.8688C118.516 68.4918 117.229 77.6357 110.854 81.7261C102.879 87.0887 98.417 81.405 92.3547 77.3147C89.4799 83.6167 95.867 91.191 101.604 93.3907C97.4547 93.3907 89.8047 95.6024 88.5297 100.014C93.3169 101.904 99.0545 101.595 103.517 99.3836C100.967 101.904 95.867 104.746 100.005 107.267C101.917 108.527 108.292 107.267 110.842 106.946C119.767 105.686 128.38 102.844 137.629 102.844C146.242 102.844 154.216 103.165 162.191 104.425C169.841 105.686 178.778 103.474 186.428 103.474C198.866 103.474 210.978 105.365 223.416 105.055C228.516 105.055 237.128 105.376 241.59 101.904C249.24 95.9115 235.853 95.2813 231.703 97.493C235.528 97.1719 247.328 94.6511 247.965 89.9305C249.24 84.8889 238.078 86.1493 234.566 86.1493C244.766 86.1493 251.153 78.5869 250.828 68.8129C242.541 67.5525 239.353 84.5798 227.553 79.5263C220.854 76.3753 221.816 64.0804 221.816 57.4574C225.003 67.2314 242.228 62.1898 243.816 53.9853C235.528 53.6762 229.791 55.8759 224.366 47.9925C219.579 41.3694 218.628 32.8558 212.891 26.5538C203.966 16.4706 182.591 9.21733 171.429 20.2518C169.829 21.8332 168.554 23.0936 168.242 25.2934L168.879 25.9236L168.903 25.9355Z" fill="#7F503D"/>
<path d="M128.187 99.3838C123.508 97.7072 116.279 95.6026 113.729 101.274C109.471 111.155 119.467 121.239 129.246 115.781C130.521 115.151 131.375 113.89 132.65 113.046L128.187 99.3838Z" fill="#FFD8D4"/>
<path d="M214.082 97.2789C217.269 91.8092 227.048 90.1327 228.119 97.9091C228.973 103.165 227.481 107.79 223.019 110.525C220.048 112.416 213.456 114.52 210.473 111.999C210.257 111.785 210.257 111.583 210.052 111.583L214.094 97.2908L214.082 97.2789Z" fill="#FFD8D4"/>
<path d="M127.333 77.7431C123.929 85.3055 124.783 96.0308 125.421 104.009C126.479 114.521 131.158 122.713 140.516 127.969C156.67 137.422 181.124 139.11 197.495 129.229C218.328 116.411 217.269 88.2425 212.807 67.0178C209.836 53.7717 202.811 43.6885 189.424 39.2771C178.153 35.7099 162.636 39.0631 151.787 42.4281C140.733 46.2093 132.866 55.4602 130.316 67.0178L127.345 77.7312L127.333 77.7431Z" fill="#FFD8D4"/>
<path d="M144.137 83.4147C145.255 82.618 146.639 82.2732 148.022 82.2018C149.405 82.1424 150.788 82.404 152.075 82.8558C153.362 83.3196 154.541 83.9973 155.588 84.8178C156.622 85.662 157.548 86.6251 158.21 87.8142C156.911 87.3861 155.756 86.8748 154.613 86.4111C153.471 85.9355 152.364 85.4837 151.245 85.0794C150.127 84.6751 149.02 84.3184 147.853 84.0449C146.687 83.7476 145.496 83.5693 144.137 83.4028V83.4147Z" fill="#663333"/>
<path d="M184.131 86.3517C184.684 85.1032 185.538 84.0687 186.512 83.1531C187.487 82.2494 188.617 81.4884 189.844 80.9058C191.071 80.335 192.418 79.9426 193.802 79.8475C195.173 79.7643 196.616 79.9664 197.795 80.6799C196.448 80.9533 195.293 81.2744 194.162 81.6787C193.032 82.0829 191.949 82.5467 190.867 83.0461C189.784 83.5574 188.702 84.0924 187.607 84.6632C186.5 85.2221 185.394 85.8166 184.131 86.3517Z" fill="#663333"/>
<path d="M156.009 44.5328C150.271 45.163 145.592 49.7884 141.767 53.7836C140.492 48.9442 142.405 42.226 147.288 39.9073C151.546 38.0167 155.792 39.4912 156.213 44.1047L155.997 44.5209L156.009 44.5328Z" fill="#663333"/>
<path d="M156.033 44.5328C138.387 37.6006 143.704 70.1689 137.966 77.9453C133.287 84.6754 133.708 66.6017 134.141 63.6529C133.083 67.4341 132.65 71.2153 132.445 75.2105C132.024 78.7896 132.024 85.7218 129.895 88.6587C124.362 95.591 125.854 73.1059 126.275 70.1689C125.216 73.5339 125 78.5755 122.45 81.3104C117.133 70.5851 125.433 51.6791 131.375 42.6422C135.416 36.5424 148.383 27.5055 154.974 35.71C156.033 37.1844 156.887 39.2772 156.67 41.3818L156.033 44.5328Z" fill="#A55D49"/>
<path d="M157.464 44.0332C158.955 37.5172 166.245 30.2402 172.836 35.912C179.644 42.0118 180.282 53.5695 180.486 61.9761C180.486 64.7109 178.995 77.3149 183.253 70.3827C185.382 67.0177 186.657 60.2995 186.44 56.3043C186.645 61.3459 185.165 67.2317 185.165 72.7014C185.165 80.894 189.628 73.9618 190.698 69.9666C190.698 71.8572 189.207 77.1128 191.552 77.957C194.74 79.2174 196.869 71.227 197.29 69.3364C198.998 63.2365 199.84 55.0439 198.144 48.9559C198.36 57.1485 200.056 65.7692 200.273 73.9618C200.273 76.2686 198.998 85.1033 201.548 86.1496C205.156 87.41 205.794 76.8988 206.01 75.0082C206.01 77.9451 204.098 90.1449 207.923 91.6074C211.964 93.284 213.877 78.5753 214.298 75.6384C215.789 62.8203 214.298 49.7883 210.04 37.6004C206.636 28.1474 196.219 18.2663 186.44 15.5315C175.17 12.3805 166.882 19.7289 160.928 28.1355C157.957 32.5469 155.828 39.277 155.828 44.5326L157.464 44.0332Z" fill="#A55D49"/>
<path d="M146.254 65.1271C146.145 63.9143 146.362 62.6539 146.927 61.5124C147.48 60.359 148.455 59.3721 149.67 58.8013C150.884 58.2425 152.256 58.1117 153.507 58.3495C154.77 58.5754 155.912 59.1224 156.887 59.8715C155.696 59.5742 154.541 59.3126 153.398 59.2769C152.268 59.2413 151.149 59.4077 150.187 59.8715C149.2 60.3114 148.383 61.0605 147.745 61.9761C147.108 62.8917 146.65 63.9737 146.266 65.1271H146.254Z" fill="#663333"/>
<path d="M201.319 62.3919C200.995 61.2504 200.489 60.2278 199.912 59.2647C199.323 58.3135 198.637 57.4098 197.843 56.6607C197.061 55.9116 196.135 55.3051 195.125 55.103C194.102 54.9009 192.996 55.2338 191.973 55.8759C192.623 54.889 193.85 54.1161 195.221 54.1874C196.58 54.235 197.771 54.9603 198.685 55.8046C199.587 56.6845 200.285 57.7189 200.766 58.8485C201.235 59.9663 201.512 61.2029 201.343 62.3919H201.319Z" fill="#663333"/>
<path d="M173.041 85.7217C172.403 87.6123 172.824 89.7169 174.099 91.3935C175.374 93.2841 178.778 93.9143 179.416 96.4351C180.053 99.3721 176.649 101.477 174.316 102.107" fill="#FFD8D4"/>
<path d="M173.041 85.7217C172.68 87.529 173.185 89.3126 174.184 90.68C175.086 92.1307 176.806 92.6896 178.357 93.9143C179.115 94.5326 179.837 95.4125 180.005 96.5064C180.174 97.5647 179.837 98.6586 179.211 99.4434C177.972 101.025 176.12 101.822 174.304 102.119C175.976 101.393 177.527 100.323 178.43 98.9321C178.851 98.2306 179.043 97.4458 178.875 96.7086C178.73 95.9951 178.237 95.353 177.576 94.8417C176.926 94.3067 176.144 93.8548 175.362 93.3198C174.977 93.0463 174.592 92.749 174.232 92.3804C174.063 92.2139 173.871 91.988 173.738 91.7859C173.63 91.6075 173.474 91.3935 173.366 91.1794C172.367 89.5148 172.199 87.3745 173.017 85.7217H173.041Z" fill="#DB8F8F"/>
<path d="M155.612 109.681C160.291 116.613 162.624 125.02 172.62 125.448C181.545 125.662 188.353 117.671 187.499 109.265C179.632 114.734 167.941 114.734 159.22 111.571L155.6 109.681H155.612Z" fill="#913030"/>
<path d="M152.845 105.056C155.816 119.562 184.311 118.932 190.265 107.16C191.12 105.27 191.757 103.165 191.961 101.274C183.241 112.202 163.262 110.941 152.629 104.425L152.845 105.056Z" fill="white"/>
<path d="M149.874 102.535C155.612 107.576 162.841 109.467 170.503 109.681C180.499 109.895 187.932 106.007 194.103 99.0627" fill="#FFD8D4"/>
<path d="M149.874 102.535C153.098 105.056 156.815 106.827 160.724 107.826C164.633 108.801 168.723 109.205 172.74 109.063C176.758 108.92 180.739 107.969 184.36 106.233C186.176 105.377 187.896 104.295 189.508 103.07C191.144 101.881 192.647 100.49 194.103 99.0627C192.852 100.668 191.42 102.154 189.893 103.522C188.329 104.865 186.621 106.054 184.793 107.041C181.136 109.039 176.962 110.073 172.8 110.24C168.627 110.359 164.465 109.919 160.483 108.694C158.499 108.076 156.574 107.279 154.782 106.245C153.002 105.198 151.33 103.974 149.886 102.523L149.874 102.535Z" fill="#DB8F8F"/>
<path d="M146.47 103.593C148.383 102.333 150.933 102.119 153.278 102.119L146.47 103.593Z" fill="#FFD8D4"/>
<path d="M146.47 103.593C146.663 102.868 147.192 102.333 147.733 101.94C148.286 101.56 148.912 101.322 149.549 101.203C150.187 101.084 150.824 101.108 151.45 101.239C152.075 101.381 152.689 101.619 153.278 102.119C152.689 102.618 152.124 102.88 151.57 103.106C151.017 103.32 150.488 103.45 149.97 103.546C149.441 103.641 148.924 103.676 148.371 103.688C147.793 103.688 147.252 103.664 146.47 103.581V103.593Z" fill="#DB8F8F"/>
<path d="M190.903 97.493C193.236 97.493 195.365 98.5394 197.278 99.7998L190.903 97.493Z" fill="#FFD8D4"/>
<path d="M190.903 97.4933C191.456 96.9939 192.166 96.8155 192.815 96.768C193.477 96.7323 194.127 96.8512 194.716 97.0771C195.305 97.303 195.835 97.6598 196.28 98.0997C196.713 98.5516 197.098 99.0747 197.29 99.812C196.532 99.9071 195.931 99.8357 195.365 99.7406C194.812 99.6336 194.307 99.479 193.826 99.2888C193.345 99.0985 192.9 98.8726 192.431 98.5991C191.949 98.3019 191.504 98.0046 190.915 97.5052L190.903 97.4933Z" fill="#DB8F8F"/>
<path d="M70.8119 108.504C69.2241 108.908 69.4767 111.191 70.2826 112.214C71.6298 113.617 73.2777 112.535 73.2777 110.799C73.2777 109.645 72.1109 108.219 70.872 108.492C70.848 108.492 70.8359 108.492 70.8119 108.504Z" fill="#AED35E"/>
<path d="M78.2455 114.152C77.5599 114.925 78.053 115.995 79.1236 116.09C81.2887 116.28 80.8917 112.892 78.7266 113.95L78.2335 114.14L78.2455 114.152Z" fill="#AED35E"/>
<path d="M265.635 108.504C267.223 108.908 266.97 111.191 266.164 112.214C264.817 113.617 263.169 112.535 263.169 110.799C263.169 109.645 264.336 108.219 265.575 108.492C265.599 108.492 265.611 108.492 265.635 108.504Z" fill="#3A8CC9"/>
<path d="M258.081 114.259C258.671 114.925 258.767 115.959 257.335 116.09C256.253 116.185 255.483 115.103 256.133 114.2C256.698 113.403 257.576 113.7 258.081 114.259Z" fill="#3A8CC9"/>
<g style="mix-blend-mode:multiply" opacity="0.4">
<path d="M220.192 423.295C220.192 427.552 193.97 431 161.614 431C129.258 431 103.048 427.552 103.048 423.295C103.048 419.038 129.27 415.59 161.614 415.59C193.958 415.59 220.192 419.038 220.192 423.295Z" fill="#C5E5EA"/>
</g>
<path d="M163.622 383.295C162.119 384.948 161.313 386.268 161.734 386.898L161.89 387.207C167.471 397.92 179.115 405.97 189.471 411.476C190.854 411.44 192.033 410.929 192.996 410.132C187.643 406.184 181.833 403.378 176.914 398.681C172.126 394.27 166.509 389.3 163.622 383.295Z" fill="#EF9360"/>
<path d="M181.809 386.268C185.791 383.271 190.421 381.535 193.934 377.909C190.421 373.973 186.115 371.131 182.771 367.029C180.703 368.836 168.482 377.921 163.622 383.295C166.509 389.3 172.126 394.27 176.914 398.682C177.299 399.05 177.695 399.383 178.092 399.728C179.644 397.778 181.581 396.185 183.986 395.102C185.574 394.389 187.703 393.676 189.964 393.271C187.354 390.513 184.359 387.956 181.833 386.256L181.809 386.268Z" fill="#DB4740"/>
<path d="M178.081 399.74C182.735 403.818 188.052 406.506 192.984 410.144C195.87 407.73 196.688 402.629 194.884 399.668C193.705 397.623 191.937 395.388 189.94 393.283C187.691 393.676 185.55 394.389 183.962 395.114C181.557 396.208 179.62 397.79 178.068 399.74H178.081Z" fill="#FFB692"/>
<path d="M170.346 380.43C170.346 378.254 172.139 376.482 174.34 376.482C176.541 376.482 178.333 378.254 178.333 380.43C178.333 382.606 176.541 384.389 174.34 384.389C172.139 384.389 170.346 382.617 170.346 380.43Z" fill="#EF9360"/>
</svg>
