<svg width="190" height="190" viewBox="0 0 190 190" fill="none" xmlns="http://www.w3.org/2000/svg">
<path d="M94.8122 189.188C146.929 189.188 189.178 146.95 189.178 94.8472C189.178 42.7445 146.929 0.506836 94.8122 0.506836C42.6956 0.506836 0.446777 42.7445 0.446777 94.8472C0.446777 146.95 42.6956 189.188 94.8122 189.188Z" fill="#FFE000"/>
<path d="M189.18 95.2747C189.18 147.08 146.93 189.084 94.8147 189.084C88.0383 189.084 81.4318 188.371 75.0637 187.021C76.8311 187.125 78.6122 187.174 80.4098 187.174C132.525 187.174 174.775 145.173 174.775 93.3653C174.775 48.2935 142.795 10.6428 100.161 1.61914C149.788 4.36953 189.183 45.2527 189.183 95.2747H189.18Z" fill="#EACE03"/>
<path d="M181.508 93.6311C181.508 144.831 139.751 186.342 88.244 186.342C81.5471 186.342 75.0173 185.637 68.7231 184.303C70.4686 184.407 72.2306 184.454 74.0062 184.454C125.513 184.454 167.27 142.944 167.27 91.7436C167.27 47.2005 135.665 9.98813 93.527 1.07129C142.576 3.7888 181.508 44.1953 181.508 93.6311Z" fill="#FFBD09"/>
</svg>
