<svg width="151" height="151" viewBox="0 0 151 151" fill="none" xmlns="http://www.w3.org/2000/svg">
<path d="M75.5694 150.463C116.99 150.463 150.567 116.894 150.567 75.4848C150.567 34.0756 116.99 0.506836 75.5694 0.506836C34.1492 0.506836 0.571533 34.0756 0.571533 75.4848C0.571533 116.894 34.1492 150.463 75.5694 150.463Z" fill="#9900FF"/>
<path d="M150.569 75.8243C150.569 116.997 116.99 150.38 75.5714 150.38C70.1857 150.38 64.9352 149.814 59.874 148.741C61.2787 148.823 62.6942 148.862 64.1228 148.862C105.542 148.862 139.121 115.482 139.121 74.3068C139.121 38.4855 113.704 8.56228 79.8202 1.39062C119.262 3.57652 150.571 36.0689 150.571 75.8243H150.569Z" fill="#C303EA"/>
<path d="M144.472 74.5179C144.472 115.21 111.285 148.2 70.3494 148.2C65.0269 148.2 59.8373 147.641 54.835 146.581C56.2222 146.663 57.6225 146.7 59.0337 146.7C99.9692 146.7 133.156 113.709 133.156 73.0178C133.156 37.6167 108.038 8.04183 74.5481 0.955078C113.53 3.11485 144.472 35.2284 144.472 74.5179Z" fill="#9A21CA"/>
</svg>
