<svg width="109" height="103" viewBox="0 0 109 103" fill="none" xmlns="http://www.w3.org/2000/svg">
<g filter="url(#filter0_d_1434_6253)">
<path d="M104.423 35.4018C105.725 24.6081 90.1319 27.7376 84.4788 29.4877C82.3225 30.1513 79.0524 30.7629 75.7887 31.6803C78.0033 26.6185 79.2337 20.9842 79.6093 17.1001C80.0431 12.5458 78.502 8.29085 73.4446 8.05663C68.5557 7.82892 66.0432 12.1555 63.3753 15.89C63.1033 9.63761 62.2615 1.9474 56.9063 1.01703C51.6418 0.0996656 47.6205 6.96361 46.1182 10.9844C44.6742 14.849 43.7935 18.9088 43.4115 23.0207C43.269 24.5301 43.2302 26.0069 43.2625 27.4968C42.6215 26.3192 41.961 25.1547 41.2616 24.0226C39.0341 20.4312 36.2561 17.1587 33.6594 13.834C30.8167 10.1906 24.1664 4.09441 21.3496 11.2251C20.2358 14.0422 22.8908 17.2758 23.6484 19.8001C24.9305 24.0877 27.0804 28.154 29.554 31.8494C30.8426 33.7752 32.3773 35.7531 34.0998 37.5943C31.4708 37.3861 28.7187 37.6594 26.3163 38.1994C18.3256 40.0016 7.48568 47.7178 4.96025 55.922C4.02779 58.9603 4.39041 62.363 7.18133 64.3149C11.086 67.0409 15.6771 66.3903 19.9703 64.998C27.4624 62.5712 34.9027 58.7912 41.689 54.315C40.1349 57.6982 38.8592 61.1789 38.406 65.024C37.7131 70.9446 36.2367 79.6367 40.4911 84.6529C44.4605 89.3308 49.5049 86.4941 52.9693 82.7922C55.3522 80.2483 57.0423 77.4051 58.4281 74.3993C59.4706 83.3257 62.527 92.2781 71.5214 94.0087C80.995 95.8304 78.2624 83.1045 77.5436 76.1039C78.5797 76.4227 79.5963 76.8781 80.5935 77.2425C82.7693 78.0362 85.0033 78.2704 87.2956 78.0818C91.3622 77.75 94.5222 75.2711 97.3649 72.5516C102.228 67.8997 104.125 59.8777 99.9681 54.2174C97.7405 51.1856 94.6712 50.0405 91.3622 49.4549C97.2613 46.2214 103.672 41.5175 104.41 35.4018H104.423Z" fill="#0FB4C3"/>
</g>
<defs>
<filter id="filter0_d_1434_6253" x="0.5" y="0.933594" width="108" height="101.252" filterUnits="userSpaceOnUse" color-interpolation-filters="sRGB">
<feFlood flood-opacity="0" result="BackgroundImageFix"/>
<feColorMatrix in="SourceAlpha" type="matrix" values="0 0 0 0 0 0 0 0 0 0 0 0 0 0 0 0 0 0 127 0" result="hardAlpha"/>
<feOffset dy="4"/>
<feGaussianBlur stdDeviation="2"/>
<feComposite in2="hardAlpha" operator="out"/>
<feColorMatrix type="matrix" values="0 0 0 0 0 0 0 0 0 0 0 0 0 0 0 0 0 0 0.25 0"/>
<feBlend mode="normal" in2="BackgroundImageFix" result="effect1_dropShadow_1434_6253"/>
<feBlend mode="normal" in="SourceGraphic" in2="effect1_dropShadow_1434_6253" result="shape"/>
</filter>
</defs>
</svg>
