<svg width="109" height="101" viewBox="0 0 109 101" fill="none" xmlns="http://www.w3.org/2000/svg">
<g filter="url(#filter0_d_1434_6909)">
<path d="M104.423 34.4758C105.725 23.748 90.1319 26.8583 84.4788 28.5978C82.3225 29.2574 79.0524 29.8652 75.7887 30.777C78.0033 25.7461 79.2337 20.1462 79.6093 16.2857C80.0431 11.7592 78.502 7.53017 73.4446 7.29738C68.5557 7.07105 66.0432 11.3712 63.3753 15.083C63.1033 8.86871 62.2615 1.2254 56.9063 0.300697C51.6418 -0.61107 47.6205 6.21102 46.1182 10.2073C44.6742 14.0483 43.7935 18.0834 43.4115 22.1702C43.269 23.6704 43.2302 25.1382 43.2625 26.6191C42.6215 25.4486 41.961 24.2911 41.2616 23.166C39.0341 19.5965 36.2561 16.3439 33.6594 13.0396C30.8167 9.41836 24.1664 3.35932 21.3496 10.4465C20.2358 13.2465 22.8908 16.4603 23.6484 18.9693C24.9305 23.2306 27.0804 27.2722 29.554 30.9451C30.8426 32.8592 32.3773 34.825 34.0998 36.655C31.4708 36.448 28.7187 36.7196 26.3163 37.2563C18.3256 39.0475 7.48568 46.7167 4.96025 54.8709C4.02779 57.8907 4.39041 61.2726 7.18133 63.2126C11.086 65.922 15.6771 65.2754 19.9703 63.8915C27.4624 61.4796 34.9027 57.7226 41.689 53.2737C40.1349 56.6362 38.8592 60.0958 38.406 63.9174C37.7131 69.8019 36.2367 78.441 40.4911 83.4266C44.4605 88.076 49.5049 85.2566 52.9693 81.5772C55.3522 79.0489 57.0423 76.223 58.4281 73.2355C59.4706 82.1075 62.527 91.0053 71.5214 92.7254C80.995 94.536 78.2624 81.8876 77.5436 74.9297C78.5797 75.2466 79.5963 75.6992 80.5935 76.0614C82.7693 76.8503 85.0033 77.0831 87.2956 76.8955C91.3622 76.5657 94.5222 74.102 97.3649 71.3991C102.228 66.7756 104.125 58.8025 99.9681 53.1767C97.7405 50.1633 94.6712 49.0252 91.3622 48.4432C97.2613 45.2294 103.672 40.5542 104.41 34.4758H104.423Z" fill="#333270"/>
</g>
<defs>
<filter id="filter0_d_1434_6909" x="0.5" y="0.217773" width="108" height="100.683" filterUnits="userSpaceOnUse" color-interpolation-filters="sRGB">
<feFlood flood-opacity="0" result="BackgroundImageFix"/>
<feColorMatrix in="SourceAlpha" type="matrix" values="0 0 0 0 0 0 0 0 0 0 0 0 0 0 0 0 0 0 127 0" result="hardAlpha"/>
<feOffset dy="4"/>
<feGaussianBlur stdDeviation="2"/>
<feComposite in2="hardAlpha" operator="out"/>
<feColorMatrix type="matrix" values="0 0 0 0 0 0 0 0 0 0 0 0 0 0 0 0 0 0 0.25 0"/>
<feBlend mode="normal" in2="BackgroundImageFix" result="effect1_dropShadow_1434_6909"/>
<feBlend mode="normal" in="SourceGraphic" in2="effect1_dropShadow_1434_6909" result="shape"/>
</filter>
</defs>
</svg>
