<svg width="190" height="190" viewBox="0 0 190 190" fill="none" xmlns="http://www.w3.org/2000/svg">
<path d="M94.7311 189.188C146.848 189.188 189.097 146.95 189.097 94.8472C189.097 42.7445 146.848 0.506836 94.7311 0.506836C42.6145 0.506836 0.365723 42.7445 0.365723 94.8472C0.365723 146.95 42.6145 189.188 94.7311 189.188Z" fill="#368727"/>
<path d="M189.099 95.2747C189.099 147.08 146.849 189.084 94.7337 189.084C87.9573 189.084 81.3508 188.371 74.9827 187.021C76.7501 187.125 78.5312 187.174 80.3287 187.174C132.444 187.174 174.694 145.173 174.694 93.3653C174.694 48.2935 142.714 10.6428 100.08 1.61914C149.707 4.36953 189.102 45.2527 189.102 95.2747H189.099Z" fill="#2A5A1D"/>
<path d="M181.427 93.6311C181.427 144.831 139.67 186.342 88.163 186.342C81.466 186.342 74.9362 185.637 68.6421 184.303C70.3876 184.407 72.1495 184.454 73.9251 184.454C125.432 184.454 167.189 142.944 167.189 91.7436C167.189 47.2005 135.584 9.98813 93.446 1.07129C142.495 3.7888 181.427 44.1953 181.427 93.6311Z" fill="#35A31D"/>
</svg>
