<svg width="190" height="190" viewBox="0 0 190 190" fill="none" xmlns="http://www.w3.org/2000/svg">
<path d="M94.9974 189.325C147.114 189.325 189.363 147.087 189.363 94.9845C189.363 42.8817 147.114 0.644043 94.9974 0.644043C42.8808 0.644043 0.631958 42.8817 0.631958 94.9845C0.631958 147.087 42.8808 189.325 94.9974 189.325Z" fill="#FF1D1C"/>
<path d="M189.363 95.5816C189.363 147.683 147.112 189.922 94.9975 189.922C88.2211 189.922 81.6146 189.207 75.2465 187.848C77.0139 187.955 78.795 188.002 80.5925 188.002C132.708 188.002 174.958 145.762 174.958 93.6612C174.958 48.3346 142.978 10.4675 100.344 1.39453C149.97 4.15861 189.366 45.2774 189.366 95.5816H189.363Z" fill="#C60202"/>
<path d="M178.676 93.4365C178.676 144.842 136.426 186.517 84.311 186.517C77.5346 186.517 70.9281 185.81 64.5599 184.47C66.3273 184.575 68.1084 184.621 69.906 184.621C122.021 184.621 164.271 142.946 164.271 91.5408C164.271 46.8196 132.291 9.45929 89.657 0.506836C139.284 3.23531 178.679 43.8008 178.679 93.4337L178.676 93.4365Z" fill="#EA0606"/>
</svg>
