<svg width="190" height="190" viewBox="0 0 190 190" fill="none" xmlns="http://www.w3.org/2000/svg">
<path d="M95.2624 189.188C147.379 189.188 189.628 146.95 189.628 94.8473C189.628 42.7445 147.379 0.506836 95.2624 0.506836C43.1458 0.506836 0.896973 42.7445 0.896973 94.8473C0.896973 146.95 43.1458 189.188 95.2624 189.188Z" fill="#7C0499"/>
<path d="M189.628 94.4529C189.628 146.006 147.378 187.802 95.2625 187.802C88.4861 187.802 81.8796 187.095 75.5115 185.75C77.2789 185.854 79.06 185.903 80.8575 185.903C132.973 185.903 175.223 144.108 175.223 92.5545C175.223 47.7045 143.243 10.2374 100.609 1.26025C150.236 3.99694 189.631 44.6802 189.631 94.4556L189.628 94.4529Z" fill="#520066"/>
<path d="M175.146 94.5896C175.146 145.611 136.329 186.977 88.4505 186.977C82.2249 186.977 76.1554 186.276 70.3052 184.947C71.9301 185.051 73.566 185.098 75.2155 185.098C123.094 185.098 161.911 143.732 161.911 92.7103C161.911 48.3206 132.531 11.2397 93.3636 2.35303C138.957 5.06232 175.149 45.3265 175.149 94.5896H175.146Z" fill="#8C0DAB"/>
</svg>
