<svg width="190" height="190" viewBox="0 0 190 190" fill="none" xmlns="http://www.w3.org/2000/svg">
<path d="M95.2637 189.188C147.38 189.188 189.629 146.95 189.629 94.8473C189.629 42.7445 147.38 0.506836 95.2637 0.506836C43.1471 0.506836 0.898193 42.7445 0.898193 94.8473C0.898193 146.95 43.1471 189.188 95.2637 189.188Z" fill="#4532B7"/>
<path d="M189.629 94.4529C189.629 146.006 147.379 187.802 95.2637 187.802C88.4873 187.802 81.8808 187.095 75.5127 185.75C77.2801 185.854 79.0612 185.903 80.8587 185.903C132.974 185.903 175.224 144.108 175.224 92.5545C175.224 47.7045 143.244 10.2374 100.61 1.26025C150.237 3.99694 189.632 44.6802 189.632 94.4556L189.629 94.4529Z" fill="#1D1A89"/>
<path d="M175.147 94.5896C175.147 145.611 136.33 186.977 88.4517 186.977C82.2261 186.977 76.1566 186.276 70.3064 184.947C71.9313 185.051 73.5672 185.098 75.2168 185.098C123.095 185.098 161.913 143.732 161.913 92.7103C161.913 48.3206 132.533 11.2397 93.3648 2.35303C138.958 5.06232 175.15 45.3265 175.15 94.5896H175.147Z" fill="#2F23A3"/>
</svg>
