<svg width="109" height="103" viewBox="0 0 109 103" fill="none" xmlns="http://www.w3.org/2000/svg">
<g filter="url(#filter0_d_25_4306)">
<path d="M104.423 35.4023C105.725 24.6086 90.1319 27.7381 84.4788 29.4882C82.3225 30.1518 79.0524 30.7634 75.7887 31.6808C78.0033 26.619 79.2337 20.9847 79.6093 17.1006C80.0431 12.5463 78.502 8.29134 73.4446 8.05712C68.5557 7.8294 66.0432 12.156 63.3753 15.8905C63.1033 9.6381 62.2615 1.94789 56.9063 1.01751C51.6418 0.100154 47.6205 6.96409 46.1182 10.9849C44.6742 14.8495 43.7935 18.9093 43.4115 23.0211C43.269 24.5306 43.2302 26.0074 43.2625 27.4973C42.6215 26.3197 41.961 25.1551 41.2616 24.0231C39.0341 20.4317 36.2561 17.1591 33.6594 13.8345C30.8167 10.1911 24.1664 4.0949 21.3496 11.2256C20.2358 14.0427 22.8908 17.2763 23.6484 19.8006C24.9305 24.0881 27.0804 28.1545 29.554 31.8499C30.8426 33.7757 32.3773 35.7536 34.0998 37.5948C31.4708 37.3866 28.7187 37.6599 26.3163 38.1999C18.3256 40.0021 7.48568 47.7183 4.96025 55.9225C4.02779 58.9608 4.39041 62.3635 7.18133 64.3153C11.086 67.0414 15.6771 66.3908 19.9703 64.9985C27.4624 62.5717 34.9027 58.7917 41.689 54.3155C40.1349 57.6986 38.8592 61.1794 38.406 65.0245C37.7131 70.9451 36.2367 79.6372 40.4911 84.6534C44.4605 89.3313 49.5049 86.4946 52.9693 82.7927C55.3522 80.2488 57.0423 77.4056 58.4281 74.3998C59.4706 83.3262 62.527 92.2786 71.5214 94.0092C80.995 95.8309 78.2624 83.105 77.5436 76.1044C78.5797 76.4232 79.5963 76.8786 80.5935 77.243C82.7693 78.0367 85.0033 78.2709 87.2956 78.0823C91.3622 77.7504 94.5222 75.2716 97.3649 72.5521C102.228 67.9002 104.125 59.8782 99.9681 54.2179C97.7405 51.186 94.6712 50.041 91.3622 49.4554C97.2613 46.2219 103.672 41.518 104.41 35.4023H104.423Z" fill="#77398A"/>
<path d="M85.0703 31.3987L85.0671 31.3997C83.9136 31.7547 82.4886 32.0888 81.0208 32.4329L81.0055 32.4365L80.9806 32.4424C79.4862 32.7927 77.904 33.1637 76.3299 33.6061L72.2632 34.7493L73.9564 30.8791C76.0758 26.035 77.2601 20.6113 77.6183 16.9109L85.0703 31.3987ZM85.0703 31.3987C87.8125 30.5498 92.837 29.4166 96.9027 29.7352C98.9462 29.8953 100.44 30.4006 101.333 31.1832C102.044 31.8057 102.608 32.8067 102.484 34.674L102.425 35.1626C102.132 37.5844 100.693 39.8916 98.4336 42.0697C96.1835 44.2387 93.2795 46.1237 90.4009 47.7016L85.4157 50.4342L91.0137 51.4248C94.0911 51.9694 96.5657 52.9651 98.3561 55.4018L85.0703 31.3987ZM73.3521 10.055L73.3516 10.055C71.6194 9.97427 70.2776 10.6593 68.967 11.9261C67.8379 13.0172 66.8787 14.3851 65.8035 15.9184C65.5446 16.2875 65.279 16.6663 65.0027 17.053L61.6294 21.775L61.3772 15.9774C61.2414 12.8547 60.9665 9.61199 60.1444 7.07472C59.3167 4.52033 58.1463 3.2629 56.564 2.988L56.563 2.98782C54.9621 2.70887 53.2866 3.55697 51.603 5.47054C49.959 7.33892 48.6864 9.82561 47.9917 11.6849L47.9917 11.6849C46.615 15.3695 45.7701 19.2545 45.4029 23.2062L45.4026 23.2091C45.2685 24.6297 45.2311 26.0283 45.2621 27.4539L41.506 28.4536C40.8755 27.2955 40.2343 26.1655 39.5609 25.0754C37.8845 22.373 35.8995 19.8774 33.8442 17.2932C33.2611 16.5601 32.6723 15.8198 32.0832 15.0656L32.0826 15.0648C30.7239 13.3233 28.5907 11.1937 26.6603 10.3073C25.7177 9.87459 25.1048 9.86578 24.7253 9.99928C24.3924 10.1164 23.785 10.5041 23.2097 11.9604L23.2095 11.9609C22.9598 12.5927 23.0574 13.4568 23.6415 14.8492C23.8615 15.3737 24.1095 15.8834 24.3783 16.436C24.4555 16.5948 24.5345 16.7572 24.615 16.9244C24.9529 17.6262 25.3246 18.428 25.564 19.2257L25.5646 19.2276C26.7728 23.268 28.816 27.1518 31.216 30.7374L31.2162 30.7377C32.4506 32.5824 33.9188 34.4738 35.5603 36.2285L39.0847 39.9958L33.9419 39.5886C31.5445 39.3987 28.996 39.6476 26.7563 40.1509L73.3521 10.055ZM73.3521 10.055C75.2349 10.1422 76.2502 10.9167 76.8557 11.9616M73.3521 10.055L76.8557 11.9616M19.3534 63.096L19.354 63.0958C26.6447 60.7343 33.9231 57.042 40.5878 52.6459L46.4257 48.7953L43.5064 55.1503C41.9933 58.4443 40.8107 61.7087 40.3922 65.2587C40.3362 65.7374 40.2763 66.2262 40.2154 66.7233C39.8881 69.3939 39.5319 72.3007 39.5928 75.1351C39.6653 78.506 40.3309 81.3726 42.0163 83.3598C42.8033 84.2871 43.5531 84.741 44.2166 84.9453C44.8824 85.1502 45.6041 85.1475 46.4017 84.9337C48.0686 84.4868 49.8852 83.1612 51.509 81.4261L51.5096 81.4254C53.7024 79.0846 55.2844 76.4418 56.6118 73.5625L59.5895 67.1035L60.4146 74.1678C60.9232 78.5227 61.9062 82.6863 63.7338 85.9185L19.3534 63.096ZM19.3534 63.096C15.1837 64.4483 11.4151 64.8311 8.32754 62.6764C6.53528 61.423 6.0739 59.1122 6.87174 56.5109L19.3534 63.096ZM76.8557 11.9616C77.5327 13.13 77.813 14.8625 77.6185 16.9081L76.8557 11.9616ZM6.87184 56.5105C7.96734 52.952 10.9643 49.2831 14.8287 46.2297C18.6726 43.1926 23.1132 40.9726 26.756 40.1509L6.87184 56.5105Z" stroke="#79079C" stroke-width="4"/>
</g>
<defs>
<filter id="filter0_d_25_4306" x="0.5" y="0.934082" width="108" height="101.251" filterUnits="userSpaceOnUse" color-interpolation-filters="sRGB">
<feFlood flood-opacity="0" result="BackgroundImageFix"/>
<feColorMatrix in="SourceAlpha" type="matrix" values="0 0 0 0 0 0 0 0 0 0 0 0 0 0 0 0 0 0 127 0" result="hardAlpha"/>
<feOffset dy="4"/>
<feGaussianBlur stdDeviation="2"/>
<feComposite in2="hardAlpha" operator="out"/>
<feColorMatrix type="matrix" values="0 0 0 0 0 0 0 0 0 0 0 0 0 0 0 0 0 0 0.25 0"/>
<feBlend mode="normal" in2="BackgroundImageFix" result="effect1_dropShadow_25_4306"/>
<feBlend mode="normal" in="SourceGraphic" in2="effect1_dropShadow_25_4306" result="shape"/>
</filter>
</defs>
</svg>
