<svg width="181" height="182" viewBox="0 0 181 182" fill="none" xmlns="http://www.w3.org/2000/svg">
<path d="M74.039 28.1887C73.175 28.1233 72.2916 28.26 71.1107 28.443L71.1105 28.443C70.0107 28.6135 68.6315 28.8273 67.1859 28.668L67.1791 28.6673C65.7976 28.5103 64.4775 28.2478 63.2115 27.8767C61.6885 27.4599 60.2659 26.8926 58.9174 26.1756L58.8863 26.159L58.8558 26.1414C54.4648 23.6042 51.4147 19.9672 48.7242 16.3295C48.068 15.4422 47.4377 14.5626 46.8164 13.6957C44.8293 10.9228 42.9346 8.27884 40.58 5.92418C38.9418 4.28607 36.9188 2.97301 34.9434 2.47174C33.0686 1.99602 31.2741 2.24274 29.6623 3.64187C27.7198 5.58938 26.5577 7.07303 26.1537 8.45667C25.8143 9.61924 25.9294 11.0244 27.5467 13.1135C28.5598 14.4209 29.616 15.7272 30.684 17.048C34.9356 22.306 39.373 27.7938 42.0114 34.4944C45.4216 43.1443 47.2964 52.2598 47.0989 61.6521C47.0886 63.8856 45.6264 65.5397 43.9986 66.4497L43.838 66.5395L43.6637 66.5985C42.156 67.1086 40.6652 67.3192 39.2119 67.2762C34.6666 67.2449 30.8784 64.9025 27.7901 62.9927L27.6754 62.9218C27.4179 62.7691 27.1639 62.6176 26.9124 62.4677C26.0282 61.9406 25.1747 61.4317 24.3103 60.9482C23.2094 60.3325 22.1552 59.7895 21.1095 59.3602C14.2321 56.8527 7.4359 61.1906 5.18302 67.7395C4.73953 69.0362 4.47989 70.3962 4.44644 71.7676L4.44514 71.8209L4.44101 71.874C4.32854 73.3195 4.5023 74.7699 4.93552 75.9424C5.36944 77.1167 5.99639 77.8517 6.69015 78.202C8.80273 79.2279 11.0431 80.0043 13.4281 80.8309C14.6936 81.2695 15.9999 81.7223 17.3494 82.2339C21.0862 83.6505 24.9312 85.4602 27.8995 88.5805C34.6478 95.6702 32.362 105.438 26.4669 111.575L26.4652 111.576C24.2969 113.828 21.8198 115.64 19.3476 117.279C18.2945 117.977 17.2801 118.62 16.2847 119.252C14.8538 120.16 13.4622 121.043 12.0513 122.027C8.80663 124.292 4.95323 128.069 3.29775 131.672C2.48053 133.451 2.31109 134.936 2.70039 136.114C3.07307 137.242 4.10668 138.531 6.68507 139.63L6.7084 139.64L6.73146 139.65C8.05532 140.254 9.48154 140.744 10.9871 141.16C14.1973 142.035 17.5484 142.501 20.9747 142.978C22.4611 143.185 23.9617 143.394 25.4711 143.639L25.51 143.645L25.5486 143.653C26.8437 143.916 28.7381 144.351 30.2992 145.231C31.9126 146.141 33.567 147.79 33.3435 150.438L33.3404 150.475L33.3359 150.512C33.0428 152.913 31.6431 154.619 30.5762 155.919C30.4343 156.092 30.2984 156.257 30.1717 156.417C29.2983 157.748 28.2134 158.977 27.1782 160.106C26.949 160.355 26.7231 160.6 26.5007 160.84C25.6626 161.745 24.8762 162.595 24.1641 163.483C22.3877 165.698 21.4696 167.676 21.9401 170.037C22.3954 172.287 23.3863 174.251 24.7667 175.884L23.2394 177.175L24.7668 175.884C25.4491 176.691 26.2142 177.408 27.0422 178.007C29.057 179.259 31.4975 179.978 33.7666 179.932C36.0297 179.885 38.0109 179.091 39.3732 177.436L39.4067 177.396L39.4423 177.357C40.389 176.323 41.3438 175.329 42.3152 174.355C43.246 173.189 44.1875 171.976 45.1461 170.741C49.0738 165.679 53.2888 160.247 58.2363 156.169C64.5676 150.952 72.276 147.775 82.4294 149.863L82.438 149.865C85.2491 150.456 87.4305 151.666 89.1057 153.335C90.7617 154.986 91.8349 156.998 92.585 159.073C93.332 161.14 93.7863 163.35 94.1544 165.447C94.2757 166.138 94.3864 166.807 94.4941 167.459C94.7207 168.829 94.9341 170.119 95.2052 171.363C95.4659 172.315 95.8705 173.167 96.3859 173.933L96.3885 173.937C99.0162 177.858 104.813 179.649 109.972 179.05L109.991 179.047L110.01 179.046C112.398 178.815 114.952 177.904 116.92 176.429L116.924 176.425C117.903 175.695 118.719 174.844 119.304 173.905L119.338 173.85L119.376 173.798C120.02 172.899 120.25 171.909 120.138 171.353L120.103 171.183L120.098 171.008C120.054 169.336 119.896 167.562 119.728 165.664C119.663 164.933 119.596 164.183 119.534 163.414C119.315 160.713 119.157 157.843 119.398 155.081C119.64 152.314 120.291 149.546 121.77 147.097C123.263 144.624 125.527 142.597 128.781 141.215C131.901 139.752 135.012 140.204 137.576 141.563C140.103 142.903 142.17 145.144 143.488 147.484L143.518 147.537L143.545 147.592C144.083 148.703 144.607 149.829 145.131 150.955C146.82 154.586 148.51 158.22 150.704 161.353C153.513 165.365 156.929 168.211 161.813 168.815L161.91 168.827L162.005 168.849C163.29 169.137 164.56 169.363 165.799 169.478L165.803 169.479C170.926 169.966 175.052 168.758 176.911 164.913L176.919 164.897L176.927 164.88C178.523 161.732 178.8 158.765 178.225 155.892C177.935 154.441 177.427 152.987 176.734 151.526C175.951 150.009 175.075 148.724 173.816 147.676C172.658 146.716 171.392 145.848 170.04 145.002C168.695 144.171 167.297 143.373 165.877 142.567C155.793 137.543 148.132 126.748 150.245 114.828C150.433 113.332 150.731 111.847 151.13 110.403L151.132 110.398C151.951 107.464 153.202 104.658 154.923 102.157L154.941 102.13L154.96 102.104C155.503 101.368 156.069 100.648 156.593 99.9817C156.747 99.7863 156.897 99.5955 157.042 99.4102L157.046 99.4046L157.051 99.399C158.128 98.0411 159.074 96.7 159.807 95.3753L159.808 95.3737C160.905 93.3962 161.472 91.5284 161.355 89.6666C161.24 87.8309 160.443 85.7483 158.341 83.3566C157.37 82.2596 156.315 81.0541 155.322 79.7772L155.314 79.767C154.31 78.4586 153.344 77.045 152.567 75.4802L152.532 75.4101L152.503 75.3374C151.781 73.5448 151.417 71.8119 151.36 70.1374C151.303 68.4531 151.568 66.8563 152.074 65.348L152.09 65.3014L152.108 65.2557C154.049 60.2971 157.553 56.682 161.017 53.4044C161.533 52.9167 162.046 52.4373 162.555 51.9621C165.515 49.1974 168.323 46.575 170.496 43.3009C171.051 42.0972 170.848 40.8003 170.149 38.9112C167.573 34.1217 161.716 32.3864 155.976 33.0936C149.677 34.1528 144.798 37.4866 139.41 41.1672C138.642 41.6923 137.863 42.2244 137.068 42.758C135.814 43.6006 134.515 44.4475 133.161 45.2212L132.987 45.3206L132.797 45.3835C132.353 45.5304 131.887 45.717 131.341 45.9361C131.192 45.9958 131.037 46.0579 130.875 46.1223C130.161 46.4053 129.337 46.7196 128.497 46.9354C126.871 47.3529 124.623 47.535 122.836 45.7993C120.525 43.7842 119.784 41.0868 119.35 38.7862C119.245 38.2273 119.153 37.6657 119.067 37.1339L119.054 37.054C118.962 36.4892 118.874 35.9574 118.774 35.4399C118.572 34.3994 118.335 33.5166 117.985 32.7627L117.968 32.7264L117.952 32.6894C115.945 27.8769 108.998 26.1465 104.17 29.6555C103.13 30.4154 102.12 31.2129 101.075 32.0376C100.804 32.2514 100.531 32.4671 100.255 32.6843C98.9296 33.7254 97.5455 34.7878 96.0793 35.7534M74.039 28.1887L86.0561 38.7234L86.7516 36.8482L86.0572 38.7238C88.2255 39.5276 90.2935 39.0064 91.9253 38.2654C93.2349 37.6706 94.4997 36.8168 95.4876 36.15C95.6982 36.0078 95.8961 35.8742 96.0793 35.7534M74.039 28.1887C74.2818 28.2087 74.508 28.2368 74.721 28.2747L75.125 28.3721C77.075 28.8423 78.9213 30.1499 80.0862 31.8133L74.039 28.1887ZM96.0793 35.7534L94.9793 34.083L96.0806 35.7525C96.0801 35.7528 96.0797 35.7531 96.0793 35.7534Z" stroke="#555555" stroke-width="4"/>
</svg>
