<svg width="181" height="182" viewBox="0 0 181 182" fill="none" xmlns="http://www.w3.org/2000/svg">
<path d="M74.039 28.189C73.175 28.1236 72.2916 28.2602 71.1107 28.4433L71.1105 28.4433C70.0107 28.6138 68.6315 28.8275 67.1859 28.6683L67.1791 28.6675C65.7976 28.5105 64.4775 28.248 63.2115 27.8769C61.6886 27.4601 60.2659 26.8928 58.9174 26.1758L58.8863 26.1593L58.8558 26.1416C54.4648 23.6045 51.4147 19.9674 48.7242 16.3297C48.068 15.4425 47.4377 14.5629 46.8164 13.6959C44.8293 10.923 42.9346 8.27909 40.58 5.92443C38.9418 4.28631 36.9188 2.97326 34.9434 2.47199C33.0686 1.99626 31.2741 2.24298 29.6623 3.64211C27.7198 5.58962 26.5577 7.07328 26.1537 8.45692C25.8142 9.6196 25.9294 11.0249 27.5472 13.1144C28.5601 14.4216 29.6162 15.7277 30.6841 17.0483C34.9356 22.3062 39.373 27.794 42.0114 34.4946C45.4216 43.1446 47.2964 52.26 47.0989 61.6523C47.0886 63.8859 45.6264 65.5399 43.9986 66.4499L43.838 66.5397L43.6637 66.5987C42.1551 67.1091 40.6635 67.3197 39.2095 67.2765C34.6653 67.2443 30.8779 64.9024 27.7902 62.993L27.6754 62.9221C27.418 62.7693 27.164 62.6179 26.9124 62.4679C26.0283 61.9408 25.1748 61.432 24.3103 60.9484C23.2094 60.3327 22.1552 59.7897 21.1094 59.3604C14.2317 56.8529 7.43517 61.1913 5.18266 67.7408C4.73939 69.0372 4.47988 70.3969 4.44644 71.7678L4.44514 71.8211L4.44101 71.8742C4.32854 73.3197 4.5023 74.7701 4.93552 75.9426C5.36935 77.1167 5.9961 77.8517 6.68969 78.202C8.80241 79.228 11.0429 80.0045 13.4281 80.8312C14.6936 81.2698 15.9999 81.7225 17.3494 82.2341C21.0863 83.6507 24.9312 85.4604 27.8995 88.5808C34.6478 95.6704 32.362 105.438 26.4669 111.575L26.4652 111.577C24.2969 113.828 21.8198 115.64 19.3476 117.279C18.2945 117.977 17.2801 118.621 16.2847 119.252C14.8538 120.16 13.4622 121.044 12.0513 122.027C8.80663 124.293 4.95323 128.069 3.29775 131.672C2.48053 133.451 2.31109 134.936 2.70039 136.114C3.07307 137.242 4.10668 138.531 6.68507 139.63L6.7084 139.64L6.73147 139.65C8.05719 140.256 9.48555 140.746 10.9934 141.162C14.2017 142.036 17.5506 142.502 20.9747 142.978C22.4611 143.185 23.9617 143.394 25.4711 143.639L25.51 143.645L25.5486 143.653C26.8437 143.916 28.7381 144.351 30.2992 145.232C31.9126 146.142 33.567 147.79 33.3435 150.438L33.3404 150.475L33.3359 150.512C33.0428 152.914 31.6431 154.619 30.5761 155.919C30.4343 156.092 30.2984 156.258 30.1717 156.417C29.2983 157.748 28.2134 158.977 27.1782 160.106C26.949 160.356 26.723 160.6 26.5007 160.84C25.6625 161.746 24.8761 162.595 24.1641 163.483C22.3877 165.698 21.4696 167.677 21.9401 170.038C22.3954 172.287 23.3863 174.251 24.7667 175.884C25.4491 176.691 26.2141 177.408 27.0421 178.007C29.0568 179.26 31.4975 179.979 33.7666 179.932C36.0297 179.886 38.0109 179.091 39.3732 177.437L39.4067 177.396L39.4423 177.357C40.3889 176.324 41.3438 175.329 42.3152 174.356C43.246 173.189 44.1875 171.976 45.1461 170.741C49.0739 165.679 53.2889 160.247 58.2363 156.17C64.5676 150.952 72.276 147.775 82.4294 149.863L82.438 149.865C85.2491 150.456 87.4305 151.666 89.1057 153.336C90.7617 154.986 91.8349 156.998 92.585 159.073C93.332 161.14 93.7863 163.35 94.1544 165.447C94.2757 166.138 94.3864 166.807 94.4941 167.459C94.7206 168.829 94.9341 170.12 95.2052 171.363C95.4659 172.316 95.8705 173.168 96.3859 173.933L96.3885 173.937C99.0162 177.858 104.813 179.649 109.972 179.05L109.991 179.048L110.01 179.046C112.398 178.816 114.952 177.905 116.92 176.429L116.924 176.426C117.903 175.695 118.719 174.844 119.304 173.905L119.338 173.85L119.376 173.798C120.02 172.899 120.25 171.909 120.138 171.354L120.103 171.183L120.098 171.008C120.054 169.336 119.896 167.562 119.728 165.664C119.663 164.933 119.596 164.183 119.534 163.414C119.315 160.713 119.157 157.843 119.398 155.082C119.64 152.314 120.291 149.546 121.77 147.097C123.263 144.624 125.527 142.597 128.781 141.216C131.901 139.752 135.012 140.204 137.576 141.563C140.103 142.903 142.17 145.144 143.488 147.484L143.518 147.537L143.545 147.593C144.083 148.703 144.607 149.829 145.131 150.955C146.82 154.586 148.51 158.22 150.704 161.353C153.513 165.365 156.929 168.211 161.813 168.816L161.91 168.828L162.005 168.849C163.29 169.138 164.56 169.363 165.799 169.479L165.803 169.479C170.926 169.966 175.052 168.759 176.911 164.914L176.919 164.897L176.927 164.88C178.523 161.732 178.8 158.765 178.225 155.892C177.935 154.441 177.427 152.987 176.734 151.526C175.951 150.009 175.075 148.724 173.816 147.676C172.658 146.716 171.392 145.848 170.039 145.002C168.694 144.171 167.296 143.373 165.877 142.567C155.793 137.543 148.132 126.748 150.245 114.828C150.433 113.332 150.731 111.847 151.13 110.403L151.132 110.399C151.951 107.465 153.202 104.659 154.923 102.157L154.941 102.131L154.96 102.104C155.503 101.368 156.069 100.649 156.593 99.9826C156.747 99.787 156.897 99.596 157.042 99.4104L157.046 99.4048L157.051 99.3993C158.128 98.0413 159.074 96.7003 159.807 95.3756L159.808 95.3739C160.905 93.3965 161.472 91.5286 161.355 89.6668C161.24 87.8312 160.443 85.7485 158.341 83.3568C157.37 82.2599 156.315 81.0543 155.322 79.7775L155.314 79.7673C154.31 78.4588 153.344 77.0453 152.567 75.4805L152.532 75.4103L152.503 75.3377C151.781 73.5451 151.417 71.8121 151.36 70.1376C151.303 68.4533 151.568 66.8566 152.074 65.3482L152.09 65.3017L152.108 65.256C154.049 60.2974 157.553 56.6822 161.017 53.4047C161.533 52.917 162.046 52.4376 162.555 51.9623C165.515 49.1977 168.323 46.5753 170.496 43.3012C171.051 42.0975 170.848 40.8006 170.149 38.9114C167.573 34.1219 161.716 32.3867 155.976 33.0939C149.677 34.153 144.797 37.4868 139.41 41.1675C138.642 41.6927 137.863 42.2249 137.068 42.7586C135.814 43.6011 134.515 44.4479 133.161 45.2214L132.987 45.3208L132.797 45.3838C132.353 45.5306 131.887 45.7172 131.341 45.9363C131.192 45.996 131.037 46.0581 130.875 46.1225C130.161 46.4055 129.337 46.7198 128.497 46.9357C126.871 47.3531 124.623 47.5352 122.836 45.7996C120.525 43.7845 119.784 41.0871 119.35 38.7865C119.245 38.2275 119.153 37.6659 119.067 37.1341L119.054 37.0543C118.962 36.4895 118.874 35.9576 118.774 35.4401C118.572 34.3996 118.335 33.5168 117.985 32.7629L117.968 32.7266L117.952 32.6897C115.945 27.8773 108.999 26.1469 104.171 29.6554C103.13 30.4154 102.12 31.213 101.075 32.0378C100.804 32.2517 100.531 32.4673 100.255 32.6846C98.9296 33.7256 97.5455 34.788 96.0793 35.7536M74.039 28.189L94.9793 34.0833M74.039 28.189C74.2818 28.2089 74.508 28.237 74.721 28.2749L75.125 28.3723C77.075 28.8425 78.9213 30.1501 80.0862 31.8135L74.039 28.189ZM96.0793 35.7536L94.9793 34.0833M96.0793 35.7536C96.0797 35.7533 96.0801 35.753 96.0806 35.7528L94.9793 34.0833M96.0793 35.7536C95.8961 35.8744 95.6982 36.0081 95.4876 36.1502C94.4997 36.8171 93.2349 37.6708 91.9253 38.2656C90.2932 39.0068 88.2248 39.528 86.0561 38.7237M94.9793 34.0833C94.7637 34.2255 94.5421 34.3748 94.3153 34.5276C92.1125 36.0117 89.4081 37.8337 86.7516 36.8485M86.0561 38.7237C86.0565 38.7238 86.0568 38.7239 86.0572 38.7241L86.7516 36.8485M86.0561 38.7237C84.1778 38.0279 83.0133 36.5987 82.1889 35.3258C81.8225 34.7601 81.4846 34.1617 81.1817 33.6253C81.1432 33.5571 81.1053 33.49 81.068 33.424C80.7221 32.8131 80.4146 32.2837 80.0872 31.8149L86.7516 36.8485M86.0561 38.7237L86.7516 36.8485" fill="#77398A" stroke="#A454A6" stroke-width="4"/>
</svg>
