<svg width="35" height="63" viewBox="0 0 35 63" fill="none" xmlns="http://www.w3.org/2000/svg">
<g clip-path="url(#clip0_82_4660)">
<path d="M1.2644 9.60813C6.92745 20.7043 4.36998 17.0561 13.0364 15.2439C21.2048 13.54 24.8074 19.953 21.2623 25.0042C18.1163 29.486 13.1503 29.9482 10.0086 34.0273C8.27909 36.2725 8.79208 38.3543 9.04963 45.2696C26.7731 47.0428 12.681 43.1337 24.0422 36.0798C50.0554 19.9411 24.5786 -6.59445 1.2644 9.60813Z" fill="#5F6368"/>
<path d="M6.87953 55.7833C6.05577 64.3062 18.9847 65.5284 19.802 57.0758C20.6173 48.6482 7.70115 47.2863 6.87953 55.7833Z" fill="#5F6368"/>
<path d="M15.2693 0.830811C9.78395 1.15666 4.50404 3.0219 0 6.22301L15.2693 0.830811Z" fill="#5F6368"/>
<path d="M24.2549 40.3344C25.4937 38.8621 27.3253 38.1519 28.9409 37.5251L24.2549 40.3344Z" fill="#5F6368"/>
</g>
<defs>
<clipPath id="clip0_82_4660">
<rect width="35" height="62" fill="white" transform="translate(0 0.830811)"/>
</clipPath>
</defs>
</svg>
