<svg width="180" height="158" viewBox="0 0 180 158" fill="none" xmlns="http://www.w3.org/2000/svg">
<path d="M152.529 97.0432C148.825 98.7848 145.813 102.653 147.054 106.694C147.516 107.935 148.055 109.138 148.69 110.322C149.921 112.9 151.721 115.123 153.838 117.009C154.54 117.634 155.281 118.231 156.041 118.779C162.95 123.792 169.069 131.644 169.127 140.554C169.185 149.859 160.13 158.018 150.682 157.537C149.527 157.508 148.363 157.364 147.208 157.114C146.198 156.892 145.187 156.604 144.177 156.238C132.977 152.12 135.517 137.735 131.813 128.248C130.995 126.429 130.167 124.004 127.935 123.417C126.819 123.186 125.818 123.215 124.885 123.417C123.961 123.629 123.105 124.023 122.297 124.553C117.043 128.95 114.464 137.263 106.574 137.716C100.907 138.158 96.8366 134.338 91.3713 133.357C87.5224 132.568 84.7032 135.426 82.8942 138.197C82.0282 139.409 81.2199 140.66 80.4502 141.901C79.6804 143.152 78.9684 144.384 78.2852 145.577C77.4866 146.799 76.4763 147.617 75.5622 148.656C74.6 149.608 73.5896 150.542 72.5601 151.427C65.3051 157.633 56.4913 161.636 48.7936 153.044C40.23 143.585 51.5167 135.214 57.5401 128.296C58.6466 126.872 59.4452 125.101 59.6377 123.302C59.7339 122.407 59.6762 121.502 59.4067 120.636C58.5023 118.779 56.8761 117.577 55.048 117.182C48.505 115.248 40.0568 116.865 34.3317 113.526C33.3791 112.968 32.5035 112.275 31.7241 111.409C29.9055 109.446 29.4822 106.617 30.4828 104.183C30.8773 103.269 31.3585 102.383 31.8684 101.517C34.8897 96.4659 38.3056 92.1937 42.1159 87.3153C46.1283 81.8307 46.6864 73.931 41.3943 69.5145C40.2781 68.5811 39.1042 67.8787 37.9014 67.3688C36.6987 66.8492 35.4575 66.5124 34.1873 66.2911C27.4038 65.1557 20.3316 66.6182 13.8367 64.0299C5.92737 61.0471 -3.84865 52.0023 1.55894 42.8614C2.06891 42.005 2.62698 41.2545 3.23317 40.6002C5.05174 38.6373 7.26482 37.5211 9.70883 37.04C10.7961 36.8284 11.9315 36.7418 13.115 36.7802C22.5639 38.4737 28.8856 46.1233 37.6128 49.9143C40.4513 51.1075 43.6939 51.2903 46.3111 49.0484C48.5242 47.2105 49.7173 44.372 49.3036 41.5432C48.6589 35.2696 45.5895 29.6311 45.9551 23.3094C46.0802 21.9719 46.3496 20.7306 46.7922 19.6241C48.1201 16.2949 50.949 14.0626 56.4143 14.178C57.6652 14.2069 58.8968 14.332 60.1573 14.5725C61.6776 14.7457 63.3037 15.3519 64.7278 16.1505C70.6165 19.5568 73.8976 26.2152 80.5849 27.1774C85.3093 27.9568 87.8496 24.4351 90.1492 20.6729C90.7266 19.73 91.2846 18.7774 91.8619 17.8729C96.673 11.2914 99.2229 -0.861247 109.355 0.283777C110.413 0.399242 111.462 0.591683 112.501 0.832234C113.54 1.07279 114.56 1.36145 115.58 1.70784C116.62 2.0831 117.601 2.52572 118.496 3.09342C119.391 3.66112 120.209 4.37315 120.921 5.29687C126.02 11.5127 126.915 24.2523 136.624 23.7905C143.908 23.3382 146.891 15.0248 152.529 10.5313C153.539 9.91545 154.338 9.1072 155.425 8.59723C156.359 8.01029 157.321 7.52919 158.312 7.1443C163.267 5.22951 168.887 5.47007 173.967 7.9718C176.671 9.367 178.422 11.4261 179.307 13.7547C179.75 14.9189 179.981 16.1409 180 17.3918C179.355 27.3699 168.232 29.0633 160.977 33.961C154.935 37.7809 156.715 42.1686 159.9 46.2868C160.698 47.3164 161.583 48.3267 162.459 49.3082C165.952 53.2243 169.522 57.0347 173.12 60.8739C177.594 65.6464 180.058 70.7557 179.259 77.3565C178.624 82.5716 176.199 88.5084 171.167 90.8754C169.512 91.6548 167.78 92.2418 166.009 92.7614C165.124 93.0212 164.229 93.2617 163.325 93.5023C160.544 94.2624 157.715 94.8878 154.838 95.7442L152.539 97.0432H152.529Z" fill="#E80D15"/>
</svg>
