<svg width="180" height="158" viewBox="0 0 180 158" fill="none" xmlns="http://www.w3.org/2000/svg">
<path d="M152.529 97.0434C148.825 98.785 145.813 102.653 147.054 106.694C147.516 107.936 148.055 109.138 148.69 110.322C149.921 112.901 151.721 115.123 153.838 117.009C154.54 117.635 155.281 118.231 156.041 118.78C162.95 123.793 169.069 131.644 169.127 140.554C169.185 149.859 160.13 158.018 150.682 157.537C149.527 157.508 148.363 157.364 147.208 157.114C146.198 156.893 145.187 156.604 144.177 156.238C132.977 152.12 135.517 137.735 131.813 128.248C130.995 126.429 130.167 124.004 127.935 123.417C126.819 123.187 125.818 123.215 124.885 123.417C123.961 123.629 123.105 124.024 122.297 124.553C117.043 128.95 114.464 137.264 106.574 137.716C100.907 138.158 96.8366 134.339 91.3713 133.357C87.5224 132.568 84.7032 135.426 82.8942 138.197C82.0282 139.409 81.2199 140.66 80.4502 141.901C79.6804 143.152 78.9684 144.384 78.2852 145.577C77.4866 146.799 76.4763 147.617 75.5622 148.656C74.6 149.609 73.5896 150.542 72.5601 151.427C65.3051 157.634 56.4913 161.636 48.7936 153.044C40.23 143.585 51.5167 135.214 57.5401 128.296C58.6466 126.872 59.4452 125.101 59.6377 123.302C59.7339 122.407 59.6762 121.503 59.4067 120.637C58.5023 118.78 56.8761 117.577 55.048 117.182C48.505 115.248 40.0568 116.865 34.3317 113.526C33.3791 112.968 32.5035 112.275 31.7241 111.409C29.9055 109.446 29.4822 106.617 30.4828 104.183C30.8773 103.269 31.3585 102.384 31.8684 101.518C34.8897 96.4661 38.3056 92.1939 42.1159 87.3155C46.1283 81.831 46.6864 73.9312 41.3943 69.5147C40.2781 68.5814 39.1042 67.879 37.9014 67.369C36.6987 66.8494 35.4575 66.5126 34.1873 66.2913C27.4038 65.1559 20.3316 66.6185 13.8367 64.0301C5.92737 61.0473 -3.84865 52.0026 1.55894 42.8616C2.06891 42.0053 2.62698 41.2547 3.23317 40.6004C5.05174 38.6375 7.26482 37.5214 9.70883 37.0403C10.7961 36.8286 11.9315 36.742 13.115 36.7805C22.5639 38.474 28.8856 46.1235 37.6128 49.9146C40.4513 51.1077 43.6939 51.2905 46.3111 49.0486C48.5242 47.2108 49.7173 44.3723 49.3036 41.5434C48.6589 35.2698 45.5895 29.6313 45.9551 23.3096C46.0802 21.9721 46.3496 20.7309 46.7922 19.6244C48.1201 16.2951 50.949 14.0628 56.4143 14.1783C57.6652 14.2071 58.8968 14.3322 60.1573 14.5728C61.6776 14.746 63.3037 15.3522 64.7278 16.1508C70.6165 19.557 73.8976 26.2155 80.5849 27.1777C85.3093 27.9571 87.8496 24.4354 90.1492 20.6732C90.7266 19.7302 91.2846 18.7776 91.8619 17.8731C96.673 11.2917 99.2229 -0.861003 109.355 0.284022C110.413 0.399486 111.462 0.591927 112.501 0.832478C113.54 1.07303 114.56 1.36169 115.58 1.70809C116.62 2.08335 117.601 2.52596 118.496 3.09366C119.391 3.66136 120.209 4.37339 120.921 5.29711C126.02 11.513 126.915 24.2526 136.624 23.7907C143.908 23.3385 146.891 15.025 152.529 10.5315C153.539 9.9157 154.338 9.10745 155.425 8.59748C156.359 8.01053 157.321 7.52943 158.312 7.14455C163.267 5.22976 168.887 5.47031 173.967 7.97204C176.671 9.36724 178.422 11.4264 179.307 13.7549C179.75 14.9192 179.981 16.1412 180 17.392C179.355 27.3701 168.232 29.0636 160.977 33.9612C154.935 37.7812 156.715 42.1688 159.9 46.2871C160.698 47.3166 161.583 48.327 162.459 49.3084C165.952 53.2246 169.522 57.0349 173.12 60.8741C177.594 65.6467 180.058 70.756 179.259 77.3567C178.624 82.5719 176.199 88.5087 171.167 90.8757C169.512 91.6551 167.78 92.242 166.009 92.7616C165.124 93.0214 164.229 93.262 163.325 93.5025C160.544 94.2626 157.715 94.8881 154.838 95.7444L152.539 97.0434H152.529Z" fill="#F6CA43"/>
</svg>
