<svg width="252" height="132" viewBox="0 0 252 132" fill="none" xmlns="http://www.w3.org/2000/svg">
<path d="M77.982 26.9177C92.723 28.222 105.078 12.9112 109.361 6.93296C133.707 -21.5918 124.641 58.9106 95.0799 106.413C65.5186 153.915 41.1432 108.252 11.7721 71.3973C-17.599 34.543 26.0075 22.3189 77.982 26.9177Z" fill="url(#paint0_linear_21_1020)"/>
<path d="M77.982 26.9177C92.723 28.222 105.078 12.9112 109.361 6.93296C133.707 -21.5918 124.641 58.9106 95.0799 106.413C65.5186 153.915 41.1432 108.252 11.7721 71.3973C-17.599 34.543 26.0075 22.3189 77.982 26.9177Z" fill="url(#paint1_radial_21_1020)"/>
<g filter="url(#filter0_d_21_1020)">
<path d="M58.6095 44.0808C58.6095 44.5488 58.4968 45.1035 58.2715 45.7448C58.0462 46.3861 57.7342 47.0015 57.3355 47.5908C56.9542 48.1801 56.5122 48.6828 56.0095 49.0988C55.5068 49.4975 54.9695 49.6968 54.3975 49.6968C54.3108 49.6968 54.1982 49.6968 54.0595 49.6968C53.9208 49.6795 53.7562 49.6621 53.5655 49.6448C53.3748 49.6101 53.1755 49.5841 52.9675 49.5668C52.7768 49.5495 52.5775 49.5235 52.3695 49.4888C52.1615 49.4541 51.9622 49.4281 51.7715 49.4108C51.5808 49.3935 51.3988 49.3761 51.2255 49.3588C51.0522 49.3415 50.9135 49.3241 50.8095 49.3068C50.7055 49.2895 50.6362 49.2721 50.6015 49.2548H50.4455C50.2028 49.2028 49.9082 49.1508 49.5615 49.0988C49.1975 49.0468 48.8075 48.9948 48.3915 48.9428C48.1835 48.9081 47.9755 48.8821 47.7675 48.8648C47.5595 48.8475 47.3515 48.8215 47.1435 48.7868C46.9355 48.7695 46.7362 48.7608 46.5455 48.7608C46.3722 48.7435 46.1988 48.7348 46.0255 48.7348C45.2975 48.7348 44.9335 48.7695 44.9335 48.8388C44.9335 48.9948 45.0115 49.1248 45.1675 49.2288C45.3235 49.2981 45.4015 49.5148 45.4015 49.8788C45.4015 49.9655 45.3062 50.2688 45.1155 50.7888C45.0115 51.0315 44.9075 51.2828 44.8035 51.5428C44.6995 51.8028 44.5955 52.0801 44.4915 52.3748C44.4568 52.4615 44.3875 52.6261 44.2835 52.8688C44.1795 53.1115 44.0755 53.3715 43.9715 53.6488C43.8675 53.9088 43.7722 54.1601 43.6855 54.4028C43.6162 54.6281 43.5815 54.7841 43.5815 54.8708V54.9228C43.5815 54.8708 43.5295 54.9401 43.4255 55.1308C43.3908 55.2348 43.3475 55.3475 43.2955 55.4688C43.2435 55.5728 43.1828 55.6941 43.1135 55.8328C43.0615 55.9715 43.0095 56.1101 42.9575 56.2488C42.9055 56.3875 42.8448 56.5348 42.7755 56.6908C42.6715 57.0201 42.6195 57.2975 42.6195 57.5228C42.9662 57.5228 43.3995 57.5315 43.9195 57.5488C44.4395 57.5661 44.9855 57.6095 45.5575 57.6788C46.1468 57.7308 46.7362 57.8261 47.3255 57.9648C47.9148 58.1035 48.4435 58.2941 48.9115 58.5368C49.3795 58.7621 49.7608 59.0568 50.0555 59.4208C50.3502 59.7675 50.4975 60.1921 50.4975 60.6948C50.4975 61.9255 50.3068 62.7401 49.9255 63.1388C49.5615 63.5548 49.3188 63.7628 49.1975 63.7628C49.0935 63.7628 48.9982 63.6675 48.9115 63.4768C48.7555 63.2168 48.4002 63.0175 47.8455 62.8788C47.3082 62.7228 46.7015 62.6101 46.0255 62.5408C45.3668 62.4715 44.7255 62.4281 44.1015 62.4108C43.4775 62.3935 43.0095 62.3848 42.6975 62.3848C42.4202 62.3848 42.1255 62.4108 41.8135 62.4628L41.0335 62.5668L40.6955 63.9188C40.4182 65.0801 40.1928 66.2415 40.0195 67.4028C39.8462 68.5641 39.6902 69.7341 39.5515 70.9128C39.5168 71.2595 39.4908 71.5801 39.4735 71.8748C39.4562 72.1521 39.4475 72.3948 39.4475 72.6028C39.4475 73.0188 39.5168 73.4521 39.6555 73.9028C39.7942 74.2495 39.9415 74.5875 40.0975 74.9168C40.2535 75.2461 40.4268 75.5755 40.6175 75.9048C40.7735 76.1648 40.8515 76.3468 40.8515 76.4508C40.7995 76.7281 40.6002 76.9535 40.2535 77.1268C39.9068 77.3001 39.5082 77.4301 39.0575 77.5168C38.6242 77.6035 38.1908 77.6641 37.7575 77.6988C37.3415 77.7335 37.0295 77.7508 36.8215 77.7508C35.0188 77.7508 33.6235 77.3781 32.6355 76.6328C31.6475 75.9048 30.9975 74.6655 30.6855 72.9148C30.4775 71.7708 30.3735 70.3668 30.3735 68.7028C30.3735 68.2175 30.3822 67.7321 30.3995 67.2468C30.4342 66.7615 30.4862 66.2761 30.5555 65.7908C30.5902 65.5828 30.6162 65.3921 30.6335 65.2188C30.6682 65.0455 30.7028 64.8895 30.7375 64.7508C30.7895 64.4561 30.8155 64.2741 30.8155 64.2048C30.8155 64.1008 30.7808 64.0488 30.7115 64.0488C30.7115 64.0488 30.6075 64.0835 30.3995 64.1528C30.2608 64.1875 30.0962 64.2308 29.9055 64.2828C29.7148 64.3348 29.4722 64.3868 29.1775 64.4388C28.5188 64.6121 27.9642 64.7855 27.5135 64.9588C27.3402 65.0108 27.1755 65.0541 27.0195 65.0888C26.8635 65.1235 26.7162 65.1408 26.5775 65.1408C26.3868 65.1408 26.2308 65.1061 26.1095 65.0368C26.0055 64.9675 25.8842 64.8548 25.7455 64.6988C25.6588 64.5601 25.5808 64.4215 25.5115 64.2828C25.4422 64.1441 25.3815 63.9881 25.3295 63.8148C25.2082 63.5201 25.1215 63.1908 25.0695 62.8268C25.0175 62.4455 24.9915 62.0988 24.9915 61.7868C24.9915 60.6428 25.4508 59.8195 26.3695 59.3168C27.2882 58.7968 28.8135 58.3721 30.9455 58.0428L32.0115 57.9128L33.1035 53.4408C33.1382 53.3541 33.1642 53.2761 33.1815 53.2068C33.2162 53.1375 33.2422 53.0681 33.2595 52.9988C33.2768 52.8601 33.3375 52.7388 33.4415 52.6348L33.9355 51.0488C34.0222 50.8755 34.1002 50.7195 34.1695 50.5808C34.2388 50.4421 34.2908 50.3121 34.3255 50.1908C34.3602 50.0521 34.3862 49.9568 34.4035 49.9048C34.4382 49.8355 34.4555 49.7835 34.4555 49.7488H34.4035C34.2648 49.7488 33.9875 49.8095 33.5715 49.9308C33.3462 49.9828 33.1122 50.0348 32.8695 50.0868C32.6442 50.1388 32.3928 50.1821 32.1155 50.2168L29.3595 50.7108C29.1342 50.7801 28.9955 50.8408 28.9435 50.8928L27.2535 51.2828C26.6815 51.4388 26.1528 51.5168 25.6675 51.5168C25.1128 51.5168 24.6275 51.4041 24.2115 51.1788C23.7955 50.9361 23.4488 50.6241 23.1715 50.2428C22.9115 49.8615 22.7122 49.4281 22.5735 48.9428C22.4348 48.4575 22.3655 47.9721 22.3655 47.4868C22.3655 46.2041 22.7035 45.1035 23.3795 44.1848C24.0555 43.2661 24.9395 42.4861 26.0315 41.8448C27.1235 41.1861 28.3628 40.6575 29.7495 40.2588C31.1362 39.8601 32.5315 39.5481 33.9355 39.3228C35.3568 39.0975 36.7348 38.9501 38.0695 38.8808C39.4042 38.7941 40.5568 38.7508 41.5275 38.7508C43.5382 38.7508 45.5922 38.8808 47.6895 39.1408C49.8042 39.3835 51.8148 39.8341 53.7215 40.4928C54.0508 40.5968 54.4928 40.7615 55.0475 40.9868C55.6022 41.2121 56.1395 41.4808 56.6595 41.7928C57.1968 42.1048 57.6562 42.4601 58.0375 42.8588C58.4188 43.2401 58.6095 43.6475 58.6095 44.0808ZM33.2595 41.7148C33.2595 41.5935 32.8782 41.5328 32.1155 41.5328C31.6995 41.5328 31.2142 41.6021 30.6595 41.7408C30.1222 41.8621 29.5675 42.0268 28.9955 42.2348C28.4235 42.4255 27.8688 42.6421 27.3315 42.8848C26.8115 43.1275 26.3695 43.3701 26.0055 43.6128C25.4682 43.9421 25.1995 44.2108 25.1995 44.4188C25.1995 44.6441 25.2948 44.7568 25.4855 44.7568C25.7108 44.7568 26.0315 44.6268 26.4475 44.3668C26.6208 44.2801 26.8462 44.1761 27.1235 44.0548C27.4008 43.9161 27.7302 43.7775 28.1115 43.6388C28.9608 43.2921 29.8102 42.9628 30.6595 42.6508C31.5088 42.3215 32.3755 42.0095 33.2595 41.7148ZM59.1791 53.9608C59.3004 53.9435 59.4304 53.9348 59.5691 53.9348C59.7077 53.9175 59.8464 53.9088 59.9851 53.9088C60.7131 53.9088 61.4844 54.0215 62.2991 54.2468C63.1137 54.4548 63.8331 54.7148 64.4571 55.0268V54.9748C65.1677 55.3215 65.5231 55.9801 65.5231 56.9508C65.5231 57.4535 65.4277 58.1295 65.2371 58.9788C65.1504 59.3775 65.0377 59.8195 64.8991 60.3048C64.7777 60.7728 64.6477 61.2841 64.5091 61.8388L64.1711 63.1388C64.1364 63.2948 64.0931 63.4508 64.0411 63.6068C64.0064 63.7455 63.9717 63.8928 63.9371 64.0488C63.8677 64.3261 63.7897 64.5948 63.7031 64.8548C63.6857 65.2708 63.6337 65.6608 63.5471 66.0248C63.5124 66.2155 63.4691 66.4148 63.4171 66.6228C63.3824 66.8135 63.3477 67.0128 63.3131 67.2208C63.2264 67.7235 63.1571 68.1568 63.1051 68.5208C63.0531 68.8848 63.0357 69.1708 63.0531 69.3788C63.0877 69.8121 63.2351 70.1155 63.4951 70.2888C63.6164 70.4101 63.8764 70.3148 64.2751 70.0028L64.6911 69.5868C64.7777 69.5001 64.8557 69.4221 64.9251 69.3528C64.9944 69.2661 65.0637 69.1795 65.1331 69.0928C65.5664 68.4688 65.9391 67.7928 66.2511 67.0648C66.5631 66.3195 66.8577 65.5915 67.1351 64.8808C67.7417 63.3901 68.2791 61.8995 68.7471 60.4088V60.4868C68.7817 60.3655 68.8164 60.2528 68.8511 60.1488C68.9031 60.0275 68.9464 59.8975 68.9811 59.7588L69.2151 59.0568C69.2497 58.8835 69.2844 58.7188 69.3191 58.5628C69.3711 58.3895 69.4317 58.2075 69.5011 58.0168C69.6917 57.3408 69.8997 56.6735 70.1251 56.0148C70.3677 55.3388 70.6884 54.7061 71.0871 54.1168C71.4684 53.6488 71.8584 53.3541 72.2571 53.2328C72.6731 53.0768 73.3404 52.9988 74.2591 52.9988C74.5364 52.9988 74.8744 53.0161 75.2731 53.0508C75.6717 53.0681 76.0704 53.1201 76.4691 53.2068C76.8851 53.2761 77.2664 53.3888 77.6131 53.5448C77.9771 53.7008 78.2457 53.9175 78.4191 54.1948C78.5924 54.3855 78.6791 54.7061 78.6791 55.1568C78.6791 55.2955 78.6704 55.4428 78.6531 55.5988C78.6357 55.7548 78.6097 55.9195 78.5751 56.0928C78.5404 56.2488 78.4884 56.4308 78.4191 56.6388C78.3671 56.8468 78.2977 57.0721 78.2111 57.3148C76.5991 62.6881 75.9057 66.5361 76.1311 68.8588C76.2177 69.4135 76.3044 69.7948 76.3911 70.0028C76.4604 70.2281 76.6337 70.4361 76.9111 70.6268C77.1711 70.8695 77.4657 70.9908 77.7951 70.9908C79.1297 70.9908 80.8371 68.8848 82.9171 64.6728C83.0557 64.4301 83.1857 64.1961 83.3071 63.9708C83.4457 63.7281 83.5844 63.5028 83.7231 63.2948C83.9657 62.8788 84.1737 62.5841 84.3471 62.4108C84.5377 62.4108 84.7111 62.4108 84.8671 62.4108C85.0231 62.4108 85.1877 62.4281 85.3611 62.4628C85.6557 62.5321 85.7251 62.8181 85.5691 63.3208C85.3784 63.8235 85.2744 64.3348 85.2571 64.8548C85.2571 64.9588 85.1271 65.3228 84.8671 65.9468C84.7284 66.2588 84.5811 66.5881 84.4251 66.9348C84.2864 67.2641 84.1477 67.6195 84.0091 68.0008C83.8531 68.3648 83.6971 68.7201 83.5411 69.0668C83.3851 69.4135 83.2291 69.7515 83.0731 70.0808C82.7437 70.7395 82.5271 71.1468 82.4231 71.3028C82.0937 71.7015 81.8251 72.0741 81.6171 72.4208C81.5304 72.5768 81.4437 72.7068 81.3571 72.8108C81.2877 72.9148 81.2271 73.0015 81.1751 73.0708C80.8631 73.3481 80.5164 73.6341 80.1351 73.9288C79.7537 74.2061 79.3464 74.4661 78.9131 74.7088C78.4797 74.9515 78.0464 75.1681 77.6131 75.3588C77.1797 75.5495 76.7551 75.6881 76.3391 75.7748C76.0791 75.8095 75.8277 75.8355 75.5851 75.8528C75.3424 75.8701 75.0997 75.8788 74.8571 75.8788C74.3371 75.8441 73.8344 75.7921 73.3491 75.7228C72.8637 75.6361 72.3784 75.4975 71.8931 75.3068C71.5117 75.1161 71.0697 74.8821 70.5671 74.6048C70.1164 74.2581 69.7437 73.9288 69.4491 73.6168C69.1544 73.2875 68.9117 72.9408 68.7211 72.5768C68.5477 72.2128 68.4177 71.8228 68.3311 71.4068C68.2617 70.9735 68.2184 70.4881 68.2011 69.9508L68.0711 69.7168L67.7851 70.2368C67.5251 70.7395 67.2564 71.2335 66.9791 71.7188C66.7017 72.1868 66.3984 72.6288 66.0691 73.0448C65.7571 73.4608 65.4017 73.8595 65.0031 74.2408C64.6044 74.6048 64.1537 74.9341 63.6511 75.2288C62.9231 75.5928 62.2037 75.7748 61.4931 75.7748C61.1984 75.7748 60.9037 75.7488 60.6091 75.6968C60.4704 75.6621 60.3231 75.6275 60.1671 75.5928C60.0284 75.5581 59.8637 75.5235 59.6731 75.4888C58.1477 74.9688 56.9691 74.2061 56.1371 73.2008C55.3051 72.1781 54.7157 70.8868 54.3691 69.3268C54.2304 68.8588 54.1524 68.4255 54.1351 68.0268C54.1004 67.8188 54.0831 67.5935 54.0831 67.3508C54.0831 67.1081 54.0831 66.8568 54.0831 66.5968V65.5308C54.0831 65.3228 54.0917 65.1148 54.1091 64.9068C54.1264 64.6988 54.1524 64.4908 54.1871 64.2828C54.2737 63.3121 54.4211 62.4021 54.6291 61.5528C54.8544 60.6861 55.1404 59.8021 55.4871 58.9008C55.6257 58.5541 55.8164 58.1208 56.0591 57.6008C56.3191 57.0808 56.6051 56.5695 56.9171 56.0668C57.2464 55.5641 57.6017 55.1135 57.9831 54.7148C58.3644 54.3161 58.7631 54.0648 59.1791 53.9608ZM71.1911 58.5368C71.0004 59.0568 70.9051 59.4208 70.9051 59.6288C70.9051 59.7848 70.9311 59.8628 70.9831 59.8628C71.1391 59.8628 71.4337 59.2735 71.8671 58.0948L72.8291 55.7808C73.1757 55.0181 73.1411 54.6368 72.7251 54.6368C72.5344 54.6368 72.3697 54.7755 72.2311 55.0528C72.1097 55.3301 71.9537 55.8501 71.7631 56.6128C71.6764 56.9421 71.5897 57.2715 71.5031 57.6008C71.4164 57.9128 71.3124 58.2248 71.1911 58.5368ZM59.2831 55.5468C59.0577 55.4775 58.7544 55.7721 58.3731 56.4308C58.0091 57.0895 57.6537 57.9821 57.3071 59.1088C57.2204 59.4901 57.1424 59.8195 57.0731 60.0968C57.0211 60.3568 56.9777 60.5561 56.9431 60.6948C56.8911 61.0068 56.8997 61.1975 56.9691 61.2668C57.0037 61.3015 57.0384 61.3188 57.0731 61.3188C57.2117 61.3188 57.3244 61.0415 57.4111 60.4868C57.6017 59.8801 57.8271 59.2908 58.0871 58.7188C58.3471 58.1295 58.6504 57.5661 58.9971 57.0288C59.5344 56.1448 59.6297 55.6508 59.2831 55.5468ZM97.9593 63.1128C98.0633 62.5061 98.2193 61.9515 98.4273 61.4488V61.5008C98.7566 60.2875 98.9126 59.5075 98.8953 59.1608C98.878 58.8141 98.722 58.6841 98.4273 58.7708C98.306 58.8228 98.124 58.9528 97.8813 59.1608C97.7426 59.2821 97.604 59.4121 97.4653 59.5508C97.3266 59.6895 97.1793 59.8368 97.0233 59.9928C96.5726 60.4435 96.1393 60.9635 95.7233 61.5528C95.3073 62.1421 94.9086 62.7575 94.5273 63.3988C94.1633 64.0228 93.8166 64.6641 93.4873 65.3228C93.158 65.9815 92.8633 66.6141 92.6033 67.2208C92.326 67.8448 92.1873 68.2955 92.1873 68.5728C92.1873 68.6941 92.17 68.7721 92.1353 68.8068C92.17 68.7721 92.118 68.9801 91.9793 69.4308C91.8406 69.9161 91.702 70.3495 91.5633 70.7308C91.5633 70.7655 91.546 70.8695 91.5113 71.0428C91.4593 71.1641 91.4333 71.2681 91.4333 71.3548C91.3466 71.7015 91.26 72.0568 91.1733 72.4208C91.104 72.7848 91.0173 73.1401 90.9133 73.4868C90.8786 73.5735 90.8526 73.6515 90.8353 73.7208C90.818 73.7728 90.792 73.8161 90.7573 73.8508C90.74 73.8855 90.7226 73.9288 90.7053 73.9808C90.688 74.0155 90.6706 74.0501 90.6533 74.0848C90.4106 74.3621 90.09 74.5355 89.6913 74.6048C89.3273 74.6568 88.9546 74.6915 88.5733 74.7088C88.2093 74.7088 87.8453 74.7088 87.4813 74.7088C86.944 74.7088 86.4933 74.7001 86.1293 74.6828C85.7826 74.6655 85.514 74.6395 85.3233 74.6048C84.8033 74.4661 84.3526 74.2668 83.9713 74.0068C83.59 73.7295 83.2606 73.4088 82.9833 73.0448C82.7233 72.6808 82.5066 72.2821 82.3333 71.8488C82.16 71.3981 82.0213 70.9301 81.9173 70.4448C81.848 70.2368 81.796 70.0115 81.7613 69.7688C81.7266 69.6475 81.7006 69.5261 81.6833 69.4048C81.6833 69.2661 81.6746 69.1275 81.6573 68.9888C81.6573 68.8328 81.6486 68.6681 81.6313 68.4948C81.6313 68.3041 81.6313 68.1048 81.6313 67.8968V66.2588C81.6313 65.2188 81.666 64.2481 81.7353 63.3468C81.8046 62.4455 81.926 61.5701 82.0993 60.7208C82.29 59.8715 82.5413 59.0308 82.8533 58.1988C83.1653 57.3495 83.5553 56.4741 84.0233 55.5728C84.1966 55.2261 84.422 54.8535 84.6993 54.4548C84.994 54.0561 85.306 53.7528 85.6353 53.5448C85.826 53.4061 86.06 53.3195 86.3373 53.2848C86.6146 53.2328 86.8746 53.2068 87.1173 53.2068C87.568 53.2068 88.0966 53.2675 88.7033 53.3888C89.3273 53.5101 89.9253 53.7008 90.4973 53.9608C91.0693 54.2208 91.5806 54.5501 92.0313 54.9488C92.482 55.3301 92.768 55.7808 92.8893 56.3008C93.028 56.8555 93.002 57.5661 92.8113 58.4328C92.742 58.6235 92.6726 58.8228 92.6033 59.0308C92.5513 59.2215 92.482 59.4295 92.3953 59.6548C92.326 59.8801 92.2566 60.0881 92.1873 60.2788C92.118 60.4521 92.04 60.6168 91.9533 60.7728C92.1093 60.5648 92.2393 60.3828 92.3433 60.2268C92.4126 60.1401 92.482 60.0535 92.5513 59.9668C92.6206 59.8628 92.7073 59.7675 92.8113 59.6808C93.1233 59.2648 93.4873 58.8141 93.9033 58.3288C94.3193 57.8435 94.77 57.3841 95.2553 56.9508C95.758 56.5001 96.2693 56.1015 96.7893 55.7548C97.3093 55.3908 97.8293 55.1308 98.3493 54.9748H98.2973C98.7133 54.8188 99.008 54.7408 99.1813 54.7408C99.372 54.7408 99.606 54.8188 99.8833 54.9748C100.265 55.0961 100.637 55.2781 101.001 55.5208C101.365 55.7635 101.703 56.0495 102.015 56.3788C102.327 56.7081 102.605 57.0635 102.847 57.4448C103.09 57.8261 103.263 58.2075 103.367 58.5888C103.402 58.6755 103.428 58.7621 103.445 58.8488C103.463 58.9355 103.489 59.0221 103.523 59.1088C103.558 59.4035 103.584 59.6808 103.601 59.9408C103.619 60.2008 103.627 60.4781 103.627 60.7728V61.8128C103.627 62.1421 103.61 62.4628 103.575 62.7748C103.541 63.0695 103.506 63.3815 103.471 63.7108C103.281 64.5601 103.107 65.4528 102.951 66.3888C102.795 67.3075 102.683 68.2088 102.613 69.0928C102.527 69.9595 102.579 70.4708 102.769 70.6268C102.943 70.8521 103.159 70.9648 103.419 70.9648C103.627 70.9648 103.861 70.8868 104.121 70.7308C104.381 70.5575 104.633 70.3668 104.875 70.1588C105.118 69.9335 105.343 69.7081 105.551 69.4828C105.759 69.2401 105.915 69.0408 106.019 68.8848C106.574 68.1048 107.025 67.2728 107.371 66.3888C107.735 65.5048 107.987 64.5948 108.125 63.6588C108.299 62.7055 108.333 61.7435 108.229 60.7728C108.385 59.6981 108.619 59.1608 108.931 59.1608C109.243 59.1608 109.668 59.3515 110.205 59.7328C110.379 59.9061 110.543 60.1228 110.699 60.3828C110.855 60.6255 110.994 60.8941 111.115 61.1888C111.254 61.4661 111.367 61.7435 111.453 62.0208C111.54 62.2981 111.601 62.5581 111.635 62.8008C111.67 63.1475 111.67 63.5548 111.635 64.0228C111.549 64.7161 111.436 65.4095 111.297 66.1028C111.176 66.7961 111.003 67.4721 110.777 68.1308C110.535 68.6855 110.283 69.2228 110.023 69.7428C109.781 70.2628 109.538 70.7741 109.295 71.2768C108.81 72.2648 108.195 72.9495 107.449 73.3308C106.704 73.7121 105.794 73.9028 104.719 73.9028C103.367 73.9028 102.059 73.6255 100.793 73.0708C99.9093 72.5335 99.2246 71.9181 98.7393 71.2248C98.2713 70.5141 97.916 69.6735 97.6733 68.7028C97.5173 68.0441 97.4393 67.5155 97.4393 67.1168V66.2068C97.474 66.0508 97.4913 65.9035 97.4913 65.7648C97.5086 65.6088 97.526 65.4528 97.5433 65.2968C97.5433 65.0195 97.5866 64.7768 97.6733 64.5688C97.708 64.3955 97.7513 64.1875 97.8033 63.9448C97.8553 63.7021 97.9073 63.4248 97.9593 63.1128ZM87.2733 55.8068C87.3773 55.5468 87.4033 55.3821 87.3513 55.3128C87.2473 55.1395 87.1 55.0528 86.9093 55.0528C86.7186 55.0875 86.5453 55.1915 86.3893 55.3648C86.2506 55.5555 86.1033 55.8501 85.9473 56.2488C85.8086 56.6301 85.67 57.0461 85.5313 57.4968C85.3926 57.9301 85.2713 58.3635 85.1673 58.7968C85.0633 59.2128 84.994 59.5595 84.9593 59.8368C84.8553 60.3221 84.8466 60.6341 84.9333 60.7728C85.0026 60.8248 85.0633 60.7641 85.1153 60.5908C85.15 60.5041 85.202 60.3568 85.2713 60.1488C85.3406 59.9408 85.436 59.6721 85.5573 59.3428C85.6613 58.9268 85.8086 58.5195 85.9993 58.1208C86.2073 57.7048 86.4326 57.3148 86.6753 56.9508C86.8313 56.6908 86.9526 56.4655 87.0393 56.2748C87.1433 56.0841 87.2213 55.9281 87.2733 55.8068Z" fill="white"/>
<path d="M136.376 51.0488C136.497 50.7368 136.61 50.4335 136.714 50.1388C136.818 49.8441 136.913 49.5668 137 49.3068C137.19 48.8041 137.286 48.4401 137.286 48.2148C137.286 47.8508 137.138 47.6688 136.844 47.6688C136.601 47.6688 136.28 47.7641 135.882 47.9548C134.53 48.5788 133.308 49.3935 132.216 50.3988C131.141 51.3868 130.188 52.4875 129.356 53.7008C128.524 54.8968 127.804 56.1795 127.198 57.5488C126.591 58.9008 126.097 60.2701 125.716 61.6568L125.326 63.3728C125.291 63.5981 125.265 63.8235 125.248 64.0488C125.23 64.2568 125.222 64.4821 125.222 64.7248C125.222 65.5741 125.317 66.3888 125.508 67.1688C125.716 67.9315 126.028 68.6075 126.444 69.1968C126.877 69.7688 127.423 70.2281 128.082 70.5748C128.758 70.9041 129.564 71.0688 130.5 71.0688C131.748 71.0688 132.874 70.9648 133.88 70.7568C134.902 70.5488 135.856 70.2455 136.74 69.8468C137.641 69.4481 138.508 68.9628 139.34 68.3908C140.189 67.8015 141.073 67.1428 141.992 66.4148C142.442 66.0681 142.841 65.7648 143.188 65.5048C143.534 65.2275 143.846 64.9935 144.124 64.8028C144.696 64.3868 145.155 64.0835 145.502 63.8928C145.848 63.7021 146.143 63.5721 146.386 63.5028C146.646 63.4161 146.975 63.3728 147.374 63.3728C148.05 63.3728 148.622 63.5548 149.09 63.9188C149.54 64.3175 149.766 64.8115 149.766 65.4008C149.766 65.8688 149.54 66.4408 149.09 67.1168C148.656 67.7755 148.128 68.4515 147.504 69.1448C146.897 69.8208 146.273 70.4621 145.632 71.0688C145.008 71.6581 144.505 72.1175 144.124 72.4468C142.425 73.9201 140.57 75.0555 138.56 75.8528C136.566 76.6328 134.469 77.1961 132.268 77.5428C131.765 77.6121 131.297 77.6641 130.864 77.6988C130.448 77.7335 130.058 77.7508 129.694 77.7508C128.463 77.7508 127.224 77.6208 125.976 77.3608C124.728 77.1008 123.523 76.7195 122.362 76.2168C121.2 75.6968 120.1 75.0728 119.06 74.3448C118.02 73.6168 117.084 72.7848 116.252 71.8488C115.35 70.8088 114.709 69.6128 114.328 68.2608C113.946 66.9088 113.756 65.5568 113.756 64.2048C113.756 62.5061 114.007 60.7035 114.51 58.7968C115.03 56.8728 115.714 54.9748 116.564 53.1028C117.43 51.2308 118.436 49.4628 119.58 47.7988C120.724 46.1175 121.92 44.6701 123.168 43.4568C123.844 42.7981 124.563 42.1915 125.326 41.6368C126.088 41.0648 126.886 40.5708 127.718 40.1548C128.567 39.7388 129.442 39.4095 130.344 39.1668C131.262 38.9241 132.198 38.8028 133.152 38.8028C134.018 38.8028 134.92 38.9241 135.856 39.1668C136.792 39.4095 137.71 39.7561 138.612 40.2068C139.513 40.6401 140.362 41.1688 141.16 41.7928C141.974 42.4168 142.685 43.1101 143.292 43.8728C143.916 44.6355 144.401 45.4588 144.748 46.3428C145.112 47.2095 145.294 48.1195 145.294 49.0728C145.294 49.6275 145.216 50.2515 145.06 50.9448C144.904 51.6208 144.696 52.3055 144.436 52.9988C144.176 53.6748 143.872 54.3335 143.526 54.9748C143.196 55.5988 142.841 56.1275 142.46 56.5608C141.905 57.1675 141.394 57.4708 140.926 57.4708C140.839 57.4708 140.735 57.4621 140.614 57.4448C140.51 57.4101 140.371 57.3755 140.198 57.3408C140.042 57.3061 139.868 57.2715 139.678 57.2368C139.504 57.1848 139.322 57.1328 139.132 57.0808C138.941 57.0115 138.742 56.9421 138.534 56.8728C138.343 56.8035 138.144 56.7255 137.936 56.6388C137.537 56.4828 137.208 56.3008 136.948 56.0928L136.506 55.8848L135.83 55.0268C135.587 54.7841 135.466 54.4808 135.466 54.1168C135.466 53.9261 135.561 53.5188 135.752 52.8948C135.856 52.6001 135.96 52.3055 136.064 52.0108C136.168 51.6988 136.272 51.3781 136.376 51.0488ZM129.564 42.1568C129.997 41.8795 130.214 41.6888 130.214 41.5848C130.214 41.3248 130.075 41.1948 129.798 41.1948C129.503 41.1948 129.148 41.2988 128.732 41.5068C128.316 41.7148 127.874 41.9921 127.406 42.3388C126.955 42.6681 126.496 43.0495 126.028 43.4828C125.56 43.8988 125.109 44.3235 124.676 44.7568C124.242 45.1728 123.844 45.5801 123.48 45.9788C123.133 46.3601 122.856 46.6895 122.648 46.9668C122.024 47.7641 121.712 48.2755 121.712 48.5008C121.712 48.5875 121.764 48.6308 121.868 48.6308C122.093 48.6308 122.544 48.1975 123.22 47.3308C124.121 46.3081 125.109 45.3635 126.184 44.4968C127.258 43.6301 128.385 42.8501 129.564 42.1568ZM173.469 61.6828C173.486 61.8735 173.495 62.1335 173.495 62.4628C173.512 62.7921 173.521 63.2081 173.521 63.7108C173.521 64.0055 173.512 64.2915 173.495 64.5688C173.495 64.8288 173.486 65.0715 173.469 65.2968C173.382 66.0421 173.226 66.7528 173.001 67.4288C172.776 68.0875 172.516 68.7548 172.221 69.4308C171.978 69.8815 171.727 70.3235 171.467 70.7568C171.207 71.1901 170.886 71.5801 170.505 71.9268C169.396 73.0535 168.226 73.8681 166.995 74.3708C166.51 74.5268 166.007 74.6221 165.487 74.6568C164.984 74.6915 164.482 74.7088 163.979 74.7088C163.511 74.7088 163.078 74.7001 162.679 74.6828C162.298 74.6481 161.96 74.5961 161.665 74.5268C161.249 74.4748 160.764 74.3795 160.209 74.2408C159.672 74.1021 159.126 73.9375 158.571 73.7468C158.016 73.5388 157.488 73.3135 156.985 73.0708C156.482 72.8108 156.066 72.5421 155.737 72.2648C154.766 71.5021 154.012 70.7135 153.475 69.8988C152.938 69.0841 152.548 68.0788 152.305 66.8828C152.201 66.3108 152.114 65.7648 152.045 65.2448C151.993 64.7248 151.967 64.2308 151.967 63.7628C151.967 62.0468 152.366 60.4261 153.163 58.9008C153.319 58.5368 153.501 58.1728 153.709 57.8088C153.934 57.4275 154.177 57.0895 154.437 56.7948C154.524 56.7081 154.61 56.6128 154.697 56.5088C154.801 56.3875 154.914 56.2575 155.035 56.1188C155.815 55.2868 156.682 54.5848 157.635 54.0128C158.588 53.4408 159.62 53.0595 160.729 52.8688C160.885 52.8515 161.093 52.8428 161.353 52.8428C161.63 52.8255 161.96 52.8168 162.341 52.8168C162.878 52.8341 163.355 52.8688 163.771 52.9208C164.204 52.9728 164.612 53.0508 164.993 53.1548C165.392 53.2415 165.79 53.3628 166.189 53.5188C166.588 53.6575 167.03 53.8395 167.515 54.0648V54.0128C169.404 54.9141 170.67 56.1795 171.311 57.8088C171.38 57.9301 171.441 58.0515 171.493 58.1728C171.597 58.3288 171.666 58.4155 171.701 58.4328C172.273 58.8661 172.68 59.3428 172.923 59.8628C173.183 60.3828 173.365 60.9895 173.469 61.6828ZM159.897 55.5468C160.729 55.1308 160.98 54.7928 160.651 54.5328C160.582 54.4635 160.478 54.4288 160.339 54.4288C160.096 54.4288 159.81 54.5068 159.481 54.6628C159.169 54.8188 158.857 55.0008 158.545 55.2088C158.233 55.4168 157.938 55.6421 157.661 55.8848C157.384 56.1101 157.167 56.3008 157.011 56.4568C155.988 57.5835 155.668 58.3028 156.049 58.6148C156.136 58.7535 156.231 58.7535 156.335 58.6148L156.907 57.8088C157.063 57.5835 157.262 57.3668 157.505 57.1588C157.748 56.9335 157.999 56.7255 158.259 56.5348C158.536 56.3268 158.814 56.1448 159.091 55.9888C159.386 55.8155 159.654 55.6681 159.897 55.5468ZM168.971 63.1388L168.633 63.0348H168.685C168.286 62.9481 167.966 62.7488 167.723 62.4368C167.498 62.1248 167.316 61.7955 167.177 61.4488C167.142 61.3448 167.125 61.2321 167.125 61.1108C167.125 60.9895 167.125 60.8595 167.125 60.7208C167.16 60.4608 167.229 60.1748 167.333 59.8628C167.489 59.3081 167.567 58.8488 167.567 58.4848C167.567 58.1208 167.472 57.8955 167.281 57.8088C166.952 57.7395 166.51 57.9128 165.955 58.3288C165.418 58.7275 164.95 59.2128 164.551 59.7848C163.944 60.9288 163.494 62.1681 163.199 63.5028C162.904 64.8201 162.757 66.1201 162.757 67.4028C162.757 67.7148 162.757 67.9835 162.757 68.2088C162.757 68.4168 162.766 68.5728 162.783 68.6768C162.783 68.7808 162.8 68.8848 162.835 68.9888C162.887 69.0928 162.948 69.2055 163.017 69.3268C163.156 69.5348 163.286 69.7081 163.407 69.8468C163.528 69.9855 163.65 70.0895 163.771 70.1588C163.979 70.3148 164.239 70.3755 164.551 70.3408C164.655 70.3235 164.75 70.3061 164.837 70.2888C164.941 70.2715 165.045 70.2541 165.149 70.2368C165.392 70.1675 165.574 70.1068 165.695 70.0548V70.0028C166.423 69.6561 167.004 69.1708 167.437 68.5468C167.888 67.9055 168.252 67.2208 168.529 66.4928V66.5448L168.971 64.6728V63.1388ZM185.842 38.9328H185.79C186.414 38.5515 187.055 38.3608 187.714 38.3608C187.974 38.3608 188.286 38.4041 188.65 38.4908C189.031 38.5601 189.404 38.6641 189.768 38.8028C190.149 38.9241 190.505 39.0715 190.834 39.2448C191.181 39.4008 191.458 39.5741 191.666 39.7648C192.273 40.2155 192.741 40.8135 193.07 41.5588C193.399 42.3041 193.564 43.0581 193.564 43.8208C193.564 44.5488 193.477 45.2595 193.304 45.9528C193.148 46.6288 192.966 47.3135 192.758 48.0068C192.602 48.5095 192.446 49.0121 192.29 49.5148C192.134 50.0175 191.969 50.5201 191.796 51.0228C191.709 51.1788 191.562 51.6208 191.354 52.3488C191.129 53.0768 190.869 53.8568 190.574 54.6888C190.539 54.7755 190.461 54.9921 190.34 55.3388C190.236 55.6855 190.123 56.0581 190.002 56.4568C189.881 56.8381 189.768 57.1935 189.664 57.5228C189.577 57.8521 189.534 58.0428 189.534 58.0948C189.499 58.1815 189.456 58.3115 189.404 58.4848C189.369 58.6408 189.326 58.8401 189.274 59.0828C189.222 59.3255 189.17 59.5855 189.118 59.8628C189.066 60.1401 188.997 60.4435 188.91 60.7728C188.823 61.0848 188.745 61.4141 188.676 61.7608C188.624 62.0901 188.555 62.4368 188.468 62.8008C188.399 63.1648 188.338 63.5201 188.286 63.8668C188.234 64.1961 188.173 64.5255 188.104 64.8548C188 65.6521 187.913 66.3455 187.844 66.9348C187.775 67.5241 187.723 68.0181 187.688 68.4168C187.636 69.1968 187.679 69.7081 187.818 69.9508C187.957 70.1068 188.139 70.1848 188.364 70.1848C188.624 70.1848 188.875 70.1328 189.118 70.0288C189.361 69.9248 189.595 69.7948 189.82 69.6388C190.063 69.4655 190.279 69.2835 190.47 69.0928C190.661 68.8848 190.834 68.6941 190.99 68.5208C191.198 68.3128 191.415 68.0788 191.64 67.8188C191.865 67.5415 192.047 67.2641 192.186 66.9868C192.55 66.4148 192.871 65.8255 193.148 65.2188C193.443 64.6121 193.729 63.9968 194.006 63.3728C194.613 61.9861 195.219 61.2928 195.826 61.2928C196.086 61.2928 196.329 61.3968 196.554 61.6048C197.039 61.9861 197.282 62.6275 197.282 63.5288C197.282 64.0661 197.187 64.6728 196.996 65.3488C196.805 66.0075 196.537 66.6921 196.19 67.4028C195.861 68.1135 195.471 68.8241 195.02 69.5348C194.587 70.2455 194.119 70.9128 193.616 71.5368C193.113 72.1608 192.593 72.7241 192.056 73.2268C191.519 73.7121 190.999 74.0935 190.496 74.3708C188.936 75.2028 187.419 75.6188 185.946 75.6188C185.149 75.6188 184.317 75.4801 183.45 75.2028C182.583 74.9255 181.769 74.5355 181.006 74.0328C180.243 73.5301 179.576 72.9321 179.004 72.2388C178.432 71.5455 178.051 70.7915 177.86 69.9768C177.652 69.2488 177.522 68.4948 177.47 67.7148C177.418 66.9348 177.392 66.1635 177.392 65.4008C177.392 65.0195 177.392 64.6728 177.392 64.3608C177.409 64.0488 177.418 63.7715 177.418 63.5288C177.435 63.0608 177.487 62.6275 177.574 62.2288C177.609 62.0208 177.635 61.8735 177.652 61.7868C177.669 61.7001 177.678 61.5701 177.678 61.3968C177.782 60.3741 177.938 59.3168 178.146 58.2248C178.354 57.1328 178.588 56.0408 178.848 54.9488C179.108 53.8568 179.385 52.7821 179.68 51.7248C179.992 50.6501 180.295 49.6101 180.59 48.6048C181.041 47.1661 181.431 46.0221 181.76 45.1728C182.072 44.4968 182.401 43.8208 182.748 43.1448C183.095 42.4688 183.485 41.8188 183.918 41.1948C184.005 41.0561 184.126 40.8741 184.282 40.6488C184.438 40.4235 184.611 40.1981 184.802 39.9728C184.993 39.7301 185.175 39.5135 185.348 39.3228C185.539 39.1148 185.703 38.9848 185.842 38.9328ZM185.894 41.0388C185.513 41.7841 185.149 42.5468 184.802 43.3268C184.455 44.1068 184.178 44.9128 183.97 45.7448C183.901 45.9355 183.892 46.1348 183.944 46.3428C183.996 46.4988 184.083 46.5421 184.204 46.4728C184.273 46.4035 184.308 46.3255 184.308 46.2388C184.308 46.1695 184.386 45.9701 184.542 45.6408L185.088 44.5488C185.296 44.1328 185.504 43.7341 185.712 43.3528C185.937 42.9541 186.171 42.5555 186.414 42.1568C186.951 41.3595 187.255 40.8221 187.324 40.5448C187.393 40.2675 187.237 40.1288 186.856 40.1288C186.7 40.1288 186.561 40.1721 186.44 40.2588C186.336 40.3628 186.154 40.6228 185.894 41.0388ZM216.43 61.6828C216.447 61.8735 216.456 62.1335 216.456 62.4628C216.473 62.7921 216.482 63.2081 216.482 63.7108C216.482 64.0055 216.473 64.2915 216.456 64.5688C216.456 64.8288 216.447 65.0715 216.43 65.2968C216.343 66.0421 216.187 66.7528 215.962 67.4288C215.737 68.0875 215.477 68.7548 215.182 69.4308C214.939 69.8815 214.688 70.3235 214.428 70.7568C214.168 71.1901 213.847 71.5801 213.466 71.9268C212.357 73.0535 211.187 73.8681 209.956 74.3708C209.471 74.5268 208.968 74.6221 208.448 74.6568C207.945 74.6915 207.443 74.7088 206.94 74.7088C206.472 74.7088 206.039 74.7001 205.64 74.6828C205.259 74.6481 204.921 74.5961 204.626 74.5268C204.21 74.4748 203.725 74.3795 203.17 74.2408C202.633 74.1021 202.087 73.9375 201.532 73.7468C200.977 73.5388 200.449 73.3135 199.946 73.0708C199.443 72.8108 199.027 72.5421 198.698 72.2648C197.727 71.5021 196.973 70.7135 196.436 69.8988C195.899 69.0841 195.509 68.0788 195.266 66.8828C195.162 66.3108 195.075 65.7648 195.006 65.2448C194.954 64.7248 194.928 64.2308 194.928 63.7628C194.928 62.0468 195.327 60.4261 196.124 58.9008C196.28 58.5368 196.462 58.1728 196.67 57.8088C196.895 57.4275 197.138 57.0895 197.398 56.7948C197.485 56.7081 197.571 56.6128 197.658 56.5088C197.762 56.3875 197.875 56.2575 197.996 56.1188C198.776 55.2868 199.643 54.5848 200.596 54.0128C201.549 53.4408 202.581 53.0595 203.69 52.8688C203.846 52.8515 204.054 52.8428 204.314 52.8428C204.591 52.8255 204.921 52.8168 205.302 52.8168C205.839 52.8341 206.316 52.8688 206.732 52.9208C207.165 52.9728 207.573 53.0508 207.954 53.1548C208.353 53.2415 208.751 53.3628 209.15 53.5188C209.549 53.6575 209.991 53.8395 210.476 54.0648V54.0128C212.365 54.9141 213.631 56.1795 214.272 57.8088C214.341 57.9301 214.402 58.0515 214.454 58.1728C214.558 58.3288 214.627 58.4155 214.662 58.4328C215.234 58.8661 215.641 59.3428 215.884 59.8628C216.144 60.3828 216.326 60.9895 216.43 61.6828ZM202.858 55.5468C203.69 55.1308 203.941 54.7928 203.612 54.5328C203.543 54.4635 203.439 54.4288 203.3 54.4288C203.057 54.4288 202.771 54.5068 202.442 54.6628C202.13 54.8188 201.818 55.0008 201.506 55.2088C201.194 55.4168 200.899 55.6421 200.622 55.8848C200.345 56.1101 200.128 56.3008 199.972 56.4568C198.949 57.5835 198.629 58.3028 199.01 58.6148C199.097 58.7535 199.192 58.7535 199.296 58.6148L199.868 57.8088C200.024 57.5835 200.223 57.3668 200.466 57.1588C200.709 56.9335 200.96 56.7255 201.22 56.5348C201.497 56.3268 201.775 56.1448 202.052 55.9888C202.347 55.8155 202.615 55.6681 202.858 55.5468ZM211.932 63.1388L211.594 63.0348H211.646C211.247 62.9481 210.927 62.7488 210.684 62.4368C210.459 62.1248 210.277 61.7955 210.138 61.4488C210.103 61.3448 210.086 61.2321 210.086 61.1108C210.086 60.9895 210.086 60.8595 210.086 60.7208C210.121 60.4608 210.19 60.1748 210.294 59.8628C210.45 59.3081 210.528 58.8488 210.528 58.4848C210.528 58.1208 210.433 57.8955 210.242 57.8088C209.913 57.7395 209.471 57.9128 208.916 58.3288C208.379 58.7275 207.911 59.2128 207.512 59.7848C206.905 60.9288 206.455 62.1681 206.16 63.5028C205.865 64.8201 205.718 66.1201 205.718 67.4028C205.718 67.7148 205.718 67.9835 205.718 68.2088C205.718 68.4168 205.727 68.5728 205.744 68.6768C205.744 68.7808 205.761 68.8848 205.796 68.9888C205.848 69.0928 205.909 69.2055 205.978 69.3268C206.117 69.5348 206.247 69.7081 206.368 69.8468C206.489 69.9855 206.611 70.0895 206.732 70.1588C206.94 70.3148 207.2 70.3755 207.512 70.3408C207.616 70.3235 207.711 70.3061 207.798 70.2888C207.902 70.2715 208.006 70.2541 208.11 70.2368C208.353 70.1675 208.535 70.1068 208.656 70.0548V70.0028C209.384 69.6561 209.965 69.1708 210.398 68.5468C210.849 67.9055 211.213 67.2208 211.49 66.4928V66.5448L211.932 64.6728V63.1388ZM234.913 63.7108C235.19 63.0695 235.372 62.3241 235.459 61.4748C235.494 61.0415 235.511 60.6428 235.511 60.2788C235.511 59.9148 235.476 59.5855 235.407 59.2908C235.303 58.9615 235.182 58.7968 235.043 58.7968C234.974 58.7968 234.904 58.8315 234.835 58.9008C233.847 59.4381 232.694 61.0415 231.377 63.7108C231.256 63.9361 231.134 64.2395 231.013 64.6208C230.892 65.0021 230.779 65.4095 230.675 65.8428C230.571 66.2588 230.484 66.6748 230.415 67.0908C230.346 67.5068 230.285 67.8621 230.233 68.1568C230.181 68.4168 230.138 68.6421 230.103 68.8328C230.086 69.0235 230.06 69.1881 230.025 69.3268C230.025 69.4135 230.016 69.4741 229.999 69.5088C229.982 69.5608 229.973 69.6301 229.973 69.7168L229.687 71.6408C229.531 72.5768 229.392 73.2095 229.271 73.5388C229.15 73.8855 228.985 74.1021 228.777 74.1888C228.742 74.2235 228.56 74.2668 228.231 74.3188C228.092 74.3361 227.945 74.3535 227.789 74.3708C227.65 74.3881 227.486 74.4141 227.295 74.4488C227.122 74.4835 226.957 74.5095 226.801 74.5268C226.645 74.5441 226.48 74.5701 226.307 74.6048C226.151 74.6221 226.021 74.6395 225.917 74.6568C225.813 74.6568 225.726 74.6568 225.657 74.6568C225.605 74.6568 225.536 74.6568 225.449 74.6568C225.38 74.6395 225.302 74.6308 225.215 74.6308C224.972 74.5961 224.782 74.5615 224.643 74.5268C224.314 74.4748 224.019 74.4228 223.759 74.3708C223.516 74.3015 223.282 74.2148 223.057 74.1108C222.832 74.0068 222.615 73.8768 222.407 73.7208C222.216 73.5475 222 73.3481 221.757 73.1228C221.532 72.8281 221.332 72.5335 221.159 72.2388C220.986 71.9441 220.821 71.6321 220.665 71.3028C220.37 70.3148 220.18 69.3008 220.093 68.2608C220.024 67.2035 219.989 66.1548 219.989 65.1148C219.989 64.6121 220.006 64.1095 220.041 63.6068C220.093 63.0868 220.154 62.5755 220.223 62.0728C220.31 61.3621 220.379 60.7121 220.431 60.1228C220.5 59.5335 220.561 58.9961 220.613 58.5108C220.7 57.9041 220.838 57.2368 221.029 56.5088C221.22 55.7808 221.454 55.0615 221.731 54.3508C222.008 53.6228 222.329 52.9381 222.693 52.2968C223.074 51.6381 223.49 51.0835 223.941 50.6328C224.097 50.4768 224.296 50.3468 224.539 50.2428C224.73 50.1388 224.99 50.1041 225.319 50.1388C225.475 50.1388 225.648 50.1475 225.839 50.1648C226.047 50.1821 226.272 50.1995 226.515 50.2168C226.879 50.2688 227.286 50.3641 227.737 50.5028C228.188 50.6241 228.621 50.7888 229.037 50.9968C229.47 51.2048 229.869 51.4475 230.233 51.7248C230.597 52.0021 230.866 52.3141 231.039 52.6608C231.178 52.9208 231.264 53.3455 231.299 53.9348C231.316 54.4721 231.29 54.8968 231.221 55.2088C231.186 55.2781 231.152 55.4688 231.117 55.7808C231.065 56.0581 231.013 56.3961 230.961 56.7948C230.926 56.9855 230.9 57.1761 230.883 57.3668C230.866 57.5575 230.84 57.7481 230.805 57.9388C230.77 58.1295 230.744 58.3028 230.727 58.4588C230.71 58.5975 230.684 58.7188 230.649 58.8228C230.701 58.7535 230.736 58.6841 230.753 58.6148C230.822 58.5108 230.883 58.4328 230.935 58.3808C231.334 57.8261 231.75 57.2801 232.183 56.7428C232.634 56.2055 233.102 55.6941 233.587 55.2088C234.09 54.7235 234.61 54.2728 235.147 53.8568C235.702 53.4408 236.282 53.0768 236.889 52.7648C237.357 52.4875 237.695 52.3401 237.903 52.3228C238.146 52.2708 238.527 52.2448 239.047 52.2448L240.737 52.6608C241.066 52.9381 241.396 53.3021 241.725 53.7528C242.072 54.2035 242.288 54.6455 242.375 55.0788C242.6 55.7548 242.713 56.4741 242.713 57.2368C242.713 58.2421 242.626 59.1781 242.453 60.0448C242.297 60.9115 242.011 61.6741 241.595 62.3328C241.196 62.9915 240.65 63.5461 239.957 63.9968C239.264 64.4301 238.388 64.7335 237.331 64.9068C237.054 64.9068 236.776 64.9155 236.499 64.9328C236.239 64.9328 235.97 64.9415 235.693 64.9588C235.173 64.9588 234.861 64.8635 234.757 64.6728C234.653 64.4821 234.705 64.1615 234.913 63.7108ZM238.345 53.3888C238.172 53.5448 238.085 53.6575 238.085 53.7268C238.085 53.9175 238.267 53.9001 238.631 53.6748C238.804 53.6055 238.934 53.5015 239.021 53.3628C239.073 53.2241 239.004 53.1548 238.813 53.1548C238.657 53.1548 238.501 53.2328 238.345 53.3888ZM225.423 52.0628C225.51 51.7681 225.423 51.6208 225.163 51.6208C225.024 51.6208 224.86 51.7508 224.669 52.0108C224.496 52.2708 224.314 52.6088 224.123 53.0248C223.95 53.4235 223.768 53.8741 223.577 54.3768C223.404 54.8795 223.248 55.3735 223.109 55.8588C222.988 56.3441 222.884 56.7948 222.797 57.2108C222.71 57.6095 222.667 57.9215 222.667 58.1468C222.667 58.4068 222.702 58.5281 222.771 58.5108C222.84 58.5108 222.918 58.3895 223.005 58.1468C223.022 58.0081 223.048 57.8608 223.083 57.7048C223.118 57.5315 223.161 57.3408 223.213 57.1328C223.282 56.9248 223.343 56.7168 223.395 56.5088C223.464 56.2835 223.542 56.0581 223.629 55.8328C223.768 55.4168 223.924 55.0095 224.097 54.6108C224.27 54.2121 224.47 53.8221 224.695 53.4408C225.128 52.7821 225.371 52.3228 225.423 52.0628Z" fill="url(#paint2_linear_21_1020)"/>
</g>
<defs>
<filter id="filter0_d_21_1020" x="15.9995" y="37.4248" width="240" height="61" filterUnits="userSpaceOnUse" color-interpolation-filters="sRGB">
<feFlood flood-opacity="0" result="BackgroundImageFix"/>
<feColorMatrix in="SourceAlpha" type="matrix" values="0 0 0 0 0 0 0 0 0 0 0 0 0 0 0 0 0 0 127 0" result="hardAlpha"/>
<feOffset dy="4"/>
<feGaussianBlur stdDeviation="2"/>
<feComposite in2="hardAlpha" operator="out"/>
<feColorMatrix type="matrix" values="0 0 0 0 0 0 0 0 0 0 0 0 0 0 0 0 0 0 0.25 0"/>
<feBlend mode="normal" in2="BackgroundImageFix" result="effect1_dropShadow_21_1020"/>
<feBlend mode="normal" in="SourceGraphic" in2="effect1_dropShadow_21_1020" result="shape"/>
</filter>
<linearGradient id="paint0_linear_21_1020" x1="121.854" y1="-9.90055" x2="12.6499" y2="92.9113" gradientUnits="userSpaceOnUse">
<stop stop-color="#575EFF"/>
<stop offset="1" stop-color="#E478FF"/>
</linearGradient>
<radialGradient id="paint1_radial_21_1020" cx="0" cy="0" r="1" gradientUnits="userSpaceOnUse" gradientTransform="translate(66.2482 66.9241) rotate(86.4409) scale(59.974 60.3251)">
<stop stop-color="#A454A6"/>
<stop offset="1" stop-color="#27005F" stop-opacity="0"/>
</radialGradient>
<linearGradient id="paint2_linear_21_1020" x1="111" y1="63.9248" x2="252" y2="63.9248" gradientUnits="userSpaceOnUse">
<stop offset="0.065" stop-color="#FF9C11"/>
<stop offset="0.135" stop-color="#DC7A5E"/>
<stop offset="0.28" stop-color="#9534FD"/>
<stop offset="0.455" stop-color="#C257C4"/>
<stop offset="0.57" stop-color="#1F58D3"/>
<stop offset="0.755" stop-color="#3BCDC1"/>
<stop offset="1" stop-color="#9D5BFC"/>
</linearGradient>
</defs>
</svg>
