<svg width="127" height="134" viewBox="0 0 127 134" fill="none" xmlns="http://www.w3.org/2000/svg">
<path d="M125.563 107.628C122.215 101.459 112.619 107.264 108.691 109.359C104.325 111.689 93.854 116.868 93.2979 123.414C93.2269 123.571 93.144 123.74 93.073 123.896C92.1028 125.926 92.9666 128.256 94.9543 128.972C100.953 131.119 110.608 124.781 115.672 121.853C119.6 119.588 129.042 114.005 125.575 107.641L125.563 107.628Z" fill="#FFE000"/>
<path d="M15.9579 60.0372C14.1865 56.333 12.2358 52.6987 9.86349 49.3657C8.50963 47.4584 6.63254 45.2143 4.02288 45.6018C0.841868 46.0776 1.0012 50.8795 1.36537 53.0381C2.15259 57.713 4.74391 62.2049 7.06722 66.19C8.88518 69.3075 10.7665 72.4574 12.8825 75.3777C15.0469 78.3747 18.4312 83.4103 22.8604 82.2207C23.6183 82.0201 23.8454 81.177 23.5798 80.6047C23.6513 80.3679 23.6841 80.1005 23.649 79.8179C23.3843 77.2858 22.1609 74.7299 21.2828 72.3941C19.6896 68.1912 17.8879 64.0736 15.9579 60.0372Z" fill="#FFE000"/>
<path d="M44.3473 15.8512C41.0581 17.4838 40.7383 22.2405 40.1535 25.6368C38.9932 32.3788 40.4185 38.9194 41.3139 45.5506C42.3829 53.4819 44.1372 61.2519 46.6132 68.7901C47.536 71.5917 48.5411 74.988 50.3136 77.4671C50.6608 78.1927 51.1085 78.8579 51.7206 79.4525C52.0404 79.7548 52.4333 79.8959 52.8262 79.916C52.8536 79.9261 52.8719 79.9463 52.8993 79.9664C53.9409 80.5913 55.1835 79.1501 54.5347 78.1625C54.3977 71.0576 55.4576 64.1241 55.7682 57.0393C56.0515 50.529 55.8596 43.8374 55.3388 37.3472C54.9825 32.9936 51.9308 12.0921 44.3473 15.8411V15.8512Z" fill="#FFE000"/>
<path d="M108.587 59.5446C102.564 60.1042 96.7195 64.2688 91.8211 67.8477C89.786 69.3313 87.8693 70.9711 86.0117 72.715C90.4959 64.3599 95.2405 56.1999 99.2515 47.5194C103.523 38.2923 106.978 28.6097 108.658 18.3936C109.498 13.279 111.367 1.80041 104.351 0.590088C98.3049 -0.451052 92.105 7.79998 88.3543 11.8214C84.793 15.6346 81.6221 19.9032 78.7351 24.4192C78.9244 19.5649 78.6759 13.4612 75.1619 10.3378C70.6539 6.31636 64.7144 11.0535 61.3304 14.4503C53.8527 21.9595 50.8001 34.1929 48.8597 44.6823C47.7712 50.6038 47.0258 56.6294 46.4815 62.694C43.5117 53.8053 38.8145 45.9187 32.6501 53.6361C29.3017 57.8267 29.4082 64.49 29.5383 69.7217C29.7395 77.7906 31.2066 85.9114 32.6856 93.7981C34.2829 102.374 35.7382 116.781 41.2992 124.707C41.4885 126.984 41.9381 128.806 42.7308 129.887C42.8373 130.68 43.3579 131.461 44.0205 131.787C44.3755 133.387 46.4934 134.142 47.5701 132.828C49.2738 130.745 51.1906 128.989 53.2138 127.414C60.9518 124.876 70.3226 116.144 74.0615 113.15C82.6869 106.24 91.9631 100.93 100.139 93.2385C107.037 86.7444 114.645 79.8338 116.266 69.4875C117.177 63.7092 114.053 59.037 108.61 59.5446H108.587Z" fill="#FFE000"/>
</svg>
