<svg width="454" height="353" viewBox="0 0 454 353" fill="none" xmlns="http://www.w3.org/2000/svg">
<path d="M254.47 19.4502C224.151 42.0036 233.023 56.8614 142.266 76.5704C51.5136 96.2794 1.07813 106.286 3.2271 167.909C5.44689 231.589 224.25 400.841 351.011 339.984C477.772 279.127 396.168 -85.9528 254.47 19.4502Z" fill="url(#paint0_linear_1434_17326)"/>
<path d="M75.2533 91.5492C75.2533 91.5492 -0.900104 123.699 0.681023 204.203C2.26215 284.707 95.3268 252.826 177.667 292.065C260.005 331.305 372.921 368.09 420.789 310.46C468.657 252.826 475.7 190.766 358.675 91.4088C241.65 -7.94865 75.2533 91.5524 75.2533 91.5524V91.5492Z" fill="#575EFF"/>
<path d="M179.202 174.512L178.218 175.045L179.899 175.578C180.801 175.934 181.649 176.385 182.441 176.931C183.261 177.478 183.972 178.12 184.573 178.858C185.202 179.596 185.694 180.403 186.049 181.277C186.432 182.152 186.623 183.095 186.623 184.106C186.623 186.43 186.186 188.493 185.311 190.297C184.464 192.074 183.316 193.632 181.867 194.971C180.446 196.283 178.792 197.39 176.906 198.292C175.02 199.194 173.039 199.919 170.961 200.465C168.911 201.039 166.834 201.449 164.729 201.695C162.625 201.941 160.629 202.064 158.743 202.064C158.005 202.064 157.527 202.037 157.308 201.982C157.199 201.928 156.953 201.873 156.57 201.818C156.297 201.818 155.887 201.75 155.34 201.613C154.52 201.477 153.714 201.19 152.921 200.752C152.156 200.342 151.459 199.878 150.83 199.358C150.53 199.14 150.229 198.921 149.928 198.702C149.628 198.484 149.327 198.265 149.026 198.046C148.425 197.609 147.851 197.336 147.304 197.226C146.02 196.953 144.913 196.625 143.983 196.242C143.054 195.832 142.289 195.313 141.687 194.684C141.113 194.028 140.676 193.222 140.375 192.265C140.102 191.309 139.965 190.161 139.965 188.821C139.965 178.735 142.89 169.497 148.739 161.105C148.903 160.805 149.067 160.559 149.231 160.367C149.368 160.149 149.436 160.012 149.436 159.957C149.272 159.957 149.04 160.012 148.739 160.121C148.466 160.231 148.179 160.367 147.878 160.531C147.578 160.695 147.291 160.859 147.017 161.023C146.744 161.187 146.539 161.324 146.402 161.433C146.102 161.625 145.815 161.816 145.541 162.007C145.295 162.171 145.063 162.322 144.844 162.458C144.38 162.759 144.093 162.909 143.983 162.909C143.163 162.117 142.453 161.351 141.851 160.613C141.25 159.848 140.676 158.96 140.129 157.948C139.665 156.964 139.432 156.021 139.432 155.119C139.432 153.671 139.678 152.4 140.17 151.306C140.662 150.213 141.318 149.243 142.138 148.395C142.986 147.548 143.956 146.81 145.049 146.181C146.143 145.553 147.277 144.979 148.452 144.459C150.065 143.721 151.787 143.011 153.618 142.327C155.477 141.644 157.363 141.043 159.276 140.523C161.217 139.977 163.158 139.553 165.098 139.252C167.039 138.924 168.911 138.76 170.715 138.76C172.383 138.76 174.023 138.938 175.635 139.293C177.275 139.649 178.833 140.182 180.309 140.892C181.785 141.603 183.138 142.505 184.368 143.598C185.626 144.664 186.692 145.935 187.566 147.411C188.851 149.516 189.493 152.113 189.493 155.201C189.493 157.333 189.316 159.342 188.96 161.228C188.632 163.087 188.058 164.823 187.238 166.435C186.446 168.021 185.393 169.497 184.081 170.863C182.769 172.203 181.143 173.419 179.202 174.512ZM160.711 144.5C160.711 144.364 160.547 144.282 160.219 144.254C160.055 144.254 159.864 144.254 159.645 144.254C159.454 144.227 159.235 144.213 158.989 144.213C158.306 144.213 157.568 144.35 156.775 144.623C156.338 144.76 155.737 144.965 154.971 145.238C154.206 145.512 153.372 145.826 152.47 146.181C151.568 146.509 150.639 146.878 149.682 147.288C148.753 147.698 147.906 148.122 147.14 148.559C146.402 148.969 145.787 149.393 145.295 149.83C144.831 150.24 144.598 150.637 144.598 151.019C144.598 151.429 144.749 151.634 145.049 151.634C145.159 151.634 145.391 151.566 145.746 151.429C145.883 151.347 146.088 151.224 146.361 151.06C146.662 150.896 147.004 150.705 147.386 150.486C149.518 149.202 151.678 148.081 153.864 147.124C156.078 146.168 158.361 145.293 160.711 144.5ZM174.036 183.901C174.036 183.027 173.763 182.302 173.216 181.728C172.67 181.154 171.986 180.69 171.166 180.334C170.374 179.979 169.526 179.733 168.624 179.596C167.75 179.432 166.984 179.35 166.328 179.35C165.317 179.35 164.292 179.46 163.253 179.678C162.215 179.87 161.217 180.088 160.26 180.334L158.825 180.621L158.456 182.589C158.374 182.999 158.292 183.437 158.21 183.901C158.128 184.366 158.06 184.872 158.005 185.418C157.951 185.965 157.91 186.484 157.882 186.976C157.882 187.441 157.896 187.906 157.923 188.37C157.923 188.753 157.923 189.081 157.923 189.354C157.951 189.628 157.978 189.846 158.005 190.01V191.076L163.294 190.338C164.606 190.092 165.918 189.764 167.23 189.354C168.57 188.917 169.813 188.343 170.961 187.632C171.262 187.468 171.59 187.25 171.945 186.976C172.328 186.703 172.67 186.402 172.97 186.074C173.271 185.746 173.517 185.405 173.708 185.049C173.927 184.667 174.036 184.284 174.036 183.901ZM176.619 160.408C176.756 158.85 176.168 157.743 174.856 157.087C173.599 156.431 171.918 156.103 169.813 156.103C169.485 156.103 169.13 156.117 168.747 156.144C168.365 156.144 167.941 156.144 167.476 156.144C167.039 156.172 166.602 156.199 166.164 156.226C165.754 156.226 165.344 156.226 164.934 156.226C164.552 156.254 164.169 156.281 163.786 156.308C163.431 156.308 163.103 156.336 162.802 156.39C162.502 156.418 162.256 156.445 162.064 156.472C161.9 156.472 161.805 156.472 161.777 156.472L160.957 156.554L161.859 157.292C162.652 157.921 163.308 158.604 163.827 159.342C164.374 160.08 164.647 160.969 164.647 162.007L164.524 162.54C164.415 162.786 164.292 163.073 164.155 163.401C164.019 163.729 163.868 164.098 163.704 164.508C163.322 165.465 162.966 166.422 162.638 167.378C162.31 168.335 161.996 169.292 161.695 170.248C161.695 170.549 161.873 170.699 162.228 170.699C162.529 170.699 162.871 170.686 163.253 170.658C163.663 170.604 164.06 170.549 164.442 170.494C164.852 170.412 165.249 170.33 165.631 170.248C166.014 170.166 166.342 170.071 166.615 169.961C167.326 169.743 168.105 169.442 168.952 169.059C169.8 168.677 170.62 168.239 171.412 167.747C172.232 167.228 172.998 166.668 173.708 166.066C174.419 165.465 174.993 164.836 175.43 164.18C175.731 163.798 175.963 163.442 176.127 163.114C176.291 162.759 176.428 162.417 176.537 162.089L176.619 160.408ZM205.531 138.596H205.449C206.433 137.995 207.445 137.694 208.483 137.694C208.893 137.694 209.385 137.763 209.959 137.899C210.561 138.009 211.148 138.173 211.722 138.391C212.324 138.583 212.884 138.815 213.403 139.088C213.95 139.334 214.387 139.608 214.715 139.908C215.672 140.619 216.41 141.562 216.929 142.737C217.449 143.913 217.708 145.102 217.708 146.304C217.708 147.452 217.572 148.573 217.298 149.666C217.052 150.732 216.765 151.812 216.437 152.905C216.191 153.698 215.945 154.491 215.699 155.283C215.453 156.076 215.194 156.869 214.92 157.661C214.784 157.907 214.551 158.604 214.223 159.752C213.868 160.9 213.458 162.13 212.993 163.442C212.939 163.579 212.816 163.921 212.624 164.467C212.46 165.014 212.283 165.602 212.091 166.23C211.9 166.832 211.722 167.392 211.558 167.911C211.422 168.431 211.353 168.731 211.353 168.813C211.299 168.95 211.23 169.155 211.148 169.428C211.094 169.674 211.025 169.989 210.943 170.371C210.861 170.754 210.779 171.164 210.697 171.601C210.615 172.039 210.506 172.517 210.369 173.036C210.233 173.528 210.11 174.048 210 174.594C209.918 175.114 209.809 175.66 209.672 176.234C209.563 176.808 209.467 177.369 209.385 177.915C209.303 178.435 209.208 178.954 209.098 179.473C208.934 180.731 208.798 181.824 208.688 182.753C208.579 183.683 208.497 184.462 208.442 185.09C208.36 186.32 208.429 187.127 208.647 187.509C208.866 187.755 209.153 187.878 209.508 187.878C209.918 187.878 210.315 187.796 210.697 187.632C211.08 187.468 211.449 187.263 211.804 187.017C212.187 186.744 212.529 186.457 212.829 186.156C213.13 185.828 213.403 185.528 213.649 185.254C213.977 184.926 214.319 184.557 214.674 184.147C215.03 183.71 215.317 183.273 215.535 182.835C216.109 181.933 216.615 181.004 217.052 180.047C217.517 179.091 217.968 178.12 218.405 177.136C219.362 174.95 220.319 173.856 221.275 173.856C221.685 173.856 222.068 174.02 222.423 174.348C223.189 174.95 223.571 175.961 223.571 177.382C223.571 178.23 223.421 179.186 223.12 180.252C222.82 181.291 222.396 182.371 221.849 183.491C221.33 184.612 220.715 185.733 220.004 186.853C219.321 187.974 218.583 189.026 217.79 190.01C216.998 190.994 216.178 191.883 215.33 192.675C214.483 193.441 213.663 194.042 212.87 194.479C210.41 195.791 208.019 196.447 205.695 196.447C204.438 196.447 203.126 196.229 201.759 195.791C200.393 195.354 199.108 194.739 197.905 193.946C196.703 193.154 195.65 192.211 194.748 191.117C193.846 190.024 193.245 188.835 192.944 187.55C192.616 186.402 192.411 185.213 192.329 183.983C192.247 182.753 192.206 181.537 192.206 180.334C192.206 179.733 192.206 179.186 192.206 178.694C192.234 178.202 192.247 177.765 192.247 177.382C192.275 176.644 192.357 175.961 192.493 175.332C192.548 175.004 192.589 174.772 192.616 174.635C192.644 174.499 192.657 174.294 192.657 174.02C192.821 172.408 193.067 170.74 193.395 169.018C193.723 167.296 194.092 165.574 194.502 163.852C194.912 162.13 195.35 160.436 195.814 158.768C196.306 157.074 196.785 155.434 197.249 153.848C197.96 151.58 198.575 149.776 199.094 148.436C199.586 147.37 200.106 146.304 200.652 145.238C201.199 144.172 201.814 143.147 202.497 142.163C202.634 141.945 202.825 141.658 203.071 141.302C203.317 140.947 203.591 140.592 203.891 140.236C204.192 139.854 204.479 139.512 204.752 139.211C205.053 138.883 205.313 138.678 205.531 138.596ZM205.613 141.917C205.012 143.093 204.438 144.295 203.891 145.525C203.345 146.755 202.907 148.026 202.579 149.338C202.47 149.639 202.456 149.953 202.538 150.281C202.62 150.527 202.757 150.596 202.948 150.486C203.058 150.377 203.112 150.254 203.112 150.117C203.112 150.008 203.235 149.694 203.481 149.174L204.342 147.452C204.67 146.796 204.998 146.168 205.326 145.566C205.682 144.938 206.051 144.309 206.433 143.68C207.281 142.423 207.759 141.576 207.868 141.138C207.978 140.701 207.732 140.482 207.13 140.482C206.884 140.482 206.666 140.551 206.474 140.687C206.31 140.851 206.023 141.261 205.613 141.917ZM227.69 162.294C227.881 162.267 228.086 162.253 228.305 162.253C228.524 162.226 228.742 162.212 228.961 162.212C230.109 162.212 231.325 162.39 232.61 162.745C233.895 163.073 235.029 163.483 236.013 163.975V163.893C237.134 164.44 237.694 165.479 237.694 167.009C237.694 167.802 237.544 168.868 237.243 170.207C237.106 170.836 236.929 171.533 236.71 172.298C236.519 173.036 236.314 173.843 236.095 174.717L235.562 176.767C235.507 177.013 235.439 177.259 235.357 177.505C235.302 177.724 235.248 177.956 235.193 178.202C235.084 178.64 234.961 179.063 234.824 179.473C234.797 180.129 234.715 180.744 234.578 181.318C234.523 181.619 234.455 181.933 234.373 182.261C234.318 182.562 234.264 182.876 234.209 183.204C234.072 183.997 233.963 184.68 233.881 185.254C233.799 185.828 233.772 186.279 233.799 186.607C233.854 187.291 234.086 187.769 234.496 188.042C234.687 188.234 235.097 188.083 235.726 187.591L236.382 186.935C236.519 186.799 236.642 186.676 236.751 186.566C236.86 186.43 236.97 186.293 237.079 186.156C237.762 185.172 238.35 184.106 238.842 182.958C239.334 181.783 239.799 180.635 240.236 179.514C241.193 177.164 242.04 174.813 242.778 172.462V172.585C242.833 172.394 242.887 172.216 242.942 172.052C243.024 171.861 243.092 171.656 243.147 171.437L243.516 170.33C243.571 170.057 243.625 169.797 243.68 169.551C243.762 169.278 243.858 168.991 243.967 168.69C244.268 167.624 244.596 166.572 244.951 165.533C245.334 164.467 245.839 163.47 246.468 162.54C247.069 161.802 247.684 161.338 248.313 161.146C248.969 160.9 250.021 160.777 251.47 160.777C251.907 160.777 252.44 160.805 253.069 160.859C253.698 160.887 254.326 160.969 254.955 161.105C255.611 161.215 256.212 161.392 256.759 161.638C257.333 161.884 257.757 162.226 258.03 162.663C258.303 162.964 258.44 163.47 258.44 164.18C258.44 164.399 258.426 164.631 258.399 164.877C258.372 165.123 258.331 165.383 258.276 165.656C258.221 165.902 258.139 166.189 258.03 166.517C257.948 166.845 257.839 167.201 257.702 167.583C255.16 176.057 254.067 182.125 254.422 185.787C254.559 186.662 254.695 187.263 254.832 187.591C254.941 187.947 255.215 188.275 255.652 188.575C256.062 188.958 256.527 189.149 257.046 189.149C259.151 189.149 261.843 185.828 265.123 179.186C265.342 178.804 265.547 178.435 265.738 178.079C265.957 177.697 266.175 177.341 266.394 177.013C266.777 176.357 267.105 175.893 267.378 175.619C267.679 175.619 267.952 175.619 268.198 175.619C268.444 175.619 268.704 175.647 268.977 175.701C269.442 175.811 269.551 176.262 269.305 177.054C269.004 177.847 268.84 178.653 268.813 179.473C268.813 179.637 268.608 180.211 268.198 181.195C267.979 181.687 267.747 182.207 267.501 182.753C267.282 183.273 267.064 183.833 266.845 184.434C266.599 185.008 266.353 185.569 266.107 186.115C265.861 186.662 265.615 187.195 265.369 187.714C264.85 188.753 264.508 189.395 264.344 189.641C263.825 190.27 263.401 190.858 263.073 191.404C262.936 191.65 262.8 191.855 262.663 192.019C262.554 192.183 262.458 192.32 262.376 192.429C261.884 192.867 261.337 193.318 260.736 193.782C260.135 194.22 259.492 194.63 258.809 195.012C258.126 195.395 257.442 195.737 256.759 196.037C256.076 196.338 255.406 196.557 254.75 196.693C254.34 196.748 253.944 196.789 253.561 196.816C253.178 196.844 252.796 196.857 252.413 196.857C251.593 196.803 250.8 196.721 250.035 196.611C249.27 196.475 248.504 196.256 247.739 195.955C247.138 195.655 246.441 195.286 245.648 194.848C244.937 194.302 244.35 193.782 243.885 193.29C243.42 192.771 243.038 192.224 242.737 191.65C242.464 191.076 242.259 190.461 242.122 189.805C242.013 189.122 241.944 188.357 241.917 187.509L241.712 187.14L241.261 187.96C240.851 188.753 240.427 189.532 239.99 190.297C239.553 191.035 239.074 191.732 238.555 192.388C238.063 193.044 237.503 193.673 236.874 194.274C236.245 194.848 235.535 195.368 234.742 195.832C233.594 196.406 232.46 196.693 231.339 196.693C230.874 196.693 230.41 196.652 229.945 196.57C229.726 196.516 229.494 196.461 229.248 196.406C229.029 196.352 228.77 196.297 228.469 196.242C226.064 195.422 224.205 194.22 222.893 192.634C221.581 191.022 220.652 188.985 220.105 186.525C219.886 185.787 219.763 185.104 219.736 184.475C219.681 184.147 219.654 183.792 219.654 183.409C219.654 183.027 219.654 182.63 219.654 182.22V180.539C219.654 180.211 219.668 179.883 219.695 179.555C219.722 179.227 219.763 178.899 219.818 178.571C219.955 177.041 220.187 175.606 220.515 174.266C220.87 172.9 221.321 171.506 221.868 170.084C222.087 169.538 222.387 168.854 222.77 168.034C223.18 167.214 223.631 166.408 224.123 165.615C224.642 164.823 225.203 164.112 225.804 163.483C226.405 162.855 227.034 162.458 227.69 162.294ZM246.632 169.51C246.331 170.33 246.181 170.904 246.181 171.232C246.181 171.478 246.222 171.601 246.304 171.601C246.55 171.601 247.015 170.672 247.698 168.813L249.215 165.164C249.762 163.962 249.707 163.36 249.051 163.36C248.75 163.36 248.491 163.579 248.272 164.016C248.081 164.454 247.835 165.274 247.534 166.476C247.397 166.996 247.261 167.515 247.124 168.034C246.987 168.526 246.823 169.018 246.632 169.51ZM227.854 164.795C227.499 164.686 227.02 165.151 226.419 166.189C225.845 167.228 225.285 168.636 224.738 170.412C224.601 171.014 224.478 171.533 224.369 171.97C224.287 172.38 224.219 172.695 224.164 172.913C224.082 173.405 224.096 173.706 224.205 173.815C224.26 173.87 224.314 173.897 224.369 173.897C224.588 173.897 224.765 173.46 224.902 172.585C225.203 171.629 225.558 170.699 225.968 169.797C226.378 168.868 226.856 167.98 227.403 167.132C228.25 165.738 228.401 164.959 227.854 164.795ZM279.372 183.655V183.942C279.372 184.106 279.4 184.352 279.454 184.68C279.509 184.981 279.577 185.295 279.659 185.623C279.741 185.951 279.837 186.266 279.946 186.566C280.056 186.84 280.165 187.031 280.274 187.14C280.438 187.25 280.766 187.25 281.258 187.14C283.472 186.84 285.427 186.17 287.121 185.131C288.843 184.093 290.429 182.74 291.877 181.072C292.26 180.608 292.602 180.184 292.902 179.801C293.203 179.419 293.49 179.077 293.763 178.776C294.037 178.476 294.283 178.175 294.501 177.874C294.72 177.574 294.939 177.287 295.157 177.013C295.349 176.713 295.526 176.426 295.69 176.152C295.882 175.852 296.073 175.551 296.264 175.25C296.456 174.95 296.647 174.622 296.838 174.266C297.057 173.911 297.289 173.528 297.535 173.118C297.672 172.9 297.836 172.654 298.027 172.38C298.219 172.08 298.424 171.806 298.642 171.56C298.861 171.287 299.107 171.068 299.38 170.904C299.654 170.713 299.927 170.617 300.2 170.617C300.747 170.617 301.266 170.85 301.758 171.314C302.25 171.752 302.524 172.244 302.578 172.79C302.606 173.392 302.291 174.485 301.635 176.07C301.28 177.027 300.87 177.97 300.405 178.899C299.968 179.829 299.517 180.744 299.052 181.646C298.779 182.166 298.506 182.671 298.232 183.163C297.986 183.655 297.754 184.134 297.535 184.598C297.18 185.254 296.838 185.842 296.51 186.361C296.21 186.853 295.868 187.332 295.485 187.796C295.13 188.261 294.72 188.726 294.255 189.19C293.818 189.628 293.312 190.092 292.738 190.584C290.907 192.17 288.925 193.318 286.793 194.028C284.661 194.712 282.393 195.053 279.987 195.053C278.839 195.053 277.623 194.876 276.338 194.52C275.054 194.138 273.892 193.687 272.853 193.167C272.361 192.976 271.842 192.716 271.295 192.388C270.749 192.033 270.202 191.65 269.655 191.24C269.136 190.83 268.63 190.407 268.138 189.969C267.674 189.505 267.25 189.067 266.867 188.657C265.911 187.701 265.091 186.648 264.407 185.5C263.724 184.325 263.177 183.109 262.767 181.851C262.603 181.496 262.48 181.168 262.398 180.867C262.316 180.567 262.248 180.28 262.193 180.006C262.166 179.733 262.139 179.405 262.111 179.022C262.111 178.64 262.111 178.189 262.111 177.669C262.111 176.385 262.234 175.114 262.48 173.856C262.754 172.572 263.136 171.328 263.628 170.125C264.12 168.895 264.722 167.747 265.432 166.681C266.17 165.588 267.004 164.604 267.933 163.729C269.491 162.281 271.104 161.215 272.771 160.531C274.466 159.848 276.393 159.506 278.552 159.506C281.395 159.506 284.347 160.162 287.408 161.474C287.873 161.72 288.365 162.048 288.884 162.458C289.404 162.841 289.896 163.265 290.36 163.729C290.825 164.194 291.249 164.686 291.631 165.205C292.041 165.697 292.369 166.189 292.615 166.681C293.135 167.72 293.394 168.854 293.394 170.084C293.394 171.123 293.244 172.148 292.943 173.159C292.643 174.171 292.233 175.141 291.713 176.07C291.221 177 290.62 177.874 289.909 178.694C289.199 179.487 288.433 180.184 287.613 180.785C286.083 181.824 284.88 182.521 284.005 182.876C283.213 183.259 282.024 183.491 280.438 183.573L279.372 183.655ZM280.192 176.07C280.192 176.48 280.329 176.685 280.602 176.685C280.794 176.685 281.04 176.59 281.34 176.398V176.316C282.051 175.934 282.721 175.455 283.349 174.881C284.005 174.28 284.579 173.624 285.071 172.913C285.591 172.175 286.028 171.41 286.383 170.617C286.739 169.797 286.971 168.991 287.08 168.198C287.08 168.062 287.067 167.925 287.039 167.788C287.039 167.652 287.026 167.501 286.998 167.337C286.998 167.037 286.93 166.722 286.793 166.394C286.821 166.586 286.643 166.681 286.26 166.681C286.014 166.681 285.755 166.75 285.481 166.886C285.235 167.078 284.784 167.542 284.128 168.28C283.636 168.772 283.158 169.319 282.693 169.92C282.229 170.522 281.805 171.164 281.422 171.847C281.067 172.503 280.766 173.2 280.52 173.938C280.302 174.649 280.192 175.36 280.192 176.07ZM275.026 164.139C275.19 163.975 275.245 163.77 275.19 163.524C275.136 163.06 274.89 162.827 274.452 162.827C273.96 162.827 273.441 163.005 272.894 163.36C272.348 163.688 271.815 164.112 271.295 164.631C270.803 165.151 270.352 165.697 269.942 166.271C269.532 166.845 269.218 167.365 268.999 167.829C268.781 168.294 268.603 168.786 268.466 169.305C268.357 169.743 268.357 170.084 268.466 170.33C268.603 170.576 268.712 170.631 268.794 170.494C268.876 170.412 268.917 170.207 268.917 169.879C268.917 169.415 269.109 168.936 269.491 168.444C269.901 167.925 270.366 167.447 270.885 167.009C271.432 166.545 271.979 166.121 272.525 165.738C273.099 165.356 273.564 165.069 273.919 164.877C274.548 164.495 274.917 164.249 275.026 164.139Z" fill="white"/>
<defs>
<linearGradient id="paint0_linear_1434_17326" x1="3.16113" y1="176.718" x2="413.897" y2="176.718" gradientUnits="userSpaceOnUse">
<stop stop-color="#FFCCED" stop-opacity="0.8"/>
<stop offset="1" stop-color="white"/>
</linearGradient>
</defs>
</svg>
