<svg width="453" height="353" viewBox="0 0 453 353" fill="none" xmlns="http://www.w3.org/2000/svg">
<path d="M253.813 19.4502C223.494 42.0036 232.366 56.8614 141.61 76.5704C50.8569 96.2794 0.421389 106.286 2.57037 167.909C4.79015 231.589 223.593 400.841 350.354 339.984C477.116 279.127 395.511 -85.9528 253.813 19.4502Z" fill="url(#paint0_linear_1434_18880)"/>
<path d="M74.5966 91.5492C74.5966 91.5492 -1.55684 123.699 0.0242845 204.203C1.60541 284.707 94.67 252.826 177.011 292.065C259.348 331.305 372.264 368.09 420.132 310.46C468 252.826 475.044 190.766 358.018 91.4088C240.993 -7.94865 74.5966 91.5524 74.5966 91.5524V91.5492Z" fill="#70BF01"/>
<path d="M178.634 157.661C178.962 156.677 179.249 155.775 179.495 154.955C179.713 154.026 179.823 153.493 179.823 153.356C179.823 152.7 179.59 152.372 179.126 152.372C178.47 152.372 177.759 152.55 176.994 152.905C176.228 153.233 175.449 153.684 174.657 154.258C173.891 154.832 173.126 155.488 172.361 156.226C171.595 156.937 170.871 157.675 170.188 158.44C169.532 159.206 168.93 159.971 168.384 160.736C167.837 161.474 167.4 162.144 167.072 162.745C166.142 164.303 165.35 165.889 164.694 167.501C164.038 169.087 163.491 170.754 163.054 172.503C162.89 173.105 162.712 173.733 162.521 174.389C162.357 175.045 162.165 175.742 161.947 176.48L161.865 177.833C161.865 179.61 162.015 181.209 162.316 182.63C162.616 184.052 163.122 185.268 163.833 186.279C164.571 187.263 165.555 188.029 166.785 188.575C168.015 189.095 169.559 189.354 171.418 189.354C172.21 189.354 173.03 189.327 173.878 189.272C174.725 189.218 175.518 189.04 176.256 188.739C176.857 188.603 177.431 188.425 177.978 188.206C178.552 187.988 179.112 187.742 179.659 187.468L181.34 186.771L181.79 184.188C181.845 183.86 181.9 183.532 181.955 183.204C182.037 182.876 182.119 182.562 182.201 182.261C182.365 181.633 182.447 181.168 182.447 180.867V180.703L182.611 179.801L181.709 179.719C181.326 179.719 180.889 179.76 180.397 179.842C179.905 179.924 179.399 180.034 178.88 180.17C178.36 180.307 177.855 180.471 177.363 180.662C176.898 180.826 176.502 181.004 176.174 181.195C175.736 181.414 175.463 181.633 175.354 181.851C175.354 182.043 175.299 182.138 175.19 182.138C174.944 182.138 174.698 182.002 174.452 181.728C174.206 181.455 173.987 181.141 173.796 180.785C173.604 180.403 173.44 180.02 173.304 179.637C173.194 179.255 173.14 178.954 173.14 178.735V178.448L173.222 177.464L173.386 177.3C173.44 176.754 173.659 176.221 174.042 175.701C174.424 175.155 174.875 174.649 175.395 174.184C175.941 173.692 176.488 173.255 177.035 172.872C177.609 172.49 178.114 172.175 178.552 171.929C180.438 170.836 182.474 170.043 184.661 169.551C186.847 169.059 189.02 168.813 191.18 168.813C192.054 168.813 192.943 168.854 193.845 168.936C194.774 169.018 195.621 169.21 196.387 169.51C197.179 169.811 197.876 170.248 198.478 170.822C199.079 171.396 199.516 172.189 199.79 173.2L200.2 174.348L198.355 185.418C197.863 188.206 197.412 190.981 197.002 193.741C196.619 196.475 196.318 199.249 196.1 202.064C196.072 203.076 196.031 203.622 195.977 203.704C195.922 203.814 195.662 203.95 195.198 204.114C194.979 204.196 194.651 204.265 194.214 204.319C193.804 204.401 193.353 204.456 192.861 204.483C192.396 204.511 191.945 204.524 191.508 204.524C191.07 204.552 190.729 204.565 190.483 204.565C189.499 204.565 188.515 204.47 187.531 204.278C186.574 204.114 185.672 203.814 184.824 203.376C184.005 202.966 183.267 202.42 182.611 201.736C181.982 201.053 181.504 200.206 181.176 199.194C180.93 198.374 180.656 197.964 180.356 197.964L178.06 198.661C176.666 199.126 175.285 199.427 173.919 199.563C172.579 199.727 171.185 199.809 169.737 199.809C163.969 199.809 158.407 198.06 153.05 194.561C151.41 193.495 150.002 192.375 148.827 191.199C147.679 190.024 146.722 188.753 145.957 187.386C145.219 186.02 144.672 184.53 144.317 182.917C143.989 181.305 143.825 179.514 143.825 177.546C143.825 174.868 144.18 172.052 144.891 169.1C145.601 166.121 146.572 163.21 147.802 160.367C149.059 157.497 150.521 154.778 152.189 152.208C153.883 149.639 155.715 147.398 157.683 145.484C158.694 144.446 159.774 143.503 160.922 142.655C162.07 141.781 163.272 141.029 164.53 140.4C165.814 139.772 167.14 139.28 168.507 138.924C169.873 138.569 171.295 138.391 172.771 138.391C174.11 138.391 175.531 138.596 177.035 139.006C178.538 139.389 180.014 139.949 181.463 140.687C182.939 141.398 184.346 142.259 185.686 143.27C187.052 144.254 188.241 145.361 189.253 146.591C190.291 147.821 191.111 149.133 191.713 150.527C192.314 151.921 192.615 153.37 192.615 154.873C192.615 155.775 192.505 156.773 192.287 157.866C192.095 158.932 191.808 159.998 191.426 161.064C191.043 162.13 190.578 163.155 190.032 164.139C189.512 165.096 188.925 165.902 188.269 166.558C187.503 167.406 186.752 167.829 186.014 167.829C185.494 167.829 184.893 167.747 184.21 167.583C183.526 167.392 182.829 167.16 182.119 166.886C181.435 166.586 180.766 166.258 180.11 165.902C179.481 165.547 178.962 165.192 178.552 164.836C177.786 164.18 177.404 163.442 177.404 162.622C177.404 162.322 177.445 161.953 177.527 161.515C177.636 161.078 177.745 160.627 177.855 160.162C177.991 159.67 178.128 159.206 178.265 158.768C178.401 158.331 178.524 157.962 178.634 157.661ZM169.901 143.311C170.857 142.901 171.336 142.519 171.336 142.163C171.336 141.753 171.008 141.548 170.352 141.548C170.051 141.548 169.573 141.712 168.917 142.04C168.261 142.341 167.577 142.71 166.867 143.147C166.156 143.557 165.486 143.981 164.858 144.418C164.229 144.828 163.778 145.129 163.505 145.32C162.794 145.867 162.111 146.414 161.455 146.96C160.799 147.48 160.17 148.026 159.569 148.6C158.421 149.748 157.847 150.732 157.847 151.552C157.847 151.798 157.901 151.921 158.011 151.921C158.229 151.921 159.036 151.293 160.43 150.035C161.824 148.641 163.3 147.384 164.858 146.263C166.416 145.115 168.097 144.131 169.901 143.311ZM227.935 177.669C228.373 176.658 228.66 175.483 228.796 174.143C228.851 173.46 228.878 172.831 228.878 172.257C228.878 171.683 228.824 171.164 228.714 170.699C228.55 170.18 228.359 169.92 228.14 169.92C228.031 169.92 227.922 169.975 227.812 170.084C226.254 170.932 224.437 173.46 222.359 177.669C222.168 178.025 221.977 178.503 221.785 179.104C221.594 179.706 221.416 180.348 221.252 181.031C221.088 181.687 220.952 182.343 220.842 182.999C220.733 183.655 220.637 184.216 220.555 184.68C220.473 185.09 220.405 185.446 220.35 185.746C220.323 186.047 220.282 186.307 220.227 186.525C220.227 186.662 220.214 186.758 220.186 186.812C220.159 186.894 220.145 187.004 220.145 187.14L219.694 190.174C219.448 191.65 219.23 192.648 219.038 193.167C218.847 193.714 218.587 194.056 218.259 194.192C218.205 194.247 217.918 194.315 217.398 194.397C217.18 194.425 216.947 194.452 216.701 194.479C216.483 194.507 216.223 194.548 215.922 194.602C215.649 194.657 215.389 194.698 215.143 194.725C214.897 194.753 214.638 194.794 214.364 194.848C214.118 194.876 213.913 194.903 213.749 194.93C213.585 194.93 213.449 194.93 213.339 194.93C213.257 194.93 213.148 194.93 213.011 194.93C212.902 194.903 212.779 194.889 212.642 194.889C212.26 194.835 211.959 194.78 211.74 194.725C211.221 194.643 210.756 194.561 210.346 194.479C209.964 194.37 209.595 194.233 209.239 194.069C208.884 193.905 208.542 193.7 208.214 193.454C207.914 193.181 207.572 192.867 207.189 192.511C206.834 192.047 206.52 191.582 206.246 191.117C205.973 190.653 205.713 190.161 205.467 189.641C205.003 188.083 204.702 186.484 204.565 184.844C204.456 183.177 204.401 181.523 204.401 179.883C204.401 179.091 204.429 178.298 204.483 177.505C204.565 176.685 204.661 175.879 204.77 175.086C204.907 173.966 205.016 172.941 205.098 172.011C205.208 171.082 205.303 170.235 205.385 169.469C205.522 168.513 205.741 167.46 206.041 166.312C206.342 165.164 206.711 164.03 207.148 162.909C207.586 161.761 208.091 160.682 208.665 159.67C209.267 158.632 209.923 157.757 210.633 157.046C210.879 156.8 211.194 156.595 211.576 156.431C211.877 156.267 212.287 156.213 212.806 156.267C213.052 156.267 213.326 156.281 213.626 156.308C213.954 156.336 214.31 156.363 214.692 156.39C215.266 156.472 215.909 156.623 216.619 156.841C217.33 157.033 218.013 157.292 218.669 157.62C219.353 157.948 219.981 158.331 220.555 158.768C221.129 159.206 221.553 159.698 221.826 160.244C222.045 160.654 222.182 161.324 222.236 162.253C222.264 163.101 222.223 163.77 222.113 164.262C222.059 164.372 222.004 164.672 221.949 165.164C221.867 165.602 221.785 166.135 221.703 166.763C221.649 167.064 221.608 167.365 221.58 167.665C221.553 167.966 221.512 168.267 221.457 168.567C221.403 168.868 221.362 169.141 221.334 169.387C221.307 169.606 221.266 169.797 221.211 169.961C221.293 169.852 221.348 169.743 221.375 169.633C221.485 169.469 221.58 169.346 221.662 169.264C222.291 168.39 222.947 167.529 223.63 166.681C224.341 165.834 225.079 165.028 225.844 164.262C226.637 163.497 227.457 162.786 228.304 162.13C229.179 161.474 230.095 160.9 231.051 160.408C231.789 159.971 232.322 159.739 232.65 159.711C233.033 159.629 233.634 159.588 234.454 159.588L237.119 160.244C237.639 160.682 238.158 161.256 238.677 161.966C239.224 162.677 239.566 163.374 239.702 164.057C240.058 165.123 240.235 166.258 240.235 167.46C240.235 169.046 240.099 170.522 239.825 171.888C239.579 173.255 239.128 174.458 238.472 175.496C237.844 176.535 236.983 177.41 235.889 178.12C234.796 178.804 233.416 179.282 231.748 179.555C231.311 179.555 230.874 179.569 230.436 179.596C230.026 179.596 229.603 179.61 229.165 179.637C228.345 179.637 227.853 179.487 227.689 179.186C227.525 178.886 227.607 178.38 227.935 177.669ZM233.347 161.392C233.074 161.638 232.937 161.816 232.937 161.925C232.937 162.226 233.224 162.199 233.798 161.843C234.072 161.734 234.277 161.57 234.413 161.351C234.495 161.133 234.386 161.023 234.085 161.023C233.839 161.023 233.593 161.146 233.347 161.392ZM212.97 159.301C213.107 158.837 212.97 158.604 212.56 158.604C212.342 158.604 212.082 158.809 211.781 159.219C211.508 159.629 211.221 160.162 210.92 160.818C210.647 161.447 210.36 162.158 210.059 162.95C209.786 163.743 209.54 164.522 209.321 165.287C209.13 166.053 208.966 166.763 208.829 167.419C208.693 168.048 208.624 168.54 208.624 168.895C208.624 169.305 208.679 169.497 208.788 169.469C208.898 169.469 209.021 169.278 209.157 168.895C209.185 168.677 209.226 168.444 209.28 168.198C209.335 167.925 209.403 167.624 209.485 167.296C209.595 166.968 209.69 166.64 209.772 166.312C209.882 165.957 210.005 165.602 210.141 165.246C210.36 164.59 210.606 163.948 210.879 163.319C211.153 162.691 211.467 162.076 211.822 161.474C212.506 160.436 212.888 159.711 212.97 159.301ZM260.751 183.655V183.942C260.751 184.106 260.778 184.352 260.833 184.68C260.887 184.981 260.956 185.295 261.038 185.623C261.12 185.951 261.215 186.266 261.325 186.566C261.434 186.84 261.543 187.031 261.653 187.14C261.817 187.25 262.145 187.25 262.637 187.14C264.851 186.84 266.805 186.17 268.5 185.131C270.222 184.093 271.807 182.74 273.256 181.072C273.638 180.608 273.98 180.184 274.281 179.801C274.581 179.419 274.868 179.077 275.142 178.776C275.415 178.476 275.661 178.175 275.88 177.874C276.098 177.574 276.317 177.287 276.536 177.013C276.727 176.713 276.905 176.426 277.069 176.152C277.26 175.852 277.451 175.551 277.643 175.25C277.834 174.95 278.025 174.622 278.217 174.266C278.435 173.911 278.668 173.528 278.914 173.118C279.05 172.9 279.214 172.654 279.406 172.38C279.597 172.08 279.802 171.806 280.021 171.56C280.239 171.287 280.485 171.068 280.759 170.904C281.032 170.713 281.305 170.617 281.579 170.617C282.125 170.617 282.645 170.85 283.137 171.314C283.629 171.752 283.902 172.244 283.957 172.79C283.984 173.392 283.67 174.485 283.014 176.07C282.658 177.027 282.248 177.97 281.784 178.899C281.346 179.829 280.895 180.744 280.431 181.646C280.157 182.166 279.884 182.671 279.611 183.163C279.365 183.655 279.132 184.134 278.914 184.598C278.558 185.254 278.217 185.842 277.889 186.361C277.588 186.853 277.246 187.332 276.864 187.796C276.508 188.261 276.098 188.726 275.634 189.19C275.196 189.628 274.691 190.092 274.117 190.584C272.285 192.17 270.304 193.318 268.172 194.028C266.04 194.712 263.771 195.053 261.366 195.053C260.218 195.053 259.001 194.876 257.717 194.52C256.432 194.138 255.27 193.687 254.232 193.167C253.74 192.976 253.22 192.716 252.674 192.388C252.127 192.033 251.58 191.65 251.034 191.24C250.514 190.83 250.009 190.407 249.517 189.969C249.052 189.505 248.628 189.067 248.246 188.657C247.289 187.701 246.469 186.648 245.786 185.5C245.102 184.325 244.556 183.109 244.146 181.851C243.982 181.496 243.859 181.168 243.777 180.867C243.695 180.567 243.626 180.28 243.572 180.006C243.544 179.733 243.517 179.405 243.49 179.022C243.49 178.64 243.49 178.189 243.49 177.669C243.49 176.385 243.613 175.114 243.859 173.856C244.132 172.572 244.515 171.328 245.007 170.125C245.499 168.895 246.1 167.747 246.811 166.681C247.549 165.588 248.382 164.604 249.312 163.729C250.87 162.281 252.482 161.215 254.15 160.531C255.844 159.848 257.771 159.506 259.931 159.506C262.773 159.506 265.725 160.162 268.787 161.474C269.251 161.72 269.743 162.048 270.263 162.458C270.782 162.841 271.274 163.265 271.739 163.729C272.203 164.194 272.627 164.686 273.01 165.205C273.42 165.697 273.748 166.189 273.994 166.681C274.513 167.72 274.773 168.854 274.773 170.084C274.773 171.123 274.622 172.148 274.322 173.159C274.021 174.171 273.611 175.141 273.092 176.07C272.6 177 271.998 177.874 271.288 178.694C270.577 179.487 269.812 180.184 268.992 180.785C267.461 181.824 266.258 182.521 265.384 182.876C264.591 183.259 263.402 183.491 261.817 183.573L260.751 183.655ZM261.571 176.07C261.571 176.48 261.707 176.685 261.981 176.685C262.172 176.685 262.418 176.59 262.719 176.398V176.316C263.429 175.934 264.099 175.455 264.728 174.881C265.384 174.28 265.958 173.624 266.45 172.913C266.969 172.175 267.406 171.41 267.762 170.617C268.117 169.797 268.349 168.991 268.459 168.198C268.459 168.062 268.445 167.925 268.418 167.788C268.418 167.652 268.404 167.501 268.377 167.337C268.377 167.037 268.308 166.722 268.172 166.394C268.199 166.586 268.021 166.681 267.639 166.681C267.393 166.681 267.133 166.75 266.86 166.886C266.614 167.078 266.163 167.542 265.507 168.28C265.015 168.772 264.536 169.319 264.072 169.92C263.607 170.522 263.183 171.164 262.801 171.847C262.445 172.503 262.145 173.2 261.899 173.938C261.68 174.649 261.571 175.36 261.571 176.07ZM256.405 164.139C256.569 163.975 256.623 163.77 256.569 163.524C256.514 163.06 256.268 162.827 255.831 162.827C255.339 162.827 254.819 163.005 254.273 163.36C253.726 163.688 253.193 164.112 252.674 164.631C252.182 165.151 251.731 165.697 251.321 166.271C250.911 166.845 250.596 167.365 250.378 167.829C250.159 168.294 249.981 168.786 249.845 169.305C249.735 169.743 249.735 170.084 249.845 170.33C249.981 170.576 250.091 170.631 250.173 170.494C250.255 170.412 250.296 170.207 250.296 169.879C250.296 169.415 250.487 168.936 250.87 168.444C251.28 167.925 251.744 167.447 252.264 167.009C252.81 166.545 253.357 166.121 253.904 165.738C254.478 165.356 254.942 165.069 255.298 164.877C255.926 164.495 256.295 164.249 256.405 164.139ZM294.464 183.655V183.942C294.464 184.106 294.491 184.352 294.546 184.68C294.6 184.981 294.669 185.295 294.751 185.623C294.833 185.951 294.928 186.266 295.038 186.566C295.147 186.84 295.256 187.031 295.366 187.14C295.53 187.25 295.858 187.25 296.35 187.14C298.564 186.84 300.518 186.17 302.213 185.131C303.935 184.093 305.52 182.74 306.969 181.072C307.351 180.608 307.693 180.184 307.994 179.801C308.294 179.419 308.581 179.077 308.855 178.776C309.128 178.476 309.374 178.175 309.593 177.874C309.811 177.574 310.03 177.287 310.249 177.013C310.44 176.713 310.618 176.426 310.782 176.152C310.973 175.852 311.164 175.551 311.356 175.25C311.547 174.95 311.738 174.622 311.93 174.266C312.148 173.911 312.381 173.528 312.627 173.118C312.763 172.9 312.927 172.654 313.119 172.38C313.31 172.08 313.515 171.806 313.734 171.56C313.952 171.287 314.198 171.068 314.472 170.904C314.745 170.713 315.018 170.617 315.292 170.617C315.838 170.617 316.358 170.85 316.85 171.314C317.342 171.752 317.615 172.244 317.67 172.79C317.697 173.392 317.383 174.485 316.727 176.07C316.371 177.027 315.961 177.97 315.497 178.899C315.059 179.829 314.608 180.744 314.144 181.646C313.87 182.166 313.597 182.671 313.324 183.163C313.078 183.655 312.845 184.134 312.627 184.598C312.271 185.254 311.93 185.842 311.602 186.361C311.301 186.853 310.959 187.332 310.577 187.796C310.221 188.261 309.811 188.726 309.347 189.19C308.909 189.628 308.404 190.092 307.83 190.584C305.998 192.17 304.017 193.318 301.885 194.028C299.753 194.712 297.484 195.053 295.079 195.053C293.931 195.053 292.714 194.876 291.43 194.52C290.145 194.138 288.983 193.687 287.945 193.167C287.453 192.976 286.933 192.716 286.387 192.388C285.84 192.033 285.293 191.65 284.747 191.24C284.227 190.83 283.722 190.407 283.23 189.969C282.765 189.505 282.341 189.067 281.959 188.657C281.002 187.701 280.182 186.648 279.499 185.5C278.815 184.325 278.269 183.109 277.859 181.851C277.695 181.496 277.572 181.168 277.49 180.867C277.408 180.567 277.339 180.28 277.285 180.006C277.257 179.733 277.23 179.405 277.203 179.022C277.203 178.64 277.203 178.189 277.203 177.669C277.203 176.385 277.326 175.114 277.572 173.856C277.845 172.572 278.228 171.328 278.72 170.125C279.212 168.895 279.813 167.747 280.524 166.681C281.262 165.588 282.095 164.604 283.025 163.729C284.583 162.281 286.195 161.215 287.863 160.531C289.557 159.848 291.484 159.506 293.644 159.506C296.486 159.506 299.438 160.162 302.5 161.474C302.964 161.72 303.456 162.048 303.976 162.458C304.495 162.841 304.987 163.265 305.452 163.729C305.916 164.194 306.34 164.686 306.723 165.205C307.133 165.697 307.461 166.189 307.707 166.681C308.226 167.72 308.486 168.854 308.486 170.084C308.486 171.123 308.335 172.148 308.035 173.159C307.734 174.171 307.324 175.141 306.805 176.07C306.313 177 305.711 177.874 305.001 178.694C304.29 179.487 303.525 180.184 302.705 180.785C301.174 181.824 299.971 182.521 299.097 182.876C298.304 183.259 297.115 183.491 295.53 183.573L294.464 183.655ZM295.284 176.07C295.284 176.48 295.42 176.685 295.694 176.685C295.885 176.685 296.131 176.59 296.432 176.398V176.316C297.142 175.934 297.812 175.455 298.441 174.881C299.097 174.28 299.671 173.624 300.163 172.913C300.682 172.175 301.119 171.41 301.475 170.617C301.83 169.797 302.062 168.991 302.172 168.198C302.172 168.062 302.158 167.925 302.131 167.788C302.131 167.652 302.117 167.501 302.09 167.337C302.09 167.037 302.021 166.722 301.885 166.394C301.912 166.586 301.734 166.681 301.352 166.681C301.106 166.681 300.846 166.75 300.573 166.886C300.327 167.078 299.876 167.542 299.22 168.28C298.728 168.772 298.249 169.319 297.785 169.92C297.32 170.522 296.896 171.164 296.514 171.847C296.158 172.503 295.858 173.2 295.612 173.938C295.393 174.649 295.284 175.36 295.284 176.07ZM290.118 164.139C290.282 163.975 290.336 163.77 290.282 163.524C290.227 163.06 289.981 162.827 289.544 162.827C289.052 162.827 288.532 163.005 287.986 163.36C287.439 163.688 286.906 164.112 286.387 164.631C285.895 165.151 285.444 165.697 285.034 166.271C284.624 166.845 284.309 167.365 284.091 167.829C283.872 168.294 283.694 168.786 283.558 169.305C283.448 169.743 283.448 170.084 283.558 170.33C283.694 170.576 283.804 170.631 283.886 170.494C283.968 170.412 284.009 170.207 284.009 169.879C284.009 169.415 284.2 168.936 284.583 168.444C284.993 167.925 285.457 167.447 285.977 167.009C286.523 166.545 287.07 166.121 287.617 165.738C288.191 165.356 288.655 165.069 289.011 164.877C289.639 164.495 290.008 164.249 290.118 164.139ZM337.648 176.726C337.812 175.77 338.058 174.895 338.386 174.102V174.184C338.905 172.271 339.151 171.041 339.124 170.494C339.096 169.948 338.85 169.743 338.386 169.879C338.194 169.961 337.907 170.166 337.525 170.494C337.306 170.686 337.087 170.891 336.869 171.109C336.65 171.328 336.418 171.56 336.172 171.806C335.461 172.517 334.778 173.337 334.122 174.266C333.466 175.196 332.837 176.166 332.236 177.177C331.662 178.161 331.115 179.173 330.596 180.211C330.076 181.25 329.612 182.248 329.202 183.204C328.764 184.188 328.546 184.899 328.546 185.336C328.546 185.528 328.518 185.651 328.464 185.705C328.518 185.651 328.436 185.979 328.218 186.689C327.999 187.455 327.78 188.138 327.562 188.739C327.562 188.794 327.534 188.958 327.48 189.231C327.398 189.423 327.357 189.587 327.357 189.723C327.22 190.27 327.083 190.83 326.947 191.404C326.837 191.978 326.701 192.539 326.537 193.085C326.482 193.222 326.441 193.345 326.414 193.454C326.386 193.536 326.345 193.605 326.291 193.659C326.263 193.714 326.236 193.782 326.209 193.864C326.181 193.919 326.154 193.974 326.127 194.028C325.744 194.466 325.238 194.739 324.61 194.848C324.036 194.93 323.448 194.985 322.847 195.012C322.273 195.012 321.699 195.012 321.125 195.012C320.277 195.012 319.567 194.999 318.993 194.971C318.446 194.944 318.022 194.903 317.722 194.848C316.902 194.63 316.191 194.315 315.59 193.905C314.988 193.468 314.469 192.962 314.032 192.388C313.622 191.814 313.28 191.186 313.007 190.502C312.733 189.792 312.515 189.054 312.351 188.288C312.241 187.96 312.159 187.605 312.105 187.222C312.05 187.031 312.009 186.84 311.982 186.648C311.982 186.43 311.968 186.211 311.941 185.992C311.941 185.746 311.927 185.487 311.9 185.213C311.9 184.913 311.9 184.598 311.9 184.27V181.687C311.9 180.047 311.954 178.517 312.064 177.095C312.173 175.674 312.364 174.294 312.638 172.954C312.938 171.615 313.335 170.289 313.827 168.977C314.319 167.638 314.934 166.258 315.672 164.836C315.945 164.29 316.3 163.702 316.738 163.073C317.202 162.445 317.694 161.966 318.214 161.638C318.514 161.42 318.883 161.283 319.321 161.228C319.758 161.146 320.168 161.105 320.551 161.105C321.261 161.105 322.095 161.201 323.052 161.392C324.036 161.584 324.979 161.884 325.881 162.294C326.783 162.704 327.589 163.224 328.3 163.852C329.01 164.454 329.461 165.164 329.653 165.984C329.871 166.859 329.83 167.98 329.53 169.346C329.42 169.647 329.311 169.961 329.202 170.289C329.12 170.59 329.01 170.918 328.874 171.273C328.764 171.629 328.655 171.957 328.546 172.257C328.436 172.531 328.313 172.79 328.177 173.036C328.423 172.708 328.628 172.421 328.792 172.175C328.901 172.039 329.01 171.902 329.12 171.765C329.229 171.601 329.366 171.451 329.53 171.314C330.022 170.658 330.596 169.948 331.252 169.182C331.908 168.417 332.618 167.693 333.384 167.009C334.176 166.299 334.983 165.67 335.803 165.123C336.623 164.549 337.443 164.139 338.263 163.893H338.181C338.837 163.647 339.301 163.524 339.575 163.524C339.875 163.524 340.244 163.647 340.682 163.893C341.283 164.085 341.871 164.372 342.445 164.754C343.019 165.137 343.552 165.588 344.044 166.107C344.536 166.627 344.973 167.187 345.356 167.788C345.738 168.39 346.012 168.991 346.176 169.592C346.23 169.729 346.271 169.866 346.299 170.002C346.326 170.139 346.367 170.276 346.422 170.412C346.476 170.877 346.517 171.314 346.545 171.724C346.572 172.134 346.586 172.572 346.586 173.036V174.676C346.586 175.196 346.558 175.701 346.504 176.193C346.449 176.658 346.394 177.15 346.34 177.669C346.039 179.009 345.766 180.416 345.52 181.892C345.274 183.341 345.096 184.762 344.987 186.156C344.85 187.523 344.932 188.329 345.233 188.575C345.506 188.931 345.848 189.108 346.258 189.108C346.586 189.108 346.955 188.985 347.365 188.739C347.775 188.466 348.171 188.165 348.554 187.837C348.936 187.482 349.292 187.127 349.62 186.771C349.948 186.389 350.194 186.074 350.358 185.828C351.232 184.598 351.943 183.286 352.49 181.892C353.064 180.498 353.46 179.063 353.679 177.587C353.952 176.084 354.007 174.567 353.843 173.036C354.089 171.342 354.458 170.494 354.95 170.494C355.442 170.494 356.111 170.795 356.959 171.396C357.232 171.67 357.492 172.011 357.738 172.421C357.984 172.804 358.202 173.228 358.394 173.692C358.612 174.13 358.79 174.567 358.927 175.004C359.063 175.442 359.159 175.852 359.214 176.234C359.268 176.781 359.268 177.423 359.214 178.161C359.077 179.255 358.899 180.348 358.681 181.441C358.489 182.535 358.216 183.601 357.861 184.639C357.478 185.514 357.082 186.361 356.672 187.181C356.289 188.001 355.906 188.808 355.524 189.6C354.758 191.158 353.788 192.238 352.613 192.839C351.437 193.441 350.002 193.741 348.308 193.741C346.176 193.741 344.112 193.304 342.117 192.429C340.723 191.582 339.643 190.612 338.878 189.518C338.14 188.398 337.579 187.072 337.197 185.541C336.951 184.503 336.828 183.669 336.828 183.04V181.605C336.882 181.359 336.91 181.127 336.91 180.908C336.937 180.662 336.964 180.416 336.992 180.17C336.992 179.733 337.06 179.35 337.197 179.022C337.251 178.749 337.32 178.421 337.402 178.038C337.484 177.656 337.566 177.218 337.648 176.726ZM320.797 165.205C320.961 164.795 321.002 164.536 320.92 164.426C320.756 164.153 320.523 164.016 320.223 164.016C319.922 164.071 319.649 164.235 319.403 164.508C319.184 164.809 318.952 165.274 318.706 165.902C318.487 166.504 318.268 167.16 318.05 167.87C317.831 168.554 317.64 169.237 317.476 169.92C317.312 170.576 317.202 171.123 317.148 171.56C316.984 172.326 316.97 172.818 317.107 173.036C317.216 173.118 317.312 173.023 317.394 172.749C317.448 172.613 317.53 172.38 317.64 172.052C317.749 171.724 317.899 171.301 318.091 170.781C318.255 170.125 318.487 169.483 318.788 168.854C319.116 168.198 319.471 167.583 319.854 167.009C320.1 166.599 320.291 166.244 320.428 165.943C320.592 165.643 320.715 165.397 320.797 165.205Z" fill="white"/>
<defs>
<linearGradient id="paint0_linear_1434_18880" x1="2.50439" y1="176.718" x2="413.241" y2="176.718" gradientUnits="userSpaceOnUse">
<stop stop-color="#FFCCED" stop-opacity="0.8"/>
<stop offset="1" stop-color="white"/>
</linearGradient>
</defs>
</svg>
