<svg width="239" height="214" viewBox="0 0 239 214" fill="none" xmlns="http://www.w3.org/2000/svg">
<g filter="url(#filter0_d_30_661)">
<path d="M191.143 123.685C186.903 125.683 183.457 130.121 184.877 134.757C185.406 136.181 186.022 137.561 186.749 138.919C188.159 141.877 190.218 144.427 192.641 146.591C193.445 147.309 194.292 147.993 195.162 148.622C203.069 154.373 210.073 163.381 210.139 173.603C210.205 184.278 199.842 193.639 189.029 193.087C187.707 193.054 186.375 192.888 185.053 192.601C183.897 192.347 182.741 192.016 181.585 191.597C168.767 186.872 171.674 170.369 167.434 159.484C166.498 157.398 165.551 154.616 162.997 153.943C161.719 153.678 160.574 153.711 159.506 153.943C158.449 154.186 157.469 154.638 156.544 155.245C150.531 160.29 147.58 169.828 138.55 170.347C132.064 170.855 127.406 166.472 121.151 165.346C116.747 164.441 113.52 167.719 111.45 170.899C110.459 172.29 109.534 173.725 108.653 175.149C107.772 176.584 106.957 177.997 106.175 179.365C105.261 180.767 104.105 181.706 103.059 182.898C101.958 183.991 100.801 185.062 99.623 186.077C91.32 193.197 81.2331 197.789 72.4236 187.932C62.623 177.08 75.54 167.477 82.4334 159.54C83.6998 157.906 84.6138 155.875 84.834 153.81C84.9441 152.784 84.8781 151.746 84.5697 150.753C83.5346 148.622 81.6736 147.242 79.5814 146.79C72.0933 144.571 62.4248 146.425 55.8727 142.595C54.7825 141.955 53.7805 141.16 52.8885 140.166C50.8072 137.914 50.3227 134.669 51.468 131.876C51.9194 130.827 52.47 129.812 53.0537 128.818C56.5114 123.023 60.4206 118.122 64.7813 112.525C69.3733 106.233 70.012 97.1698 63.9555 92.1029C62.6781 91.0321 61.3346 90.2263 59.9581 89.6412C58.5816 89.0451 57.1611 88.6588 55.7075 88.4049C47.9441 87.1023 39.8504 88.7802 32.4174 85.8107C23.3656 82.3887 12.1775 72.0121 18.3662 61.5251C18.9498 60.5427 19.5885 59.6816 20.2822 58.931C22.3635 56.6791 24.8962 55.3985 27.6932 54.8466C28.9376 54.6037 30.237 54.5044 31.5915 54.5485C42.4052 56.4914 49.64 65.2673 59.6278 69.6167C62.8763 70.9855 66.5873 71.1952 69.5826 68.6231C72.1153 66.5147 73.4808 63.2582 73.0072 60.0128C72.2694 52.8154 68.7567 46.3466 69.1751 39.0941C69.3183 37.5597 69.6266 36.1356 70.1331 34.8662C71.6528 31.0467 74.8903 28.4857 81.1451 28.6181C82.5766 28.6513 83.9861 28.7948 85.4287 29.0707C87.1686 29.2694 89.0296 29.9649 90.6594 30.8811C97.3987 34.7889 101.154 42.4278 108.807 43.5317C114.214 44.4259 117.121 40.3856 119.753 36.0694C120.414 34.9876 121.052 33.8947 121.713 32.8571C127.219 25.3065 130.137 11.3643 141.733 12.678C142.944 12.8104 144.144 13.0312 145.333 13.3072C146.523 13.5831 147.69 13.9143 148.857 14.3117C150.047 14.7422 151.17 15.25 152.194 15.9013C153.218 16.5526 154.154 17.3695 154.969 18.4292C160.805 25.5604 161.829 40.1759 172.94 39.646C181.276 39.1272 184.69 29.5896 191.143 24.4344C192.299 23.7279 193.213 22.8006 194.458 22.2156C195.526 21.5422 196.627 20.9903 197.761 20.5487C203.432 18.352 209.863 18.6279 215.678 21.498C218.772 23.0987 220.776 25.461 221.789 28.1324C222.296 29.4681 222.56 30.8701 222.582 32.3051C221.844 43.7525 209.114 45.6953 200.811 51.3141C193.896 55.6966 195.933 60.7303 199.578 65.455C200.492 66.6361 201.505 67.7952 202.507 68.9212C206.505 73.414 210.59 77.7854 214.708 82.19C219.829 87.6653 222.648 93.5269 221.734 101.1C221.007 107.083 218.232 113.894 212.473 116.609C210.579 117.503 208.597 118.177 206.571 118.773C205.558 119.071 204.533 119.347 203.498 119.623C200.316 120.495 197.078 121.213 193.786 122.195L191.154 123.685H191.143Z" fill="#70BF01"/>
</g>
<path d="M116.509 94.322C116.621 93.986 116.719 93.678 116.803 93.398C116.878 93.0807 116.915 92.8987 116.915 92.852C116.915 92.628 116.836 92.516 116.677 92.516C116.453 92.516 116.21 92.5767 115.949 92.698C115.688 92.81 115.422 92.964 115.151 93.16C114.89 93.356 114.628 93.58 114.367 93.832C114.106 94.0747 113.858 94.3267 113.625 94.588C113.401 94.8493 113.196 95.1107 113.009 95.372C112.822 95.624 112.673 95.8527 112.561 96.058C112.244 96.59 111.973 97.1313 111.749 97.682C111.525 98.2233 111.338 98.7927 111.189 99.39C111.133 99.5953 111.072 99.81 111.007 100.034C110.951 100.258 110.886 100.496 110.811 100.748L110.783 101.21C110.783 101.817 110.834 102.363 110.937 102.848C111.04 103.333 111.212 103.749 111.455 104.094C111.707 104.43 112.043 104.691 112.463 104.878C112.883 105.055 113.41 105.144 114.045 105.144C114.316 105.144 114.596 105.135 114.885 105.116C115.174 105.097 115.445 105.037 115.697 104.934C115.902 104.887 116.098 104.827 116.285 104.752C116.481 104.677 116.672 104.593 116.859 104.5L117.433 104.262L117.587 103.38C117.606 103.268 117.624 103.156 117.643 103.044C117.671 102.932 117.699 102.825 117.727 102.722C117.783 102.507 117.811 102.349 117.811 102.246V102.19L117.867 101.882L117.559 101.854C117.428 101.854 117.279 101.868 117.111 101.896C116.943 101.924 116.77 101.961 116.593 102.008C116.416 102.055 116.243 102.111 116.075 102.176C115.916 102.232 115.781 102.293 115.669 102.358C115.52 102.433 115.426 102.507 115.389 102.582C115.389 102.647 115.37 102.68 115.333 102.68C115.249 102.68 115.165 102.633 115.081 102.54C114.997 102.447 114.922 102.339 114.857 102.218C114.792 102.087 114.736 101.957 114.689 101.826C114.652 101.695 114.633 101.593 114.633 101.518V101.42L114.661 101.084L114.717 101.028C114.736 100.841 114.81 100.659 114.941 100.482C115.072 100.295 115.226 100.123 115.403 99.964C115.59 99.796 115.776 99.6467 115.963 99.516C116.159 99.3853 116.332 99.278 116.481 99.194C117.125 98.8207 117.82 98.55 118.567 98.382C119.314 98.214 120.056 98.13 120.793 98.13C121.092 98.13 121.395 98.144 121.703 98.172C122.02 98.2 122.31 98.2653 122.571 98.368C122.842 98.4707 123.08 98.62 123.285 98.816C123.49 99.012 123.64 99.2827 123.733 99.628L123.873 100.02L123.243 103.8C123.075 104.752 122.921 105.699 122.781 106.642C122.65 107.575 122.548 108.523 122.473 109.484C122.464 109.829 122.45 110.016 122.431 110.044C122.412 110.081 122.324 110.128 122.165 110.184C122.09 110.212 121.978 110.235 121.829 110.254C121.689 110.282 121.535 110.301 121.367 110.31C121.208 110.319 121.054 110.324 120.905 110.324C120.756 110.333 120.639 110.338 120.555 110.338C120.219 110.338 119.883 110.305 119.547 110.24C119.22 110.184 118.912 110.081 118.623 109.932C118.343 109.792 118.091 109.605 117.867 109.372C117.652 109.139 117.489 108.849 117.377 108.504C117.293 108.224 117.2 108.084 117.097 108.084L116.313 108.322C115.837 108.481 115.366 108.583 114.899 108.63C114.442 108.686 113.966 108.714 113.471 108.714C111.502 108.714 109.602 108.117 107.773 106.922C107.213 106.558 106.732 106.175 106.331 105.774C105.939 105.373 105.612 104.939 105.351 104.472C105.099 104.005 104.912 103.497 104.791 102.946C104.679 102.395 104.623 101.784 104.623 101.112C104.623 100.197 104.744 99.236 104.987 98.228C105.23 97.2107 105.561 96.2167 105.981 95.246C106.41 94.266 106.91 93.3373 107.479 92.46C108.058 91.5827 108.683 90.8173 109.355 90.164C109.7 89.8093 110.069 89.4873 110.461 89.198C110.853 88.8993 111.264 88.6427 111.693 88.428C112.132 88.2133 112.584 88.0453 113.051 87.924C113.518 87.8027 114.003 87.742 114.507 87.742C114.964 87.742 115.45 87.812 115.963 87.952C116.476 88.0827 116.98 88.274 117.475 88.526C117.979 88.7687 118.46 89.0627 118.917 89.408C119.384 89.744 119.79 90.122 120.135 90.542C120.49 90.962 120.77 91.41 120.975 91.886C121.18 92.362 121.283 92.8567 121.283 93.37C121.283 93.678 121.246 94.0187 121.171 94.392C121.106 94.756 121.008 95.12 120.877 95.484C120.746 95.848 120.588 96.198 120.401 96.534C120.224 96.8607 120.023 97.136 119.799 97.36C119.538 97.6493 119.281 97.794 119.029 97.794C118.852 97.794 118.646 97.766 118.413 97.71C118.18 97.6447 117.942 97.5653 117.699 97.472C117.466 97.3693 117.237 97.2573 117.013 97.136C116.798 97.0147 116.621 96.8933 116.481 96.772C116.22 96.548 116.089 96.296 116.089 96.016C116.089 95.9133 116.103 95.7873 116.131 95.638C116.168 95.4887 116.206 95.3347 116.243 95.176C116.29 95.008 116.336 94.8493 116.383 94.7C116.43 94.5507 116.472 94.4247 116.509 94.322ZM113.527 89.422C113.854 89.282 114.017 89.1513 114.017 89.03C114.017 88.89 113.905 88.82 113.681 88.82C113.578 88.82 113.415 88.876 113.191 88.988C112.967 89.0907 112.734 89.2167 112.491 89.366C112.248 89.506 112.02 89.6507 111.805 89.8C111.59 89.94 111.436 90.0427 111.343 90.108C111.1 90.2947 110.867 90.4813 110.643 90.668C110.419 90.8453 110.204 91.032 109.999 91.228C109.607 91.62 109.411 91.956 109.411 92.236C109.411 92.32 109.43 92.362 109.467 92.362C109.542 92.362 109.817 92.1473 110.293 91.718C110.769 91.242 111.273 90.8127 111.805 90.43C112.337 90.038 112.911 89.702 113.527 89.422ZM133.344 101.154C133.493 100.809 133.591 100.407 133.638 99.95C133.656 99.7167 133.666 99.502 133.666 99.306C133.666 99.11 133.647 98.9327 133.61 98.774C133.554 98.5967 133.488 98.508 133.414 98.508C133.376 98.508 133.339 98.5267 133.302 98.564C132.77 98.8533 132.149 99.7167 131.44 101.154C131.374 101.275 131.309 101.439 131.244 101.644C131.178 101.849 131.118 102.069 131.062 102.302C131.006 102.526 130.959 102.75 130.922 102.974C130.884 103.198 130.852 103.389 130.824 103.548C130.796 103.688 130.772 103.809 130.754 103.912C130.744 104.015 130.73 104.103 130.712 104.178C130.712 104.225 130.707 104.257 130.698 104.276C130.688 104.304 130.684 104.341 130.684 104.388L130.53 105.424C130.446 105.928 130.371 106.269 130.306 106.446C130.24 106.633 130.152 106.749 130.04 106.796C130.021 106.815 129.923 106.838 129.746 106.866C129.671 106.875 129.592 106.885 129.508 106.894C129.433 106.903 129.344 106.917 129.242 106.936C129.148 106.955 129.06 106.969 128.976 106.978C128.892 106.987 128.803 107.001 128.71 107.02C128.626 107.029 128.556 107.039 128.5 107.048C128.444 107.048 128.397 107.048 128.36 107.048C128.332 107.048 128.294 107.048 128.248 107.048C128.21 107.039 128.168 107.034 128.122 107.034C127.991 107.015 127.888 106.997 127.814 106.978C127.636 106.95 127.478 106.922 127.338 106.894C127.207 106.857 127.081 106.81 126.96 106.754C126.838 106.698 126.722 106.628 126.61 106.544C126.507 106.451 126.39 106.343 126.26 106.222C126.138 106.063 126.031 105.905 125.938 105.746C125.844 105.587 125.756 105.419 125.672 105.242C125.513 104.71 125.41 104.164 125.364 103.604C125.326 103.035 125.308 102.47 125.308 101.91C125.308 101.639 125.317 101.369 125.336 101.098C125.364 100.818 125.396 100.543 125.434 100.272C125.48 99.8893 125.518 99.5393 125.546 99.222C125.583 98.9047 125.616 98.6153 125.644 98.354C125.69 98.0273 125.765 97.668 125.868 97.276C125.97 96.884 126.096 96.4967 126.246 96.114C126.395 95.722 126.568 95.3533 126.764 95.008C126.969 94.6533 127.193 94.3547 127.436 94.112C127.52 94.028 127.627 93.958 127.758 93.902C127.86 93.846 128 93.8273 128.178 93.846C128.262 93.846 128.355 93.8507 128.458 93.86C128.57 93.8693 128.691 93.8787 128.822 93.888C129.018 93.916 129.237 93.9673 129.48 94.042C129.722 94.1073 129.956 94.196 130.18 94.308C130.413 94.42 130.628 94.5507 130.824 94.7C131.02 94.8493 131.164 95.0173 131.258 95.204C131.332 95.344 131.379 95.5727 131.398 95.89C131.407 96.1793 131.393 96.408 131.356 96.576C131.337 96.6133 131.318 96.716 131.3 96.884C131.272 97.0333 131.244 97.2153 131.216 97.43C131.197 97.5327 131.183 97.6353 131.174 97.738C131.164 97.8407 131.15 97.9433 131.132 98.046C131.113 98.1487 131.099 98.242 131.09 98.326C131.08 98.4007 131.066 98.466 131.048 98.522C131.076 98.4847 131.094 98.4473 131.104 98.41C131.141 98.354 131.174 98.312 131.202 98.284C131.416 97.9853 131.64 97.6913 131.874 97.402C132.116 97.1127 132.368 96.8373 132.63 96.576C132.9 96.3147 133.18 96.072 133.47 95.848C133.768 95.624 134.081 95.428 134.408 95.26C134.66 95.1107 134.842 95.0313 134.954 95.022C135.084 94.994 135.29 94.98 135.57 94.98L136.48 95.204C136.657 95.3533 136.834 95.5493 137.012 95.792C137.198 96.0347 137.315 96.2727 137.362 96.506C137.483 96.87 137.544 97.2573 137.544 97.668C137.544 98.2093 137.497 98.7133 137.404 99.18C137.32 99.6467 137.166 100.057 136.942 100.412C136.727 100.767 136.433 101.065 136.06 101.308C135.686 101.541 135.215 101.705 134.646 101.798C134.496 101.798 134.347 101.803 134.198 101.812C134.058 101.812 133.913 101.817 133.764 101.826C133.484 101.826 133.316 101.775 133.26 101.672C133.204 101.569 133.232 101.397 133.344 101.154ZM135.192 95.596C135.098 95.68 135.052 95.7407 135.052 95.778C135.052 95.8807 135.15 95.8713 135.346 95.75C135.439 95.7127 135.509 95.6567 135.556 95.582C135.584 95.5073 135.546 95.47 135.444 95.47C135.36 95.47 135.276 95.512 135.192 95.596ZM128.234 94.882C128.28 94.7233 128.234 94.644 128.094 94.644C128.019 94.644 127.93 94.714 127.828 94.854C127.734 94.994 127.636 95.176 127.534 95.4C127.44 95.6147 127.342 95.8573 127.24 96.128C127.146 96.3987 127.062 96.6647 126.988 96.926C126.922 97.1873 126.866 97.43 126.82 97.654C126.773 97.8687 126.75 98.0367 126.75 98.158C126.75 98.298 126.768 98.3633 126.806 98.354C126.843 98.354 126.885 98.2887 126.932 98.158C126.941 98.0833 126.955 98.004 126.974 97.92C126.992 97.8267 127.016 97.724 127.044 97.612C127.081 97.5 127.114 97.388 127.142 97.276C127.179 97.1547 127.221 97.0333 127.268 96.912C127.342 96.688 127.426 96.4687 127.52 96.254C127.613 96.0393 127.72 95.8293 127.842 95.624C128.075 95.2693 128.206 95.022 128.234 94.882ZM144.549 103.198V103.296C144.549 103.352 144.558 103.436 144.577 103.548C144.596 103.651 144.619 103.758 144.647 103.87C144.675 103.982 144.708 104.089 144.745 104.192C144.782 104.285 144.82 104.351 144.857 104.388C144.913 104.425 145.025 104.425 145.193 104.388C145.949 104.285 146.616 104.057 147.195 103.702C147.783 103.347 148.324 102.885 148.819 102.316C148.95 102.157 149.066 102.013 149.169 101.882C149.272 101.751 149.37 101.635 149.463 101.532C149.556 101.429 149.64 101.327 149.715 101.224C149.79 101.121 149.864 101.023 149.939 100.93C150.004 100.827 150.065 100.729 150.121 100.636C150.186 100.533 150.252 100.431 150.317 100.328C150.382 100.225 150.448 100.113 150.513 99.992C150.588 99.8707 150.667 99.74 150.751 99.6C150.798 99.5253 150.854 99.4413 150.919 99.348C150.984 99.2453 151.054 99.152 151.129 99.068C151.204 98.9747 151.288 98.9 151.381 98.844C151.474 98.7787 151.568 98.746 151.661 98.746C151.848 98.746 152.025 98.8253 152.193 98.984C152.361 99.1333 152.454 99.3013 152.473 99.488C152.482 99.6933 152.375 100.067 152.151 100.608C152.03 100.935 151.89 101.257 151.731 101.574C151.582 101.891 151.428 102.204 151.269 102.512C151.176 102.689 151.082 102.862 150.989 103.03C150.905 103.198 150.826 103.361 150.751 103.52C150.63 103.744 150.513 103.945 150.401 104.122C150.298 104.29 150.182 104.453 150.051 104.612C149.93 104.771 149.79 104.929 149.631 105.088C149.482 105.237 149.309 105.396 149.113 105.564C148.488 106.105 147.811 106.497 147.083 106.74C146.355 106.973 145.58 107.09 144.759 107.09C144.367 107.09 143.952 107.029 143.513 106.908C143.074 106.777 142.678 106.623 142.323 106.446C142.155 106.381 141.978 106.292 141.791 106.18C141.604 106.059 141.418 105.928 141.231 105.788C141.054 105.648 140.881 105.503 140.713 105.354C140.554 105.195 140.41 105.046 140.279 104.906C139.952 104.579 139.672 104.22 139.439 103.828C139.206 103.427 139.019 103.011 138.879 102.582C138.823 102.461 138.781 102.349 138.753 102.246C138.725 102.143 138.702 102.045 138.683 101.952C138.674 101.859 138.664 101.747 138.655 101.616C138.655 101.485 138.655 101.331 138.655 101.154C138.655 100.715 138.697 100.281 138.781 99.852C138.874 99.4133 139.005 98.9887 139.173 98.578C139.341 98.158 139.546 97.766 139.789 97.402C140.041 97.0287 140.326 96.6927 140.643 96.394C141.175 95.8993 141.726 95.5353 142.295 95.302C142.874 95.0687 143.532 94.952 144.269 94.952C145.24 94.952 146.248 95.176 147.293 95.624C147.452 95.708 147.62 95.82 147.797 95.96C147.974 96.0907 148.142 96.2353 148.301 96.394C148.46 96.5527 148.604 96.7207 148.735 96.898C148.875 97.066 148.987 97.234 149.071 97.402C149.248 97.7567 149.337 98.144 149.337 98.564C149.337 98.9187 149.286 99.2687 149.183 99.614C149.08 99.9593 148.94 100.291 148.763 100.608C148.595 100.925 148.39 101.224 148.147 101.504C147.904 101.775 147.643 102.013 147.363 102.218C146.84 102.573 146.43 102.811 146.131 102.932C145.86 103.063 145.454 103.142 144.913 103.17L144.549 103.198ZM144.829 100.608C144.829 100.748 144.876 100.818 144.969 100.818C145.034 100.818 145.118 100.785 145.221 100.72V100.692C145.464 100.561 145.692 100.398 145.907 100.202C146.131 99.9967 146.327 99.7727 146.495 99.53C146.672 99.278 146.822 99.0167 146.943 98.746C147.064 98.466 147.144 98.1907 147.181 97.92C147.181 97.8733 147.176 97.8267 147.167 97.78C147.167 97.7333 147.162 97.682 147.153 97.626C147.153 97.5233 147.13 97.416 147.083 97.304C147.092 97.3693 147.032 97.402 146.901 97.402C146.817 97.402 146.728 97.4253 146.635 97.472C146.551 97.5373 146.397 97.696 146.173 97.948C146.005 98.116 145.842 98.3027 145.683 98.508C145.524 98.7133 145.38 98.9327 145.249 99.166C145.128 99.39 145.025 99.628 144.941 99.88C144.866 100.123 144.829 100.365 144.829 100.608ZM143.065 96.534C143.121 96.478 143.14 96.408 143.121 96.324C143.102 96.1653 143.018 96.086 142.869 96.086C142.701 96.086 142.524 96.1467 142.337 96.268C142.15 96.38 141.968 96.5247 141.791 96.702C141.623 96.8793 141.469 97.066 141.329 97.262C141.189 97.458 141.082 97.6353 141.007 97.794C140.932 97.9527 140.872 98.1207 140.825 98.298C140.788 98.4473 140.788 98.564 140.825 98.648C140.872 98.732 140.909 98.7507 140.937 98.704C140.965 98.676 140.979 98.606 140.979 98.494C140.979 98.3353 141.044 98.172 141.175 98.004C141.315 97.8267 141.474 97.6633 141.651 97.514C141.838 97.3553 142.024 97.2107 142.211 97.08C142.407 96.9493 142.566 96.8513 142.687 96.786C142.902 96.6553 143.028 96.5713 143.065 96.534ZM156.061 103.198V103.296C156.061 103.352 156.07 103.436 156.089 103.548C156.107 103.651 156.131 103.758 156.159 103.87C156.187 103.982 156.219 104.089 156.257 104.192C156.294 104.285 156.331 104.351 156.369 104.388C156.425 104.425 156.537 104.425 156.705 104.388C157.461 104.285 158.128 104.057 158.707 103.702C159.295 103.347 159.836 102.885 160.331 102.316C160.461 102.157 160.578 102.013 160.681 101.882C160.783 101.751 160.881 101.635 160.975 101.532C161.068 101.429 161.152 101.327 161.227 101.224C161.301 101.121 161.376 101.023 161.451 100.93C161.516 100.827 161.577 100.729 161.633 100.636C161.698 100.533 161.763 100.431 161.829 100.328C161.894 100.225 161.959 100.113 162.025 99.992C162.099 99.8707 162.179 99.74 162.263 99.6C162.309 99.5253 162.365 99.4413 162.431 99.348C162.496 99.2453 162.566 99.152 162.641 99.068C162.715 98.9747 162.799 98.9 162.893 98.844C162.986 98.7787 163.079 98.746 163.173 98.746C163.359 98.746 163.537 98.8253 163.705 98.984C163.873 99.1333 163.966 99.3013 163.985 99.488C163.994 99.6933 163.887 100.067 163.663 100.608C163.541 100.935 163.401 101.257 163.243 101.574C163.093 101.891 162.939 102.204 162.781 102.512C162.687 102.689 162.594 102.862 162.501 103.03C162.417 103.198 162.337 103.361 162.263 103.52C162.141 103.744 162.025 103.945 161.913 104.122C161.81 104.29 161.693 104.453 161.563 104.612C161.441 104.771 161.301 104.929 161.143 105.088C160.993 105.237 160.821 105.396 160.625 105.564C159.999 106.105 159.323 106.497 158.595 106.74C157.867 106.973 157.092 107.09 156.271 107.09C155.879 107.09 155.463 107.029 155.025 106.908C154.586 106.777 154.189 106.623 153.835 106.446C153.667 106.381 153.489 106.292 153.303 106.18C153.116 106.059 152.929 105.928 152.743 105.788C152.565 105.648 152.393 105.503 152.225 105.354C152.066 105.195 151.921 105.046 151.791 104.906C151.464 104.579 151.184 104.22 150.951 103.828C150.717 103.427 150.531 103.011 150.391 102.582C150.335 102.461 150.293 102.349 150.265 102.246C150.237 102.143 150.213 102.045 150.195 101.952C150.185 101.859 150.176 101.747 150.167 101.616C150.167 101.485 150.167 101.331 150.167 101.154C150.167 100.715 150.209 100.281 150.293 99.852C150.386 99.4133 150.517 98.9887 150.685 98.578C150.853 98.158 151.058 97.766 151.301 97.402C151.553 97.0287 151.837 96.6927 152.155 96.394C152.687 95.8993 153.237 95.5353 153.807 95.302C154.385 95.0687 155.043 94.952 155.781 94.952C156.751 94.952 157.759 95.176 158.805 95.624C158.963 95.708 159.131 95.82 159.309 95.96C159.486 96.0907 159.654 96.2353 159.813 96.394C159.971 96.5527 160.116 96.7207 160.247 96.898C160.387 97.066 160.499 97.234 160.583 97.402C160.76 97.7567 160.849 98.144 160.849 98.564C160.849 98.9187 160.797 99.2687 160.695 99.614C160.592 99.9593 160.452 100.291 160.275 100.608C160.107 100.925 159.901 101.224 159.659 101.504C159.416 101.775 159.155 102.013 158.875 102.218C158.352 102.573 157.941 102.811 157.643 102.932C157.372 103.063 156.966 103.142 156.425 103.17L156.061 103.198ZM156.341 100.608C156.341 100.748 156.387 100.818 156.481 100.818C156.546 100.818 156.63 100.785 156.733 100.72V100.692C156.975 100.561 157.204 100.398 157.419 100.202C157.643 99.9967 157.839 99.7727 158.007 99.53C158.184 99.278 158.333 99.0167 158.455 98.746C158.576 98.466 158.655 98.1907 158.693 97.92C158.693 97.8733 158.688 97.8267 158.679 97.78C158.679 97.7333 158.674 97.682 158.665 97.626C158.665 97.5233 158.641 97.416 158.595 97.304C158.604 97.3693 158.543 97.402 158.413 97.402C158.329 97.402 158.24 97.4253 158.147 97.472C158.063 97.5373 157.909 97.696 157.685 97.948C157.517 98.116 157.353 98.3027 157.195 98.508C157.036 98.7133 156.891 98.9327 156.761 99.166C156.639 99.39 156.537 99.628 156.453 99.88C156.378 100.123 156.341 100.365 156.341 100.608ZM154.577 96.534C154.633 96.478 154.651 96.408 154.633 96.324C154.614 96.1653 154.53 96.086 154.381 96.086C154.213 96.086 154.035 96.1467 153.849 96.268C153.662 96.38 153.48 96.5247 153.303 96.702C153.135 96.8793 152.981 97.066 152.841 97.262C152.701 97.458 152.593 97.6353 152.519 97.794C152.444 97.9527 152.383 98.1207 152.337 98.298C152.299 98.4473 152.299 98.564 152.337 98.648C152.383 98.732 152.421 98.7507 152.449 98.704C152.477 98.676 152.491 98.606 152.491 98.494C152.491 98.3353 152.556 98.172 152.687 98.004C152.827 97.8267 152.985 97.6633 153.163 97.514C153.349 97.3553 153.536 97.2107 153.723 97.08C153.919 96.9493 154.077 96.8513 154.199 96.786C154.413 96.6553 154.539 96.5713 154.577 96.534ZM170.806 100.832C170.862 100.505 170.946 100.207 171.058 99.936V99.964C171.236 99.3107 171.32 98.8907 171.31 98.704C171.301 98.5173 171.217 98.4473 171.058 98.494C170.993 98.522 170.895 98.592 170.764 98.704C170.69 98.7693 170.615 98.8393 170.54 98.914C170.466 98.9887 170.386 99.068 170.302 99.152C170.06 99.3947 169.826 99.6747 169.602 99.992C169.378 100.309 169.164 100.641 168.958 100.986C168.762 101.322 168.576 101.667 168.398 102.022C168.221 102.377 168.062 102.717 167.922 103.044C167.773 103.38 167.698 103.623 167.698 103.772C167.698 103.837 167.689 103.879 167.67 103.898C167.689 103.879 167.661 103.991 167.586 104.234C167.512 104.495 167.437 104.729 167.362 104.934C167.362 104.953 167.353 105.009 167.334 105.102C167.306 105.167 167.292 105.223 167.292 105.27C167.246 105.457 167.199 105.648 167.152 105.844C167.115 106.04 167.068 106.231 167.012 106.418C166.994 106.465 166.98 106.507 166.97 106.544C166.961 106.572 166.947 106.595 166.928 106.614C166.919 106.633 166.91 106.656 166.9 106.684C166.891 106.703 166.882 106.721 166.872 106.74C166.742 106.889 166.569 106.983 166.354 107.02C166.158 107.048 165.958 107.067 165.752 107.076C165.556 107.076 165.36 107.076 165.164 107.076C164.875 107.076 164.632 107.071 164.436 107.062C164.25 107.053 164.105 107.039 164.002 107.02C163.722 106.945 163.48 106.838 163.274 106.698C163.069 106.549 162.892 106.376 162.742 106.18C162.602 105.984 162.486 105.769 162.392 105.536C162.299 105.293 162.224 105.041 162.168 104.78C162.131 104.668 162.103 104.547 162.084 104.416C162.066 104.351 162.052 104.285 162.042 104.22C162.042 104.145 162.038 104.071 162.028 103.996C162.028 103.912 162.024 103.823 162.014 103.73C162.014 103.627 162.014 103.52 162.014 103.408V102.526C162.014 101.966 162.033 101.443 162.07 100.958C162.108 100.473 162.173 100.001 162.266 99.544C162.369 99.0867 162.504 98.634 162.672 98.186C162.84 97.7287 163.05 97.2573 163.302 96.772C163.396 96.5853 163.517 96.3847 163.666 96.17C163.825 95.9553 163.993 95.792 164.17 95.68C164.273 95.6053 164.399 95.5587 164.548 95.54C164.698 95.512 164.838 95.498 164.968 95.498C165.211 95.498 165.496 95.5307 165.822 95.596C166.158 95.6613 166.48 95.764 166.788 95.904C167.096 96.044 167.372 96.2213 167.614 96.436C167.857 96.6413 168.011 96.884 168.076 97.164C168.151 97.4627 168.137 97.8453 168.034 98.312C167.997 98.4147 167.96 98.522 167.922 98.634C167.894 98.7367 167.857 98.8487 167.81 98.97C167.773 99.0913 167.736 99.2033 167.698 99.306C167.661 99.3993 167.619 99.488 167.572 99.572C167.656 99.46 167.726 99.362 167.782 99.278C167.82 99.2313 167.857 99.1847 167.894 99.138C167.932 99.082 167.978 99.0307 168.034 98.984C168.202 98.76 168.398 98.5173 168.622 98.256C168.846 97.9947 169.089 97.7473 169.35 97.514C169.621 97.2713 169.896 97.0567 170.176 96.87C170.456 96.674 170.736 96.534 171.016 96.45H170.988C171.212 96.366 171.371 96.324 171.464 96.324C171.567 96.324 171.693 96.366 171.842 96.45C172.048 96.5153 172.248 96.6133 172.444 96.744C172.64 96.8747 172.822 97.0287 172.99 97.206C173.158 97.3833 173.308 97.5747 173.438 97.78C173.569 97.9853 173.662 98.1907 173.718 98.396C173.737 98.4427 173.751 98.4893 173.76 98.536C173.77 98.5827 173.784 98.6293 173.802 98.676C173.821 98.8347 173.835 98.984 173.844 99.124C173.854 99.264 173.858 99.4133 173.858 99.572V100.132C173.858 100.309 173.849 100.482 173.83 100.65C173.812 100.809 173.793 100.977 173.774 101.154C173.672 101.611 173.578 102.092 173.494 102.596C173.41 103.091 173.35 103.576 173.312 104.052C173.266 104.519 173.294 104.794 173.396 104.878C173.49 104.999 173.606 105.06 173.746 105.06C173.858 105.06 173.984 105.018 174.124 104.934C174.264 104.841 174.4 104.738 174.53 104.626C174.661 104.505 174.782 104.383 174.894 104.262C175.006 104.131 175.09 104.024 175.146 103.94C175.445 103.52 175.688 103.072 175.874 102.596C176.07 102.12 176.206 101.63 176.28 101.126C176.374 100.613 176.392 100.095 176.336 99.572C176.42 98.9933 176.546 98.704 176.714 98.704C176.882 98.704 177.111 98.8067 177.4 99.012C177.494 99.1053 177.582 99.222 177.666 99.362C177.75 99.4927 177.825 99.6373 177.89 99.796C177.965 99.9453 178.026 100.095 178.072 100.244C178.119 100.393 178.152 100.533 178.17 100.664C178.189 100.851 178.189 101.07 178.17 101.322C178.124 101.695 178.063 102.069 177.988 102.442C177.923 102.815 177.83 103.179 177.708 103.534C177.578 103.833 177.442 104.122 177.302 104.402C177.172 104.682 177.041 104.957 176.91 105.228C176.649 105.76 176.318 106.129 175.916 106.334C175.515 106.539 175.025 106.642 174.446 106.642C173.718 106.642 173.014 106.493 172.332 106.194C171.856 105.905 171.488 105.573 171.226 105.2C170.974 104.817 170.783 104.365 170.652 103.842C170.568 103.487 170.526 103.203 170.526 102.988V102.498C170.545 102.414 170.554 102.335 170.554 102.26C170.564 102.176 170.573 102.092 170.582 102.008C170.582 101.859 170.606 101.728 170.652 101.616C170.671 101.523 170.694 101.411 170.722 101.28C170.75 101.149 170.778 101 170.806 100.832ZM165.052 96.898C165.108 96.758 165.122 96.6693 165.094 96.632C165.038 96.5387 164.959 96.492 164.856 96.492C164.754 96.5107 164.66 96.5667 164.576 96.66C164.502 96.7627 164.422 96.9213 164.338 97.136C164.264 97.3413 164.189 97.5653 164.114 97.808C164.04 98.0413 163.974 98.2747 163.918 98.508C163.862 98.732 163.825 98.9187 163.806 99.068C163.75 99.3293 163.746 99.4973 163.792 99.572C163.83 99.6 163.862 99.5673 163.89 99.474C163.909 99.4273 163.937 99.348 163.974 99.236C164.012 99.124 164.063 98.9793 164.128 98.802C164.184 98.578 164.264 98.3587 164.366 98.144C164.478 97.92 164.6 97.71 164.73 97.514C164.814 97.374 164.88 97.2527 164.926 97.15C164.982 97.0473 165.024 96.9633 165.052 96.898Z" fill="white"/>
<defs>
<filter id="filter0_d_30_661" x="0.582031" y="0.591309" width="238" height="213" filterUnits="userSpaceOnUse" color-interpolation-filters="sRGB">
<feFlood flood-opacity="0" result="BackgroundImageFix"/>
<feColorMatrix in="SourceAlpha" type="matrix" values="0 0 0 0 0 0 0 0 0 0 0 0 0 0 0 0 0 0 127 0" result="hardAlpha"/>
<feOffset dy="4"/>
<feGaussianBlur stdDeviation="8"/>
<feComposite in2="hardAlpha" operator="out"/>
<feColorMatrix type="matrix" values="0 0 0 0 0.439216 0 0 0 0 0.74902 0 0 0 0 0.00392157 0 0 0 1 0"/>
<feBlend mode="normal" in2="BackgroundImageFix" result="effect1_dropShadow_30_661"/>
<feBlend mode="normal" in="SourceGraphic" in2="effect1_dropShadow_30_661" result="shape"/>
</filter>
</defs>
</svg>
