<svg width="240" height="214" viewBox="0 0 240 214" fill="none" xmlns="http://www.w3.org/2000/svg">
<g filter="url(#filter0_d_30_664)">
<path d="M191.642 123.694C187.391 125.693 183.934 130.132 185.359 134.77C185.889 136.195 186.507 137.575 187.236 138.934C188.65 141.893 190.715 144.444 193.144 146.609C193.951 147.327 194.801 148.011 195.673 148.641C203.602 154.394 210.626 163.406 210.692 173.632C210.759 184.311 200.367 193.676 189.522 193.124C188.197 193.091 186.861 192.925 185.535 192.638C184.376 192.384 183.216 192.052 182.057 191.633C169.202 186.906 172.118 170.396 167.866 159.508C166.927 157.42 165.978 154.637 163.416 153.964C162.134 153.699 160.986 153.732 159.915 153.964C158.855 154.207 157.872 154.659 156.944 155.267C150.914 160.314 147.955 169.855 138.899 170.374C132.395 170.882 127.723 166.498 121.451 165.372C117.033 164.466 113.797 167.746 111.721 170.926C110.727 172.318 109.8 173.753 108.916 175.178C108.033 176.614 107.216 178.027 106.431 179.397C105.515 180.799 104.355 181.738 103.306 182.931C102.202 184.024 101.042 185.095 99.8606 186.111C91.5339 193.234 81.4181 197.828 72.5834 187.966C62.7547 177.111 75.7087 167.503 82.6218 159.563C83.8918 157.928 84.8084 155.896 85.0293 153.831C85.1397 152.804 85.0735 151.766 84.7643 150.772C83.7262 148.641 81.8598 147.26 79.7616 146.808C72.2521 144.588 62.556 146.443 55.9851 142.611C54.8918 141.971 53.8869 141.175 52.9924 140.182C50.9052 137.929 50.4192 134.682 51.5678 131.888C52.0205 130.839 52.5727 129.823 53.158 128.829C56.6256 123.031 60.5461 118.128 64.9192 112.529C69.5243 106.234 70.1649 97.1674 64.091 92.0985C62.81 91.0273 61.4627 90.2211 60.0822 89.6358C58.7018 89.0395 57.2772 88.6529 55.8195 88.3989C48.0339 87.0958 39.917 88.7744 32.4627 85.8037C23.385 82.3803 12.1649 71.9995 18.3713 61.5082C18.9566 60.5254 19.5971 59.664 20.2928 58.913C22.38 56.6602 24.92 55.3791 27.725 54.827C28.9729 54.584 30.2761 54.4846 31.6344 54.5288C42.479 56.4724 49.7346 65.252 59.7509 69.6031C63.0087 70.9724 66.7304 71.1823 69.7342 68.6092C72.2742 66.4999 73.6435 63.2421 73.1687 59.9953C72.4288 52.795 68.9059 46.3235 69.3256 39.068C69.4692 37.533 69.7784 36.1084 70.2864 34.8384C71.8104 31.0174 75.0571 28.4553 81.3298 28.5878C82.7654 28.6209 84.179 28.7645 85.6257 29.0406C87.3705 29.2394 89.2369 29.9351 90.8713 30.8517C97.6299 34.7611 101.396 42.4031 109.071 43.5075C114.493 44.402 117.409 40.3601 120.048 36.0421C120.711 34.9599 121.351 33.8666 122.014 32.8285C127.535 25.2748 130.462 11.327 142.091 12.6411C143.305 12.7736 144.509 12.9945 145.702 13.2706C146.895 13.5467 148.065 13.878 149.236 14.2756C150.428 14.7062 151.555 15.2142 152.582 15.8658C153.609 16.5174 154.548 17.3346 155.365 18.3947C161.218 25.5288 162.245 40.1503 173.388 39.6202C181.748 39.1011 185.171 29.5596 191.642 24.4024C192.802 23.6956 193.719 22.7679 194.966 22.1826C196.038 21.509 197.142 20.9568 198.28 20.5151C203.967 18.3174 210.416 18.5935 216.247 21.4648C219.35 23.0661 221.36 25.4294 222.376 28.1019C222.884 29.4382 223.149 30.8407 223.171 32.2763C222.432 43.7283 209.665 45.672 201.339 51.2931C194.403 55.6773 196.446 60.7131 200.102 65.4397C201.018 66.6213 202.034 67.7809 203.039 68.9073C207.048 73.402 211.145 77.7752 215.275 82.1815C220.411 87.659 223.238 93.5231 222.321 101.099C221.592 107.084 218.809 113.898 213.034 116.615C211.134 117.509 209.146 118.183 207.114 118.779C206.098 119.078 205.071 119.354 204.033 119.63C200.842 120.502 197.595 121.22 194.293 122.203L191.653 123.694H191.642Z" fill="#575EFF"/>
</g>
<path d="M118.344 99.8721L118.008 100.054L118.582 100.236C118.89 100.357 119.179 100.511 119.45 100.698C119.73 100.885 119.973 101.104 120.178 101.356C120.393 101.608 120.561 101.883 120.682 102.182C120.813 102.481 120.878 102.803 120.878 103.148C120.878 103.941 120.729 104.646 120.43 105.262C120.141 105.869 119.749 106.401 119.254 106.858C118.769 107.306 118.204 107.684 117.56 107.992C116.916 108.3 116.239 108.547 115.53 108.734C114.83 108.93 114.121 109.07 113.402 109.154C112.683 109.238 112.002 109.28 111.358 109.28C111.106 109.28 110.943 109.271 110.868 109.252C110.831 109.233 110.747 109.215 110.616 109.196C110.523 109.196 110.383 109.173 110.196 109.126C109.916 109.079 109.641 108.981 109.37 108.832C109.109 108.692 108.871 108.533 108.656 108.356C108.553 108.281 108.451 108.207 108.348 108.132C108.245 108.057 108.143 107.983 108.04 107.908C107.835 107.759 107.639 107.665 107.452 107.628C107.013 107.535 106.635 107.423 106.318 107.292C106.001 107.152 105.739 106.975 105.534 106.76C105.338 106.536 105.189 106.261 105.086 105.934C104.993 105.607 104.946 105.215 104.946 104.758C104.946 101.314 105.945 98.1595 107.942 95.2941C107.998 95.1915 108.054 95.1075 108.11 95.0421C108.157 94.9675 108.18 94.9208 108.18 94.9021C108.124 94.9021 108.045 94.9208 107.942 94.9581C107.849 94.9955 107.751 95.0421 107.648 95.0981C107.545 95.1541 107.447 95.2101 107.354 95.2661C107.261 95.3221 107.191 95.3688 107.144 95.4061C107.041 95.4715 106.943 95.5368 106.85 95.6021C106.766 95.6581 106.687 95.7095 106.612 95.7561C106.453 95.8588 106.355 95.9101 106.318 95.9101C106.038 95.6395 105.795 95.3781 105.59 95.1261C105.385 94.8648 105.189 94.5615 105.002 94.2161C104.843 93.8801 104.764 93.5581 104.764 93.2501C104.764 92.7555 104.848 92.3215 105.016 91.9481C105.184 91.5748 105.408 91.2435 105.688 90.9541C105.977 90.6648 106.309 90.4128 106.682 90.1981C107.055 89.9835 107.443 89.7875 107.844 89.6101C108.395 89.3581 108.983 89.1155 109.608 88.8821C110.243 88.6488 110.887 88.4435 111.54 88.2661C112.203 88.0795 112.865 87.9348 113.528 87.8321C114.191 87.7201 114.83 87.6641 115.446 87.6641C116.015 87.6641 116.575 87.7248 117.126 87.8461C117.686 87.9675 118.218 88.1495 118.722 88.3921C119.226 88.6348 119.688 88.9428 120.108 89.3161C120.537 89.6801 120.901 90.1141 121.2 90.6181C121.639 91.3368 121.858 92.2235 121.858 93.2781C121.858 94.0061 121.797 94.6921 121.676 95.3361C121.564 95.9708 121.368 96.5635 121.088 97.1141C120.817 97.6555 120.458 98.1595 120.01 98.6261C119.562 99.0835 119.007 99.4988 118.344 99.8721ZM112.03 89.6241C112.03 89.5775 111.974 89.5495 111.862 89.5401C111.806 89.5401 111.741 89.5401 111.666 89.5401C111.601 89.5308 111.526 89.5261 111.442 89.5261C111.209 89.5261 110.957 89.5728 110.686 89.6661C110.537 89.7128 110.331 89.7828 110.07 89.8761C109.809 89.9695 109.524 90.0768 109.216 90.1981C108.908 90.3101 108.591 90.4361 108.264 90.5761C107.947 90.7161 107.657 90.8608 107.396 91.0101C107.144 91.1501 106.934 91.2948 106.766 91.4441C106.607 91.5841 106.528 91.7195 106.528 91.8501C106.528 91.9901 106.579 92.0601 106.682 92.0601C106.719 92.0601 106.799 92.0368 106.92 91.9901C106.967 91.9621 107.037 91.9201 107.13 91.8641C107.233 91.8081 107.349 91.7428 107.48 91.6681C108.208 91.2295 108.945 90.8468 109.692 90.5201C110.448 90.1935 111.227 89.8948 112.03 89.6241ZM116.58 103.078C116.58 102.779 116.487 102.532 116.3 102.336C116.113 102.14 115.88 101.981 115.6 101.86C115.329 101.739 115.04 101.655 114.732 101.608C114.433 101.552 114.172 101.524 113.948 101.524C113.603 101.524 113.253 101.561 112.898 101.636C112.543 101.701 112.203 101.776 111.876 101.86L111.386 101.958L111.26 102.63C111.232 102.77 111.204 102.919 111.176 103.078C111.148 103.237 111.125 103.409 111.106 103.596C111.087 103.783 111.073 103.96 111.064 104.128C111.064 104.287 111.069 104.445 111.078 104.604C111.078 104.735 111.078 104.847 111.078 104.94C111.087 105.033 111.097 105.108 111.106 105.164V105.528L112.912 105.276C113.36 105.192 113.808 105.08 114.256 104.94C114.713 104.791 115.138 104.595 115.53 104.352C115.633 104.296 115.745 104.221 115.866 104.128C115.997 104.035 116.113 103.932 116.216 103.82C116.319 103.708 116.403 103.591 116.468 103.47C116.543 103.339 116.58 103.209 116.58 103.078ZM117.462 95.0561C117.509 94.5241 117.308 94.1461 116.86 93.9221C116.431 93.6981 115.857 93.5861 115.138 93.5861C115.026 93.5861 114.905 93.5908 114.774 93.6001C114.643 93.6001 114.499 93.6001 114.34 93.6001C114.191 93.6095 114.041 93.6188 113.892 93.6281C113.752 93.6281 113.612 93.6281 113.472 93.6281C113.341 93.6375 113.211 93.6468 113.08 93.6561C112.959 93.6561 112.847 93.6655 112.744 93.6841C112.641 93.6935 112.557 93.7028 112.492 93.7121C112.436 93.7121 112.403 93.7121 112.394 93.7121L112.114 93.7401L112.422 93.9921C112.693 94.2068 112.917 94.4401 113.094 94.6921C113.281 94.9441 113.374 95.2475 113.374 95.6021L113.332 95.7841C113.295 95.8681 113.253 95.9661 113.206 96.0781C113.159 96.1901 113.108 96.3161 113.052 96.4561C112.921 96.7828 112.8 97.1095 112.688 97.4361C112.576 97.7628 112.469 98.0895 112.366 98.4161C112.366 98.5188 112.427 98.5701 112.548 98.5701C112.651 98.5701 112.767 98.5655 112.898 98.5561C113.038 98.5375 113.173 98.5188 113.304 98.5001C113.444 98.4721 113.579 98.4441 113.71 98.4161C113.841 98.3881 113.953 98.3555 114.046 98.3181C114.289 98.2435 114.555 98.1408 114.844 98.0101C115.133 97.8795 115.413 97.7301 115.684 97.5621C115.964 97.3848 116.225 97.1935 116.468 96.9881C116.711 96.7828 116.907 96.5681 117.056 96.3441C117.159 96.2135 117.238 96.0921 117.294 95.9801C117.35 95.8588 117.397 95.7421 117.434 95.6301L117.462 95.0561ZM127.334 87.6081H127.306C127.642 87.4028 127.988 87.3001 128.342 87.3001C128.482 87.3001 128.65 87.3235 128.846 87.3701C129.052 87.4075 129.252 87.4635 129.448 87.5381C129.654 87.6035 129.845 87.6828 130.022 87.7761C130.209 87.8601 130.358 87.9535 130.47 88.0561C130.797 88.2988 131.049 88.6208 131.226 89.0221C131.404 89.4235 131.492 89.8295 131.492 90.2401C131.492 90.6321 131.446 91.0148 131.352 91.3881C131.268 91.7521 131.17 92.1208 131.058 92.4941C130.974 92.7648 130.89 93.0355 130.806 93.3061C130.722 93.5768 130.634 93.8475 130.54 94.1181C130.494 94.2021 130.414 94.4401 130.302 94.8321C130.181 95.2241 130.041 95.6441 129.882 96.0921C129.864 96.1388 129.822 96.2555 129.756 96.4421C129.7 96.6288 129.64 96.8295 129.574 97.0441C129.509 97.2495 129.448 97.4408 129.392 97.6181C129.346 97.7955 129.322 97.8981 129.322 97.9261C129.304 97.9728 129.28 98.0428 129.252 98.1361C129.234 98.2201 129.21 98.3275 129.182 98.4581C129.154 98.5888 129.126 98.7288 129.098 98.8781C129.07 99.0275 129.033 99.1908 128.986 99.3681C128.94 99.5361 128.898 99.7135 128.86 99.9001C128.832 100.077 128.795 100.264 128.748 100.46C128.711 100.656 128.678 100.847 128.65 101.034C128.622 101.211 128.59 101.389 128.552 101.566C128.496 101.995 128.45 102.369 128.412 102.686C128.375 103.003 128.347 103.269 128.328 103.484C128.3 103.904 128.324 104.179 128.398 104.31C128.473 104.394 128.571 104.436 128.692 104.436C128.832 104.436 128.968 104.408 129.098 104.352C129.229 104.296 129.355 104.226 129.476 104.142C129.607 104.049 129.724 103.951 129.826 103.848C129.929 103.736 130.022 103.633 130.106 103.54C130.218 103.428 130.335 103.302 130.456 103.162C130.578 103.013 130.676 102.863 130.75 102.714C130.946 102.406 131.119 102.089 131.268 101.762C131.427 101.435 131.581 101.104 131.73 100.768C132.057 100.021 132.384 99.6481 132.71 99.6481C132.85 99.6481 132.981 99.7041 133.102 99.8161C133.364 100.021 133.494 100.367 133.494 100.852C133.494 101.141 133.443 101.468 133.34 101.832C133.238 102.187 133.093 102.555 132.906 102.938C132.729 103.321 132.519 103.703 132.276 104.086C132.043 104.469 131.791 104.828 131.52 105.164C131.25 105.5 130.97 105.803 130.68 106.074C130.391 106.335 130.111 106.541 129.84 106.69C129 107.138 128.184 107.362 127.39 107.362C126.961 107.362 126.513 107.287 126.046 107.138C125.58 106.989 125.141 106.779 124.73 106.508C124.32 106.237 123.96 105.915 123.652 105.542C123.344 105.169 123.139 104.763 123.036 104.324C122.924 103.932 122.854 103.526 122.826 103.106C122.798 102.686 122.784 102.271 122.784 101.86C122.784 101.655 122.784 101.468 122.784 101.3C122.794 101.132 122.798 100.983 122.798 100.852C122.808 100.6 122.836 100.367 122.882 100.152C122.901 100.04 122.915 99.9608 122.924 99.9141C122.934 99.8675 122.938 99.7975 122.938 99.7041C122.994 99.1535 123.078 98.5841 123.19 97.9961C123.302 97.4081 123.428 96.8201 123.568 96.2321C123.708 95.6441 123.858 95.0655 124.016 94.4961C124.184 93.9175 124.348 93.3575 124.506 92.8161C124.749 92.0415 124.959 91.4255 125.136 90.9681C125.304 90.6041 125.482 90.2401 125.668 89.8761C125.855 89.5121 126.065 89.1621 126.298 88.8261C126.345 88.7515 126.41 88.6535 126.494 88.5321C126.578 88.4108 126.672 88.2895 126.774 88.1681C126.877 88.0375 126.975 87.9208 127.068 87.8181C127.171 87.7061 127.26 87.6361 127.334 87.6081ZM127.362 88.7421C127.157 89.1435 126.961 89.5541 126.774 89.9741C126.588 90.3941 126.438 90.8281 126.326 91.2761C126.289 91.3788 126.284 91.4861 126.312 91.5981C126.34 91.6821 126.387 91.7055 126.452 91.6681C126.49 91.6308 126.508 91.5888 126.508 91.5421C126.508 91.5048 126.55 91.3975 126.634 91.2201L126.928 90.6321C127.04 90.4081 127.152 90.1935 127.264 89.9881C127.386 89.7735 127.512 89.5588 127.642 89.3441C127.932 88.9148 128.095 88.6255 128.132 88.4761C128.17 88.3268 128.086 88.2521 127.88 88.2521C127.796 88.2521 127.722 88.2755 127.656 88.3221C127.6 88.3781 127.502 88.5181 127.362 88.7421ZM134.901 95.7001C134.966 95.6908 135.036 95.6861 135.111 95.6861C135.185 95.6768 135.26 95.6721 135.335 95.6721C135.727 95.6721 136.142 95.7328 136.581 95.8541C137.019 95.9661 137.407 96.1061 137.743 96.2741V96.2461C138.125 96.4328 138.317 96.7875 138.317 97.3101C138.317 97.5808 138.265 97.9448 138.163 98.4021C138.116 98.6168 138.055 98.8548 137.981 99.1161C137.915 99.3681 137.845 99.6435 137.771 99.9421L137.589 100.642C137.57 100.726 137.547 100.81 137.519 100.894C137.5 100.969 137.481 101.048 137.463 101.132C137.425 101.281 137.383 101.426 137.337 101.566C137.327 101.79 137.299 102 137.253 102.196C137.234 102.299 137.211 102.406 137.183 102.518C137.164 102.621 137.145 102.728 137.127 102.84C137.08 103.111 137.043 103.344 137.015 103.54C136.987 103.736 136.977 103.89 136.987 104.002C137.005 104.235 137.085 104.399 137.225 104.492C137.29 104.557 137.43 104.506 137.645 104.338L137.869 104.114C137.915 104.067 137.957 104.025 137.995 103.988C138.032 103.941 138.069 103.895 138.107 103.848C138.34 103.512 138.541 103.148 138.709 102.756C138.877 102.355 139.035 101.963 139.185 101.58C139.511 100.777 139.801 99.9748 140.053 99.1721V99.2141C140.071 99.1488 140.09 99.0881 140.109 99.0321C140.137 98.9668 140.16 98.8968 140.179 98.8221L140.305 98.4441C140.323 98.3508 140.342 98.2621 140.361 98.1781C140.389 98.0848 140.421 97.9868 140.459 97.8841C140.561 97.5201 140.673 97.1608 140.795 96.8061C140.925 96.4421 141.098 96.1015 141.313 95.7841C141.518 95.5321 141.728 95.3735 141.943 95.3081C142.167 95.2241 142.526 95.1821 143.021 95.1821C143.17 95.1821 143.352 95.1915 143.567 95.2101C143.781 95.2195 143.996 95.2475 144.211 95.2941C144.435 95.3315 144.64 95.3921 144.827 95.4761C145.023 95.5601 145.167 95.6768 145.261 95.8261C145.354 95.9288 145.401 96.1015 145.401 96.3441C145.401 96.4188 145.396 96.4981 145.387 96.5821C145.377 96.6661 145.363 96.7548 145.345 96.8481C145.326 96.9321 145.298 97.0301 145.261 97.1421C145.233 97.2541 145.195 97.3755 145.149 97.5061C144.281 100.399 143.907 102.471 144.029 103.722C144.075 104.021 144.122 104.226 144.169 104.338C144.206 104.459 144.299 104.571 144.449 104.674C144.589 104.805 144.747 104.87 144.925 104.87C145.643 104.87 146.563 103.736 147.683 101.468C147.757 101.337 147.827 101.211 147.893 101.09C147.967 100.959 148.042 100.838 148.117 100.726C148.247 100.502 148.359 100.343 148.453 100.25C148.555 100.25 148.649 100.25 148.733 100.25C148.817 100.25 148.905 100.259 148.999 100.278C149.157 100.315 149.195 100.469 149.111 100.74C149.008 101.011 148.952 101.286 148.943 101.566C148.943 101.622 148.873 101.818 148.733 102.154C148.658 102.322 148.579 102.499 148.495 102.686C148.42 102.863 148.345 103.055 148.271 103.26C148.187 103.456 148.103 103.647 148.019 103.834C147.935 104.021 147.851 104.203 147.767 104.38C147.589 104.735 147.473 104.954 147.417 105.038C147.239 105.253 147.095 105.453 146.983 105.64C146.936 105.724 146.889 105.794 146.843 105.85C146.805 105.906 146.773 105.953 146.745 105.99C146.577 106.139 146.39 106.293 146.185 106.452C145.979 106.601 145.76 106.741 145.527 106.872C145.293 107.003 145.06 107.119 144.827 107.222C144.593 107.325 144.365 107.399 144.141 107.446C144.001 107.465 143.865 107.479 143.735 107.488C143.604 107.497 143.473 107.502 143.343 107.502C143.063 107.483 142.792 107.455 142.531 107.418C142.269 107.371 142.008 107.297 141.747 107.194C141.541 107.091 141.303 106.965 141.033 106.816C140.79 106.629 140.589 106.452 140.431 106.284C140.272 106.107 140.141 105.92 140.039 105.724C139.945 105.528 139.875 105.318 139.829 105.094C139.791 104.861 139.768 104.599 139.759 104.31L139.689 104.184L139.535 104.464C139.395 104.735 139.25 105.001 139.101 105.262C138.951 105.514 138.788 105.752 138.611 105.976C138.443 106.2 138.251 106.415 138.037 106.62C137.822 106.816 137.579 106.993 137.309 107.152C136.917 107.348 136.529 107.446 136.147 107.446C135.988 107.446 135.829 107.432 135.671 107.404C135.596 107.385 135.517 107.367 135.433 107.348C135.358 107.329 135.269 107.311 135.167 107.292C134.345 107.012 133.711 106.601 133.263 106.06C132.815 105.509 132.497 104.814 132.311 103.974C132.236 103.722 132.194 103.489 132.185 103.274C132.166 103.162 132.157 103.041 132.157 102.91C132.157 102.779 132.157 102.644 132.157 102.504V101.93C132.157 101.818 132.161 101.706 132.171 101.594C132.18 101.482 132.194 101.37 132.213 101.258C132.259 100.735 132.339 100.245 132.451 99.7881C132.572 99.3215 132.726 98.8455 132.913 98.3601C132.987 98.1735 133.09 97.9401 133.221 97.6601C133.361 97.3801 133.515 97.1048 133.683 96.8341C133.86 96.5635 134.051 96.3208 134.257 96.1061C134.462 95.8915 134.677 95.7561 134.901 95.7001ZM141.369 98.1641C141.266 98.4441 141.215 98.6401 141.215 98.7521C141.215 98.8361 141.229 98.8781 141.257 98.8781C141.341 98.8781 141.499 98.5608 141.733 97.9261L142.251 96.6801C142.437 96.2695 142.419 96.0641 142.195 96.0641C142.092 96.0641 142.003 96.1388 141.929 96.2881C141.863 96.4375 141.779 96.7175 141.677 97.1281C141.63 97.3055 141.583 97.4828 141.537 97.6601C141.49 97.8281 141.434 97.9961 141.369 98.1641ZM134.957 96.5541C134.835 96.5168 134.672 96.6755 134.467 97.0301C134.271 97.3848 134.079 97.8655 133.893 98.4721C133.846 98.6775 133.804 98.8548 133.767 99.0041C133.739 99.1441 133.715 99.2515 133.697 99.3261C133.669 99.4941 133.673 99.5968 133.711 99.6341C133.729 99.6528 133.748 99.6621 133.767 99.6621C133.841 99.6621 133.902 99.5128 133.949 99.2141C134.051 98.8875 134.173 98.5701 134.313 98.2621C134.453 97.9448 134.616 97.6415 134.803 97.3521C135.092 96.8761 135.143 96.6101 134.957 96.5541ZM152.548 102.994V103.092C152.548 103.148 152.558 103.232 152.576 103.344C152.595 103.447 152.618 103.554 152.646 103.666C152.674 103.778 152.707 103.885 152.744 103.988C152.782 104.081 152.819 104.147 152.856 104.184C152.912 104.221 153.024 104.221 153.192 104.184C153.948 104.081 154.616 103.853 155.194 103.498C155.782 103.143 156.324 102.681 156.818 102.112C156.949 101.953 157.066 101.809 157.168 101.678C157.271 101.547 157.369 101.431 157.462 101.328C157.556 101.225 157.64 101.123 157.714 101.02C157.789 100.917 157.864 100.819 157.938 100.726C158.004 100.623 158.064 100.525 158.12 100.432C158.186 100.329 158.251 100.227 158.316 100.124C158.382 100.021 158.447 99.9095 158.512 99.7881C158.587 99.6668 158.666 99.5361 158.75 99.3961C158.797 99.3215 158.853 99.2375 158.918 99.1441C158.984 99.0415 159.054 98.9481 159.128 98.8641C159.203 98.7708 159.287 98.6961 159.38 98.6401C159.474 98.5748 159.567 98.5421 159.66 98.5421C159.847 98.5421 160.024 98.6215 160.192 98.7801C160.36 98.9295 160.454 99.0975 160.472 99.2841C160.482 99.4895 160.374 99.8628 160.15 100.404C160.029 100.731 159.889 101.053 159.73 101.37C159.581 101.687 159.427 102 159.268 102.308C159.175 102.485 159.082 102.658 158.988 102.826C158.904 102.994 158.825 103.157 158.75 103.316C158.629 103.54 158.512 103.741 158.4 103.918C158.298 104.086 158.181 104.249 158.05 104.408C157.929 104.567 157.789 104.725 157.63 104.884C157.481 105.033 157.308 105.192 157.112 105.36C156.487 105.901 155.81 106.293 155.082 106.536C154.354 106.769 153.58 106.886 152.758 106.886C152.366 106.886 151.951 106.825 151.512 106.704C151.074 106.573 150.677 106.419 150.322 106.242C150.154 106.177 149.977 106.088 149.79 105.976C149.604 105.855 149.417 105.724 149.23 105.584C149.053 105.444 148.88 105.299 148.712 105.15C148.554 104.991 148.409 104.842 148.278 104.702C147.952 104.375 147.672 104.016 147.438 103.624C147.205 103.223 147.018 102.807 146.878 102.378C146.822 102.257 146.78 102.145 146.752 102.042C146.724 101.939 146.701 101.841 146.682 101.748C146.673 101.655 146.664 101.543 146.654 101.412C146.654 101.281 146.654 101.127 146.654 100.95C146.654 100.511 146.696 100.077 146.78 99.6481C146.874 99.2095 147.004 98.7848 147.172 98.3741C147.34 97.9541 147.546 97.5621 147.788 97.1981C148.04 96.8248 148.325 96.4888 148.642 96.1901C149.174 95.6955 149.725 95.3315 150.294 95.0981C150.873 94.8648 151.531 94.7481 152.268 94.7481C153.239 94.7481 154.247 94.9721 155.292 95.4201C155.451 95.5041 155.619 95.6161 155.796 95.7561C155.974 95.8868 156.142 96.0315 156.3 96.1901C156.459 96.3488 156.604 96.5168 156.734 96.6941C156.874 96.8621 156.986 97.0301 157.07 97.1981C157.248 97.5528 157.336 97.9401 157.336 98.3601C157.336 98.7148 157.285 99.0648 157.182 99.4101C157.08 99.7555 156.94 100.087 156.762 100.404C156.594 100.721 156.389 101.02 156.146 101.3C155.904 101.571 155.642 101.809 155.362 102.014C154.84 102.369 154.429 102.607 154.13 102.728C153.86 102.859 153.454 102.938 152.912 102.966L152.548 102.994ZM152.828 100.404C152.828 100.544 152.875 100.614 152.968 100.614C153.034 100.614 153.118 100.581 153.22 100.516V100.488C153.463 100.357 153.692 100.194 153.906 99.9981C154.13 99.7928 154.326 99.5688 154.494 99.3261C154.672 99.0741 154.821 98.8128 154.942 98.5421C155.064 98.2621 155.143 97.9868 155.18 97.7161C155.18 97.6695 155.176 97.6228 155.166 97.5761C155.166 97.5295 155.162 97.4781 155.152 97.4221C155.152 97.3195 155.129 97.2121 155.082 97.1001C155.092 97.1655 155.031 97.1981 154.9 97.1981C154.816 97.1981 154.728 97.2215 154.634 97.2681C154.55 97.3335 154.396 97.4921 154.172 97.7441C154.004 97.9121 153.841 98.0988 153.682 98.3041C153.524 98.5095 153.379 98.7288 153.248 98.9621C153.127 99.1861 153.024 99.4241 152.94 99.6761C152.866 99.9188 152.828 100.161 152.828 100.404ZM151.064 96.3301C151.12 96.2741 151.139 96.2041 151.12 96.1201C151.102 95.9615 151.018 95.8821 150.868 95.8821C150.7 95.8821 150.523 95.9428 150.336 96.0641C150.15 96.1761 149.968 96.3208 149.79 96.4981C149.622 96.6755 149.468 96.8621 149.328 97.0581C149.188 97.2541 149.081 97.4315 149.006 97.5901C148.932 97.7488 148.871 97.9168 148.824 98.0941C148.787 98.2435 148.787 98.3601 148.824 98.4441C148.871 98.5281 148.908 98.5468 148.936 98.5001C148.964 98.4721 148.978 98.4021 148.978 98.2901C148.978 98.1315 149.044 97.9681 149.174 97.8001C149.314 97.6228 149.473 97.4595 149.65 97.3101C149.837 97.1515 150.024 97.0068 150.21 96.8761C150.406 96.7455 150.565 96.6475 150.686 96.5821C150.901 96.4515 151.027 96.3675 151.064 96.3301Z" fill="white"/>
<defs>
<filter id="filter0_d_30_664" x="0.582031" y="0.554443" width="238.589" height="213.074" filterUnits="userSpaceOnUse" color-interpolation-filters="sRGB">
<feFlood flood-opacity="0" result="BackgroundImageFix"/>
<feColorMatrix in="SourceAlpha" type="matrix" values="0 0 0 0 0 0 0 0 0 0 0 0 0 0 0 0 0 0 127 0" result="hardAlpha"/>
<feOffset dy="4"/>
<feGaussianBlur stdDeviation="8"/>
<feComposite in2="hardAlpha" operator="out"/>
<feColorMatrix type="matrix" values="0 0 0 0 0.341176 0 0 0 0 0.368627 0 0 0 0 1 0 0 0 1 0"/>
<feBlend mode="normal" in2="BackgroundImageFix" result="effect1_dropShadow_30_664"/>
<feBlend mode="normal" in="SourceGraphic" in2="effect1_dropShadow_30_664" result="shape"/>
</filter>
</defs>
</svg>
