<svg width="239" height="214" viewBox="0 0 239 214" fill="none" xmlns="http://www.w3.org/2000/svg">
<g filter="url(#filter0_d_30_659)">
<path d="M191.143 123.685C186.903 125.683 183.457 130.121 184.877 134.757C185.406 136.181 186.022 137.561 186.749 138.919C188.159 141.877 190.218 144.427 192.641 146.591C193.445 147.309 194.292 147.993 195.162 148.622C203.069 154.373 210.073 163.381 210.139 173.603C210.205 184.278 199.842 193.639 189.029 193.087C187.707 193.054 186.375 192.888 185.053 192.601C183.897 192.347 182.741 192.016 181.585 191.597C168.767 186.872 171.674 170.369 167.434 159.484C166.498 157.398 165.551 154.616 162.997 153.943C161.719 153.678 160.574 153.711 159.506 153.943C158.449 154.186 157.469 154.638 156.544 155.245C150.531 160.29 147.58 169.828 138.55 170.347C132.064 170.855 127.406 166.472 121.151 165.346C116.747 164.441 113.52 167.719 111.45 170.899C110.459 172.29 109.534 173.725 108.653 175.149C107.772 176.584 106.957 177.997 106.175 179.365C105.261 180.767 104.105 181.706 103.059 182.898C101.958 183.991 100.801 185.062 99.623 186.077C91.32 193.197 81.2331 197.789 72.4236 187.932C62.623 177.08 75.54 167.477 82.4334 159.54C83.6998 157.906 84.6138 155.875 84.834 153.81C84.9441 152.784 84.8781 151.746 84.5697 150.753C83.5346 148.622 81.6736 147.242 79.5814 146.79C72.0933 144.571 62.4248 146.425 55.8727 142.595C54.7825 141.955 53.7805 141.16 52.8885 140.166C50.8072 137.914 50.3227 134.669 51.468 131.876C51.9194 130.827 52.47 129.812 53.0537 128.818C56.5114 123.023 60.4206 118.122 64.7813 112.525C69.3733 106.233 70.012 97.1698 63.9555 92.1029C62.6781 91.0321 61.3346 90.2263 59.9581 89.6412C58.5816 89.0451 57.1611 88.6588 55.7075 88.4049C47.9441 87.1023 39.8504 88.7802 32.4174 85.8107C23.3656 82.3887 12.1775 72.0121 18.3662 61.5251C18.9498 60.5427 19.5885 59.6816 20.2822 58.931C22.3635 56.6791 24.8962 55.3985 27.6932 54.8466C28.9376 54.6037 30.237 54.5044 31.5915 54.5485C42.4052 56.4914 49.64 65.2673 59.6278 69.6167C62.8763 70.9855 66.5873 71.1952 69.5826 68.6231C72.1153 66.5147 73.4808 63.2582 73.0072 60.0128C72.2694 52.8154 68.7567 46.3466 69.1751 39.0941C69.3183 37.5597 69.6266 36.1356 70.1331 34.8662C71.6528 31.0467 74.8903 28.4857 81.1451 28.6181C82.5766 28.6513 83.9861 28.7948 85.4287 29.0707C87.1686 29.2694 89.0296 29.9649 90.6594 30.8811C97.3987 34.7889 101.154 42.4278 108.807 43.5317C114.214 44.4259 117.121 40.3856 119.753 36.0694C120.414 34.9876 121.052 33.8947 121.713 32.8571C127.219 25.3065 130.137 11.3643 141.733 12.678C142.944 12.8104 144.144 13.0312 145.333 13.3072C146.523 13.5831 147.69 13.9143 148.857 14.3117C150.047 14.7422 151.17 15.25 152.194 15.9013C153.218 16.5526 154.154 17.3695 154.969 18.4292C160.805 25.5604 161.829 40.1759 172.94 39.646C181.276 39.1272 184.69 29.5896 191.143 24.4344C192.299 23.7279 193.213 22.8006 194.458 22.2156C195.526 21.5422 196.627 20.9903 197.761 20.5487C203.432 18.352 209.863 18.6279 215.678 21.498C218.772 23.0987 220.776 25.461 221.789 28.1324C222.296 29.4681 222.56 30.8701 222.582 32.3051C221.844 43.7525 209.114 45.6953 200.811 51.3141C193.896 55.6966 195.933 60.7303 199.578 65.455C200.492 66.6361 201.505 67.7952 202.507 68.9212C206.505 73.414 210.59 77.7854 214.708 82.19C219.829 87.6653 222.648 93.5269 221.734 101.1C221.007 107.083 218.232 113.894 212.473 116.609C210.579 117.503 208.597 118.177 206.571 118.773C205.558 119.071 204.533 119.347 203.498 119.623C200.316 120.495 197.078 121.213 193.786 122.195L191.154 123.685H191.143Z" fill="#E80D15"/>
</g>
<path d="M127.518 94.56C127.527 94.616 127.532 94.6767 127.532 94.742C127.541 94.798 127.551 94.8587 127.56 94.924C127.56 94.9893 127.56 95.0593 127.56 95.134C127.569 95.1993 127.574 95.274 127.574 95.358C127.574 95.6007 127.565 95.848 127.546 96.1C127.527 96.352 127.504 96.5993 127.476 96.842C127.457 97.178 127.397 97.5 127.294 97.808C127.191 98.116 127.061 98.4147 126.902 98.704C126.053 100.347 124.727 101.569 122.926 102.372C122.693 102.484 122.45 102.563 122.198 102.61C122.049 102.657 121.983 102.694 122.002 102.722C122.021 102.759 122.105 102.797 122.254 102.834C122.291 102.843 122.333 102.857 122.38 102.876C122.427 102.895 122.487 102.913 122.562 102.932C122.637 102.96 122.707 102.988 122.772 103.016C122.847 103.044 122.921 103.072 122.996 103.1C123.043 103.137 123.089 103.17 123.136 103.198C123.192 103.226 123.243 103.254 123.29 103.282C123.337 103.319 123.383 103.361 123.43 103.408C123.486 103.445 123.542 103.492 123.598 103.548C123.663 103.604 123.733 103.669 123.808 103.744C123.883 103.819 123.967 103.903 124.06 103.996C124.153 104.099 124.256 104.211 124.368 104.332C124.489 104.453 124.62 104.593 124.76 104.752C124.947 104.948 125.11 105.121 125.25 105.27C125.39 105.419 125.511 105.545 125.614 105.648C125.717 105.751 125.805 105.839 125.88 105.914C125.964 105.989 126.039 106.045 126.104 106.082C126.225 106.147 126.333 106.166 126.426 106.138C126.519 106.11 126.636 106.054 126.776 105.97C126.972 105.849 127.126 105.788 127.238 105.788C127.322 105.788 127.392 105.821 127.448 105.886C127.532 105.998 127.546 106.147 127.49 106.334C127.453 106.521 127.364 106.707 127.224 106.894C127.093 107.081 126.939 107.258 126.762 107.426C126.594 107.594 126.417 107.753 126.23 107.902C126.043 108.042 125.871 108.163 125.712 108.266C125.591 108.341 125.451 108.411 125.292 108.476C125.143 108.551 124.984 108.616 124.816 108.672C124.657 108.728 124.494 108.775 124.326 108.812C124.167 108.849 124.018 108.868 123.878 108.868C123.663 108.868 123.397 108.831 123.08 108.756C122.94 108.709 122.805 108.663 122.674 108.616C122.553 108.569 122.436 108.523 122.324 108.476C122.203 108.401 122.067 108.299 121.918 108.168C121.778 108.037 121.638 107.897 121.498 107.748C121.358 107.589 121.227 107.431 121.106 107.272C120.994 107.113 120.901 106.973 120.826 106.852C120.639 106.563 120.546 106.399 120.546 106.362L120.518 106.334C120.471 106.287 120.443 106.236 120.434 106.18L120.098 105.48C120.033 105.349 119.939 105.191 119.818 105.004C119.706 104.808 119.58 104.612 119.44 104.416C119.3 104.22 119.151 104.043 118.992 103.884C118.843 103.716 118.703 103.599 118.572 103.534C118.413 103.431 118.18 103.357 117.872 103.31L117.466 103.282L117.256 104.78L117.228 105.424L117.102 106.026L117.158 106.558C117.158 106.633 117.158 106.717 117.158 106.81C117.167 106.894 117.172 106.997 117.172 107.118C117.181 107.239 117.186 107.351 117.186 107.454C117.195 107.547 117.209 107.631 117.228 107.706C117.284 108.117 117.284 108.392 117.228 108.532C117.153 108.681 116.957 108.835 116.64 108.994C116.593 109.022 116.551 109.045 116.514 109.064C116.477 109.092 116.449 109.115 116.43 109.134C116.393 109.153 116.346 109.171 116.29 109.19C116.234 109.209 116.164 109.218 116.08 109.218C116.033 109.227 115.973 109.232 115.898 109.232C115.823 109.232 115.735 109.232 115.632 109.232H114.96C114.727 109.232 114.587 109.213 114.54 109.176C114.493 109.167 114.447 109.157 114.4 109.148C114.353 109.139 114.302 109.129 114.246 109.12C114.19 109.101 114.134 109.092 114.078 109.092C114.031 109.092 113.98 109.092 113.924 109.092C113.877 109.073 113.831 109.059 113.784 109.05C113.737 109.05 113.695 109.041 113.658 109.022C113.565 109.003 113.504 108.975 113.476 108.938C113.457 108.901 113.411 108.854 113.336 108.798C113.261 108.742 113.163 108.663 113.042 108.56C112.865 108.42 112.711 108.28 112.58 108.14C112.421 107.953 112.314 107.739 112.258 107.496C112.202 107.253 112.16 107.015 112.132 106.782C112.113 106.614 112.09 106.418 112.062 106.194C112.034 105.97 112.006 105.723 111.978 105.452C111.95 105.144 111.95 104.724 111.978 104.192C111.997 103.548 112.034 102.913 112.09 102.288C112.155 101.653 112.235 101.019 112.328 100.384C112.375 100.039 112.421 99.7027 112.468 99.376C112.524 99.0493 112.585 98.7367 112.65 98.438C112.706 98.0553 112.734 97.7893 112.734 97.64C112.771 97.556 112.795 97.4813 112.804 97.416C112.823 97.3413 112.841 97.2713 112.86 97.206C112.869 97.15 112.874 97.1033 112.874 97.066C112.883 97.0193 112.888 96.9867 112.888 96.968C112.907 96.94 112.939 96.8187 112.986 96.604C113.033 96.3613 113.084 96.1233 113.14 95.89C113.196 95.6473 113.261 95.4047 113.336 95.162C113.373 94.9847 113.387 94.896 113.378 94.896C113.341 94.896 113.21 94.9613 112.986 95.092C112.771 95.2133 112.533 95.358 112.272 95.526C112.02 95.694 111.777 95.862 111.544 96.03C111.32 96.1887 111.171 96.31 111.096 96.394C111.077 96.4127 111.054 96.436 111.026 96.464C110.998 96.4827 110.975 96.5013 110.956 96.52C110.928 96.548 110.895 96.5853 110.858 96.632C110.821 96.6787 110.774 96.7393 110.718 96.814L110.536 97.052C110.452 97.248 110.359 97.346 110.256 97.346C110.209 97.346 110.158 97.3273 110.102 97.29C110.046 97.2433 109.99 97.192 109.934 97.136C109.878 97.08 109.827 97.024 109.78 96.968C109.743 96.912 109.71 96.87 109.682 96.842C109.029 95.9833 108.669 95.148 108.604 94.336C108.539 93.524 108.749 92.7633 109.234 92.054C109.467 91.718 109.771 91.4007 110.144 91.102C110.517 90.8033 110.919 90.528 111.348 90.276C111.777 90.024 112.216 89.7953 112.664 89.59C113.112 89.3847 113.527 89.212 113.91 89.072C114.601 88.8293 115.319 88.6147 116.066 88.428C116.813 88.232 117.55 88.1107 118.278 88.064H119.972C120.084 88.0733 120.191 88.0827 120.294 88.092C120.406 88.092 120.513 88.1013 120.616 88.12C121.652 88.1947 122.618 88.4467 123.514 88.876C124.41 89.3053 125.185 89.926 125.838 90.738C126.277 91.2513 126.617 91.7833 126.86 92.334C127.112 92.8753 127.308 93.4727 127.448 94.126C127.467 94.21 127.476 94.2893 127.476 94.364C127.485 94.4293 127.499 94.4947 127.518 94.56ZM114.414 90.22C114.675 90.1267 114.806 90.0473 114.806 89.982C114.815 89.9353 114.783 89.912 114.708 89.912C114.577 89.912 114.391 89.9587 114.148 90.052C113.905 90.136 113.653 90.2387 113.392 90.36C113.131 90.4813 112.874 90.6073 112.622 90.738C112.379 90.8687 112.188 90.976 112.048 91.06C111.983 91.1067 111.847 91.1953 111.642 91.326C111.446 91.4567 111.241 91.6013 111.026 91.76C110.821 91.9093 110.634 92.0587 110.466 92.208C110.307 92.348 110.228 92.46 110.228 92.544C110.228 92.74 110.293 92.838 110.424 92.838C110.555 92.838 110.755 92.7307 111.026 92.516C111.558 92.0773 112.099 91.6573 112.65 91.256C113.201 90.8547 113.789 90.5093 114.414 90.22ZM123.696 96.94C123.705 96.828 123.705 96.7207 123.696 96.618C123.687 96.5153 123.654 96.394 123.598 96.254C123.551 96.1047 123.491 95.96 123.416 95.82C123.351 95.6707 123.271 95.5307 123.178 95.4C123.094 95.2693 123.01 95.1713 122.926 95.106C122.795 94.9193 122.595 94.742 122.324 94.574C122.053 94.406 121.811 94.2707 121.596 94.168C121.493 94.1213 121.395 94.0793 121.302 94.042C121.209 94.0047 121.12 93.972 121.036 93.944C120.943 93.8973 120.761 93.8693 120.49 93.86C120.359 93.8413 120.229 93.832 120.098 93.832C119.977 93.8227 119.855 93.8087 119.734 93.79L118.782 93.762L119.118 94.098C119.398 94.378 119.552 94.658 119.58 94.938C119.599 95.2273 119.496 95.68 119.272 96.296C119.207 96.464 119.137 96.674 119.062 96.926C119.015 97.0567 118.973 97.1873 118.936 97.318C118.899 97.4393 118.857 97.5653 118.81 97.696C118.735 97.948 118.665 98.1953 118.6 98.438C118.563 98.55 118.535 98.648 118.516 98.732C118.507 98.8067 118.493 98.8673 118.474 98.914L118.39 99.222C118.353 99.334 118.325 99.446 118.306 99.558C118.297 99.6793 118.283 99.7913 118.264 99.894V100.23L118.81 100.202C118.894 100.193 118.978 100.183 119.062 100.174C119.146 100.165 119.239 100.151 119.342 100.132C119.445 100.113 119.538 100.095 119.622 100.076C119.715 100.057 119.799 100.039 119.874 100.02C120.294 99.936 120.709 99.8147 121.12 99.656C121.531 99.488 121.909 99.278 122.254 99.026C122.609 98.774 122.912 98.4753 123.164 98.13C123.416 97.7847 123.593 97.388 123.696 96.94ZM133.74 103.198V103.296C133.74 103.352 133.75 103.436 133.768 103.548C133.787 103.651 133.81 103.758 133.838 103.87C133.866 103.982 133.899 104.089 133.936 104.192C133.974 104.285 134.011 104.351 134.048 104.388C134.104 104.425 134.216 104.425 134.384 104.388C135.14 104.285 135.808 104.057 136.386 103.702C136.974 103.347 137.516 102.885 138.01 102.316C138.141 102.157 138.258 102.013 138.36 101.882C138.463 101.751 138.561 101.635 138.654 101.532C138.748 101.429 138.832 101.327 138.906 101.224C138.981 101.121 139.056 101.023 139.13 100.93C139.196 100.827 139.256 100.729 139.312 100.636C139.378 100.533 139.443 100.431 139.508 100.328C139.574 100.225 139.639 100.113 139.704 99.992C139.779 99.8707 139.858 99.74 139.942 99.6C139.989 99.5253 140.045 99.4413 140.11 99.348C140.176 99.2453 140.246 99.152 140.32 99.068C140.395 98.9747 140.479 98.9 140.572 98.844C140.666 98.7787 140.759 98.746 140.852 98.746C141.039 98.746 141.216 98.8253 141.384 98.984C141.552 99.1333 141.646 99.3013 141.664 99.488C141.674 99.6933 141.566 100.067 141.342 100.608C141.221 100.935 141.081 101.257 140.922 101.574C140.773 101.891 140.619 102.204 140.46 102.512C140.367 102.689 140.274 102.862 140.18 103.03C140.096 103.198 140.017 103.361 139.942 103.52C139.821 103.744 139.704 103.945 139.592 104.122C139.49 104.29 139.373 104.453 139.242 104.612C139.121 104.771 138.981 104.929 138.822 105.088C138.673 105.237 138.5 105.396 138.304 105.564C137.679 106.105 137.002 106.497 136.274 106.74C135.546 106.973 134.772 107.09 133.95 107.09C133.558 107.09 133.143 107.029 132.704 106.908C132.266 106.777 131.869 106.623 131.514 106.446C131.346 106.381 131.169 106.292 130.982 106.18C130.796 106.059 130.609 105.928 130.422 105.788C130.245 105.648 130.072 105.503 129.904 105.354C129.746 105.195 129.601 105.046 129.47 104.906C129.144 104.579 128.864 104.22 128.63 103.828C128.397 103.427 128.21 103.011 128.07 102.582C128.014 102.461 127.972 102.349 127.944 102.246C127.916 102.143 127.893 102.045 127.874 101.952C127.865 101.859 127.856 101.747 127.846 101.616C127.846 101.485 127.846 101.331 127.846 101.154C127.846 100.715 127.888 100.281 127.972 99.852C128.066 99.4133 128.196 98.9887 128.364 98.578C128.532 98.158 128.738 97.766 128.98 97.402C129.232 97.0287 129.517 96.6927 129.834 96.394C130.366 95.8993 130.917 95.5353 131.486 95.302C132.065 95.0687 132.723 94.952 133.46 94.952C134.431 94.952 135.439 95.176 136.484 95.624C136.643 95.708 136.811 95.82 136.988 95.96C137.166 96.0907 137.334 96.2353 137.492 96.394C137.651 96.5527 137.796 96.7207 137.926 96.898C138.066 97.066 138.178 97.234 138.262 97.402C138.44 97.7567 138.528 98.144 138.528 98.564C138.528 98.9187 138.477 99.2687 138.374 99.614C138.272 99.9593 138.132 100.291 137.954 100.608C137.786 100.925 137.581 101.224 137.338 101.504C137.096 101.775 136.834 102.013 136.554 102.218C136.032 102.573 135.621 102.811 135.322 102.932C135.052 103.063 134.646 103.142 134.104 103.17L133.74 103.198ZM134.02 100.608C134.02 100.748 134.067 100.818 134.16 100.818C134.226 100.818 134.31 100.785 134.412 100.72V100.692C134.655 100.561 134.884 100.398 135.098 100.202C135.322 99.9967 135.518 99.7727 135.686 99.53C135.864 99.278 136.013 99.0167 136.134 98.746C136.256 98.466 136.335 98.1907 136.372 97.92C136.372 97.8733 136.368 97.8267 136.358 97.78C136.358 97.7333 136.354 97.682 136.344 97.626C136.344 97.5233 136.321 97.416 136.274 97.304C136.284 97.3693 136.223 97.402 136.092 97.402C136.008 97.402 135.92 97.4253 135.826 97.472C135.742 97.5373 135.588 97.696 135.364 97.948C135.196 98.116 135.033 98.3027 134.874 98.508C134.716 98.7133 134.571 98.9327 134.44 99.166C134.319 99.39 134.216 99.628 134.132 99.88C134.058 100.123 134.02 100.365 134.02 100.608ZM132.256 96.534C132.312 96.478 132.331 96.408 132.312 96.324C132.294 96.1653 132.21 96.086 132.06 96.086C131.892 96.086 131.715 96.1467 131.528 96.268C131.342 96.38 131.16 96.5247 130.982 96.702C130.814 96.8793 130.66 97.066 130.52 97.262C130.38 97.458 130.273 97.6353 130.198 97.794C130.124 97.9527 130.063 98.1207 130.016 98.298C129.979 98.4473 129.979 98.564 130.016 98.648C130.063 98.732 130.1 98.7507 130.128 98.704C130.156 98.676 130.17 98.606 130.17 98.494C130.17 98.3353 130.236 98.172 130.366 98.004C130.506 97.8267 130.665 97.6633 130.842 97.514C131.029 97.3553 131.216 97.2107 131.402 97.08C131.598 96.9493 131.757 96.8513 131.878 96.786C132.093 96.6553 132.219 96.5713 132.256 96.534ZM154.856 96.576V96.548L154.394 98.074C154.347 98.2513 154.31 98.424 154.282 98.592C154.263 98.6853 154.24 98.774 154.212 98.858C154.193 98.942 154.175 99.026 154.156 99.11C153.997 99.754 153.862 100.403 153.75 101.056C153.638 101.7 153.545 102.349 153.47 103.002C153.414 103.375 153.386 103.646 153.386 103.814C153.386 104.103 153.419 104.295 153.484 104.388C153.54 104.481 153.68 104.551 153.904 104.598L154.366 104.388V104.416C154.497 104.36 154.646 104.243 154.814 104.066C154.991 103.879 155.164 103.679 155.332 103.464C155.509 103.24 155.668 103.021 155.808 102.806C155.957 102.582 156.069 102.395 156.144 102.246L156.928 100.636C157.189 100.067 157.469 99.782 157.768 99.782C157.917 99.782 158.057 99.8427 158.188 99.964C158.347 100.076 158.449 100.23 158.496 100.426C158.552 100.613 158.58 100.795 158.58 100.972C158.58 101.392 158.473 101.868 158.258 102.4C158.053 102.923 157.791 103.441 157.474 103.954C157.166 104.458 156.83 104.929 156.466 105.368C156.102 105.807 155.761 106.152 155.444 106.404C154.604 107.085 153.666 107.449 152.63 107.496C152.499 107.496 152.369 107.496 152.238 107.496C152.117 107.496 151.995 107.491 151.874 107.482C151.65 107.482 151.454 107.459 151.286 107.412C151.034 107.365 150.759 107.286 150.46 107.174C150.171 107.053 149.891 106.908 149.62 106.74C149.349 106.572 149.102 106.381 148.878 106.166C148.654 105.951 148.491 105.718 148.388 105.466C148.257 105.214 148.145 104.887 148.052 104.486L147.982 104.29C147.879 104.477 147.753 104.659 147.604 104.836C147.464 105.013 147.329 105.181 147.198 105.34C147.114 105.433 147.03 105.522 146.946 105.606C146.871 105.69 146.797 105.774 146.722 105.858C146.647 105.933 146.582 105.998 146.526 106.054C146.47 106.11 146.419 106.157 146.372 106.194C146.064 106.418 145.807 106.558 145.602 106.614C145.415 106.679 145.14 106.712 144.776 106.712C144.384 106.712 143.978 106.661 143.558 106.558C143.147 106.455 142.746 106.311 142.354 106.124C141.971 105.937 141.617 105.709 141.29 105.438C140.963 105.158 140.693 104.85 140.478 104.514C140.263 104.178 140.095 103.8 139.974 103.38C139.862 102.951 139.797 102.484 139.778 101.98C139.722 101.028 139.867 100.09 140.212 99.166C140.427 98.606 140.716 98.074 141.08 97.57C141.444 97.066 141.859 96.6273 142.326 96.254C142.802 95.8713 143.32 95.5727 143.88 95.358C144.449 95.134 145.047 95.022 145.672 95.022C146.419 95.022 147.273 95.2647 148.234 95.75L148.43 95.946C148.486 96.002 148.533 96.058 148.57 96.114C148.57 96.0767 148.579 96.0487 148.598 96.03C148.607 96.0113 148.621 95.9787 148.64 95.932C148.659 95.8853 148.682 95.82 148.71 95.736C148.729 95.652 148.766 95.5167 148.822 95.33C148.878 95.134 148.943 94.8867 149.018 94.588L149.326 93.58C149.587 92.6467 149.909 91.7367 150.292 90.85C150.675 89.9633 151.146 89.1233 151.706 88.33C151.902 88.0967 152.135 87.8913 152.406 87.714C152.686 87.5367 152.985 87.448 153.302 87.448C153.75 87.448 154.319 87.6207 155.01 87.966C156.065 88.5447 156.592 89.3473 156.592 90.374C156.592 90.5513 156.578 90.7333 156.55 90.92C156.531 91.0227 156.513 91.1207 156.494 91.214C156.475 91.3073 156.457 91.4053 156.438 91.508C156.335 91.9093 156.223 92.306 156.102 92.698C155.99 93.0807 155.869 93.468 155.738 93.86C155.729 93.916 155.701 94 155.654 94.112C155.635 94.168 155.617 94.2193 155.598 94.266C155.589 94.3127 155.575 94.3593 155.556 94.406L154.856 96.576ZM144.818 96.478C145.182 96.4127 145.387 96.3613 145.434 96.324C145.481 96.3147 145.499 96.254 145.49 96.142C145.462 96.0487 145.429 95.988 145.392 95.96C145.373 95.9507 145.336 95.9413 145.28 95.932C145.233 95.9227 145.168 95.9133 145.084 95.904C144.925 95.904 144.79 95.918 144.678 95.946C144.538 95.9833 144.375 96.0533 144.188 96.156C144.011 96.2493 143.824 96.3613 143.628 96.492C143.441 96.6133 143.264 96.7393 143.096 96.87C142.937 97.0007 142.807 97.1173 142.704 97.22C142.611 97.3133 142.55 97.4393 142.522 97.598C142.513 97.7473 142.555 97.822 142.648 97.822C142.732 97.822 142.774 97.7847 142.774 97.71C142.774 97.6633 142.802 97.6073 142.858 97.542C142.923 97.4673 142.998 97.402 143.082 97.346C143.166 97.2807 143.25 97.22 143.334 97.164C143.418 97.108 143.479 97.0707 143.516 97.052C143.703 96.9307 143.913 96.8187 144.146 96.716C144.379 96.604 144.603 96.5247 144.818 96.478ZM148.234 98.018C148.253 97.906 148.267 97.808 148.276 97.724C148.285 97.64 148.29 97.57 148.29 97.514C148.159 97.514 148.001 97.584 147.814 97.724C147.627 97.8547 147.441 98.0087 147.254 98.186C147.067 98.3633 146.895 98.5407 146.736 98.718C146.587 98.8953 146.475 99.0307 146.4 99.124C146.195 99.376 146.013 99.628 145.854 99.88C145.695 100.132 145.56 100.393 145.448 100.664V100.762C145.429 100.799 145.406 100.865 145.378 100.958C145.359 101.051 145.336 101.154 145.308 101.266C145.289 101.369 145.271 101.467 145.252 101.56C145.243 101.653 145.233 101.723 145.224 101.77C145.196 101.994 145.168 102.232 145.14 102.484C145.121 102.615 145.107 102.741 145.098 102.862C145.089 102.974 145.084 103.086 145.084 103.198C145.047 103.907 145.07 104.285 145.154 104.332C145.182 104.369 145.229 104.374 145.294 104.346C145.359 104.318 145.471 104.211 145.63 104.024C145.761 103.893 145.901 103.739 146.05 103.562C146.199 103.375 146.344 103.184 146.484 102.988C146.624 102.783 146.755 102.582 146.876 102.386C146.997 102.181 147.091 101.994 147.156 101.826C147.175 101.807 147.198 101.765 147.226 101.7C147.235 101.672 147.245 101.649 147.254 101.63C147.263 101.611 147.273 101.593 147.282 101.574C147.375 101.369 147.45 101.196 147.506 101.056C147.571 100.916 147.618 100.809 147.646 100.734C147.683 100.659 147.711 100.585 147.73 100.51C147.758 100.426 147.781 100.347 147.8 100.272C147.819 100.197 147.837 100.109 147.856 100.006C147.884 99.9033 147.912 99.782 147.94 99.642C147.968 99.502 147.991 99.362 148.01 99.222C148.038 99.082 148.066 98.942 148.094 98.802C148.122 98.662 148.145 98.5267 148.164 98.396C148.192 98.2653 148.215 98.1393 148.234 98.018ZM153.176 88.82C153.223 88.68 153.19 88.568 153.078 88.484C153.013 88.4373 152.952 88.414 152.896 88.414C152.803 88.414 152.714 88.4653 152.63 88.568C152.546 88.6613 152.467 88.7733 152.392 88.904C152.327 89.0347 152.266 89.17 152.21 89.31C152.163 89.4407 152.126 89.5433 152.098 89.618C152.051 89.7393 152.005 89.8607 151.958 89.982C151.921 90.1033 151.883 90.2247 151.846 90.346C151.809 90.4767 151.776 90.598 151.748 90.71C151.72 90.8127 151.692 90.9153 151.664 91.018C151.608 91.2233 151.594 91.3447 151.622 91.382C151.659 91.5033 151.715 91.5267 151.79 91.452C151.846 91.3773 151.963 91.1533 152.14 90.78C152.243 90.556 152.345 90.3413 152.448 90.136C152.56 89.9213 152.681 89.7067 152.812 89.492C153.017 89.1747 153.139 88.9507 153.176 88.82Z" fill="white"/>
<defs>
<filter id="filter0_d_30_659" x="0.582031" y="0.591309" width="238" height="213" filterUnits="userSpaceOnUse" color-interpolation-filters="sRGB">
<feFlood flood-opacity="0" result="BackgroundImageFix"/>
<feColorMatrix in="SourceAlpha" type="matrix" values="0 0 0 0 0 0 0 0 0 0 0 0 0 0 0 0 0 0 127 0" result="hardAlpha"/>
<feOffset dy="4"/>
<feGaussianBlur stdDeviation="8"/>
<feComposite in2="hardAlpha" operator="out"/>
<feColorMatrix type="matrix" values="0 0 0 0 0.909804 0 0 0 0 0.0509804 0 0 0 0 0.0823529 0 0 0 1 0"/>
<feBlend mode="normal" in2="BackgroundImageFix" result="effect1_dropShadow_30_659"/>
<feBlend mode="normal" in="SourceGraphic" in2="effect1_dropShadow_30_659" result="shape"/>
</filter>
</defs>
</svg>
