<svg width="205" height="86" viewBox="0 0 205 86" fill="none" xmlns="http://www.w3.org/2000/svg">
<rect x="4" y="4" width="196.436" height="78" rx="39" fill="#8335F7"/>
<rect x="4" y="4" width="196.436" height="78" rx="39" stroke="url(#paint0_linear_1434_16744)" stroke-width="8"/>
<rect x="4" y="4" width="196.436" height="78" rx="39" stroke="url(#paint1_radial_1434_16744)" stroke-width="8"/>
<g filter="url(#filter1_d_1434_16744)">
<path d="M41.7243 30.04L52.4123 38.936V30.84H58.9403V51.96H58.4283L47.8043 43.224V51H41.2763V30.04H41.7243ZM66.7253 44.888C66.9599 45.3787 67.3226 45.7733 67.8133 46.072C68.3253 46.3493 68.9333 46.488 69.6373 46.488C70.2559 46.488 70.8533 46.296 71.4293 45.912C72.0266 45.528 72.4639 45.0587 72.7413 44.504L76.4213 47.32C75.5893 48.728 74.5973 49.7413 73.4453 50.36C72.2933 50.9787 70.9066 51.288 69.2853 51.288C68.0479 51.288 66.9279 51.1067 65.9253 50.744C64.9439 50.3813 64.0799 49.8693 63.3333 49.208C62.4799 48.4613 61.8186 47.5227 61.3493 46.392C60.9013 45.2613 60.6773 43.992 60.6773 42.584C60.6773 41.3467 60.8799 40.216 61.2853 39.192C61.6906 38.168 62.2559 37.2827 62.9813 36.536C63.7919 35.6827 64.7733 35.0213 65.9253 34.552C67.0986 34.0827 68.3679 33.8587 69.7333 33.88C70.4586 33.88 71.1839 33.9653 71.9093 34.136C72.6559 34.3067 73.3386 34.5733 73.9573 34.936C74.6613 35.3627 75.2373 35.928 75.6853 36.632C76.1333 37.336 76.3679 38.168 76.3893 39.128C76.3893 40.024 76.1973 40.8133 75.8133 41.496C75.4293 42.1573 74.9279 42.712 74.3093 43.16C73.7546 43.5653 73.1253 43.896 72.4213 44.152C71.7386 44.3867 71.0453 44.5573 70.3413 44.664C69.7226 44.7707 69.1146 44.824 68.5173 44.824C67.9199 44.824 67.3226 44.8453 66.7253 44.888ZM66.2133 41.72C66.4266 41.72 66.7573 41.6987 67.2053 41.656C67.6746 41.6133 68.1439 41.528 68.6133 41.4C69.0826 41.2507 69.4986 41.0587 69.8613 40.824C70.2239 40.568 70.4266 40.2267 70.4693 39.8C70.5119 39.3733 70.3839 39.0747 70.0853 38.904C69.7866 38.7333 69.4453 38.648 69.0613 38.648C68.2719 38.6693 67.5893 38.968 67.0133 39.544C66.7573 39.8427 66.5546 40.2053 66.4053 40.632C66.2559 41.0373 66.1919 41.4 66.2133 41.72ZM89.5373 51.736C89.5373 51.7147 89.4306 51.512 89.2173 51.128C89.0253 50.744 88.7799 50.2747 88.4813 49.72C88.1826 49.144 87.8626 48.5253 87.5213 47.864C87.1799 47.2027 86.8599 46.584 86.5613 46.008C86.2626 46.584 85.9319 47.2027 85.5693 47.864C85.2279 48.5253 84.9079 49.1333 84.6093 49.688C84.3319 50.2427 84.0973 50.712 83.9053 51.096C83.7133 51.48 83.6173 51.6933 83.6173 51.736C83.6173 51.7573 83.5319 51.736 83.3613 51.672C83.1906 51.608 82.9666 51.512 82.6893 51.384C82.4333 51.2773 82.1346 51.1493 81.7933 51C81.4519 50.8507 81.1106 50.7013 80.7693 50.552C80.3426 50.3813 79.8946 50.1893 79.4253 49.976C78.9559 49.7627 78.4546 49.5387 77.9213 49.304C78.2199 48.8773 78.5186 48.4613 78.8173 48.056C79.1159 47.6507 79.4039 47.2453 79.6813 46.84C80.1719 46.1573 80.6626 45.4533 81.1533 44.728C81.6653 43.9813 82.0919 43.3627 82.4333 42.872L79.8093 38.904C79.2546 38.1147 78.7106 37.2827 78.1773 36.408C78.6679 36.1733 79.1373 35.9493 79.5853 35.736C80.0546 35.5227 80.4919 35.3307 80.8973 35.16C81.2386 35.0107 81.5693 34.8613 81.8893 34.712C82.2093 34.5627 82.4973 34.4347 82.7533 34.328C83.0093 34.2213 83.2119 34.136 83.3613 34.072C83.5319 34.008 83.6173 33.9867 83.6173 34.008C83.6173 34.0507 83.7133 34.264 83.9053 34.648C84.0973 35.0107 84.3319 35.4693 84.6093 36.024C84.9079 36.5787 85.2279 37.1867 85.5693 37.848C85.9319 38.5093 86.2626 39.128 86.5613 39.704C86.8599 39.128 87.1799 38.5093 87.5213 37.848C87.8839 37.1867 88.2146 36.5787 88.5133 36.024C88.8119 35.4693 89.0573 35.0107 89.2493 34.648C89.4413 34.264 89.5373 34.0507 89.5373 34.008C89.5373 33.9867 89.6119 34.008 89.7613 34.072C89.9106 34.136 90.1133 34.2213 90.3693 34.328C90.6253 34.4347 90.9133 34.5627 91.2333 34.712C91.5533 34.8613 91.8839 35.0107 92.2253 35.16L94.9453 36.408C94.3906 37.2827 93.8466 38.1147 93.3133 38.904L90.7213 42.872C91.0626 43.3627 91.4786 43.9813 91.9693 44.728C92.4813 45.4533 92.9826 46.1573 93.4733 46.84C93.7506 47.2453 94.0386 47.6507 94.3373 48.056C94.6359 48.4613 94.9346 48.8773 95.2333 49.304L92.3853 50.552C92.0226 50.7013 91.6706 50.8507 91.3293 51C90.9879 51.1493 90.6786 51.2773 90.4013 51.384C90.1453 51.512 89.9319 51.608 89.7613 51.672C89.6119 51.736 89.5373 51.7573 89.5373 51.736ZM96.995 40.12V35.544H99.107V30.84H105.027V35.544H109.635V40.12H105.027V42.872C105.027 43.2773 105.027 43.7253 105.027 44.216C105.048 44.6853 105.134 45.08 105.283 45.4C105.39 45.6987 105.571 45.9333 105.827 46.104C106.104 46.2533 106.488 46.328 106.979 46.328C107.278 46.328 107.63 46.2427 108.035 46.072C108.44 45.9013 108.739 45.6987 108.931 45.464L110.211 49.464C109.464 49.9973 108.675 50.4133 107.843 50.712C107.011 50.9893 106.115 51.1173 105.155 51.096C103.918 51.096 102.894 50.904 102.083 50.52C101.272 50.136 100.643 49.6133 100.195 48.952C99.7257 48.2267 99.427 47.3733 99.299 46.392C99.171 45.3893 99.107 44.312 99.107 43.16V40.12H96.995Z" fill="white"/>
</g>
<g style="mix-blend-mode:multiply" opacity="0.5">
<g style="mix-blend-mode:multiply">
<path fill-rule="evenodd" clip-rule="evenodd" d="M143 31.1406L164.436 43.6955L143 56.286V31.1406Z" fill="#8E4266"/>
</g>
</g>
<path fill-rule="evenodd" clip-rule="evenodd" d="M143 29.7144L164.436 42.2692L143 54.8597V29.7144Z" fill="url(#paint2_linear_1434_16744)"/>
<defs>
<filter id="filter1_d_1434_16744" x="37.2764" y="30.04" width="76.9346" height="29.9199" filterUnits="userSpaceOnUse" color-interpolation-filters="sRGB">
<feFlood flood-opacity="0" result="BackgroundImageFix"/>
<feColorMatrix in="SourceAlpha" type="matrix" values="0 0 0 0 0 0 0 0 0 0 0 0 0 0 0 0 0 0 127 0" result="hardAlpha"/>
<feOffset dy="4"/>
<feGaussianBlur stdDeviation="2"/>
<feComposite in2="hardAlpha" operator="out"/>
<feColorMatrix type="matrix" values="0 0 0 0 0 0 0 0 0 0 0 0 0 0 0 0 0 0 0.25 0"/>
<feBlend mode="normal" in2="BackgroundImageFix" result="effect1_dropShadow_1434_16744"/>
<feBlend mode="normal" in="SourceGraphic" in2="effect1_dropShadow_1434_16744" result="shape"/>
</filter>
<linearGradient id="paint0_linear_1434_16744" x1="-2.8429" y1="-4.79919" x2="29.6651" y2="109.893" gradientUnits="userSpaceOnUse">
<stop stop-color="#575EFF"/>
<stop offset="1" stop-color="#E478FF"/>
</linearGradient>
<radialGradient id="paint1_radial_1434_16744" cx="0" cy="0" r="1" gradientUnits="userSpaceOnUse" gradientTransform="translate(102.218 42.124) scale(102.218 42.124)">
<stop stop-color="#50249E"/>
<stop offset="1" stop-color="#27005F" stop-opacity="0"/>
</radialGradient>
<linearGradient id="paint2_linear_1434_16744" x1="153.736" y1="54.8597" x2="153.736" y2="29.7144" gradientUnits="userSpaceOnUse">
<stop stop-color="#FFE2F2"/>
<stop offset="1" stop-color="white"/>
</linearGradient>
</defs>
</svg>
