<svg width="225" height="60" viewBox="0 0 225 60" fill="none" xmlns="http://www.w3.org/2000/svg">
<rect x="4.34326" y="4.97168" width="216" height="51" rx="25.5" fill="#2E056A"/>
<rect x="4.34326" y="4.97168" width="216" height="51" rx="25.5" stroke="url(#paint0_linear_1434_7026)" stroke-width="8"/>
<rect x="4.34326" y="4.97168" width="216" height="51" rx="25.5" stroke="url(#paint1_radial_1434_7026)" stroke-width="8"/>
<g filter="url(#filter1_d_1434_7026)">
<path d="M50.1002 24.1317C50.6042 24.1317 51.1082 24.1857 51.6122 24.2937C52.1282 24.3897 52.6022 24.5757 53.0342 24.8517C53.4902 25.1397 53.8562 25.5357 54.1322 26.0397C54.4082 26.5437 54.5402 27.1557 54.5282 27.8757C54.5162 28.4877 54.4142 29.0637 54.2222 29.6037C54.0422 30.1437 53.7002 30.6057 53.1962 30.9897C52.8002 31.3017 52.3322 31.5297 51.7922 31.6737C51.2522 31.8177 50.6222 31.8897 49.9022 31.8897H49.0922V35.4717H45.4202V24.1317H50.1002ZM49.0922 29.2797H49.3082C49.4762 29.2797 49.6442 29.2737 49.8122 29.2617C49.9922 29.2497 50.1602 29.2137 50.3162 29.1537C50.4962 29.0937 50.6522 28.9857 50.7842 28.8297C50.9162 28.6617 50.9822 28.4457 50.9822 28.1817C50.9942 27.9177 50.9342 27.7197 50.8022 27.5877C50.6822 27.4437 50.5382 27.3417 50.3702 27.2817C50.2142 27.2217 50.0522 27.1917 49.8842 27.1917C49.7162 27.1797 49.5362 27.1737 49.3442 27.1737H49.0922V29.2797ZM58.7191 24.1317V35.4717H55.3891V24.1317H58.7191ZM64.0296 25.9317C64.6416 25.9437 65.1696 26.0097 65.6136 26.1297C66.0576 26.2377 66.4356 26.4177 66.7476 26.6697C67.1916 27.0417 67.4976 27.5277 67.6656 28.1277C67.8456 28.7277 67.9356 29.4597 67.9356 30.3237V35.4717H64.8936L64.7136 34.5897C64.4376 34.9377 64.1076 35.1957 63.7236 35.3637C63.3516 35.5197 62.9676 35.5917 62.5716 35.5797C62.1876 35.5797 61.8336 35.5137 61.5096 35.3817C61.1856 35.2377 60.9096 35.0457 60.6816 34.8057C60.1536 34.2417 59.9076 33.5277 59.9436 32.6637C59.9676 32.2317 60.0636 31.8417 60.2316 31.4937C60.4116 31.1457 60.6396 30.8637 60.9156 30.6477C61.3716 30.2757 61.9716 30.0717 62.7156 30.0357C63.0276 30.0117 63.3396 30.0237 63.6516 30.0717C63.9756 30.1197 64.2936 30.1917 64.6056 30.2877V29.9997C64.6056 29.5317 64.5336 29.1657 64.3896 28.9017C64.2576 28.6257 63.9816 28.4757 63.5616 28.4517C63.3096 28.4397 63.0756 28.4697 62.8596 28.5417C62.6556 28.6137 62.4636 28.7097 62.2836 28.8297C62.1156 28.9377 61.9596 29.0697 61.8156 29.2257C61.6836 29.3697 61.5696 29.5137 61.4736 29.6577L60.0156 27.7317C60.2196 27.5037 60.4476 27.2817 60.6996 27.0657C60.9636 26.8377 61.2576 26.6397 61.5816 26.4717C61.9056 26.3037 62.2656 26.1717 62.6616 26.0757C63.0696 25.9677 63.5256 25.9197 64.0296 25.9317ZM64.6056 32.0697C64.4736 32.0097 64.3176 31.9737 64.1376 31.9617C63.9696 31.9497 63.8076 31.9617 63.6516 31.9977C63.4956 32.0217 63.3636 32.0757 63.2556 32.1597C63.1476 32.2437 63.0936 32.3517 63.0936 32.4837C63.0936 32.6517 63.1476 32.7837 63.2556 32.8797C63.3756 32.9757 63.5136 33.0417 63.6696 33.0777C63.8376 33.1017 64.0056 33.1017 64.1736 33.0777C64.3536 33.0417 64.4976 32.9817 64.6056 32.8977V32.0697ZM79.3216 26.9217L73.5976 38.4597L70.6996 36.9297L72.4096 33.7257L68.7556 26.9757L71.9956 25.5537L74.2096 30.3957L76.2076 25.5897L79.3216 26.9217ZM87.1587 30.5937C86.7267 30.4617 86.3367 30.2937 85.9887 30.0897C85.6527 29.8737 85.3767 29.6157 85.1607 29.3157C84.9687 29.0517 84.8307 28.7757 84.7467 28.4877C84.6627 28.1877 84.6207 27.8817 84.6207 27.5697C84.6567 26.3697 85.1847 25.4217 86.2047 24.7257C86.6007 24.4497 87.0627 24.2457 87.5907 24.1137C88.1187 23.9817 88.6707 23.9157 89.2467 23.9157C89.6667 23.9157 90.0747 23.9577 90.4707 24.0417C90.8787 24.1137 91.2447 24.2277 91.5687 24.3837C92.0727 24.6117 92.5347 24.9417 92.9547 25.3737C93.3747 25.7937 93.6567 26.2737 93.8007 26.8137L91.4427 28.3077C91.2387 27.8877 90.9327 27.5577 90.5247 27.3177C90.1167 27.0777 89.6787 26.9457 89.2107 26.9217C89.0787 26.9217 88.9287 26.9217 88.7607 26.9217C88.5927 26.9217 88.4307 26.9517 88.2747 27.0117C88.1427 27.0597 88.0287 27.1257 87.9327 27.2097C87.8367 27.2937 87.7887 27.4197 87.7887 27.5877C87.7887 27.7917 87.8727 27.9477 88.0407 28.0557C88.2207 28.1517 88.4127 28.2297 88.6167 28.2897L91.1907 29.0097C91.6467 29.1417 92.0607 29.3097 92.4327 29.5137C92.8047 29.7057 93.1047 29.9577 93.3327 30.2697C93.6687 30.7137 93.8367 31.3077 93.8367 32.0517C93.8367 32.6637 93.6987 33.2037 93.4227 33.6717C93.1587 34.1397 92.8287 34.5237 92.4327 34.8237C91.9767 35.1597 91.4667 35.3877 90.9027 35.5077C90.3507 35.6397 89.7687 35.6997 89.1567 35.6877C88.6527 35.6877 88.1247 35.6157 87.5727 35.4717C87.0327 35.3397 86.5467 35.1417 86.1147 34.8777C85.7667 34.6617 85.4367 34.4097 85.1247 34.1217C84.8127 33.8217 84.5367 33.4677 84.2967 33.0597L86.6367 31.2777C86.8887 31.7577 87.2607 32.1057 87.7527 32.3217C87.9447 32.4177 88.1607 32.4957 88.4007 32.5557C88.6407 32.6157 88.8867 32.6577 89.1387 32.6817C89.2467 32.6937 89.3787 32.6997 89.5347 32.6997C89.6907 32.6877 89.8347 32.6577 89.9667 32.6097C90.1107 32.5617 90.2307 32.4957 90.3267 32.4117C90.4227 32.3157 90.4707 32.1897 90.4707 32.0337C90.4587 31.8777 90.3927 31.7577 90.2727 31.6737C90.1647 31.5777 90.0027 31.4937 89.7867 31.4217L87.1587 30.5937ZM99.5149 35.6157C98.7829 35.6397 98.0929 35.5497 97.4449 35.3457C96.7969 35.1297 96.2149 34.7337 95.6989 34.1577C95.2549 33.6537 94.9429 33.1197 94.7629 32.5557C94.5949 31.9917 94.5109 31.3857 94.5109 30.7377C94.5109 30.0177 94.6489 29.3457 94.9249 28.7217C95.2009 28.0857 95.5729 27.5397 96.0409 27.0837C96.4969 26.6637 97.0369 26.3577 97.6609 26.1657C98.2849 25.9617 98.9269 25.8597 99.5869 25.8597C100.307 25.8597 100.997 25.9737 101.657 26.2017C102.317 26.4297 102.875 26.7957 103.331 27.2997C103.787 27.8037 104.099 28.3377 104.267 28.9017C104.447 29.4657 104.537 30.0717 104.537 30.7197C104.537 31.4397 104.399 32.1177 104.123 32.7537C103.847 33.3777 103.469 33.9177 102.989 34.3737C102.509 34.8177 101.969 35.1357 101.369 35.3277C100.781 35.5077 100.163 35.6037 99.5149 35.6157ZM97.6429 30.7197C97.6429 31.3317 97.7869 31.8537 98.0749 32.2857C98.3749 32.7057 98.8549 32.9217 99.5149 32.9337C99.8269 32.9337 100.097 32.8797 100.325 32.7717C100.565 32.6517 100.763 32.4957 100.919 32.3037C101.087 32.0997 101.207 31.8657 101.279 31.6017C101.363 31.3377 101.405 31.0617 101.405 30.7737C101.405 30.4857 101.369 30.2097 101.297 29.9457C101.225 29.6817 101.111 29.4477 100.955 29.2437C100.811 29.0397 100.625 28.8777 100.397 28.7577C100.169 28.6377 99.8989 28.5777 99.5869 28.5777C99.2749 28.5777 98.9989 28.6377 98.7589 28.7577C98.5189 28.8657 98.3149 29.0157 98.1469 29.2077C97.9909 29.3997 97.8649 29.6277 97.7689 29.8917C97.6849 30.1437 97.6429 30.4197 97.6429 30.7197ZM110.237 28.5597C109.877 28.5597 109.571 28.6737 109.319 28.9017C109.079 29.1297 108.911 29.3697 108.815 29.6217V35.4717H105.485V26.0577H108.707L108.761 26.8317C108.881 26.6877 109.019 26.5617 109.175 26.4537C109.343 26.3337 109.511 26.2317 109.679 26.1477C109.907 26.0397 110.165 25.9617 110.453 25.9137C110.741 25.8537 111.029 25.8237 111.317 25.8237C111.737 25.8237 112.151 25.8897 112.559 26.0217C112.979 26.1537 113.333 26.3457 113.621 26.5977C114.005 26.9457 114.275 27.3897 114.431 27.9297C114.587 28.4697 114.665 29.0997 114.665 29.8197V35.4717H111.353V31.0077C111.353 30.7317 111.347 30.4077 111.335 30.0357C111.323 29.6637 111.251 29.3397 111.119 29.0637C111.035 28.9077 110.921 28.7877 110.777 28.7037C110.645 28.6077 110.465 28.5597 110.237 28.5597ZM122.319 35.9577C123.147 36.1257 123.777 36.4557 124.209 36.9477C124.641 37.4517 124.845 38.0997 124.821 38.8917C124.809 39.4317 124.677 39.9057 124.425 40.3137C124.185 40.7217 123.855 41.0637 123.435 41.3397C122.751 41.7957 121.863 42.0297 120.771 42.0417C120.183 42.0537 119.613 41.9757 119.061 41.8077C118.521 41.6517 118.059 41.3937 117.675 41.0337C117.387 40.7697 117.159 40.4637 116.991 40.1157C116.823 39.7677 116.739 39.3657 116.739 38.9097C116.739 38.1537 116.961 37.5297 117.405 37.0377C117.861 36.5457 118.473 36.1977 119.241 35.9937V35.3997C118.821 35.3157 118.413 35.1777 118.017 34.9857C117.633 34.7817 117.279 34.5057 116.955 34.1577C116.511 33.6537 116.199 33.1197 116.019 32.5557C115.851 31.9917 115.767 31.3857 115.767 30.7377C115.767 30.0177 115.905 29.3457 116.181 28.7217C116.457 28.0857 116.829 27.5397 117.297 27.0837C117.753 26.6637 118.293 26.3577 118.917 26.1657C119.541 25.9617 120.183 25.8597 120.843 25.8597C121.083 25.8597 121.341 25.8777 121.617 25.9137C121.617 25.8057 121.635 25.6977 121.671 25.5897C121.767 25.1937 121.911 24.8757 122.103 24.6357C122.307 24.3837 122.541 24.1917 122.805 24.0597C123.081 23.9157 123.387 23.8257 123.723 23.7897C124.059 23.7537 124.413 23.7477 124.785 23.7717C125.073 23.7957 125.397 23.8437 125.757 23.9157C126.129 23.9877 126.453 24.0717 126.729 24.1677L125.991 26.7057C125.787 26.5857 125.577 26.5137 125.361 26.4897C125.145 26.4537 124.953 26.4837 124.785 26.5797C124.593 26.6757 124.455 26.8497 124.371 27.1017C124.407 27.1257 124.437 27.1557 124.461 27.1917C124.497 27.2277 124.533 27.2637 124.569 27.2997C125.013 27.8037 125.325 28.3377 125.505 28.9017C125.697 29.4657 125.793 30.0717 125.793 30.7197C125.793 31.4397 125.655 32.1177 125.379 32.7537C125.103 33.3777 124.725 33.9177 124.245 34.3737C123.969 34.6377 123.663 34.8477 123.327 35.0037C123.003 35.1597 122.667 35.2797 122.319 35.3637V35.9577ZM118.899 30.7197C118.899 31.3317 119.043 31.8357 119.331 32.2317C119.631 32.6157 120.111 32.8137 120.771 32.8257C121.395 32.8377 121.863 32.6457 122.175 32.2497C122.499 31.8537 122.661 31.3617 122.661 30.7737C122.661 30.4857 122.625 30.2097 122.553 29.9457C122.481 29.6817 122.367 29.4477 122.211 29.2437C122.067 29.0397 121.881 28.8777 121.653 28.7577C121.425 28.6377 121.155 28.5777 120.843 28.5777C120.531 28.5777 120.255 28.6377 120.015 28.7577C119.775 28.8657 119.571 29.0157 119.403 29.2077C119.247 29.3997 119.121 29.6277 119.025 29.8917C118.941 30.1437 118.899 30.4197 118.899 30.7197ZM121.977 38.8917C121.965 38.5797 121.839 38.3457 121.599 38.1897C121.359 38.0337 121.089 37.9557 120.789 37.9557C120.501 37.9557 120.237 38.0277 119.997 38.1717C119.757 38.3157 119.625 38.5437 119.601 38.8557C119.565 39.2277 119.667 39.5037 119.907 39.6837C120.147 39.8637 120.423 39.9597 120.735 39.9717C121.059 39.9837 121.347 39.8997 121.599 39.7197C121.863 39.5517 121.989 39.2757 121.977 38.8917Z" fill="white"/>
</g>
<g style="mix-blend-mode:multiply" opacity="0.5">
<g style="mix-blend-mode:multiply">
<path fill-rule="evenodd" clip-rule="evenodd" d="M158.625 18.6123L180.061 31.1671L158.625 43.7576V18.6123Z" fill="#8E4266"/>
</g>
</g>
<path fill-rule="evenodd" clip-rule="evenodd" d="M158.625 17.186L180.061 29.7409L158.625 42.3314V17.186Z" fill="url(#paint2_linear_1434_7026)"/>
<defs>
<filter id="filter1_d_1434_7026" x="41.4204" y="23.7358" width="89.3086" height="26.3237" filterUnits="userSpaceOnUse" color-interpolation-filters="sRGB">
<feFlood flood-opacity="0" result="BackgroundImageFix"/>
<feColorMatrix in="SourceAlpha" type="matrix" values="0 0 0 0 0 0 0 0 0 0 0 0 0 0 0 0 0 0 127 0" result="hardAlpha"/>
<feOffset dy="4"/>
<feGaussianBlur stdDeviation="2"/>
<feComposite in2="hardAlpha" operator="out"/>
<feColorMatrix type="matrix" values="0 0 0 0 0 0 0 0 0 0 0 0 0 0 0 0 0 0 0.25 0"/>
<feBlend mode="normal" in2="BackgroundImageFix" result="effect1_dropShadow_1434_7026"/>
<feBlend mode="normal" in="SourceGraphic" in2="effect1_dropShadow_1434_7026" result="shape"/>
</filter>
<linearGradient id="paint0_linear_1434_7026" x1="-2.7717" y1="-2.32079" x2="11.8534" y2="80.0891" gradientUnits="userSpaceOnUse">
<stop stop-color="#575EFF"/>
<stop offset="1" stop-color="#E478FF"/>
</linearGradient>
<radialGradient id="paint1_radial_1434_7026" cx="0" cy="0" r="1" gradientUnits="userSpaceOnUse" gradientTransform="translate(112.343 29.8707) scale(112 28.899)">
<stop stop-color="#50249E"/>
<stop offset="1" stop-color="#27005F" stop-opacity="0"/>
</radialGradient>
<linearGradient id="paint2_linear_1434_7026" x1="169.361" y1="42.3314" x2="169.361" y2="17.186" gradientUnits="userSpaceOnUse">
<stop stop-color="#FFE2F2"/>
<stop offset="1" stop-color="white"/>
</linearGradient>
</defs>
</svg>
