<svg width="454" height="353" viewBox="0 0 454 353" fill="none" xmlns="http://www.w3.org/2000/svg">
<path d="M254.47 19.4505C224.151 42.0038 233.023 56.8617 142.266 76.5707C51.5136 96.2797 1.07813 106.286 3.2271 167.909C5.44689 231.59 224.25 400.841 351.011 339.984C477.772 279.127 396.168 -85.9525 254.47 19.4505Z" fill="url(#paint0_linear_1434_17191)"/>
<path d="M75.2533 91.5495C75.2533 91.5495 -0.900104 123.699 0.681023 204.203C2.26215 284.707 95.3268 252.827 177.667 292.066C260.005 331.305 372.921 368.09 420.789 310.46C468.657 252.827 475.7 190.766 358.675 91.409C241.65 -7.94841 75.2533 91.5526 75.2533 91.5526V91.5495Z" fill="#E80D15"/>
<path d="M210.995 152.859C211.023 153.023 211.036 153.2 211.036 153.392C211.064 153.556 211.091 153.733 211.118 153.925C211.118 154.116 211.118 154.321 211.118 154.54C211.146 154.731 211.159 154.95 211.159 155.196C211.159 155.906 211.132 156.631 211.077 157.369C211.023 158.107 210.954 158.831 210.872 159.542C210.818 160.526 210.64 161.469 210.339 162.371C210.039 163.273 209.656 164.147 209.191 164.995C206.704 169.805 202.823 173.386 197.547 175.737C196.864 176.065 196.153 176.297 195.415 176.434C194.978 176.57 194.787 176.68 194.841 176.762C194.896 176.871 195.142 176.98 195.579 177.09C195.689 177.117 195.812 177.158 195.948 177.213C196.085 177.267 196.263 177.322 196.481 177.377C196.7 177.459 196.905 177.541 197.096 177.623C197.315 177.705 197.534 177.787 197.752 177.869C197.889 177.978 198.026 178.074 198.162 178.156C198.326 178.238 198.477 178.32 198.613 178.402C198.75 178.511 198.887 178.634 199.023 178.771C199.187 178.88 199.351 179.017 199.515 179.181C199.707 179.345 199.912 179.536 200.13 179.755C200.349 179.973 200.595 180.219 200.868 180.493C201.142 180.793 201.442 181.121 201.77 181.477C202.126 181.832 202.508 182.242 202.918 182.707C203.465 183.281 203.943 183.786 204.353 184.224C204.763 184.661 205.119 185.03 205.419 185.331C205.72 185.631 205.98 185.891 206.198 186.11C206.444 186.328 206.663 186.492 206.854 186.602C207.21 186.793 207.524 186.848 207.797 186.766C208.071 186.684 208.412 186.52 208.822 186.274C209.396 185.918 209.847 185.741 210.175 185.741C210.421 185.741 210.626 185.836 210.79 186.028C211.036 186.356 211.077 186.793 210.913 187.34C210.804 187.886 210.544 188.433 210.134 188.98C209.752 189.526 209.301 190.046 208.781 190.538C208.289 191.03 207.77 191.494 207.223 191.932C206.677 192.342 206.171 192.697 205.706 192.998C205.351 193.216 204.941 193.421 204.476 193.613C204.039 193.831 203.574 194.023 203.082 194.187C202.618 194.351 202.139 194.487 201.647 194.597C201.183 194.706 200.745 194.761 200.335 194.761C199.707 194.761 198.928 194.651 197.998 194.433C197.588 194.296 197.192 194.159 196.809 194.023C196.454 193.886 196.112 193.749 195.784 193.613C195.429 193.394 195.033 193.093 194.595 192.711C194.185 192.328 193.775 191.918 193.365 191.481C192.955 191.016 192.573 190.551 192.217 190.087C191.889 189.622 191.616 189.212 191.397 188.857C190.851 188.009 190.577 187.531 190.577 187.422L190.495 187.34C190.359 187.203 190.277 187.053 190.249 186.889L189.265 184.839C189.074 184.456 188.801 183.991 188.445 183.445C188.117 182.871 187.748 182.297 187.338 181.723C186.928 181.149 186.491 180.629 186.026 180.165C185.589 179.673 185.179 179.331 184.796 179.14C184.332 178.839 183.648 178.62 182.746 178.484L181.557 178.402L180.942 182.789L180.86 184.675L180.491 186.438L180.655 187.996C180.655 188.214 180.655 188.46 180.655 188.734C180.683 188.98 180.696 189.28 180.696 189.636C180.724 189.991 180.737 190.319 180.737 190.62C180.765 190.893 180.806 191.139 180.86 191.358C181.024 192.56 181.024 193.367 180.86 193.777C180.642 194.214 180.068 194.665 179.138 195.13C179.002 195.212 178.879 195.28 178.769 195.335C178.66 195.417 178.578 195.485 178.523 195.54C178.414 195.594 178.277 195.649 178.113 195.704C177.949 195.758 177.744 195.786 177.498 195.786C177.362 195.813 177.184 195.827 176.965 195.827C176.747 195.827 176.487 195.827 176.186 195.827H174.218C173.535 195.827 173.125 195.772 172.988 195.663C172.852 195.635 172.715 195.608 172.578 195.581C172.442 195.553 172.291 195.526 172.127 195.499C171.963 195.444 171.799 195.417 171.635 195.417C171.499 195.417 171.348 195.417 171.184 195.417C171.048 195.362 170.911 195.321 170.774 195.294C170.638 195.294 170.515 195.266 170.405 195.212C170.132 195.157 169.954 195.075 169.872 194.966C169.818 194.856 169.681 194.72 169.462 194.556C169.244 194.392 168.957 194.159 168.601 193.859C168.082 193.449 167.631 193.039 167.248 192.629C166.784 192.082 166.469 191.453 166.305 190.743C166.141 190.032 166.018 189.335 165.936 188.652C165.882 188.16 165.813 187.586 165.731 186.93C165.649 186.274 165.567 185.549 165.485 184.757C165.403 183.855 165.403 182.625 165.485 181.067C165.54 179.181 165.649 177.322 165.813 175.491C166.005 173.632 166.237 171.773 166.51 169.915C166.647 168.903 166.784 167.919 166.92 166.963C167.084 166.006 167.262 165.09 167.453 164.216C167.617 163.095 167.699 162.316 167.699 161.879C167.809 161.633 167.877 161.414 167.904 161.223C167.959 161.004 168.014 160.799 168.068 160.608C168.096 160.444 168.109 160.307 168.109 160.198C168.137 160.061 168.15 159.965 168.15 159.911C168.205 159.829 168.301 159.473 168.437 158.845C168.574 158.134 168.724 157.437 168.888 156.754C169.052 156.043 169.244 155.332 169.462 154.622C169.572 154.102 169.613 153.843 169.585 153.843C169.476 153.843 169.093 154.034 168.437 154.417C167.809 154.772 167.112 155.196 166.346 155.688C165.608 156.18 164.898 156.672 164.214 157.164C163.558 157.628 163.121 157.984 162.902 158.23C162.848 158.284 162.779 158.353 162.697 158.435C162.615 158.489 162.547 158.544 162.492 158.599C162.41 158.681 162.315 158.79 162.205 158.927C162.096 159.063 161.959 159.241 161.795 159.46L161.262 160.157C161.016 160.731 160.743 161.018 160.442 161.018C160.306 161.018 160.155 160.963 159.991 160.854C159.827 160.717 159.663 160.567 159.499 160.403C159.335 160.239 159.185 160.075 159.048 159.911C158.939 159.747 158.843 159.624 158.761 159.542C156.848 157.027 155.796 154.581 155.604 152.203C155.413 149.825 156.028 147.597 157.449 145.52C158.133 144.536 159.021 143.606 160.114 142.732C161.208 141.857 162.383 141.051 163.64 140.313C164.898 139.575 166.182 138.905 167.494 138.304C168.806 137.702 170.023 137.197 171.143 136.787C173.166 136.076 175.271 135.447 177.457 134.901C179.644 134.327 181.803 133.971 183.935 133.835H188.896C189.224 133.862 189.539 133.889 189.839 133.917C190.167 133.917 190.482 133.944 190.782 133.999C193.816 134.217 196.645 134.955 199.269 136.213C201.893 137.47 204.162 139.288 206.075 141.666C207.36 143.169 208.358 144.727 209.068 146.34C209.806 147.925 210.38 149.674 210.79 151.588C210.845 151.834 210.872 152.066 210.872 152.285C210.9 152.476 210.941 152.667 210.995 152.859ZM172.619 140.149C173.385 139.875 173.767 139.643 173.767 139.452C173.795 139.315 173.699 139.247 173.48 139.247C173.098 139.247 172.551 139.383 171.84 139.657C171.13 139.903 170.392 140.203 169.626 140.559C168.861 140.914 168.109 141.283 167.371 141.666C166.661 142.048 166.1 142.363 165.69 142.609C165.499 142.745 165.103 143.005 164.501 143.388C163.927 143.77 163.326 144.194 162.697 144.659C162.096 145.096 161.549 145.533 161.057 145.971C160.593 146.381 160.36 146.709 160.36 146.955C160.36 147.529 160.552 147.816 160.934 147.816C161.317 147.816 161.905 147.501 162.697 146.873C164.255 145.588 165.841 144.358 167.453 143.183C169.066 142.007 170.788 140.996 172.619 140.149ZM199.802 159.829C199.83 159.501 199.83 159.186 199.802 158.886C199.775 158.585 199.679 158.23 199.515 157.82C199.379 157.382 199.201 156.959 198.982 156.549C198.791 156.111 198.559 155.701 198.285 155.319C198.039 154.936 197.793 154.649 197.547 154.458C197.165 153.911 196.577 153.392 195.784 152.9C194.992 152.408 194.281 152.011 193.652 151.711C193.352 151.574 193.065 151.451 192.791 151.342C192.518 151.232 192.258 151.137 192.012 151.055C191.739 150.918 191.206 150.836 190.413 150.809C190.031 150.754 189.648 150.727 189.265 150.727C188.91 150.699 188.555 150.658 188.199 150.604L185.411 150.522L186.395 151.506C187.215 152.326 187.666 153.146 187.748 153.966C187.803 154.813 187.502 156.139 186.846 157.943C186.655 158.435 186.45 159.05 186.231 159.788C186.095 160.17 185.972 160.553 185.862 160.936C185.753 161.291 185.63 161.66 185.493 162.043C185.275 162.781 185.07 163.505 184.878 164.216C184.769 164.544 184.687 164.831 184.632 165.077C184.605 165.295 184.564 165.473 184.509 165.61L184.263 166.512C184.154 166.84 184.072 167.168 184.017 167.496C183.99 167.851 183.949 168.179 183.894 168.48V169.464L185.493 169.382C185.739 169.354 185.985 169.327 186.231 169.3C186.477 169.272 186.751 169.231 187.051 169.177C187.352 169.122 187.625 169.067 187.871 169.013C188.145 168.958 188.391 168.903 188.609 168.849C189.839 168.603 191.056 168.247 192.258 167.783C193.461 167.291 194.568 166.676 195.579 165.938C196.618 165.2 197.506 164.325 198.244 163.314C198.982 162.302 199.502 161.141 199.802 159.829ZM229.218 178.156V178.443C229.218 178.607 229.245 178.853 229.3 179.181C229.355 179.481 229.423 179.796 229.505 180.124C229.587 180.452 229.683 180.766 229.792 181.067C229.901 181.34 230.011 181.531 230.12 181.641C230.284 181.75 230.612 181.75 231.104 181.641C233.318 181.34 235.272 180.67 236.967 179.632C238.689 178.593 240.274 177.24 241.723 175.573C242.106 175.108 242.447 174.684 242.748 174.302C243.049 173.919 243.336 173.577 243.609 173.277C243.882 172.976 244.128 172.675 244.347 172.375C244.566 172.074 244.784 171.787 245.003 171.514C245.194 171.213 245.372 170.926 245.536 170.653C245.727 170.352 245.919 170.051 246.11 169.751C246.301 169.45 246.493 169.122 246.684 168.767C246.903 168.411 247.135 168.029 247.381 167.619C247.518 167.4 247.682 167.154 247.873 166.881C248.064 166.58 248.269 166.307 248.488 166.061C248.707 165.787 248.953 165.569 249.226 165.405C249.499 165.213 249.773 165.118 250.046 165.118C250.593 165.118 251.112 165.35 251.604 165.815C252.096 166.252 252.369 166.744 252.424 167.291C252.451 167.892 252.137 168.985 251.481 170.571C251.126 171.527 250.716 172.47 250.251 173.4C249.814 174.329 249.363 175.245 248.898 176.147C248.625 176.666 248.351 177.172 248.078 177.664C247.832 178.156 247.6 178.634 247.381 179.099C247.026 179.755 246.684 180.342 246.356 180.862C246.055 181.354 245.714 181.832 245.331 182.297C244.976 182.761 244.566 183.226 244.101 183.691C243.664 184.128 243.158 184.593 242.584 185.085C240.753 186.67 238.771 187.818 236.639 188.529C234.507 189.212 232.238 189.554 229.833 189.554C228.685 189.554 227.469 189.376 226.184 189.021C224.899 188.638 223.738 188.187 222.699 187.668C222.207 187.476 221.688 187.217 221.141 186.889C220.594 186.533 220.048 186.151 219.501 185.741C218.982 185.331 218.476 184.907 217.984 184.47C217.519 184.005 217.096 183.568 216.713 183.158C215.756 182.201 214.936 181.149 214.253 180.001C213.57 178.825 213.023 177.609 212.613 176.352C212.449 175.996 212.326 175.668 212.244 175.368C212.162 175.067 212.094 174.78 212.039 174.507C212.012 174.233 211.984 173.905 211.957 173.523C211.957 173.14 211.957 172.689 211.957 172.17C211.957 170.885 212.08 169.614 212.326 168.357C212.599 167.072 212.982 165.828 213.474 164.626C213.966 163.396 214.567 162.248 215.278 161.182C216.016 160.088 216.85 159.104 217.779 158.23C219.337 156.781 220.95 155.715 222.617 155.032C224.312 154.348 226.239 154.007 228.398 154.007C231.241 154.007 234.193 154.663 237.254 155.975C237.719 156.221 238.211 156.549 238.73 156.959C239.249 157.341 239.741 157.765 240.206 158.23C240.671 158.694 241.094 159.186 241.477 159.706C241.887 160.198 242.215 160.69 242.461 161.182C242.98 162.22 243.24 163.355 243.24 164.585C243.24 165.623 243.09 166.648 242.789 167.66C242.488 168.671 242.078 169.641 241.559 170.571C241.067 171.5 240.466 172.375 239.755 173.195C239.044 173.987 238.279 174.684 237.459 175.286C235.928 176.324 234.726 177.021 233.851 177.377C233.058 177.759 231.869 177.992 230.284 178.074L229.218 178.156ZM230.038 170.571C230.038 170.981 230.175 171.186 230.448 171.186C230.639 171.186 230.885 171.09 231.186 170.899V170.817C231.897 170.434 232.566 169.956 233.195 169.382C233.851 168.78 234.425 168.124 234.917 167.414C235.436 166.676 235.874 165.91 236.229 165.118C236.584 164.298 236.817 163.491 236.926 162.699C236.926 162.562 236.912 162.425 236.885 162.289C236.885 162.152 236.871 162.002 236.844 161.838C236.844 161.537 236.776 161.223 236.639 160.895C236.666 161.086 236.489 161.182 236.106 161.182C235.86 161.182 235.6 161.25 235.327 161.387C235.081 161.578 234.63 162.043 233.974 162.781C233.482 163.273 233.004 163.819 232.539 164.421C232.074 165.022 231.651 165.664 231.268 166.348C230.913 167.004 230.612 167.701 230.366 168.439C230.147 169.149 230.038 169.86 230.038 170.571ZM224.872 158.64C225.036 158.476 225.091 158.271 225.036 158.025C224.981 157.56 224.735 157.328 224.298 157.328C223.806 157.328 223.287 157.505 222.74 157.861C222.193 158.189 221.66 158.612 221.141 159.132C220.649 159.651 220.198 160.198 219.788 160.772C219.378 161.346 219.064 161.865 218.845 162.33C218.626 162.794 218.449 163.286 218.312 163.806C218.203 164.243 218.203 164.585 218.312 164.831C218.449 165.077 218.558 165.131 218.64 164.995C218.722 164.913 218.763 164.708 218.763 164.38C218.763 163.915 218.954 163.437 219.337 162.945C219.747 162.425 220.212 161.947 220.731 161.51C221.278 161.045 221.824 160.621 222.371 160.239C222.945 159.856 223.41 159.569 223.765 159.378C224.394 158.995 224.763 158.749 224.872 158.64ZM291.057 158.763V158.681L289.704 163.15C289.567 163.669 289.458 164.175 289.376 164.667C289.321 164.94 289.253 165.2 289.171 165.446C289.116 165.692 289.062 165.938 289.007 166.184C288.542 168.07 288.146 169.969 287.818 171.883C287.49 173.769 287.217 175.668 286.998 177.582C286.834 178.675 286.752 179.468 286.752 179.96C286.752 180.807 286.848 181.367 287.039 181.641C287.203 181.914 287.613 182.119 288.269 182.256L289.622 181.641V181.723C290.005 181.559 290.442 181.217 290.934 180.698C291.453 180.151 291.959 179.563 292.451 178.935C292.97 178.279 293.435 177.636 293.845 177.008C294.282 176.352 294.61 175.805 294.829 175.368L297.125 170.653C297.89 168.985 298.71 168.152 299.585 168.152C300.022 168.152 300.432 168.329 300.815 168.685C301.28 169.013 301.58 169.464 301.717 170.038C301.881 170.584 301.963 171.117 301.963 171.637C301.963 172.867 301.649 174.261 301.02 175.819C300.419 177.349 299.653 178.866 298.724 180.37C297.822 181.846 296.838 183.226 295.772 184.511C294.706 185.795 293.708 186.807 292.779 187.545C290.319 189.54 287.572 190.606 284.538 190.743C284.155 190.743 283.773 190.743 283.39 190.743C283.035 190.743 282.679 190.729 282.324 190.702C281.668 190.702 281.094 190.633 280.602 190.497C279.864 190.36 279.058 190.128 278.183 189.8C277.336 189.444 276.516 189.021 275.723 188.529C274.93 188.037 274.206 187.476 273.55 186.848C272.894 186.219 272.416 185.536 272.115 184.798C271.732 184.06 271.404 183.103 271.131 181.928L270.926 181.354C270.625 181.9 270.256 182.433 269.819 182.953C269.409 183.472 269.013 183.964 268.63 184.429C268.384 184.702 268.138 184.962 267.892 185.208C267.673 185.454 267.455 185.7 267.236 185.946C267.017 186.164 266.826 186.356 266.662 186.52C266.498 186.684 266.348 186.82 266.211 186.93C265.309 187.586 264.557 187.996 263.956 188.16C263.409 188.351 262.603 188.447 261.537 188.447C260.389 188.447 259.2 188.296 257.97 187.996C256.767 187.695 255.592 187.271 254.444 186.725C253.323 186.178 252.285 185.508 251.328 184.716C250.371 183.896 249.579 182.994 248.95 182.01C248.321 181.026 247.829 179.919 247.474 178.689C247.146 177.431 246.955 176.065 246.9 174.589C246.736 171.801 247.16 169.054 248.171 166.348C248.8 164.708 249.647 163.15 250.713 161.674C251.779 160.198 252.995 158.913 254.362 157.82C255.756 156.699 257.273 155.824 258.913 155.196C260.58 154.54 262.33 154.212 264.161 154.212C266.348 154.212 268.849 154.922 271.664 156.344L272.238 156.918C272.402 157.082 272.539 157.246 272.648 157.41C272.648 157.3 272.675 157.218 272.73 157.164C272.757 157.109 272.798 157.013 272.853 156.877C272.908 156.74 272.976 156.549 273.058 156.303C273.113 156.057 273.222 155.66 273.386 155.114C273.55 154.54 273.741 153.815 273.96 152.941L274.862 149.989C275.627 147.255 276.57 144.59 277.691 141.994C278.812 139.397 280.192 136.937 281.832 134.614C282.406 133.93 283.089 133.329 283.882 132.81C284.702 132.29 285.577 132.031 286.506 132.031C287.818 132.031 289.485 132.536 291.508 133.548C294.597 135.242 296.141 137.593 296.141 140.6C296.141 141.119 296.1 141.652 296.018 142.199C295.963 142.499 295.909 142.786 295.854 143.06C295.799 143.333 295.745 143.62 295.69 143.921C295.389 145.096 295.061 146.258 294.706 147.406C294.378 148.526 294.023 149.661 293.64 150.809C293.613 150.973 293.531 151.219 293.394 151.547C293.339 151.711 293.285 151.861 293.23 151.998C293.203 152.134 293.162 152.271 293.107 152.408L291.057 158.763ZM261.66 158.476C262.726 158.284 263.327 158.134 263.464 158.025C263.601 157.997 263.655 157.82 263.628 157.492C263.546 157.218 263.45 157.041 263.341 156.959C263.286 156.931 263.177 156.904 263.013 156.877C262.876 156.849 262.685 156.822 262.439 156.795C261.974 156.795 261.578 156.836 261.25 156.918C260.84 157.027 260.362 157.232 259.815 157.533C259.296 157.806 258.749 158.134 258.175 158.517C257.628 158.872 257.109 159.241 256.617 159.624C256.152 160.006 255.77 160.348 255.469 160.649C255.196 160.922 255.018 161.291 254.936 161.756C254.909 162.193 255.032 162.412 255.305 162.412C255.551 162.412 255.674 162.302 255.674 162.084C255.674 161.947 255.756 161.783 255.92 161.592C256.111 161.373 256.33 161.182 256.576 161.018C256.822 160.826 257.068 160.649 257.314 160.485C257.56 160.321 257.738 160.211 257.847 160.157C258.394 159.801 259.009 159.473 259.692 159.173C260.375 158.845 261.031 158.612 261.66 158.476ZM271.664 162.986C271.719 162.658 271.76 162.371 271.787 162.125C271.814 161.879 271.828 161.674 271.828 161.51C271.445 161.51 270.981 161.715 270.434 162.125C269.887 162.507 269.341 162.958 268.794 163.478C268.247 163.997 267.742 164.516 267.277 165.036C266.84 165.555 266.512 165.951 266.293 166.225C265.692 166.963 265.159 167.701 264.694 168.439C264.229 169.177 263.833 169.942 263.505 170.735V171.022C263.45 171.131 263.382 171.322 263.3 171.596C263.245 171.869 263.177 172.17 263.095 172.498C263.04 172.798 262.986 173.085 262.931 173.359C262.904 173.632 262.876 173.837 262.849 173.974C262.767 174.63 262.685 175.327 262.603 176.065C262.548 176.447 262.507 176.816 262.48 177.172C262.453 177.5 262.439 177.828 262.439 178.156C262.33 180.233 262.398 181.34 262.644 181.477C262.726 181.586 262.863 181.6 263.054 181.518C263.245 181.436 263.573 181.121 264.038 180.575C264.421 180.192 264.831 179.741 265.268 179.222C265.705 178.675 266.129 178.115 266.539 177.541C266.949 176.939 267.332 176.352 267.687 175.778C268.042 175.176 268.316 174.63 268.507 174.138C268.562 174.083 268.63 173.96 268.712 173.769C268.739 173.687 268.767 173.618 268.794 173.564C268.821 173.509 268.849 173.454 268.876 173.4C269.149 172.798 269.368 172.293 269.532 171.883C269.723 171.473 269.86 171.158 269.942 170.94C270.051 170.721 270.133 170.502 270.188 170.284C270.27 170.038 270.338 169.805 270.393 169.587C270.448 169.368 270.502 169.108 270.557 168.808C270.639 168.507 270.721 168.152 270.803 167.742C270.885 167.332 270.953 166.922 271.008 166.512C271.09 166.102 271.172 165.692 271.254 165.282C271.336 164.872 271.404 164.475 271.459 164.093C271.541 163.71 271.609 163.341 271.664 162.986ZM286.137 136.049C286.274 135.639 286.178 135.311 285.85 135.065C285.659 134.928 285.481 134.86 285.317 134.86C285.044 134.86 284.784 135.01 284.538 135.311C284.292 135.584 284.06 135.912 283.841 136.295C283.65 136.677 283.472 137.074 283.308 137.484C283.171 137.866 283.062 138.167 282.98 138.386C282.843 138.741 282.707 139.096 282.57 139.452C282.461 139.807 282.351 140.162 282.242 140.518C282.133 140.9 282.037 141.256 281.955 141.584C281.873 141.884 281.791 142.185 281.709 142.486C281.545 143.087 281.504 143.442 281.586 143.552C281.695 143.907 281.859 143.975 282.078 143.757C282.242 143.538 282.584 142.882 283.103 141.789C283.404 141.133 283.704 140.504 284.005 139.903C284.333 139.274 284.688 138.645 285.071 138.017C285.672 137.087 286.028 136.431 286.137 136.049Z" fill="white"/>
<defs>
<linearGradient id="paint0_linear_1434_17191" x1="3.16113" y1="176.719" x2="413.897" y2="176.719" gradientUnits="userSpaceOnUse">
<stop stop-color="#FFCCED" stop-opacity="0.8"/>
<stop offset="1" stop-color="white"/>
</linearGradient>
</defs>
</svg>
