<svg width="504" height="383" viewBox="0 0 504 383" fill="none" xmlns="http://www.w3.org/2000/svg">
<path d="M501.66 372.796C501.484 373.776 501.258 374.756 501.032 375.71C499.851 373.876 498.997 371.867 497.841 370.033C496.334 367.646 494.173 365.737 491.862 364.179C486.888 360.863 480.959 359.532 475.106 358.828C465.007 357.622 454.908 358.878 444.859 359.984C437.975 360.763 431.067 361.391 424.158 361.215C417.626 361.064 410.668 360.336 404.764 357.296C402.126 355.939 399.74 354.105 397.956 351.719C397.378 350.94 396.876 350.136 396.449 349.307C396.047 348.779 395.67 348.202 395.343 347.624C394.966 348.403 394.539 349.156 394.037 349.835C393.836 350.236 393.635 350.638 393.384 351.04C391.876 353.653 389.867 356.09 387.329 357.748C382.581 360.888 376.552 361.064 371.05 360.687C368.136 360.486 365.247 360.109 362.358 359.883C359.268 359.657 356.178 359.557 353.088 359.708C346.883 360.009 340.627 361.29 335.302 364.556C332.513 366.264 330.076 368.55 328.092 371.163C327.137 372.419 326.308 373.751 325.705 375.208C325.052 376.715 324.65 378.323 324.047 379.855C323.821 380.433 323.57 380.986 323.268 381.539C321.685 380.936 320.58 379.328 319.776 377.921C318.696 376.062 317.892 374.027 317.239 371.992C315.48 366.465 314.877 360.637 315.48 354.859C316.108 348.93 318.018 343.152 321.007 338.002C323.62 333.505 327.036 329.536 330.955 326.144C334.849 322.778 339.195 319.964 343.717 317.528C347.913 315.267 352.259 313.408 356.58 311.423C364.267 307.906 372.005 303.962 378.285 298.209C381.225 295.496 383.812 292.33 385.345 288.612C386.852 284.944 387.078 280.925 386.048 277.106C385.948 276.704 385.822 276.302 385.696 275.9C385.696 274.669 385.897 273.438 386.927 272.66C387.706 272.082 388.661 271.831 389.565 271.605C390.671 271.328 391.801 271.102 392.957 271.052C393.962 271.002 395.017 271.077 395.846 271.68C396.021 271.806 396.172 271.956 396.323 272.132C396.197 272.157 396.072 272.258 396.072 272.358C396.298 277.332 397.479 282.558 400.594 286.577C403.709 290.597 408.432 293.26 413.029 295.194C417.802 297.179 422.877 298.41 427.901 299.591C433.303 300.847 438.704 302.128 444.055 303.56C455.033 306.524 465.785 310.443 475.256 316.849C483.748 322.602 491.385 329.988 496.459 338.982C502.212 349.181 503.77 361.315 501.66 372.771V372.796Z" fill="white"/>
<path d="M323.268 382.267C323.268 382.267 323.092 382.267 323.017 382.216C321.208 381.513 320.002 379.754 319.148 378.297C318.169 376.614 317.34 374.68 316.536 372.218C314.727 366.565 314.124 360.687 314.752 354.783C315.38 348.804 317.34 342.875 320.379 337.625C322.917 333.253 326.308 329.184 330.478 325.566C334.096 322.426 338.316 319.587 343.366 316.849C346.682 315.065 350.149 313.508 353.49 312C354.42 311.573 355.349 311.171 356.279 310.744C363.765 307.328 371.578 303.358 377.783 297.63C381.024 294.666 383.335 291.526 384.667 288.285C386.099 284.793 386.325 280.975 385.345 277.231C385.244 276.829 385.119 276.453 384.993 276.076C384.993 276 384.968 275.925 384.968 275.875C384.968 274.091 385.445 272.835 386.475 272.056C387.405 271.353 388.535 271.076 389.364 270.876C390.244 270.649 391.55 270.373 392.881 270.298C393.962 270.273 395.193 270.298 396.223 271.076C396.449 271.252 396.65 271.428 396.826 271.654C396.976 271.855 397.027 272.106 396.951 272.333C396.901 272.458 396.851 272.559 396.75 272.634C397.052 278.236 398.509 282.783 401.096 286.125C403.659 289.441 407.628 292.179 413.255 294.515C417.928 296.45 422.902 297.681 428.027 298.861C433.504 300.143 438.855 301.399 444.206 302.856C457.42 306.448 467.419 310.694 475.633 316.246C485.079 322.627 492.264 330.163 497.037 338.63C502.665 348.603 504.549 360.787 502.313 372.896C502.137 373.901 501.911 374.881 501.685 375.86C501.61 376.137 501.383 376.363 501.107 376.388C500.831 376.438 500.529 376.313 500.379 376.061C499.751 375.082 499.223 374.052 498.695 373.072C498.218 372.167 497.741 371.238 497.188 370.384C495.907 368.349 493.972 366.44 491.41 364.756C486.034 361.189 479.452 360.059 474.98 359.531C465.409 358.401 455.661 359.481 446.215 360.536L444.909 360.687C438.277 361.415 431.167 362.094 424.108 361.943C418.305 361.817 410.819 361.239 404.412 357.923C401.473 356.416 399.112 354.482 397.378 352.145C396.8 351.366 396.273 350.537 395.821 349.633C395.695 349.457 395.544 349.281 395.394 349.055C395.142 349.482 394.891 349.859 394.64 350.211C394.439 350.613 394.238 351.015 394.012 351.392C392.253 354.406 390.143 356.743 387.731 358.35C382.632 361.717 376.125 361.767 371 361.415C369.443 361.315 367.885 361.164 366.353 360.988C364.996 360.837 363.665 360.712 362.308 360.611C358.942 360.36 355.927 360.31 353.113 360.435C346.029 360.787 340.301 362.32 335.653 365.184C333.066 366.766 330.629 369.002 328.644 371.59C327.665 372.871 326.886 374.177 326.333 375.484C325.982 376.288 325.705 377.167 325.429 377.996C325.203 378.699 324.952 379.403 324.7 380.081C324.449 380.734 324.173 381.312 323.871 381.839C323.746 382.066 323.494 382.216 323.243 382.216L323.268 382.267ZM386.425 275.799C386.551 276.176 386.651 276.553 386.752 276.93C387.832 280.975 387.581 285.12 386.023 288.888C384.616 292.305 382.179 295.621 378.788 298.736C372.432 304.589 364.519 308.609 356.907 312.076C355.977 312.503 355.048 312.93 354.118 313.332C350.802 314.839 347.36 316.397 344.094 318.13C339.12 320.818 335 323.607 331.458 326.671C327.413 330.189 324.122 334.108 321.661 338.353C318.721 343.428 316.837 349.156 316.209 354.934C315.606 360.636 316.184 366.314 317.917 371.766C318.671 374.127 319.45 375.961 320.379 377.544C321.007 378.624 321.836 379.88 322.942 380.558C323.092 380.257 323.243 379.93 323.369 379.578C323.62 378.9 323.846 378.222 324.072 377.544C324.349 376.664 324.65 375.785 325.027 374.906C325.63 373.499 326.459 372.092 327.514 370.71C329.599 367.972 332.162 365.611 334.925 363.927C339.773 360.938 345.727 359.33 353.063 358.978C355.927 358.828 358.992 358.903 362.434 359.154C363.79 359.255 365.172 359.405 366.528 359.531C368.061 359.682 369.593 359.858 371.126 359.958C376.025 360.285 382.23 360.26 386.953 357.119C389.138 355.662 391.148 353.426 392.781 350.638C393.007 350.261 393.208 349.859 393.409 349.482C393.409 349.432 393.459 349.407 393.484 349.357C393.911 348.804 394.313 348.126 394.715 347.297C394.841 347.045 395.067 346.895 395.343 346.895C395.595 346.895 395.871 347.02 395.997 347.246C396.348 347.849 396.7 348.377 397.052 348.854C397.554 349.809 398.031 350.563 398.559 351.291C400.167 353.452 402.378 355.235 405.116 356.667C411.271 359.833 418.556 360.385 424.183 360.511C431.167 360.662 438.202 360.008 444.784 359.28L446.09 359.129C455.611 358.074 465.459 356.969 475.181 358.124C479.804 358.677 486.612 359.833 492.239 363.601C494.952 365.41 497.037 367.445 498.419 369.655C498.997 370.56 499.499 371.514 499.977 372.444C500.203 372.896 500.454 373.348 500.705 373.8C500.781 373.424 500.856 373.047 500.931 372.67C503.092 360.888 501.283 349.055 495.806 339.358C491.134 331.093 484.074 323.732 474.829 317.477C466.765 312 456.917 307.805 443.829 304.263C438.478 302.806 433.152 301.549 427.701 300.293C422.525 299.088 417.501 297.857 412.703 295.872C406.849 293.435 402.679 290.546 399.966 287.029C397.152 283.386 395.595 278.462 395.293 272.408C395.293 272.358 395.293 272.282 395.293 272.232C394.615 271.78 393.736 271.73 392.932 271.78C392.002 271.805 390.997 271.981 389.691 272.307C388.761 272.534 387.932 272.76 387.304 273.262C386.651 273.765 386.35 274.568 386.35 275.825L386.425 275.799Z" fill="black"/>
<path d="M70.5167 179.707C89.5592 177.798 105.034 163.278 115.761 150.892C126.489 138.507 131.011 136.372 136.964 134.463C142.918 132.553 149.098 132.553 152.44 121.851C135.306 120.419 131.714 124.238 110.762 139.939C89.8104 155.666 70.0394 157.55 58.6088 160.891C56.3981 161.544 54.6647 162.197 53.2579 162.851C55.1922 162.398 56.2976 162.047 56.2976 162.047C56.2976 162.047 52.1274 167.624 52.3786 174.306C53.9362 178.049 58.6591 180.059 70.5167 179.682V179.707Z" fill="white"/>
<path d="M67.8534 180.461C58.307 180.461 53.4333 178.652 51.725 174.582C51.6999 174.507 51.6748 174.407 51.6748 174.331C51.4989 169.583 53.4333 165.413 54.6894 163.227C54.3126 163.328 53.9106 163.428 53.4333 163.529C53.0816 163.604 52.7048 163.403 52.5792 163.077C52.4536 162.725 52.6294 162.348 52.956 162.197C54.4884 161.469 56.3224 160.816 58.4075 160.188C60.6936 159.509 63.3816 158.881 66.2204 158.228C77.8017 155.54 93.6788 151.822 110.335 139.336L114.605 136.121C131.714 123.208 136.311 119.741 152.489 121.098C152.716 121.098 152.891 121.223 153.017 121.399C153.143 121.575 153.168 121.801 153.117 122.002C150.153 131.523 144.877 132.955 139.753 134.362C138.898 134.588 138.019 134.839 137.165 135.116C131.286 137 126.94 139.035 116.289 151.345C100.688 169.382 85.7151 178.878 70.5665 180.411C70.5665 180.411 70.5414 180.411 70.5163 180.411C69.5868 180.436 68.6824 180.461 67.8282 180.461H67.8534ZM53.1067 174.155C54.7397 177.798 60.0907 179.28 70.4912 178.979C85.2629 177.497 99.8839 168.151 115.233 150.415C126.111 137.854 130.809 135.668 136.738 133.759C137.617 133.483 138.496 133.232 139.376 133.006C144.174 131.699 148.696 130.468 151.459 122.479C136.562 121.374 132.316 124.59 115.46 137.301L111.189 140.517C94.2817 153.179 78.2539 156.922 66.547 159.66C63.7333 160.313 61.0704 160.941 58.8094 161.594C58.1814 161.77 57.5784 161.971 57.0006 162.147C57.0006 162.273 56.9504 162.373 56.875 162.474C56.8248 162.524 52.9309 167.85 53.1067 174.155Z" fill="black"/>
<path d="M58.4569 170.538C63.5316 175.06 81.0667 171.241 92.3465 162.348C103.651 153.455 121.161 136.12 132.115 130.418C140.857 125.846 145.856 124.012 148.645 121.625C134.627 121.098 130.08 125.469 110.761 139.964C90.0604 155.49 70.5155 157.55 59.0347 160.79C57.2008 163.403 55.1408 167.624 58.4318 170.563L58.4569 170.538Z" fill="white"/>
<path d="M65.5165 173.175C62.2758 173.175 59.5877 172.497 57.9548 171.065C55.1411 168.578 55.317 164.76 58.4321 160.338C58.5326 160.213 58.6582 160.112 58.834 160.062C61.0197 159.434 63.557 158.856 66.2199 158.228C77.8012 155.54 93.6532 151.847 110.334 139.336L114.58 136.146C130.658 124.037 135.532 120.369 148.696 120.871C148.997 120.871 149.248 121.072 149.349 121.349C149.449 121.625 149.349 121.927 149.148 122.128C147.289 123.735 144.575 125.067 140.455 127.051C138.169 128.157 135.582 129.413 132.492 131.021C125.307 134.764 115.007 143.808 105.913 151.771C101.14 155.942 96.6427 159.886 92.8241 162.901C84.7851 169.231 73.4551 173.175 65.5416 173.175H65.5165ZM58.9345 170.01C64.2855 174.783 82.3482 169.332 91.9197 161.795C95.7132 158.806 100.21 154.887 104.933 150.716C114.077 142.702 124.453 133.608 131.788 129.79C134.904 128.157 137.516 126.901 139.802 125.795C142.691 124.389 144.877 123.333 146.51 122.303C135.381 122.303 130.281 126.147 115.434 137.351L111.188 140.542C94.2812 153.229 78.2534 156.947 66.5465 159.685C63.984 160.288 61.5723 160.841 59.4872 161.418C57.6784 164.056 56.1962 167.598 58.9345 170.035V170.01Z" fill="black"/>
<path d="M115.082 142.728C112.771 144.16 110.535 145.743 108.299 147.275C104.431 149.913 100.21 152.048 95.9393 153.932C93.7034 154.937 91.4173 155.842 89.1312 156.721C87.3476 157.399 85.5639 158.128 83.73 158.63C81.6951 159.208 79.61 159.585 77.55 159.987C72.199 161.092 66.647 162.147 61.698 164.534C59.9394 165.388 58.1558 166.468 56.9248 168.001C57.1509 168.88 57.6533 169.734 58.5075 170.488C63.5821 175.01 81.1173 171.191 92.3971 162.298C98.9288 157.148 107.546 149.184 115.761 142.276C115.534 142.401 115.308 142.552 115.107 142.678L115.082 142.728Z" fill="white"/>
<path d="M65.5165 173.176C62.2758 173.176 59.5877 172.497 57.9548 171.066C57.0504 170.262 56.4475 169.307 56.1711 168.227C56.1209 168.001 56.1711 167.775 56.2967 167.599C57.4272 166.217 59.0099 165.036 61.3211 163.931C66.1194 161.62 71.4704 160.514 76.6204 159.484L78.58 159.082C80.2129 158.756 81.8961 158.429 83.4787 157.977C84.9358 157.575 86.3929 156.997 87.8249 156.47L88.8297 156.093C91.3168 155.163 93.5276 154.259 95.6127 153.329C100.637 151.094 104.531 149.008 107.872 146.722L109.53 145.592C111.213 144.436 112.922 143.23 114.705 142.15L115.359 141.748C115.685 141.547 116.087 141.648 116.313 141.949C116.539 142.251 116.489 142.678 116.188 142.929C112.771 145.793 109.279 148.858 105.888 151.822C101.114 155.992 96.6176 159.936 92.799 162.951C84.76 169.282 73.4299 173.226 65.5165 173.226V173.176ZM57.6784 168.227C57.9297 168.905 58.3316 169.483 58.9345 170.01C64.2855 174.758 82.3483 169.332 91.9197 161.795C95.7132 158.806 100.21 154.887 104.958 150.717C105.511 150.239 106.063 149.737 106.641 149.26C103.702 151.094 100.336 152.827 96.2407 154.636C94.1305 155.565 91.8946 156.495 89.3824 157.424L88.3775 157.801C86.9205 158.354 85.4383 158.932 83.9058 159.359C82.2478 159.811 80.5395 160.163 78.8814 160.489L76.9219 160.891C71.8472 161.921 66.5968 163.001 61.9743 165.237C60.0399 166.167 58.6582 167.121 57.6784 168.227Z" fill="black"/>
<path d="M338.945 69.8737C326.535 60.4781 317.742 53.3937 316.913 44.0483C315.004 22.7699 341.407 18.6499 349.999 19.1272C358.59 19.6046 353.089 12.696 346.431 9.10355C318.772 -6.87406 264.86 0.86352 230.091 25.6087C230.091 25.6087 308.447 46.7363 338.92 69.8737H338.97H338.945Z" fill="white"/>
<path d="M338.895 70.6024C338.744 70.6024 338.593 70.5522 338.467 70.4517C308.447 47.666 230.669 26.5133 229.89 26.3123C229.614 26.237 229.413 26.0109 229.363 25.7596C229.312 25.4833 229.438 25.207 229.664 25.0562C264.433 0.285908 319.149 -7.45167 346.758 8.50081C351.405 10.9879 355.777 15.1833 355.023 17.8713C354.596 19.3535 352.888 20.0318 349.948 19.856C345.426 19.6299 330.705 20.7855 322.59 29.1762C318.772 33.1204 317.089 38.1197 317.616 43.9731C318.395 52.7909 326.359 59.4231 339.372 69.2961C339.573 69.4468 339.673 69.6729 339.648 69.9242C339.648 70.1754 339.472 70.3764 339.271 70.502H339.221C339.221 70.502 338.995 70.6024 338.895 70.6024ZM231.724 25.3326C241.321 28.0206 295.559 43.5711 327.514 61.6841C320.756 55.7805 316.762 50.5551 316.184 44.0987C315.632 37.7931 317.415 32.4421 321.56 28.1714C329.147 20.3333 343.065 18.0221 350.024 18.3989C352.134 18.4994 353.44 18.1728 353.641 17.4443C354.043 15.9621 350.828 12.2691 346.079 9.73179C319.199 -5.79362 266.166 1.54201 231.724 25.3326Z" fill="black"/>
<path d="M395.016 126.901C376.501 97.6843 354.771 81.8826 338.944 69.8491H338.894C308.421 46.7369 230.065 25.6092 230.065 25.6092C168.164 19.9065 110.057 20.8361 78.1522 57.9915C46.2473 95.147 56.8739 115.42 56.8739 115.42C41.8258 129.087 33.5606 128.057 17.6835 131.348C9.61935 133.006 1.8064 137.653 1.53006 146.798C1.30396 153.581 6.15251 159.912 12.4833 162.047C28.9382 167.599 46.4231 164.484 53.2814 162.851C54.6883 162.198 56.4217 161.545 58.6324 160.891C70.0629 157.55 89.834 155.641 110.786 139.94C131.737 124.213 135.305 120.42 152.463 121.852C149.122 132.579 142.942 132.579 136.988 134.463C131.034 136.347 126.512 138.508 115.785 150.893C105.058 163.278 89.5827 177.798 70.5402 179.708C58.6827 180.085 53.9848 178.05 52.4021 174.332C52.4524 176.04 52.8041 177.824 53.5829 179.607C57.4266 188.375 72.2234 193.022 85.9149 184.807C109.756 194.128 148.117 189.204 148.117 189.204C148.117 189.204 166.758 206.739 191.126 213.874C226.749 225.103 263.377 221.762 312.013 233.042C366.98 248.442 379.591 298.384 386.475 311.674C393.358 324.963 394.991 339.685 408.959 297.153C422.299 252.059 428.001 179.055 394.991 126.977L395.016 126.901Z" fill="white"/>
<path d="M395.092 326.018C392.404 326.018 390.621 322.099 388.335 317.15C387.556 315.442 386.752 313.708 385.848 311.95C384.843 310.015 383.712 307.277 382.406 304.112C374.668 285.496 358.565 246.758 311.838 233.669C288.701 228.318 268.678 226.309 249.309 224.374C228.885 222.339 209.617 220.405 190.926 214.501C168.19 207.869 150.203 192.017 147.892 189.907C144.073 190.359 108.576 194.228 85.9911 185.561C78.8062 189.756 70.6666 190.887 63.6073 188.626C58.5578 187.018 54.689 183.827 52.9556 179.833C52.2019 178.125 51.8 176.266 51.7246 174.306C51.7246 173.954 51.9507 173.653 52.2773 173.578C52.629 173.502 52.9556 173.678 53.0812 174.005C54.6639 177.748 60.04 179.28 70.541 178.954C85.2625 177.472 99.9087 168.126 115.258 150.39C126.136 137.829 130.834 135.643 136.763 133.734C137.642 133.458 138.521 133.207 139.4 132.98C144.199 131.674 148.721 130.443 151.484 122.454C136.587 121.349 132.341 124.565 115.484 137.276L111.214 140.492C94.3064 153.153 78.2786 156.897 66.5717 159.635C63.7581 160.288 61.0951 160.916 58.8342 161.569C56.8244 162.147 55.0407 162.8 53.5837 163.504C53.5334 163.504 53.4832 163.554 53.4329 163.554C46.5997 165.187 28.8887 168.352 12.2328 162.725C5.37449 160.414 0.55106 153.706 0.777158 146.772C1.02838 138.658 7.13303 132.805 17.5084 130.644C20.4226 130.041 23.0101 129.589 25.5475 129.162C36.6765 127.253 44.0624 125.971 55.9954 115.244C54.5132 111.803 48.1071 91.8557 77.6003 57.539C110.284 19.5043 170.225 19.3787 230.141 24.9055C231.046 25.1316 308.823 46.2843 339.171 69.1956C339.246 69.1956 339.322 69.2459 339.372 69.2961L341.256 70.7281C356.656 82.3847 377.758 98.3623 395.62 126.524C428.128 177.773 423.505 250.551 409.663 297.304C401.926 320.893 398.308 325.842 395.243 326.018C395.193 326.018 395.143 326.018 395.092 326.018ZM148.093 188.45C148.269 188.45 148.444 188.525 148.595 188.651C148.771 188.827 167.386 206.161 191.328 213.145C209.893 218.998 229.111 220.933 249.435 222.968C268.854 224.902 288.902 226.912 312.165 232.313C359.595 245.602 375.874 284.768 383.712 303.584C385.018 306.724 386.149 309.438 387.129 311.297C388.058 313.08 388.862 314.839 389.641 316.572C391.55 320.742 393.359 324.636 395.168 324.586C398.861 324.385 404.438 308.684 408.307 296.876C422.048 250.426 426.646 178.15 394.414 127.303C376.678 99.342 355.726 83.4649 340.402 71.8837L338.668 70.5773C338.668 70.5773 338.518 70.5271 338.467 70.4768C308.447 47.6912 230.669 26.5384 229.89 26.3375C170.476 20.8609 110.937 20.9614 78.7057 58.4936C47.5544 94.7447 57.4273 114.918 57.5278 115.119C57.6785 115.42 57.6032 115.772 57.3771 115.973C44.9166 127.303 36.9026 128.685 25.8238 130.594C23.3116 131.021 20.724 131.473 17.835 132.076C13.2628 133.031 2.58594 136.347 2.23424 146.848C2.03326 153.153 6.42961 159.283 12.7101 161.393C28.9641 166.895 46.2731 163.805 53.0561 162.197C54.5634 161.494 56.3722 160.841 58.4322 160.238C60.7183 159.56 63.4064 158.931 66.2451 158.278C77.8264 155.59 93.7035 151.872 110.359 139.387L114.63 136.171C131.738 123.258 136.336 119.791 152.514 121.148C152.74 121.148 152.916 121.274 153.042 121.449C153.167 121.625 153.192 121.851 153.142 122.052C150.178 131.574 144.902 133.006 139.777 134.412C138.923 134.638 138.044 134.89 137.19 135.166C131.311 137.05 126.965 139.085 116.313 151.395C100.713 169.432 85.7398 178.929 70.5913 180.461C61.6729 180.737 56.2717 179.732 53.4832 177.145C53.659 177.899 53.9102 178.627 54.2117 179.356C55.7944 182.948 59.3617 185.862 64.0093 187.344C70.7922 189.505 78.6303 188.374 85.5389 184.229C85.7147 184.104 85.9659 184.104 86.1669 184.179C109.556 193.324 147.641 188.575 148.017 188.525C148.042 188.525 148.068 188.525 148.118 188.525L148.093 188.45Z" fill="black"/>
<path d="M127.693 187.848C127.693 187.848 131.713 254.471 171.732 245.905C166.959 233.294 166.959 218.044 175.551 203.524C175.551 203.524 162.261 171.719 127.718 187.873L127.693 187.848Z" fill="white"/>
<path d="M164.875 247.361C158.871 247.361 153.444 245.528 148.671 241.91C129.578 227.415 127.091 189.48 126.991 187.898C126.991 187.596 127.141 187.32 127.393 187.194C138.371 182.069 148.37 181.19 157.137 184.582C170.427 189.706 175.979 202.695 176.205 203.247C176.305 203.448 176.28 203.699 176.155 203.9C168.467 216.914 167.136 231.736 172.386 245.678C172.462 245.879 172.436 246.08 172.336 246.281C172.235 246.457 172.06 246.583 171.859 246.633C169.447 247.161 167.111 247.412 164.85 247.412L164.875 247.361ZM128.448 188.3C128.8 192.822 132.116 227.54 149.525 240.78C155.554 245.352 162.689 246.909 170.753 245.352C165.729 231.359 167.136 216.537 174.723 203.448C173.768 201.413 168.166 190.36 156.61 185.888C148.344 182.697 138.873 183.501 128.448 188.274V188.3Z" fill="black"/>
<path d="M323.796 156.042C292.268 136.824 256.393 145.29 225.895 151.696C195.397 158.102 187.961 148.631 172.134 130.669C167.059 124.916 159.799 122.68 152.187 122.555C148.796 132.528 142.766 132.603 136.963 134.463C131.009 136.372 126.487 138.507 115.76 150.892C105.033 163.277 89.558 177.798 70.5155 179.707C58.6579 180.084 53.9601 178.049 52.3774 174.331C52.4277 176.039 52.7794 177.823 53.5582 179.607C57.4018 188.374 72.1987 193.022 85.8902 184.807C109.731 194.127 148.092 189.203 148.092 189.203C148.092 189.203 166.733 206.739 191.101 213.873C226.724 225.103 263.352 221.762 311.988 233.041C366.955 248.441 379.567 298.384 386.45 311.673C391.475 321.37 393.71 331.821 399.966 320.24C398.232 302.227 394.916 273.789 389.565 249.999C380.999 211.889 355.274 175.311 323.746 156.093L323.796 156.042Z" fill="white"/>
<path d="M395.093 326.018C395.093 326.018 395.043 326.018 394.992 326.018C392.355 325.943 390.571 322.049 388.335 317.15C387.556 315.467 386.752 313.708 385.848 311.95C384.843 310.015 383.713 307.277 382.406 304.112C374.669 285.496 358.565 246.758 311.839 233.669C288.701 228.318 268.679 226.309 249.31 224.374C228.886 222.339 209.617 220.405 190.926 214.501C168.191 207.869 150.203 192.017 147.892 189.907C144.074 190.359 108.576 194.228 85.9915 185.561C78.8066 189.756 70.6671 190.887 63.6078 188.626C58.5583 187.018 54.6895 183.827 52.9561 179.833C52.2024 178.125 51.8005 176.266 51.7251 174.306C51.7251 173.954 51.9512 173.653 52.2778 173.577C52.6295 173.502 52.9561 173.678 53.0817 174.005C54.6644 177.748 60.0405 179.28 70.5415 178.954C85.263 177.471 99.9091 168.126 115.259 150.39C126.137 137.829 130.834 135.643 136.763 133.734C137.642 133.458 138.522 133.206 139.376 132.98C144.199 131.674 148.771 130.418 151.535 122.278C151.635 121.977 151.912 121.801 152.213 121.801C160.905 121.927 167.99 124.816 172.688 130.142L173.843 131.473C188.866 148.531 196.428 157.097 225.745 150.943L228.785 150.289C259.082 143.883 293.449 136.648 324.173 155.364C355.802 174.633 381.753 211.688 390.32 249.722C395.595 273.111 398.886 300.896 400.72 320.064C400.72 320.215 400.72 320.34 400.645 320.466C398.61 324.234 396.877 325.943 395.093 325.943V326.018ZM148.093 188.45C148.269 188.45 148.445 188.525 148.596 188.651C148.771 188.827 167.387 206.161 191.328 213.145C209.893 218.998 229.112 220.933 249.435 222.967C268.855 224.902 288.902 226.912 312.165 232.313C359.595 245.602 375.875 284.768 383.713 303.584C385.019 306.724 386.149 309.437 387.129 311.296C388.059 313.08 388.863 314.839 389.641 316.547C391.526 320.642 393.309 324.511 395.043 324.561H395.068C395.847 324.561 397.203 323.757 399.238 320.039C397.404 300.921 394.113 273.337 388.888 250.099C380.397 212.416 354.697 175.738 323.395 156.645C293.173 138.206 259.107 145.391 229.061 151.746L226.022 152.4C195.875 158.73 187.66 149.41 172.738 132.478L171.582 131.146C167.186 126.147 160.805 123.509 152.665 123.283C149.626 131.699 144.601 133.081 139.702 134.412C138.848 134.638 137.994 134.89 137.14 135.141C131.261 137.025 126.915 139.06 116.264 151.37C100.663 169.407 85.6901 178.903 70.5415 180.436C61.6232 180.712 56.2219 179.707 53.4334 177.12C53.6092 177.873 53.8605 178.602 54.1619 179.33C55.7446 182.923 59.3119 185.837 63.9595 187.319C70.7425 189.48 78.5805 188.349 85.4891 184.204C85.6649 184.079 85.9162 184.079 86.1171 184.154C109.506 193.298 147.591 188.55 147.968 188.5C147.993 188.5 148.018 188.5 148.068 188.5L148.093 188.45Z" fill="black"/>
<path d="M143.973 99.5932C143.973 99.5932 146.184 89.3434 156.433 88.3887C164.07 87.5095 169.472 92.157 169.472 92.157C169.472 92.157 151.057 76.079 143.948 99.5932H143.973Z" fill="black"/>
<path d="M157.438 110.446C162.627 110.446 166.834 106.701 166.834 102.08C166.834 97.4603 162.627 93.7148 157.438 93.7148C152.249 93.7148 148.042 97.4603 148.042 102.08C148.042 106.701 152.249 110.446 157.438 110.446Z" fill="black"/>
<path d="M165.929 102.081C165.929 106.251 162.135 109.617 157.438 109.617C152.74 109.617 148.946 106.251 148.946 102.081C148.946 97.9103 152.74 94.5439 157.438 94.5439C162.135 94.5439 165.929 97.9103 165.929 102.081Z" fill="white"/>
<path d="M163.844 102.081C163.844 105.221 160.98 107.783 157.438 107.783C153.896 107.783 151.032 105.246 151.032 102.081C151.032 98.9153 153.896 96.3779 157.438 96.3779C160.98 96.3779 163.844 98.9153 163.844 102.081Z" fill="black"/>
<path d="M152.413 100.397C150.981 100.246 150.278 102.583 150.203 103.512C150.203 103.789 150.203 104.09 150.303 104.341C150.755 105.271 151.911 104.718 152.413 104.14C152.765 103.738 153.016 103.261 153.192 102.784C153.393 102.306 153.519 101.729 153.343 101.226C153.217 100.824 152.84 100.447 152.388 100.397H152.413Z" fill="white"/>
<path d="M159.473 97.8349C159.473 98.9905 158.418 99.92 157.137 99.92C155.855 99.92 154.8 98.9905 154.8 97.8349C154.8 96.6793 155.855 95.7498 157.137 95.7498C158.418 95.7498 159.473 96.6793 159.473 97.8349Z" fill="white"/>
<path d="M177.988 182.22C177.988 182.22 191.152 230.404 213.711 254.22C236.246 278.035 260.061 286.929 281.666 287.883C268.327 278.663 259.383 258.666 258.479 239.297C257.524 218.672 239.738 152.3 177.988 182.22Z" fill="white"/>
<path d="M281.667 288.611H281.641C256.469 287.506 233.432 276.101 213.209 254.722C190.8 231.057 177.46 182.898 177.31 182.421C177.209 182.094 177.385 181.742 177.686 181.592C197.458 172.02 214.54 171.367 228.458 179.657C251.947 193.625 258.68 228.268 259.207 239.297C260.137 259.219 269.306 278.512 282.068 287.305C282.32 287.481 282.445 287.833 282.345 288.134C282.244 288.436 281.968 288.611 281.667 288.611ZM178.842 182.622C180.425 188.148 193.388 231.735 214.214 253.742C233.533 274.166 255.414 285.346 279.28 287.029C267.196 277.432 258.63 258.641 257.75 239.347C257.248 228.52 250.666 194.529 227.704 180.888C214.34 172.95 197.91 173.527 178.842 182.622Z" fill="black"/>
<path d="M56.8745 115.446C58.2562 114.215 60.1153 113.587 61.9492 113.26C63.7831 112.933 65.6923 112.959 67.5514 113.21C69.4104 113.436 71.2192 113.913 73.0028 114.516C74.7865 115.119 76.4697 115.797 78.2282 116.275C85.2624 118.209 92.6734 118.661 99.9839 118.36C107.32 118.109 114.63 117.154 121.564 114.767C125.056 113.637 128.497 112.255 132.14 111.376C135.758 110.497 139.551 110.296 143.194 110.873C141.36 110.748 139.501 110.748 137.692 110.949C135.858 111.15 134.074 111.552 132.316 112.054C128.799 113.059 125.407 114.541 121.915 115.797C118.449 117.104 114.806 118.058 111.113 118.661C107.445 119.264 103.727 119.641 100.009 119.792C96.291 119.892 92.5729 119.792 88.8549 119.44C85.1619 119.063 81.4439 118.46 77.8765 117.305C76.0929 116.777 74.3594 115.998 72.6763 115.345C70.968 114.717 69.2094 114.19 67.4258 113.888C65.6421 113.562 63.8082 113.411 61.9994 113.612C60.2157 113.838 58.3818 114.315 56.8745 115.421V115.446Z" fill="black"/>
<path d="M152.313 188.198C155.805 188.274 159.297 187.897 162.689 187.194C166.08 186.515 169.421 185.485 172.587 184.104C173.391 183.777 174.169 183.4 174.923 182.998C175.702 182.621 176.455 182.219 177.209 181.767C178.691 180.938 180.249 179.984 181.832 179.205C184.997 177.597 188.363 176.391 191.805 175.537C195.247 174.733 198.764 174.18 202.306 174.105C205.848 174.005 209.39 174.105 212.882 174.783C219.866 175.864 226.524 178.627 232.377 182.446C229.262 180.863 226.147 179.255 222.806 178.25C221.198 177.622 219.464 177.27 217.806 176.768C216.098 176.466 214.415 176.014 212.681 175.864C205.823 174.909 198.789 175.236 192.106 176.944C188.74 177.723 185.474 178.853 182.384 180.386C179.344 181.893 176.33 183.903 172.989 185.134C166.407 187.721 159.272 188.902 152.288 188.198H152.313Z" fill="black"/>
<path d="M85.9155 185.184C91.0404 182.546 96.4919 180.611 102.019 179.029C104.782 178.25 107.596 177.572 110.435 177.069C113.248 176.517 116.137 176.19 119.001 175.989L110.686 178.15C107.922 178.878 105.159 179.607 102.421 180.41C96.919 181.943 91.4675 183.601 85.9407 185.184H85.9155Z" fill="black"/>
<path d="M146.686 98.4633C147.817 96.4284 149.575 94.7201 151.585 93.4138C153.595 92.1074 156.032 91.3538 158.468 91.3538C160.905 91.404 163.317 92.0321 165.377 93.263C166.457 93.7906 167.337 94.6196 168.291 95.2728C169.145 96.1018 169.974 96.9057 170.753 97.785C169.748 97.157 168.844 96.4787 167.889 95.8506L166.382 95.0216C165.879 94.7452 165.402 94.4438 164.875 94.2679C164.347 94.0669 163.845 93.8408 163.317 93.6399C162.789 93.4389 162.237 93.3635 161.709 93.2128L160.905 93.0118L160.076 92.9364C159.524 92.8862 158.996 92.7606 158.443 92.836C156.258 92.8108 154.097 93.4138 152.113 94.4186C151.133 94.9462 150.153 95.524 149.249 96.2274C148.319 96.8806 147.465 97.6594 146.661 98.5135L146.686 98.4633Z" fill="black"/>
<path d="M148.67 108.562C151.986 109.693 155.377 110.396 158.668 110.044C160.326 109.919 161.909 109.391 163.366 108.612C164.898 107.884 166.129 106.728 167.486 105.573C166.607 107.08 165.501 108.587 163.944 109.567C162.462 110.622 160.653 111.3 158.819 111.476C156.985 111.652 155.151 111.476 153.418 110.949C151.684 110.446 150.051 109.667 148.645 108.562H148.67Z" fill="black"/>
<path d="M104.883 55.5547C106.214 52.7661 108.4 50.4549 110.686 48.42C113.023 46.36 115.66 44.7019 118.374 43.2449C121.112 41.7878 124.001 40.6573 126.915 39.7278C128.397 39.2756 129.879 38.9239 131.362 38.5219C132.869 38.2456 134.376 37.9441 135.884 37.718C134.452 38.2456 132.995 38.6978 131.537 39.2002C130.106 39.7278 128.674 40.2051 127.267 40.7829C125.885 41.411 124.428 41.8632 123.096 42.5666L121.036 43.4961L119.027 44.5261C116.364 45.9078 113.776 47.4905 111.365 49.2993C110.159 50.2037 108.978 51.1583 107.923 52.2134C106.792 53.2183 105.787 54.3488 104.858 55.5798L104.883 55.5547Z" fill="black"/>
</svg>
