<svg width="201" height="153" viewBox="0 0 201 153" fill="none" xmlns="http://www.w3.org/2000/svg">
<path d="M50.522 74.706C50.522 74.706 52.122 101.226 68.052 97.816C66.152 92.796 66.152 86.726 69.572 80.946C69.572 80.946 64.282 68.286 50.532 74.716L50.522 74.706Z" fill="#004E7A"/>
<path d="M65.3222 98.396C62.9322 98.396 60.7722 97.666 58.8722 96.226C51.2722 90.456 50.2822 75.356 50.2422 74.726C50.2422 74.606 50.3022 74.496 50.4022 74.446C54.7722 72.406 58.7522 72.056 62.2422 73.406C67.5322 75.446 69.7422 80.616 69.8322 80.836C69.8722 80.916 69.8622 81.016 69.8122 81.096C66.7522 86.276 66.2222 92.176 68.3122 97.726C68.3422 97.806 68.3322 97.886 68.2922 97.966C68.2522 98.036 68.1822 98.086 68.1022 98.106C67.1422 98.316 66.2122 98.416 65.3122 98.416L65.3222 98.396ZM50.8222 74.886C50.9622 76.686 52.2822 90.506 59.2122 95.776C61.6122 97.596 64.4522 98.206 67.6622 97.596C65.6622 92.026 66.2222 86.126 69.2422 80.916C68.8622 80.106 66.6322 75.706 62.0322 73.926C58.7422 72.656 54.9722 72.976 50.8222 74.876V74.886Z" fill="#023349"/>
<g style="mix-blend-mode:multiply" opacity="0.49">
<path d="M69.5722 80.936C69.5722 80.936 64.2822 68.276 50.5322 74.706C50.5322 74.706 50.6122 76.086 50.9322 78.166C52.0222 77.716 53.5322 77.396 55.6022 77.486C60.8922 77.736 58.0722 88.676 65.7322 98.096C66.4722 98.066 67.2522 97.976 68.0622 97.806C66.1622 92.786 66.1622 86.716 69.5822 80.936H69.5722Z" fill="#004E7A"/>
</g>
<g style="mix-blend-mode:multiply" opacity="0.49">
<path d="M56.922 76.026C58.152 76.186 59.332 76.616 60.322 77.386C61.292 78.146 61.992 79.166 62.482 80.286C62.972 81.426 63.262 82.636 63.502 83.846C63.752 85.046 63.982 86.246 64.262 87.446C64.802 89.816 65.382 92.226 66.502 94.406C66.792 94.966 67.112 95.496 67.482 95.996C66.222 91.366 66.572 86.036 69.582 80.936C69.582 80.936 64.292 68.276 50.542 74.706C50.542 74.706 50.582 75.376 50.712 76.456C52.782 76.156 54.842 75.756 56.932 76.026H56.922Z" fill="#004E7A"/>
</g>
<g style="mix-blend-mode:screen">
<path d="M52.9922 78.5859C52.9922 78.5859 53.4122 89.7859 61.7622 96.3459C56.9022 95.2859 52.1422 86.1959 52.9922 78.5859Z" fill="#004E7A"/>
</g>
<path d="M198.702 136.246C197.012 132.476 194.152 129.316 190.902 126.816C187.342 124.086 183.262 122.266 178.982 120.976C176.802 120.316 174.592 119.776 172.382 119.246C170.362 118.766 168.322 118.346 166.342 117.716C164.392 117.096 162.492 116.256 160.882 114.966C159.742 114.056 158.932 112.866 158.392 111.546C158.462 111.486 158.512 111.396 158.502 111.326C158.332 110.486 158.502 109.616 158.332 108.776C158.262 108.406 158.102 108.056 157.812 107.806C157.472 107.506 157.022 107.416 156.582 107.406C156.072 107.396 155.562 107.476 155.072 107.586C154.642 107.686 154.192 107.806 153.802 108.016C153.372 108.256 153.082 108.596 152.922 108.996C152.842 108.976 152.712 109.066 152.742 109.146C152.772 109.216 152.792 109.296 152.812 109.366C152.782 109.526 152.772 109.696 152.782 109.876C152.802 110.296 152.892 110.716 152.972 111.136C153.052 111.546 153.102 111.976 153.222 112.376C153.192 112.956 153.092 113.526 152.922 114.096C152.472 115.586 151.542 116.876 150.462 117.966C148.092 120.356 144.992 121.946 141.972 123.356C140.302 124.136 138.612 124.856 136.982 125.716C135.142 126.696 133.362 127.796 131.752 129.116C130.152 130.426 128.722 131.956 127.602 133.696C126.332 135.646 125.462 137.846 125.042 140.126C124.592 142.596 124.692 145.166 125.362 147.586C125.572 148.326 125.812 149.066 126.122 149.766C126.452 150.536 126.852 151.316 127.482 151.896C127.732 152.126 128.032 152.306 128.372 152.386C128.512 152.416 128.652 152.346 128.722 152.226C129.442 151.126 129.602 149.776 130.292 148.656C130.972 147.546 131.932 146.566 133.002 145.816C135.022 144.396 137.552 143.866 139.982 143.736C141.232 143.666 142.492 143.706 143.742 143.796C144.902 143.886 146.052 144.046 147.202 144.126C149.482 144.286 151.882 144.176 153.902 143.006C154.962 142.386 155.832 141.476 156.512 140.466C156.712 140.176 156.892 139.866 157.062 139.556C157.642 140.616 158.492 141.506 159.492 142.166C161.682 143.636 164.422 144.116 167.012 144.286C169.832 144.476 172.662 144.266 175.472 143.976C179.082 143.606 182.682 143.076 186.322 143.196C187.572 143.236 188.832 143.346 190.062 143.576C191.252 143.796 192.452 144.086 193.562 144.566C194.582 145.016 195.532 145.626 196.352 146.386C197.172 147.146 197.672 148.086 198.192 149.056C198.442 149.516 198.702 149.966 199.022 150.376C199.162 150.556 199.492 150.396 199.542 150.206C200.792 145.626 200.662 140.576 198.692 136.206L198.702 136.246Z" fill="#175678"/>
<path d="M199.432 148.406C199.362 148.796 199.272 149.186 199.182 149.566C198.712 148.846 198.372 148.036 197.912 147.306C197.312 146.356 196.452 145.596 195.532 144.976C193.552 143.656 191.192 143.126 188.862 142.846C184.842 142.366 180.822 142.866 176.822 143.306C174.082 143.616 171.332 143.866 168.582 143.796C165.982 143.736 163.212 143.446 160.862 142.236C159.812 141.696 158.862 140.966 158.152 140.016C157.922 139.706 157.722 139.386 157.552 139.056C157.392 138.846 157.242 138.616 157.112 138.386C156.962 138.696 156.792 138.996 156.592 139.266C156.512 139.426 156.432 139.586 156.332 139.746C155.732 140.786 154.932 141.756 153.922 142.416C152.032 143.666 149.632 143.736 147.442 143.586C146.282 143.506 145.132 143.356 143.982 143.266C142.752 143.176 141.522 143.136 140.292 143.196C137.822 143.316 135.332 143.826 133.212 145.126C132.102 145.806 131.132 146.716 130.342 147.756C129.962 148.256 129.632 148.786 129.392 149.366C129.132 149.966 128.972 150.606 128.732 151.216C128.642 151.446 128.542 151.666 128.422 151.886C127.792 151.646 127.352 151.006 127.032 150.446C126.602 149.706 126.282 148.896 126.022 148.086C125.322 145.886 125.082 143.566 125.322 141.266C125.572 138.906 126.332 136.606 127.522 134.556C128.562 132.766 129.922 131.186 131.482 129.836C133.032 128.496 134.762 127.376 136.562 126.406C138.232 125.506 139.962 124.766 141.682 123.976C144.742 122.576 147.822 121.006 150.322 118.716C151.492 117.636 152.522 116.376 153.132 114.896C153.732 113.436 153.822 111.836 153.412 110.316C153.372 110.156 153.322 109.996 153.272 109.836C153.272 109.346 153.352 108.856 153.762 108.546C154.072 108.316 154.452 108.216 154.812 108.116C155.252 108.006 155.702 107.916 156.162 107.896C156.562 107.876 156.982 107.906 157.312 108.146C157.382 108.196 157.442 108.256 157.502 108.326C157.452 108.336 157.402 108.376 157.402 108.416C157.492 110.396 157.962 112.476 159.202 114.076C160.442 115.676 162.322 116.736 164.152 117.506C166.062 118.296 168.072 118.786 170.072 119.256C172.222 119.756 174.372 120.266 176.502 120.836C180.872 122.016 185.152 123.576 188.922 126.136C192.302 128.426 195.342 131.366 197.362 134.946C199.652 139.006 200.272 143.836 199.432 148.396V148.406Z" fill="#00BAE5"/>
<path d="M128.432 152.186C128.432 152.186 128.362 152.186 128.332 152.166C127.612 151.886 127.132 151.186 126.792 150.606C126.402 149.936 126.072 149.166 125.752 148.186C125.032 145.936 124.792 143.596 125.042 141.246C125.292 138.866 126.072 136.506 127.282 134.416C128.292 132.676 129.652 131.056 131.302 129.616C132.742 128.366 134.422 127.236 136.432 126.146C137.752 125.436 139.132 124.816 140.462 124.216C140.832 124.046 141.202 123.886 141.562 123.716C144.542 122.356 147.642 120.776 150.122 118.506C151.412 117.326 152.332 116.076 152.862 114.786C153.432 113.396 153.522 111.876 153.132 110.386C153.092 110.226 153.042 110.076 152.992 109.926C152.992 109.896 152.982 109.866 152.982 109.846C152.972 109.136 153.172 108.636 153.582 108.326C153.922 108.066 154.322 107.956 154.732 107.856C155.292 107.716 155.722 107.646 156.142 107.626C156.542 107.616 157.052 107.626 157.472 107.936C157.562 107.996 157.642 108.076 157.712 108.166C157.772 108.246 157.792 108.346 157.762 108.436C157.742 108.486 157.722 108.526 157.682 108.556C157.802 110.786 158.382 112.596 159.412 113.926C160.432 115.246 162.012 116.336 164.252 117.266C166.112 118.036 168.092 118.526 170.132 119.006C172.212 119.486 174.422 120.006 176.572 120.596C181.842 122.026 185.812 123.716 189.082 125.926C192.832 128.466 195.702 131.466 197.602 134.826C199.842 138.796 200.592 143.646 199.702 148.466C199.632 148.866 199.542 149.256 199.452 149.646C199.422 149.756 199.332 149.846 199.222 149.856C199.112 149.876 198.992 149.826 198.932 149.726C198.682 149.336 198.472 148.936 198.262 148.536C198.072 148.176 197.882 147.806 197.662 147.466C197.152 146.656 196.382 145.896 195.362 145.226C193.222 143.806 190.602 143.356 188.822 143.146C185.012 142.696 181.132 143.126 177.372 143.546L176.852 143.606C174.212 143.896 171.382 144.166 168.572 144.106C166.262 144.056 163.292 143.826 160.732 142.506C159.562 141.906 158.622 141.126 157.932 140.206C157.702 139.896 157.492 139.566 157.312 139.206C157.262 139.136 157.202 139.066 157.142 138.976C157.042 139.146 156.942 139.296 156.842 139.436C156.762 139.596 156.682 139.756 156.592 139.906C155.892 141.106 155.052 142.036 154.092 142.676C152.062 144.016 149.472 144.036 147.432 143.896C146.812 143.856 146.192 143.786 145.572 143.726C145.042 143.666 144.502 143.616 143.972 143.576C142.632 143.476 141.432 143.456 140.312 143.506C137.492 143.646 135.212 144.256 133.362 145.396C132.332 146.026 131.362 146.916 130.572 147.946C130.182 148.456 129.872 148.976 129.652 149.496C129.512 149.826 129.402 150.166 129.292 150.506C129.202 150.786 129.112 151.066 129.002 151.336C128.902 151.596 128.792 151.826 128.672 152.036C128.622 152.126 128.522 152.186 128.422 152.186H128.432ZM153.562 109.806C153.612 109.956 153.652 110.106 153.692 110.256C154.122 111.866 154.022 113.516 153.402 115.016C152.842 116.376 151.872 117.696 150.522 118.936C147.982 121.266 144.832 122.866 141.812 124.246C141.442 124.416 141.072 124.576 140.702 124.746C139.372 125.346 138.002 125.966 136.702 126.666C134.722 127.726 133.082 128.836 131.672 130.066C130.062 131.466 128.752 133.026 127.772 134.716C126.602 136.736 125.852 139.016 125.602 141.316C125.362 143.586 125.592 145.846 126.282 148.016C126.582 148.956 126.892 149.686 127.262 150.316C127.512 150.746 127.852 151.246 128.282 151.516C128.342 151.396 128.402 151.266 128.452 151.126C128.552 150.866 128.642 150.596 128.732 150.326C128.842 149.976 128.962 149.626 129.112 149.276C129.352 148.716 129.682 148.156 130.102 147.606C130.932 146.506 131.952 145.576 133.052 144.906C134.992 143.716 137.352 143.076 140.272 142.936C141.422 142.876 142.632 142.906 144.002 143.006C144.542 143.046 145.082 143.106 145.622 143.156C146.232 143.216 146.852 143.286 147.462 143.326C149.402 143.456 151.882 143.446 153.762 142.196C154.632 141.616 155.442 140.726 156.082 139.616C156.172 139.466 156.252 139.306 156.332 139.156C156.332 139.136 156.352 139.126 156.362 139.106C156.532 138.886 156.692 138.616 156.852 138.286C156.902 138.186 156.992 138.126 157.102 138.126C157.212 138.126 157.312 138.176 157.362 138.266C157.502 138.506 157.642 138.716 157.782 138.906C157.982 139.286 158.172 139.586 158.382 139.876C159.022 140.736 159.902 141.446 160.992 142.016C163.442 143.276 166.342 143.496 168.582 143.546C171.362 143.606 174.172 143.346 176.782 143.056L177.302 142.996C181.092 142.576 185.012 142.126 188.882 142.596C190.722 142.816 193.432 143.276 195.672 144.766C196.752 145.486 197.582 146.296 198.132 147.176C198.362 147.536 198.562 147.916 198.752 148.286C198.842 148.466 198.942 148.646 199.042 148.826C199.072 148.676 199.102 148.526 199.132 148.376C199.992 143.686 199.272 138.976 197.092 135.116C195.232 131.826 192.422 128.896 188.742 126.406C185.532 124.236 181.612 122.556 176.402 121.146C174.262 120.566 172.052 120.046 169.982 119.566C167.922 119.086 165.912 118.596 164.012 117.806C161.682 116.836 160.022 115.686 158.942 114.286C157.822 112.836 157.192 110.876 157.082 108.466C157.082 108.446 157.082 108.416 157.082 108.396C156.812 108.216 156.462 108.196 156.142 108.216C155.772 108.226 155.372 108.296 154.852 108.426C154.482 108.516 154.162 108.606 153.902 108.806C153.642 109.006 153.522 109.326 153.522 109.826L153.562 109.806Z" fill="#076A9B"/>
<g style="mix-blend-mode:screen">
<path d="M164.103 117.606C165.623 118.846 167.323 119.856 169.083 120.706C171.323 121.796 173.693 122.556 176.093 123.216C178.593 123.896 181.123 124.496 183.563 125.356C185.473 126.036 187.323 126.936 189.063 127.986C190.813 129.046 192.463 130.266 193.973 131.656C195.463 133.016 196.803 134.536 197.963 136.186C197.993 136.226 198.023 136.266 198.053 136.316C197.843 135.856 197.623 135.406 197.373 134.966C195.353 131.396 192.313 128.446 188.933 126.156C185.163 123.606 180.883 122.046 176.513 120.856C174.383 120.276 172.233 119.776 170.083 119.276C168.083 118.806 166.063 118.316 164.163 117.526C164.063 117.486 163.963 117.436 163.853 117.396C163.943 117.466 164.023 117.536 164.113 117.606H164.103Z" fill="#777A7F"/>
</g>
<g style="mix-blend-mode:screen">
<path d="M126.422 141.786C126.832 138.186 128.392 134.836 130.882 132.196C133.562 129.346 136.812 127.146 140.132 125.126C141.252 124.446 142.382 123.786 143.522 123.136C142.912 123.436 142.302 123.716 141.692 123.996C139.972 124.786 138.242 125.526 136.572 126.426C134.772 127.396 133.042 128.516 131.492 129.856C129.932 131.216 128.572 132.786 127.532 134.576C126.342 136.626 125.582 138.926 125.332 141.286C125.082 143.586 125.332 145.906 126.032 148.106C126.292 148.916 126.612 149.726 127.042 150.466C127.062 150.506 127.092 150.556 127.122 150.596C126.462 147.706 126.102 144.736 126.432 141.786H126.422Z" fill="#657EA6"/>
</g>
<g style="mix-blend-mode:multiply">
<path d="M129.363 149.476C129.833 148.186 130.513 146.986 131.463 145.956C134.743 142.376 140.033 141.586 144.643 141.356C147.303 141.226 149.983 141.226 152.493 140.216C153.633 139.756 154.693 139.086 155.503 138.146C156.433 137.066 156.923 135.696 157.103 134.296C157.113 134.196 157.233 134.156 157.303 134.246C158.323 135.686 159.163 137.326 160.493 138.516C162.093 139.936 164.363 140.466 166.443 140.696C170.403 141.126 174.403 140.476 178.363 140.396C182.073 140.316 185.863 140.426 189.443 141.526C191.153 142.046 192.813 142.796 194.233 143.886C194.643 144.206 195.033 144.546 195.413 144.916C195.453 144.946 195.503 144.966 195.543 144.996C196.473 145.616 197.323 146.376 197.923 147.326C198.383 148.056 198.723 148.866 199.193 149.586C199.283 149.196 199.373 148.816 199.443 148.426C199.703 147.006 199.823 145.556 199.793 144.116C199.133 141.256 197.773 138.586 196.033 136.236C194.193 133.756 191.913 131.596 189.393 129.826C187.093 128.216 184.603 126.956 181.953 126.036C180.113 125.396 178.233 124.856 176.373 124.306C174.343 123.706 172.323 123.086 170.343 122.366C168.423 121.656 166.523 120.856 164.753 119.806C163.163 118.856 161.663 117.706 160.523 116.236C160.043 115.626 159.643 114.956 159.323 114.266C159.283 114.226 159.253 114.176 159.213 114.136C157.973 112.536 157.503 110.456 157.413 108.476C157.413 108.436 157.463 108.396 157.513 108.386C157.463 108.316 157.403 108.266 157.323 108.206C156.993 107.966 156.573 107.936 156.173 107.956C155.723 107.976 155.263 108.066 154.823 108.176C154.453 108.266 154.073 108.366 153.773 108.606C153.363 108.916 153.273 109.416 153.283 109.896C153.333 110.056 153.383 110.216 153.423 110.376C153.803 111.796 153.753 113.286 153.253 114.666C153.283 115.676 153.043 116.676 152.593 117.606C151.803 119.226 150.513 120.566 149.163 121.726C147.623 123.056 145.923 124.196 144.183 125.246C142.503 126.256 140.773 127.186 139.043 128.096C137.703 128.806 136.313 129.466 135.043 130.296C133.133 131.536 131.443 133.116 130.063 134.926C128.703 136.696 127.633 138.676 126.923 140.796C126.243 142.846 125.913 145.026 126.043 147.186C126.073 147.676 126.133 148.166 126.203 148.656C126.433 149.296 126.703 149.926 127.043 150.516C127.373 151.076 127.813 151.706 128.433 151.956C128.553 151.736 128.653 151.516 128.743 151.286C128.973 150.706 129.133 150.106 129.363 149.536V149.476Z" fill="#049CB5"/>
</g>
<path d="M27.7727 71.4661C35.3527 70.7061 41.5127 64.9261 45.7827 59.9961C50.0527 55.0661 51.8527 54.2161 54.2227 53.4561C56.5927 52.6961 59.0527 52.6961 60.3827 48.4361C53.5627 47.8661 52.1327 49.3861 43.7927 55.6361C35.4527 61.8961 27.5827 62.6461 23.0327 63.9761C22.1527 64.2361 21.4627 64.4961 20.9027 64.7561C21.6727 64.5761 22.1127 64.4361 22.1127 64.4361C22.1127 64.4361 20.4527 66.6561 20.5527 69.3161C21.1727 70.8061 23.0527 71.6061 27.7727 71.4561V71.4661Z" fill="#00BAE5"/>
<path d="M26.7125 71.7661C22.9125 71.7661 20.9725 71.0461 20.2925 69.4261C20.2825 69.3961 20.2725 69.3561 20.2725 69.3261C20.2025 67.4361 20.9725 65.7761 21.4725 64.9061C21.3225 64.9461 21.1625 64.9861 20.9725 65.0261C20.8325 65.0661 20.6825 64.9761 20.6325 64.8461C20.5825 64.7061 20.6525 64.5561 20.7825 64.4961C21.3825 64.2061 22.1125 63.9461 22.9525 63.6961C23.8625 63.4261 24.9325 63.1761 26.0625 62.9161C30.6725 61.8461 36.9925 60.3661 43.6225 55.3961L45.3225 54.1161C52.1325 48.9761 53.9625 47.5961 60.4025 48.1361C60.4925 48.1361 60.5625 48.1861 60.6125 48.2561C60.6625 48.3261 60.6725 48.4161 60.6525 48.4961C59.4725 52.2861 57.3725 52.8561 55.3325 53.4161C54.9925 53.5061 54.6425 53.6061 54.3025 53.7161C51.9625 54.4661 50.2325 55.2761 45.9925 60.1761C39.7825 67.3561 33.8225 71.1361 27.7925 71.7461C27.7925 71.7461 27.7825 71.7461 27.7725 71.7461C27.4025 71.7561 27.0425 71.7661 26.7025 71.7661H26.7125ZM20.8325 69.2561C21.4825 70.7061 23.6125 71.2961 27.7525 71.1761C33.6225 70.5861 39.4525 66.8661 45.5625 59.8061C49.8925 54.8061 51.7625 53.9361 54.1225 53.1761C54.4725 53.0661 54.8225 52.9661 55.1725 52.8761C57.0825 52.3561 58.8825 51.8661 59.9825 48.6861C54.0525 48.2461 52.3625 49.5261 45.6525 54.5861L43.9525 55.8661C37.2225 60.9061 30.8425 62.3961 26.1825 63.4861C25.0625 63.7461 24.0025 63.9961 23.1025 64.2561C22.8525 64.3261 22.6125 64.4061 22.3825 64.4761C22.3825 64.5261 22.3625 64.5661 22.3325 64.6061C22.3125 64.6261 20.7625 66.7461 20.8325 69.2561Z" fill="#076A9B"/>
<g style="mix-blend-mode:screen">
<path d="M21.3727 67.606C21.3727 67.606 22.4526 71.126 31.5626 68.366C29.6026 70.366 20.6527 71.766 21.3727 67.606Z" fill="#A3BAE5"/>
</g>
<g style="mix-blend-mode:multiply">
<path d="M43.7825 55.6361C35.4425 61.8961 27.5725 62.6461 23.0225 63.9761C22.1425 64.2361 21.4525 64.4961 20.8925 64.7561C21.6625 64.5761 22.1025 64.4361 22.1025 64.4361C22.1025 64.4361 21.4625 65.2961 21.0025 66.5861C21.2725 66.6961 21.5325 66.8461 21.7625 67.0561C22.4125 67.6161 22.9225 68.2561 23.6925 68.6661C24.3725 69.0261 25.1225 69.1661 25.8825 69.1561C27.9325 69.1261 30.0225 68.4061 31.8725 67.5961C33.8925 66.7261 35.8125 65.5961 37.5925 64.3061C39.3225 63.0461 40.9125 61.5861 42.8125 60.5861C42.9425 60.5161 43.0925 60.5561 43.0925 60.7261C43.0825 61.6561 42.5725 62.5061 41.9925 63.1961C41.2725 64.0661 40.3825 64.7861 39.4725 65.4361C37.9225 66.5561 36.2325 67.4861 34.5125 68.3261C33.2225 68.9461 31.8925 69.5261 30.5025 69.8861C29.0625 70.2561 27.5425 70.4761 26.0525 70.5661C24.7525 70.6461 23.5025 70.5061 22.2725 70.0561C21.6625 69.8361 21.0825 69.5461 20.5225 69.2261C20.5225 69.2661 20.5225 69.2961 20.5225 69.3261C21.1425 70.8161 23.0225 71.6161 27.7425 71.4661C35.3225 70.7061 41.4825 64.9261 45.7525 59.9961C50.0225 55.0661 51.8225 54.2161 54.1925 53.4561C56.5625 52.6961 59.0225 52.6961 60.3525 48.4361C53.5325 47.8661 52.1025 49.3861 43.7625 55.6361H43.7825Z" fill="#049CB5"/>
</g>
<path d="M22.9624 67.816C24.9824 69.616 31.9623 68.096 36.4523 64.556C40.9523 61.016 47.9223 54.116 52.2823 51.846C55.7623 50.026 57.7523 49.296 58.8623 48.346C53.2823 48.136 51.4723 49.876 43.7823 55.646C35.5423 61.826 27.7624 62.646 23.1924 63.936C22.4624 64.976 21.6423 66.656 22.9523 67.826L22.9624 67.816Z" fill="#83233D"/>
<path d="M45.5025 56.7462C44.5825 57.3162 43.6925 57.9462 42.8025 58.5562C41.2625 59.6062 39.5825 60.4562 37.8825 61.2062C36.9925 61.6062 36.0825 61.9662 35.1725 62.3162C34.4625 62.5862 33.7525 62.8762 33.0225 63.0762C32.2125 63.3062 31.3825 63.4562 30.5625 63.6162C28.4325 64.0462 26.2225 64.4762 24.2525 65.4262C23.5525 65.7662 22.8425 66.1962 22.3525 66.8062C22.4425 67.1562 22.6425 67.4962 22.9825 67.7962C25.0025 69.5962 31.9825 68.0762 36.4725 64.5362C39.0725 62.4862 42.5025 59.3162 45.7725 56.5662C45.6825 56.6162 45.5925 56.6762 45.5125 56.7262L45.5025 56.7462Z" fill="#D98598"/>
<g style="mix-blend-mode:screen">
<path d="M31.8323 65.0261C31.9523 65.5661 30.5123 66.3361 28.6123 66.7361C26.7223 67.1461 25.0923 67.0361 24.9723 66.4961C24.8523 65.9561 26.2923 65.1861 28.1923 64.7861C30.0823 64.3761 31.7123 64.4861 31.8323 65.0261Z" fill="#D98598"/>
</g>
<path d="M156.932 50.4462C149.562 38.8162 140.912 32.5262 134.612 27.7362H134.592C122.462 18.5362 91.2723 10.1262 91.2723 10.1262C66.6323 7.85617 43.5023 8.22617 30.8023 23.0162C18.1023 37.8062 22.3323 45.8762 22.3323 45.8762C16.3423 51.3162 13.0523 50.9062 6.73235 52.2162C3.52235 52.8762 0.41234 54.7262 0.30234 58.3662C0.21234 61.0662 2.14234 63.5862 4.66234 64.4362C11.2123 66.6462 18.1723 65.4062 20.9023 64.7562C21.4623 64.4962 22.1523 64.2362 23.0323 63.9762C27.5823 62.6462 35.4523 61.8862 43.7923 55.6362C52.1323 49.3762 53.5523 47.8662 60.3823 48.4362C59.0523 52.7062 56.5923 52.7062 54.2223 53.4562C51.8523 54.2062 50.0523 55.0662 45.7823 59.9962C41.5123 64.9262 35.3523 70.7062 27.7723 71.4662C23.0523 71.6162 21.1823 70.8062 20.5523 69.3262C20.5723 70.0062 20.7123 70.7162 21.0223 71.4262C22.5523 74.9162 28.4423 76.7662 33.8923 73.4962C43.3823 77.2062 58.6523 75.2462 58.6523 75.2462C58.6523 75.2462 66.0723 82.2262 75.7723 85.0662C89.9523 89.5362 104.532 88.2062 123.892 92.6962C145.772 98.8262 150.792 118.706 153.532 123.996C156.272 129.286 156.922 135.146 162.482 118.216C167.792 100.266 170.062 71.2062 156.922 50.4762L156.932 50.4462Z" fill="#00BAE5"/>
<path d="M156.962 129.706C155.892 129.706 155.182 128.146 154.272 126.176C153.962 125.496 153.642 124.806 153.282 124.106C152.882 123.336 152.432 122.246 151.912 120.986C148.832 113.576 142.422 98.1561 123.822 92.9461C114.612 90.8161 106.642 90.0161 98.9324 89.2461C90.8024 88.4361 83.1224 87.6661 75.6924 85.3161C66.6424 82.6761 59.4824 76.3661 58.5624 75.5261C57.0424 75.7061 42.9124 77.2461 33.9224 73.7961C31.0624 75.4661 27.8224 75.9161 25.0124 75.0161C23.0024 74.3761 21.4624 73.1061 20.7724 71.5161C20.4724 70.8361 20.3124 70.0961 20.2824 69.3161C20.2824 69.1761 20.3724 69.0561 20.5024 69.0261C20.6424 68.9961 20.7724 69.0661 20.8224 69.1961C21.4524 70.6861 23.5924 71.2961 27.7724 71.1661C33.6324 70.5761 39.4624 66.8561 45.5724 59.7961C49.9024 54.7961 51.7724 53.9261 54.1324 53.1661C54.4824 53.0561 54.8324 52.9561 55.1824 52.8661C57.0924 52.3461 58.8924 51.8561 59.9924 48.6761C54.0624 48.2361 52.3724 49.5161 45.6624 54.5761L43.9624 55.8561C37.2324 60.8961 30.8524 62.3861 26.1924 63.4761C25.0724 63.7361 24.0124 63.9861 23.1124 64.2461C22.3024 64.4861 21.6024 64.7361 21.0224 65.0061C21.0024 65.0061 20.9824 65.0261 20.9624 65.0261C18.2424 65.6761 11.1924 66.9361 4.56242 64.6961C1.83242 63.7761 -0.0775784 61.1061 0.00242165 58.3461C0.102422 55.1261 2.53243 52.7861 6.66243 51.9261C7.82243 51.6861 8.85242 51.5061 9.86242 51.3361C14.2924 50.5761 17.2324 50.0661 21.9824 45.7961C21.3924 44.4261 18.8424 36.4861 30.5824 22.8261C43.5924 7.68609 67.4524 7.63609 91.3024 9.83609C91.6624 9.92609 122.622 18.3461 134.702 27.4661C134.732 27.4661 134.762 27.4861 134.782 27.5061L135.532 28.0761C141.662 32.7161 150.052 39.0761 157.162 50.2861C170.102 70.6861 168.262 99.6561 162.752 118.266C159.672 127.656 158.232 129.626 157.012 129.696C156.992 129.696 156.972 129.696 156.952 129.696L156.962 129.706ZM58.6524 74.9461C58.7224 74.9461 58.7924 74.9761 58.8524 75.0261C58.9224 75.0961 66.3324 81.9961 75.8624 84.7761C83.2524 87.1061 90.9024 87.8761 99.0024 88.6861C106.722 89.4561 114.712 90.2561 123.972 92.4061C142.852 97.6961 149.332 113.286 152.452 120.776C152.972 122.026 153.422 123.106 153.812 123.846C154.182 124.556 154.502 125.256 154.812 125.936C155.572 127.596 156.282 129.166 157.012 129.126C158.482 129.046 160.702 122.796 162.242 118.096C167.712 99.6061 169.542 70.8361 156.712 50.5961C149.662 39.4761 141.312 33.1561 135.212 28.5361L134.522 28.0161C134.522 28.0161 134.462 27.9961 134.442 27.9761C122.492 18.9061 91.5324 10.4861 91.2224 10.4061C67.5724 8.22609 43.8724 8.26609 31.0424 23.2061C18.6424 37.6361 22.5724 45.6661 22.6124 45.7461C22.6724 45.8661 22.6424 46.0061 22.5524 46.0861C17.5924 50.5961 14.4024 51.1461 9.99243 51.9061C8.99243 52.0761 7.96242 52.2561 6.81242 52.4961C4.99242 52.8761 0.742428 54.1961 0.602428 58.3761C0.522428 60.8861 2.27243 63.3261 4.77243 64.1661C11.2424 66.3561 18.1324 65.1261 20.8324 64.4861C21.4324 64.2061 22.1524 63.9461 22.9724 63.7061C23.8824 63.4361 24.9524 63.1861 26.0824 62.9261C30.6924 61.8561 37.0124 60.3761 43.6424 55.4061L45.3424 54.1261C52.1524 48.9861 53.9924 47.6061 60.4224 48.1461C60.5124 48.1461 60.5924 48.1961 60.6324 48.2661C60.6824 48.3361 60.6924 48.4261 60.6724 48.5061C59.4924 52.2961 57.3924 52.8661 55.3524 53.4261C55.0124 53.5161 54.6624 53.6161 54.3224 53.7261C51.9824 54.4761 50.2524 55.2861 46.0124 60.1861C39.8024 67.3661 33.8424 71.1461 27.8124 71.7561C24.2624 71.8661 22.1224 71.4661 21.0024 70.4361C21.0724 70.7361 21.1724 71.0261 21.2924 71.3061C21.9224 72.7361 23.3424 73.8961 25.1924 74.4861C27.8924 75.3461 31.0124 74.8961 33.7624 73.2461C33.8324 73.1961 33.9324 73.1961 34.0124 73.2261C43.3224 76.8661 58.4824 74.9761 58.6324 74.9561C58.6424 74.9561 58.6524 74.9561 58.6724 74.9561L58.6524 74.9461Z" fill="#076A9B"/>
<g style="mix-blend-mode:screen" opacity="0.42">
<path d="M37.0923 28.356C37.0923 28.356 47.9623 9.96598 83.4923 10.696C113.782 12.706 137.132 33.966 86.1623 28.656C77.1123 27.716 62.9423 22.136 49.3823 37.786C43.1023 45.006 26.3723 44.776 37.0923 28.346V28.356Z" fill="#A3BAE5"/>
</g>
<g style="mix-blend-mode:multiply" opacity="0.53">
<g style="mix-blend-mode:multiply">
<path d="M156.932 50.446C149.562 38.826 140.922 32.526 134.612 27.746C134.612 27.746 134.602 27.746 134.592 27.746C176.422 60.786 163.032 109.966 162.782 94.806C162.782 55.126 122.232 48.186 104.402 44.846C86.5723 41.506 79.3023 48.996 70.1723 36.246C67.0223 31.846 62.2123 31.156 58.0723 33.856C53.9323 36.566 53.4923 39.816 47.0723 43.496C40.6423 47.166 26.5323 48.406 34.4923 30.356C39.5123 21.186 56.2023 8.64604 91.2723 10.136C62.5623 7.06604 41.5523 9.85604 30.8023 23.026C18.1023 37.816 22.3323 45.886 22.3323 45.886C16.3423 51.326 13.0523 50.916 6.73228 52.226C3.69228 52.856 0.742285 54.546 0.342285 57.816C0.412285 57.636 0.492271 57.436 0.562271 57.186C2.54227 50.576 21.3023 52.896 24.4823 48.916C27.6623 44.936 33.2423 50.506 40.6723 50.246C48.1023 49.976 34.3023 61.666 15.7223 62.986C7.90227 63.546 3.38227 62.366 0.752274 60.806C1.46227 62.486 2.91228 63.856 4.65228 64.436C11.2023 66.646 18.1623 65.406 20.8923 64.756C21.4523 64.496 22.1423 64.236 23.0223 63.976C27.5723 62.646 35.4423 61.886 43.7823 55.636C52.1223 49.376 53.5423 47.866 60.3723 48.436C59.0423 52.706 56.5823 52.706 54.2123 53.456C51.8423 54.206 50.0423 55.066 45.7723 59.996C41.5023 64.926 35.3423 70.706 27.7623 71.466C23.0423 71.616 21.1723 70.806 20.5423 69.326C20.5623 70.006 20.7023 70.716 21.0123 71.426C22.5423 74.916 28.4323 76.766 33.8823 73.496C43.3723 77.206 58.6423 75.246 58.6423 75.246C58.6423 75.246 66.0623 82.226 75.7623 85.066C89.9423 89.536 104.522 88.206 123.882 92.696C145.762 98.826 150.782 118.706 153.522 123.996C156.262 129.286 156.912 135.146 162.472 118.216C167.782 100.266 170.052 71.206 156.912 50.476L156.932 50.446Z" fill="#049CB5"/>
</g>
</g>
<g style="mix-blend-mode:multiply">
<path d="M67.1123 40.6662C67.1123 43.0562 64.9723 45.0062 62.3423 45.0062C59.7123 45.0062 57.5723 43.0662 57.5723 40.6662C57.5723 38.2662 59.7123 36.3262 62.3423 36.3262C64.9723 36.3262 67.1123 38.2662 67.1123 40.6662Z" fill="#049CB5"/>
</g>
<g style="mix-blend-mode:multiply" opacity="0.53">
<g style="mix-blend-mode:multiply">
<path d="M18.9326 48.5562C19.3126 48.5162 19.6826 48.4662 20.0626 48.3762C20.7426 48.2162 21.3826 47.9762 22.0026 47.6462C22.6126 47.3162 23.1926 46.9262 23.8026 46.5962C25.0326 45.9262 25.5326 45.8962 26.8726 46.3062C30.1126 47.2962 31.5426 47.1762 35.9726 47.7762C37.3526 47.9662 38.8926 47.7162 40.2826 47.6062C40.8426 47.5662 41.3926 47.4562 41.9326 47.3162C40.4226 47.5062 38.9026 47.4462 37.4026 47.1462C35.6126 46.7862 33.9026 46.1062 32.2326 45.3662C30.4726 44.5762 28.6526 44.3662 26.8826 43.6062C25.8326 43.1562 24.9926 41.8262 24.3626 40.8662C23.0526 38.8662 23.2026 36.2562 23.6726 34.0162C23.7026 33.8662 23.7426 33.7162 23.7826 33.5662C20.0926 41.6062 22.3326 45.8862 22.3326 45.8862C21.1026 47.0062 19.9826 47.8762 18.9326 48.5662V48.5562Z" fill="#049CB5"/>
</g>
</g>
<g style="mix-blend-mode:multiply" opacity="0.53">
<g style="mix-blend-mode:multiply">
<path d="M159.942 112.806C159.582 108.586 159.692 104.336 159.262 100.116C158.842 95.946 158.082 91.796 156.882 87.786C152.832 74.226 141.682 63.206 128.932 57.546C125.842 56.176 122.572 54.986 119.252 54.356C115.832 53.706 112.312 53.756 108.852 54.086C101.922 54.756 95.1222 56.616 88.1422 56.746C84.9022 56.806 81.6222 56.446 78.5723 55.296C75.1323 53.996 72.4322 51.496 69.2422 49.716C66.3923 48.136 63.2323 47.006 59.9323 47.166C56.7122 47.316 53.7023 48.626 50.9323 50.196C47.7423 51.996 44.7922 54.196 41.6722 56.096C38.4622 58.056 35.1523 59.866 31.7623 61.486C31.3123 61.696 30.8722 61.916 30.4222 62.126C34.3622 61.006 38.9923 59.236 43.7923 55.636C52.1323 49.376 53.5522 47.866 60.3822 48.436C59.0522 52.706 56.5922 52.706 54.2222 53.456C51.8522 54.206 50.0522 55.066 45.7822 59.996C41.5122 64.926 35.3522 70.706 27.7722 71.466C23.0522 71.616 21.1822 70.806 20.5522 69.326C20.5722 70.006 20.7122 70.716 21.0222 71.426C22.5522 74.916 28.4422 76.766 33.8922 73.496C43.3822 77.206 58.6523 75.246 58.6523 75.246C58.6523 75.246 66.0722 82.226 75.7722 85.066C89.9522 89.536 104.532 88.206 123.892 92.696C145.772 98.826 150.792 118.706 153.532 123.996C156.022 128.806 156.792 134.086 161.092 122.266C160.622 119.136 160.202 115.996 159.932 112.826L159.942 112.806Z" fill="#049CB5"/>
</g>
</g>
<path d="M66.6922 40.6661C66.6922 42.8461 64.7422 44.6161 62.3422 44.6161C59.9422 44.6161 57.9922 42.8461 57.9922 40.6661C57.9922 38.4861 59.9422 36.7161 62.3422 36.7161C64.7422 36.7161 66.6922 38.4861 66.6922 40.6661Z" fill="white"/>
<path d="M128.582 62.0461C116.032 54.3961 101.752 57.7661 89.6125 60.3161C77.4725 62.8661 74.5125 59.0961 68.2125 51.9461C66.1925 49.6561 63.3025 48.7661 60.2725 48.7161C58.9225 52.6861 56.5225 52.7161 54.2125 53.4561C51.8425 54.2161 50.0425 55.0661 45.7725 59.9961C41.5025 64.9261 35.3425 70.7061 27.7625 71.4661C23.0425 71.6161 21.1725 70.8061 20.5425 69.3261C20.5625 70.0061 20.7025 70.7161 21.0125 71.4261C22.5425 74.9161 28.4325 76.7661 33.8825 73.4961C43.3725 77.2061 58.6425 75.2461 58.6425 75.2461C58.6425 75.2461 66.0625 82.2261 75.7625 85.0661C89.9425 89.5361 104.522 88.2061 123.882 92.6961C145.762 98.8261 150.782 118.706 153.522 123.996C155.522 127.856 156.412 132.016 158.902 127.406C158.212 120.236 156.892 108.916 154.762 99.4461C151.352 84.2761 141.112 69.7161 128.562 62.0661L128.582 62.0461Z" fill="white"/>
<g style="mix-blend-mode:multiply">
<path d="M57.0022 39.576C57.0022 39.576 58.3122 35.376 61.9622 35.116C64.6422 34.726 67.1522 36.616 67.1522 36.616C67.1522 36.616 59.8222 30.216 56.9922 39.576H57.0022Z" fill="#076A9B"/>
</g>
<g style="mix-blend-mode:multiply">
<path d="M113.623 80.406C104.333 73.586 93.7126 63.726 73.6226 66.946C53.5326 70.166 44.4326 66.376 35.5226 71.496C30.2126 74.356 26.1026 74.536 23.1426 73.816C25.7226 75.526 29.9226 75.876 33.8926 73.486C43.3826 77.196 58.6526 75.236 58.6526 75.236C58.6526 75.236 66.0726 82.216 75.7726 85.056C89.9526 89.526 104.533 88.196 123.893 92.686C145.773 98.816 150.793 118.696 153.533 123.986C154.903 126.626 155.743 129.406 156.943 129.426C154.533 92.916 122.523 86.956 113.613 80.416L113.623 80.406Z" fill="#E8E3E0"/>
</g>
<path d="M134.613 28.0361C134.513 28.0361 134.403 27.9861 134.353 27.8861C134.283 27.7461 134.323 27.5861 134.463 27.5061C134.513 27.4761 134.573 27.4761 134.623 27.4661C134.753 27.4661 134.873 27.5561 134.903 27.6761C134.933 27.8061 134.873 27.9361 134.753 27.9961C134.713 28.0161 134.663 28.0261 134.623 28.0261L134.613 28.0361Z" fill="#FF0000"/>
<path d="M66.1723 40.636C66.1723 42.536 64.4723 44.076 62.3823 44.076C60.2923 44.076 58.5923 42.536 58.5923 40.636C58.5923 38.736 60.2923 37.196 62.3823 37.196C64.4723 37.196 66.1723 38.736 66.1723 40.636Z" fill="#1B1464"/>
<path d="M65.8024 40.6361C65.8024 42.3461 64.2724 43.7361 62.3824 43.7361C60.4924 43.7361 58.9624 42.3461 58.9624 40.6361C58.9624 38.9261 60.4924 37.5361 62.3824 37.5361C64.2724 37.5361 65.8024 38.9261 65.8024 40.6361Z" fill="#0071BC"/>
<path d="M64.9622 40.6361C64.9622 41.9261 63.8022 42.9761 62.3822 42.9761C60.9622 42.9761 59.8022 41.9261 59.8022 40.6361C59.8022 39.3461 60.9622 38.2961 62.3822 38.2961C63.8022 38.2961 64.9622 39.3461 64.9622 40.6361Z" fill="#080742"/>
<g style="mix-blend-mode:multiply">
<path d="M59.3721 40.756C59.9621 40.246 60.8321 40.086 61.6221 40.016C62.4621 39.946 63.3321 39.976 64.1521 40.196C64.8621 40.396 65.662 40.766 65.942 41.426C65.972 41.506 65.9921 41.576 66.0121 41.656C66.1221 41.336 66.1821 40.986 66.1821 40.626C66.1821 38.726 64.482 37.186 62.392 37.186C60.302 37.186 58.6021 38.726 58.6021 40.626C58.6021 41.046 58.6821 41.456 58.8421 41.826C58.8521 41.416 59.0421 41.026 59.3721 40.746V40.756Z" fill="#049CB5"/>
</g>
<path d="M61.0823 38.2459C60.3423 37.9459 59.5423 39.1259 59.3323 39.6159C59.2723 39.7659 59.2223 39.9259 59.2423 40.0859C59.3123 40.6659 60.0323 40.5259 60.4023 40.2859C60.6623 40.1159 60.8823 39.8859 61.0723 39.6559C61.2623 39.4259 61.4423 39.1359 61.4423 38.8359C61.4423 38.5959 61.3223 38.3359 61.0923 38.2459H61.0823Z" fill="white"/>
<path d="M60.0724 40.746C59.7624 40.626 59.4324 41.116 59.3424 41.316C59.3124 41.376 59.2924 41.446 59.3024 41.516C59.3324 41.756 59.6324 41.696 59.7824 41.596C59.8924 41.526 59.9824 41.436 60.0624 41.336C60.1424 41.236 60.2124 41.116 60.2124 40.996C60.2124 40.896 60.1624 40.786 60.0624 40.756L60.0724 40.746Z" fill="white"/>
<g style="mix-blend-mode:multiply">
<path d="M22.3325 45.8861C22.8825 45.3961 23.6225 45.1461 24.3525 45.0161C25.0825 44.8861 25.8425 44.8961 26.5825 44.9961C27.3225 45.0861 28.0425 45.2761 28.7525 45.5161C29.4625 45.7561 30.1325 46.0261 30.8325 46.2161C33.6325 46.9861 36.5825 47.1661 39.4925 47.0461C42.4125 46.9461 45.3225 46.5661 48.0825 45.6161C49.4725 45.1661 50.8425 44.6161 52.2925 44.2661C53.7325 43.9161 55.2425 43.8361 56.6925 44.0661C55.9625 44.0161 55.2225 44.0161 54.5025 44.0961C53.7725 44.1761 53.0625 44.3361 52.3625 44.5361C50.9625 44.9361 49.6125 45.5261 48.2225 46.0261C46.8425 46.5461 45.3925 46.9261 43.9225 47.1661C42.4625 47.4061 40.9825 47.5561 39.5025 47.6161C38.0225 47.6561 36.5425 47.6161 35.0625 47.4761C33.5925 47.3261 32.1125 47.0861 30.6925 46.6261C29.9825 46.4161 29.2925 46.1061 28.6225 45.8461C27.9425 45.5961 27.2425 45.3861 26.5325 45.2661C25.8225 45.1361 25.0925 45.0761 24.3725 45.1561C23.6625 45.2461 22.9325 45.4361 22.3325 45.8761V45.8861Z" fill="#076A9B"/>
<path d="M60.3225 74.8461C61.7125 74.8761 63.1025 74.7261 64.4525 74.4461C65.8025 74.1761 67.1325 73.7661 68.3925 73.2161C68.7125 73.0861 69.0225 72.9361 69.3225 72.7761C69.6325 72.6261 69.9325 72.4661 70.2325 72.2861C70.8225 71.9561 71.4425 71.5761 72.0725 71.2661C73.3325 70.6261 74.6725 70.1461 76.0425 69.8061C77.4125 69.4861 78.8125 69.2661 80.2225 69.2361C81.6325 69.1961 83.0425 69.2361 84.4325 69.5061C87.2125 69.9361 89.8625 71.0361 92.1925 72.5561C90.9525 71.9261 89.7125 71.2861 88.3825 70.8861C87.7425 70.6361 87.0525 70.4961 86.3925 70.2961C85.7125 70.1761 85.0425 69.9961 84.3525 69.9361C81.6225 69.5561 78.8225 69.6861 76.1625 70.3661C74.8225 70.6761 73.5225 71.1261 72.2925 71.7361C71.0825 72.3361 69.8825 73.1361 68.5525 73.6261C65.9325 74.6561 63.0925 75.1261 60.3125 74.8461H60.3225Z" fill="#CCCCCC"/>
<path d="M33.8926 73.6461C35.9326 72.5961 38.1026 71.8261 40.3026 71.1961C41.4026 70.8861 42.5226 70.6161 43.6426 70.4161C44.7626 70.1961 45.9126 70.0661 47.0526 69.9861L43.7426 70.8461C42.6426 71.1361 41.5426 71.4261 40.4526 71.7461C38.2626 72.3561 36.0926 73.0161 33.8926 73.6461Z" fill="#CCCCCC"/>
<path d="M58.0827 39.1261C58.5327 38.3161 59.2327 37.6361 60.0327 37.1161C60.8327 36.5961 61.8028 36.2961 62.7728 36.2961C63.7428 36.3161 64.7028 36.5661 65.5228 37.0561C65.9528 37.2661 66.3028 37.5961 66.6828 37.8561C67.0228 38.1861 67.3527 38.5061 67.6628 38.8561C67.2628 38.6061 66.9028 38.3361 66.5228 38.0861L65.9227 37.7561C65.7227 37.6461 65.5328 37.5261 65.3228 37.4561C65.1128 37.3761 64.9127 37.2861 64.7027 37.2061C64.4927 37.1261 64.2727 37.0961 64.0627 37.0361L63.7428 36.9561L63.4128 36.9261C63.1928 36.9061 62.9828 36.8561 62.7628 36.8861C61.8928 36.8761 61.0328 37.1161 60.2428 37.5161C59.8528 37.7261 59.4628 37.9561 59.1028 38.2361C58.7328 38.4961 58.3928 38.8061 58.0728 39.1461L58.0827 39.1261Z" fill="#076A9B"/>
<path d="M58.8723 43.7061C60.1923 44.1561 61.5423 44.4361 62.8523 44.2961C63.5123 44.2461 64.1423 44.0361 64.7223 43.7261C65.3323 43.4361 65.8223 42.9761 66.3623 42.5161C66.0123 43.1161 65.5723 43.7161 64.9523 44.1061C64.3623 44.5261 63.6423 44.7961 62.9123 44.8661C62.1823 44.9361 61.4523 44.8661 60.7623 44.6561C60.0723 44.4561 59.4223 44.1461 58.8623 43.7061H58.8723Z" fill="#076A9B"/>
<path d="M41.4426 22.046C41.9726 20.936 42.8426 20.016 43.7526 19.206C44.6826 18.386 45.7326 17.726 46.8126 17.146C47.9026 16.566 49.0526 16.116 50.2126 15.746C50.8026 15.566 51.3926 15.426 51.9826 15.266C52.5826 15.156 53.1826 15.036 53.7826 14.946C53.2126 15.156 52.6326 15.336 52.0526 15.536C51.4826 15.746 50.9126 15.936 50.3526 16.166C49.8026 16.416 49.2226 16.596 48.6926 16.876L47.8726 17.246L47.0726 17.656C46.0126 18.206 44.9826 18.836 44.0226 19.556C43.5426 19.916 43.0826 20.296 42.6526 20.716C42.2026 21.116 41.8026 21.566 41.4326 22.056L41.4426 22.046Z" fill="#076A9B"/>
</g>
<path d="M70.5527 72.466C70.5527 72.466 75.7927 91.646 84.7727 101.126C93.7427 110.606 103.223 114.146 111.823 114.526C106.513 110.856 102.953 102.896 102.593 95.186C102.213 86.966 95.1327 60.556 70.5527 72.466Z" fill="#00BAE5"/>
<path d="M111.813 114.816H111.803C101.783 114.376 92.6125 109.836 84.5625 101.326C75.6425 91.9061 70.3325 72.7361 70.2725 72.5461C70.2325 72.4161 70.3025 72.2761 70.4225 72.2161C78.2925 68.4061 85.0925 68.1461 90.6325 71.4461C99.9825 77.0061 102.663 90.7961 102.873 95.1861C103.243 103.116 106.893 110.796 111.973 114.296C112.073 114.366 112.123 114.506 112.083 114.626C112.043 114.746 111.933 114.816 111.813 114.816ZM70.8925 72.6261C71.5225 74.8261 76.6825 92.1761 84.9725 100.936C92.6625 109.066 101.373 113.516 110.873 114.186C106.063 110.366 102.653 102.886 102.303 95.2061C102.103 90.8961 99.4825 77.3661 90.3425 71.9361C85.0225 68.7661 78.4825 69.0061 70.8925 72.6261Z" fill="#076A9B"/>
<g style="mix-blend-mode:multiply">
<path d="M102.582 95.186C102.202 86.966 95.1225 60.556 70.5425 72.466C70.5425 72.466 72.6525 80.156 76.4725 88.206C75.5325 84.776 73.1725 74.086 80.3725 74.326C88.9425 74.606 92.2625 83.176 93.0925 93.956C93.7225 102.116 96.0925 107.266 100.912 112.276C104.622 113.676 108.292 114.366 111.802 114.516C106.492 110.846 102.932 102.886 102.572 95.176L102.582 95.186Z" fill="#049CB5"/>
</g>
<g style="mix-blend-mode:multiply">
<path d="M85.9625 71.876C97.1325 74.156 98.5825 88.636 99.2025 95.676C99.7025 101.316 101.532 110.656 108.832 114.266C109.832 114.396 110.822 114.486 111.812 114.526C106.502 110.856 102.942 102.896 102.582 95.186C102.202 86.966 95.1225 60.556 70.5425 72.466C70.5425 72.466 70.7325 73.146 71.0925 74.316C73.6925 72.596 78.6825 70.396 85.9625 71.876Z" fill="#049CB5"/>
</g>
<g style="mix-blend-mode:screen">
<path d="M76.9126 86.2561C76.9126 86.2561 80.7726 101.146 96.1926 108.996C90.0726 103.946 83.8226 99.6861 76.9126 86.2561Z" fill="#00BAE5"/>
</g>
<path d="M59.1226 37.266C59.1226 37.266 63.0326 34.766 66.1026 37.106C65.0126 34.766 60.6326 34.396 59.1226 37.266Z" fill="#00BAE5"/>
<path d="M134.613 27.746C129.673 24.006 126.173 21.186 125.843 17.466C125.083 8.99601 135.593 7.35601 139.013 7.54601C142.433 7.73601 140.243 4.98601 137.593 3.55601C126.583 -2.80399 105.123 0.276006 91.2827 10.126C91.2827 10.126 122.473 18.536 134.603 27.746H134.623H134.613Z" fill="#00BAE5"/>
<path d="M134.593 28.0361C134.533 28.0361 134.473 28.0161 134.423 27.9761C122.473 18.9061 91.5127 10.4861 91.2027 10.4061C91.0927 10.3761 91.0127 10.2861 90.9927 10.1861C90.9727 10.0761 91.0227 9.96607 91.1127 9.90607C104.953 0.046072 126.743 -3.03393 137.733 3.31607C139.583 4.30607 141.323 5.97607 141.023 7.04607C140.853 7.63607 140.173 7.90607 139.003 7.83607C137.193 7.73607 131.343 8.20607 128.113 11.5461C126.593 13.1161 125.923 15.1061 126.133 17.4361C126.443 20.9461 129.613 23.5861 134.793 27.5161C134.873 27.5761 134.913 27.6661 134.903 27.7661C134.903 27.8661 134.843 27.9461 134.753 27.9961H134.733C134.733 27.9961 134.643 28.0361 134.593 28.0361ZM91.9327 10.0161C95.7527 11.0861 117.343 17.2761 130.063 24.4861C127.373 22.1361 125.783 20.0561 125.553 17.4861C125.333 14.9761 126.043 12.8461 127.693 11.1461C130.713 8.02607 136.253 7.10607 139.023 7.25607C139.853 7.29607 140.383 7.16607 140.463 6.87607C140.623 6.28607 139.343 4.81607 137.453 3.80607C126.753 -2.37393 105.633 0.546072 91.9327 10.0161Z" fill="#076A9B"/>
<g style="mix-blend-mode:multiply">
<path d="M137.582 3.55616C137.122 3.28616 136.642 3.04616 136.142 2.81616C135.792 4.23616 132.332 5.19616 126.552 5.88616C116.182 7.12616 117.842 15.0162 114.312 13.9762C107.752 11.1862 99.6925 9.31616 94.1525 8.24616C93.1625 8.84616 92.1925 9.47616 91.2725 10.1362C91.2725 10.1362 122.462 18.5462 134.592 27.7562H134.612C129.672 24.0062 126.172 21.1862 125.842 17.4662C125.082 8.99616 135.592 7.35616 139.012 7.54616C142.432 7.73616 140.242 4.98616 137.592 3.55616H137.582Z" fill="#049CB5"/>
</g>
<g style="mix-blend-mode:multiply">
<path d="M135.203 6.34611C133.123 6.46611 130.983 6.77611 129.063 7.60611C127.203 8.40611 125.633 9.72611 124.413 11.3361C123.773 12.1761 123.313 13.1261 122.693 13.9761C122.173 14.6961 121.513 15.3161 120.753 15.7761C117.573 17.6861 113.393 16.5461 110.133 15.4761C108.383 14.8961 106.683 14.2161 104.953 13.5961C102.273 12.6461 99.5627 11.7761 96.8327 10.9961C95.2127 10.5261 93.5927 10.0861 91.9727 9.65611C91.7427 9.81611 91.5127 9.96611 91.2827 10.1261C91.2827 10.1261 122.473 18.5361 134.603 27.7461H134.623C129.683 23.9961 126.183 21.1761 125.853 17.4561C125.093 8.98611 135.603 7.34611 139.023 7.53611C140.313 7.60611 140.803 7.25611 140.773 6.71611C138.963 6.28611 137.053 6.22611 135.213 6.33611L135.203 6.34611Z" fill="#049CB5"/>
</g>
<g style="mix-blend-mode:screen">
<path d="M97.2427 8.13611C97.2427 8.13611 116.833 -2.18389 133.823 2.76611C130.013 -0.703894 109.723 -0.873894 97.2427 8.13611Z" fill="#A3BAE5"/>
</g>
<g style="mix-blend-mode:screen">
<g style="mix-blend-mode:screen">
<path d="M22.0323 51.1361C20.2023 51.4461 18.4123 52.0361 16.6023 52.4261C14.6223 52.8461 12.6223 53.1361 10.6123 53.3261C7.47227 53.6261 3.59228 53.5561 1.71228 56.5961C1.63228 56.7261 1.82228 56.6761 1.87228 56.6061C3.01228 55.1261 4.89228 54.7161 6.65228 54.5561C8.39228 54.4061 10.1223 54.3261 11.8523 54.0761C13.5423 53.8361 15.2223 53.5261 16.8823 53.1261C18.5823 52.7161 20.3423 52.2561 21.9223 51.5061C22.0023 51.4661 22.2623 51.0961 22.0323 51.1361Z" fill="#A3BAE5"/>
</g>
<g style="mix-blend-mode:screen">
<path d="M81.5824 11.6061C77.6724 11.2761 73.6724 11.5861 69.7924 12.0961C65.8724 12.6061 61.9724 13.4161 58.2124 14.6761C51.8024 16.8261 45.8424 20.4061 41.3524 25.4961C39.0124 28.1461 37.0624 31.1361 35.8924 34.4761C35.8124 34.7161 36.1724 34.5261 36.2224 34.4061C37.5124 31.5061 39.2224 28.7661 41.3824 26.4261C43.4724 24.1661 45.8824 22.2661 48.4824 20.6361C54.4024 16.9061 61.2624 14.9661 68.1524 14.0561C72.3724 13.4961 81.6324 12.5761 85.8624 12.1461C86.3524 12.0961 82.4424 11.6761 81.5724 11.6061H81.5824Z" fill="#A3BAE5"/>
</g>
</g>
<g style="mix-blend-mode:screen">
<path d="M125.723 24.436C125.723 24.436 150.443 38.356 158.873 63.076C158.503 53.006 143.673 31.946 125.723 24.436Z" fill="#A3BAE5"/>
</g>
<path d="M61.5724 46.566C61.5724 46.566 64.5524 45.196 67.7224 46.756C69.7124 47.626 68.9024 43.466 65.5524 44.026C62.2024 44.586 60.5224 46.636 61.5824 46.576L61.5724 46.566Z" fill="#00BAE5"/>
</svg>
