<svg width="420" height="418" viewBox="0 0 420 418" fill="none" xmlns="http://www.w3.org/2000/svg">
<g clip-path="url(#clip0_1675_7972)">
<path d="M418.96 380.55C416.03 362.85 404.3 349.14 389.08 340.36C382.64 336.64 374.74 334.28 369.95 328.33C362.18 318.68 366.74 304.11 368.66 293.18C369.74 287.03 370.61 280.85 371.26 274.63C377.82 209.47 354.39 147.63 308.99 101.03C303.13 94.9502 296.95 89.2102 290.45 83.8102C288 81.7802 273.94 71.3902 273.09 70.2102C272.13 68.8902 271.61 66.8702 271.16 65.3202C268.82 57.4002 267.8 48.4502 269.38 40.3002C271.58 28.9202 278.8 20.4602 288.11 14.0202C289.85 12.8202 291.86 12.0702 293.55 10.8802C294.59 10.1502 295.62 8.89016 295.77 7.59016C295.87 6.72016 295.55 5.95016 294.99 5.29016C292.01 1.76016 282.16 0.530163 277.59 0.200163C275.45 -0.0898367 273.05 0.000163322 270.88 0.0301633C249.03 0.340163 227.19 10.2902 210.28 23.6702C205.35 27.5702 200.84 31.9002 196.47 36.4002C169.35 29.4402 139.9 26.0002 112.91 35.4402C85.62 44.9902 64.01 66.9902 52.51 93.2602C51.3 96.0202 50.1 98.8402 49.15 101.69C48.28 104.31 47.68 107.36 46.37 109.78C45.61 111.19 44.21 112.45 43.07 113.56C42.08 114.52 41.05 115.44 40 116.33C38.95 117.22 37.86 118.07 36.75 118.88C35.64 119.7 34.5 120.47 33.34 121.21C32.18 121.95 30.99 122.65 29.78 123.31C26.79 124.94 23.75 126.45 20.65 127.85C13.74 130.94 4.57002 133.9 1.14002 141.3C0.320018 143.08 -0.419982 146.05 0.330018 147.96C0.760018 149.07 2.02002 149.57 2.66002 150.55C4.33002 153.12 5.23002 156.09 7.88002 157.92C19.7 166.07 57.41 158.22 72.01 156.91C74.05 156.72 76.09 156.61 78.13 156.59C80.18 156.57 82.22 156.62 84.26 156.77C98.51 157.82 111.62 162.45 124.77 167.77C128.96 169.46 133.2 171.1 137.31 173C138.29 176.92 138.99 180.81 140.18 184.69C145.32 201.37 154.66 217.3 167.13 229.56C171.83 234.18 182.25 243.67 188.91 243.45C190.38 243.4 191.77 242.86 192.74 241.72C196.39 237.46 191.27 229.31 190 224.69C189.07 221.29 188.53 217.64 188.33 214.13C190.99 216.92 193.75 219.59 196.64 222.15C199.52 224.71 202.51 227.13 205.59 229.44C212.97 234.9 229.71 245.31 238.78 243.71C240.19 243.46 241.53 242.78 242.34 241.56C243.36 240.03 243.21 238.15 242.56 236.5C241.17 232.99 238.15 229.8 235.98 226.72C231.18 219.92 227.24 210.25 225.79 202.06C229.66 203.06 233.33 204.67 237.02 206.19C259.92 215.64 283 231.47 300.57 248.91C315.81 264.35 329.57 286.39 332.62 308.21C334.13 318.99 331.75 328.16 323.98 335.98C321.51 338.47 318.68 340.59 316.15 343.02C313.01 346.04 310.12 349.44 307.51 352.93C297.79 365.93 292.27 381.65 294.72 397.99C295.43 402.73 298.71 414.23 302.85 417.07C303.34 417.4 303.97 417.66 304.57 417.48C306.59 416.86 306.55 413.45 307 411.72C308.63 405.37 312.53 399.81 317.51 395.64C329.69 385.44 344.48 386.04 352.36 369.9C360.16 377.7 371.06 379.95 381.71 380.35C388.18 380.59 394.6 380.52 400.82 382.63C401.75 382.94 402.65 383.29 403.55 383.68C404.44 384.07 405.31 384.51 406.17 384.98C407.02 385.46 407.85 385.97 408.65 386.52C409.45 387.07 410.23 387.66 410.98 388.29C412.34 389.4 415.38 393.19 416.73 393.66C417.39 393.88 418.34 393.62 418.88 393.22C419.54 392.73 419.63 392.09 419.69 391.33C419.99 387.86 419.54 384 418.97 380.58L418.96 380.55ZM270.81 4.11016C272.2 4.08016 273.58 4.11016 274.97 4.18016C280.42 4.49016 285.78 5.19016 290.86 7.30016C278.85 14.8002 269.07 23.0202 265.76 37.5502C263.49 47.5002 264.61 56.8202 267.17 66.5502C262.12 63.3002 256.94 60.2702 251.64 57.4502C246.34 54.6302 240.93 52.0302 235.42 49.6402C224 45.0402 212.55 41.0702 200.66 37.8402C218.42 19.2802 244.68 4.67016 270.82 4.10016L270.81 4.11016ZM56.68 94.2402C66.52 72.4902 82.65 54.4502 104.11 43.7502C119.94 35.8502 136.82 33.4002 154.4 34.0302C165.76 34.5702 176.92 35.8802 188.01 38.5102C193.4 39.7902 198.71 41.4602 204.01 43.0302C238.81 53.3002 266.93 68.1602 294 92.4702C299.94 97.8102 305.73 103.26 311.1 109.18C349.69 151.66 370.63 205.06 367.86 262.71C367.46 270.35 366.73 277.96 365.69 285.54C364.22 295.97 358.87 326.29 351.52 332.86C350.62 333.67 349.69 334.15 348.56 334.58C348.76 332.92 348.93 331.26 349.08 329.59C349.23 327.92 349.35 326.26 349.44 324.59C349.53 322.92 349.6 321.25 349.64 319.58C349.68 317.91 349.7 316.24 349.69 314.56C349.68 312.89 349.64 311.22 349.58 309.54C349.52 307.87 349.43 306.2 349.31 304.53C349.19 302.86 349.05 301.19 348.89 299.53C348.72 297.87 348.53 296.2 348.31 294.55C348.09 292.89 347.84 291.24 347.57 289.59C347.3 287.94 347 286.29 346.68 284.65C346.36 283.01 346.01 281.37 345.63 279.74C345.26 278.11 344.86 276.49 344.43 274.87C344 273.25 343.55 271.64 343.08 270.04C342.6 268.44 342.1 266.84 341.58 265.25C341.05 263.66 340.5 262.08 339.93 260.51C339.35 258.94 338.75 257.38 338.13 255.83C337.71 254.75 337.27 253.68 336.83 252.6C336.39 251.53 335.94 250.46 335.48 249.4C335.02 248.34 334.55 247.28 334.07 246.22C333.59 245.16 333.11 244.11 332.61 243.07C332.11 242.02 331.61 240.98 331.1 239.94C330.59 238.9 330.06 237.87 329.53 236.84C329 235.81 328.46 234.78 327.91 233.76C327.36 232.74 326.8 231.72 326.24 230.71C325.67 229.7 325.1 228.69 324.52 227.69C323.94 226.69 323.35 225.69 322.75 224.7C322.15 223.71 321.54 222.72 320.93 221.74C320.31 220.76 319.69 219.78 319.06 218.81C318.43 217.84 317.79 216.87 317.14 215.92C316.49 214.96 315.83 214.01 315.17 213.06C314.5 212.11 313.83 211.17 313.15 210.23C312.47 209.29 311.78 208.36 311.08 207.44C310.38 206.51 309.68 205.6 308.96 204.68C308.25 203.77 307.53 202.86 306.8 201.96C306.07 201.06 305.33 200.16 304.59 199.28C303.85 198.39 303.09 197.51 302.34 196.63C301.58 195.75 300.81 194.89 300.04 194.02C299.27 193.16 298.48 192.3 297.7 191.45C296.91 190.6 296.12 189.76 295.31 188.92C294.51 188.08 293.7 187.26 292.88 186.43C292.06 185.61 291.24 184.79 290.41 183.99C289.58 183.18 288.74 182.38 287.9 181.59C287.06 180.8 286.2 180.01 285.35 179.23C284.5 178.45 283.63 177.68 282.76 176.91C281.89 176.15 281.01 175.39 280.13 174.64C279.25 173.89 278.36 173.15 277.46 172.41C276.56 171.68 275.66 170.95 274.75 170.23C273.84 169.51 272.93 168.8 272.01 168.1C268.85 165.6 265.62 163.21 262.32 160.92C259.01 158.63 255.64 156.44 252.2 154.36C248.76 152.28 245.25 150.31 241.68 148.45C238.11 146.59 234.49 144.85 230.81 143.21C213.69 135.74 193.18 130.97 174.48 133.09C159.67 134.77 148.46 137.74 133.29 134.55C126.08 133.04 119.54 130.2 113.64 125.78C111.13 123.9 108.78 121.81 106.28 119.91C89.63 107.26 69.8 108.02 50.3 111.44C52.25 105.61 54.17 99.8302 56.7 94.2202L56.68 94.2402ZM189.91 238.54C189.83 238.74 189.69 238.96 189.54 239.12C189.41 239.26 189.31 239.32 189.16 239.42C183.09 239.29 172.39 229.32 168.24 224.99C157.04 213.31 148.45 198.05 143.72 182.61C143.11 180.63 141.86 177.16 141.89 175.19C141.89 175.05 141.93 174.88 141.95 174.74L142.34 174.64C150.38 177.74 158.47 180.53 166.61 183.33C169.44 188.77 172.39 194.18 175.97 199.16C178.58 202.8 181.53 206.16 184.17 209.77C184.21 214.8 184.48 219.76 185.75 224.66C186.15 226.2 186.62 227.71 187.16 229.21C187.85 231.09 190.63 236.7 189.92 238.53L189.91 238.54ZM248.28 206.89C242.8 204.11 237.2 201.62 231.47 199.42C229.36 198.6 227.12 197.61 224.92 197.07C222.28 181.67 222.98 165.39 214.16 151.73C211.96 148.33 209.26 145.18 205.95 142.82C200.19 138.71 193.61 137.16 186.58 137.63C192.29 138.88 197.6 140.49 202.22 144.24C223.24 161.64 216.22 191.82 225.2 214.84C228.04 222.13 232.22 228.17 236.6 234.57C237.25 235.53 238.78 237.35 238.78 238.53C238.78 239.09 238.65 239.23 238.28 239.59C234.42 240.78 223.39 235.78 219.69 233.82C216.19 231.97 212.83 229.68 209.6 227.38C189.54 213.1 171.86 191.28 164.66 167.49C162.11 159.07 161.03 150.47 161.96 141.68C157.74 148.98 157.69 157.83 159.85 165.8C161.01 170.06 162.58 174.19 164.17 178.3C159.72 177.06 155.33 175.27 150.99 173.67C144.32 171.21 137.67 168.67 131.06 166.04C114.11 159.27 97.58 152.71 79.07 152.65C61.06 152.59 42.6 157.85 24.31 157.3C20.12 157.17 14.08 157.23 10.6 154.74C9.41002 153.89 8.56002 152.72 7.81002 151.49C29.78 151.99 55.85 145.36 75.39 135.42C78.74 133.75 81.98 131.89 85.12 129.85C86.88 128.7 88.58 127.19 90.47 126.27C91.26 125.88 91.77 125.82 92.65 125.9L92.95 125.66C92.9 125.11 92.61 124.66 92.21 124.3C91.23 123.41 89.6 123.32 88.35 123.46C87.5 123.56 86.63 123.72 86.01 124.34V124.74C86.67 125.28 87.52 125.31 88.33 125.44C69.17 137.1 44.67 144.5 22.46 146.99C17.43 147.55 11.78 148.28 6.83002 147.04C5.89002 146.81 5.01002 146.45 4.12002 146.07C5.26002 141.67 7.52002 139.03 11.41 136.77C15.08 134.64 19.15 133.18 23.01 131.44C32.61 127.12 41.61 121.62 48.75 113.79C57.23 112.44 65.89 111.17 74.5 111.27C85.9 111.9 95.74 114.86 105.07 121.57C108.07 123.73 110.85 126.16 113.82 128.34C118.99 132.12 124.98 134.69 131.19 136.21C141.14 138.65 151.43 138.4 161.52 137.05C168.24 136.15 174.86 134.95 181.65 134.65C188.68 134.34 195.92 135.39 202.81 136.72C240.88 144.07 275.31 169.38 300.73 197.78C330.92 231.51 350.35 279.51 347.81 325.09C347.64 328.13 347.43 331.34 346.7 334.3C343.16 332.51 341.49 329.65 340.28 326C337.97 319.03 337.41 311.51 336.14 304.31C335.45 300.39 334.35 296.55 333.1 292.78C319.93 253.21 284.21 225.16 248.31 206.88L248.28 206.89ZM407.04 380.72C402.26 378.31 396.96 377.08 391.65 376.59C379.36 375.44 366.84 377.42 356.75 368.3C354.64 366.39 352.99 364.08 351.34 361.78C347.39 371.96 343.31 377.51 333.13 382.16C320.52 387.92 309.06 393.78 303.88 407.62C303.57 408.46 303.28 409.3 303 410.14C297.21 398.92 296.85 386.46 300.65 374.52C303.76 364.75 309.58 355.88 316.54 348.43C325.62 338.71 333.87 335.08 336.67 320.53C338.4 325.89 339.37 332.6 344.86 335.56C346.41 336.39 348.19 336.71 349.88 336.13C353.75 334.8 356.31 329.83 357.89 326.37C358.72 324.54 360.69 318.13 361.53 317.21C361.95 323.67 364.72 329.48 369.56 333.78C374.11 337.82 379.8 339.86 385.06 342.75C403.07 352.66 413.49 365.93 415.51 386.79C412.86 384.48 410.21 382.33 407.05 380.74L407.04 380.72Z" fill="black"/>
<path d="M185.75 224.67C184.47 219.77 184.21 214.81 184.17 209.78C181.53 206.18 178.58 202.81 175.97 199.17C172.39 194.18 169.44 188.77 166.61 183.34C158.46 180.54 150.38 177.75 142.34 174.65L141.95 174.75C141.93 174.89 141.89 175.05 141.89 175.2C141.86 177.16 143.11 180.64 143.72 182.62C148.44 198.06 157.04 213.32 168.24 225C172.39 229.33 183.09 239.3 189.16 239.43C189.31 239.33 189.41 239.27 189.54 239.13C189.69 238.97 189.83 238.76 189.91 238.55C190.62 236.72 187.84 231.11 187.15 229.23C186.62 227.73 186.15 226.22 185.74 224.68L185.75 224.67Z" fill="white"/>
<path d="M251.63 57.4499C256.93 60.2699 262.11 63.3099 267.16 66.5499C264.6 56.8199 263.48 47.4999 265.75 37.5499C269.07 23.0199 278.84 14.7999 290.85 7.29992C285.77 5.17992 280.41 4.48992 274.96 4.17992C273.57 4.09992 272.19 4.07992 270.8 4.10992C244.67 4.67992 218.4 19.2899 200.64 37.8499C212.53 41.0799 223.98 45.0499 235.4 49.6499C240.91 52.0299 246.32 54.6299 251.62 57.4599L251.63 57.4499Z" fill="white"/>
<path d="M385.06 342.74C379.8 339.85 374.12 337.81 369.56 333.77C364.72 329.47 361.95 323.66 361.53 317.2C360.68 318.12 358.72 324.53 357.89 326.36C356.31 329.82 353.76 334.8 349.88 336.12C348.19 336.7 346.41 336.39 344.86 335.55C339.37 332.6 338.4 325.88 336.67 320.52C333.87 335.07 325.62 338.7 316.54 348.42C309.58 355.87 303.76 364.74 300.65 374.51C296.85 386.45 297.21 398.91 303 410.13C303.28 409.28 303.58 408.44 303.88 407.61C309.06 393.77 320.52 387.91 333.13 382.15C343.31 377.49 347.4 371.95 351.34 361.77C352.99 364.08 354.63 366.38 356.75 368.29C366.83 377.41 379.36 375.44 391.65 376.58C396.96 377.08 402.26 378.3 407.04 380.71C410.2 382.3 412.85 384.45 415.5 386.76C413.48 365.91 403.06 352.63 385.05 342.72L385.06 342.74Z" fill="white"/>
<path d="M336.11 304.32C337.39 311.52 337.94 319.04 340.25 326.01C341.46 329.67 343.13 332.52 346.67 334.31C347.4 331.35 347.61 328.14 347.78 325.1C350.31 279.51 330.89 231.51 300.7 197.79C275.28 169.39 240.85 144.09 202.78 136.73C195.89 135.4 188.65 134.35 181.62 134.66C174.82 134.96 168.21 136.16 161.49 137.06C151.4 138.41 141.11 138.66 131.16 136.22C124.95 134.7 118.96 132.13 113.79 128.35C110.81 126.17 108.03 123.74 105.04 121.58C95.7098 114.87 85.8798 111.91 74.4698 111.28C65.8598 111.18 57.1998 112.45 48.7198 113.8C41.5798 121.63 32.5898 127.13 22.9798 131.45C19.1198 133.19 15.0498 134.64 11.3798 136.78C7.48984 139.05 5.22984 141.68 4.08984 146.08C4.97984 146.46 5.85984 146.82 6.79984 147.05C11.7498 148.29 17.3998 147.56 22.4298 147C44.6398 144.51 69.1399 137.11 88.2999 125.45C87.4899 125.32 86.6398 125.29 85.9798 124.75V124.35C86.5998 123.73 87.4698 123.57 88.3198 123.47C89.5698 123.32 91.1998 123.41 92.1798 124.31C92.5798 124.68 92.8698 125.13 92.9198 125.67L92.6198 125.91C91.7498 125.83 91.2298 125.9 90.4398 126.28C88.5498 127.2 86.8498 128.71 85.0898 129.86C81.9498 131.9 78.7098 133.76 75.3598 135.43C55.8098 145.37 29.7498 152 7.77984 151.5C8.52984 152.74 9.37984 153.91 10.5698 154.75C14.0498 157.24 20.0998 157.18 24.2798 157.31C42.5698 157.86 61.0298 152.6 79.0398 152.66C97.5598 152.72 114.09 159.27 131.03 166.05C137.64 168.67 144.29 171.21 150.96 173.68C155.29 175.28 159.69 177.07 164.14 178.31C162.55 174.19 160.98 170.07 159.82 165.81C157.66 157.84 157.71 148.99 161.93 141.69C161.01 150.47 162.09 159.07 164.63 167.5C171.83 191.29 189.51 213.11 209.57 227.39C212.79 229.68 216.16 231.97 219.66 233.83C223.37 235.79 234.39 240.8 238.25 239.6C238.61 239.24 238.74 239.09 238.75 238.54C238.75 237.36 237.23 235.54 236.57 234.58C232.19 228.18 228.01 222.14 225.17 214.85C216.19 191.83 223.21 161.64 202.19 144.25C197.57 140.5 192.27 138.89 186.55 137.64C193.58 137.17 200.16 138.72 205.92 142.83C209.23 145.19 211.93 148.34 214.13 151.74C222.96 165.4 222.25 181.68 224.89 197.08C227.09 197.62 229.33 198.61 231.44 199.43C237.17 201.63 242.77 204.13 248.25 206.9C284.15 225.17 319.86 253.23 333.04 292.8C334.29 296.57 335.39 300.41 336.08 304.33L336.11 304.32Z" fill="white"/>
<path d="M106.26 119.93C108.76 121.83 111.11 123.92 113.62 125.8C119.52 130.22 126.06 133.06 133.27 134.57C148.44 137.76 159.66 134.79 174.46 133.11C193.15 130.99 213.67 135.76 230.79 143.23C234.47 144.86 238.09 146.61 241.66 148.47C245.23 150.33 248.73 152.3 252.18 154.38C255.62 156.46 259 158.65 262.3 160.94C265.61 163.23 268.84 165.63 271.99 168.12C272.91 168.82 273.83 169.53 274.73 170.25C275.64 170.97 276.54 171.7 277.44 172.43C278.34 173.16 279.23 173.91 280.11 174.66C280.99 175.41 281.87 176.17 282.74 176.93C283.61 177.69 284.47 178.47 285.33 179.25C286.19 180.03 287.04 180.82 287.88 181.61C288.72 182.4 289.56 183.2 290.39 184.01C291.22 184.82 292.04 185.63 292.86 186.45C293.68 187.27 294.49 188.1 295.29 188.94C296.09 189.78 296.89 190.62 297.68 191.47C298.47 192.32 299.25 193.17 300.02 194.04C300.79 194.9 301.56 195.77 302.32 196.65C303.08 197.53 303.83 198.41 304.57 199.3C305.31 200.19 306.05 201.08 306.78 201.98C307.51 202.88 308.23 203.79 308.94 204.7C309.65 205.61 310.36 206.53 311.06 207.46C311.76 208.39 312.45 209.32 313.13 210.25C313.81 211.19 314.49 212.13 315.15 213.08C315.82 214.03 316.47 214.98 317.12 215.94C317.77 216.9 318.41 217.86 319.04 218.83C319.67 219.8 320.3 220.78 320.91 221.76C321.53 222.74 322.13 223.73 322.73 224.72C323.33 225.71 323.92 226.71 324.5 227.71C325.08 228.71 325.66 229.72 326.22 230.73C326.79 231.74 327.34 232.76 327.89 233.78C328.44 234.8 328.98 235.83 329.51 236.86C330.04 237.89 330.56 238.92 331.08 239.96C331.59 241 332.1 242.04 332.59 243.09C333.09 244.14 333.57 245.19 334.05 246.24C334.53 247.3 335 248.36 335.46 249.42C335.92 250.48 336.37 251.55 336.81 252.62C337.25 253.69 337.68 254.77 338.11 255.85C338.73 257.4 339.33 258.96 339.91 260.53C340.49 262.1 341.04 263.68 341.56 265.27C342.09 266.86 342.59 268.45 343.06 270.06C343.54 271.66 343.99 273.27 344.41 274.89C344.84 276.51 345.24 278.13 345.61 279.76C345.98 281.39 346.33 283.03 346.66 284.67C346.98 286.31 347.28 287.96 347.55 289.61C347.82 291.26 348.07 292.91 348.29 294.57C348.51 296.23 348.7 297.89 348.87 299.55C349.04 301.21 349.18 302.88 349.29 304.55C349.41 306.22 349.49 307.89 349.56 309.56C349.62 311.23 349.66 312.9 349.67 314.58C349.68 316.25 349.67 317.93 349.62 319.6C349.58 321.27 349.51 322.94 349.42 324.61C349.33 326.28 349.2 327.95 349.06 329.61C348.91 331.28 348.74 332.94 348.54 334.6C349.66 334.17 350.59 333.69 351.5 332.88C358.84 326.31 364.19 295.98 365.67 285.56C366.71 277.98 367.43 270.37 367.84 262.73C370.61 205.08 349.67 151.68 311.08 109.2C305.71 103.28 299.92 97.8303 293.98 92.4903C266.91 68.1903 238.79 53.3203 203.99 43.0503C198.68 41.4803 193.37 39.8103 187.99 38.5303C176.9 35.9003 165.74 34.5803 154.38 34.0503C136.81 33.4203 119.93 35.8703 104.09 43.7703C82.6298 54.4703 66.4998 72.5103 56.6598 94.2603C54.1198 99.8703 52.2098 105.65 50.2598 111.48C69.7598 108.06 89.5898 107.3 106.24 119.95L106.26 119.93ZM95.3298 95.5703C95.3498 95.2903 95.3798 95.0003 95.4098 94.7203C95.4398 94.4403 95.4898 94.1603 95.5298 93.8803C95.5798 93.6003 95.6298 93.3203 95.6998 93.0503C95.7598 92.7703 95.8198 92.5003 95.8998 92.2303C95.9698 91.9603 96.0498 91.6903 96.1398 91.4203C96.2298 91.1503 96.3198 90.8903 96.4198 90.6203C96.5198 90.3603 96.6298 90.1003 96.7398 89.8403C96.8498 89.5803 96.9698 89.3303 97.0998 89.0703C97.2298 88.8203 97.3598 88.5703 97.4998 88.3203C97.6398 88.0703 97.7798 87.8303 97.9298 87.5903C98.0798 87.3503 98.2398 87.1203 98.3998 86.8903C98.5598 86.6603 98.7298 86.4303 98.8998 86.2103C99.0698 85.9903 99.2498 85.7703 99.4398 85.5603C99.6298 85.3503 99.8198 85.1403 100.01 84.9403C100.21 84.7403 100.41 84.5403 100.61 84.3503C100.82 84.1603 101.03 83.9703 101.24 83.7903C101.45 83.6103 101.67 83.4303 101.9 83.2603C102.12 83.0903 102.35 82.9203 102.58 82.7603C102.81 82.6003 103.05 82.4503 103.29 82.3003C103.49 82.1803 103.69 82.0603 103.9 81.9503C104.1 81.8403 104.31 81.7303 104.52 81.6203C104.73 81.5203 104.94 81.4103 105.15 81.3203C105.36 81.2203 105.58 81.1303 105.8 81.0403C106.02 80.9503 106.24 80.8703 106.46 80.7903C106.68 80.7103 106.9 80.6403 107.13 80.5703C107.36 80.5003 107.58 80.4403 107.81 80.3803C108.04 80.3203 108.26 80.2703 108.49 80.2203C108.72 80.1703 108.95 80.1203 109.18 80.0803C109.41 80.0403 109.64 80.0003 109.87 79.9703C110.1 79.9403 110.34 79.9103 110.57 79.8903C110.8 79.8703 111.04 79.8503 111.27 79.8403C111.5 79.8303 111.74 79.8203 111.97 79.8203C112.2 79.8203 112.44 79.8203 112.67 79.8203C112.9 79.8203 113.14 79.8403 113.37 79.8603C113.6 79.8803 113.84 79.9003 114.07 79.9303C118.73 80.7403 122.71 82.9703 125.46 86.8903C125.62 87.1203 125.77 87.3503 125.92 87.5903C126.07 87.8303 126.21 88.0703 126.34 88.3103C126.47 88.5503 126.6 88.8003 126.73 89.0503C126.85 89.3003 126.97 89.5503 127.08 89.8103C127.19 90.0703 127.29 90.3203 127.39 90.5903C127.49 90.8503 127.58 91.1103 127.66 91.3803C127.74 91.6503 127.82 91.9103 127.89 92.1803C127.96 92.4503 128.03 92.7203 128.08 92.9903C128.14 93.2603 128.19 93.5403 128.23 93.8103C128.27 94.0903 128.31 94.3603 128.34 94.6403C128.37 94.9203 128.39 95.1903 128.41 95.4703C128.43 95.7503 128.44 96.0303 128.44 96.3103C128.44 96.5903 128.44 96.8703 128.43 97.1503C128.42 97.4303 128.4 97.7103 128.38 97.9803C128.36 98.2603 128.32 98.5303 128.29 98.8103C128.25 99.0903 128.21 99.3603 128.16 99.6403C128.11 99.9203 128.05 100.2 127.98 100.47C127.91 100.75 127.84 101.02 127.76 101.29C127.68 101.56 127.6 101.83 127.5 102.1C127.41 102.37 127.31 102.63 127.2 102.9C127.09 103.16 126.98 103.42 126.87 103.68C126.75 103.94 126.63 104.19 126.5 104.44C126.37 104.69 126.23 104.94 126.09 105.19C125.95 105.43 125.8 105.68 125.64 105.91C125.49 106.15 125.33 106.38 125.16 106.61C124.99 106.84 124.82 107.07 124.65 107.29C124.47 107.51 124.29 107.73 124.1 107.94C123.91 108.15 123.72 108.36 123.52 108.56C123.32 108.76 123.12 108.96 122.91 109.16C122.7 109.35 122.49 109.54 122.27 109.72C122.05 109.9 121.83 110.08 121.61 110.25C121.38 110.42 121.16 110.59 120.92 110.75C117.35 113.18 113.41 113.79 109.19 113.36C104.49 112.33 100.63 110.24 97.9698 106.11C97.8198 105.87 97.6698 105.63 97.5298 105.38C97.3898 105.13 97.2498 104.88 97.1298 104.63C96.9998 104.38 96.8798 104.12 96.7598 103.86C96.6398 103.6 96.5298 103.34 96.4298 103.07C96.3298 102.81 96.2298 102.54 96.1398 102.27C96.0498 102 95.9698 101.73 95.8898 101.46C95.8098 101.19 95.7398 100.91 95.6798 100.63C95.6198 100.35 95.5598 100.07 95.5098 99.8003C95.4598 99.5203 95.4198 99.2403 95.3798 98.9603C95.3398 98.6803 95.3198 98.4003 95.2998 98.1103C95.2798 97.8303 95.2598 97.5403 95.2598 97.2603C95.2598 96.9803 95.2598 96.6903 95.2598 96.4103C95.2598 96.1303 95.2798 95.8403 95.2998 95.5603L95.3298 95.5703Z" fill="white"/>
<path d="M95.3298 98.1304C95.3498 98.4104 95.3798 98.7004 95.4098 98.9804C95.4498 99.2604 95.4898 99.5404 95.5398 99.8204C95.5898 100.1 95.6498 100.38 95.7098 100.65C95.7698 100.93 95.8398 101.2 95.9198 101.48C95.9998 101.76 96.0798 102.02 96.1698 102.29C96.2598 102.56 96.3598 102.83 96.4598 103.09C96.5598 103.35 96.6698 103.62 96.7898 103.88C96.9098 104.14 97.0298 104.39 97.1598 104.65C97.2898 104.9 97.4198 105.15 97.5598 105.4C97.6998 105.65 97.8498 105.89 97.9998 106.13C100.67 110.26 104.52 112.35 109.22 113.38C113.44 113.81 117.39 113.2 120.95 110.77C121.18 110.61 121.41 110.44 121.64 110.27C121.87 110.1 122.09 109.92 122.3 109.74C122.52 109.56 122.73 109.37 122.94 109.18C123.15 108.99 123.35 108.79 123.55 108.58C123.75 108.38 123.94 108.17 124.13 107.96C124.32 107.75 124.5 107.53 124.68 107.31C124.86 107.09 125.03 106.86 125.19 106.63C125.36 106.4 125.52 106.17 125.67 105.93C125.82 105.69 125.97 105.45 126.12 105.21C126.26 104.96 126.4 104.72 126.53 104.46C126.66 104.21 126.78 103.95 126.9 103.7C127.02 103.44 127.13 103.18 127.23 102.92C127.34 102.66 127.43 102.39 127.53 102.12C127.62 101.85 127.71 101.58 127.79 101.31C127.87 101.04 127.94 100.76 128.01 100.49C128.08 100.21 128.13 99.9404 128.19 99.6604C128.24 99.3904 128.29 99.1104 128.32 98.8304C128.36 98.5504 128.39 98.2804 128.41 98.0004C128.43 97.7204 128.45 97.4404 128.46 97.1704C128.47 96.8904 128.47 96.6104 128.47 96.3304C128.47 96.0504 128.46 95.7704 128.44 95.4904C128.42 95.2104 128.4 94.9304 128.37 94.6604C128.34 94.3804 128.3 94.1104 128.26 93.8304C128.22 93.5504 128.16 93.2804 128.11 93.0104C128.05 92.7404 127.99 92.4704 127.92 92.2004C127.85 91.9304 127.77 91.6604 127.69 91.4004C127.61 91.1304 127.51 90.8704 127.42 90.6104C127.32 90.3504 127.22 90.0904 127.11 89.8304C127 89.5704 126.88 89.3204 126.76 89.0704C126.64 88.8204 126.51 88.5704 126.37 88.3304C126.24 88.0904 126.09 87.8504 125.95 87.6104C125.8 87.3704 125.65 87.1404 125.49 86.9104C122.74 82.9904 118.76 80.7604 114.1 79.9504C113.87 79.9204 113.63 79.9004 113.4 79.8804C113.17 79.8604 112.93 79.8504 112.7 79.8404C112.47 79.8404 112.23 79.8304 112 79.8404C111.77 79.8504 111.53 79.8404 111.3 79.8604C111.07 79.8704 110.83 79.8904 110.6 79.9104C110.37 79.9304 110.13 79.9604 109.9 79.9904C109.67 80.0204 109.44 80.0604 109.21 80.1004C108.98 80.1404 108.75 80.1904 108.52 80.2404C108.29 80.2904 108.06 80.3404 107.84 80.4004C107.61 80.4604 107.39 80.5204 107.16 80.5904C106.93 80.6604 106.71 80.7304 106.49 80.8104C106.27 80.8904 106.05 80.9704 105.83 81.0604C105.61 81.1504 105.4 81.2404 105.18 81.3404C104.97 81.4404 104.75 81.5404 104.55 81.6404C104.34 81.7504 104.13 81.8504 103.93 81.9704C103.73 82.0804 103.52 82.2004 103.32 82.3204C103.08 82.4704 102.84 82.6204 102.61 82.7804C102.38 82.9404 102.15 83.1104 101.93 83.2804C101.71 83.4504 101.49 83.6304 101.27 83.8104C101.05 83.9904 100.84 84.1804 100.64 84.3704C100.43 84.5604 100.23 84.7604 100.04 84.9604C99.8398 85.1604 99.6498 85.3704 99.4698 85.5804C99.2898 85.7904 99.1098 86.0104 98.9298 86.2304C98.7598 86.4504 98.5898 86.6804 98.4298 86.9104C98.2698 87.1404 98.1098 87.3704 97.9598 87.6104C97.8098 87.8504 97.6598 88.0904 97.5298 88.3404C97.3898 88.5904 97.2598 88.8304 97.1298 89.0904C96.9998 89.3404 96.8798 89.6004 96.7698 89.8604C96.6598 90.1204 96.5498 90.3804 96.4498 90.6404C96.3498 90.9004 96.2598 91.1704 96.1698 91.4404C96.0798 91.7104 95.9998 91.9804 95.9298 92.2504C95.8598 92.5204 95.7898 92.8004 95.7298 93.0704C95.6698 93.3504 95.6098 93.6304 95.5598 93.9004C95.5098 94.1804 95.4698 94.4604 95.4398 94.7404C95.4098 95.0204 95.3798 95.3004 95.3598 95.5904C95.3398 95.8704 95.3298 96.1604 95.3198 96.4404C95.3198 96.7204 95.3198 97.0104 95.3198 97.2904C95.3198 97.5704 95.3398 97.8604 95.3598 98.1404L95.3298 98.1304ZM97.1298 94.9504C97.5898 91.0204 99.7198 87.1104 102.86 84.6804C105.58 82.5804 109.04 81.5404 112.46 81.6104C116.69 82.0404 120.43 83.5804 123.19 86.9204C125.87 90.1604 126.97 94.2804 126.55 98.4404C126.53 98.6804 126.49 98.9304 126.46 99.1704C126.42 99.4104 126.38 99.6504 126.33 99.9004C126.28 100.14 126.23 100.38 126.16 100.62C126.1 100.86 126.03 101.09 125.96 101.33C125.89 101.56 125.81 101.8 125.72 102.03C125.64 102.26 125.55 102.49 125.45 102.72C125.35 102.95 125.25 103.17 125.15 103.39C125.04 103.61 124.93 103.83 124.81 104.05C124.69 104.27 124.57 104.48 124.44 104.69C124.31 104.9 124.18 105.11 124.04 105.31C123.9 105.51 123.76 105.71 123.61 105.91C123.46 106.11 123.31 106.3 123.15 106.49C122.99 106.68 122.83 106.86 122.66 107.04C122.49 107.22 122.32 107.4 122.14 107.57C121.96 107.74 121.78 107.91 121.6 108.07C121.42 108.23 121.23 108.39 121.04 108.54C118.14 110.87 114.73 111.89 111.03 111.78C106.71 111.27 102.95 109.57 100.19 106.1C97.6698 102.93 96.6498 98.9504 97.1198 94.9504H97.1298Z" fill="black"/>
<path d="M111.03 111.78C114.73 111.89 118.14 110.87 121.04 108.54C121.23 108.39 121.42 108.23 121.6 108.07C121.78 107.91 121.96 107.74 122.14 107.57C122.32 107.4 122.49 107.22 122.66 107.04C122.83 106.86 122.99 106.68 123.15 106.49C123.31 106.3 123.46 106.11 123.61 105.91C123.76 105.71 123.9 105.51 124.04 105.31C124.18 105.11 124.31 104.9 124.44 104.69C124.57 104.48 124.69 104.27 124.81 104.05C124.93 103.83 125.04 103.62 125.15 103.39C125.26 103.17 125.36 102.94 125.45 102.72C125.54 102.5 125.64 102.27 125.72 102.03C125.8 101.8 125.88 101.57 125.96 101.33C126.03 101.1 126.1 100.86 126.16 100.62C126.22 100.38 126.28 100.14 126.33 99.8998C126.38 99.6598 126.42 99.4198 126.46 99.1698C126.5 98.9298 126.53 98.6798 126.55 98.4398C126.97 94.2798 125.87 90.1598 123.19 86.9198C120.43 83.5698 116.69 82.0298 112.46 81.6098C109.04 81.5398 105.58 82.5798 102.86 84.6798C99.7202 87.1098 97.6002 91.0198 97.1302 94.9498C96.6602 98.9498 97.6802 102.93 100.2 106.1C102.95 109.56 106.72 111.27 111.04 111.78H111.03ZM102.83 97.0598C102.86 96.9198 102.88 96.7898 102.92 96.6498C102.95 96.5098 102.99 96.3798 103.03 96.2498C103.07 96.1198 103.11 95.9798 103.16 95.8498C103.21 95.7198 103.25 95.5898 103.31 95.4598C103.37 95.3298 103.42 95.1998 103.48 95.0798C103.54 94.9498 103.6 94.8298 103.67 94.6998C103.73 94.5798 103.8 94.4598 103.87 94.3398C103.94 94.2198 104.02 94.0998 104.09 93.9898C104.17 93.8698 104.25 93.7598 104.33 93.6498C104.41 93.5398 104.5 93.4298 104.59 93.3198C104.68 93.2098 104.77 93.1098 104.86 92.9998C104.95 92.8898 105.05 92.7998 105.15 92.6998C105.25 92.5998 105.35 92.5098 105.45 92.4098C105.55 92.3198 105.66 92.2298 105.77 92.1398C105.88 92.0498 105.99 91.9698 106.1 91.8798C106.21 91.7998 106.33 91.7198 106.44 91.6398C108.17 90.4798 110.18 89.9898 112.25 89.9998C115.07 90.2898 117.56 91.1298 119.43 93.3898C119.52 93.4898 119.6 93.5998 119.69 93.7098C119.77 93.8198 119.85 93.9298 119.93 94.0398C120.01 94.1498 120.08 94.2698 120.15 94.3898C120.22 94.5098 120.29 94.6298 120.35 94.7498C120.41 94.8698 120.48 94.9898 120.53 95.1198C120.59 95.2398 120.64 95.3698 120.69 95.4998C120.74 95.6298 120.79 95.7498 120.83 95.8798C120.87 96.0098 120.92 96.1398 120.95 96.2698C120.99 96.3998 121.02 96.5298 121.05 96.6698C121.08 96.7998 121.11 96.9398 121.13 97.0698C121.15 97.1998 121.17 97.3398 121.19 97.4798C121.21 97.6198 121.22 97.7498 121.23 97.8898C121.24 98.0298 121.25 98.1598 121.25 98.2998C121.25 98.4398 121.25 98.5698 121.25 98.7098C121.25 98.8498 121.24 98.9798 121.23 99.1198C121.22 99.2598 121.2 99.3898 121.19 99.5298C121.17 99.6798 121.15 99.8298 121.12 99.9798C121.09 100.13 121.07 100.28 121.03 100.42C121 100.57 120.96 100.71 120.92 100.86C120.88 101.01 120.84 101.15 120.79 101.29C120.74 101.43 120.69 101.58 120.64 101.72C120.59 101.86 120.53 102 120.47 102.14C120.41 102.28 120.34 102.41 120.28 102.55C120.21 102.68 120.14 102.82 120.07 102.95C120 103.08 119.92 103.21 119.84 103.34C119.76 103.47 119.67 103.59 119.59 103.72C119.5 103.84 119.41 103.96 119.32 104.08C119.23 104.2 119.13 104.31 119.03 104.43C118.93 104.54 118.83 104.66 118.73 104.76C118.63 104.87 118.52 104.98 118.41 105.08C118.3 105.18 118.19 105.28 118.07 105.38C117.96 105.48 117.84 105.57 117.72 105.67C115.8 107.13 113.69 107.54 111.34 107.47C108.5 107.01 106.08 106.29 104.28 103.84C102.86 101.91 102.38 99.4398 102.83 97.0998V97.0598Z" fill="white"/>
<path d="M111.34 107.42C113.69 107.49 115.81 107.08 117.72 105.62C117.84 105.53 117.96 105.43 118.07 105.33C118.18 105.23 118.3 105.13 118.41 105.03C118.52 104.93 118.63 104.82 118.73 104.71C118.83 104.6 118.94 104.49 119.03 104.38C119.13 104.27 119.22 104.15 119.32 104.03C119.41 103.91 119.5 103.79 119.59 103.67C119.68 103.55 119.76 103.42 119.84 103.29C119.92 103.16 120 103.03 120.07 102.9C120.14 102.77 120.22 102.64 120.28 102.5C120.35 102.37 120.41 102.23 120.47 102.09C120.53 101.95 120.59 101.81 120.64 101.67C120.69 101.53 120.75 101.39 120.79 101.24C120.84 101.1 120.88 100.95 120.92 100.81C120.96 100.66 121 100.52 121.03 100.37C121.06 100.22 121.09 100.07 121.12 99.9302C121.15 99.7802 121.17 99.6302 121.19 99.4802C121.21 99.3402 121.22 99.2102 121.23 99.0702C121.24 98.9302 121.25 98.8002 121.25 98.6602C121.25 98.5202 121.25 98.3902 121.25 98.2502C121.25 98.1102 121.25 97.9802 121.23 97.8402C121.22 97.7002 121.21 97.5702 121.19 97.4302C121.17 97.2902 121.15 97.1602 121.13 97.0202C121.11 96.8902 121.08 96.7502 121.05 96.6202C121.02 96.4902 120.98 96.3502 120.95 96.2202C120.91 96.0902 120.87 95.9602 120.83 95.8302C120.79 95.7002 120.74 95.5702 120.69 95.4502C120.64 95.3202 120.58 95.2002 120.53 95.0702C120.47 94.9502 120.41 94.8202 120.35 94.7002C120.29 94.5802 120.22 94.4602 120.15 94.3402C120.08 94.2202 120.01 94.1102 119.93 93.9902C119.85 93.8802 119.77 93.7702 119.69 93.6602C119.61 93.5502 119.52 93.4402 119.43 93.3402C117.56 91.0702 115.07 90.2302 112.25 89.9502C110.18 89.9502 108.18 90.4302 106.44 91.5902C106.32 91.6702 106.21 91.7502 106.1 91.8302C105.99 91.9102 105.88 92.0002 105.77 92.0902C105.66 92.1802 105.56 92.2702 105.45 92.3602C105.35 92.4502 105.25 92.5502 105.15 92.6502C105.05 92.7502 104.96 92.8502 104.86 92.9502C104.76 93.0502 104.68 93.1602 104.59 93.2702C104.5 93.3802 104.42 93.4902 104.33 93.6002C104.25 93.7102 104.17 93.8302 104.09 93.9402C104.01 94.0602 103.94 94.1702 103.87 94.2902C103.8 94.4102 103.73 94.5302 103.67 94.6502C103.6 94.7702 103.54 94.9002 103.48 95.0302C103.42 95.1602 103.37 95.2802 103.31 95.4102C103.25 95.5402 103.21 95.6702 103.16 95.8002C103.11 95.9302 103.07 96.0602 103.03 96.2002C102.99 96.3302 102.95 96.4702 102.92 96.6002C102.89 96.7402 102.86 96.8702 102.83 97.0102C102.38 99.3502 102.86 101.82 104.28 103.75C106.08 106.19 108.5 106.91 111.34 107.38V107.42ZM111.97 94.2802C112.32 93.6002 113 93.0602 113.74 92.8702C114.22 92.7502 114.75 92.7902 115.24 92.8002C116.27 93.4402 117.14 94.0202 117.44 95.2702C117.6 95.9402 117.48 96.6402 117.07 97.1902C116.48 97.9802 115.66 98.2602 114.71 98.3502C114.46 98.3702 114.22 98.3802 113.97 98.3802C113 97.9502 112.3 97.5502 111.89 96.5202C111.6 95.8002 111.61 94.9702 111.97 94.2702V94.2802Z" fill="black"/>
<path d="M113.98 98.3899C114.23 98.3899 114.47 98.3899 114.72 98.3599C115.67 98.2699 116.49 97.9899 117.08 97.1999C117.49 96.6399 117.61 95.9499 117.45 95.2799C117.15 94.0299 116.29 93.4499 115.25 92.8099C114.76 92.7899 114.22 92.7499 113.75 92.8799C113.01 93.0699 112.33 93.6199 111.98 94.2899C111.62 94.9899 111.61 95.8099 111.9 96.5399C112.32 97.5599 113.01 97.9699 113.98 98.3999V98.3899Z" fill="white"/>
</g>
<defs>
<clipPath id="clip0_1675_7972">
<rect width="419.77" height="417.52" fill="white"/>
</clipPath>
</defs>
</svg>
