<svg width="520" height="302" viewBox="0 0 520 302" fill="none" xmlns="http://www.w3.org/2000/svg">
<path d="M131.523 28.0863C137.344 25.1771 143.136 22.2384 149.251 19.8581C157.218 16.8019 165.479 14.5391 173.858 12.8934C191.027 9.4846 208.637 8.92626 226.041 10.3074C261.143 13.0992 297.156 24.7656 325.497 46.0416C321.587 50.5671 318.412 56.0624 317.177 61.9397C315.678 61.3226 314.178 60.7349 312.679 60.1471C307.27 58.0607 301.772 56.2975 296.216 54.74C296.627 53.9172 297.009 53.0943 297.392 52.2715C297.597 51.8013 297.039 51.6544 296.745 51.9483C296.069 52.6829 295.51 53.5351 294.952 54.3874C288.719 52.7123 282.457 51.3311 276.107 50.2145C277.9 47.5403 279.752 45.1306 280.693 41.9274C280.84 41.4572 280.164 41.4866 279.958 41.8099C278.282 44.7779 275.725 47.0995 273.696 49.8324C266.523 48.6276 259.261 47.746 252 47.1289C255.116 43.7788 256.204 36.5203 256.174 33.1702C256.174 32.9351 255.851 33.0233 255.792 33.1702C255.057 36.1383 254.205 38.9888 252.823 41.7511C252.147 43.1323 251.471 44.5428 250.559 45.8065C250.148 46.3648 249.648 46.5999 249.148 46.8644C248.002 46.7762 246.855 46.6881 245.708 46.5999C239.3 46.1591 232.861 45.8358 226.423 45.6595C229.539 41.4866 229.716 33.4935 229.627 29.3206C229.627 29.0267 229.186 29.1149 229.157 29.3206C228.687 32.6119 228.451 35.9326 227.54 39.1357C226.864 41.5454 225.306 43.4849 224.218 45.5714C217.544 45.4244 210.871 45.4538 204.197 45.6889C206.167 42.8972 206.196 38.548 206.02 35.4036C205.726 29.585 204.521 23.7371 202.522 18.2712C202.463 18.1537 202.286 18.2712 202.316 18.3594C203.58 22.8261 204.168 27.6749 204.433 32.318C204.668 36.6672 204.55 42.809 200.905 45.8065C196.465 46.0122 192.026 46.2766 187.616 46.6587C188.557 43.72 188.263 40.1642 187.705 37.3431C186.587 31.7597 184.03 24.4718 179.826 20.4458C179.679 20.2989 179.414 20.5634 179.502 20.7397C182.442 25.5885 184.853 30.2022 185.852 35.8444C186.44 39.1063 186.47 43.5731 185.118 46.8938C181.913 47.217 178.709 47.5697 175.533 47.9811C173.917 48.2162 172.3 48.4513 170.712 48.7157C173.975 42.1037 169.683 34.3751 166.449 28.4977C166.39 28.4096 166.243 28.4977 166.273 28.5859C168.096 34.3751 171.388 43.3968 167.949 49.0684C167.949 49.1272 167.89 49.1565 167.89 49.2153C164.186 49.8912 160.481 50.6846 156.836 51.5662C157.306 48.7745 154.749 45.1012 153.867 43.1029C152.044 38.9888 150.015 33.5816 146.899 30.2903C146.693 30.0552 146.223 30.3785 146.399 30.643C148.31 33.5816 150.074 36.6378 151.662 39.7528C152.896 42.1625 153.778 44.3959 154.249 47.0407C154.425 48.0105 155.542 50.5671 155.248 51.9483C152.544 52.5948 149.81 53.2413 147.105 53.9172C147.458 53.6527 147.693 53.2707 147.605 52.8592C145.282 43.4261 140.666 32.5825 131.523 28.0569V28.0863Z" fill="url(#paint0_radial_1396_11471)"/>
<path d="M70.8446 88.0346C75.5778 74.5755 86.8375 60.0291 102.448 60.3818C102.977 60.4112 103.536 60.4406 104.065 60.4699C112.797 61.3221 119.235 67.5521 123.292 75.1045C118.706 73.4 113.326 74.9282 108.916 77.2203C98.9498 82.3924 92.5409 95.822 89.5128 106.049C86.3671 116.687 87.6901 130.116 98.7441 135.465C109.974 140.901 120.146 133.995 125.438 124.004C126.438 122.152 127.32 120.184 128.084 118.215C125.115 127.971 119.764 136.993 112.297 144.075C112.003 144.369 111.885 144.663 111.885 144.956C107.564 146.132 103.507 148.042 100.332 150.687C93.952 151.333 87.9547 151.774 81.8985 149.247C75.4896 146.573 71.9911 140.313 69.7274 134.083C64.5238 119.772 65.8468 102.14 70.8152 88.0052L70.8446 88.0346Z" fill="white"/>
<path d="M119.794 85.4782C115.413 90.0038 114.385 98.0557 115.266 104.08C116.06 109.487 121.293 113.895 126.144 110.545C125.527 113.542 124.762 116.481 123.733 119.361C121.852 124.68 118.471 130.381 113.15 132.82C107.77 135.289 100.391 133.143 96.1278 129.441C86.1028 120.713 91.6592 102.787 96.9804 93.1188C99.8615 87.8879 104.448 82.8334 109.739 79.9535C113.238 78.0728 117.442 76.8386 121.352 78.014C123.704 78.7193 125.321 80.6001 126.497 82.7453C126.526 82.8628 126.556 82.9804 126.614 83.0979C124.263 82.7453 121.323 83.9207 119.823 85.5076L119.794 85.4782Z" fill="url(#paint1_radial_1396_11471)"/>
<path d="M128.319 91.6507C128.319 91.6507 128.319 91.68 128.319 91.7094C128.23 94.5305 127.966 97.381 127.701 100.055C127.584 101.201 127.466 102.347 127.319 103.464C126.878 105.227 126.143 106.99 124.644 108.107C122.057 110.076 119.793 106.99 118.999 104.963C117.588 101.436 118.205 96.8815 118.94 93.2669C119.44 90.916 120.322 88.3594 122.174 86.7725C126.143 83.393 127.936 88.6826 128.26 91.6507H128.319Z" fill="white"/>
<path d="M170.124 263.679C169.8 263.767 169.536 264.002 169.33 264.296C169.242 264.237 169.124 264.178 168.948 264.178C160.628 263.767 152.308 263.679 144.047 262.415C135.345 261.063 127.025 258.301 118.852 255.098C103.535 249.073 89.1594 240.875 75.8123 231.295C62.1712 221.509 50.4999 209.049 40.3573 195.737C36.0651 190.094 32.5372 183.953 28.6566 178.046C27.1572 175.724 25.6285 173.403 24.2468 170.993C23.3648 169.465 21.983 167.202 21.4539 165.086C36.8588 174.666 55.5565 177.017 72.9606 172.051C76.4885 176.165 81.6333 178.957 87.1602 179.163C88.2774 179.192 89.0712 177.399 87.6894 177.253C78.223 176.224 69.6973 168.583 69.5503 158.71C69.5503 157.769 68.1098 158.21 68.0804 159.003C67.9922 163.059 69.3152 166.967 71.5789 170.258C54.8509 173.697 38.858 171.963 23.894 163.118C12.1932 156.182 3.99096 145.162 3.1384 131.409C2.81501 126.414 4.07916 121.624 9.95892 122.094C13.3692 122.358 16.6619 123.593 20.1309 123.828C23.6 124.063 26.922 123.122 30.0383 121.653C36.0945 118.744 40.7101 113.572 45.3257 108.84C48.4126 105.637 51.4995 103.228 55.4977 101.288C58.6728 99.76 61.7891 98.1438 64.8759 96.4687C61.9948 109.311 62.6122 123.152 66.9632 135.377C69.2858 141.871 73.5486 147.807 79.7517 151.069C85.1317 153.89 91.8641 154.155 97.8614 153.214C94.7451 156.829 93.0988 161.443 93.8338 167.026C93.9514 168.025 95.3331 167.555 95.3625 166.732C96.4797 147.396 117 143.928 132.493 147.249C133.463 147.454 134.639 145.985 133.434 145.544C128.377 143.605 121.851 143.223 115.589 144.281C128.965 132.056 135.169 112.72 134.316 94.9406C133.846 85.1843 131.376 76.0156 126.084 67.758C125.467 66.7882 124.791 65.9066 124.115 65.0544C128.083 62.6741 132.434 61.0285 136.932 59.7061C138.579 61.2929 140.989 63.6145 141.225 63.8496C145.047 67.3466 148.427 71.3432 151.926 75.1634C158.041 81.893 163.538 89.0633 168.154 96.9389C177.885 113.572 182.795 133.026 187.351 151.569C192.261 171.61 192.996 193.033 190.35 213.457C189.086 223.096 186.469 232.646 183.147 241.756C180.208 249.808 176.239 257.684 170.124 263.767V263.679Z" fill="url(#paint2_radial_1396_11471)"/>
<path d="M401.905 208.463C403.14 210.02 404.463 211.607 405.316 213.399C405.492 213.752 405.492 214.252 405.433 214.751C399.406 222.01 393.292 229.239 386.265 235.498C378.504 242.375 369.89 248.223 361.1 253.689C342.138 265.473 322.205 275.67 301.303 283.516C280.488 291.303 258.851 296.446 236.743 298.591C215.958 300.619 195.085 301.089 175.005 294.595C175.123 292.038 176.652 288.952 177.034 286.543C177.504 283.604 177.387 280.607 177.151 277.639C176.946 275.141 176.211 272.819 175.182 270.556C174.682 269.469 174.035 268.499 173.241 267.618C172.947 267.353 172.683 267.089 172.418 266.824C172.301 266.56 172.183 266.354 172.095 266.178C174.77 266.619 177.445 267.03 180.15 267.353C182.09 272.437 182.267 278.05 184.178 283.193C184.383 283.81 185.442 283.398 185.354 282.84C184.707 277.786 183.884 272.349 182.032 267.559C185.53 267.941 189.028 268.235 192.527 268.441C195.202 272.114 195.643 276.463 197.29 280.607C197.642 281.488 198.906 280.754 198.789 279.96C198.171 276.081 196.849 271.879 194.585 268.529C200.024 268.764 205.492 268.764 210.931 268.558C215.517 274.465 216.899 282.017 218.515 289.217C218.633 289.717 219.456 289.364 219.427 288.923C218.809 281.723 217.134 274.318 212.753 268.499C219.192 268.206 225.601 267.588 231.98 266.736C233.332 268.088 234.655 269.41 235.743 271.085C237.154 273.231 238.183 275.582 239.653 277.668C240.035 278.226 241.153 277.55 240.888 276.963C239.3 273.524 237.154 269.146 234.067 266.442C241.064 265.443 248.032 264.121 254.911 262.534C255.587 263.357 256.322 264.121 257.087 264.944C260.085 268.147 262.437 271.673 264.642 275.464C265.054 276.14 266.259 275.346 266.053 274.671C264.701 270.615 262.026 267.412 258.998 264.444C258.38 263.856 257.616 262.975 256.793 262.122C264.995 260.183 273.109 257.861 281.076 255.217C284.016 259.154 287.132 263.004 291.189 265.825C291.572 266.09 292.189 265.473 291.807 265.149C288.132 262.034 284.957 258.655 281.988 254.923C288.308 252.807 294.57 250.515 300.685 248.076C302.92 251.543 306.624 254.364 310.563 255.422C311.21 255.599 311.974 254.6 311.181 254.306C307.623 252.954 304.301 250.662 302.096 247.517C309.564 244.491 316.972 241.258 324.322 237.82C327.232 240.935 332.142 241.816 336.199 242.375C336.611 242.433 337.022 241.728 336.522 241.581C332.877 240.611 328.291 239.994 325.38 237.32C332.289 234.058 339.08 230.62 345.783 226.976C348.899 228.563 359.6 229.209 361.129 229.151C362.099 229.092 362.893 227.505 361.6 227.417C358.924 227.211 356.22 226.77 353.544 226.418C352.956 226.33 349.811 226.094 347.753 225.918C352.545 223.273 357.278 220.57 361.923 217.719C374.858 209.844 386.618 200.528 397.701 190.36C397.202 193.417 397.966 198.354 398.113 199.353C398.672 202.879 399.818 205.612 402.023 208.463H401.905Z" fill="url(#paint3_radial_1396_11471)"/>
<path d="M401.905 208.463C403.14 210.02 404.463 211.607 405.316 213.399C405.492 213.752 405.492 214.252 405.433 214.751C399.406 222.01 393.292 229.239 386.265 235.498C378.504 242.375 369.89 248.223 361.1 253.689C342.138 265.473 322.205 275.67 301.303 283.516C280.488 291.303 258.851 296.446 236.743 298.591C215.958 300.619 195.085 301.089 175.005 294.595C175.123 292.038 176.652 288.952 177.034 286.543C177.504 283.604 177.387 280.607 177.151 277.639C176.946 275.141 176.211 272.819 175.182 270.556C174.682 269.469 174.035 268.499 173.241 267.618C172.947 267.353 172.683 267.089 172.418 266.824C172.301 266.56 172.183 266.354 172.095 266.178C174.77 266.619 177.445 267.03 180.15 267.353C182.09 272.437 182.267 278.05 184.178 283.193C184.383 283.81 185.442 283.398 185.354 282.84C184.707 277.786 183.884 272.349 182.032 267.559C185.53 267.941 189.028 268.235 192.527 268.441C195.202 272.114 195.643 276.463 197.29 280.607C197.642 281.488 198.906 280.754 198.789 279.96C198.171 276.081 196.849 271.879 194.585 268.529C200.024 268.764 205.492 268.764 210.931 268.558C215.517 274.465 216.899 282.017 218.515 289.217C218.633 289.717 219.456 289.364 219.427 288.923C218.809 281.723 217.134 274.318 212.753 268.499C219.192 268.206 225.601 267.588 231.98 266.736C233.332 268.088 234.655 269.41 235.743 271.085C237.154 273.231 238.183 275.582 239.653 277.668C240.035 278.226 241.153 277.55 240.888 276.963C239.3 273.524 237.154 269.146 234.067 266.442C241.064 265.443 248.032 264.121 254.911 262.534C255.587 263.357 256.322 264.121 257.087 264.944C260.085 268.147 262.437 271.673 264.642 275.464C265.054 276.14 266.259 275.346 266.053 274.671C264.701 270.615 262.026 267.412 258.998 264.444C258.38 263.856 257.616 262.975 256.793 262.122C264.995 260.183 273.109 257.861 281.076 255.217C284.016 259.154 287.132 263.004 291.189 265.825C291.572 266.09 292.189 265.473 291.807 265.149C288.132 262.034 284.957 258.655 281.988 254.923C288.308 252.807 294.57 250.515 300.685 248.076C302.92 251.543 306.624 254.364 310.563 255.422C311.21 255.599 311.974 254.6 311.181 254.306C307.623 252.954 304.301 250.662 302.096 247.517C309.564 244.491 316.972 241.258 324.322 237.82C327.232 240.935 332.142 241.816 336.199 242.375C336.611 242.433 337.022 241.728 336.522 241.581C332.877 240.611 328.291 239.994 325.38 237.32C332.289 234.058 339.08 230.62 345.783 226.976C348.899 228.563 359.6 229.209 361.129 229.151C362.099 229.092 362.893 227.505 361.6 227.417C358.924 227.211 356.22 226.77 353.544 226.418C352.956 226.33 349.811 226.094 347.753 225.918C352.545 223.273 357.278 220.57 361.923 217.719C374.858 209.844 386.618 200.528 397.701 190.36C397.202 193.417 397.966 198.354 398.113 199.353C398.672 202.879 399.818 205.612 402.023 208.463H401.905Z" fill="url(#paint4_radial_1396_11471)"/>
<path fill-rule="evenodd" clip-rule="evenodd" d="M245.061 153.803C240.125 153.621 235.209 154.03 230.295 154.438H230.295C226.675 154.74 223.057 155.041 219.431 155.105C219.479 155.392 219.531 155.68 219.585 155.969C223.341 155.822 227.097 155.405 230.855 154.988H230.855C235.585 154.464 240.318 153.939 245.061 153.95C245.178 153.95 245.237 153.774 245.119 153.774L245.061 153.803ZM189.497 141.973C189.274 142.075 189.049 142.169 188.821 142.254H189.026C189.078 142.28 189.153 142.306 189.21 142.312C182.04 150.908 186.815 145.425 188.503 143.478C187.83 144.505 186.961 146.967 188.852 151.805C191.497 158.652 208.225 183.306 228.539 186.716C228.539 186.716 228.539 186.716 228.539 186.716L239.74 191.095C239.406 190.755 239.077 190.415 238.752 190.076C239.536 190.335 240.325 190.592 241.121 190.831C246.972 192.623 253.057 193.622 259.172 193.652C260.848 193.681 262.553 193.563 264.229 193.417C269.432 192.917 275.047 191.066 278.252 186.658C280.685 183.28 280.58 179.213 280.478 175.222C280.447 174.004 280.416 172.793 280.457 171.612C280.868 160.033 280.31 148.631 276.341 137.288C275.761 135.639 275.217 133.775 274.647 131.82L274.647 131.82C273.367 127.434 271.954 122.589 269.697 118.686C266.492 115.454 263.112 112.721 258.32 112.486C253.439 112.251 248.471 112.985 243.679 113.838C240.357 114.425 237.094 115.16 233.86 116.071C232.191 116.596 230.529 117.139 228.878 117.712C229.02 117.54 229.098 117.452 229.098 117.452L229.127 117.422L226.304 118.633C224.206 119.409 222.126 120.242 220.072 121.155C217.632 122.301 215.28 123.565 212.957 124.946C212.647 125.133 212.338 125.324 212.031 125.517C204.956 129.476 194.831 135.769 189.497 141.973ZM225.948 140.809C223.625 141.699 221.286 142.595 218.902 143.444C218.944 142.918 218.993 142.398 219.051 141.885C220.074 141.624 221.09 141.335 222.1 141.02C224.459 140.284 226.825 139.442 229.205 138.595L229.205 138.595C236.229 136.097 243.372 133.556 250.793 133.556C251.087 133.556 250.97 133.997 250.735 133.997C241.837 134.72 233.985 137.729 225.948 140.809L225.948 140.809ZM246.531 120.273C237.697 120.908 229.993 124.466 222.514 128.626C222.696 128.188 222.881 127.763 223.068 127.348C230.431 123.42 238.026 120.21 246.619 119.95C246.854 119.921 246.707 120.273 246.531 120.273Z" fill="url(#paint5_radial_1396_11471)"/>
<path d="M450.619 126.414C442.622 130.47 434.244 133.702 426.541 131.851C426.159 132.204 425.63 132.409 425.218 132.204C410.019 125.356 396.055 116.482 382.708 106.578C364.128 92.7961 345.959 78.955 324.909 69.0517C303.478 58.9721 280.929 53.0654 257.351 50.9202C233.655 48.775 209.313 47.9521 185.588 50.1268C173.711 51.2141 162.216 53.4474 150.633 56.2392C147.135 57.0914 143.519 57.8848 139.961 58.8252C140.079 58.9134 140.197 59.0015 140.285 59.0897C144.224 62.0871 147.664 65.6429 150.986 69.2868C157.777 76.7216 164.392 84.2446 169.595 92.9137C174.446 100.995 178.444 109.664 181.208 118.715C183.354 125.797 185.471 132.968 187.147 140.226C191.586 136.288 196.407 132.879 201.199 129.353C206.697 125.298 211.959 121.389 218.133 118.362C228.687 113.19 240.211 109.723 251.942 108.577C260.114 107.783 269.904 108.371 272.55 117.628C272.55 117.628 272.55 117.687 272.55 117.716C275.813 123.417 277.46 130.822 279.253 135.994C280.458 139.491 281.399 143.106 282.193 146.721C283.604 153.244 284.016 159.886 283.986 166.557C283.986 169.877 283.869 173.227 283.398 176.489C282.869 179.898 282.075 183.219 280.37 186.246C279.224 188.332 277.46 190.066 275.461 191.388C272.58 193.328 268.905 194.092 265.524 194.68C262.819 195.15 260.026 195.326 257.263 195.355C247.708 195.444 238.154 193.798 229.275 190.272C212.841 183.718 197.172 171.376 189.939 154.861C193.173 175.696 194.584 196.208 191.674 217.307C189.44 233.44 185.03 251.778 173.564 264.091C183.413 265.237 193.438 265.501 203.345 265.178C226.6 264.443 249.707 260.623 271.992 254.011C294.452 247.37 315.884 237.76 336.698 227.152C356.866 216.896 375.27 204.965 392.409 190.183C408.402 176.372 424.395 161.384 433.185 141.754C433.95 140.079 436.801 140.638 435.919 142.636C435.155 144.37 434.303 146.074 433.421 147.749C439.271 145.486 447.532 146.897 452.647 148.572C453.235 148.748 452.736 149.512 452.265 149.483C446.885 149.071 437.772 146.868 432.303 149.836C430.686 152.715 428.923 155.507 427.041 158.24C433.185 158.71 438.477 161.061 442.799 164.646C455.323 155.096 458.674 135.201 450.589 126.503L450.619 126.414Z" fill="url(#paint6_radial_1396_11471)"/>
<path d="M450.619 126.414C442.622 130.47 434.244 133.702 426.541 131.851C426.159 132.204 425.63 132.409 425.218 132.204C410.019 125.356 396.055 116.482 382.708 106.578C364.128 92.7961 345.959 78.955 324.909 69.0517C303.478 58.9721 280.929 53.0654 257.351 50.9202C233.655 48.775 209.313 47.9521 185.588 50.1268C173.711 51.2141 162.216 53.4474 150.633 56.2392C147.135 57.0914 143.519 57.8848 139.961 58.8252C140.079 58.9134 140.197 59.0015 140.285 59.0897C144.224 62.0871 147.664 65.6429 150.986 69.2868C157.777 76.7216 164.392 84.2446 169.595 92.9137C174.446 100.995 178.444 109.664 181.208 118.715C183.354 125.797 185.471 132.968 187.147 140.226C191.586 136.288 196.407 132.879 201.199 129.353C206.697 125.298 211.959 121.389 218.133 118.362C228.687 113.19 240.211 109.723 251.942 108.577C260.114 107.783 269.904 108.371 272.55 117.628C272.55 117.628 272.55 117.687 272.55 117.716C275.813 123.417 277.46 130.822 279.253 135.994C280.458 139.491 281.399 143.106 282.193 146.721C283.604 153.244 284.016 159.886 283.986 166.557C283.986 169.877 283.869 173.227 283.398 176.489C282.869 179.898 282.075 183.219 280.37 186.246C279.224 188.332 277.46 190.066 275.461 191.388C272.58 193.328 268.905 194.092 265.524 194.68C262.819 195.15 260.026 195.326 257.263 195.355C247.708 195.444 238.154 193.798 229.275 190.272C212.841 183.718 197.172 171.376 189.939 154.861C193.173 175.696 194.584 196.208 191.674 217.307C189.44 233.44 185.03 251.778 173.564 264.091C183.413 265.237 193.438 265.501 203.345 265.178C226.6 264.443 249.707 260.623 271.992 254.011C294.452 247.37 315.884 237.76 336.698 227.152C356.866 216.896 375.27 204.965 392.409 190.183C408.402 176.372 424.395 161.384 433.185 141.754C433.95 140.079 436.801 140.638 435.919 142.636C435.155 144.37 434.303 146.074 433.421 147.749C439.271 145.486 447.532 146.897 452.647 148.572C453.235 148.748 452.736 149.512 452.265 149.483C446.885 149.071 437.772 146.868 432.303 149.836C430.686 152.715 428.923 155.507 427.041 158.24C433.185 158.71 438.477 161.061 442.799 164.646C455.323 155.096 458.674 135.201 450.589 126.503L450.619 126.414Z" fill="url(#paint7_radial_1396_11471)"/>
<path d="M440.27 166.291C440.711 166.027 441.123 165.762 441.534 165.498C437.095 161.883 431.921 159.944 426.07 159.621C424.718 161.531 423.278 163.382 421.808 165.233C423.336 165.674 424.689 166.967 425.776 167.996C427.658 169.788 429.687 172.051 431.098 174.49C433.273 171.552 436.213 168.701 440.27 166.321V166.291Z" fill="url(#paint8_radial_1396_11471)"/>
<path d="M440.27 166.291C440.711 166.027 441.123 165.762 441.534 165.498C437.095 161.883 431.921 159.944 426.07 159.621C424.718 161.531 423.278 163.382 421.808 165.233C423.336 165.674 424.689 166.967 425.776 167.996C427.658 169.788 429.687 172.051 431.098 174.49C433.273 171.552 436.213 168.701 440.27 166.321V166.291Z" fill="url(#paint9_radial_1396_11471)"/>
<path d="M446.592 77.9553C440.947 60.8229 440.33 42.3681 453.206 24.6479C445.768 31.8771 440.33 40.9281 437.948 51.4779C434.068 68.6985 434.509 86.7419 428.335 103.463C425.601 110.927 421.044 120.625 413.018 122.652C414.312 123.416 415.635 124.18 416.958 124.915C432.657 128.206 441.182 107.783 445.416 95.7636C445.563 95.3228 446.621 94.9701 446.533 95.6754C444.798 108.312 435.155 126.032 421.309 127.295C423.072 128.265 424.866 129.206 426.689 130.117C426.894 130.234 427.041 130.381 427.071 130.587C434.626 131.997 442.446 129.352 450.061 125.855C448.943 124.768 447.621 123.887 446.062 123.24C446.062 123.24 452.648 96.4101 446.562 77.9259L446.592 77.9553Z" fill="url(#paint10_radial_1396_11471)"/>
<path d="M446.592 77.9553C440.947 60.8229 440.33 42.3681 453.206 24.6479C445.768 31.8771 440.33 40.9281 437.948 51.4779C434.068 68.6985 434.509 86.7419 428.335 103.463C425.601 110.927 421.044 120.625 413.018 122.652C414.312 123.416 415.635 124.18 416.958 124.915C432.657 128.206 441.182 107.783 445.416 95.7636C445.563 95.3228 446.621 94.9701 446.533 95.6754C444.798 108.312 435.155 126.032 421.309 127.295C423.072 128.265 424.866 129.206 426.689 130.117C426.894 130.234 427.041 130.381 427.071 130.587C434.626 131.997 442.446 129.352 450.061 125.855C448.943 124.768 447.621 123.887 446.062 123.24C446.062 123.24 452.648 96.4101 446.562 77.9259L446.592 77.9553Z" fill="url(#paint11_radial_1396_11471)"/>
<path d="M426.011 171.14C424.835 169.671 422.836 166.85 420.69 166.585C418.544 169.201 416.31 171.758 413.987 174.226C420.014 174.226 423.454 181.72 425.482 188.978C425.864 185.599 426.982 180.867 429.921 176.195C428.746 174.402 427.276 172.698 426.011 171.14Z" fill="url(#paint12_radial_1396_11471)"/>
<path d="M426.011 171.14C424.835 169.671 422.836 166.85 420.69 166.585C418.544 169.201 416.31 171.758 413.987 174.226C420.014 174.226 423.454 181.72 425.482 188.978C425.864 185.599 426.982 180.867 429.921 176.195C428.746 174.402 427.276 172.698 426.011 171.14Z" fill="url(#paint13_radial_1396_11471)"/>
<path d="M445.797 242.726C454.675 250.719 466.111 255.156 477.988 255.803C477.4 255.656 476.783 255.509 476.195 255.333C465.876 252.365 456.439 245.87 450.618 236.731C450.236 236.143 451.235 235.174 451.765 235.702C459.144 242.696 466.523 249.632 476.577 252.482C486.543 255.274 496.157 254.569 505.359 250.455C504.3 250.69 503.271 250.954 502.242 251.13C499.773 251.483 497.627 251.659 495.128 251.277C489.101 250.308 483.456 246.223 479.017 242.256C470.403 234.586 467.228 225.065 468.375 213.692C468.434 212.928 469.845 212.428 469.845 213.398C469.845 225.065 472.873 234.586 482.486 241.815C487.572 245.635 493.629 249.926 500.361 248.926C501.037 248.838 501.772 248.721 502.507 248.574C495.716 246.605 489.424 241.521 486.338 235.82C481.428 226.769 485.367 215.808 489.101 207.08C494.099 195.355 499.979 184.482 498.832 171.258C497.656 157.593 490.6 145.897 479.488 137.933C479.429 137.874 479.37 137.816 479.311 137.757C475.725 138.697 472.02 139.403 468.346 139.961C467.052 140.167 467.258 138.374 468.346 138.256C476.871 137.228 486.22 135.906 493.188 130.469C500.625 124.68 504.565 115.776 505.212 106.46C506.182 93.0304 503.683 79.7183 501.713 66.5237C498.626 45.8649 494.775 18.9174 513.973 5.57587C513.12 5.48771 512.267 5.42894 511.415 5.37017C508.269 6.89827 504.741 9.36675 503.889 10.0426C498.685 14.098 495.245 19.6227 492.335 25.4706C491.923 26.2934 490.13 26.2641 490.571 25.1474C493.511 17.4187 498.156 10.5422 505.417 6.28115C505.829 6.04606 506.476 5.66403 507.24 5.25262C504.918 5.31139 502.595 5.57587 500.184 6.19299C494.834 7.57416 489.66 9.63123 484.926 12.4817C475.93 17.9476 468.228 24.971 462.172 33.6401C461.966 33.934 461.349 33.8458 461.584 33.4638C467.317 24.5596 474.96 16.4783 484.368 11.3944C491.865 7.33907 500.802 4.51795 509.592 3.78329C495.51 1.28543 479.311 7.75048 467.493 14.1862C462.201 17.066 457.38 20.563 453.205 24.6478C440.328 42.3679 440.946 60.8227 446.59 77.9551C452.676 96.4393 446.091 123.269 446.091 123.269C447.619 123.916 448.942 124.797 450.089 125.885C456.762 122.828 463.23 119.155 469.139 117.039C469.198 117.039 469.198 117.098 469.139 117.098C463.642 119.155 457.262 123.064 450.618 126.414C458.703 135.141 455.351 155.036 442.827 164.557C448.795 169.494 452.999 176.812 455.204 184.805C455.351 185.334 454.499 185.775 454.234 185.216C451.353 178.986 448.795 172.639 443.915 167.643C443.151 166.85 442.357 166.144 441.534 165.468C441.122 165.733 440.711 166.027 440.27 166.262C436.242 168.642 433.273 171.493 431.097 174.431C431.744 175.548 432.273 176.694 432.567 177.84C432.773 178.575 431.568 179.192 431.215 178.428C430.862 177.664 430.392 176.9 429.892 176.165C426.952 180.838 425.864 185.569 425.453 188.948C426.687 193.386 427.364 197.735 427.775 200.233C430.333 215.955 433.39 231.5 445.797 242.667V242.726Z" fill="url(#paint14_radial_1396_11471)"/>
<g style="mix-blend-mode:screen">
<mask id="mask0_1396_11471" style="mask-type:luminance" maskUnits="userSpaceOnUse" x="137" y="47" width="289" height="84">
<path d="M145.164 65.0548C145.164 65.0548 216.78 45.7184 295.569 67.6996C363.539 86.6833 391.438 130.675 425.453 130.734C425.453 130.734 387.852 110.986 370.389 95.8225C352.926 80.6297 281.898 25.2065 137.197 57.473L145.164 65.0548Z" fill="white"/>
</mask>
<g mask="url(#mask0_1396_11471)">
<path d="M425.453 25.1772H137.197V130.705H425.453V25.1772Z" fill="white"/>
<path d="M426.217 73.136V124.504H429.098C426.746 128.412 424.159 132.232 421.307 135.965V131.498H136.433V24.4424H426.217V73.1654V73.136Z" fill="white"/>
<path d="M426.217 73.1066V123.887H427.246C424.923 127.766 422.336 131.557 419.543 135.201V131.498H136.433V24.4424H426.217V73.1066Z" fill="white"/>
<path d="M426.217 73.0772V111.456H431.479C429.686 115.482 427.628 119.42 425.335 123.24C423.042 127.06 420.514 130.822 417.721 134.437V131.468H136.433V24.4424H426.217V73.0772Z" fill="white"/>
<path d="M426.217 73.0187V110.957H429.539C427.775 114.924 425.746 118.832 423.483 122.623C421.219 126.414 418.691 130.117 415.957 133.673V131.469H136.433V24.4427H425.394V22.9146C427.51 26.7936 429.392 30.7608 431.009 34.7867H426.217V73.0187Z" fill="white"/>
<path d="M426.217 72.9896V110.487H427.599C425.864 114.425 423.836 118.274 421.601 122.006C419.367 125.768 416.868 129.412 414.163 132.938V131.498H136.433V24.4429H423.512V23.4731C425.599 27.2934 427.452 31.2312 429.069 35.1984H426.246V72.9896H426.217Z" fill="white"/>
<path d="M426.217 72.9605V98.1155H430.068C427.657 106.226 424.188 114.014 419.749 121.419C417.544 125.122 415.075 128.707 412.399 132.204V131.499H136.433V24.4432H421.601V24.0024C425.746 31.5842 428.922 39.4892 431.038 47.6881H426.217V72.9605Z" fill="white"/>
<path d="M426.217 72.9018V97.7628H428.069C425.688 105.756 422.248 113.455 417.868 120.773C415.663 124.417 413.252 128.002 410.606 131.44C409.283 133.174 407.901 134.878 406.49 136.553V131.499H136.433V24.4432H418.132V21.769C418.661 22.68 419.191 23.6204 419.72 24.5608C423.806 32.025 426.952 39.8712 429.039 47.9525H426.217V72.9311V72.9018Z" fill="#005AA9"/>
<path d="M429.892 72.872C429.568 89.7399 424.629 105.697 415.986 120.155C413.811 123.77 411.429 127.267 408.813 130.705C407.519 132.409 406.137 134.084 404.726 135.73V131.498H136.433V24.4428H414.604V19.6528C415.721 21.4454 416.809 23.2674 417.809 25.1187C425.893 39.9002 430.215 56.0335 429.892 72.872Z" fill="#005BAA"/>
<path d="M427.863 72.8417C427.54 89.4745 422.66 105.255 414.134 119.537C411.988 123.093 409.636 126.59 407.049 129.94C405.755 131.615 404.403 133.29 403.021 134.906V131.497H136.433V24.4419H412.752V20.269C413.869 22.0616 414.928 23.8542 415.927 25.6762C423.924 40.2519 428.187 56.2089 427.863 72.8417Z" fill="#005CAB"/>
<path d="M425.805 72.7835C425.482 89.2106 420.69 104.786 412.252 118.891C410.136 122.417 407.813 125.856 405.255 129.176C403.991 130.851 402.639 132.468 401.287 134.084V131.498H136.433V24.4425H410.9V20.8867C411.988 22.6499 413.046 24.4131 414.016 26.2351C421.895 40.6345 426.129 56.3858 425.805 72.8129V72.7835Z" fill="#005DAC"/>
<path d="M423.777 72.7532C423.483 88.9746 418.72 104.373 410.4 118.273C408.313 121.741 406.02 125.15 403.492 128.411C402.227 130.057 400.934 131.673 399.552 133.26V131.468H136.433V24.4416H409.048V21.5029C410.136 23.2367 411.165 24.9999 412.135 26.7631C419.925 40.9863 424.071 56.5318 423.777 72.7532Z" fill="#005EAC"/>
<path d="M421.748 72.7244C421.454 88.7401 416.75 103.933 408.519 117.657C406.461 121.095 404.197 124.445 401.698 127.677C400.463 129.294 399.17 130.88 397.818 132.467V131.498H136.433V24.4421H407.196V22.1206C408.254 23.825 409.283 25.5588 410.253 27.322C417.956 41.3688 422.042 56.7087 421.748 72.7537V72.7244Z" fill="#005FAD"/>
<path d="M419.69 72.6661C419.396 88.4761 414.751 103.463 406.637 117.011C402.58 123.799 397.641 130.205 391.967 136.2V131.469H138.873V135.847C137.403 134.349 135.992 132.821 134.639 131.263H136.432V24.4427H405.344V22.7383C406.402 24.4133 407.401 26.1471 408.342 27.8809C415.927 41.7514 419.984 56.8855 419.69 72.6955V72.6661Z" fill="#0060AE"/>
<path d="M417.662 72.6373C417.368 88.2416 412.781 103.023 404.785 116.394C400.787 123.094 395.907 129.412 390.291 135.319V131.469H140.519V134.966C139.078 133.497 137.697 131.969 136.344 130.441H136.432V24.4433H403.491V23.356C404.52 25.031 405.52 26.706 406.461 28.4105C413.957 42.0752 417.956 57.033 417.662 72.6373Z" fill="#0061AF"/>
<path d="M415.603 72.607C415.309 88.0056 410.811 102.581 402.903 115.805C398.964 122.417 394.142 128.647 388.615 134.495V131.527H142.165V134.172C140.754 132.703 139.372 131.233 138.049 129.705C136.726 128.206 135.433 126.649 134.198 125.121H136.432V24.4424H401.639V23.9722C402.668 25.6178 403.638 27.2929 404.579 28.9679C411.958 42.4563 415.927 57.2084 415.633 72.607H415.603Z" fill="#0062B0"/>
<path d="M413.575 72.5484C413.281 87.7413 408.842 102.141 401.051 115.159C397.141 121.683 392.408 127.825 386.94 133.584V131.498H143.841V133.261C142.429 131.821 141.077 130.352 139.784 128.853C137.167 125.885 134.727 122.8 132.493 119.626H136.462V24.4425H396.612V19.77C398.846 22.9438 400.875 26.1763 402.697 29.497C409.988 42.8091 413.869 57.3555 413.575 72.5484Z" fill="#0063B1"/>
<path d="M411.517 72.5198C411.223 87.507 406.843 101.701 399.17 114.543C395.318 120.949 390.644 127.032 385.264 132.733V131.499H149.779V136.583C146.839 133.85 144.076 130.999 141.489 128.06C138.902 125.122 136.491 122.095 134.286 118.98H136.432V24.4433H394.789V20.4761C396.994 23.5911 398.993 26.7942 400.787 30.0855C407.989 43.1919 411.811 57.562 411.517 72.5492V72.5198Z" fill="#0064B1"/>
<path d="M409.489 72.4898C409.195 87.2713 404.873 101.259 397.288 113.925C393.496 120.272 388.91 126.267 383.588 131.851V131.498H151.367V135.642C148.456 132.938 145.722 130.146 143.165 127.237C140.607 124.328 138.255 121.36 136.08 118.274H136.432V24.4427H392.967V21.1514C395.142 24.237 397.112 27.3813 398.905 30.6139C405.99 43.544 409.783 57.7083 409.489 72.4898Z" fill="#0065B2"/>
<path d="M407.431 72.4299C407.137 87.0057 402.874 100.788 395.407 113.277C391.673 119.507 387.145 125.443 381.883 130.939C380.56 132.32 379.208 133.672 377.826 134.994V131.468H152.954V134.671C150.103 131.997 147.398 129.234 144.87 126.384C139.843 120.683 135.521 114.6 132.022 108.223H136.403V26.1166H133.61C134.551 24.5591 135.521 23.031 136.55 21.5029V24.4416H391.144V21.8262C393.29 24.853 395.23 27.968 396.994 31.1711C403.991 43.9249 407.725 57.8836 407.431 72.4593V72.4299Z" fill="#0066B3"/>
<path d="M405.402 72.4019C405.137 86.772 400.933 100.378 393.554 112.662C389.879 118.803 385.411 124.651 380.236 130.088C378.943 131.44 377.62 132.791 376.238 134.084V131.469H154.542V133.761C151.719 131.146 149.073 128.413 146.575 125.592C141.606 119.949 137.373 113.955 133.933 107.695H136.432V26.7351H135.491C136.403 25.207 137.373 23.6789 138.402 22.1802V24.4136H389.35V22.474C391.467 25.4715 393.378 28.5277 395.112 31.6721C402.021 44.2495 405.696 58.0025 405.402 72.3725V72.4019Z" fill="#0067B4"/>
<path d="M403.373 72.3728C403.108 86.5372 398.963 99.9375 391.702 112.045C388.085 118.098 383.676 123.858 378.56 129.207C377.296 130.558 375.973 131.851 374.621 133.144V131.469H156.158V132.821C153.365 130.235 150.749 127.561 148.309 124.769C143.428 119.215 139.224 113.308 135.844 107.108H136.432V36.6975H132.521C133.933 33.5237 135.55 30.4087 137.372 27.3819C138.284 25.8538 139.224 24.3845 140.253 22.8857V24.4432H387.556V23.209C389.644 26.1477 391.525 29.1745 393.23 32.2895C400.021 44.6906 403.637 58.2378 403.373 72.4022V72.3728Z" fill="#0068B5"/>
<path d="M401.317 72.313C401.052 86.2716 396.966 99.4662 389.822 111.427C386.235 117.392 381.913 123.064 376.886 128.324C374.387 130.969 371.712 133.496 368.86 135.935V131.468H157.747V131.909C155.013 129.352 152.426 126.708 150.015 123.975C145.194 118.509 141.078 112.69 137.727 106.578C136.051 103.522 134.581 100.407 133.317 97.2034H136.433V37.1666H134.463C135.845 34.0222 137.462 30.966 139.255 27.9685C141.049 24.9711 143.019 22.0618 145.194 19.2407V24.4128H385.765V23.8544C387.823 26.7637 389.675 29.7317 391.35 32.788C398.024 45.0128 401.611 58.3543 401.346 72.313H401.317Z" fill="#0069B6"/>
<path d="M399.287 72.2841C399.023 86.0076 394.995 99.0259 387.969 110.81C384.441 116.687 380.178 122.271 375.21 127.472C372.74 130.058 370.094 132.585 367.301 134.995V131.498H163.509V134.701C162.098 133.496 160.686 132.262 159.334 130.999C156.629 128.501 154.101 125.885 151.72 123.182C146.987 117.804 142.9 112.074 139.608 106.049C136.315 100.025 133.787 93.7363 132.111 87.2125H136.403V47.1291H132.875C134.786 40.6935 137.55 34.4929 141.077 28.6156C142.841 25.6769 144.782 22.797 146.928 20.0347V24.4427H380.737V20.3285C381.824 21.7097 382.883 23.1203 383.912 24.5602C385.94 27.4107 387.763 30.3494 389.409 33.3762C395.995 45.3953 399.523 58.5605 399.258 72.3135L399.287 72.2841Z" fill="#006AB6"/>
<path d="M397.23 72.2555C396.965 85.7733 392.996 98.5859 386.058 110.194C382.589 115.983 378.385 121.478 373.505 126.591C371.065 129.148 368.478 131.616 365.714 133.997V131.499H165.038V133.703C163.627 132.527 162.274 131.293 160.922 130.059C158.276 127.59 155.777 125.034 153.425 122.36C148.751 117.07 144.753 111.398 141.519 105.492C135.022 93.6489 131.553 80.6894 131.817 67.1422C132.082 53.6244 136.021 40.8118 142.989 29.2041C144.723 26.2948 146.634 23.4737 148.751 20.7407V24.3847H379.032V21.0346C380.12 22.4158 381.149 23.7969 382.148 25.2075C384.147 28.0286 385.941 30.9085 387.558 33.8765C394.055 45.7193 397.524 58.6788 397.259 72.1967L397.23 72.2555Z" fill="#006BB7"/>
<path d="M395.2 72.1956C394.936 85.5078 391.055 98.144 384.205 109.546C380.795 115.247 376.65 120.654 371.858 125.709C369.447 128.236 366.919 130.675 364.185 132.997V131.498H170.829V136.17C147.515 118.274 133.345 93.8536 133.874 67.2293C134.139 53.9172 138.019 41.2809 144.869 29.8789C146.574 27.0284 148.456 24.2367 150.543 21.5625V24.4718H377.267V21.8564C378.325 23.2082 379.354 24.5599 380.325 25.9411C382.294 28.7034 384.058 31.5539 385.675 34.4632C392.055 46.1297 395.465 58.8835 395.23 72.1956H395.2Z" fill="#006CB8"/>
<path d="M393.142 72.1665C392.907 85.273 389.055 97.7035 382.323 108.929C378.972 114.542 374.885 119.861 370.152 124.827C367.8 127.296 365.272 129.706 362.597 131.998V131.469H172.298V135.083C149.337 117.451 135.402 93.4425 135.902 67.2296C136.167 54.1232 139.989 41.6926 146.721 30.4669C148.397 27.6458 150.278 24.9129 152.307 22.2681V24.4133H375.503V22.5619C376.561 23.8843 377.561 25.2361 378.531 26.5879C380.471 29.3209 382.206 32.1126 383.793 34.9925C390.084 46.4826 393.436 59.0307 393.201 72.1372L393.142 72.1665Z" fill="#006DB9"/>
<path d="M391.114 72.1374C390.879 85.0381 387.086 97.2629 380.471 108.312C377.149 113.837 373.151 119.068 368.506 123.975C366.184 126.414 363.714 128.765 361.098 131.028C359.775 132.174 358.452 133.262 357.041 134.349V131.498H173.768V134.084C151.19 116.746 137.461 93.09 137.96 67.2886C138.196 54.3879 141.988 42.163 148.603 31.1137C150.249 28.3513 152.101 25.6478 154.1 23.0617V24.4429H370.535V19.4766C375.003 24.5311 378.796 29.9088 381.912 35.5804C388.115 46.8943 391.408 59.2367 391.173 72.1374H391.114Z" fill="#006EBA"/>
<path d="M389.056 72.0777C388.556 97.4677 374.18 120.184 351.337 136.376V131.468H175.209V133.025C152.983 115.952 139.489 92.7071 139.96 67.317C140.195 54.622 143.929 42.6029 150.426 31.7004C152.043 28.9969 153.865 26.3227 155.806 23.7661V24.4126H368.741V20.269C373.122 25.2354 376.885 30.5544 379.913 36.1084C385.998 47.246 389.262 59.3826 389.027 72.0777H389.056Z" fill="#006FBB"/>
<path d="M387.028 72.0491C386.557 97.0277 372.417 119.362 349.926 135.318V131.498H176.679V131.998C154.836 115.218 141.548 92.3259 142.018 67.3766C142.253 54.8873 145.899 43.0739 152.308 32.3478C153.895 29.6736 155.688 27.0582 157.629 24.5309C158.599 23.2673 159.598 22.0331 160.657 20.7988V24.4134H367.066V21.0633C371.388 25.9709 375.062 31.1723 378.061 36.6382C384.058 47.57 387.263 59.5304 387.028 72.0197V72.0491Z" fill="#0070BB"/>
<path d="M384.999 72.0196C384.529 96.5868 370.623 118.539 348.515 134.231V131.498H182.294V133.996C180.883 133.026 179.501 131.998 178.178 130.969C156.688 114.454 143.635 91.9731 144.105 67.4059C144.34 55.1223 147.927 43.4852 154.218 32.9648C155.806 30.32 157.54 27.7634 159.451 25.2949C160.392 24.0607 161.392 22.8264 162.421 21.6216V24.4133H365.39V21.8861C369.624 26.7055 373.269 31.8187 376.209 37.1965C382.089 47.952 385.234 59.7066 384.999 71.9902V72.0196Z" fill="#0071BC"/>
<path d="M382.941 71.9604C382.471 96.0868 368.8 117.715 347.075 133.114V131.468H187.909V135.7C185.028 133.849 182.235 131.938 179.619 129.911C158.481 113.689 145.663 91.5613 146.134 67.4349C146.369 55.357 149.897 43.9256 156.1 33.5815C157.658 30.9954 159.363 28.4682 161.245 26.0291C162.185 24.7949 163.156 23.59 164.155 22.4146V24.4128H363.685V22.679C367.86 27.4103 371.417 32.4648 374.327 37.725C380.119 48.3042 383.206 59.8531 382.971 71.931L382.941 71.9604Z" fill="#0072BD"/>
<path d="M380.912 71.9321C380.442 95.6471 367.007 116.894 345.663 132.028V131.499H189.232V134.584C186.38 132.762 183.675 130.882 181.059 128.883C160.303 112.926 147.691 91.2097 148.132 67.4947C148.367 55.6225 151.837 44.3968 157.922 34.229C160.98 29.1451 164.654 24.3257 168.917 19.8296V24.4433H361.921V23.5323C366.007 28.1754 369.535 33.1417 372.387 38.3432C378.09 48.746 381.118 60.0893 380.883 71.9614L380.912 71.9321Z" fill="#0073BE"/>
<path d="M378.855 71.9019C378.414 95.2055 365.214 116.07 344.223 130.94C341.607 132.791 338.843 134.554 335.992 136.229V131.498H190.526V133.467C187.734 131.704 185.058 129.823 182.5 127.854C162.098 112.191 149.721 90.8269 150.162 67.5233C150.397 55.8568 153.807 44.8369 159.775 34.8454C162.774 29.8497 166.39 25.1184 170.594 20.7104V24.4425H360.216V24.3544C364.244 28.9093 367.684 33.7875 370.477 38.9008C376.062 49.0979 379.061 60.2648 378.826 71.9313L378.855 71.9019Z" fill="#0074BF"/>
<path d="M376.826 71.8439C376.385 94.7361 363.42 115.219 342.811 129.824C340.224 131.646 337.549 133.379 334.727 135.025V131.469H191.878V132.292C189.144 130.558 186.498 128.707 183.999 126.797C163.978 111.398 151.778 90.4456 152.219 67.5534C152.424 56.1221 155.776 45.2784 161.656 35.4633C164.595 30.5557 168.153 25.9126 172.269 21.5928V24.4433H355.423V21.8279C356.482 22.9152 357.511 24.0319 358.481 25.1486C362.42 29.6447 365.83 34.4053 368.565 39.4305C374.062 49.4513 377.002 60.4125 376.767 71.8733L376.826 71.8439Z" fill="#0075C0"/>
<path d="M374.769 71.8144C374.328 94.2951 361.598 114.396 341.372 128.736C338.843 130.529 336.197 132.233 333.434 133.849V131.499H201.58V136.024C195.759 132.997 190.379 129.559 185.44 125.768C165.772 110.663 153.807 90.0634 154.248 67.6121C154.454 56.357 157.747 45.719 163.509 36.1096C166.39 31.2902 169.888 26.7353 173.945 22.4742V24.4431H350.573V19.5649C352.778 21.622 354.866 23.7378 356.806 25.9418C360.687 30.3498 364.009 35.0517 366.713 39.9593C372.093 49.8038 374.974 60.5593 374.769 71.8144Z" fill="#0076C1"/>
<path d="M372.741 71.7845C372.329 93.8539 359.834 113.572 339.961 127.678C337.491 129.441 334.875 131.116 332.17 132.674V131.498H202.756V134.789C197.053 131.821 191.761 128.442 186.94 124.739C167.625 109.899 155.895 89.7104 156.336 67.641C156.542 56.621 159.775 46.1594 165.449 36.6969C168.272 31.9657 171.711 27.4989 175.68 23.326V24.4427H349.016V20.5049C351.191 22.5032 353.22 24.619 355.131 26.7642C358.923 31.0841 362.186 35.6978 364.862 40.5172C370.153 50.1854 372.976 60.7352 372.77 71.7551L372.741 71.7845Z" fill="#0077C1"/>
<path d="M370.682 71.7249C370.271 93.3829 358.011 112.749 338.52 126.56C333.64 130.028 328.318 133.114 322.615 135.817V131.468H203.903V133.554C198.317 130.616 193.113 127.324 188.38 123.68C169.447 109.134 157.923 89.2981 158.334 67.6696C158.54 56.8553 161.715 46.5994 167.272 37.3132C170.035 32.6701 173.416 28.2915 177.326 24.1774V24.4125H347.398V21.415C349.515 23.3839 351.514 25.441 353.396 27.5568C357.129 31.7885 360.334 36.3141 362.921 41.0453C368.124 50.5372 370.888 60.8813 370.682 71.7249Z" fill="#0078C2"/>
<path d="M368.653 71.6961C368.241 92.9133 356.217 111.926 337.108 125.474C332.345 128.853 327.112 131.909 321.527 134.554V131.498H205.078V132.35C199.58 129.47 194.494 126.238 189.849 122.682C171.269 108.4 159.98 88.9755 160.392 67.7583C160.598 57.1498 163.714 47.0995 169.153 37.9897C171.887 33.4348 175.179 29.1443 179.001 25.1184C180.912 23.1201 182.941 21.1805 185.116 19.2998V24.4425H345.81V22.356C347.897 24.2955 349.867 26.3232 351.69 28.3803C355.365 32.5532 358.481 36.9612 361.039 41.6042C366.125 50.8904 368.859 61.0582 368.653 71.6961Z" fill="#0079C3"/>
<path d="M366.625 71.6662C366.213 92.472 354.454 111.103 335.697 124.386C331.023 127.707 325.908 130.704 320.41 133.29V131.497H214.604V135.053C211.722 133.848 208.959 132.526 206.254 131.115C200.874 128.294 195.877 125.12 191.32 121.623C173.092 107.635 162.038 88.5635 162.45 67.7578C162.656 57.355 165.684 47.4811 171.035 38.5769C173.71 34.1101 176.944 29.9079 180.707 25.97C182.588 24.0011 184.587 22.091 186.704 20.269V24.4419H344.252V23.2959C346.31 25.206 348.221 27.1749 350.015 29.2026C353.601 33.2873 356.688 37.6365 359.187 42.1915C364.185 51.3013 366.86 61.2634 366.654 71.6662H366.625Z" fill="#007AC4"/>
<path d="M364.566 71.6075C364.184 92.0018 352.631 110.251 334.256 123.269C329.67 126.531 324.643 129.44 319.292 131.997V131.468H215.603V133.701C212.78 132.526 210.046 131.233 207.43 129.852C202.167 127.089 197.258 123.974 192.789 120.536C174.944 106.813 164.096 88.1522 164.478 67.7579C164.684 57.5607 167.653 47.8925 172.886 39.1647C175.503 34.7861 178.678 30.6426 182.353 26.7929C184.175 24.8534 186.145 23.0021 188.232 21.2095V24.3832H342.635V24.1481C344.634 25.9995 346.516 27.939 348.28 29.9373C351.807 33.9339 354.806 38.1949 357.276 42.6617C362.156 51.5952 364.772 61.3516 364.596 71.5488L364.566 71.6075Z" fill="#007BC5"/>
<path d="M362.538 71.5783C362.156 91.5612 350.838 109.428 332.846 122.182C328.347 125.356 323.438 128.236 318.175 130.734C315.559 131.968 312.825 133.143 310.032 134.201V131.468H225.099V135.612C213.457 131.733 202.991 126.237 194.259 119.508C176.767 106.078 166.154 87.7703 166.536 67.8168C166.713 57.8253 169.653 48.3628 174.768 39.8113C177.326 35.5209 180.442 31.4655 184.029 27.704C185.822 25.8233 187.733 24.0013 189.761 22.2381V24.4421H334.786V19.8872C352.278 33.3169 362.891 51.6248 362.509 71.5783H362.538Z" fill="#007CC6"/>
<path d="M360.48 71.5493C360.098 91.1207 349.014 108.606 331.404 121.095C322.614 127.325 312.148 132.321 300.624 135.7V131.498H225.921V134.26C214.515 130.469 204.284 125.062 195.699 118.48C178.589 105.314 168.182 87.418 168.564 67.8465C168.741 58.0608 171.622 48.804 176.62 40.4288C179.119 36.2265 182.176 32.2593 185.704 28.5566C187.468 26.7053 189.349 24.9127 191.348 23.2083V24.4131H333.345V20.8867C350.455 34.0519 360.862 51.9484 360.48 71.5199V71.5493Z" fill="#007DC6"/>
<path d="M358.452 71.4915C358.099 90.6516 347.251 107.784 329.994 119.979C321.38 126.092 311.149 130.97 299.86 134.261V131.47H226.745V132.88C215.574 129.148 205.549 123.888 197.17 117.452C180.413 104.581 170.241 87.0371 170.593 67.9064C170.946 48.7757 181.794 31.6433 199.051 19.4185V24.4436H331.875V21.9751C348.633 34.8464 358.805 52.3902 358.452 71.5209V71.4915Z" fill="#007EC7"/>
<path d="M356.394 71.4613C356.041 90.1805 345.428 106.96 328.553 118.921C320.116 124.886 310.12 129.676 299.066 132.879V131.498H227.539C216.603 127.884 206.813 122.712 198.61 116.423C182.206 103.816 172.269 86.6835 172.622 67.9349C172.975 49.2156 183.588 32.4358 200.463 20.5049V24.4427H330.405V23.0027C346.81 35.6096 356.747 52.742 356.394 71.4907V71.4613Z" fill="#007FC8"/>
<path d="M354.366 71.4319C354.013 89.7398 343.635 106.137 327.172 117.833C310.679 129.529 288.072 136.523 263.288 136.053C213.663 135.113 174.034 104.639 174.71 68.0231C175.062 49.7152 185.44 33.3175 201.933 21.6216V24.4427H328.965V24.0313C344.988 36.3443 354.719 53.124 354.366 71.4319Z" fill="#0081C9"/>
<path d="M352.308 71.4027C351.632 107.196 311.767 135.465 263.259 134.525C214.78 133.585 176.033 103.816 176.709 68.0526C177.062 50.1561 187.204 34.1404 203.315 22.709V24.4429H321.322V20.7695C323.468 22.1213 325.526 23.5613 327.466 25.06C343.136 37.0791 352.632 53.4768 352.308 71.3733V71.4027Z" fill="#0082CA"/>
<path d="M350.28 71.3439C349.604 106.314 310.68 133.908 263.318 132.997C215.957 132.086 178.121 103.023 178.767 68.0526C179.091 50.5676 188.998 34.9339 204.727 23.767V24.4135H319.999V21.8862C322.087 23.2086 324.086 24.6192 325.997 26.0885C341.284 37.8432 350.604 53.8589 350.251 71.3145L350.28 71.3439Z" fill="#0083CB"/>
<path d="M348.251 71.3143C347.604 105.432 309.592 132.38 263.347 131.498C217.103 130.617 180.178 102.229 180.825 68.1112C181.148 51.0376 190.82 35.7859 206.167 24.8835C208.077 23.5317 210.106 22.2387 212.193 21.0044V24.4427H312.326V19.3882C316.736 21.6803 320.851 24.2957 324.556 27.1756C339.49 38.6364 348.574 54.2701 348.251 71.3437V71.3143Z" fill="#0084CB"/>
<path d="M346.193 71.2565C345.547 104.551 308.475 130.853 263.377 129.971C218.279 129.119 182.236 101.407 182.854 68.1121C183.177 51.4793 192.614 36.5802 207.578 25.9423C209.459 24.6199 211.4 23.3563 213.458 22.1514V24.3848H311.15V20.5352C315.442 22.7979 319.47 25.3252 323.086 28.1169C337.668 39.3132 346.517 54.5649 346.193 71.1977V71.2565Z" fill="#0085CC"/>
<path d="M344.164 71.2255C343.546 103.698 307.386 129.323 263.405 128.471C219.425 127.618 184.293 100.642 184.91 68.1693C185.234 51.9479 194.406 37.4015 209.017 27.0574C212.663 24.4714 216.661 22.1498 220.953 20.0928V24.4126H310.002V21.7972C314.206 24.0012 318.087 26.4697 321.644 29.2026C335.844 40.1051 344.487 54.9747 344.164 71.1961V71.2255Z" fill="#0086CD"/>
<path d="M340.078 71.1378C339.49 101.935 305.182 126.267 263.465 125.474C221.748 124.68 188.409 99.0551 188.997 68.2579C189.291 52.8593 198.023 39.077 211.87 29.2619C215.339 26.7934 219.131 24.5894 223.188 22.6499V24.4131H307.651V24.2662C311.62 26.3526 315.324 28.7035 318.705 31.2896C332.199 41.6337 340.372 55.7392 340.078 71.1378Z" fill="#0088CF"/>
<path d="M338.02 71.1079C337.462 101.082 304.065 124.738 263.494 123.945C222.894 123.181 190.468 98.2611 191.026 68.2868C191.32 53.2996 199.787 39.8993 213.281 30.3193C220.013 25.5292 228.01 21.709 236.859 19.1523V24.4125H294.069V20.2396C302.8 23.1489 310.65 27.2924 317.206 32.3175C330.318 42.3972 338.285 56.1207 337.991 71.1079H338.02Z" fill="#0089D0"/>
<path d="M335.991 71.0796C335.433 100.231 302.976 123.211 263.523 122.477C224.07 121.713 192.525 97.4981 193.083 68.3466C193.348 53.7708 201.609 40.7526 214.721 31.437C221.277 26.7939 229.038 23.0618 237.652 20.564V24.4136H293.275V21.6219C301.771 24.443 309.385 28.469 315.765 33.3765C328.524 43.1623 336.256 56.5038 335.991 71.0796Z" fill="#008AD0"/>
<path d="M333.934 71.0497C333.404 99.349 301.859 121.683 263.523 120.978C225.187 120.243 194.554 96.7042 195.083 68.4049C195.348 54.2405 203.373 41.6043 216.103 32.5532C222.483 28.0277 230.038 24.4131 238.387 22.0034V24.4719H292.422V23.032C300.684 25.7943 308.092 29.6733 314.266 34.434C326.643 43.9552 334.169 56.9147 333.904 71.0497H333.934Z" fill="#008BD1"/>
<path d="M331.905 70.9909C331.376 98.4674 300.801 120.155 263.582 119.449C226.364 118.744 196.641 95.8813 197.171 68.4342C197.7 40.9578 228.275 19.2704 265.493 19.9757C302.712 20.681 332.435 43.5438 331.905 70.9909Z" fill="#008CD2"/>
<path d="M329.877 70.9619C329.377 97.6155 299.713 118.627 263.612 117.951C227.539 117.246 198.699 95.1177 199.199 68.464C199.699 41.8397 229.362 20.7989 265.464 21.4748C301.536 22.1801 330.376 44.3082 329.877 70.9619Z" fill="#008DD3"/>
<path d="M327.819 70.9323C327.319 96.7338 298.596 117.099 263.641 116.452C228.686 115.776 200.757 94.3241 201.228 68.5226C201.727 42.7212 230.45 22.3563 265.405 23.0028C300.36 23.6787 328.289 45.1309 327.789 70.9323H327.819Z" fill="#008ED4"/>
<path d="M325.76 70.873C325.29 95.8516 297.479 115.57 263.641 114.924C229.803 114.277 202.785 93.5007 203.256 68.522C203.726 43.5434 231.537 23.825 265.375 24.4715C299.213 25.118 326.231 45.8944 325.76 70.8436V70.873Z" fill="#008FD5"/>
<path d="M323.732 70.8434C323.261 94.9698 296.391 114.042 263.699 113.425C231.008 112.807 204.872 92.7364 205.313 68.5806C205.783 44.4542 232.654 25.3823 265.375 25.9994C298.066 26.6165 324.202 46.717 323.732 70.8434Z" fill="#0090D6"/>
<path d="M321.704 70.7851C321.263 94.0886 295.304 112.485 263.729 111.897C232.155 111.309 206.931 91.914 207.372 68.6104C207.813 45.3069 233.772 26.9108 265.346 27.4986C296.921 28.1157 322.145 47.4815 321.704 70.7851Z" fill="#0091D6"/>
<path d="M319.646 70.756C319.205 93.2367 294.186 110.986 263.729 110.399C233.272 109.811 208.959 91.1209 209.4 68.6401C209.841 46.1594 234.859 28.4099 265.317 28.9976C295.744 29.5853 320.087 48.2752 319.675 70.756H319.646Z" fill="#0092D7"/>
<path d="M317.618 70.7264C317.207 92.3549 293.1 109.458 263.789 108.9C234.478 108.341 211.047 90.3273 211.459 68.6987C211.871 47.0702 235.978 29.9672 265.288 30.5255C294.599 31.0838 318.03 49.0978 317.618 70.7264Z" fill="#0093D8"/>
<path d="M315.559 70.6968C315.147 91.5026 291.981 107.93 263.788 107.401C235.594 106.872 213.075 89.5631 213.457 68.7573C213.839 47.9516 237.035 31.5245 265.228 32.0534C293.422 32.5824 315.941 49.8911 315.559 70.7262V70.6968Z" fill="#0094D9"/>
<path d="M313.531 70.639C313.149 90.6219 290.894 106.402 263.847 105.874C236.77 105.345 215.162 88.7411 215.545 68.7582C215.927 48.7753 238.182 32.9947 265.229 33.5237C292.305 34.0232 313.913 50.6561 313.531 70.639Z" fill="#0095DA"/>
<path d="M311.473 70.6094C311.12 89.7695 289.777 104.874 263.847 104.375C237.917 103.875 217.191 87.9475 217.544 68.8168C217.926 49.6861 239.24 34.552 265.17 35.0516C291.1 35.5511 311.826 51.4787 311.473 70.6094Z" fill="#0096DB"/>
<path d="M309.444 70.5789C309.091 88.8868 288.689 103.345 263.876 102.875C239.063 102.405 219.249 87.1824 219.601 68.8451C219.954 50.5373 240.357 36.0791 265.14 36.5492C289.953 37.0194 309.768 52.2417 309.415 70.5789H309.444Z" fill="#0097DB"/>
<path d="M307.386 70.522C307.063 88.007 287.572 101.819 263.906 101.349C240.24 100.878 221.307 86.3614 221.63 68.8763C221.953 51.3913 241.445 37.5796 265.111 38.0497C288.806 38.4905 307.71 53.0369 307.386 70.522Z" fill="#0098DC"/>
<path d="M305.358 70.4924C305.035 87.1252 286.514 100.29 263.935 99.8496C241.386 99.4088 223.365 85.5677 223.688 68.9349C224.012 52.2727 242.533 39.1369 265.111 39.5777C287.66 40.0185 305.682 53.8596 305.358 70.4924Z" fill="#0099DD"/>
<path d="M303.329 70.4619C303.035 86.2719 285.426 98.7612 263.994 98.3498C242.562 97.9384 225.452 84.7732 225.746 68.9632C226.04 53.1532 243.65 40.6639 265.082 41.0753C286.513 41.4867 303.623 54.6519 303.329 70.4619Z" fill="#009ADE"/>
<path d="M301.271 70.4036C300.977 85.3907 284.308 97.2042 263.993 96.8221C243.708 96.4401 227.48 83.9802 227.744 68.993C228.038 54.0058 244.708 42.1924 265.022 42.5744C285.307 42.9565 301.535 55.4164 301.241 70.4036H301.271Z" fill="#009BDF"/>
<path d="M299.242 70.3739C298.978 84.5089 283.22 95.7052 264.052 95.3232C244.884 94.9705 229.567 83.1865 229.832 69.0515C230.096 54.8872 245.854 43.7203 265.022 44.1023C284.19 44.4843 299.507 56.239 299.242 70.4033V70.3739Z" fill="#009CE0"/>
<path d="M297.185 70.3449C296.921 83.6571 282.104 94.1775 264.053 93.8248C246.002 93.4722 231.596 82.3934 231.861 69.0813C232.126 55.7692 246.943 45.2487 264.993 45.6014C283.044 45.954 297.45 57.0328 297.185 70.3449Z" fill="#009DE0"/>
<path d="M295.156 70.2851C294.921 82.7744 281.015 92.6189 264.111 92.2957C247.207 91.9724 233.683 81.5989 233.919 69.1096C234.154 56.6203 248.059 46.7758 264.964 47.099C281.868 47.4223 295.392 57.7958 295.156 70.2851Z" fill="#009EE1"/>
<path d="M293.099 70.257C292.864 81.8941 279.899 91.1215 264.112 90.7982C248.325 90.5044 235.713 80.8068 235.948 69.1403C236.183 57.5032 249.148 48.2758 264.935 48.5991C280.722 48.8929 293.335 58.5905 293.129 70.257H293.099Z" fill="#009FE2"/>
<path d="M291.07 70.2273C290.864 81.0416 278.81 89.5931 264.14 89.3286C249.47 89.0348 237.77 80.0425 237.975 69.2282C238.181 58.4139 250.235 49.8624 264.905 50.1563C279.575 50.4208 291.275 59.4424 291.07 70.2567V70.2273Z" fill="#00A0E3"/>
<path d="M289.012 70.1692C288.836 80.1606 277.693 88.0362 264.17 87.8012C250.646 87.5367 239.828 79.2203 240.004 69.2582C240.21 59.2667 251.323 51.3911 264.846 51.6262C278.37 51.8907 289.188 60.1777 288.983 70.1692H289.012Z" fill="#00A1E4"/>
<path d="M286.984 70.1386C286.807 79.3072 276.606 86.5363 264.2 86.3012C251.793 86.0661 241.886 78.455 242.062 69.2864C242.239 60.1178 252.44 52.8886 264.846 53.1237C277.253 53.3588 287.16 60.97 286.984 70.1386Z" fill="#00A2E5"/>
<path d="M284.955 70.109C284.808 78.4254 275.518 85.008 264.258 84.8023C252.969 84.5966 243.973 77.6614 244.12 69.345C244.267 61.0286 253.557 54.446 264.817 54.6517C276.076 54.8574 285.102 61.7926 284.955 70.109Z" fill="#00A3E5"/>
<path d="M282.897 70.0507C282.75 77.5443 274.401 83.451 264.258 83.2747C254.116 83.069 246.001 76.839 246.148 69.3748C246.295 61.8812 254.645 55.9745 264.787 56.1508C274.93 56.3565 283.044 62.5865 282.897 70.0801V70.0507Z" fill="#00A4E6"/>
<path d="M280.868 70.0216C280.751 76.6923 273.313 81.9232 264.317 81.7762C255.291 81.5999 248.088 76.0458 248.206 69.4045C248.324 62.7337 255.732 57.4735 264.758 57.6498C273.783 57.8261 280.986 63.3508 280.868 70.0216Z" fill="#00A5E7"/>
<path d="M278.811 69.992C278.694 75.8106 272.196 80.4243 264.318 80.2773C256.409 80.1304 250.118 75.2816 250.236 69.463C250.353 63.6445 256.821 59.0308 264.729 59.1777C272.608 59.3247 278.929 64.1735 278.811 69.992Z" fill="#00A6E8"/>
<path d="M276.781 69.9338C276.693 74.9295 271.107 78.8673 264.346 78.7497C257.584 78.6322 252.175 74.4593 252.263 69.4636C252.351 64.4678 257.907 60.53 264.698 60.6476C271.46 60.7945 276.87 64.938 276.781 69.9338Z" fill="#00A7E9"/>
<path d="M274.724 69.9043C274.636 74.0772 270.02 77.3391 264.375 77.2509C258.731 77.1334 254.233 73.6951 254.321 69.5222C254.409 65.3493 259.025 62.0874 264.669 62.1756C270.314 62.2931 274.812 65.7314 274.724 69.9043Z" fill="#00A8EA"/>
<path d="M272.696 69.8735C272.637 73.1942 268.933 75.839 264.405 75.7509C259.907 75.6627 256.291 72.9003 256.35 69.5797C256.409 66.259 260.113 63.6142 264.64 63.7023C269.138 63.7905 272.754 66.5528 272.696 69.9029V69.8735Z" fill="#00A9EA"/>
<path d="M270.638 69.8158C270.579 72.3136 267.816 74.2825 264.435 74.2237C261.054 74.165 258.349 72.0785 258.408 69.5807C258.467 67.0828 261.23 65.1139 264.611 65.1727C267.992 65.2314 270.697 67.3179 270.638 69.8158Z" fill="#00AAEB"/>
<path d="M268.608 69.7863C268.579 71.4613 266.727 72.7543 264.463 72.7249C262.199 72.6956 260.406 71.285 260.435 69.6393C260.465 67.9643 262.317 66.6713 264.581 66.7007C266.844 66.7301 268.638 68.1406 268.608 69.7863Z" fill="#00ABEC"/>
<path d="M266.581 69.7572C266.581 70.6094 265.64 71.2559 264.523 71.2265C263.406 71.2265 262.495 70.5212 262.524 69.669C262.554 68.8168 263.465 68.1703 264.582 68.1997C265.699 68.1997 266.611 68.905 266.611 69.7572H266.581Z" fill="#00ACED"/>
</g>
</g>
<path style="mix-blend-mode:screen" d="M187.587 142.754L188.91 144.517C188.91 144.517 201.493 134.907 217.339 126.944C217.985 125.386 218.985 123.182 220.014 120.978C199.67 130.558 187.587 142.754 187.587 142.754Z" fill="url(#paint15_radial_1396_11471)"/>
<path style="mix-blend-mode:screen" d="M243.768 112.632C238.3 113.925 233.155 115.57 228.363 117.392C227.246 119.391 226.07 121.506 225.1 123.299C237.976 117.774 251.882 114.307 262.524 118.186C273.666 122.241 276.459 131.85 276.459 131.85C276.459 131.85 278.223 104.521 243.797 112.602L243.768 112.632Z" fill="url(#paint16_radial_1396_11471)"/>
<path style="mix-blend-mode:screen" d="M219.984 120.979C218.955 123.183 217.956 125.357 217.309 126.944C219.837 125.681 222.454 124.446 225.1 123.3C226.07 121.478 227.246 119.392 228.363 117.394C225.423 118.51 222.63 119.744 219.984 120.979Z" fill="url(#paint17_radial_1396_11471)"/>
<path style="mix-blend-mode:screen" d="M13.3687 123.27C13.3687 123.27 21.9825 130.617 36.1527 122.771C50.323 114.925 50.8522 106.579 64.7578 101.759L66.0219 95.1768C66.0219 95.1768 53.3511 97.9685 47.2949 106.314C41.2387 114.66 24.011 126.826 13.3687 123.27Z" fill="url(#paint18_radial_1396_11471)"/>
<path style="mix-blend-mode:screen" d="M125.291 71.3725C125.291 71.3725 137.962 66.318 145.165 65.0544L137.198 57.4727C137.198 57.4727 122.263 63.2912 121.499 67.8461L125.291 71.4019V71.3725Z" fill="url(#paint19_radial_1396_11471)"/>
<path style="mix-blend-mode:screen" d="M135.669 32.4069C135.669 32.4069 162.246 12.6591 226.07 14.9513C289.866 17.214 323.292 51.3907 323.292 51.3907L327.849 46.0717C327.849 46.0717 289.102 10.0143 219.603 8.10417C150.104 6.19404 129.583 28.234 129.583 28.234L135.669 32.4069Z" fill="url(#paint20_radial_1396_11471)"/>
<path style="mix-blend-mode:screen" d="M432.272 85.9203C432.272 85.9203 435.683 62.7636 446.707 38.8429C457.732 14.9222 502.536 4.28424 512.414 8.48653L517.735 5.45971C517.735 5.45971 508.239 -4.79622 474.813 9.25058C441.386 23.2974 434.948 46.454 432.272 85.9497V85.9203Z" fill="url(#paint21_radial_1396_11471)"/>
<path d="M519.294 3.37296C504.682 -3.85615 487.337 1.87425 473.373 8.04544C459.202 14.3048 447.384 23.8554 440.27 37.7553C431.479 54.9465 433.449 75.3408 429.451 93.7956C427.363 103.376 423.012 120.038 411.694 121.889C397.494 113.426 384.147 103.64 371.153 93.3842C355.66 81.1594 338.109 70.8446 319.852 63.0572C320.969 56.9154 324.232 51.2732 328.672 46.9239C329.201 46.4244 329.289 45.8954 329.142 45.484C329.554 44.7787 329.583 43.9559 328.819 43.3975C299.684 21.3576 262.995 10.0437 226.863 7.31077C209.195 5.95899 191.232 7.0169 173.857 10.5139C158.658 13.5701 142.018 18.4189 128.848 27.0292C128.789 27.0292 128.73 27.0292 128.671 27.0292C128.172 27.5582 127.672 28.0871 127.172 28.6455C128.907 29.2332 130.465 30.1442 131.876 31.2903C139.461 35.904 143.488 45.484 145.723 53.7122C145.811 53.9767 145.958 54.1237 146.164 54.1824C145.899 54.2412 145.635 54.3 145.37 54.3881C142.577 55.064 139.725 55.7693 136.932 56.6215C136.286 56.2983 135.668 56.1513 135.198 56.3864C134.786 56.5921 134.463 57.0036 134.463 57.415C130.288 58.8549 126.319 60.7356 122.88 63.5274C117.265 57.7382 109.709 55.7105 101.125 57.0035C100.831 57.0329 100.566 57.1799 100.302 57.3562C85.5433 57.9733 74.1954 71.785 68.7566 84.4507C67.61 87.1248 66.6399 89.9166 65.8461 92.7671C65.6991 92.7671 65.5227 92.8258 65.3463 92.914C61.7891 94.2952 58.3494 95.7645 55.0567 97.704C51.4701 99.8198 48.442 103.17 45.4433 106.05C38.858 112.397 32.0374 120.949 22.0418 121.008C15.9269 121.037 9.95892 117.099 4.16735 120.508C0.374899 122.712 -0.124881 128.06 0.0221134 131.969C0.580691 145.869 9.01816 156.918 20.3073 164.323C20.1897 168.085 23.1296 172.199 24.9229 175.108C28.4508 180.78 32.5372 186.334 36.3885 191.8C46.7369 206.493 59.1432 219.159 72.9606 230.561C99.0668 252.101 134.051 269.528 168.683 266.001C168.83 266.001 168.977 265.913 169.095 265.825C169.183 265.972 169.33 266.089 169.506 266.178C169.565 266.648 169.889 267.03 170.241 267.471C172.035 269.763 173.475 271.908 174.475 274.7C175.533 277.668 175.474 281.047 175.386 284.162C175.298 286.895 174.769 292.743 172.387 294.653C171.505 295.358 171.064 296.857 172.387 297.357C181.795 300.883 191.644 301.618 201.61 301.912C212.017 302.235 222.512 301.588 232.89 300.854C254.351 299.267 275.195 295.182 295.627 288.335C316.706 281.282 337.021 271.732 356.189 260.535C373.828 250.221 391.056 238.378 403.609 222.009C404.462 220.893 405.197 219.658 405.873 218.365C406.049 218.307 406.196 218.219 406.285 218.072C407.46 216.573 409.048 214.31 408.019 212.312C406.578 209.52 403.639 207.316 401.816 204.73C399.787 201.85 399.346 197.765 398.994 194.386C398.847 193.034 398.876 191.682 398.935 190.331C398.935 189.802 399.199 189.273 399.288 188.744C403.315 185.012 407.255 181.133 411.106 177.195C411.576 176.725 412.017 176.254 412.488 175.784C418.22 175.608 421.219 182.984 422.924 187.715C425.982 196.208 426.129 205.817 427.981 214.633C430.833 228.298 438.035 240.2 449.618 248.105C459.379 254.775 471.344 257.567 483.045 257.244C485.015 257.185 486.984 257.038 488.954 256.833C492.599 256.656 496.157 255.951 499.655 254.805C500.067 254.687 500.478 254.599 500.861 254.482C506.388 252.895 512.708 250.75 517.089 246.87C517.941 246.106 517.53 244.725 516.295 245.254C516.236 245.254 516.148 245.313 516.089 245.342C515.795 245.049 515.325 244.96 514.678 245.284C508.269 248.457 500.302 245.636 494.716 241.934C489.63 238.554 486.426 233.529 485.838 227.446C484.779 216.367 491.629 205.406 495.98 195.679C500.449 185.629 502.066 175.05 499.832 164.177C497.568 153.127 490.542 143.723 481.575 137.111C491.335 134.173 499.89 129.001 503.977 118.333C509.063 105.109 507.71 89.5933 506.211 75.7522C503.859 54.0355 493.57 18.8009 518.5 6.10592C519.264 5.72389 520.558 4.01947 519.235 3.37296H519.294ZM131.523 28.0871C137.344 25.1778 143.136 22.2098 149.251 19.8589C157.218 16.8027 165.479 14.5693 173.828 12.8942C190.997 9.48538 208.607 8.92704 226.011 10.3082C261.113 13.0999 297.127 24.7664 325.467 46.0423C321.557 50.5679 318.382 56.0632 317.177 61.9405C315.677 61.3234 314.178 60.7356 312.679 60.1479C307.269 58.0615 301.772 56.2689 296.215 54.7408C296.627 53.9179 297.009 53.0951 297.362 52.2723C297.568 51.8315 297.009 51.6552 296.715 51.9491C296.039 52.7131 295.48 53.5359 294.922 54.3881C288.689 52.7131 282.427 51.3319 276.077 50.2152C277.87 47.5411 279.723 45.1314 280.663 41.9282C280.81 41.458 280.134 41.4874 279.958 41.8107C278.282 44.7787 275.695 47.1003 273.696 49.8332C266.522 48.6284 259.261 47.7468 251.97 47.1296C255.086 43.7796 256.174 36.5211 256.145 33.171C256.145 32.9359 255.821 33.0241 255.763 33.171C255.028 36.139 254.175 38.9895 252.823 41.7519C252.146 43.1331 251.47 44.5436 250.53 45.8072C250.118 46.3656 249.618 46.6301 249.118 46.8652C247.972 46.777 246.825 46.6888 245.679 46.6007C239.27 46.1599 232.831 45.8366 226.393 45.6603C229.509 41.4874 229.686 33.4943 229.598 29.3214C229.598 29.0275 229.157 29.1156 229.127 29.3507C228.657 32.642 228.422 35.9627 227.51 39.1659C226.834 41.5756 225.276 43.4857 224.188 45.6015C217.515 45.4546 210.841 45.484 204.168 45.7191C206.137 42.9274 206.167 38.5781 206.02 35.4338C205.726 29.6152 204.52 23.7673 202.521 18.3014C202.462 18.1838 202.286 18.3014 202.315 18.3895C203.58 22.8563 204.168 27.7051 204.432 32.3482C204.667 36.6974 204.55 42.8392 200.904 45.8366C196.465 46.0423 192.026 46.3068 187.587 46.6888C188.527 43.7502 188.233 40.1944 187.675 37.3733C186.558 31.7898 184.029 24.5019 179.796 20.476C179.649 20.329 179.384 20.5935 179.473 20.7698C182.412 25.6186 184.823 30.2323 185.823 35.8746C186.411 39.1365 186.44 43.6032 185.088 46.9533C181.883 47.2472 178.679 47.6292 175.504 48.0406C173.887 48.2463 172.299 48.5108 170.682 48.7753C173.946 42.1633 169.653 34.4346 166.419 28.5573C166.361 28.4691 166.214 28.5573 166.243 28.6748C168.066 34.464 171.358 43.4857 167.919 49.1573C167.889 49.2161 167.86 49.2455 167.86 49.3043C164.156 49.9801 160.452 50.7736 156.777 51.6258C157.247 48.8635 154.689 45.1607 153.807 43.1624C151.985 39.0777 149.956 33.6412 146.84 30.3499C146.634 30.1148 146.193 30.438 146.369 30.7025C148.28 33.6706 150.044 36.6974 151.632 39.8124C152.867 42.2221 153.749 44.4555 154.219 47.1003C154.395 48.07 155.513 50.6267 155.219 52.0078C152.514 52.6543 149.78 53.3008 147.075 53.9767C147.428 53.7416 147.663 53.3302 147.575 52.9188C145.252 43.4857 140.607 32.642 131.494 28.1165L131.523 28.0871ZM70.8439 88.0358C75.5771 74.5767 86.8369 60.0304 102.448 60.383C102.977 60.4124 103.535 60.4418 104.065 60.4712C112.796 61.3528 119.234 67.5533 123.291 75.1057C118.705 73.4013 113.325 74.9294 108.915 77.2215C98.9492 82.3936 92.5402 95.8233 89.5121 106.05C86.3665 116.688 87.6894 130.117 98.7434 135.466C110.003 140.902 120.146 133.996 125.438 124.005C126.437 122.154 127.29 120.214 128.083 118.216C125.114 127.972 119.764 136.994 112.296 144.105C112.002 144.399 111.885 144.693 111.885 144.987C107.563 146.163 103.506 148.073 100.331 150.717C93.9808 151.364 87.954 151.805 81.8979 149.278C75.4889 146.574 71.9904 140.344 69.7267 134.114C64.5231 119.832 65.8461 102.171 70.8145 88.0358H70.8439ZM119.793 85.4792C115.413 90.0047 114.384 98.0566 115.266 104.081C116.059 109.488 121.322 113.896 126.143 110.546C125.526 113.543 124.761 116.482 123.732 119.362C121.851 124.681 118.47 130.382 113.149 132.821C107.769 135.29 100.39 133.144 96.1269 129.442C86.1019 120.714 91.6583 102.788 97.0089 93.1491C99.8899 87.9183 104.476 82.8638 109.739 79.9839C113.237 78.1031 117.441 76.8689 121.351 78.0444C123.703 78.7496 125.349 80.6304 126.496 82.7756C126.525 82.8932 126.555 83.0107 126.613 83.1283C124.262 82.7756 121.322 83.9511 119.822 85.538L119.793 85.4792ZM128.319 91.6504C128.319 91.6504 128.319 91.6798 128.319 91.7091C128.23 94.5303 127.966 97.3808 127.701 100.055C127.584 101.201 127.466 102.347 127.319 103.464C126.878 105.256 126.143 106.99 124.673 108.107C122.086 110.046 119.822 106.99 119.029 104.963C117.617 101.436 118.235 96.8812 118.97 93.2666C119.47 90.9157 120.352 88.3591 122.204 86.7722C126.172 83.3927 127.966 88.6823 128.319 91.6504ZM170.124 263.68C169.83 263.768 169.536 264.032 169.33 264.297C169.242 264.238 169.124 264.179 168.948 264.179C160.628 263.768 152.308 263.68 144.047 262.416C135.345 261.064 127.025 258.302 118.852 255.099C103.535 249.074 89.1594 240.876 75.8123 231.296C62.1712 221.51 50.4999 209.05 40.3573 195.738C36.0651 190.096 32.5372 183.954 28.6566 178.047C27.1278 175.725 25.6285 173.404 24.2467 170.994C23.3648 169.466 21.9536 167.203 21.4539 165.088C36.8588 174.697 55.5565 177.018 72.9606 172.052C76.4885 176.166 81.6333 178.958 87.1602 179.164C88.2774 179.193 89.0712 177.401 87.6894 177.254C78.223 176.225 69.6973 168.585 69.5503 158.711C69.5503 157.77 68.1098 158.211 68.0804 159.005C67.9922 163.06 69.3152 166.968 71.5789 170.26C54.8509 173.698 38.858 171.964 23.894 163.119C12.1932 156.183 3.99095 145.193 3.13839 131.41C2.815 126.415 4.07915 121.625 9.95892 122.095C13.3692 122.359 16.6619 123.594 20.1309 123.829C23.6 124.064 26.922 123.153 30.0089 121.654C36.0651 118.774 40.7101 113.573 45.2963 108.842C48.4126 105.638 51.4701 103.229 55.4683 101.289C58.6434 99.7611 61.7597 98.1448 64.8465 96.4698C61.9654 109.312 62.5828 123.153 66.9338 135.378C69.2564 141.872 73.5192 147.808 79.7223 151.07C85.1023 153.891 91.8346 154.185 97.8614 153.215C94.7451 156.83 93.0694 161.444 93.8338 167.027C93.9808 168.026 95.3331 167.556 95.3625 166.733C96.4797 147.397 117 143.929 132.464 147.25C133.434 147.456 134.61 145.986 133.405 145.516C128.319 143.577 121.821 143.194 115.56 144.282C128.936 132.057 135.11 112.721 134.287 94.9417C133.846 85.1853 131.347 76.0167 126.055 67.759C125.438 66.7893 124.761 65.9077 124.085 65.0555C128.054 62.6752 132.405 61.0295 136.874 59.7071C138.52 61.294 140.931 63.6155 141.195 63.8506C145.017 67.3476 148.398 71.3442 151.867 75.1645C157.982 81.894 163.48 89.0643 168.095 96.94C177.826 113.573 182.736 133.027 187.293 151.57C192.202 171.611 192.967 193.034 190.291 213.458C189.027 223.097 186.411 232.647 183.089 241.757C180.149 249.78 176.18 257.685 170.065 263.768L170.124 263.68ZM245.061 153.803C234.713 153.421 224.512 155.625 214.193 155.008C209.195 154.714 203.991 153.715 199.346 151.746C195.377 150.071 192.408 146.897 188.88 144.517C198.552 147.191 208.019 147.191 217.603 143.87C228.745 140.05 238.799 134.937 250.735 133.967C250.971 133.967 251.088 133.526 250.794 133.526C240.857 133.526 231.42 138.081 222.101 140.991C212.399 144.017 202.051 144.576 192.085 142.842C211.664 138.875 226.07 121.713 246.531 120.244C246.708 120.244 246.855 119.891 246.619 119.92C225.247 120.567 210.047 139.462 189.233 142.284C189.174 142.284 189.086 142.284 189.027 142.254C188.968 142.254 188.88 142.254 188.821 142.254C191.085 141.402 193.055 139.756 194.907 137.964C201.022 133.791 206.637 128.766 212.958 124.945C215.28 123.564 217.632 122.301 220.072 121.155C224.57 119.156 229.186 117.54 233.89 116.071C237.124 115.16 240.387 114.425 243.709 113.837C248.501 112.985 253.469 112.25 258.35 112.485C263.142 112.721 266.522 115.454 269.756 118.686C273.02 124.328 274.519 131.91 276.401 137.288C280.369 148.631 280.928 160.033 280.516 171.611C280.34 176.666 281.487 182.249 278.311 186.657C275.107 191.065 269.492 192.917 264.288 193.416C262.612 193.563 260.907 193.681 259.232 193.651C253.117 193.622 247.031 192.623 241.181 190.83C239.711 190.389 238.27 189.919 236.83 189.42C231.244 187.539 225.688 185.688 220.425 182.925C218.985 182.191 217.603 181.368 216.221 180.516C214.722 179.575 213.252 178.576 211.841 177.489C205.902 173.022 200.405 167.732 196.024 161.737C193.555 158.329 191.32 154.626 189.409 150.835C189.409 150.776 189.409 150.688 189.38 150.629C189.262 149.865 189.115 149.101 188.968 148.367C190.438 150.629 191.644 153.127 193.143 155.331C195.23 158.387 198.2 160.709 201.169 162.854C207.196 167.203 214.457 170.465 221.689 172.14C222.189 172.258 222.836 171.464 222.189 171.229C215.222 168.614 208.519 165.705 202.345 161.532C199.376 159.504 196.641 157.241 194.466 154.361C192.526 151.805 190.82 149.278 188.674 146.927C188.674 146.78 188.616 146.633 188.586 146.486C191.056 148.572 193.349 150.894 196.318 152.275C200.552 154.214 205.079 154.861 209.636 155.507C221.454 157.212 233.243 153.891 245.091 153.921C245.208 153.921 245.267 153.744 245.15 153.744L245.061 153.803ZM401.904 208.462C403.139 210.02 404.432 211.607 405.314 213.399C405.491 213.752 405.491 214.251 405.432 214.751C399.405 222.009 393.29 229.239 386.264 235.498C378.532 242.374 369.889 248.222 361.099 253.688C342.136 265.472 322.204 275.669 301.301 283.516C280.487 291.332 258.849 296.446 236.741 298.591C215.956 300.619 195.083 301.089 175.004 294.594C175.122 292.038 176.65 288.952 177.032 286.542C177.503 283.604 177.385 280.606 177.15 277.638C176.944 275.14 176.209 272.819 175.18 270.556C174.681 269.439 174.034 268.499 173.24 267.617C172.975 267.353 172.681 267.089 172.417 266.824C172.299 266.56 172.182 266.354 172.093 266.178C174.769 266.648 177.444 267.03 180.149 267.353C182.089 272.437 182.265 278.05 184.176 283.222C184.412 283.839 185.441 283.427 185.352 282.869C184.706 277.844 183.882 272.378 182.03 267.588C185.529 267.97 189.027 268.264 192.526 268.44C195.201 272.114 195.642 276.463 197.288 280.636C197.641 281.517 198.905 280.783 198.758 279.989C198.141 276.11 196.818 271.879 194.554 268.558C199.993 268.793 205.432 268.793 210.9 268.587C215.486 274.494 216.868 282.046 218.485 289.246C218.602 289.746 219.426 289.393 219.396 288.952C218.779 281.752 217.074 274.347 212.723 268.528C219.161 268.235 225.57 267.617 231.949 266.765C233.302 268.117 234.625 269.439 235.713 271.114C237.124 273.26 238.153 275.611 239.623 277.697C240.005 278.255 241.122 277.58 240.857 276.992C239.27 273.554 237.124 269.175 234.037 266.471C241.034 265.472 248.001 264.15 254.91 262.563C255.586 263.415 256.321 264.15 257.056 264.973C260.055 268.176 262.407 271.702 264.612 275.493C265.023 276.198 266.229 275.376 266.023 274.7C264.67 270.644 261.995 267.441 258.967 264.473C258.35 263.885 257.585 263.004 256.762 262.152C264.964 260.212 273.078 257.891 281.046 255.275C283.985 259.213 287.102 263.063 291.159 265.884C291.541 266.148 292.158 265.531 291.776 265.208C288.101 262.093 284.926 258.713 281.957 254.981C288.278 252.895 294.54 250.603 300.655 248.134C302.889 251.602 306.593 254.423 310.533 255.481C311.179 255.657 311.944 254.658 311.15 254.364C307.593 253.012 304.271 250.72 302.066 247.576C309.533 244.549 316.941 241.316 324.291 237.878C327.202 240.993 332.111 241.875 336.168 242.433C336.58 242.492 336.991 241.787 336.492 241.64C332.846 240.67 328.26 240.053 325.379 237.379C332.258 234.117 339.079 230.678 345.782 227.035C348.898 228.621 359.599 229.268 361.128 229.209C362.098 229.18 362.892 227.563 361.598 227.475C358.923 227.27 356.218 226.829 353.543 226.476C352.955 226.388 349.809 226.153 347.722 225.977C352.514 223.361 357.247 220.628 361.892 217.778C374.828 209.902 386.587 200.587 397.671 190.419C397.171 193.475 397.935 198.412 398.082 199.411C398.641 202.938 399.787 205.7 401.992 208.521L401.904 208.462ZM501.743 66.4954C503.712 79.7194 506.182 93.0022 505.241 106.432C504.594 115.747 500.684 124.622 493.217 130.441C486.249 135.877 476.871 137.17 468.375 138.228C467.287 138.375 467.081 140.138 468.375 139.933C472.05 139.345 475.783 138.669 479.341 137.729C479.37 137.787 479.429 137.846 479.517 137.905C490.6 145.869 497.656 157.565 498.832 171.259C499.979 184.483 494.128 195.356 489.101 207.081C485.397 215.779 481.428 226.77 486.338 235.821C489.424 241.522 495.716 246.606 502.507 248.575C501.772 248.692 501.037 248.81 500.361 248.928C493.628 249.897 487.572 245.636 482.486 241.816C472.873 234.587 469.845 225.066 469.845 213.399C469.845 212.429 468.463 212.929 468.375 213.693C467.228 225.066 470.374 234.616 479.017 242.286C483.486 246.253 489.101 250.338 495.128 251.308C497.597 251.719 499.773 251.543 502.242 251.161C503.271 251.014 504.3 250.75 505.359 250.514C496.157 254.599 486.543 255.334 476.577 252.542C466.523 249.721 459.144 242.756 451.764 235.762C451.235 235.263 450.236 236.203 450.618 236.791C456.439 245.93 465.847 252.395 476.195 255.393C476.783 255.569 477.4 255.716 477.988 255.863C466.111 255.216 454.675 250.779 445.797 242.786C433.39 231.619 430.333 216.073 427.775 200.351C426.717 193.769 423.718 174.315 413.987 174.286C416.31 171.817 418.544 169.26 420.69 166.645C422.807 166.91 424.806 169.731 425.982 171.2C427.746 173.433 429.98 175.931 431.215 178.517C431.568 179.281 432.773 178.664 432.567 177.929C431.538 174.197 428.481 170.642 425.747 168.026C424.659 166.998 423.306 165.675 421.778 165.264C423.248 163.442 424.688 161.561 426.041 159.651C432.949 160.033 438.976 162.648 443.886 167.703C448.766 172.699 451.294 179.046 454.205 185.276C454.469 185.805 455.322 185.394 455.175 184.865C451.353 171.082 441.71 159.328 427.069 158.211C428.951 155.478 430.715 152.686 432.332 149.806C437.829 146.868 446.943 149.042 452.323 149.483C452.764 149.513 453.264 148.749 452.705 148.572C447.59 146.897 439.329 145.487 433.478 147.749C434.36 146.074 435.184 144.37 435.977 142.636C436.859 140.638 434.008 140.08 433.243 141.755C424.453 161.355 408.46 176.343 392.467 190.184C375.357 204.965 356.924 216.896 336.786 227.152C315.942 237.761 294.51 247.341 272.079 254.011C249.795 260.623 226.658 264.444 203.433 265.178C193.525 265.502 183.5 265.237 173.652 264.091C185.117 251.778 189.527 233.441 191.761 217.308C194.701 196.208 193.29 175.725 190.027 154.861C197.288 171.406 212.928 183.719 229.362 190.272C238.241 193.828 247.795 195.444 257.35 195.385C260.084 195.385 262.877 195.15 265.611 194.709C268.992 194.122 272.667 193.357 275.548 191.447C277.518 190.125 279.282 188.391 280.458 186.305C282.133 183.278 282.956 179.957 283.486 176.578C283.985 173.286 284.074 169.966 284.074 166.645C284.132 159.974 283.691 153.362 282.28 146.809C281.516 143.195 280.546 139.58 279.34 136.083C277.576 130.882 275.93 123.505 272.637 117.804C272.637 117.804 272.637 117.746 272.637 117.716C269.992 108.43 260.202 107.872 252.029 108.665C240.299 109.811 228.804 113.279 218.22 118.451C212.046 121.478 206.784 125.386 201.286 129.442C196.494 132.968 191.644 136.377 187.234 140.315C185.529 133.085 183.441 125.886 181.295 118.833C178.532 109.811 174.534 101.113 169.683 93.0315C164.479 84.3625 157.864 76.8395 151.073 69.4047C147.751 65.7608 144.282 62.205 140.372 59.2075C140.284 59.1194 140.166 59.0312 140.049 58.9431C143.606 58.0027 147.193 57.2093 150.721 56.357C162.304 53.5653 173.799 51.3613 185.676 50.2446C209.371 48.07 233.743 48.8928 257.438 51.0381C281.016 53.1833 303.565 59.09 324.997 69.1696C346.076 79.0729 364.244 92.914 382.795 106.696C396.171 116.629 410.106 125.504 425.306 132.321C425.717 132.527 426.246 132.321 426.629 131.969C440.681 135.348 457.056 121.713 469.227 117.217C469.257 117.217 469.227 117.158 469.227 117.158C456.615 121.683 441.387 133.35 427.187 130.735C427.128 130.558 427.011 130.382 426.805 130.264C424.982 129.353 423.218 128.413 421.425 127.443C435.242 126.18 444.915 108.43 446.649 95.8233C446.737 95.118 445.679 95.4706 445.532 95.9114C441.328 107.901 432.773 128.325 417.103 125.063C415.78 124.328 414.487 123.564 413.164 122.8C421.19 120.743 425.747 111.075 428.481 103.611C434.654 86.8897 434.184 68.8464 438.094 51.6258C441.828 35.1399 452.999 22.3273 467.64 14.3342C479.458 7.8985 495.657 1.43345 509.768 3.93131C501.008 4.66598 492.041 7.48709 484.544 11.5424C475.137 16.6263 467.493 24.7077 461.76 33.6118C461.496 33.9938 462.113 34.1114 462.348 33.7881C468.404 25.1191 476.077 18.0957 485.103 12.6297C489.836 9.77925 495.01 7.72218 500.361 6.34101C502.801 5.72389 505.123 5.45941 507.416 5.40064C506.652 5.81205 506.005 6.19408 505.594 6.42917C498.332 10.6902 493.687 17.5667 490.747 25.2954C490.336 26.4121 492.1 26.4415 492.511 25.6186C495.422 19.7707 498.861 14.246 504.065 10.1907C504.888 9.54415 508.416 7.04629 511.591 5.51819C512.444 5.57696 513.267 5.63573 514.149 5.72389C494.922 19.0654 498.803 46.013 501.89 66.6717L501.743 66.4954Z" fill="black"/>
<defs>
<radialGradient id="paint0_radial_1396_11471" cx="0" cy="0" r="1" gradientUnits="userSpaceOnUse" gradientTransform="translate(231.068 9.28301) scale(133.147 77.1934)">
<stop stop-color="white"/>
<stop offset="0.17" stop-color="white"/>
<stop offset="0.35" stop-color="white"/>
<stop offset="0.54" stop-color="white"/>
<stop offset="0.73" stop-color="white"/>
<stop offset="0.92" stop-color="white"/>
<stop offset="1" stop-color="white"/>
</radialGradient>
<radialGradient id="paint1_radial_1396_11471" cx="0" cy="0" r="1" gradientUnits="userSpaceOnUse" gradientTransform="translate(108.593 105.696) scale(23.6367 23.6268)">
<stop stop-color="#5A5B5D"/>
<stop offset="1" stop-color="#231F20"/>
</radialGradient>
<radialGradient id="paint2_radial_1396_11471" cx="0" cy="0" r="1" gradientUnits="userSpaceOnUse" gradientTransform="translate(76.2533 94.1472) scale(172.336 172.264)">
<stop stop-color="white"/>
<stop offset="0.9" stop-color="white"/>
<stop offset="1" stop-color="white"/>
</radialGradient>
<radialGradient id="paint3_radial_1396_11471" cx="0" cy="0" r="1" gradientUnits="userSpaceOnUse" gradientTransform="translate(271.048 286.73) rotate(-17.1733) scale(193.496 102.518)">
<stop stop-color="white"/>
<stop offset="0.14" stop-color="white"/>
<stop offset="0.37" stop-color="white"/>
<stop offset="0.66" stop-color="white"/>
<stop offset="1" stop-color="white"/>
</radialGradient>
<radialGradient id="paint4_radial_1396_11471" cx="0" cy="0" r="1" gradientUnits="userSpaceOnUse" gradientTransform="translate(271.048 286.73) rotate(-17.1733) scale(193.496 102.518)">
<stop stop-color="white"/>
<stop offset="0.14" stop-color="white"/>
<stop offset="0.37" stop-color="white"/>
<stop offset="0.66" stop-color="white"/>
<stop offset="1" stop-color="white"/>
</radialGradient>
<radialGradient id="paint5_radial_1396_11471" cx="0" cy="0" r="1" gradientUnits="userSpaceOnUse" gradientTransform="translate(230.627 144.928) scale(41.0114 40.9943)">
<stop stop-color="white"/>
<stop offset="1" stop-color="white"/>
</radialGradient>
<radialGradient id="paint6_radial_1396_11471" cx="0" cy="0" r="1" gradientUnits="userSpaceOnUse" gradientTransform="translate(279.063 119.454) rotate(1.08955) scale(247.391 182.993)">
<stop stop-color="white"/>
<stop offset="1" stop-color="white"/>
</radialGradient>
<radialGradient id="paint7_radial_1396_11471" cx="0" cy="0" r="1" gradientUnits="userSpaceOnUse" gradientTransform="translate(279.063 119.454) rotate(1.08955) scale(247.391 182.993)">
<stop stop-color="white"/>
<stop offset="1" stop-color="white"/>
</radialGradient>
<radialGradient id="paint8_radial_1396_11471" cx="0" cy="0" r="1" gradientUnits="userSpaceOnUse" gradientTransform="translate(280.427 115.738) rotate(1.08955) scale(247.391 182.993)">
<stop stop-color="white"/>
<stop offset="1" stop-color="white"/>
</radialGradient>
<radialGradient id="paint9_radial_1396_11471" cx="0" cy="0" r="1" gradientUnits="userSpaceOnUse" gradientTransform="translate(280.427 115.738) rotate(1.08955) scale(247.391 182.993)">
<stop stop-color="white"/>
<stop offset="1" stop-color="white"/>
</radialGradient>
<radialGradient id="paint10_radial_1396_11471" cx="0" cy="0" r="1" gradientUnits="userSpaceOnUse" gradientTransform="translate(285.935 115.299) rotate(1.08955) scale(247.42 183.015)">
<stop stop-color="white"/>
<stop offset="1" stop-color="white"/>
</radialGradient>
<radialGradient id="paint11_radial_1396_11471" cx="0" cy="0" r="1" gradientUnits="userSpaceOnUse" gradientTransform="translate(285.935 115.299) rotate(1.08955) scale(247.42 183.015)">
<stop stop-color="white"/>
<stop offset="1" stop-color="white"/>
</radialGradient>
<radialGradient id="paint12_radial_1396_11471" cx="0" cy="0" r="1" gradientUnits="userSpaceOnUse" gradientTransform="translate(280.339 115.737) rotate(1.08955) scale(247.362 182.972)">
<stop stop-color="white"/>
<stop offset="1" stop-color="white"/>
</radialGradient>
<radialGradient id="paint13_radial_1396_11471" cx="0" cy="0" r="1" gradientUnits="userSpaceOnUse" gradientTransform="translate(280.339 115.737) rotate(1.08955) scale(247.362 182.972)">
<stop stop-color="white"/>
<stop offset="1" stop-color="white"/>
</radialGradient>
<radialGradient id="paint14_radial_1396_11471" cx="0" cy="0" r="1" gradientUnits="userSpaceOnUse" gradientTransform="translate(486.867 -6.85465) scale(216.787 216.697)">
<stop stop-color="white"/>
<stop offset="1" stop-color="white"/>
</radialGradient>
<radialGradient id="paint15_radial_1396_11471" cx="0" cy="0" r="1" gradientUnits="userSpaceOnUse" gradientTransform="translate(203.786 132.762) scale(14.1702 14.1644)">
<stop stop-color="#00ACED"/>
<stop offset="1" stop-color="#0054A4"/>
</radialGradient>
<radialGradient id="paint16_radial_1396_11471" cx="0" cy="0" r="1" gradientUnits="userSpaceOnUse" gradientTransform="translate(254.587 121.506) scale(58.6801 58.6557)">
<stop stop-color="#FF7E00"/>
<stop offset="1" stop-color="#FF0000"/>
</radialGradient>
<radialGradient id="paint17_radial_1396_11471" cx="0" cy="0" r="1" gradientUnits="userSpaceOnUse" gradientTransform="translate(222.836 122.184) scale(5.17419 5.17204)">
<stop stop-color="#FFFF84"/>
<stop offset="0.9" stop-color="#F7D31A"/>
<stop offset="1" stop-color="#F9D503"/>
</radialGradient>
<radialGradient id="paint18_radial_1396_11471" cx="0" cy="0" r="1" gradientUnits="userSpaceOnUse" gradientTransform="translate(39.71 110.781) scale(105.806 105.762)">
<stop stop-color="#FFFF84"/>
<stop offset="0.9" stop-color="#F7D31A"/>
<stop offset="1" stop-color="#F9D503"/>
</radialGradient>
<radialGradient id="paint19_radial_1396_11471" cx="0" cy="0" r="1" gradientUnits="userSpaceOnUse" gradientTransform="translate(133.317 64.4079) scale(47.4497 47.43)">
<stop stop-color="#FFFF84"/>
<stop offset="0.9" stop-color="#F7D31A"/>
<stop offset="1" stop-color="#F9D503"/>
</radialGradient>
<radialGradient id="paint20_radial_1396_11471" cx="0" cy="0" r="1" gradientUnits="userSpaceOnUse" gradientTransform="translate(254.176 45.6309) scale(350.728 350.582)">
<stop stop-color="#FF7E00"/>
<stop offset="1" stop-color="#FF0000"/>
</radialGradient>
<radialGradient id="paint21_radial_1396_11471" cx="0" cy="0" r="1" gradientUnits="userSpaceOnUse" gradientTransform="translate(466.992 15.9507) scale(159.753 159.687)">
<stop stop-color="#FF7E00"/>
<stop offset="1" stop-color="#FF0000"/>
</radialGradient>
</defs>
</svg>
