<svg width="202" height="117" viewBox="0 0 202 117" fill="none" xmlns="http://www.w3.org/2000/svg">
<path d="M50.9429 10.8839C53.198 9.75684 55.4417 8.61837 57.8107 7.69621C60.8972 6.5122 64.0977 5.63558 67.3437 4.99803C73.9951 3.67741 80.8174 3.4611 87.5599 3.99618C101.159 5.07773 115.111 9.59745 126.09 17.84C124.576 19.5932 123.346 21.7222 122.867 23.9991C122.286 23.76 121.705 23.5323 121.125 23.3046C119.029 22.4963 116.899 21.8132 114.747 21.2099C114.906 20.8911 115.054 20.5723 115.202 20.2535C115.282 20.0714 115.065 20.0145 114.952 20.1283C114.69 20.4129 114.473 20.7431 114.257 21.0732C111.842 20.4243 109.416 19.8892 106.956 19.4566C107.651 18.4206 108.368 17.4871 108.733 16.2461C108.79 16.064 108.528 16.0754 108.448 16.2006C107.799 17.3504 106.808 18.2498 106.022 19.3086C103.243 18.8418 100.43 18.5003 97.6168 18.2612C98.8241 16.9634 99.2455 14.1513 99.2341 12.8535C99.2341 12.7624 99.1088 12.7966 99.086 12.8535C98.8013 14.0033 98.471 15.1077 97.9357 16.1778C97.6737 16.7129 97.4118 17.2594 97.0587 17.7489C96.8993 17.9652 96.7056 18.0563 96.512 18.1588C96.0678 18.1246 95.6236 18.0904 95.1794 18.0563C92.6966 17.8855 90.2023 17.7603 87.708 17.692C88.9153 16.0754 88.9836 12.9787 88.9494 11.3621C88.9494 11.2482 88.7786 11.2824 88.7672 11.3621C88.585 12.6372 88.4938 13.9236 88.1408 15.1646C87.8788 16.0981 87.2752 16.8495 86.8538 17.6578C84.2684 17.6009 81.683 17.6123 79.0976 17.7034C79.8607 16.6218 79.872 14.9369 79.8037 13.7187C79.6898 11.4645 79.2228 9.19899 78.4484 7.08143C78.4256 7.03589 78.3572 7.08143 78.3686 7.11559C78.8584 8.84606 79.0862 10.7245 79.1887 12.5233C79.2798 14.2083 79.2342 16.5877 77.8219 17.7489C76.1021 17.8286 74.3823 17.9311 72.6739 18.0791C73.0384 16.9406 72.9245 15.563 72.7081 14.4701C72.2753 12.307 71.2844 9.48361 69.6557 7.9239C69.5988 7.86698 69.4963 7.96944 69.5304 8.03775C70.6694 9.91623 71.6033 11.7036 71.9906 13.8895C72.2183 15.1532 72.2297 16.8837 71.7058 18.1701C70.4644 18.2954 69.2229 18.432 67.9929 18.5914C67.3664 18.6825 66.74 18.7735 66.125 18.876C67.3892 16.3144 65.7264 13.3203 64.4735 11.0433C64.4507 11.0092 64.3938 11.0433 64.4052 11.0775C65.1113 13.3203 66.3869 16.8154 65.0544 19.0126C65.0544 19.0354 65.0316 19.0468 65.0316 19.0695C63.5965 19.3314 62.1615 19.6388 60.7492 19.9803C60.9314 18.8988 59.9405 17.4757 59.5988 16.7015C58.8927 15.1077 58.1068 13.0129 56.8995 11.7378C56.8198 11.6467 56.6376 11.7719 56.7059 11.8744C57.4462 13.0129 58.1296 14.1969 58.7446 15.4037C59.223 16.3372 59.5647 17.2024 59.7469 18.2271C59.8152 18.6028 60.248 19.5932 60.1341 20.1283C59.0863 20.3788 58.0271 20.6292 56.9793 20.8911C57.1159 20.7886 57.2071 20.6406 57.1729 20.4812C56.2731 16.8267 54.485 12.6258 50.9429 10.8725V10.8839Z" fill="url(#paint0_radial_1396_11746)"/>
<path d="M27.4352 34.1085C29.2689 28.8943 33.6311 23.2589 39.6789 23.3955C39.8839 23.4069 40.1003 23.4183 40.3053 23.4297C43.688 23.7598 46.1823 26.1734 47.754 29.0992C45.9772 28.4389 43.893 29.0309 42.1846 29.9189C38.3235 31.9226 35.8406 37.1255 34.6675 41.0873C33.4489 45.2086 33.9614 50.4114 38.2438 52.4834C42.5946 54.5896 46.5353 51.9142 48.5854 48.0434C48.9727 47.3262 49.3144 46.5634 49.6105 45.8006C48.4601 49.5803 46.3873 53.0754 43.4943 55.8191C43.3805 55.933 43.3349 56.0468 43.3349 56.1607C41.6606 56.6161 40.0889 57.3561 38.8588 58.3807C36.3873 58.6312 34.0639 58.8019 31.7177 57.8229C29.2348 56.7869 27.8794 54.3619 27.0024 51.9484C24.9865 46.404 25.499 39.5732 27.4239 34.0971L27.4352 34.1085Z" fill="#F5F5F5"/>
<path d="M46.3987 33.1182C44.7017 34.8714 44.3031 37.9909 44.6447 40.3247C44.9523 42.4195 46.9796 44.1272 48.8588 42.8294C48.6197 43.9906 48.3235 45.1291 47.9249 46.2448C47.196 48.3054 45.8862 50.514 43.8247 51.459C41.7404 52.4153 38.8817 51.5842 37.2302 50.1497C33.3464 46.7685 35.499 39.8238 37.5605 36.0782C38.6767 34.0517 40.4534 32.0936 42.5035 30.9779C43.8589 30.2493 45.4876 29.7711 47.0024 30.2265C47.9135 30.4997 48.5399 31.2283 48.9955 32.0594C49.0069 32.105 49.0183 32.1505 49.0411 32.196C48.1299 32.0594 46.991 32.5148 46.4101 33.1296L46.3987 33.1182Z" fill="url(#paint1_radial_1396_11746)"/>
<path d="M49.7014 35.5094C49.7014 35.5094 49.7014 35.5207 49.7014 35.5321C49.6672 36.6251 49.5647 37.7294 49.4622 38.7654C49.4167 39.2094 49.3711 39.6534 49.3142 40.086C49.1433 40.7691 48.8586 41.4522 48.2777 41.8848C47.2755 42.6476 46.3985 41.4522 46.091 40.6666C45.5443 39.3005 45.7834 37.5358 46.0682 36.1355C46.2618 35.2247 46.6035 34.2343 47.321 33.6195C48.8586 32.3102 49.5533 34.3595 49.6786 35.5094H49.7014Z" fill="#F5F5F5"/>
<path d="M65.8971 102.155C65.7718 102.189 65.6693 102.28 65.5896 102.394C65.5554 102.371 65.5098 102.349 65.4415 102.349C62.2183 102.189 58.9951 102.155 55.7946 101.665C52.4234 101.142 49.2001 100.072 46.0339 98.8307C40.1 96.4968 34.5306 93.3205 29.3598 89.6091C24.0751 85.818 19.5534 80.9909 15.6241 75.8336C13.9612 73.6477 12.5945 71.2683 11.0911 68.98C10.5102 68.0806 9.91798 67.1812 9.38268 66.2477C9.041 65.6557 8.50569 64.779 8.30068 63.9593C14.2687 67.6708 21.5124 68.5815 28.255 66.6575C29.6217 68.2514 31.6149 69.3329 33.7561 69.4126C34.1889 69.424 34.4964 68.7295 33.9611 68.6726C30.2937 68.2742 26.9907 65.3141 26.9338 61.4889C26.9338 61.1246 26.3757 61.2953 26.3643 61.6027C26.3302 63.1738 26.8427 64.688 27.7197 65.9631C21.2391 67.2951 15.0432 66.6234 9.24601 63.1966C4.71301 60.5098 1.53536 56.2405 1.20506 50.9125C1.07978 48.9771 1.56953 47.1214 3.84741 47.3035C5.16859 47.406 6.44421 47.8841 7.78816 47.9752C9.13211 48.0663 10.4191 47.702 11.6264 47.1328C13.9726 46.0057 15.7608 44.002 17.5489 42.169C18.7448 40.9281 19.9407 39.9945 21.4897 39.2432C22.7197 38.6511 23.927 38.025 25.1229 37.3761C24.0067 42.3512 24.2459 47.7134 25.9315 52.4494C26.8313 54.9654 28.4828 57.2651 30.8859 58.5288C32.9702 59.6218 35.5784 59.7242 37.9018 59.3599C36.6945 60.7602 36.0567 62.5476 36.3415 64.7107C36.387 65.0978 36.9223 64.9157 36.9337 64.5969C37.3665 57.1058 45.3164 55.7624 51.3186 57.0488C51.6944 57.1285 52.15 56.5593 51.6831 56.3885C49.7241 55.6371 47.1956 55.4891 44.7697 55.899C49.9519 51.1629 52.355 43.6718 52.0247 36.7841C51.8425 33.0043 50.8858 29.4523 48.8357 26.2532C48.5965 25.8775 48.3346 25.536 48.0726 25.2058C49.6102 24.2836 51.2958 23.6461 53.0384 23.1338C53.6762 23.7486 54.6101 24.648 54.7012 24.739C56.1819 26.0938 57.4917 27.6421 58.847 29.1221C61.216 31.7292 63.3458 34.5071 65.134 37.5582C68.9039 44.002 70.8059 51.5386 72.5713 58.7224C74.4733 66.4868 74.758 74.7862 73.733 82.6986C73.2432 86.4328 72.2296 90.1328 70.9426 93.662C69.8036 96.7814 68.2661 99.8326 65.8971 102.189V102.155Z" fill="url(#paint2_radial_1396_11746)"/>
<path d="M94.9286 59.5881C90.9309 59.4401 86.9674 60.2939 82.9697 60.0548C81.0335 59.941 79.0175 59.5539 77.218 58.8025C75.6804 58.1536 74.5301 56.924 73.1634 56.0019C76.9105 57.0379 80.5779 57.0265 84.2909 55.7514C88.6075 54.26 92.5026 52.2905 97.1267 51.9148C97.2179 51.9148 97.2634 51.744 97.1495 51.744C93.2999 51.744 89.6439 53.5086 86.0334 54.6357C82.2749 55.8083 78.2658 56.0247 74.4048 55.353C81.9902 53.816 87.571 47.1673 95.4981 46.5981C95.5664 46.5981 95.6233 46.4615 95.5322 46.4729C87.2521 46.7233 81.3638 54.0437 73.3 55.1366C73.2773 55.1366 73.2431 55.1253 73.2203 55.1139C73.1975 55.1139 73.1634 55.1139 73.1406 55.1139C74.0176 54.7837 74.7807 54.1462 75.4982 53.4517C77.8672 51.8351 80.0426 49.8883 82.4913 48.4083C83.3911 47.8732 84.3022 47.3837 85.2476 46.9397C86.9901 46.1655 88.7783 45.5393 90.5892 44.9701C91.8421 44.6172 93.1063 44.3326 94.3933 44.1049C96.2498 43.7747 98.1746 43.4901 100.065 43.5812C101.922 43.6722 103.231 44.731 104.473 45.9833C105.737 48.1692 106.318 51.1178 107.047 53.1899C108.585 57.5844 108.801 62.0016 108.641 66.4872C108.573 68.4454 109.017 70.6085 107.787 72.3162C106.546 74.0239 104.37 74.7411 102.355 74.9347C101.705 74.9916 101.045 75.0371 100.396 75.0257C98.0265 75.0143 95.6689 74.6273 93.4024 73.9328C92.8329 73.762 92.2748 73.5685 91.7168 73.3863C89.5528 72.6577 87.4002 71.9405 85.3615 70.8703C84.8034 70.5743 84.2681 70.2669 83.7328 69.9368C83.1519 69.5725 82.5824 69.1854 82.0357 68.7641C79.7351 67.0337 77.6053 64.9844 75.9082 62.6619C74.9515 61.3413 74.0859 59.9068 73.3456 58.4382C73.3456 58.4041 73.3456 58.3813 73.3342 58.3585C73.2887 58.0625 73.2317 57.7779 73.1748 57.4819C73.7442 58.3585 74.2112 59.3262 74.7921 60.1915C75.6007 61.3755 76.751 62.2749 77.9128 63.1059C80.2476 64.7909 83.0608 66.0546 85.8626 66.7035C86.0562 66.749 86.2954 66.4417 86.0562 66.3506C83.3569 65.3373 80.7601 64.2103 78.3683 62.5936C77.218 61.8081 76.1588 60.9315 75.316 59.8158C74.5643 58.8253 73.9037 57.8462 73.0723 56.9354C73.0723 56.8785 73.0495 56.8216 73.0381 56.7647C73.9948 57.573 74.8832 58.4838 76.0335 59.0074C77.6736 59.7588 79.4276 60.0093 81.1929 60.2598C85.7715 60.9201 90.3386 59.6336 94.9286 59.645C94.9741 59.645 94.9969 59.5767 94.9514 59.5767L94.9286 59.5881Z" fill="url(#paint3_radial_1396_11746)"/>
<path d="M155.692 80.7635C156.17 81.3669 156.683 81.9816 157.013 82.6761C157.081 82.8127 157.081 83.0063 157.059 83.1998C154.724 86.0118 152.355 88.8125 149.633 91.2374C146.626 93.9014 143.289 96.167 139.883 98.2845C132.537 102.85 124.815 106.8 116.717 109.84C108.654 112.857 100.271 114.849 91.706 115.68C83.6537 116.466 75.5672 116.648 67.7882 114.132C67.8338 113.142 68.426 111.946 68.5741 111.013C68.7563 109.874 68.7107 108.713 68.6196 107.563C68.5399 106.595 68.2552 105.696 67.8565 104.819C67.6629 104.398 67.4123 104.022 67.1048 103.681C66.9909 103.578 66.8884 103.476 66.7859 103.374C66.7404 103.271 66.6948 103.191 66.6606 103.123C67.6971 103.294 68.7335 103.453 69.7814 103.578C70.5331 105.548 70.6014 107.722 71.3417 109.715C71.4214 109.954 71.8315 109.794 71.7973 109.578C71.5467 107.62 71.2278 105.514 70.5103 103.658C71.8656 103.806 73.221 103.92 74.5763 104C75.6127 105.423 75.7836 107.108 76.4214 108.713C76.5581 109.054 77.0478 108.77 77.0023 108.462C76.7631 106.96 76.2506 105.332 75.3736 104.034C77.4806 104.125 79.599 104.125 81.7061 104.045C83.4828 106.334 84.0181 109.259 84.6446 112.049C84.6901 112.242 85.009 112.106 84.9976 111.935C84.7585 109.146 84.1093 106.277 82.4122 104.022C84.9065 103.909 87.3894 103.669 89.8609 103.339C90.3848 103.863 90.8974 104.375 91.3188 105.024C91.8655 105.855 92.2641 106.766 92.8336 107.574C92.9816 107.791 93.4144 107.529 93.3119 107.301C92.6969 105.969 91.8655 104.273 90.6696 103.225C93.3803 102.838 96.0796 102.326 98.7447 101.711C99.0066 102.03 99.2914 102.326 99.5875 102.645C100.749 103.886 101.66 105.252 102.515 106.721C102.674 106.982 103.141 106.675 103.061 106.413C102.537 104.842 101.501 103.601 100.328 102.451C100.089 102.224 99.7925 101.882 99.4736 101.552C102.651 100.801 105.795 99.9012 108.881 98.8765C110.02 100.402 111.228 101.893 112.799 102.986C112.947 103.089 113.186 102.85 113.038 102.725C111.615 101.518 110.385 100.209 109.234 98.7627C111.683 97.943 114.109 97.055 116.478 96.1101C117.344 97.4534 118.779 98.5464 120.305 98.9562C120.555 99.0245 120.852 98.6375 120.544 98.5236C119.166 97.9999 117.879 97.1119 117.025 95.8937C119.918 94.7211 122.788 93.4688 125.635 92.1368C126.763 93.3436 128.665 93.6851 130.236 93.9014C130.396 93.9242 130.555 93.651 130.362 93.594C128.949 93.2183 127.173 92.9793 126.045 91.9433C128.722 90.6796 131.353 89.3475 133.949 87.9358C135.157 88.5506 139.302 88.8011 139.895 88.7783C140.271 88.7555 140.578 88.1408 140.077 88.1066C139.041 88.0269 137.993 87.8561 136.956 87.7195C136.728 87.6854 135.51 87.5943 134.713 87.526C136.569 86.5014 138.403 85.454 140.202 84.3496C145.214 81.2985 149.769 77.6896 154.063 73.7505C153.87 74.9345 154.166 76.8471 154.223 77.2342C154.439 78.6004 154.883 79.6592 155.737 80.7635H155.692Z" fill="url(#paint4_radial_1396_11746)"/>
<path d="M155.692 80.7635C156.17 81.3669 156.683 81.9816 157.013 82.6761C157.081 82.8127 157.081 83.0063 157.059 83.1998C154.724 86.0118 152.355 88.8125 149.633 91.2374C146.626 93.9014 143.289 96.167 139.883 98.2845C132.537 102.85 124.815 106.8 116.717 109.84C108.654 112.857 100.271 114.849 91.706 115.68C83.6537 116.466 75.5672 116.648 67.7882 114.132C67.8338 113.142 68.426 111.946 68.5741 111.013C68.7563 109.874 68.7107 108.713 68.6196 107.563C68.5399 106.595 68.2552 105.696 67.8565 104.819C67.6629 104.398 67.4123 104.022 67.1048 103.681C66.9909 103.578 66.8884 103.476 66.7859 103.374C66.7404 103.271 66.6948 103.191 66.6606 103.123C67.6971 103.294 68.7335 103.453 69.7814 103.578C70.5331 105.548 70.6014 107.722 71.3417 109.715C71.4214 109.954 71.8315 109.794 71.7973 109.578C71.5467 107.62 71.2278 105.514 70.5103 103.658C71.8656 103.806 73.221 103.92 74.5763 104C75.6127 105.423 75.7836 107.108 76.4214 108.713C76.5581 109.054 77.0478 108.77 77.0023 108.462C76.7631 106.96 76.2506 105.332 75.3736 104.034C77.4806 104.125 79.599 104.125 81.7061 104.045C83.4828 106.334 84.0181 109.259 84.6446 112.049C84.6901 112.242 85.009 112.106 84.9976 111.935C84.7585 109.146 84.1093 106.277 82.4122 104.022C84.9065 103.909 87.3894 103.669 89.8609 103.339C90.3848 103.863 90.8974 104.375 91.3188 105.024C91.8655 105.855 92.2641 106.766 92.8336 107.574C92.9816 107.791 93.4144 107.529 93.3119 107.301C92.6969 105.969 91.8655 104.273 90.6696 103.225C93.3803 102.838 96.0796 102.326 98.7447 101.711C99.0066 102.03 99.2914 102.326 99.5875 102.645C100.749 103.886 101.66 105.252 102.515 106.721C102.674 106.982 103.141 106.675 103.061 106.413C102.537 104.842 101.501 103.601 100.328 102.451C100.089 102.224 99.7925 101.882 99.4736 101.552C102.651 100.801 105.795 99.9012 108.881 98.8765C110.02 100.402 111.228 101.893 112.799 102.986C112.947 103.089 113.186 102.85 113.038 102.725C111.615 101.518 110.385 100.209 109.234 98.7627C111.683 97.943 114.109 97.055 116.478 96.1101C117.344 97.4534 118.779 98.5464 120.305 98.9562C120.555 99.0245 120.852 98.6375 120.544 98.5236C119.166 97.9999 117.879 97.1119 117.025 95.8937C119.918 94.7211 122.788 93.4688 125.635 92.1368C126.763 93.3436 128.665 93.6851 130.236 93.9014C130.396 93.9242 130.555 93.651 130.362 93.594C128.949 93.2183 127.173 92.9793 126.045 91.9433C128.722 90.6796 131.353 89.3475 133.949 87.9358C135.157 88.5506 139.302 88.8011 139.895 88.7783C140.271 88.7555 140.578 88.1408 140.077 88.1066C139.041 88.0269 137.993 87.8561 136.956 87.7195C136.728 87.6854 135.51 87.5943 134.713 87.526C136.569 86.5014 138.403 85.454 140.202 84.3496C145.214 81.2985 149.769 77.6896 154.063 73.7505C153.87 74.9345 154.166 76.8471 154.223 77.2342C154.439 78.6004 154.883 79.6592 155.737 80.7635H155.692Z" fill="url(#paint5_radial_1396_11746)"/>
<path d="M88.7443 45.505C88.7443 45.505 77.4119 58.3014 92.8673 74.0351L88.5279 72.3388C88.5279 72.3388 77.1271 63.3676 85.1453 47.042L88.7557 45.4937L88.7443 45.505Z" fill="url(#paint6_radial_1396_11746)"/>
<path d="M88.5283 72.3388C88.5283 72.3388 77.1275 63.3677 85.1456 47.042C85.1456 47.042 76.615 51.1519 73.3006 55.1251C69.9863 59.0984 73.2209 55.3528 73.2209 55.3528C73.2209 55.3528 72.1161 56.1611 73.1526 58.8138C74.1776 61.4664 80.6582 71.0182 88.5283 72.3388Z" fill="url(#paint7_radial_1396_11746)"/>
<path d="M67.9932 106.39C67.9932 106.39 113.46 112.048 154.063 76.2436C154.063 76.2436 153.778 73.978 154.132 72.8623C154.132 72.8623 148.312 82.5507 110.658 97.4191C92.0477 104.774 66.6265 103.123 66.6265 103.123L67.9932 106.39Z" fill="#FE4701"/>
<path d="M56.968 21.3809C56.968 21.3809 90.6124 12.6488 123.277 24.7166C123.277 24.7166 123.38 22.656 124.655 21.7793C124.655 21.7793 89.2001 7.70784 56.2847 18.6372L56.968 21.3809Z" fill="#FE4701"/>
<path d="M174.564 48.9773C171.466 50.5484 168.22 51.8007 165.236 51.0835C165.088 51.2201 164.883 51.2998 164.724 51.2201C158.835 48.5674 153.425 45.1293 148.255 41.2926C141.056 35.9532 134.018 30.591 125.863 26.7543C117.56 22.8494 108.824 20.5611 99.6899 19.73C90.5101 18.8989 81.0796 18.5801 71.8883 19.4226C67.287 19.8438 62.8337 20.7091 58.3463 21.7906C56.9909 22.1208 55.59 22.4282 54.2119 22.7925C54.2575 22.8266 54.303 22.8608 54.3372 22.8949C55.8634 24.0562 57.1959 25.4337 58.483 26.8454C61.1139 29.7258 63.6765 32.6402 65.6925 35.9987C67.5717 39.1295 69.1207 42.488 70.1913 45.9945C71.0227 48.7382 71.8428 51.5161 72.492 54.3281C74.2118 52.8026 76.0796 51.4819 77.9361 50.1158C80.0659 48.5447 82.1047 47.0305 84.4964 45.8579C88.5852 43.8542 93.0499 42.5108 97.5943 42.0668C100.761 41.7594 104.553 41.9871 105.578 45.5733C105.578 45.5733 105.578 45.596 105.578 45.6074C106.843 47.8161 107.48 50.685 108.175 52.6887C108.642 54.0435 109.007 55.4438 109.314 56.8441C109.861 59.3715 110.02 61.9445 110.009 64.5288C110.009 65.8153 109.963 67.1131 109.781 68.3768C109.576 69.6975 109.268 70.9839 108.608 72.1566C108.164 72.9649 107.48 73.6366 106.706 74.1489C105.59 74.9003 104.166 75.1963 102.856 75.424C101.808 75.6061 100.726 75.6744 99.6558 75.6858C95.9542 75.72 92.2526 75.0824 88.813 73.7163C82.4463 71.1775 76.3758 66.3959 73.574 59.9977C74.8268 68.0694 75.3735 76.016 74.2459 84.1902C73.3803 90.4404 71.6719 97.5445 67.23 102.315C71.0455 102.759 74.9293 102.861 78.7675 102.736C87.7766 102.451 96.7287 100.971 105.362 98.4097C114.063 95.8367 122.366 92.1139 130.43 88.0041C138.243 84.0308 145.373 79.4086 152.013 73.6821C158.209 68.3313 164.405 62.5251 167.81 54.9201C168.106 54.2712 169.211 54.4875 168.869 55.2617C168.573 55.9333 168.243 56.5937 167.901 57.2426C170.168 56.366 173.368 56.9124 175.35 57.5614C175.578 57.6297 175.384 57.9257 175.202 57.9143C173.118 57.7549 169.587 56.9011 167.468 58.0509C166.842 59.1666 166.159 60.2481 165.43 61.3069C167.81 61.4891 169.86 62.3999 171.535 63.7888C176.386 60.0888 177.685 52.3813 174.553 49.0114L174.564 48.9773Z" fill="url(#paint8_radial_1396_11746)"/>
<path d="M174.564 48.9773C171.466 50.5484 168.22 51.8007 165.236 51.0835C165.088 51.2201 164.883 51.2998 164.724 51.2201C158.835 48.5674 153.425 45.1293 148.255 41.2926C141.056 35.9532 134.018 30.591 125.863 26.7543C117.56 22.8494 108.824 20.5611 99.6899 19.73C90.5101 18.8989 81.0796 18.5801 71.8883 19.4226C67.287 19.8438 62.8337 20.7091 58.3463 21.7906C56.9909 22.1208 55.59 22.4282 54.2119 22.7925C54.2575 22.8266 54.303 22.8608 54.3372 22.8949C55.8634 24.0562 57.1959 25.4337 58.483 26.8454C61.1139 29.7258 63.6765 32.6402 65.6925 35.9987C67.5717 39.1295 69.1207 42.488 70.1913 45.9945C71.0227 48.7382 71.8428 51.5161 72.492 54.3281C74.2118 52.8026 76.0796 51.4819 77.9361 50.1158C80.0659 48.5447 82.1047 47.0305 84.4964 45.8579C88.5852 43.8542 93.0499 42.5108 97.5943 42.0668C100.761 41.7594 104.553 41.9871 105.578 45.5733C105.578 45.5733 105.578 45.596 105.578 45.6074C106.843 47.8161 107.48 50.685 108.175 52.6887C108.642 54.0435 109.007 55.4438 109.314 56.8441C109.861 59.3715 110.02 61.9445 110.009 64.5288C110.009 65.8153 109.963 67.1131 109.781 68.3768C109.576 69.6975 109.268 70.9839 108.608 72.1566C108.164 72.9649 107.48 73.6366 106.706 74.1489C105.59 74.9003 104.166 75.1963 102.856 75.424C101.808 75.6061 100.726 75.6744 99.6558 75.6858C95.9542 75.72 92.2526 75.0824 88.813 73.7163C82.4463 71.1775 76.3758 66.3959 73.574 59.9977C74.8268 68.0694 75.3735 76.016 74.2459 84.1902C73.3803 90.4404 71.6719 97.5445 67.23 102.315C71.0455 102.759 74.9293 102.861 78.7675 102.736C87.7766 102.451 96.7287 100.971 105.362 98.4097C114.063 95.8367 122.366 92.1139 130.43 88.0041C138.243 84.0308 145.373 79.4086 152.013 73.6821C158.209 68.3313 164.405 62.5251 167.81 54.9201C168.106 54.2712 169.211 54.4875 168.869 55.2617C168.573 55.9333 168.243 56.5937 167.901 57.2426C170.168 56.366 173.368 56.9124 175.35 57.5614C175.578 57.6297 175.384 57.9257 175.202 57.9143C173.118 57.7549 169.587 56.9011 167.468 58.0509C166.842 59.1666 166.159 60.2481 165.43 61.3069C167.81 61.4891 169.86 62.3999 171.535 63.7888C176.386 60.0888 177.685 52.3813 174.553 49.0114L174.564 48.9773Z" fill="url(#paint9_radial_1396_11746)"/>
<path d="M170.555 64.4261C170.726 64.3237 170.885 64.2212 171.045 64.1187C169.325 62.7184 167.32 61.967 165.054 61.8418C164.53 62.5818 163.972 63.299 163.402 64.0163C163.995 64.187 164.519 64.688 164.94 65.0864C165.669 65.7809 166.455 66.6575 167.001 67.6025C167.844 66.464 168.983 65.3597 170.555 64.4375V64.4261Z" fill="url(#paint10_radial_1396_11746)"/>
<path d="M170.555 64.4261C170.726 64.3237 170.885 64.2212 171.045 64.1187C169.325 62.7184 167.32 61.967 165.054 61.8418C164.53 62.5818 163.972 63.299 163.402 64.0163C163.995 64.187 164.519 64.688 164.94 65.0864C165.669 65.7809 166.455 66.6575 167.001 67.6025C167.844 66.464 168.983 65.3597 170.555 64.4375V64.4261Z" fill="url(#paint11_radial_1396_11746)"/>
<path d="M173.004 30.2036C170.817 23.5663 170.578 16.4167 175.566 9.55176C172.685 12.3524 170.578 15.8589 169.655 19.946C168.152 26.6174 168.323 33.6076 165.931 40.0855C164.872 42.9773 163.106 46.7342 159.997 47.5198C160.498 47.8158 161.011 48.1118 161.523 48.3964C167.605 49.6715 170.908 41.7591 172.548 37.1028C172.605 36.932 173.015 36.7954 172.981 37.0686C172.309 41.964 168.573 48.829 163.209 49.3185C163.892 49.6942 164.587 50.0585 165.293 50.4115C165.373 50.457 165.43 50.5139 165.441 50.5936C168.368 51.1401 171.398 50.1155 174.348 48.7607C173.915 48.3395 173.402 47.9979 172.799 47.7475C172.799 47.7475 175.35 37.3532 172.992 30.1922L173.004 30.2036Z" fill="url(#paint12_radial_1396_11746)"/>
<path d="M173.004 30.2036C170.817 23.5663 170.578 16.4167 175.566 9.55176C172.685 12.3524 170.578 15.8589 169.655 19.946C168.152 26.6174 168.323 33.6076 165.931 40.0855C164.872 42.9773 163.106 46.7342 159.997 47.5198C160.498 47.8158 161.011 48.1118 161.523 48.3964C167.605 49.6715 170.908 41.7591 172.548 37.1028C172.605 36.932 173.015 36.7954 172.981 37.0686C172.309 41.964 168.573 48.829 163.209 49.3185C163.892 49.6942 164.587 50.0585 165.293 50.4115C165.373 50.457 165.43 50.5139 165.441 50.5936C168.368 51.1401 171.398 50.1155 174.348 48.7607C173.915 48.3395 173.402 47.9979 172.799 47.7475C172.799 47.7475 175.35 37.3532 172.992 30.1922L173.004 30.2036Z" fill="url(#paint13_radial_1396_11746)"/>
<path d="M165.031 66.3047C164.575 65.7354 163.801 64.6425 162.969 64.54C162.138 65.5533 161.272 66.5438 160.373 67.5001C162.707 67.5001 164.04 70.4032 164.826 73.2152C164.974 71.9059 165.407 70.073 166.546 68.2628C166.09 67.5684 165.521 66.9081 165.031 66.3047Z" fill="url(#paint14_radial_1396_11746)"/>
<path d="M165.031 66.3047C164.575 65.7354 163.801 64.6425 162.969 64.54C162.138 65.5533 161.272 66.5438 160.373 67.5001C162.707 67.5001 164.04 70.4032 164.826 73.2152C164.974 71.9059 165.407 70.073 166.546 68.2628C166.09 67.5684 165.521 66.9081 165.031 66.3047Z" fill="url(#paint15_radial_1396_11746)"/>
<path d="M172.696 94.0378C176.136 97.1344 180.566 98.8535 185.167 99.104C184.94 99.047 184.7 98.9901 184.473 98.9218C180.475 97.7719 176.819 95.2559 174.564 91.7153C174.416 91.4876 174.803 91.1119 175.008 91.3168C177.867 94.0264 180.725 96.7132 184.621 97.8175C188.482 98.899 192.206 98.6258 195.771 97.0319C195.361 97.123 194.962 97.2255 194.564 97.2938C193.607 97.4304 192.776 97.4987 191.807 97.3507C189.473 96.975 187.286 95.3925 185.566 93.8556C182.229 90.8842 180.999 87.1956 181.443 82.7897C181.466 82.4937 182.012 82.3001 182.012 82.6758C182.012 87.1956 183.186 90.8842 186.91 93.6848C188.88 95.1648 191.227 96.827 193.835 96.4399C194.097 96.4058 194.381 96.3602 194.666 96.3033C192.035 95.5405 189.598 93.571 188.402 91.3624C186.5 87.8559 188.026 83.6094 189.473 80.2281C191.409 75.6856 193.687 71.4733 193.242 66.3502C192.787 61.0563 190.053 56.5252 185.748 53.4399C185.725 53.4171 185.703 53.3944 185.68 53.3716C184.29 53.7359 182.855 54.0091 181.432 54.2254C180.931 54.3051 181.01 53.6107 181.432 53.5651C184.735 53.1667 188.356 52.6544 191.056 50.5482C193.937 48.3054 195.463 44.8558 195.714 41.2469C196.09 36.0441 195.122 30.8868 194.359 25.7751C193.163 17.7716 191.671 7.33183 199.108 2.16317C198.778 2.12902 198.447 2.10625 198.117 2.08348C196.898 2.67548 195.532 3.6318 195.201 3.89365C193.186 5.46474 191.853 7.60506 190.725 9.87062C190.566 10.1894 189.871 10.178 190.042 9.74539C191.181 6.75121 192.981 4.08719 195.794 2.4364C195.953 2.34533 196.204 2.19733 196.5 2.03794C195.6 2.06071 194.7 2.16317 193.766 2.40225C191.694 2.93733 189.689 3.73426 187.855 4.83858C184.37 6.95613 181.386 9.67708 179.04 13.0356C178.96 13.1494 178.721 13.1153 178.812 12.9673C181.033 9.51769 183.994 6.3869 187.639 4.41734C190.543 2.84625 194.006 1.75332 197.411 1.4687C191.955 0.501004 185.68 3.00564 181.101 5.49889C179.051 6.61459 177.183 7.96937 175.566 9.55185C170.577 16.4168 170.817 23.5664 173.003 30.2037C175.361 37.3647 172.81 47.7589 172.81 47.7589C173.402 48.0094 173.915 48.3509 174.359 48.7722C176.944 47.5882 179.45 46.1651 181.739 45.3454C181.762 45.3454 181.762 45.3681 181.739 45.3681C179.609 46.1651 177.138 47.6792 174.564 48.9771C177.696 52.3583 176.397 60.0658 171.546 63.7544C173.858 65.6671 175.486 68.5019 176.341 71.5985C176.398 71.8034 176.067 71.9742 175.965 71.7579C174.849 69.3443 173.858 66.8852 171.967 64.9498C171.671 64.6424 171.363 64.3692 171.044 64.1074C170.885 64.2098 170.726 64.3237 170.555 64.4148C168.994 65.3369 167.844 66.4412 167.001 67.5797C167.252 68.0123 167.457 68.4563 167.571 68.9003C167.65 69.1849 167.183 69.424 167.047 69.128C166.91 68.832 166.728 68.536 166.534 68.2514C165.395 70.0616 164.974 71.8945 164.814 73.2038C165.293 74.9228 165.555 76.6078 165.714 77.5755C166.705 83.6663 167.89 89.6888 172.696 94.015V94.0378Z" fill="url(#paint16_radial_1396_11746)"/>
<path d="M171.922 13.1496C171.922 13.1496 168.095 20.8912 169.666 30.8983C171.238 40.9055 168.391 47.2582 167.115 48.6471C166.033 49.8197 167.218 50.0247 170.259 50.4117C173.3 50.7988 172.32 57.4703 170.156 60.7035C168.004 63.9368 162.206 67.466 163.391 70.8017C163.391 70.8017 164.666 73.2495 164.769 75.1166C164.769 75.1166 164.086 68.2516 170.555 64.4263C177.024 60.6011 178.3 50.0133 172.81 47.7591C172.81 47.7591 175.361 37.3649 173.004 30.2039C170.646 23.0429 170.555 15.3013 176.83 7.94678C176.83 7.94678 172.81 11.0776 171.922 13.1382V13.1496Z" fill="#FE2401"/>
<path style="mix-blend-mode:screen" d="M72.6626 55.3072L73.1751 55.9902C73.1751 55.9902 78.0498 52.2674 84.1887 49.1822C84.4393 48.5788 84.8265 47.7249 85.2252 46.8711C77.3437 50.5825 72.6626 55.3072 72.6626 55.3072Z" fill="url(#paint17_radial_1396_11746)"/>
<path style="mix-blend-mode:screen" d="M94.4276 43.6377C92.3092 44.1386 90.316 44.7761 88.4595 45.482C88.0267 46.2562 87.5712 47.0759 87.1953 47.7703C92.1839 45.63 97.5711 44.2866 101.694 45.7894C106.011 47.3605 107.093 51.0833 107.093 51.0833C107.093 51.0833 107.776 40.4955 94.439 43.6263L94.4276 43.6377Z" fill="url(#paint18_radial_1396_11746)"/>
<path style="mix-blend-mode:screen" d="M85.2137 46.8714C84.8151 47.7252 84.4278 48.5677 84.1772 49.1825C85.1567 48.6929 86.1704 48.2147 87.1954 47.7707C87.5713 47.0649 88.0269 46.2566 88.4597 45.4824C87.3207 45.915 86.2387 46.3932 85.2137 46.8714Z" fill="url(#paint19_radial_1396_11746)"/>
<path style="mix-blend-mode:multiply" d="M68.7331 99.332C68.7331 99.332 125.532 104.774 167.753 55.6489C167.753 55.6489 159.37 74.0352 127.878 90.3609C112.605 98.2847 90.6236 104.136 66.3755 103.009L68.7331 99.332Z" fill="url(#paint20_radial_1396_11746)"/>
<path style="mix-blend-mode:multiply" d="M68.5853 111.537C68.5853 111.537 82.4007 117.81 108.904 110.216C145.828 99.6281 155.692 80.7637 155.692 80.7637C155.692 80.7637 159.667 81.8338 156.58 85.0671C153.494 88.3003 141.147 104.034 109.496 112.721C81.1023 120.519 67.2642 114.781 67.2642 114.781L68.5853 111.548V111.537Z" fill="url(#paint21_radial_1396_11746)"/>
<path style="mix-blend-mode:multiply" d="M164.222 72.2702C164.222 72.2702 165.851 72.7939 169.222 84.9186C173.197 99.1836 192.468 95.2104 192.468 95.2104C192.468 95.2104 194.381 96.383 196.443 96.383C196.443 96.383 189.199 103.977 175.987 96.087C163.186 88.4365 167.161 78.7367 164.222 72.2588V72.2702Z" fill="url(#paint22_radial_1396_11746)"/>
<path style="mix-blend-mode:multiply" d="M73.0269 56.7759C73.0269 56.7759 79.0177 71.5418 99.7806 71.5418C106.99 71.5418 108.459 66.988 108.756 64.4833C108.756 64.4833 112.799 78.4865 94.3365 74.4791C73.3002 69.9252 73.0269 56.7759 73.0269 56.7759Z" fill="url(#paint23_radial_1396_11746)"/>
<path style="mix-blend-mode:multiply" d="M8.30078 63.9482C8.30078 63.9482 29.1548 97.2713 68.7331 99.3319L65.6466 103.009C65.6466 103.009 28.2095 103.715 8.31217 63.9482H8.30078Z" fill="url(#paint24_radial_1396_11746)"/>
<path style="mix-blend-mode:screen" d="M5.16846 47.7593C5.16846 47.7593 8.50556 50.6054 13.9953 47.5657C19.485 44.526 19.69 41.2928 25.0772 39.4257L25.5669 36.8755C25.5669 36.8755 20.6581 37.957 18.3119 41.1903C15.9656 44.4236 9.29143 49.1368 5.16846 47.7593Z" fill="url(#paint25_radial_1396_11746)"/>
<path style="mix-blend-mode:screen" d="M48.5283 27.6535C48.5283 27.6535 53.4372 25.6954 56.2276 25.2058L53.141 22.2686C53.141 22.2686 47.3552 24.5227 47.0591 26.2874L48.5283 27.6649V27.6535Z" fill="url(#paint26_radial_1396_11746)"/>
<g style="mix-blend-mode:screen">
<path d="M52.549 12.5578C52.549 12.5578 62.8451 4.90726 87.5715 5.79527C112.287 6.67189 125.236 19.9123 125.236 19.9123L127.002 17.8517C127.002 17.8517 111.99 3.88264 85.0659 3.14263C58.1412 2.40263 50.1914 10.9412 50.1914 10.9412L52.549 12.5578Z" fill="#FE6001"/>
</g>
<path style="mix-blend-mode:screen" d="M167.457 33.2893C167.457 33.2893 168.778 24.3182 173.049 15.051C177.32 5.78386 194.677 1.6626 198.504 3.29061L200.566 2.11799C200.566 2.11799 196.887 -1.85527 183.937 3.58662C170.987 9.02851 168.493 17.9997 167.457 33.3007V33.2893Z" fill="url(#paint27_radial_1396_11746)"/>
<path d="M201.169 1.30965C195.509 -1.49098 188.789 0.729034 183.379 3.11982C177.889 5.54476 173.311 9.2448 170.555 14.6298C167.149 21.2898 167.912 29.1908 166.363 36.3404C165.555 40.0518 163.869 46.5069 159.484 47.2242C153.983 43.9454 148.812 40.1543 143.778 36.181C137.776 31.445 130.976 27.4489 123.904 24.432C124.336 22.0526 125.601 19.8667 127.32 18.1818C127.525 17.9883 127.56 17.7833 127.503 17.6239C127.662 17.3507 127.673 17.0319 127.377 16.8156C116.09 8.2771 101.876 3.89398 87.8787 2.8352C81.0337 2.31151 74.0747 2.72136 67.3436 4.07614C61.4552 5.26015 55.0088 7.13862 49.9063 10.4743C49.8836 10.4743 49.8608 10.4743 49.838 10.4743C49.6444 10.6793 49.4508 10.8842 49.2571 11.1005C49.9291 11.3282 50.5328 11.6811 51.0794 12.1251C54.0179 13.9125 55.5783 17.6239 56.4439 20.8117C56.478 20.9141 56.535 20.971 56.6147 20.9938C56.5122 21.0166 56.4097 21.0394 56.3072 21.0735C55.2252 21.3354 54.1204 21.6086 53.0384 21.9387C52.7879 21.8135 52.5487 21.7566 52.3665 21.8477C52.207 21.9274 52.0817 22.0867 52.0817 22.2461C50.4644 22.804 48.9268 23.5326 47.5943 24.6142C45.4189 22.3714 42.4918 21.5858 39.1661 22.0867C39.0522 22.0981 38.9497 22.1551 38.8472 22.2234C33.1297 22.4624 28.7334 27.8133 26.6263 32.7201C26.1821 33.7561 25.8063 34.8376 25.4988 35.9419C25.4418 35.9419 25.3735 35.9647 25.3052 35.9989C23.927 36.5339 22.5945 37.1032 21.3188 37.8546C19.9293 38.6743 18.7562 39.9721 17.5945 41.0878C15.0433 43.5469 12.4009 46.8599 8.52851 46.8826C6.15951 46.894 3.84745 45.3685 1.60374 46.6891C0.134498 47.5429 -0.0591224 49.615 -0.00217519 51.1291C0.214224 56.5141 3.48299 60.7947 7.85654 63.6637C7.81098 65.1209 8.94992 66.7148 9.64468 67.8419C11.0114 70.0391 12.5945 72.1908 14.0866 74.3084C18.0956 80.0007 22.902 84.9076 28.255 89.3248C38.3688 97.6698 51.9223 104.421 65.339 103.055C65.396 103.055 65.4529 103.021 65.4985 102.986C65.5326 103.043 65.5896 103.089 65.6579 103.123C65.6807 103.305 65.806 103.453 65.9427 103.624C66.6374 104.512 67.1955 105.343 67.5827 106.425C67.9928 107.575 67.97 108.884 67.9358 110.091C67.9016 111.149 67.6966 113.415 66.7741 114.155C66.4324 114.428 66.2616 115.009 66.7741 115.202C70.4187 116.568 74.2342 116.853 78.0952 116.967C82.1271 117.092 86.1931 116.842 90.2136 116.557C98.5278 115.942 106.603 114.36 114.519 111.707C122.685 108.975 130.555 105.275 137.981 100.937C144.815 96.9412 151.489 92.3532 156.352 86.0119C156.682 85.5793 156.967 85.1011 157.229 84.6002C157.297 84.5774 157.354 84.5433 157.388 84.4863C157.844 83.9057 158.459 83.0291 158.06 82.2549C157.502 81.1734 156.363 80.3195 155.657 79.3177C154.871 78.202 154.701 76.6195 154.564 75.3103C154.507 74.7866 154.518 74.2629 154.541 73.7392C154.541 73.5342 154.644 73.3293 154.678 73.1244C156.238 71.6785 157.764 70.1758 159.256 68.6502C159.439 68.468 159.609 68.2859 159.792 68.1037C162.013 68.0354 163.174 70.893 163.835 72.7259C165.019 76.0161 165.076 79.7389 165.794 83.1543C166.899 88.4482 169.689 93.059 174.176 96.1215C177.958 98.7058 182.593 99.7874 187.126 99.6621C187.889 99.6394 188.652 99.5825 189.416 99.5028C190.828 99.4344 192.206 99.1612 193.561 98.7172C193.721 98.6717 193.88 98.6375 194.028 98.592C196.169 97.9772 198.618 97.1461 200.315 95.6433C200.646 95.3473 200.486 94.8123 200.008 95.0172C199.985 95.0172 199.951 95.0399 199.928 95.0513C199.814 94.9375 199.632 94.9033 199.381 95.0286C196.898 96.2581 193.812 95.1652 191.648 93.7307C189.678 92.4215 188.436 90.4747 188.208 88.118C187.798 83.826 190.452 79.5795 192.138 75.8112C193.869 71.9176 194.495 67.8191 193.63 63.6068C192.753 59.3261 190.031 55.683 186.557 53.1215C190.338 51.983 193.652 49.9793 195.236 45.8466C197.206 40.7235 196.682 34.7124 196.101 29.3502C195.19 20.9369 191.204 7.28663 200.862 2.36843C201.158 2.22043 201.659 1.56012 201.147 1.30965H201.169ZM50.9428 10.8842C53.1979 9.75711 55.4416 8.60725 57.8106 7.69648C60.8971 6.51247 64.0976 5.64723 67.3322 4.9983C73.9836 3.67767 80.8059 3.46136 87.5484 3.99644C101.147 5.07799 115.099 9.59772 126.079 17.8403C124.564 19.5935 123.334 21.7224 122.867 23.9994C122.286 23.7603 121.705 23.5326 121.124 23.3049C119.029 22.4966 116.899 21.8021 114.746 21.2101C114.906 20.8913 115.054 20.5726 115.191 20.2538C115.27 20.083 115.054 20.0147 114.94 20.1286C114.678 20.4246 114.462 20.7434 114.245 21.0735C111.831 20.4246 109.405 19.8895 106.945 19.4569C107.639 18.4209 108.357 17.4873 108.721 16.2464C108.778 16.0642 108.516 16.0756 108.448 16.2009C107.799 17.3507 106.797 18.2501 106.022 19.3089C103.243 18.8421 100.43 18.5006 97.6053 18.2615C98.8126 16.9636 99.234 14.1516 99.2226 12.8537C99.2226 12.7627 99.0973 12.7968 99.0745 12.8537C98.7898 14.0036 98.4595 15.1079 97.9356 16.1781C97.6736 16.7132 97.4117 17.2596 97.0472 17.7492C96.8878 17.9655 96.6941 18.0679 96.5005 18.159C96.0563 18.1249 95.6121 18.0907 95.168 18.0566C92.6851 17.8858 90.1908 17.7606 87.6965 17.6922C88.9038 16.0756 88.9721 12.979 88.9379 11.3624C88.9379 11.2485 88.7671 11.2827 88.7557 11.3737C88.5735 12.6488 88.4824 13.9353 88.1293 15.1762C87.8673 16.1098 87.2637 16.8498 86.8423 17.6695C84.2569 17.6126 81.6715 17.6239 79.0861 17.715C79.8492 16.6335 79.8606 14.9485 79.8036 13.7304C79.6897 11.4762 79.2227 9.21064 78.4483 7.09309C78.4255 7.04755 78.3571 7.09309 78.3685 7.12724C78.8583 8.85772 79.0861 10.7362 79.1886 12.535C79.2797 14.2199 79.2341 16.5993 77.8218 17.7606C76.102 17.8403 74.3822 17.9427 72.6624 18.0907C73.0269 16.9522 72.913 15.5747 72.6966 14.4818C72.2638 12.3187 71.2843 9.49526 69.6442 7.93555C69.5873 7.87863 69.4848 7.98109 69.519 8.0494C70.6579 9.92788 71.5918 11.7153 71.9791 13.9011C72.2069 15.1648 72.2182 16.8953 71.6943 18.1932C70.4529 18.307 69.2114 18.455 67.9814 18.6144C67.3549 18.6941 66.7399 18.7966 66.1135 18.899C67.3777 16.3375 65.7149 13.3433 64.462 11.0663C64.4393 11.0322 64.3823 11.0663 64.3937 11.1119C65.0998 13.3547 66.3755 16.8498 65.0429 19.047C65.0315 19.0698 65.0201 19.0812 65.0201 19.104C63.5851 19.3658 62.15 19.6732 60.7263 20.0033C60.9085 18.9332 59.9177 17.4987 59.576 16.7245C58.8698 15.1421 58.084 13.0359 56.8767 11.7608C56.7969 11.6697 56.6261 11.795 56.6944 11.8974C57.4348 13.0473 58.1181 14.2199 58.7332 15.4267C59.2115 16.3602 59.5532 17.2255 59.7354 18.2501C59.8038 18.6258 60.2366 19.6163 60.1227 20.1513C59.0748 20.4018 58.0156 20.6523 56.9678 20.9141C57.1045 20.823 57.1956 20.6637 57.1614 20.5043C56.2616 16.8498 54.4621 12.6488 50.9314 10.8956L50.9428 10.8842ZM27.435 34.109C29.2687 28.8948 33.6308 23.2594 39.6786 23.396C39.8836 23.4074 40.1 23.4188 40.305 23.4301C43.6877 23.7717 46.182 26.1739 47.7537 29.0997C45.977 28.4394 43.8927 29.0314 42.1843 29.9194C38.3233 31.9231 35.8404 37.1259 34.6673 41.0878C33.4486 45.2091 33.9611 50.4119 38.2436 52.4839C42.6057 54.5901 46.5351 51.9147 48.5852 48.0439C48.9724 47.3266 49.3027 46.5752 49.6102 45.8011C48.4599 49.5808 46.387 53.0759 43.4941 55.831C43.3802 55.9449 43.3346 56.0587 43.3346 56.1726C41.6604 56.6279 40.0886 57.368 38.8586 58.3926C36.3985 58.643 34.0636 58.8138 31.7174 57.8347C29.2345 56.7873 27.8792 54.3738 27.0022 51.9602C24.9862 46.4272 25.4988 39.585 27.4236 34.109H27.435ZM46.3984 33.1185C44.7014 34.8718 44.3027 37.9912 44.6444 40.325C44.9519 42.4198 46.9906 44.1275 48.8585 42.8297C48.6193 43.9909 48.3232 45.1294 47.9246 46.2451C47.1957 48.3057 45.8859 50.5144 43.8244 51.4593C41.7401 52.4156 38.8814 51.5845 37.2299 50.15C33.3461 46.7688 35.4987 39.8241 37.5716 36.0899C38.6877 34.0635 40.4645 32.1053 42.5032 30.9896C43.8585 30.261 45.4872 29.7828 47.002 30.2382C47.9132 30.5114 48.551 31.2401 48.9952 32.0711C49.0066 32.1167 49.018 32.1622 49.0407 32.2078C48.1296 32.0711 46.9906 32.5265 46.4098 33.1413L46.3984 33.1185ZM49.7013 35.5093C49.7013 35.5093 49.7013 35.5207 49.7013 35.5321C49.6672 36.625 49.5647 37.7293 49.4622 38.7653C49.4166 39.2093 49.371 39.6533 49.3141 40.086C49.1432 40.7804 48.8585 41.4521 48.289 41.8848C47.2868 42.6361 46.4098 41.4521 46.1023 40.6666C45.5556 39.3004 45.7948 37.5358 46.0795 36.1355C46.2731 35.2247 46.6148 34.2342 47.3323 33.6195C48.8699 32.3102 49.5647 34.3595 49.7013 35.5093ZM65.8971 102.155C65.7832 102.19 65.6693 102.292 65.5896 102.394C65.5554 102.372 65.5099 102.349 65.4415 102.349C62.2183 102.19 58.9951 102.155 55.7947 101.666C52.4234 101.142 49.2002 100.072 46.0339 98.8311C40.1 96.4972 34.5306 93.3209 29.3598 89.6094C24.0751 85.8183 19.5535 80.9912 15.6241 75.8339C13.9613 73.6481 12.5945 71.2687 11.0911 68.9804C10.4989 68.081 9.91802 67.1816 9.38272 66.248C9.04104 65.656 8.49434 64.7794 8.30072 63.9597C14.2688 67.6825 21.5125 68.5819 28.255 66.6579C29.6217 68.2517 31.6149 69.3333 33.7561 69.413C34.1889 69.4244 34.4964 68.7299 33.9611 68.673C30.2937 68.2745 26.9908 65.3145 26.9338 61.4892C26.9338 61.1249 26.3758 61.2957 26.3644 61.6031C26.3302 63.1742 26.8427 64.6883 27.7197 65.9634C21.2391 67.2954 15.0433 66.6237 9.24605 63.1969C4.71305 60.5101 1.5354 56.2523 1.20511 50.9128C1.07982 48.9774 1.56957 47.1217 3.84745 47.3039C5.16863 47.4063 6.44425 47.8845 7.7882 47.9756C9.13215 48.0666 10.4192 47.7137 11.615 47.1331C13.9613 46.0174 15.7608 44.0023 17.5376 42.1694C18.7448 40.9284 19.9293 39.9949 21.4783 39.2435C22.7084 38.6515 23.9156 38.0253 25.1115 37.3764C23.9954 42.3515 24.2345 47.7137 25.9202 52.4498C26.82 54.9658 28.4714 57.2655 30.8746 58.5292C32.9589 59.6221 35.567 59.736 37.9019 59.3603C36.6946 60.7606 36.0454 62.548 36.3415 64.7111C36.3985 65.0982 36.9224 64.916 36.9338 64.5972C37.3666 57.1061 45.3164 55.7627 51.3072 57.0492C51.6831 57.1289 52.1387 56.5596 51.6717 56.3775C49.7013 55.6261 47.1843 55.4781 44.7583 55.8993C49.9405 51.1633 52.3323 43.6721 52.0134 36.7844C51.8425 33.0047 50.8744 29.4527 48.8243 26.2535C48.5852 25.8779 48.3232 25.5363 48.0612 25.2062C49.5988 24.284 51.2845 23.6465 53.0157 23.1341C53.6535 23.7489 54.5874 24.6483 54.6899 24.7394C56.1705 26.0942 57.4803 27.6425 58.8243 29.1225C61.1933 31.7296 63.3231 34.5075 65.1112 37.5586C68.8811 44.0023 70.7832 51.539 72.5485 58.7227C74.4506 66.4871 74.7467 74.7866 73.7103 82.6989C73.2205 86.4331 72.2069 90.1331 70.9198 93.6624C69.7809 96.7704 68.2433 99.8329 65.8743 102.19L65.8971 102.155ZM94.9288 59.588C90.9197 59.44 86.9676 60.2938 82.9699 60.0547C81.0337 59.9409 79.0177 59.5538 77.2182 58.791C75.6806 58.1421 74.5303 56.9126 73.1636 55.9904C76.9107 57.0264 80.5781 57.0264 84.291 55.7399C88.6076 54.2599 92.5028 52.279 97.1269 51.9033C97.2181 51.9033 97.2636 51.7325 97.1497 51.7325C93.3001 51.7325 89.6441 53.4972 86.0336 54.6242C82.2751 55.7969 78.266 56.0132 74.405 55.3415C81.9904 53.8045 87.5712 47.1559 95.4983 46.5866C95.5666 46.5866 95.6235 46.45 95.5324 46.4614C87.2523 46.7119 81.364 54.0322 73.3002 55.1252C73.2775 55.1252 73.2433 55.1252 73.2205 55.1138C73.1977 55.1138 73.1636 55.1138 73.1408 55.1138C74.0178 54.7836 74.7809 54.1461 75.4984 53.4516C77.8674 51.835 80.0428 49.8882 82.4915 48.4082C83.3913 47.8731 84.3024 47.3836 85.2478 46.9396C86.9903 46.1654 88.7785 45.5392 90.6008 44.97C91.8536 44.6171 93.1179 44.3325 94.4049 44.1048C96.2613 43.7746 98.1862 43.49 100.077 43.5811C101.933 43.6721 103.243 44.7309 104.496 45.9832C105.76 48.1691 106.341 51.1064 107.07 53.1898C108.607 57.5843 108.824 62.0015 108.664 66.4871C108.596 68.4453 109.04 70.6084 107.81 72.3161C106.569 74.0238 104.393 74.741 102.377 74.9346C101.728 74.9915 101.068 75.037 100.418 75.0256C98.0495 75.0143 95.6919 74.6272 93.4254 73.9327C92.8559 73.7619 92.2978 73.5798 91.7397 73.3862C89.5758 72.6576 87.4231 71.9404 85.3844 70.8702C84.8264 70.5856 84.291 70.2668 83.7557 69.9367C83.1749 69.5724 82.6054 69.1853 82.0587 68.764C79.7581 67.0336 77.6282 64.9843 75.9312 62.6618C74.9745 61.3412 74.1089 59.9067 73.3686 58.4381C73.3686 58.4153 73.3686 58.3812 73.3572 58.3584C73.3116 58.0624 73.2547 57.7664 73.1977 57.4818C73.7672 58.3584 74.2342 59.3261 74.815 60.18C75.6237 61.364 76.774 62.2634 77.9243 63.0945C80.2592 64.7794 83.0724 66.0431 85.8742 66.692C86.0678 66.7376 86.3184 66.4302 86.0678 66.3391C83.3685 65.3259 80.7717 64.1988 78.3799 62.5821C77.2296 61.7966 76.1704 60.92 75.3276 59.8043C74.5759 58.8138 73.9153 57.8347 73.0838 56.924C73.0838 56.867 73.0611 56.8101 73.0497 56.7532C74.0064 57.5615 74.8948 58.4609 76.0451 58.996C77.6852 59.7474 79.4391 59.9978 81.2045 60.2483C85.7831 60.9086 90.3502 59.6221 94.9402 59.6335C94.9857 59.6335 95.0085 59.5652 94.9629 59.5652L94.9288 59.588ZM155.691 80.7635C156.17 81.3669 156.671 81.9817 157.013 82.6762C157.081 82.8128 157.081 83.0063 157.058 83.1999C154.723 86.0119 152.354 88.8125 149.632 91.2375C146.637 93.9015 143.288 96.167 139.883 98.2846C132.537 102.85 124.815 106.8 116.717 109.84C108.653 112.868 100.27 114.849 91.7056 115.68C83.6532 116.466 75.5667 116.648 67.7878 114.132C67.8333 113.142 68.4256 111.946 68.5736 111.013C68.7559 109.874 68.7103 108.713 68.6192 107.563C68.5395 106.595 68.2547 105.696 67.8561 104.819C67.6625 104.387 67.4119 104.022 67.1044 103.681C67.0019 103.578 66.888 103.476 66.7855 103.374C66.7399 103.271 66.6944 103.191 66.6602 103.123C67.6966 103.305 68.7331 103.453 69.7809 103.578C70.5326 105.548 70.6009 107.723 71.3413 109.726C71.4324 109.965 71.831 109.806 71.7968 109.59C71.5463 107.643 71.2274 105.525 70.5098 103.67C71.8652 103.818 73.2205 103.931 74.5759 104C75.6123 105.423 75.7831 107.108 76.4209 108.724C76.5576 109.066 77.0474 108.781 76.9904 108.474C76.7512 106.971 76.2387 105.332 75.3617 104.045C77.4688 104.136 79.5758 104.136 81.6943 104.057C83.471 106.345 84.0063 109.271 84.6327 112.06C84.6783 112.254 84.9972 112.117 84.9858 111.946C84.7466 109.157 84.086 106.288 82.4004 104.034C84.8947 103.92 87.3776 103.681 89.8491 103.351C90.373 103.874 90.8855 104.387 91.3069 105.036C91.8536 105.867 92.2523 106.778 92.8217 107.586C92.9698 107.802 93.4026 107.54 93.3001 107.313C92.6851 105.981 91.8536 104.284 90.6577 103.237C93.3684 102.85 96.0677 102.338 98.7442 101.723C99.0062 102.053 99.2909 102.338 99.5757 102.656C100.737 103.897 101.649 105.263 102.503 106.732C102.662 107.005 103.129 106.687 103.049 106.425C102.526 104.854 101.489 103.613 100.316 102.463C100.077 102.235 99.7807 101.894 99.4618 101.563C102.639 100.812 105.783 99.9126 108.869 98.8994C110.008 100.425 111.216 101.916 112.787 103.009C112.935 103.112 113.175 102.873 113.027 102.747C111.603 101.541 110.373 100.231 109.223 98.7855C111.671 97.9772 114.097 97.0892 116.466 96.1329C117.332 97.4763 118.767 98.5692 120.293 98.9791C120.544 99.0474 120.84 98.6603 120.532 98.5464C119.154 98.0227 117.867 97.1347 117.013 95.9166C119.906 94.7439 122.776 93.4916 125.623 92.1596C126.751 93.3664 128.653 93.7079 130.225 93.9242C130.384 93.947 130.544 93.6738 130.35 93.6169C128.938 93.2412 127.161 93.0021 126.045 91.9661C128.71 90.7024 131.352 89.3704 133.949 87.9587C135.156 88.5734 139.302 88.8239 139.894 88.8011C140.27 88.7897 140.578 88.1636 140.077 88.1294C139.04 88.0497 137.992 87.879 136.956 87.7424C136.728 87.7082 135.509 87.6171 134.701 87.5488C136.557 86.5356 138.391 85.4768 140.19 84.3725C145.202 81.3214 149.758 77.7124 154.051 73.7733C153.858 74.9573 154.154 76.87 154.211 77.257C154.427 78.6232 154.871 79.6934 155.726 80.7863L155.691 80.7635ZM194.37 25.764C195.133 30.8871 196.09 36.033 195.725 41.2358C195.475 44.8448 193.96 48.283 191.067 50.5371C188.368 52.6433 184.734 53.1442 181.443 53.5541C181.022 53.611 180.942 54.2941 181.443 54.2144C182.867 53.9867 184.313 53.7248 185.691 53.3605C185.703 53.3833 185.725 53.4061 185.76 53.4288C190.053 56.5141 192.787 61.0452 193.242 66.3505C193.687 71.4736 191.42 75.686 189.472 80.2284C188.037 83.5983 186.5 87.8562 188.402 91.3627C189.598 93.5713 192.035 95.5409 194.666 96.3036C194.381 96.3492 194.097 96.3947 193.835 96.4403C191.226 96.816 188.88 95.1652 186.91 93.6852C183.186 90.8845 182.012 87.1959 182.012 82.6762C182.012 82.3005 181.477 82.494 181.443 82.79C180.999 87.1959 182.217 90.8959 185.566 93.8673C187.297 95.4043 189.473 96.9867 191.807 97.3624C192.764 97.5218 193.607 97.4535 194.564 97.3055C194.962 97.2486 195.361 97.1461 195.771 97.055C192.206 98.6375 188.482 98.9221 184.621 97.8406C180.725 96.7477 177.867 94.0495 175.008 91.3399C174.803 91.1464 174.416 91.5107 174.564 91.7384C176.819 95.279 180.463 97.7837 184.473 98.9449C184.7 99.0132 184.939 99.0701 185.167 99.1271C180.566 98.8766 176.135 97.1575 172.696 94.0609C167.89 89.7347 166.705 83.7122 165.714 77.6213C165.304 75.0712 164.142 67.5345 160.372 67.5231C161.272 66.5668 162.138 65.5763 162.969 64.5631C163.789 64.6656 164.564 65.7585 165.019 66.3277C165.703 67.193 166.568 68.1607 167.047 69.1625C167.183 69.4585 167.65 69.2194 167.571 68.9348C167.172 67.489 165.987 66.1114 164.928 65.0982C164.507 64.6997 163.983 64.1874 163.391 64.028C163.96 63.3222 164.518 62.5935 165.042 61.8535C167.719 62.0015 170.053 63.0148 171.956 64.9729C173.846 66.9083 174.826 69.3674 175.953 71.781C176.056 71.9859 176.386 71.8265 176.329 71.6216C174.848 66.2822 171.113 61.7283 165.441 61.2957C166.17 60.2369 166.853 59.1553 167.479 58.0396C169.609 56.9012 173.14 57.7436 175.224 57.9144C175.395 57.9258 175.589 57.6298 175.372 57.5615C173.391 56.9126 170.19 56.3661 167.924 57.2427C168.265 56.5938 168.584 55.9335 168.892 55.2618C169.233 54.4876 168.129 54.2713 167.833 54.9202C164.427 62.5138 158.231 68.32 152.035 73.6822C145.407 79.4087 138.266 84.0309 130.464 88.0042C122.389 92.1141 114.086 95.8255 105.396 98.4098C96.7625 100.971 87.799 102.451 78.8013 102.736C74.9631 102.861 71.0793 102.759 67.2638 102.315C71.7057 97.5446 73.4141 90.4405 74.2797 84.1903C75.4187 76.0161 74.872 68.081 73.6077 59.9978C76.4209 66.4074 82.4801 71.1776 88.8468 73.7164C92.2864 75.0939 95.988 75.7201 99.6896 75.6973C100.749 75.6973 101.831 75.6063 102.89 75.4355C104.2 75.2078 105.623 74.9118 106.74 74.1718C107.503 73.6595 108.186 72.9878 108.642 72.1795C109.291 71.0068 109.61 69.7204 109.815 68.4111C110.008 67.136 110.043 65.8496 110.043 64.5631C110.065 61.9788 109.895 59.4172 109.348 56.8784C109.052 55.4781 108.676 54.0778 108.209 52.723C107.525 50.7079 106.888 47.8503 105.612 45.6417C105.612 45.6417 105.612 45.6189 105.612 45.6076C104.587 42.01 100.794 41.7937 97.6281 42.1011C93.0837 42.5451 88.6304 43.8885 84.5302 45.8922C82.1384 47.0648 80.0997 48.579 77.9699 50.15C76.1134 51.5162 74.2342 52.8368 72.5258 54.3624C71.8652 51.5618 71.0565 48.7725 70.2251 46.0402C69.1545 42.5451 67.6055 39.1752 65.7263 36.0444C63.7103 32.6859 61.1477 29.7714 58.5168 26.8911C57.2297 25.4794 55.8858 24.1018 54.371 22.9406C54.3368 22.9064 54.2913 22.8723 54.2457 22.8381C55.6238 22.4738 57.0133 22.1664 58.3801 21.8363C62.8675 20.7547 67.3208 19.9009 71.9221 19.4683C81.102 18.6258 90.5438 18.9446 99.7237 19.7757C108.858 20.6067 117.594 22.8951 125.897 26.8C134.063 30.6367 141.102 35.9989 148.288 41.3383C153.47 45.1863 158.869 48.6245 164.757 51.2657C164.917 51.3454 165.122 51.2658 165.27 51.1291C170.714 52.4384 177.058 47.1559 181.773 45.414C181.785 45.414 181.773 45.3912 181.773 45.3912C176.887 47.1445 170.987 51.6642 165.486 50.651C165.464 50.5827 165.418 50.5144 165.338 50.4688C164.632 50.1159 163.949 49.7516 163.254 49.3759C168.607 48.8863 172.354 42.01 173.026 37.1259C173.06 36.8527 172.65 36.9893 172.593 37.1601C170.965 41.8051 167.65 49.7174 161.58 48.4537C161.067 48.1691 160.566 47.8731 160.054 47.5771C163.163 46.7802 164.928 43.0346 165.987 40.1429C168.379 33.665 168.197 26.6748 169.712 20.0033C171.158 13.6165 175.486 8.65279 181.158 5.55615C185.737 3.0629 192.012 0.558263 197.479 1.52596C194.085 1.81058 190.611 2.90351 187.707 4.4746C184.063 6.44416 181.101 9.57495 178.88 13.0245C178.778 13.1725 179.017 13.2181 179.108 13.0928C181.454 9.73434 184.427 7.01339 187.924 4.89584C189.757 3.79152 191.762 2.99459 193.835 2.45951C194.78 2.22043 195.68 2.11797 196.568 2.0952C196.272 2.25458 196.021 2.40259 195.862 2.49366C193.049 4.14445 191.249 6.80847 190.11 9.80265C189.951 10.2353 190.634 10.2466 190.794 9.92788C191.921 7.66232 193.254 5.522 195.27 3.95091C195.589 3.70044 196.955 2.73274 198.185 2.14074C198.516 2.16351 198.835 2.18628 199.176 2.22043C191.728 7.38909 193.231 17.8289 194.427 25.8323L194.37 25.764Z" fill="black"/>
<defs>
<radialGradient id="paint0_radial_1396_11746" cx="0" cy="0" r="1" gradientUnits="userSpaceOnUse" gradientTransform="translate(89.5075 3.59931) scale(51.5828 29.9056)">
<stop stop-color="#FF7E00"/>
<stop offset="0.17" stop-color="#FF7900"/>
<stop offset="0.35" stop-color="#FF6C00"/>
<stop offset="0.54" stop-color="#FF5600"/>
<stop offset="0.73" stop-color="#FF3800"/>
<stop offset="0.92" stop-color="#FF1100"/>
<stop offset="1" stop-color="#FF0000"/>
</radialGradient>
<radialGradient id="paint1_radial_1396_11746" cx="0" cy="0" r="1" gradientUnits="userSpaceOnUse" gradientTransform="translate(42.0593 40.9509) scale(9.15711 9.15331)">
<stop stop-color="#5A5B5D"/>
<stop offset="1" stop-color="#231F20"/>
</radialGradient>
<radialGradient id="paint2_radial_1396_11746" cx="0" cy="0" r="1" gradientUnits="userSpaceOnUse" gradientTransform="translate(29.5306 36.4767) scale(66.7649 66.7372)">
<stop stop-color="#FFFF84"/>
<stop offset="0.9" stop-color="#F7D31A"/>
<stop offset="1" stop-color="#F9D503"/>
</radialGradient>
<radialGradient id="paint3_radial_1396_11746" cx="0" cy="0" r="1" gradientUnits="userSpaceOnUse" gradientTransform="translate(96.2953 42.6248) scale(28.3483 28.3365)">
<stop stop-color="#FF7E00"/>
<stop offset="1" stop-color="#FF0000"/>
</radialGradient>
<radialGradient id="paint4_radial_1396_11746" cx="0" cy="0" r="1" gradientUnits="userSpaceOnUse" gradientTransform="translate(104.996 111.085) rotate(-17.1733) scale(74.9626 39.7165)">
<stop stop-color="#FF0000"/>
<stop offset="0.14" stop-color="#FF0800"/>
<stop offset="0.37" stop-color="#FF2000"/>
<stop offset="0.66" stop-color="#FF4700"/>
<stop offset="1" stop-color="#FF7E00"/>
</radialGradient>
<radialGradient id="paint5_radial_1396_11746" cx="0" cy="0" r="1" gradientUnits="userSpaceOnUse" gradientTransform="translate(104.996 111.085) rotate(-17.1733) scale(74.9626 39.7165)">
<stop stop-color="#FF0000"/>
<stop offset="0.14" stop-color="#FF0800"/>
<stop offset="0.37" stop-color="#FF2000"/>
<stop offset="0.66" stop-color="#FF4700"/>
<stop offset="1" stop-color="#FF7E00"/>
</radialGradient>
<radialGradient id="paint6_radial_1396_11746" cx="0" cy="0" r="1" gradientUnits="userSpaceOnUse" gradientTransform="translate(87.0473 44.6512) scale(32.4713 32.4578)">
<stop stop-color="#FFFF84"/>
<stop offset="0.9" stop-color="#F7D31A"/>
<stop offset="1" stop-color="#F9D503"/>
</radialGradient>
<radialGradient id="paint7_radial_1396_11746" cx="0" cy="0" r="1" gradientUnits="userSpaceOnUse" gradientTransform="translate(89.337 56.1498) scale(15.8883 15.8817)">
<stop stop-color="#00ACED"/>
<stop offset="1" stop-color="#0054A4"/>
</radialGradient>
<radialGradient id="paint8_radial_1396_11746" cx="0" cy="0" r="1" gradientUnits="userSpaceOnUse" gradientTransform="translate(108.101 46.2808) rotate(1.08955) scale(95.8421 70.8937)">
<stop stop-color="#00BAF2"/>
<stop offset="1" stop-color="#0054A4"/>
</radialGradient>
<radialGradient id="paint9_radial_1396_11746" cx="0" cy="0" r="1" gradientUnits="userSpaceOnUse" gradientTransform="translate(108.101 46.2808) rotate(1.08955) scale(95.8421 70.8937)">
<stop stop-color="#00BAF2"/>
<stop offset="1" stop-color="#0054A4"/>
</radialGradient>
<radialGradient id="paint10_radial_1396_11746" cx="0" cy="0" r="1" gradientUnits="userSpaceOnUse" gradientTransform="translate(108.63 44.8413) rotate(1.08955) scale(95.842 70.8937)">
<stop stop-color="#00ACED"/>
<stop offset="1" stop-color="#0054A4"/>
</radialGradient>
<radialGradient id="paint11_radial_1396_11746" cx="0" cy="0" r="1" gradientUnits="userSpaceOnUse" gradientTransform="translate(108.63 44.8413) rotate(1.08955) scale(95.842 70.8937)">
<stop stop-color="#00ACED"/>
<stop offset="1" stop-color="#0054A4"/>
</radialGradient>
<radialGradient id="paint12_radial_1396_11746" cx="0" cy="0" r="1" gradientUnits="userSpaceOnUse" gradientTransform="translate(110.764 44.6712) rotate(1.08955) scale(95.8535 70.9021)">
<stop stop-color="#00ACED"/>
<stop offset="1" stop-color="#0054A4"/>
</radialGradient>
<radialGradient id="paint13_radial_1396_11746" cx="0" cy="0" r="1" gradientUnits="userSpaceOnUse" gradientTransform="translate(110.764 44.6712) rotate(1.08955) scale(95.8535 70.9021)">
<stop stop-color="#00ACED"/>
<stop offset="1" stop-color="#0054A4"/>
</radialGradient>
<radialGradient id="paint14_radial_1396_11746" cx="0" cy="0" r="1" gradientUnits="userSpaceOnUse" gradientTransform="translate(108.596 44.8408) rotate(1.08955) scale(95.8307 70.8853)">
<stop stop-color="#00ACED"/>
<stop offset="1" stop-color="#0054A4"/>
</radialGradient>
<radialGradient id="paint15_radial_1396_11746" cx="0" cy="0" r="1" gradientUnits="userSpaceOnUse" gradientTransform="translate(108.596 44.8408) rotate(1.08955) scale(95.8307 70.8853)">
<stop stop-color="#00ACED"/>
<stop offset="1" stop-color="#0054A4"/>
</radialGradient>
<radialGradient id="paint16_radial_1396_11746" cx="0" cy="0" r="1" gradientUnits="userSpaceOnUse" gradientTransform="translate(188.607 -2.65256) scale(83.9857 83.9508)">
<stop stop-color="#FF7E00"/>
<stop offset="1" stop-color="#FF0000"/>
</radialGradient>
<radialGradient id="paint17_radial_1396_11746" cx="0" cy="0" r="1" gradientUnits="userSpaceOnUse" gradientTransform="translate(78.9382 51.4364) scale(5.48971 5.48743)">
<stop stop-color="#00ACED"/>
<stop offset="1" stop-color="#0054A4"/>
</radialGradient>
<radialGradient id="paint18_radial_1396_11746" cx="0" cy="0" r="1" gradientUnits="userSpaceOnUse" gradientTransform="translate(98.6189 47.0759) scale(22.7333 22.7239)">
<stop stop-color="#FF7E00"/>
<stop offset="1" stop-color="#FF0000"/>
</radialGradient>
<radialGradient id="paint19_radial_1396_11746" cx="0" cy="0" r="1" gradientUnits="userSpaceOnUse" gradientTransform="translate(86.3185 47.3381) scale(2.00454 2.00371)">
<stop stop-color="#FFFF84"/>
<stop offset="0.9" stop-color="#F7D31A"/>
<stop offset="1" stop-color="#F9D503"/>
</radialGradient>
<radialGradient id="paint20_radial_1396_11746" cx="0" cy="0" r="1" gradientUnits="userSpaceOnUse" gradientTransform="translate(124.564 79.3974) scale(119.475 119.426)">
<stop stop-color="#00ACED"/>
<stop offset="1" stop-color="#0054A4"/>
</radialGradient>
<radialGradient id="paint21_radial_1396_11746" cx="0" cy="0" r="1" gradientUnits="userSpaceOnUse" gradientTransform="translate(77.5602 56.5712) scale(103.154 103.111)">
<stop stop-color="#FF7E00"/>
<stop offset="1" stop-color="#C6161D"/>
</radialGradient>
<radialGradient id="paint22_radial_1396_11746" cx="0" cy="0" r="1" gradientUnits="userSpaceOnUse" gradientTransform="translate(188.334 74.4105) scale(24.772 24.7617)">
<stop stop-color="#FF7E00"/>
<stop offset="1" stop-color="#C6161D"/>
</radialGradient>
<radialGradient id="paint23_radial_1396_11746" cx="0" cy="0" r="1" gradientUnits="userSpaceOnUse" gradientTransform="translate(77.1384 44.4121) scale(45.6716 45.6527)">
<stop stop-color="#FF7E00"/>
<stop offset="1" stop-color="#C6161D"/>
</radialGradient>
<radialGradient id="paint24_radial_1396_11746" cx="0" cy="0" r="1" gradientUnits="userSpaceOnUse" gradientTransform="translate(65.4985 23.1796) scale(78.3365 78.304)">
<stop stop-color="#FFFF84"/>
<stop offset="0.9" stop-color="#F7D31A"/>
<stop offset="1" stop-color="#F9D503"/>
</radialGradient>
<radialGradient id="paint25_radial_1396_11746" cx="0" cy="0" r="1" gradientUnits="userSpaceOnUse" gradientTransform="translate(15.3734 42.9208) scale(40.9906 40.9736)">
<stop stop-color="#FFFF84"/>
<stop offset="0.9" stop-color="#F7D31A"/>
<stop offset="1" stop-color="#F9D503"/>
</radialGradient>
<radialGradient id="paint26_radial_1396_11746" cx="0" cy="0" r="1" gradientUnits="userSpaceOnUse" gradientTransform="translate(51.6376 24.9553) scale(18.3825 18.3749)">
<stop stop-color="#FFFF84"/>
<stop offset="0.9" stop-color="#F7D31A"/>
<stop offset="1" stop-color="#F9D503"/>
</radialGradient>
<radialGradient id="paint27_radial_1396_11746" cx="0" cy="0" r="1" gradientUnits="userSpaceOnUse" gradientTransform="translate(180.907 6.18233) scale(61.8902 61.8645)">
<stop stop-color="#FF7E00"/>
<stop offset="1" stop-color="#FF0000"/>
</radialGradient>
</defs>
</svg>
