<svg width="173" height="222" viewBox="0 0 173 222" fill="none" xmlns="http://www.w3.org/2000/svg">
<g clip-path="url(#clip0_1396_10859)">
<path d="M165.808 189.684C168.291 188.929 168.739 195.057 168.593 196.588C168.358 199.077 166.562 200.905 164.212 200.71C163.862 200.679 163.498 200.604 163.125 200.479C162.491 200.266 161.933 199.951 161.427 199.561C159.906 198.385 158.891 196.544 158.035 194.875C156.98 192.825 156.062 190.713 155.246 188.565C156.355 191.312 157.862 194.032 161.205 193.335C162.026 193.162 162.709 192.674 163.285 192.093C164.065 191.303 164.682 190.025 165.808 189.684Z" fill="#6B39FE"/>
<path d="M161.205 193.336C157.862 194.032 156.355 191.312 155.246 188.565L156.137 187.927C157.428 189.963 159.17 192.004 161.064 191.552C162.944 191.095 163.689 188.583 165.542 187.958C170.579 186.267 170.575 196.615 169.267 199.193C168.114 201.46 166.118 202.219 164.097 201.97L164.212 200.71C166.562 200.905 168.358 199.077 168.593 196.588C168.739 195.057 168.291 188.929 165.808 189.684C164.682 190.025 164.065 191.303 163.285 192.093C162.709 192.674 162.026 193.162 161.205 193.336Z" fill="black"/>
<path d="M164.212 200.71L164.096 201.97C162.806 201.811 161.502 201.243 160.407 200.395L161.427 199.561C161.933 199.952 162.491 200.267 163.125 200.48C163.498 200.604 163.861 200.679 164.212 200.71Z" fill="black"/>
<path d="M152.111 137.151C154.669 138.912 158.079 139.605 161.037 139.152C162.376 138.948 164.123 138.136 165.165 139.401C166.14 140.581 165.608 142.334 164.699 143.367C162.234 146.181 158.115 144.357 155.946 142.187C154.465 140.701 153.259 138.93 152.111 137.151Z" fill="#6B39FE"/>
<path d="M149.606 199.135C150.027 199.623 150.426 200.129 150.794 200.657C152.067 202.485 152.688 205.826 149.557 205.888C148.586 205.906 147.615 205.578 146.741 205.174C145.855 204.766 143.553 203.066 145.3 202.454C146.267 202.117 147.114 202.516 148.076 201.93C148.741 201.526 149.287 200.874 149.504 200.12C149.601 199.787 149.628 199.459 149.606 199.135Z" fill="#6B39FE"/>
<path d="M142.618 212.482C144.094 213.543 150.231 217.168 147.713 219.555C145.336 221.814 141.172 217.403 139.678 215.859C137.598 213.702 135.834 211.257 134.357 208.653C131.976 204.451 130.331 200 129.027 195.43C130.881 199.348 133.155 203.04 136.024 206.336C138.006 208.617 140.166 210.716 142.618 212.482Z" fill="#6B39FE"/>
<path d="M146.245 185.219C146.453 185.739 147.007 186.87 146.404 187.323C145.97 187.642 145.251 187.283 144.91 187.017C144.005 186.298 143.411 185.06 142.848 184.075C140.955 180.756 139.695 177.153 138.693 173.479C139.984 175.764 141.438 177.951 143.03 180.055C144.258 181.679 145.486 183.307 146.245 185.219Z" fill="#6B39FE"/>
<path d="M152.111 137.151C153.259 138.93 154.465 140.7 155.946 142.187C158.115 144.357 162.234 146.18 164.699 143.367C165.608 142.333 166.14 140.581 165.165 139.4C164.123 138.136 162.376 138.948 161.037 139.152C158.079 139.604 154.669 138.912 152.111 137.151ZM151.441 137.519C149.947 135.291 145.07 128.276 144.24 127.003C143.243 125.467 142.316 123.883 141.456 122.264C141.225 121.824 140.99 121.381 140.764 120.937L141.877 120.382C143.079 122.588 144.276 124.797 145.646 126.896C150.16 133.809 155.175 137.537 158.815 137.683C161.564 137.794 165.081 135.487 166.779 138.797C167.905 140.989 166.774 143.66 164.81 144.938C162.629 146.354 159.782 145.826 157.649 144.592C154.873 142.99 153.18 140.106 151.441 137.519Z" fill="black"/>
<path d="M134.924 106.241C133.093 101.946 131.452 97.5796 129.719 93.24C129.683 93.1468 129.643 93.0536 129.608 92.9604C130.366 92.0464 130.991 91.0169 131.435 89.8677C132.237 95.4142 133.364 100.876 134.924 106.241Z" fill="#6B39FE"/>
<path d="M138.113 110.967C139.106 113.82 140.117 116.682 141.363 119.438C141.536 119.753 141.705 120.068 141.877 120.383L140.764 120.937C140.077 119.602 139.417 118.257 138.791 116.895C137.714 114.894 136.672 112.875 135.679 110.829C133 105.318 130.5 99.4833 129.178 93.4575L129.719 93.2401C131.453 97.5797 133.094 101.946 134.925 106.241C133.364 100.877 132.238 95.4143 131.435 89.8678L131.794 89.7568C133.949 96.8076 135.687 104 138.113 110.967Z" fill="black"/>
<path d="M127.591 83.5355C130.291 84.0103 128.58 88.7892 127.724 90.1381C126.19 92.5565 123.915 94.1494 121.312 95.272C120.111 95.7868 118.878 96.2083 117.627 96.5899C118.674 95.9021 119.609 95.0591 120.412 94.0562C121.968 92.1039 122.563 89.7787 123.387 87.4714C123.981 85.803 125.347 83.1406 127.591 83.5355Z" fill="#B33DFF"/>
<path d="M127.63 37.3086C127.666 38.835 127.559 40.3703 127.271 41.9322C126.633 45.3799 125.351 48.7123 123.609 51.7474C120.367 57.3916 115.76 62.0906 111.357 66.834C110.972 65.6848 110.657 64.5134 110.435 63.3064C110.351 62.8405 110.284 62.3702 110.231 61.9043C110.103 60.7151 110.076 59.517 110.138 58.3145C110.16 57.9329 110.196 57.5513 110.236 57.1697C111.171 56.1536 111.916 55.0265 112.253 53.7309C112.413 53.1274 112.497 52.5106 112.515 51.8894C117.973 47.5675 125.001 44.071 127.63 37.3086Z" fill="#B33DFF"/>
<path d="M122.988 97.5708C124.864 102.004 125.241 106.885 125.981 111.624C126.207 113.057 126.478 114.521 126.815 115.972C125.782 114.304 124.731 112.649 123.693 110.993C121.325 107.226 118.918 103.206 116.04 99.7184C117.76 99.2614 119.49 98.8088 121.179 98.2453C121.787 98.0456 122.39 97.8193 122.988 97.5708Z" fill="#6B39FE"/>
<path d="M120.505 127.451C118.146 123.733 115.601 120.13 112.878 116.669C110.515 113.664 108.023 110.576 105.23 107.918C105.043 107.741 104.857 107.563 104.667 107.39C105.345 105.873 106.059 104.373 106.968 103.011C107.487 102.722 108.014 102.456 108.551 102.208C108.56 102.225 108.568 102.239 108.577 102.256C110.466 105.624 112.559 108.886 114.297 112.347C116.435 116.593 118.603 120.831 120.585 125.153C121.862 127.944 123.05 130.77 124.207 133.61C123.024 131.524 121.791 129.474 120.505 127.451Z" fill="#6B39FE"/>
<path d="M116.62 132.98C117.569 134.719 118.483 136.481 119.352 138.26C117.702 135.78 115.836 133.446 113.729 131.334C111.025 128.623 108.014 126.244 105.265 123.582C103.952 122.308 102.662 120.982 101.522 119.548C100.609 118.404 99.904 117.183 99.2256 115.923C100.6 115.089 101.545 113.687 102.347 112.276C102.423 112.143 102.494 112.01 102.564 111.876C107.619 118.67 112.546 125.539 116.62 132.98Z" fill="#6B39FE"/>
<path d="M120.957 209.101C119.68 206.141 118.563 203.093 117.658 199.996C117.259 198.616 116.887 197.231 116.532 195.838C118.049 198.9 119.995 201.726 122.359 204.304C124.172 206.283 126.105 208.244 127.444 210.596C128.11 211.763 128.682 213.054 128.877 214.394C129.147 216.267 127.498 217.114 125.862 216.484C123.254 215.482 121.968 211.439 120.957 209.101Z" fill="#6B39FE"/>
<path d="M117.658 199.995C118.563 203.093 119.68 206.141 120.957 209.101C121.968 211.439 123.254 215.481 125.861 216.484C127.497 217.114 129.147 216.267 128.876 214.394C128.681 213.054 128.109 211.763 127.444 210.596C126.105 208.244 124.172 206.283 122.358 204.304C119.995 201.726 118.048 198.899 116.532 195.838C116.887 197.231 117.259 198.616 117.658 199.995ZM80.412 110.487C80.953 117.294 82.2433 124.127 84.5889 130.539C85.1698 132.132 85.8304 133.699 86.5887 135.216C87.3469 136.734 88.3091 138.145 89.0452 139.662C89.8211 141.264 90.8809 142.666 92.0293 144.02C93.1245 145.306 100.476 154.216 102.516 157.141C106.564 162.061 109.837 167.661 111.969 173.66C113.193 177.095 114 180.636 114.843 184.177C115.672 187.66 116.767 190.992 117.844 194.4C119.711 200.288 125.382 203.878 128.624 208.919C129.896 210.902 131.532 214.048 130.544 216.44C129.661 218.574 126.801 219.067 124.899 218.117C122.283 216.813 121.117 213.565 120.07 211.04C118.816 208.018 117.805 204.903 116.927 201.757C115.144 195.385 113.65 188.938 111.872 182.562C110.036 175.99 107.868 169.432 104.493 163.472C103.988 162.576 103.451 161.693 102.906 160.819C101.753 159.213 94.5212 149.366 92.2155 146.522C91.8253 146.039 91.4263 145.555 91.0316 145.067C90.3621 144.299 89.7236 143.5 89.1028 142.711C82.1103 134.16 74.8384 124.86 73.6899 113.718L74.1333 113.593C75.8493 120.094 78.7758 126.275 82.5226 131.848C82.7266 132.15 82.9306 132.447 83.139 132.745C82.9616 132.314 82.7931 131.884 82.6246 131.462C80.0129 124.78 79.1838 117.702 79.1705 110.58L80.412 110.487Z" fill="black"/>
<path d="M138.694 173.479C139.696 177.153 140.955 180.756 142.848 184.075C143.411 185.06 144.006 186.298 144.91 187.017C145.252 187.283 145.97 187.643 146.404 187.323C147.007 186.87 146.453 185.739 146.245 185.22C145.487 183.307 144.258 181.679 143.03 180.055C141.438 177.952 139.984 175.764 138.694 173.479ZM114.297 112.347C112.559 108.886 110.466 105.624 108.577 102.257L109.061 101.981C111.353 105.119 113.308 108.58 115.33 111.859C117.836 115.919 119.991 120.161 122.013 124.483C124.434 129.661 126.566 135.057 128.42 140.466C129.856 144.654 131.856 148.692 133.248 152.957C136.135 161.796 138.294 171.109 144.023 178.653C145.371 180.428 146.821 182.22 147.677 184.306C148.2 185.588 148.781 187.523 147.375 188.468C146.134 189.302 144.635 188.716 143.722 187.705C139.687 183.232 138.303 176.709 136.698 171.078C134.805 164.422 132.889 157.758 130.464 151.27C127.44 143.19 123.764 135.389 119.184 128.072C116.829 124.319 114.275 120.684 111.548 117.197C109.202 114.193 106.613 111.402 104.183 108.478L105.23 107.918C108.023 110.576 110.515 113.665 112.878 116.669C115.601 120.13 118.146 123.733 120.505 127.451C121.791 129.475 123.023 131.525 124.207 133.61C123.05 130.77 121.862 127.944 120.585 125.153C118.603 120.831 116.434 116.593 114.297 112.347Z" fill="black"/>
<path d="M109.345 63.0312C109.677 66.2748 110.59 69.5495 112.142 72.4293C113.552 75.0472 115.397 77.4123 117.57 79.4312C118.656 80.4429 119.813 81.3659 121.05 82.1868C121.463 82.4574 121.955 82.7947 122.483 83.0787C122.022 83.6555 121.64 84.3033 121.325 84.9955C120.292 87.2852 120.102 89.9298 118.656 92.033C115.734 96.2839 110.036 95.818 106.64 99.4832C103.744 102.607 102.778 106.933 101.017 110.701C99.9487 112.99 98.0598 115.333 95.2397 114.375C92.6014 113.478 91.2756 110.74 90.2381 108.362C88.389 104.116 86.6332 99.0306 81.9552 97.1447C79.583 96.1907 76.4569 96.9761 74.3374 95.4896C72.4973 94.2028 72.1958 91.4606 70.9542 89.6946C69.4422 87.5381 66.9325 86.9967 64.445 86.9124C63.1104 86.8681 61.6649 86.8814 60.441 86.2779C59.5454 85.8386 58.8758 84.9512 58.7295 83.9972C64.7687 82.8213 70.8035 80.3986 75.0513 75.8814C75.8229 75.065 76.5279 74.1642 77.1354 73.2013C77.6807 73.3034 78.2261 73.3744 78.7671 73.4188C78.7228 73.9335 78.7361 74.4571 78.7361 74.9141C78.7272 76.3296 78.8513 77.7495 79.1218 79.1339C79.6495 81.8762 80.6471 84.4941 82.4075 86.6728C82.5228 86.8104 82.7312 86.664 82.6646 86.5086C81.6182 84.0682 80.7003 81.5567 80.3722 78.9076C80.217 77.6297 80.186 76.3385 80.2835 75.0561C80.319 74.5636 80.4387 74.0222 80.5141 73.4809C82.3144 73.4543 84.088 73.157 85.8261 72.6733C85.8483 74.1908 86.6154 75.8238 87.2672 77.0972C88.2383 78.9786 89.4976 80.7003 90.7613 82.3909C93.6346 86.2335 96.5877 90.9415 95.6388 95.96C95.621 96.031 95.7496 96.062 95.7673 95.9866C96.7783 91.7269 94.8539 87.8354 92.6369 84.3166C91.382 82.3243 90.1139 80.3098 89.0808 78.1932C88.5265 77.0617 88.0565 75.9036 87.7372 74.6834C87.52 73.8802 87.4668 73.0238 87.2584 72.2207C88.2427 71.8879 89.2093 71.4886 90.1627 71.0581C90.2159 71.6927 90.3799 72.3272 90.544 72.8242C91.147 74.6612 92.3575 76.1787 93.741 77.501C95.1643 78.8677 96.7473 80.1057 97.8957 81.7386C99.2437 83.6599 99.9443 86.0427 99.9753 88.3767C99.9753 88.5054 100.162 88.5276 100.179 88.3945C100.689 84.7604 99.4343 81.6099 97 78.9343C95.7319 77.5454 94.2731 76.2897 93.2089 74.7233C92.6369 73.8847 92.1624 72.9218 91.9673 71.919C91.8521 71.3421 91.954 70.752 91.9939 70.1796C93.4882 69.4119 94.9382 68.5644 96.3349 67.6992C97.1685 67.18 97.9888 66.6475 98.8047 66.0973C99.1372 66.6165 99.4122 67.1756 99.6339 67.8367C100.179 69.4519 100.618 71.0892 101.217 72.6866C102.45 75.9613 104.117 78.9476 106.223 81.7386C106.289 81.8318 106.445 81.7297 106.391 81.6277C104.671 78.1089 103.101 74.4349 101.948 70.6899C101.478 69.1723 101.146 66.8206 100.179 65.1566C100.906 64.6508 101.62 64.136 102.334 63.608C102.356 63.6524 102.387 63.6923 102.427 63.7367C103.381 64.8016 104.432 65.7068 105.278 66.8738C106.156 68.0896 106.888 69.4119 107.522 70.7742C108.733 73.3788 109.562 76.1521 110.719 78.7745C110.825 79.0141 111.162 78.8766 111.14 78.6414C110.852 75.5398 109.965 72.5979 108.648 69.7625C107.491 67.2687 105.837 64.3357 103.549 62.6895C104.103 62.2635 104.658 61.8331 105.199 61.3983C106.383 60.4442 107.797 59.4503 109.061 58.3232C109.039 59.5657 109.127 60.8214 109.243 61.9973C109.274 62.3523 109.309 62.6939 109.345 63.0312Z" fill="#5B14B2"/>
<path d="M103.975 189.049C102.552 190.003 100.534 190.176 98.9289 189.67C96.805 189.005 95.12 187.376 93.7987 185.646C93.2888 184.98 91.5063 182.624 93.4395 182.735C94.4638 182.788 95.6034 183.884 96.3483 184.51C98.552 186.356 101.084 188.845 103.975 189.049Z" fill="#6B39FE"/>
<path d="M99.2257 115.923C99.9041 117.183 100.609 118.404 101.523 119.548C102.662 120.982 103.952 122.308 105.265 123.582C108.014 126.244 111.025 128.623 113.73 131.334C115.836 133.446 117.702 135.78 119.352 138.26C118.483 136.481 117.569 134.719 116.621 132.98C112.546 125.539 107.619 118.67 102.565 111.876L102.884 111.579C109.788 118.807 115.277 127.46 119.826 136.321C124.039 144.53 127.165 153.121 129.768 161.951C132.264 170.421 134.632 179.247 139.766 186.569C142.564 190.567 146.289 193.597 149.703 197.027C151.951 199.286 155.804 203.847 152.235 206.776C149.703 208.852 145.101 207.49 143.478 204.855C142.715 203.621 142.808 201.806 144.183 201.03C145.154 200.479 146.187 201.238 147.154 200.834C151.215 199.135 142.848 192.79 141.083 190.784C138.45 187.784 136.348 184.341 134.654 180.734C131.151 173.292 129.284 165.23 126.894 157.394C126.265 155.335 125.586 153.289 124.855 151.261C123.108 148.111 121.516 144.885 119.733 141.748C117.565 137.936 114.98 134.426 111.845 131.351C109.118 128.68 106.143 126.271 103.491 123.515C101.567 121.514 99.5582 118.994 98.5605 116.265L99.2257 115.923ZM149.557 205.888C152.687 205.826 152.067 202.485 150.794 200.657C150.426 200.129 150.027 199.623 149.606 199.135C149.628 199.459 149.601 199.787 149.504 200.12C149.286 200.874 148.741 201.527 148.076 201.93C147.114 202.516 146.267 202.117 145.3 202.454C143.553 203.066 145.854 204.766 146.741 205.174C147.615 205.578 148.586 205.906 149.557 205.888Z" fill="black"/>
<path d="M96.1484 131.427C96.4765 132.132 96.8224 132.829 97.1815 133.521C90.26 125.703 84.1941 117.13 82.6289 106.592C83.4758 105.309 84.1941 103.934 84.8016 102.509C87.5064 106.343 88.0429 111.57 91.6611 114.769C91.7986 114.894 91.9449 115.009 92.0957 115.124C91.9626 117.476 92.5878 120.072 93.049 122.193C93.7407 125.388 94.7694 128.467 96.1484 131.427Z" fill="#6B39FE"/>
<path d="M82.5227 131.848C78.7759 126.275 75.8494 120.094 74.1334 113.593C74.1334 113.585 74.1334 113.571 74.1245 113.562C75.7563 112.959 77.2904 112.089 78.6561 111.007C78.8335 110.869 79.002 110.727 79.1705 110.581C79.1838 117.702 80.013 124.78 82.6246 131.462C82.7931 131.884 82.9616 132.314 83.139 132.745C82.9306 132.447 82.7266 132.15 82.5227 131.848Z" fill="#6B39FE"/>
<path d="M83.4272 100.912C82.5625 103.392 81.1747 105.704 79.4143 107.608C79.3434 107.652 79.2813 107.714 79.2458 107.79C76.581 110.585 73.0869 112.444 69.2071 112.533C69.0341 112.213 68.604 112.253 68.4178 112.524C67.429 112.489 66.4136 112.333 65.3849 112.045C61.3189 110.913 57.6962 109.099 53.3819 109.019C49.6173 108.948 45.7198 109.76 42.4075 111.583C40.1594 112.817 38.071 114.658 36.9758 116.957C35.6899 110.567 36.9314 103.96 37.4768 97.4153C37.5212 96.8428 37.5655 96.2704 37.5965 95.698C37.8271 91.9264 37.7296 88.1813 36.6875 84.5162C38.6474 84.4363 40.6383 84.6049 42.5849 84.7203C42.8021 85.5989 43.2322 86.4819 43.4806 87.2895C43.9905 88.9623 44.4383 90.6529 44.7221 92.379C45.2985 95.8489 44.997 99.3144 43.986 102.678C43.9594 102.767 44.0747 102.838 44.1324 102.758C46.1942 99.9622 46.5489 96.4701 46.3095 93.0889C46.172 91.1854 45.8129 89.3084 45.365 87.4536C45.1788 86.6815 45.0414 85.7187 44.793 84.8268C47.4136 84.9244 50.0519 84.9466 52.6724 84.778C52.77 86.5839 53.7676 88.5763 54.313 90.2668C54.885 92.0506 55.4703 93.8255 56.3926 95.4629C58.215 98.7021 60.7203 101.151 63.5403 103.494C63.7753 103.69 64.0458 103.343 63.8818 103.122C61.8022 100.251 59.4255 97.4596 57.7805 94.3092C56.9513 92.7251 56.4015 91.0389 55.8605 89.3395C55.3905 87.8796 55.0845 86.0426 54.3219 84.6448C54.8185 84.596 55.3151 84.5428 55.8117 84.4762C56.397 84.3964 56.9912 84.3076 57.5854 84.2056C57.6208 84.8268 57.8292 85.4613 58.1662 86.0293C59.1683 87.7066 61.1725 88.3011 62.9861 88.6162C65.4692 89.0422 68.1961 88.9312 69.5662 91.4294C70.4797 93.0978 70.861 95.0458 72.1646 96.4923C73.7254 98.2228 75.9735 98.4802 78.1595 98.7109C80.2479 98.9284 81.9639 99.554 83.4272 100.912Z" fill="#5B14B2"/>
<path d="M78.5809 140.031C71.0252 134.315 62.5295 126.936 62.2901 116.793C62.2856 116.717 62.2856 116.646 62.2856 116.571C63.505 115.865 64.6845 115.093 65.8152 114.237C65.8373 114.223 65.8506 114.206 65.8684 114.188C66.7109 114.374 67.5622 114.503 68.4446 114.53C69.0565 122.122 71.105 130.175 75.5746 136.348C76.5412 137.679 77.6098 138.939 78.7405 140.15L78.5809 140.031Z" fill="#6B39FE"/>
<path d="M64.1612 113.727C63.5626 114.157 62.9507 114.561 62.3254 114.947C62.3121 114.814 62.117 114.809 62.0904 114.951C62.0816 115 62.0771 115.053 62.0683 115.107C58.7427 117.117 55.0713 118.519 51.2403 119.242C50.9875 119.291 50.7348 119.335 50.482 119.38C48.3182 119.735 46.1233 119.881 43.9373 119.801C42.7224 119.752 41.503 119.686 40.2969 119.553C39.6185 119.477 38.9135 119.3 38.2085 119.207C38.9623 116.092 41.9553 113.873 44.8286 112.639C48.5842 111.033 52.8232 110.607 56.8316 111.384C59.3502 111.872 61.718 112.963 64.1612 113.727Z" fill="#B33DFF"/>
<path d="M69.6461 114.512C70.3511 118.098 70.861 121.714 71.9163 125.228C73.1224 129.257 74.9359 133.042 77.5787 136.321C79.9908 139.312 82.8286 141.886 85.4358 144.69C86.7794 146.136 88.1406 147.574 89.3777 149.114C89.7325 149.553 90.0872 150.001 90.4286 150.463C93.0048 153.338 95.3416 156.426 97.4433 159.661C99.8289 163.344 101.966 167.178 103.899 171.118C104.915 173.186 105.873 175.285 106.773 177.406C107.682 179.545 108.502 181.763 108.568 184.11C108.688 188.037 106.294 191.88 102.139 192.248C98.0419 192.617 94.5346 190.163 92.1845 186.995C91.2179 185.69 89.9143 183.844 90.6459 182.14C91.3997 180.374 93.4571 180.445 94.9469 181.151C98.1616 182.673 101.66 188.415 105.717 186.728C106.05 185.792 106.156 184.758 106.09 183.795C105.93 181.541 104.964 179.416 104.077 177.375C103.283 175.551 102.458 173.741 101.598 171.948C98.073 164.618 93.8384 157.567 88.5042 151.403C85.7817 148.262 82.7976 145.422 79.6183 142.751C76.4302 140.075 73.1268 137.502 70.1649 134.564C67.5 131.92 65.0613 128.774 63.5226 125.304C62.3387 122.632 61.6825 119.77 61.8687 116.806L62.29 116.793C62.5294 126.936 71.0251 134.316 78.5808 140.031L78.7404 140.151C77.6097 138.939 76.5411 137.679 75.5745 136.348C71.1049 130.176 69.0564 122.122 68.4445 114.53L69.6461 114.512ZM98.9287 189.67C100.534 190.176 102.551 190.003 103.975 189.049C101.084 188.845 98.5518 186.356 96.3481 184.51C95.6032 183.884 94.4636 182.788 93.4394 182.735C91.5061 182.624 93.2886 184.98 93.7985 185.646C95.1199 187.376 96.8048 189.005 98.9287 189.67Z" fill="black"/>
<path d="M125.981 111.624C125.24 106.885 124.863 102.004 122.988 97.5708C122.389 97.8193 121.786 98.0456 121.179 98.2453C119.489 98.8088 117.76 99.2614 116.04 99.7184C118.917 103.206 121.325 107.226 123.693 110.993C124.73 112.649 125.781 114.304 126.814 115.972C126.477 114.521 126.207 113.057 125.981 111.624ZM82.6288 106.592C84.194 117.13 90.2599 125.703 97.1814 133.521C96.8223 132.829 96.4764 132.133 96.1483 131.427C94.7693 128.467 93.7406 125.388 93.0489 122.193C92.5877 120.072 91.9625 117.476 92.0956 115.125C91.9448 115.009 91.7985 114.894 91.661 114.77C88.0428 111.57 87.5063 106.343 84.8015 102.509C84.194 103.934 83.4757 105.309 82.6288 106.592ZM73.6897 113.718C72.3861 114.162 71.0248 114.437 69.6458 114.512L68.4442 114.53C67.5618 114.503 66.7105 114.375 65.868 114.188C65.8503 114.206 65.837 114.224 65.8148 114.237C64.6841 115.094 63.5046 115.866 62.2853 116.571C62.2853 116.647 62.2853 116.718 62.2897 116.793L61.8685 116.806C61.1014 117.237 60.3165 117.636 59.5184 118.004C59.5184 118.009 59.5228 118.018 59.5273 118.027C60.4362 120.658 61.3364 123.254 62.4316 125.774C63.1056 127.327 63.8549 128.853 64.7329 130.344C68.7856 137.235 74.8514 142.454 80.394 148.093C83.1875 150.938 85.6218 154.013 87.524 157.522C88.4463 159.226 89.2711 160.992 89.9628 162.803C90.5614 164.374 91.3906 166.268 91.3728 167.963C91.3684 168.238 90.9604 168.363 90.8008 168.141C90.1978 167.298 89.9184 166.277 89.5238 165.328C89.076 164.254 88.6059 163.184 88.1182 162.128C87.1338 160.012 86.0076 157.957 84.6862 156.032C80.1236 149.371 73.4104 144.925 68.0762 138.979C63.1322 133.468 58.8799 126.187 57.625 118.803C55.7095 119.553 53.7231 120.125 51.6878 120.516C51.3553 120.582 51.0227 120.636 50.6857 120.689L50.4817 119.38C50.7345 119.336 50.9872 119.291 51.24 119.242C55.071 118.519 58.7424 117.117 62.068 115.107C62.0769 115.054 62.0813 115 62.0902 114.951C62.1168 114.81 62.3119 114.814 62.3252 114.947C62.9504 114.561 63.5623 114.157 64.1609 113.727C61.7177 112.964 59.3499 111.872 56.8313 111.384C52.8229 110.607 48.584 111.033 44.8283 112.64C41.955 113.873 38.962 116.092 38.2082 119.207L38.053 120.183C38.0308 120.423 38.0264 120.662 38.0353 120.906C38.0619 121.82 36.5632 122.069 36.2617 121.221C33.4948 113.412 35.397 105.327 36.204 97.3046L37.4766 97.4155C36.9312 103.96 35.6897 110.567 36.9755 116.957C38.0708 114.659 40.1592 112.817 42.4073 111.584C45.7195 109.76 49.6171 108.948 53.3816 109.019C57.696 109.099 61.3186 110.914 65.3847 112.045C66.4134 112.334 67.4288 112.489 68.4176 112.524C68.6038 112.254 69.0339 112.214 69.2069 112.533C73.0867 112.444 76.5807 110.585 79.2456 107.79C79.2811 107.714 79.3432 107.652 79.4141 107.608C81.1744 105.704 82.5623 103.392 83.4269 100.912C81.9637 99.5542 80.2477 98.9286 78.1593 98.7112C75.9733 98.4804 73.7252 98.2231 72.1644 96.4925C70.8608 95.046 70.4794 93.098 69.566 91.4296C68.1959 88.9315 65.4689 89.0424 62.9858 88.6164C61.1723 88.3014 59.1681 87.7068 58.166 86.0295C57.829 85.4615 57.6206 84.827 57.5851 84.2058L58.7291 83.9973C58.8754 84.9513 59.545 85.8387 60.4407 86.278C61.6645 86.8815 63.11 86.8681 64.4447 86.9125C66.9322 86.9968 69.4419 87.5382 70.9539 89.6947C72.1954 91.4607 72.4969 94.2029 74.3371 95.4897C76.4566 96.9762 79.5826 96.1908 81.9548 97.1448C86.6328 99.0307 88.3887 104.116 90.2377 108.362C91.2753 110.741 92.601 113.478 95.2393 114.375C98.0594 115.333 99.9483 112.99 101.017 110.701C102.777 106.933 103.744 102.607 106.639 99.4832C110.036 95.8181 115.734 96.284 118.656 92.0331C120.101 89.9299 120.292 87.2853 121.325 84.9956C121.64 84.3034 122.021 83.6556 122.482 83.0787C121.955 82.7948 121.462 82.4575 121.05 82.1869C119.813 81.366 118.656 80.443 117.569 79.4313C115.397 77.4124 113.552 75.0473 112.142 72.4293C110.59 69.5496 109.677 66.2749 109.344 63.0312C109.309 62.694 109.273 62.3523 109.242 61.9974L110.231 61.9042C110.284 62.3701 110.351 62.8404 110.435 63.3064C110.657 64.5133 110.971 65.6847 111.357 66.834C115.76 62.0905 120.367 57.3915 123.609 51.7473C125.351 48.7122 126.633 45.3799 127.271 41.9321C127.559 40.3702 127.666 38.8349 127.63 37.3085L128.894 37.2153C129.204 42.1851 127.666 47.3944 125.471 51.6586C122.145 58.1192 117.161 63.4572 112.022 68.5068C112.013 68.5112 112.005 68.5201 111.996 68.5246C112.452 69.6294 112.985 70.7077 113.579 71.7549C115.006 74.2531 116.891 76.5249 119.081 78.393C120.106 79.2627 121.192 80.0437 122.327 80.7581C122.806 81.0598 123.396 81.3482 123.932 81.6854C124.447 81.3216 125.014 81.0243 125.639 80.8113C127.666 80.1235 129.852 80.6116 131.111 82.4176C132.45 84.3389 132.339 86.988 131.687 89.1356C131.674 89.18 131.656 89.2243 131.643 89.2687C131.692 89.4329 131.745 89.5926 131.794 89.7568L131.435 89.8677C130.991 91.017 130.366 92.0464 129.608 92.9605C129.643 93.0537 129.683 93.1469 129.719 93.24L129.178 93.4575C128.499 94.1852 127.737 94.8419 126.916 95.4232C130.659 101.267 131.75 108.207 134.388 114.543C136.844 120.427 140.773 125.428 144.169 130.77C147.504 136.015 149.712 141.717 151.809 147.543C153.929 153.431 156.008 159.422 159.48 164.675C161.236 167.329 163.333 169.725 165.595 171.952C166.952 173.288 168.375 174.548 169.776 175.835C170.871 176.842 172.046 177.761 172.96 178.941C173.075 179.087 172.902 179.243 172.751 179.163C171.075 178.271 169.568 176.891 168.131 175.649C166.757 174.459 165.431 173.195 164.158 171.899C161.711 169.405 159.533 166.685 157.733 163.69C154.585 158.454 152.452 152.708 150.249 147.042C147.969 141.18 145.464 135.496 141.948 130.26C138.445 125.046 134.241 120.108 131.9 114.215C129.581 108.371 128.553 101.928 125.032 96.6123C125.027 96.6079 125.027 96.6035 125.023 96.599C124.491 96.8875 123.946 97.1537 123.391 97.3977C125.52 101.347 126.313 105.855 127.169 110.248C127.741 113.172 128.495 116.003 129.431 118.834C129.83 120.045 131.869 124.576 132.432 125.65C137.026 134.431 141.34 143.483 144.746 152.792C146.843 158.53 148.444 164.427 149.974 170.333C151.291 175.4 151.907 180.357 154.483 185.025C154.869 185.721 155.436 186.822 156.137 187.926L155.246 188.565C156.062 190.713 156.979 192.825 158.035 194.875C158.891 196.544 159.906 198.385 161.427 199.561L160.407 200.395C159.972 200.058 159.573 199.681 159.214 199.264C157.627 197.418 156.549 195.097 155.538 192.905C154.417 190.465 153.463 187.958 152.612 185.411C149.246 175.342 147.384 164.857 143.744 154.865C140.041 144.694 135.142 135.185 129.555 125.929C126.739 121.27 124.056 116.536 121.183 111.908C118.837 108.127 116.204 104.271 114.27 100.202C112.501 100.699 110.75 101.245 109.06 101.981L108.577 102.257C108.577 102.257 108.559 102.225 108.55 102.208C108.014 102.456 107.486 102.722 106.967 103.011C106.058 104.373 105.345 105.873 104.666 107.39C104.857 107.563 105.043 107.741 105.229 107.918L104.183 108.478C103.735 109.494 103.283 110.505 102.782 111.473C102.817 111.508 102.848 111.544 102.884 111.579L102.564 111.876C102.493 112.01 102.423 112.143 102.347 112.276C101.545 113.687 100.6 115.089 99.2256 115.923L98.5604 116.265C98.352 116.354 98.1392 116.434 97.9175 116.491C96.3966 116.913 94.8048 116.642 93.4169 115.95C93.4923 116.42 93.5588 116.891 93.6431 117.352C93.9002 118.816 94.1973 120.267 94.5786 121.701C95.3857 124.758 96.5075 127.766 97.851 130.624C99.2078 133.508 100.871 136.175 102.72 138.766C103.624 140.031 104.533 141.287 105.553 142.462C106.564 143.625 107.69 144.659 108.635 145.87C111.193 148.728 113.636 151.687 115.778 154.878C118.784 159.364 120.957 164.227 122.598 169.326C122.744 169.423 122.864 169.578 122.917 169.791C124.974 177.863 126.885 186.2 130.508 193.744C133.696 200.382 138.383 206.443 144.475 210.614C146.87 212.256 149.925 214.288 150.501 217.377C150.998 220.061 148.501 222.071 145.965 222C142.999 221.916 140.458 219.364 138.507 217.385C136.339 215.185 134.516 212.669 132.969 210.006C126.242 198.452 125.214 184.838 121.618 172.21C119.636 165.252 116.638 158.84 112.257 153.063C108.16 147.667 103.345 142.888 98.7156 137.963C90.9072 129.639 82.5579 119.291 82.0746 107.395C81.5425 108.127 80.9705 108.828 80.3364 109.48C80.3586 109.818 80.3852 110.15 80.4118 110.488L79.1702 110.581C79.0017 110.727 78.8332 110.869 78.6559 111.007C77.2902 112.089 75.756 112.959 74.1242 113.563C74.1287 113.572 74.1287 113.585 74.1331 113.594L73.6897 113.718ZM147.712 219.555C150.231 217.168 144.094 213.543 142.617 212.482C140.165 210.716 138.006 208.617 136.024 206.337C133.155 203.04 130.88 199.348 129.027 195.43C130.331 200 131.976 204.451 134.357 208.653C135.833 211.258 137.598 213.702 139.678 215.859C141.172 217.403 145.336 221.814 147.712 219.555ZM127.723 90.1384C128.579 88.7895 130.291 84.0106 127.59 83.5358C125.347 83.1409 123.981 85.8032 123.387 87.4716C122.562 89.779 121.968 92.1041 120.412 94.0565C119.609 95.0593 118.673 95.9024 117.627 96.5902C118.877 96.2086 120.11 95.787 121.312 95.2723C123.915 94.1497 126.189 92.5567 127.723 90.1384Z" fill="black"/>
<path d="M81.7245 181.222C78.5984 169.392 72.3242 158.25 64.64 148.79C60.8577 144.135 56.2063 140.279 52.464 135.611C50.6238 133.317 49.0852 130.792 48.225 127.966C47.622 125.982 47.0189 123.04 47.9811 121.013C46.5977 121.123 45.2054 121.154 43.822 121.092C42.5272 121.039 41.2591 120.862 39.9909 120.604C39.3746 120.476 38.6917 120.374 38.0532 120.183L38.2084 119.207C38.9134 119.3 39.6185 119.477 40.2969 119.553C41.5029 119.686 42.7223 119.752 43.9372 119.801C46.1232 119.881 48.3181 119.735 50.4819 119.38L50.6859 120.689L50.1671 120.768C50.4243 122.242 50.0962 123.759 50.3223 125.277C50.5795 126.976 51.1692 128.6 51.9629 130.122C53.5104 133.091 55.8649 135.527 58.0997 137.981C66.0544 146.7 73.446 156.235 78.1861 167.129C80.5805 172.635 82.4649 178.426 83.6621 184.314C84.2696 187.318 84.6953 190.362 84.917 193.42C85.1121 196.162 85.3028 199.081 84.682 201.779C84.651 201.912 84.4381 201.881 84.4204 201.753C83.906 198.278 84.0701 194.697 83.6488 191.201C83.2409 187.833 82.5935 184.501 81.7245 181.222Z" fill="black"/>
<path d="M36.2042 97.3043C28.4667 98.4758 20.0996 96.6654 13.9097 91.8554L15.0448 91.354C21.3589 95.3564 28.8658 97.1845 36.355 95.6315L37.5965 95.6981C37.5655 96.2705 37.5211 96.8429 37.4768 97.4153L36.2042 97.3043Z" fill="black"/>
<path d="M35.6853 84.5737C36.612 88.2167 36.643 91.9129 36.3548 95.6314C28.8657 97.1844 21.3588 95.3562 15.0446 91.3538C14.8894 91.2562 14.7387 91.1586 14.5835 91.0566C17.9002 91.487 21.2169 90.6749 24.303 89.3571C26.7063 88.3276 28.8479 86.9654 30.5329 85.1062C30.8699 85.4257 31.362 85.5854 31.9119 85.3813C33.1357 84.9243 34.3994 84.6891 35.6853 84.5737Z" fill="#B33DFF"/>
<path d="M66.6399 13.1342C70.227 13.6311 73.4196 15.4903 76.5012 17.2874C79.2105 18.8671 81.8487 20.5665 84.4116 22.3769C89.6705 26.1042 94.5701 30.2309 98.9421 34.9699C102.955 39.3228 107.828 43.8 109.149 49.8258C109.491 51.401 109.482 52.9008 108.533 54.2586C107.646 55.5232 106.374 56.5837 105.225 57.6087C102.937 59.6587 100.494 61.5534 97.9932 63.3327C97.6607 63.3017 97.3503 63.5413 97.2793 63.8386C91.9097 67.6103 85.1255 72.1629 78.266 71.0536C78.8469 69.6913 79.2016 68.2448 79.2592 66.745C79.3834 63.2618 78.133 59.7918 76.4569 56.7878C73.2023 50.9661 68.0854 46.56 63.0793 42.2958C56.845 36.9844 49.3514 29.5653 51.533 20.5089C51.5862 20.2781 51.2669 20.145 51.1827 20.3757C48.6685 27.1958 52.575 33.7851 57.0489 38.746C61.483 43.658 66.6399 47.9355 70.8168 53.0827C74.9981 58.2477 78.9001 65.6934 74.6655 71.9499C70.697 77.8159 63.3808 80.7978 56.6055 81.734C52.167 82.3464 47.6842 82.3508 43.2191 82.1556C39.5654 81.9914 35.9028 81.6497 32.36 82.5549C32.4576 82.3774 32.5551 82.1999 32.6438 82.018C34.546 78.202 35.353 73.8047 35.8097 69.6026C36.7985 60.5817 35.7787 51.503 35.1357 42.4999C34.7943 37.7032 34.4573 32.8932 34.8209 28.0921C35.1535 23.6149 36.3152 19.7856 39.2373 16.3157C39.357 16.1737 39.1486 16.0139 39.0155 16.1116C33.5705 19.9631 32.963 27.9634 33.0118 34.0292C33.0828 42.5132 34.1248 50.9573 34.2046 59.4413C34.2445 63.5369 34.0627 67.6413 33.4197 71.6881C32.8167 75.4731 32.0762 79.8704 29.9035 83.1184C27.722 86.3798 23.1149 88.2213 19.3637 88.7848C15.8475 89.3173 12.247 88.9667 9.21411 87.0099C6.16347 85.0398 4.03067 81.9337 3.33452 78.3617C2.87781 76.0366 3.08178 73.707 3.5917 71.4174C4.28342 69.4828 5.18797 67.6058 5.9861 65.7422C7.47595 62.2767 8.81948 58.7579 9.65308 55.0706C11.3247 47.6737 12.0785 40.0816 14.2867 32.8C16.2776 26.224 19.4036 19.3862 24.3432 14.4875C34.0006 4.91637 47.999 1.01159 61.3323 1.84136C69.5043 2.3472 77.4989 4.43271 85.0945 7.43229C92.6723 10.4274 99.6383 14.4742 106.826 18.2592C110.839 20.3757 115.237 21.5649 119.259 23.6282C122.545 25.3144 125.64 28.1498 125.906 32.059C126.185 36.0925 123.667 39.8686 120.833 42.491C118.182 44.9492 115.1 46.8794 112.218 49.0581C111.832 47.3808 111.127 45.7524 110.338 44.3236C108.679 41.3018 106.418 38.6883 104.046 36.2123C99.2436 31.1982 93.5724 26.7388 87.8303 22.8473C84.6688 20.7041 81.3876 18.734 78.0133 16.9369C74.5236 15.0865 70.7281 12.8191 66.662 12.8635C66.4891 12.8635 66.4625 13.112 66.6399 13.1342Z" fill="#FF457F"/>
<path d="M57.7802 94.3095C59.4252 97.46 61.8019 100.251 63.8815 103.122C64.0456 103.344 63.7751 103.69 63.5401 103.495C60.72 101.152 58.2147 98.7024 56.3923 95.4632C55.47 93.8259 54.8847 92.051 54.3128 90.2672C53.7674 88.5766 52.7697 86.5843 52.6721 84.7783C50.0516 84.9469 47.4133 84.9247 44.7928 84.8271C45.0411 85.719 45.1786 86.6819 45.3648 87.454C45.8126 89.3087 46.1718 91.1857 46.3092 93.0893C46.5487 96.4705 46.194 99.9626 44.1321 102.758C44.0745 102.838 43.9592 102.767 43.9858 102.678C44.9968 99.3147 45.2983 95.8492 44.7218 92.3793C44.4381 90.6532 43.9902 88.9626 43.4803 87.2898C43.232 86.4822 42.8019 85.5992 42.5846 84.7206C40.6381 84.6052 38.6472 84.4366 36.6873 84.5165C37.7293 88.1817 37.8269 91.9267 37.5963 95.6984L36.3547 95.6318C36.6429 91.9134 36.6119 88.2172 35.6852 84.5742C34.3993 84.6896 33.1356 84.9247 31.9118 85.3818C31.362 85.5859 30.8698 85.4261 30.5328 85.1067C28.8478 86.9659 26.7062 88.3281 24.3029 89.3576C21.2168 90.6754 17.9001 91.4874 14.5834 91.057C14.7386 91.1591 14.8894 91.2567 15.0446 91.3543L13.9094 91.8557C13.3951 91.4564 12.894 91.0348 12.4107 90.5955C11.0716 90.2006 9.81234 89.6238 8.64618 88.9005C6.37593 87.7291 4.21654 86.2115 2.67348 84.2059C0.478607 81.3705 -0.315093 77.7941 0.106144 74.262C0.598327 70.0777 2.50941 66.2528 4.17219 62.4456C5.79507 58.7095 6.95679 54.7825 8.01211 50.8555C10.1449 42.9217 11.014 34.6818 13.7675 26.9121C16.1664 20.132 20.9064 14.3725 26.5687 10.0195C38.3589 0.963118 53.8117 -1.52618 68.2358 0.84775C76.8157 2.25879 85.1163 5.16963 92.9912 8.81705C96.9686 10.6541 100.777 12.7973 104.675 14.794C108.657 16.8352 112.829 18.1086 116.984 19.7016C120.434 21.0195 123.888 22.7766 126.207 25.7452C128.136 28.2167 128.872 31.1808 128.455 34.1937C128.686 35.1832 128.827 36.1949 128.894 37.2154L127.63 37.3086C125.001 44.071 117.973 47.5675 112.514 51.8894C112.497 52.5106 112.412 53.1274 112.253 53.7309C111.916 55.0266 111.171 56.1536 110.235 57.1697C110.195 57.5513 110.16 57.933 110.138 58.3146C110.076 59.517 110.102 60.7151 110.231 61.9043L109.242 61.9975C109.127 60.8216 109.038 59.5659 109.06 58.3234C107.797 59.4505 106.382 60.4444 105.198 61.3984C104.657 61.8333 104.103 62.2637 103.549 62.6897C105.837 64.3359 107.491 67.2689 108.648 69.7627C109.965 72.5981 110.852 75.54 111.14 78.6416C111.162 78.8768 110.825 79.0143 110.719 78.7747C109.561 76.1523 108.732 73.379 107.522 70.7744C106.888 69.4121 106.156 68.0898 105.278 66.874C104.431 65.707 103.38 64.8018 102.427 63.7369C102.387 63.6925 102.356 63.6526 102.334 63.6082C101.62 64.1362 100.906 64.6509 100.179 65.1568C101.145 66.8208 101.478 69.1725 101.948 70.69C103.101 74.4351 104.671 78.1091 106.391 81.6279C106.444 81.7299 106.289 81.832 106.223 81.7388C104.116 78.9478 102.449 75.9615 101.216 72.6868C100.618 71.0894 100.179 69.452 99.6335 67.8369C99.4118 67.1757 99.1368 66.6167 98.8043 66.0975C97.9884 66.6477 97.1681 67.1802 96.3345 67.6993C94.9378 68.5646 93.4878 69.4121 91.9935 70.1798C91.9536 70.7522 91.8517 71.3423 91.9669 71.9192C92.162 72.922 92.6365 73.8849 93.2085 74.7235C94.2727 76.2898 95.7315 77.5456 96.9996 78.9344C99.4339 81.6101 100.689 84.7606 100.179 88.3947C100.161 88.5278 99.9749 88.5056 99.9749 88.3769C99.9438 86.0429 99.2433 83.6601 97.8953 81.7388C96.7469 80.1059 95.1639 78.8679 93.7406 77.5012C92.3571 76.1789 91.1466 74.6614 90.5436 72.8244C90.3795 72.3274 90.2155 71.6929 90.1623 71.0583C89.2089 71.4887 88.2423 71.8881 87.2579 72.2209C87.4663 73.024 87.5196 73.8804 87.7368 74.6836C88.0561 75.9038 88.5261 77.0619 89.0804 78.1934C90.1135 80.31 91.3816 82.3245 92.6365 84.3168C94.8535 87.8356 96.7779 91.727 95.7669 95.9868C95.7492 96.0622 95.6206 96.0312 95.6384 95.9602C96.5872 90.9416 93.6342 86.2337 90.7609 82.3911C89.4972 80.7005 88.2379 78.9788 87.2668 77.0974C86.615 75.8239 85.8479 74.191 85.8257 72.6735C84.0876 73.1572 82.314 73.4545 80.5137 73.4811C80.4383 74.0224 80.3186 74.5638 80.2831 75.0563C80.1856 76.3387 80.2166 77.6299 80.3718 78.9078C80.6999 81.5569 81.6178 84.0684 82.6642 86.5088C82.7308 86.6641 82.5224 86.8106 82.4071 86.673C80.6467 84.4943 79.6491 81.8763 79.1214 79.1341C78.8509 77.7497 78.7268 76.3298 78.7357 74.9143C78.7357 74.4573 78.7224 73.9337 78.7667 73.419C78.2257 73.3746 77.6803 73.3036 77.135 73.2015C76.5275 74.1644 75.8225 75.0652 75.0509 75.8816C70.8031 80.3987 64.7683 82.8215 58.7291 83.9974L57.5851 84.2059C56.9909 84.308 56.3968 84.3967 55.8115 84.4766C55.3149 84.5431 54.8182 84.5964 54.3216 84.6452C55.0843 86.0429 55.3902 87.8799 55.8602 89.3398C56.4012 91.0393 56.951 92.7254 57.7802 94.3095ZM76.5009 17.2878C73.4192 15.4907 70.2267 13.6315 66.6395 13.1345C66.4621 13.1123 66.4887 12.8638 66.6617 12.8638C70.7277 12.8194 74.5233 15.0869 78.0129 16.9372C81.3872 18.7343 84.6684 20.7044 87.8299 22.8476C93.5721 26.7391 99.2433 31.1985 104.045 36.2126C106.418 38.6886 108.679 41.3021 110.337 44.3239C111.127 45.7527 111.832 47.3812 112.217 49.0585C115.1 46.8798 118.181 44.9496 120.833 42.4913C123.666 39.8689 126.185 36.0928 125.905 32.0594C125.639 28.1501 122.544 25.3147 119.259 23.6286C115.237 21.5653 110.838 20.3761 106.826 18.2595C99.6379 14.4745 92.672 10.4278 85.0941 7.43263C77.4986 4.43305 69.5039 2.34754 61.3319 1.84169C47.9986 1.01193 34.0002 4.91671 24.3428 14.4879C19.4033 19.3866 16.2772 26.2244 14.2863 32.8004C12.0782 40.0819 11.3244 47.674 9.65271 55.0709C8.81911 58.7583 7.47558 62.277 5.98573 65.7425C5.1876 67.6062 4.28305 69.4831 3.59133 71.4177C3.08141 73.7074 2.87744 76.0369 3.33415 78.362C4.0303 81.934 6.1631 85.0401 9.21374 87.0102C12.2467 88.9671 15.8471 89.3176 19.3633 88.7851C23.1146 88.2216 27.7216 86.3802 29.9032 83.1188C32.0759 79.8707 32.8163 75.4734 33.4194 71.6884C34.0623 67.6417 34.2441 63.5372 34.2042 59.4416C34.1244 50.9576 33.0824 42.5135 33.0114 34.0295C32.9627 27.9638 33.5701 19.9634 39.0152 16.1119C39.1482 16.0143 39.3566 16.174 39.2369 16.316C36.3148 19.7859 35.1531 23.6153 34.8205 28.0925C34.457 32.8936 34.7939 37.7035 35.1354 42.5002C35.7783 51.5034 36.7981 60.582 35.8093 69.6029C35.3526 73.805 34.5456 78.2023 32.6434 82.0183C32.5547 82.2003 32.4572 82.3778 32.3596 82.5552C35.9025 81.65 39.565 81.9917 43.2187 82.1559C47.6838 82.3511 52.1667 82.3467 56.6052 81.7344C63.3804 80.7981 70.6967 77.8163 74.6652 71.9502C78.8997 65.6937 74.9977 58.248 70.8164 53.083C66.6395 47.9358 61.4827 43.6583 57.0486 38.7463C52.5746 33.7854 48.6682 27.1961 51.1823 20.3761C51.2665 20.1453 51.5858 20.2785 51.5326 20.5092C49.351 29.5656 56.8446 36.9847 63.0789 42.2961C68.085 46.5603 73.2019 50.9665 76.4565 56.7881C78.1326 59.7922 79.383 63.2621 79.2589 66.7453C79.2012 68.2451 78.8465 69.6917 78.2656 71.0539C85.1252 72.1632 91.9093 67.6106 97.279 63.8389C97.3499 63.5416 97.6603 63.302 97.9929 63.3331C100.494 61.5537 102.937 59.659 105.225 57.609C106.373 56.584 107.646 55.5235 108.533 54.2589C109.482 52.9011 109.49 51.4013 109.149 49.8261C107.828 43.8003 102.955 39.3231 98.9417 34.9702C94.5697 30.2312 89.6701 26.1046 84.4113 22.3773C81.8484 20.5669 79.2101 18.8674 76.5009 17.2878Z" fill="black"/>
</g>
<defs>
<clipPath id="clip0_1396_10859">
<rect width="173" height="222" fill="white"/>
</clipPath>
</defs>
</svg>
