<svg width="448" height="370" viewBox="0 0 448 370" fill="none" xmlns="http://www.w3.org/2000/svg">
<g clip-path="url(#clip0_1396_12031)">
<path d="M398.153 81.4089C385.132 61.8133 368.369 48.1083 351.518 32.7752C351.4 35.3801 351.076 37.8961 350.457 40.2938C350.074 41.7738 348.159 41.5962 347.717 40.2938C344.889 32.42 344.683 23.0367 344.035 14.2749C338.349 19.751 332.634 25.3751 326.094 29.6376C324.827 30.4664 323 28.7496 323.943 27.4175C324.738 26.2927 325.593 25.2271 326.477 24.1615C293.923 15.5773 259.897 15.8733 227.549 25.6119C226.666 25.8783 225.782 26.1743 224.898 26.4703C224.486 26.9735 223.867 27.1215 223.248 27.0031C208.666 31.7984 194.672 38.3993 181.71 46.7763C169.601 54.5908 159.349 64.5662 148.096 73.4463C149.804 74.1863 151.425 75.0152 152.868 76.0216C154.518 77.176 154.076 80.3729 151.749 80.1953C144.089 79.6624 136.223 76.436 128.564 74.2455C130.184 83.7177 131.038 92.8347 131.274 102.603C131.274 103.698 129.683 103.905 129.418 102.869C128.888 100.56 128.387 98.222 127.856 95.9131C117.133 122.613 102.462 147.684 92.1214 174.71C91.5911 176.131 89.4405 175.598 89.8529 174.059C91.2081 169.293 92.6222 164.438 94.0952 159.525C94.0363 159.465 93.9773 159.465 93.9479 159.406C83.1066 143.748 76.154 127.26 62.3077 113.555C48.9034 100.294 33.3484 90.4074 15.967 83.8361C13.6985 91.9762 12.1666 100.176 11.3123 108.375C22.949 107.753 34.9687 117.077 44.3665 122.909C46.5466 124.27 44.6317 127.586 42.3632 126.402C37.2961 123.767 32.3763 120.807 27.427 117.936C22.2125 114.917 17.0865 111.217 11.0766 110.654C10.1044 121.31 10.2517 131.967 11.5185 142.534C14.1994 142.208 17.9408 144.192 19.9441 144.991C25.6593 147.329 33.2011 149.993 36.9426 155.203C37.7675 156.357 36.4123 157.689 35.2633 157.453C31.2568 156.594 27.7805 153.693 24.1569 151.769C22.8901 151.088 14.8769 146.382 11.9899 145.908C14.2877 161.893 19.1781 177.581 26.6315 192.5C27.8099 194.868 25.8361 196.999 23.8917 197.088C20.4744 206.382 17.3811 215.499 14.7296 224.616C18.2649 222.751 21.9768 221.153 25.4826 219.258C30.1373 216.742 34.7036 212.628 39.8002 211.296C41.5973 210.822 43.5711 212.983 42.3632 214.73C39.0048 219.584 32.6414 222.396 27.5153 224.971C22.9785 227.251 18.1765 229.441 13.1683 230.27C10.6347 239.772 8.69032 249.333 7.6003 259.16C12.3728 256.674 17.7051 255.134 22.625 253.003C27.4859 250.901 32.7298 247.231 38.0915 247.083C39.0048 247.083 39.8297 248.267 39.211 249.096C35.9704 253.477 30.1667 255.341 25.2764 257.325C19.5316 259.693 13.4334 262.327 7.21732 262.801C6.56919 269.994 6.39243 277.364 6.77542 284.942C36.4712 276.713 58.2128 256.2 78.6876 234C78.5992 233.881 78.4813 233.792 78.4224 233.644C71.7644 219.821 71.2047 204.162 71.8528 188.977C72.5009 173.082 72.9428 156.742 81.1033 142.8C81.7809 141.646 83.7842 142.416 83.2833 143.748C73.2669 169.441 72.3536 204.517 81.8398 230.595C85.8464 226.215 89.8235 221.775 93.8006 217.364C96.5404 214.345 100.635 218.755 98.1607 221.834C98.1607 221.834 98.1312 221.893 98.1018 221.893C100.989 230.862 104.907 239.653 109.473 247.823C113.833 255.667 120.197 262.238 124.498 269.994C126.619 265.613 128.829 261.262 131.392 257.236C131.893 256.437 133.071 256.97 132.865 257.887C131.303 265.672 128.004 273.339 124.675 280.68C134.456 278.696 145.208 275.973 154.754 276.772C157.11 276.979 157.405 279.999 155.284 280.857C150.423 282.811 144.855 283.847 139.199 284.587C143.912 287.428 148.213 291.306 152.603 294.414C159.467 299.269 166.508 303.798 173.402 308.593C173.873 308.918 174.168 309.362 174.374 309.806C175.111 310.102 175.847 310.458 176.495 310.872C183.683 306.61 191.549 303.354 199.15 300.186C204.188 298.085 217.062 289.885 222.453 295.717C227.815 301.518 221.599 313.803 219.006 319.427C218.122 321.351 217.18 323.304 216.207 325.258C239.245 333.132 262.371 337.72 286.912 336.447C313.043 335.085 335.226 326.472 359.501 317.917C360.12 317.118 361.092 316.615 362.359 317.029C370.284 319.545 378.533 322.327 385.986 326.235C386.133 320.196 386.163 314.099 386.487 308.06C383.953 309.155 381.007 305.485 383.246 302.85C418.539 261.587 435.921 206.205 426.435 151.621C422.045 126.461 412.206 102.514 398.183 81.4089H398.153ZM190.4 60.3629C194.996 61.2805 199.533 62.4941 203.923 64.2702C207.31 65.6318 211.464 66.875 213.438 70.1607C214.292 71.5815 213.173 73.3871 211.612 73.4167C207.87 73.5055 204.394 70.6935 200.947 69.3023C198.355 68.2662 195.733 67.4078 193.052 66.6678C194.053 72.8247 194.495 79.1 193.435 85.2569C193.052 87.477 190.135 86.6186 189.929 84.7833C189.104 77.7088 188.751 70.6935 187.16 63.7078C186.688 61.5765 188.426 59.9781 190.43 60.3629H190.4ZM235.946 175.568C229.553 211.296 164.888 207.685 140.907 202.297C138.816 201.824 138.109 199.633 138.521 197.798C138.403 197.68 138.285 197.561 138.256 197.354C133.277 172.046 139.523 144.902 148.596 121.31C149.068 120.038 150.128 118.883 151.601 118.972C173.196 120.334 194.053 126.757 212.436 138.656C224.486 146.441 238.921 159.14 235.975 175.598L235.946 175.568ZM291.036 47.2499C290.211 46.3915 286.529 41.7738 284.29 40.2346C282.434 47.3683 280.254 54.206 277.278 60.9549C276.512 62.7013 274.038 61.3989 274.391 59.7117C276.1 51.8972 278.015 44.1122 279.694 36.2681C279.9 35.3505 280.725 34.5513 281.579 34.3145C285.91 33.2192 288.502 36.3569 291.478 39.1689C295.102 42.6026 299.756 46.1251 302.113 50.6243C303.321 52.9332 300.876 55.6268 298.578 54.2652C295.602 52.5188 293.422 49.6771 291.007 47.2203L291.036 47.2499ZM309.773 150.289C304.323 153.427 297.105 149.934 295.926 143.659C294.66 136.851 300.257 131.049 306.827 132.884C307.092 132.943 307.269 133.091 307.445 133.269C308.476 133.387 309.508 133.713 310.45 134.335C316.195 138.064 315.517 146.974 309.773 150.289ZM356.938 204.991C344.83 204.31 327.979 203.008 325.711 187.912C325.534 186.787 326.918 186.402 327.36 187.438C332.398 199.722 348.13 199.841 359.059 199.397C370.166 198.953 378.857 195.874 383.659 185.04C385.014 181.962 388.991 184.359 388.549 187.172C386.133 202.238 369.429 205.731 356.938 204.991ZM402.631 141.172C401.276 147.832 393.056 149.579 388.578 145.02C386.457 142.86 385.809 139.455 386.87 136.614C388.078 133.417 390.7 131.463 393.97 131.049C394.235 131.019 394.47 131.049 394.706 131.108C396.474 130.723 398.477 131.197 400.009 132.559C402.395 134.631 403.25 138.064 402.631 141.143V141.172Z" fill="white"/>
<path d="M381.857 302.872L382.457 302.171C390.481 292.79 397.519 282.648 403.599 271.975C404.84 265.957 404.866 259.956 403.067 254.563L403.067 254.561C400.62 247.185 395.704 242.665 389.616 240.047C383.493 237.414 376.172 236.704 369.005 237.041L369.004 237.041C354.923 237.688 341.083 240.686 327.233 244.117C324.28 244.849 321.325 245.6 318.367 246.352C307.48 249.122 296.553 251.901 285.543 253.723L285.543 253.724C224.394 263.827 155.402 261.542 101.284 227.778C103.826 234.541 106.897 241.124 110.377 247.366L110.377 247.367C112.52 251.221 115.16 254.773 117.84 258.375L117.869 258.414C120.152 261.482 122.464 264.589 124.453 267.896C126.331 264.077 128.315 260.283 130.576 256.731C131.121 255.867 132.096 255.707 132.831 256.035C133.55 256.356 134.083 257.16 133.873 258.123C132.414 265.391 129.471 272.532 126.422 279.335C127.161 279.181 127.906 279.024 128.656 278.866C137.246 277.056 146.506 275.106 154.867 275.806L154.871 275.806C156.545 275.953 157.566 277.149 157.721 278.485C157.873 279.797 157.188 281.207 155.689 281.814L155.686 281.815C151.489 283.502 146.803 284.512 142.033 285.233C143.62 286.313 145.159 287.474 146.664 288.64C147.196 289.051 147.722 289.462 148.245 289.871C149.919 291.178 151.556 292.456 153.211 293.628C156.988 296.3 160.775 298.843 164.573 301.393C167.708 303.499 170.851 305.609 174.003 307.802C174.523 308.162 174.876 308.615 175.124 309.052C175.598 309.255 176.074 309.483 176.529 309.739C183.518 305.658 191.105 302.497 198.39 299.462L198.795 299.293C198.795 299.293 198.795 299.293 198.795 299.293C199.654 298.935 200.744 298.395 202.023 297.762C202.565 297.493 203.142 297.208 203.75 296.912C205.759 295.935 208.051 294.874 210.368 294.063C212.676 293.254 215.074 292.669 217.285 292.689C219.515 292.709 221.629 293.35 223.217 295.068L223.217 295.068C226.285 298.387 225.923 303.4 224.708 307.927C223.614 312.004 221.724 316.055 220.417 318.857C220.249 319.217 220.09 319.557 219.945 319.874M381.857 302.872L216.685 324.384C217.499 322.732 218.288 321.084 219.036 319.456L219.944 319.875C219.944 319.875 219.944 319.874 219.945 319.874M381.857 302.872L381.984 302.999C381.137 304.545 381.444 306.247 382.286 307.455C382.982 308.454 384.154 309.25 385.455 309.291M381.857 302.872L385.455 309.291M219.945 319.874C219.21 321.472 218.437 323.089 217.64 324.708C240.237 332.329 262.894 336.723 286.89 335.478C310.651 334.24 331.125 326.969 353.077 319.172C355.019 318.482 356.972 317.789 358.941 317.095C359.316 316.678 359.793 316.319 360.375 316.108C361.078 315.853 361.866 315.837 362.695 316.107C370.123 318.465 377.9 321.077 385.052 324.649C385.078 323.454 385.1 322.256 385.123 321.054C385.196 317.143 385.27 313.204 385.455 309.291M219.945 319.874L385.455 309.291" fill="white" stroke="black" stroke-width="2"/>
<path d="M340.736 314.839C329.806 313.714 318.788 313.063 307.917 311.346C277.514 306.581 246.11 297.227 218.417 283.729C185.275 267.567 154.666 243.028 139.494 208.425C127.209 180.453 125.323 149.106 133.778 119.742C137.785 105.8 143.707 92.5096 151.101 80.1366C143.648 79.4854 136.017 76.3773 128.564 74.2461C130.184 83.7183 131.039 92.8352 131.274 102.603C131.274 103.699 129.684 103.906 129.418 102.87C128.888 100.561 128.387 98.2225 127.857 95.9137C117.134 122.613 102.462 147.685 92.1219 174.71C91.5916 176.131 89.441 175.598 89.8534 174.059C91.2086 169.293 92.6227 164.439 94.0957 159.525C94.0368 159.466 93.9779 159.466 93.9484 159.407C83.1071 143.748 76.1545 127.261 62.3082 113.556C48.9039 100.295 33.3489 90.408 15.9675 83.8367C13.699 91.9768 12.1671 100.176 11.3128 108.375C22.9495 107.754 34.9692 117.078 44.367 122.909C46.5471 124.271 44.6322 127.586 42.3637 126.402C37.2966 123.768 32.3767 120.808 27.4274 117.936C22.213 114.917 17.0869 111.217 11.0771 110.655C10.1049 121.311 10.2522 131.967 11.519 142.534C14.1999 142.209 17.9413 144.192 19.9446 144.991C25.6598 147.33 33.2016 149.994 36.9431 155.203C37.7679 156.358 36.4128 157.69 35.2638 157.453C31.2573 156.595 27.781 153.694 24.1574 151.77C22.8906 151.089 14.8774 146.383 11.9903 145.909C14.2882 161.893 19.1786 177.581 26.632 192.5C27.8104 194.868 25.8366 196.999 23.8922 197.088C20.4749 206.383 17.3815 215.5 14.7301 224.617C18.2654 222.752 21.9773 221.153 25.4831 219.259C30.1378 216.743 34.7041 212.628 39.8007 211.296C41.5978 210.823 43.5716 212.984 42.3637 214.73C39.0053 219.585 32.6419 222.397 27.5158 224.972C22.979 227.251 18.177 229.442 13.1687 230.27C10.6352 239.772 8.69081 249.333 7.60079 259.16C12.3733 256.674 17.7056 255.135 22.6254 253.004C27.4864 250.902 32.7303 247.232 38.092 247.083C39.0053 247.083 39.8302 248.268 39.2115 249.096C35.9709 253.477 30.1672 255.342 25.2769 257.325C19.5321 259.693 13.4339 262.328 7.21781 262.801C6.56968 269.994 6.39292 277.365 6.7759 284.943C36.4717 276.714 58.2133 256.2 78.688 234C78.5997 233.882 78.4818 233.793 78.4229 233.645C71.7649 219.821 71.2052 204.163 71.8533 188.978C72.5014 173.082 72.9433 156.743 81.1038 142.801C81.7814 141.646 83.7847 142.416 83.2838 143.748C73.2674 169.441 72.3541 204.518 81.8403 230.596C85.8469 226.215 89.824 221.775 93.8011 217.365C96.5409 214.345 100.636 218.756 98.1612 221.834C98.1612 221.834 98.1317 221.893 98.1023 221.893C100.989 230.862 104.908 239.654 109.474 247.824C113.834 255.668 120.197 262.239 124.499 269.994C126.62 265.613 128.829 261.262 131.392 257.236C131.893 256.437 133.071 256.97 132.865 257.888C131.304 265.673 128.004 273.339 124.675 280.68C134.456 278.697 145.209 275.974 154.754 276.773C157.111 276.98 157.405 279.999 155.284 280.858C150.423 282.811 144.855 283.847 139.199 284.587C143.913 287.429 148.214 291.307 152.603 294.415C159.468 299.269 166.509 303.798 173.402 308.593C173.874 308.919 174.168 309.363 174.375 309.807C175.111 310.103 175.848 310.458 176.496 310.873C183.684 306.61 191.55 303.354 199.15 300.187C204.188 298.085 217.062 289.886 222.453 295.717C227.815 301.519 221.599 313.803 219.007 319.427C218.123 321.351 217.18 323.305 216.208 325.258C239.246 333.132 262.372 337.72 286.912 336.447C313.043 335.086 335.227 326.472 359.502 317.918C359.649 317.71 359.826 317.562 360.003 317.414C353.639 316.289 347.188 315.52 340.736 314.869V314.839Z" fill="white"/>
<path d="M340.736 314.839C329.806 313.714 318.788 313.063 307.917 311.346C277.514 306.58 246.11 297.226 218.417 283.729C202.096 275.766 186.394 265.761 172.843 253.536C146.77 248.77 121.7 239.831 99.3101 225.356C102.05 233.141 105.497 240.719 109.474 247.853C113.834 255.697 120.197 262.268 124.498 270.024C126.62 265.643 128.829 261.291 131.392 257.266C131.893 256.467 133.071 256.999 132.865 257.917C131.304 265.702 128.004 273.368 124.675 280.709C134.456 278.726 145.209 276.003 154.754 276.802C157.111 277.009 157.405 280.029 155.284 280.887C150.423 282.841 144.855 283.877 139.199 284.617C143.913 287.458 148.214 291.336 152.603 294.444C159.468 299.299 166.509 303.827 173.402 308.623C173.874 308.948 174.168 309.392 174.374 309.836C175.111 310.132 175.847 310.488 176.496 310.902C183.684 306.639 191.55 303.383 199.15 300.216C204.188 298.115 217.062 289.915 222.453 295.746C227.815 301.548 221.599 313.832 219.007 319.456C218.123 321.381 217.18 323.334 216.208 325.288C239.246 333.162 262.372 337.75 286.912 336.477C313.043 335.115 335.227 326.501 359.502 317.947C359.649 317.74 359.826 317.592 360.003 317.444C353.639 316.319 347.188 315.549 340.736 314.898V314.839Z" fill="white"/>
<path d="M206.692 143.304C197.235 137.443 187.042 132.944 176.407 129.895C172.283 128.711 167.922 127.349 163.651 126.994C155.49 126.313 153.958 126.994 150.629 133.18C148.95 136.318 147.624 139.663 146.534 143.126C149.156 142.564 151.778 142.357 154.518 142.564C157.287 142.771 160.616 143.008 162.679 145.021C163.533 145.85 163.179 147.596 161.942 147.833C159.438 148.336 157.022 147.3 154.518 146.915C151.602 146.442 148.626 146.264 145.651 146.116C144.384 150.852 143.53 155.795 142.94 160.798C150.07 159.821 157.641 159.051 164.593 159.821C166.656 160.058 167.539 163.462 165.124 163.906C157.906 165.149 149.981 164.853 142.528 164.291C142.145 168.346 141.85 172.401 141.644 176.427C150.099 175.568 159.114 175.332 167.392 176.989C169.602 177.433 168.895 180.66 166.891 180.808C158.554 181.37 149.834 180.453 141.497 179.535C141.232 184.893 140.996 190.132 140.583 195.105C140.966 194.986 141.379 194.927 141.85 194.986C162.649 197.68 183.389 198.479 203.923 193.092C214.97 190.191 226.224 185.958 227.933 173.141C229.848 158.785 217.533 149.934 206.721 143.245L206.692 143.304Z" fill="white"/>
<path d="M429.676 138.39C433.27 135.46 436.599 132.381 439.869 129.155C435.509 128.918 431.149 128.622 426.818 128C427.879 131.464 428.851 134.957 429.676 138.39Z" fill="white"/>
<path d="M411.705 272.51C415.977 271.948 420.484 272.007 424.844 271.948C422.488 267.952 420.19 263.897 417.921 259.841C416.006 264.133 413.973 268.396 411.735 272.51H411.705Z" fill="white"/>
<path d="M236.152 12.6475C234.238 11.1378 232.323 9.59861 230.437 8.02979C229.524 11.6706 228.64 15.3707 227.58 18.982C231.675 17.7684 235.77 16.6731 239.923 15.7259C238.657 14.6603 237.419 13.5947 236.152 12.6179V12.6475Z" fill="white"/>
<path d="M405.224 70.0725C406.343 66.8756 407.433 63.6788 408.523 60.4819C406.078 61.2515 403.633 61.9916 401.217 62.7612C399.067 63.4124 396.887 64.2116 394.707 64.7444C397.564 68.3853 400.245 72.2037 402.808 76.111C403.574 74.039 404.517 72.0261 405.224 70.0725Z" fill="white"/>
<path d="M215.236 300.364C213.674 299.565 206.427 303.65 204.306 304.479C199.121 306.551 193.995 308.8 188.898 311.109C182.211 314.158 175.759 317.621 168.689 319.664C168.453 319.723 168.217 319.693 168.011 319.664C168.6 319.901 169.131 320.345 169.307 321.085C170.044 324.37 171.163 327.508 172.666 330.409C177.409 325.91 183.065 321.203 189.193 319.605C190.342 319.309 191.491 320.937 190.43 321.795C187.691 324.074 184.421 325.584 181.416 327.508C178.853 329.166 176.348 330.853 173.874 332.599C175.612 335.53 177.763 338.164 180.237 340.443C182.005 338.253 183.89 336.181 186.011 334.257C188.28 332.214 190.843 329.402 194.025 329.225C194.525 329.195 194.997 329.787 194.82 330.29C193.759 333.221 190.813 334.967 188.604 336.921C186.571 338.727 184.538 340.532 182.476 342.338C185.982 345.061 190.018 347.074 194.496 348.11C194.555 347.844 194.643 347.607 194.82 347.34C196.44 344.883 202.597 336.891 208.165 328.1C207.753 326.294 208.99 324.074 210.817 323.749C216.827 313.477 220.922 303.236 215.206 300.305L215.236 300.364Z" fill="white"/>
<path d="M276.159 344.528C273.302 349.59 269.383 354.326 265.554 358.589C264.876 359.329 263.727 358.381 264.228 357.523C266.791 353.053 269.619 348.406 272.977 344.41C268.529 344.232 264.11 343.936 259.72 343.433C256.627 349.442 252.915 353.556 259.661 359.121C262.961 361.845 270.09 362.91 274.244 363.265C287.295 364.39 288.65 353.793 292.097 344.203C286.794 344.558 281.491 344.676 276.189 344.558L276.159 344.528Z" fill="white"/>
<path d="M212.407 138.627C194.024 126.728 173.196 120.304 151.572 118.943C150.099 118.854 149.068 120.008 148.567 121.281C139.493 144.873 133.218 172.017 138.227 197.325C138.256 197.532 138.403 197.621 138.492 197.769C138.109 199.634 138.786 201.795 140.878 202.268C164.859 207.656 229.524 211.267 235.916 175.539C238.862 159.081 224.427 146.382 212.378 138.598L212.407 138.627ZM227.903 173.201C226.195 186.018 214.941 190.25 203.893 193.151C183.389 198.539 162.62 197.739 141.821 195.046C141.349 194.987 140.937 195.046 140.554 195.164C140.966 190.191 141.202 184.952 141.467 179.594C149.834 180.512 158.554 181.4 166.862 180.867C168.865 180.749 169.572 177.493 167.363 177.049C159.084 175.391 150.07 175.628 141.615 176.486C141.85 172.461 142.115 168.376 142.498 164.35C149.952 164.883 157.877 165.208 165.094 163.965C167.51 163.551 166.626 160.117 164.564 159.88C157.611 159.111 150.04 159.88 142.911 160.857C143.5 155.825 144.354 150.882 145.621 146.175C148.597 146.323 151.572 146.53 154.489 146.974C156.993 147.389 159.379 148.425 161.913 147.892C163.12 147.655 163.503 145.909 162.649 145.08C160.557 143.067 157.258 142.83 154.489 142.623C151.749 142.416 149.127 142.623 146.505 143.186C147.595 139.722 148.921 136.378 150.6 133.24C153.899 127.053 155.461 126.343 163.621 127.053C167.893 127.409 172.253 128.77 176.377 129.954C187.013 133.003 197.206 137.502 206.662 143.363C217.445 150.053 229.789 158.903 227.874 173.26L227.903 173.201Z" fill="black"/>
<path d="M445.525 124.419C438.897 124.3 432.298 124.034 425.728 124.596C421.073 110.122 414.681 95.6175 406.667 82.2676C408.435 79.3964 409.289 75.7259 410.409 72.6179C412.235 67.4674 413.974 62.2873 415.476 57.0184C416.036 55.0944 414.121 52.8743 412.147 53.6144C407.787 55.2424 403.397 56.8704 399.037 58.528C396.622 59.4457 394.206 60.1857 391.967 61.3697C380.477 47.3982 366.896 35.854 351.518 28.5723C351.312 21.409 349.898 13.9497 348.985 7.40796C348.66 5.12872 345.626 4.77351 344.271 6.13513C339.616 10.6936 334.696 15.1337 330.218 19.929C329.894 19.337 329.364 18.8042 328.539 18.5673C302.29 10.7824 274.716 9.42079 247.936 14.1865C245.727 12.0552 243.017 10.3384 240.63 8.50317C237.272 5.92793 233.943 3.26388 230.319 1.07345C228.964 0.244631 226.902 0.984644 226.548 2.64227C225.252 8.62158 223.367 14.6009 222.336 20.669C194.231 29.9339 161.972 46.7766 145.179 72.3219C138.934 70.1018 131.834 69.0362 125.913 67.8226C123.821 67.3786 122.112 69.0954 122.554 71.2859C123.909 77.8868 125.323 84.4285 126.796 90.9702C126.001 90.9702 125.147 91.2366 124.616 91.947C111.006 110.388 102.168 133.684 95.1562 156.358C88.999 118.173 47.4013 87.1517 14.6122 75.7555C12.8152 75.1339 10.8119 76.4956 10.311 78.2716C-0.412435 117.374 3.15224 158.193 20.8872 194.483C2.85764 221.36 -1.82652 257.325 0.589209 289.234C0.73651 291.425 2.50412 292.934 4.68417 292.431C43.0707 283.462 71.5586 254.543 96.0694 224.468C100.253 242.258 107.942 263.837 122.554 274.109C121.169 277.039 119.785 279.969 118.312 282.811C117.546 284.321 118.459 286.866 120.433 286.6C124.498 286.067 128.859 285.712 133.278 285.268C137.225 290.685 143.441 294.592 148.685 298.499C155.756 303.798 163.062 308.948 170.662 313.388C171.104 313.655 171.517 313.744 171.929 313.773C170.338 314.898 168.806 316.052 167.333 317.296C166.538 317.977 166.95 319.131 167.746 319.545C166.391 319.19 164.682 319.989 164.918 321.677C167.039 338.164 180.561 349.856 196.175 351.159C197.088 351.543 198.149 351.484 198.944 350.655C204.424 345.12 209.02 338.43 212.967 331.415C225.871 336.891 240.336 340.739 255.301 342.841C251.737 346.245 248.643 351.81 249.115 356.428C249.851 363.473 260.251 365.959 265.465 367.646C272.477 369.925 281.874 371.287 288.208 366.373C294.13 361.756 296.899 351.366 298.166 343.759C320.644 341.42 342.268 334.553 359.826 322.18C360.091 322.387 360.386 322.594 360.798 322.713C369.695 325.347 378.386 328.781 387.312 331.267C388.491 331.593 389.757 330.646 389.728 329.373C389.581 321.321 389.728 313.181 389.315 305.159C397.063 296.161 403.839 286.393 409.702 276.062C415.888 277.098 422.753 276.477 428.91 276.684C430.795 276.743 431.709 274.612 430.943 273.073C427.702 266.472 424.167 260.048 420.661 253.595C433.005 223.284 437.689 189.717 433.24 156.979C432.681 152.894 431.915 148.691 431.031 144.488C437.306 140.166 443.345 134.483 447.646 128.237C448.766 126.639 447.263 124.508 445.555 124.478L445.525 124.419ZM401.217 62.7609C403.663 62.0209 406.108 61.2513 408.523 60.4817C407.433 63.6785 406.343 66.8754 405.224 70.0722C404.546 72.0259 403.604 74.0683 402.808 76.1107C400.245 72.2035 397.535 68.385 394.707 64.7441C396.916 64.2113 399.067 63.4121 401.217 62.7609ZM230.437 8.05917C232.322 9.62799 234.237 11.1672 236.152 12.6768C237.39 13.6537 238.656 14.7193 239.923 15.7849C235.769 16.7321 231.674 17.7977 227.579 19.041C228.64 15.4297 229.524 11.7296 230.437 8.08877V8.05917ZM210.846 323.808C209.02 324.133 207.782 326.353 208.195 328.159C202.627 336.95 196.47 344.943 194.849 347.399C194.672 347.666 194.614 347.903 194.525 348.169C190.047 347.103 186.011 345.091 182.505 342.397C184.538 340.591 186.571 338.786 188.633 336.98C190.872 335.026 193.789 333.28 194.849 330.35C195.026 329.846 194.555 329.225 194.054 329.284C190.872 329.491 188.309 332.274 186.041 334.316C183.92 336.24 182.064 338.312 180.266 340.503C177.821 338.223 175.671 335.589 173.903 332.658C176.378 330.882 178.882 329.195 181.445 327.567C184.45 325.643 187.69 324.133 190.46 321.854C191.491 320.996 190.371 319.368 189.222 319.664C183.065 321.262 177.438 325.969 172.695 330.468C171.193 327.537 170.073 324.4 169.337 321.144C169.16 320.404 168.659 319.96 168.041 319.723C168.247 319.782 168.482 319.812 168.718 319.723C175.789 317.68 182.211 314.217 188.928 311.168C194.024 308.86 199.15 306.61 204.335 304.538C206.427 303.709 213.674 299.624 215.265 300.423C221.01 303.324 216.915 313.596 210.876 323.867L210.846 323.808ZM274.215 363.236C270.061 362.881 262.902 361.785 259.632 359.092C252.886 353.527 256.598 349.412 259.691 343.403C264.081 343.907 268.529 344.203 272.948 344.38C269.59 348.406 266.761 353.024 264.198 357.493C263.727 358.322 264.876 359.299 265.524 358.559C269.324 354.296 273.243 349.59 276.13 344.499C281.433 344.617 286.765 344.499 292.038 344.143C288.621 353.704 287.236 364.301 274.185 363.206L274.215 363.236ZM424.844 271.948C420.514 272.007 415.977 271.948 411.705 272.51C413.944 268.366 415.977 264.133 417.892 259.841C420.16 263.896 422.458 267.952 424.815 271.948H424.844ZM383.217 302.821C380.978 305.426 383.895 309.126 386.458 308.031C386.134 314.069 386.104 320.137 385.957 326.205C378.474 322.328 370.225 319.516 362.33 317C361.093 316.615 360.091 317.089 359.472 317.888C335.197 326.442 313.043 335.056 286.883 336.418C262.342 337.69 239.246 333.102 216.178 325.229C217.151 323.275 218.093 321.351 218.977 319.397C221.54 313.773 227.786 301.489 222.424 295.687C217.062 289.886 204.159 298.055 199.121 300.157C191.55 303.324 183.654 306.551 176.466 310.843C175.818 310.428 175.081 310.073 174.345 309.777C174.139 309.333 173.874 308.919 173.373 308.564C166.479 303.768 159.438 299.239 152.574 294.385C148.184 291.277 143.883 287.399 139.17 284.558C144.826 283.847 150.364 282.811 155.255 280.828C157.376 279.969 157.052 276.95 154.725 276.743C145.179 275.944 134.456 278.667 124.646 280.65C127.975 273.309 131.274 265.643 132.836 257.858C133.012 256.94 131.863 256.407 131.363 257.207C128.8 261.232 126.59 265.554 124.469 269.964C120.168 262.209 113.804 255.638 109.444 247.794C104.907 239.624 100.989 230.833 98.0727 221.864C98.0727 221.864 98.1022 221.834 98.1317 221.804C100.606 218.726 96.5113 214.316 93.7716 217.335C89.7944 221.745 85.8173 226.156 81.8107 230.566C72.3246 204.518 73.2379 169.441 83.2543 143.718C83.7551 142.416 81.7518 141.617 81.0742 142.771C72.9138 156.713 72.4719 173.052 71.8238 188.948C71.2051 204.103 71.7354 219.762 78.3934 233.615C78.4818 233.763 78.5701 233.852 78.6585 233.97C58.1543 256.171 36.4127 276.684 6.74637 284.913C6.36339 277.335 6.56961 269.965 7.18828 262.772C13.4338 262.328 19.5026 259.664 25.2473 257.295C30.1377 255.283 35.9119 253.447 39.182 249.067C39.8006 248.238 38.9463 247.024 38.0625 247.054C32.6713 247.202 27.4568 250.872 22.5959 252.974C17.6761 255.105 12.3733 256.674 7.57126 259.131C8.66128 249.303 10.6056 239.742 13.1392 230.241C18.1474 229.412 22.9789 227.221 27.4863 224.942C32.6124 222.367 38.9757 219.555 42.3342 214.7C43.5421 212.954 41.5682 210.793 39.7712 211.267C34.6746 212.599 30.1082 216.743 25.4535 219.229C21.9478 221.094 18.2358 222.722 14.7006 224.587C17.3226 215.47 20.4453 206.353 23.8627 197.058C25.8071 196.97 27.7809 194.838 26.6025 192.47C19.1491 177.552 14.2882 161.863 11.9608 145.879C14.8479 146.353 22.8611 151.059 24.1278 151.74C27.7514 153.664 31.2277 156.535 35.2343 157.423C36.3833 157.66 37.7384 156.328 36.9135 155.174C33.1721 149.964 25.6303 147.3 19.915 144.962C17.9412 144.133 14.1703 142.179 11.4895 142.505C10.2227 131.967 10.0459 121.281 11.0476 110.625C17.0869 111.158 22.2129 114.887 27.3979 117.907C32.3472 120.778 37.2671 123.738 42.3342 126.372C44.6026 127.556 46.5175 124.241 44.3375 122.88C34.9397 117.019 22.9494 107.724 11.2832 108.346C12.167 100.146 13.699 91.9174 15.9379 83.8069C33.3194 90.3782 48.8743 100.265 62.2787 113.526C76.1249 127.231 83.0775 143.718 93.9189 159.377C93.9483 159.436 94.0367 159.466 94.0662 159.495C92.5931 164.409 91.1791 169.264 89.8239 174.029C89.382 175.539 91.5326 176.072 92.0923 174.68C102.403 147.655 117.104 122.584 127.827 95.8839C128.358 98.1927 128.859 100.531 129.389 102.84C129.625 103.906 131.245 103.669 131.245 102.574C131.009 92.835 130.155 83.7181 128.534 74.2163C136.194 76.4067 144.06 79.6332 151.72 80.166C154.047 80.314 154.489 77.1172 152.839 75.9923C151.396 74.9859 149.746 74.1571 148.067 73.4171C159.291 64.5369 169.543 54.5616 181.681 46.747C194.672 38.3701 208.637 31.7692 223.219 26.9739C223.838 27.0923 224.486 26.9739 224.869 26.4411C225.753 26.1451 226.637 25.8491 227.52 25.5827C259.838 15.8145 293.865 15.5185 326.448 24.1322C325.564 25.1979 324.739 26.2931 323.914 27.3883C322.971 28.7203 324.798 30.4372 326.065 29.6083C332.605 25.3163 338.32 19.7218 344.006 14.2457C344.654 22.9778 344.86 32.3908 347.688 40.2645C348.16 41.5669 350.045 41.7445 350.428 40.2645C351.047 37.8669 351.371 35.3212 351.489 32.746C368.369 48.0791 385.103 61.8137 398.124 81.3796C412.147 102.455 422.016 126.432 426.376 151.592C435.862 206.175 418.481 261.528 383.188 302.821H383.217ZM429.676 138.39C428.821 134.927 427.849 131.464 426.818 128C431.149 128.622 435.509 128.918 439.869 129.155C436.599 132.411 433.27 135.46 429.676 138.39Z" fill="black"/>
<path d="M213.409 70.1613C211.465 66.8757 207.282 65.6324 203.894 64.2708C199.534 62.4948 194.997 61.2812 190.371 60.3636C188.368 59.9787 186.63 61.5772 187.101 63.7084C188.692 70.6941 189.046 77.6799 189.871 84.784C190.077 86.6192 192.993 87.5072 193.376 85.2576C194.437 79.1007 193.995 72.8254 192.993 66.6685C195.674 67.4085 198.296 68.2669 200.889 69.3029C204.306 70.6941 207.812 73.4766 211.553 73.4174C213.115 73.3878 214.205 71.6117 213.38 70.1613H213.409Z" fill="black"/>
<path d="M302.143 50.6546C299.786 46.1553 295.131 42.6329 291.508 39.1992C288.532 36.3576 285.94 33.2495 281.609 34.3447C280.725 34.5519 279.9 35.3808 279.724 36.2984C278.045 44.1425 276.13 51.8978 274.421 59.742C274.038 61.4292 276.542 62.7316 277.308 60.9852C280.254 54.2363 282.464 47.369 284.32 40.2648C286.558 41.7745 290.212 46.4217 291.066 47.2802C293.482 49.737 295.662 52.5787 298.637 54.3251C300.935 55.6867 303.41 52.9931 302.172 50.6842L302.143 50.6546Z" fill="black"/>
<path d="M310.451 134.335C309.508 133.714 308.477 133.388 307.446 133.27C307.269 133.092 307.092 132.944 306.827 132.885C300.258 131.05 294.631 136.851 295.927 143.659C297.105 149.905 304.294 153.428 309.773 150.29C315.518 146.975 316.225 138.065 310.451 134.335Z" fill="black"/>
<path d="M400.009 132.559C398.448 131.197 396.445 130.724 394.706 131.109C394.471 131.079 394.235 131.02 393.97 131.049C390.7 131.464 388.078 133.388 386.87 136.614C385.81 139.456 386.458 142.86 388.579 145.021C393.057 149.579 401.276 147.833 402.631 141.173C403.25 138.094 402.396 134.661 400.009 132.589V132.559Z" fill="black"/>
<path d="M383.659 185.041C378.857 195.875 370.166 198.953 359.06 199.397C348.13 199.841 332.398 199.723 327.361 187.439C326.948 186.403 325.534 186.787 325.711 187.912C327.979 203.009 344.831 204.311 356.939 204.992C369.43 205.702 386.134 202.239 388.549 187.172C388.991 184.39 385.014 181.992 383.659 185.041Z" fill="black"/>
</g>
<defs>
<clipPath id="clip0_1396_12031">
<rect width="448" height="369" fill="white" transform="translate(0 0.718262)"/>
</clipPath>
</defs>
</svg>
