<svg width="187" height="154" viewBox="0 0 187 154" fill="none" xmlns="http://www.w3.org/2000/svg">
<g clip-path="url(#clip0_1005_17620)">
<path d="M166.193 33.6757C160.758 25.4976 153.761 19.7779 146.727 13.3787C146.678 14.4658 146.543 15.5159 146.285 16.5165C146.125 17.1342 145.325 17.0601 145.141 16.5165C143.96 13.2305 143.874 9.31438 143.604 5.65771C141.231 7.94313 138.845 10.2903 136.115 12.0692C135.586 12.4151 134.824 11.6986 135.217 11.1427C135.549 10.6733 135.906 10.2285 136.275 9.78382C122.687 6.20127 108.484 6.32481 94.9817 10.3891C94.6128 10.5003 94.2439 10.6239 93.8749 10.7474C93.7028 10.9574 93.4446 11.0192 93.1863 10.9698C87.0993 12.971 81.2583 15.7259 75.8476 19.222C70.7935 22.4833 66.5142 26.6465 61.8168 30.3526C62.53 30.6614 63.2063 31.0073 63.8089 31.4273C64.4975 31.9091 64.313 33.2433 63.3416 33.1692C60.1444 32.9468 56.8611 31.6003 53.6639 30.6861C54.3402 34.6393 54.6968 38.4442 54.7952 42.5209C54.7952 42.9779 54.1312 43.0644 54.0205 42.632C53.7991 41.6685 53.5901 40.6925 53.3687 39.729C48.8926 50.8719 42.7688 61.3354 38.4525 72.6142C38.2312 73.2072 37.3335 72.9849 37.5057 72.3425C38.0713 70.3535 38.6616 68.3275 39.2764 66.2768C39.2518 66.2521 39.2272 66.2521 39.2149 66.2274C34.6896 59.6924 31.7876 52.8114 26.008 47.0917C20.4129 41.5573 13.9201 37.4312 6.66486 34.6887C5.71799 38.0859 5.07855 41.5079 4.72194 44.9298C9.57924 44.6704 14.5964 48.5618 18.5191 50.9954C19.4291 51.5637 18.6298 52.9473 17.6829 52.4532C15.5679 51.3537 13.5143 50.1183 11.4484 48.92C9.27181 47.66 7.13214 46.1158 4.62356 45.881C4.21776 50.3283 4.27925 54.7756 4.80801 59.1859C5.92704 59.05 7.48875 59.8777 8.32495 60.2112C10.7106 61.1872 13.8586 62.299 15.4203 64.4732C15.7646 64.955 15.199 65.5109 14.7194 65.4121C13.047 65.0538 11.5959 63.8432 10.0834 63.0402C9.55464 62.7561 6.20987 60.7918 5.00477 60.5942C5.96393 67.2651 8.00523 73.8125 11.1164 80.0388C11.6082 81.027 10.7843 81.9165 9.97274 81.9536C8.54629 85.8326 7.25511 89.6375 6.14838 93.4424C7.62402 92.6641 9.17344 91.997 10.6368 91.2064C12.5797 90.1564 14.4857 88.4392 16.6131 87.8833C17.3632 87.6856 18.1871 88.5875 17.6829 89.3163C16.2811 91.3423 13.6249 92.5159 11.4853 93.5907C9.59154 94.5419 7.58713 95.4561 5.49664 95.802C4.43911 99.7675 3.62751 103.758 3.17252 107.859C5.16463 106.821 7.39038 106.179 9.44397 105.29C11.473 104.412 13.6618 102.881 15.8999 102.819C16.2811 102.819 16.6254 103.313 16.3672 103.659C15.0145 105.487 12.592 106.265 10.5507 107.093C8.15279 108.081 5.60732 109.181 3.01266 109.379C2.74212 112.38 2.66834 115.457 2.8282 118.619C15.2235 115.185 24.2987 106.624 32.8451 97.3585C32.8082 97.3091 32.759 97.272 32.7344 97.2103C29.9553 91.4411 29.7217 84.9061 29.9922 78.5687C30.2627 71.9348 30.4472 65.1156 33.8535 59.2971C34.1363 58.8153 34.9725 59.1365 34.7634 59.6924C30.5825 70.4153 30.2013 85.0543 34.1609 95.9378C35.8333 94.1095 37.4934 92.2565 39.1534 90.4158C40.2971 89.1557 42.0063 90.9964 40.9734 92.2812C40.9734 92.2812 40.9611 92.3059 40.9488 92.3059C42.1539 96.049 43.7894 99.718 45.6954 103.128C47.5154 106.401 50.1715 109.144 51.9669 112.38C52.8523 110.552 53.7745 108.736 54.8444 107.056C55.0534 106.723 55.5453 106.945 55.4592 107.328C54.8075 110.577 53.4302 113.776 52.0407 116.84C56.1233 116.012 60.6117 114.876 64.5959 115.209C65.5796 115.296 65.7026 116.556 64.8172 116.914C62.7882 117.73 60.4641 118.162 58.1031 118.471C60.0706 119.657 61.8659 121.275 63.6982 122.572C66.5634 124.598 69.5024 126.488 72.3799 128.49C72.5766 128.625 72.6996 128.811 72.7857 128.996C73.0931 129.12 73.4005 129.268 73.671 129.441C76.6715 127.662 79.9548 126.303 83.1274 124.981C85.2302 124.104 90.604 120.682 92.8543 123.116C95.0923 125.537 92.4977 130.664 91.4156 133.011C91.0466 133.814 90.6531 134.629 90.2473 135.445C99.8636 138.731 109.517 140.646 119.76 140.114C130.667 139.546 139.927 135.951 150.06 132.381C150.318 132.047 150.724 131.837 151.253 132.01C154.56 133.06 158.004 134.222 161.115 135.852C161.176 133.332 161.189 130.787 161.324 128.267C160.266 128.724 159.037 127.192 159.971 126.093C174.703 108.872 181.958 85.7585 177.999 62.9784C176.166 52.4779 172.059 42.4838 166.206 33.6757H166.193ZM79.4752 24.8923C81.3935 25.2752 83.2873 25.7817 85.1195 26.5229C86.5337 27.0912 88.2675 27.6101 89.0914 28.9813C89.448 29.5743 88.9808 30.3279 88.329 30.3402C86.7673 30.3773 85.3163 29.2037 83.8775 28.6231C82.7954 28.1907 81.701 27.8324 80.5819 27.5236C81 30.0931 81.1845 32.7121 80.7418 35.2817C80.5819 36.2082 79.3645 35.8499 79.2785 35.084C78.9341 32.1315 78.7866 29.2037 78.1225 26.2882C77.9258 25.3988 78.6513 24.7317 79.4875 24.8923H79.4752ZM98.4863 72.9725C95.8179 87.8833 68.826 86.3761 58.8163 84.1278C57.9432 83.9301 57.6481 83.016 57.8202 82.2501C57.7711 82.2006 57.7219 82.1512 57.7096 82.0647C55.6314 71.5024 58.2383 60.1742 62.0258 50.3283C62.2226 49.7971 62.6652 49.3153 63.2801 49.3524C72.2938 49.9207 81 52.6014 88.6733 57.5676C93.7028 60.8165 99.7283 66.1162 98.4986 72.9848L98.4863 72.9725ZM121.482 19.4196C121.137 19.0614 119.6 17.1342 118.666 16.4918C117.891 19.469 116.981 22.3227 115.739 25.1393C115.419 25.8682 114.386 25.3246 114.534 24.6205C115.247 21.3591 116.046 18.1101 116.747 14.8364C116.833 14.4535 117.178 14.1199 117.534 14.0211C119.342 13.564 120.424 14.8735 121.666 16.0471C123.179 17.4801 125.122 18.9502 126.105 20.8279C126.609 21.7915 125.589 22.9157 124.63 22.3474C123.388 21.6186 122.478 20.4326 121.469 19.4073L121.482 19.4196ZM129.303 62.4225C127.028 63.732 124.015 62.2743 123.523 59.6553C122.994 56.814 125.331 54.3927 128.073 55.1586C128.183 55.1833 128.257 55.2451 128.331 55.3192C128.761 55.3686 129.192 55.5045 129.585 55.7639C131.983 57.3205 131.7 61.0389 129.303 62.4225ZM148.99 85.252C143.936 84.9678 136.902 84.4243 135.955 78.124C135.881 77.6545 136.459 77.4939 136.644 77.9263C138.747 83.053 145.313 83.1024 149.875 82.9171C154.511 82.7318 158.139 81.4471 160.143 76.9257C160.709 75.6409 162.369 76.6415 162.185 77.8151C161.176 84.1031 154.204 85.5608 148.99 85.252ZM168.063 58.6176C167.497 61.3972 164.066 62.126 162.197 60.2236C161.312 59.3218 161.041 57.9011 161.484 56.7152C161.988 55.381 163.082 54.5656 164.447 54.3927C164.558 54.3803 164.656 54.3927 164.755 54.4174C165.492 54.2568 166.329 54.4544 166.968 55.0227C167.964 55.8875 168.321 57.3205 168.063 58.6053V58.6176Z" fill="#A381D3"/>
<path d="M159.959 126.081C163.341 122.128 166.304 117.853 168.862 113.357C169.403 110.775 169.428 108.168 168.641 105.809C166.513 99.3971 160.057 97.927 154.007 98.2111C142.165 98.7547 130.766 103.251 119.121 105.179C93.2479 109.453 64.0795 108.39 41.4653 93.7515C42.609 97.0005 44.0477 100.163 45.7078 103.14C47.5277 106.414 50.1839 109.156 51.9792 112.393C52.8646 110.565 53.7869 108.749 54.8567 107.069C55.0658 106.735 55.5577 106.957 55.4716 107.34C54.8198 110.589 53.4426 113.789 52.053 116.853C56.1356 116.025 60.624 114.888 64.6082 115.222C65.592 115.308 65.715 116.569 64.8296 116.927C62.8006 117.742 60.4764 118.175 58.1154 118.483C60.0829 119.669 61.8783 121.288 63.7105 122.585C66.5757 124.611 69.5147 126.501 72.3922 128.502C72.589 128.638 72.7119 128.823 72.798 129.009C73.1054 129.132 73.4128 129.28 73.6834 129.453C76.6838 127.674 79.9671 126.316 83.1398 124.994C85.2425 124.117 90.6163 120.695 92.8666 123.128C95.1047 125.55 92.51 130.676 91.4279 133.024C91.059 133.827 90.6655 134.642 90.2597 135.457C99.8759 138.743 109.529 140.658 119.772 140.127C130.68 139.559 139.939 135.964 150.072 132.394C150.33 132.06 150.736 131.85 151.265 132.023C154.573 133.073 158.016 134.234 161.127 135.865C161.189 133.345 161.201 130.8 161.336 128.28C160.279 128.737 159.049 127.205 159.984 126.106L159.959 126.081Z" fill="white"/>
<path d="M64.0058 31.6253C65.7519 28.8704 67.6702 26.2391 69.7607 23.7437C67.1046 25.9302 64.5222 28.2157 61.8169 30.3528C62.5301 30.6617 63.2065 31.0076 63.809 31.4276C63.8828 31.477 63.9566 31.5511 64.0058 31.6253Z" fill="#A381D3"/>
<path d="M142.227 131.097C137.664 130.627 133.065 130.355 128.528 129.639C115.837 127.65 102.729 123.746 91.1696 118.113C77.3355 111.368 64.559 101.127 58.226 86.6854C53.0982 75.0112 52.3112 61.9288 55.8404 49.674C57.5128 43.8555 59.9845 38.3087 63.0711 33.1449C59.9599 32.8731 56.775 31.576 53.6639 30.6865C54.3402 34.6397 54.6968 38.4446 54.7952 42.5213C54.7952 42.9784 54.1312 43.0648 54.0205 42.6325C53.7991 41.6689 53.5901 40.6929 53.3687 39.7294C48.8927 50.8723 42.7688 61.3358 38.4525 72.6146C38.2312 73.2076 37.3335 72.9853 37.5057 72.3429C38.0713 70.3539 38.6616 68.3279 39.2764 66.2773C39.2518 66.2525 39.2272 66.2525 39.2149 66.2278C34.6896 59.6928 31.7876 52.8118 26.008 47.0921C20.4129 41.5577 13.9201 37.4316 6.66486 34.6891C5.71799 38.0863 5.07855 41.5083 4.72194 44.9302C9.57924 44.6708 14.5964 48.5622 18.5191 50.9958C19.4291 51.5641 18.6298 52.9477 17.6829 52.4536C15.5679 51.3541 13.5143 50.1187 11.4484 48.9204C9.27182 47.6604 7.13214 46.1162 4.62356 45.8815C4.21776 50.3287 4.27925 54.776 4.80802 59.1863C5.92704 59.0504 7.48875 59.8781 8.32495 60.2116C10.7106 61.1876 13.8586 62.2994 15.4203 64.4736C15.7646 64.9554 15.199 65.5113 14.7194 65.4125C13.047 65.0542 11.5959 63.8436 10.0834 63.0406C9.55465 62.7565 6.20987 60.7922 5.00477 60.5946C5.96393 67.2655 8.00523 73.8129 11.1164 80.0392C11.6082 81.0275 10.7843 81.9169 9.97274 81.954C8.54629 85.833 7.25511 89.6379 6.14838 93.4428C7.62402 92.6645 9.17344 91.9974 10.6368 91.2068C12.5797 90.1568 14.4857 88.4396 16.6131 87.8837C17.3632 87.686 18.1871 88.5879 17.6829 89.3167C16.2811 91.3427 13.6249 92.5163 11.4853 93.5911C9.59154 94.5423 7.58713 95.4565 5.49664 95.8024C4.43911 99.7679 3.62751 103.758 3.17252 107.859C5.16463 106.822 7.39038 106.179 9.44397 105.29C11.473 104.413 13.6618 102.881 15.8999 102.819C16.2811 102.819 16.6254 103.313 16.3672 103.659C15.0145 105.488 12.592 106.266 10.5507 107.094C8.15279 108.082 5.60732 109.181 3.01266 109.379C2.74212 112.381 2.66834 115.457 2.8282 118.619C15.2235 115.185 24.2987 106.624 32.8451 97.3589C32.8082 97.3095 32.759 97.2724 32.7344 97.2107C29.9553 91.4415 29.7217 84.9065 29.9922 78.5691C30.2627 71.9352 30.4472 65.116 33.8535 59.2975C34.1363 58.8157 34.9725 59.1369 34.7634 59.6928C30.5825 70.4157 30.2013 85.0547 34.1609 95.9382C35.8333 94.1099 37.4934 92.2569 39.1535 90.4162C40.2971 89.1561 42.0063 90.9968 40.9734 92.2816C40.9734 92.2816 40.9611 92.3063 40.9488 92.3063C42.1539 96.0494 43.7894 99.7185 45.6954 103.128C47.5154 106.402 50.1715 109.144 51.9669 112.381C52.8523 110.553 53.7745 108.737 54.8444 107.056C55.0534 106.723 55.5453 106.945 55.4592 107.328C54.8075 110.577 53.4302 113.777 52.0407 116.841C56.1233 116.013 60.6117 114.876 64.5959 115.21C65.5796 115.296 65.7026 116.556 64.8172 116.915C62.7882 117.73 60.4641 118.162 58.1031 118.471C60.0706 119.657 61.8659 121.275 63.6982 122.573C66.5634 124.599 69.5024 126.489 72.3799 128.49C72.5766 128.626 72.6996 128.811 72.7857 128.996C73.0931 129.12 73.4005 129.268 73.671 129.441C76.6715 127.662 79.9548 126.303 83.1274 124.982C85.2302 124.104 90.604 120.683 92.8543 123.116C95.0924 125.537 92.4977 130.664 91.4156 133.011C91.0466 133.814 90.6531 134.63 90.2473 135.445C99.8636 138.731 109.517 140.646 119.76 140.115C130.667 139.546 139.927 135.952 150.06 132.381C150.121 132.295 150.195 132.233 150.269 132.171C147.613 131.702 144.92 131.381 142.227 131.109V131.097Z" fill="#684CA3"/>
<path d="M142.227 131.096C137.665 130.627 133.066 130.355 128.528 129.639C115.837 127.65 102.729 123.746 91.1698 118.113C84.3572 114.79 77.803 110.614 72.1464 105.512C61.2635 103.523 50.7988 99.7924 41.4531 93.7515C42.5967 97.0005 44.0355 100.163 45.6956 103.14C47.5155 106.414 50.1717 109.156 51.967 112.393C52.8524 110.565 53.7747 108.749 54.8445 107.069C55.0536 106.735 55.5454 106.957 55.4594 107.34C54.8076 110.589 53.4304 113.789 52.0408 116.853C56.1234 116.025 60.6118 114.888 64.596 115.222C65.5798 115.308 65.7027 116.569 64.8174 116.927C62.7884 117.742 60.4642 118.175 58.1032 118.483C60.0707 119.669 61.8661 121.288 63.6983 122.585C66.5635 124.611 69.5025 126.501 72.38 128.502C72.5768 128.638 72.6997 128.823 72.7858 129.009C73.0932 129.132 73.4006 129.28 73.6712 129.453C76.6716 127.674 79.9549 126.316 83.1275 124.994C85.2303 124.117 90.6041 120.695 92.8545 123.128C95.0925 125.55 92.4978 130.676 91.4157 133.024C91.0468 133.827 90.6533 134.642 90.2475 135.457C99.8637 138.743 109.517 140.658 119.76 140.127C130.668 139.559 139.927 135.964 150.06 132.394C150.121 132.307 150.195 132.245 150.269 132.184C147.613 131.714 144.92 131.393 142.227 131.121V131.096Z" fill="white"/>
<path d="M86.2756 59.5072C82.3282 57.0612 78.0735 55.1835 73.6343 53.911C71.9127 53.4169 70.0927 52.8486 68.3097 52.7004C64.9034 52.4163 64.264 52.7004 62.8744 55.2823C62.1735 56.5918 61.6201 57.9877 61.1651 59.4331C62.2596 59.1984 63.354 59.1119 64.4976 59.1984C65.6535 59.2849 67.0431 59.3837 67.9039 60.2237C68.2605 60.5696 68.1129 61.2985 67.5965 61.3973C66.5512 61.6073 65.5429 61.175 64.4976 61.0144C63.2802 60.8167 62.0382 60.7426 60.7962 60.6808C60.2675 62.6574 59.9108 64.7205 59.6649 66.8082C62.6408 66.4005 65.8011 66.0793 68.7032 66.4005C69.564 66.4994 69.9329 67.92 68.9245 68.1053C65.9118 68.6242 62.6039 68.5006 59.4928 68.2659C59.3329 69.9584 59.2099 71.6508 59.1238 73.3309C62.6531 72.9727 66.4159 72.8738 69.8714 73.5656C70.7937 73.7509 70.4985 75.0975 69.6623 75.1592C66.1823 75.394 62.5424 75.011 59.0624 74.628C58.9517 76.864 58.8533 79.0506 58.6812 81.126C58.841 81.0766 59.0132 81.0519 59.2099 81.0766C67.8916 82.2008 76.5486 82.5343 85.1196 80.286C89.731 79.0753 94.4284 77.3088 95.1417 71.9597C95.941 65.9682 90.8008 62.2744 86.2878 59.4825L86.2756 59.5072Z" fill="#684CA3"/>
<path d="M179.351 57.4567C180.852 56.2337 182.241 54.9489 183.606 53.6024C181.786 53.5036 179.966 53.38 178.159 53.1206C178.601 54.566 179.007 56.0237 179.351 57.4567Z" fill="#684CA3"/>
<path d="M171.85 113.431C173.633 113.196 175.515 113.221 177.335 113.196C176.351 111.528 175.392 109.836 174.445 108.144C173.645 109.935 172.797 111.714 171.862 113.431H171.85Z" fill="#684CA3"/>
<path d="M98.5726 4.97843C97.7733 4.3484 96.974 3.70601 96.1869 3.05127C95.8057 4.57076 95.4368 6.11496 94.9941 7.6221C96.7034 7.1156 98.4127 6.65852 100.147 6.26321C99.6178 5.81848 99.1013 5.37375 98.5726 4.96608V4.97843Z" fill="#684CA3"/>
<path d="M169.145 28.9445C169.612 27.6103 170.067 26.2761 170.522 24.9419C169.502 25.2631 168.481 25.5719 167.473 25.8931C166.575 26.1649 165.665 26.4984 164.755 26.7208C165.948 28.2403 167.067 29.8339 168.137 31.4646C168.456 30.5998 168.85 29.7598 169.145 28.9445Z" fill="#684CA3"/>
<path d="M89.8414 125.056C89.1897 124.722 86.1646 126.427 85.2793 126.773C83.115 127.638 80.9753 128.576 78.8479 129.54C76.0565 130.812 73.3635 132.258 70.4122 133.11C70.3138 133.135 70.2155 133.123 70.1294 133.11C70.3753 133.209 70.5967 133.394 70.6705 133.703C70.9779 135.074 71.4452 136.384 72.0723 137.595C74.0521 135.717 76.4131 133.753 78.9709 133.086C79.4505 132.962 79.9301 133.641 79.4874 134C78.3438 134.951 76.9788 135.581 75.7245 136.384C74.6547 137.076 73.6094 137.78 72.5765 138.509C73.302 139.732 74.1997 140.831 75.2326 141.782C75.9705 140.868 76.7575 140.004 77.6428 139.201C78.5897 138.348 79.6595 137.175 80.9876 137.1C81.1967 137.088 81.3934 137.335 81.3196 137.545C80.8769 138.768 79.6472 139.497 78.725 140.312C77.8765 141.066 77.028 141.82 76.1672 142.573C77.6305 143.71 79.3152 144.55 81.1844 144.982C81.209 144.871 81.2459 144.772 81.3196 144.661C81.996 143.636 84.566 140.3 86.8902 136.631C86.718 135.877 87.2345 134.951 87.9969 134.815C90.5055 130.528 92.2148 126.254 89.8291 125.031L89.8414 125.056Z" fill="#A381D3"/>
<path d="M115.272 143.487C114.079 145.599 112.444 147.576 110.845 149.355C110.562 149.664 110.083 149.268 110.292 148.91C111.361 147.045 112.542 145.105 113.944 143.437C112.087 143.363 110.242 143.24 108.41 143.03C107.119 145.538 105.57 147.255 108.386 149.577C109.763 150.714 112.739 151.158 114.473 151.307C119.92 151.776 120.486 147.354 121.925 143.351C119.711 143.499 117.498 143.549 115.284 143.499L115.272 143.487Z" fill="#A381D3"/>
<path d="M88.6608 57.5555C80.9875 52.5894 72.2935 49.9087 63.2676 49.3404C62.6527 49.3033 62.2223 49.7851 62.0133 50.3163C58.2258 60.1621 55.6065 71.4904 57.697 82.0527C57.7093 82.1392 57.7708 82.1763 57.8077 82.238C57.6478 83.0163 57.9307 83.9181 58.8038 84.1158C68.8135 86.3641 95.8053 87.8713 98.4738 72.9605C99.7035 66.0919 93.678 60.7922 88.6485 57.5432L88.6608 57.5555ZM95.129 71.9845C94.4158 77.3336 89.7183 79.1002 85.107 80.3109C76.5483 82.5592 67.8789 82.2257 59.1973 81.1015C59.0005 81.0768 58.8284 81.1015 58.6685 81.1509C58.8406 79.0755 58.939 76.8889 59.0497 74.6529C62.542 75.0359 66.1819 75.4065 69.6497 75.1841C70.4859 75.1347 70.781 73.7758 69.8587 73.5905C66.4033 72.8987 62.6404 72.9975 59.1112 73.3558C59.2096 71.6757 59.3202 69.9709 59.4801 68.2908C62.5912 68.5132 65.8991 68.6491 68.9119 68.1302C69.9202 67.9573 69.5513 66.5242 68.6905 66.4254C65.7884 66.1042 62.6281 66.4254 59.6522 66.8331C59.8982 64.733 60.2548 62.6699 60.7836 60.7057C62.0256 60.7675 63.2676 60.8539 64.485 61.0392C65.5302 61.2122 66.5263 61.6446 67.5838 61.4222C68.088 61.3234 68.2478 60.5945 67.8912 60.2486C67.0181 59.4086 65.6409 59.3097 64.485 59.2233C63.3413 59.1368 62.2469 59.2233 61.1525 59.458C61.6075 58.0126 62.1608 56.6167 62.8618 55.3072C64.239 52.7253 64.8908 52.4288 68.297 52.7253C70.0801 52.8735 71.9 53.4418 73.6216 53.9359C78.0608 55.2083 82.3156 57.0861 86.2629 59.5321C90.7636 62.324 95.916 66.0178 95.1167 72.0092L95.129 71.9845Z" fill="#01243D"/>
<path d="M185.967 51.6258C183.2 51.5764 180.445 51.4652 177.703 51.7C175.76 45.6591 173.092 39.6058 169.747 34.0343C170.485 32.836 170.842 31.3042 171.309 30.007C172.071 27.8575 172.797 25.6956 173.424 23.4967C173.658 22.6937 172.858 21.7672 172.034 22.076C170.214 22.7555 168.382 23.4349 166.562 24.1267C165.554 24.5097 164.546 24.8185 163.611 25.3127C158.815 19.4818 153.146 14.6639 146.727 11.6249C146.641 8.63531 146.051 5.5222 145.67 2.79206C145.534 1.84083 144.268 1.69259 143.702 2.26085C141.759 4.16331 139.706 6.01635 137.837 8.01763C137.701 7.77056 137.48 7.54819 137.136 7.44937C126.179 4.20037 114.669 3.6321 103.491 5.62103C102.569 4.73157 101.437 4.01506 100.441 3.24914C99.0396 2.17438 97.65 1.06255 96.1375 0.148388C95.5718 -0.197513 94.7111 0.111327 94.5635 0.803128C94.0224 3.29856 93.2354 5.79398 92.805 8.32647C81.0737 12.1931 67.6085 19.2223 60.5993 29.8835C57.9923 28.957 55.0287 28.5123 52.557 28.0058C51.684 27.8205 50.9707 28.537 51.1552 29.4511C51.7208 32.206 52.3111 34.9361 52.9259 37.6663C52.5939 37.6663 52.2373 37.7775 52.016 38.0739C46.3348 45.7702 42.6457 55.4925 39.719 64.9554C37.1489 49.0192 19.7856 36.0727 6.09909 31.3165C5.34898 31.0571 4.51279 31.6254 4.30374 32.3666C-0.172358 48.6857 1.31557 65.7213 8.71835 80.8668C1.19261 92.0839 -0.762613 107.094 0.245738 120.411C0.307223 121.325 1.04504 121.955 1.95502 121.745C17.978 118.002 29.8691 105.932 40.1002 93.381C41.8464 100.806 45.0559 109.811 51.1552 114.098C50.5772 115.321 49.9993 116.544 49.3844 117.73C49.0647 118.36 49.4459 119.422 50.2698 119.311C51.9668 119.089 53.7867 118.941 55.6313 118.755C57.2791 121.016 59.8737 122.647 62.0626 124.277C65.0139 126.489 68.0635 128.638 71.2361 130.491C71.4206 130.602 71.5927 130.639 71.7649 130.652C71.1009 131.121 70.4614 131.603 69.8466 132.122C69.5146 132.406 69.6867 132.888 70.0187 133.061C69.4531 132.913 68.7398 133.246 68.8382 133.95C69.7236 140.831 75.3679 145.711 81.8853 146.254C82.2665 146.415 82.7092 146.39 83.0412 146.044C85.3285 143.734 87.2468 140.942 88.8946 138.015C94.2807 140.3 100.318 141.906 106.565 142.783C105.077 144.204 103.786 146.526 103.983 148.453C104.29 151.394 108.631 152.431 110.808 153.135C113.734 154.087 117.657 154.655 120.301 152.604C122.773 150.677 123.929 146.341 124.457 143.166C133.84 142.19 142.866 139.324 150.195 134.16C150.306 134.247 150.429 134.333 150.601 134.383C154.314 135.482 157.942 136.915 161.668 137.953C162.16 138.089 162.689 137.693 162.676 137.162C162.615 133.802 162.676 130.405 162.504 127.057C165.738 123.301 168.567 119.225 171.014 114.913C173.596 115.346 176.461 115.086 179.031 115.173C179.818 115.197 180.2 114.308 179.88 113.666C178.527 110.911 177.052 108.23 175.588 105.537C180.741 92.8869 182.696 78.8779 180.839 65.2148C180.605 63.51 180.286 61.7558 179.917 60.0016C182.536 58.198 185.057 55.8261 186.852 53.2195C187.319 52.5524 186.692 51.6629 185.979 51.6506L185.967 51.6258ZM167.472 25.8933C168.493 25.5845 169.513 25.2633 170.522 24.9421C170.067 26.2763 169.612 27.6104 169.145 28.9446C168.862 29.76 168.468 30.6124 168.136 31.4648C167.066 29.8341 165.935 28.2405 164.755 26.721C165.677 26.4986 166.575 26.1651 167.472 25.8933ZM96.1867 3.06384C96.9737 3.71858 97.773 4.36097 98.5723 4.991C99.0888 5.39867 99.6175 5.8434 100.146 6.28813C98.4124 6.68344 96.7032 7.12817 94.9939 7.64702C95.4366 6.13988 95.8055 4.59568 96.1867 3.07619V3.06384ZM88.0092 134.84C87.2468 134.976 86.7303 135.902 86.9025 136.656C84.5783 140.325 82.0083 143.66 81.3319 144.686C81.2582 144.797 81.2336 144.896 81.1967 145.007C79.3275 144.562 77.6429 143.722 76.1795 142.598C77.028 141.844 77.8765 141.091 78.7373 140.337C79.6719 139.522 80.8893 138.793 81.3319 137.57C81.4057 137.36 81.209 137.1 80.9999 137.125C79.6719 137.212 78.602 138.373 77.6552 139.225C76.7698 140.028 75.9951 140.893 75.2449 141.807C74.2243 140.856 73.3266 139.756 72.5888 138.533C73.6217 137.792 74.667 137.088 75.7368 136.409C76.9911 135.606 78.3438 134.976 79.4997 134.024C79.9301 133.666 79.4628 132.987 78.9832 133.11C76.4132 133.777 74.0644 135.742 72.0846 137.619C71.4575 136.396 70.9902 135.087 70.6828 133.728C70.609 133.419 70.3999 133.234 70.1417 133.135C70.2278 133.16 70.3262 133.172 70.4245 133.135C73.3758 132.283 76.0565 130.837 78.8603 129.565C80.9876 128.601 83.1273 127.662 85.2916 126.798C86.1647 126.452 89.1897 124.747 89.8537 125.08C92.2517 126.291 90.5424 130.578 88.0215 134.864L88.0092 134.84ZM114.46 151.295C112.726 151.146 109.738 150.689 108.373 149.565C105.557 147.243 107.106 145.526 108.398 143.018C110.23 143.228 112.087 143.351 113.931 143.425C112.529 145.106 111.349 147.033 110.279 148.898C110.082 149.244 110.562 149.652 110.832 149.343C112.419 147.564 114.054 145.6 115.259 143.475C117.473 143.524 119.698 143.475 121.9 143.327C120.473 147.317 119.895 151.739 114.448 151.282L114.46 151.295ZM177.334 113.196C175.527 113.221 173.633 113.196 171.85 113.431C172.784 111.701 173.633 109.935 174.432 108.144C175.379 109.836 176.338 111.528 177.322 113.196H177.334ZM159.959 126.081C159.024 127.168 160.242 128.712 161.311 128.255C161.176 130.775 161.164 133.308 161.102 135.84C157.979 134.222 154.536 133.048 151.24 131.998C150.724 131.838 150.306 132.035 150.047 132.369C139.915 135.939 130.667 139.534 119.748 140.102C109.504 140.634 99.8635 138.719 90.2349 135.433C90.6407 134.617 91.0343 133.814 91.4032 132.999C92.473 130.652 95.08 125.525 92.8419 123.104C90.6039 120.682 85.2178 124.092 83.115 124.969C79.9547 126.291 76.6591 127.638 73.6586 129.429C73.3881 129.256 73.0807 129.108 72.7733 128.984C72.6872 128.799 72.5765 128.626 72.3674 128.478C69.49 126.476 66.551 124.586 63.6858 122.56C61.8535 121.263 60.0582 119.645 58.0907 118.459C60.4517 118.162 62.7635 117.73 64.8048 116.902C65.6902 116.544 65.5549 115.284 64.5835 115.197C60.5993 114.864 56.1232 116 52.0283 116.828C53.4178 113.764 54.7951 110.565 55.4468 107.316C55.5206 106.933 55.041 106.711 54.832 107.044C53.7621 108.724 52.8399 110.528 51.9545 112.369C50.1591 109.132 47.503 106.389 45.683 103.116C43.7893 99.7061 42.1538 96.037 40.9364 92.2939C40.9364 92.2939 40.9487 92.2816 40.961 92.2692C41.9939 90.9844 40.2847 89.1437 39.141 90.4038C37.481 92.2445 35.8209 94.0852 34.1485 95.9259C30.1889 85.0547 30.5701 70.4157 34.751 59.6804C34.9601 59.1368 34.1239 58.8033 33.8411 59.2851C30.4348 65.1036 30.2503 71.9228 29.9798 78.5567C29.7216 84.8817 29.9429 91.4168 32.722 97.1983C32.7589 97.2601 32.7958 97.2971 32.8327 97.3465C24.274 106.612 15.1989 115.173 2.8158 118.607C2.65594 115.445 2.74202 112.369 3.00026 109.367C5.60722 109.181 8.14039 108.069 10.5383 107.081C12.5796 106.241 14.9898 105.475 16.3548 103.647C16.613 103.301 16.2564 102.794 15.8875 102.807C13.6371 102.869 11.4606 104.4 9.43157 105.278C7.37798 106.167 5.16453 106.822 3.16012 107.847C3.61511 103.746 4.42671 99.7555 5.48425 95.79C7.57473 95.4441 9.59143 94.5299 11.4729 93.5787C13.6125 92.5039 16.2687 91.3303 17.6705 89.3043C18.1747 88.5755 17.3508 87.6737 16.6007 87.8713C14.4733 88.4272 12.5673 90.1567 10.6244 91.1944C9.16104 91.9727 7.61162 92.6522 6.13599 93.4304C7.23042 89.6255 8.5339 85.8206 9.96034 81.9416C10.7719 81.9045 11.5958 81.0151 11.104 80.0268C7.99283 73.8006 5.96383 67.2532 4.99237 60.5822C6.19747 60.7799 9.54225 62.7441 10.071 63.0282C11.5835 63.8312 13.0346 65.0295 14.707 65.4001C15.1866 65.4989 15.7522 64.943 15.4079 64.4612C13.8462 62.287 10.6982 61.1752 8.31255 60.1992C7.48865 59.8533 5.91464 59.038 4.79562 59.1739C4.26685 54.776 4.19307 50.3164 4.61116 45.8691C7.13204 46.0914 9.27171 47.648 11.436 48.9081C13.5019 50.1063 15.5555 51.3417 17.6705 52.4412C18.6174 52.9353 19.4167 51.5517 18.5067 50.9835C14.584 48.5374 9.57914 44.6584 4.70954 44.9178C5.07845 41.4959 5.71789 38.0616 6.65246 34.6767C13.9077 37.4192 20.4005 41.5453 25.9956 47.0797C31.7752 52.7994 34.6772 59.6804 39.2025 66.2154C39.2148 66.2402 39.2517 66.2525 39.264 66.2649C38.6492 68.3156 38.0589 70.3415 37.4933 72.3305C37.3088 72.9605 38.2065 73.1829 38.4401 72.6023C42.7441 61.3234 48.8802 50.8599 53.3563 39.717C53.5777 40.6806 53.7867 41.6565 54.0081 42.6201C54.1065 43.0648 54.7828 42.966 54.7828 42.5089C54.6844 38.4445 54.3278 34.6396 53.6515 30.6741C56.8487 31.5883 60.132 32.9348 63.3292 33.1572C64.3006 33.219 64.4851 31.8848 63.7965 31.4154C63.1939 30.9953 62.5053 30.6494 61.8044 30.3406C66.4895 26.6345 70.7688 22.4713 75.8352 19.21C81.2582 15.7139 87.0869 12.9591 93.1739 10.9578C93.4322 11.0072 93.7027 10.9578 93.8626 10.7354C94.2315 10.6119 94.6004 10.4884 94.9693 10.3772C108.459 6.30048 122.662 6.17694 136.262 9.77184C135.894 10.2166 135.549 10.6737 135.205 11.1307C134.811 11.6867 135.574 12.4032 136.103 12.0573C138.833 10.266 141.218 7.93116 143.591 5.64574C143.862 9.29005 143.948 13.2185 145.129 16.5046C145.325 17.0481 146.112 17.1222 146.272 16.5046C146.53 15.5039 146.666 14.4415 146.715 13.3667C153.761 19.7659 160.746 25.498 166.181 33.6637C172.034 42.4595 176.154 52.4659 177.974 62.9664C181.933 85.7465 174.678 108.848 159.946 126.081H159.959ZM179.351 57.4567C178.994 56.0114 178.589 54.566 178.158 53.1206C179.966 53.3801 181.786 53.5036 183.606 53.6024C182.241 54.9613 180.851 56.2337 179.351 57.4567Z" fill="#01243D"/>
<path d="M89.0792 28.9816C88.2676 27.6104 86.5214 27.0915 85.1072 26.5233C83.2873 25.7821 81.3936 25.2756 79.4629 24.8926C78.6267 24.732 77.9012 25.3991 78.098 26.2886C78.762 29.204 78.9096 32.1195 79.2539 35.0843C79.34 35.8503 80.5574 36.2209 80.7172 35.282C81.1599 32.7124 80.9755 30.0935 80.5574 27.5239C81.6764 27.8328 82.7708 28.191 83.853 28.6234C85.2794 29.204 86.7427 30.3653 88.3045 30.3405C88.9562 30.3282 89.4112 29.587 89.0669 28.9816H89.0792Z" fill="#01243D"/>
<path d="M126.117 20.8407C125.134 18.963 123.191 17.4929 121.678 16.0599C120.436 14.8739 119.354 13.5768 117.546 14.0339C117.177 14.1204 116.833 14.4663 116.759 14.8492C116.058 18.1229 115.259 21.3596 114.546 24.6333C114.386 25.3374 115.431 25.881 115.751 25.1521C116.981 22.3355 117.903 19.4695 118.678 16.5046C119.612 17.1346 121.137 19.0742 121.494 19.4324C122.502 20.4578 123.412 21.6437 124.654 22.3726C125.613 22.9408 126.646 21.8167 126.13 20.8531L126.117 20.8407Z" fill="#01243D"/>
<path d="M129.585 55.7642C129.192 55.5048 128.761 55.3689 128.331 55.3195C128.257 55.2454 128.184 55.1836 128.073 55.1589C125.331 54.393 122.982 56.8143 123.523 59.6556C124.015 62.2622 127.015 63.7323 129.303 62.4228C131.7 61.0392 131.996 57.3208 129.585 55.7642Z" fill="#01243D"/>
<path d="M166.968 55.023C166.316 54.4547 165.48 54.257 164.755 54.4176C164.656 54.4053 164.558 54.3806 164.447 54.3929C163.082 54.5659 161.988 55.3689 161.484 56.7154C161.041 57.9013 161.311 59.322 162.197 60.2238C164.066 62.1263 167.497 61.3974 168.062 58.6179C168.321 57.3331 167.964 55.9001 166.968 55.0353V55.023Z" fill="#01243D"/>
<path d="M160.143 76.926C158.139 81.4474 154.511 82.7322 149.875 82.9175C145.313 83.1028 138.746 83.0534 136.644 77.9267C136.472 77.4943 135.881 77.6549 135.955 78.1243C136.902 84.4247 143.936 84.9682 148.99 85.2523C154.204 85.5488 161.176 84.1035 162.185 77.8155C162.369 76.6542 160.709 75.6536 160.143 76.926Z" fill="#01243D"/>
</g>
<defs>
<clipPath id="clip0_1005_17620">
<rect width="187" height="154" fill="white"/>
</clipPath>
</defs>
</svg>
