<svg width="212" height="435" viewBox="0 0 212 435" fill="none" xmlns="http://www.w3.org/2000/svg">
<g clip-path="url(#clip0_1396_12115)">
<path d="M105.531 194.936C105.844 196.143 106.173 197.366 106.502 198.573C108.659 206.177 110.849 213.516 112.726 220.904C123.66 215.466 138.759 208.573 151.142 210.954C144.72 201.102 135.268 193.234 126.08 185.382C122.079 186.539 118.193 187.779 114.455 189.647C111.343 191.201 108.511 193.201 105.531 194.936Z" fill="white"/>
<path d="M49.3486 305.486C58.8659 287.717 67.1812 271.452 67.2636 250.955C67.3459 233.467 64.8101 215.218 61.3358 197.961C56.7089 202.143 51.6867 206.111 46.4341 209.681C46.2035 214.293 44.6557 218.161 42.0047 221.929C52.263 226.409 57.3675 241.715 46.22 247.848C47.1256 248.674 48.5088 249.319 49.3321 250.013C50.567 251.071 51.6703 252.278 52.5759 253.616C54.3378 256.212 55.4739 259.336 55.2928 262.46C55.0293 267.319 51.5385 272.03 46.5987 272.956C50.0895 276.262 52.4442 281.171 51.9008 285.833C51.3574 290.444 47.9654 294.825 42.9762 294.759C47.2244 300.345 41.2967 310.495 34.3315 311.073C36.9002 314.478 39.0573 319.288 39.8806 324.032C42.8774 317.635 46.1377 311.404 49.3321 305.453L49.3486 305.486Z" fill="white"/>
<path d="M116.81 284.841C114.834 298.098 110.29 310.643 100.92 320.627C119.642 311.619 142.003 308.032 152.377 288.791C140.373 291.006 127.793 290.246 116.81 284.841Z" fill="white"/>
<path d="M117.962 257.054C118.308 265.567 118.209 274.278 117.123 282.741C129.439 286.378 141.344 287.915 154.122 285.138C158.584 275.055 160.741 263.666 160.889 252.277C147.255 256.277 132.107 259.914 117.979 257.071L117.962 257.054Z" fill="white"/>
<path d="M8.59549 188.986C9.04008 192.837 8.4473 199.284 4.9565 201.928C12.8767 203.367 16.7791 214.16 16.4004 221.351C26.2141 215.929 36.3407 211.416 45.5946 204.937C55.0132 198.358 62.9334 190.755 70.8041 182.705C61.9454 187.878 52.2634 191.912 42.5978 195.416C31.9114 199.3 20.6322 203.003 9.08948 202.309C8.52963 202.276 8.56256 201.548 9.08948 201.482C30.9893 199.118 50.2381 190.308 69.388 180.473C49.1678 177.498 29.211 176.324 8.71076 177.25C8.06858 177.283 7.92039 176.258 8.56256 176.159C28.8158 173.151 49.7441 173.415 69.8985 177.299C51.1602 165.464 29.0628 162.142 7.42641 156.704C9.30353 164.869 7.93685 173.398 2.22314 179.994C6.09266 181.019 8.18384 185.267 8.61196 188.969L8.59549 188.986Z" fill="white"/>
<path d="M42.5974 195.432C31.9109 199.317 20.6317 203.019 9.08903 202.325C9.02316 202.325 8.99023 202.276 8.92437 202.259C7.67295 202.176 6.48739 201.928 5.38417 201.515C5.23598 201.647 5.10425 201.813 4.95605 201.928C12.8762 203.367 16.7787 214.16 16.3999 221.351C26.2137 215.929 36.3403 211.416 45.5942 204.937C55.0128 198.358 62.9329 190.754 70.8037 182.705C61.945 187.878 52.2629 191.912 42.5974 195.416V195.432Z" fill="white"/>
<path d="M113.237 222.888C115.295 231.285 116.909 239.764 117.518 248.756C117.65 250.823 117.781 252.922 117.88 255.021C132.782 254.823 146.498 252.955 160.857 248.872C160.692 240.525 159.49 232.26 157.399 224.607C156.345 220.722 154.781 217.152 152.887 213.796C138.282 213.284 126.904 219.284 113.237 222.871V222.888Z" fill="white"/>
<path d="M49.5465 163.216C51.7694 163.943 54.0252 164.737 56.2646 165.613C50.1393 141.695 37.658 118.785 38.3496 93.6267C38.9094 72.8656 47.5047 51.9061 64.8434 39.0296C79.6793 28.0044 99.1257 23.6736 116.942 29.2937C116.399 22.0868 117.502 14.4667 118.391 7.17714C114.258 10.3508 108.577 12.5492 104.065 13.2435C97.3803 14.2683 90.2176 11.4748 85.393 6.9292C79.8934 19.0454 59.4755 26.7316 48.9372 16.632C50.024 21.9711 47.4224 27.9052 43.7834 31.8558C39.0412 36.9799 32.1254 39.6247 25.1274 40.1536C26.9057 44.2033 26.8728 51.8069 26.7575 53.5425C26.0495 63.2123 21.3731 72.2044 13.7 78.3865C19.3972 81.2626 22.8386 87.7918 23.4149 93.8747C24.2547 102.701 19.3478 109.941 12.8602 115.661C12.7943 115.71 12.7285 115.743 12.6626 115.793C22.5093 120.52 28.5852 134.554 20.5992 142.885C24.7816 144.058 28.3712 146.389 31.4174 149.579C33.525 151.794 37.5757 156.158 37.3452 159.629C41.4617 160.737 45.5288 161.91 49.5465 163.216Z" fill="white"/>
<path d="M40.6214 76.8823C35.7475 89.048 32.7507 101.958 32.0591 114.95C31.5816 123.727 31.2523 133.132 33.8374 141.629C35.6652 147.645 38.1351 153.612 38.4315 159.91C42.1857 160.935 45.907 162.009 49.5625 163.2C51.7854 163.927 54.0413 164.72 56.2806 165.596C50.1553 141.678 37.674 118.768 38.3656 93.6102C38.5138 87.9901 39.2877 82.3535 40.6379 76.8657L40.6214 76.8823Z" fill="white"/>
<path d="M123.528 183.184C122.26 182.093 120.992 180.986 119.757 179.878C111.854 172.787 102.781 164.704 98.2856 154.952C99.8005 167.679 101.793 180.242 104.954 192.771C109.795 188.143 116.925 184.92 123.512 183.184H123.528Z" fill="white"/>
<path d="M60.5454 48.7161C45.7918 64.039 40.6874 85.858 43.4043 106.255C46.1541 126.835 56.0666 145.711 60.4466 165.927C60.5619 166.456 60.4466 166.919 60.2325 167.299C66.2591 170.076 71.7917 173.746 75.5789 179.002C76.6821 179.266 77.6042 180.457 76.7973 181.498C72.9937 186.374 68.482 191.3 63.4599 196.011C67.1647 209.631 69.2065 223.847 70.4744 237.847C71.7093 251.435 71.4953 265.402 66.9342 278.46C58.3389 303.106 41.132 324.016 34.3973 349.504C27.3993 376.018 33.113 404.035 58.0919 419.474C76.501 430.846 113.368 438.632 125.932 415.606C132.14 404.217 134.132 387.208 128.715 375.307C124.977 367.125 117.205 360.976 107.523 362.497C99.5534 363.753 94.2678 369.67 93.6421 376.91C101.974 366.249 121.256 372.431 123.199 387.01C125.652 405.523 109.417 419.441 90.777 414.234C81.3914 411.622 73.8993 404.647 68.5149 397.01C61.9285 387.671 61.1052 378.96 64.2832 368.216C68.1362 355.24 75.8259 338.116 87.9448 328.247C87.879 327.801 87.9778 327.322 88.3236 326.942C99.2735 314.958 109.235 303.883 112.677 287.634C116.019 271.782 114.225 253.964 112.446 237.979C110.52 220.756 103.785 204.491 100.294 187.548C97.1493 172.258 94.9429 156.191 95.157 140.587C94.2513 139.215 95.9309 137.215 97.8244 138.009C109.664 142.885 126.097 138.967 136.734 132.769C148.293 126.041 154.105 116.206 157.398 103.974C156.888 103.082 157.069 101.842 158.403 101.578C174.622 98.3543 191.22 101.032 205.627 108.768C210.221 98.5857 208.509 87.7423 206.418 77.0808C192.142 83.3124 175.231 87.1142 159.786 83.5273C159.572 83.4777 159.473 83.3289 159.44 83.1637C158.93 83.4612 158.189 83.362 157.975 82.6182C152.113 61.0967 139.006 40.9306 116.201 33.4923C96.5401 27.0789 74.3933 34.3353 60.5454 48.7161ZM61.4016 62.6174C60.1831 64.2043 58.8823 65.6093 57.8779 67.3449C56.9393 68.9648 56.4947 70.5681 54.6012 71.3285C54.1236 71.5268 53.4156 71.2954 53.0863 70.9318C51.4726 69.2458 52.1806 66.9316 52.9546 65.0142C53.7943 62.9149 55.0128 60.6669 56.7747 59.1462C59.1458 57.0965 63.5257 59.89 61.4346 62.6174H61.4016ZM71.874 51.5096C71.2154 52.617 70.1615 53.5923 69.0583 54.2535C68.5973 54.5345 68.1198 54.7659 67.6258 54.9642C66.8354 55.2948 66.0286 55.2618 65.4687 55.2287C63.7892 55.113 63.147 53.4105 64.1679 52.1873C64.4643 51.8401 64.8265 51.3443 65.2053 51.0302C65.337 50.931 65.7322 50.5839 65.9627 50.369C66.7531 49.5921 67.1483 49.0797 67.7575 48.4516C69.8322 46.3027 73.323 49.0797 71.874 51.5261V51.5096ZM120.399 62.3695C120.498 62.2042 120.646 62.105 120.778 62.0224C121.931 59.6917 123.907 58.0883 127.052 59.1132C132.008 60.733 129.917 69.9896 128.764 73.3947C127.513 77.0973 122.474 82.1884 118.67 77.7254C115.377 73.841 117.929 66.0225 120.399 62.3529V62.3695Z" fill="white"/>
<path d="M107.523 362.48C99.5537 363.736 94.2681 369.654 93.6424 376.894C101.974 366.232 121.256 372.414 123.199 386.993C125.652 405.507 109.417 419.424 90.7773 414.218C81.3917 411.606 73.8997 404.63 68.5153 396.994C61.9289 387.655 61.1056 378.944 64.2835 368.199C66.5229 360.629 70.096 351.653 75.0688 343.521C75.7603 338.066 76.419 332.595 77.3411 327.173C78.4608 320.545 80.5519 314.181 82.1162 307.652C89.9705 274.94 91.7982 240.029 86.4797 206.788C80.058 166.654 53.5971 123.992 70.4583 83.0975C77.3081 66.4853 90.0693 52.8319 106.387 44.3523C112.71 41.0794 119.659 38.6661 126.509 38.1041C123.314 36.2693 119.889 34.699 116.184 33.4923C96.524 27.0789 74.3772 34.3353 60.5293 48.7161C45.7757 64.039 40.6713 85.858 43.3881 106.255C46.138 126.835 56.0505 145.711 60.4305 165.927C60.5457 166.456 60.4305 166.919 60.2164 167.299C66.243 170.076 71.7756 173.746 75.5627 179.002C76.666 179.266 77.5881 180.457 76.7812 181.498C72.9776 186.374 68.4659 191.3 63.4438 196.011C67.1486 209.631 69.1904 223.847 70.4583 237.847C71.6932 251.435 71.4792 265.402 66.9181 278.46C58.3228 303.106 41.1158 324.016 34.3812 349.504C27.3832 376.018 33.0969 404.035 58.0758 419.474C76.4848 430.846 113.352 438.632 125.916 415.606C132.124 404.217 134.116 387.208 128.699 375.307C124.961 367.125 117.189 360.976 107.507 362.497L107.523 362.48ZM61.402 62.6174C60.1835 64.2043 58.8827 65.6093 57.8782 67.3449C56.9397 68.9648 56.4951 70.5681 54.6015 71.3285C54.124 71.5268 53.416 71.2954 53.0866 70.9318C51.473 69.2458 52.181 66.9316 52.9549 65.0142C53.7947 62.9149 55.0132 60.6669 56.775 59.1462C59.1461 57.0965 63.5261 59.89 61.4349 62.6174H61.402ZM64.1518 52.1873C64.4482 51.8401 64.8104 51.3443 65.1892 51.0302C65.3209 50.931 65.7161 50.5839 65.9466 50.369C66.737 49.5921 67.1321 49.0797 67.7414 48.4516C69.8161 46.3027 73.3069 49.0797 71.8579 51.5261C71.1993 52.6336 70.1454 53.6088 69.0422 54.27C68.5812 54.551 68.1036 54.7824 67.6097 54.9808C66.8193 55.3114 66.0125 55.2783 65.4526 55.2452C63.7731 55.1295 63.1309 53.427 64.1518 52.2038V52.1873Z" fill="white"/>
<path d="M125.817 70.4855C126.031 69.5268 126.212 68.5515 126.294 67.5598C126.36 66.7333 126.772 63.4274 126.129 62.8323C124.664 61.4769 123.478 64.4522 122.639 66.8325C123.396 68.2375 124.483 69.4441 125.833 70.4855H125.817Z" fill="white"/>
<path d="M209.217 74.3699C208.97 73.2955 207.702 72.9815 206.797 73.4112C191.483 80.6842 176.68 81.8248 159.934 82.5025C159.951 82.3702 159.967 82.238 159.934 82.1058C155.785 60.0884 142.447 39.1455 120.333 30.4674C119.988 30.3352 119.658 30.236 119.313 30.1038C121.914 21.2109 121.815 11.0452 122.738 1.95397C122.935 0.0530663 120.136 -0.376702 119.23 1.02831C116.695 4.97887 108.741 8.83026 104.147 9.44185C96.7706 10.4336 92.3577 6.28471 86.1336 3.7061C85.4914 3.44163 84.8822 3.60692 84.454 3.95404C84.1906 4.03669 83.9436 4.16893 83.7625 4.41687C79.3166 10.4336 74.3439 15.2768 66.5061 16.533C59.8044 17.6075 54.8646 14.9627 48.624 13.442C48.377 13.3759 48.0971 13.442 47.8665 13.5742C47.4549 12.9131 46.4505 13.3263 46.4011 14.0205C45.94 20.2852 45.0344 25.7896 40.0452 30.3187C35.4347 34.5007 29.1941 35.9718 23.0852 36.4181C22.1302 36.4842 21.5209 37.0793 21.2904 37.7735C20.994 37.9388 20.9117 38.3355 21.1587 38.6C21.1751 38.6165 21.1916 38.6496 21.2081 38.6661C21.2739 39.2116 21.5538 39.7075 22.0808 39.9885C24.5177 44.782 23.2169 54.4022 22.1631 58.5512C20.3354 65.7415 16.2024 71.5434 10.4887 76.337C10.0112 76.7337 9.84651 77.1965 9.87944 77.6428C9.78064 77.8907 9.79711 78.1717 10.0112 78.4197C15.0004 83.9075 19.9731 88.387 19.7261 96.3377C19.4956 103.627 14.4405 108.256 10.8674 114.157C10.6863 114.438 10.6698 114.719 10.7192 114.983C10.6369 114.95 10.5545 114.917 10.4722 114.9C9.53365 114.603 9.08907 115.743 9.59951 116.355C12.9421 120.372 17.8161 122.554 19.6109 127.793C21.5209 133.397 19.3639 137.976 16.8116 142.885C16.2847 143.893 17.4538 145.43 18.59 144.604C18.6888 144.538 18.7876 144.455 18.8864 144.373C22.4101 146.34 25.8679 148.654 28.6178 151.53C30.215 153.199 31.5652 155.051 32.6519 157.051C32.9319 157.563 33.1295 158.059 33.3435 158.538C23.9579 156.158 14.4405 154.142 5.07136 152.075C3.2601 151.679 2.09101 153.398 2.79905 154.918C6.78383 163.382 4.93963 171.481 0.131554 179.134C-0.115437 179.514 -0.0331065 179.928 0.213884 180.242C0.213884 180.391 0.213884 180.539 0.345612 180.655C3.29303 183.531 5.59827 186.077 5.61474 190.341C5.64767 194.242 4.28099 197.647 2.25567 200.92C1.95928 201.4 2.14041 202.061 2.55206 202.424C2.53559 202.672 2.63439 202.92 2.89785 203.053C6.7015 204.854 9.51719 207.053 11.1803 210.97C12.8104 214.789 12.3987 218.904 13.6831 222.739C13.6831 222.772 13.716 222.805 13.7325 222.838C13.0574 223.5 13.6996 224.756 14.7534 224.508C24.4683 222.161 34.3479 217.483 43.5854 211.532C42.5809 215.152 41.1319 218.409 38.6126 221.566C37.9375 222.409 38.1022 223.632 39.2713 223.979C51.8184 227.615 50.073 238.889 43.0255 246.426C42.0211 247.501 43.042 248.856 44.3099 248.674C45.1003 251.154 48.4429 253.121 49.7766 255.203C53.4815 260.989 52.0654 267.948 44.985 270.212C44.4087 270.394 44.0629 270.857 43.9641 271.353C43.6512 271.518 43.4372 271.849 43.5689 272.196C44.9521 275.783 47.6525 278.791 48.2782 282.642C48.6075 284.642 48.4264 286.808 47.3232 288.576C46.0059 290.709 43.6512 291.139 41.6095 292.378C41.2637 292.593 41.0825 292.874 41.0167 293.172C40.5721 293.172 40.111 293.403 40.1769 293.932C40.5556 297.04 41.4942 299.916 39.9464 302.924C38.0034 306.66 34.7761 306.775 31.1865 307.966C29.9844 308.362 29.8692 309.701 30.709 310.379C32.7507 314.544 34.8913 318.561 35.7146 323.156C36.2909 326.33 35.7805 329.702 35.9616 332.909C27.5969 353.257 23.1181 375.026 32.158 395.886C42.2516 419.193 68.1527 433.408 93.6915 434.119C105.876 434.466 118.72 432.119 126.508 422.284C134.56 412.135 136.981 396.713 135.482 384.283C133.918 371.274 124.763 357.505 109.68 357.984C96.7871 358.381 88.1095 369.918 91.024 381.787C90.9417 382.035 90.8429 382.266 90.777 382.514C90.3818 383.853 92.2919 384.564 93.0493 383.44C100.311 372.563 116.579 372.828 118.819 387.241C120.087 395.49 117.007 404.779 109.021 408.796C94.8441 415.92 80.0576 406.069 72.121 394.911C62.159 380.894 68.1856 365.042 75.5624 351.091C82.6098 337.735 92.1931 330.71 104.543 322.727C114.208 320.545 123.627 316.462 132.535 312.396C141.015 308.528 148.194 303.635 153.414 295.982C164.248 280.097 166.603 258.261 164.742 239.765C162.832 220.789 156.147 206.474 141.739 193.432C125.356 178.589 101.184 165.15 97.6927 142.075C109.779 147.348 126.673 142.62 137.458 136.67C149.165 130.207 159.325 118.223 159.835 104.751C176.005 102.007 191.302 104.503 205.496 112.603C206.286 113.049 207.505 112.818 207.933 111.991C214.14 99.9577 212.082 86.9655 209.201 74.3204L209.217 74.3699ZM31.417 149.579C28.3708 146.389 24.7812 144.042 20.5988 142.885C28.6013 134.554 22.5089 120.52 12.6622 115.793C12.7281 115.743 12.8104 115.727 12.8598 115.661C19.3639 109.942 24.2543 102.702 23.4145 93.8748C22.8382 87.7919 19.3968 81.2462 13.6996 78.3866C21.3727 72.2046 26.0491 63.2125 26.7571 53.5427C26.8888 51.8071 26.9218 44.2035 25.127 40.1538C32.1086 39.6248 39.0408 36.9801 43.783 31.8559C47.4384 27.9054 50.0401 21.9713 48.9368 16.6322C59.4751 26.7152 79.8765 19.029 85.3926 6.92936C90.2171 11.4585 97.3799 14.2685 104.065 13.2437C108.577 12.5494 114.258 10.351 118.391 7.1773C117.501 14.4834 116.398 22.087 116.941 29.2938C99.1253 23.6738 79.6789 28.0045 64.843 39.0298C47.5043 51.9228 38.909 72.8658 38.3492 93.6269C37.6576 118.785 50.1389 141.695 56.2642 165.613C54.0248 164.737 51.769 163.944 49.5461 163.216C45.5284 161.91 41.4613 160.72 37.3448 159.629C37.5753 156.175 33.5246 151.794 31.417 149.579ZM16.3835 221.351C16.7622 214.16 12.8763 203.367 4.93963 201.929C8.43043 199.284 9.0232 192.854 8.57862 188.986C8.15051 185.267 6.05932 181.019 2.18981 180.01C7.90351 173.398 9.27019 164.886 7.39307 156.72C29.0294 162.142 51.1268 165.481 69.8652 177.316C49.7272 173.448 28.7824 173.167 8.52922 176.175C7.88705 176.275 8.03524 177.299 8.67742 177.266C29.1776 176.341 49.1344 177.514 69.3547 180.49C50.2047 190.308 30.9559 199.135 9.05614 201.499C8.52922 201.565 8.49629 202.292 9.05614 202.325C20.5988 203.003 31.8945 199.317 42.5645 195.432C52.2136 191.928 61.9121 187.895 70.7708 182.721C62.9 190.771 54.9799 198.375 45.5613 204.953C36.3074 211.416 26.1808 215.946 16.367 221.367L16.3835 221.351ZM34.3479 311.106C41.3131 310.511 47.2573 300.379 42.9926 294.792C47.9818 294.858 51.3738 290.461 51.9172 285.866C52.4606 281.204 50.1059 276.295 46.6151 272.989C51.5549 272.063 55.0457 267.336 55.3092 262.493C55.4903 259.352 54.3377 256.245 52.5923 253.65C51.6867 252.311 50.5834 251.104 49.3485 250.046C48.5252 249.352 47.142 248.691 46.2364 247.881C57.3674 241.748 52.2794 226.442 42.0211 221.962C44.6721 218.194 46.2199 214.326 46.4505 209.714C51.7031 206.127 56.7253 202.176 61.3522 197.994C64.8101 215.235 67.3623 233.5 67.28 250.988C67.1812 271.485 58.8823 287.75 49.3649 305.519C46.1705 311.486 42.9103 317.702 39.9135 324.098C39.0902 319.354 36.9331 314.544 34.3644 311.139L34.3479 311.106ZM100.92 320.627C110.273 310.643 114.817 298.098 116.81 284.841C127.776 290.229 140.373 291.006 152.376 288.791C142.019 308.032 119.658 311.619 100.92 320.627ZM154.122 285.138C141.361 287.932 129.439 286.378 117.123 282.742C118.209 274.278 118.308 265.567 117.962 257.055C132.107 259.914 147.239 256.261 160.873 252.261C160.725 263.65 158.568 275.039 154.105 285.122L154.122 285.138ZM157.398 224.624C159.49 232.277 160.692 240.542 160.856 248.889C146.498 252.972 132.782 254.84 117.88 255.038C117.781 252.939 117.65 250.839 117.518 248.773C116.909 239.781 115.311 231.302 113.237 222.905C126.903 219.318 138.281 213.317 152.887 213.83C154.78 217.185 156.345 220.756 157.398 224.64V224.624ZM151.141 210.954C138.759 208.573 123.66 215.466 112.726 220.904C110.849 213.516 108.659 206.177 106.502 198.573C106.156 197.366 105.843 196.143 105.531 194.937C108.527 193.201 111.343 191.217 114.455 189.647C118.176 187.779 122.079 186.54 126.08 185.382C135.268 193.234 144.736 201.102 151.141 210.954ZM119.741 179.878C120.976 180.986 122.244 182.093 123.511 183.184C116.925 184.92 109.795 188.126 104.954 192.771C101.776 180.242 99.8004 167.679 98.2855 154.952C102.781 164.704 111.837 172.787 119.757 179.878H119.741ZM205.611 108.768C191.203 101.032 174.605 98.3543 158.386 101.578C157.053 101.842 156.872 103.082 157.382 103.974C154.089 116.206 148.26 126.041 136.717 132.769C126.097 138.951 109.647 142.868 97.808 138.009C95.9144 137.232 94.2349 139.215 95.1405 140.587C94.9429 156.208 97.1329 172.275 100.278 187.548C103.769 204.491 110.503 220.756 112.43 237.979C114.208 253.947 116.003 271.782 112.66 287.634C109.235 303.883 99.257 314.958 88.3071 326.942C87.9613 327.322 87.8625 327.801 87.9284 328.247C75.8094 338.116 68.1197 355.24 64.2667 368.216C61.0888 378.96 61.9121 387.671 68.4985 397.01C73.8829 404.63 81.3749 411.606 90.7605 414.234C109.384 419.441 125.619 405.507 123.182 387.01C121.256 372.414 101.957 366.249 93.6256 376.91C94.2513 369.67 99.5369 363.753 107.506 362.497C117.188 360.976 124.977 367.125 128.698 375.307C134.116 387.208 132.123 404.217 125.915 415.606C113.352 438.632 76.4845 430.846 58.0755 419.474C33.0965 404.035 27.3828 376.018 34.3809 349.504C41.1155 324.016 58.3225 303.106 66.9177 278.46C71.4788 265.419 71.6929 251.435 70.4579 237.847C69.1736 223.847 67.1483 209.631 63.4434 196.011C68.4491 191.3 72.9772 186.374 76.7809 181.498C77.6042 180.44 76.6821 179.267 75.5624 179.002C71.7752 173.746 66.2262 170.076 60.2161 167.299C60.4301 166.919 60.5454 166.473 60.4301 165.927C56.0502 145.712 46.1376 126.835 43.3878 106.255C40.6709 85.858 45.7754 64.0224 60.5289 48.7161C74.3768 34.3354 96.5236 27.0789 116.184 33.4924C138.989 40.9307 152.096 61.0967 157.958 82.6182C158.156 83.362 158.897 83.4612 159.424 83.1637C159.457 83.329 159.556 83.4777 159.77 83.5273C175.215 87.1142 192.125 83.2959 206.401 77.0808C208.493 87.7258 210.205 98.5857 205.611 108.768Z" fill="black"/>
<path d="M127.052 59.1134C123.923 58.0886 121.931 59.6919 120.778 62.0226C120.63 62.1052 120.498 62.2044 120.399 62.3697C117.929 66.0393 115.377 73.8578 118.67 77.7422C122.458 82.2052 127.513 77.1141 128.764 73.4115C129.917 70.0064 132.008 60.7498 127.052 59.1299V59.1134ZM126.294 67.56C126.212 68.5518 126.047 69.527 125.817 70.4857C124.466 69.4444 123.38 68.2377 122.622 66.8327C123.478 64.4359 124.647 61.4771 126.113 62.8325C126.755 63.4276 126.343 66.717 126.278 67.56H126.294Z" fill="black"/>
<path d="M56.7418 59.1462C54.9964 60.667 53.7614 62.915 52.9216 65.0142C52.1642 66.9317 51.4397 69.2623 53.0534 70.9318C53.3992 71.2789 54.0907 71.5104 54.5682 71.3285C56.4783 70.5682 56.9064 68.9648 57.845 67.3449C58.8494 65.6093 60.1502 64.2043 61.3687 62.6174C63.4599 59.8901 59.0964 57.08 56.7088 59.1462H56.7418Z" fill="white"/>
<path d="M67.7577 48.4352C67.1485 49.0633 66.7533 49.5757 65.9629 50.3526C65.7489 50.5675 65.3372 50.9146 65.2055 51.0138C64.8103 51.3279 64.448 51.8072 64.1681 52.1709C63.1637 53.3941 63.7894 55.1131 65.4689 55.2123C66.0288 55.2454 66.8356 55.2784 67.626 54.9478C68.12 54.7329 68.5975 54.5015 69.0585 54.2371C70.1617 53.5759 71.232 52.6006 71.8742 51.4932C73.3232 49.0468 69.8324 46.2698 67.7577 48.4187V48.4352Z" fill="white"/>
</g>
<defs>
<clipPath id="clip0_1396_12115">
<rect width="212" height="434" fill="white" transform="translate(0 0.218262)"/>
</clipPath>
</defs>
</svg>
