<svg width="96" height="197" viewBox="0 0 96 197" fill="none" xmlns="http://www.w3.org/2000/svg">
<g clip-path="url(#clip0_1005_17864)">
<path d="M47.7876 88.3861C47.9293 88.9338 48.0784 89.489 48.2275 90.0368C49.2043 93.4882 50.196 96.8195 51.046 100.173C55.997 97.7049 62.8344 94.5761 68.4416 95.6565C65.5336 91.1847 61.2537 87.6133 57.0931 84.0493C55.2812 84.5745 53.5215 85.1373 51.8289 85.9851C50.4197 86.6904 49.1372 87.5983 47.7876 88.3861Z" fill="#EBD460"/>
<path d="M22.3465 138.566C26.6563 130.5 30.4217 123.117 30.459 113.814C30.4963 105.875 29.348 97.592 27.7747 89.7588C25.6795 91.6571 23.4053 93.4578 21.0268 95.0785C20.9224 97.1718 20.2215 98.9275 19.021 100.638C23.6663 102.672 25.9778 109.619 20.9298 112.403C21.3399 112.778 21.9663 113.071 22.3391 113.386C22.8983 113.866 23.3979 114.414 23.808 115.022C24.6058 116.2 25.1203 117.618 25.0383 119.036C24.919 121.242 23.3382 123.38 21.1013 123.8C22.6821 125.301 23.7483 127.529 23.5023 129.645C23.2562 131.738 21.7202 133.727 19.4609 133.697C21.3847 136.233 18.7004 140.84 15.5464 141.102C16.7096 142.648 17.6863 144.831 18.0592 146.985C19.4162 144.081 20.8926 141.252 22.3391 138.551L22.3465 138.566Z" fill="#B16C3A"/>
<path d="M52.895 129.195C52.0003 135.212 49.9423 140.907 45.6997 145.439C54.1775 141.35 64.3032 139.722 69.0007 130.988C63.565 131.993 57.8684 131.648 52.895 129.195Z" fill="#C68F45"/>
<path d="M53.4169 116.582C53.5735 120.447 53.5287 124.401 53.0366 128.242C58.6139 129.893 64.0049 130.591 69.791 129.33C71.8116 124.753 72.7884 119.584 72.8555 114.414C66.6817 116.23 59.8219 117.88 53.4244 116.59L53.4169 116.582Z" fill="#EBD460"/>
<path d="M3.89243 85.6847C4.09375 87.4329 3.82532 90.3591 2.24458 91.5596C5.83107 92.2124 7.59821 97.1118 7.42672 100.376C11.8707 97.9147 16.4563 95.8663 20.6468 92.9251C24.9118 89.9389 28.4983 86.4875 32.0624 82.8335C28.0509 85.182 23.6666 87.0127 19.2897 88.6034C14.4506 90.3666 9.34299 92.0473 4.11612 91.7322C3.8626 91.7172 3.87752 91.387 4.11612 91.357C14.033 90.2841 22.7494 86.2849 31.4211 81.8206C22.2648 80.4701 13.2277 79.9374 3.94462 80.3575C3.65383 80.3725 3.58672 79.9074 3.87752 79.8623C13.0488 78.4968 22.5257 78.6168 31.6523 80.38C23.167 75.0079 13.1606 73.4998 3.36303 71.0312C4.21305 74.7378 3.59418 78.6093 1.00684 81.603C2.75907 82.0682 3.70602 83.9965 3.89988 85.6772L3.89243 85.6847Z" fill="#79C04F"/>
<path d="M19.2893 88.6108C14.4501 90.3741 9.34255 92.0547 4.11567 91.7396C4.08585 91.7396 4.07094 91.7171 4.04111 91.7096C3.47443 91.6721 2.93758 91.5595 2.438 91.372C2.3709 91.432 2.31125 91.507 2.24414 91.5595C5.83063 92.2123 7.59777 97.1118 7.42628 100.376C11.8702 97.9146 16.4559 95.8663 20.6463 92.9251C24.9113 89.9389 28.4978 86.4875 32.0619 82.8335C28.0504 85.1819 23.6661 87.0127 19.2893 88.6033V88.6108Z" fill="#55884C"/>
<path d="M51.2769 101.074C52.2089 104.885 52.9396 108.734 53.2155 112.816C53.2752 113.754 53.3348 114.707 53.3795 115.66C60.1275 115.57 66.3386 114.722 72.8405 112.869C72.7659 109.08 72.2216 105.328 71.2747 101.854C70.7975 100.091 70.0891 98.4702 69.2317 96.9471C62.6179 96.7145 57.4656 99.4381 51.2769 101.066V101.074Z" fill="#C68F45"/>
<path d="M22.436 73.9877C23.4426 74.3178 24.4641 74.678 25.4782 75.0756C22.7044 64.2187 17.0526 53.8195 17.3657 42.3999C17.6192 32.976 21.5114 23.4622 29.3629 17.6173C36.0811 12.6128 44.887 10.647 52.9547 13.198C52.7086 9.92668 53.2082 6.46778 53.6109 3.15893C51.7393 4.59952 49.1669 5.59742 47.1239 5.91255C44.0966 6.37774 40.8531 5.10972 38.6684 3.04639C36.178 8.54612 26.9322 12.035 22.1601 7.45068C22.6523 9.87416 21.4742 12.5678 19.8263 14.361C17.6789 16.6869 14.5472 17.8874 11.3783 18.1275C12.1836 19.9658 12.1687 23.4172 12.1165 24.205C11.7959 28.5943 9.67827 32.6759 6.20363 35.4821C8.78352 36.7876 10.3419 39.7513 10.6029 42.5124C10.9831 46.519 8.76115 49.8054 5.82336 52.4014C5.79354 52.4239 5.76371 52.4389 5.73389 52.4615C10.1928 54.6073 12.9441 60.9774 9.32783 64.7589C11.2217 65.2917 12.8472 66.3496 14.2266 67.7977C15.181 68.8031 17.0153 70.7839 16.9109 72.3595C18.775 72.8622 20.6167 73.395 22.436 73.9877Z" fill="#EBD460"/>
<path d="M18.3945 34.799C16.1874 40.3213 14.8304 46.1811 14.5172 52.0785C14.301 56.0626 14.1518 60.3319 15.3225 64.1884C16.1501 66.9196 17.2686 69.6282 17.4028 72.4868C19.1028 72.952 20.788 73.4397 22.4433 73.9799C23.4499 74.3101 24.4714 74.6702 25.4854 75.0679C22.7117 64.211 17.0598 53.8117 17.373 42.3921C17.4401 39.8411 17.7905 37.2825 18.4019 34.7915L18.3945 34.799Z" fill="#C68F45"/>
<path d="M55.9374 83.051C55.3632 82.5558 54.7891 82.0531 54.2299 81.5504C50.6508 78.3316 46.5424 74.6626 44.5068 70.2358C45.1928 76.0132 46.095 81.7155 47.5266 87.4028C49.7188 85.302 52.9474 83.8389 55.9299 83.051H55.9374Z" fill="#C68F45"/>
<path d="M27.4167 22.0138C20.7358 28.9691 18.4243 38.8731 19.6546 48.1319C20.8998 57.4732 25.3885 66.0417 27.3719 75.2179C27.4241 75.458 27.3719 75.6681 27.275 75.8407C30.004 77.1012 32.5093 78.7668 34.2243 81.1528C34.7238 81.2729 35.1414 81.8131 34.776 82.2858C33.0536 84.4992 31.0106 86.7351 28.7364 88.8735C30.4141 95.056 31.3387 101.509 31.9128 107.864C32.472 114.031 32.3751 120.371 30.3097 126.299C26.4175 137.486 18.6257 146.977 15.576 158.547C12.4071 170.582 14.9944 183.299 26.3057 190.307C34.6418 195.469 51.3365 199.003 57.0257 188.551C59.8367 183.382 60.7389 175.661 58.2858 170.259C56.5932 166.545 53.0738 163.754 48.6895 164.444C45.0807 165.014 42.6872 167.7 42.4038 170.987C46.1767 166.147 54.9081 168.953 55.7879 175.571C56.8989 183.975 49.547 190.292 41.1064 187.929C36.8563 186.743 33.4637 183.577 31.0255 180.111C28.043 175.871 27.6702 171.917 29.1092 167.04C30.854 161.15 34.3361 153.377 39.824 148.898C39.7941 148.695 39.8389 148.478 39.9955 148.305C44.9539 142.865 49.465 137.838 51.0233 130.463C52.537 123.267 51.7242 115.179 50.9189 107.924C50.0466 100.106 46.9969 92.7225 45.4162 85.0319C43.992 78.0916 42.9929 70.7986 43.0898 63.7157C42.6797 63.093 43.4403 62.1851 44.2977 62.5453C49.6588 64.7587 57.1002 62.9804 61.917 60.1668C67.1513 57.113 69.7834 52.6487 71.2747 47.0965C71.0435 46.6913 71.1255 46.1286 71.7295 46.0085C79.074 44.5454 86.5899 45.7609 93.1142 49.2724C95.1945 44.6505 94.4191 39.7285 93.4721 34.889C87.0075 37.7177 79.3499 39.4434 72.3558 37.8152C72.2589 37.7927 72.2142 37.7252 72.1993 37.6501C71.9681 37.7852 71.6326 37.7402 71.5356 37.4025C68.8812 27.6336 62.946 18.4799 52.619 15.1035C43.7162 12.1923 33.6874 15.4861 27.4167 22.0138ZM27.8044 28.3239C27.2526 29.0441 26.6636 29.6819 26.2087 30.4697C25.7837 31.205 25.5824 31.9328 24.7249 32.278C24.5087 32.368 24.1881 32.263 24.039 32.0979C23.3082 31.3326 23.6289 30.2822 23.9793 29.4118C24.3596 28.4589 24.9113 27.4385 25.7092 26.7482C26.7829 25.8178 28.7663 27.0859 27.8193 28.3239H27.8044ZM32.5466 23.2818C32.2484 23.7845 31.7711 24.2272 31.2716 24.5273C31.0628 24.6549 30.8466 24.7599 30.6229 24.8499C30.265 25 29.8996 24.985 29.6461 24.97C28.8856 24.9175 28.5948 24.1447 29.057 23.5894C29.1913 23.4319 29.3553 23.2068 29.5268 23.0642C29.5864 23.0192 29.7654 22.8616 29.8698 22.7641C30.2277 22.4115 30.4066 22.1789 30.6825 21.8937C31.622 20.9183 33.2028 22.1789 32.5466 23.2893V23.2818ZM54.5204 28.2113C54.5651 28.1363 54.6322 28.0913 54.6918 28.0537C55.2138 26.9958 56.1085 26.268 57.5327 26.7332C59.7771 27.4685 58.8301 31.6702 58.3082 33.2158C57.7415 34.8965 55.4598 37.2075 53.7374 35.1816C52.2462 33.4184 53.4019 29.8695 54.5204 28.2038V28.2113Z" fill="#79C04F"/>
<path d="M48.6896 164.437C45.0808 165.007 42.6873 167.693 42.404 170.979C46.1769 166.14 54.9082 168.946 55.7881 175.564C56.899 183.967 49.5471 190.285 41.1066 187.921C36.8565 186.736 33.4639 183.569 31.0256 180.103C28.0431 175.864 27.6703 171.91 29.1094 167.033C30.1234 163.596 31.7415 159.522 33.9933 155.831C34.3064 153.355 34.6047 150.871 35.0222 148.41C35.5293 145.401 36.4762 142.513 37.1846 139.549C40.7412 124.701 41.5689 108.854 39.1605 93.7654C36.2525 75.548 24.2702 56.1827 31.9055 37.6201C35.0073 30.0796 40.786 23.8821 48.1752 20.033C51.0384 18.5474 54.1849 17.4519 57.2868 17.1968C55.8402 16.364 54.2893 15.6512 52.6117 15.1035C43.7088 12.1923 33.6801 15.4861 27.4093 22.0138C20.7285 28.9691 18.417 38.8731 19.6473 48.1319C20.8925 57.4732 25.3812 66.0417 27.3646 75.2179C27.4168 75.458 27.3646 75.6681 27.2677 75.8407C29.9967 77.1012 32.502 78.7668 34.2169 81.1528C34.7165 81.2729 35.1341 81.8131 34.7687 82.2858C33.0463 84.4992 31.0033 86.7351 28.7291 88.8735C30.4068 95.056 31.3314 101.509 31.9055 107.864C32.4647 114.031 32.3678 120.371 30.3024 126.299C26.4102 137.486 18.6183 146.977 15.5687 158.547C12.3998 170.582 14.9871 183.299 26.2983 190.307C34.6345 195.469 51.3292 199.003 57.0183 188.551C59.8294 183.382 60.7316 175.661 58.2785 170.259C56.5859 166.545 53.0665 163.754 48.6822 164.444L48.6896 164.437ZM27.8045 28.3239C27.2528 29.0441 26.6637 29.6819 26.2089 30.4697C25.7839 31.205 25.5825 31.9328 24.7251 32.278C24.5088 32.368 24.1882 32.263 24.0391 32.0979C23.3084 31.3326 23.629 30.2822 23.9794 29.4118C24.3597 28.4589 24.9115 27.4385 25.7093 26.7482C26.783 25.8178 28.7664 27.0859 27.8194 28.3239H27.8045ZM29.0497 23.5894C29.1839 23.4319 29.348 23.2068 29.5195 23.0642C29.5791 23.0192 29.7581 22.8616 29.8625 22.7641C30.2204 22.4115 30.3993 22.1789 30.6752 21.8937C31.6147 20.9183 33.1954 22.1789 32.5393 23.2893C32.241 23.792 31.7638 24.2347 31.2642 24.5348C31.0555 24.6624 30.8392 24.7674 30.6155 24.8574C30.2576 25.0075 29.8923 24.9925 29.6388 24.9775C28.8782 24.925 28.5874 24.1522 29.0497 23.5969V23.5894Z" fill="#55884C"/>
<path d="M56.9737 31.8954C57.0707 31.4602 57.1527 31.0175 57.19 30.5674C57.2198 30.1922 57.4062 28.6916 57.1154 28.4215C56.4518 27.8062 55.9149 29.1568 55.5347 30.2372C55.8777 30.875 56.3698 31.4227 56.9812 31.8954H56.9737Z" fill="white"/>
<path d="M94.74 33.6588C94.6281 33.1711 94.054 33.0286 93.6439 33.2237C86.7095 36.525 80.0063 37.0427 72.4232 37.3503C72.4307 37.2903 72.4381 37.2303 72.4232 37.1703C70.5442 27.1762 64.5046 17.6698 54.4908 13.7307C54.3342 13.6707 54.1851 13.6257 54.0285 13.5657C55.2066 9.52904 55.1619 4.91466 55.5794 0.787987C55.6689 -0.0748635 54.4013 -0.269943 53.9912 0.367816C52.8429 2.16104 49.2415 3.90925 47.1612 4.18687C43.8208 4.63705 41.8225 2.75379 39.004 1.58331C38.7132 1.46326 38.4374 1.53829 38.2435 1.69586C38.1242 1.73337 38.0123 1.7934 37.9303 1.90594C35.9171 4.63705 33.6653 6.83544 30.1161 7.40567C27.0814 7.89337 24.8445 6.69288 22.0186 6.0026C21.9067 5.97259 21.78 6.0026 21.6756 6.06263C21.4892 5.76251 21.0343 5.95008 21.012 6.26521C20.8032 9.10887 20.3931 11.6074 18.1338 13.6632C16.046 15.5615 13.2201 16.2293 10.4538 16.4318C10.0214 16.4619 9.74547 16.732 9.64108 17.0471C9.50687 17.1221 9.46958 17.3022 9.58143 17.4222C9.58888 17.4297 9.59634 17.4448 9.6038 17.4523C9.63362 17.6999 9.76038 17.9249 9.99898 18.0525C11.1025 20.2284 10.5135 24.5952 10.0363 26.4784C9.20861 29.7422 7.33708 32.3758 4.74974 34.5517C4.53351 34.7318 4.45894 34.9419 4.47386 35.1444C4.42912 35.257 4.43657 35.3845 4.53351 35.4971C6.79277 37.9881 9.04457 40.0214 8.93273 43.6304C8.82834 46.9392 6.53925 49.0401 4.92123 51.7187C4.83921 51.8462 4.83176 51.9738 4.85413 52.0938C4.81685 52.0788 4.77956 52.0638 4.74228 52.0563C4.31727 51.9212 4.11595 52.439 4.3471 52.7166C5.86073 54.5398 8.0678 55.5302 8.88054 57.9087C9.74547 60.4522 8.76869 62.5306 7.61296 64.759C7.37436 65.2167 7.90376 65.9144 8.41824 65.5393C8.46298 65.5093 8.50772 65.4718 8.55246 65.4342C10.1481 66.3271 11.7139 67.3775 12.9591 68.6831C13.6824 69.4409 14.2938 70.2812 14.7859 71.1891C14.9127 71.4217 15.0022 71.6468 15.0991 71.8643C10.849 70.7839 6.53925 69.8685 2.29661 68.9307C1.47642 68.7506 0.94702 69.5309 1.26764 70.2212C3.07207 74.0627 2.23696 77.7392 0.0597189 81.2131C-0.0521258 81.3857 -0.0148442 81.5733 0.0970004 81.7159C0.0970004 81.7834 0.0970004 81.8509 0.156651 81.9034C1.49133 83.209 2.53521 84.3644 2.54267 86.3002C2.55758 88.0709 1.93871 89.6166 1.02158 91.1022C0.887369 91.3197 0.969389 91.6199 1.1558 91.7849C1.14834 91.8975 1.19308 92.01 1.31238 92.0701C3.03479 92.8879 4.30982 93.8858 5.0629 95.664C5.80108 97.3972 5.61467 99.2655 6.19626 101.006C6.19626 101.021 6.21118 101.036 6.21863 101.051C5.91292 101.351 6.20372 101.922 6.68092 101.809C11.0801 100.744 15.5539 98.6202 19.7369 95.9191C19.2821 97.5623 18.6259 99.0404 17.4851 100.473C17.1794 100.856 17.254 101.411 17.7834 101.569C23.4651 103.22 22.6747 108.337 19.4834 111.758C19.0286 112.246 19.4909 112.861 20.065 112.778C20.4229 113.904 21.9365 114.797 22.5405 115.742C24.2182 118.368 23.5769 121.527 20.3707 122.555C20.1097 122.637 19.9532 122.848 19.9084 123.073C19.7667 123.148 19.6698 123.298 19.7295 123.455C20.3558 125.083 21.5786 126.449 21.862 128.197C22.0111 129.105 21.9291 130.088 21.4295 130.891C20.833 131.859 19.7667 132.054 18.8422 132.617C18.6856 132.714 18.6036 132.842 18.5737 132.977C18.3724 132.977 18.1636 133.082 18.1935 133.322C18.365 134.732 18.79 136.038 18.0891 137.403C17.2092 139.099 15.7478 139.152 14.1223 139.692C13.578 139.872 13.5258 140.48 13.9061 140.787C14.8307 142.678 15.8 144.501 16.1728 146.587C16.4338 148.028 16.2026 149.558 16.2847 151.014C12.4968 160.25 10.4687 170.132 14.5622 179.601C19.133 190.18 30.8617 196.633 42.4265 196.955C47.9441 197.113 53.7601 196.047 57.2869 191.583C60.933 186.976 62.0291 179.976 61.3506 174.333C60.6422 168.429 56.4965 162.179 49.6666 162.396C43.8283 162.576 39.8988 167.813 41.2186 173.201C41.1813 173.313 41.1365 173.418 41.1067 173.531C40.9278 174.138 41.7927 174.461 42.1357 173.951C45.4239 169.014 52.7908 169.134 53.8048 175.677C54.3789 179.421 52.9846 183.637 49.3683 185.46C42.9484 188.694 36.2527 184.222 32.6587 179.158C28.1476 172.795 30.8767 165.6 34.2171 159.267C37.4084 153.205 41.748 150.016 47.3402 146.392C51.717 145.402 55.982 143.548 60.0159 141.703C63.8559 139.947 67.1069 137.726 69.4705 134.252C74.3768 127.042 75.443 117.13 74.6005 108.734C73.7355 100.121 70.7083 93.6232 64.184 87.7033C56.765 80.9655 45.8191 74.8656 44.2384 64.3913C49.7113 66.7848 57.3615 64.6389 62.2454 61.9378C67.5468 59.0041 72.1473 53.5644 72.3785 47.4494C79.7006 46.2039 86.6275 47.3369 93.0548 51.0134C93.4127 51.216 93.9645 51.1109 94.1584 50.7358C96.9694 45.2736 96.0374 39.3762 94.7325 33.6363L94.74 33.6588ZM14.2267 67.7977C12.8473 66.3496 11.2218 65.2842 9.32791 64.759C12.9517 60.9774 10.1928 54.6073 5.73397 52.4615C5.7638 52.439 5.80108 52.4315 5.82345 52.4014C8.76869 49.8054 10.9832 46.5191 10.6029 42.5124C10.342 39.7513 8.7836 36.7801 6.20372 35.4821C9.67836 32.6759 11.796 28.5943 12.1166 24.205C12.1762 23.4172 12.1911 19.9658 11.3784 18.1275C14.5399 17.8874 17.679 16.6869 19.8264 14.361C21.4817 12.5678 22.6598 9.87418 22.1602 7.45069C26.9323 12.0276 36.1706 8.53863 38.6685 3.0464C40.8532 5.10224 44.0967 6.37776 47.124 5.91257C49.167 5.59744 51.7394 4.59953 53.6109 3.15895C53.2083 6.4753 52.7087 9.9267 52.9548 13.198C44.8871 10.647 36.0812 12.6128 29.363 17.6173C21.5115 23.4697 17.6193 32.9761 17.3658 42.3999C17.0527 53.8195 22.7045 64.2187 25.4783 75.0757C24.4642 74.678 23.4427 74.3178 22.4361 73.9877C20.6168 73.395 18.7751 72.8548 16.911 72.3596C17.0154 70.7914 15.1811 68.8031 14.2267 67.7977ZM7.4191 100.376C7.59059 97.1121 5.8309 92.2126 2.23696 91.5598C3.8177 90.3594 4.08613 87.4407 3.88481 85.685C3.69094 83.9968 2.74399 82.0685 0.991758 81.6108C3.5791 78.6096 4.19797 74.7455 3.34795 71.039C13.1455 73.5 23.1519 75.0156 31.6372 80.3878C22.5181 78.6321 13.0337 78.5045 3.86244 79.8701C3.57164 79.9151 3.63875 80.3803 3.92954 80.3653C13.2127 79.9451 22.2497 80.4778 31.406 81.8284C22.7344 86.2852 14.0179 90.2918 4.10104 91.3648C3.86244 91.3948 3.84752 91.7249 4.10104 91.7399C9.32791 92.0475 14.4429 90.3744 19.2746 88.6112C23.644 87.0205 28.0358 85.1898 32.0473 82.8413C28.4832 86.4953 24.8967 89.9467 20.6317 92.9329C16.4412 95.8666 11.8556 97.9224 7.41164 100.383L7.4191 100.376ZM15.5539 141.117C18.708 140.847 21.3997 136.248 19.4685 133.712C21.7278 133.742 23.2638 131.746 23.5098 129.66C23.7559 127.544 22.6896 125.316 21.1089 123.815C23.3458 123.395 24.9265 121.249 25.0458 119.051C25.1278 117.625 24.6059 116.215 23.8155 115.037C23.4054 114.429 22.9059 113.881 22.3466 113.401C21.9738 113.086 21.3475 112.786 20.9374 112.418C25.9779 109.635 23.6739 102.687 19.0286 100.654C20.229 98.9428 20.9299 97.1871 21.0343 95.0938C23.4129 93.4656 25.6871 91.6724 27.7823 89.7741C29.3481 97.5998 30.5038 105.891 30.4666 113.829C30.4218 123.133 26.6638 130.516 22.3541 138.581C20.9076 141.29 19.4312 144.111 18.0742 147.015C17.7013 144.861 16.7246 142.678 15.5614 141.132L15.5539 141.117ZM45.6998 145.439C49.935 140.907 51.9929 135.213 52.8951 129.195C57.861 131.641 63.5651 131.994 69.0008 130.988C64.3108 139.722 54.1851 141.35 45.6998 145.439ZM69.7911 129.33C64.0125 130.598 58.6141 129.893 53.0368 128.242C53.5289 124.401 53.5737 120.447 53.4171 116.583C59.822 117.881 66.6744 116.222 72.8482 114.407C72.7811 119.576 71.8043 124.746 69.7837 129.323L69.7911 129.33ZM71.2749 101.862C72.2219 105.335 72.7662 109.087 72.8408 112.876C66.3389 114.729 60.1278 115.577 53.3798 115.667C53.3351 114.714 53.2754 113.761 53.2158 112.823C52.9399 108.742 52.2166 104.893 51.2771 101.081C57.4659 99.4531 62.6182 96.7294 69.2319 96.962C70.0894 98.4852 70.7977 100.106 71.2749 101.869V101.862ZM68.4415 95.6565C62.8344 94.5761 55.997 97.7048 51.046 100.173C50.1959 96.8195 49.2043 93.4881 48.2275 90.0367C48.0709 89.489 47.9292 88.9338 47.7876 88.3861C49.1446 87.5982 50.4196 86.6979 51.8289 85.9851C53.514 85.1372 55.2812 84.5745 57.093 84.0493C61.2537 87.6132 65.541 91.1847 68.4415 95.6565ZM54.2224 81.5508C54.7816 82.0535 55.3557 82.5562 55.9299 83.0514C52.9473 83.8392 49.7188 85.2948 47.5266 87.4032C46.0875 81.7159 45.1928 76.0135 44.5068 70.2362C46.5424 74.663 50.6433 78.332 54.2298 81.5508H54.2224ZM93.107 49.2727C86.5827 45.7612 79.0668 44.5458 71.7223 46.0089C71.1184 46.1289 71.0363 46.6916 71.2675 47.0968C69.7762 52.649 67.1367 57.1134 61.9098 60.1671C57.1005 62.9732 49.6516 64.7515 44.2906 62.5456C43.4331 62.1929 42.6725 63.0933 43.0826 63.716C42.9932 70.8064 43.9848 78.0994 45.409 85.0322C46.9897 92.7228 50.0394 100.106 50.9118 107.924C51.717 115.172 52.5298 123.268 51.0161 130.463C49.4652 137.839 44.9467 142.866 39.9883 148.305C39.8317 148.478 39.7869 148.696 39.8168 148.898C34.3289 153.377 30.8468 161.151 29.1021 167.041C27.663 171.917 28.0358 175.872 31.0183 180.111C33.4565 183.57 36.8492 186.736 41.0993 187.929C49.5323 190.292 56.8843 183.967 55.7807 175.571C54.9083 168.946 46.1695 166.148 42.3967 170.987C42.68 167.701 45.0735 165.015 48.6823 164.444C53.0666 163.754 56.5935 166.545 58.2786 170.259C60.7317 175.661 59.8295 183.382 57.0185 188.552C51.3293 199.003 34.6346 195.47 26.2985 190.307C14.9873 183.3 12.3999 170.582 15.5688 158.547C18.6185 146.977 26.4103 137.486 30.3025 126.299C32.3679 120.379 32.4648 114.031 31.9056 107.864C31.324 101.509 30.4069 95.0563 28.7292 88.8738C30.996 86.7354 33.0464 84.4995 34.7688 82.2861C35.1417 81.8059 34.7241 81.2732 34.2171 81.1531C32.5021 78.7672 29.9894 77.1015 27.2678 75.841C27.3647 75.6684 27.4169 75.4658 27.3647 75.2182C25.3814 66.042 20.8927 57.4735 19.6474 48.1322C18.4172 38.8735 20.7286 28.9619 27.4095 22.0141C33.6802 15.4865 43.709 12.1926 52.6118 15.1038C62.9388 18.4802 68.874 27.6339 71.5285 37.4029C71.6179 37.7405 71.9535 37.7855 72.1921 37.6505C72.207 37.7255 72.2517 37.793 72.3486 37.8155C79.3427 39.4437 87.0003 37.7105 93.4649 34.8893C94.4119 39.7213 95.1873 44.6508 93.107 49.2727Z" fill="#290A13"/>
<path d="M57.5332 26.7336C56.1165 26.2684 55.2143 26.9962 54.6923 28.0541C54.6252 28.0916 54.5656 28.1366 54.5208 28.2117C53.4024 29.8773 52.2466 33.4263 53.7379 35.1895C55.4529 37.2153 57.7419 34.9044 58.3086 33.2237C58.8306 31.6781 59.7775 27.4764 57.5332 26.7411V26.7336ZM57.1902 30.5676C57.1529 31.0178 57.0783 31.4605 56.974 31.8957C56.3625 31.423 55.8704 30.8752 55.5274 30.2375C55.9152 29.1495 56.4445 27.8065 57.1082 28.4217C57.399 28.6919 57.2126 30.185 57.1827 30.5676H57.1902Z" fill="#290A13"/>
<path d="M25.6947 26.7487C24.9043 27.439 24.3451 28.4594 23.9648 29.4123C23.6218 30.2827 23.2937 31.3406 24.0245 32.0984C24.181 32.256 24.4942 32.361 24.7104 32.2785C25.5754 31.9333 25.7692 31.2055 26.1942 30.4702C26.6491 29.6824 27.2381 29.0447 27.7899 28.3244C28.7368 27.0864 26.7609 25.8109 25.6798 26.7487H25.6947Z" fill="#79C04F"/>
<path d="M30.6829 21.8864C30.407 22.1715 30.228 22.4041 29.8701 22.7568C29.7732 22.8543 29.5868 23.0119 29.5271 23.0569C29.3482 23.1994 29.1841 23.417 29.0574 23.5821C28.6026 24.1373 28.8859 24.9176 29.6464 24.9627C29.8999 24.9777 30.2653 24.9927 30.6232 24.8426C30.8469 24.7451 31.0631 24.64 31.2719 24.52C31.7715 24.2199 32.2561 23.7772 32.5469 23.2745C33.2031 22.164 31.6224 20.9035 30.6829 21.8789V21.8864Z" fill="#79C04F"/>
</g>
<defs>
<clipPath id="clip0_1005_17864">
<rect width="96" height="197" fill="white"/>
</clipPath>
</defs>
</svg>
