<?xml version="1.0" encoding="UTF-8"?>
<svg id="Layer_2" data-name="Layer 2" xmlns="http://www.w3.org/2000/svg" viewBox="0 0 399.75 234.18">
  <defs>
    <style>
      .cls-1 {
        fill: #fff;
      }
    </style>
  </defs>
  <g id="Layer_1-2" data-name="Layer 1">
    <g>
      <path class="cls-1" d="M366.35,52.25c-9.61,2.42-18.28,8.07-26.6,13.25-5.61,3.5-11.12,6.79-17.72,7.95-5.6.99-11.27.47-16.9.04-7.95-.61-16.48-1.22-24.28.83-7.27,1.92-13.45,6.63-18.58,11.98-10.51,10.94-17.84,24.55-26.06,37.17-8.37,12.85-14.91,27.79-27.99,36.59-.24,3.75-2.64,7.52-4.74,10.55-6.87,9.94-16.6,18.37-27.33,24.73,31.23,6.04,63,3.86,93.81-3.72,34.7-8.53,69.48-24.41,92.73-52.42,7.86-9.46,15.78-21.26,18.41-33.56-1.02.44-2.06.84-3.1,1.2-1.73,2.37-3.5,4.71-5.32,7.01-2.2,2.77-4.57,6.35-7.59,8.31-5.93,3.85-3.82-7.87-3.14-11.26-.79.12-1.57.24-2.36.34-.67,1.04-1.38,2.06-2.14,3.04-.92,1.2-2.11,2.89-3.68,3.28-2.92.73-3.52-3.19-3.74-5.55-10.14.35-20.11-.83-29.77-3.24-.47.06-.94-.04-1.18-.3-4.62-1.21-9.17-2.7-13.62-4.45-.41-.02-.79-.15-.99-.38-.71-.29-1.41-.6-2.11-.89-.42-.02-.83-.16-1.03-.44-2.51-1.09-4.98-2.27-7.41-3.52-.35-.06-.65-.2-.79-.41-4.69-2.45-9.26-5.18-13.66-8.17-.18-.12-.28-.24-.34-.36-2.27,1.4-4.83,2.04-7.58,1.78-.71-.07-.71-1.15-.01-1.23,2.65-.29,5.16-1.31,7.22-3.01,1.16-.96,2.17-2.11,2.9-3.44.58-1.07.69-2.05,1.79-2.68.34-.2.86-.07,1.04.29,1.21,2.43-1.99,5.71-3.76,7.18.17.02.33.07.46.16,4.11,2.8,8.38,5.37,12.76,7.69,1.24-1.86,2.54-3.68,3.96-5.39,1.09-1.32,3.32-4.28,5.42-3.2,1.94.99,1.22,5.14,1.12,6.82-.13,2.17-.36,4.33-.64,6.49.43.18.86.36,1.29.54,2.11-3.6,4.31-7.16,6.7-10.58,1.17-1.68,4.21-7.17,7.08-6.05,2.82,1.1,2.32,8.04,2.43,10.33.19,3.9.23,7.82.18,11.72,9.67,2.41,19.63,3.51,29.69,3.06.03,0,.06,0,.08,0,3.08-.14,6.16-.42,9.25-.86,5.24-.75,10.64-1.9,15.71-3.76.16-.11.36-.17.58-.21,2.11-.8,4.17-1.72,6.13-2.81,6.4-3.57,9.09-10.93,11.23-17.61,2.37-7.42,3.96-16.12,2.64-24.11-8.76-7.54-18.87-11.61-30.42-8.7Z"/>
      <path class="cls-1" d="M63.03,128.5c3.63,4.2,7.51,8.2,11.42,12.04,16.46,16.19,35.48,29.62,56.25,39.68,3.41-3.4,6.66-6.96,9.64-10.7.64-.8,1.25-1.63,1.84-2.46-22.76-4.21-44.12-13.82-63.24-26.76-5.42-3.67-10.81-7.57-15.91-11.8Z"/>
      <path class="cls-1" d="M38.39,69.51c.5.85,1.68.73,2.49.45.77-.27,2.81-1.32,1.94-2.42-.65-.82-2.04-.63-2.87-.29-.79.36-2.18,1.2-1.56,2.26Z"/>
      <path class="cls-1" d="M120.62,197.09c1.42-.62,3.15-1.79,2.45-3.56-.31-.77-1.08-1.54-1.91-1.89-.3.25-.59.51-.88.76-1.3,1.09-4.57,2.88-6.67,4.86,2.16,1.08,4.87.76,7.01-.17Z"/>
      <path class="cls-1" d="M140.35,176.38c1.68-1.38,2-3.47,1.43-5.2-1.26,1.53-2.55,3.02-3.88,4.47-.74.81-1.52,1.6-2.28,2.4,1.68,0,3.45-.63,4.73-1.68Z"/>
      <path class="cls-1" d="M131.41,188.27c.03,1.07.82,1.66,1.85,1.48,1.13-.2,2.26-.88,3.14-1.58.5-.4,1.25-1.09,1.08-1.83-.34-1.44-2.85-1.02-3.8-.76-1.19.37-2.31,1.36-2.27,2.7Z"/>
      <path class="cls-1" d="M146.63,180.75c-.1.86.77,1.55,1.54,1.74.94.23,3.04.08,3.4-1.06.39-1.24-1.51-1.67-2.33-1.74-.91-.05-2.48-.05-2.61,1.06Z"/>
      <path class="cls-1" d="M27.22,56.41c.97,3.76,1.78,7.55,2.4,11.37,2.75-4,2.23-9.54-2.4-11.37Z"/>
      <path class="cls-1" d="M184.38,13.98c-3.07,1.84-6.03,4.08-8.24,6.92-.42.54-2.41.87-2.4-.21,0-2.39.18-4.64.93-6.92.42-1.28,1.59-2.64,1.84-3.9.17-.87.74-1.57-.83-1.62-1.28-.04-2.54,1.61-3.37,2.55-.6.68-1.18,1.4-1.62,2.2-.35.64-2.45.79-2.4-.21.1-1.96.24-3.93.73-5.84.33-1.28.63-1.39.16-2.35-.61-1.24-3.33-1.63-4.74-2.04-3.73-1.07-9.65-1.63-11.06,3.05-.9,2.99.2,6.73.87,9.66,1,4.33,2.39,8.58,3.25,12.94,2.27,11.46-.87,24.4-5.56,35.18,1.63-1.08,3.27-2.15,4.89-3.21,14.68-9.49,29.53-18.82,45.05-26.89-4.12-7.73-10.68-13.92-17.5-19.31Z"/>
      <path class="cls-1" d="M259.29,20.05c-2.76,5.05-11.83,6.54-16.74,7.44-1.43.26-19.4,2.98-18.94-2.51-6.53,2.74-12.93,5.79-19.23,9.04-.11.09-.26.16-.41.21-7.32,3.79-14.49,7.86-21.52,12.07-18.73,11.21-36.54,23.91-55.42,34.86-14.68,8.51-31.66,16.25-49.05,15.47-8.88-.4-14.76-4.65-19.19-10.63-4.94.81-14.68,1.34-15.87-4.74-.94-4.81,3.48-9.19,8-10.11-.02-.06-.05-.11-.07-.17-5.32-12.66-14.41-25.71-28.36-29.53,1.57,4.25,2.98,8.57,4.18,12.94,2.88.61,5.86,2.21,6.92,5.06,1.4,3.78-.67,8.45-3.57,11.05.6,4.32.95,8.68,1.01,13.06.3,23.14-8.4,50.11-27.13,65.23,4.57-.18,9.29-1.57,13.44-3.09,14.33-5.24,26.02-15.62,35.45-27.37.36-.45,1.08-.61,1.66-.45.21.04.4.13.53.26,23.02,23.81,55.77,41.48,88.26,47.36,3.84-5.67,7.17-11.68,13.19-15.41,7.28-4.51,16.14-4.67,24.44-4.32,8.48.44,20.84,1.17,26.02,9.16.61.94.98,1.9,1.17,2.88,7.74-5.8,12.84-13.69,17.75-22,4.83-8.18,10.12-16.08,15.19-24.11,7.94-12.57,16.36-26.53,29.27-34.6,12.55-7.84,27.36-5.54,41.38-4.82,8.96.46,16.36-1.69,23.99-6.41,7.39-4.58,14.73-9.4,22.79-12.74,13.62-5.64,26.24-3.92,37.59,4.52-.46-1.66-1.06-3.27-1.84-4.82-2.8-5.57-8.13-9.36-13.22-12.7-16.53-10.83-35.75-18.02-54.85-22.74-22.42-5.54-46.27-7.48-69.06-3.01,2.1,1.18,3.63,3.05,2.21,5.66ZM38.54,65.94c1.88-.78,4.37-1.03,6.08.3,1.28.99,1.08,2.51,0,3.57-1.42,1.4-3.71,2.23-5.7,2-1.35-.16-2.98-.88-3.2-2.39-.25-1.69,1.5-2.87,2.82-3.48ZM31.22,74.27c1.14-1.47,3.33-1.42,4.86-.69,1.78.85,3.44,2.77,3.87,4.72.33,1.49-.46,2.8-1.93,3.2-2.02.55-3.98-.65-5.43-1.94-1.35-1.28-2.74-3.53-1.37-5.3ZM41.5,95.41c-2.74.59-6.46-.09-7.15-3.3-.67-3.15,2.21-5.32,4.88-6.16.09-.03.18-.07.29-.09,2.83-.65,6.85-.11,7.92,3.09,1.19,3.57-3.13,5.85-5.95,6.46ZM58.46,95.38c-1.3,2.04-4.86,1.28-6.54.25-1.55-.95-2.64-2.92-1.76-4.7.94-1.89,3.32-1.95,4.99-1.08.07.02.13.05.19.09,1.5.95,4.46,3.31,3.12,5.43ZM205.74,71.35c-3.79,9.69-9.6,25.27-1.89,34.6.63.76-.38,1.85-1.11,1.12-8.58-8.76-4.62-27.32,1.09-36.57.61-.99,2.35-.27,1.91.85ZM216.46,108.41c-8.29-11.04-7.03-27.71-.44-39.33.59-1.04,2.07-.15,1.79.89-1.81,6.67-4.39,12.88-4.5,19.93-.1,6.21,1.47,12.16,4.59,17.51.57.97-.75,1.92-1.44,1.01ZM217.31,49.96c-3.17,2.12-8.14,3.89-12,3.11-2.45-.49-3.27-2.43-2.1-4.59,1.61-2.97,4.98-4.93,8.02-6.11.06-.02.13-.05.2-.07.03-.01.06-.03.1-.04,2.57-.92,7.07-1.53,8.68,1.42,1.34,2.47-.98,5-2.9,6.28ZM220.57,36.47c-2.16,1.81-5.53,3.83-8.49,3.41-1.92-.27-2.86-1.79-2.53-3.64.33-1.88,1.69-3.48,3.33-4.4.05-.04.11-.07.17-.1,2.39-1.18,5.95-1.89,8.37-.37,2.29,1.44.71,3.79-.84,5.09ZM232.31,65.21c-3.09,7.94-5.82,14.92-5.74,23.62.07,7.72,2.14,15.21,5.41,22.16.29.61-.67,1.1-1.02.55-8.68-13.36-10.34-34.34-.46-47.64.84-1.12,2.22.25,1.81,1.31ZM232.24,52.4c-1.98,1.1-4.83,2.39-7.11,1.46-1.54-.63-1.73-2.17-.95-3.5,1.11-1.89,3.41-2.91,5.46-3.33,1.64-.3,4.45-.42,5.45,1.28,1.06,1.79-1.63,3.41-2.85,4.09ZM238.22,41.3c-3.28,1.84-8.16,3.3-11.92,2.27-2.17-.6-3.65-2.42-2.69-4.67,1.2-2.84,4.57-4.32,7.35-5.04,2.99-.69,7.3-.75,9.58,1.74,2.06,2.25-.29,4.57-2.31,5.71ZM249.42,48.11c-2.03,1.21-4.92,2.36-7.24,1.19-1.46-.74-2.03-2.35-1.5-3.88.71-2.03,2.78-3.18,4.74-3.67.07-.02.16-.03.24-.04,2.07-.4,5.18-.39,6.47,1.57,1.33,2.02-1.22,3.93-2.73,4.82ZM253.08,36.27c-1.9.78-4.26,1.11-6.18.21-1.15-.53-2.11-1.69-1.59-3.01.72-1.82,3.19-2.51,4.9-2.85.04,0,.08,0,.12-.01.08-.02.15-.03.21-.04,1.75-.3,4.99-.23,5.48,2.03.39,1.78-1.54,3.1-2.94,3.67ZM308.61,58.66c-4.26,4.26-11.15,4.26-15.41,0-2.23-2.23-3.28-5.18-3.17-8.09,1.82,1.54,4.55,1.45,6.27-.27,1.81-1.81,1.81-4.75,0-6.57-.65-.65-1.43-1.06-2.26-1.24,4.28-3.48,10.59-3.23,14.57.76,4.26,4.26,4.26,11.16,0,15.41ZM284.04,36.78c6.61-8.21,20.83-10.52,28.7-2.52.89.91-.05,2.59-1.29,1.94-4.45-2.36-8.29-4.43-13.53-4.12-4.93.29-9.27,2.49-13.08,5.54-.53.42-1.2-.34-.8-.84Z"/>
      <path class="cls-1" d="M243.03,46.28c-.11,1.27.81,1.98,2.01,1.78,1.27-.2,2.57-.92,3.59-1.68.56-.42,1.44-1.11,1.34-1.92-.19-1.46-2.72-1.38-3.72-1.17-1.46.36-3.08,1.32-3.22,2.98Z"/>
      <path class="cls-1" d="M212.04,36.47c-.06.44-.06.94.17,1.34.21.38.4.45.77.46.74.02,1.71-.4,2.43-.75,1.27-.61,2.53-1.37,3.57-2.33.82-.76,1.75-2.15.28-2.74-1.51-.6-3.42-.07-4.81.61-1.24.66-2.21,2.01-2.41,3.41Z"/>
      <path class="cls-1" d="M226.33,51.27c-.43,1.25.46,1.34,1.48,1.09,1.29-.31,2.6-.95,3.7-1.69.45-.31,1.24-.86,1.27-1.4.02-.35-.26-.5-.57-.62-.54-.19-1.18-.21-1.75-.11-1.53.32-3.55,1.07-4.12,2.71Z"/>
      <path class="cls-1" d="M205.35,49.45c-1.15,3.14,3.79,1.9,5.24,1.51,2.43-.65,7.48-2.32,7.47-5.61,0-2.88-3.82-2.2-5.58-1.6-2.64,1.04-6.09,2.87-7.13,5.71Z"/>
      <path class="cls-1" d="M37.18,79.97c.03-.06.05,0,.11-.09.66-1.05-.36-2.62-1.05-3.43-.56-.65-1.27-1.38-2.11-1.64-.14-.04-.26-.06-.41-.08.1.02-.03.04-.07.04-.05.03-.12.08-.18.14-.91,1.19.38,2.84,1.22,3.64.63.56,1.39,1.21,2.25,1.39.05,0,.15.02.23.03Z"/>
      <path class="cls-1" d="M36.84,91.55c.27,1.93,2.1,2.64,3.85,2.33,1.92-.35,4.96-1.82,4.35-4.26-.51-2.04-2.89-2.64-4.69-2.22-1.88.52-3.81,1.96-3.5,4.16Z"/>
      <path class="cls-1" d="M247.69,34.12c0,.94,1.3,1.25,2.1,1.23,1.16-.02,3.57-.61,3.73-2.08.15-1.36-1.81-1.21-2.7-1.07-1.04.2-3.15.66-3.14,1.92Z"/>
      <path class="cls-1" d="M45.39,80.51c.52,4.91,8.21,4.61,12.34,3.99-2.38-3.55-4.33-7.6-6.13-11.77-3.48.65-6.59,4.17-6.21,7.78Z"/>
      <path class="cls-1" d="M52.85,90.96c-.17.13-.35.49-.41.78-.2,1,.36,2.01,1.18,2.56.5.33,2.38,1.24,2.6.28.3-1.32-1.69-2.75-2.57-3.31-.21-.12-.43-.25-.66-.32-.18-.06-.04-.07-.15,0Z"/>
      <path class="cls-1" d="M353.47,115.59c.82-1.04,1.79-1.99,2.58-3.08.21-.3.41-.61.62-.91-1.35.13-2.7.24-4.05.32.08.64.17,1.29.31,1.92.13.61.39,1.17.55,1.76Z"/>
      <path class="cls-1" d="M301.97,92.73c0-.37-.23-1.62-.3-2.45-.3.28-.66.57-.88.81-.8.9-1.54,1.87-2.26,2.83-.9,1.21-1.77,2.46-2.61,3.72,1.81.92,3.63,1.8,5.47,2.63.16-1.3.29-2.6.39-3.9.09-1.21.17-2.42.18-3.63Z"/>
      <path class="cls-1" d="M239.58,222.15c-.59,2.43-2.31,7.47-.25,9.66,2.78,2.94,9.81-2.18,12.25-3.74,12.73-8.18,23.66-21.12,25.75-36.59-7.16,1.95-14.41,3.59-21.68,4.97-4.91.93-9.84,1.7-14.77,2.32,1.59,7.67.51,15.88-1.31,23.38Z"/>
      <path class="cls-1" d="M205.7,159.63c0-1.37-.34-2.73-1.2-4.04-4.84-7.28-16.32-7.76-24.15-8.17-9.08-.38-18.63.04-25.71,6.47-3.42,3.1-5.57,7.01-8.06,10.83-.98,1.51-2.05,2.96-3.15,4.39,1.88,2.74,1.49,6.08-1.18,8.28-2.19,1.81-5.28,2.6-8.12,2.25-3.64,3.73-7.47,7.27-11.42,10.67,2.86,1.34,4.33,4.73,1.17,7.05-3.02,2.22-8.01,3.12-11.59,1.44-.71,1.11-.84,2.24.13,3.3,4.31,4.69,14.45,4.77,20.16,4.7,10.94-.14,21.87-2.89,31.8-7.41,14.45-6.56,28.91-17.14,37.64-30.63,1.69-2.61,3.55-5.76,3.66-8.87-.03-.08-.04-.17,0-.27ZM144.57,179.62c1.16-1.53,3.46-1.68,5.21-1.58,1.65.14,4.41.91,4.38,3.03-.03,2-2.59,2.81-4.17,3.06-1.69.27-3.69.06-4.98-1.18-.92-.89-1.26-2.26-.44-3.34ZM128.98,187.49c.43-1.76,2.07-2.84,3.69-3.39.07-.03.13-.05.19-.07,2.04-.56,5.41-.82,6.8,1.22,1.32,1.94-1.1,3.85-2.55,4.73-1.84,1.11-4.35,2.07-6.45,1.08-1.39-.65-2.04-2.09-1.68-3.57ZM141.51,196.3c-.68,1.65-3.18,2.06-4.72,2.12-.06,0-.13,0-.2,0-1.69,0-4.09-.27-4.8-2.08-.47-1.2.23-2.41,1.23-3.08,1.56-1.04,3.6-.99,5.31-.38,1.3.46,3.93,1.57,3.17,3.42ZM152.3,194.6c-2.85.88-6.33,1.29-9.05-.22-1.7-.94-2.81-2.82-1.67-4.63,1.61-2.57,5.46-3.16,8.19-3.43,2.39-.18,7.69-.09,8.23,3.18.47,2.88-3.63,4.45-5.7,5.09ZM167.49,186.98c-2.2.91-5.36,1.72-7.44.08-1.5-1.18-1.52-3.22-.68-4.81,1.16-2.18,3.53-3.24,5.89-3.49,2.28-.15,5.88.36,6.36,3.16.42,2.46-2.19,4.25-4.13,5.06ZM176.49,170.05c-5.06,3.88-12.94,6.91-19.4,6.4-3.62-.28-6.46-2.53-5.4-6.39,1.16-4.24,5.3-7.44,9.14-9.12,4.91-2.02,14.26-5.38,18.83-.69,3.22,3.29-.43,7.7-3.17,9.81Z"/>
      <path class="cls-1" d="M153.98,171.35c-.32,5.75,9.07,2.9,11.82,2.01,3.55-1.15,7.24-2.73,9.99-5.32,1.39-1.31,3.02-3.37,2.48-5.44-1.54-5.9-12.88-1.65-16.04-.34-3.48,1.52-8.03,4.88-8.26,9.1Z"/>
      <path class="cls-1" d="M225.83,39.98c-.29,2.82,4.01,2.25,5.61,1.92,1.62-.34,8.5-1.94,7.24-4.85-.99-2.28-5.01-2.09-6.91-1.65-2.13.55-5.66,1.95-5.94,4.59Z"/>
      <path class="cls-1" d="M364.55,110.63c-.53,2.52-.99,5.12-1.07,7.69-.02.63.15,1.41.05,2.02-.02.15.03.3.09.44.83-.69,1.59-1.44,2.32-2.23,3.03-3.31,5.79-6.89,8.45-10.51-3.22,1.01-6.51,1.81-9.84,2.42,0,.05,0,.1-.01.16Z"/>
      <path class="cls-1" d="M161.41,183.6c-.33,1.49.47,2.75,2.05,2.71,1.88-.04,5.33-1.28,5.65-3.49.29-2.04-2.2-2.5-3.7-2.41-1.82.19-3.58,1.31-4,3.19Z"/>
      <path class="cls-1" d="M238.82,26.43c5.23-.76,12.81-1.73,16.92-5.56,2.81-2.61,1.18-4.76-1.82-5.83-1.33.3-2.67.61-3.99.95-7.95,2.07-15.73,4.72-23.34,7.78-2.67,4.61,11.06,2.83,12.23,2.66Z"/>
      <path class="cls-1" d="M317.29,87.68c-.42.77-1.24,1.48-1.78,2.18-1.42,1.87-2.71,3.83-3.97,5.8-1.49,2.32-2.93,4.67-4.32,7.05,3.84,1.5,7.74,2.81,11.7,3.89.03-6.53-.41-12.89-1.25-19.35-.16.15-.3.31-.37.44Z"/>
      <path class="cls-1" d="M143.64,191.02c-.23,1.95,2.46,2.62,3.88,2.68,1.7.07,3.47-.37,5.03-1.01,1.02-.41,2.55-1.09,2.88-2.27.72-2.56-4.19-2.55-5.52-2.45-1.75.17-5.99.6-6.28,3.05Z"/>
      <path class="cls-1" d="M70.91,160.97c1.11,2.84,6.25,3.99,8.78,4.37,5.93.87,11.88-.66,17.34-2.91-4.3-3.11-8.49-6.38-12.55-9.81-2.04,1.61-4.32,3-6.65,4.07-2.21,1.02-8.13,1.21-6.93,4.28Z"/>
      <path class="cls-1" d="M139.05,195.62c-.27-.65-1.28-.99-1.87-1.2-.36-.13-.73-.24-1.11-.29-.21-.03-.6-.01-.62-.01-.64.11-1.37.59-1.27,1.41.12,1,1.48,1.25,2.47,1.24.7-.02,1.54-.08,2.14-.49.24-.17.39-.35.26-.66Z"/>
      <path d="M362.7,139.21c-23.26,28.01-58.04,43.9-92.73,52.42-30.81,7.57-62.57,9.76-93.81,3.72-.76.45-1.52.9-2.29,1.33,21.36,4.28,43,4.85,64.49,2.39-.05-.26-.1-.51-.15-.76-.24-1.06,2.29-1.33,2.54-.22.05.23.09.46.14.69,4.93-.62,9.86-1.39,14.77-2.32,7.27-1.38,14.52-3.02,21.68-4.97.05-.39.13-.78.17-1.17.12-1.14,2.65-1.27,2.54-.22-.02.22-.06.44-.08.66,14.49-4.11,28.62-9.52,41.9-16.63,23.4-12.52,44.78-30.86,56.67-54.97,2.1-4.26,4.15-8.83,5.13-13.51.09-.45-.19-.73-.6-.87-.64.32-1.29.61-1.94.89-2.63,12.3-10.55,24.09-18.41,33.56Z"/>
      <path d="M351.16,110.32c-10.06.45-20.03-.65-29.69-3.06,0,.2,0,.4,0,.6,0,.54-.59.86-1.2.94,9.66,2.41,19.64,3.59,29.77,3.24-.03-.28-.05-.54-.07-.76-.05-.56.56-.89,1.19-.95Z"/>
      <path d="M293.18,97.71c.24-.37.49-.74.74-1.11-4.38-2.33-8.65-4.9-12.76-7.69-.13-.09-.29-.14-.46-.16-.03.02-.06.05-.08.07-.48.39-.99.74-1.5,1.05.06.12.17.24.34.36,4.4,2.99,8.97,5.71,13.66,8.17-.12-.18-.13-.41.05-.68Z"/>
      <path d="M301.21,101.8c.07-.51.13-1.03.19-1.54-1.84-.83-3.67-1.71-5.47-2.63-.16.24-.32.47-.48.71-.27.41-.95.54-1.53.45,2.44,1.25,4.91,2.43,7.41,3.52-.1-.14-.15-.31-.13-.52Z"/>
      <path d="M318.92,106.59c-3.96-1.09-7.86-2.39-11.7-3.89-.16.28-.34.55-.5.83-.21.37-.75.52-1.25.5,4.45,1.76,9,3.25,13.62,4.45-.1-.11-.16-.24-.16-.41,0-.5,0-.99,0-1.49Z"/>
      <path d="M304.45,102.9c.2-.35.42-.7.62-1.05-.43-.18-.86-.35-1.29-.54-.03.24-.05.48-.09.72-.07.51-.72.76-1.33.74.7.3,1.4.61,2.11.89-.16-.19-.2-.44-.02-.76Z"/>
      <path d="M364.56,110.47c3.33-.62,6.62-1.41,9.84-2.42.53-.71,1.05-1.43,1.57-2.14.06-.08.14-.15.23-.21-5.07,1.86-10.47,3.01-15.71,3.76-3.09.44-6.18.72-9.25.86.61-.03,1.22.19,1.27.73.02.29.06.57.1.86,1.35-.08,2.7-.18,4.05-.32.32-.46.64-.92.94-1.39.56-.88,3-.52,2.27.64-.09.14-.19.28-.28.42.79-.1,1.58-.22,2.36-.34.04-.2.08-.37.11-.51.21-.98,2.5-.98,2.5.06Z"/>
      <path d="M52.87,119.18c-.06-.06-.11-.12-.14-.19h0c.35.52.72,1.02,1.08,1.53.06-.08.12-.15.19-.23-.37-.37-.76-.74-1.12-1.12Z"/>
      <path d="M52.73,118.99c-.42-.72.87-1.27,1.73-1.1-.58-.16-1.31,0-1.66.45-9.43,11.76-21.11,22.13-35.45,27.37-4.16,1.52-8.87,2.91-13.44,3.09-.56.45-1.12.89-1.69,1.32-.23-.44-.45-.89-.68-1.33.78.05,1.58.04,2.38.01,18.73-15.12,27.43-42.09,27.13-65.23-.06-4.39-.41-8.74-1.01-13.06-.11.1-.23.21-.35.31-.82.68-3.08-.03-1.9-1.01.72-.6,1.33-1.29,1.83-2.02-.62-3.82-1.43-7.62-2.4-11.37-.57-.23-1.19-.42-1.89-.52-1.67-.24-.82-1.85.54-1.65.27.04.54.1.81.16-1.2-4.37-2.61-8.69-4.18-12.94-.79-.22-1.58-.41-2.4-.56.59-.37,1.19-.73,1.78-1.1.21.55.41,1.1.62,1.66,13.95,3.82,23.04,16.87,28.36,29.53.02.06.05.11.07.17.51-.1,1.03-.18,1.54-.19,1.55-.03,1.72,1.62.14,1.65-.34,0-.68.05-1.01.12,1.8,4.16,3.75,8.22,6.13,11.77.41-.06.8-.13,1.13-.19,1.31-.25,2.48,1.21.81,1.53-.27.05-.57.1-.88.16,4.42,5.98,10.31,10.23,19.19,10.63,17.39.78,34.37-6.96,49.05-15.47,18.88-10.95,36.7-23.65,55.42-34.86,7.03-4.21,14.2-8.28,21.52-12.07-.64.22-1.52.15-1.79-.38-.1-.19-.2-.37-.3-.56-15.51,8.07-30.37,17.4-45.05,26.89-1.63,1.05-3.26,2.13-4.89,3.21-.42.96-.84,1.91-1.28,2.83-.46.96-2.99.82-2.49-.22.02-.05.05-.1.07-.15-14.12,9.39-28.62,19.14-44.53,24.62-10.04,3.46-23.89,7.28-34.13,2.55-7.81-3.6-11.72-12.13-14.98-19.57-4.74-10.85-9.44-20.71-19.44-27.7-4.08-2.85-8.94-5.45-13.9-6.39-.65-.12-2.16.1-1.78,1.1,13.16,34.53,13.24,75.46-13.6,103.56-1.72,1.8-3.54,3.6-5.55,5.1-.76.57,0,1.29.68,1.33,20.7,1.29,40.37-14.94,52.81-29.92-.36-.51-.73-1.01-1.08-1.53h0Z"/>
      <path d="M20.09,40.89c.82.15,1.62.35,2.4.56-.2-.55-.41-1.11-.62-1.66-.59.37-1.19.73-1.78,1.1Z"/>
      <path d="M204.38,34.02c6.3-3.25,12.7-6.3,19.23-9.04.05-.58.3-1.25.8-2.02.07-.1.16-.19.27-.26-.57.23-1.14.45-1.71.69-6.44,2.67-12.73,5.63-18.93,8.79.19.34.37.67.55,1.02.17.34.05.62-.21.82Z"/>
      <path d="M226.68,23.61c-.04.06-.06.11-.09.17,7.62-3.07,15.39-5.71,23.34-7.78,1.33-.34,2.66-.65,3.99-.95-.13-.05-.26-.1-.4-.14-.78-.25-.79-.71-.45-1.07-9.45,2.07-18.76,5.01-27.95,8.7.89-.21,2.11.21,1.56,1.07Z"/>
      <path d="M1.53,148.79c.23.44.45.89.68,1.33.57-.43,1.14-.87,1.69-1.32-.8.03-1.59.04-2.38-.01Z"/>
      <path d="M74.45,140.54c-3.9-3.84-7.78-7.84-11.42-12.04-3.15-2.6-6.17-5.33-9.03-8.2-.06.08-.12.15-.19.23,5.38,7.6,11.91,14.55,18.52,21.04,3.43,3.38,6.98,6.63,10.63,9.76.22-.18.45-.35.66-.54.81-.7,3.06,0,1.9,1.01-.33.29-.69.55-1.03.82,4.06,3.42,8.25,6.7,12.55,9.81.41-.17.82-.34,1.23-.52,1.06-.46,2.94.65,1.41,1.31-.31.13-.63.27-.96.4,9.65,6.84,19.87,12.88,30.55,18.03.49-.48.97-.96,1.45-1.45-20.78-10.06-39.79-23.49-56.25-39.68Z"/>
      <path d="M384.88,40.3c-7.31-5.08-15.3-9.19-23.43-12.78-20.83-9.21-43.38-15.18-66.12-16.82-13.83-1-27.27.03-40.43,2.74.73.24,1.48.56,2.17.95,22.78-4.47,46.64-2.53,69.06,3.01,19.1,4.72,38.32,11.9,54.85,22.74,5.09,3.33,10.42,7.13,13.22,12.7.78,1.55,1.37,3.16,1.84,4.82.99.74,1.97,1.51,2.95,2.34,1.02.88-1.34,1.7-2.12,1.03-.03-.03-.06-.05-.09-.07,1.32,7.99-.27,16.69-2.64,24.11-2.13,6.68-4.83,14.04-11.23,17.61-1.95,1.09-4.01,2.01-6.13,2.81.9-.15,2.04.26,1.46,1.06-.08.11-.16.21-.23.31,1.04-.37,2.07-.77,3.1-1.2.02-.08.04-.16.06-.25.14-.65,1.19-.87,1.89-.64,1.87-.93,3.63-2.01,5.12-3.35,5.22-4.69,7.81-13.26,9.51-19.77,2.36-9.09,3.34-19.53-.55-28.35-2.51-5.68-7.26-9.52-12.25-12.99Z"/>
      <path d="M381.17,105.41c-.02.08-.04.16-.06.25.66-.28,1.31-.57,1.94-.89-.7-.23-1.75,0-1.89.64Z"/>
      <path d="M358.45,53.13c-8.06,3.34-15.4,8.16-22.79,12.74-7.62,4.72-15.03,6.87-23.99,6.41-14.01-.72-28.83-3.02-41.38,4.82-12.91,8.07-21.34,22.03-29.27,34.6-5.07,8.03-10.36,15.93-15.19,24.11-4.91,8.31-10.01,16.21-17.75,22,.15.75.19,1.5.14,2.26,13.09-8.8,19.63-23.75,27.99-36.59,8.22-12.62,15.55-26.23,26.06-37.17,5.14-5.35,11.31-10.06,18.58-11.98,7.79-2.06,16.32-1.45,24.28-.83,5.63.43,11.3.95,16.9-.04,6.6-1.17,12.11-4.46,17.72-7.95,8.31-5.18,16.99-10.83,26.6-13.25,11.55-2.91,21.66,1.16,30.42,8.7-.18-1.12-.43-2.21-.74-3.3-11.35-8.44-23.96-10.16-37.59-4.52Z"/>
      <path d="M205.7,159.63c-.04.09-.04.18,0,.27,0-.09,0-.18,0-.27Z"/>
      <path d="M396.86,61.02c.78.67,3.14-.14,2.12-1.03-.97-.84-1.96-1.61-2.95-2.34.3,1.08.55,2.18.74,3.3.03.02.06.05.09.07Z"/>
      <path d="M54.99,118.15c-.13-.14-.32-.22-.53-.26.27.08.52.22.67.45,2.4,3.53,5.07,6.9,7.89,10.16,5.1,4.22,10.49,8.13,15.91,11.8,19.12,12.94,40.48,22.55,63.24,26.76.36-.51.72-1.03,1.07-1.55-32.49-5.88-65.25-23.55-88.26-47.36Z"/>
      <path d="M52.73,118.99c.04.06.08.12.14.19.37.38.75.74,1.12,1.12.36-.44.72-.88,1.07-1.31-.78,0-1.56,0-2.34,0Z"/>
      <path d="M54.46,117.89c-.87-.17-2.15.38-1.73,1.1.78,0,1.56,0,2.34,0-.35.44-.71.87-1.07,1.31,2.86,2.87,5.89,5.6,9.03,8.2-2.82-3.26-5.49-6.63-7.89-10.16-.16-.23-.4-.37-.67-.45Z"/>
      <path d="M280.7,88.74c1.77-1.46,4.97-4.74,3.76-7.18-.18-.36-.69-.49-1.04-.29-1.09.63-1.21,1.62-1.79,2.68-.72,1.34-1.73,2.48-2.9,3.44-2.05,1.7-4.57,2.72-7.22,3.01-.7.08-.7,1.17.01,1.23,2.76.26,5.31-.38,7.58-1.78-.31-.63.76-1.23,1.58-1.12Z"/>
      <path d="M280.7,88.74c-.82-.11-1.89.49-1.58,1.12.51-.32,1.02-.66,1.5-1.05.03-.02.06-.05.08-.07Z"/>
      <path d="M254.68,13.36c-.57-.18-1.27.09-1.61.47.61-.13,1.23-.26,1.84-.39-.08-.03-.15-.05-.23-.08Z"/>
      <path d="M224.68,22.71c.15-.06.29-.12.44-.18-.16.04-.31.1-.44.18Z"/>
      <path d="M255.74,20.87c-4.11,3.83-11.69,4.8-16.92,5.56-1.18.17-14.9,1.95-12.23-2.66-.99.4-1.98.8-2.97,1.21-.46,5.49,17.51,2.77,18.94,2.51,4.91-.9,13.98-2.39,16.74-7.44,1.42-2.61-.11-4.47-2.21-5.66-1.05.21-2.11.42-3.16.65,3,1.08,4.62,3.22,1.82,5.83Z"/>
      <path d="M224.41,22.97c-.5.77-.75,1.44-.8,2.02.99-.41,1.98-.81,2.97-1.21.03-.06.06-.11.09-.17.56-.86-.67-1.28-1.56-1.07-.15.06-.29.12-.44.18-.11.07-.21.15-.27.26Z"/>
      <path d="M253.52,14.9c.14.04.27.09.4.14,1.05-.23,2.1-.44,3.16-.65-.69-.39-1.44-.7-2.17-.95-.61.13-1.23.26-1.84.39-.33.36-.33.82.45,1.07Z"/>
      <path d="M212.88,31.85c.06-.03.11-.07.17-.1-.06.03-.12.06-.17.1Z"/>
      <path d="M212.69,32.92c.41.43,1.27.38,1.76.14,1.48-.78-.37-1.86-1.41-1.31-.06.03-.11.07-.17.1-.36.26-.55.69-.19,1.07Z"/>
      <path d="M221.42,31.37c-2.42-1.52-5.98-.8-8.37.37,1.04-.55,2.88.53,1.41,1.31,1.38-.68,3.3-1.21,4.81-.61,1.48.58.54,1.97-.28,2.74-1.04.96-2.3,1.72-3.57,2.33-.72.35-1.69.77-2.43.75-.37-.01-.56-.09-.77-.46-.22-.4-.23-.9-.17-1.34.2-1.4,1.17-2.75,2.41-3.41-.49.24-1.35.29-1.76-.14-.36-.38-.17-.81.19-1.07-1.63.92-2.99,2.52-3.33,4.4-.33,1.85.62,3.36,2.53,3.64,2.96.42,6.33-1.6,8.49-3.41,1.55-1.3,3.14-3.65.84-5.09Z"/>
      <path d="M231.77,35.39c1.63-.42.5-1.87-.81-1.53-1.65.38-.5,1.84.81,1.53Z"/>
      <path d="M240.53,35.59c-2.28-2.48-6.58-2.43-9.58-1.74,1.31-.34,2.45,1.11.81,1.53,1.9-.44,5.92-.63,6.91,1.65,1.26,2.91-5.62,4.52-7.24,4.85-1.6.33-5.9.9-5.61-1.92.27-2.64,3.8-4.03,5.94-4.59-1.31.3-2.46-1.15-.81-1.53-2.78.72-6.15,2.2-7.35,5.04-.95,2.25.52,4.07,2.69,4.67,3.76,1.03,8.65-.43,11.92-2.27,2.02-1.14,4.37-3.46,2.31-5.71Z"/>
      <path d="M249.34,31.5c.05.57.88.79,1.34.71.04,0,.1-.01.15-.02.06-.01.13-.03.19-.04.48-.09,1.04-.57.8-1.09-.25-.52-.99-.53-1.49-.45-.46.11-1.03.36-.98.89Z"/>
      <path d="M250.54,30.57c-.07.01-.14.03-.21.04.5-.08,1.25-.07,1.49.45.25.52-.32,1-.8,1.09-.05.01-.13.03-.19.04.89-.14,2.85-.3,2.7,1.07-.16,1.47-2.57,2.06-3.73,2.08-.8.02-2.1-.29-2.1-1.23,0-1.26,2.1-1.72,3.14-1.92-.05,0-.11.01-.15.02-.46.08-1.29-.14-1.34-.71-.05-.54.52-.78.98-.89-.04,0-.09,0-.12.01-1.71.34-4.18,1.03-4.9,2.85-.52,1.31.44,2.47,1.59,3.01,1.93.89,4.28.56,6.18-.21,1.41-.57,3.33-1.89,2.94-3.67-.49-2.26-3.73-2.33-5.48-2.03Z"/>
      <path d="M229.64,47.02c.49-.1,1.35-.12,1.61.44.25.53-.32.99-.8,1.09.56-.1,1.21-.08,1.75.11.31.11.59.26.57.62-.03.54-.82,1.09-1.27,1.4-1.09.74-2.41,1.38-3.7,1.69-1.01.25-1.91.16-1.48-1.09.57-1.64,2.59-2.4,4.12-2.71-.49.09-1.35.13-1.61-.44-.24-.52.32-1.01.8-1.09-2.06.43-4.36,1.44-5.46,3.33-.78,1.33-.58,2.87.95,3.5,2.28.93,5.14-.36,7.11-1.46,1.23-.68,3.91-2.3,2.85-4.09-1.01-1.71-3.81-1.58-5.45-1.28Z"/>
      <path d="M228.84,48.12c.27.57,1.12.53,1.61.44.47-.1,1.05-.57.8-1.09-.26-.56-1.12-.54-1.61-.44-.48.09-1.04.57-.8,1.09Z"/>
      <path d="M245.43,41.76c.08-.02.16-.03.24-.04-.09.01-.17.02-.24.04Z"/>
      <path d="M245.68,41.72c.49-.06,1.15.02,1.37.48.25.54-.33.98-.8,1.09,1-.21,3.52-.3,3.72,1.17.11.81-.77,1.5-1.34,1.92-1.02.76-2.32,1.48-3.59,1.68-1.2.19-2.12-.52-2.01-1.78.14-1.67,1.76-2.62,3.22-2.98-.49.1-1.35.12-1.61-.44-.25-.53.33-.99.8-1.09-1.97.49-4.04,1.65-4.74,3.67-.53,1.52.04,3.14,1.5,3.88,2.31,1.17,5.2.02,7.24-1.19,1.51-.9,4.06-2.8,2.73-4.82-1.29-1.96-4.4-1.97-6.47-1.57Z"/>
      <path d="M244.64,42.85c.26.56,1.12.54,1.61.44.47-.12,1.05-.55.8-1.09-.22-.47-.88-.54-1.37-.48-.08.02-.17.03-.24.04-.47.1-1.05.56-.8,1.09Z"/>
      <path d="M212.35,43.79s.09-.03.13-.04c.05-.02.11-.04.16-.07.52-.2.71-.74.36-1.17-.35-.42-1.06-.36-1.56-.21-1.42.59-.36,1.95.91,1.49Z"/>
      <path d="M211.53,42.26s-.06.03-.1.04c.5-.15,1.21-.21,1.56.21.35.42.16.97-.36,1.17-.05.02-.11.04-.16.07,1.76-.6,5.57-1.28,5.58,1.6.01,3.29-5.04,4.96-7.47,5.61-1.45.39-6.39,1.63-5.24-1.51,1.04-2.83,4.49-4.66,7.13-5.71-.04.01-.09.03-.13.04-1.27.45-2.33-.9-.91-1.49-.07.02-.14.04-.2.07-3.04,1.18-6.41,3.15-8.02,6.11-1.17,2.16-.35,4.09,2.1,4.59,3.86.78,8.83-.99,12-3.11,1.92-1.28,4.24-3.82,2.9-6.28-1.61-2.95-6.11-2.34-8.68-1.42Z"/>
      <path d="M33.59,59.45c-1.06-2.85-4.04-4.45-6.92-5.06.18.67.37,1.34.54,2.01,4.64,1.84,5.16,7.38,2.4,11.37.15.91.28,1.81.41,2.72,2.89-2.61,4.96-7.28,3.57-11.05Z"/>
      <path d="M27.79,69.8c-1.19.98,1.08,1.69,1.9,1.01.12-.1.23-.2.35-.31-.13-.91-.26-1.82-.41-2.72-.51.74-1.11,1.42-1.83,2.02Z"/>
      <path d="M25.86,54.24c-1.35-.2-2.2,1.41-.54,1.65.7.1,1.32.29,1.89.52-.17-.67-.36-1.34-.54-2.01-.27-.06-.55-.12-.81-.16Z"/>
      <path d="M38.92,71.81c1.99.23,4.28-.6,5.7-2,1.08-1.06,1.28-2.58,0-3.57-1.72-1.33-4.2-1.09-6.08-.3.5-.23,1.34-.3,1.76.14.4.42.12.95-.36,1.17.83-.34,2.22-.53,2.87.29.87,1.1-1.17,2.15-1.94,2.42-.81.28-1.98.4-2.49-.45-.63-1.06.77-1.9,1.56-2.26-.51.21-1.33.31-1.76-.14-.39-.41-.13-.97.36-1.17-1.32.6-3.06,1.79-2.82,3.48.22,1.51,1.85,2.24,3.2,2.39Z"/>
      <path d="M38.18,67.11c.43.45,1.25.36,1.76.14.48-.22.76-.75.36-1.17-.42-.44-1.26-.37-1.76-.14-.49.2-.75.76-.36,1.17Z"/>
      <path d="M33.66,74.77s.06-.03.04-.03c-.06.02-.06.03-.04.03Z"/>
      <path d="M37.17,79.99s0,0,0,0c-.04.02-.04.02,0,0Z"/>
      <path d="M37.18,79.98s.01,0,.02,0c0,0,0,0,0,0,0,0,0,0,0,0,0,0-.02,0-.02,0,0,0,0,0,0,0Z"/>
      <polygon points="37.21 79.97 37.21 79.97 37.21 79.97 37.2 79.97 37.21 79.97"/>
      <polygon points="37.21 79.97 37.21 79.97 37.21 79.97 37.21 79.97"/>
      <path d="M37.21,79.97c.09-.01.11-.01.02,0-.01,0,0,0-.02,0,0,0,0,0,0,0,0,0,0,0,0,0Z"/>
      <path d="M37.21,79.97s0,0,0,0c0,0,0,0,0,0,0,0,0,0,0,0Z"/>
      <path d="M37.23,79.96s0,0-.02,0c0,0,0,0,0,0h.01Z"/>
      <path d="M38.01,81.51c1.47-.4,2.26-1.72,1.93-3.2-.43-1.95-2.09-3.87-3.87-4.72-1.53-.73-3.72-.78-4.86.69-1.37,1.77.02,4.02,1.37,5.3-.46-.41-.08-.96.36-1.17.53-.26,1.31-.26,1.76.14-.84-.79-2.14-2.45-1.22-3.64.05-.07.13-.12.18-.14-.02,0-.02,0,.04-.03.02,0,0,0-.04.03.04,0,.17-.02.07-.04.14.02.26.03.41.08.84.26,1.55.98,2.11,1.64.69.81,1.71,2.38,1.05,3.43-.06.1-.08.03-.11.09,0,0,.01,0,.02,0,0,0,0,0,0,0,0,0,0,0,.02,0h-.01s0,0,.02,0c.09,0,.08,0-.02,0,0,0,.02,0,.02,0-.02,0-.02,0-.03,0l-.04.02s0,0,0-.01c-.04.02-.04.02,0,0,0,0,0,0,0-.01,0,0,0,0,0,0,0,0,0,0,0,0-.08,0-.18-.02-.23-.03-.86-.18-1.62-.83-2.25-1.39.99.93-1.37,1.73-2.12,1.03,1.45,1.29,3.41,2.48,5.43,1.94Z"/>
      <path d="M34.71,78.55c-.46-.41-1.23-.4-1.76-.14-.43.21-.82.76-.36,1.17.75.71,3.11-.09,2.12-1.03Z"/>
      <path d="M37.2,79.97s-.01,0-.02,0c0,0,0,0,0,0,0,0,.01,0,.02,0Z"/>
      <path d="M37.18,79.98s0,0,0,.01c0,0,.01,0,.02-.01,0,0-.02,0-.02,0Z"/>
      <path d="M37.2,79.98s-.02,0-.02.01c0,0,0,0,0,0,.01,0,0,0,.02-.01h0Z"/>
      <path d="M37.2,79.98s0,0,0,0c0,0,0,0,0,0,0,0,0,0,0,0,0,0,0,0,0,0h0s0,0,0,0Z"/>
      <path d="M37.18,79.98s0,0,0,0c0,0,0,0,0,0Z"/>
      <path d="M37.21,79.98s.01,0,.03,0c0,0-.02,0-.02,0,0,0,0,0,0,0,0,0,0,0,0,0Z"/>
      <path d="M37.2,79.98s0,0,0,0c0,0,0,0,0,0,0,0,0,0,0,0,0,0,0,0,0,0Z"/>
      <path d="M37.17,79.99s0,0,0,.01l.04-.02s0,0,0,0c-.02,0-.01,0-.02.01Z"/>
      <path d="M42.93,81.26c1.19,6.08,10.93,5.55,15.87,4.74-.36-.49-.72-.99-1.06-1.5-4.13.62-11.82.92-12.34-3.99-.38-3.61,2.73-7.13,6.21-7.78-.23-.53-.45-1.05-.67-1.58-4.52.92-8.94,5.3-8,10.11Z"/>
      <path d="M59.68,85.85c1.66-.32.5-1.78-.81-1.53-.33.06-.72.13-1.13.19.34.51.7,1.01,1.06,1.5.31-.05.61-.1.88-.16Z"/>
      <path d="M52.61,72.62c1.58-.03,1.41-1.68-.14-1.65-.51.01-1.03.08-1.54.19.22.53.45,1.05.67,1.58.33-.06.67-.11,1.01-.12Z"/>
      <path d="M39.53,85.87c1.31-.36,2.44,1.08.81,1.53,1.8-.41,4.18.18,4.69,2.22.61,2.44-2.43,3.91-4.35,4.26-1.75.32-3.58-.4-3.85-2.33-.31-2.19,1.63-3.63,3.5-4.16-1.22.28-2.31-.97-1.11-1.44-2.67.84-5.55,3.01-4.88,6.16.68,3.21,4.4,3.89,7.15,3.3,2.83-.61,7.15-2.89,5.95-6.46-1.07-3.2-5.1-3.74-7.92-3.09Z"/>
      <path d="M40.35,87.4c1.63-.45.5-1.9-.81-1.53-.1.03-.2.06-.29.09-1.2.48-.12,1.72,1.11,1.44Z"/>
      <path d="M39.24,85.96c.1-.03.2-.06.29-.09-.11.03-.21.06-.29.09Z"/>
      <path d="M55.35,89.94c1.33.77-.78,1.86-1.69,1.32.88.56,2.87,1.99,2.57,3.31-.22.96-2.1.06-2.6-.28-.82-.55-1.39-1.56-1.18-2.56.06-.29.24-.65.41-.78.1-.08-.04-.06.15,0,.23.07.45.19.66.32-1.22-.77.54-1.76,1.51-1.41-1.68-.87-4.06-.82-4.99,1.08-.88,1.77.21,3.74,1.76,4.7,1.68,1.03,5.24,1.8,6.54-.25,1.35-2.12-1.61-4.48-3.12-5.43Z"/>
      <path d="M55.16,89.85c.06.03.13.06.19.09-.06-.04-.12-.07-.19-.09Z"/>
      <path d="M53.65,91.27c.92.53,3.03-.55,1.69-1.32-.06-.03-.13-.06-.19-.09-.97-.34-2.73.64-1.51,1.41Z"/>
      <path d="M203.83,70.5c-5.71,9.25-9.67,27.81-1.09,36.57.72.74,1.74-.35,1.11-1.12-7.7-9.34-1.89-24.91,1.89-34.6.44-1.13-1.3-1.84-1.91-.85Z"/>
      <path d="M230.5,63.91c-9.88,13.3-8.22,34.28.46,47.64.36.55,1.31.05,1.02-.55-3.27-6.95-5.34-14.44-5.41-22.16-.08-8.7,2.65-15.68,5.74-23.62.41-1.06-.97-2.43-1.81-1.31Z"/>
      <path d="M213.31,89.9c.11-7.05,2.69-13.26,4.5-19.93.28-1.03-1.2-1.93-1.79-.89-6.59,11.62-7.85,28.28.44,39.33.69.92,2.01-.04,1.44-1.01-3.12-5.35-4.69-11.3-4.59-17.51Z"/>
      <path d="M294.03,42.49c.83.19,1.62.6,2.26,1.24,1.81,1.81,1.81,4.75,0,6.57-1.72,1.72-4.45,1.81-6.27.27-.1,2.92.95,5.87,3.17,8.09,4.26,4.26,11.15,4.26,15.41,0s4.26-11.16,0-15.41c-3.99-3.99-10.29-4.24-14.57-.76Z"/>
      <path d="M293.92,98.8c-.27-.14-.53-.27-.79-.41.14.22.45.35.79.41Z"/>
      <path d="M302.36,102.76c-.34-.15-.69-.29-1.03-.44.2.28.61.43,1.03.44Z"/>
      <path d="M302.09,89.77c.15-.13.32-.25.49-.35-.86-.37-1.15-.33-.88.11-.06.11-.06.39-.04.74.18-.17.34-.34.42-.5Z"/>
      <path d="M298.53,93.92c.72-.97,1.46-1.93,2.26-2.83.22-.24.58-.52.88-.81-.03-.35-.03-.64.04-.74-.27-.44.02-.48.88-.11-.18.1-.34.22-.49.35-.08.16-.24.33-.42.5.07.84.3,2.08.3,2.45,0,1.21-.09,2.42-.18,3.63-.1,1.3-.24,2.6-.39,3.9.79.36,1.59.71,2.39,1.05.28-2.15.51-4.32.64-6.49.1-1.68.81-5.83-1.12-6.82-2.1-1.07-4.32,1.89-5.42,3.2-1.42,1.71-2.73,3.54-3.96,5.39.67.35,1.34.7,2.01,1.04.84-1.26,1.7-2.5,2.61-3.72Z"/>
      <path d="M303.7,102.03c.03-.24.06-.48.09-.72-.8-.34-1.59-.69-2.39-1.05-.06.51-.12,1.03-.19,1.54-.03.21.02.38.13.52.34.15.69.29,1.03.44.62.02,1.26-.23,1.33-.74Z"/>
      <path d="M295.44,98.35c.16-.24.32-.48.48-.71-.67-.34-1.34-.69-2.01-1.04-.25.37-.5.74-.74,1.11-.18.28-.17.5-.05.68.26.14.53.27.79.41.57.09,1.26-.04,1.53-.45Z"/>
      <path d="M305.46,104.04c-.33-.13-.66-.25-.99-.38.2.23.59.36.99.38Z"/>
      <path d="M320.27,108.79c-.39-.1-.79-.2-1.18-.3.24.26.72.36,1.18.3Z"/>
      <path d="M318.21,86.82c-.7.4-.7-.8-.56.3,0,.04,0,.08.01.12.18-.17.39-.33.55-.42Z"/>
      <path d="M311.54,95.66c1.27-1.97,2.56-3.93,3.97-5.8.53-.7,1.36-1.42,1.78-2.18.07-.13.21-.29.37-.44,0-.04,0-.08-.01-.12-.14-1.11-.14.1.56-.3-.16.09-.36.25-.55.42.84,6.46,1.28,12.82,1.25,19.35.85.23,1.7.46,2.55.67.06-3.91.01-7.82-.18-11.72-.11-2.29.39-9.23-2.43-10.33-2.87-1.12-5.91,4.38-7.08,6.05-2.39,3.42-4.59,6.98-6.7,10.58.71.29,1.43.58,2.14.86,1.4-2.38,2.83-4.73,4.32-7.05Z"/>
      <path d="M321.46,107.86c0-.2,0-.4,0-.6-.85-.21-1.7-.44-2.55-.67,0,.5.01.99,0,1.49,0,.17.06.3.16.41.39.1.79.2,1.18.3.6-.07,1.19-.39,1.2-.94Z"/>
      <path d="M306.72,103.54c.16-.28.33-.56.5-.83-.72-.28-1.43-.57-2.14-.86-.21.35-.42.7-.62,1.05-.18.32-.14.57.02.76.33.13.66.25.99.38.51.02,1.04-.13,1.25-.5Z"/>
      <path d="M356.05,112.51c-.78,1.1-1.76,2.04-2.58,3.08,0,.03.02.05.02.08.13.5.65.39-.15.44-.91.06-.22-.08-.03-.33.05-.07.11-.13.16-.19-.16-.59-.42-1.15-.55-1.76-.14-.63-.23-1.28-.31-1.92-.83.05-1.66.09-2.49.12-.03,0-.06,0-.08,0,.22,2.36.83,6.28,3.74,5.55,1.57-.39,2.75-2.08,3.68-3.28.76-.98,1.46-2,2.14-3.04-.98.13-1.95.24-2.93.33-.21.3-.4.61-.62.91Z"/>
      <path d="M351.16,110.32h.08s-.06,0-.08,0Z"/>
      <path d="M353.35,116.11c.79-.06.28.06.15-.44,0-.03-.02-.05-.02-.08-.05.06-.11.13-.16.19-.19.25-.88.39.03.33Z"/>
      <path d="M357.61,110.2c-.3.47-.62.93-.94,1.39.98-.1,1.96-.21,2.93-.33.09-.14.19-.28.28-.42.74-1.16-1.71-1.52-2.27-.64Z"/>
      <path d="M352.61,111.91c-.03-.29-.07-.57-.1-.86-.04-.54-.66-.76-1.27-.73h-.08c-.63.06-1.24.39-1.19.95.02.22.04.49.07.76.03,0,.06,0,.08,0,.83-.03,1.66-.08,2.49-.12Z"/>
      <path d="M376.78,105.48c-.22.04-.41.11-.58.21.19-.07.38-.14.58-.21Z"/>
      <path d="M363.74,121.2c0-.13-.06-.27-.12-.41-.15.12-.28.26-.43.37-.6.45.55-.16.55.04Z"/>
      <path d="M374.4,108.05c-2.67,3.62-5.43,7.2-8.45,10.51-.73.8-1.49,1.55-2.32,2.23.06.14.12.28.12.41,0-.19-1.14.42-.55-.04.15-.12.29-.25.43-.37-.06-.15-.12-.29-.09-.44.1-.61-.07-1.39-.05-2.02.08-2.58.54-5.17,1.07-7.69.01-.06.01-.11.01-.16-.87.16-1.73.31-2.61.45-.69,3.38-2.79,15.11,3.14,11.26,3.02-1.96,5.39-5.54,7.59-8.31,1.82-2.3,3.6-4.64,5.32-7.01-1.18.41-2.35.79-3.48,1.15-.04.01-.09.02-.13.04Z"/>
      <path d="M362.06,110.41c-.03.14-.06.31-.11.51.87-.14,1.74-.29,2.61-.45,0-1.05-2.29-1.05-2.5-.06Z"/>
      <path d="M375.98,105.9c-.52.72-1.05,1.43-1.57,2.14.04-.01.09-.02.13-.04,1.13-.36,2.3-.74,3.48-1.15.08-.11.16-.21.23-.31.58-.8-.56-1.22-1.46-1.06-.19.07-.38.14-.58.21-.09.06-.17.13-.23.21Z"/>
      <path d="M284.84,37.63c3.81-3.05,8.15-5.25,13.08-5.54,5.24-.31,9.08,1.75,13.53,4.12,1.23.65,2.18-1.03,1.29-1.94-7.87-8.01-22.08-5.69-28.7,2.52-.41.5.27,1.27.8.84Z"/>
      <path d="M173.87,20.26c.8.07,1.6.14,2.4.21,0-1.04.06-2.04.18-3.02-.93.87-1.8,1.8-2.59,2.81Z"/>
      <path d="M168.42,12.36c.8.07,1.6.14,2.4.21.06-1.24.17-2.45.37-3.64-1.09,1.03-2.07,2.16-2.77,3.44Z"/>
      <path d="M183.52,13.3c.29.22.57.45.86.68.3-.18.6-.36.9-.53-.59-.05-1.18-.1-1.76-.14Z"/>
      <path d="M157.5,28.21c-.86-4.36-2.25-8.61-3.25-12.94-.67-2.93-1.77-6.67-.87-9.66,1.4-4.69,7.32-4.13,11.06-3.05,1.41.41,4.13.8,4.74,2.04.47.96.17,1.07-.16,2.35-.48,1.91-.63,3.88-.73,5.84-.05,1,2.05.85,2.4.21.44-.8,1.02-1.51,1.62-2.2.83-.94,2.09-2.6,3.37-2.55,1.57.06,1,.75.83,1.62-.25,1.27-1.42,2.63-1.84,3.9-.76,2.28-.93,4.53-.93,6.92,0,1.08,1.98.75,2.4.21,2.21-2.84,5.16-5.08,8.24-6.92-.29-.23-.57-.45-.86-.68.59.05,1.18.1,1.76.14-.3.17-.6.35-.9.53,6.82,5.4,13.38,11.58,17.5,19.31.72-.37,1.44-.74,2.17-1.11-4.38-7.98-11.3-14.37-18.41-19.91-.47-.37-1.24-.45-1.76-.14-2.62,1.5-5.19,3.23-7.41,5.32-.12.98-.18,1.98-.18,3.02-.8-.07-1.6-.14-2.4-.21.78-1.01,1.66-1.94,2.59-2.81.38-3.08,1.41-5.86,3.42-8.47.3-.38.06-.76-.29-.98-1.06-.69-2.14-1.36-3.23-2.01-.52-.31-1.33-.19-1.8.16-1.12.85-2.3,1.76-3.37,2.77-.19,1.19-.31,2.41-.37,3.64-.8-.07-1.6-.14-2.4-.21.71-1.28,1.69-2.41,2.77-3.44.25-1.53.63-3.02,1.24-4.5.13-.31-.13-.65-.4-.77-5.37-2.54-13.41-5.87-18.91-1.61-4.83,3.75-1.82,11.95-.62,16.69,1.28,5.03,2.87,10,3.09,15.22.23,5.26-.56,10.55-1.78,15.65-1.33,5.54-3.14,11.08-5.58,16.23,1.24-.82,2.47-1.64,3.7-2.45,4.69-10.78,7.83-23.72,5.56-35.18Z"/>
      <path d="M203.97,34.23c.16-.05.3-.12.41-.21-.14.07-.27.14-.41.21Z"/>
      <path d="M202.18,33.86c.27.52,1.15.6,1.79.38.14-.07.27-.14.41-.21.26-.2.38-.48.21-.82-.18-.34-.36-.68-.55-1.02-.72.37-1.45.73-2.17,1.11.1.19.21.37.3.56Z"/>
      <path d="M150.66,66.22c.44-.92.86-1.87,1.28-2.83-1.23.81-2.46,1.63-3.7,2.45-.02.05-.05.1-.07.15-.5,1.04,2.03,1.19,2.49.22Z"/>
      <path d="M251.58,228.07c-2.44,1.56-9.47,6.68-12.25,3.74-2.07-2.19-.34-7.24.25-9.66,1.82-7.5,2.89-15.7,1.31-23.38-.84.11-1.68.2-2.53.3.72,3.57.79,7.33.62,10.94-.3,6.34-3.2,12.56-2.99,18.86.23,6.89,6.72,5.86,11.4,3.7,16.26-7.53,30.37-23.57,32.58-41.82-.87.25-1.75.5-2.62.74-2.09,15.48-13.02,28.42-25.75,36.59Z"/>
      <path d="M240.74,198.08c-.25-1.11-2.78-.83-2.54.22.06.25.1.51.15.76.84-.1,1.69-.19,2.53-.3-.05-.23-.09-.46-.14-.69Z"/>
      <path d="M277.5,190.3c-.04.4-.11.78-.17,1.17.88-.24,1.75-.49,2.62-.74.03-.22.06-.44.08-.66.11-1.05-2.42-.92-2.54.22Z"/>
      <path d="M79.69,165.34c-2.54-.37-7.67-1.53-8.78-4.37-1.2-3.07,4.72-3.26,6.93-4.28,2.33-1.07,4.61-2.46,6.65-4.07-.51-.43-1.02-.86-1.53-1.3-1.62,1.32-3.41,2.47-5.25,3.43-2.56,1.34-6.11,1.39-8.39,3.04-1.88,1.37-1.46,3.2-.06,4.83,6.79,7.92,21.16,4.42,29.46,1-.56-.4-1.12-.8-1.67-1.2-5.47,2.25-11.41,3.78-17.34,2.91Z"/>
      <path d="M98.26,161.92c-.41.18-.81.35-1.23.52.56.4,1.11.8,1.67,1.2.33-.14.65-.27.96-.4,1.53-.66-.35-1.77-1.41-1.31Z"/>
      <path d="M85.52,151.8c1.16-1.01-1.09-1.71-1.9-1.01-.21.19-.44.36-.66.54.51.44,1.02.87,1.53,1.3.35-.27.7-.54,1.03-.82Z"/>
      <path d="M174.04,194.95c.7.14,1.41.26,2.12.4,10.73-6.36,20.46-14.8,27.33-24.73,2.1-3.03,4.5-6.8,4.74-10.55-.1.07-.19.14-.29.2-.63.42-2.03.13-2.24-.38-.11,3.11-1.97,6.25-3.66,8.87-8.72,13.49-23.19,24.07-37.64,30.63-9.93,4.51-20.87,7.27-31.8,7.41-5.72.07-15.85,0-20.16-4.7-.97-1.06-.84-2.19-.13-3.3-.36-.17-.71-.35-1.04-.58-1.28-.87.81-1.93,1.69-1.32.21.14.44.25.66.37,2.1-1.98,5.36-3.77,6.67-4.86.3-.25.59-.51.88-.76-.2-.09-.4-.15-.6-.19-1.66-.26-.82-1.87.54-1.65.57.09,1.11.27,1.61.51,3.95-3.4,7.78-6.95,11.42-10.67-.37-.05-.73-.11-1.09-.19-1.62-.39.04-1.81,1.16-1.54.46.11.94.15,1.43.15.76-.8,1.53-1.59,2.28-2.4,1.33-1.46,2.62-2.95,3.88-4.47-.19-.56-.46-1.07-.82-1.52-.87-1.08,1.47-1.83,2.12-1.03.12.15.24.31.35.47,1.1-1.43,2.17-2.88,3.15-4.39,2.49-3.82,4.64-7.72,8.06-10.83,7.08-6.43,16.63-6.84,25.71-6.47-1.69-.09-.8-1.72.54-1.65-8.3-.34-17.15-.19-24.44,4.32-6.02,3.73-9.36,9.74-13.19,15.41.33.06.67.13,1,.19,1.65.29.82,1.89-.54,1.65-.51-.09-1.02-.2-1.54-.29-.59.84-1.2,1.66-1.84,2.46-2.99,3.75-6.24,7.3-9.64,10.7.35.17.7.35,1.05.52,1.38.66-.75,1.77-1.69,1.32-.27-.13-.54-.27-.81-.4-3.92,3.81-8.05,7.42-12.25,10.86-2.43,1.98-9.87,5.3-7.67,9.44,2.35,4.44,10.61,5.51,14.88,6.05,11.45,1.44,23.37-.55,34.19-4.35,5.22-1.83,10.44-4.19,15.46-6.99-.33-.07-.65-.12-.98-.19-1.63-.34.04-1.77,1.16-1.54Z"/>
      <path d="M180.89,145.77c-1.34-.07-2.23,1.56-.54,1.65,1.34.06,2.23-1.58.54-1.65Z"/>
      <path d="M204.5,155.59c.87,1.3,1.21,2.67,1.2,4.04.05-.12.15-.24.34-.36.7-.46,1.38-.95,2.04-1.45-.19-.98-.56-1.94-1.17-2.88-5.18-7.99-17.54-8.72-26.02-9.16,1.69.07.8,1.71-.54,1.65,7.83.41,19.3.88,24.15,8.17Z"/>
      <path d="M174.04,194.95c-1.12-.23-2.79,1.2-1.16,1.54.33.07.65.12.98.19.77-.43,1.53-.88,2.29-1.33-.7-.14-1.41-.25-2.12-.4Z"/>
      <path d="M131.75,180.74c-.35-.17-.7-.35-1.05-.52-.48.48-.96.97-1.45,1.45.27.13.54.27.81.4.94.45,3.07-.67,1.69-1.32Z"/>
      <path d="M208.08,157.82c-.66.5-1.34.98-2.04,1.45-.19.12-.29.25-.34.36,0,.09,0,.18,0,.27.21.51,1.6.8,2.24.38.1-.06.19-.14.29-.2.05-.76,0-1.51-.14-2.26Z"/>
      <path d="M143.72,167.35c1.35.23,2.19-1.36.54-1.65-.33-.06-.67-.13-1-.19-.35.52-.71,1.03-1.07,1.55.51.09,1.02.2,1.54.29Z"/>
      <path d="M162.24,162.25c1.53-.67-.35-1.78-1.41-1.31-1.54.63.34,1.75,1.41,1.31Z"/>
      <path d="M160.83,160.94c1.06-.46,2.93.64,1.41,1.31,3.17-1.31,14.51-5.56,16.04.34.54,2.06-1.09,4.13-2.48,5.44-2.76,2.59-6.44,4.17-9.99,5.32-2.75.89-12.14,3.74-11.82-2.01.23-4.22,4.78-7.57,8.26-9.1-1.06.44-2.95-.68-1.41-1.31-3.84,1.68-7.99,4.88-9.14,9.12-1.05,3.86,1.79,6.1,5.4,6.39,6.46.51,14.34-2.52,19.4-6.4,2.75-2.1,6.39-6.51,3.17-9.81-4.58-4.69-13.93-1.33-18.83.69Z"/>
      <path d="M142.25,177.39c2.67-2.21,3.06-5.54,1.18-8.28-.54.7-1.09,1.39-1.65,2.07.58,1.72.26,3.81-1.43,5.2-1.28,1.05-3.05,1.67-4.73,1.68-.5.53-.99,1.06-1.5,1.58,2.84.36,5.93-.43,8.12-2.25Z"/>
      <path d="M134.2,177.91c-1.12-.27-2.78,1.15-1.16,1.54.36.08.72.14,1.09.19.51-.52,1-1.05,1.5-1.58-.49,0-.97-.04-1.43-.15Z"/>
      <path d="M143.08,168.64c-.65-.8-2.99-.06-2.12,1.03.36.44.63.96.82,1.52.56-.68,1.11-1.37,1.65-2.07-.11-.16-.22-.32-.35-.47Z"/>
      <path d="M148.27,178.76c-.17.58.51.9.98.94.52.03,1.34-.13,1.51-.71.17-.57-.51-.91-.98-.94-.52-.04-1.34.14-1.51.71Z"/>
      <path d="M149.99,184.14c1.58-.25,4.14-1.06,4.17-3.06.03-2.12-2.73-2.89-4.38-3.03.46.03,1.15.36.98.94-.18.59-.99.74-1.51.71.82.07,2.72.5,2.33,1.74-.36,1.14-2.46,1.29-3.4,1.06-.78-.19-1.64-.88-1.54-1.74.13-1.1,1.7-1.11,2.61-1.06-.46-.04-1.15-.36-.98-.94.17-.58.99-.76,1.51-.71-1.75-.1-4.05.04-5.21,1.58-.81,1.08-.48,2.45.44,3.34,1.29,1.24,3.29,1.45,4.98,1.18Z"/>
      <path d="M165.26,178.76c1.57-.16,1.69,1.49.14,1.65,1.5-.1,3.99.37,3.7,2.41-.32,2.22-3.77,3.45-5.65,3.49-1.59.04-2.38-1.23-2.05-2.71.42-1.88,2.18-3,4-3.19-1.56.1-1.71-1.55-.14-1.65-2.37.25-4.73,1.31-5.89,3.49-.84,1.58-.83,3.62.68,4.81,2.09,1.64,5.24.83,7.44-.08,1.95-.81,4.56-2.6,4.13-5.06-.48-2.8-4.08-3.31-6.36-3.16Z"/>
      <path d="M165.41,180.41c1.55-.16,1.42-1.82-.14-1.65-1.57.1-1.42,1.75.14,1.65Z"/>
      <path d="M149.78,186.32c1.57-.15,1.7,1.5.14,1.65,1.33-.1,6.23-.11,5.52,2.45-.33,1.18-1.86,1.85-2.88,2.27-1.57.64-3.33,1.08-5.03,1.01-1.43-.06-4.11-.73-3.88-2.68.29-2.45,4.53-2.88,6.28-3.05-1.56.12-1.71-1.53-.14-1.65-2.73.26-6.58.86-8.19,3.43-1.14,1.82-.03,3.7,1.67,4.63,2.72,1.5,6.2,1.09,9.05.22,2.08-.64,6.18-2.22,5.7-5.09-.54-3.28-5.84-3.36-8.23-3.18Z"/>
      <path d="M149.92,187.97c1.55-.15,1.42-1.8-.14-1.65-1.56.12-1.42,1.77.14,1.65Z"/>
      <path d="M132.06,185.13c.25.54,1.14.57,1.61.44,1.61-.5.49-1.94-.81-1.53-.06.02-.13.05-.19.07-.41.18-.83.55-.6,1.02Z"/>
      <path d="M132.67,184.11c.06-.02.13-.05.19-.07-.06.02-.13.04-.19.07Z"/>
      <path d="M137.11,189.98c1.46-.88,3.88-2.79,2.55-4.73-1.39-2.04-4.76-1.78-6.8-1.22,1.31-.41,2.42,1.03.81,1.53.95-.26,3.45-.67,3.8.76.18.74-.57,1.43-1.08,1.83-.88.7-2.01,1.38-3.14,1.58-1.03.18-1.81-.41-1.85-1.48-.04-1.34,1.07-2.33,2.27-2.7-.48.13-1.36.1-1.61-.44-.22-.47.19-.85.6-1.02-1.62.55-3.26,1.63-3.69,3.39-.36,1.48.29,2.92,1.68,3.57,2.1.99,4.61.03,6.45-1.08Z"/>
      <path d="M138.33,192.88c-1.71-.6-3.75-.66-5.31.38-1,.67-1.71,1.88-1.23,3.08.71,1.8,3.11,2.08,4.8,2.08-.47-.02-1.1-.18-1.14-.71-.04-.58.71-.92,1.2-.94-.99.01-2.35-.24-2.47-1.24-.1-.82.63-1.3,1.27-1.41.02,0,.41-.01.62.01.38.05.75.16,1.11.29.59.21,1.61.55,1.87,1.2.12.31-.02.49-.26.66-.6.41-1.44.46-2.14.49.46,0,1.3.09,1.34.71.04.57-.71.93-1.2.94,1.54-.05,4.04-.47,4.72-2.12.76-1.85-1.87-2.96-3.17-3.42Z"/>
      <path d="M137.99,197.49c-.04-.62-.89-.72-1.34-.71-.48.02-1.24.36-1.2.94.04.53.67.69,1.14.71.07,0,.14,0,.2,0,.48,0,1.24-.36,1.2-.94Z"/>
      <path d="M136.79,198.42c-.06,0-.14,0-.2,0,.07,0,.14,0,.2,0Z"/>
      <path d="M123.88,197.35c3.16-2.32,1.68-5.71-1.17-7.05-.52.44-1.03.89-1.55,1.33.83.36,1.6,1.12,1.91,1.89.7,1.77-1.03,2.95-2.45,3.56-2.14.93-4.85,1.24-7.01.17-.53.5-.99,1.02-1.32,1.53,3.58,1.68,8.57.78,11.59-1.44Z"/>
      <path d="M113.61,197.26c-.22-.11-.45-.22-.66-.37-.89-.6-2.97.46-1.69,1.32.33.22.68.41,1.04.58.33-.52.79-1.03,1.32-1.53Z"/>
      <path d="M121.1,189.8c-1.35-.22-2.2,1.39-.54,1.65.2.03.4.1.6.19.52-.44,1.03-.89,1.55-1.33-.5-.24-1.04-.42-1.61-.51Z"/>
    </g>
  </g>
</svg>