<svg width="132" height="91" viewBox="0 0 132 91" fill="none" xmlns="http://www.w3.org/2000/svg">
<path d="M61.3798 75.3203C61.5191 71.2259 63.6181 72.0994 63.4623 75.3203C63.3557 77.5768 63.1917 80.4247 63.1917 80.4247C63.1917 80.4247 63.9378 80.5247 64.2412 81.107C65.2989 83.1269 67.1518 88.1676 66.3483 88.6771C65.2989 89.3504 62.7736 82.9541 62.7736 82.9541C62.7736 82.9541 62.4374 90.8699 60.9944 90.9881C59.5514 91.1064 61.0108 82.8631 61.0108 82.8631C61.0108 82.8631 57.9198 89.1411 56.8785 88.4314C55.8127 87.7035 58.7069 83.0269 60.0105 80.8523C60.3713 80.2518 61.0928 80.4883 61.1092 80.3519C61.1092 80.3519 61.2732 78.4503 61.3798 75.3021V75.3203Z" fill="#FFC022"/>
<path d="M60.8057 84.2C60.8057 84.2 60.8631 83.9999 61.0352 83.8088C61.2074 83.6268 61.4944 83.4903 61.7977 83.5176C61.9453 83.5449 62.0929 83.5631 62.2159 83.6541C62.3389 83.7269 62.4537 83.8088 62.5193 83.9271C62.6586 84.1546 62.6914 84.3456 62.6914 84.3456C62.6914 84.3456 62.5029 84.4275 62.3143 84.473C62.1175 84.5276 61.9207 84.5549 61.7322 84.5458C61.5436 84.5276 61.3386 84.4639 61.1582 84.382C60.9696 84.291 60.8057 84.2 60.8057 84.2Z" fill="#F6891F"/>
<path d="M60.4857 86.794C60.4857 86.794 60.5267 86.5756 60.6907 86.3754C60.8547 86.1753 61.158 86.0115 61.486 86.0297L61.7238 86.0661C61.8058 86.0661 61.8714 86.1298 61.937 86.1571C62.0681 86.239 62.1911 86.3209 62.2567 86.4391C62.4043 86.6757 62.4371 86.8759 62.4371 86.8759C62.4371 86.8759 62.2403 86.9487 62.0435 86.9851C61.9452 86.9851 61.8386 87.0397 61.7402 87.0397C61.65 87.0397 61.5516 87.0487 61.4532 87.0578C61.2646 87.0396 61.0597 87.0033 60.8547 86.9396C60.6579 86.8668 60.4775 86.8031 60.4775 86.8031L60.4857 86.794Z" fill="#F6891F"/>
<path d="M60.4121 89.1231C60.4121 89.1231 60.4613 88.932 60.6171 88.7865C60.7729 88.6227 61.0106 88.5317 61.2484 88.559C61.3632 88.5772 61.4862 88.5863 61.5846 88.6682C61.6829 88.741 61.7731 88.8229 61.8305 88.9138C61.9535 89.0958 61.9863 89.2778 61.9863 89.2778C61.9863 89.2778 61.8305 89.387 61.6666 89.478C61.5026 89.5689 61.3468 89.5689 61.1746 89.5871C61.0106 89.5598 60.8549 89.478 60.7073 89.3688C60.5597 89.2414 60.4121 89.1322 60.4203 89.1231H60.4121Z" fill="#F6891F"/>
<path d="M63.0932 83.7087C63.0932 83.7087 63.0604 83.4904 63.1506 83.2174C63.2325 82.9445 63.4539 82.6624 63.7491 82.4895C63.9131 82.4349 64.0688 82.353 64.2328 82.3712C64.3968 82.3803 64.5526 82.3894 64.6674 82.4622C64.9133 82.6169 65.0117 82.7898 65.0117 82.7898C65.0117 82.7898 64.8395 82.9354 64.6756 83.0536C64.5936 83.1082 64.5034 83.2083 64.4132 83.2538C64.323 83.3084 64.2328 83.3812 64.1426 83.4267C63.9541 83.5359 63.7163 83.5996 63.5031 83.6541C63.2817 83.6905 63.085 83.7087 63.085 83.7087H63.0932Z" fill="#F6891F"/>
<path d="M63.9705 85.6567C63.9705 85.6567 63.9131 85.4474 63.9787 85.1745C64.0361 84.9015 64.2329 84.6013 64.528 84.4284C64.692 84.3738 64.8396 84.2737 65.0036 84.301C65.1676 84.3101 65.3151 84.3192 65.4299 84.4011C65.6677 84.5558 65.7579 84.7286 65.7579 84.7286C65.7579 84.7286 65.5857 84.8742 65.4299 84.9925C65.2659 85.129 65.1184 85.2473 64.9544 85.3474C64.7904 85.4474 64.5772 85.5202 64.3723 85.5748C64.1673 85.6203 63.9705 85.6567 63.9705 85.6567Z" fill="#F6891F"/>
<path d="M64.9625 87.494C64.9625 87.494 64.8887 87.3121 64.9215 87.0755C64.9461 86.8389 65.0937 86.5842 65.3314 86.4204C65.5774 86.2748 65.8972 86.2748 66.0857 86.4113C66.2825 86.5569 66.3481 86.7298 66.3481 86.7298C66.3481 86.7298 66.2087 86.8844 66.1021 87.0118C65.9873 87.1483 65.8972 87.2666 65.7824 87.3303C65.6676 87.4031 65.4954 87.4394 65.315 87.4758C65.1347 87.494 64.9543 87.5031 64.9543 87.5031L64.9625 87.494Z" fill="#F6891F"/>
<path d="M59.0098 82.5534C59.0098 82.5534 59.1409 82.3896 59.3869 82.3259C59.6247 82.2531 59.9772 82.3077 60.2396 82.5443L60.42 82.7445C60.4856 82.7991 60.502 82.9082 60.543 82.981C60.6004 83.1448 60.6496 83.2995 60.6168 83.4451C60.584 83.7362 60.4774 83.9 60.4774 83.9C60.4774 83.9 60.2888 83.7999 60.1248 83.6816C60.051 83.6179 59.9444 83.5724 59.8789 83.5178C59.8133 83.4633 59.7395 83.4087 59.6657 83.3541C59.6083 83.2722 59.5263 83.2358 59.4689 83.1448C59.3951 83.0811 59.3295 82.981 59.2639 82.8991C59.1327 82.7172 59.0098 82.5534 59.0098 82.5534Z" fill="#F6891F"/>
<path d="M58.0014 84.3373C58.0014 84.3373 58.1079 84.1463 58.3457 84.0371C58.5753 83.9279 58.9524 83.937 59.2394 84.1645C59.3788 84.2827 59.51 84.4101 59.5756 84.583C59.6494 84.7377 59.6986 84.8924 59.6822 85.0379C59.674 85.3291 59.5838 85.502 59.5838 85.502C59.5838 85.502 59.387 85.4201 59.2066 85.32C59.1246 85.2563 59.0262 85.2199 58.9442 85.1744C58.8705 85.1198 58.7967 85.0652 58.7147 85.0288C58.6573 84.947 58.5671 84.9288 58.5097 84.8378C58.4359 84.7832 58.3621 84.7013 58.2883 84.6285C58.1407 84.4738 57.9932 84.3373 57.9932 84.3373H58.0014Z" fill="#F6891F"/>
<path d="M57.1572 86.0836C57.1572 86.0836 57.2802 85.9198 57.5098 85.847C57.7312 85.7651 58.0673 85.8197 58.3215 86.0654L58.4855 86.2747C58.5511 86.3383 58.551 86.4384 58.5838 86.5203C58.6248 86.6841 58.6494 86.8388 58.6002 86.9753C58.5265 87.2391 58.3953 87.3756 58.3953 87.3756C58.3953 87.3756 58.2231 87.2573 58.0837 87.139C58.0263 87.0662 57.9279 87.0298 57.8787 86.9843C57.8295 86.9298 57.764 86.8934 57.7148 86.8479C57.6738 86.7842 57.6082 86.7478 57.5672 86.6659C57.5098 86.6022 57.4606 86.5112 57.395 86.4384C57.2884 86.2656 57.1736 86.1018 57.1736 86.1018L57.1572 86.0836Z" fill="#F6891F"/>
<g style="mix-blend-mode:multiply" opacity="0.6">
<path d="M64.2493 81.107C63.9459 80.5247 63.1998 80.4247 63.1998 80.4247C63.1998 80.4247 63.3638 77.5768 63.4704 75.3203C63.6261 72.0994 61.519 71.2259 61.3878 75.3203C61.2812 78.4684 61.1173 80.3701 61.1173 80.3701C61.1009 80.5065 60.3793 80.2609 60.0186 80.8705C58.715 83.0451 55.8207 87.7217 56.8866 88.4496C57.9279 89.1593 61.0189 82.8813 61.0189 82.8813C61.0189 82.8813 59.5595 91.1246 61.0025 91.0063C62.4455 90.8881 62.7816 82.9723 62.7816 82.9723C62.7816 82.9723 65.2987 89.3686 66.3564 88.6953C67.1599 88.1858 65.3069 83.1451 64.2493 81.1252V81.107ZM65.2741 87.0939C64.7576 85.8383 63.1096 82.7812 62.8472 82.3081C62.5849 81.844 62.5275 82.5628 62.2897 84.6828C62.0519 86.8028 61.9535 90.5605 60.9287 90.5605C60.1498 90.5605 61.273 83.3544 61.3468 82.0169C61.3714 81.6621 60.3711 82.763 59.2561 84.8284C58.141 86.8938 57.4769 88.295 56.9768 88.0493C56.4766 87.8036 57.3293 85.7109 59.3217 82.3081C60.5187 80.2791 60.6663 80.6339 61.3058 80.5702C61.4698 77.777 61.5436 76.6032 62.2651 76.5941C62.9866 76.5941 62.9374 78.0317 62.8062 80.6339C62.8062 80.6339 63.5851 80.4519 64.0607 81.2981C64.5362 82.1443 65.6595 84.5736 66.2416 86.8574C66.6434 88.4314 65.7661 88.2677 65.2823 87.0757L65.2741 87.0939Z" fill="#FFBC07"/>
</g>
<g style="mix-blend-mode:screen" opacity="0.7">
<path d="M56.9111 87.7406C56.9111 87.7406 57.3129 85.2203 60.4941 80.7256C60.4941 80.7256 58.3705 84.9655 56.9111 87.7406Z" fill="#FFBC07"/>
</g>
<g style="mix-blend-mode:screen" opacity="0.7">
<path d="M60.9618 90.3334C61.2324 87.1398 61.5686 82.2993 61.5686 82.2993C60.3797 87.8586 60.9618 90.3334 60.9618 90.3334Z" fill="#FFBC07"/>
</g>
<g style="mix-blend-mode:screen" opacity="0.7">
<path d="M63.6514 81.0801C64.668 83.6823 66.2668 87.5765 66.2668 87.5765C65.0534 82.7178 63.6514 81.0801 63.6514 81.0801Z" fill="#FFBC07"/>
</g>
<path d="M76.9331 73.7737C74.9981 70.107 77.2774 69.5701 78.7532 72.4817C79.7945 74.5198 81.0817 77.1129 81.0817 77.1129C81.0817 77.1129 81.7868 76.7399 82.3444 77.0583C84.2875 78.1683 88.428 81.4347 87.9853 82.3719C87.4031 83.6093 81.9918 79.5786 81.9918 79.5786C81.9918 79.5786 85.6732 86.7028 84.4679 87.7037C83.2627 88.7045 80.4012 80.5886 80.4012 80.5886C80.4012 80.5886 80.8522 87.9948 79.5813 88.013C78.2777 88.0403 78.4663 82.1535 78.5155 79.4603C78.5319 78.7052 79.278 78.4686 79.2206 78.3503C79.2206 78.3503 78.4089 76.5852 76.9249 73.7737H76.9331Z" fill="#FFC022"/>
<path d="M80.8849 81.8815C80.8849 81.8815 80.8357 81.6723 80.8931 81.4084C80.9504 81.1445 81.139 80.8534 81.4096 80.6896C81.549 80.6168 81.6884 80.544 81.8441 80.544C81.9917 80.5349 82.1229 80.5258 82.2459 80.5895C82.4837 80.6896 82.6066 80.8352 82.6066 80.8352C82.6066 80.8352 82.4837 81.0172 82.3361 81.1718C82.1885 81.3356 82.0327 81.4812 81.8605 81.5904C81.6802 81.6905 81.4752 81.7723 81.2784 81.8178C81.0734 81.8542 80.8849 81.8815 80.8849 81.8815Z" fill="#F6891F"/>
<path d="M81.9093 84.3473C81.9093 84.3473 81.8356 84.1381 81.8929 83.856C81.9339 83.5831 82.1225 83.2555 82.4095 83.0735L82.6309 82.9643C82.7046 82.9188 82.7948 82.928 82.8686 82.9098C83.0244 82.9007 83.1638 82.8916 83.2868 82.9552C83.5327 83.0644 83.6639 83.21 83.6639 83.21C83.6639 83.21 83.5245 83.392 83.377 83.5376C83.295 83.6013 83.2212 83.7013 83.1392 83.765C83.0572 83.8287 82.9752 83.8924 82.8932 83.9561C82.721 84.0653 82.5161 84.1563 82.3111 84.22C82.1061 84.2836 81.9175 84.3382 81.9175 84.3382L81.9093 84.3473Z" fill="#F6891F"/>
<path d="M83.0083 86.4402C83.0083 86.4402 82.9673 86.2491 83.0247 86.0307C83.0821 85.7942 83.2461 85.5758 83.4593 85.4484C83.5741 85.3938 83.6724 85.3302 83.8036 85.3393C83.9266 85.3393 84.0414 85.3574 84.1398 85.3938C84.3366 85.4757 84.4513 85.6031 84.4513 85.6031C84.4513 85.6031 84.3694 85.7942 84.271 85.9671C84.1726 86.1399 84.0332 86.24 83.8938 86.3583C83.738 86.4402 83.5577 86.4675 83.3855 86.4675C83.1969 86.4493 83.0165 86.4493 83.0165 86.4402H83.0083Z" fill="#F6891F"/>
<path d="M82.6392 80.0428C82.6392 80.0428 82.508 79.8699 82.4506 79.5788C82.3932 79.2967 82.4506 78.9146 82.6146 78.587C82.7294 78.4415 82.8196 78.2686 82.9753 78.1776C83.1229 78.0866 83.2541 77.9956 83.4017 77.9865C83.6887 77.9683 83.8608 78.0502 83.8608 78.0502C83.8608 78.0502 83.787 78.2777 83.6969 78.487C83.6477 78.587 83.6231 78.7235 83.5657 78.8145C83.5165 78.9146 83.4673 79.0329 83.4099 79.133C83.2951 79.3422 83.1311 79.5515 82.9671 79.7335C82.795 79.9063 82.6392 80.0428 82.6392 80.0428Z" fill="#F6891F"/>
<path d="M84.3861 81.2086C84.3861 81.2086 84.2385 81.054 84.1647 80.781C84.0827 80.508 84.1073 80.135 84.2713 79.7983C84.3861 79.6528 84.4599 79.4799 84.6239 79.3889C84.7714 79.2979 84.8944 79.2069 85.042 79.216C85.3208 79.2069 85.4848 79.2888 85.4848 79.2888C85.4848 79.2888 85.411 79.5163 85.329 79.7165C85.247 79.9257 85.1814 80.1259 85.0748 80.317C84.9764 80.508 84.8288 80.7082 84.6895 80.8811C84.5337 81.054 84.3861 81.1995 84.3861 81.1995V81.2086Z" fill="#F6891F"/>
<path d="M86.1651 82.2003C86.1651 82.2003 86.0175 82.082 85.9273 81.8636C85.8371 81.6452 85.8371 81.3268 85.9601 81.0447C86.0995 80.7718 86.3782 80.5716 86.6078 80.5625C86.8538 80.5625 86.9932 80.6626 86.9932 80.6626C86.9932 80.6626 86.9522 80.8719 86.9112 81.0538C86.8784 81.2449 86.8538 81.3996 86.78 81.5361C86.7144 81.6816 86.5832 81.8181 86.452 81.9546C86.3044 82.082 86.1651 82.2003 86.1651 82.2003Z" fill="#F6891F"/>
<path d="M78.4906 81.5626C78.4906 81.5626 78.5316 81.3443 78.712 81.135C78.8842 80.9257 79.2121 80.762 79.5647 80.8074L79.8189 80.8711C79.909 80.8802 79.9746 80.9621 80.0402 80.9985C80.1714 81.1077 80.2944 81.2078 80.3436 81.3534C80.4584 81.6263 80.4584 81.8265 80.4584 81.8265C80.4584 81.8265 80.2452 81.8447 80.0484 81.8447C79.95 81.8265 79.8435 81.8629 79.7451 81.8447C79.6549 81.8356 79.5565 81.8447 79.4663 81.8265C79.3761 81.7901 79.2777 81.8174 79.1793 81.7719C79.0809 81.7719 78.9744 81.7173 78.876 81.69C78.671 81.6172 78.4824 81.5626 78.4824 81.5626H78.4906Z" fill="#F6891F"/>
<path d="M78.5068 83.7378C78.5068 83.7378 78.5068 83.5103 78.6626 83.2737C78.8102 83.0372 79.1382 82.8188 79.5071 82.837C79.6875 82.8552 79.8679 82.8825 80.0072 82.9917C80.1548 83.0827 80.2696 83.1827 80.327 83.3192C80.4664 83.574 80.4828 83.7742 80.4828 83.7742C80.4828 83.7742 80.2778 83.8196 80.0728 83.8378C79.9744 83.8378 79.8679 83.856 79.7695 83.8651C79.6711 83.8651 79.5809 83.8651 79.4907 83.8651C79.4005 83.8288 79.3103 83.8651 79.2119 83.8288C79.1136 83.8288 79.007 83.8015 78.9086 83.7924C78.7036 83.7469 78.5068 83.7287 78.5068 83.7287V83.7378Z" fill="#F6891F"/>
<path d="M78.6377 85.7841C78.6377 85.7841 78.6623 85.5748 78.8263 85.3655C78.9821 85.1654 79.2936 85.0107 79.638 85.0653L79.8839 85.1472C79.9659 85.1654 80.0233 85.2472 80.0889 85.2927C80.2119 85.411 80.3103 85.5293 80.3267 85.6749C80.3923 85.9478 80.3513 86.1389 80.3513 86.1389C80.3513 86.1389 80.1463 86.1389 79.9659 86.1116C79.8839 86.0843 79.7774 86.1116 79.7036 86.0934C79.6298 86.0752 79.556 86.0934 79.4904 86.0752C79.4248 86.0388 79.3428 86.0479 79.2608 86.0024C79.1788 85.9933 79.0886 85.9387 78.9985 85.9114C78.8181 85.8296 78.6377 85.7659 78.6377 85.7659V85.7841Z" fill="#F6891F"/>
<g style="mix-blend-mode:multiply" opacity="0.6">
<path d="M82.3447 77.0583C81.7872 76.7399 81.0821 77.1129 81.0821 77.1129C81.0821 77.1129 79.7949 74.5198 78.7536 72.4817C77.2696 69.5701 74.9985 70.107 76.9334 73.7737C78.4174 76.5852 79.2291 78.3503 79.2291 78.3503C79.2865 78.4777 78.5322 78.7143 78.524 79.4603C78.4748 82.1626 78.2863 88.0403 79.5899 88.013C80.8525 87.9857 80.4098 80.5886 80.4098 80.5886C80.4098 80.5886 83.2712 88.6954 84.4765 87.7037C85.6817 86.7028 82.0004 79.5786 82.0004 79.5786C82.0004 79.5786 87.4117 83.6093 87.9938 82.3719C88.4366 81.4347 84.2961 78.1683 82.3529 77.0583H82.3447ZM86.2393 81.6531C85.157 80.8706 82.1808 79.2238 81.7216 78.969C81.2625 78.7234 81.574 79.3966 82.4267 81.3983C83.2794 83.4 85.0832 86.7483 84.1813 87.3761C83.5008 87.8584 80.8689 80.8615 80.2622 79.6514C80.0982 79.3239 79.7785 80.907 79.8441 83.4C79.9015 85.8931 80.0326 87.5308 79.4669 87.6218C78.9094 87.7219 78.5978 85.3562 78.6388 81.1527C78.6634 78.6415 78.975 78.8598 79.4997 78.4049C78.2371 75.8664 77.7205 74.7928 78.3518 74.3378C78.9832 73.8829 79.6555 75.1749 80.8525 77.5314C80.8525 77.5314 81.4429 76.8945 82.2792 77.3404C83.1154 77.7862 85.321 79.2147 86.9772 80.8524C88.1168 81.9807 87.2723 82.381 86.2475 81.644L86.2393 81.6531Z" fill="#FFBC07"/>
</g>
<g style="mix-blend-mode:screen" opacity="0.7">
<path d="M79.2534 87.3859C79.2534 87.3859 78.3433 84.9384 78.8681 79.0425C78.8681 79.0425 79.1386 84.0558 79.2534 87.3859Z" fill="#FFBC07"/>
</g>
<g style="mix-blend-mode:screen" opacity="0.7">
<path d="M84.0996 87.1496C82.7386 84.1835 80.5986 79.7524 80.5986 79.7524C82.345 85.3481 84.0996 87.1496 84.0996 87.1496Z" fill="#FFBC07"/>
</g>
<g style="mix-blend-mode:screen" opacity="0.7">
<path d="M81.8037 77.4048C84.001 79.0516 87.3544 81.4628 87.3544 81.4628C83.8535 77.9689 81.8037 77.4048 81.8037 77.4048Z" fill="#FFBC07"/>
</g>
<path d="M54.0504 51.3365C54.0504 51.3365 62.9299 44.094 77.6963 45.3951C77.6963 45.3951 94.8157 36.1327 114.715 34.4677C134.613 32.8026 136.138 35.8962 124.012 36.8151C124.012 36.8151 130.76 36.9607 130.76 39.0989C130.76 41.2371 125.521 43.0204 119.421 42.9021C119.421 42.9021 124.127 43.1387 123.594 44.8037C123.061 46.4688 115.354 48.6069 108.934 47.8882C108.934 47.8882 111.927 48.3613 112.034 50.0263C112.14 51.6914 105.294 54.6575 95.447 54.421C95.447 54.421 97.3984 55.1579 97.1606 56.4409C96.7589 58.579 88.2811 59.5253 88.2811 59.5253C89.3798 61.5088 86.4856 73.6281 71.4814 76.203C58.1089 78.4959 49.2704 70.2435 49.746 67.3046C49.746 67.3046 42.1619 69.7339 45.2693 66.0581C45.2693 66.0581 35.2092 69.3791 34.1433 67.6049C33.0693 65.8215 37.7837 64.5204 37.7837 64.5204C37.7837 64.5204 27.5104 66.8952 26.2313 65.7032C24.9441 64.5204 29.224 62.7371 29.224 62.7371C29.224 62.7371 16.5976 64.1656 14.9906 62.264C13.3836 60.3624 20.7708 58.579 20.7708 58.579C20.7708 58.579 7.5049 60.7172 5.79132 58.579C4.07774 56.4409 10.9813 54.7758 10.9813 54.7758C10.9813 54.7758 7.23434 54.9578 1.40487 56.7957C-3.44072 58.3243 6.21767 40.7639 54.0504 51.3365Z" fill="#0049B2"/>
<g style="mix-blend-mode:multiply">
<path d="M129.711 34.2586C129.711 34.2586 132.301 35.0684 129.161 35.2504C126.005 35.4323 118.675 34.7681 106.803 38.5714C92.5446 43.1298 84.5506 52.0464 84.5506 52.0464C87.9204 50.8636 92.5774 52.3558 89.4208 53.2929C85.8379 54.3666 83.8537 53.8752 83.8537 53.8752C84.5752 55.977 82.091 60.1806 81.64 57.5693C81.1973 54.958 80.0576 52.9654 80.0576 52.9654C80.279 55.6677 78.4752 60.0987 77.5979 59.4163C76.4583 58.5337 76.4747 55.3947 76.4747 55.3947C76.4747 58.2972 73.7854 61.8638 73.9084 60.6992C74.0314 59.5346 73.9084 59.1069 73.9084 59.1069C73.9084 59.1069 71.9406 64.7208 69.071 65.1666C66.2014 65.6124 64.2664 63.7381 64.2664 63.7381C64.8567 64.8937 65.4799 65.5215 65.4799 65.5215C62.0281 65.4305 60.3063 62.0003 60.3063 62.0003C60.3063 62.0003 61.1098 66.5405 59.4618 65.385C57.8138 64.2295 58.5353 59.9531 58.5353 59.9531C58.5353 59.9531 56.7725 63.6926 55.8461 63.1103C54.9196 62.5371 56.2642 59.4436 56.2642 59.4436C53.9521 61.6182 54.0013 68.0509 52.7551 65.1575C51.5088 62.2642 53.3126 59.3708 53.3126 59.3708C53.3126 59.3708 49.1393 62.7555 49.4591 61.1086C49.7788 59.4618 51.6646 57.8604 51.6646 57.8604C37.1524 49.3987 25.5017 51.5824 16.2369 52.2102C6.97203 52.8289 1.06877 56.441 0.626024 56.1681C0.18328 55.9042 1.09337 54.8124 1.09337 54.8124C-0.152878 56.2318 0.10129 57.1962 1.40493 56.7868C7.23439 54.9489 10.9813 54.7669 10.9813 54.7669C10.9813 54.7669 4.07779 56.4319 5.79137 58.5701C7.50496 60.7083 20.7709 58.5701 20.7709 58.5701C20.7709 58.5701 13.3918 60.3535 14.9906 62.2551C16.5894 64.1567 29.224 62.7282 29.224 62.7282C29.224 62.7282 24.9442 64.5115 26.2314 65.6943C27.5186 66.8772 37.7837 64.5115 37.7837 64.5115C37.7837 64.5115 33.0775 65.8126 34.1434 67.5959C35.2093 69.3793 45.2694 66.0492 45.2694 66.0492C42.1702 69.725 49.746 67.2957 49.746 67.2957C49.2705 70.2345 58.109 78.487 71.4815 76.1941C86.4856 73.6192 89.3798 61.509 88.2812 59.5164C88.2812 59.5164 96.7589 58.5701 97.1607 56.4319C97.4066 55.149 95.4471 54.4121 95.4471 54.4121C105.286 54.6486 112.14 51.6825 112.034 50.0174C111.927 48.3524 108.934 47.8792 108.934 47.8792C115.354 48.5889 123.061 46.4508 123.594 44.7948C124.127 43.1298 119.421 42.8932 119.421 42.8932C125.521 43.0115 130.76 41.2282 130.76 39.09C130.76 36.9518 124.012 36.8062 124.012 36.8062C131.523 36.233 133.794 34.8318 129.702 34.2495L129.711 34.2586ZM6.27511 58.5792C5.15185 56.9779 8.52163 56.3864 13.0721 56.3228C17.6225 56.2591 22.919 57.633 21.6892 57.8695C19.2213 58.3427 7.56235 60.408 6.28331 58.5792H6.27511ZM15.5481 62.1823C14.4249 60.5809 17.7947 59.9895 22.3451 59.9258C26.8955 59.8621 32.192 61.236 30.9622 61.4726C28.4943 61.9457 16.8354 64.0111 15.5563 62.1823H15.5481ZM37.669 64.1294C35.9226 64.5479 27.6662 66.4222 26.6823 65.3941C25.8214 64.4933 28.2073 63.9474 31.4541 63.6744C34.7009 63.3924 38.538 63.9292 37.669 64.1385V64.1294ZM45.3022 65.5761C43.605 66.1129 35.5618 68.5331 34.537 67.414C33.6351 66.4313 35.9636 65.7398 39.153 65.294C42.3424 64.8482 46.1467 65.294 45.3022 65.5761ZM111.542 50.1994C110.992 52.1465 99.1284 54.2756 94.8567 53.7206C93.5695 53.5477 99.0382 50.809 103.785 49.8263C108.533 48.8437 111.952 48.7618 111.542 50.1994ZM122.84 44.9131C122.323 46.5508 112.181 48.0248 108.557 47.4334C107.467 47.2514 112.181 45.0769 116.248 44.3763C120.315 43.6757 123.225 43.703 122.84 44.9131ZM124.578 39.0809C127.981 38.3348 130.457 38.3257 130.235 39.5267C129.932 41.1554 120.339 42.6566 118.289 42.2017C117.347 41.9924 121.175 39.827 124.578 39.0809Z" fill="#4F78AA"/>
</g>
<path d="M91.0846 55.4311C89.7974 54.3302 87.8624 54.3484 87.8624 54.3484C88.6495 54.2119 91.8881 53.3293 90.1418 52.1738C88.3954 51.0183 84.7878 51.9736 84.7878 51.9736C81.4345 46.3143 77.6957 45.4044 77.6957 45.4044C62.9294 44.0942 54.0499 51.3458 54.0499 51.3458C54.0499 51.3458 51.5164 53.3657 51.6722 57.8786C51.6722 57.8786 48.8026 60.2534 48.5156 63.1649C48.2368 66.0765 50.5162 62.983 51.6722 61.7092C51.6722 61.7092 50.3194 63.6381 49.7618 67.3139C49.2863 70.2528 58.1248 78.5052 71.4973 76.2123C86.5014 73.6374 89.3957 61.5272 88.297 59.5346C87.7887 58.7066 87.5099 58.3609 87.5099 58.3609C89.2235 57.6967 92.3801 56.532 91.0928 55.4402L91.0846 55.4311Z" fill="#FFEEDE"/>
<g style="mix-blend-mode:multiply">
<path d="M91.0854 55.4315C89.7982 54.3305 87.8632 54.3487 87.8632 54.3487C88.6257 54.2213 91.7167 53.3752 90.2737 52.2651C90.6591 52.5836 90.4951 52.9748 89.4128 53.2933C85.8299 54.3669 83.8457 53.8756 83.8457 53.8756C84.5672 55.9774 82.0829 60.1809 81.632 57.5696C81.1893 54.9583 80.0496 52.9657 80.0496 52.9657C80.271 55.668 78.4672 60.099 77.5899 59.4167C76.4503 58.5341 76.4667 55.3951 76.4667 55.3951C76.4667 58.2975 73.7774 61.8642 73.9004 60.6996C74.0234 59.5349 73.9004 59.1073 73.9004 59.1073C73.9004 59.1073 71.9326 64.7211 69.063 65.167C66.1933 65.6128 64.2584 63.7385 64.2584 63.7385C64.8487 64.894 65.4718 65.5218 65.4718 65.5218C62.0201 65.4308 60.2983 62.0007 60.2983 62.0007C60.2983 62.0007 61.1018 66.5409 59.4538 65.3853C57.8058 64.2298 58.5273 59.9535 58.5273 59.9535C58.5273 59.9535 56.7645 63.693 55.8381 63.1107C54.9116 62.5375 56.2562 59.4439 56.2562 59.4439C53.9441 61.6185 53.9933 68.0512 52.747 65.1579C51.5008 62.2645 53.3046 59.3712 53.3046 59.3712C53.3046 59.3712 49.1313 62.7558 49.4511 61.109C49.7708 59.4621 51.6566 57.8608 51.6566 57.8608C51.6566 57.8608 48.7869 60.2355 48.5 63.1471C48.2212 66.0586 50.5005 62.9651 51.6566 61.6913C51.6566 61.6913 50.3038 63.6202 49.7462 67.2961C49.2707 70.2349 58.1092 78.4874 71.4817 76.1945C86.4858 73.6196 89.38 61.5093 88.2814 59.5167C87.773 58.6888 87.4943 58.343 87.4943 58.343C89.2078 57.6788 92.3645 56.5142 91.0772 55.4224L91.0854 55.4315Z" fill="#F4D9C3"/>
</g>
<path d="M7.42285 55.2665C7.42285 55.2665 8.06237 55.0755 9.21023 54.8298C10.3499 54.5841 11.9897 54.2384 13.9738 53.9654C15.958 53.7289 18.2783 53.4195 20.779 53.3285C22.0334 53.2648 23.3206 53.2285 24.6407 53.2558C25.9525 53.2376 27.2889 53.3558 28.6254 53.4104C29.9618 53.5014 31.29 53.7016 32.6019 53.8381C33.9055 54.0564 35.1846 54.3021 36.4226 54.566C37.6442 54.8935 38.8331 55.1938 39.9318 55.5668C41.0222 55.9853 42.0553 56.3675 43.0064 56.7314C43.9328 57.1773 44.7609 57.614 45.4989 58.0052C46.2532 58.351 46.8189 58.8514 47.3272 59.1608C48.3111 59.8523 48.8768 60.2435 48.8768 60.2435C48.8768 60.2435 48.2701 59.9341 47.2124 59.3973C46.6795 59.1517 46.081 58.724 45.3103 58.4693C44.5478 58.1781 43.6951 57.8506 42.7768 57.4593C41.8257 57.1682 40.7926 56.8588 39.7022 56.5313C38.6035 56.2492 37.4229 56.049 36.2258 55.7488C35.0042 55.5577 33.7497 55.3575 32.4707 55.1574C31.1835 55.0391 29.8716 54.8571 28.5598 54.7843C27.248 54.7115 25.9361 54.5841 24.6325 54.5841C23.337 54.5478 22.058 54.5114 20.82 54.5387C18.3439 54.5387 16.0318 54.6205 14.0476 54.7388C12.0717 54.8935 10.4073 54.9663 9.25942 55.1028C8.10337 55.212 7.43925 55.2847 7.43925 55.2847L7.42285 55.2665Z" fill="#0D1F3A"/>
<path d="M88.9451 51.7187C88.9451 51.7187 89.4125 51.1637 90.3143 50.2902C91.2408 49.444 92.5527 48.2157 94.2744 46.9692C95.1353 46.3414 96.0864 45.6863 97.1031 45.0221C98.1362 44.3852 99.2102 43.6755 100.383 43.0841C101.539 42.4381 102.752 41.8467 104.007 41.2826C105.245 40.673 106.565 40.2362 107.86 39.6994C109.164 39.2263 110.5 38.8442 111.796 38.4256C113.107 38.0708 114.419 37.7887 115.674 37.4794C116.936 37.2155 118.174 37.0517 119.347 36.8698C120.511 36.6605 121.634 36.6332 122.651 36.524C123.676 36.4421 124.611 36.3329 125.447 36.3602C126.283 36.3602 127.005 36.3602 127.603 36.3602C128.8 36.3784 129.481 36.3875 129.481 36.3875C129.481 36.3875 128.8 36.4785 127.611 36.6241C127.021 36.6878 126.3 36.7697 125.472 36.8698C124.643 36.9334 123.725 37.1518 122.717 37.2974C121.716 37.4885 120.61 37.5794 119.47 37.8706C118.33 38.1254 117.125 38.3983 115.887 38.6804C114.657 39.0261 113.386 39.3719 112.091 39.7267C110.82 40.1635 109.516 40.5547 108.229 41.0278C106.958 41.5373 105.655 41.9559 104.433 42.5382C103.195 43.0841 101.973 43.6027 100.825 44.2032C98.5051 45.3315 96.3898 46.5234 94.627 47.6516C93.7497 48.2248 92.938 48.7344 92.2411 49.2257C91.5278 49.6988 90.9375 50.1628 90.4455 50.5268C89.4698 51.282 88.9287 51.746 88.9287 51.746L88.9451 51.7187Z" fill="#0D1F3A"/>
<path d="M51.6727 57.8694C51.066 58.6246 50.5166 59.4071 50.0739 60.2442C49.8279 60.6445 49.6885 61.0995 49.4918 61.5089C49.4016 61.7182 49.3606 61.9547 49.295 62.1731C49.2458 62.4006 49.1474 62.6007 49.1392 62.8282L49.0654 63.4924C49.0654 63.5743 49.0326 63.7744 49.0326 63.7563L49.049 63.9473C49.049 64.0383 49.0654 63.8745 49.0408 63.8654C49.0326 63.8472 48.926 63.6653 48.8277 63.6744C48.7867 63.6198 48.6555 63.6562 48.6801 63.6471C48.6801 63.6471 48.7375 63.6198 48.8031 63.5652C48.9424 63.4651 49.1064 63.3195 49.2622 63.1739C49.9099 62.537 50.5166 61.8364 51.3283 61.1631C51.5907 60.9448 51.9679 61.0085 52.1646 61.2996C52.3204 61.5271 52.3204 61.8273 52.1892 62.0548C51.5661 63.1194 50.9922 64.2658 50.5412 65.4304C50.4347 65.7216 50.3199 66.0218 50.2379 66.3221C50.1887 66.4767 50.1559 66.6223 50.1231 66.777C50.0903 66.9317 50.0411 67.0863 50.0329 67.241C49.9837 67.5504 49.9755 67.8597 49.9919 68.1782L50.0821 68.6422L50.2707 69.088L49.9509 68.715C49.8689 68.5694 49.8033 68.4056 49.7213 68.251C49.6148 67.9143 49.541 67.5686 49.5246 67.2137C49.4836 66.504 49.5902 65.8125 49.7295 65.1301C49.8935 64.4659 50.0903 63.8108 50.3363 63.183C50.5904 62.5552 50.8528 61.9547 51.1808 61.3451L52.0335 62.2459C51.4103 62.7736 50.7872 63.5561 50.0575 64.2112C49.8689 64.3841 49.6804 64.5478 49.4344 64.7116C49.3114 64.7935 49.172 64.8845 48.9424 64.9391C48.8605 64.9755 48.6063 64.9664 48.4587 64.9209C48.2783 64.8481 48.0406 64.6115 48.0078 64.4659C47.9504 64.3295 47.893 64.0656 47.9012 64.0201V63.829C47.9012 63.5652 47.9422 63.5197 47.9586 63.3559L48.1062 62.5461C48.1389 62.2732 48.2783 62.0366 48.3685 61.7819C48.4751 61.5362 48.5571 61.2814 48.6883 61.054C48.9506 60.6081 49.1966 60.1532 49.5328 59.7802C49.8279 59.3707 50.1887 59.0432 50.533 58.7065C50.902 58.3972 51.2792 58.0969 51.6809 57.8604L51.6727 57.8694Z" fill="#0D1F3A"/>
<path d="M85.2148 52.0365C85.5674 51.8637 85.9446 51.7363 86.3299 51.6453C86.7153 51.5543 87.1006 51.4815 87.4942 51.4542C87.8877 51.3905 88.2895 51.436 88.6912 51.4451C89.0766 51.5088 89.5111 51.5361 89.8883 51.6544C90.1014 51.7181 90.2982 51.7818 90.5114 51.9001C90.7164 52.0184 90.9705 52.1457 91.1673 52.5552C91.2657 52.7553 91.2903 53.0738 91.2083 53.2922C91.1345 53.5196 91.0279 53.6652 90.9295 53.7835C90.7246 54.0109 90.5196 54.1383 90.3228 54.2566C89.5275 54.7024 88.7404 54.8753 87.9451 55.0118L87.9205 53.6743C88.7076 53.7653 89.4291 53.9473 90.1588 54.2384C90.5196 54.384 90.8721 54.5569 91.2247 54.757C91.3969 54.8571 91.6674 55.0118 91.8724 55.3939C91.9708 55.5941 92.02 55.858 91.9872 56.0854C91.9544 56.3129 91.8806 56.4858 91.7986 56.6223C91.4625 57.1318 91.1181 57.3319 90.7737 57.5594C90.4294 57.7778 90.085 57.9416 89.7325 58.078C89.0274 58.3692 88.3223 58.5876 87.5925 58.7331L87.7647 58.078C88.1337 58.6058 88.355 59.179 88.4944 59.7886C88.6338 60.3891 88.6338 61.0442 88.4288 61.5992C88.4616 60.9987 88.3468 60.4346 88.1173 59.9342C87.8959 59.4428 87.5679 58.9788 87.24 58.6149C87.1006 58.4602 87.1006 58.2236 87.24 58.0689C87.2728 58.0234 87.322 57.9961 87.363 57.9779L87.4122 57.9597C88.0763 57.6959 88.724 57.4047 89.3471 57.0681C89.6587 56.8952 89.9538 56.7132 90.2244 56.5222C90.4868 56.3311 90.7573 56.0854 90.8311 55.9308C90.8639 55.8307 90.8065 55.9672 90.8475 56.0308C90.8639 56.0672 90.8229 55.9944 90.6754 55.9217C90.3802 55.767 90.0768 55.6214 89.7571 55.5031C89.1258 55.2757 88.4452 55.0937 87.8057 55.0027H87.7811C87.445 54.9481 87.2154 54.6115 87.2646 54.2384C87.3056 53.9291 87.5188 53.7016 87.7811 53.6652C88.4944 53.556 89.2323 53.4104 89.8309 53.1375C89.9702 53.0738 90.1014 52.9828 90.1752 52.9191C90.208 52.8918 90.2162 52.8645 90.2162 52.8918C90.208 52.91 90.2162 53.001 90.2326 53.0101C90.2654 53.0283 90.1752 52.9009 90.0522 52.8281C89.9293 52.7371 89.7735 52.6553 89.6177 52.5916C89.2733 52.4369 88.9372 52.3641 88.5764 52.2367C88.2157 52.1639 87.8549 52.0729 87.486 52.0365C86.7398 51.9274 85.9855 51.9365 85.2148 52.0184V52.0365Z" fill="#0D1F3A"/>
<path d="M56.4772 59.1705C55.9197 59.9802 55.5262 60.8992 55.3376 61.8728C55.1408 62.8281 55.1408 63.8654 55.4114 64.7479C55.4852 64.9572 55.5835 65.1574 55.6819 65.2392C55.8131 65.3302 55.8049 65.312 55.9443 65.2392C56.2067 65.03 56.4444 64.575 56.6494 64.1565C57.0594 63.2921 57.3955 62.3459 57.7563 61.4087L58.5598 61.7454C58.4942 62.0911 58.4778 62.537 58.5024 62.9373C58.5352 63.3467 58.609 63.738 58.7401 64.111C58.9943 64.8662 59.4453 65.5031 60.0274 66.0126C60.175 66.1309 60.3144 66.2765 60.4783 66.3675C60.6341 66.4676 60.8145 66.5949 60.9457 66.6677C61.0687 66.7314 61.0359 66.7041 61.0605 66.7132C61.0687 66.695 60.8965 66.7132 60.8227 66.8315C60.7407 67.0135 60.8227 66.7951 60.7735 66.6404C60.6751 65.9034 60.3717 65.03 60.0766 64.2475L58.1744 59.2069L61.126 63.6015C61.3228 63.9017 61.618 64.2475 61.905 64.5296C62.1919 64.8298 62.5117 65.0937 62.8396 65.3393C63.5037 65.8216 64.2335 66.1764 64.996 66.4039C65.3731 66.5312 65.7667 66.5858 66.1602 66.6495C66.5538 66.6859 66.9555 66.7041 67.3491 66.6768C67.6688 66.6859 68.1854 66.5767 68.5625 66.513C68.9315 66.413 69.3086 66.322 69.6858 66.1582C71.2026 65.585 72.5718 64.5023 73.6951 63.183C74.8183 61.8819 75.7858 60.2896 76.1384 58.5518L76.8435 55.1216L76.9009 58.6155C76.9173 59.407 76.9746 60.3078 77.237 60.9538C77.3026 61.1085 77.3928 61.2177 77.4502 61.245C77.4994 61.2541 77.483 61.2723 77.5896 61.245C77.606 61.245 77.688 61.2086 77.7536 61.1631C78.0241 60.9811 78.2701 60.6626 78.4915 60.3351C78.926 59.6709 79.2786 58.9066 79.5491 58.115C79.8115 57.3234 80.0247 56.4955 80.0575 55.6402C80.1149 56.4955 80.0001 57.3689 79.7869 58.206C79.5737 59.0431 79.2786 59.8529 78.8686 60.6171C78.6554 60.9902 78.4341 61.3723 78.0651 61.6726C77.9667 61.7454 77.8765 61.8182 77.7044 61.8728C77.6224 61.9091 77.4092 61.9273 77.2698 61.8728C76.9583 61.7545 76.7943 61.4997 76.6795 61.2904C76.4581 60.8446 76.3679 60.3988 76.2859 59.962C76.2121 59.5162 76.163 59.0886 76.1384 58.6336L76.9009 58.6973C76.5811 60.7172 75.6218 62.4551 74.474 63.9563C73.2851 65.4303 71.8093 66.6677 70.1039 67.3865C69.6858 67.5776 69.2266 67.705 68.7593 67.8233C68.2919 67.9051 67.964 67.9961 67.4229 68.0143C66.9637 68.0507 66.5046 68.0325 66.0454 67.9961C65.5863 67.9324 65.1271 67.8596 64.6844 67.7232C63.7907 67.4684 62.938 67.0226 62.1755 66.4585C61.7902 66.1764 61.4294 65.8579 61.0933 65.5122C60.7489 65.1574 60.4537 64.8116 60.1422 64.3385L61.1916 63.6925C61.5196 64.5841 61.8148 65.4121 61.9377 66.4858C61.9377 66.7678 62.0443 67.0499 61.7246 67.6049C61.5278 67.9051 61.126 67.9779 60.9375 67.9324C60.7571 67.9142 60.5275 67.796 60.4701 67.7596C60.2406 67.6231 60.0848 67.4957 59.888 67.3592C59.6994 67.2409 59.5273 67.059 59.3551 66.9134C58.6664 66.2765 58.0924 65.4212 57.8219 64.4477C57.6743 63.9654 57.6005 63.465 57.5923 62.9646C57.5923 62.4551 57.6169 61.9819 57.7481 61.4542L58.5516 61.7909C58.1498 62.6916 57.7645 63.6197 57.2807 64.5205C57.0184 64.9663 56.797 65.4303 56.2969 65.8034C56.1657 65.8943 55.9935 65.9671 55.7885 65.958C55.6081 65.958 55.3786 65.8034 55.3048 65.7124C55.0588 65.4485 54.985 65.1665 54.9112 64.8935C54.6817 63.8199 54.7882 62.7462 55.067 61.7545C55.3294 60.7536 55.8541 59.862 56.4854 59.1341L56.4772 59.1705Z" fill="#CC863A"/>
<g style="mix-blend-mode:multiply">
<path d="M80.0495 55.668C80.0986 58.0973 78.4998 61.5457 77.5324 61.6094C76.5731 61.6731 76.5157 58.6432 76.5157 58.6432C75.9828 61.9642 72.3998 66.8957 67.6854 67.3506C62.9792 67.8055 60.6261 63.9841 60.6261 63.9841C60.6261 63.9841 62.2823 68.1968 60.6261 67.1868C57.2235 65.1123 58.15 61.6094 58.15 61.6094C57.3301 63.5656 56.3134 66.3952 55.4526 65.4581C54.8376 64.7939 54.5343 61.6094 56.4692 59.1709C56.4692 59.1709 54.2063 61.8459 54.5261 64.8667C54.8458 67.8874 56.9038 67.3597 57.4695 65.1032C57.4695 65.1032 59.9866 69.0065 62.0117 69.0702C64.0451 69.143 62.5447 66.8229 62.5447 66.8229C62.5447 66.8229 65.3241 68.961 68.3249 68.7245C71.3176 68.4879 75.2285 64.2571 76.2451 60.6995C76.2451 60.6995 76.3517 62.3737 77.5324 62.6102C78.713 62.8468 80.3118 59.6987 80.0495 55.668Z" fill="#F4D9C3"/>
</g>
<g style="mix-blend-mode:multiply">
<path d="M125.619 36.7148C100.088 38.8439 88.9453 51.7185 88.9453 51.7185C88.9453 51.7185 101.752 41.8283 125.619 36.7148Z" fill="#4F78AA"/>
</g>
<g style="mix-blend-mode:multiply">
<path d="M11.0713 54.694C11.0713 54.694 34.9795 49.2622 49.4671 60.5263C49.4671 60.5263 34.5859 53.3292 11.0713 54.694Z" fill="#4F78AA"/>
</g>
<g style="mix-blend-mode:multiply">
<path d="M69.8338 75.0826C53.567 76.693 49.7627 67.3032 49.7627 67.3032L49.9185 68.386C51.1893 71.8616 59.5195 78.258 71.4982 76.2017C86.5023 73.6268 89.3965 61.5165 88.2978 59.5239C88.2978 59.5239 86.6416 73.4175 69.842 75.0735L69.8338 75.0826Z" fill="#EFCEB4"/>
</g>
<g style="mix-blend-mode:screen">
<path d="M1.75684 54.839C1.75684 54.839 7.77488 49.3707 22.697 48.4245C36.0941 47.5783 39.5623 50.0258 39.5623 50.0258C39.5623 50.0258 17.8842 47.2325 1.75684 54.839Z" fill="#0657CC"/>
</g>
<g style="mix-blend-mode:screen">
<path d="M88.5029 42.5476C88.5029 42.5476 101.72 33.2852 127.505 34.5409C127.505 34.5409 107.279 34.8593 88.5029 42.5476Z" fill="#0657CC"/>
</g>
<path d="M39.8743 35.4231C39.8743 35.4231 38.0296 18.1448 51.976 9.21C51.976 9.21 52.4023 4.07838 57.2069 1.75824C59.0517 0.866571 56.4772 5.2612 56.6576 7.79062C56.6576 7.79062 60.4865 -1.26251 70.6942 0.156879C72.621 0.420739 68.3657 1.23052 66.2012 3.63255C66.2012 3.63255 83.5338 1.58536 90.0356 21.6205C90.0356 21.6205 91.7246 20.8198 93.2496 20.9927C94.7746 21.1747 92.7659 22.867 91.0851 24.2864C91.0851 24.2864 96.9063 22.6396 99.8498 26.2335C101.76 28.5628 92.5281 42.1925 78.7292 47.8882C78.7292 47.8882 76.5647 51.8916 68.2182 54.3028C59.8716 56.7048 54.4931 54.3028 54.4931 54.3028C54.4931 54.3028 42.9489 56.0042 34.914 43.6119C33.4709 41.3827 37.3244 38.18 39.8087 38.271C39.8087 38.271 38.7593 37.6068 36.9965 36.7151C35.5945 36.0054 36.4718 34.7134 39.8825 35.4231H39.8743Z" fill="#0657CC"/>
<g style="mix-blend-mode:multiply">
<path d="M99.8423 26.2424C96.8989 22.6484 91.0777 24.2953 91.0777 24.2953C92.7666 22.8668 94.7672 21.1744 93.2422 21.0016C91.7172 20.8196 90.0282 21.6294 90.0282 21.6294C83.5264 1.58512 66.1938 3.63231 66.1938 3.63231C68.3583 1.23028 72.6136 0.420501 70.6868 0.156641C60.4873 -1.25364 56.6502 7.79038 56.6502 7.79038C56.4698 5.26097 59.0443 0.866333 57.1995 1.758C52.3949 4.07815 51.9686 9.20977 51.9686 9.20977C38.0221 18.1446 39.8669 35.4229 39.8669 35.4229C36.4561 34.7132 35.5706 36.0052 36.9809 36.7149C38.7354 37.6066 39.7931 38.2708 39.7931 38.2708C37.3088 38.1798 33.4553 41.3916 34.8983 43.6116C42.9333 55.9949 54.4775 54.3025 54.4775 54.3025C54.4775 54.3025 59.856 56.7046 68.2025 54.3025C76.5491 51.9005 78.7136 47.888 78.7136 47.888C92.5125 42.1923 101.745 28.5625 99.8342 26.2333L99.8423 26.2424ZM74.2206 49.4075C69.8341 52.9741 65.6363 51.0998 66.6201 50.654C67.604 50.2081 70.2113 48.9616 72.3758 46.6506C75.6472 43.1567 72.8923 41.246 72.8923 41.246C73.4417 36.7331 67.8582 32.3112 61.6516 34.5403C53.4116 37.5065 55.5515 45.6406 55.5515 45.6406C56.1419 48.3702 57.0519 50.0353 59.7002 52.7012C61.1842 54.2024 55.6909 52.5192 54.5676 51.1908C54.5676 51.1908 54.0839 52.6193 48.0659 51.7276C39.5799 50.472 34.8491 41.4826 37.0465 39.7629C39.2356 38.0433 42.2692 38.2799 42.2692 38.2799C35.6526 36.0234 37.1612 35.3228 38.801 35.5503C40.8098 35.8323 42.7447 37.4428 43.4089 38.0524C42.6709 37.279 40.5802 34.422 41.4329 27.6982C43.2285 13.5498 52.4687 10.2652 52.4687 10.2652C52.0096 5.33376 57.7734 0.611572 56.478 3.90527C55.1826 7.19897 56.478 9.87397 56.478 9.87397C58.495 0.966418 71.3345 -0.371079 68.6043 0.966418C65.874 2.30392 64.2588 4.96981 64.2588 4.96981C72.6956 2.21293 82.5671 7.72669 85.2154 15.4241C87.2077 21.2108 86.4862 25.6965 86.1009 26.6791C88.4458 20.947 93.9227 21.1654 92.4141 22.3027C90.8891 23.4582 88.3146 26.8793 88.3146 26.8793C90.4545 24.8321 95.0132 23.9586 97.2515 25.0778C98.9323 25.9148 94.7672 33.9944 87.1421 38.8167C79.7139 43.5116 76.8688 43.0293 76.8688 43.0293C76.8688 43.0293 78.771 45.7225 74.2206 49.4075Z" fill="#4F78AA"/>
</g>
<path d="M99.8425 26.242C96.8991 22.6481 91.0779 24.2949 91.0779 24.2949C92.7668 22.8665 94.7674 21.1741 93.2424 21.0012C91.7174 20.8193 90.0284 21.629 90.0284 21.629C84.1497 24.6407 83.174 31.4556 83.174 31.4556C81.0997 15.5694 68.4897 16.9342 66.7023 23.8582C64.9149 30.7732 69.0718 36.0231 69.0718 36.0231C64.0623 32.2198 59.1675 36.387 59.1675 36.387C59.6348 25.5051 52.6821 20.1824 47.8447 25.5051C43.3681 30.4183 44.5405 38.2886 44.5405 38.2886C42.622 35.8229 39.8835 35.4407 39.8835 35.4407C36.4727 34.7311 35.5872 36.0231 36.9975 36.7328C38.752 37.6244 39.8097 38.2886 39.8097 38.2886C37.3254 38.1976 33.4719 41.4094 34.9149 43.6295C42.9499 56.0127 54.4941 54.3204 54.4941 54.3204C54.4941 54.3204 59.8726 56.7224 68.2191 54.3204C76.5657 51.9183 78.7302 47.9059 78.7302 47.9059C92.5291 42.2101 101.761 28.5804 99.8507 26.2511L99.8425 26.242Z" fill="#FFF3E6"/>
<g style="mix-blend-mode:multiply">
<path d="M99.8425 26.2421C96.8991 22.6481 91.0779 24.295 91.0779 24.295C92.7668 22.8665 94.7674 21.1741 93.2424 21.0013C91.7174 20.8193 90.0284 21.6291 90.0284 21.6291C90.012 21.5836 90.0038 21.5472 89.9874 21.5017C89.7496 21.6564 89.5037 21.7746 89.2577 21.902C88.3066 22.639 87.3637 23.376 86.5192 24.2677C86.4372 25.4778 86.2487 26.3239 86.1093 26.6879C88.4542 20.9558 93.9311 21.1741 92.4225 22.3115C90.8975 23.467 88.323 26.8881 88.323 26.8881C90.4629 24.8409 95.0215 23.9674 97.2599 25.0865C98.9407 25.9236 94.7756 34.0032 87.1505 38.8254C79.7223 43.5203 76.8772 43.0381 76.8772 43.0381C76.8772 43.0381 78.7794 45.7313 74.229 49.4162C69.8425 52.9829 65.6447 51.1086 66.6285 50.6627C67.6124 50.2169 70.2197 48.9704 72.3842 46.6594C75.6556 43.1655 72.9007 41.2548 72.9007 41.2548C73.4501 36.7419 67.8666 32.3199 61.66 34.5491C53.42 37.5152 55.5599 45.6494 55.5599 45.6494C56.1503 48.379 57.0603 50.044 59.7086 52.7099C61.1926 54.2112 55.6993 52.528 54.576 51.1996C54.576 51.1996 54.0923 52.628 48.0743 51.7364C39.5883 50.4808 34.8575 41.4913 37.0549 39.7717C39.244 38.0521 42.2776 38.2886 42.2776 38.2886C35.661 36.0322 37.1696 35.3316 38.8094 35.559C40.8182 35.8411 42.7531 37.4516 43.4173 38.0612C43.1467 37.7791 42.7039 37.2241 42.2858 36.3142C41.4905 35.9958 40.728 35.5408 39.8917 35.4772C39.8097 35.4772 39.7195 35.4408 39.6457 35.4044C36.4399 34.8039 35.6282 36.0413 36.9975 36.7419C38.752 37.6335 39.8097 38.2977 39.8097 38.2977C37.3254 38.2067 33.4719 41.4186 34.9149 43.6386C42.9499 56.0218 54.4941 54.3295 54.4941 54.3295C54.4941 54.3295 59.8726 56.7315 68.2191 54.3295C76.5657 51.9275 78.7302 47.915 78.7302 47.915C92.5291 42.2192 101.761 28.5895 99.8507 26.2603L99.8425 26.2421Z" fill="#F4D9C3"/>
</g>
<g style="mix-blend-mode:multiply">
<path d="M49.4269 22.7209C50.8126 20.7101 52.4196 19.1815 54.8628 24.1676C55.1662 24.7772 54.8629 25.4505 54.2889 24.8409C52.6409 23.1121 51.7144 22.0021 49.6975 23.3123C49.1564 23.658 49.0334 23.2941 49.4269 22.7209Z" fill="#4F78AA"/>
</g>
<g style="mix-blend-mode:multiply">
<path d="M66.7999 21.0938C67.71 18.4279 69.8417 14.843 71.6701 16.4808C73.4164 18.0366 73.4492 18.8919 72.4982 18.5826C71.3257 18.2004 70.7518 18.1367 69.4399 19.3104C67.9559 20.6297 66.2751 22.6314 66.7917 21.1029L66.7999 21.0938Z" fill="#4F78AA"/>
</g>
<path d="M49.3449 22.0754C50.7305 20.0646 52.3375 18.536 54.7808 23.522C55.0842 24.1317 54.7808 24.7959 54.2069 24.1953C52.5671 22.4666 51.6324 21.3566 49.6155 22.6668C49.0743 23.0125 48.9514 22.6577 49.3449 22.0845V22.0754Z" fill="#022A5B"/>
<g style="mix-blend-mode:multiply" opacity="0.5">
<path d="M54.2885 23.3043C52.6405 21.5755 51.714 20.4655 49.6971 21.7757C49.6151 21.8303 49.5495 21.8576 49.4921 21.8849C49.4429 21.9486 49.4019 22.0123 49.3527 22.085C48.9592 22.6583 49.0821 23.0222 49.6233 22.6674C51.6402 21.3572 52.5667 22.4672 54.2147 24.1959C54.7886 24.8055 55.092 24.1413 54.7886 23.5317C54.6656 23.5772 54.5017 23.5317 54.2885 23.3134V23.3043Z" fill="#022A5B"/>
</g>
<path d="M66.7178 20.4566C67.6279 17.7907 69.7597 14.2058 71.588 15.8436C73.3344 17.3994 73.3672 18.2547 72.4161 17.9454C71.2437 17.5632 70.6697 17.4995 69.3579 18.6732C67.8739 19.9925 66.1931 21.9942 66.7096 20.4657L66.7178 20.4566Z" fill="#022A5B"/>
<g style="mix-blend-mode:multiply" opacity="0.5">
<path d="M72.7031 17.0167C72.6457 17.1805 72.4326 17.2169 72.0964 17.1077C70.924 16.7255 70.35 16.6618 69.0382 17.8356C68.2921 18.4998 67.4968 19.3368 66.9557 19.81C66.8737 20.0283 66.7917 20.2467 66.7179 20.456C66.1931 21.9845 67.8821 19.9828 69.3661 18.6635C70.678 17.4989 71.2519 17.5535 72.4244 17.9357C73.0967 18.154 73.2689 17.7992 72.7113 17.0167H72.7031Z" fill="#022A5B"/>
</g>
<path d="M86.6338 25.078C86.6338 25.078 86.6338 24.5957 86.8962 23.9952C87.1339 23.3856 87.6095 22.6668 88.249 22.1209L88.7409 21.757C88.8967 21.6205 89.0853 21.5659 89.2575 21.4749C89.61 21.3293 89.9298 21.1746 90.2413 21.1746C90.8481 21.111 91.2498 21.1928 91.2498 21.1928C91.2498 21.1928 90.9546 21.5568 90.5119 21.9025C90.2823 22.0572 90.0692 22.3302 89.7986 22.5303C89.528 22.7305 89.2739 22.9853 89.0033 23.2127C88.7081 23.4129 88.4704 23.695 88.1916 23.886C87.9456 24.1226 87.6751 24.3046 87.4537 24.4865C87.0027 24.8323 86.6338 25.078 86.642 25.078H86.6338Z" fill="#BCA084"/>
<path d="M38.7924 35.2588C38.7924 35.2588 39.1121 35.0768 39.5795 35.0586C40.055 35.0222 40.6699 35.1405 41.2193 35.4499C41.4816 35.6227 41.7604 35.7683 41.9654 36.014C42.1786 36.2414 42.3753 36.4416 42.4901 36.6873C42.7443 37.1422 42.8099 37.5152 42.8099 37.5152C42.8099 37.5152 42.4409 37.4697 42.0474 37.306C41.8506 37.215 41.6046 37.1604 41.3751 37.0421C41.1455 36.9329 40.9077 36.8055 40.6617 36.6873C40.4404 36.5326 40.1862 36.4325 39.9812 36.2596C39.7599 36.1322 39.5549 35.9594 39.3827 35.8229C39.0301 35.5408 38.7842 35.2588 38.7842 35.2588H38.7924Z" fill="#BCA084"/>
<g style="mix-blend-mode:multiply">
<path d="M69.0634 53.384C61.4957 55.8407 54.502 53.8845 54.502 53.8845C45.7947 53.8845 40.7605 50.1085 39.5635 49.0986C46.7704 55.4494 54.4774 54.3121 54.4774 54.3121C54.4774 54.3121 59.8559 56.7141 68.2025 54.3121C76.549 51.9101 78.7135 47.8976 78.7135 47.8976C83.5591 45.8959 87.8308 42.9206 91.2662 39.7998C85.3301 44.9132 78.361 47.0969 78.361 47.0969C78.361 47.0969 76.6228 50.9274 69.0634 53.384Z" fill="#EFCEB4"/>
</g>
<g style="mix-blend-mode:multiply">
<path d="M45.0898 37.9071C45.0898 37.9071 49.7879 36.7243 53.0346 42.5565C53.0346 42.5565 52.9035 41.956 52.7149 41.2463C52.7149 41.2463 56.7816 40.118 57.3719 34.859C57.9622 29.6091 56.1257 25.8969 52.2393 25.5148C47.8283 25.078 45.5818 32.4024 47.5823 37.1519C47.5823 37.1519 45.9261 37.0609 45.098 37.9071H45.0898Z" fill="#F4D9C3"/>
</g>
<g style="mix-blend-mode:multiply">
<path d="M74.5815 38.5713C74.5815 38.5713 74.4913 32.6299 81.9769 31.4471C81.9769 31.4471 80.6405 31.0286 79.4106 31.4471C79.4106 31.4471 80.042 28.1989 78.2792 25.069C76.5246 21.9482 72.9335 19.2732 69.3505 22.7761C65.7676 26.2791 68.3338 35.4323 74.3273 36.3786C74.3273 36.3786 74.1387 37.2066 74.5815 38.5713Z" fill="#F4D9C3"/>
</g>
<mask id="mask0_92_24381" style="mask-type:luminance" maskUnits="userSpaceOnUse" x="66" y="20" width="17" height="18">
<path d="M74.6791 37.9058C74.6791 37.9058 75.1054 32.7378 81.4514 31.555C81.4514 31.555 82.5583 30.8362 82.0746 28.2249C81.5908 25.6227 76.1057 17.5431 70.2926 21.0461C64.4796 24.5491 66.5375 36.6047 74.6791 37.9058Z" fill="white"/>
</mask>
<g mask="url(#mask0_92_24381)">
<path d="M76.532 35.4053C78.8195 34.1042 79.3443 30.2009 77.7045 26.6797C76.0647 23.1586 72.8835 21.3662 70.596 22.6673C68.3085 23.9684 67.7837 27.8717 69.4235 31.3928C71.0633 34.914 74.2445 36.7064 76.532 35.4053Z" fill="white"/>
<path d="M76.7291 35.0408C78.3607 34.1127 78.6558 31.1466 77.385 28.417C76.1141 25.6874 73.7528 24.2316 72.1212 25.1597C70.4897 26.0877 70.1945 29.0539 71.4653 31.7835C72.7362 34.513 75.0975 35.9688 76.7291 35.0408Z" fill="#546B8E"/>
<path d="M76.8106 34.4686C78.1716 33.6952 78.393 31.1749 77.3025 28.8457C76.2203 26.5164 74.2361 25.2517 72.8751 26.0251C71.5141 26.7985 71.2927 29.3097 72.3832 31.648C73.4654 33.9773 75.4496 35.242 76.8106 34.4686Z" fill="#061326"/>
<g style="mix-blend-mode:screen" opacity="0.7">
<path d="M75.0319 31.1934C76.0076 30.6384 76.2946 29.1099 75.6714 27.7815C75.0483 26.4531 73.7611 25.8253 72.7854 26.3803C71.8097 26.9353 71.5228 28.4639 72.1459 29.7922C72.769 31.1206 74.0562 31.7485 75.0319 31.1934Z" fill="#0A1D33"/>
</g>
<path d="M72.7031 29.0274C73.2115 29.0911 73.6706 28.5907 73.728 27.8901C73.7854 27.1986 73.4164 26.5799 72.8999 26.5162C72.3916 26.4525 71.9324 26.9529 71.875 27.6444C71.8176 28.3359 72.1866 28.9546 72.7031 29.0183V29.0274Z" fill="white"/>
<path d="M72.8427 31.3016C73.1215 31.2288 73.2691 30.8648 73.1789 30.4918C73.0887 30.1188 72.8017 29.8731 72.523 29.9459C72.2524 30.0187 72.0966 30.3826 72.1868 30.7557C72.277 31.1287 72.564 31.3744 72.8427 31.3016Z" fill="white"/>
<path d="M70.596 22.6673C68.3085 23.9684 67.7837 27.8717 69.4235 31.3928C71.0633 34.914 74.2445 36.7064 76.532 35.4053C74.3839 36.6245 71.3913 34.9413 69.8499 31.6294C68.3085 28.3266 68.8004 24.6508 70.9485 23.4315C73.0967 22.2123 76.0893 23.8956 77.6307 27.2075C79.1721 30.5103 78.6802 34.1861 76.532 35.4053C78.8195 34.1042 79.3443 30.2009 77.7045 26.6797C76.0647 23.1586 72.8835 21.3662 70.596 22.6673Z" fill="#3A4860"/>
</g>
<path d="M74.5814 37.7973C74.5814 37.7973 74.4256 37.0967 74.6798 36.0686C74.8028 35.5591 75.0078 34.9677 75.3521 34.4218C75.6719 33.8485 76.1392 33.339 76.623 32.875C77.1477 32.4565 77.697 32.1016 78.2546 31.865C78.8121 31.6285 79.345 31.492 79.8124 31.4465C80.2633 31.3464 80.6651 31.4101 80.9356 31.4101C81.2062 31.4283 81.362 31.4465 81.362 31.4465C81.362 31.4465 81.2226 31.5375 80.9848 31.674C80.747 31.8195 80.4027 31.9651 80.0173 32.2017C79.8206 32.32 79.6156 32.4383 79.3942 32.5474C79.181 32.6839 78.9597 32.8386 78.7301 32.966C78.4923 33.0934 78.2874 33.2935 78.0496 33.4391C77.82 33.5938 77.615 33.7939 77.3855 33.9668C77.1723 34.1579 76.9591 34.3399 76.7705 34.54C76.5902 34.7584 76.377 34.9313 76.213 35.1587C75.8605 35.5682 75.5735 36.0049 75.3275 36.3871C74.852 37.1695 74.5814 37.7973 74.5814 37.7973Z" fill="#BCA084"/>
<mask id="mask1_92_24381" style="mask-type:luminance" maskUnits="userSpaceOnUse" x="44" y="24" width="15" height="18">
<path d="M45.9178 37.7995C45.9178 37.7995 49.8205 36.7895 52.4606 41.2479C52.4606 41.2479 57.5849 40.1833 58.1179 32.6406C58.6508 25.0978 52.8377 22.4865 49.1154 25.9349C45.3931 29.3833 42.8186 37.0352 45.926 37.8086L45.9178 37.7995Z" fill="white"/>
</mask>
<g mask="url(#mask1_92_24381)">
<path d="M51.7879 40.5813C54.3542 40.7542 56.5925 37.6788 56.7893 33.73C56.986 29.7812 55.0675 26.4329 52.5094 26.2692C49.9431 26.0963 47.7048 29.1716 47.508 33.1204C47.3112 37.0783 49.2298 40.4175 51.7879 40.5813Z" fill="white"/>
<path d="M52.8948 39.9899C54.7314 40.1082 56.3383 37.7152 56.4941 34.649C56.6499 31.5828 55.2889 28.9988 53.4523 28.8714C51.6157 28.7531 50.0087 31.146 49.853 34.2123C49.6972 37.2785 51.0582 39.8625 52.8948 39.9899Z" fill="#546B8E"/>
<path d="M53.2231 39.5351C54.7481 39.6352 56.0928 37.5971 56.224 34.9767C56.3551 32.3563 55.2237 30.1544 53.6987 30.0543C52.1737 29.9542 50.829 31.9923 50.6978 34.6127C50.5667 37.2331 51.6981 39.435 53.2231 39.5351Z" fill="#061326"/>
<g style="mix-blend-mode:screen" opacity="0.7">
<path d="M53.1902 35.7138C54.2806 35.7866 55.2317 34.6311 55.3055 33.1389C55.3793 31.6467 54.5512 30.3729 53.4607 30.3001C52.3621 30.2273 51.4192 31.3829 51.3454 32.875C51.2716 34.3672 52.0997 35.641 53.1902 35.7138Z" fill="#0A1D33"/>
</g>
<path d="M52.0748 32.6022C52.4847 32.9479 53.1078 32.7659 53.4768 32.2109C53.8376 31.6468 53.8048 30.9098 53.3948 30.5641C52.9849 30.2183 52.3535 30.4003 51.9928 30.9644C51.632 31.5285 51.6648 32.2655 52.0748 32.6113V32.6022Z" fill="white"/>
<path d="M51.1566 34.6406C51.4272 34.7315 51.7223 34.5041 51.8207 34.131C51.9191 33.758 51.7797 33.3849 51.5091 33.294C51.2386 33.203 50.9434 33.4304 50.845 33.8035C50.7466 34.1765 50.886 34.5496 51.1566 34.6406Z" fill="white"/>
<path d="M52.5016 26.2604C49.9353 26.0875 47.697 29.1628 47.5002 33.1116C47.3034 37.0695 49.222 40.4087 51.7801 40.5725C49.3696 40.4178 47.5658 37.2697 47.7544 33.5575C47.943 29.8361 50.0419 26.9519 52.4606 27.1156C54.8711 27.2703 56.6749 30.4184 56.4863 34.1307C56.2977 37.8429 54.1906 40.7363 51.7801 40.5725C54.3463 40.7454 56.5847 37.67 56.7814 33.7212C56.9782 29.7724 55.0597 26.4241 52.5016 26.2604Z" fill="#3A4860"/>
</g>
<path d="M45.9178 37.798C45.9178 37.798 46.0162 37.707 46.2293 37.6069C46.4343 37.4978 46.7459 37.3886 47.123 37.3158C47.3116 37.2612 47.5248 37.2612 47.7461 37.2612C47.9675 37.2612 48.2135 37.2339 48.4512 37.2976C48.689 37.3522 48.9432 37.3977 49.1892 37.4796C49.4433 37.5341 49.6729 37.6797 49.9107 37.8071C50.1402 37.9527 50.3698 38.0892 50.5994 38.2256C50.8125 38.3803 50.9765 38.6078 51.1569 38.7898C51.3373 38.9717 51.4931 39.1719 51.6406 39.3539C51.7964 39.5176 51.8702 39.7542 51.9686 39.9362C52.3294 40.7005 52.4523 41.2373 52.4523 41.2373C52.4523 41.2373 51.9686 40.9461 51.4357 40.4639C51.2881 40.3547 51.1733 40.1909 50.9929 40.0909C50.8207 39.9817 50.6404 39.8725 50.4682 39.7451C50.296 39.6177 50.1238 39.4903 49.9435 39.3539L49.3613 39.0445C49.1728 38.9262 48.9924 38.7898 48.7792 38.7352C48.5742 38.6624 48.3857 38.5623 48.1889 38.4713C48.0003 38.3803 47.8035 38.3439 47.615 38.2711C47.4264 38.2165 47.2542 38.1256 47.082 38.0983C46.7459 38.0073 46.4507 37.9163 46.2457 37.8708C46.0325 37.8071 45.9014 37.7889 45.9014 37.7889L45.9178 37.798Z" fill="#BCA084"/>
<g style="mix-blend-mode:screen">
<path d="M56.6748 10.4299C56.6748 10.4299 57.7981 2.76884 66.9727 1.16748C66.9727 1.16748 59.7822 4.07904 56.6748 10.4299Z" fill="#0657CC"/>
</g>
<g style="mix-blend-mode:screen">
<path d="M63.8975 5.3886C63.8975 5.3886 70.3172 2.42245 78.2375 7.58136C85.5427 12.349 85.6165 19.8099 85.6165 19.8099C85.6165 19.8099 81.8204 3.48698 63.8975 5.3886Z" fill="#0657CC"/>
</g>
<g style="mix-blend-mode:screen">
<path d="M41.8014 32.4021C41.8014 32.4021 40.6617 16.9072 52.46 10.9385C52.46 10.9385 43.1624 17.353 41.8014 32.4021Z" fill="#0657CC"/>
</g>
<g style="mix-blend-mode:screen">
<path d="M44.5322 38.2802C44.5322 38.2802 50.0911 36.4423 52.9772 43.0297C52.9772 43.0297 49.7632 38.4713 44.5322 38.2802Z" fill="#FFF3E6"/>
</g>
<g style="mix-blend-mode:screen">
<path d="M74.5898 38.8443C74.5898 38.8443 75.2212 32.1205 82.1493 31.6655C82.1493 31.6655 76.8692 33.2942 74.5898 38.8443Z" fill="#FFF3E6"/>
</g>
<path d="M69.9409 43.6741C71.5233 42.3366 71.9579 41.2447 71.9579 41.2447C71.9579 41.2447 72.4662 39.6525 70.9658 37.7873C66.153 31.8186 56.6422 34.5482 56.4782 42.1455C56.3061 49.9339 64.5542 56.2666 64.5132 55.3021C64.3984 52.5179 65.2347 50.0249 65.2347 50.0249C65.7513 47.8412 68.3667 45.0116 69.9409 43.6741Z" fill="#FFE100"/>
<path d="M71.9663 41.2451C71.9663 41.2451 71.5236 42.3461 69.9494 43.6744C68.3752 45.0119 65.7515 47.8416 65.2432 50.0253C69.359 48.4239 72.614 44.921 72.8682 43.3196C73.1224 41.7182 71.9745 41.2451 71.9745 41.2451H71.9663Z" fill="#FFBC00"/>
<g style="mix-blend-mode:multiply" opacity="0.7">
<path d="M70.9658 37.7873C66.153 31.8186 56.6422 34.5482 56.4782 42.1455C56.3061 49.9339 64.5542 56.2666 64.5132 55.3021C64.3984 52.5179 65.2347 50.0249 65.2347 50.0249C65.7513 47.8412 68.3667 45.0116 69.9409 43.6741C71.5233 42.3366 71.9579 41.2447 71.9579 41.2447C71.9579 41.2447 72.4662 39.6525 70.9658 37.7873ZM65.2347 43.0281C62.7505 45.9396 62.7259 51.4716 63.308 53.3277C63.8983 55.1929 58.2492 50.3706 57.126 44.9752C55.8551 38.8427 60.1104 34.5209 64.2591 35.2578C68.4077 36.0039 67.719 40.1165 65.2347 43.0281Z" fill="#FFBC07"/>
</g>
<g style="mix-blend-mode:multiply" opacity="0.7">
<path d="M71.9663 41.2451C71.9663 41.2451 71.5236 42.3461 69.9494 43.6744C68.3752 45.0119 65.7515 47.8416 65.2432 50.0253C69.359 48.4239 72.614 44.921 72.8682 43.3196C73.1224 41.7182 71.9745 41.2451 71.9745 41.2451H71.9663ZM66.0057 49.0244C66.0057 49.0244 67.4241 47.7961 69.605 45.3122C71.3104 43.3742 72.1139 41.7819 72.573 42.5553C73.0732 43.3833 70.7447 47.1228 66.0057 49.0244Z" fill="#FFBC07"/>
</g>
<path d="M71.9663 41.2459C71.9663 41.2459 71.5236 42.3468 69.9494 43.6752C68.3752 45.0127 65.7515 47.8424 65.2432 50.0261C65.2432 50.0261 66.637 47.2146 68.7359 45.3949C71.0234 43.4114 71.7203 42.4924 71.9745 41.9465C72.2287 41.3915 72.901 42.1649 72.9092 42.9019C72.9092 42.9019 73.0486 41.8282 71.9745 41.2368L71.9663 41.2459Z" fill="#DB6800"/>
<g style="mix-blend-mode:screen">
<path d="M59.7419 37.1509C59.7419 37.1509 57.0116 39.4437 57.5446 44.0567C58.0775 48.6697 61.767 52.0544 61.767 52.0544C61.767 52.0544 56.1507 44.5117 59.7337 37.1509H59.7419Z" fill="#FFE100"/>
</g>
<g style="mix-blend-mode:screen">
<path d="M86.0596 27.4164C86.0596 27.4164 87.2238 22.7397 91.9956 21.8936C91.9956 21.8936 88.2241 23.7588 86.0596 27.4164Z" fill="#FFF3E6"/>
</g>
<g style="mix-blend-mode:screen">
<path d="M43.0475 38.3252C43.0475 38.3252 40.6452 35.35 37.751 35.8777C37.751 35.8777 39.9975 36.1051 43.0475 38.3252Z" fill="#FFF3E6"/>
</g>
<g style="mix-blend-mode:screen">
<path d="M52.9847 10.4286C52.9847 10.4286 52.009 6.33417 55.6575 3.65918C55.6575 3.65918 53.6816 5.67907 52.9847 10.4286Z" fill="#0657CC"/>
</g>
<path d="M100.121 61.2629C97.2759 60.353 91.9302 60.7534 88.4784 61.1628C88.2734 63.8287 86.3713 68.7237 81.3125 72.3177C84.7725 76.5759 89.5361 78.8596 90.0116 77.5858C90.5445 76.1482 87.5437 72.6089 87.5437 72.6089C89.6344 74.4559 96.743 77.5949 96.5298 75.0837C96.3166 72.5725 90.2166 69.0968 90.2166 69.0968C93.1026 69.4971 100.695 70.3979 100.432 68.0413C100.17 65.6848 91.922 65.0115 91.922 65.0115C95.2835 64.6567 104.548 62.7005 100.113 61.2811L100.121 61.2629Z" fill="#0049B2"/>
<g style="mix-blend-mode:multiply">
<path d="M100.121 61.2629C97.2759 60.353 91.9302 60.7534 88.4784 61.1628C88.2734 63.8287 86.3713 68.7237 81.3125 72.3177C84.7725 76.5759 89.5361 78.8596 90.0116 77.5858C90.5445 76.1482 87.5437 72.6089 87.5437 72.6089C89.6344 74.4559 96.743 77.5949 96.5298 75.0837C96.3166 72.5725 90.2166 69.0968 90.2166 69.0968C93.1026 69.4971 100.695 70.3979 100.432 68.0413C100.17 65.6848 91.922 65.0115 91.922 65.0115C95.2835 64.6567 104.548 62.7005 100.113 61.2811L100.121 61.2629ZM89.3393 76.4212C89.7 78.3956 86.2237 76.4667 84.2641 72.4087C82.9031 69.5881 88.8883 73.9373 89.3393 76.4212ZM95.0048 73.8099C96.333 76.1664 91.6596 74.2102 87.3469 69.3879C84.3461 66.0397 93.3322 70.8255 95.0048 73.8099ZM98.7435 67.0405C100.908 68.7237 95.0622 69.0604 89.1507 66.3763C85.043 64.502 96.0214 64.9205 98.7435 67.0405ZM89.8968 62.6823C85.617 61.7815 96.4478 60.1892 99.3994 61.554C101.744 62.6368 96.046 63.9743 89.8968 62.6823Z" fill="#4F78AA"/>
</g>
<g style="mix-blend-mode:multiply">
<path d="M98.8087 66.4668C99.2104 66.7671 99.4728 67.1037 99.5138 67.4949C99.768 69.8515 92.1839 68.9598 89.2979 68.5504C89.2979 68.5504 95.3979 72.0352 95.6111 74.5373C95.7669 76.4116 91.856 75.1378 88.9863 73.6092C91.8396 75.347 96.7098 77.1486 96.5294 75.065C96.3162 72.5538 90.2162 69.0781 90.2162 69.0781C93.1022 69.4784 100.694 70.3792 100.432 68.0227C100.358 67.3858 99.7106 66.8762 98.8005 66.4668H98.8087Z" fill="#4F78AA"/>
</g>
<g style="mix-blend-mode:multiply">
<path d="M86.617 72.0623C86.617 72.0623 90.2164 75.7655 89.6014 77.3941C89.3801 77.9855 87.7403 77.4578 86.248 76.6844C88.183 77.8854 89.749 78.2676 90.0114 77.5579C90.4459 76.3933 88.5684 73.8547 87.8304 72.9267C87.3467 72.6173 86.9286 72.3171 86.6252 72.0532L86.617 72.0623Z" fill="#4F78AA"/>
</g>
<g style="mix-blend-mode:multiply">
<path d="M100.276 61.3081C102.547 63.146 92.2571 64.1742 89.3301 64.4835C89.3301 64.4835 90.5353 64.7656 91.921 64.993C96.0122 64.4289 104.195 62.7366 100.268 61.3081H100.276Z" fill="#4F78AA"/>
</g>
</svg>
