<svg width="120" height="115" viewBox="0 0 120 115" fill="none" xmlns="http://www.w3.org/2000/svg">
<path d="M5.02533 78.3066C5.02533 78.3066 6.24269 82.7551 7.73309 86.7257C9.23487 90.7077 9.31451 91.8112 8.40434 91.9933C7.50555 92.1981 6.19718 92.6304 5.33252 93.1424C4.46786 93.6543 5.17324 89.3993 3.20499 81.6401C2.4541 78.5796 2.61338 77.0779 3.55769 76.7707C4.50199 76.4521 5.01396 78.3066 5.01396 78.3066H5.02533Z" fill="#353434"/>
<path d="M14.9125 84.0635C14.9125 84.0635 11.2832 84.1317 7.33536 80.7641C4.70725 78.7049 3.74019 78.6366 3.88809 77.5444C4.036 76.4522 5.62879 76.839 7.415 77.6126C9.20121 78.3977 11.0557 78.739 11.0557 78.739C11.0557 78.739 11.9545 81.788 14.9125 84.0635Z" fill="#353434"/>
<path d="M1.14614 97.1123C1.14614 97.1123 3.83114 93.153 7.19877 92.1632C8.47301 91.7423 9.01911 92.6524 9.01911 93.3351C9.01911 94.0177 6.23171 95.0758 3.54671 98.159C2.39762 99.6152 2.04493 99.638 1.18027 98.8871C0.577284 98.3637 0.691055 97.8518 1.14614 97.1123Z" fill="#353434"/>
<path d="M0.952758 98.6488C0.952758 98.6488 1.51024 99.1949 2.21562 99.65C2.93238 100.105 2.60244 100.424 2.36352 101.14C2.1246 101.857 1.80604 104.189 2.26113 105.168C0.793478 104.485 -0.253217 102.631 0.0539656 99.6955C0.190491 98.4895 0.622822 98.3075 0.952758 98.6488Z" fill="#353434"/>
<g style="mix-blend-mode:screen">
<path d="M4.51412 77.2824C4.51412 77.2824 6.00452 77.2027 10.4871 79.0458C10.1344 79.6716 11.0105 81.071 11.6476 81.856C9.08772 80.832 3.41054 77.7943 4.51412 77.271V77.2824Z" fill="#353434"/>
</g>
<path d="M5.25317 77.7491C5.25317 77.7491 7.85853 78.318 9.9633 79.2623C9.05313 78.3521 6.19747 77.5102 5.25317 77.7491Z" fill="#DEDEDE"/>
<g style="mix-blend-mode:screen">
<path d="M6.68749 87.5216C5.86833 83.9492 5.16295 79.8193 4.2414 79.205C3.31986 78.5906 4.03662 77.6235 3.17196 77.6235C3.0013 77.6235 2.87615 77.7601 2.78513 77.9876C2.68274 78.7954 2.81926 79.99 3.21746 81.6397C3.67255 83.4372 3.97973 85.03 4.1959 86.4294C5.08331 88.5456 4.98092 90.7755 5.41325 91.5378C5.91384 92.4593 7.50664 91.0827 6.68749 87.5103V87.5216Z" fill="#353434"/>
</g>
<path d="M3.32993 79.1602C3.32993 79.1602 3.95567 83.2445 5.44607 89.4906C4.34249 86.8511 3.1934 81.2763 3.32993 79.1602Z" fill="#DEDEDE"/>
<g style="mix-blend-mode:screen">
<path d="M3.53536 96.4766C5.46947 94.4742 8.67781 92.9496 7.05089 92.8473C5.53773 92.7449 3.30781 94.6448 3.00063 94.9179C2.29525 95.6233 1.76053 96.2945 1.45334 96.6927C0.656945 98.1262 1.73777 98.3196 3.54673 96.4766H3.53536Z" fill="#353434"/>
</g>
<path d="M1.29443 97.4199C1.29443 97.4199 3.31956 94.7235 5.70876 93.3696C4.50278 93.4379 2.03395 95.8385 1.29443 97.4199Z" fill="#DEDEDE"/>
<g style="mix-blend-mode:screen">
<path d="M0.690585 99.4455C-0.0830587 99.4 0.076221 101.71 0.076221 101.71H0.0534668C0.235501 103.041 0.758848 104.03 1.47561 104.656C1.58938 104.702 1.70315 104.747 1.8283 104.804C0.281009 102.051 1.46423 99.491 0.690585 99.4455Z" fill="#353434"/>
</g>
<path d="M0.3728 100.104C0.3728 100.104 0.327292 102.892 1.49914 104.473C-0.0481533 102.972 0.156635 100.673 0.3728 100.104Z" fill="#DEDEDE"/>
<path d="M88.6127 76.5659C73.4811 78.6365 61.0573 77.8401 56.1196 77.3623C56.4041 80.2179 56.4496 82.0042 56.4496 82.0042C65.4716 82.2431 80.8762 82.2431 91.0246 79.7401C108.523 74.0971 116.111 68.3175 118.728 61.605C115.349 66.9408 105.337 74.2677 88.6127 76.5545V76.5659Z" stroke="#53575E" stroke-width="0.13" stroke-miterlimit="10"/>
<path d="M107.692 14.9817C104.006 10.6698 99.9329 7.42733 95.5072 5.11778C62.9573 -2.06118 44.9018 20.0446 41.0677 25.3918C41.0905 25.3918 41.1019 25.3918 41.1246 25.3918C42.5695 25.2894 42.8312 32.9121 40.624 40.3982C52.0011 49.079 55.2209 68.4656 56.1197 77.3739C61.0573 77.8517 73.4811 78.6481 88.6127 76.5775C105.337 74.2907 115.349 66.9524 118.728 61.6279C119.536 59.5459 119.877 57.3729 119.877 55.0861C120.503 36.8258 113.995 22.3427 107.704 14.9931L107.692 14.9817Z" fill="#F92905"/>
<path d="M95.5081 5.11736C83.1867 -1.29933 67.9755 -0.446047 49.7607 5.11736C20.1575 16.2442 17.2222 37.8607 17.2222 37.8607C21.9209 36.2907 26.0508 35.8015 29.6915 36.1314C31.819 33.2075 37.5872 25.7555 41.0572 25.3914C44.8913 20.0328 62.9468 -2.0616 95.4968 5.11736H95.5081Z" fill="#B21A02"/>
<path d="M30.3054 28.543C27.9163 29.7604 25.3564 29.5442 24.6055 28.0538C23.8432 26.5634 25.1744 24.3676 27.5636 23.1503C29.9641 21.9329 32.5126 22.1491 33.2749 23.6395C34.0258 25.1299 32.706 27.3143 30.3054 28.5317V28.543Z" fill="#353434"/>
<path d="M42.4109 19.4297C42.4109 19.4297 44.8911 20.8405 48.5432 22.3309C52.1839 23.8213 57.1557 24.9818 62.4574 17.0292C67.7478 9.07655 65.2676 6.42568 58.976 6.92628C52.6731 7.42687 44.2313 10.7376 41.1708 16.0394C40.1696 18.5992 42.4109 19.4411 42.4109 19.4411V19.4297Z" fill="#353434"/>
<g style="mix-blend-mode:multiply">
<path d="M72.9814 0.680322C80.3083 0.839601 82.3107 2.17072 75.4844 2.47791C63.3678 3.03539 49.8631 10.8401 44.2883 17.2454C38.7135 23.6507 32.1603 30.75 25.3454 29.783C18.5305 28.8046 29.3843 17.5298 29.3843 17.5298H29.2137C18.6216 27.5758 17.2222 37.8607 17.2222 37.8607C21.9209 36.2907 26.0508 35.8015 29.6915 36.1314C31.819 33.2075 37.5872 25.7555 41.0572 25.3914C44.8913 20.0328 62.9468 -2.06156 95.4968 5.1174C88.8525 1.65875 81.3436 0.316254 72.9814 0.680322Z" fill="#B01A02"/>
</g>
<path d="M41.1255 25.3912C37.6555 25.6756 31.8418 33.1959 29.7029 36.1425C33.9921 36.5407 37.5986 38.088 40.6363 40.3976C42.8435 32.9114 42.5818 25.2888 41.1369 25.3912H41.1255Z" fill="#353434"/>
<g style="mix-blend-mode:multiply">
<path d="M113.438 23.8781C118.501 37.2918 115.725 50.5233 103.961 56.2347C87.1113 64.4262 76.1893 56.94 66.3481 43.7312C58.8619 33.6738 51.6261 29.4415 54.7889 21.4548C60.0907 8.0298 70.5917 5.69749 78.4533 3.8999C56.5751 5.77713 44.1627 21.068 41.0567 25.4027C41.0795 25.4027 41.0909 25.4027 41.1136 25.4027C42.5585 25.3003 42.8202 32.9229 40.613 40.4091C51.9902 49.0898 55.2099 68.4764 56.1087 77.3847C61.0463 77.8626 73.4702 78.659 88.6017 76.5883C105.326 74.3015 115.338 66.9633 118.717 61.6388C119.525 59.5568 119.866 57.3837 119.866 55.0969C120.298 42.548 117.363 31.7852 113.438 23.9009V23.8781Z" fill="#E12404"/>
</g>
<g style="mix-blend-mode:multiply">
<path d="M101.776 69.8418C83.7093 74.6202 66.382 75.0639 65.1874 61.0359C62.6503 44.0157 53.5372 39.3852 46.3696 31.6146C39.202 23.8441 54.5839 12.5011 54.5839 12.5011L54.5156 12.4556C47.2343 17.3932 42.7517 23.0249 41.0565 25.4027C41.0793 25.4027 41.0906 25.4027 41.1134 25.4027C42.5583 25.3003 42.82 32.923 40.6128 40.4092C51.9899 49.0899 55.2096 68.4765 56.1084 77.3848C61.0461 77.8626 73.4699 78.659 88.6015 76.5884C105.326 74.3016 115.338 66.9634 118.717 61.6389C118.887 61.1952 119.035 60.7401 119.172 60.2964C115.816 63.9029 110.446 67.5777 101.776 69.8645V69.8418Z" fill="#B01A02"/>
</g>
<path d="M88.6132 76.5649C73.4816 78.6356 61.0578 77.8392 56.1201 77.3613C56.4045 80.217 56.4501 82.0032 56.4501 82.0032C65.4721 82.2421 80.8767 82.2421 91.0251 79.7391C108.523 74.0961 116.112 68.3165 118.728 61.604C115.349 66.9399 105.338 74.2667 88.6132 76.5535V76.5649Z" fill="#53575E"/>
<path d="M104.962 17.0854C107.363 18.7124 109.047 18.5303 109.888 17.8477C109.16 16.801 108.421 15.834 107.681 14.9807C106.509 13.6154 105.315 12.3639 104.075 11.2148C103.358 12.5346 102.311 15.2992 104.962 17.0854Z" fill="#353434"/>
<path d="M109.342 34.7992C105.223 39.9531 107.521 49.2482 114.507 50.9206C117.249 51.5691 118.898 51.2733 119.877 50.6589C119.695 44.3219 118.671 38.4968 117.158 33.3657C114.916 32.3645 111.742 31.8071 109.342 34.7992Z" fill="#353434"/>
<g style="mix-blend-mode:multiply" opacity="0.5">
<path d="M72.4122 79.6252C71.4451 79.0109 89.2389 79.136 100.127 74.9037C103.813 73.5157 102.084 75.5181 98.4202 77.1336C110.742 72.3097 116.51 67.3038 118.728 61.6152C115.349 66.9511 105.338 74.278 88.6132 76.5648C73.4816 78.6354 61.0578 77.839 56.1201 77.3612C56.4045 80.2168 56.4501 82.003 56.4501 82.003C63.4128 82.1964 74.1984 82.242 83.4138 81.0929V81.0701C83.4138 81.0701 74.3349 81.912 72.4008 79.6138L72.4122 79.6252Z" fill="#53575E"/>
</g>
<path d="M12.2958 56.8613C12.2958 56.8613 9.95206 37.5202 23.2178 33.231C36.4835 28.9418 40.9092 29.3628 52.1043 39.4429C63.2994 49.5344 65.2335 70.6845 64.2664 76.3389C62.7419 81.049 54.7324 84.2232 49.7492 84.9172C44.7774 85.6112 41.7397 85.6113 41.7397 81.8796C41.7397 78.1479 34.5608 49.1248 12.3071 56.8613H12.2958Z" fill="#53575E"/>
<g style="mix-blend-mode:multiply" opacity="0.5">
<path d="M52.0932 39.4527C43.6513 31.8414 39.055 29.7366 31.6144 31.0108C46.2226 31.6366 57.6793 45.8239 59.5679 57.5764C61.5703 70.0457 50.0453 73.0038 44.2088 64.05C37.0071 53.0142 27.5072 48.0083 20.4193 48.4747C14.0708 48.8843 15.2654 40.8862 15.584 39.2251C11.0218 46.4723 12.2846 56.871 12.2846 56.871C34.5383 49.1346 41.7172 78.1576 41.7172 81.8893C41.7172 85.621 44.7549 85.621 49.7267 84.927C54.7099 84.233 62.7194 81.0588 64.2439 76.3487C65.211 70.6829 63.2769 49.5442 52.0818 39.4527H52.0932Z" fill="#53575E"/>
</g>
<path d="M65.199 32.3768C67.7019 35.3235 68.0433 39.1462 65.9726 40.8983C63.8906 42.6617 60.1817 41.6947 57.6787 38.748C55.1757 35.8013 54.823 31.99 56.9051 30.2265C58.9871 28.4631 62.696 29.4301 65.1876 32.3768H65.199Z" fill="#353434"/>
<path d="M80.5129 68.192C78.5105 70.3537 75.3932 70.7291 73.5615 69.0112C71.7298 67.3046 71.8663 64.1759 73.8801 62.0142C75.8938 59.8526 78.9998 59.4771 80.8428 61.1837C82.6746 62.8903 82.538 66.019 80.5243 68.1806L80.5129 68.192Z" fill="#353434"/>
<path d="M81.6961 34.1062C81.6961 34.1062 79.341 36.7798 79.8075 40.3294C80.274 43.8677 87.0433 46.6324 90.9798 44.9713C94.9163 43.3216 93.8924 37.7355 90.1152 34.1062C86.338 30.4882 83.5847 31.3529 81.6961 34.1062Z" fill="#353434"/>
<path d="M79.3298 16.5621C79.3298 16.5621 82.9477 20.2596 90.4339 17.586C97.9086 14.9124 92.7207 7.9041 85.3142 9.40588C77.919 10.8963 78.3059 15.9363 79.3298 16.5735V16.5621Z" fill="#353434"/>
<path d="M111.516 60.5465C111.516 62.6057 109.957 64.2668 108.034 64.2668C106.112 64.2668 104.542 62.6057 104.542 60.5465C104.542 58.4872 106.1 56.8262 108.034 56.8262C109.968 56.8262 111.516 58.4872 111.516 60.5465Z" fill="#353434"/>
<g style="mix-blend-mode:multiply">
<path d="M52.093 39.4539C50.796 38.2821 49.5901 37.2467 48.441 36.3252C63.2881 49.0107 65.0402 73.1302 59.8864 78.4888C54.2661 84.3253 44.9482 81.9702 43.1506 73.8811C39.8968 55.0064 20.9083 50.6262 16.312 52.1963C14.2413 52.9017 12.9671 52.3214 12.1821 51.4568C12.0114 54.5969 12.2845 56.8609 12.2845 56.8609C34.5381 49.1245 41.7171 78.1475 41.7171 81.8792C41.7171 85.6109 44.7548 85.6109 49.7266 84.9169C54.7098 84.2229 62.7193 81.0487 64.2438 76.3385C65.2108 70.6727 63.2767 49.534 52.0816 39.4425L52.093 39.4539Z" fill="#53575E"/>
</g>
<path d="M8.06314 66.5535C8.06314 66.5535 5.41227 64.7787 4.26318 63.9937C7.20986 65.1996 8.2338 65.0745 8.2338 65.0745L8.06314 66.5535Z" fill="black"/>
<path d="M6.25415 63.2554L8.08587 64.4158L8.30203 63.938L6.25415 63.2554Z" fill="black"/>
<path d="M7.61963 62.4131L8.46154 63.528L8.72321 63.2095L7.61963 62.4131Z" fill="black"/>
<path d="M11.3285 75.0527C11.3285 75.0527 9.12129 79.9221 13.9907 83.7221C18.8601 87.522 31.6707 87.1238 38.6677 84.9281C45.6646 82.7209 42.6042 74.7228 39.6689 67.7827C36.7449 60.8427 29.3384 54.5739 20.5325 53.4476C14.1272 52.5829 8.99614 58.1805 9.72428 65.6552C10.5889 71.1959 11.3285 75.0527 11.3285 75.0527Z" fill="#FFE8D9"/>
<g style="mix-blend-mode:multiply">
<path d="M13.2402 80.9241C13.2402 80.9241 13.4108 80.105 15.1174 81.1517C16.915 82.1528 20.5898 83.2337 23.1496 82.6648C22.5808 82.1756 22.6945 81.7205 22.6945 81.7205C22.6945 81.7205 23.946 83.0858 25.5957 83.4043C25.2885 83.9163 23.855 83.4043 23.855 83.4043C23.855 83.4043 22.3646 85.9869 18.1323 85.2247C14.3437 84.5534 14.8557 82.9492 14.8557 82.9492C14.8557 82.9492 13.1491 82.0618 13.2288 80.9241H13.2402Z" fill="#EEC7B2"/>
</g>
<g style="mix-blend-mode:multiply">
<path d="M13.7176 76.737C15.9248 76.225 17.6655 73.0849 16.7894 67.3395C16.0272 62.3563 12.5799 60.3084 10.0087 61.1958C9.67873 62.5725 9.56496 64.0743 9.72424 65.6557C10.5889 71.1963 11.3284 75.0532 11.3284 75.0532C11.3284 75.0532 11.1578 75.44 11.0099 76.0771C11.6128 76.4071 12.6482 76.9759 13.7176 76.737Z" fill="#EEC7B2"/>
</g>
<g style="mix-blend-mode:multiply">
<path d="M23.8884 67.0211C22.1477 69.8654 21.3058 74.2115 22.4663 77.3857C23.6609 80.6623 26.892 81.6749 29.2243 80.924C28.462 82.0048 28.5303 83.7341 28.5303 83.7341C28.5303 83.7341 29.5997 77.8977 36.7901 78.2731C35.6523 77.3288 33.3769 77.9545 33.3769 77.9545C33.3769 77.9545 35.7206 73.9725 34.2643 68.4774C33.7524 66.5319 31.8183 64.5182 29.8614 64.1086C27.5291 63.608 25.265 64.8595 24.0136 66.8163C23.968 66.8846 23.9225 66.9529 23.877 67.0325L23.8884 67.0211Z" fill="#EEC7B2"/>
</g>
<path d="M34.2193 72.3105L38.6336 70.9566L34.0259 70.6494L34.2193 72.3105Z" fill="black"/>
<path d="M34.0257 70.1605L35.573 69.6485L33.946 69.5688L34.0257 70.1605Z" fill="black"/>
<path d="M33.7755 69.0918L35.1976 68.2954L33.5593 68.6367L33.7755 69.0918Z" fill="black"/>
<path d="M24.8556 66.6228C24.8556 66.6228 22.3641 69.1372 22.4665 74.5982C22.5006 76.3389 23.2515 78.5347 24.7533 79.5017C26.255 80.4688 28.4849 80.8897 30.1574 80.173C32.0346 79.3538 33.3088 77.3856 33.7412 75.4742C34.1849 73.5401 34.5148 71.4012 33.9573 69.4557C33.6615 68.4432 33.1041 67.2599 32.3987 66.4635C31.0334 64.939 27.9388 63.7899 24.867 66.6228H24.8556Z" fill="white"/>
<g style="mix-blend-mode:multiply">
<path d="M33.957 69.4557C33.6611 68.4432 33.1037 67.2599 32.3983 66.4635C31.033 64.939 27.9385 63.7899 24.8666 66.6228C24.8666 66.6228 22.375 69.1372 22.4774 74.5982C22.5116 76.3389 23.2625 78.5347 24.7642 79.5017C26.266 80.4688 28.4959 80.8897 30.1684 80.173C32.0456 79.3538 33.3198 77.3856 33.7522 75.4742C34.1959 73.5401 34.5258 71.4012 33.9683 69.4557H33.957ZM28.7121 79.2514C26.0499 79.1718 23.9906 76.1227 24.1044 72.4593C24.2181 68.7958 26.4708 65.8947 29.1331 65.9743C31.7953 66.0653 33.8659 69.103 33.7408 72.7665C33.627 76.4299 31.3743 79.3311 28.7121 79.2514Z" fill="#DEDEDE"/>
</g>
<path d="M8.07391 68.3402C8.07391 68.3402 8.60864 74.8024 11.9194 75.1209C15.2187 75.4395 17.1642 72.3222 15.7648 66.1671C14.3655 60.0235 7.40266 59.7504 8.08529 68.3402H8.07391Z" fill="white"/>
<path d="M9.78189 69.9565C9.83878 72.2206 11.1927 73.9954 12.8082 73.9385C14.4124 73.893 15.6752 72.0158 15.607 69.7631C15.5501 67.5104 14.1962 65.7242 12.5807 65.7811C10.9765 65.8266 9.72501 67.7038 9.78189 69.9565Z" fill="#68D3D8"/>
<path d="M9.78189 69.9565C9.83878 72.2206 11.1927 73.9954 12.8082 73.9385C14.4124 73.893 15.6752 72.0158 15.607 69.7631C15.5501 67.5104 14.1962 65.7242 12.5807 65.7811C10.9765 65.8266 9.72501 67.7038 9.78189 69.9565Z" fill="#00BFD1"/>
<path d="M10.4637 70.0934C10.5092 71.8114 11.5445 73.1766 12.7733 73.1311C14.002 73.0856 14.9577 71.6635 14.9122 69.9455C14.8667 68.2276 13.8313 66.8623 12.6026 66.9078C11.3739 66.942 10.4182 68.3641 10.4637 70.0934Z" fill="#68D3D8"/>
<path d="M11.4766 70.1611C11.5107 71.2874 12.1819 72.1748 12.9897 72.152C13.7861 72.1293 14.4232 71.1964 14.3891 70.07C14.3664 68.9437 13.6837 68.0563 12.8873 68.079C12.0795 68.1018 11.4538 69.0347 11.4879 70.1611H11.4766Z" fill="#00798E"/>
<g style="mix-blend-mode:multiply">
<path d="M15.5382 69.1152C15.5723 69.3314 15.5951 69.5476 15.5951 69.7637C15.652 72.0164 14.4005 73.8936 12.7963 73.9391C11.1922 73.996 9.83828 72.2098 9.77002 69.9571C9.77002 69.7524 9.77002 69.5476 9.79277 69.3428C11.5676 70.5146 14.1388 70.708 15.5382 69.1152Z" fill="#00BFD1"/>
</g>
<path d="M12.5686 68.6821C12.6824 69.5809 13.2854 70.2294 13.9225 70.1498C14.5596 70.0702 14.9919 69.2624 14.8782 68.375C14.7758 67.4762 14.1728 66.8163 13.5243 66.9073C12.8872 66.9983 12.4549 67.7834 12.5572 68.6821H12.5686Z" fill="white"/>
<path d="M13.3308 71.14C13.3763 71.47 13.5925 71.7203 13.8314 71.6861C14.0703 71.652 14.2296 71.3676 14.1955 71.0263C14.15 70.6963 13.9338 70.4574 13.6949 70.4915C13.456 70.5257 13.2967 70.8215 13.3422 71.1514L13.3308 71.14Z" fill="white"/>
<path d="M26.2887 73.5624C26.1522 76.2133 27.5971 78.3977 29.5084 78.4545C31.4198 78.5114 33.0809 76.418 33.2174 73.7786C33.3425 71.1391 31.909 68.9433 29.9977 68.8864C28.0863 68.8295 26.4252 70.9229 26.2887 73.5624Z" fill="#68D3D8"/>
<path d="M26.2887 73.5624C26.1522 76.2133 27.5971 78.3977 29.5084 78.4545C31.4198 78.5114 33.0809 76.418 33.2174 73.7786C33.3425 71.1391 31.909 68.9433 29.9977 68.8864C28.0863 68.8295 26.4252 70.9229 26.2887 73.5624Z" fill="#00BFD1"/>
<path d="M27.0962 73.7563C26.9938 75.7701 28.0974 77.4425 29.5536 77.4994C31.0099 77.5449 32.2842 75.9407 32.3865 73.927C32.4889 71.9132 31.3967 70.2408 29.9291 70.1953C28.4728 70.1498 27.1986 71.7539 27.0962 73.7677V73.7563Z" fill="#68D3D8"/>
<path d="M28.3364 73.927C28.2682 75.2126 28.9622 76.2707 29.8951 76.2934C30.828 76.3276 31.6358 75.3036 31.6927 74.0294C31.7609 72.7438 31.0556 71.6857 30.134 71.6629C29.2125 71.6288 28.4047 72.6414 28.3364 73.927Z" fill="#00798E"/>
<g style="mix-blend-mode:multiply">
<path d="M33.206 73.0046C33.2174 73.2549 33.2288 73.5052 33.2174 73.7669C33.0809 76.4064 31.4198 78.5112 29.5084 78.4429C27.5971 78.386 26.1522 76.2016 26.2887 73.5507C26.3001 73.3004 26.3342 73.0729 26.3684 72.834C28.3707 74.3244 31.397 74.7567 33.206 72.9933V73.0046Z" fill="#00BFD1"/>
</g>
<path d="M29.7129 72.2778C29.7584 73.3358 30.4183 74.155 31.1805 74.0981C31.9428 74.0412 32.5344 73.1424 32.4889 72.0844C32.4434 71.0263 31.7835 70.2071 31.0213 70.264C30.259 70.3095 29.6674 71.2083 29.7243 72.2664L29.7129 72.2778Z" fill="white"/>
<path d="M30.3957 75.2129C30.4071 75.6111 30.6574 75.9069 30.9418 75.8955C31.2262 75.8727 31.4424 75.5428 31.431 75.1446C31.4196 74.7578 31.1693 74.4506 30.8849 74.4734C30.6005 74.4961 30.3843 74.826 30.3957 75.2129Z" fill="white"/>
<path d="M11.1459 60.1725C11.1459 60.1725 12.9549 57.5217 14.707 61.0145C15.1279 61.8564 15.0141 58.8983 13.08 58.5342C11.1459 58.1702 10.6681 60.4115 11.1459 60.1612V60.1725Z" fill="#353434"/>
<g style="mix-blend-mode:multiply">
<path d="M11.1459 60.6498C11.1459 60.6498 12.9549 57.9989 14.707 61.4917C15.1279 62.3336 15.0141 59.3755 13.08 59.0115C11.1459 58.6474 10.6681 60.8773 11.1459 60.6384V60.6498Z" fill="#EEC7B2"/>
</g>
<g style="mix-blend-mode:multiply">
<path d="M25.2081 63.1301C25.2081 63.1301 27.1422 60.9002 29.3152 63.2553C30.032 64.0403 29.3721 61.7421 27.5632 61.4349C25.7542 61.1391 24.6734 63.3122 25.2081 63.1301Z" fill="#EEC7B2"/>
</g>
<path d="M25.2081 62.6518C25.2081 62.6518 27.1422 60.4218 29.3152 62.7655C30.032 63.5505 29.3721 61.2637 27.5632 60.9566C25.7542 60.6608 24.6734 62.8224 25.2081 62.6518Z" fill="#353434"/>
<g style="mix-blend-mode:multiply">
<path d="M15.766 66.1796C15.3337 64.2797 14.3666 62.9372 13.2517 62.2432C16.3918 69.1718 14.9469 73.6658 11.6361 73.0742C9.65651 72.7215 8.63257 69.0239 8.1206 65.827C8.02958 66.5665 8.00683 67.397 8.07509 68.3413C8.07509 68.3413 8.60982 74.8035 11.9206 75.1221C15.2199 75.4406 17.1654 72.3233 15.766 66.1683V66.1796Z" fill="#DEDEDE"/>
</g>
<path d="M32.3987 66.4635C31.0334 64.939 27.9388 63.7899 24.867 66.6228C24.867 66.6228 22.785 68.739 22.512 73.2898H22.5347C22.5347 73.2898 24.685 67.1007 29.5089 67.5671C32.9675 67.9084 33.9801 70.6276 34.1963 73.0281C34.5262 70.6276 33.9573 68.2952 32.3987 66.4635Z" fill="#353434"/>
<g style="mix-blend-mode:screen">
<path d="M25.1514 68.3403C25.1514 68.3403 28.8034 64.8476 32.501 68.1697C33.3656 69.114 32.1369 65.0069 28.4735 65.3368C24.8214 65.6667 23.7975 69.6032 25.1514 68.329V68.3403Z" fill="#353434"/>
</g>
<path d="M11.1115 61.4794C14.3654 61.7183 16.2654 64.0051 16.2654 70.5128C16.2654 70.5128 15.742 66.4853 12.2834 64.2327C9.82593 62.6285 7.99421 64.153 7.99421 66.5081C7.73254 62.5716 9.71216 61.3656 11.1115 61.4794Z" fill="#353434"/>
<g style="mix-blend-mode:screen">
<path d="M14.6499 65.7814C14.6499 65.7814 12.3972 61.8449 9.56432 63.1078C8.30146 63.6312 10.5883 60.6504 13.296 62.6982C15.9924 64.7347 15.6511 67.306 14.6499 65.7814Z" fill="#353434"/>
</g>
<path d="M27.8027 79.8079C24.3896 79.5462 22.7854 76.5312 22.7854 76.5312C23.1381 77.7258 23.9914 79.2618 24.9584 79.8875C26.4602 80.8546 28.3488 81.0252 30.0212 80.3085C31.2272 79.7965 32.3194 78.6474 32.9565 77.4983C32.3536 78.2037 30.5446 80.024 27.8027 79.8079Z" fill="#353434"/>
<g style="mix-blend-mode:multiply">
<path d="M28.473 83.6431C28.473 83.6431 28.473 83.6089 28.4844 83.5293C28.5072 83.4496 28.5186 83.3359 28.5641 83.1994C28.5982 83.0514 28.6551 82.8922 28.7233 82.6874C28.7916 82.494 28.8599 82.2664 28.985 82.0503C29.0419 81.9365 29.0988 81.8113 29.1557 81.6862C29.2239 81.561 29.2922 81.4473 29.3718 81.3221C29.4401 81.1856 29.5197 81.0604 29.6108 80.9353C29.7018 80.8101 29.7814 80.6736 29.8838 80.5485C30.1 80.3096 30.2934 80.0365 30.5551 79.8203C30.6802 79.7066 30.794 79.5814 30.9305 79.479L31.3515 79.1832L31.5676 79.0353L31.7952 78.9102C31.9431 78.8305 32.091 78.7509 32.2389 78.6713C32.5461 78.5233 32.8646 78.4323 33.1604 78.3186C33.4676 78.2275 33.7748 78.182 34.0592 78.1138C34.1957 78.0796 34.3436 78.0683 34.4802 78.0569C34.6167 78.0569 34.7418 78.0341 34.8784 78.0341C35.1287 78.0114 35.3676 77.9886 35.5724 78.0114C35.7772 78.0228 35.9478 78.0341 36.0957 78.0455C36.3915 78.0683 36.5622 78.0796 36.5622 78.0796C36.5622 78.0796 36.3915 78.091 36.0957 78.1138C35.9478 78.1138 35.7658 78.1252 35.5724 78.1252C35.3676 78.1252 35.14 78.1707 34.8897 78.2048C34.7646 78.2275 34.6394 78.2503 34.5029 78.2617C34.3664 78.2844 34.2412 78.2958 34.0933 78.3413C33.8203 78.421 33.5359 78.4892 33.2287 78.5802C32.9443 78.7054 32.6484 78.8078 32.3526 78.9557C32.2161 79.0353 32.0682 79.115 31.9203 79.1946L31.7155 79.3084L31.5221 79.4563L31.1125 79.7407C30.9874 79.8431 30.8736 79.9569 30.7485 80.0593C30.5096 80.2641 30.3048 80.5143 30.0886 80.7419C29.9862 80.8557 29.9066 80.9808 29.8042 81.106C29.7132 81.2197 29.6221 81.3449 29.5425 81.4587C29.4629 81.5838 29.3946 81.6976 29.315 81.8113C29.2467 81.9251 29.1898 82.0389 29.1215 82.1413C28.9964 82.3574 28.9054 82.5736 28.8144 82.7556C28.7347 82.9377 28.6551 83.1083 28.6096 83.2449C28.4958 83.5065 28.4617 83.6772 28.4617 83.6772L28.473 83.6431Z" fill="#EEC7B2"/>
</g>
<path d="M9.47412 73.2437C9.47412 73.2437 10.3274 75.3029 12.7735 75.0981C15.2196 74.8934 16.0273 71.8784 16.0273 71.8784C16.0273 71.8784 16.0729 75.7808 12.9783 76.0538C10.8052 76.1335 9.80406 73.9946 9.47412 73.2437Z" fill="#353434"/>
<path d="M26.7222 66.7026C26.7222 66.7026 28.0078 65.7924 29.6006 66.1679C31.182 66.5433 28.6563 64.3817 26.7222 66.7026Z" fill="#DEDEDE"/>
<path d="M14.2752 64.4379C14.2752 64.4379 13.4902 63.0726 11.886 62.7541C10.2818 62.4241 13.4902 61.5367 14.2752 64.4379Z" fill="#DEDEDE"/>
<path d="M23.6942 83.2324C23.8876 82.9366 23.8307 82.7545 23.478 82.8342C23.478 82.8342 19.1092 83.7785 14.8997 81.2186C13.4093 80.1947 12.3057 80.8204 15.1386 82.9593C15.1386 82.9593 20.0194 85.0755 23.6942 83.2437V83.2324Z" fill="#DA432F"/>
<path d="M15.139 82.9478C14.7408 83.2208 16.2426 85.3028 19.6557 84.9956C21.9198 84.7909 23.3078 83.8124 23.6832 83.2322C20.0084 85.0639 15.1276 82.9478 15.1276 82.9478H15.139Z" fill="#DA432F"/>
<path d="M22.74 81.9248C22.74 81.9248 22.7741 81.9589 22.8424 82.0158C22.9106 82.0727 23.0017 82.141 23.1154 82.232C23.1609 82.2775 23.2406 82.323 23.2975 82.3685C23.3657 82.414 23.4226 82.4709 23.5023 82.5164C23.5705 82.5619 23.6502 82.6074 23.7298 82.6643C23.7981 82.7212 23.8891 82.7667 23.9687 82.8122C24.0484 82.8577 24.128 82.9146 24.2076 82.9487C24.2873 82.9943 24.3783 83.0284 24.4466 83.0739C24.5262 83.108 24.6058 83.1422 24.6741 83.1877C24.7424 83.2332 24.822 83.2559 24.8903 83.2673C25.1519 83.3697 25.3454 83.4607 25.3454 83.4607C25.3454 83.4607 25.1406 83.4607 24.8448 83.438C24.7765 83.438 24.6855 83.438 24.6058 83.4038C24.5262 83.3811 24.4352 83.3583 24.3442 83.3242C24.2531 83.2901 24.1508 83.2787 24.0711 83.2332C23.9915 83.1763 23.9005 83.1308 23.8094 83.0853C23.7184 83.0284 23.6388 82.9829 23.5591 82.926C23.4795 82.8691 23.4112 82.8008 23.3316 82.744C23.2633 82.6871 23.2065 82.6074 23.1382 82.5505C23.0813 82.4937 23.0244 82.4254 22.9903 82.3685C22.8083 82.1296 22.74 81.9362 22.74 81.9362V81.9248Z" fill="#ECAE82"/>
<g style="mix-blend-mode:multiply">
<path d="M23.4783 82.8352C23.4783 82.8352 19.1095 83.7795 14.9 81.2197C13.9557 80.5712 13.1593 80.5939 13.4323 81.231C13.694 81.1059 13.8988 81.3334 14.5814 81.7544C16.288 82.8125 19.2346 83.5065 20.5203 83.5065C21.7149 83.5065 18.7454 84.4621 14.7862 82.6873C14.9 82.767 15.0024 82.858 15.1275 82.949C15.1275 82.949 20.0083 85.0651 23.6831 83.2334C23.8765 82.9376 23.8196 82.7556 23.4669 82.8352H23.4783Z" fill="#DA432F"/>
</g>
<g style="mix-blend-mode:multiply">
<path d="M15.1398 82.9487C15.026 83.0284 15.0715 83.2673 15.2877 83.5631C15.5039 83.4948 15.7997 83.4948 16.1751 83.6541C17.3014 84.1206 18.9511 84.405 20.7146 84.2571C22.4894 84.1206 18.5984 85.4176 16.0955 84.2799C16.8577 84.7691 18.041 85.1445 19.6451 84.9966C21.9092 84.7918 23.2972 83.8134 23.6726 83.2332C19.9978 85.0649 15.117 82.9487 15.117 82.9487H15.1398Z" fill="#DA432F"/>
</g>
<g style="mix-blend-mode:multiply">
<path d="M39.6683 67.7833C36.7444 60.8432 29.3379 54.5745 20.532 53.4481C17.5626 53.0385 14.8548 54.0397 12.8979 55.9738C24.8212 47.3841 44.0713 70.0132 39.0426 79.9227C34.9696 87.9435 23.3763 86.5555 17.1075 85.3041C23.0577 87.3292 32.8648 86.749 38.6785 84.9286C45.6754 82.7214 42.615 74.7233 39.6797 67.7833H39.6683Z" fill="#EEC7B2"/>
</g>
<path opacity="0.8" d="M36.3814 79.3205C37.0526 80.4923 36.0742 82.3013 34.2197 83.3593C32.3539 84.4174 30.306 84.3264 29.6347 83.1659C28.9749 81.9941 29.9419 80.1851 31.8078 79.127C33.6622 78.0576 35.7101 78.1486 36.3814 79.3205Z" fill="#F78982"/>
<path d="M31.614 80.7542C31.2613 81.1866 30.8062 81.3914 30.6128 81.2207C30.408 81.0614 30.5446 80.5722 30.9086 80.1513C31.2727 79.7303 31.7164 79.5255 31.9098 79.6848C32.1032 79.8441 31.9781 80.3333 31.614 80.7542Z" fill="white"/>
<path d="M32.7972 79.3772C32.581 79.4909 32.3535 79.5137 32.2966 79.4113C32.2397 79.3089 32.3649 79.1269 32.5924 79.0017C32.8086 78.8766 33.0361 78.8652 33.093 78.9562C33.1499 79.0586 33.0134 79.2406 32.7972 79.3658V79.3772Z" fill="white"/>
<g style="mix-blend-mode:screen">
<path d="M11.3284 75.0526C11.3284 75.0526 13.2283 76.1789 14.9235 74.2334C14.8211 75.5076 12.7391 76.4974 11.3284 75.0526Z" fill="#353434"/>
</g>
<g style="mix-blend-mode:screen">
<path d="M24.6731 78.8413C24.6731 78.8413 26.4821 80.6161 29.4287 79.9563C28.4617 80.7072 26.0384 80.9802 24.6731 78.8413Z" fill="#353434"/>
</g>
<g style="mix-blend-mode:screen">
<path d="M19.2921 55.2452C19.349 55.6434 18.5412 56.0985 17.4604 56.2805C16.3796 56.4512 15.458 56.2805 15.3898 55.8823C15.3329 55.4841 16.152 55.029 17.2328 54.8584C18.3023 54.6877 19.2238 54.8584 19.2921 55.2566V55.2452Z" fill="#FFE8D9"/>
</g>
<g style="mix-blend-mode:screen">
<path d="M21.9317 55.4387C21.9317 55.6321 21.4766 55.7686 20.9305 55.7231C20.3844 55.689 19.9635 55.4956 19.9748 55.2908C19.9748 55.0974 20.4413 54.9609 20.9874 54.995C21.5221 55.0291 21.9545 55.2225 21.9431 55.4273L21.9317 55.4387Z" fill="#FFE8D9"/>
</g>
<path opacity="0.8" d="M14.2631 81.7304C14.2631 81.7304 15.4008 82.4813 16.2769 82.7202C17.1529 82.9592 16.0379 83.0843 15.0823 82.5496C14.4224 82.1855 13.9104 81.5825 14.2631 81.7304Z" fill="white"/>
<path opacity="0.8" d="M17.142 83.0848C17.142 83.0848 17.0282 83.1645 16.9031 83.1303C16.7893 83.0962 16.7211 83.028 16.7324 82.9824C16.7324 82.9256 16.8462 82.9028 16.96 82.9369C17.0737 82.9711 17.1534 83.0393 17.142 83.0962V83.0848Z" fill="white"/>
<g style="mix-blend-mode:screen">
<path d="M11.3963 77.1694C11.3963 77.1694 10.7705 80.2071 13.4442 82.8352C11.658 81.8909 10.2927 78.4209 11.3963 77.1694Z" fill="#FFE8D9"/>
</g>
<g style="mix-blend-mode:screen">
<path d="M15.0481 80.8438C15.0481 80.8438 18.2906 82.4365 22.2612 82.4365C20.566 83.0623 16.4134 82.0042 15.0481 80.8438Z" fill="#FFE8D9"/>
</g>
<g style="mix-blend-mode:screen">
<path d="M17.1643 67.8179C17.1643 67.8179 18.4158 75.5202 14.377 76.8854C16.6751 77.1016 19.0757 74.8148 17.1643 67.8179Z" fill="#FFE8D9"/>
</g>
<g style="mix-blend-mode:multiply">
<path d="M15.6968 58.5221C15.6968 58.7155 15.5148 58.8748 15.2758 58.8748C15.0369 58.8748 14.8435 58.7155 14.8435 58.5221C14.8435 58.3287 15.0369 58.1694 15.2758 58.1694C15.5148 58.1694 15.6968 58.3287 15.6968 58.5221Z" fill="#EEC7B2"/>
</g>
<g style="mix-blend-mode:multiply">
<path d="M23.4221 60.7295C23.4221 60.9229 23.2287 61.0822 23.0012 61.0822C22.7736 61.0822 22.5688 60.9229 22.5688 60.7295C22.5688 60.5361 22.7623 60.3882 23.0012 60.3882C23.2401 60.3882 23.4221 60.5475 23.4221 60.7295Z" fill="#EEC7B2"/>
</g>
<path d="M15.0374 58.5108C15.0374 58.5108 11.7267 50.5696 4.22915 49.1588C2.05612 48.9199 2.02199 50.4785 0.952542 50.2965C-0.10553 50.1258 -0.424089 47.2702 3.78545 48.0552C7.85845 48.8175 11.977 51.3773 15.356 58.1012C15.5949 58.5904 15.2194 58.7269 15.0488 58.5222L15.0374 58.5108Z" fill="#353434"/>
<path d="M23.1607 60.8667C23.1607 60.8667 28.6331 51.4578 33.6731 51.1848C35.9485 51.1507 35.8803 52.0153 37.018 52.4818C38.1557 52.9596 38.5084 50.9117 37.0521 50.2064C35.5959 49.501 32.9564 49.0686 27.6888 53.9836C25.1289 56.3045 22.6146 60.3206 22.7283 60.6733C22.8421 61.026 23.1607 60.8667 23.1607 60.8667Z" fill="#353434"/>
<g style="mix-blend-mode:screen">
<path d="M1.06665 49.6934C1.06665 49.6934 2.07922 48.1006 5.16242 48.8173C8.25699 49.5455 3.86542 47.8048 1.82892 48.1916C0.338518 48.6239 0.293009 50.0802 1.06665 49.6934Z" fill="#353434"/>
</g>
<path d="M0.850342 48.9652C0.850342 48.9652 1.99943 46.6557 8.32511 50.0461C6.67543 48.7377 1.57848 46.9515 0.850342 48.9652Z" fill="white"/>
<g style="mix-blend-mode:screen">
<path d="M29.2241 53.0716C29.2241 53.0716 33.2516 49.4195 36.1869 51.2057C37.518 52.1955 38.0869 51.8201 37.4498 50.7506C36.8013 49.6812 33.5702 49.0782 29.2355 53.0716H29.2241Z" fill="#353434"/>
</g>
<path d="M29.1221 53.0505C29.1221 53.0505 32.7514 49.7853 35.5388 50.0128C37.0861 50.1607 37.6663 51.344 37.6663 51.344C37.6663 51.344 37.1202 49.5578 34.6172 49.9332C32.1143 50.32 29.7023 52.3565 29.1221 53.0505Z" fill="white"/>
<g style="mix-blend-mode:screen">
<path d="M20.2144 36.3246C20.2144 36.3246 35.7441 26.2558 50.6481 45.6424C55.8702 52.4801 52.0134 39.9311 40.4656 34.0947C33.2525 30.363 24.4353 31.7396 20.2144 36.3359V36.3246Z" fill="#53575E"/>
</g>
<g style="mix-blend-mode:screen">
<path d="M55.927 52.6512C56.3821 53.8913 56.2342 55.0745 55.597 55.3021C54.9599 55.541 54.0839 54.7218 53.6288 53.4931C53.1737 52.2644 53.3216 51.0811 53.9587 50.8422C54.5959 50.6033 55.4719 51.4225 55.927 52.6512Z" fill="#53575E"/>
</g>
<path d="M41.125 25.3914C41.125 25.3914 41.2501 25.1866 41.5232 24.8226C41.7735 24.4585 42.1603 23.9124 42.6837 23.2525C43.207 22.5813 43.8669 21.7963 44.6405 20.9202C45.4256 20.0442 46.3243 19.0657 47.371 18.0646C47.883 17.5526 48.4519 17.052 49.0207 16.5059C49.3165 16.2442 49.6123 15.9939 49.9195 15.7209C50.2267 15.4592 50.5339 15.1861 50.8638 14.9245C51.1824 14.6628 51.5123 14.4011 51.8422 14.1281C52.1836 13.8664 52.5249 13.6047 52.8776 13.3431C53.5602 12.797 54.3111 12.3077 55.0506 11.7844C56.5637 10.7832 58.1565 9.77064 59.8517 8.8946C61.5356 7.98443 63.3104 7.18803 65.108 6.44852C65.5631 6.27786 66.0181 6.11858 66.4732 5.94792C66.9283 5.78865 67.3834 5.60661 67.8499 5.47009C68.3163 5.33356 68.7714 5.18566 69.2379 5.04913L69.9205 4.84434L70.6145 4.67369C71.081 4.55992 71.5474 4.44615 72.0025 4.33237C72.469 4.20723 72.9354 4.15034 73.3905 4.04795C73.8456 3.96831 74.3121 3.87729 74.7671 3.79765C75.2222 3.71801 75.6773 3.6725 76.1324 3.61562C76.5875 3.55873 77.0312 3.50184 77.4749 3.44496C77.9186 3.38807 78.3623 3.3767 78.7946 3.34256C79.6707 3.28568 80.524 3.21742 81.3545 3.22879C81.7755 3.22879 82.185 3.22879 82.5832 3.22879C82.9928 3.22879 83.391 3.22879 83.7778 3.25155C84.5628 3.29706 85.3137 3.34256 86.0419 3.38807C86.77 3.44496 87.4526 3.54735 88.1125 3.61562C88.4424 3.66112 88.761 3.69526 89.0682 3.74076C89.3867 3.7749 89.6825 3.84316 89.967 3.90004C90.5472 4.00244 91.0933 4.10483 91.5939 4.20723C91.8442 4.25273 92.0831 4.29824 92.3107 4.34375C92.5382 4.38926 92.7544 4.45752 92.9592 4.50303C93.7783 4.70782 94.4154 4.87848 94.8591 4.98087C95.2915 5.09464 95.5304 5.15153 95.5304 5.15153C95.5304 5.15153 95.2915 5.10602 94.8478 5.02638C94.4041 4.94674 93.7442 4.83297 92.925 4.67369C92.7202 4.63956 92.5041 4.59405 92.2765 4.55992C92.049 4.52579 91.7987 4.50303 91.5484 4.4689C91.0478 4.40064 90.5017 4.33237 89.9215 4.25273C89.6257 4.2186 89.3299 4.16172 89.0227 4.15034C88.7041 4.12759 88.3969 4.10483 88.067 4.08208C87.4071 4.03657 86.7245 3.96831 86.0077 3.93417C85.291 3.9228 84.5401 3.90004 83.7778 3.88867C83.391 3.87729 82.9928 3.88867 82.5946 3.90004C82.1964 3.91142 81.7982 3.93417 81.3886 3.94555C80.5695 3.94555 79.7276 4.04795 78.8629 4.12759C78.442 4.17309 77.9982 4.19585 77.5659 4.25273C77.1222 4.321 76.6899 4.37788 76.2462 4.44615C75.8025 4.51441 75.3587 4.55992 74.9037 4.65093C74.46 4.74195 74.0049 4.83297 73.5612 4.92398C72.6624 5.09464 71.7522 5.34494 70.842 5.57248L70.1594 5.74314L69.4768 5.94792C69.0331 6.08445 68.578 6.23235 68.1229 6.36888C67.6678 6.49403 67.2241 6.68744 66.7804 6.83534C66.3367 7.006 65.8816 7.1539 65.4379 7.33593C63.6744 8.05269 61.9224 8.81496 60.2727 9.70237C58.6003 10.5557 57.0188 11.5227 55.5057 12.4784C54.7662 12.9904 54.0267 13.4682 53.3326 13.9802C52.98 14.2305 52.6273 14.4808 52.286 14.7311C51.956 14.9814 51.6261 15.243 51.2961 15.4933C50.6363 15.9825 50.0333 16.5173 49.4303 16.9951C48.8501 17.5071 48.2698 17.9735 47.7465 18.4628C47.4848 18.7017 47.2231 18.9406 46.9615 19.1681C46.7112 19.4071 46.4722 19.6346 46.2333 19.8621C45.7555 20.3059 45.3232 20.7609 44.9022 21.1591C44.0831 22.001 43.389 22.7406 42.8316 23.3777C42.2741 24.0148 41.8418 24.5154 41.5573 24.8681C41.2729 25.2094 41.125 25.4142 41.125 25.4142V25.3914Z" fill="black"/>
<path d="M29.1226 21.7963C29.1226 21.7963 39.8398 5.9707 69.2724 1.96596C60.7965 0.361784 36.8021 7.40422 29.1226 21.7963Z" fill="#E12404"/>
<path opacity="0.3" d="M91.5034 5.36777C91.5034 5.36777 79.2047 2.01152 69.9324 11.6024C60.66 21.1933 82.5496 40.3638 103.154 39.2375C123.769 38.1225 109.707 9.36114 91.492 5.36777H91.5034Z" fill="white"/>
<path d="M70.4324 8.88251C70.4324 8.88251 94.3585 -2.60838 109.319 20.0548C106.805 9.34898 87.6004 -1.19761 70.4324 8.88251Z" fill="white"/>
<path d="M111.765 23.4225C112.039 24.3326 111.97 25.1632 111.618 25.2769C111.265 25.3793 110.753 24.7195 110.48 23.8093C110.218 22.8877 110.275 22.0686 110.639 21.9548C110.992 21.8524 111.504 22.5123 111.765 23.4225Z" fill="white"/>
<path d="M40.2946 25.9828C40.2946 25.9828 37.7006 27.4959 36.0509 29.3618C35.4707 29.9306 39.7144 31.0115 40.2946 29.7259C40.8635 28.4289 41.6599 25.4822 40.2946 25.9942V25.9828Z" fill="#53575E"/>
<path d="M52.991 84.3135C52.991 84.3135 57.2119 82.7776 58.8616 81.7991C64.7322 80.5818 70.0566 79.7854 70.6027 81.253C71.1488 82.7207 60.7047 85.3488 56.5975 85.4739C53.9011 85.5308 52.991 84.3135 52.991 84.3135Z" fill="#353434"/>
<path d="M69.169 81.0702C69.169 81.0702 67.2462 84.0511 64.9594 88.3402C62.684 92.6294 60.7044 95.6557 61.6146 100.741C61.7283 101.333 65.7445 98.3748 65.5055 97.3168C65.2666 96.2473 65.2666 92.0037 67.7468 87.8283C70.2271 83.6529 71.7971 82.7882 71.0462 81.4571C70.2953 80.1146 69.4193 80.5697 69.1462 81.0702H69.169Z" fill="#353434"/>
<path d="M61.8428 100.56C61.8428 100.56 64.8918 102.528 66.7122 104.451C68.2822 106.248 68.4643 107.261 69.2834 107.056C70.1026 106.862 72.4462 105.11 70.7966 103.222C69.3972 101.674 65.9272 100.73 64.1296 98.9326C63.1284 99.7518 61.8541 100.548 61.8541 100.548L61.8428 100.56Z" fill="#353434"/>
<path d="M70.2048 106.1C70.2048 106.1 69.6018 106.908 70.4665 107.727C71.3311 108.535 73.3676 110.481 71.5473 114.394C74.1185 113.734 77.8161 106.817 70.8874 105.133C70.6712 105.634 70.2048 106.112 70.2048 106.112V106.1Z" fill="#353434"/>
<g style="mix-blend-mode:screen">
<path d="M69.078 80.502C67.2804 80.2972 64.1176 80.7523 60.5907 81.4463C59.8398 81.8786 58.9979 82.3451 58.2015 82.7774C56.3015 83.8014 68.8277 82.4361 69.078 80.502Z" fill="#353434"/>
</g>
<path d="M60.8752 81.9579C60.8752 81.9579 66.086 80.9681 68.4979 80.7519C67.5422 80.3878 63.0028 81.116 60.8752 81.9579Z" fill="#DEDEDE"/>
<g style="mix-blend-mode:screen">
<path d="M69.3065 85.439C70.0801 84.0396 70.6831 82.6743 70.2621 82.3785C69.352 81.7528 64.2436 89.5916 62.6964 94.9844C61.2628 100.184 64.676 98.6251 65.4382 95.2916C65.552 93.403 66.1095 90.6042 67.7592 87.8395C68.328 86.8839 68.8514 86.0988 69.3065 85.4503V85.439Z" fill="#353434"/>
</g>
<path d="M62.6959 94.9845C64.2432 89.5917 69.3515 81.7529 70.2617 82.3786C70.6826 82.6744 70.0796 84.0397 69.306 85.4391C70.8419 83.2433 71.6383 82.4924 71.0694 81.4571C70.3186 80.1146 69.4425 80.5697 69.1695 81.0702C69.1695 81.0702 67.2467 84.0511 64.9599 88.3402C62.6845 92.6294 60.7049 95.6557 61.6151 100.741C61.7288 101.333 65.745 98.3748 65.506 97.3168C65.4264 96.9641 65.3695 96.2359 65.4264 95.2916C64.6641 98.6251 61.251 100.184 62.6845 94.9845H62.6959Z" fill="#353434"/>
<path d="M69.4882 84.4839C69.4882 84.4839 65.0057 90.1497 65.0739 94.985C64.0955 93.87 65.8476 88.2611 69.4882 84.4839Z" fill="#DEDEDE"/>
<g style="mix-blend-mode:screen">
<path d="M64.2995 100.468C64.2198 100.866 66.8138 102.516 68.0767 104.086C69.3395 105.656 71.7515 104.905 70.7844 103.233C70.2269 102.63 69.3623 102.106 68.3839 101.595C65.2665 100.298 64.3677 100.081 64.2881 100.468H64.2995Z" fill="#353434"/>
</g>
<path d="M65.8704 101.015C65.8704 101.015 68.544 101.96 70.3529 103.769C70.6715 102.745 66.8829 100.856 65.8704 101.015Z" fill="#DEDEDE"/>
<g style="mix-blend-mode:screen">
<path d="M71.4564 106.283C70.4211 106.954 74.7217 108.376 72.0025 114.213C73.7205 113.325 75.6091 110.128 74.5282 107.694C73.7205 106.658 72.5714 105.612 71.445 106.283H71.4564Z" fill="#353434"/>
</g>
<path d="M72.5945 106.784C72.5945 106.784 74.9837 109.275 73.425 112.438C75.3022 110.663 74.1418 107.227 72.5945 106.784Z" fill="#DEDEDE"/>
<path d="M75.87 78.3738C75.87 78.3738 73.4581 80.2511 75.2784 80.8199C77.0987 81.3774 79.158 81.0247 80.5346 78.3738C81.9113 75.7116 84.8466 72.7194 85.7112 71.9685C86.5645 71.2176 87.4292 69.9093 86.9058 69.3632C86.3938 68.8171 83.0035 71.2063 80.5233 73.8571C78.043 76.508 75.87 78.3738 75.87 78.3738Z" fill="#353434"/>
<path d="M88.3623 91.4911C88.3623 91.4911 86.2575 90.8881 86.3941 89.3067C86.542 87.7366 86.724 79.4882 86.2575 75.7679C85.8025 72.0476 86.0983 69.738 87.0881 69.7267C88.0779 69.7153 88.4078 70.7506 88.3168 71.7063C87.9869 74.9601 88.4647 81.411 89.4318 84.0277C90.4102 86.6444 91.0018 88.0438 90.7515 88.3055C90.5012 88.5558 88.4761 89.8414 88.3509 91.4911H88.3623Z" fill="#353434"/>
<path d="M92.2191 89.8755C92.2191 89.8755 90.8197 87.6798 89.8868 88.442C88.8287 89.2953 87.3952 90.6719 88.4305 91.9234C89.4658 93.1749 91.4568 95.7916 92.6855 97.191C93.9143 98.6018 94.8699 99.7281 96.1669 98.9659C97.4639 98.2036 97.7597 97.1 96.5196 95.3024C95.2795 93.5048 92.2191 89.8755 92.2191 89.8755Z" fill="#353434"/>
<path d="M96.838 97.8054C96.838 97.8054 96.3715 98.7042 97.5434 99.3186C98.7266 99.9216 101.184 102.413 100.115 105.519C102.231 103.915 103.027 100.672 100.638 98.6701C98.2374 96.6677 96.9404 97.3617 96.838 97.8054Z" fill="#353434"/>
<g style="mix-blend-mode:screen">
<path d="M79.158 77.5664C82.3778 73.5958 85.8592 71.0245 85.0628 70.7629C84.4712 70.5694 81.479 73.1179 80.0227 74.4035C78.2706 76.2466 76.7461 77.6119 76.1431 78.1466C76.1431 78.1466 76.1317 78.1694 76.1204 78.1807C74.6641 79.7735 75.9497 81.5484 79.158 77.5777V77.5664Z" fill="#353434"/>
</g>
<g style="mix-blend-mode:screen">
<path d="M86.906 76.0752C87.5204 80.0117 87.691 80.6374 87.509 84.2553C87.3383 87.8846 88.0323 88.8176 89.0222 88.1804C89.9209 87.6116 90.285 86.7469 89.9665 85.3931C89.8186 84.9835 89.6365 84.5284 89.4545 84.0278C89.0904 83.038 88.7946 81.5021 88.5784 79.7955C88.3054 78.3279 87.782 75.1764 87.7593 72.6507C87.8503 70.3411 86.2916 72.1387 86.906 76.0638V76.0752Z" fill="#353434"/>
</g>
<g style="mix-blend-mode:screen">
<path d="M90.1377 89.4544C89.1138 90.3418 91.0479 93.3681 94.0742 96.2238C96.9071 98.8974 96.964 96.3489 95.7921 94.2897C94.882 93.0837 93.676 91.616 92.9251 90.7172C92.1856 89.9777 90.8431 88.84 90.1377 89.4544Z" fill="#353434"/>
</g>
<g style="mix-blend-mode:screen">
<path d="M100.638 98.6712C99.8642 98.0227 99.2043 97.6586 98.6582 97.4766C98.3624 97.5107 98.1462 97.6245 98.0552 97.8293C97.6001 98.7167 101.275 100.071 100.843 103.632C101.673 103.12 102.026 102.323 102.094 101.493C102.037 100.48 101.594 99.4789 100.638 98.6712Z" fill="#353434"/>
</g>
<path d="M83.2649 72.0479C83.2649 72.0479 78.9188 75.9502 76.4841 78.7717C77.0075 77.4975 81.4104 72.9353 83.2649 72.0479Z" fill="#DEDEDE"/>
<path d="M87.5997 73.8003C87.5997 73.8003 88.2141 81.9804 89.5679 85.0864C88.2937 83.7098 87.2129 76.1326 87.5997 73.8003Z" fill="#DEDEDE"/>
<path d="M91.1611 90.1382C91.1611 90.1382 93.9144 92.7094 95.9395 95.6106C95.4617 94.0178 91.9006 90.3999 91.1611 90.1382Z" fill="#DEDEDE"/>
<path d="M99.1594 98.1016C99.1594 98.1016 101.833 99.2734 101.594 102.197C102.311 100.263 100.832 98.6135 99.1594 98.1016Z" fill="#DEDEDE"/>
<path d="M92.811 76.3617C93.1068 76.2024 93.4026 76.0431 93.6643 75.8383C94.6541 75.0874 95.4277 73.9383 96.1445 72.9485C96.9295 71.8563 97.6349 70.7072 98.3858 69.5809C100.525 66.4294 102.197 63.8355 102.811 63.881C103.414 63.9265 104.643 64.6432 102.504 67.5444C100.832 69.7743 100.161 71.4581 99.0912 73.7449C98.0217 76.0317 97.669 78.1137 93.8577 78.3185C93.3002 78.3527 92.0715 78.4551 91.7188 77.8634C91.4913 77.488 91.9805 76.9191 92.2535 76.703C92.4242 76.5665 92.6176 76.4527 92.7996 76.3503L92.811 76.3617Z" fill="#353434"/>
<path d="M105.019 67.9759C105.019 67.9759 107.374 75.3256 108.273 78.7387C108.91 80.7866 109.172 80.9459 109.855 81.253C110.537 81.5716 110.799 82.1518 110.696 82.9255C110.594 83.7105 109.547 85.1781 107.659 85.1326C105.77 85.0758 105.929 83.7105 106.237 82.9824C106.555 82.2542 105.975 80.8321 105.554 78.6818C105.133 76.5315 103.506 71.3891 102.983 69.7166C102.459 68.0442 101.891 65.473 103.461 64.8359C105.042 64.2101 104.667 66.8837 105.042 67.9873L105.019 67.9759Z" fill="#353434"/>
<path d="M109.945 86.0894C109.945 86.0894 112.88 88.6606 113.939 89.7073C114.985 90.754 114.883 90.7085 114.928 91.6983C114.974 92.6995 116.032 92.8019 117.079 91.8576C118.125 90.9133 118.762 89.9121 116.76 88.0804C114.769 86.2487 110.571 82.5739 109.467 83.3589C108.364 84.1439 109.627 85.8732 109.945 86.0894Z" fill="#353434"/>
<path d="M117.089 91.8572C117.089 91.8572 119.456 95.1111 117.408 98.0464C120.025 97.6823 120.207 94.3829 119.877 92.6991C119.399 90.2872 116.566 89.8662 117.089 91.8572Z" fill="#353434"/>
<g style="mix-blend-mode:screen">
<path d="M93.1295 76.2708C91.1044 77.7043 95.0978 76.9193 97.1798 74.3595C99.2618 71.7996 102.129 66.02 101.537 65.9632C100.98 65.9063 99.5917 67.8176 99.4097 68.0793C99.0911 68.5571 98.7498 69.0577 98.3971 69.5811C97.6349 70.696 96.9408 71.8451 96.1558 72.9487C95.4391 73.9385 94.6654 75.0876 93.6756 75.8385C93.596 75.9068 93.5163 75.9636 93.4253 76.0092C93.3343 76.1116 93.2433 76.2026 93.1295 76.2822V76.2708Z" fill="#353434"/>
</g>
<g style="mix-blend-mode:screen">
<path d="M103.745 65.6109C103.153 65.8498 103.847 69.5588 105.167 73.7228C106.475 77.8299 107.738 81.2317 107.317 82.4263C106.896 83.6209 107.852 84.2125 108.387 83.3137C108.921 82.4263 108.864 82.3011 109.877 82.4263C110.241 82.4718 110.491 82.358 110.639 82.1532C110.526 81.7664 110.264 81.4706 109.843 81.2772C109.16 80.9586 108.899 80.7993 108.261 78.7628C107.886 77.3179 107.249 75.1563 106.623 73.1539C106.418 72.8467 105.065 70.7989 104.678 68.4893C104.257 65.9977 104.325 65.3947 103.722 65.6336L103.745 65.6109Z" fill="#353434"/>
</g>
<g style="mix-blend-mode:screen">
<path d="M110.355 83.9055C109.82 84.3151 113.518 86.9432 114.94 88.4336C116.373 89.9127 117.818 89.7534 116.76 88.081C115.816 87.2049 114.382 85.9307 113.017 84.9067H112.971C112.971 84.9067 110.878 83.4846 110.343 83.9055H110.355Z" fill="#353434"/>
</g>
<g style="mix-blend-mode:screen">
<path d="M119.866 92.6992C119.775 92.2441 119.604 91.8687 119.388 91.5501C119.081 91.2657 118.557 90.8675 118.159 91.1064C117.568 91.4591 119.832 93.7914 118.637 96.6471C119.035 96.5333 119.365 96.374 119.627 96.1692C120.07 95.0315 120.036 93.6208 119.866 92.6878V92.6992Z" fill="#353434"/>
</g>
<path d="M100.138 67.2944C100.138 67.2944 97.3849 72.2435 94.5747 75.5542C96.1675 74.7578 99.8309 68.216 100.138 67.2944Z" fill="#DEDEDE"/>
<path d="M104.597 69.0122C104.597 69.0122 107.419 76.8397 108.272 79.4678C106.804 76.7145 105.029 70.7188 104.597 69.0122Z" fill="#DEDEDE"/>
<path d="M111.265 84.3022C111.265 84.3022 114.997 86.9986 116.828 88.58C115.907 87.1124 112.175 84.4843 111.265 84.3022Z" fill="#DEDEDE"/>
<path d="M118.978 91.5845C118.978 91.5845 120.139 93.4731 119.342 95.9192C120.07 95.191 120.196 92.7449 118.978 91.5845Z" fill="#DEDEDE"/>
<path d="M94.5516 78.4194C93.8349 78.5787 93.3684 78.8063 93.084 79.0679C94.1762 78.7039 95.2115 78.3284 96.2127 77.9644C95.678 78.135 95.1205 78.2943 94.5403 78.4194H94.5516Z" fill="#353434"/>
</svg>
