<svg width="136" height="99" viewBox="0 0 136 99" fill="none" xmlns="http://www.w3.org/2000/svg">
<path d="M114.546 83.7516C114.546 83.7516 129.035 89.7857 132.452 84.5766C134.364 81.2845 121.818 76.2168 123.722 72.2411C125.619 68.2655 122.335 66.9062 116.458 62.2392C111.537 58.1221 119.052 58.4914 112.767 52.4808C106.482 46.4703 108.943 37.3797 113.723 35.4155C118.511 33.4513 119.875 34.1348 121.105 28.5171C122.335 22.8993 134.779 24.7064 135.187 20.2358C135.594 15.7652 124.796 14.6731 117.006 14.5317C109.217 14.3981 97.4546 46.0617 98.9592 54.6965C100.464 63.3313 109.209 75.8082 114.546 83.7594V83.7516Z" fill="#FF870F"/>
<path d="M114.412 78.5425C114.412 78.5425 125.399 88.6858 128.815 83.4766C130.727 80.1846 118.26 76.2089 120.156 72.2333C122.053 68.2577 119.2 66.8984 113.323 62.2314C108.402 58.1143 116.332 58.5386 110.039 52.528C103.747 46.5174 108.942 37.3719 113.73 35.4077C118.518 33.4434 119.882 34.127 121.112 28.5093C122.343 22.8915 134.787 24.6986 135.194 20.228C135.602 15.7574 124.803 14.6653 117.014 14.5239C109.224 14.3903 97.4619 46.0539 98.9665 54.6887C100.471 63.3235 109.083 70.5912 114.412 78.5425Z" fill="#FFAE0F"/>
<path d="M127.044 86.9652C121.622 86.9652 114.514 84.0346 114.443 84.0032L114.365 83.9717L113.096 82.0861C107.61 73.9462 100.095 62.7972 98.6923 54.7359C97.5168 47.979 104.648 26.1601 111.803 17.6275C113.683 15.3882 115.415 14.2568 116.959 14.2568H117.014C122.437 14.3511 131.95 14.9718 134.685 18.036C135.273 18.696 135.539 19.4424 135.461 20.2596C135.249 22.5774 132.216 23.3159 129.011 24.0859C125.556 24.9187 121.982 25.7909 121.379 28.5722C120.344 33.3021 119.114 33.7421 116.136 34.795C115.462 35.0307 114.702 35.3057 113.832 35.6592C111.693 36.5392 110.016 38.912 109.467 41.8505C108.746 45.669 110.024 49.4639 112.962 52.2767C116.465 55.6238 115.807 57.1716 115.282 58.413C114.851 59.4344 114.506 60.2358 116.638 62.0194C117.633 62.8051 118.573 63.5122 119.396 64.1407C123.424 67.1814 125.642 68.8549 123.973 72.3513C123.087 74.2055 125.853 76.4683 128.526 78.6604C131.206 80.8525 133.737 82.9189 132.694 84.7103C131.707 86.211 129.811 86.9652 127.044 86.9652ZM114.726 83.5317C115.501 83.846 122.029 86.4231 127.044 86.4231C129.615 86.4231 131.354 85.7553 132.224 84.4274C133.024 83.0525 130.563 81.0411 128.181 79.0926C125.344 76.7748 122.405 74.3705 123.479 72.1234C124.952 69.0278 123.111 67.6371 119.067 64.5886C118.236 63.96 117.296 63.2529 116.293 62.4594C113.848 60.4087 114.318 59.293 114.773 58.2166C115.282 57.0145 115.807 55.7731 112.578 52.6853C109.499 49.7468 108.174 45.7633 108.927 41.7641C109.514 38.6449 111.309 36.1149 113.621 35.1642C114.506 34.8028 115.274 34.5278 115.948 34.2843C118.879 33.2393 119.866 32.8936 120.838 28.4544C121.52 25.3352 125.43 24.3923 128.878 23.5595C131.887 22.8288 134.74 22.1374 134.912 20.2124C134.975 19.5446 134.763 18.9553 134.27 18.4053C131.668 15.4982 122.327 14.9011 116.998 14.8147C115.58 14.8147 113.981 15.8832 112.218 17.9889C105.142 26.4351 98.0654 47.9947 99.2252 54.6495C100.612 62.5929 108.088 73.687 113.542 81.7875L114.718 83.5396L114.726 83.5317Z" fill="#FF7510"/>
<path d="M48.5625 68.8072C48.5625 68.8072 57.6684 74.9749 63.9611 75.2499C69.2898 75.3835 69.1566 73.49 66.8997 71.015C65.7399 69.5615 71.2097 67.8486 69.9716 66.0023C68.7413 64.148 68.42 63.0559 70.1518 61.0681C71.8837 59.0803 73.0591 55.3796 71.4762 49.2119C68.6708 52.0247 48.5547 68.8151 48.5547 68.8151L48.5625 68.8072Z" fill="#FFAE0F"/>
<path d="M64.4862 75.5329C64.3139 75.5329 64.1336 75.5329 63.9534 75.5329C57.6529 75.2579 48.7821 69.2944 48.4059 69.043L48.1082 68.8387L48.3903 68.603C48.594 68.438 68.5298 51.7891 71.2883 49.0156L71.6252 48.6777L71.7428 49.1413C73.4668 55.859 71.9465 59.4339 70.3636 61.2489C68.7101 63.1503 69.047 64.1088 70.2068 65.8531C70.9905 67.0316 69.6661 68.0687 68.4985 68.988C67.7932 69.538 67.0723 70.1115 67.0174 70.5437C67.0174 70.6065 67.0174 70.7165 67.1193 70.8422C68.428 72.2801 68.8981 73.3879 68.5377 74.2129C68.1459 75.1007 66.8215 75.5329 64.4941 75.5329H64.4862ZM49.025 68.7837C50.655 69.8444 58.4757 74.7393 63.9769 74.975C64.1493 74.975 64.3295 74.975 64.4941 74.975C67.0644 74.975 67.8402 74.4329 68.0361 73.9772C68.2947 73.3958 67.8324 72.4294 66.704 71.188C66.5159 70.9601 66.4454 70.7165 66.4767 70.4651C66.5551 69.8051 67.3387 69.1844 68.1615 68.5402C69.3918 67.5737 70.2225 66.8431 69.7523 66.1438C68.4358 64.1717 68.1537 62.9381 69.9561 60.8796C71.155 59.5046 72.8947 56.2519 71.3353 49.7306C67.8167 53.0619 51.3916 66.7959 49.025 68.7759V68.7837Z" fill="#FF7510"/>
<path d="M52.0815 65.8373L52.5282 65.5151C54.644 68.4851 61.1796 68.9408 61.2501 68.9408C61.2501 68.9408 54.3541 69.0115 52.0815 65.8294V65.8373Z" fill="#FF7510"/>
<path d="M56.4932 61.9564L57.0339 61.8936C57.3944 64.9028 63.9221 65.6492 63.9926 65.657C63.9926 65.657 56.9085 65.3978 56.4932 61.9564Z" fill="#FF7510"/>
<path d="M59.5337 59.5285L60.0039 59.2456C61.1872 61.1863 64.8233 61.2727 64.8546 61.2727C64.8546 61.2727 60.8737 61.7284 59.5337 59.5363V59.5285Z" fill="#FF7510"/>
<path d="M19.1216 29.0593C19.1216 29.0593 24.1839 21.2495 27.1852 18.091C30.4687 13.5654 43.8611 -2.47071 64.369 1.37135C67.5114 1.92134 59.581 6.98908 62.4569 8.91404C65.3251 10.8311 68.4753 10.8311 66.1479 15.9067C63.8205 20.9823 68.3656 20.8331 70.1131 22.2159C71.939 23.6537 72.4405 25.6415 70.1131 27.7001C68.3342 29.2086 71.5315 31.5735 72.1662 34.5513C73.1223 39.077 73.1223 43.9247 73.1223 43.9247C64.7843 41.6776 19.1216 29.0672 19.1216 29.0672V29.0593Z" fill="#FFAE0F"/>
<path d="M73.0595 41.9686C72.9733 40.1379 72.7382 37.2858 72.1583 34.5437C71.5314 31.566 68.3342 29.201 70.1052 27.6925C72.4326 25.6339 71.9311 23.6461 70.1052 22.2083C68.3577 20.8255 63.8126 20.9748 66.14 15.8992C68.4674 10.8236 65.3171 10.8236 62.449 8.90645C59.5809 6.98935 67.5113 1.91375 64.3611 1.36376C43.8532 -2.47044 30.453 13.5656 27.1773 18.0834C25.8216 19.5055 24.0506 21.8783 22.5068 24.0468C40.2877 15.4356 61.4146 26.9696 73.0517 41.9607L73.0595 41.9686Z" fill="#FFD40F"/>
<path d="M62.8643 19.0498C59.5339 17.9498 67.2135 16.1663 63.9614 11.9235C62.8643 10.8236 60.1294 10.2814 59.5887 9.18145C58.5621 6.62008 62.8016 4.53012 62.9114 1.13591C43.2341 -1.6926 30.3903 13.6756 27.193 18.0913C26.762 18.547 26.284 19.0969 25.7903 19.7019C40.9616 16.0642 56.078 21.6976 67.9423 31.5345C66.9549 27.0718 71.406 24.809 62.88 19.042L62.8643 19.0498Z" fill="#FFE135"/>
<path d="M73.3964 44.2702L73.0516 44.1759C64.8077 41.9602 19.5054 29.4441 19.0431 29.3183L18.6826 29.2162L18.8864 28.9019C18.9334 28.8234 23.9957 21.0292 26.9814 17.8943C29.9279 13.8401 40.938 0.506836 58.1311 0.506836C60.1999 0.506836 62.3158 0.70326 64.4237 1.09611C64.9096 1.18254 65.2231 1.38682 65.3406 1.7011C65.607 2.40037 64.8626 3.35106 63.9144 4.55318C62.9975 5.72386 61.9553 7.05169 62.1042 7.9631C62.1512 8.24595 62.3158 8.48166 62.6057 8.67809C63.1856 9.06308 63.7733 9.3695 64.3454 9.66806C66.4926 10.7838 68.3498 11.7502 66.3985 16.0086C65.7716 17.3679 65.6227 18.4129 65.9283 19.1907C66.3202 20.1885 67.4486 20.6521 68.5379 21.0921C69.1961 21.3592 69.8152 21.6107 70.2854 21.9799C71.3433 22.8128 71.9232 23.787 71.9467 24.7927C71.978 25.8456 71.4217 26.8827 70.2932 27.8805C69.439 28.6034 69.9406 29.5462 70.9045 31.1412C71.5 32.1233 72.174 33.239 72.4326 34.4725C73.3808 38.9746 73.3964 43.8537 73.3964 43.9009V44.2545V44.2702ZM19.5525 28.8941C23.8155 30.0726 64.1886 41.2217 72.84 43.5552C72.8165 42.3531 72.6833 38.3382 71.8918 34.5982C71.6489 33.459 71.0063 32.3904 70.4343 31.4397C69.5331 29.9469 68.6867 28.5405 69.9327 27.4798C70.928 26.5998 71.4217 25.7041 71.3981 24.8242C71.3746 23.9835 70.8731 23.1585 69.9406 22.4278C69.5331 22.1056 68.9453 21.8699 68.3263 21.6107C67.1822 21.1471 65.8892 20.6128 65.4111 19.4029C65.0428 18.4757 65.2074 17.2972 65.897 15.7886C67.6288 12.0016 66.2261 11.2709 64.0946 10.1631C63.5147 9.86449 62.9113 9.55021 62.3079 9.14165C61.8847 8.8588 61.6418 8.49738 61.5713 8.05738C61.3911 6.91027 62.5038 5.4803 63.4912 4.22318C64.1965 3.32749 64.988 2.31394 64.8312 1.90538C64.7685 1.75609 64.5256 1.67752 64.3219 1.6461C62.2531 1.26111 60.1686 1.06468 58.1311 1.06468C41.1966 1.06468 30.3275 14.2251 27.4045 18.2636C24.7715 21.0292 20.532 27.417 19.5525 28.9019V28.8941Z" fill="#FF7510"/>
<path d="M27.4279 31.3142L26.8872 31.2356C29.4419 13.856 48.6254 9.44824 48.6254 9.44824C48.4373 9.49538 29.9277 14.3038 27.4279 31.3142Z" fill="#FF7510"/>
<path d="M29.2229 31.903L28.7371 31.6595C34.2147 20.6519 53.1945 15.3877 53.1945 15.3877C53.0064 15.4427 34.5987 21.1076 29.2229 31.903Z" fill="#FF7510"/>
<path d="M33.7208 33.1843L33.2742 32.8622C40.8912 22.1845 60.4979 22.6167 60.4979 22.6167C60.2784 22.6167 41.1733 22.7267 33.7208 33.1843Z" fill="#FF7510"/>
<path d="M39.3945 34.787L38.9949 34.4099C45.4129 27.5429 63.9382 29.9235 63.9382 29.9235C63.7579 29.9078 45.6323 28.1164 39.3945 34.787Z" fill="#FF7510"/>
<path d="M72.7144 45.8271C72.7144 45.8271 76.4053 56.104 81.1934 65.6817C85.9814 75.2515 97.3285 93.2125 111.818 97.3217C120.156 99.7888 123.573 96.7717 119.882 93.8961C116.191 91.0204 113.323 88.4119 116.191 84.9863C119.059 81.5606 117.97 80.0678 113.323 75.2593C108.676 70.4509 113.871 65.7995 109.906 62.2325C105.941 58.6654 96.921 55.7269 103.073 48.2156C107.861 42.4879 107.586 41.2544 106.897 37.9623C106.215 34.6702 115.101 33.0281 115.235 26.719C115.368 20.4098 118.792 17.487 123.165 15.1142C127.538 12.7414 131.503 3.83162 126.449 2.04808C121.386 0.264551 105.808 4.88445 96.921 15.1142C88.0345 25.3519 74.6343 37.868 72.7222 45.8193L72.7144 45.8271Z" fill="#FFAE0F"/>
<path d="M126.441 2.0559C121.378 0.272364 105.8 4.89226 96.9132 15.122C88.0267 25.3597 74.6264 37.8758 72.7144 45.8271C72.7144 45.8271 76.4053 56.104 81.1934 65.6816C81.4049 66.0981 81.6322 66.5459 81.8673 66.9938C89.0689 75.5107 97.8692 89.8104 107.171 84.4834C110.454 82.8413 104.076 73.9315 107.351 68.4473C111.105 63.8431 95.1343 56.3397 97.3285 48.6634C98.3002 44.7743 105.047 46.1728 107.273 40.7829C107.304 39.9108 107.124 39.0544 106.905 37.9701C106.223 34.678 115.109 33.0359 115.243 26.7268C115.376 20.4176 118.8 17.4948 123.173 15.122C127.546 12.7492 131.511 3.83943 126.456 2.0559H126.441Z" fill="#FFD40F"/>
<path d="M126.441 2.0559C121.378 0.272364 105.8 4.89226 96.9132 15.122C88.0267 25.3597 74.6264 37.8758 72.7144 45.8271C72.7144 45.8271 93.857 85.9683 103.159 80.6413C106.442 78.9992 98.598 71.8887 101.881 66.4123C105.635 61.8082 90.9418 55.719 93.1282 48.0427C94.0999 44.1535 101.121 45.7564 103.339 40.3665C103.37 39.4944 102.845 37.3101 102.618 36.2259C101.936 32.9338 111.222 31.9124 111.356 25.6111C111.489 19.3019 118.785 17.5027 123.157 15.122C127.53 12.7492 131.495 3.83943 126.441 2.0559Z" fill="#FFE135"/>
<path d="M117.272 98.5076C115.666 98.5076 113.801 98.1933 111.732 97.5883C95.6203 93.0155 84.093 72.1082 80.9427 65.8069C76.2017 56.3314 72.4873 46.0309 72.4559 45.9287L72.4246 45.8502L72.4481 45.7716C73.9056 39.7217 81.8361 31.1655 89.5001 22.8842C92.0704 20.1107 94.4997 17.4865 96.7018 14.9487C104.718 5.71675 117.57 1.41113 123.73 1.41113C124.85 1.41113 125.791 1.5447 126.527 1.80398C128.047 2.33826 128.925 3.53251 129.058 5.23748C129.333 8.68669 126.527 13.6052 123.283 15.3651C118.706 17.8558 115.627 20.7393 115.493 26.7341C115.415 30.4112 112.476 32.5562 110.118 34.2768C108.386 35.5418 106.881 36.6418 107.148 37.9068C107.837 41.2145 108.119 42.5738 103.261 48.388C101.701 50.2893 101.059 51.9707 101.278 53.5264C101.647 56.1114 104.366 57.9499 106.983 59.7334C108.119 60.5113 109.201 61.242 110.063 62.0198C112.061 63.819 111.857 65.8619 111.638 68.0147C111.403 70.2932 111.16 72.6424 113.495 75.0545C118.111 79.8237 119.427 81.5129 116.379 85.1507C115.548 86.1486 115.188 87.0914 115.29 88.0342C115.493 89.9828 117.648 91.8056 120.031 93.6677C121.316 94.6734 121.849 95.7419 121.528 96.6848C121.136 97.8319 119.576 98.4919 117.257 98.4919L117.272 98.5076ZM72.9966 45.8109C73.3493 46.7773 76.9227 56.5435 81.4286 65.5554C87.8623 78.433 99.2486 93.4713 111.881 97.054C113.903 97.6512 115.713 97.9576 117.265 97.9576C119.278 97.9576 120.713 97.4076 121.018 96.5198C121.253 95.8283 120.775 94.9484 119.702 94.1077C117.225 92.1749 114.984 90.2656 114.757 88.1049C114.639 86.9971 115.039 85.9207 115.972 84.805C118.62 81.6465 117.907 80.3973 113.111 75.4474C110.596 72.8546 110.862 70.2539 111.097 67.9675C111.309 65.8619 111.497 64.0469 109.702 62.4362C108.864 61.682 107.806 60.9591 106.678 60.197C103.958 58.3506 101.145 56.4335 100.738 53.6128C100.487 51.8922 101.176 50.0694 102.838 48.0423C107.524 42.4324 107.281 41.2381 106.615 38.0482C106.27 36.4061 107.908 35.2118 109.796 33.829C112.179 32.0926 114.874 30.1205 114.945 26.7184C115.086 20.0872 118.91 17.1094 123.016 14.878C126.041 13.2359 128.761 8.47455 128.51 5.27676C128.392 3.77608 127.663 2.77825 126.339 2.31468C125.665 2.07898 124.78 1.95326 123.722 1.95326C117.664 1.95326 105.016 6.19603 97.1014 15.3023C94.8915 17.8479 92.4623 20.4721 89.8841 23.2457C82.2984 31.4326 74.4542 39.9024 72.9809 45.8109H72.9966Z" fill="#FF7510"/>
<path d="M73.4751 44.042L73.961 43.7827C74.0315 43.9163 81.0999 57.1946 93.1288 67.6443C93.1288 67.6443 81.0999 58.5538 73.4751 44.042Z" fill="#FF7510"/>
<path d="M72.9342 45.6216L72.4954 45.2994C87.5726 26.9063 98.4339 25.6099 98.4339 25.6099C82.8238 32.1783 73.0361 45.488 72.9342 45.6216Z" fill="#FF7510"/>
<path d="M74.1802 43.7044L74.4388 43.2251C78.8429 45.645 95.7852 46.0065 95.9576 46.0065C95.9576 46.0065 80.5747 47.0829 74.1724 43.7044H74.1802Z" fill="#FF7510"/>
<path d="M75.0734 42.9735L74.7913 42.5021C85.4644 36.2244 98.3318 36.7822 98.3318 36.7822C98.1908 36.7822 84.3282 37.3401 75.0734 42.9735Z" fill="#FF7510"/>
<path d="M73.7178 44.0815L74.1488 43.7515C81.5777 53.4863 94.9936 53.3291 95.1268 53.3213C95.1268 53.3213 81.9382 55.1676 73.7178 44.0815Z" fill="#FF7510"/>
<path d="M22.8203 70.7085C22.8203 70.7085 43.1793 77.5362 57.4886 66.4736C68.3342 57.6974 75.7161 46.5955 74.0783 42.5334C72.4405 38.6049 47.7714 19.3632 26.8404 24.5095C25.8608 31.7537 22.8203 70.7085 22.8203 70.7085Z" fill="#EB4F00"/>
<path d="M23.9487 60.4787C23.9487 60.4787 35.1391 72.4763 55.0671 62.3408C65.8578 55.9138 75.7161 46.5955 74.0782 42.5334C72.4404 38.6049 47.7714 19.3632 26.8404 24.5095C25.8608 31.7537 23.9487 60.4787 23.9487 60.4787Z" fill="#F56500"/>
<path d="M74.0787 42.5415C72.535 38.8488 50.6714 21.642 30.6729 23.842C34.1836 25.0441 37.0203 25.9712 38.9951 35.431C40.4919 44.4351 30.6729 57.9805 41.3147 60.1647C45.3034 60.2983 48.5399 59.984 54.7228 56.8334C65.5135 50.4064 75.505 44.2701 74.0866 42.5337L74.0787 42.5415Z" fill="#FF7C00"/>
<path d="M37.0122 73.066C29.0818 73.066 22.797 70.9918 22.7343 70.9682L22.5305 70.8975L22.5462 70.6853C22.5775 70.2925 25.6024 31.6362 26.5663 24.4706L26.5898 24.2821L26.77 24.2349C29.1366 23.6535 31.6521 23.3628 34.2616 23.3628C53.4687 23.3628 72.9578 39.1474 74.3292 42.4238C76.0767 46.753 68.2873 58.0906 57.6611 66.6861C52.1835 70.921 45.2404 73.066 37.0122 73.066ZM23.1104 70.5203C24.2389 70.866 29.9673 72.5239 37.0122 72.5239C45.1151 72.5239 51.9484 70.4182 57.3242 66.2697C68.5538 57.187 75.3009 46.3051 73.8277 42.6438C72.4798 39.4224 53.2571 23.9206 34.2695 23.9206C31.7775 23.9206 29.356 24.1956 27.0913 24.7378C26.1431 32.0526 23.3612 67.4011 23.1182 70.5203H23.1104Z" fill="#B92500"/>
<path d="M40.2252 39.9153C40.3356 39.8996 42.5865 38.7629 42.773 36.6777C42.8972 34.7179 40.1975 32.9776 40.1699 32.9697C40.1699 32.9697 43.857 33.3303 43.6153 36.8502C43.422 40.0564 40.2252 39.9153 40.2252 39.9153Z" fill="#8F1400"/>
<path d="M39.0782 49.6043C39.1887 49.5886 41.4396 48.4519 41.626 46.3667C41.7503 44.4147 39.0506 42.6665 39.0229 42.6587C39.0229 42.6587 42.71 43.0193 42.4683 46.5391C42.275 49.7454 39.0782 49.6043 39.0782 49.6043Z" fill="#8F1400"/>
<path d="M37.8772 60.8998C38.0015 60.8998 40.6736 59.9591 41.1155 57.6386C41.4814 55.4515 38.6505 53.0919 38.616 53.0684C38.616 53.0684 42.7242 54.0247 42.0476 57.9522C41.4538 61.5347 37.8772 60.8998 37.8772 60.8998Z" fill="#8F1400"/>
<path d="M42.4688 69.4449C42.5654 69.4449 44.623 68.7159 44.9682 66.9285C45.2513 65.2431 43.0694 63.4244 43.0418 63.4087C43.0418 63.4087 46.211 64.1456 45.6863 67.1715C45.2306 69.9309 42.4688 69.4449 42.4688 69.4449Z" fill="#8F1400"/>
<path d="M44.575 62.4674C44.6716 62.4674 46.7292 61.7383 47.0744 59.951C47.3575 58.2655 45.1756 56.4468 45.148 56.4312C45.148 56.4312 48.3172 57.168 47.7925 60.2018C47.3368 62.9612 44.575 62.4752 44.575 62.4752V62.4674Z" fill="#8F1400"/>
<path d="M51.1133 34.9754C51.1823 35.0068 52.8394 35.1871 53.5506 34.0269C54.1927 32.9216 53.1156 30.8912 53.1018 30.8677C53.1018 30.8677 55.1663 32.459 53.9994 34.4424C52.9499 36.2611 51.1133 34.9754 51.1133 34.9754Z" fill="#8F1400"/>
<path d="M55.0281 40.291C55.1247 40.3145 57.3273 40.1264 58.0316 38.4331C58.653 36.8261 56.844 34.4351 56.8233 34.4194C56.8233 34.4194 59.8337 35.9794 58.7013 38.8643C57.6863 41.5061 55.035 40.291 55.035 40.291H55.0281Z" fill="#8F1400"/>
<path d="M59.1431 44.8155C59.2328 44.8155 61.1316 44.2668 61.5182 42.6519C61.8428 41.1311 59.9302 39.3672 59.9095 39.3516C59.9095 39.3516 62.7611 40.1825 62.1604 42.9106C61.6356 45.4035 59.1431 44.8077 59.1431 44.8077V44.8155Z" fill="#8F1400"/>
<path d="M43.6213 54.8565C43.718 54.8565 45.7756 54.1275 46.1208 52.3401C46.4039 50.6547 44.222 48.836 44.1944 48.8203C44.1944 48.8203 47.3636 49.5572 46.8389 52.5832C46.3832 55.3426 43.6213 54.8565 43.6213 54.8565Z" fill="#8F1400"/>
<path d="M44.2501 45.7945C44.3467 45.8102 46.4733 45.4026 47.0257 43.6858C47.509 42.063 45.5619 39.9229 45.5343 39.8994C45.5343 39.8994 48.5862 41.1145 47.7024 44.0385C46.9221 46.7039 44.2432 45.7945 44.2432 45.7945H44.2501Z" fill="#8F1400"/>
<path d="M45.0926 36.2926C45.1893 36.3083 47.3159 35.9006 47.8682 34.1838C48.3447 32.5611 46.4045 30.421 46.3769 30.3975C46.3769 30.3975 49.4287 31.6125 48.5449 34.5366C47.7647 37.2019 45.0857 36.2926 45.0857 36.2926H45.0926Z" fill="#8F1400"/>
<path d="M49.6492 42.2354C49.7596 42.2354 52.0174 41.4828 52.4179 39.5387C52.7493 37.7043 50.3949 35.6739 50.3672 35.6504C50.3672 35.6504 53.8195 36.5205 53.1981 39.8209C52.6596 42.8311 49.6492 42.2354 49.6492 42.2354Z" fill="#8F1400"/>
<path d="M49.104 50.9844C49.2145 50.9844 51.4723 50.2318 51.8727 48.2877C52.2111 46.4533 49.8497 44.4151 49.8221 44.3994C49.8221 44.3994 53.2744 45.2696 52.653 48.5699C52.1144 51.5802 49.104 50.9844 49.104 50.9844Z" fill="#8F1400"/>
<path d="M54.228 48.1856C54.3385 48.1856 56.5963 47.433 56.9968 45.4889C57.3351 43.6545 54.9737 41.6163 54.9461 41.6006C54.9461 41.6006 58.3984 42.4707 57.777 45.7711C57.2384 48.7813 54.228 48.1856 54.228 48.1856Z" fill="#8F1400"/>
<path d="M53.9236 56.4403C54.0272 56.4403 56.1331 55.6094 56.4438 53.7515C56.6923 51.9955 54.3793 50.1924 54.3586 50.1768C54.3586 50.1768 57.659 50.8274 57.1964 53.9866C56.8028 56.8636 53.9305 56.4482 53.9305 56.4482L53.9236 56.4403Z" fill="#8F1400"/>
<path d="M53.8059 63.9813C53.8888 63.9813 55.6632 63.2836 55.9187 61.7236C56.1258 60.2498 54.1857 58.7369 54.1649 58.7212C54.1649 58.7212 56.9337 59.2699 56.547 61.9196C56.2156 64.3341 53.8059 63.9892 53.8059 63.9892V63.9813Z" fill="#8F1400"/>
<path d="M58.3213 52.222C58.4041 52.222 60.1786 51.5244 60.4341 49.9643C60.6412 48.4906 58.701 46.9776 58.6803 46.9619C58.6803 46.9619 61.4491 47.5107 61.0624 50.1603C60.731 52.5748 58.3213 52.2299 58.3213 52.2299V52.222Z" fill="#8F1400"/>
<path d="M63.4382 48.7494C63.5211 48.7494 65.2956 48.0517 65.551 46.4917C65.7582 45.0257 63.818 43.5049 63.7973 43.4893C63.7973 43.4893 66.566 44.038 66.1794 46.6877C65.8479 49.1022 63.4382 48.7572 63.4382 48.7572V48.7494Z" fill="#8F1400"/>
<path d="M58.9844 58.6191C59.0535 58.6191 60.538 58.039 60.752 56.722C60.9246 55.4912 59.3021 54.2134 59.2813 54.2056C59.2813 54.2056 61.6013 54.6602 61.2768 56.8787C61.0006 58.9013 58.9775 58.6112 58.9775 58.6112L58.9844 58.6191Z" fill="#8F1400"/>
<path d="M49.4773 60.3289C49.574 60.3132 51.5349 59.2863 51.673 57.4519C51.7558 55.7351 49.3737 54.2535 49.353 54.2378C49.353 54.2378 52.5844 54.4965 52.4187 57.5851C52.2875 60.3994 49.4842 60.321 49.4842 60.321L49.4773 60.3289Z" fill="#8F1400"/>
<path d="M48.5513 68.5906C48.6479 68.5749 50.6089 67.548 50.7469 65.7136C50.8298 63.9968 48.4477 62.5152 48.427 62.4995C48.427 62.4995 51.6584 62.7582 51.4926 65.8469C51.3615 68.6612 48.5582 68.5828 48.5582 68.5828L48.5513 68.5906Z" fill="#8F1400"/>
<path d="M40.6116 31.1585C40.6944 31.1742 42.4758 30.8292 42.9453 29.3868C43.3458 28.0228 41.7163 26.2276 41.6956 26.2119C41.6956 26.2119 44.2572 27.231 43.5184 29.6847C42.8625 31.9267 40.6116 31.1585 40.6116 31.1585Z" fill="#8F1400"/>
<path d="M29.8728 64.5648C29.8728 64.5648 30.9699 83.8773 42.27 95.4192C47.1913 100.385 48.5156 97.187 47.1443 93.6199C45.7729 90.0529 46.6584 88.6857 47.6536 88.4107C48.6488 88.1357 51.0781 86.2186 48.5626 82.243C47.011 80.0509 51.9166 80.0509 49.6676 77.0339C47.4185 74.0168 36.2125 67.2519 33.2033 57.3364C31.973 59.3478 29.8728 64.557 29.8728 64.557V64.5648Z" fill="#FFAE0F"/>
<path d="M32.6236 65.3976C32.6236 65.3976 32.2788 71.7618 34.2928 77.4659C37.7408 87.24 44.2529 97.8076 43.4301 90.8857C42.0587 87.3186 43.7592 87.2479 44.7544 86.9729C45.7496 86.6979 48.9077 85.1108 46.3922 81.1352C44.8406 78.9431 51.9091 80.0587 49.66 77.0417C47.411 74.0246 36.2049 67.2597 33.1957 57.3442C31.9654 59.3556 32.6236 65.3976 32.6236 65.3976Z" fill="#FFD40F"/>
<path d="M46.298 98.2479C45.2322 98.2479 43.8139 97.3601 42.082 95.6159C30.8368 84.129 29.6221 64.7773 29.6064 64.5808V64.518L29.6221 64.463C29.7083 64.2508 31.7379 59.2067 32.9683 57.2031L33.2896 56.6846L33.4698 57.266C35.617 64.3451 42.0272 69.8293 46.2666 73.4592C47.9358 74.8892 49.2523 76.0127 49.8949 76.877C51.2663 78.7155 50.1692 79.6505 49.3699 80.3262C48.6176 80.9626 48.2571 81.324 48.7978 82.094C50.1927 84.3018 50.0673 85.8496 49.7147 86.7611C49.3072 87.8217 48.3982 88.5053 47.7321 88.686C47.497 88.7489 47.1757 88.9139 46.9563 89.346C46.6585 89.9353 46.4939 91.1452 47.4108 93.5259C48.0612 95.2152 48.1082 96.7865 47.544 97.6115C47.2619 98.028 46.8309 98.2479 46.3058 98.2479H46.298ZM30.1472 64.6044C30.2334 65.8065 31.6753 84.2075 42.4582 95.223C44.5897 97.3758 45.773 97.698 46.2902 97.698C46.635 97.698 46.8936 97.5644 47.0816 97.2973C47.544 96.6294 47.4656 95.223 46.8857 93.7145C46.1021 91.6795 45.961 90.0767 46.4547 89.0867C46.7603 88.4739 47.2305 88.2382 47.5753 88.1439C48.022 88.0182 48.8213 87.4918 49.1896 86.5489C49.6285 85.4097 49.3307 83.9718 48.3276 82.3926C47.4813 81.1983 48.3276 80.4755 49.0016 79.9019C49.8087 79.2184 50.5061 78.6291 49.4404 77.1991C48.8292 76.382 47.5361 75.2742 45.8905 73.8678C41.7215 70.3007 35.4759 64.958 33.1172 58.0124C31.973 60.1102 30.3509 64.078 30.1393 64.6044H30.1472Z" fill="#FF7510"/>
<path d="M34.1672 53.7932C34.1672 53.7932 37.8503 69.02 25.5472 70.945C20.2184 72.045 6.41067 60.7231 3.12722 55.3803C1.83421 53.7775 0.807641 52.9132 0.799805 52.3632C0.799805 50.3047 5.58785 27.8259 29.5124 23.9917C34.1594 23.0332 41.51 33.2001 33.3679 47.3426L34.1672 53.8011V53.7932Z" fill="#FF9C00"/>
<path d="M34.1671 53.7932C34.1671 53.7932 37.0353 65.2015 24.7243 67.1186C19.3955 68.2186 11.7942 63.8423 5.90121 57.3917C14.1921 62.8287 17.9301 59.2617 18.2906 58.971C10.3053 60.1652 1.95166 52.9289 1.95166 52.5361C1.95166 50.4776 5.58776 27.8338 29.5123 23.9917C34.1593 23.0332 41.5099 33.2001 33.3678 47.3426L34.1671 53.8011V53.7932Z" fill="#FFB100"/>
<path d="M24.7558 71.2905C18.7845 71.2905 6.04247 60.6522 2.89223 55.5216C2.46906 54.9952 2.05373 54.5395 1.69326 54.1309C0.964474 53.3138 0.525635 52.8266 0.525635 52.3631C0.525635 51.161 1.82648 44.9618 5.95627 38.692C9.71774 32.9799 16.8567 25.7358 29.4655 23.7166C31.166 23.363 33.0859 24.353 34.5983 26.3487C36.7769 29.24 38.0855 34.1663 36.5731 40.4755C36.0402 42.6912 33.3759 47.3346 33.3759 47.3346C38.2971 37.8591 37.012 30.45 34.1673 26.6786C32.8116 24.8794 31.0485 23.9444 29.5674 24.2508C17.1388 26.2465 10.1174 33.3649 6.41078 38.9905C2.06941 45.5904 1.07418 51.6717 1.07418 52.3631C1.07418 52.6145 1.5522 53.1488 2.10075 53.7695C2.44556 54.1623 2.87656 54.6416 3.33891 55.2073C6.37943 60.1572 19.0431 70.7484 24.7401 70.7484C25.0066 70.7484 25.2573 70.7248 25.4924 70.6777C28.5878 70.1984 30.9231 68.8156 32.4512 66.5606C35.8443 61.5636 34.183 53.8716 34.1673 53.7931C34.1673 53.7931 36.4321 61.6657 32.9057 66.8592C31.2835 69.2399 28.8229 70.7012 25.5943 71.212C25.3357 71.267 25.0614 71.2905 24.7637 71.2905H24.7558Z" fill="#803700"/>
<path d="M14.161 60.7382C8.18185 60.7382 2.25752 54.7354 1.9519 54.4133L2.34372 54.0283C2.43776 54.1226 11.6455 63.4567 18.3535 58.9075L18.6591 59.3632C17.2172 60.3375 15.6891 60.7303 14.161 60.7303V60.7382Z" fill="#B78131"/>
<path d="M18.8473 60.4794C18.7298 59.3401 17.2957 58.5702 17.28 58.5623C17.28 58.5623 18.1812 58.4209 18.6906 58.9944C19.0275 59.3716 18.8395 60.4794 18.8395 60.4794H18.8473Z" fill="#B78131"/>
<path d="M34.0893 29.1217C32.5141 25.971 27.9377 23.8496 20.3912 27.6288C4.62435 35.4308 2.91602 52.1583 2.91602 52.1583C6.88124 56.5425 13.9418 58.9624 16.9432 58.6324C16.9432 58.6324 16.9275 58.6167 16.6376 58.1374C20.4852 57.9803 19.3098 60.1095 18.7926 60.8638C18.7926 60.8638 18.6515 60.4003 18.4164 60.0624C18.4164 60.0624 14.7412 62.3724 12.9623 61.8302C22.5932 68.4458 29.8733 64.5723 31.801 60.7538C33.9247 56.0161 32.2399 50.7283 31.6286 48.057C35.4371 41.8264 35.97 32.9087 34.0893 29.1374V29.1217ZM20.2972 52.1033C15.6423 52.1033 11.873 47.672 11.873 42.2114C11.873 36.7508 15.6423 32.3194 20.2972 32.3194C24.952 32.3194 28.7213 36.7508 28.7213 42.2114C28.7213 47.672 24.952 52.1033 20.2972 52.1033Z" fill="#FFDB00"/>
<path d="M26.7542 42.7216C26.7542 47.1922 23.6667 50.8143 19.8582 50.8143C16.0497 50.8143 12.9622 47.1922 12.9622 42.7216C12.9622 38.251 16.0497 34.6211 19.8582 34.6211C23.6667 34.6211 26.7542 38.2432 26.7542 42.7216Z" fill="#FF9C00"/>
<path d="M24.7246 43.916C24.7246 47.7267 22.0916 50.8223 18.8473 50.8223C15.603 50.8223 12.97 47.7345 12.97 43.916C12.97 40.0976 15.603 37.0098 18.8473 37.0098C22.0916 37.0098 24.7246 40.0976 24.7246 43.916Z" fill="#D1D0CF"/>
<path d="M23.9488 40.4983C22.9379 38.4162 21.0336 37.0098 18.8473 37.0098C15.603 37.0098 12.97 40.0976 12.97 43.916C12.97 46.4931 14.1768 48.7402 15.9556 49.9266C20.5321 48.7481 23.3297 45.1967 23.9566 40.5061L23.9488 40.4983Z" fill="white"/>
<path d="M18.8474 51.0901C15.4542 51.0901 12.6958 47.8687 12.6958 43.9088C12.6958 39.9489 15.4542 36.7275 18.8474 36.7275C22.2405 36.7275 24.999 39.9489 24.999 43.9088C24.999 47.8687 22.2405 51.0901 18.8474 51.0901ZM18.8474 37.2854C15.7598 37.2854 13.2443 40.2632 13.2443 43.9167C13.2443 47.5702 15.7598 50.5479 18.8474 50.5479C21.9349 50.5479 24.4504 47.5702 24.4504 43.9167C24.4504 40.2632 21.9349 37.2854 18.8474 37.2854Z" fill="black"/>
<path d="M21.308 44.2079C21.308 45.5357 20.2971 46.6043 19.0511 46.6043C17.8051 46.6043 16.7942 45.5279 16.7942 44.2079C16.7942 42.8879 17.8051 41.8115 19.0511 41.8115C20.2971 41.8115 21.308 42.8879 21.308 44.2079Z" fill="#1F7AFF"/>
<path d="M19.0512 46.8789C17.6563 46.8789 16.52 45.6768 16.52 44.2075C16.52 42.7382 17.6563 41.5361 19.0512 41.5361C20.4461 41.5361 21.5823 42.7382 21.5823 44.2075C21.5823 45.6768 20.4461 46.8789 19.0512 46.8789ZM19.0512 42.0783C17.9541 42.0783 17.0686 43.029 17.0686 44.1996C17.0686 45.3703 17.9541 46.321 19.0512 46.321C20.1483 46.321 21.0338 45.3703 21.0338 44.1996C21.0338 43.029 20.1483 42.0783 19.0512 42.0783Z" fill="black"/>
<path d="M20.3751 44.522C20.3751 45.3784 19.8109 46.0777 19.1135 46.0777C18.416 46.0777 17.8518 45.3784 17.8518 44.522C17.8518 43.6656 18.416 42.9663 19.1135 42.9663C19.8109 42.9663 20.3751 43.6577 20.3751 44.522Z" fill="#000021"/>
<path d="M19.8268 43.4607C19.8268 43.8693 19.4976 44.1993 19.0901 44.1993C18.6826 44.1993 18.3535 43.8693 18.3535 43.4607C18.3535 43.0522 18.6826 42.7222 19.0901 42.7222C19.4976 42.7222 19.8268 43.0522 19.8268 43.4607Z" fill="white"/>
<path d="M20.5085 44.3882C20.5085 44.5768 20.3517 44.7339 20.1636 44.7339C19.9756 44.7339 19.8188 44.5768 19.8188 44.3882C19.8188 44.1996 19.9756 44.0425 20.1636 44.0425C20.3517 44.0425 20.5085 44.1996 20.5085 44.3882Z" fill="white"/>
</svg>
