<svg width="100" height="101" viewBox="0 0 100 101" fill="none" xmlns="http://www.w3.org/2000/svg">
<path d="M3.16088 28.2413C2.81088 28.1513 2.47089 28.1012 2.18089 28.1212C0.500889 28.2612 0.580889 30.1912 0.680889 31.5112C0.860889 33.9612 1.58088 36.5712 2.97088 38.6212C2.85088 38.5712 2.73088 38.5213 2.62088 38.4713C2.22088 38.2913 2.03089 38.9513 2.07089 39.2313C2.30089 40.7713 3.94088 42.4312 5.39088 43.5612C3.79088 43.8812 5.29088 46.2313 5.77088 46.7913C7.65089 48.9613 10.2309 50.1313 13.0209 50.4213C12.9409 50.6913 12.9409 51.0012 13.0109 51.2112C13.8109 53.9512 18.9009 54.5512 21.2409 54.5512C24.9809 54.5512 28.6709 54.1013 31.9509 52.1413C34.7209 50.4913 37.2009 47.9313 37.8609 44.6613C38.2809 42.5913 38.4009 39.8612 37.1109 38.0612C36.2909 35.8112 33.9109 34.1712 32.0409 32.9012C29.4309 31.1412 26.7809 29.4312 24.1509 27.7012C21.4609 25.9312 18.7309 24.6213 15.7909 23.3313C14.3909 22.7213 10.7809 21.1912 9.39088 22.3712C8.45088 23.1612 8.44089 24.1513 8.93089 25.1613C7.05089 24.2713 4.75089 23.6013 3.02088 24.7513C1.99089 25.4413 2.46087 26.9513 3.15087 28.2513L3.16088 28.2413Z" fill="#F8D362"/>
<path d="M17.0609 47.8911C15.9309 47.9011 14.8409 47.7711 13.7809 47.5011C15.8409 50.6811 19.6709 51.4011 23.3409 51.1411C22.7209 50.7711 22.1709 50.3011 21.7309 49.7311C22.6509 50.3511 23.7709 50.7811 24.5409 50.9511C26.6309 51.4111 29.2009 51.8411 31.4609 51.4411C29.2509 52.4211 26.2909 52.5111 24.0209 51.4811C19.9309 52.5211 13.9809 52.1711 13.0109 47.2511C12.0009 46.9211 11.0309 46.4511 10.0909 45.8611C8.96087 45.1511 7.49087 43.8311 7.14087 42.3911C9.30087 45.3311 13.6009 47.0611 17.0609 47.8811V47.8911Z" fill="#DFA42D"/>
<path d="M7.53077 31.3511C8.27077 32.5411 9.55078 33.911 9.85078 34.231C10.7408 35.191 11.9308 36.391 13.1808 37.241C13.4908 37.571 13.8008 37.901 14.1008 38.241C12.8008 37.911 11.5008 36.9911 10.3708 35.9611C9.28076 37.1611 14.6208 41.051 16.3608 42.151C15.5608 42.021 14.7308 41.7811 13.9308 41.4411C12.4608 40.6211 11.1908 39.541 10.1908 38.081C9.81077 37.521 9.35077 36.0411 9.89077 35.5011C9.34077 34.9511 8.84077 34.4011 8.42077 33.9111C7.66077 33.0011 6.31077 31.2211 6.45077 29.8311C6.76077 30.3711 7.16077 30.8811 7.53077 31.3511Z" fill="#DFA42D"/>
<path opacity="0.6" d="M2.68083 24.4111C2.68083 24.4111 2.71081 24.3811 2.79081 24.3311L2.86082 24.2911L3.00082 24.2111L3.14082 24.1411L3.31082 24.0611C3.54082 23.9511 3.76082 23.8911 3.99082 23.8311C4.90083 23.6111 5.83082 23.7011 6.67082 23.9211C7.27082 24.0711 7.85081 24.2911 8.40081 24.5311C8.36081 24.3511 8.34082 24.1611 8.33082 23.9811L8.35083 23.6311L8.44082 23.2911C8.52082 23.0711 8.62081 22.8511 8.76081 22.6811C8.89081 22.4911 9.07082 22.3511 9.23081 22.1911C9.35081 22.1011 9.41081 22.0711 9.51081 22.0111C9.60081 21.9511 9.73082 21.9211 9.84082 21.8711C9.95082 21.8211 10.0608 21.8111 10.1708 21.7911C10.2808 21.7711 10.3908 21.7511 10.4908 21.7511C10.7108 21.7311 10.9208 21.7511 11.1308 21.7511C11.9708 21.8211 12.7708 22.0611 13.5408 22.3411C14.3108 22.6211 15.0608 22.9611 15.7908 23.3211C15.0308 23.0311 14.2608 22.7511 13.4808 22.5311C12.7008 22.3211 11.9008 22.1211 11.1108 22.1111C10.9108 22.1111 10.7208 22.1111 10.5308 22.1411C10.4308 22.1411 10.3408 22.1711 10.2508 22.1911C10.1608 22.2111 10.0608 22.2311 9.99082 22.2711C9.91082 22.3111 9.84081 22.3211 9.76081 22.3811C9.69081 22.4311 9.57082 22.5111 9.53082 22.5411C9.41082 22.6811 9.26082 22.8011 9.17082 22.9611C9.06082 23.1111 9.00082 23.2811 8.95082 23.4411L8.90081 23.7011V23.9611C8.92081 24.1411 8.94081 24.3111 9.01081 24.4911C9.05081 24.6711 9.15082 24.8411 9.22082 25.0111L9.55082 25.7711L8.79081 25.4511C8.04081 25.1311 7.27083 24.8411 6.49083 24.6811C5.71082 24.5211 4.92083 24.4911 4.21083 24.6911C4.04083 24.7511 3.85083 24.8111 3.71083 24.8911L3.60083 24.9411L3.47082 25.0211L3.33082 25.1011L3.26081 25.1411L3.24082 25.1611C3.12083 25.2511 3.05082 25.3611 3.00082 25.4711C2.94082 25.5911 2.92082 25.7411 2.92082 25.8911C2.91082 26.0511 2.94082 26.2211 2.97082 26.4011C3.01082 26.5811 3.06082 26.7511 3.13082 26.9311C3.26082 27.2911 3.43082 27.6411 3.63082 27.9911L4.13082 28.9011L3.03082 28.7611C2.82082 28.7311 2.66082 28.6611 2.36082 28.6811C2.18082 28.6511 1.98082 28.7311 1.83082 28.7811C1.68082 28.8511 1.58082 28.9611 1.49082 29.1011C1.40082 29.2511 1.33082 29.4411 1.30082 29.6511C1.22082 30.0811 1.22081 30.5711 1.26081 31.0811L1.29081 31.4711L1.33082 31.8511C1.36082 32.1111 1.38083 32.3611 1.43083 32.6111C1.48083 32.8611 1.51082 33.1211 1.56082 33.3611L1.73082 34.1111L1.94082 34.8411C2.00082 35.0911 2.10083 35.3211 2.18083 35.5611C2.26083 35.8011 2.36083 36.0311 2.46083 36.2611C2.56083 36.4911 2.65082 36.7311 2.78082 36.9511C2.90082 37.1711 3.01082 37.4011 3.14082 37.6111L3.54081 38.2411L4.67082 40.0411L2.79081 39.2611L2.81082 39.3311C2.85082 39.4411 2.85082 39.5511 2.91082 39.6611L3.06082 40.0011C3.10082 40.1111 3.19082 40.2211 3.25082 40.3311C3.33082 40.4411 3.38082 40.5611 3.47082 40.6611C3.64082 40.8711 3.79082 41.1011 3.98082 41.2911C4.16082 41.5011 4.35082 41.7011 4.56082 41.8911C4.75082 42.0911 4.97083 42.2711 5.18083 42.4611C5.39083 42.6511 5.62082 42.8211 5.83082 43.0011L6.80082 43.8111L5.54081 44.2311C5.41081 44.2711 5.39081 44.2911 5.40081 44.2911C5.40081 44.2911 5.37081 44.4111 5.40081 44.5811C5.46081 44.9211 5.66082 45.3611 5.89082 45.7411C5.95082 45.8411 6.01083 45.9311 6.07083 46.0211C6.14083 46.1311 6.17081 46.1711 6.26081 46.2811C6.40081 46.4411 6.58083 46.6211 6.74083 46.7911L6.99083 47.0511L7.26081 47.2811C7.44081 47.4311 7.61082 47.6011 7.81082 47.7411L8.40081 48.1511C8.59081 48.2911 8.81081 48.3811 9.01081 48.5111C9.22081 48.6311 9.43081 48.7411 9.65081 48.8311C9.87081 48.9211 10.0808 49.0211 10.3108 49.1111L10.9908 49.3311C11.2108 49.4211 11.4508 49.4511 11.6808 49.5111C11.9108 49.5711 12.1508 49.6211 12.3908 49.6511L13.1008 49.7611L13.7508 49.8611L13.6708 50.6111C13.6708 50.6111 13.6508 50.6911 13.6508 50.7411C13.6508 50.7811 13.6308 50.8511 13.6508 50.8611C13.6508 50.8711 13.6508 50.8911 13.6508 50.9011C13.6508 50.9211 13.6608 50.9711 13.6708 51.0111V51.0411V51.0611L13.7108 51.1411C13.7808 51.3711 13.9208 51.5811 14.0808 51.7911C14.4008 52.2011 14.8908 52.5311 15.4108 52.7911C16.4708 53.3311 17.7108 53.6111 18.9408 53.8011C19.5608 53.8911 20.1908 53.9611 20.8108 53.9911C21.4508 54.0211 22.0908 53.9911 22.7308 53.9911C23.3708 53.9611 24.0108 53.9511 24.6408 53.8811C25.2808 53.8411 25.9008 53.7411 26.5308 53.6511C26.8508 53.6111 27.1508 53.5211 27.4608 53.4611C27.7708 53.3911 28.0808 53.3311 28.3808 53.2311L29.2908 52.9611L30.1608 52.6211C30.3008 52.5611 30.4508 52.5111 30.6008 52.4511L31.0308 52.2311C31.3108 52.0911 31.6308 51.9411 31.8808 51.8011L32.7008 51.3111C32.9708 51.1511 33.2208 50.9511 33.4808 50.7711C33.7508 50.5911 33.9908 50.3911 34.2308 50.1811C34.4708 49.9711 34.7308 49.7811 34.9408 49.5411C35.1608 49.3111 35.3908 49.0911 35.6108 48.8511L36.2108 48.1011C36.4208 47.8511 36.5608 47.5611 36.7408 47.3011C36.8208 47.1611 36.9208 47.0311 37.0008 46.8911L37.2108 46.4611C37.5208 45.9011 37.6908 45.2611 37.8908 44.6511C37.7408 45.2811 37.6208 45.9211 37.3508 46.5211L37.1708 46.9811C37.1008 47.1311 37.0208 47.2711 36.9408 47.4111C36.7708 47.6911 36.6408 48.0011 36.4508 48.2611L35.8808 49.0611C35.6708 49.3111 35.4508 49.5611 35.2408 49.8111C35.0308 50.0711 34.7808 50.2811 34.5508 50.5211C34.3108 50.7511 34.0708 50.9811 33.8108 51.1811C33.5508 51.3811 33.3008 51.6111 33.0308 51.7911L32.2208 52.3511C31.9208 52.5411 31.6508 52.6811 31.3708 52.8511L30.9508 53.0911C30.8008 53.1611 30.6408 53.2311 30.4908 53.3011L29.5708 53.7111L28.6308 54.0311C28.3208 54.1511 28.0008 54.2311 27.6808 54.3111C27.3608 54.3911 27.0408 54.4911 26.7108 54.5511C26.0608 54.6711 25.4108 54.8011 24.7508 54.8611C24.0908 54.9611 23.4408 54.9811 22.7808 55.0411C22.1208 55.0611 21.4708 55.1011 20.8108 55.0911C20.1208 55.0911 19.4708 55.0311 18.8008 54.9611C18.1408 54.8811 17.4708 54.7611 16.8208 54.6011C16.1608 54.4411 15.5108 54.2211 14.8708 53.9211C14.2408 53.6111 13.6008 53.2211 13.1008 52.6311C12.8508 52.3311 12.6308 51.9911 12.5008 51.6011L12.4408 51.4611V51.4311L12.4208 51.4111C12.4308 51.4511 12.4008 51.3411 12.4008 51.3511L12.3908 51.2911C12.3908 51.2411 12.3708 51.2211 12.3708 51.1611V51.0111L12.2008 50.9911C11.9308 50.9711 11.6708 50.9011 11.4108 50.8411C11.1508 50.7711 10.8808 50.7311 10.6308 50.6411L9.86082 50.3911C9.61082 50.2911 9.36082 50.1811 9.11082 50.0811C8.86082 49.9811 8.62082 49.8611 8.38082 49.7211C8.15082 49.5911 7.90083 49.4811 7.68083 49.3211L7.01081 48.8611C6.79081 48.7011 6.59082 48.5111 6.38082 48.3411L6.07083 48.0811L5.79081 47.7911C5.60081 47.5911 5.42082 47.4111 5.22082 47.1911C5.15082 47.1111 5.03083 46.9411 4.96083 46.8411C4.88083 46.7311 4.80082 46.6111 4.73082 46.4911C4.59082 46.2511 4.45082 46.0011 4.33082 45.7411C4.21082 45.4711 4.11082 45.1911 4.05082 44.8611C4.00082 44.5411 3.95082 44.1211 4.20082 43.6611C4.22082 43.6211 4.25082 43.5811 4.28082 43.5411C4.05082 43.3411 3.82082 43.1411 3.61082 42.9211C3.39082 42.7111 3.17082 42.4811 2.97082 42.2411C2.76082 42.0111 2.57082 41.7511 2.38082 41.4911C2.28082 41.3711 2.21081 41.2211 2.12081 41.0811C2.04081 40.9411 1.94081 40.8111 1.87081 40.6511L1.66082 40.1811C1.58082 40.0311 1.56081 39.8411 1.51081 39.6711L1.45082 39.4111V39.3811H1.44082V39.3411V39.2511C1.44082 39.2111 1.44082 39.1611 1.44082 39.1211V39.0311C1.48082 38.7911 1.53082 38.5911 1.67082 38.3311C1.72082 38.2511 1.79082 38.1611 1.89082 38.0711C1.80082 37.9111 1.72082 37.7411 1.64082 37.5811C1.51082 37.3311 1.41082 37.0711 1.30082 36.8211C1.19082 36.5611 1.09081 36.3111 1.01081 36.0411C0.930814 35.7811 0.820814 35.5211 0.760814 35.2511L0.550823 34.4511L0.390819 33.6411C0.340819 33.3711 0.300814 33.1011 0.260814 32.8311C0.210814 32.5611 0.200818 32.2911 0.170818 32.0111L0.130824 31.6011L0.11082 31.2011C0.0908201 30.6411 0.0708262 30.0711 0.210826 29.4611C0.280826 29.1611 0.390816 28.8411 0.590816 28.5411C0.790816 28.2411 1.08082 27.9711 1.42082 27.8211C1.73082 27.7011 2.03082 27.6311 2.34082 27.6411C2.30082 27.5311 2.25082 27.4311 2.22082 27.3211C2.15082 27.1111 2.09081 26.8811 2.04081 26.6511C2.00081 26.4111 1.97082 26.1711 1.99082 25.9111C2.01082 25.6611 2.05082 25.3811 2.19082 25.1211C2.32082 24.8611 2.51082 24.6211 2.74082 24.4711L2.68083 24.4111Z" fill="#B06620"/>
<g style="mix-blend-mode:multiply">
<path d="M3.16088 28.2413C2.81088 28.1513 2.47089 28.1012 2.18089 28.1212C0.500889 28.2612 0.580889 30.1912 0.680889 31.5112C0.860889 33.9612 1.58088 36.5712 2.97088 38.6212C2.85088 38.5712 2.73088 38.5213 2.62088 38.4713C2.22088 38.2913 2.03089 38.9513 2.07089 39.2313C2.30089 40.7713 3.94088 42.4312 5.39088 43.5612C3.79088 43.8812 5.29088 46.2313 5.77088 46.7913C7.65089 48.9613 10.2309 50.1313 13.0209 50.4213C12.9409 50.6913 12.9409 51.0012 13.0109 51.2112C13.8109 53.9512 18.9009 54.5512 21.2409 54.5512C24.9809 54.5512 28.6709 54.1013 31.9509 52.1413C34.7209 50.4913 37.2009 47.9313 37.8609 44.6613C38.2809 42.5913 38.4009 39.8612 37.1109 38.0612C36.2909 35.8112 33.9109 34.1712 32.0409 32.9012C29.4309 31.1412 26.7809 29.4312 24.1509 27.7012C21.4609 25.9312 18.7309 24.6213 15.7909 23.3313C14.3909 22.7213 10.7809 21.1912 9.39088 22.3712C8.45088 23.1612 8.44089 24.1513 8.93089 25.1613C7.05089 24.2713 4.75089 23.6013 3.02088 24.7513C1.99089 25.4413 2.46087 26.9513 3.15087 28.2513L3.16088 28.2413ZM19.7909 27.7213C19.0209 27.3913 18.2309 27.1013 17.4309 26.8513C15.1909 26.3413 12.9209 26.0412 10.6409 25.7312C10.3809 25.6912 10.3109 25.3813 10.5009 25.2213C13.4209 22.6013 17.5809 25.2313 20.0609 27.2213C20.3109 27.4213 20.1009 27.8513 19.7909 27.7213ZM23.8209 47.1013C20.2909 46.7513 16.9609 44.8912 14.3009 42.5812C14.0509 42.3612 14.2609 41.9912 14.5809 42.0812C16.1109 42.5312 17.6309 42.7912 19.1609 42.9012C16.9209 41.8512 14.8909 40.0812 13.1809 38.4312C12.9709 38.2212 13.2609 37.8813 13.5109 37.9813C14.6009 38.4313 15.7009 38.7013 16.8309 38.8513C13.8109 37.2613 11.2409 34.2112 10.8709 31.1512C10.5609 28.6212 13.3309 28.7913 14.9809 29.2513C15.9109 29.5013 16.8409 29.7913 17.7709 30.1113C16.8609 29.4513 15.9509 28.8013 15.0509 28.1313C14.8609 27.9913 14.9109 27.6213 15.1809 27.6113C18.4309 27.5213 21.4109 28.9312 24.1909 30.4812C27.6909 32.4312 31.1009 34.6012 33.9909 37.4012C35.7109 39.0712 36.7209 41.2013 36.7009 43.4413C36.7909 43.4913 36.8509 43.5812 36.8309 43.7112C36.7709 44.2012 36.6609 44.6712 36.4909 45.1112C36.3909 45.5412 36.2509 45.9613 36.0709 46.3913C34.9309 49.0613 32.3809 51.4213 29.3309 51.1413C29.0909 51.1213 28.9809 50.7913 29.1709 50.6413C25.5809 51.4313 22.3209 49.5913 19.8109 47.1313C19.5909 46.9113 19.9009 46.6112 20.1409 46.6812C21.3709 47.0612 22.6109 47.2012 23.8409 47.0812L23.8209 47.1013ZM5.84088 35.6313C7.44088 37.9313 8.95088 40.1813 11.1109 42.0013C13.1509 43.7213 15.5509 44.9613 17.8009 46.3513C18.0109 46.4813 17.9209 46.7513 17.7409 46.8513C13.8109 48.9713 9.24089 44.4812 7.43089 41.0512C6.32089 39.4712 5.44088 37.6212 5.33088 35.8412C5.31088 35.5712 5.67088 35.3712 5.84088 35.6212V35.6313ZM5.22088 26.9212C7.80088 28.3012 9.51088 30.5612 10.0909 33.4312C10.1409 33.6612 9.82088 33.8712 9.64088 33.7012C8.84088 32.9712 8.13088 32.1813 7.50088 31.3313C6.37088 30.1813 5.50088 28.6412 4.86088 27.2912C4.76088 27.0812 5.01088 26.7913 5.23088 26.9113L5.22088 26.9212Z" fill="#F8D362"/>
</g>
<path d="M55.6608 89.2412C55.1608 88.7312 52.9208 88.1813 52.9008 87.5413C52.7208 82.3713 55.6708 75.8913 56.6208 74.5713C57.5708 73.2513 48.5108 73.0312 48.5108 73.0312C48.5108 73.0312 47.8408 86.7312 46.7208 87.0612C45.4708 87.4312 44.3508 86.6512 43.1508 86.4312C42.1208 86.2412 41.0408 86.1513 40.0008 86.1613C38.8808 86.1613 37.7608 86.2912 36.6608 86.5212C35.9308 86.6812 34.3108 86.8912 33.9308 87.6812C33.6708 88.2212 34.5208 88.2912 34.8408 88.3312C35.7508 88.4412 36.6908 88.4213 37.6108 88.5013C38.6608 88.6013 39.7108 88.7513 40.7408 88.9713C41.1108 89.0513 41.4808 89.1413 41.8408 89.2513C39.7908 89.7313 37.7608 90.7212 36.0208 91.9012C35.2108 92.4512 34.5108 93.1312 33.9108 93.9012C33.5808 94.3212 32.9408 95.1713 33.2108 95.7513C33.5008 96.3713 34.5208 95.9612 34.9708 95.8112C36.1108 95.4212 37.2408 94.9012 38.3508 94.4312C40.4108 93.5412 42.6908 92.2712 45.0208 92.7412C46.1508 92.9712 46.4008 93.8913 46.4408 94.9113C46.4808 96.1113 46.2908 97.3213 46.1108 98.5013C46.0008 99.2113 46.0708 100.571 46.9808 100.501C47.5608 100.461 48.1908 99.6712 48.5208 99.2712C49.8708 97.6212 50.8708 95.7613 51.1708 93.6313C51.2908 92.7413 50.8208 91.5112 52.1408 91.4012C53.3408 91.3012 54.9008 92.8812 55.8308 93.4612C57.2408 94.3312 60.3308 93.9712 55.6508 89.2412H55.6608Z" fill="#EF8E21"/>
<g style="mix-blend-mode:multiply" opacity="0.4">
<path d="M55.6608 89.2412C55.1608 88.7312 52.9208 88.1813 52.9008 87.5413C52.7208 82.3713 55.6708 75.8913 56.6208 74.5713C57.5708 73.2513 48.5108 73.0312 48.5108 73.0312C48.5108 73.0312 47.8408 86.7312 46.7208 87.0612C46.0308 87.2612 45.3808 87.1213 44.7408 86.9113C44.7408 86.9113 44.7408 86.9113 44.7408 86.9213C45.0408 87.2513 45.3108 88.2212 44.8108 88.5212C44.4708 88.7212 43.8208 88.5912 43.4808 88.5212C42.3308 88.2612 41.2508 87.7713 40.0508 87.7313C38.1608 87.6713 36.3208 87.9512 34.4708 88.2712C34.6208 88.3012 34.7608 88.3212 34.8508 88.3312C35.7608 88.4412 36.7008 88.4213 37.6208 88.5013C38.6708 88.6013 39.7208 88.7513 40.7508 88.9713C41.0708 89.0413 41.3808 89.1212 41.6908 89.2112C42.6908 89.1212 43.6808 89.2612 44.5708 89.8012C44.8208 89.9512 44.7108 90.3212 44.4208 90.3412C41.9808 90.4712 39.7708 91.5013 37.6608 92.6713C36.1908 93.4913 34.3508 94.4712 33.5708 96.0512C34.0008 96.1712 34.6408 95.9313 34.9708 95.8213C36.1108 95.4313 37.2408 94.9113 38.3508 94.4413C40.4108 93.5513 42.6908 92.2813 45.0208 92.7513C45.8208 92.9113 46.1808 93.4213 46.3308 94.0713C46.3408 93.9413 46.3508 93.8112 46.3608 93.6812C46.4108 92.9312 46.3808 92.0512 46.6908 91.3612C47.1908 90.2212 48.2308 90.8313 48.5408 91.7513C49.4208 94.3213 49.2608 98.5813 47.0008 100.501C47.5808 100.441 48.1908 99.6712 48.5108 99.2812C49.8608 97.6313 50.8608 95.7713 51.1608 93.6413C51.2308 93.1313 51.1108 92.5112 51.2408 92.0512C51.0908 91.1812 51.6008 90.3913 52.3608 90.0413C52.3908 89.9413 52.4508 89.8612 52.5608 89.8312C54.7008 89.3912 57.0008 91.6813 57.6108 93.7613C58.4608 93.4613 58.5908 92.2113 55.6508 89.2513L55.6608 89.2412Z" fill="#EF8E21"/>
</g>
<g style="mix-blend-mode:multiply" opacity="0.4">
<path d="M50.7708 80.401C51.9208 80.891 52.3708 81.841 52.5508 83.021C52.6908 83.951 52.5608 85.171 52.9208 86.111C53.2308 81.241 55.7508 75.761 56.6208 74.561C57.5708 73.241 48.5108 73.021 48.5108 73.021C48.5108 73.021 48.2808 77.781 47.8608 81.751C48.5808 80.671 49.5809 79.881 50.7809 80.391L50.7708 80.401Z" fill="#EF8E21"/>
</g>
<g style="mix-blend-mode:multiply">
<path d="M36.1907 94.2709C35.8007 93.6809 35.0207 93.3809 34.3607 93.6809C34.3107 93.7009 34.2507 93.8109 34.3507 93.8109C34.6407 93.8009 34.9007 93.8109 35.1807 93.9109C35.4907 94.0309 35.6407 94.3009 35.9107 94.4609C36.0007 94.5109 36.2707 94.4009 36.1907 94.2709Z" fill="#F8C500"/>
</g>
<g style="mix-blend-mode:multiply">
<path d="M38.2009 92.9712C38.0209 92.2112 36.9909 91.8012 36.2809 91.9712C36.2309 91.9812 36.1009 92.0712 36.2009 92.1212C36.5309 92.2812 36.9009 92.2812 37.2309 92.4512C37.4109 92.5412 37.5609 92.6612 37.6709 92.8312C37.7809 93.0012 37.8009 93.0512 37.9709 93.1312C38.0409 93.1612 38.2309 93.0712 38.2109 92.9712H38.2009Z" fill="#F8C500"/>
</g>
<g style="mix-blend-mode:multiply">
<path d="M40.4708 91.9311C40.3708 91.5511 40.2208 91.2911 39.9008 91.0611C39.7008 90.9211 39.4808 90.8211 39.2408 90.7711C39.0708 90.7211 38.8708 90.7711 38.6908 90.7511C38.6408 90.7511 38.5308 90.8411 38.6108 90.8611C38.7208 90.8911 38.8208 90.9011 38.9308 90.9111C39.2108 90.9311 39.4208 91.1211 39.6408 91.2711C39.7908 91.3711 39.9008 91.5111 39.9808 91.6711C40.0608 91.8411 40.0608 91.9611 40.2008 92.0911C40.2808 92.1611 40.5008 92.0511 40.4708 91.9411V91.9311Z" fill="#F8C500"/>
</g>
<g style="mix-blend-mode:multiply">
<path d="M43.3208 91.1309C43.0508 90.6309 42.8608 90.2909 42.3608 90.0009C41.8508 89.7109 41.4208 89.7309 40.8808 89.8009C40.8108 89.8009 40.6908 89.9409 40.8108 89.9509C41.3208 90.0109 41.7308 90.0609 42.1708 90.3609C42.3908 90.5109 42.5508 90.7009 42.6608 90.9409C42.7408 91.1209 42.7708 91.2709 42.9408 91.4009C43.0608 91.5009 43.4108 91.3109 43.3208 91.1509V91.1309Z" fill="#F8C500"/>
</g>
<g style="mix-blend-mode:multiply">
<path d="M45.7608 90.1708C45.7908 89.7708 45.4408 89.4508 45.1308 89.2508C44.9108 89.1108 44.6507 89.0208 44.4107 88.9608C44.1107 88.8908 43.8708 88.9608 43.5708 88.9608C43.4908 88.9608 43.2908 89.1308 43.4308 89.1608C43.8808 89.2508 44.2307 89.2508 44.6607 89.4908C45.0507 89.7008 45.1108 90.0408 45.3208 90.3708C45.4308 90.5608 45.7508 90.3308 45.7608 90.1708Z" fill="#F8C500"/>
</g>
<g style="mix-blend-mode:multiply">
<path d="M48.0807 98.7012C47.9907 98.4812 47.6807 98.4312 47.4707 98.3912C47.1907 98.3412 46.9107 98.4412 46.6507 98.5412C46.5507 98.5812 46.4407 98.7812 46.6307 98.7412C46.8207 98.7112 47.0007 98.7012 47.1807 98.7212C47.4107 98.7412 47.5907 98.9112 47.8207 98.9312C47.9307 98.9312 48.1207 98.8212 48.0707 98.6912L48.0807 98.7012Z" fill="#F8C500"/>
</g>
<g style="mix-blend-mode:multiply">
<path d="M48.3107 96.9309C48.2007 96.7409 47.8007 96.7109 47.6007 96.7309C47.3107 96.7509 47.0807 96.7909 46.8407 96.9709C46.7407 97.0409 46.8007 97.1509 46.9107 97.1109C47.1007 97.0409 47.2607 97.0309 47.4607 97.0409C47.7007 97.0409 47.8707 97.2009 48.1107 97.1409C48.1807 97.1209 48.3507 97.0409 48.2907 96.9409L48.3107 96.9309Z" fill="#F8C500"/>
</g>
<g style="mix-blend-mode:multiply">
<path d="M48.4909 95.1709C48.4609 94.8209 47.9109 94.9509 47.6909 94.9409C47.5109 94.9309 47.2009 94.9809 47.1609 95.2009C47.1409 95.3009 47.2809 95.2609 47.3209 95.2209C47.4209 95.1509 47.5709 95.2208 47.6809 95.2408C47.7809 95.2408 47.8809 95.2609 47.9709 95.2909C48.0309 95.3009 48.0909 95.3709 48.1609 95.3909C48.2809 95.4409 48.5109 95.3009 48.5009 95.1709H48.4909Z" fill="#F8C500"/>
</g>
<g style="mix-blend-mode:multiply">
<path d="M48.6507 92.731C48.6507 92.371 47.9907 92.471 47.7907 92.551C47.5507 92.641 47.2207 92.861 47.1707 93.131C47.1407 93.281 47.3907 93.191 47.4307 93.111C47.6307 92.711 48.1207 92.971 48.4307 92.941C48.5307 92.941 48.6607 92.841 48.6607 92.731H48.6507Z" fill="#F8C500"/>
</g>
<g style="mix-blend-mode:multiply">
<path d="M54.5708 89.131C54.3808 89.201 54.1908 89.201 54.0008 89.271C53.8308 89.341 53.6608 89.401 53.5208 89.531C53.3408 89.701 53.0408 90.151 53.1908 90.411C53.2408 90.491 53.3908 90.421 53.4308 90.371C53.5908 90.181 53.6008 89.931 53.7208 89.711C53.8708 89.431 54.3508 89.411 54.6008 89.271C54.6908 89.211 54.6908 89.091 54.5608 89.131H54.5708Z" fill="#F8C500"/>
</g>
<g style="mix-blend-mode:multiply">
<path d="M55.6809 90.2611C55.5609 90.2911 55.431 90.2811 55.311 90.3211C55.191 90.3711 55.0609 90.4611 54.9609 90.5411C54.7209 90.7411 54.5709 91.1311 54.5409 91.4211C54.5109 91.6411 54.8509 91.4811 54.8909 91.3611C54.9709 91.1511 55.001 90.9311 55.121 90.7411C55.241 90.5211 55.4609 90.5111 55.6709 90.4311C55.7709 90.4011 55.8509 90.2111 55.6909 90.2511L55.6809 90.2611Z" fill="#F8C500"/>
</g>
<g style="mix-blend-mode:multiply">
<path d="M56.3609 91.731C56.0309 91.831 55.7309 92.1509 55.6309 92.4709C55.6109 92.5409 55.6709 92.5809 55.7309 92.5909C55.7309 92.5909 55.7509 92.5909 55.7609 92.5909C55.7609 92.5909 55.7709 92.5909 55.7909 92.5909C55.7909 92.5909 55.8009 92.5909 55.8109 92.5909C55.8109 92.5909 55.8109 92.5909 55.8209 92.5909C55.8409 92.5909 55.8609 92.5709 55.8709 92.5609C55.8709 92.5609 55.8809 92.5609 55.8909 92.5509C55.9009 92.5509 55.9209 92.5309 55.9309 92.5209C55.9909 92.4509 56.0209 92.371 56.0609 92.291C56.1409 92.151 56.2309 92.0009 56.3909 91.9309C56.5109 91.8709 56.4909 91.7209 56.3409 91.7709L56.3609 91.731Z" fill="#F8C500"/>
</g>
<g style="mix-blend-mode:multiply">
<path d="M56.7109 92.5311C56.6209 92.5411 56.5309 92.6111 56.5009 92.6911C56.5209 92.6511 56.5009 92.6911 56.4909 92.6911C56.4909 92.7111 56.4709 92.7211 56.4609 92.7411C56.4309 92.7811 56.4209 92.8211 56.4109 92.8611C56.4109 92.8911 56.4109 92.9311 56.4309 92.9511C56.5409 93.0211 56.6809 92.9511 56.7409 92.8411C56.7609 92.8111 56.7609 92.7711 56.7909 92.7311C56.8209 92.6911 56.8409 92.6611 56.8509 92.6211C56.8809 92.5311 56.7809 92.5011 56.7109 92.5111V92.5311Z" fill="#F8C500"/>
</g>
<g style="mix-blend-mode:multiply">
<path d="M35.6207 87.1811C35.5407 87.0211 35.4307 86.9111 35.2507 86.8911C35.2007 86.8911 35.0407 86.9811 35.1307 87.0311C35.2307 87.0911 35.2907 87.2311 35.3407 87.3411C35.3907 87.4711 35.4007 87.6211 35.4607 87.7411C35.5107 87.8411 35.7307 87.7311 35.7407 87.6411C35.7607 87.4811 35.6907 87.3211 35.6207 87.1811Z" fill="#F8C500"/>
</g>
<g style="mix-blend-mode:multiply">
<path d="M37.4108 86.9812C37.3608 86.7912 37.2008 86.6412 37.0108 86.6012C36.9508 86.5912 36.7508 86.7112 36.8508 86.7512C37.0408 86.8512 37.0508 87.0312 37.0708 87.2112C37.0908 87.3312 37.0808 87.4612 37.0708 87.5812C37.0708 87.6912 37.0408 87.7812 37.1108 87.8812C37.1808 87.9812 37.3508 87.8812 37.3908 87.8012C37.5308 87.5712 37.4808 87.2212 37.4108 86.9712V86.9812Z" fill="#F8C500"/>
</g>
<g style="mix-blend-mode:multiply">
<path d="M39.9408 87.0009C39.8708 86.7109 39.6808 86.5809 39.4808 86.3909C39.4208 86.3409 39.2508 86.4409 39.3008 86.5109C39.4208 86.7209 39.5308 86.8909 39.5908 87.1209C39.6508 87.3609 39.5208 87.5709 39.5508 87.8009C39.5708 87.9609 39.8208 87.8209 39.8608 87.7509C39.9908 87.5309 40.0008 87.2409 39.9408 87.0009Z" fill="#F8C500"/>
</g>
<g style="mix-blend-mode:multiply">
<path d="M42.3008 87.1508C42.2108 86.8808 42.0208 86.6908 41.8308 86.4908C41.7708 86.4308 41.5907 86.5408 41.6307 86.6208C41.7707 86.8508 41.8908 87.0408 41.9308 87.3108C41.9708 87.5608 41.8907 87.8108 41.9507 88.0508C42.0007 88.2408 42.2807 88.0709 42.3207 87.9509C42.4207 87.6909 42.3808 87.4009 42.3008 87.1409V87.1508Z" fill="#F8C500"/>
</g>
<g style="mix-blend-mode:multiply">
<path d="M43.2508 87.3607C43.2308 87.2707 43.2008 87.1808 43.1608 87.0908C43.1108 86.9808 42.8608 87.1108 42.8808 87.2108C42.9008 87.3008 42.9008 87.3908 42.9008 87.4808C42.9008 87.5408 42.8808 87.5908 42.9108 87.6408C42.9408 87.7008 43.0308 87.7008 43.0808 87.6808C43.1508 87.6508 43.2108 87.5907 43.2408 87.5207C43.2608 87.4607 43.2508 87.4207 43.2408 87.3607H43.2508Z" fill="#F8C500"/>
</g>
<g style="mix-blend-mode:multiply">
<path d="M44.3607 87.3409C44.3407 87.2909 44.3608 87.2609 44.3008 87.2209C44.2508 87.1809 44.1607 87.2209 44.1107 87.2509C44.1107 87.2509 44.1008 87.2609 44.0908 87.2709C44.0408 87.3009 44.0107 87.3409 44.0107 87.4009C44.0107 87.4409 44.0107 87.4809 44.0407 87.5109C44.1307 87.6409 44.4007 87.4809 44.3507 87.3409H44.3607Z" fill="#F8C500"/>
</g>
<path d="M83.9509 86.3511C83.3009 86.0511 81.0209 86.3111 80.7709 85.7211C78.8009 80.9311 79.3209 73.8311 79.7509 72.2611C80.1809 70.6911 71.6109 73.6411 71.6109 73.6411C71.6109 73.6411 75.7409 86.7111 74.8109 87.4111C73.7709 88.1911 72.4409 87.8611 71.2409 88.0611C70.2109 88.2311 69.1709 88.531 68.1909 88.901C67.1409 89.301 66.1309 89.801 65.1909 90.401C64.5609 90.801 63.1109 91.561 63.0309 92.431C62.9709 93.021 63.8009 92.8011 64.1109 92.7211C65.0109 92.5111 65.8809 92.1611 66.7709 91.9211C67.7909 91.6411 68.8309 91.421 69.8709 91.271C70.2509 91.211 70.6209 91.181 71.0009 91.151C71.0009 91.151 71.0009 91.151 70.9909 91.151C69.2409 92.311 67.6809 93.941 66.4609 95.651C65.8909 96.441 65.4709 97.3311 65.1809 98.2611C65.0209 98.7711 64.7109 99.781 65.1709 100.241C65.6509 100.721 66.4709 99.981 66.8409 99.681C67.7709 98.921 68.6509 98.041 69.5209 97.211C71.1409 95.661 72.8309 93.6811 75.1909 93.3111C76.3309 93.1311 76.8909 93.9111 77.2709 94.8511C77.7309 95.9611 77.9709 97.161 78.2109 98.331C78.3509 99.041 78.8909 100.281 79.7209 99.901C80.2509 99.661 80.5709 98.711 80.7309 98.211C81.4209 96.191 81.7209 94.1011 81.2609 92.0011C81.0709 91.1211 80.2009 90.1311 81.3909 89.5711C82.4809 89.0611 84.4909 90.001 85.5609 90.211C87.1809 90.541 89.9609 89.1211 83.9309 86.3211L83.9509 86.3511Z" fill="#EF8E21"/>
<g style="mix-blend-mode:multiply" opacity="0.4">
<path d="M83.951 86.3511C83.301 86.0511 81.021 86.3111 80.771 85.7211C78.801 80.9311 79.321 73.8311 79.751 72.2611C80.181 70.6911 71.611 73.6411 71.611 73.6411C71.611 73.6411 75.741 86.7111 74.811 87.4111C74.241 87.8411 73.581 87.931 72.901 87.961C73.301 88.171 73.891 88.9911 73.521 89.4411C73.271 89.7511 72.621 89.851 72.271 89.901C71.101 90.061 69.921 89.9711 68.791 90.3511C67.001 90.9511 65.361 91.8511 63.741 92.7911C63.891 92.7711 64.021 92.731 64.121 92.711C65.021 92.501 65.891 92.1511 66.781 91.9111C67.801 91.6311 68.841 91.4111 69.881 91.2611C70.201 91.2111 70.531 91.1811 70.851 91.1611C71.761 90.7311 72.741 90.511 73.761 90.711C74.051 90.771 74.071 91.1511 73.811 91.2611C71.571 92.2311 69.851 93.971 68.281 95.801C67.181 97.081 65.801 98.6411 65.621 100.391C66.071 100.361 66.581 99.901 66.851 99.681C67.781 98.921 68.661 98.041 69.531 97.211C71.151 95.661 72.841 93.6811 75.201 93.3111C76.001 93.1811 76.521 93.5411 76.891 94.0911C76.851 93.9611 76.821 93.8411 76.781 93.7211C76.571 93.0111 76.241 92.191 76.281 91.431C76.351 90.191 77.541 90.401 78.151 91.151C79.871 93.251 81.201 97.3111 79.751 99.8911C80.271 99.6311 80.581 98.7011 80.741 98.2211C81.431 96.2011 81.731 94.1111 81.271 92.0111C81.161 91.5111 80.831 90.9711 80.791 90.5011C80.341 89.7411 80.541 88.8111 81.141 88.2211C81.131 88.1211 81.161 88.021 81.251 87.961C83.101 86.801 86.051 88.1511 87.351 89.8911C88.041 89.3111 87.7309 88.101 83.9409 86.331L83.951 86.3511Z" fill="#EF8E21"/>
</g>
<g style="mix-blend-mode:multiply" opacity="0.4">
<path d="M76.3109 79.7708C77.5509 79.8308 78.3108 80.5608 78.8908 81.6108C79.3508 82.4408 79.6509 83.6208 80.3109 84.3808C78.9109 79.7108 79.3708 73.7008 79.7608 72.2708C80.1908 70.7008 71.6208 73.6508 71.6208 73.6508C71.6208 73.6508 73.0608 78.1908 74.0408 82.0608C74.3308 80.8008 75.0009 79.7108 76.3109 79.7808V79.7708Z" fill="#EF8E21"/>
</g>
<g style="mix-blend-mode:multiply">
<path d="M67.4508 97.841C66.8708 97.421 66.0508 97.411 65.5308 97.921C65.4908 97.961 65.4808 98.081 65.5608 98.041C65.8308 97.931 66.0708 97.841 66.3708 97.851C66.7008 97.851 66.9408 98.061 67.2508 98.111C67.3508 98.121 67.5708 97.931 67.4508 97.841Z" fill="#F8C500"/>
</g>
<g style="mix-blend-mode:multiply">
<path d="M68.8809 95.9209C68.4409 95.2709 67.3409 95.2409 66.7309 95.6509C66.6909 95.6809 66.5909 95.8109 66.7009 95.8209C67.0609 95.8509 67.4109 95.7209 67.7809 95.7709C67.9809 95.7909 68.1609 95.8509 68.3209 95.9709C68.4809 96.0809 68.5109 96.1309 68.7109 96.1509C68.7909 96.1509 68.9309 96.0009 68.8809 95.9209Z" fill="#F8C500"/>
</g>
<g style="mix-blend-mode:multiply">
<path d="M70.6609 94.1608C70.4309 93.8408 70.2009 93.6508 69.8209 93.5408C69.5909 93.4808 69.3409 93.4608 69.1009 93.4908C68.9209 93.5108 68.7509 93.6208 68.5709 93.6608C68.5209 93.6608 68.4509 93.8008 68.5309 93.7908C68.6409 93.7808 68.7409 93.7608 68.8509 93.7208C69.1209 93.6508 69.3809 93.7408 69.6409 93.8108C69.8209 93.8508 69.9709 93.9408 70.1009 94.0708C70.2409 94.2008 70.2709 94.3208 70.4509 94.3808C70.5409 94.4108 70.7209 94.2309 70.6609 94.1409V94.1608Z" fill="#F8C500"/>
</g>
<g style="mix-blend-mode:multiply">
<path d="M73.0508 92.421C72.6308 92.051 72.3308 91.791 71.7608 91.701C71.1808 91.601 70.7908 91.771 70.3008 92.021C70.2408 92.051 70.1708 92.221 70.3008 92.181C70.8008 92.061 71.2008 91.961 71.7208 92.081C71.9808 92.141 72.1908 92.271 72.3808 92.451C72.5208 92.591 72.6008 92.721 72.8008 92.781C72.9508 92.831 73.2108 92.531 73.0708 92.411L73.0508 92.421Z" fill="#F8C500"/>
</g>
<g style="mix-blend-mode:multiply">
<path d="M75.001 90.6712C74.891 90.2912 74.451 90.1012 74.091 90.0312C73.841 89.9812 73.561 89.9812 73.311 90.0112C73.011 90.0412 72.811 90.2012 72.521 90.3012C72.451 90.3212 72.311 90.5612 72.451 90.5312C72.911 90.4612 73.241 90.3412 73.721 90.4112C74.161 90.4712 74.331 90.7712 74.651 91.0112C74.821 91.1412 75.041 90.8212 75.001 90.6712Z" fill="#F8C500"/>
</g>
<g style="mix-blend-mode:multiply">
<path d="M80.1409 97.8609C79.9809 97.6809 79.6809 97.741 79.4609 97.781C79.1809 97.831 78.951 98.021 78.751 98.201C78.671 98.271 78.6409 98.501 78.8009 98.401C78.9609 98.301 79.131 98.241 79.311 98.191C79.541 98.131 79.7609 98.221 79.9809 98.161C80.0809 98.131 80.2309 97.9609 80.1309 97.8609H80.1409Z" fill="#F8C500"/>
</g>
<g style="mix-blend-mode:multiply">
<path d="M79.741 96.1209C79.581 95.9709 79.191 96.0909 79.011 96.1709C78.741 96.2909 78.551 96.4109 78.391 96.6609C78.321 96.7609 78.411 96.8409 78.501 96.7609C78.651 96.6309 78.801 96.5709 78.991 96.5009C79.221 96.4309 79.441 96.5009 79.641 96.3709C79.701 96.3309 79.831 96.2009 79.741 96.1209Z" fill="#F8C500"/>
</g>
<g style="mix-blend-mode:multiply">
<path d="M79.301 94.4013C79.151 94.0913 78.681 94.4013 78.471 94.4613C78.301 94.5113 78.021 94.6713 78.061 94.8913C78.081 94.9913 78.191 94.9113 78.221 94.8613C78.281 94.7613 78.461 94.7813 78.561 94.7513C78.651 94.7313 78.751 94.7013 78.841 94.7013C78.901 94.7013 78.991 94.7313 79.051 94.7313C79.181 94.7313 79.351 94.5313 79.291 94.4013H79.301Z" fill="#F8C500"/>
</g>
<g style="mix-blend-mode:multiply">
<path d="M78.6009 92.0613C78.4709 91.7313 77.8909 92.0513 77.7309 92.1913C77.5309 92.3613 77.3109 92.6813 77.3509 92.9513C77.3709 93.1113 77.581 92.9313 77.591 92.8513C77.641 92.4013 78.1809 92.4813 78.4709 92.3413C78.5609 92.3013 78.651 92.1613 78.611 92.0613H78.6009Z" fill="#F8C500"/>
</g>
<g style="mix-blend-mode:multiply">
<path d="M82.9109 86.6309C82.7509 86.7609 82.5809 86.8309 82.4209 86.9609C82.2809 87.0809 82.1409 87.2009 82.0609 87.3709C81.9509 87.6009 81.8309 88.1209 82.0609 88.3109C82.1409 88.3709 82.2509 88.2509 82.2709 88.1909C82.3609 87.9609 82.2709 87.7209 82.3109 87.4809C82.3609 87.1609 82.8009 86.9809 82.9909 86.7509C83.0609 86.6609 83.0109 86.5509 82.9109 86.6409V86.6309Z" fill="#F8C500"/>
</g>
<g style="mix-blend-mode:multiply">
<path d="M84.331 87.3109C84.231 87.3809 84.101 87.4209 84.001 87.5009C83.901 87.5809 83.811 87.7109 83.751 87.8209C83.601 88.0909 83.591 88.5109 83.661 88.8009C83.711 89.0109 83.971 88.7509 83.971 88.6209C83.971 88.3909 83.931 88.1809 83.971 87.9609C84.011 87.7109 84.211 87.6209 84.381 87.4809C84.461 87.4209 84.471 87.2109 84.331 87.3009V87.3109Z" fill="#F8C500"/>
</g>
<g style="mix-blend-mode:multiply">
<path d="M85.4808 88.4511C85.2108 88.6611 85.0308 89.0611 85.0508 89.4011C85.0508 89.4711 85.1208 89.5011 85.1908 89.4811C85.1908 89.4811 85.2108 89.4711 85.2208 89.4611C85.2208 89.4611 85.2308 89.4611 85.2508 89.4411C85.2508 89.4411 85.2608 89.4411 85.2708 89.4311C85.2908 89.4111 85.3008 89.4011 85.3108 89.3811C85.3108 89.3811 85.3108 89.3711 85.3208 89.3611C85.3208 89.3511 85.3408 89.3311 85.3408 89.3211C85.3408 89.3211 85.3408 89.3211 85.3408 89.3111C85.3708 89.2311 85.3708 89.1411 85.3808 89.0511C85.4008 88.8911 85.4408 88.7211 85.5608 88.5911C85.6608 88.4911 85.5908 88.3611 85.4608 88.4511H85.4808Z" fill="#F8C500"/>
</g>
<g style="mix-blend-mode:multiply">
<path d="M86.0909 89.0711C86.0109 89.1211 85.9509 89.2011 85.9509 89.3011C85.9509 89.2611 85.9509 89.3011 85.9509 89.3111C85.9509 89.3311 85.9508 89.3411 85.9408 89.3611C85.9308 89.4011 85.9308 89.4511 85.9408 89.5011C85.9408 89.5311 85.9609 89.5711 85.9909 89.5711C86.1209 89.5911 86.2209 89.4811 86.2409 89.3611C86.2409 89.3211 86.2409 89.2911 86.2409 89.2511C86.2509 89.2111 86.2609 89.1711 86.2609 89.1211C86.2609 89.0311 86.1509 89.0411 86.1009 89.0711H86.0909Z" fill="#F8C500"/>
</g>
<g style="mix-blend-mode:multiply">
<path d="M64.4608 91.3913C64.3308 91.2713 64.1908 91.2013 64.0208 91.2413C63.9708 91.2513 63.8608 91.4013 63.9508 91.4213C64.0608 91.4413 64.1708 91.5613 64.2508 91.6413C64.3508 91.7413 64.4008 91.8813 64.5108 91.9813C64.6008 92.0613 64.7608 91.8713 64.7408 91.7913C64.7008 91.6313 64.5808 91.5113 64.4708 91.4013L64.4608 91.3913Z" fill="#F8C500"/>
</g>
<g style="mix-blend-mode:multiply">
<path d="M66.0609 90.5812C65.9409 90.4312 65.7409 90.3412 65.5509 90.3612C65.4909 90.3612 65.3409 90.5512 65.4509 90.5612C65.6609 90.5812 65.7308 90.7612 65.8208 90.9212C65.8808 91.0312 65.9209 91.1512 65.9609 91.2612C65.9909 91.3712 66.0008 91.4512 66.1008 91.5212C66.2008 91.5912 66.3209 91.4412 66.3409 91.3512C66.3909 91.0812 66.2208 90.7712 66.0708 90.5612L66.0609 90.5812Z" fill="#F8C500"/>
</g>
<g style="mix-blend-mode:multiply">
<path d="M68.4408 89.7211C68.2808 89.4711 68.0608 89.4211 67.8008 89.3111C67.7308 89.2811 67.6108 89.4311 67.6708 89.4811C67.8608 89.6311 68.0108 89.7511 68.1508 89.9511C68.2908 90.1511 68.2408 90.4011 68.3508 90.6011C68.4308 90.7411 68.6108 90.5311 68.6308 90.4411C68.6808 90.1911 68.5808 89.9111 68.4408 89.7111V89.7211Z" fill="#F8C500"/>
</g>
<g style="mix-blend-mode:multiply">
<path d="M70.7009 89.0411C70.5309 88.8211 70.2809 88.7111 70.0309 88.5911C69.9609 88.5611 69.8209 88.7211 69.8909 88.7811C70.1009 88.9511 70.2809 89.0911 70.4109 89.3311C70.5309 89.5511 70.5509 89.8211 70.6909 90.0211C70.8009 90.1911 71.0109 89.9211 71.0109 89.8011C71.0109 89.5211 70.8709 89.2611 70.7109 89.0511L70.7009 89.0411Z" fill="#F8C500"/>
</g>
<g style="mix-blend-mode:multiply">
<path d="M71.671 88.9109C71.621 88.8309 71.561 88.7509 71.491 88.6909C71.401 88.6109 71.221 88.8108 71.281 88.9008C71.331 88.9808 71.361 89.0608 71.391 89.1508C71.411 89.2008 71.411 89.2608 71.461 89.3008C71.511 89.3408 71.591 89.3009 71.641 89.2809C71.701 89.2309 71.741 89.1508 71.741 89.0808C71.741 89.0208 71.711 88.9808 71.681 88.9308L71.671 88.9109Z" fill="#F8C500"/>
</g>
<g style="mix-blend-mode:multiply">
<path d="M72.7009 88.511C72.7009 88.511 72.6709 88.4309 72.6109 88.4109C72.5509 88.4009 72.4809 88.451 72.4509 88.511C72.4509 88.511 72.4509 88.5209 72.4509 88.5309C72.4209 88.5809 72.4009 88.6309 72.4209 88.6809C72.4309 88.7209 72.4509 88.7509 72.4909 88.7809C72.6209 88.8709 72.8109 88.631 72.7209 88.511H72.7009Z" fill="#F8C500"/>
</g>
<path d="M62.9109 67.9612C63.1609 65.0512 62.0309 62.1212 59.3809 60.6712C56.4909 59.0912 52.5409 59.1712 49.7809 60.9912C48.2709 61.9912 47.0209 63.4512 46.4709 65.2012C46.2109 66.0412 46.1809 66.8412 46.1509 67.7112C46.1509 67.7512 46.1509 67.7812 46.1509 67.8212C46.3509 69.3812 45.8909 77.9712 47.3709 78.8112C47.8509 79.0812 48.3609 78.5712 48.7109 78.2212C48.7109 78.8012 48.8909 79.3612 49.4709 79.4512C50.1009 79.5412 50.6609 79.2212 51.1609 78.8512C51.0509 79.0712 51.9209 81.0412 53.6209 80.2212C59.6109 77.3412 62.7709 69.8312 62.9309 67.9812L62.9109 67.9612Z" fill="#F2A643"/>
<g style="mix-blend-mode:multiply" opacity="0.5">
<path d="M62.9109 67.9612C63.1609 65.0512 62.0309 62.1212 59.3809 60.6712C56.4909 59.0912 52.5409 59.1712 49.7809 60.9912C48.2709 61.9912 47.0209 63.4512 46.4709 65.2012C46.2109 66.0412 46.1809 66.8412 46.1509 67.7112C46.1509 67.7512 46.1509 67.7812 46.1509 67.8212C46.3509 69.3812 45.8909 77.9712 47.3709 78.8112C47.8509 79.0812 48.3609 78.5712 48.7109 78.2212C48.7109 78.8012 48.8909 79.3612 49.4709 79.4512C50.1009 79.5412 50.6609 79.2212 51.1609 78.8512C51.0509 79.0712 51.9209 81.0412 53.6209 80.2212C59.6109 77.3412 62.7709 69.8312 62.9309 67.9812L62.9109 67.9612Z" fill="#F8D362"/>
</g>
<path d="M96.9408 37.9509C97.5608 36.5609 97.6508 34.1809 95.5308 34.5009C95.1808 34.5609 94.8208 34.6709 94.4608 34.8209C94.7508 34.3709 95.0308 33.9009 95.2908 33.4409C95.7308 32.6509 96.0408 31.8209 96.3308 30.9609C96.5308 30.3809 96.7908 29.4809 96.4608 28.9109C95.9008 27.9509 94.5008 28.7709 93.8508 29.2409C94.2308 28.2909 94.5408 27.3209 94.7708 26.3309C95.0108 25.2809 95.4308 22.5909 93.7508 22.4409C92.6908 22.3409 91.6908 23.0109 91.0108 23.7609C90.9108 23.8709 90.8108 23.9909 90.7108 24.1009C90.8108 23.6509 90.8908 23.2009 90.9608 22.7409C91.1108 21.7809 91.3108 20.2609 90.7308 19.3909C90.1208 18.4709 88.9508 19.1609 88.3508 19.7209C86.5108 21.4309 85.2408 23.5609 84.4008 25.9209C84.0808 26.8209 83.7608 27.7909 83.5208 28.7809C83.2508 29.9009 72.6508 27.6509 71.6508 27.2109C67.9008 25.5309 64.1008 23.2009 62.0908 19.4809C59.6008 14.8709 60.6808 8.58091 56.8008 4.64091C53.0808 0.860914 47.4508 0.290922 42.4408 0.570922C42.0408 0.590922 41.6408 0.630918 41.2508 0.660918C36.9508 1.72092 32.7508 3.48091 28.2508 4.00091C25.9808 4.27091 22.9508 4.08092 21.3808 2.57092C21.2608 4.57092 21.1908 6.37092 23.1208 7.66092C23.5108 7.92092 23.9108 8.12091 24.3108 8.25091C24.1108 8.29091 23.9008 8.33091 23.7008 8.37091C22.3008 8.65091 20.9508 8.50091 19.5808 8.17091C18.9208 8.01091 18.5808 7.46092 17.8808 7.38092C17.7608 8.26092 17.9008 9.24092 18.2708 10.1009C18.3408 10.1709 18.4208 10.2509 18.4808 10.3209C19.4108 11.3609 20.4008 11.9009 21.7508 12.2209C22.1908 12.3209 22.6408 12.3709 23.0808 12.3809C23.0308 12.4109 22.9708 12.4409 22.9208 12.4709C21.7408 13.1709 19.9508 14.2709 19.5208 15.6609C19.4308 15.9509 19.6408 16.1809 19.9308 16.1009C20.6008 15.9309 21.1408 15.4609 21.7708 15.1709C22.1808 14.9809 22.5908 14.8109 23.0108 14.6509C21.8808 16.7009 21.1408 18.8709 20.7708 21.5009C19.9408 27.3409 21.9408 32.8709 23.6308 38.3609C26.7408 48.4309 18.0008 60.8709 34.3008 69.9609C39.6408 72.9409 45.5308 75.2909 51.4608 76.2909C57.3608 77.2809 63.2808 76.5709 68.8608 74.6809C70.0308 76.5209 71.2208 78.0809 71.9908 78.0809C72.5408 78.0809 72.7308 77.3909 72.8708 76.9109C73.1608 77.4109 73.5808 77.8209 74.1308 77.6109C74.7208 77.3809 75.0608 76.8309 75.3108 76.2709C75.3308 76.5209 76.0908 78.2209 77.7008 77.2409C78.9308 76.4909 79.1508 75.9809 79.5508 74.5909C79.6608 74.7509 80.1708 76.2009 80.6408 76.1709C82.9108 76.0409 81.9308 69.8409 81.8808 67.8009C82.5008 67.3409 83.1008 66.8809 83.6908 66.4109C88.3408 62.6709 92.1808 58.6509 94.7708 53.2409C95.8808 50.9209 96.4108 48.5509 96.7508 46.0109C97.0808 43.6009 97.2308 40.8909 96.7108 38.4409C96.7908 38.2809 96.8708 38.1209 96.9508 37.9609L96.9408 37.9509Z" fill="#F8D362"/>
<path d="M96.9408 37.9509C97.5608 36.5609 97.6508 34.1809 95.5308 34.5009C95.1808 34.5609 94.8208 34.6709 94.4608 34.8209C94.7508 34.3709 95.0308 33.9009 95.2908 33.4409C95.7308 32.6509 96.0408 31.8209 96.3308 30.9609C96.5308 30.3809 96.7908 29.4809 96.4608 28.9109C95.9008 27.9509 94.5008 28.7709 93.8508 29.2409C94.2308 28.2909 94.5408 27.3209 94.7708 26.3309C95.0108 25.2809 95.4308 22.5909 93.7508 22.4409C92.6908 22.3409 91.6908 23.0109 91.0108 23.7609C90.9108 23.8709 90.8108 23.9909 90.7108 24.1009C90.8108 23.6509 90.8908 23.2009 90.9608 22.7409C91.1108 21.7809 91.3108 20.2609 90.7308 19.3909C90.1208 18.4709 88.9508 19.1609 88.3508 19.7209C86.5108 21.4309 85.2408 23.5609 84.4008 25.9209C84.0808 26.8209 83.7608 27.7909 83.5208 28.7809C83.2508 29.9009 72.6508 27.6509 71.6508 27.2109C67.9008 25.5309 64.1008 23.2009 62.0908 19.4809C59.6008 14.8709 60.6808 8.58091 56.8008 4.64091C53.0808 0.860914 47.4508 0.290922 42.4408 0.570922C42.0408 0.590922 41.6408 0.630918 41.2508 0.660918C36.9508 1.72092 32.7508 3.48091 28.2508 4.00091C25.9808 4.27091 22.9508 4.08092 21.3808 2.57092C21.2608 4.57092 21.1908 6.37092 23.1208 7.66092C23.5108 7.92092 23.9108 8.12091 24.3108 8.25091C24.1108 8.29091 23.9008 8.33091 23.7008 8.37091C22.3008 8.65091 20.9508 8.50091 19.5808 8.17091C18.9208 8.01091 18.5808 7.46092 17.8808 7.38092C17.7608 8.26092 17.9008 9.24092 18.2708 10.1009C18.3408 10.1709 18.4208 10.2509 18.4808 10.3209C19.4108 11.3609 20.4008 11.9009 21.7508 12.2209C22.1908 12.3209 22.6408 12.3709 23.0808 12.3809C23.0308 12.4109 22.9708 12.4409 22.9208 12.4709C21.7408 13.1709 19.9508 14.2709 19.5208 15.6609C19.4308 15.9509 19.6408 16.1809 19.9308 16.1009C20.6008 15.9309 21.1408 15.4609 21.7708 15.1709C22.1808 14.9809 22.5908 14.8109 23.0108 14.6509C21.8808 16.7009 21.1408 18.8709 20.7708 21.5009C19.9408 27.3409 21.9408 32.8709 23.6308 38.3609C26.7408 48.4309 18.0008 60.8709 34.3008 69.9609C39.6408 72.9409 45.5308 75.2909 51.4608 76.2909C57.3608 77.2809 63.2808 76.5709 68.8608 74.6809C70.0308 76.5209 71.2208 78.0809 71.9908 78.0809C72.5408 78.0809 72.7308 77.3909 72.8708 76.9109C73.1608 77.4109 73.5808 77.8209 74.1308 77.6109C74.7208 77.3809 75.0608 76.8309 75.3108 76.2709C75.3308 76.5209 76.0908 78.2209 77.7008 77.2409C78.9308 76.4909 79.1508 75.9809 79.5508 74.5909C79.6608 74.7509 80.1708 76.2009 80.6408 76.1709C82.9108 76.0409 81.9308 69.8409 81.8808 67.8009C82.5008 67.3409 83.1008 66.8809 83.6908 66.4109C88.3408 62.6709 92.1808 58.6509 94.7708 53.2409C95.8808 50.9209 96.4108 48.5509 96.7508 46.0109C97.0808 43.6009 97.2308 40.8909 96.7108 38.4409C96.7908 38.2809 96.8708 38.1209 96.9508 37.9609L96.9408 37.9509Z" fill="#F8D362"/>
<g style="mix-blend-mode:multiply" opacity="0.5">
<path d="M96.9408 37.9509C97.5608 36.5609 97.6508 34.1809 95.5308 34.5009C95.1808 34.5609 94.8208 34.6709 94.4608 34.8209C94.7508 34.3709 95.0308 33.9009 95.2908 33.4409C95.7308 32.6509 96.0408 31.8209 96.3308 30.9609C96.5308 30.3809 96.7908 29.4809 96.4608 28.9109C95.9008 27.9509 94.5008 28.7709 93.8508 29.2409C94.2308 28.2909 94.5408 27.3209 94.7708 26.3309C95.0108 25.2809 95.4308 22.5909 93.7508 22.4409C92.6908 22.3409 91.6908 23.0109 91.0108 23.7609C90.9108 23.8709 90.8108 23.9909 90.7108 24.1009C90.8108 23.6509 90.8908 23.2009 90.9608 22.7409C91.1108 21.7809 91.3108 20.2609 90.7308 19.3909C90.1208 18.4709 88.9508 19.1609 88.3508 19.7209C86.5108 21.4309 85.2408 23.5609 84.4008 25.9209C84.0808 26.8209 83.7608 27.7909 83.5208 28.7809C83.2508 29.9009 72.6508 27.6509 71.6508 27.2109C67.9008 25.5309 64.1008 23.2009 62.0908 19.4809C59.6008 14.8709 60.6808 8.58091 56.8008 4.64091C53.0808 0.860914 47.4508 0.290922 42.4408 0.570922C42.0408 0.590922 41.6408 0.630918 41.2508 0.660918C36.9508 1.72092 32.7508 3.48091 28.2508 4.00091C25.9808 4.27091 22.9508 4.08092 21.3808 2.57092C21.2608 4.57092 21.1908 6.37092 23.1208 7.66092C23.5108 7.92092 23.9108 8.12091 24.3108 8.25091C24.1108 8.29091 23.9008 8.33091 23.7008 8.37091C22.3008 8.65091 20.9508 8.50091 19.5808 8.17091C18.9208 8.01091 18.5808 7.46092 17.8808 7.38092C17.7608 8.26092 17.9008 9.24092 18.2708 10.1009C18.3408 10.1709 18.4208 10.2509 18.4808 10.3209C19.4108 11.3609 20.4008 11.9009 21.7508 12.2209C22.1908 12.3209 22.6408 12.3709 23.0808 12.3809C23.0308 12.4109 22.9708 12.4409 22.9208 12.4709C21.7408 13.1709 19.9508 14.2709 19.5208 15.6609C19.4308 15.9509 19.6408 16.1809 19.9308 16.1009C20.6008 15.9309 21.1408 15.4609 21.7708 15.1709C22.1808 14.9809 22.5908 14.8109 23.0108 14.6509C21.8808 16.7009 21.1408 18.8709 20.7708 21.5009C19.9408 27.3409 21.9408 32.8709 23.6308 38.3609C26.7408 48.4309 18.0008 60.8709 34.3008 69.9609C39.6408 72.9409 45.5308 75.2909 51.4608 76.2909C57.3608 77.2809 63.2808 76.5709 68.8608 74.6809C70.0308 76.5209 71.2208 78.0809 71.9908 78.0809C72.5408 78.0809 72.7308 77.3909 72.8708 76.9109C73.1608 77.4109 73.5808 77.8209 74.1308 77.6109C74.7208 77.3809 75.0608 76.8309 75.3108 76.2709C75.3308 76.5209 76.0908 78.2209 77.7008 77.2409C78.9308 76.4909 79.1508 75.9809 79.5508 74.5909C79.6608 74.7509 80.1708 76.2009 80.6408 76.1709C82.9108 76.0409 81.9308 69.8409 81.8808 67.8009C82.5008 67.3409 83.1008 66.8809 83.6908 66.4109C88.3408 62.6709 92.1808 58.6509 94.7708 53.2409C95.8808 50.9209 96.4108 48.5509 96.7508 46.0109C97.0808 43.6009 97.2308 40.8909 96.7108 38.4409C96.7908 38.2809 96.8708 38.1209 96.9508 37.9609L96.9408 37.9509ZM22.2808 21.0209C22.2808 21.0209 22.2808 20.9709 22.2808 20.9409C22.3308 20.6109 22.8508 20.7009 22.8408 21.0209C22.7608 27.1809 29.9408 28.2009 34.6608 27.1909C34.9208 27.1309 35.0908 27.3809 34.9808 27.6109C34.5008 28.6409 33.4008 29.0409 32.4908 29.6209C31.7908 30.0709 31.1108 30.5309 30.4208 31.0009C28.4508 32.8509 26.6408 34.7309 25.8408 37.4809C25.7708 37.7209 25.4408 37.7709 25.3108 37.5509C22.4208 32.6109 21.4308 26.6709 22.2408 21.0309L22.2808 21.0209ZM55.9908 32.2509C54.8208 31.7209 53.5808 31.5109 52.3308 31.4509C53.5708 33.9609 53.8008 37.2709 53.1608 39.5309C53.0908 39.7809 52.7708 39.8009 52.6308 39.6009C52.2008 38.9809 51.8608 38.3109 51.5408 37.6309C51.6408 39.5209 51.3308 41.4509 50.7108 43.3709C50.6308 43.6309 50.2208 43.6609 50.1608 43.3709C50.0508 42.8509 49.8908 42.3509 49.7208 41.8609C49.4108 45.5209 48.2008 49.1609 45.2608 51.3809C41.7908 54.0009 36.2608 54.4709 33.4308 51.2709C33.7308 52.1409 34.0808 52.9809 34.6108 53.7509C34.7608 53.9709 34.5108 54.2209 34.2808 54.1709C30.6708 53.3909 27.9108 50.7609 27.8208 47.2509C27.4808 48.3009 27.2908 49.3909 27.0708 50.4809C27.0208 50.7209 26.6508 50.7609 26.5408 50.5509C25.1608 47.8409 25.8408 44.5309 26.9908 41.7809C26.4708 42.3209 26.0508 43.0109 25.7508 43.5709C25.6208 43.8109 25.1908 43.7109 25.2108 43.4209C25.4308 41.2909 25.8708 39.1909 27.1708 37.4509C28.2808 35.9709 29.9908 35.0109 31.6808 34.3309C36.8208 32.2509 42.6008 30.5709 45.2708 25.2309C45.3808 25.0209 45.6508 25.0709 45.7708 25.2309C46.0108 25.5609 46.2208 25.9109 46.4308 26.2609C46.5108 24.9109 46.8108 23.5609 47.2208 22.3909C47.3108 22.1409 47.7208 22.0909 47.7708 22.3909C48.6208 27.1309 54.9208 27.5209 56.3908 31.9409C56.4808 32.2009 56.1808 32.3609 55.9708 32.2609L55.9908 32.2509Z" fill="#F8D362"/>
</g>
<g style="mix-blend-mode:multiply" opacity="0.5">
<path d="M96.9409 37.951C97.5609 36.561 97.6509 34.181 95.5309 34.501C95.1809 34.561 94.8209 34.671 94.4609 34.821C94.7509 34.371 95.0309 33.901 95.2909 33.441C95.7309 32.651 96.0409 31.821 96.3309 30.961C96.4409 30.631 96.5709 30.201 96.6109 29.781C96.4009 30.371 96.1309 30.921 95.8609 31.411C95.0509 32.901 93.9309 34.631 92.2809 35.271C92.0909 35.341 91.9309 35.161 91.9209 34.991C91.9209 34.931 91.9209 34.881 91.9209 34.831C91.5609 35.331 91.1709 35.801 90.7009 36.211C90.5309 36.361 90.1809 36.281 90.2109 36.011C90.5309 33.211 92.0509 30.421 94.1409 28.471C94.3909 27.771 94.6009 27.061 94.7709 26.341C94.8109 26.151 94.8609 25.901 94.9009 25.631C94.0909 28.381 92.0609 31.001 90.0209 32.531C89.8409 32.671 89.5909 32.481 89.5909 32.281C89.5909 31.751 89.6409 31.221 89.7409 30.701C89.2609 31.811 88.8109 32.941 88.3709 34.071C88.2809 34.311 87.8709 34.381 87.8109 34.071C87.2109 30.471 88.3609 26.321 90.8209 23.481C90.8709 23.241 90.9209 23.001 90.9509 22.751C91.0609 22.001 91.2109 20.931 91.0009 20.071C90.7909 20.671 90.5209 21.231 90.3509 21.601C88.7809 24.891 87.0709 27.681 86.9909 31.511C86.9909 31.831 86.5209 31.901 86.4209 31.591C86.0909 30.461 85.9009 29.351 85.8509 28.221C85.4009 29.791 85.2009 31.401 85.1309 33.061C85.1209 33.391 84.6709 33.441 84.5709 33.141C84.0409 31.591 83.7209 29.961 83.6509 28.321C83.6109 28.481 83.5609 28.631 83.5309 28.791C83.2609 29.911 72.6609 27.661 71.6609 27.221C67.9109 25.541 64.1109 23.211 62.1009 19.491C59.6109 14.881 60.6909 8.59096 56.8109 4.65096C56.4809 4.32096 56.1309 4.01096 55.7709 3.73096C58.7809 8.29096 59.2009 15.421 60.8709 20.311C60.9809 20.641 60.5209 20.781 60.3409 20.531C59.3109 19.081 58.4509 17.531 57.5909 15.991C57.6809 18.821 58.9309 21.451 59.7009 24.151C59.7609 24.381 59.4909 24.631 59.2809 24.481C57.5409 23.201 56.4409 21.391 55.1709 19.691C54.9509 22.381 57.9609 25.531 60.2209 26.851C60.0009 25.401 59.9509 23.961 59.9509 22.481C59.9509 22.131 60.4009 22.121 60.5109 22.411C61.7709 25.521 64.8909 27.131 67.4809 28.991C67.7309 29.171 61.2609 28.661 59.2009 30.541C57.9209 31.971 56.9909 33.771 56.5309 35.601C56.9009 34.871 57.3309 34.191 57.9309 33.591C58.1409 33.381 58.4809 33.591 58.4109 33.871C57.0909 39.301 56.3209 44.591 59.4409 49.5509C60.4509 51.1609 61.6209 52.741 62.5009 54.421C64.8709 57.551 66.5309 60.911 65.0809 65.001C65.0009 65.231 64.6909 65.291 64.5509 65.071C63.8909 63.951 63.9009 62.681 63.4809 61.481C63.2309 60.761 62.8509 60.121 62.4109 59.511C62.8009 60.821 63.0409 62.171 62.8509 63.511C62.5509 65.641 61.3709 67.501 59.6909 68.841C56.5009 71.381 52.1509 72.541 48.1009 72.431C43.2709 72.301 38.4109 70.741 34.5309 67.811C31.3809 65.431 28.3909 62.5309 26.9009 58.8309C26.9809 59.7409 27.1709 60.641 27.3109 61.541C27.3609 61.851 26.9709 62.051 26.7809 61.761C25.5709 59.851 24.7509 57.861 24.2909 55.691C24.2409 55.951 24.2109 56.221 24.1709 56.481C24.7809 61.321 27.0909 65.991 34.2909 70.011C39.6309 72.991 45.5209 75.341 51.4509 76.341C57.3509 77.331 63.2709 76.621 68.8509 74.731C70.0209 76.571 71.2109 78.131 71.9809 78.131C72.5309 78.131 72.7209 77.441 72.8609 76.961C73.1509 77.461 73.5709 77.871 74.1209 77.661C74.7109 77.431 75.0509 76.881 75.3009 76.321C75.3209 76.571 76.0809 78.271 77.6909 77.291C78.9209 76.541 79.1409 76.031 79.5409 74.641C79.6509 74.801 80.1609 76.251 80.6309 76.221C82.9009 76.091 81.9209 69.891 81.8709 67.851C82.4909 67.391 83.0909 66.931 83.6809 66.461C88.3309 62.721 92.1709 58.701 94.7609 53.291C95.8709 50.971 96.4009 48.601 96.7409 46.061C97.0709 43.651 97.2209 40.941 96.7009 38.491C96.7809 38.331 96.8609 38.171 96.9409 38.011V37.951Z" fill="#F8D362"/>
</g>
<path d="M56.2008 10.331C56.4008 8.96104 56.1808 7.59104 55.6608 6.33104C54.5108 4.95104 52.9108 3.79103 51.8308 3.23103C49.6508 2.11103 47.5408 1.79104 45.4108 1.85104C42.3908 1.40104 39.2508 1.98104 36.3908 3.00104C34.0708 3.82104 31.7108 4.40103 29.3208 4.95103C26.4508 5.60103 24.5608 4.79103 21.9508 3.92103C21.8608 3.89103 21.7008 4.03103 21.7608 4.12103C23.5508 6.58103 26.2108 6.57104 28.8708 6.07104C29.3808 6.02104 29.9008 5.96103 30.4108 5.95103C31.1208 5.93103 31.8708 5.75103 32.6008 5.68103C31.2708 6.17103 30.0208 6.94103 28.7608 7.62103C28.3608 7.77103 27.9708 7.92104 27.5808 8.07104C25.0308 9.07104 21.6508 10.421 19.1108 8.57104C20.0508 11.541 25.9108 9.24103 28.0908 8.95103C29.3408 8.78103 30.3408 8.95104 31.1308 9.41104C31.1608 9.41104 31.1808 9.43104 31.2108 9.44104C31.7308 9.64104 31.9408 9.91103 32.0808 10.231C32.2508 10.441 32.4009 10.681 32.5309 10.941C33.5209 9.25104 35.3908 7.75103 37.1308 7.29103C39.8208 6.58103 42.8208 7.09104 45.1108 8.69104C47.6608 10.471 48.5909 13.631 48.7509 16.811C48.8109 17.221 48.8608 17.631 48.9108 18.051C48.9108 18.151 48.9609 18.191 49.0609 18.211C50.3009 18.451 51.2708 16.041 51.7208 14.411C52.1508 15.661 51.5908 17.501 51.7608 18.681C52.9508 17.701 53.9608 16.481 54.5909 15.101C54.7108 14.711 54.7909 14.341 54.8109 14.001C54.9109 12.631 54.8108 10.201 53.9008 8.71104C54.7508 9.11104 55.5008 9.65104 56.2108 10.361L56.2008 10.331Z" fill="#F8D362"/>
<g style="mix-blend-mode:multiply">
<path d="M47.1308 17.4508C47.2208 14.2708 46.2908 11.2408 43.8508 9.80078C43.8708 9.73078 43.8808 9.67077 43.8508 9.62077C42.8708 6.98077 38.8808 7.38077 36.9808 8.65077C34.9508 10.0008 33.3009 11.8208 32.3409 14.0408C32.3109 13.4108 32.1709 12.8408 31.9309 12.3508C31.5609 11.0908 30.9209 9.94078 29.7709 9.21078C27.8509 7.96078 25.7708 9.43077 24.3908 10.8108C24.0908 11.1208 24.2209 11.5208 24.6609 11.2708C25.0309 11.0608 25.5009 11.1108 25.9609 11.2108C24.4709 12.2608 23.5208 14.0908 23.0408 15.7808C22.1208 19.0608 22.7009 22.3508 24.6009 25.1408C24.9409 25.6408 25.4609 25.8508 25.9909 26.0908C26.2809 26.2308 26.6309 25.7308 25.9909 26.3808C25.3609 27.0108 24.7508 27.6408 24.4708 28.5208C24.4108 28.7008 24.5908 28.7608 24.7308 28.7008C25.1508 28.5308 26.7108 27.8108 26.2008 28.6108C25.6308 29.4908 25.4209 30.7308 25.2409 31.7308C25.0409 32.8208 24.8808 35.7608 25.6208 36.7208C25.6808 36.8008 25.8208 36.7708 25.9008 36.7408C26.0808 36.6708 26.2409 36.6008 26.3309 36.4208C27.3509 34.4008 29.6908 33.4708 31.6408 32.5808C33.8608 31.5708 36.5708 31.6308 38.6908 30.4208C39.7608 29.8108 41.1208 28.8608 41.3208 27.5408C41.3908 27.1908 41.4208 26.8408 41.4408 26.4908C43.0908 25.7808 44.5308 24.9608 46.3808 24.9208C46.6108 24.9208 46.9608 24.6508 46.8808 24.3808C46.6908 23.8008 46.3909 23.6608 45.8608 23.3608C45.7808 23.3108 45.7208 23.3108 45.6708 23.3108C45.6708 23.3108 45.6709 23.3108 45.6809 23.3008C46.8109 21.4208 47.0708 19.6308 47.1308 17.4708V17.4508Z" fill="#F8D362"/>
</g>
<g style="mix-blend-mode:screen" opacity="0.7">
<path d="M86.9809 22.661C87.5309 21.761 88.1209 20.791 88.8909 20.041C88.1609 20.421 87.5209 20.941 87.0009 21.551C86.8509 21.771 86.7109 21.991 86.5809 22.211C86.2609 22.771 85.9209 23.421 85.6709 24.101C85.4709 24.871 85.4109 25.671 85.5109 26.471C85.6909 25.141 86.3009 23.771 86.9809 22.661Z" fill="#FDC377"/>
<path d="M90.1509 25.4311C89.9009 26.0011 89.7309 26.5911 89.6309 27.2011C89.9909 26.4911 90.5309 25.8411 90.9709 25.2111C91.5009 24.4611 92.0709 23.7011 92.7909 23.1211C91.6309 23.5211 90.6909 24.2411 90.1609 25.4311H90.1509Z" fill="#FDC377"/>
<path d="M95.4609 28.9111C94.1709 29.1211 93.3209 29.9811 92.6709 31.0911C92.6509 31.1211 92.6409 31.1511 92.6309 31.1911C93.6209 30.6511 94.7509 29.8511 95.4609 28.9111Z" fill="#FDC377"/>
</g>
<g style="mix-blend-mode:multiply">
<path d="M27.2307 49.2909C27.0407 50.0809 26.9107 50.7708 26.9707 51.4608C25.7807 49.8808 25.4607 47.8009 26.0907 45.8809C25.5207 46.6509 25.1307 47.5608 24.9007 48.5208C24.8707 48.9408 24.8907 49.3709 24.9607 49.8209C25.1807 51.1609 26.0007 52.6909 27.4007 52.9209C27.4707 53.0709 27.5607 53.2209 27.6507 53.3809C28.2007 54.2709 29.4107 54.9409 30.5207 54.9209C28.6207 53.8209 27.1907 51.4809 27.2307 49.2909Z" fill="#F8D362"/>
<path d="M33.8008 53.7108C33.8008 53.7108 33.7208 53.6708 33.6808 53.6508C33.4808 53.5908 33.2808 53.5308 33.0808 53.4608C32.5008 53.2308 31.8608 52.7508 31.3408 52.1808C30.9008 51.7808 30.5208 51.3208 30.2208 50.7808C30.1408 53.5808 33.1108 55.1308 35.5908 54.7108C35.6608 54.6908 35.8008 54.5908 35.9008 54.4708C35.1408 54.3108 34.3908 54.0008 33.8008 53.7208V53.7108Z" fill="#F8D362"/>
<path d="M51.2506 40.8809C51.6106 42.3009 51.3706 43.8409 50.7406 45.1709C50.7406 44.5209 50.5806 43.8709 50.3306 43.1909C50.3106 44.1209 50.0706 45.1209 49.7106 46.0309C49.7006 46.0909 49.6906 46.1409 49.6806 46.2009C49.5406 46.8909 49.1606 47.4709 48.6806 47.9809C48.5906 48.1009 48.5006 48.2209 48.4206 48.3209C47.9906 48.8309 47.4806 49.6009 46.8806 50.2309C48.1306 49.9009 49.3606 48.6809 49.9906 47.6909C50.2506 47.2909 50.4306 46.8908 50.5606 46.4908C50.5806 46.4708 50.6106 46.4609 50.6306 46.4409C51.5506 45.6409 51.8706 44.5809 52.1206 43.4209C52.1706 43.1809 52.1906 42.9609 52.2106 42.7509C52.0206 42.0609 51.7206 41.4009 51.2606 40.8809H51.2506Z" fill="#F8D362"/>
<path d="M56.3106 35.271C56.0306 34.921 55.7506 34.581 55.4306 34.271C55.4806 34.671 55.5906 35.061 55.6506 35.461C55.7406 36.001 55.7406 36.521 55.7006 37.031C55.3406 36.171 54.7406 35.421 54.0306 34.731C53.9906 34.691 53.9306 34.711 53.8806 34.741C54.4406 35.761 54.8006 36.881 54.9706 38.031C55.0206 38.271 55.0506 38.511 55.0806 38.771C55.1006 38.981 55.1006 39.191 55.0806 39.411C55.0906 39.781 55.0906 40.141 55.0706 40.511C55.0406 41.061 55.0206 41.861 54.8606 42.591C55.5406 41.661 55.8706 40.591 56.0206 39.401C56.0706 38.971 56.0706 38.571 56.0206 38.181C56.0406 38.161 56.0606 38.141 56.0806 38.121C56.4806 37.521 56.6106 36.881 56.5006 36.161C56.4606 35.861 56.3906 35.571 56.3106 35.291V35.271Z" fill="#F8D362"/>
</g>
<path d="M97.4007 22.6311C95.7807 21.3311 93.4407 21.8011 91.4807 22.5111C92.0607 21.5511 92.1407 20.5711 91.2707 19.7011C89.9907 18.4011 86.2607 19.6111 84.8107 20.0911C81.7707 21.1011 78.9307 22.1711 76.0907 23.6911C73.3107 25.1811 70.5307 26.6511 67.7707 28.1611C65.7907 29.2511 63.2707 30.6811 62.2607 32.8411C60.8107 34.5111 60.6907 37.2511 60.9207 39.3511C61.2907 42.6611 63.5307 45.4411 66.1407 47.3311C69.2307 49.5711 72.8707 50.3611 76.5907 50.6911C78.9207 50.9011 84.0407 50.7611 85.0907 48.1011C85.1707 47.9011 85.2007 47.5811 85.1507 47.3111C87.9607 47.2711 90.6407 46.3411 92.7007 44.3411C93.2307 43.8311 94.9307 41.6311 93.3607 41.1611C94.9107 40.1611 96.6907 38.6611 97.0607 37.1511C97.1307 36.8711 97.0007 36.1911 96.5807 36.3411C96.4607 36.3811 96.3407 36.4211 96.2107 36.4611C97.7907 34.5511 98.7307 32.0111 99.1307 29.5911C99.3507 28.2911 99.6007 26.3811 97.9407 26.0811C97.6607 26.0311 97.3207 26.0511 96.9607 26.1111C97.7707 24.8711 98.3707 23.4111 97.4107 22.6411L97.4007 22.6311Z" fill="#F8D362"/>
<path d="M81.3607 44.4311C82.4807 44.5411 83.5806 44.5211 84.6606 44.3311C82.3206 47.3111 78.4507 47.6911 74.8107 47.1111C75.4607 46.8011 76.0507 46.3811 76.5307 45.8511C75.5607 46.3811 74.4107 46.7111 73.6207 46.8111C71.5007 47.0911 68.8907 47.2811 66.6807 46.6811C68.7907 47.8511 71.7407 48.2111 74.0907 47.3911C78.0707 48.7911 84.0307 48.9711 85.4307 44.1611C86.4607 43.9211 87.4707 43.5411 88.4607 43.0411C89.6407 42.4311 91.2307 41.2511 91.7107 39.8511C89.3007 42.5911 84.8607 43.9211 81.3407 44.4211L81.3607 44.4311Z" fill="#DFA42D"/>
<path d="M92.3208 28.8111C91.4708 29.9311 90.0808 31.1811 89.7508 31.4711C88.7808 32.3511 87.4808 33.4311 86.1708 34.1711C85.8308 34.4611 85.4908 34.7711 85.1608 35.0811C86.4808 34.8711 87.8708 34.0711 89.0808 33.1411C90.0608 34.4311 84.3908 37.8311 82.5608 38.7711C83.3708 38.7111 84.2108 38.5511 85.0408 38.2811C86.5708 37.6011 87.9408 36.6311 89.0608 35.2711C89.4908 34.7511 90.0808 33.3211 89.5908 32.7211C90.1908 32.2311 90.7408 31.7211 91.1908 31.2711C92.0408 30.4311 93.5308 28.7811 93.5208 27.3911C93.1608 27.9011 92.7208 28.3811 92.3108 28.8111H92.3208Z" fill="#DFA42D"/>
<path opacity="0.6" d="M97.7807 22.3409C97.7807 22.3409 97.7507 22.3109 97.6807 22.2609L97.6207 22.2109L97.4907 22.1209L97.3607 22.0309L97.1907 21.9409C96.9707 21.8109 96.7607 21.7309 96.5307 21.6509C95.6407 21.3509 94.7107 21.3609 93.8507 21.4909C93.2407 21.5909 92.6407 21.7509 92.0707 21.9409C92.1307 21.7609 92.1607 21.5809 92.1907 21.4009V21.0509L92.1407 20.7009C92.0707 20.4809 92.0007 20.2509 91.8707 20.0609C91.7607 19.8509 91.6007 19.7009 91.4507 19.5309C91.3307 19.4309 91.2807 19.3909 91.1907 19.3309C91.1107 19.2709 90.9807 19.2209 90.8807 19.1709C90.7707 19.1109 90.6607 19.0909 90.5607 19.0609C90.4607 19.0309 90.3507 19.0009 90.2407 18.9909C90.0307 18.9509 89.8107 18.9409 89.6007 18.9409C88.7507 18.9409 87.9407 19.1009 87.1507 19.3009C86.3607 19.5209 85.5807 19.7909 84.8207 20.0809C85.6107 19.8509 86.4007 19.6509 87.2007 19.5009C88.0007 19.3509 88.8107 19.2409 89.6007 19.2909C89.8007 19.3009 89.9907 19.3309 90.1807 19.3709C90.2807 19.3809 90.3607 19.4109 90.4507 19.4509C90.5407 19.4809 90.6407 19.5109 90.7007 19.5509C90.7707 19.6009 90.8507 19.6109 90.9207 19.6809C90.9907 19.7409 91.1007 19.8309 91.1307 19.8709C91.2407 20.0209 91.3707 20.1509 91.4507 20.3209C91.5507 20.4709 91.5907 20.6509 91.6307 20.8109L91.6507 21.0709L91.6307 21.3309C91.5907 21.5109 91.5607 21.6809 91.4807 21.8509C91.4207 22.0209 91.3107 22.1809 91.2207 22.3409L90.8207 23.0609L91.6107 22.8109C92.3907 22.5609 93.1807 22.3409 93.9707 22.2509C94.7607 22.1609 95.5507 22.2009 96.2507 22.4709C96.4207 22.5409 96.5907 22.6209 96.7307 22.7109L96.8407 22.7709L96.9607 22.8609L97.0807 22.9609L97.1407 23.0109C97.1407 23.0109 97.1507 23.0309 97.1607 23.0309C97.2707 23.1209 97.3307 23.2409 97.3707 23.3609C97.4207 23.4809 97.4207 23.6309 97.4107 23.7909C97.4107 23.9509 97.3607 24.1209 97.3107 24.2909C97.2507 24.4609 97.1907 24.6309 97.1007 24.8009C96.9407 25.1509 96.7307 25.4809 96.5107 25.8109L95.9307 26.6709L97.0407 26.6309C97.2507 26.6309 97.4207 26.5709 97.7107 26.6109C97.9007 26.6109 98.0907 26.6909 98.2307 26.7609C98.3707 26.8409 98.4607 26.9609 98.5407 27.1109C98.6207 27.2609 98.6707 27.4609 98.6907 27.6809C98.7407 28.1209 98.6907 28.6109 98.6107 29.1109L98.5507 29.4909L98.4707 29.8609C98.4107 30.1109 98.3707 30.3609 98.3007 30.6109C98.2307 30.8509 98.1807 31.1009 98.1007 31.3509L97.8707 32.0809L97.6007 32.7909C97.5207 33.0309 97.3907 33.2509 97.2907 33.4909C97.1907 33.7209 97.0707 33.9509 96.9507 34.1609C96.8307 34.3809 96.7107 34.6109 96.5707 34.8109C96.4307 35.0209 96.3107 35.2409 96.1507 35.4309L95.7007 36.0209L94.4107 37.7209L96.3607 37.1109L96.3407 37.1809C96.2907 37.2909 96.2807 37.4009 96.2107 37.5009L96.0307 37.8309C95.9807 37.9409 95.8807 38.0409 95.8107 38.1509C95.7307 38.2509 95.6607 38.3609 95.5707 38.4609C95.3807 38.6609 95.2107 38.8609 95.0007 39.0509C94.8007 39.2409 94.6007 39.4209 94.3707 39.6009C94.1607 39.7809 93.9307 39.9409 93.7007 40.1109C93.4707 40.2809 93.2307 40.4309 93.0007 40.5909L91.9607 41.3109L93.1807 41.8409C93.3007 41.8909 93.3207 41.9209 93.3207 41.9109C93.3207 41.9009 93.3407 42.0309 93.2907 42.1909C93.2107 42.5209 92.9607 42.9409 92.7007 43.3009C92.6307 43.3909 92.5607 43.4809 92.4907 43.5709C92.4107 43.6709 92.3807 43.7109 92.2807 43.8109C92.1307 43.9509 91.9307 44.1209 91.7607 44.2709L91.4907 44.5109L91.2007 44.7109C91.0007 44.8509 90.8207 44.9909 90.6107 45.1209L89.9907 45.4709C89.7907 45.5909 89.5607 45.6709 89.3507 45.7709C89.1407 45.8709 88.9207 45.9609 88.6807 46.0309C88.4507 46.1009 88.2307 46.1909 88.0007 46.2509L87.3007 46.4109C87.0707 46.4809 86.8307 46.4909 86.5907 46.5309C86.3507 46.5609 86.1107 46.6009 85.8707 46.6109L85.1507 46.6609L84.4907 46.7009L84.5107 47.4509C84.5107 47.4509 84.5207 47.5309 84.5207 47.5809C84.5207 47.6209 84.5207 47.6909 84.5207 47.7109C84.5207 47.7209 84.5207 47.7309 84.5207 47.7509C84.5207 47.7709 84.5007 47.8209 84.4907 47.8509V47.8809V47.9009L84.4407 47.9809C84.3507 48.2009 84.1907 48.4009 84.0207 48.5909C83.6707 48.9709 83.1507 49.2509 82.6007 49.4709C81.5007 49.9109 80.2407 50.0909 78.9907 50.1609C78.3707 50.2009 77.7307 50.2009 77.1107 50.1809C76.4807 50.1509 75.8407 50.0809 75.2007 50.0209C74.5707 49.9309 73.9407 49.8709 73.3107 49.7409C72.6807 49.6409 72.0707 49.4809 71.4507 49.3409C71.1407 49.2709 70.8407 49.1609 70.5407 49.0709C70.2407 48.9809 69.9307 48.8909 69.6407 48.7609L68.7607 48.4109L67.9207 48.0009C67.7807 47.9309 67.6407 47.8609 67.5007 47.7909L67.0907 47.5309C66.8207 47.3609 66.5207 47.1909 66.2807 47.0309L65.5107 46.4609C65.2507 46.2709 65.0207 46.0509 64.7807 45.8509C64.5307 45.6509 64.3107 45.4209 64.0907 45.1909C63.8707 44.9609 63.6307 44.7409 63.4407 44.4909C63.2407 44.2409 63.0307 43.9909 62.8407 43.7409L62.3107 42.9409C62.1207 42.6809 62.0107 42.3809 61.8507 42.1009C61.7807 41.9509 61.7007 41.8109 61.6307 41.6709L61.4607 41.2209C61.2007 40.6309 61.0907 39.9909 60.9407 39.3509C61.0407 39.9909 61.0907 40.6409 61.3107 41.2609L61.4407 41.7409C61.5007 41.8909 61.5707 42.0409 61.6307 42.1909C61.7707 42.4909 61.8707 42.8009 62.0407 43.0809L62.5407 43.9309C62.7207 44.2009 62.9207 44.4709 63.1107 44.7309C63.2907 45.0109 63.5307 45.2409 63.7407 45.4909C63.9507 45.7409 64.1707 45.9909 64.4207 46.2109C64.6607 46.4309 64.8907 46.6809 65.1407 46.8909L65.9007 47.5209C66.1907 47.7409 66.4407 47.9009 66.7107 48.0909L67.1107 48.3709C67.2507 48.4609 67.4007 48.5309 67.5507 48.6209L68.4307 49.1109L69.3407 49.5209C69.6407 49.6609 69.9507 49.7709 70.2707 49.8809C70.5807 49.9909 70.8907 50.1209 71.2107 50.2009C71.8507 50.3809 72.4807 50.5709 73.1307 50.6909C73.7707 50.8409 74.4307 50.9309 75.0807 51.0409C75.7307 51.1209 76.3807 51.2209 77.0407 51.2709C77.7207 51.3209 78.3807 51.3309 79.0507 51.3109C79.7207 51.2909 80.3907 51.2309 81.0607 51.1209C81.7307 51.0209 82.4007 50.8609 83.0607 50.6209C83.7207 50.3709 84.3807 50.0409 84.9407 49.4909C85.2107 49.2109 85.4607 48.9009 85.6307 48.5309L85.7007 48.3909L85.7207 48.3609V48.3409L85.7507 48.2809L85.7707 48.2209C85.7807 48.1809 85.7907 48.1509 85.8107 48.0909L85.8407 47.9409H86.0007C86.2707 47.9409 86.5307 47.8909 86.8007 47.8509C87.0707 47.8109 87.3307 47.7909 87.5907 47.7209L88.3807 47.5409C88.6407 47.4709 88.8907 47.3809 89.1507 47.2909C89.4107 47.2209 89.6607 47.1109 89.9007 47.0009C90.1407 46.8909 90.4007 46.8009 90.6407 46.6609L91.3507 46.2609C91.5907 46.1209 91.8007 45.9609 92.0207 45.8009L92.3507 45.5709L92.6607 45.3009C92.8707 45.1209 93.0607 44.9609 93.2807 44.7509C93.3607 44.6809 93.5007 44.5209 93.5707 44.4209C93.6607 44.3109 93.7507 44.2009 93.8307 44.0909C93.9907 43.8609 94.1507 43.6309 94.2907 43.3709C94.4307 43.1109 94.5607 42.8409 94.6507 42.5209C94.7307 42.2009 94.8107 41.7909 94.6107 41.3109C94.5907 41.2609 94.5707 41.2209 94.5407 41.1809C94.7807 41.0009 95.0307 40.8209 95.2607 40.6209C95.5007 40.4309 95.7307 40.2209 95.9607 40.0009C96.2007 39.7909 96.4007 39.5409 96.6207 39.3109C96.7307 39.2009 96.8207 39.0509 96.9207 38.9209C97.0107 38.7809 97.1207 38.6709 97.2007 38.5109L97.4507 38.0609C97.5407 37.9209 97.5807 37.7309 97.6507 37.5709L97.7407 37.3209V37.2909H97.7507V37.2509V37.2309L97.7707 37.1609C97.7707 37.1209 97.7707 37.0709 97.7707 37.0309V36.9409C97.7707 36.7009 97.7307 36.4909 97.6107 36.2209C97.5707 36.1309 97.5107 36.0409 97.4207 35.9409C97.5207 35.7809 97.6207 35.6309 97.7107 35.4709C97.8607 35.2309 97.9907 34.9909 98.1207 34.7409C98.2507 34.5009 98.3807 34.2509 98.4807 33.9909C98.5907 33.7409 98.7107 33.4909 98.8007 33.2309L99.0807 32.4509L99.3107 31.6609C99.3907 31.3909 99.4407 31.1309 99.5107 30.8609C99.5807 30.6009 99.6207 30.3209 99.6707 30.0509L99.7507 29.6409L99.8107 29.2409C99.8807 28.6909 99.9507 28.1209 99.8607 27.5009C99.8207 27.1909 99.7407 26.8609 99.5707 26.5509C99.4007 26.2409 99.1407 25.9409 98.8107 25.7609C98.5107 25.6209 98.2207 25.5109 97.9107 25.5009C97.9607 25.4009 98.0107 25.3009 98.0607 25.1909C98.1507 24.9809 98.2307 24.7609 98.3007 24.5309C98.3607 24.2909 98.4107 24.0609 98.4207 23.8009C98.4207 23.5409 98.4007 23.2609 98.2907 22.9909C98.1907 22.7309 98.0207 22.4709 97.8007 22.3009L97.7807 22.3409Z" fill="#B06620"/>
<g style="mix-blend-mode:multiply">
<path d="M97.4007 22.6311C95.7807 21.3311 93.4407 21.8011 91.4807 22.5111C92.0607 21.5511 92.1407 20.5711 91.2707 19.7011C89.9907 18.4011 86.2607 19.6111 84.8107 20.0911C81.7707 21.1011 78.9307 22.1711 76.0907 23.6911C73.3107 25.1811 70.5307 26.6511 67.7707 28.1611C65.7907 29.2511 63.2707 30.6811 62.2607 32.8411C60.8107 34.5111 60.6907 37.2511 60.9207 39.3511C61.2907 42.6611 63.5307 45.4411 66.1407 47.3311C69.2307 49.5711 72.8707 50.3611 76.5907 50.6911C78.9207 50.9011 84.0407 50.7611 85.0907 48.1011C85.1707 47.9011 85.2007 47.5811 85.1507 47.3111C87.9607 47.2711 90.6407 46.3411 92.7007 44.3411C93.2307 43.8311 94.9307 41.6311 93.3607 41.1611C94.9107 40.1611 96.6907 38.6611 97.0607 37.1511C97.1307 36.8711 97.0007 36.1911 96.5807 36.3411C96.4607 36.3811 96.3407 36.4211 96.2107 36.4611C97.7907 34.5511 98.7307 32.0111 99.1307 29.5911C99.3507 28.2911 99.6007 26.3811 97.9407 26.0811C97.6607 26.0311 97.3207 26.0511 96.9607 26.1111C97.7707 24.8711 98.3707 23.4111 97.4107 22.6411L97.4007 22.6311ZM80.2107 23.5811C82.8607 21.8311 87.2407 19.5711 89.9107 22.4511C90.0807 22.6311 89.9807 22.9311 89.7207 22.9411C87.4307 23.0511 85.1407 23.1511 82.8607 23.4511C82.0507 23.6311 81.2407 23.8411 80.4407 24.1011C80.1207 24.2111 79.9507 23.7511 80.2107 23.5811ZM78.4107 42.9811C78.6607 42.9311 78.9407 43.2611 78.7007 43.4611C75.9807 45.6811 72.5607 47.2211 69.0607 46.1111C69.2307 46.2811 69.0907 46.5911 68.8607 46.5911C65.8007 46.5911 63.4707 44.0111 62.5707 41.2511C62.4307 40.8111 62.3307 40.3711 62.2607 39.9411C62.1407 39.4911 62.0607 39.0211 62.0507 38.5211C62.0507 38.3911 62.1207 38.3011 62.2107 38.2611C62.3907 36.0311 63.5907 34.0011 65.4507 32.4911C68.5807 29.9611 72.1607 28.1111 75.8307 26.4711C78.7307 25.1811 81.8307 24.0511 85.0607 24.4211C85.3207 24.4511 85.3407 24.8311 85.1407 24.9511C84.1807 25.5311 83.2207 26.1011 82.2607 26.6711C83.2107 26.4411 84.1607 26.2311 85.1107 26.0611C86.7907 25.7611 89.5707 25.8311 89.0307 28.3311C88.3907 31.3411 85.5607 34.1511 82.4007 35.4611C83.5307 35.4111 84.6607 35.2411 85.7807 34.8911C86.0307 34.8111 86.3007 35.1811 86.0707 35.3611C84.2107 36.8611 82.0307 38.4311 79.7107 39.2811C81.2507 39.3111 82.7807 39.1811 84.3507 38.8711C84.6707 38.8011 84.8507 39.2011 84.5807 39.3911C81.7307 41.4511 78.2507 43.0111 74.7007 43.0411C75.9107 43.2711 77.1607 43.2411 78.4207 42.9711L78.4107 42.9811ZM94.1207 33.4911C93.8507 35.2511 92.8007 37.0211 91.5607 38.4911C89.4507 41.7511 84.4907 45.8111 80.7707 43.3411C80.6007 43.2311 80.5407 42.9511 80.7507 42.8411C83.1207 41.6511 85.6207 40.6311 87.8107 39.1011C90.1307 37.4811 91.8307 35.3711 93.6307 33.2211C93.8307 32.9811 94.1607 33.2211 94.1207 33.4811V33.4911ZM95.3507 25.0211C94.5907 26.3111 93.5907 27.7611 92.3607 28.8111C91.6507 29.6011 90.8807 30.3211 90.0107 30.9711C89.8107 31.1211 89.5207 30.8811 89.5807 30.6611C90.4107 27.8511 92.3207 25.7511 95.0107 24.6111C95.2407 24.5111 95.4607 24.8211 95.3407 25.0211H95.3507Z" fill="#F8D362"/>
</g>
<path d="M46.1807 17.0408C46.6707 21.1608 44.5507 24.8108 41.4407 25.1808C38.3307 25.5508 35.4207 22.5009 34.9307 18.3809C34.4407 14.2609 36.5607 10.6109 39.6707 10.2409C42.7807 9.87085 45.6907 12.9208 46.1807 17.0408Z" fill="#DDE0CE" stroke="#91948A" stroke-width="0.81" stroke-miterlimit="10"/>
<path d="M45.8707 17.1206C46.3007 20.7506 44.4307 23.9607 41.7007 24.2807C38.9607 24.6107 36.4007 21.9206 35.9607 18.2906C35.5307 14.6606 37.4007 11.4506 40.1307 11.1206C42.8707 10.8006 45.4407 13.4807 45.8707 17.1107V17.1206Z" fill="white"/>
<path d="M44.7507 19.821C44.8307 22.301 43.6007 24.361 41.9907 24.411C40.3807 24.471 39.0107 22.501 38.9307 20.021C38.8507 17.541 40.0807 15.481 41.6907 15.431C43.3007 15.371 44.6707 17.341 44.7507 19.821Z" fill="#201312"/>
<path d="M44.1407 18.6011C44.1907 20.1511 43.2106 21.4411 41.9406 21.4811C40.6806 21.5211 39.6107 20.3011 39.5607 18.7511C39.5107 17.2011 40.4907 15.9211 41.7507 15.8711C43.0107 15.8311 44.0807 17.0511 44.1407 18.6011Z" fill="#675452"/>
<path d="M41.6407 18.031C41.5807 18.651 41.2107 19.121 40.8107 19.081C40.4107 19.041 40.1307 18.511 40.1907 17.901C40.2507 17.281 40.6107 16.811 41.0207 16.851C41.4207 16.881 41.7007 17.421 41.6407 18.031Z" fill="#DDE0CE"/>
<path d="M31.6007 19.5607C30.8307 23.3507 28.4707 25.8007 26.3207 25.0307C24.1707 24.2607 23.0607 20.5607 23.8307 16.7707C24.6007 12.9807 26.9607 10.5307 29.1107 11.3007C31.2607 12.0707 32.3707 15.7707 31.6007 19.5607Z" fill="#DDE0CE" stroke="#91948A" stroke-width="0.81" stroke-miterlimit="10"/>
<path d="M31.2607 19.6306C30.5807 22.9706 28.5007 25.1206 26.6107 24.4406C24.7207 23.7606 23.7407 20.5006 24.4207 17.1606C25.1007 13.8206 27.1807 11.6706 29.0707 12.3506C30.9607 13.0306 31.9407 16.2906 31.2607 19.6306Z" fill="white"/>
<path d="M31.2307 20.9407C30.6307 23.1507 29.0507 24.5907 27.6907 24.1707C26.3407 23.7507 25.7307 21.6207 26.3307 19.4107C26.9307 17.2007 28.5107 15.7607 29.8707 16.1807C31.2207 16.6007 31.8407 18.7307 31.2307 20.9307V20.9407Z" fill="#201312"/>
<path d="M31.0507 19.6905C30.6807 21.0705 29.5107 21.9105 28.4407 21.5805C27.3807 21.2505 26.8207 19.8605 27.1907 18.4905C27.5707 17.1105 28.7307 16.2705 29.8007 16.6005C30.8707 16.9305 31.4207 18.3205 31.0507 19.6905Z" fill="#675452"/>
<path d="M29.1209 18.4607C28.9109 18.9907 28.4709 19.2907 28.1509 19.1407C27.8309 18.9907 27.7409 18.4407 27.9509 17.9207C28.1609 17.3907 28.6009 17.0907 28.9209 17.2407C29.2409 17.3907 29.3309 17.9307 29.1209 18.4607Z" fill="#DDE0CE"/>
<path d="M38.1109 26.8508L39.1809 26.5508C39.1809 26.5508 40.0209 28.8608 37.9709 30.1308C35.9209 31.4008 27.5209 33.0508 25.6909 35.8608C25.6909 35.8608 25.0209 34.1208 26.7509 30.8108C28.4809 27.5008 38.1109 26.8608 38.1109 26.8608V26.8508Z" fill="#EC7A23"/>
<g style="mix-blend-mode:multiply" opacity="0.7">
<path d="M39.1808 26.5508L38.1107 26.8508C38.1107 26.8508 28.4707 27.4908 26.7507 30.8008C26.2307 31.7908 25.9307 32.6408 25.7607 33.3508C26.0507 33.1108 26.3407 32.8608 26.6507 32.6808C27.1607 32.3808 27.6807 32.1008 28.2307 31.8808C29.3907 31.4008 30.5908 31.0008 31.7808 30.5908C33.0008 30.1708 34.2208 29.8008 35.4608 29.5208C36.4008 29.3008 37.3707 29.0008 38.3307 29.2008C38.4007 29.2208 38.4307 29.3208 38.3907 29.4008C38.2807 29.6508 38.1508 29.8808 38.0208 30.1008C40.0108 28.8208 39.1808 26.5508 39.1808 26.5508Z" fill="#EC7A23"/>
</g>
<path d="M37.1409 26.8007L38.9209 26.2207C38.9209 26.2207 38.5709 27.9107 36.8709 28.9607C35.1709 30.0107 27.7009 31.9707 26.1809 34.3007C26.1809 34.3007 26.2909 32.8207 27.7209 30.0707C29.1509 27.3307 37.1409 26.8007 37.1409 26.8007Z" fill="#831214"/>
<g style="mix-blend-mode:screen">
<path d="M36.8307 28.8809C35.3707 29.5109 27.6107 31.7009 26.4907 33.9109C28.5207 31.7609 35.2707 29.9609 36.8707 28.9609C37.0007 28.8809 37.1207 28.8009 37.2307 28.7109C37.0907 28.7709 36.9507 28.8209 36.8207 28.8809H36.8307Z" fill="white"/>
</g>
<path d="M37.3208 23.3708C37.3208 23.3708 40.0208 24.8608 39.0108 27.0108C38.0008 29.1608 26.7308 29.5308 24.6108 34.6208C24.6108 34.6208 24.6808 25.8908 29.5408 22.0108C34.4008 18.1308 37.3208 23.3608 37.3208 23.3608V23.3708Z" fill="#EF8E21"/>
<g style="mix-blend-mode:multiply">
<path d="M37.3207 23.371C37.3207 23.371 36.7607 22.361 35.7207 21.561C36.4107 22.341 36.9907 23.391 36.5707 24.291C37.3407 24.361 38.8107 25.211 38.0907 26.191C37.6107 26.841 36.8607 27.111 36.1807 27.271C35.3207 27.471 34.4507 27.611 33.5907 27.771C31.6307 28.141 29.6407 28.541 27.9007 29.761C27.0607 30.351 26.2607 31.071 25.6607 31.991C25.2007 32.711 24.9107 33.491 24.7407 34.331C27.1507 29.511 38.0207 29.111 39.0107 27.001C40.0207 24.851 37.3207 23.361 37.3207 23.361V23.371Z" fill="#F09B20"/>
</g>
<g style="mix-blend-mode:screen" opacity="0.7">
<path d="M28.8309 25.3808C30.3309 23.6008 32.1009 22.2408 34.0809 21.1608C33.5409 20.9308 32.9109 20.8208 32.2109 20.9208C32.2109 20.9208 26.1509 22.4408 24.9509 32.3208C25.9009 29.8508 27.1209 27.4008 28.8209 25.3808H28.8309Z" fill="#FAEFCD"/>
</g>
<path d="M24.9006 10.5909C24.9006 10.5909 28.0407 6.85093 30.3707 10.5909C30.3707 10.5909 27.6406 9.69093 24.9006 10.5909Z" fill="#201312"/>
<path d="M36.8208 9.76086C36.8208 9.76086 39.9608 6.02085 42.2908 9.76086C42.2908 9.76086 39.5608 8.86086 36.8208 9.76086Z" fill="#201312"/>
</svg>
