<svg width="134" height="92" viewBox="0 0 134 92" fill="none" xmlns="http://www.w3.org/2000/svg">
<path d="M81.7367 74.9224C81.7367 74.9224 80.9925 83.1288 92.9068 82.3652C104.813 81.6108 120.332 78.4736 126.836 80.2308C132.091 82.0432 133.347 84.5456 133.479 85.5576C133.611 86.5696 132.58 85.346 132.58 85.346C132.58 85.346 133.975 89.0261 132.355 90.7281C131.456 91.5285 130.518 90.2497 130.518 90.2497C130.518 90.2497 131.014 91.3629 130.2 91.5837C129.394 91.7953 128.944 90.5165 128.944 90.5165C128.944 90.5165 128.495 92.2737 127.735 91.9517C126.968 91.6297 127.867 90.0289 127.913 88.4373C127.96 86.8364 122.169 84.1868 107.898 85.8796C93.6277 87.5725 77.512 92.5497 77.1787 76.0172L81.7367 74.9224Z" fill="#FDDF00"/>
<path d="M126.826 80.24C126.431 80.1296 126.005 80.0467 125.54 79.9731C125.02 80.4331 124.664 81.114 124.826 81.9512C124.966 82.6412 125.237 83.276 125.4 83.9476C125.423 84.0488 125.33 84.242 125.237 84.2604C124.702 84.38 124.16 84.3156 123.617 84.38C124.067 85.3 124.795 85.8796 125.478 86.5328C127.144 87.1308 127.912 87.8576 127.896 88.4464C127.85 90.0472 126.95 91.6388 127.718 91.9608C128.477 92.2828 128.927 90.5256 128.927 90.5256C128.927 90.5256 129.377 91.8044 130.183 91.5928C130.989 91.3812 130.501 90.2588 130.501 90.2588C130.501 90.2588 131.446 91.5376 132.338 90.7372C133.958 89.0352 132.563 85.3552 132.563 85.3552C132.563 85.3552 133.594 86.5788 133.462 85.5668C133.33 84.5548 132.074 82.0524 126.819 80.24H126.826Z" fill="#FFFCD5"/>
<path d="M80.815 80.0186C80.7762 79.6506 80.5669 79.3838 80.0941 79.485C80.0708 79.485 80.0398 79.5034 80.0166 79.531C79.6755 79.4298 79.3189 79.4574 78.9779 79.7426C78.3887 80.221 78.7686 81.095 79.1406 81.5918C79.5515 82.1438 80.3887 81.509 80.6212 81.049C80.753 80.773 80.846 80.4234 80.8305 80.1198C80.846 80.083 80.846 80.0462 80.8305 80.0186H80.815Z" fill="#BD6D00"/>
<path d="M84.1345 84.9497C84.0958 84.7841 84.0182 84.6553 83.9175 84.5357C83.8245 84.4345 83.7469 84.3977 83.6617 84.4161C83.5842 84.3609 83.5066 84.3149 83.4214 84.2873C83.1423 84.1953 82.9098 84.3977 82.7315 84.6369C82.5299 84.9221 82.4912 85.2901 82.6307 85.6121C82.8788 86.1825 83.5144 86.4677 83.902 85.9065C84.0803 85.6489 84.2043 85.2809 84.1345 84.9497Z" fill="#BD6D00"/>
<path d="M89.2993 84.2505C89.2993 84.2505 89.2683 84.1677 89.245 84.1217C89.2915 84.0481 89.307 83.9653 89.2683 83.9193C89.0977 83.7629 88.8962 83.6616 88.6869 83.6156C88.5784 83.5696 88.4776 83.5421 88.3923 83.5605C88.3691 83.5605 88.3458 83.5697 88.3226 83.5789C87.8807 83.5973 87.4466 83.8272 87.1676 84.2321C86.6404 84.9957 87.2528 86.3941 88.1055 86.0169C88.6481 85.7777 89.5396 85.0509 89.2993 84.2413V84.2505Z" fill="#BD6D00"/>
<path d="M95.1624 83.3767C94.6896 83.0731 94.1237 83.1099 93.6741 83.5791C93.4726 83.7907 93.2943 84.0759 93.3253 84.4071C93.3563 84.7751 93.7671 84.9867 94.0152 85.1063C94.6276 85.4007 95.4027 85.2351 95.7748 84.5359C96.1004 83.9103 95.6973 83.4135 95.1624 83.3767Z" fill="#BD6D00"/>
<path d="M98.2329 83.8548C98.2329 83.8548 98.2019 83.8088 98.1864 83.7904C98.2096 83.7076 98.2096 83.6432 98.1476 83.634C97.9771 83.6248 97.7988 83.588 97.6283 83.634C97.4112 83.6892 97.2329 83.9192 97.1321 84.14C97.0391 84.3424 97.0159 84.5816 97.1244 84.7748C97.2329 84.9772 97.4422 85.06 97.6283 84.9864C97.9383 84.8576 98.4112 84.2872 98.2406 83.864L98.2329 83.8548Z" fill="#BD6D00"/>
<path d="M101.68 84.3333C101.231 83.8917 100.223 84.3241 99.8508 84.7105C99.595 84.9773 99.2617 85.4649 99.3702 85.9065C99.4942 86.4309 99.9671 86.5965 100.386 86.6425C101.138 86.7161 101.913 85.9985 102.037 85.1245C102.091 84.7289 101.92 84.4621 101.68 84.3333Z" fill="#BD6D00"/>
<path d="M107.565 83.1474C107.534 82.945 107.348 82.6874 107.185 82.6046C107.1 82.5586 107.014 82.5586 106.921 82.577C106.72 82.5034 106.495 82.531 106.325 82.6874C106.084 82.9082 105.906 83.2578 105.945 83.6258C105.984 83.9386 106.216 84.1134 106.441 84.2238C107.03 84.5366 107.673 83.8834 107.557 83.1382L107.565 83.1474Z" fill="#BD6D00"/>
<path d="M114.272 82.9629C114.288 82.8985 114.295 82.8249 114.257 82.7789C114.233 82.7421 114.202 82.7145 114.179 82.6777C114.04 82.4017 113.776 82.2821 113.528 82.3373C112.993 82.2545 112.357 82.4753 111.993 82.8065C111.389 83.3677 111.373 84.4809 112.156 84.8029C112.854 85.0881 113.706 84.5729 114.086 83.8829C114.249 83.5885 114.326 83.2849 114.264 82.9537L114.272 82.9629Z" fill="#BD6D00"/>
<path d="M118.071 81.8404C118.024 81.5552 117.807 81.3252 117.583 81.3528C117.49 81.2884 117.397 81.2424 117.296 81.224C116.846 81.132 116.288 81.5552 116.319 82.144C116.35 82.88 117.226 83.294 117.699 82.8248C117.947 82.5764 118.141 82.2268 118.071 81.8312V81.8404Z" fill="#BD6D00"/>
<path d="M121.564 82.9906C121.471 82.9906 121.386 83.0365 121.308 83.1101C121.308 83.1101 121.309 83.1102 121.301 83.1194C121.285 83.1378 121.27 83.1561 121.254 83.1745C121.254 83.1745 121.246 83.1837 121.239 83.1929C121.184 83.2665 121.146 83.3493 121.122 83.4413C121.107 83.4781 121.091 83.5241 121.084 83.561C121.029 83.8094 121.231 83.9565 121.409 83.8829C121.588 83.8093 121.75 83.5609 121.774 83.3401C121.789 83.1745 121.727 82.9814 121.564 82.9906Z" fill="#BD6D00"/>
<path d="M124.837 82.586C124.782 82.4112 124.635 82.31 124.48 82.2456C124.247 82.1352 123.953 82.034 123.705 82.1444C123.271 82.3284 122.945 82.9816 123.286 83.4416C123.542 83.7912 124.023 84.012 124.402 83.8464C124.689 83.7176 124.875 83.414 124.961 83.0736C124.999 82.8988 124.937 82.7332 124.837 82.5952V82.586Z" fill="#BD6D00"/>
<path d="M127.385 82.8525C127.323 82.8617 127.269 82.8893 127.215 82.9261C126.773 82.8985 126.362 83.4689 126.362 83.9933C126.362 84.5269 126.757 84.8213 127.168 84.8121C127.656 84.8121 128.152 84.3613 128.16 83.7449C128.168 83.2297 127.85 82.7513 127.385 82.8525Z" fill="#BD6D00"/>
<g style="mix-blend-mode:multiply">
<path d="M125.47 79.9548C118.347 78.8692 104.045 81.6568 92.898 82.3652C80.9837 83.1196 81.7279 74.9224 81.7279 74.9224L77.1699 76.0172C77.1854 76.7992 77.2397 77.5352 77.325 78.2252C78.6117 77.7008 80.6427 77.1948 81.4566 78.7772C82.6891 81.1692 82.7976 85.5484 97.1226 83.5612C110.595 81.5648 118.323 79.7984 124.881 80.9208C125.021 80.4792 125.277 80.1572 125.47 79.9548Z" fill="#F9C812"/>
</g>
<g style="mix-blend-mode:multiply">
<path d="M78.6748 77.2036C79.4034 76.9828 80.1476 76.8632 80.8685 76.624C81.1863 76.5136 81.5041 76.394 81.8142 76.2652C81.6824 75.474 81.7367 74.9312 81.7367 74.9312L77.1787 76.026C77.1865 76.5688 77.2252 77.0748 77.2717 77.5808C77.7446 77.498 78.2097 77.3508 78.6748 77.2128V77.2036Z" fill="#F9C812"/>
</g>
<g style="mix-blend-mode:multiply">
<path d="M124.318 85.4009C119.062 84.5453 111.202 84.4257 103.474 85.9161C99.2414 86.7349 96.8074 87.2593 94.6602 87.6641C98.9003 87.2409 103.482 86.4037 107.892 85.8885C116.869 84.8213 122.481 85.4745 125.403 86.5049C124.969 86.1645 124.597 85.7689 124.31 85.4009H124.318Z" fill="#F9C812"/>
</g>
<path d="M133.481 85.5662C133.349 84.5542 132.093 82.0518 126.838 80.2394C126.419 80.129 125.962 80.037 125.481 79.9634C125.287 80.1566 125.032 80.4878 124.892 80.9294C125.303 81.003 125.714 81.0766 126.125 81.1778C131.047 82.3738 131.76 83.7078 131.621 84.4714C131.497 85.143 130.504 84.1954 130.241 83.9378C130.659 84.3702 133.124 87.029 132.264 88.823C131.326 90.7827 130.109 87.2866 130.109 87.2866C130.109 87.2866 130.752 89.8443 130.109 90.1019C129.458 90.3595 128.814 87.5442 128.814 87.5442C128.814 87.5442 129.171 90.1019 128.458 90.2767C127.737 90.4423 130.109 86.431 124.861 85.4926C124.691 85.465 124.512 85.4374 124.334 85.4006C124.621 85.7594 124.993 86.1642 125.427 86.5046C127.156 87.1118 127.938 87.8478 127.923 88.4458C127.876 90.0466 126.977 91.6383 127.745 91.9603C128.504 92.2823 128.954 90.525 128.954 90.525C128.954 90.525 129.404 91.8039 130.21 91.5923C131.016 91.3807 130.528 90.2583 130.528 90.2583C130.528 90.2583 131.473 91.5371 132.365 90.7367C133.985 89.0346 132.589 85.3546 132.589 85.3546C132.589 85.3546 133.62 86.5782 133.489 85.5662H133.481Z" fill="#FBD79F"/>
<g style="mix-blend-mode:screen">
<path d="M101.145 85.7048C96.7652 86.4592 92.3778 87.4528 87.9283 87.1124C85.7734 86.9468 83.944 86.4316 82.0681 85.1436C80.4015 84.0028 78.5721 81.9604 78.4558 79.5316C78.4558 79.4672 78.3706 79.5592 78.3706 79.596C78.293 84.334 83.1223 86.9192 86.4323 87.4528C91.1375 88.2164 96.4086 87.4528 100.99 86.1096C101.106 86.0728 101.331 85.6588 101.129 85.6956L101.145 85.7048Z" fill="#FDDF00"/>
</g>
<path d="M88.2402 44.6917C88.2402 44.6917 91.6975 32.0877 99.922 31.692C108.146 31.2964 112.263 45.7405 114.526 51.2146C119.146 47.1298 123.673 46.5318 124.014 49.623C124.603 50.1198 124.262 51.417 124.262 51.417C124.262 51.417 126.448 52.5118 123.588 56.3022C120.735 60.0926 116.79 64.1683 116.79 64.1683L107.053 57.1946C107.053 57.1946 102.86 49.4206 99.922 46.3385C96.9841 43.2473 94.6353 57.7926 94.6353 57.7926C94.6353 57.7926 92.6199 59.6878 91.6122 56.201C90.6045 52.7142 88.2402 44.7009 88.2402 44.7009V44.6917Z" fill="#FDDF00"/>
<g style="mix-blend-mode:multiply">
<path d="M88.2402 44.6917C88.2402 44.6917 91.6975 32.0877 99.922 31.692C108.146 31.2964 112.263 45.7405 114.526 51.2146C119.146 47.1298 123.673 46.5318 124.014 49.623C124.603 50.1198 124.262 51.417 124.262 51.417C124.262 51.417 126.448 52.5118 123.588 56.3022C120.735 60.0926 116.79 64.1683 116.79 64.1683L107.053 57.1946C107.053 57.1946 102.86 49.4206 99.922 46.3385C96.9841 43.2473 94.6353 57.7926 94.6353 57.7926C94.6353 57.7926 92.6199 59.6878 91.6122 56.201C90.6045 52.7142 88.2402 44.7009 88.2402 44.7009V44.6917Z" fill="#F9C812"/>
</g>
<path d="M93.1623 46.311C92.7437 45.9154 92.077 45.9615 91.7825 46.5503C91.3871 47.3415 91.86 48.1971 92.4956 48.4915C93.17 48.8135 93.9142 48.0315 93.9762 47.2403C94.0304 46.5963 93.6041 46.2926 93.1623 46.311Z" fill="#BD6D00"/>
<path d="M91.7544 39.5482C91.7467 39.4562 91.7157 39.3642 91.6769 39.2906C91.6614 39.0882 91.5839 38.8858 91.4366 38.757C91.3126 38.6466 91.1111 38.7478 90.9948 38.8306C90.8165 38.9594 90.6847 39.1802 90.5917 39.401C90.4444 39.7506 90.3979 40.1922 90.5142 40.5694C90.6692 41.0294 91.0878 40.9742 91.3514 40.7074C91.6227 40.4314 91.7932 39.9806 91.7544 39.5482Z" fill="#BD6D00"/>
<path d="M95.2609 41.6827C95.2609 41.6827 95.2454 41.6183 95.2377 41.5907C95.2687 41.5263 95.2764 41.4527 95.2609 41.4067C94.9508 40.6799 94.2067 40.0911 93.6253 40.7995C93.3308 41.1491 93.1137 41.6183 93.137 42.1243C93.1602 42.5843 93.447 42.796 93.7881 42.9524C94.0904 43.0904 94.447 43.1088 94.7261 42.8788C95.0516 42.6119 95.3384 42.1703 95.2609 41.6827Z" fill="#BD6D00"/>
<path d="M97.6047 35.3262C97.5117 35.133 97.4729 34.811 97.3101 34.719C97.0466 34.5718 96.7753 34.9306 96.6435 35.1606C96.4652 35.4734 96.5505 35.9058 96.659 36.2278C96.7985 36.6786 97.1784 36.9454 97.5272 37.1386C98.2326 37.5342 98.9302 37.019 99.0775 36.1266C99.217 35.2434 98.1551 35.1606 97.6047 35.3262Z" fill="#BD6D00"/>
<path d="M103.045 34.1665C102.983 33.7985 102.665 33.8169 102.441 33.6697C102.224 33.5317 102.053 33.4765 101.867 33.5409C101.689 33.5225 101.51 33.5593 101.34 33.6789C101.069 33.8721 100.867 34.2401 100.875 34.6173C100.89 35.0221 101.286 35.1969 101.557 35.2705C101.867 35.3533 102.185 35.2705 102.479 35.1325C102.774 34.9945 103.107 34.5713 103.037 34.1665H103.045Z" fill="#BD6D00"/>
<path d="M106.256 39.0985C106.148 38.6017 105.566 38.4637 105.318 38.0957C105.303 37.6541 105.411 37.1665 105.124 36.8353C104.853 36.5133 104.388 36.8353 104.163 37.0561C103.876 37.3597 103.729 37.8473 103.752 38.2981C103.783 38.8777 104.342 39.4113 104.729 39.6689C105.016 39.8621 105.45 40.2117 105.791 40.0277C106.062 39.8805 106.334 39.4573 106.256 39.0893V39.0985Z" fill="#BD6D00"/>
<path d="M103.323 44.6176C102.998 44.2588 102.672 43.8448 102.192 43.9368C102.13 43.946 102.021 44.038 101.928 44.1576C101.765 44.2128 101.61 44.3324 101.479 44.5072C100.897 45.2708 101.331 46.0896 101.928 46.6141C102.223 46.8809 102.579 47.0373 102.944 46.9177C103.339 46.7797 103.657 46.2276 103.75 45.7768C103.843 45.3076 103.595 44.9304 103.316 44.6268L103.323 44.6176Z" fill="#BD6D00"/>
<path d="M99.9532 40.7819C99.8292 40.5887 99.6431 40.4507 99.4261 40.4507C98.9998 40.4507 98.5967 40.9843 98.5967 41.4903C98.5967 41.9043 98.8757 42.2631 99.2013 42.3919C99.5966 42.5483 100.062 42.1527 100.194 41.7203C100.302 41.3799 100.209 40.9751 99.9532 40.7727V40.7819Z" fill="#BD6D00"/>
<path d="M110.193 44.5995C110.162 44.4339 109.953 44.2591 109.852 44.1671C109.829 44.1395 109.813 44.1211 109.798 44.1027C109.798 44.1027 109.798 44.0935 109.798 44.0843C109.767 43.8175 109.682 43.5599 109.728 43.2931C109.759 43.1091 109.79 42.9435 109.728 42.7595C109.612 42.4007 109.038 42.6951 108.875 42.7963C108.24 43.1919 107.883 44.1119 108.085 44.9307C108.294 45.7863 109.154 46.2279 109.782 45.7219C110.116 45.4459 110.271 45.0595 110.185 44.5903L110.193 44.5995Z" fill="#BD6D00"/>
<path d="M112.792 51.9041C112.714 51.7845 112.613 51.6741 112.497 51.5729C112.497 51.5729 112.482 51.5545 112.474 51.5453C112.257 51.2785 111.854 51.2785 111.598 51.4165C111.272 51.5913 111.048 52.0053 111.024 52.4285C111.009 52.7873 111.427 53.1093 111.644 53.2749C112.001 53.5417 112.303 53.4037 112.606 53.1001C112.916 52.7781 113.055 52.2997 112.784 51.9041H112.792Z" fill="#BD6D00"/>
<path d="M112.114 48.2795C112.075 48.0311 111.881 47.8379 111.664 47.8379C111.37 47.8379 111.091 48.2151 111.06 48.5463C111.029 48.8499 111.207 49.0983 111.439 49.1903C111.742 49.3099 112.06 48.8683 112.114 48.5555C112.122 48.4911 112.114 48.4267 112.114 48.3623C112.122 48.3347 112.129 48.3071 112.129 48.2795H112.114Z" fill="#BD6D00"/>
<path d="M107.055 50.5616C107.016 50.4604 106.954 50.3592 106.876 50.258C106.776 50.0371 106.559 49.8715 106.349 49.7703C106.318 49.7519 106.287 49.7335 106.256 49.7151C106.202 49.6783 106.14 49.6783 106.086 49.6783C105.698 49.5955 105.326 49.8347 105.156 50.2763C104.962 50.7639 105.241 51.1687 105.574 51.4263C105.853 51.6471 106.218 51.8864 106.559 51.7392C106.946 51.5736 107.241 51.0215 107.055 50.5523V50.5616Z" fill="#BD6D00"/>
<path d="M108.859 54.3229C108.627 54.0837 108.348 53.9273 108.038 54.0653C107.611 54.2585 107.394 54.8197 107.65 55.2889C107.852 55.6661 108.255 55.9053 108.619 55.9881C109.03 56.0801 109.433 55.7213 109.472 55.2153C109.503 54.7829 109.154 54.4977 108.859 54.3137V54.3229Z" fill="#BD6D00"/>
<path d="M96.3726 47.231C96.3726 47.231 96.3339 47.1482 96.3184 47.1114C96.2874 47.0102 96.2331 46.9366 96.1633 46.8722C96.0393 46.725 95.8843 46.633 95.6905 46.7066C95.6672 46.7066 95.644 46.7342 95.6207 46.7526C95.3727 46.8446 95.1789 47.1482 95.1169 47.4978C95.0316 48.0038 95.5122 48.4454 95.9075 48.381C96.1633 48.335 96.3726 48.0222 96.4424 47.7462C96.4889 47.553 96.4424 47.3966 96.3804 47.231H96.3726Z" fill="#BD6D00"/>
<path d="M124.133 51.3976C122.071 51.094 120.095 52.198 118.746 54.0564C118.606 54.2496 118.707 54.5256 118.893 54.2864C120.265 52.52 122.017 51.5172 124.056 51.554C124.102 51.554 124.195 51.4068 124.133 51.3976Z" fill="#BD6D00"/>
<path d="M123.961 49.6682C122.295 48.463 120.163 50.0086 118.907 51.2966C118.845 51.361 118.822 51.5542 118.938 51.4622C119.651 50.8826 120.326 50.2754 121.117 49.8522C121.899 49.4382 123.054 49.5946 123.861 49.8522C123.907 49.8706 124.016 49.7142 123.961 49.6774V49.6682Z" fill="#BD6D00"/>
<path d="M101.162 47.6995C100.588 46.7242 99.8981 45.8594 99.371 44.829C98.8982 43.909 98.5261 42.9798 98.185 41.9862C98.154 41.885 97.9912 42.0874 98.0145 42.1702C98.6191 44.2954 99.4873 46.4666 100.952 47.9571C101.03 48.0307 101.2 47.7823 101.154 47.6995H101.162Z" fill="#BD6D00"/>
<g style="mix-blend-mode:multiply">
<path d="M96.7226 45.0688C95.2885 47.1204 93.6762 51.2328 92.7847 48.4636C91.8003 45.538 90.3352 43.192 89.3042 41.7476C88.5833 43.4588 88.25 44.6916 88.25 44.6916C88.25 44.6916 90.6143 52.7048 91.622 56.1917C92.6297 59.6785 94.6451 57.7833 94.6451 57.7833C94.6451 57.7833 96.9939 43.238 99.9317 46.3292C100.048 46.4488 100.164 46.5776 100.281 46.7156C98.986 44.1764 98.2031 41.9868 98.2031 41.9868C98.2031 41.9868 98.1644 43.0172 96.7303 45.0688H96.7226Z" fill="#F9C812"/>
</g>
<g style="mix-blend-mode:multiply">
<path d="M124.261 51.4161C124.261 51.4161 124.594 50.1189 124.013 49.6221C123.966 49.1713 123.819 48.8033 123.61 48.5089C122.369 48.2329 120.253 48.3341 118.726 51.3793C120.788 49.8797 122.424 49.0425 123.176 49.8797C123.927 50.7169 119.618 50.2109 118.633 54.3878C120.695 52.3269 122.85 51.2781 123.788 52.0509C124.726 52.8329 123.602 53.661 121.493 54.9398C119.385 56.2186 116.618 59.779 116.618 59.779C116.618 59.779 112.23 55.4366 105.362 54.2129C106.378 55.9334 107.06 57.203 107.06 57.203L116.796 64.1766C116.796 64.1766 120.742 60.0918 123.594 56.3106C126.447 52.5201 124.269 51.4253 124.269 51.4253L124.261 51.4161Z" fill="#F9C812"/>
</g>
<g style="mix-blend-mode:screen" opacity="0.5">
<path d="M111.821 46.1814C110.185 41.4894 107.751 35.5921 103.798 33.1357C100.31 30.9645 95.4726 33.3289 92.9766 36.4661C92.9301 36.5213 92.9301 36.641 93.0076 36.5582C96.3795 32.9701 101.317 31.5073 105.046 35.1045C108.085 38.0302 109.302 42.897 111.402 46.6506C111.542 46.8898 111.898 46.393 111.821 46.1814Z" fill="#F9C812"/>
</g>
<path d="M122.603 47.8927C120.014 46.8439 116.642 49.6315 115.052 51.7659C115.014 51.8119 115.037 51.8763 115.091 51.8211C117.045 49.7235 119.595 47.7915 122.378 48.3435C122.525 48.3711 122.781 47.9663 122.603 47.8927Z" fill="#F9C812"/>
<path d="M71.8844 37.3856C71.8844 37.3856 90.2945 32.16 92.8758 57.129C101.379 53.2741 111.115 56.5954 116.487 62.1798C120.96 55.9422 124.208 54.3413 124.882 57.6626C127.34 58.1962 126.564 61.913 126.564 61.913C128.247 62.1798 127.572 65.0962 124.658 68.0218C121.751 70.9475 118.526 78.9515 114.681 79.2367C111.674 79.3747 112.038 76.5227 112.038 76.5227C112.038 76.5227 105.426 72.2447 102.426 69.5307C99.7825 67.111 97.6198 68.8222 91.372 71.5271C85.1242 74.2411 78.8763 77.6635 69.3806 77.8015C68.4194 66.2462 71.8921 37.3764 71.8921 37.3764L71.8844 37.3856Z" fill="#FDDF00"/>
<path d="M71.8844 37.3856C71.8844 37.3856 90.2945 32.16 92.8758 57.129C101.379 53.2741 111.115 56.5954 116.487 62.1798C120.96 55.9422 124.208 54.3413 124.882 57.6626C127.34 58.1962 126.564 61.913 126.564 61.913C128.247 62.1798 127.572 65.0962 124.658 68.0218C121.751 70.9475 118.526 78.9515 114.681 79.2367C111.674 79.3747 112.038 76.5227 112.038 76.5227C112.038 76.5227 105.426 72.2447 102.426 69.5307C99.7825 67.111 97.6198 68.8222 91.372 71.5271C85.1242 74.2411 78.8763 77.6635 69.3806 77.8015C68.4194 66.2462 71.8921 37.3764 71.8921 37.3764L71.8844 37.3856Z" fill="#FDDF00"/>
<g style="mix-blend-mode:multiply">
<path d="M126.557 61.9041C126.557 61.9041 127.339 58.1873 124.874 57.6537C124.774 57.1569 124.619 56.7705 124.402 56.4945C123.851 56.6509 123.146 56.9085 122.293 57.3777C119.813 58.7209 119.968 61.7293 119.968 61.7293C119.968 61.7293 120.177 59.8249 123.014 58.5369C125.851 57.2489 126.27 60.0733 124.665 60.4413C121.309 61.0577 121.309 65.4093 121.309 65.4093C121.309 65.4093 123.27 62.4653 125.285 62.2169C127.301 61.9685 127.657 63.6429 124.634 65.9061C121.619 68.1694 118.394 75.2166 115.883 75.695C113.371 76.1734 112.867 72.3554 113.371 69.6046C110.658 74.3794 107.736 70.2026 104.317 66.2649C100.899 62.3273 97.2709 63.0449 92.2478 66.8629C87.217 70.681 83.3954 66.0257 86.5116 61.9685C91.1316 57.0833 97.1236 55.6757 101.968 55.4917C98.9375 55.2985 95.8291 55.7677 92.8602 57.1109C92.3563 52.2532 91.2556 48.5456 89.8138 45.712C91.4261 51.738 89.4727 56.8717 87.2557 58.6197C84.3876 60.8921 79.07 62.5297 79.3801 57.0465C79.6901 51.5632 80.7676 45.9972 77.3647 40.192C76.4345 38.6096 76.4267 37.5883 76.9073 36.9443C74.0004 36.7603 71.8765 37.3583 71.8765 37.3583C71.8765 37.3583 68.4037 66.2281 69.365 77.7834C78.8607 77.6362 85.1085 74.2138 91.3564 71.509C97.6042 68.795 99.7669 67.0837 102.41 69.5126C105.418 72.2266 112.022 76.5046 112.022 76.5046C112.022 76.5046 111.666 79.3566 114.666 79.2186C118.51 78.9334 121.727 70.9294 124.642 68.0038C127.549 65.0781 128.223 62.1617 126.549 61.8949L126.557 61.9041Z" fill="#F9C812"/>
</g>
<g style="mix-blend-mode:multiply">
<path d="M114.779 77.7377C113.004 77.6733 112.214 76.3577 112.493 74.3153C112.508 74.2141 112.524 74.1497 112.532 74.1037C112.508 74.1405 112.47 74.1957 112.415 74.2417C112.291 74.3613 112.105 74.5361 111.927 74.4349C110.857 73.7725 109.803 73.0825 108.764 72.3557C107.648 71.5645 106.547 70.7457 105.478 69.8624C104.493 69.0528 103.563 68.096 102.509 67.4336C100.516 66.1916 98.6871 66.5504 96.7492 67.7832C94.571 69.1724 92.4393 70.672 90.2378 72.0245C90.6099 71.8589 90.9897 71.6933 91.3618 71.5277C97.6096 68.8136 99.7723 67.1024 102.416 69.5312C105.423 72.2453 112.028 76.5233 112.028 76.5233C112.028 76.5233 111.671 79.3753 114.671 79.2373C115.849 79.1545 116.973 78.3357 118.043 77.1673C116.958 77.5445 115.849 77.7837 114.772 77.7469L114.779 77.7377Z" fill="#F9C812"/>
</g>
<path d="M28.1041 11.497C28.1041 11.497 27.4452 2.5177 36.0728 0.226885C44.15 -1.91673 45.9096 11.727 40.2044 16.005C40.2044 16.005 33.0574 10.853 28.0963 11.5062L28.1041 11.497Z" fill="#F9C812"/>
<g style="mix-blend-mode:multiply">
<path d="M41.5903 9.37233C41.9468 7.09992 41.0321 2.61949 38.7299 2.23308C35.0091 1.59828 32.8232 4.7907 32.0635 6.63071C31.3038 8.47072 29.49 8.15792 29.9783 5.90391C30.2961 4.4503 31.017 3.26349 31.9085 2.30669C27.6761 5.78431 28.0947 11.5067 28.0947 11.5067C33.048 10.8535 40.2027 16.0056 40.2027 16.0056C43.4507 13.5768 44.2723 8.10272 42.8926 4.2387C44.1948 9.22513 41.2957 11.2399 41.5825 9.37233H41.5903Z" fill="#F9C812"/>
</g>
<path d="M39.5729 7.92798C39.5729 7.92798 40.1465 8.14878 40.6193 8.81119C40.6193 8.81119 40.8829 1.69034 36.5575 3.14395C32.2321 4.59756 31.9065 10.5592 31.9065 10.5592C31.9065 10.5592 32.6661 9.61159 34.201 8.98598C33.5343 10.09 33.3948 11.4148 33.4026 12.3624C35.1777 13.0156 36.852 13.908 38.0923 14.644C41.0224 11.24 39.5651 7.92798 39.5651 7.92798H39.5729Z" fill="#E27870"/>
<g style="mix-blend-mode:multiply" opacity="0.5">
<path d="M34.2034 8.98558C33.5367 10.0896 33.3972 11.4144 33.4049 12.362C33.9941 12.5828 34.5677 12.822 35.1181 13.0796C37.335 11.2488 38.5753 8.63598 37.211 5.27796C37.18 5.19516 37.1722 4.95596 37.273 4.94676C37.9552 4.86396 38.5908 5.06636 38.9706 5.71036C38.8776 4.46836 38.3117 3.57595 37.5133 2.96875C37.2188 2.97795 36.9009 3.04235 36.5521 3.15275C32.2267 4.60636 31.9011 10.568 31.9011 10.568C31.9011 10.568 32.6608 9.62039 34.1956 8.99479L34.2034 8.98558Z" fill="#E27870"/>
</g>
<path d="M9.42928 36.6589C9.42928 36.6589 3.60005 39.9158 1.16604 33.0065C-1.27573 26.0973 3.42952 20.5036 8.18127 20.522C12.933 20.5404 12.964 26.4469 12.964 26.4469L9.42928 36.6497V36.6589Z" fill="#F9C812"/>
<g style="mix-blend-mode:multiply">
<path d="M8.17912 20.5312C7.51248 20.5312 6.84584 20.6416 6.20245 20.844C7.54349 20.6508 8.99304 20.7612 10.148 21.6629C13.0859 23.9629 10.6441 27.5785 9.88448 25.9777C8.99304 24.0917 5.57457 21.2396 3.00878 25.4349C0.202682 30.0257 4.90793 33.1537 3.03203 33.7333C2.24136 33.9817 1.52046 33.3009 0.95459 32.4085C1.0166 32.6109 1.07862 32.8133 1.14838 33.0157C3.5824 39.925 9.41163 36.6682 9.41163 36.6682L12.9464 26.4653C12.9464 26.4653 12.9154 20.5588 8.16362 20.5404L8.17912 20.5312Z" fill="#F9C812"/>
</g>
<path d="M4.59438 32.4727C4.59438 32.4727 2.28439 30.3566 3.41613 26.9618C4.54787 23.5762 8.9353 24.5146 9.97402 29.2434C10.6562 32.8867 6.36175 36.5575 5.91216 32.1323C5.36179 33.2823 5.50132 34.0551 5.50132 34.0551C5.50132 34.0551 4.50136 34.0459 4.59438 32.4727Z" fill="#E27870"/>
<g style="mix-blend-mode:multiply" opacity="0.5">
<path d="M3.40772 26.9619C2.96588 28.2959 3.05115 29.4275 3.32245 30.3199C3.67128 30.5683 3.71004 30.2187 3.88057 29.7955C4.15963 29.0871 4.5007 28.4247 4.86503 27.7807C4.86503 27.7807 4.88054 27.7623 4.88054 27.7531C4.97355 27.5967 4.95805 27.9279 4.9348 27.9923C4.64799 28.6363 4.741 29.3815 4.9813 30.0071C5.23711 28.9675 6.17505 28.6823 7.04324 28.4615C7.15176 28.4339 7.06649 28.7283 7.04324 28.7651C6.43861 29.7219 7.24478 30.7523 7.96568 31.0375C8.43853 31.2215 8.93464 31.2031 9.39199 30.9731C9.65555 30.8351 9.85708 30.6511 10.0121 30.4303C10.0431 30.0439 10.0354 29.6483 9.95786 29.2527C8.91914 24.5239 4.53171 23.5855 3.39997 26.9711L3.40772 26.9619Z" fill="#E27870"/>
</g>
<path d="M7.88597 31.3699C6.95577 30.9007 6.4054 29.8702 6.83174 28.8306C6.11084 29.0146 5.15739 29.2446 5.07212 30.3026C5.07212 30.3578 4.98686 30.5878 4.93259 30.4682C4.66129 29.861 4.56051 29.1526 4.66904 28.4902C4.2892 29.2078 3.96364 29.9438 3.71559 30.7442C3.70783 30.781 3.66907 30.8638 3.62256 30.8454C3.57605 30.827 3.53729 30.8087 3.49854 30.7903C3.94038 31.8667 4.59152 32.4647 4.59152 32.4647C4.4985 34.0379 5.49846 34.0471 5.49846 34.0471C5.49846 34.0471 5.35118 33.2651 5.9093 32.1243C6.28913 35.9147 9.47506 33.7711 9.97116 30.7994C9.42855 31.425 8.59912 31.7287 7.88597 31.3699Z" fill="#E27870"/>
<g style="mix-blend-mode:screen">
<path d="M3.43747 22.546C1.35228 25.0392 -0.624395 28.9677 1.7011 32.2613C1.84063 32.4637 2.08868 31.9209 1.99566 31.7461C0.236041 28.3329 1.31352 25.2785 3.44522 22.6012C3.46847 22.5736 3.46847 22.5 3.42972 22.546H3.43747Z" fill="#F9C812"/>
</g>
<path d="M20.7779 9.12355C20.7779 9.12355 21.7468 12.7576 18.2818 15.6188C14.8091 18.4708 10.3286 23.2364 9.08063 38.9501C8.98761 42.3634 6.68537 44.7554 3.61572 44.415C4.76297 46.0066 7.06521 44.8658 7.06521 44.8658C7.06521 44.8658 5.04978 46.577 5.6234 49.4198C6.19702 47.4878 7.92564 46.4574 7.92564 46.4574C7.92564 46.4574 6.67762 49.3094 7.25124 52.1522C8.69305 50.1006 11.2821 50.2202 11.2821 50.2202C11.2821 50.2202 15.6928 65.9339 37.4671 55.4551C42.4515 56.9363 45.0482 53.1826 45.6219 47.9386C52.4356 39.9714 54.7378 33.2553 53.8696 28.2413C53.0092 23.2272 49.7457 23.5676 49.7457 23.5676C49.7457 23.5676 50.5132 21.0652 51.5674 20.1544C48.9783 19.814 48.2109 21.2952 48.2109 21.2952L48.3039 21.6356C48.3039 21.6356 49.3582 18.7928 48.6838 16.8516C48.6838 16.8516 46.7691 20.7248 44.4669 20.1544C42.1646 19.584 38.6144 7.51354 24.5141 11.9572C24.5141 11.9572 24.4211 9.11435 22.6925 8.54395C22.6925 8.54395 23.5529 10.8256 22.2119 12.9876C22.2119 12.9876 22.8786 10.384 20.7701 9.12355H20.7779Z" fill="#FDDF00"/>
<g style="mix-blend-mode:multiply">
<path d="M31.0576 26.1059C31.0576 26.1059 36.3984 23.9806 41.3827 28.8475C42.499 25.2042 41.3285 15.351 35.6233 16.2434C31.794 16.6206 31.8482 23.1158 33.2048 25.1582C31.3676 25.0662 31.0498 26.1059 31.0498 26.1059H31.0576Z" fill="#F9C812"/>
</g>
<g style="mix-blend-mode:multiply">
<path d="M25.3037 49.6219C25.3037 49.6219 25.8928 55.0039 33.5282 51.0203C34.4506 50.4223 35.125 52.0691 35.8072 51.9587C36.4893 51.8483 36.0862 49.3367 36.0862 49.3367C36.0862 49.3367 37.6443 53.2191 40.6287 52.1795C43.6131 51.1491 43.5821 47.0827 43.5511 43.7891C44.1092 43.7523 44.6441 43.4946 44.6441 43.4946C44.6441 43.4946 44.9076 45.0955 45.7215 44.9299C46.5355 44.7551 46.6362 42.2802 46.6362 42.2802C46.6362 42.2802 51.9073 39.2626 49.5586 32.6846C41.7139 39.0602 25.3037 49.6219 25.3037 49.6219Z" fill="#F9C812"/>
</g>
<path d="M27.3895 29.0322C27.5756 28.0662 26.7694 27.1094 26.0795 26.7782C25.7152 26.6034 25.3354 26.8978 25.1106 27.2198C24.816 27.6522 24.9013 28.195 25.0873 28.6642C25.1881 28.9126 25.3276 29.1151 25.4904 29.2715C25.5136 29.2991 25.5292 29.3266 25.5524 29.3542C25.7927 29.6671 26.2578 30.1547 26.6609 30.0719C26.9632 29.9983 27.1492 29.7498 27.2655 29.4462C27.3275 29.3174 27.3663 29.1795 27.3818 29.0415L27.3895 29.0322Z" fill="#BD6D00"/>
<path d="M25.346 19.6401C25.1987 19.2445 24.8034 19.0053 24.5088 18.7845C24.1445 18.5085 23.8267 18.3245 23.4701 18.6833C23.4546 18.7017 23.4391 18.7201 23.4158 18.7477C23.3151 18.7845 23.222 18.8673 23.1213 19.0053C22.9042 19.3181 22.8577 19.7597 22.943 20.1461C23.1135 20.9557 23.9972 22.0689 24.7879 21.6365C25.4623 21.2685 25.6251 20.4129 25.346 19.6309V19.6401Z" fill="#BD6D00"/>
<path d="M28.1354 17.2476C28.0501 17.0084 27.8253 16.7416 27.6005 16.7324C27.5307 16.7324 27.4532 16.7784 27.3834 16.8428C27.3602 16.8428 27.3447 16.8428 27.3214 16.8428C27.0966 16.852 26.9261 17.036 26.7866 17.2384C26.4688 17.6984 26.6238 18.324 27.0191 18.6184C27.4222 18.922 27.9183 18.5632 28.1043 18.1216C28.2284 17.8364 28.2439 17.5512 28.1354 17.2476Z" fill="#BD6D00"/>
<path d="M26.9621 14.3308C26.7761 14.0548 26.4273 13.9168 26.1405 14.0364C25.7606 14.1836 25.5668 14.8 25.7451 15.214C25.9157 15.6281 26.3963 15.7477 26.7141 15.4992C27.0396 15.2416 27.342 14.708 26.9699 14.3308H26.9621Z" fill="#BD6D00"/>
<path d="M22.6163 14.8184C22.3218 14.5608 22.0505 14.4504 21.7404 14.6068C20.8645 14.846 20.1513 16.3732 21.252 16.8792C21.5621 17.0172 22.097 17.008 22.376 16.7964C22.6551 16.5848 23.0039 16.1248 23.0427 15.72C23.0892 15.2692 22.9031 15.076 22.6163 14.8276V14.8184Z" fill="#BD6D00"/>
<path d="M16.2733 21.6906C15.7849 21.1294 14.9322 21.0926 14.4129 21.617C14.3276 21.6998 14.1958 21.9298 14.2966 22.0586C14.3121 22.0862 14.3354 22.1046 14.3509 22.1322C14.3896 22.1598 14.4206 22.169 14.4671 22.1598C14.5292 22.1414 14.5834 22.1322 14.6377 22.123C14.9167 22.399 15.1338 22.629 15.0175 23.1718C14.9555 23.4662 14.8392 23.8066 15.0408 24.0734C15.4981 24.699 16.1803 24.2114 16.4903 23.6686C16.8702 23.0062 16.7306 22.2242 16.2733 21.6998V21.6906Z" fill="#BD6D00"/>
<path d="M16.5929 29.3085C16.5231 29.0233 16.3061 28.6369 16.0503 28.4437C15.6937 27.9561 15.0038 27.7169 14.5619 28.0941C13.9883 28.5725 13.9883 29.4649 14.3061 30.1365C14.6395 30.8726 15.5697 31.0934 16.1278 30.6058C16.4456 30.3298 16.7091 29.7962 16.5929 29.3085Z" fill="#BD6D00"/>
<path d="M14.1658 36.3561C14.0417 35.9053 13.7627 35.5925 13.4061 35.3717C13.127 35.1969 12.8945 35.1877 12.6774 35.3349C12.3131 35.3349 12.0341 35.5741 11.879 35.9605C11.724 36.3653 11.6542 36.8253 11.8093 37.2393C11.9643 37.6717 12.4061 37.8741 12.7627 37.9569C13.1425 38.0489 13.5069 37.8741 13.7782 37.5521C14.0107 37.2761 14.2898 36.7701 14.1658 36.3469V36.3561Z" fill="#BD6D00"/>
<path d="M11.8187 42.7214C11.78 42.5098 11.6792 42.3166 11.5397 42.1694C11.4002 41.829 11.0901 41.4886 10.8963 41.3966C9.98935 40.9642 9.20644 42.1878 9.53976 43.1814C9.81107 43.9726 10.7103 44.5522 11.3459 44.037C11.6947 43.7518 11.9118 43.2182 11.8187 42.7214Z" fill="#BD6D00"/>
<path d="M10.1511 46.0621C10.0891 46.0437 10.0038 46.0989 9.92629 46.1817C9.91078 46.1817 9.88753 46.1725 9.87203 46.1633C9.63173 46.0989 9.44569 46.2369 9.29065 46.4485C9.0426 46.7797 8.63176 47.6353 9.09686 47.9574C9.4922 48.2242 10.1511 47.8101 10.3991 47.4513C10.7247 46.9913 10.6704 46.2553 10.1511 46.0621Z" fill="#BD6D00"/>
<path d="M19.3097 40.937C19.271 40.7346 19.1547 40.5782 19.0074 40.5138C18.8059 40.3574 18.519 40.2746 18.333 40.2378C17.6431 40.1182 17.2013 41.121 17.4803 41.7926C17.7826 42.5102 18.5811 42.6482 19.0229 42.0594C19.2555 41.7466 19.395 41.3602 19.302 40.9462L19.3097 40.937Z" fill="#BD6D00"/>
<path d="M32.4424 22.7397C32.3959 22.3073 32.1478 21.9761 31.861 21.7277C31.1401 21.0929 30.2254 22.1969 30.2409 23.0709C30.2564 23.9173 31.1556 24.6809 31.8068 24.2577C32.1556 24.0277 32.3261 23.5953 32.3726 23.1537C32.4346 23.0249 32.4579 22.8501 32.4424 22.7397Z" fill="#BD6D00"/>
<path d="M35.715 13.162C35.529 12.8768 35.2189 12.8768 34.9554 12.978C34.3973 13.1896 33.7849 14.1188 34.281 14.7352C34.5058 15.0204 34.7926 15.2688 35.1337 15.1676C35.4825 15.0664 35.7538 14.7076 35.8778 14.3212C35.9011 14.2568 35.9166 14.1832 35.9243 14.1096C35.9553 14.0728 35.9786 14.036 35.9786 14.0176C36.0639 13.6864 35.8856 13.4104 35.7228 13.162H35.715Z" fill="#BD6D00"/>
<path d="M43.4647 20.1271C43.3562 19.7315 43.0074 19.2715 42.6508 19.1979C42.5733 19.1795 42.457 19.2623 42.3485 19.3819C42.0695 19.3175 41.7749 19.4003 41.5346 19.7131C41.0695 20.3203 41.2168 21.1851 41.6586 21.7463C42.147 22.3627 43.0152 21.8751 43.3252 21.2771C43.5035 20.9275 43.5655 20.5227 43.457 20.1271H43.4647Z" fill="#BD6D00"/>
<path d="M45.5192 22.7763C45.4727 22.5647 45.3099 22.4819 45.1548 22.3991C44.9455 22.2887 44.7362 22.353 44.5735 22.5463C44.4804 22.6567 44.3797 22.8131 44.3874 22.9787C44.3874 22.9787 44.3874 22.9879 44.3874 22.9971C44.3564 23.1259 44.3409 23.2731 44.3487 23.3927C44.3642 23.6135 44.5192 23.7791 44.6897 23.8435C45.1858 24.0367 45.6277 23.3007 45.5114 22.7671L45.5192 22.7763Z" fill="#BD6D00"/>
<path d="M48.3204 24.2762C48.3049 24.1382 48.2351 24.0002 48.1344 23.8898C48.1344 23.7978 48.1034 23.6966 48.0336 23.6046C47.77 23.2458 47.4212 23.1538 47.0491 23.301C46.3825 23.5494 45.6849 24.5339 45.8864 25.3895C45.9949 25.8219 46.429 26.0427 46.7701 26.0795C47.1732 26.1255 47.5375 25.9139 47.8088 25.5735C48.0568 25.2607 48.3747 24.7271 48.3204 24.2671V24.2762Z" fill="#BD6D00"/>
<path d="M51.5684 27.9376C51.4288 27.91 51.2893 27.8916 51.1653 27.9008C50.7157 27.9284 50.2118 28.324 50.0878 28.8576C49.9715 29.3728 50.3126 29.8052 50.6071 30.1272C50.9482 30.4952 51.3901 30.8633 51.8552 30.8633C52.3745 30.8633 52.6768 30.21 52.7931 29.6948C52.9946 28.8116 52.2582 27.91 51.5606 27.9376H51.5684Z" fill="#BD6D00"/>
<path d="M29.3742 54.3138C29.2269 54.2402 29.0874 54.1942 28.9634 54.1574C28.5681 54.047 28.1185 54.3046 27.8239 54.599C27.5061 54.9119 27.2813 55.2982 27.258 55.795C27.2348 56.3747 27.7929 56.6599 28.165 56.8255C29.0332 57.2027 29.9711 56.8531 30.3044 55.7859C30.5525 54.9946 29.9789 54.4426 29.3665 54.323L29.3742 54.3138Z" fill="#BD6D00"/>
<path d="M48.2954 22.1962L48.0396 21.2762L48.0861 21.1934C48.0861 21.1934 48.2023 20.9818 48.4504 20.7426L48.8922 20.3286L48.7217 20.9634C48.5977 21.4234 48.4891 21.7086 48.4891 21.7178L48.3109 22.187L48.2954 22.1962Z" fill="#FDDF00"/>
<g style="mix-blend-mode:multiply">
<path d="M21.2955 15.0754C21.7373 14.367 22.0784 13.631 22.2877 12.8765C22.2644 12.9133 22.2489 12.9502 22.2257 12.987C22.2257 12.987 22.8458 10.5121 20.9312 9.22412C21.5745 10.3833 22.1327 12.3153 21.2955 15.0754Z" fill="#F9C812"/>
</g>
<g style="mix-blend-mode:multiply">
<path d="M53.8788 28.2496C53.0183 23.2355 49.7549 23.5759 49.7549 23.5759C49.7549 23.5759 50.5223 21.0735 51.5765 20.1627C49.8867 19.9419 48.9797 20.4939 48.5456 20.8987C48.4216 21.3495 48.3131 21.6347 48.3131 21.6347L48.2201 21.2943C48.2201 21.2943 48.3131 21.1103 48.5456 20.8987C48.8092 19.9235 49.158 18.1755 48.7007 16.8599C48.7007 16.8599 46.786 20.7331 44.4838 20.1627C42.1816 19.5923 38.6313 7.52184 24.5311 11.9655C24.5311 11.9655 24.438 9.12265 22.7094 8.55225C22.7094 8.55225 22.7404 8.62584 22.7714 8.75464C23.5466 9.93225 24.2985 11.8551 23.5311 14.3943C26.3062 12.0483 35.9725 10.6683 40.918 18.3411C44.2745 23.2263 47.0418 21.8279 47.8868 19.3347C47.8015 21.9291 47.0573 23.2907 47.0573 23.2907C47.0573 23.2907 48.8945 21.5243 49.5611 21.3219C48.4681 23.2171 49.0573 24.91 49.0573 24.91C49.0573 24.91 51.8246 24.2107 52.499 27.7988C53.1734 31.3868 53.9795 35.9316 46.0884 46.0977C45.9799 44.5705 45.6931 44.1013 45.6931 44.1013C45.6931 44.1013 45.2435 51.0749 41.7785 53.3381C38.3057 55.5922 34.1121 50.8817 34.1121 50.8817C34.1121 50.8817 34.1664 52.6113 35.4531 54.2029C35.4531 54.2029 26.6395 58.1866 25.5465 54.8469C24.4535 51.5073 22.7792 50.8081 21.3064 49.8697C19.8336 48.9221 21.1358 47.2293 20.8413 45.3341C20.5467 43.4389 17.7794 41.7001 15.4306 45.0305C14.0043 43.6321 12.0277 45.2789 11.3998 47.8733C10.0975 47.5789 9.25257 48.4713 8.927 49.6213C8.05107 47.8089 9.48513 45.1777 10.6401 43.8621C8.56268 45.0673 8.23711 45.2881 8.23711 45.2881C8.23711 45.2881 8.33013 44.1933 9.90371 42.8225C11.4773 41.3965 11.2215 39.7957 10.6091 38.1948C10.0432 36.7228 9.81069 32.7116 10.6556 28.6636C9.95797 31.442 9.40761 34.8092 9.07429 38.94C8.98127 42.3533 6.67903 44.7453 3.60938 44.4049C4.75662 45.9965 7.05886 44.8557 7.05886 44.8557C7.05886 44.8557 5.04343 46.5669 5.61705 49.4097C6.19068 47.4777 7.91929 46.4473 7.91929 46.4473C7.91929 46.4473 6.67128 49.2993 7.2449 52.1421C8.6867 50.0905 11.2758 50.2101 11.2758 50.2101C11.2758 50.2101 15.6864 65.9238 37.4608 55.445C42.4451 56.9262 45.0419 53.1725 45.6155 47.9285C52.4292 39.9613 54.7315 33.2452 53.8633 28.2312L53.8788 28.2496Z" fill="#F9C812"/>
</g>
<path d="M64.2456 31.5904C69.8656 33.182 79.9427 39.2633 77.9273 58.5834C81.7876 67.3511 79.9892 74.3799 77.1599 76.6799C75.9506 77.6367 75.9506 76.5879 75.9506 76.5879C75.9506 76.5879 73.6871 78.7959 73.6871 73.9935C72.7957 78.3083 71.4236 78.4095 70.3694 76.5879C70.2066 79.2743 60.8039 77.4159 53.0833 75.3183C50.3159 76.8087 44.944 72.4295 44.944 72.4295C44.944 72.4295 38.4792 73.9199 32.0143 77.5079C25.5494 81.096 17.1002 80.7647 16.3172 72.7883C15.6428 65.4834 14.9762 64.5542 14.9762 64.5542C14.9762 64.5542 9.82912 63.625 9.04621 54.3238C8.59661 50.2114 10.3485 48.0861 11.5732 48.9509C12.2941 46.0529 14.5576 44.6545 15.2398 46.3749C16.7358 43.6333 19.0846 43.7437 19.7202 45.1421C20.3558 46.5405 18.0459 48.9601 20.8054 50.9474C23.565 52.9346 24.4875 55.2714 23.6503 58.657C25.4409 62.6406 26.7277 67.0291 26.7277 67.0291C26.7277 67.0291 30.2004 58.7122 37.4715 55.4646C40.4946 56.3386 44.5487 55.7314 45.6262 47.9481C45.6262 47.9481 50.6492 42.2533 52.998 36.0801C54.5096 31.3972 61.4628 30.8084 64.2456 31.5996V31.5904Z" fill="#FDDF00"/>
<g style="mix-blend-mode:multiply">
<path d="M77.929 58.583C78.7894 50.3029 77.4328 44.4609 75.1616 40.3576C77.239 45.8133 77.3631 51.9405 76.836 55.3905C76.0841 60.3678 79.4328 63.8178 79.549 69.1354C79.6576 74.4623 76.3941 77.8111 77.5569 73.5423C78.7196 69.2734 77.4483 66.8998 77.3941 68.3534C77.0763 76.4771 74.2159 77.8939 74.3864 74.2139C74.5492 70.5338 73.5183 66.7158 73.6345 67.8934C73.7431 73.6067 72.9136 76.6335 71.1463 75.9067C69.3711 75.1799 69.4332 66.8998 68.9293 68.2154C67.5417 71.4998 69.5959 75.7043 68.3789 75.1799C66.8286 74.5911 66.6038 70.0554 67.1619 65.9798C65.3868 69.1354 62.0691 70.7086 63.5109 66.771C64.9527 62.8242 68.1076 62.5666 68.6037 60.8278C70.061 55.7217 71.1695 45.4729 67.7821 44.2585C64.3946 43.0441 60.7978 43.1637 58.232 35.9692C57.5111 33.9452 57.7979 32.5836 58.5808 31.6636C56.1546 32.2524 53.8213 33.5864 53.0229 36.0612C50.6742 42.2344 45.6511 47.9293 45.6511 47.9293C44.5736 55.7125 40.5195 56.3197 37.4964 55.4457C35.8143 56.1909 34.3415 57.2122 33.0702 58.3346C35.2794 57.0558 37.5972 56.0713 37.8607 57.3686C38.3723 59.9078 41.1939 60.2114 39.3103 63.2474C37.4344 66.2926 42.2171 68.9238 35.2949 73.2847C28.3727 77.6455 27.9464 75.1063 27.4348 71.4538C27.2255 69.9358 26.9774 68.3258 26.7681 66.9458C26.7526 66.9826 26.7449 67.001 26.7449 67.001C26.7449 67.001 25.4581 62.6218 23.6675 58.629C24.5046 55.2433 23.5899 52.9157 20.8226 50.9193C18.063 48.9321 20.373 46.5125 19.7374 45.1141C19.1017 43.7157 16.753 43.6053 15.2569 46.3469C15.0321 45.7673 14.6213 45.5465 14.1484 45.6109C14.7298 45.7397 14.4275 47.0553 14.2802 48.1961C14.0787 49.7233 14.35 52.2165 16.1794 53.5781C15.0321 50.2017 14.35 46.2641 16.9235 44.8933C18.6134 43.9273 18.9545 45.8593 18.3421 47.3037C17.7297 48.7481 18.0708 51.3241 20.0319 52.7685C21.9931 54.2129 22.2644 59.9998 20.3032 62.6586C21.5202 61.6926 23.6209 63.9466 24.3651 69.8162C25.024 75.0143 20.4195 81.4083 16.8693 75.1431C18.9777 80.7551 26.2798 80.6723 32.0315 77.4799C38.4963 73.8919 44.9612 72.4015 44.9612 72.4015C44.9612 72.4015 50.3331 76.7807 53.1004 75.2903C60.8211 77.3787 70.2238 79.2463 70.3866 76.5599C71.4408 78.3815 72.8129 78.2895 73.7043 73.9655C73.7043 78.7587 75.9678 76.5599 75.9678 76.5599C75.9678 76.5599 75.9678 77.6179 77.177 76.6519C80.0064 74.3519 81.8048 67.3138 77.9445 58.5554L77.929 58.583Z" fill="#F9C812"/>
</g>
<g style="mix-blend-mode:multiply">
<path d="M43.6129 69.6688C43.4423 68.7396 43.3261 67.7644 43.3803 66.8076C43.3803 66.78 43.3803 66.7616 43.3803 66.7432C43.3648 66.78 43.3493 66.8168 43.3338 66.8628C43.1633 67.2492 42.985 67.6356 42.83 68.022C42.4114 69.0708 42.1168 70.1288 42.1866 71.2972C42.1866 71.3708 42.0315 71.7112 41.9928 71.5916C41.5664 70.2484 41.4114 68.8408 41.2099 67.4424C40.9851 68.5924 40.7835 69.7516 40.2874 70.8004C39.7991 71.84 38.9076 72.668 38.0782 73.2936C35.5202 75.2072 32.5203 76.0904 29.7917 77.5992C28.3887 78.3628 27.0786 79.246 25.5206 79.4484C24.1563 79.6233 22.7842 79.4484 21.4277 79.2552C21.2571 79.2276 21.0866 79.2093 20.9238 79.1817C24.102 80.3133 28.3654 79.5405 32.0087 77.5256C37.5278 74.462 43.0393 72.9256 44.5353 72.5392C44.047 71.6744 43.7679 70.5704 43.6051 69.678L43.6129 69.6688Z" fill="#F9C812"/>
</g>
<path d="M67.7448 76.3299C66.365 74.6922 66.0007 72.6038 66.1557 70.3682C66.2022 69.715 66.2565 69.0526 66.2487 68.3902C66.2487 68.0406 66.2022 68.289 66.0627 68.4546C65.9774 68.5466 65.8999 68.6478 65.8069 68.7306C65.3651 69.1722 64.7372 70.129 64.1946 70.3682C63.4737 70.681 62.4272 70.3314 62.1869 69.1446C61.8691 67.5438 62.6985 65.7682 63.4892 64.5446C64.024 63.7258 64.6209 62.9438 65.3108 62.3182C65.6286 62.0238 65.9542 61.7386 66.3107 61.5178C66.8921 61.1498 66.8456 60.7358 66.9231 59.9813C67.2177 57.2029 67.2177 54.5441 66.7991 51.7749C66.6286 50.6801 66.427 49.1805 65.8999 48.0489C65.5511 47.5429 65.1945 47.1105 64.8457 46.7425C64.8224 46.7241 64.7992 46.7057 64.7759 46.6965C64.7604 46.6965 64.7527 46.6689 64.7527 46.6505C64.2101 46.0893 63.6829 45.6937 63.2023 45.4545C59.7296 43.7248 58.1638 45.9881 58.1638 45.9881C58.1638 45.9881 56.8227 44.93 55.474 45.7488C55.5747 44.3228 55.7763 43.6696 55.7763 43.6696C55.7763 43.6696 54.1407 43.5868 53.226 45.8133C52.9857 43.7892 54.2414 42.2712 54.2414 42.2712C54.2414 42.2712 52.35 42.7956 51.2261 45.5281C51.3966 43.826 50.6524 42.7588 49.9005 42.124C47.7611 45.528 45.6139 47.9569 45.6139 47.9569C44.6759 54.7465 41.4667 56.0713 38.6606 55.7217C38.9707 57.3869 39.8311 59.5397 42.0636 61.0302C40.7691 62.263 40.5055 63.3946 40.5908 64.1122C41.2807 62.677 42.6682 61.849 42.6682 61.849C42.6682 61.849 39.9009 65.5934 41.9783 70.2946C42.4977 67.9118 43.6527 67.093 43.6527 67.093C43.6527 67.093 42.5365 69.393 44.5519 72.5486C44.7922 72.4842 44.9317 72.4566 44.9317 72.4566C44.9317 72.4566 50.3036 76.8359 53.0709 75.3454C59.6986 77.1395 67.551 78.7587 69.7525 77.4891C69.0161 77.3971 68.3184 77.0383 67.7293 76.3483L67.7448 76.3299Z" fill="#FFFCD5"/>
<g style="mix-blend-mode:multiply">
<path d="M17.8081 39.1064C17.8081 39.1064 21.0715 38.168 24.2885 41.8573C23.9707 40.79 23.8699 40.422 23.8699 40.422C23.8699 40.422 27.1333 39.3364 26.7612 33.9544C26.3892 28.5724 24.2342 25.5363 21.3351 26.3459C18.436 27.1556 16.6454 31.2864 19.0716 37.9748C17.8624 38.2232 17.8081 39.0972 17.8081 39.0972V39.1064Z" fill="#F9C812"/>
</g>
<path d="M42.9037 43.1818C42.9037 43.1818 43.7253 49.907 40.6634 51.5538C38.772 52.5658 35.7954 47.7358 35.7954 47.7358L39.3612 40.1182L42.9037 43.191V43.1818Z" fill="#9B2317"/>
<path d="M35.834 47.7909C36.1828 48.3337 38.8571 52.4277 40.6245 51.5721C40.6012 50.0633 39.9036 47.7265 35.834 47.7909Z" fill="#CE3223"/>
<path d="M39.5472 47.3585C41.3999 45.9508 41.6092 43.4852 41.5394 41.9856L39.369 40.0996L36.4854 46.2636C37.2683 47.3125 38.3923 48.2601 39.555 47.3585H39.5472Z" fill="#FAFAFA"/>
<g style="mix-blend-mode:multiply">
<path d="M40.2682 42.9343C40.2837 42.8791 40.3612 42.7043 40.4309 42.7503C40.7875 42.9803 41.1363 43.2563 41.5007 43.4771C41.5549 42.9343 41.5627 42.4283 41.5394 41.9959L39.369 40.1099L36.4854 46.2739C37.0745 47.0651 37.8574 47.7919 38.7023 47.7275C38.6248 46.1635 39.9038 44.2223 40.2682 42.9343Z" fill="#CFD1D3"/>
</g>
<path d="M33.8687 49.9068C33.8687 49.9068 35.4035 51.6456 35.7058 51.5076C36.0081 51.3696 35.7445 48.7476 35.7445 48.7476L33.8687 49.9068Z" fill="#FAFAFA"/>
<path d="M44.7305 42.795C44.7305 42.795 45.3661 44.7547 45.8545 44.6167C46.3428 44.4879 46.3428 41.9946 46.3428 41.9946L44.7305 42.795Z" fill="#FAFAFA"/>
<path d="M30.8725 38.2693C30.8725 38.2693 26.0433 39.0605 24.71 45.7121C23.3767 52.3638 28.6478 53.0906 33.7019 50.0637C38.756 47.0369 39.5311 43.6697 39.7559 41.1673C41.6396 44.5253 47.0812 43.2097 49.1354 38.6005C51.1896 33.9912 49.1897 26.4748 41.7558 31.0196C35.7096 35.3712 30.8725 38.2693 30.8725 38.2693Z" fill="#FFFCD5"/>
<g style="mix-blend-mode:multiply">
<path d="M41.7558 31.0196C35.7096 35.3712 30.8725 38.2693 30.8725 38.2693C30.8725 38.2693 29.4152 38.5085 27.8804 39.8241C28.5471 39.3825 29.1749 39.2813 29.516 39.9989C30.4772 42.0229 35.8879 39.9989 37.4459 38.3245C39.004 36.6501 39.3528 38.5453 39.4614 39.4377C39.9497 38.0209 39.1901 37.2481 40.221 36.0336C41.252 34.81 42.8721 32.8136 43.686 31.2128C44.4999 29.6028 49.4842 30.0536 48.616 35.6472C47.7479 41.2409 42.1744 43.2925 39.5156 40.4037C39.5156 40.4037 38.1978 46.2917 32.1593 49.2173C26.113 52.143 23.5395 48.0857 25.3921 43.6421C25.3534 43.6605 25.3146 43.6789 25.2759 43.7065C25.0511 44.3137 24.8573 44.9761 24.71 45.7121C23.3767 52.3638 28.6478 53.0906 33.7019 50.0637C38.756 47.0369 39.5311 43.6697 39.7559 41.1673C41.6396 44.5253 47.0812 43.2097 49.1354 38.6005C51.1896 33.9912 49.1897 26.4748 41.7558 31.0196Z" fill="#FBD79F"/>
</g>
<path d="M33.9172 25.5273C34.4366 25.4537 34.9482 25.3893 35.4676 25.4813C36.5295 25.6745 37.5838 26.015 38.5682 26.5394C39.4209 26.9902 40.2271 27.5422 40.9867 28.1678C41.5991 26.5761 41.5991 24.2669 40.8549 21.9761C39.7 18.4065 37.1807 16.2353 35.2273 17.1277C33.2816 18.0201 32.6382 21.6357 33.7932 25.2053C33.832 25.3157 33.8707 25.4169 33.9095 25.5273H33.9172Z" fill="#ADB1B1"/>
<path d="M34.2502 25.7848C34.7153 25.7204 35.1804 25.6561 35.6533 25.7481C36.6145 25.9229 37.568 26.2265 38.4594 26.7049C39.2346 27.1189 39.9632 27.6157 40.6453 28.1769C41.1957 26.7325 41.1957 24.6532 40.5291 22.5832C39.4826 19.354 37.2036 17.3944 35.444 18.204C33.6844 19.0136 33.103 22.2796 34.1495 25.4996C34.1805 25.6008 34.2192 25.6928 34.2502 25.794V25.7848Z" fill="#FAFAFA"/>
<mask id="mask0_92_25529" style="mask-type:luminance" maskUnits="userSpaceOnUse" x="33" y="18" width="9" height="11">
<path d="M34.2502 25.7848C34.7153 25.7204 35.1804 25.6561 35.6533 25.7481C36.6145 25.9229 37.568 26.2265 38.4594 26.7049C39.2346 27.1189 39.9632 27.6157 40.6453 28.1769C41.1957 26.7325 41.1957 24.6532 40.5291 22.5832C39.4826 19.354 37.2036 17.3944 35.444 18.204C33.6844 19.0136 33.103 22.2796 34.1495 25.4996C34.1805 25.6008 34.2192 25.6928 34.2502 25.794V25.7848Z" fill="white"/>
</mask>
<g mask="url(#mask0_92_25529)">
<path d="M39.5049 24.2483C40.1095 26.7139 39.5049 29.0783 38.1561 29.5476C36.8073 30.0076 35.2337 28.3883 34.6291 25.9227C34.0245 23.4571 34.6291 21.0835 35.9779 20.6235C37.3189 20.1635 38.9003 21.7827 39.5049 24.2483Z" fill="#460D00"/>
<path d="M38.725 23.1811C39.0971 24.7175 38.5467 26.2539 37.4925 26.6219C36.4383 26.9807 35.2755 26.0331 34.8957 24.4967C34.5159 22.9603 35.074 21.4238 36.1282 21.0558C37.1824 20.6878 38.3452 21.6446 38.725 23.1811Z" fill="#662D26"/>
<path d="M36.6231 23.5213C36.7937 24.2205 36.6231 24.9013 36.2356 25.0301C35.8557 25.1589 35.4061 24.6989 35.2356 23.9997C35.0651 23.3005 35.2356 22.6197 35.6154 22.4909C35.9953 22.362 36.4449 22.8221 36.6154 23.5213H36.6231Z" fill="white"/>
</g>
<path d="M26.0115 32.6387C26.5386 36.2267 25.3526 39.4652 23.3682 39.87C21.3837 40.2748 19.3528 37.7079 18.8257 34.1199C18.3063 30.5319 19.4846 27.3027 21.469 26.8887C23.4534 26.4839 25.4843 29.0507 26.0115 32.6387Z" fill="#ADB1B1"/>
<path d="M25.8087 33.1811C26.2893 36.4932 25.1964 39.4832 23.367 39.8604C21.5298 40.2376 19.6539 37.8548 19.1733 34.5427C18.6927 31.2307 19.7857 28.2407 21.6151 27.8635C23.4522 27.4863 25.3281 29.8691 25.8087 33.1811Z" fill="#FAFAFA"/>
<path d="M24.0354 34.0195C24.4928 36.522 23.7486 38.8404 22.3843 39.19C21.0123 39.5396 19.5395 37.7916 19.0821 35.2892C18.6248 32.7775 19.369 30.4683 20.7332 30.1187C22.1053 29.7691 23.5858 31.5171 24.0354 34.0195Z" fill="#460D00"/>
<path d="M23.3204 32.8878C23.6072 34.4518 22.9638 35.9422 21.8863 36.2182C20.8088 36.4942 19.7081 35.4546 19.4213 33.8906C19.1345 32.3266 19.7779 30.8362 20.8553 30.5602C21.9328 30.2842 23.0336 31.333 23.3204 32.8878Z" fill="#662D26"/>
<path d="M21.2043 33.053C21.3361 33.7706 21.119 34.4239 20.7315 34.5251C20.3439 34.6263 19.9175 34.1295 19.7935 33.4119C19.6617 32.7035 19.8788 32.041 20.2664 31.9398C20.654 31.8386 21.0725 32.3354 21.2043 33.053Z" fill="white"/>
<path d="M30.0854 26.4567C30.0854 26.4567 37.1394 24.2671 42.3408 30.1367C41.1238 26.9535 35.1628 24.1107 30.0854 26.4567Z" fill="#BD6D00"/>
<path d="M17.4976 39.2629C17.4976 39.2629 20.7687 38.5638 24.5515 42.207C22.1175 38.5178 19.6835 38.4165 17.4976 39.2629Z" fill="#BD6D00"/>
<path d="M38.3954 55.2341C36.9459 54.4429 35.7754 53.2009 34.7831 51.7381C34.7676 51.7105 34.7211 51.784 34.7289 51.8024C35.5583 53.4493 36.6591 54.8753 38.1939 55.5745C38.2946 55.6205 38.4962 55.2801 38.3954 55.2249V55.2341Z" fill="#BD6D00"/>
<path d="M45.7283 44.93C45.7283 44.7828 45.5345 44.9944 45.5345 45.0864C45.4957 46.954 45.3407 48.7388 45.1004 50.5788C45.0694 50.8089 45.3097 50.5512 45.333 50.45C45.7826 48.6284 45.7671 46.8068 45.7205 44.9208L45.7283 44.93Z" fill="#BD6D00"/>
<path d="M41.4929 29.52C41.4929 29.52 37.0202 28.232 32.563 33.7981C28.1135 39.3641 30.0049 41.6457 36.1365 38.1589C42.268 34.6721 44.0664 29.9524 41.4851 29.52H41.4929Z" fill="#662D26"/>
<g style="mix-blend-mode:screen">
<path d="M39.9577 29.8876C39.9577 29.8876 37.3997 29.1515 34.8571 32.3348C32.3068 35.518 33.3921 36.8244 36.9036 34.828C40.4073 32.8316 41.4383 30.136 39.9655 29.8876H39.9577Z" fill="#662D26"/>
</g>
<g style="mix-blend-mode:multiply">
<path d="M18.0265 25.0397C18.0265 25.0397 18.6931 22.9973 20.9411 22.7489C21.817 22.7489 17.6001 19.3633 18.0265 25.0397Z" fill="#F9C812"/>
<path d="M31.4915 16.5024C31.4915 16.5024 32.0807 15.2052 33.2512 14.8556C34.4294 14.506 32.2047 13.264 31.1505 14.8556C30.104 16.4472 31.0652 17.2476 31.4838 16.5024H31.4915Z" fill="#F9C812"/>
</g>
<path d="M50.3355 24.8095C46.9093 27.8088 44.2272 31.8292 43.0645 36.7696C43.018 36.9536 43.2505 36.7604 43.2738 36.6592C44.5373 31.7924 47.0876 28.0572 50.3433 24.8831C50.3743 24.8555 50.382 24.7635 50.3278 24.8095H50.3355Z" fill="#662D26"/>
<path d="M49.4508 29.842C47.2339 31.1484 45.5208 33.4853 44.3348 36.0153C44.203 36.3005 44.4588 36.2637 44.5595 36.0613C45.7921 33.6233 47.3114 31.3508 49.4353 29.9248C49.4586 29.9064 49.4973 29.8144 49.4508 29.842Z" fill="#662D26"/>
<path d="M51.2747 35.0955C50.2747 35.2059 49.4065 35.2151 48.4221 35.5647C47.4376 35.9143 46.4687 36.4295 45.6703 37.1931C45.6083 37.2483 45.461 37.6071 45.647 37.4967C46.6315 36.8895 47.5462 36.3099 48.6081 35.9235C49.4686 35.6107 50.3367 35.5463 51.1972 35.3163C51.2592 35.2979 51.3832 35.0863 51.2747 35.0955Z" fill="#662D26"/>
<path d="M30.0891 44.1668C27.0272 44.3232 24.4071 44.8568 21.9421 47.1016C21.8568 47.1844 21.7871 47.488 21.9499 47.3408C24.4381 45.096 27.0194 44.8568 30.0038 44.406C30.0813 44.3968 30.2054 44.1576 30.0891 44.1668Z" fill="#662D26"/>
<path d="M31.0183 45.3442C28.0727 45.9238 24.2589 47.2211 22.7551 50.6159C22.7163 50.6987 22.7861 50.6803 22.8171 50.6343C24.6387 47.5247 27.9642 46.3839 30.9176 45.6386C31.0028 45.6202 31.1501 45.3258 31.0183 45.3534V45.3442Z" fill="#662D26"/>
<path d="M31.2429 47.3686C28.15 49.043 25.6075 52.723 24.592 56.5135C24.5378 56.7159 24.7316 56.5871 24.7703 56.4767C25.8711 52.7138 28.2973 49.5582 31.2119 47.5894C31.2739 47.5526 31.3825 47.295 31.2507 47.3594L31.2429 47.3686Z" fill="#662D26"/>
<path d="M17.9199 24.488C17.9199 24.488 18.5866 22.4456 20.8423 22.1972C21.7182 22.1972 17.5014 18.8115 17.9199 24.488Z" fill="#662D26"/>
<path d="M31.3895 15.9497C31.3895 15.9497 31.9786 14.6525 33.1491 14.3029C34.3273 13.9533 32.1026 12.7113 31.0484 14.3029C30.0019 15.8945 30.9631 16.6949 31.3817 15.9497H31.3895Z" fill="#662D26"/>
<path d="M23.621 58.0037C23.2876 58.8225 22.9853 59.7517 22.3574 60.3221C22.2799 60.3957 22.0396 60.7821 22.2799 60.7729C22.6675 60.7545 22.9698 60.1565 23.1559 59.8161C23.4659 59.2365 23.6597 58.6017 23.807 57.9393C23.8458 57.7645 23.652 57.9393 23.6287 58.0037H23.621Z" fill="#BD6D00"/>
<path d="M26.5915 66.2282C26.5682 66.1454 26.4364 66.311 26.4519 66.3846C26.6845 67.5806 26.8938 68.795 27.0333 70.0094C27.1418 71.0214 27.1108 72.0518 27.2504 73.0546C27.2891 73.303 27.5604 72.9442 27.5604 72.8062C27.5837 70.5338 27.2039 68.3718 26.5915 66.2282Z" fill="#BD6D00"/>
<path d="M18.3439 64.3518C17.7161 64.4898 17.1347 64.6554 16.4913 64.6462C16.0882 64.6462 15.3983 64.6002 15.0495 64.315C14.9952 64.269 14.879 64.4254 14.91 64.4898C15.1503 64.8946 15.6929 64.959 16.065 65.0326C16.8014 65.1798 17.5533 64.9866 18.2432 64.7106C18.3284 64.6738 18.5067 64.315 18.3362 64.3518H18.3439Z" fill="#BD6D00"/>
<path d="M16.0166 52.2537C15.5515 50.4504 14.7608 48.2056 15.3732 46.292C15.4197 46.154 15.2802 46.246 15.2492 46.3196C14.505 48.2148 14.9701 50.8 15.722 52.5757C15.7995 52.7505 16.0476 52.3917 16.0166 52.2537Z" fill="#BD6D00"/>
<path d="M12.7606 54.9216C11.9777 52.6491 11.3653 50.6711 11.9234 48.1871C11.9544 48.0491 11.7839 48.1871 11.7684 48.2515C11.0863 50.5055 11.1793 53.3391 12.5126 55.2528C12.5978 55.3724 12.8071 55.0412 12.7684 54.9308L12.7606 54.9216Z" fill="#BD6D00"/>
<path d="M46.1083 72.3826C44.3177 71.527 43.1782 69.4662 43.6743 67.0742C43.7363 66.7798 43.4417 66.9822 43.372 67.0742C42.6278 68.0954 42.2015 69.0798 41.9999 70.2758C41.124 68.1598 41.0387 65.2986 42.2325 63.4125C42.279 63.3389 42.248 63.2378 42.1782 63.3206C40.5581 65.3906 40.7054 68.905 41.8992 71.2418C42.0154 71.4718 42.2557 71.021 42.2635 70.8922C42.3487 69.5674 42.7131 68.6382 43.3487 67.5894C42.9456 68.2518 43.0929 69.0154 43.2324 69.7882C43.5115 71.3154 44.5037 72.9346 45.8912 72.8886C46.0308 72.8886 46.3021 72.4654 46.1083 72.3734V72.3826Z" fill="#BD6D00"/>
<path d="M56.3966 73.3125C54.7765 74.5453 52.8463 75.6217 50.8696 75.1525C50.7999 75.1341 50.6681 75.3365 50.7534 75.3825C52.575 76.3301 55.0478 74.8305 56.4198 73.4689C56.4741 73.4137 56.4973 73.2389 56.3966 73.3217V73.3125Z" fill="#BD6D00"/>
<path d="M70.6756 76.8351C69.6524 74.4431 69.164 72.0418 69.0555 69.3738C69.0555 69.2358 68.885 69.4382 68.8772 69.521C68.7842 71.9866 69.102 74.4614 70.133 76.6235C68.854 76.8167 67.6292 75.3631 67.1021 74.1211C66.3114 72.2534 66.73 69.9258 66.606 67.9386C66.5905 67.635 66.2727 67.911 66.2029 68.0122C65.4433 69.1438 63.5674 71.3978 62.4434 69.5302C61.8542 68.555 62.6604 66.8254 63.017 66.0066C63.8387 64.139 65.1409 62.8418 66.4665 61.5354C66.4665 61.563 66.4587 61.5998 66.451 61.6274C66.3812 62.0598 66.8541 61.5906 66.9006 61.3882C66.9316 61.2686 66.9548 61.149 66.9858 61.0202L67.0556 60.9558C67.1409 60.8729 67.1874 60.6246 67.0711 60.6614C67.9315 56.6225 67.761 51.5349 65.9859 47.9745C64.8851 45.7756 63.2108 44.5704 61.3814 44.322C60.955 43.862 60.3737 43.5584 59.9008 43.2272C59.1644 42.712 58.335 42.3164 57.5056 42.0588C57.4358 42.0404 57.3195 42.2244 57.397 42.2704C58.4513 42.804 59.5365 43.4848 60.5132 44.276C59.4435 44.3036 58.3505 44.6349 57.304 45.2697C56.6761 45.1685 56.0405 45.2881 55.4824 45.7297C55.5444 45.2789 55.5832 44.8281 55.6762 44.3772C55.7769 43.8988 56.0715 43.6504 56.2731 43.2548C56.3428 43.1168 56.2343 43.0984 56.1645 43.1996C56.118 43.264 56.0715 43.3192 56.0173 43.3836C56.0405 43.3192 56.0405 43.264 55.9707 43.2456C54.8933 42.9788 53.9631 43.8712 53.3507 44.8924C53.5057 43.9448 53.839 43.1536 54.2266 42.2704C54.3429 42.0956 54.4592 41.792 54.2266 41.8932C51.6686 43.0156 50.2268 45.8676 50.3741 49.0693C50.3818 49.2533 50.6144 48.9865 50.6144 48.8761C50.6299 47.6893 50.9012 46.6405 51.219 45.5273C51.6298 44.0828 52.7926 43.264 53.8545 42.5556C53.7848 42.666 53.7228 42.7764 53.6608 42.9052C53.5135 43.2548 53.3739 43.6136 53.2267 43.9632C52.9864 44.5244 52.9321 45.2697 52.8701 45.8861C52.8391 46.2173 53.1569 45.9597 53.2189 45.8125C53.5212 45.1317 53.8003 44.5612 54.3894 44.184C54.808 43.9172 55.3041 43.816 55.7692 43.6688C55.6374 43.816 55.5134 43.9724 55.4359 44.184C55.2188 44.7452 55.0638 45.426 55.1568 46.0332C55.1801 46.162 55.2576 46.1253 55.3274 46.0425C56.9785 45.0212 58.7923 46.5761 59.7458 48.1309C60.6605 49.6213 60.9628 51.5165 61.2574 53.2829C61.3116 53.5957 61.676 53.1449 61.6682 52.9517C61.5597 50.7805 60.955 48.6369 59.769 46.9625C59.2264 46.1989 58.4358 45.5825 57.6063 45.3525C58.9009 44.8372 60.1334 44.7084 61.2651 44.9476C61.3039 44.9844 61.3426 45.012 61.3814 45.0488C61.4201 45.0856 61.4822 45.058 61.5287 45.012C63.2418 45.472 64.7223 46.8061 65.8153 49.0233C67.5207 52.4917 67.0944 57.2573 66.5285 61.0846C64.265 62.9062 62.0015 65.5098 61.707 68.877C61.6062 70.0362 62.1488 70.9746 63.1798 70.9378C64.4976 70.8918 65.327 69.9718 66.0944 68.8586C66.1874 71.2046 65.8696 73.5138 66.9471 75.6483C67.606 76.9455 68.9082 77.7091 70.0865 77.2215C70.1408 77.2031 70.226 77.0927 70.2803 76.9731C70.3113 77.0375 70.3423 77.1019 70.381 77.1663C70.4663 77.3227 70.7221 76.9915 70.6601 76.8535L70.6756 76.8351Z" fill="#BD6D00"/>
<path d="M62.6907 44.0283C61.807 43.4855 60.9931 42.8875 60.2644 42.0779C59.4815 41.2223 59.0397 40.1183 58.6133 38.9867C58.5746 38.8855 58.4195 39.0879 58.4428 39.1707C59.0862 41.6363 60.2954 43.5959 62.4194 44.4791C62.5512 44.5343 62.8225 44.1111 62.6829 44.0283H62.6907Z" fill="#BD6D00"/>
<path d="M77.7644 47.1383C77.4931 45.5743 77.09 44.0563 76.6869 42.5382C76.2916 41.0754 75.4932 39.9622 74.8033 38.6926C74.7645 38.619 74.6482 38.7754 74.6715 38.8398C75.1444 40.0082 75.749 41.0754 76.1443 42.2806C76.6869 43.9459 77.0745 45.7767 77.3613 47.5247C77.8807 50.6619 77.5784 53.9555 77.6714 57.1295C77.6714 57.3779 77.997 57.0191 77.997 56.8627C78.09 53.6887 78.2993 50.2663 77.7489 47.1475L77.7644 47.1383Z" fill="#BD6D00"/>
<path d="M80.4477 65.7856C80.3004 64.5712 80.0678 63.4028 79.7578 62.2252C79.3702 60.744 78.6183 59.6216 78.0059 58.2968C77.9594 58.1956 77.8121 58.398 77.8431 58.4808C78.5718 60.5048 79.3702 62.2804 79.8043 64.47C80.4554 67.7728 80.0601 70.7444 79.0136 73.8633C78.8973 74.2037 79.2462 74.0473 79.3237 73.8633C80.4554 71.2412 80.7887 68.702 80.4399 65.7948L80.4477 65.7856Z" fill="#BD6D00"/>
<path d="M93.944 56.7151C91.696 56.8807 89.9441 58.3619 88.2077 59.8983C88.1225 59.9719 88.0527 60.2663 88.2155 60.1375C90.0449 58.6655 91.6417 57.5339 93.8432 57.0095C93.9284 56.9911 94.0912 56.7059 93.944 56.7151Z" fill="#BD6D00"/>
<path d="M116.875 61.5362C116.015 62.4102 115.139 63.6062 114.999 64.9862C114.968 65.2622 115.248 64.9862 115.286 64.8758C115.503 64.241 115.666 63.6338 116.007 63.0726C116.302 62.585 116.627 62.125 116.961 61.6742C117.046 61.5546 116.992 61.4166 116.875 61.5362Z" fill="#BD6D00"/>
<path d="M125.225 57.8195C124.287 57.4607 123.078 58.0955 122.248 58.5923C121.372 59.1075 120.961 60.0183 120.31 60.7819C120.241 60.8647 120.248 61.0119 120.357 60.9107C120.977 60.2943 121.434 59.5307 122.171 59.0523C123.039 58.4819 124.078 58.2795 125.054 58.2427C125.163 58.2427 125.388 57.8931 125.233 57.8287L125.225 57.8195Z" fill="#BD6D00"/>
<path d="M126.608 61.8489C125.787 61.2601 124.492 61.8857 123.709 62.3273C122.779 62.8517 122.012 63.5785 121.485 64.6273C121.392 64.8205 121.562 64.7837 121.632 64.6641C122.64 62.9437 124.647 61.9685 126.376 62.2445C126.484 62.2629 126.74 61.9409 126.608 61.8489Z" fill="#BD6D00"/>
<path d="M112.417 73.9465C112.06 75.1425 111.766 76.2465 112.068 77.5162C112.107 77.6726 112.37 77.369 112.347 77.2494C112.161 76.0441 112.355 75.0229 112.61 73.8637C112.649 73.6889 112.44 73.8545 112.417 73.9373V73.9465Z" fill="#BD6D00"/>
<path d="M74.0161 69.8619C74.0161 69.8159 73.954 69.8895 73.954 69.9171C73.8223 71.9964 73.9928 77.36 71.1014 76.9C70.9619 76.8816 70.7139 77.2496 70.8844 77.3324C74.0393 79.0068 74.1556 71.7848 74.0238 69.8619H74.0161Z" fill="#BD6D00"/>
<path d="M77.6718 70.0557C77.4857 72.2638 77.1524 76.827 74.7029 76.7626C74.5556 76.7626 74.2533 77.2042 74.4549 77.2502C77.1912 77.8942 77.7105 72.135 77.7338 70.0098C77.7338 69.9638 77.6718 70.0281 77.6718 70.0557Z" fill="#BD6D00"/>
<path d="M38.9009 36.5302C38.8622 36.4198 38.6994 36.6406 38.7149 36.7326C39.1878 38.8026 39.397 40.661 39.2963 42.8047C39.2885 43.0531 39.6296 42.7127 39.6451 42.5655C39.8854 40.4402 39.5598 38.4898 38.8932 36.5302H38.9009Z" fill="#BD6D00"/>
<g style="mix-blend-mode:screen">
<path d="M21.2136 10.9443C21.2136 10.9443 21.6399 14.1552 17.7796 17.0808C14.3146 19.7028 8.15981 29.0961 11.9426 40.1913C11.7101 33.9537 10.4 25.6184 17.2757 18.7368C19.9035 16.722 21.9112 15.158 21.2136 10.9443Z" fill="#FDDF00"/>
</g>
<g style="mix-blend-mode:screen">
<path d="M29.6011 27.1738C29.6011 27.1738 33.5699 25.6742 40.1743 29.0322C39.0348 26.6034 33.0816 25.251 29.6011 27.1738Z" fill="#FDDF00"/>
</g>
<path d="M23.6684 53.6147C22.7924 51.2319 19.1879 50.2935 19.7693 47.2298C20.4902 43.3842 17.0872 43.8902 15.5369 45.9786C14.9168 45.215 13.9401 45.4726 13.1804 45.9786C12.3432 46.549 11.8316 47.6163 11.6533 48.7019C11.5293 48.5731 11.382 48.4443 11.227 48.4535C10.9402 48.4719 10.6611 48.5363 10.4131 48.7295C9.83945 49.1527 9.6379 49.6863 9.36659 50.3855C9.33559 50.4591 9.4131 50.4223 9.43636 50.3855C9.69992 49.8703 9.88595 49.4195 10.3123 49.0699C10.5371 48.8859 10.9712 48.7019 11.2347 48.8767C11.382 48.9687 11.4363 49.1067 11.6068 49.1527C11.6998 49.1803 11.8781 48.9319 11.7929 48.8399C11.7774 48.8215 11.7619 48.8123 11.7541 48.7939C12.0022 47.9198 12.3587 47.2298 12.9091 46.5674C13.661 45.6566 14.8082 45.767 15.4904 46.6134C15.5834 46.7238 15.816 46.3926 15.754 46.273C15.7152 46.1902 15.6687 46.1259 15.6222 46.0615C17.0252 44.525 20.2654 43.5958 19.4592 47.3862C19.2422 48.4167 19.2422 49.2079 19.8546 49.9991C20.8158 51.2503 22.0638 51.9035 22.9165 53.3479C23.7614 54.7739 23.5599 57.0003 23.4048 58.5827C23.3816 58.8403 23.6451 58.5827 23.6761 58.4355C24.1102 56.6691 24.335 55.3995 23.6761 53.6055L23.6684 53.6147Z" fill="#BD6D00"/>
<g style="mix-blend-mode:multiply">
<path d="M12.516 55.2443C11.6323 52.3187 11.4463 49.6046 11.9811 47.8198C11.8261 48.1694 11.6866 48.5466 11.5858 48.9606C11.1672 48.6662 10.6943 48.7306 10.2603 49.0894C10.2758 49.0894 10.2913 49.0894 10.3145 49.0894C11.4308 49.1262 9.5471 52.0519 12.5237 55.2535L12.516 55.2443Z" fill="#F9C812"/>
</g>
<g style="mix-blend-mode:multiply">
<path d="M67.7448 76.3299C66.365 74.6922 66.0007 72.6038 66.1557 70.3682C66.2022 69.715 66.2565 69.0526 66.2487 68.3902C66.2487 68.0406 66.2022 68.289 66.0627 68.4546C65.9774 68.5466 65.8999 68.6478 65.8069 68.7306C65.3651 69.1722 64.7372 70.129 64.1946 70.3682C63.4737 70.681 62.4272 70.3314 62.1869 69.1446C61.8691 67.5438 62.6985 65.7682 63.4892 64.5446C64.024 63.7258 64.6209 62.9438 65.3108 62.3182C65.6286 62.0238 65.9542 61.7386 66.3107 61.5178C66.8921 61.1498 66.8456 60.7358 66.9231 59.9813C67.2177 57.2029 67.2177 54.5441 66.7991 51.7749C66.6286 50.6801 66.427 49.1805 65.8999 48.0489C65.5511 47.5429 65.1945 47.1105 64.8457 46.7425C64.8224 46.7241 64.7992 46.7057 64.7759 46.6965C64.7604 46.6965 64.7527 46.6689 64.7527 46.6505C64.2101 46.0893 63.6829 45.6937 63.2023 45.4545C59.7296 43.7248 58.1638 45.9881 58.1638 45.9881C58.1638 45.9881 56.8227 44.93 55.474 45.7488C55.5747 44.3228 55.7763 43.6696 55.7763 43.6696C55.7763 43.6696 54.1407 43.5868 53.226 45.8133C52.9857 43.7892 54.2414 42.2712 54.2414 42.2712C54.2414 42.2712 52.35 42.7956 51.2261 45.5281C51.3966 43.826 50.6524 42.7588 49.9005 42.124C47.7611 45.528 45.6139 47.9569 45.6139 47.9569C44.6759 54.7465 41.4667 56.0713 38.6606 55.7217C38.9707 57.3869 39.8311 59.5397 42.0636 61.0302C40.7691 62.263 40.5055 63.3946 40.5908 64.1122C41.2807 62.677 42.6682 61.849 42.6682 61.849C42.6682 61.849 39.9009 65.5934 41.9783 70.2946C42.4977 67.9118 43.6527 67.093 43.6527 67.093C43.6527 67.093 42.5365 69.393 44.5519 72.5486C44.7922 72.4842 44.9317 72.4566 44.9317 72.4566C44.9317 72.4566 50.3036 76.8359 53.0709 75.3454C59.6986 77.1395 67.551 78.7587 69.7525 77.4891C69.0161 77.3971 68.3184 77.0383 67.7293 76.3483L67.7448 76.3299ZM64.0705 75.4375C63.8302 76.6887 59.6211 76.3943 56.9545 74.7659C56.3887 74.5727 58.2491 73.4226 58.6521 71.2146C59.0552 69.0066 51.4586 76.2011 47.9006 70.3498C45.7999 66.6054 46.203 62.1986 46.203 62.1986C46.203 62.1986 44.017 64.0202 43.8542 65.3634C43.6915 66.7066 41.9163 63.2566 44.8232 60.0825L43.3659 60.6622L44.4201 59.2269C44.4201 59.2269 43.1256 59.6134 41.676 56.9269C41.676 56.9269 46.5286 55.1973 48.6293 47.1381C49.0323 45.4085 50.0013 49.5393 50.0866 52.3177C50.978 48.0949 52.1873 48.0949 52.1873 48.0949L52.6756 51.8393C52.6756 51.8393 53.4818 49.2449 55.1794 48.1961C56.877 47.1381 61.807 51.7473 61.5667 59.3281C61.5667 59.3281 63.2644 58.3713 63.2644 53.9553C63.2644 49.5393 67.9851 57.3593 63.8302 62.7782C61.404 65.943 60.3575 69.4942 61.5667 71.2238C62.776 72.9534 64.3186 74.1954 64.0705 75.4466V75.4375Z" fill="#FBD79F"/>
</g>
<g style="mix-blend-mode:screen">
<path d="M13.7459 62.4286C10.1336 59.549 9.50574 54.9857 9.98634 50.1189C9.98634 50.0453 9.91658 50.1189 9.90883 50.1557C8.89336 54.5073 9.49024 60.8002 13.4203 62.8978C13.5831 62.9898 13.9009 62.539 13.7459 62.4194V62.4286Z" fill="#FDDF00"/>
<path d="M13.5001 46.4481C12.6862 47.3405 12.5157 47.8373 12.3141 49.2817C12.0506 51.1493 12.2211 53.1182 12.9265 54.8202C13.0118 55.0226 13.3141 54.6086 13.2676 54.443C12.5622 51.8485 12.0661 48.8953 13.5466 46.5309C13.5931 46.4573 13.5621 46.3745 13.5001 46.4481Z" fill="#FDDF00"/>
<path d="M17.0105 45.5645C17.0105 45.5645 17.1035 45.3897 17.0182 45.4265C14.8865 46.3649 15.0803 50.6153 16.2508 52.3173C16.3361 52.4369 16.5609 52.0965 16.5143 51.9769C15.7779 50.0725 15.0803 46.9077 17.0027 45.5645H17.0105Z" fill="#FDDF00"/>
<path d="M19.6927 76.2286C17.6075 75.557 16.778 73.4778 16.6773 71.0766C16.592 69.1354 16.3672 67.2954 15.9486 65.4186C15.9331 65.345 15.8168 65.4922 15.8246 65.5566C16.2664 68.0498 16.1114 70.5798 16.5067 73.0454C16.7935 74.8118 17.9253 76.4954 19.4911 76.6334C19.6151 76.6426 19.8632 76.2838 19.6927 76.2286Z" fill="#FDDF00"/>
<path d="M33.4062 58.712C31.0265 61.1132 28.1661 63.7996 27.7785 67.7556C27.7398 68.142 28.1351 67.728 28.1739 67.544C28.9335 63.7352 31.197 61.4628 33.445 58.8408C33.5148 58.758 33.507 58.6108 33.3985 58.7212L33.4062 58.712Z" fill="#FDDF00"/>
<path d="M63.0163 32.1332C63.0163 32.1332 62.9233 32.2344 62.9621 32.2344C66.7139 32.7956 69.8068 34.8564 72.4346 38.0397C75.4577 41.7105 76.2174 46.9269 76.1709 51.8398C76.1709 52.079 76.4809 51.7202 76.4964 51.573C77.2018 41.8209 71.4579 32.768 63.0163 32.124V32.1332Z" fill="#FDDF00"/>
<path d="M77.3426 62.4562C77.2806 62.3826 77.1255 62.6034 77.1798 62.6954C79.0867 65.5198 80.1177 70.3866 78.9472 73.7722C78.8386 74.0943 79.1564 73.9378 79.234 73.7722C80.8075 70.4418 79.3657 65.115 77.3348 62.4654L77.3426 62.4562Z" fill="#FDDF00"/>
<path d="M76.9474 68.3253C76.8932 68.1965 76.6994 68.4541 76.7304 68.5645C77.1645 70.1377 76.3118 72.8149 75.5831 74.0385C75.4746 74.2225 75.5289 74.4341 75.7072 74.2409C76.3661 73.5693 76.5986 72.6493 76.8079 71.6741C77.0172 70.7265 77.304 69.2545 76.9397 68.3069L76.9474 68.3253Z" fill="#FDDF00"/>
<path d="M73.3272 68.0771C73.3272 67.9299 73.1411 68.1415 73.1411 68.2243C73.0714 70.3771 73.1101 73.2936 71.8001 75.0324C71.6606 75.2256 71.7536 75.474 71.9396 75.2624C73.4047 73.6064 73.4512 70.2667 73.3272 68.0679V68.0771Z" fill="#FDDF00"/>
</g>
<g style="mix-blend-mode:screen">
<path d="M89.8587 46.5761C88.2308 41.3228 82.5334 37.5692 77.9676 37.928C77.9056 37.928 77.7816 38.158 77.8669 38.1672C80.3241 38.3696 82.2698 39.354 84.4093 40.7984C86.7347 42.3716 88.0215 44.414 89.5331 46.9533C89.6494 47.1465 89.9129 46.7509 89.8664 46.5853L89.8587 46.5761Z" fill="#FDDF00"/>
<path d="M114.949 61.2408C113.352 59.3364 110.941 58.352 108.809 57.6435C106.701 56.9351 104.399 56.2635 102.205 56.2267C98.6701 56.1623 94.4067 56.6959 91.2905 58.8672C91.2363 58.904 91.1975 59.0604 91.2905 58.996C94.4997 56.9719 98.7631 56.6775 102.329 56.8431C104.352 56.9351 106.476 57.7171 108.422 58.3703C110.592 59.0972 112.693 60.2564 114.491 61.894C114.693 62.078 115.135 61.4616 114.956 61.25L114.949 61.2408Z" fill="#FDDF00"/>
<path d="M123.084 56.125C122.053 56.4838 121.139 57.1646 120.309 57.9926C119.177 59.115 118.022 60.3295 117.247 61.8291C117.131 62.0591 117.317 62.0775 117.433 61.9211C119.162 59.667 120.798 57.7074 123.061 56.217C123.076 56.2078 123.131 56.1066 123.084 56.1158V56.125Z" fill="#FDDF00"/>
<path d="M124.449 58.2604C122.845 57.9936 121.38 59.76 120.434 61.0848C120.271 61.3056 120.434 61.462 120.597 61.2412C121.55 59.944 122.798 58.4352 124.364 58.426C124.411 58.426 124.504 58.2788 124.442 58.2696L124.449 58.2604Z" fill="#FDDF00"/>
<path d="M126.152 62.2718C124.113 62.005 122.361 63.6426 121.276 65.5562C121.191 65.7034 121.323 65.731 121.4 65.6206C122.571 63.8818 124.067 62.4098 126.043 62.4926C126.113 62.4926 126.237 62.281 126.152 62.2718Z" fill="#FDDF00"/>
</g>
<g style="mix-blend-mode:multiply">
<path d="M47.2559 47.6442C51.9611 41.9401 54.3254 35.8405 55.2246 33.1265C54.2091 33.8441 53.4107 34.8101 52.9999 36.0705C50.6511 42.2437 45.628 47.9386 45.628 47.9386C44.5506 55.7218 40.4965 56.329 37.4733 55.455C36.8299 55.7402 36.2098 56.0714 35.6284 56.4302C42.9072 57.8102 45.411 54.1394 47.2559 47.6442Z" fill="#CEA814"/>
</g>
<g style="mix-blend-mode:screen">
<path d="M38.5442 0.474621C35.8621 0.189419 31.0794 1.95584 30.4127 5.58986C30.343 5.96706 30.7538 5.58986 30.8081 5.44266C32.0793 2.09383 35.6606 0.879431 38.4977 0.603429C38.5287 0.603429 38.5985 0.483821 38.552 0.474621H38.5442Z" fill="#F9C812"/>
</g>
<g style="mix-blend-mode:multiply" opacity="0.9">
<path d="M20.5536 54.9957C20.4451 54.9405 20.3288 54.9313 20.2125 54.9037C20.197 54.9037 19.8792 54.7197 19.9335 54.6645C19.9567 54.6461 20.011 54.5541 20.0342 54.4805C20.1583 54.2781 20.2978 53.9653 20.0963 53.9561C19.5691 53.9561 19.0498 54.5265 18.9723 55.1337C18.8948 55.7317 19.3366 56.2745 19.8017 56.4033C20.259 56.5229 20.7396 56.1181 20.8094 55.5845C20.8404 55.3637 20.7164 55.0877 20.5459 54.9957H20.5536Z" fill="#BD6D00"/>
<path d="M16.1444 59.3653C16.1444 59.3101 16.1289 59.2549 16.1134 59.1997C16.1134 59.1905 16.1211 59.1813 16.1211 59.1721C16.1754 58.7857 15.8653 58.4085 15.6405 58.1601C15.3615 57.8565 14.9041 57.7829 14.5553 57.9209C13.8111 58.2245 13.3926 59.2641 13.8422 60.0737C14.2452 60.8097 15.0747 61.3709 15.687 60.6349C15.9971 60.2669 16.1754 59.8805 16.1366 59.3561L16.1444 59.3653Z" fill="#BD6D00"/>
<path d="M20.2834 60.0915C20.2292 59.7142 19.9268 59.4842 19.6323 59.5486C19.4152 59.4934 19.1904 59.521 18.9734 59.5854C18.3378 59.797 17.5626 60.5146 17.7951 61.3886C18.0897 62.5203 19.1362 61.9959 19.6633 61.4715C19.8881 61.2415 20.0974 60.9931 20.2059 60.6895C20.2059 60.6895 20.2137 60.6895 20.2214 60.6803C20.4229 60.4503 20.3997 60.2846 20.2834 60.1006V60.0915Z" fill="#BD6D00"/>
<path d="M22.1047 62.5111C21.9574 62.3639 21.7869 62.3547 21.6318 62.4375C21.6086 62.4375 21.5853 62.4375 21.5621 62.4375C21.2753 62.4559 21.0737 62.7503 20.9574 63.0355C20.7326 63.5783 21.128 64.204 21.5931 64.2592C21.8101 64.2776 22.0194 64.1672 22.1589 63.9832C22.376 63.7163 22.4225 63.4219 22.4535 63.0631C22.4768 62.7595 22.252 62.6767 22.0969 62.5203L22.1047 62.5111Z" fill="#BD6D00"/>
<path d="M24.3055 66.1003C24.1039 65.6863 23.8094 65.5299 23.5071 65.7967C23.228 65.6495 22.9102 65.5575 22.6621 65.6863C22.2745 65.8795 21.918 66.3395 21.918 66.8731C21.918 67.4804 22.2513 67.8576 22.6544 68.152C23.0342 68.428 23.4916 68.6488 23.9334 68.5936C24.3675 68.5476 24.6698 67.9496 24.7163 67.4804C24.7706 66.9468 24.507 66.5235 24.2977 66.0911L24.3055 66.1003Z" fill="#BD6D00"/>
<path d="M17.7757 66.2369C17.4346 65.6849 16.6517 65.5653 16.2486 66.0621C16.2254 66.0897 16.2021 66.1173 16.1789 66.1541C16.1789 66.1541 16.1789 66.1541 16.1711 66.1541C16.0936 66.1265 15.9541 66.3381 16.0238 66.4117C16.0393 66.4209 16.0471 66.4393 16.0626 66.4485C16.0549 66.5313 16.0704 66.6049 16.1556 66.6417C16.1866 66.6601 16.2331 66.6601 16.2719 66.6601C16.4579 66.8717 16.6052 67.1201 16.5897 67.4513C16.5742 67.8009 16.6207 68.0309 16.8843 68.2333C17.2874 68.5369 17.7292 68.1505 17.9463 67.7457C18.2408 67.1937 18.109 66.7429 17.7912 66.2369H17.7757Z" fill="#BD6D00"/>
<path d="M19.509 72.7145C19.1059 72.3833 18.4005 72.2085 18.4393 71.4633C18.5555 71.2701 18.6098 71.0493 18.4393 71.0033C17.7029 70.8009 17.1835 71.6933 17.0362 72.4385C16.8502 73.3769 17.3153 74.2785 18.0362 74.6557C18.6563 74.9869 19.8888 75.0145 19.9973 73.9013C20.0516 73.3769 19.8733 73.0089 19.509 72.7145Z" fill="#BD6D00"/>
<path d="M22.5699 70.8741C22.5699 70.8741 22.5699 70.8741 22.5622 70.8741C22.4847 70.8281 22.3994 70.8006 22.3374 70.7822C22.0893 70.7362 21.8335 70.9017 21.6707 71.1041C21.4459 71.3802 21.3917 71.6746 21.4925 72.0334C21.6475 72.5854 22.3296 72.4842 22.6319 72.2174C22.8567 72.0242 23.128 71.7574 23.1358 71.3986C23.1358 71.049 22.849 70.8282 22.5777 70.865L22.5699 70.8741Z" fill="#BD6D00"/>
<path d="M25.826 75.7596C25.7097 75.456 25.5236 75.3088 25.2988 75.4008C24.4694 74.8488 22.8416 76.3116 24.0198 77.3788C24.5779 77.8848 25.3298 77.5444 25.6787 76.9004C25.8647 76.5508 25.981 76.1552 25.826 75.7596Z" fill="#BD6D00"/>
<path d="M31.0705 73.653C30.8224 73.3494 30.5046 73.2482 30.21 73.331C30.1403 73.3126 30.0783 73.3126 30.0085 73.3218C29.5589 73.3862 29.1481 73.5978 28.838 73.9934C28.2566 74.7294 28.4117 75.9714 29.2023 76.4222C30.0163 76.8914 31.055 75.8886 31.3263 74.9962C31.4891 74.4718 31.4038 74.0578 31.0705 73.6622V73.653Z" fill="#BD6D00"/>
<path d="M30.4537 65.5571C30.0506 65.2075 29.5545 65.0235 29.2057 65.5387C28.6786 66.3207 29.1747 67.1303 29.7638 67.5535C30.2754 67.9215 31.0738 67.9583 31.2676 67.1027C31.3916 66.5599 30.9343 65.4559 30.4459 65.5571H30.4537Z" fill="#BD6D00"/>
<path d="M33.1313 68.5009C33.0926 68.3537 32.9918 68.2249 32.9065 68.1145C32.8058 67.9857 32.7282 68.0409 32.6042 67.9673C32.5577 67.9397 32.5034 67.9581 32.4492 67.9857C32.4337 67.9857 32.4104 67.9857 32.3949 67.9857C31.9841 67.9857 31.5422 68.6573 31.6973 69.1357C31.8833 69.7245 32.6042 69.6325 32.9298 69.3105C33.1313 69.1173 33.2088 68.7861 33.1313 68.5009Z" fill="#BD6D00"/>
<path d="M35.0798 62.5484C34.5992 62.622 34.2348 63.0728 33.9403 63.4868C33.6535 63.8824 33.638 64.4345 33.6922 64.9313C33.7387 65.4005 34.0721 65.6213 34.4441 65.5017C34.8395 65.3729 35.103 64.8485 35.3201 64.4713C35.3356 64.4437 35.3433 64.4252 35.3511 64.4068C35.5371 64.3884 35.7232 64.4069 35.8782 64.4529C36.1107 64.5173 36.2968 64.7289 36.5371 64.7013C36.7929 64.6737 36.9712 64.232 36.9867 63.9744C37.0332 62.7232 35.9402 62.438 35.0875 62.5576L35.0798 62.5484Z" fill="#BD6D00"/>
<path d="M40.3976 62.6858C40.2193 62.4834 40.0488 62.4834 39.8627 62.5662C39.824 62.5478 39.7852 62.5386 39.7464 62.5294C39.5992 62.4926 39.4131 62.6122 39.2891 62.6766C38.979 62.8606 38.7077 63.1642 38.5682 63.5414C38.4287 63.9186 38.3744 64.3694 38.5682 64.7374C38.7 64.9858 38.9403 65.2526 39.2038 65.1606C39.3201 65.1238 39.5371 64.9122 39.5682 64.719C39.7077 64.7742 39.8705 64.7006 40.01 64.5442C40.2348 64.2958 40.5526 63.799 40.5449 63.4034C40.5449 63.155 40.5449 62.8698 40.3898 62.6858H40.3976Z" fill="#BD6D00"/>
<path d="M40.4991 59.9909C40.4293 59.8713 40.3673 59.7517 40.2976 59.6413C40.2123 59.5125 39.9875 59.4481 39.8635 59.3929C39.6309 59.2917 39.3596 59.2181 39.1503 59.3929C38.9255 59.5861 38.7783 59.8989 38.7162 60.2209C38.6542 60.5153 38.8635 60.8097 39.0263 61.0121C39.4371 61.5181 40.0728 61.3065 40.2821 60.6625C40.3208 60.5429 40.3518 60.4049 40.3673 60.2669C40.4526 60.2301 40.5611 60.0553 40.5146 59.9817L40.4991 59.9909Z" fill="#BD6D00"/>
<path d="M39.5889 70.6262C38.5967 69.9546 37.2634 70.1294 36.6123 71.3162C36.1782 72.0982 35.9611 73.3862 36.8371 73.8738C37.2091 74.0762 37.806 74.021 38.0851 73.6162C38.2169 73.423 38.2944 73.1562 38.3176 72.9078C38.3331 72.6686 38.3021 72.4294 38.4959 72.2546C38.6354 72.135 38.806 72.0706 38.9455 71.9418C38.9533 71.9326 38.9765 71.905 38.9998 71.8774C39.2556 71.8498 39.5114 71.859 39.7129 71.6382C40.0307 71.2886 39.961 70.8746 39.5966 70.6262H39.5889Z" fill="#BD6D00"/>
<path d="M63.4771 72.7695C62.9035 72.0151 61.95 72.1623 61.3686 72.8063C61.1051 73.1007 60.888 73.5331 61.0508 73.9563C61.2058 74.3519 61.6632 74.4071 62.0198 74.4071C62.5546 74.8027 63.0585 75.5203 63.6476 74.9223C64.2522 74.3059 63.9112 73.3399 63.4771 72.7695Z" fill="#BD6D00"/>
<path d="M56.4906 73.2209C56.1417 72.7977 55.6689 72.4113 55.2813 72.8437C54.6999 73.4969 55.2038 74.4537 55.6921 74.8953C56.1883 75.3553 57.165 75.7785 57.5758 74.9689C57.9169 74.2973 57.1107 73.4233 56.4983 73.2117L56.4906 73.2209Z" fill="#BD6D00"/>
<path d="M59.7365 68.5924C59.5737 68.4176 59.3334 68.4268 59.1629 68.5557C59.0621 68.5097 58.9536 68.4821 58.8451 68.5005C58.5737 68.5465 58.3567 68.896 58.3102 69.1997C58.2714 69.4941 58.411 69.7425 58.6125 69.8897C59.0776 70.2209 59.5582 69.8897 59.814 69.3837C59.9613 69.0984 59.9458 68.8224 59.7365 68.5924Z" fill="#BD6D00"/>
<path d="M64.8143 76.6055C64.7677 76.3387 64.4577 76.2191 64.2716 76.2559C64.2561 76.2559 64.2406 76.2651 64.2174 76.2835C64.1631 76.2651 64.1089 76.2467 64.0546 76.2283C63.5895 76.1455 63.3492 76.9275 63.5197 77.3507C63.5895 77.5347 63.7833 77.6083 63.9383 77.6359C64.1554 77.6727 64.3646 77.5899 64.5274 77.4243C64.729 77.2219 64.8685 76.9091 64.8143 76.5963V76.6055Z" fill="#BD6D00"/>
<path d="M60.7777 35.3616C60.7777 35.3616 60.7234 35.3616 60.7002 35.3616C60.6304 35.2972 60.5529 35.242 60.4676 35.196C60.1033 35.0028 59.6382 34.8004 59.2506 34.966C58.863 35.1316 58.739 35.748 58.7778 36.1712C58.8243 36.714 59.1033 37.2936 59.3824 37.7168C59.8785 38.4712 61.1653 39.1152 61.6846 38.0756C62.1342 37.174 61.6769 35.5732 60.7777 35.3524V35.3616Z" fill="#BD6D00"/>
<path d="M57.2359 35.0226C57.1661 34.903 57.0731 34.7649 56.9568 34.6821C56.7708 34.4061 56.4374 34.3049 56.1584 34.5993C55.7165 35.0593 55.6778 36.0438 56.0809 36.5314C56.5149 37.065 57.0886 36.6786 57.3056 36.1082C57.4529 35.731 57.4296 35.363 57.2359 35.0226Z" fill="#BD6D00"/>
<path d="M54.3271 38.3427C54.1953 38.0759 53.9938 38.0023 53.7845 38.0299C53.7458 37.9931 53.707 37.9655 53.6682 37.9379C53.4047 37.7447 53.0714 37.6711 52.8 37.8735C52.4977 38.1035 52.2497 38.6003 52.3505 39.0419C52.4512 39.4651 52.8233 39.7963 53.1876 39.8515C53.5054 39.8975 53.8155 39.6951 54.0558 39.4651C54.3194 39.2167 54.5054 38.7199 54.3194 38.3519L54.3271 38.3427Z" fill="#BD6D00"/>
<path d="M63.7288 41.9591C63.6668 41.8947 63.6048 41.8395 63.5505 41.7843C63.2094 41.4531 62.8761 41.6831 62.6203 42.0143C62.1087 42.6767 62.6048 43.6888 63.1784 44.0108C63.721 44.3144 64.4109 44.1304 64.5505 43.3392C64.6435 42.7964 64.2094 42.1063 63.7288 41.9591Z" fill="#BD6D00"/>
<path d="M69.8228 44.4612C69.7685 44.0472 69.5515 43.4952 69.1794 43.3756C69.0244 43.3296 68.8771 43.2836 68.7298 43.21C68.7298 43.21 68.7298 43.21 68.722 43.21C68.722 43.21 68.7221 43.21 68.7298 43.21C68.8538 43.1456 69.1871 42.7408 69.0011 42.566C68.319 41.9496 67.1795 43.0352 66.9159 43.7712C66.5206 44.8752 67.1795 45.9148 68.1562 45.9884C68.8848 46.0436 69.9701 45.5376 69.8228 44.4704V44.4612Z" fill="#BD6D00"/>
<path d="M67.9006 35.1593C67.699 35.1317 67.4975 35.1409 67.2959 35.1409C67.1797 35.1409 67.0944 35.0857 67.0169 35.0305C66.9936 34.6257 66.8463 34.3221 66.4278 34.2761C66.0789 34.2301 65.7456 34.6993 65.5983 35.0213C65.358 35.5181 65.2417 35.9413 65.5363 36.4289C65.8309 36.9257 66.2572 37.1925 66.7301 37.3673C67.5362 37.6525 68.6292 37.1925 68.668 36.0425C68.6912 35.4445 68.3579 35.2329 67.8928 35.1685L67.9006 35.1593Z" fill="#BD6D00"/>
<path d="M63.6995 32.7124C63.6763 32.6572 63.653 32.602 63.6065 32.556C63.4903 32.4088 63.3042 32.3536 63.1492 32.3904C62.7383 32.4824 62.3663 33.1356 62.5213 33.6048C62.6608 34.0464 63.1647 34.0188 63.4282 33.7888C63.6375 33.6048 63.8158 33.3104 63.8003 32.9884C63.8003 32.8872 63.7538 32.786 63.6995 32.7124Z" fill="#BD6D00"/>
<path d="M65.3957 51.241C65.3104 50.873 64.9151 50.551 64.6825 50.3302C64.4344 50.1094 64.0391 49.8978 63.729 50.045C63.4422 50.183 63.1089 50.5878 63.2019 50.9834C63.2407 51.1674 63.3492 51.2594 63.4655 51.3422C63.512 51.471 63.5585 51.5998 63.6205 51.7286C63.8066 52.1334 64.0469 52.3358 64.4112 52.4646C64.7523 52.5934 65.0081 52.5842 65.2484 52.2346C65.4344 51.9586 65.4809 51.5722 65.4034 51.241H65.3957Z" fill="#BD6D00"/>
<path d="M61.1225 46.4669C61.1225 46.4669 61.1225 46.3933 61.1225 46.3565C61.107 46.2001 61.0139 46.1449 60.9519 46.0253C60.9054 45.9425 60.8434 45.8689 60.7814 45.7953C60.6496 45.6481 60.4791 45.5653 60.3085 45.6573C60.0837 45.7769 59.9365 46.1173 59.9287 46.4025C59.9287 46.8257 60.2388 47.3593 60.6031 47.4329C60.8899 47.4881 61.0837 47.0925 61.1535 46.8257C61.1845 46.7153 61.1612 46.5865 61.1225 46.4669Z" fill="#BD6D00"/>
<path d="M70.9544 50.6347C70.8148 49.9079 70.1327 48.9695 69.5823 49.4663C69.187 49.5491 68.8304 49.8895 68.6599 50.4415C68.3963 51.2695 68.7684 52.5023 69.5901 52.5851C70.3885 52.6679 71.1171 51.4995 70.9544 50.6255V50.6347Z" fill="#BD6D00"/>
<path d="M70.4184 57.1112C70.3642 57.0376 70.3022 56.9732 70.2246 56.918C69.9146 56.688 69.62 56.6696 69.2789 56.826C68.4108 57.2124 68.341 58.5924 69.1317 59.126C69.8371 59.5952 70.527 58.988 70.7362 58.16C70.8448 57.7368 70.682 57.3596 70.4184 57.1112Z" fill="#BD6D00"/>
<path d="M69.4378 61.3244C69.4223 61.0116 69.2672 60.7816 69.0347 60.6159C68.4146 60.1651 67.7867 60.7356 67.6239 61.4808C67.5386 61.858 67.5929 62.2996 67.8487 62.5756C68.0735 62.8148 68.4378 62.8424 68.7246 62.8148C69.2672 62.7504 69.6781 61.8488 69.4378 61.3244Z" fill="#BD6D00"/>
<path d="M75.4505 54.3324C75.1792 53.8816 74.7374 53.5504 74.2645 53.6516C73.8614 53.7436 73.4738 54.314 73.311 54.728C73.0863 55.2984 73.1018 55.924 73.2568 56.522C73.3731 56.982 73.6599 57.5156 74.0475 57.6996C74.5358 57.9388 74.9622 57.6168 75.3342 57.2488C75.8691 56.7152 76.2024 54.7832 75.4505 54.3324Z" fill="#BD6D00"/>
<path d="M74.9822 42.3911C74.6256 41.6827 73.835 41.1215 73.2769 41.7563C72.7885 42.3083 72.711 43.5687 73.1296 44.1943C73.4086 44.6175 73.9125 45.0407 74.3388 45.2431C74.7729 45.4547 75.1915 45.3812 75.3853 44.8108C75.5946 44.2127 75.5558 42.7407 74.9822 42.3911Z" fill="#BD6D00"/>
<path d="M77.0395 48.4254C76.9853 48.2874 76.8767 48.177 76.776 48.0942C76.7527 48.0758 76.7295 48.0666 76.7062 48.0574C76.6364 47.993 76.5434 47.9378 76.4582 47.9194C76.2024 47.8642 75.9233 48.1126 75.776 48.3334C75.6055 48.591 75.4737 48.9314 75.59 49.2534C75.8148 49.8514 76.4272 49.7962 76.7837 49.4098C77.0008 49.1706 77.1713 48.775 77.0395 48.4254Z" fill="#BD6D00"/>
<path d="M76.8631 60.4232C76.8631 60.4232 76.8399 60.3588 76.8244 60.3312C76.7934 60.2116 76.7391 60.092 76.6538 59.9816C76.4678 59.6228 76.2197 59.2732 75.8942 59.264C75.8632 59.264 75.8244 59.2732 75.7857 59.2916C75.6926 59.2455 75.6074 59.1996 75.5299 59.1536C75.1035 58.9328 74.6384 59.356 74.4136 59.7424C74.1346 60.2024 74.1811 60.6992 74.3904 61.1776C74.5997 61.6468 75.0338 61.9872 75.4523 62.162C75.9795 62.3828 76.367 62.2264 76.7236 61.748C77.0027 61.38 77.0492 60.8464 76.8631 60.414V60.4232Z" fill="#BD6D00"/>
<path d="M79.8141 38.7568C79.7134 38.4532 79.5118 38.1956 79.225 38.076C78.8142 37.9012 78.4576 37.984 78.1708 38.3704C77.8917 38.7476 77.7212 39.318 77.8607 39.8148C77.9925 40.2656 78.3336 40.7716 78.7444 40.8544C79.2095 40.9556 79.6126 40.6796 79.8684 40.2288C80.1009 39.8148 80.0699 39.1524 79.8219 38.766L79.8141 38.7568Z" fill="#BD6D00"/>
<path d="M86.2104 46.1531C86.1562 45.8771 85.8771 45.6195 85.5981 45.4907C85.505 45.2975 85.443 45.1135 85.4508 44.8651C85.4508 44.6167 85.4508 44.3959 85.319 44.1935C85.1097 43.8438 84.7454 43.8899 84.4586 44.0555C83.7687 44.4419 83.3578 45.4171 83.6679 46.2543C83.9392 47.0087 84.9159 47.9931 85.6136 47.3307C85.8849 47.0731 86.3035 46.6315 86.2182 46.1531H86.2104Z" fill="#BD6D00"/>
<path d="M82.1529 58.0587C82.1142 57.9943 82.0754 57.9759 82.0289 57.9851C81.5716 56.9547 80.091 56.2831 79.3856 57.0651C78.9205 57.5803 78.6492 58.3991 79.1686 59.0155C79.6957 59.6411 80.1608 59.6595 80.6569 59.2363C80.8429 59.7239 81.1917 60.2023 81.6723 59.7791C82.0367 59.4479 82.4785 58.6107 82.1607 58.0587H82.1529Z" fill="#BD6D00"/>
<path d="M86.4743 56.826C86.2882 56.5316 86.0712 56.3384 85.8231 56.32C85.5286 56.1268 85.172 56.0808 84.8542 56.228C84.4666 56.412 84.1953 56.7524 84.0403 57.2032C83.8387 57.7828 84.0403 58.2888 84.3813 58.7304C84.6604 59.0892 85.234 59.172 85.6216 59.1812C86.1022 59.1904 86.4045 58.85 86.5983 58.3532C86.7921 57.8472 86.7456 57.2676 86.4743 56.826Z" fill="#BD6D00"/>
<path d="M91.2655 55.9331C91.2655 55.9331 91.2655 55.933 91.2655 55.9238C91.3818 55.6018 91.3741 55.1602 91.2655 54.8934C91.095 54.4978 90.6376 54.3506 90.2966 54.3046C89.9322 54.2586 89.6067 54.5163 89.4051 54.8567C89.0873 55.3903 88.94 56.3747 89.5214 56.7519C89.8547 56.9635 90.1648 56.6783 90.3741 56.3839C90.4129 56.3287 90.4516 56.2643 90.4826 56.1999C90.5834 56.2643 90.6531 56.4759 90.7462 56.5311C90.94 56.6415 91.1803 56.3471 91.25 56.0895C91.2655 56.0435 91.2733 55.9883 91.2655 55.9423V55.9331Z" fill="#BD6D00"/>
<path d="M90.1068 47.3872C90.0525 47.24 89.882 47.1756 89.7657 47.1296C89.7037 47.1112 89.6417 47.102 89.5797 47.1204C89.5409 47.1296 89.4944 47.1572 89.4634 47.1848C89.4401 47.2124 89.3626 47.2676 89.3549 47.2768C89.1998 47.4424 89.1223 47.7092 89.2386 47.93C89.3006 48.0588 89.4324 48.1968 89.5642 48.206C89.8122 48.2336 90.0138 47.9024 90.0603 47.6356C90.1145 47.5712 90.1378 47.47 90.1145 47.3872H90.1068Z" fill="#BD6D00"/>
<path d="M89.4478 47.1843C89.4557 47.1736 89.4636 47.1736 89.4478 47.1843V47.1843Z" fill="#BD6D00"/>
<path d="M109.673 59.8889C109.58 59.8245 109.48 59.7692 109.394 59.7232C108.945 59.484 108.441 59.668 108.201 60.2016C107.766 61.1585 108.557 61.7841 109.216 62.1337C109.526 62.2993 109.852 62.4465 110.185 62.4373C110.503 62.4373 110.821 61.9681 110.805 61.6001C110.79 60.9929 110.247 60.1925 109.666 59.8889H109.673Z" fill="#BD6D00"/>
<path d="M114.071 60.8089C113.909 60.7261 113.715 60.6617 113.544 60.7169C113.366 60.7813 113.172 60.9653 113.095 61.1953C112.94 61.4069 112.831 61.6829 112.901 61.9589C112.971 62.2349 113.312 62.4281 113.537 62.4373C114.087 62.4373 114.723 61.1401 114.071 60.8089Z" fill="#BD6D00"/>
<path d="M112.921 65.9155C112.882 65.7131 112.758 65.5383 112.603 65.4003C112.456 65.1703 112.246 65.0231 112.014 65.1427C111.65 65.1427 111.355 65.5751 111.262 65.9523C111.153 66.3939 111.278 66.8999 111.603 67.1575C111.991 67.4611 112.417 67.1759 112.642 66.7527C112.673 66.6975 112.688 66.6331 112.712 66.5779C112.874 66.4307 112.967 66.1271 112.921 65.9063V65.9155ZM111.936 66.1731C111.936 66.1731 111.991 66.0811 112.014 66.0351C112.045 66.0903 112.076 66.1455 112.099 66.1915C112.13 66.2559 112.169 66.3387 112.184 66.4215C112.169 66.4215 112.146 66.4123 112.13 66.3939C112.045 66.3387 111.983 66.2651 111.936 66.1731Z" fill="#BD6D00"/>
<path d="M114.797 66.9176C114.502 66.7336 114.177 67.028 114.061 67.3592C113.999 67.5248 113.999 67.6812 114.03 67.8652C114.053 68.0124 114.223 68.086 114.332 68.1228C114.518 68.178 114.727 68.0308 114.851 67.8284C114.867 67.856 114.875 67.8744 114.882 67.902C114.89 67.9296 114.89 67.948 114.89 67.9572C114.859 68.0032 114.828 68.0676 114.836 68.1228C114.836 68.2148 114.929 68.1964 114.968 68.1596C115.378 67.8008 115.177 67.166 114.789 66.9176H114.797Z" fill="#BD6D00"/>
<path d="M113.721 70.7177C113.52 70.3957 113.295 70.3681 113.101 70.4785C113.055 70.4693 113.008 70.4601 112.962 70.4509C112.21 70.3773 111.946 71.6101 112.202 72.2449C112.357 72.6313 112.682 72.8706 112.977 73.0822C113.086 73.165 113.186 73.1834 113.287 73.1834C113.295 73.1834 113.31 73.1926 113.318 73.1926C113.465 73.2294 113.605 73.119 113.706 72.9718C113.775 72.9074 113.837 72.8153 113.892 72.7325C114.303 72.0793 114.086 71.2973 113.713 70.7085L113.721 70.7177Z" fill="#BD6D00"/>
<path d="M110.798 72.4386C110.798 72.4386 110.744 72.4018 110.721 72.3926C110.597 72.2454 110.434 72.1442 110.248 72.0706C110.047 71.9418 109.829 71.8498 109.566 71.8866C109.45 71.905 109.341 71.9786 109.248 72.0798C108.985 72.2546 108.76 72.6502 108.845 72.9722C108.954 73.377 109.357 73.5978 109.674 73.6898C110.085 73.8094 110.535 73.9566 110.868 73.561C111.147 73.2298 111.217 72.6686 110.806 72.4386H110.798Z" fill="#BD6D00"/>
<path d="M108.054 67.9117C107.721 67.6357 107.054 67.0561 106.612 67.1849C106.155 67.3229 105.814 67.7461 105.674 68.2797C105.55 68.7397 105.705 69.3193 106.178 69.3009C106.418 69.3009 106.62 69.2273 106.86 69.3009C107.085 69.3653 107.093 69.6137 107.248 69.7609C107.372 70.2117 107.589 70.5981 108.007 70.3773C108.349 70.2025 108.628 69.6413 108.651 69.2181C108.682 68.6661 108.411 68.2245 108.046 67.9117H108.054Z" fill="#BD6D00"/>
<path d="M103.286 62.6683C103.131 62.5671 102.991 62.4935 102.86 62.4843C102.627 62.3647 102.371 62.3187 102.123 62.4199C101.751 62.5671 101.581 63.1375 101.557 63.5515C101.534 64.0759 101.751 64.4715 102.077 64.7843C102.426 65.1155 102.805 65.1339 103.201 64.9131C103.55 64.7199 103.953 64.2507 103.984 63.7723C104.015 63.2663 103.612 62.8891 103.286 62.6683Z" fill="#BD6D00"/>
<path d="M105.164 57.3504C105.001 56.9824 104.551 56.8077 104.21 56.7249C103.962 56.6605 103.706 56.6145 103.466 56.7249C103.11 56.8997 102.862 57.4425 102.97 57.8841C103.148 58.6293 104.102 59.0985 104.675 58.7213C104.947 58.5465 105.303 58.0589 105.272 57.6632C105.265 57.5344 105.226 57.4241 105.172 57.3413L105.164 57.3504Z" fill="#BD6D00"/>
<path d="M98.5972 60.1745C98.2794 59.8065 97.7058 59.5765 97.3802 59.5857C97.2019 59.5857 97.0469 59.7881 96.9461 59.9445C96.8066 60.1561 96.8298 60.3769 96.7523 60.6069C96.5818 61.1405 96.7678 61.5729 97.1322 61.8857C97.7445 62.4009 98.9383 62.7045 99.1786 61.5453C99.2716 61.0853 98.9771 60.4965 98.5972 60.1837V60.1745Z" fill="#BD6D00"/>
<path d="M99.4597 65.8419C99.2116 65.5383 99.0101 65.3911 98.6535 65.3359C98.5915 65.3359 98.514 65.3727 98.4287 65.4555C98.4287 65.4555 98.4209 65.4555 98.4132 65.4555C97.9171 65.6855 97.1497 66.5871 97.762 67.1575C97.9868 67.3691 98.3124 67.4428 98.5915 67.4336C98.948 67.4152 99.2038 67.2035 99.4286 66.8815C99.6612 66.5595 99.7077 66.1547 99.4519 65.8419H99.4597Z" fill="#BD6D00"/>
<path d="M93.6421 64.4527C93.5646 64.0019 92.9987 63.6615 92.7429 63.3671C92.3941 62.9715 92.0375 62.7138 91.5491 62.7874C90.7662 62.907 90.0608 64.0479 90.2546 64.9495C90.3554 65.4095 90.8902 65.7683 91.2546 65.8143C91.8825 65.8879 92.084 64.9035 92.7816 65.3267C92.8437 65.3635 92.9057 65.3543 92.9754 65.3267C93.1072 65.4187 93.2467 65.4555 93.3785 65.3451C93.6266 65.1427 93.6963 64.7747 93.6421 64.4527Z" fill="#BD6D00"/>
<path d="M94.1159 68.1978C94.0461 68.1978 93.9841 68.1978 93.9143 68.1978C93.3795 67.2134 92.0849 67.8666 91.7594 68.851C91.5191 69.587 91.9144 70.231 92.5733 70.1574C92.8678 70.1206 93.1236 69.7802 93.2477 69.4858C93.3097 69.3386 93.3329 69.2006 93.3484 69.0442C93.4105 69.035 93.4647 69.0258 93.5267 69.0166C93.6663 68.9982 93.7438 68.9614 93.8756 68.897C93.9841 68.8418 94.3949 68.2254 94.1081 68.207L94.1159 68.1978Z" fill="#BD6D00"/>
<path d="M88.7512 69.4021C88.4489 67.9669 86.8288 68.1417 86.0381 68.8409C85.387 69.4113 84.5886 71.1593 85.9374 71.3249C86.3715 71.3801 86.7203 70.9017 86.8443 70.4601C86.9296 70.1657 87.2474 70.4693 87.4489 70.5705C87.6272 70.6533 87.8753 70.6901 88.0536 70.5981C88.4024 70.4141 88.6892 70.0277 88.7047 69.5677C88.7357 69.5125 88.7512 69.4481 88.7435 69.4113L88.7512 69.4021Z" fill="#BD6D00"/>
<path d="M84.8318 66.127C84.6691 65.6486 84.2272 65.0322 83.8009 64.9034C83.297 64.7562 82.7466 65.4922 82.6536 66.0166C82.6226 66.2006 82.6226 66.3754 82.6536 66.5318C82.6459 66.9366 82.8087 67.3046 83.1265 67.5898C83.4908 67.9118 83.9947 68.2154 84.4055 67.8566C84.8473 67.4702 85.0256 66.7158 84.8318 66.1178V66.127Z" fill="#BD6D00"/>
<path d="M83.0462 71.6844C82.8214 71.4728 82.5888 71.3624 82.302 71.344C82.271 71.344 82.24 71.344 82.209 71.3532C82.023 71.2888 81.8292 71.2796 81.6664 71.3716C81.3486 71.5556 81.1083 71.942 81.0928 72.3652C81.0928 72.7424 81.5114 72.9632 81.7594 73.0644C82.1005 73.2024 82.5578 73.1748 82.8369 72.8804C83.116 72.586 83.4105 72.034 83.0384 71.6844H83.0462Z" fill="#BD6D00"/>
<path d="M94.6958 58.6666C94.657 58.4734 94.4632 58.3078 94.3159 58.2434C94.0214 58.1146 93.7501 58.3998 93.626 58.7494C93.564 58.8782 93.5408 59.0254 93.564 59.1542C93.564 59.2094 93.5795 59.2738 93.595 59.3198C93.6493 59.4854 93.7733 59.605 93.9206 59.605C94.1532 59.697 94.3702 59.5682 94.5485 59.329C94.688 59.145 94.7423 58.8966 94.6958 58.6666Z" fill="#BD6D00"/>
</g>
</svg>
