<svg width="146" height="101" viewBox="0 0 146 101" fill="none" xmlns="http://www.w3.org/2000/svg">
<path d="M116.9 89.7868C116.9 89.7868 114.88 88.257 112.97 90.4867C111.07 92.7163 111.19 94.366 113.01 94.1261C114.83 93.8761 118.379 91.8564 116.89 89.7868H116.9Z" fill="#EFF0F0"/>
<g style="mix-blend-mode:multiply">
<path d="M116.899 89.7874C116.899 89.7874 116.629 89.5875 116.199 89.4375C116.309 89.6275 116.369 89.8474 116.379 90.0774C116.389 90.9473 115.939 91.4372 115.23 91.8871C114.06 92.637 112.85 93.0569 111.6 93.2269C111.62 93.8868 112.11 94.2467 113.02 94.1168C114.84 93.8668 118.389 91.8471 116.899 89.7774V89.7874Z" fill="#E6E7E8"/>
</g>
<path d="M135.856 38.6154C135.856 38.6154 137.406 41.0051 139.215 42.2349C141.025 43.4647 141.735 45.1444 142.055 46.3042C142.375 47.4641 143.075 44.7345 141.265 42.9248C139.455 41.115 136.306 34.876 135.786 33.1963C135.976 37.4556 135.846 38.6254 135.846 38.6254L135.856 38.6154Z" fill="#8B8CA1"/>
<g style="mix-blend-mode:multiply" opacity="0.5">
<path d="M138.645 40.5451C137.886 39.6253 136.936 38.4655 136.576 37.3056C136.366 36.6258 136.426 35.9359 136.386 35.226C136.376 35.006 136.356 34.796 136.336 34.5761C136.076 33.9962 135.886 33.5062 135.786 33.1963C135.976 37.4556 135.846 38.6254 135.846 38.6254C135.846 38.6254 137.396 41.0151 139.205 42.2449C141.015 43.4747 141.725 45.1544 142.045 46.3142C142.345 47.3941 142.975 45.0844 141.575 43.2947C140.485 42.5248 139.485 41.585 138.635 40.5551L138.645 40.5451Z" fill="#8B8CA1"/>
</g>
<path d="M141.285 43.9638C141.285 43.9638 137.106 47.9232 140.855 50.6427C141.885 51.2426 142.055 51.9425 142.055 51.9425C142.055 51.9425 142.215 50.9127 141.835 50.1528C143.035 51.3526 143.625 52.6024 143.305 53.8522C144.335 53.4723 144.495 51.0827 144.495 51.0827C144.495 51.0827 145.185 51.6526 145.525 50.5428C146.124 48.5831 144.385 43.3139 141.285 43.9738V43.9638Z" fill="#585865"/>
<g style="mix-blend-mode:multiply" opacity="0.5">
<path d="M144.855 50.4028C144.305 50.4528 143.925 49.9929 143.615 49.503C143.795 50.3428 143.935 51.1827 143.565 52.0226C143.565 52.0426 143.405 52.2925 143.365 52.1826C143.135 51.4927 142.995 50.7428 142.635 50.1129C142.275 49.503 141.855 48.9331 141.555 48.2932C141.335 48.6531 141.125 49.0431 141.455 49.503C141.525 49.593 141.325 49.9129 141.245 49.8029C140.345 48.6031 139.476 47.0134 140.195 45.5036C140.335 45.2037 140.505 44.8937 140.715 44.5938C139.716 45.8236 138.016 48.5931 140.855 50.6428C141.885 51.2427 142.055 51.9426 142.055 51.9426C142.055 51.9426 142.215 50.9128 141.835 50.1529C143.035 51.3527 143.625 52.6025 143.305 53.8523C144.335 53.4724 144.495 51.0827 144.495 51.0827C144.495 51.0827 145.185 51.6526 145.525 50.5428C145.595 50.3329 145.625 50.0729 145.635 49.7929C145.455 50.0929 145.215 50.3728 144.865 50.4028H144.855Z" fill="#8B8CA1"/>
</g>
<path d="M96.8525 86.7178C96.8525 86.7178 95.5227 84.7581 94.003 86.3978C92.4832 88.0476 91.9133 90.4572 93.943 90.7671C95.9727 91.0871 97.7424 88.8674 96.8525 86.7078V86.7178Z" fill="#EFF0F0"/>
<g style="mix-blend-mode:multiply">
<path d="M96.8521 86.7175C96.8521 86.7175 96.4522 86.1276 95.8323 85.8677C95.9523 86.0976 96.0323 86.3676 96.0623 86.6875C96.1323 87.5774 95.8623 88.4573 95.2324 89.0972C94.6625 89.6871 93.8826 90.137 93.0527 90.387C93.2627 90.5769 93.5527 90.7169 93.9426 90.7769C95.9723 91.0969 97.742 88.8772 96.8521 86.7175Z" fill="#E6E7E8"/>
</g>
<path d="M95.7522 70.0704C95.7522 70.0704 96.5821 72.87 98.0418 76.6894C99.5016 80.5088 99.1217 82.1586 97.5319 84.5782C95.9422 86.9978 95.6222 89.4074 100.521 89.9773C105.421 90.5472 114.959 91.6271 113.999 88.1976C113.049 84.7681 113.429 80.2489 114.129 75.9295C114.829 71.6102 114.769 61.7518 109.61 64.6713C104.461 67.6008 95.7422 70.0804 95.7422 70.0804L95.7522 70.0704Z" fill="#BCBBC9"/>
<g style="mix-blend-mode:multiply" opacity="0.5">
<path d="M95.7522 70.0704C95.7522 70.0704 96.5821 72.87 98.0418 76.6894C99.5016 80.5088 99.1217 82.1586 97.5319 84.5782C95.9422 86.9978 95.6222 89.4074 100.521 89.9773C105.421 90.5472 114.959 91.6271 113.999 88.1976C113.049 84.7681 113.429 80.2489 114.129 75.9295C114.829 71.6102 114.769 61.7518 109.61 64.6713C104.461 67.6008 95.7422 70.0804 95.7422 70.0804L95.7522 70.0704Z" fill="#9C9BB0"/>
</g>
<g style="mix-blend-mode:multiply" opacity="0.5">
<path d="M102.9 77.1692C102.161 77.8491 101.291 78.5989 100.251 78.059C99.551 77.6991 98.8311 76.7192 98.5212 76.0293C98.4712 75.9294 98.2912 76.1293 98.3212 76.2093C98.6612 77.1992 99.421 78.249 100.421 78.6389C101.381 79.0189 102.391 77.969 102.99 77.3691C103.13 77.2292 103.11 76.9692 102.9 77.1592V77.1692Z" fill="#9C9BB0"/>
</g>
<g style="mix-blend-mode:multiply" opacity="0.5">
<path d="M109.611 64.661C104.462 67.5906 95.7429 70.0702 95.7429 70.0702C95.7429 70.0702 95.9929 70.9201 96.4628 72.3098C98.3425 72.5198 101.962 72.5998 105.701 71.01C109.091 69.6503 108.411 74.8094 105.841 76.8491C103.262 78.8888 106.791 78.2089 107.061 84.038C107.331 89.8771 103.122 87.8374 100.952 85.7977C99.3324 84.278 97.7226 86.6076 97.0527 85.3578C95.9329 87.4875 96.1629 89.4571 100.512 89.9671C105.411 90.537 114.95 91.6168 113.99 88.1873C113.04 84.7579 113.42 80.2386 114.12 75.9193C114.82 71.5999 114.76 61.7415 109.601 64.661H109.611Z" fill="#BCBBC9"/>
</g>
<path d="M96.6626 89.7569C96.6626 89.7569 98.7523 86.9673 100.532 87.2873C102.302 87.6072 103.512 90.4568 101.232 91.9165C98.9522 93.3763 94.4529 92.7364 96.6726 89.7569H96.6626Z" fill="#EFF0F0"/>
<g style="mix-blend-mode:multiply">
<path d="M100.521 87.2878C100.521 87.2878 100.501 87.2878 100.491 87.2878C100.761 87.6178 100.961 88.0377 101.061 88.4377C101.301 89.3175 101.171 90.1874 100.501 90.8573C99.5013 91.8471 98.3614 92.337 97.1716 92.467C98.3015 92.847 100.051 92.657 101.221 91.9071C103.501 90.4473 102.301 87.5978 100.521 87.2778V87.2878Z" fill="#E6E7E8"/>
</g>
<path d="M105.151 89.0577C105.151 89.0577 103.062 91.6573 105.021 92.4772C106.981 93.2971 110.411 91.5873 108.761 89.6276C107.111 87.6679 105.781 87.9179 105.151 89.0577Z" fill="#EFF0F0"/>
<g style="mix-blend-mode:multiply">
<path d="M108.76 89.6267C108.15 88.9068 107.59 88.4868 107.09 88.2969C107.9 89.1767 108.37 90.3266 107.38 91.2764C106.66 91.9763 105.73 92.2962 104.76 92.3462C104.84 92.3962 104.92 92.4362 105.02 92.4762C106.98 93.2961 110.41 91.5864 108.76 89.6267Z" fill="#E6E7E8"/>
</g>
<path d="M48.9294 66.5604C48.9294 66.5604 47.2896 79.6384 43.8602 84.7876C40.3307 89.7468 42.4304 92.7063 49.4893 92.7063C56.5482 92.7063 60.7475 92.7963 60.3676 85.0775C59.9876 77.3488 60.8475 65.8106 60.8475 65.8106C60.8475 65.8106 53.5286 64.3608 48.9394 66.5604H48.9294Z" fill="#BCBBC9"/>
<g style="mix-blend-mode:multiply" opacity="0.5">
<path d="M48.9294 66.5604C48.9294 66.5604 47.2896 79.6384 43.8602 84.7876C40.3307 89.7468 42.4304 92.7063 49.4893 92.7063C56.5482 92.7063 60.7475 92.7963 60.3676 85.0775C59.9876 77.3488 60.8475 65.8106 60.8475 65.8106C60.8475 65.8106 53.5286 64.3608 48.9394 66.5604H48.9294Z" fill="#9C9BB0"/>
</g>
<g style="mix-blend-mode:multiply" opacity="0.5">
<path d="M60.838 65.7998C60.838 65.7998 53.5191 64.35 48.9299 66.5497C48.9299 66.5497 48.7999 67.5595 48.5499 69.1393C49.3498 68.3194 50.6296 67.4596 52.4493 67.5195C56.6487 67.6495 57.4085 72.6087 54.9889 74.3885C52.5693 76.1682 58.1684 81.3874 54.349 88.6362C51.8094 91.8157 50.1497 86.3466 46.9702 87.9963C44.7705 89.1362 43.0008 88.7662 42.5809 87.0365C41.1411 90.6259 43.5707 92.7056 49.4798 92.7056C56.5387 92.7056 60.738 92.7956 60.3581 85.0768C59.9781 77.348 60.838 65.8098 60.838 65.8098V65.7998Z" fill="#BCBBC9"/>
</g>
<g style="mix-blend-mode:multiply" opacity="0.5">
<path d="M52.0293 75.2099C51.3294 75.7499 50.5696 76.0098 49.7897 75.4699C49.2098 75.07 48.7598 74.2601 48.4399 73.6402C48.3899 73.5402 48.2099 73.7402 48.2399 73.8202C48.5499 74.55 49.0898 75.7898 49.8897 76.1198C50.7095 76.4597 51.4794 76.0498 52.0893 75.4999C52.2093 75.3899 52.2593 75.03 52.0293 75.2099Z" fill="#9C9BB0"/>
</g>
<path d="M38.1416 91.0372C38.1416 91.0372 39.0515 88.5075 41.1012 88.4576C43.1509 88.4076 45.2005 91.937 42.8209 92.8469C40.4413 93.7567 36.6719 93.8967 38.1516 91.0372H38.1416Z" fill="#EFF0F0"/>
<g style="mix-blend-mode:multiply">
<path d="M41.6512 88.5273C42.2411 89.3572 42.4611 90.407 41.9811 91.4569C41.5312 92.4567 40.6813 93.0766 39.6115 93.2866C39.4515 93.3166 39.2916 93.3366 39.1216 93.3666C40.1714 93.5466 41.6512 93.2866 42.811 92.8467C44.9807 92.0168 43.4809 89.0273 41.6412 88.5273H41.6512Z" fill="#E6E7E8"/>
</g>
<path d="M45.6308 92.036C45.6308 92.036 46.2508 89.1265 48.0605 89.1265C49.8702 89.1265 50.4001 90.7962 50.4501 92.276C50.5001 93.7557 49.5402 95.0855 47.9205 94.9456C46.3007 94.8056 45.5809 93.8457 45.6308 92.036Z" fill="#EFF0F0"/>
<g style="mix-blend-mode:multiply">
<path d="M48.5797 89.1875C49.2396 90.2173 49.1996 91.5971 48.4597 92.7969C47.9498 93.6368 47.2599 94.1867 46.51 94.4667C46.87 94.7366 47.3299 94.8966 47.9198 94.9566C49.5395 95.0966 50.4994 93.7668 50.4494 92.287C50.4094 90.9572 49.9795 89.4874 48.5797 89.1975V89.1875Z" fill="#E6E7E8"/>
</g>
<path d="M58.5175 91.0465C58.5175 91.0465 57.3777 89.0869 55.298 90.9166C53.2183 92.7463 50.8787 96.1557 54.6681 96.4157C58.4575 96.6657 59.4073 96.1058 58.5175 91.0465Z" fill="#EFF0F0"/>
<g style="mix-blend-mode:multiply">
<path d="M58.5182 91.0476C58.5182 91.0476 58.0283 90.1977 57.0884 90.1377C56.8685 90.6376 56.6985 91.1575 56.5985 91.6974C56.4685 92.4173 56.5085 93.1472 56.3486 93.8671C56.1786 94.607 55.5687 95.3069 54.8388 95.5269C54.1689 95.7268 53.499 95.7268 52.8291 95.6268C53.0891 96.0568 53.659 96.3467 54.6688 96.4167C58.4582 96.6667 59.4081 96.1068 58.5182 91.0476Z" fill="#E6E7E8"/>
</g>
<path d="M65.8363 66.5102C65.8363 66.5102 63.4467 78.3583 61.127 82.6877C58.2675 88.0268 55.018 96.0456 60.7471 96.8054C66.4662 97.5653 82.7837 100.335 81.7338 95.5656C80.684 90.7964 79.0642 84.3074 80.2041 78.3983C81.3439 72.4893 82.0138 68.6698 82.0138 68.6698C82.0138 68.6698 75.4048 63.9806 65.8263 66.5102H65.8363Z" fill="#BCBBC9"/>
<g style="mix-blend-mode:multiply" opacity="0.5">
<path d="M80.205 78.3988C81.3448 72.4897 82.0147 68.6703 82.0147 68.6703C82.0147 68.6703 75.4058 63.9811 65.8273 66.5107C65.8273 66.5107 65.5673 67.8205 65.1274 69.7202C66.9271 68.6503 69.7367 67.6605 73.0261 69.2402C78.5553 71.8898 71.8763 77.189 72.6862 79.3787C73.4961 81.5683 77.4054 88.7072 72.6862 91.9367C67.9669 95.1662 67.0371 87.0975 62.6678 89.977C59.3083 92.1867 58.1285 91.4768 58.4784 88.5872C57.0986 92.5866 56.9387 96.306 60.7481 96.8159C66.4672 97.5758 82.7846 100.345 81.7348 95.5761C80.6849 90.8069 79.0652 84.3179 80.205 78.4088V78.3988Z" fill="#BCBBC9"/>
</g>
<g style="mix-blend-mode:multiply" opacity="0.5">
<path d="M70.2663 79.2382C69.2065 79.6881 68.0567 80.0381 66.9969 79.4182C66.037 78.8582 65.3871 77.6084 64.9072 76.6486C64.8672 76.5786 64.7372 76.7286 64.7572 76.7886C65.1571 77.8684 65.797 79.4981 66.9469 79.9981C68.0467 80.488 69.1665 80.0881 70.1863 79.5881C70.3063 79.5281 70.5063 79.1282 70.2563 79.2282L70.2663 79.2382Z" fill="#9C9BB0"/>
</g>
<path d="M61.108 92.6862C61.108 92.6862 58.3884 96.0357 59.2183 97.7354C60.0382 99.4451 69.3867 98.8752 68.2469 95.7157C67.1071 92.5562 64.5175 89.2167 61.108 92.6862Z" fill="#EFF0F0"/>
<g style="mix-blend-mode:multiply">
<path d="M68.2364 95.7164C67.5366 93.7767 66.2868 91.7671 64.647 91.3071C65.8968 93.0669 66.4467 95.9964 64.487 97.1562C62.8973 98.0961 60.8076 97.5961 59.0779 97.2362C59.0979 97.4062 59.1379 97.5761 59.2079 97.7361C60.0277 99.4459 69.3763 98.8759 68.2364 95.7164Z" fill="#E6E7E8"/>
</g>
<path d="M72.9155 93.8166C72.9155 93.8166 68.3062 97.226 71.2057 99.1157C74.1153 101.005 79.8544 101.455 78.1546 97.0961C76.4449 92.7367 74.9951 92.1668 72.9155 93.8166Z" fill="#EFF0F0"/>
<g style="mix-blend-mode:multiply">
<path d="M78.1554 97.1057C77.0656 94.3161 76.0758 93.0863 74.9659 92.9863C75.7558 93.7662 76.4057 94.6761 76.4857 95.8559C76.5557 96.9057 76.2957 98.0355 75.3359 98.6254C73.6261 99.6653 71.8464 99.1354 70.3267 98.0455C70.4466 98.4355 70.7166 98.8054 71.2165 99.1354C74.1261 101.025 79.8652 101.475 78.1654 97.1157L78.1554 97.1057Z" fill="#E6E7E8"/>
</g>
<path d="M47.9894 59.0216C47.9894 59.0216 46.0897 63.4209 47.1595 66.2304C48.2194 69.04 49.9691 66.0005 52.9286 66.3804C55.8882 66.7604 61.2773 68.0502 61.9572 65.3206C56.4881 60.3114 49.0492 56.142 47.9894 59.0216Z" fill="#9C9BB0"/>
<g style="mix-blend-mode:multiply" opacity="0.5">
<path d="M47.9899 59.0216C47.9899 59.0216 47.38 60.4313 47.05 62.1611C48.0699 61.3212 49.3397 60.8413 50.5995 61.4812C51.7893 62.0911 52.3792 63.2709 53.449 64.0008C54.2989 64.5807 55.3687 64.8407 56.0886 65.6005C56.1486 65.6605 56.0386 65.8305 55.9986 65.8705C55.2788 66.5904 54.3089 66.1704 53.499 65.8105C53.0291 65.6005 52.3692 65.1706 51.8293 65.2006C50.9394 65.2406 50.3895 65.7005 49.6196 66.0805C48.8798 66.4504 48.1399 66.6504 47.39 66.7304C48.4698 68.6201 50.1696 66.0205 52.9291 66.3804C55.8887 66.7604 61.2778 68.0502 61.9577 65.3206C56.4886 60.3114 49.0497 56.142 47.9899 59.0216Z" fill="#8B8CA1"/>
</g>
<path d="M131.046 73.8197C126.087 65.0411 128.567 62.3715 133.716 50.7333C138.105 39.0951 136.645 24.2775 126.087 14.359C115.529 4.44058 105.86 4.57056 93.6522 6.73022C81.4441 8.88988 80.4043 8.96987 68.1462 10.0697C64.7067 6.63024 62.5671 7.73006 59.5475 9.82974C56.358 12.0594 52.2587 13.0592 45.9397 13.6191C39.6307 14.1791 37.311 17.4085 37.311 17.4085C37.311 17.4085 45.9497 52.773 50.149 58.5521C54.3484 64.3412 58.1578 66.3109 64.2068 65.8609C63.257 67.3907 64.2068 67.9606 65.6066 67.7407C67.7563 67.3907 70.4158 66.2809 75.625 67.9106C80.8342 69.5304 83.8537 71.3401 85.2535 68.7905C102.931 75.1495 110.15 66.1809 110.15 66.1809C110.15 66.1809 116.349 84.778 116.259 89.3573C116.159 93.9365 125.567 93.6166 132.756 92.2968C139.945 90.977 136.006 82.5883 131.036 73.8097L131.046 73.8197Z" fill="#9C9BB0"/>
<g style="mix-blend-mode:multiply" opacity="0.5">
<path d="M131.046 73.8204C126.087 65.0418 128.567 62.3722 133.716 50.7341C137.155 41.6055 136.995 30.5272 131.676 21.3787C136.375 30.8672 134.936 39.5458 133.156 46.9047C130.826 56.5232 124.947 67.7114 115.599 65.9917C106.25 64.2719 116.358 39.2859 113.499 43.2952C110.639 47.3046 108.73 49.5942 109.11 45.7748C109.49 41.9554 111.779 37.3762 109.11 40.6256C103.39 47.6845 90.2226 45.5849 90.0326 39.0959C89.8426 32.6069 88.5028 28.4176 82.0238 20.5888C75.5349 12.77 77.8245 10.4804 84.1235 10.4804C90.4225 10.4804 93.2821 8.76065 99.7711 6.28104C100.381 6.05107 101.011 5.8411 101.661 5.66113C99.1012 5.8511 96.4516 6.23104 93.672 6.72097C81.4639 8.88063 80.4241 8.96062 68.166 10.0604C67.7161 9.61051 67.2961 9.24057 66.8862 8.94062C68.036 11.3502 70.6156 13.8099 73.8351 17.1493C78.7943 22.2985 81.4639 27.2577 82.2338 36.4163C82.9937 45.5749 67.7361 47.1046 66.9762 38.8959C66.2163 30.6972 63.3868 28.5076 56.4978 22.2485C49.6089 15.9995 55.218 13.8299 58.9275 12.0401C60.8972 11.0903 62.007 9.55052 62.6269 8.10075C61.667 8.4307 60.6872 9.0606 59.5974 9.82048C56.4079 12.0501 52.3085 13.05 45.9895 13.6099C39.6805 14.1698 37.3608 17.3993 37.3608 17.3993C37.3608 17.3993 45.9995 52.7637 50.1988 58.5428C54.3982 64.3319 58.2076 66.3016 64.2566 65.8517C63.8667 66.4816 63.7967 66.9515 63.9467 67.2615C64.2466 66.5016 64.6166 65.6517 65.0465 64.8019C66.3163 62.2623 66.5763 60.3526 66.5763 57.0431C66.5763 53.7336 67.976 50.6841 73.1952 49.7942C78.4144 48.9044 81.8739 54.3435 80.3541 59.4927C79.5942 61.5924 76.9246 61.0224 74.445 61.7823C71.9654 62.5422 79.5942 61.7823 80.1641 65.0218C80.734 68.2713 77.8745 67.3115 73.8651 66.3616C71.5255 65.8017 69.3858 66.3616 67.7561 67.3115C69.6058 66.9615 72.0154 66.7516 75.6748 67.8914C80.884 69.5111 83.9035 71.3208 85.3033 68.7712C102.981 75.1302 110.199 66.1616 110.199 66.1616C110.199 66.1616 111.439 69.8911 112.809 74.4203C112.789 74.0504 112.769 73.6805 112.769 73.3205C112.719 71.0709 113.889 68.9512 116.048 68.0613C118.448 67.0815 121.448 67.6614 123.337 69.4311C125.407 71.3708 125.577 74.0604 124.447 76.54C128.337 78.8597 131.166 84.7887 127.147 88.3682C125.327 89.9879 122.737 88.8381 120.598 88.6281C119.158 88.4881 117.718 88.4582 116.278 88.4681C116.308 88.7981 116.328 89.098 116.318 89.348C116.218 93.9273 125.627 93.6073 132.816 92.2876C140.005 90.9678 136.065 82.5791 131.096 73.8005L131.046 73.8204Z" fill="#9C9BB0"/>
</g>
<g style="mix-blend-mode:multiply" opacity="0.5">
<g style="mix-blend-mode:multiply" opacity="0.5">
<path d="M66.4663 54.0138C64.7965 56.3235 65.3064 60.3129 64.7965 59.413C63.7367 57.5533 64.4066 52.3341 63.1268 53.244C61.837 54.1438 61.0671 57.6133 62.6069 61.4827C64.1466 65.3421 59.3874 65.592 56.4378 62.1226C53.4783 58.6531 55.6679 58.1332 59.0074 54.4038C62.3569 50.6744 62.2269 45.1452 61.1971 47.5848C60.1672 50.0245 58.6275 52.0841 59.1374 48.6147C59.5273 43.7254 59.5273 42.0557 57.5976 37.4264C55.6679 32.7972 54.6381 26.8781 57.0877 30.2276C59.5273 33.577 61.467 39.6161 61.467 36.5266C60.6972 27.778 53.2283 24.4385 50.1488 22.1188C47.0593 19.7992 50.5388 18.2594 51.5686 15.0399C51.8685 14.1001 52.3985 13.2802 52.9984 12.5903C50.9987 13.0603 48.689 13.3802 45.9695 13.6302C39.6605 14.1901 37.3408 17.4196 37.3408 17.4196C37.3408 17.4196 45.9795 52.784 50.1788 58.5631C54.3782 64.3522 58.1876 66.3219 64.2366 65.872C63.8467 66.5019 63.7767 66.9718 63.9267 67.2818C64.0666 66.9318 64.2266 66.5619 64.3866 66.1819C64.6665 65.472 64.9465 64.7722 65.1965 64.1622C66.2263 61.7026 66.3563 58.7731 66.4862 54.0138H66.4663Z" fill="#8B8CA1"/>
</g>
</g>
<path d="M16.1951 36.5957C16.1951 36.5957 15.3153 34.0361 18.1948 34.316C19.5946 30.5966 20.1345 29.0468 21.2143 24.7175C22.2942 20.3982 26.1136 15.499 34.2523 15.7489C42.391 15.9989 53.5793 20.9681 55.6189 38.1354C55.6189 40.4251 57.5486 42.4147 57.6786 47.374C57.8086 52.3332 54.989 62.1716 39.2215 60.7719C39.2215 60.7719 31.0828 65.1712 20.6344 58.9722C19.3946 58.4022 17.245 58.9722 14.5254 59.682C11.8058 60.3919 9.70614 59.872 8.27637 57.3424C6.84659 54.8128 8.22637 52.1932 10.566 52.5732C7.79644 51.1434 8.37635 47.7839 10.726 45.8842C13.0756 43.9745 16.1951 36.5857 16.1951 36.5857V36.5957Z" fill="#BCBBC9"/>
<g style="mix-blend-mode:multiply" opacity="0.5">
<path d="M17.0142 46.8537C17.0142 46.8537 21.2136 46.3538 17.7241 49.6133C22.7233 46.7537 25.073 42.8743 23.5432 39.9148C22.0134 36.9553 18.334 35.6255 16.9042 37.1552C15.4745 38.685 17.0042 46.8537 17.0042 46.8537H17.0142Z" fill="#BCBBC9"/>
</g>
<g style="mix-blend-mode:multiply" opacity="0.5">
<path d="M57.6787 47.3833C57.5487 42.424 55.619 40.4344 55.619 38.1447C53.5793 20.9774 42.3911 16.0182 34.2524 15.7582C26.1136 15.5083 22.2942 20.3975 21.2144 24.7268C21.1644 24.9268 21.1144 25.1168 21.0644 25.2967C21.0844 25.2567 21.0944 25.2167 21.1144 25.1667C23.884 17.7779 28.9932 16.7381 34.0024 17.128C47.2003 17.9179 54.0892 36.515 45.9405 44.3737C39.0116 51.0627 32.8626 45.7535 32.8626 45.7535C32.8626 45.7535 32.7326 47.9932 34.5823 49.4529C31.1928 55.692 24.6039 57.6117 20.5145 57.0917C16.4252 56.5618 16.7651 56.7118 12.9357 58.6915C11.176 59.5414 9.66621 58.8315 8.54639 57.8116C9.96616 59.9513 11.9659 60.3712 14.5155 59.7013C17.235 58.9915 19.3847 58.4115 20.6245 58.9915C31.0729 65.1905 39.2116 60.7912 39.2116 60.7912C54.9791 62.191 57.7987 52.3525 57.6687 47.3933L57.6787 47.3833Z" fill="#BCBBC9"/>
</g>
<g style="mix-blend-mode:multiply" opacity="0.5">
<path d="M30.7223 42.9441C30.7223 42.9441 33.8418 36.5651 40.6608 36.6351C38.991 35.4053 37.5413 35.6953 37.5413 35.6953C37.5413 35.6953 35.8215 25.3269 28.9526 27.7165C22.7136 29.8962 26.223 39.0347 31.0123 40.5545C30.3624 41.7843 30.7223 42.9441 30.7223 42.9441Z" fill="#BCBBC9"/>
</g>
<path d="M25.5837 58.4217C25.5837 58.4217 33.5025 55.6522 36.0621 48.8232C39.1216 56.1021 34.9523 60.8314 25.5837 58.4217Z" fill="#88889A"/>
<path d="M31.8829 40.2145C31.8829 40.2145 27.6336 39.0347 26.7837 33.3956C25.9339 27.7565 31.603 27.1266 34.1926 30.1861C37.2821 33.8355 36.9421 36.4851 36.9421 36.4851C36.9421 36.4851 34.2226 36.995 31.8729 40.2145H31.8829Z" fill="#ADB1B1"/>
<path d="M31.9518 40.2955C31.9518 40.2955 27.8324 39.1557 27.0125 33.6866C26.1827 28.2174 31.6918 27.6075 34.2014 30.5671C37.2009 34.1065 36.871 36.6661 36.871 36.6661C36.871 36.6661 34.2314 37.166 31.9618 40.2855L31.9518 40.2955Z" fill="#FAFAFA"/>
<mask id="mask0_92_24618" style="mask-type:luminance" maskUnits="userSpaceOnUse" x="26" y="28" width="11" height="13">
<path d="M31.9505 40.2965C31.9505 40.2965 27.8312 39.1567 27.0113 33.6875C26.1814 28.2184 31.6906 27.6085 34.2002 30.568C37.1997 34.1075 36.8698 36.6671 36.8698 36.6671C36.8698 36.6671 34.2302 37.167 31.9605 40.2865L31.9505 40.2965Z" fill="white"/>
</mask>
<g mask="url(#mask0_92_24618)">
<path d="M35.9722 34.6954C36.7221 36.935 36.1522 39.1347 34.7024 39.6246C33.2526 40.1045 31.4729 38.6848 30.723 36.4551C29.9731 34.2155 30.543 32.0158 31.9928 31.5259C33.4426 31.046 35.2223 32.4657 35.9722 34.6954Z" fill="#460D00"/>
<path d="M35.0826 33.7461C35.5525 35.1458 35.0026 36.5756 33.8628 36.9555C32.723 37.3355 31.4232 36.5156 30.9532 35.1258C30.4833 33.7261 31.0332 32.2863 32.173 31.9063C33.3129 31.5264 34.6127 32.3463 35.0826 33.7461Z" fill="#662D26"/>
<path d="M32.8123 34.1451C33.0223 34.785 32.8623 35.4149 32.4524 35.5448C32.0424 35.6848 31.5325 35.2749 31.3226 34.645C31.1126 34.0151 31.2726 33.3852 31.6825 33.2452C32.0924 33.1052 32.6024 33.5052 32.8123 34.1451Z" fill="white"/>
</g>
<path d="M26.8831 26.9366C26.8831 26.9366 28.2229 25.3669 30.4626 26.2167C31.1725 26.4567 30.4126 24.0271 28.3129 24.357C26.2132 24.687 26.2132 27.5965 26.8831 26.9366Z" fill="#401209"/>
<path d="M10.4352 48.514C10.4352 48.514 13.9247 50.7137 17.7841 46.9742C21.6435 43.2448 22.0634 38.5556 16.6742 36.066C11.2851 33.5763 2.57645 25.9075 1.14667 26.5674C-0.67304 27.4073 -0.0131435 41.2451 10.4352 48.514Z" fill="#F3F3F4"/>
<g style="mix-blend-mode:multiply">
<path d="M16.6748 36.0757C11.2856 33.5861 2.57696 25.9173 1.14719 26.5772C1.0572 26.6172 0.977216 26.6972 0.907227 26.7872C1.82708 27.0071 2.9869 27.5671 4.44667 28.7369C10.1158 33.2762 13.3553 36.9056 16.6948 39.5252C19.6843 41.8648 18.9944 47.7139 13.6952 49.1237C14.885 48.9737 16.3148 48.4138 17.7846 46.984C21.644 43.2546 22.0639 38.5653 16.6748 36.0757Z" fill="#EAEBEC"/>
</g>
<path d="M1.28735 29.3472C1.28735 29.3472 3.84695 41.3453 13.6554 47.1644C10.6459 48.0542 7.45639 45.7446 4.61683 41.2553C1.77728 36.766 1.28735 29.3472 1.28735 29.3472Z" fill="white"/>
<path d="M20.8348 53.8522C20.8348 53.8522 22.0546 52.3225 23.5344 52.5224C25.0141 52.7224 23.3844 54.922 21.4447 55.272C19.505 55.6319 20.3249 54.2521 20.8348 53.8422V53.8522Z" fill="#9C9BB0"/>
<g style="mix-blend-mode:multiply">
<path d="M23.3038 52.5124C21.934 52.4924 20.8342 53.8522 20.8342 53.8522C20.6742 53.9822 20.4842 54.2022 20.3643 54.4321C21.694 54.7921 22.8939 53.7622 23.3038 52.5124Z" fill="#9C9BB0"/>
</g>
<path d="M9.92627 54.4521C9.92627 54.4521 12.0859 54.8621 12.4459 56.4918C12.6158 57.7116 10.9861 57.7416 10.8361 56.5618C10.6961 55.382 10.7361 54.8121 9.92627 54.4521Z" fill="#9C9BB0"/>
<g style="mix-blend-mode:multiply">
<path d="M11.5456 55.582C11.5456 56.0919 11.5956 56.9818 12.3554 56.7818C12.3854 56.7818 12.4154 56.7618 12.4454 56.7518C12.4454 56.6718 12.4454 56.5818 12.4454 56.4919C12.3055 55.872 11.9155 55.432 11.4756 55.1221C11.5156 55.272 11.5456 55.432 11.5456 55.582Z" fill="#9C9BB0"/>
</g>
<path d="M26.2835 17.7075C26.2835 17.7075 26.0435 8.78887 20.2944 6.0493C18.2148 4.86948 17.6049 5.80933 17.1849 8.40893C16.765 11.0085 16.3351 17.9374 20.8644 18.4574C23.464 18.6973 24.3538 19.3072 24.3538 19.3072C24.3538 19.3072 25.0137 18.5573 26.2935 17.7075H26.2835Z" fill="#BCBBC9"/>
<g style="mix-blend-mode:multiply" opacity="0.5">
<g style="mix-blend-mode:multiply" opacity="0.5">
<path d="M20.2932 6.05032C19.4733 5.5804 18.8734 5.45042 18.4335 5.63039C24.2026 7.32013 25.5623 15.6488 23.1827 12.1894C20.6831 8.54993 18.3135 8.54993 18.3135 8.54993C18.3135 8.54993 19.0834 9.77974 18.9934 10.5496C17.9935 14.9189 22.2229 17.6485 19.8132 16.9186C18.2635 16.4387 17.4436 14.9589 17.0237 13.3092C17.3036 15.7788 18.2735 18.1684 20.8531 18.4584C23.4527 18.6983 24.3425 19.3082 24.3425 19.3082C24.3425 19.3082 25.0024 18.5584 26.2822 17.7085C26.2822 17.7085 26.0423 8.78989 20.2932 6.05032Z" fill="#BCBBC9"/>
</g>
</g>
<g style="mix-blend-mode:multiply" opacity="0.5">
<path d="M122.227 75.3194C121.098 76.2492 119.978 77.0291 118.458 76.9791C117.098 76.9291 116.008 75.6693 115.388 74.5995C115.328 74.4895 115.119 74.7195 115.169 74.8095C115.918 76.2492 116.998 77.2991 118.678 77.3791C120.068 77.439 121.378 76.4192 122.307 75.4893C122.417 75.3794 122.407 75.1794 122.237 75.3194H122.227Z" fill="#9C9BB0"/>
</g>
<g style="mix-blend-mode:multiply" opacity="0.5">
<path d="M30.9033 42.2557C30.9033 42.2557 33.003 37.0765 39.502 36.4566C35.0927 35.4068 31.1833 39.956 30.9033 42.2557Z" fill="#88889A"/>
<path d="M22.174 37.9372C22.174 37.9372 22.0441 38.0572 22.0841 38.0872C22.9139 38.8971 23.4139 39.807 23.6838 40.9368C24.0637 42.5165 23.3239 43.8763 22.414 45.0961C22.294 45.2561 22.304 45.676 22.564 45.4261C24.7236 43.2864 24.7036 39.747 22.174 37.9272V37.9372Z" fill="#88889A"/>
<path d="M25.604 48.8153C23.0944 49.0252 21.0947 50.505 19.605 52.4547C19.575 52.4947 19.605 52.5247 19.645 52.4847C20.9547 50.9449 22.5745 49.7651 24.6042 49.4352C25.554 49.2852 26.5839 49.4252 27.1038 50.335C27.5237 51.0649 26.9838 52.2347 26.8138 52.9846C26.7338 53.3546 27.2238 52.9946 27.2838 52.8347C27.9137 51.1849 28.2236 48.6053 25.614 48.8153H25.604Z" fill="#88889A"/>
<path d="M42.7117 56.1528C42.4118 58.1325 40.932 59.8922 39.0723 60.5721C38.9723 60.6121 38.7323 60.9821 38.9523 60.9521C39.9022 60.8121 40.792 60.0422 41.3819 59.3223C42.1318 58.4025 42.6217 57.3326 42.7317 56.1428C42.7317 56.1228 42.7117 56.1428 42.7017 56.1528H42.7117Z" fill="#88889A"/>
<path d="M39.5816 48.6845C38.4718 49.0644 37.5619 49.1344 36.3921 48.9244C35.0923 48.6845 34.3624 48.0346 33.5626 47.0647C33.5426 47.0347 33.4726 47.1147 33.4926 47.1447C34.1625 48.3445 34.7724 49.0044 36.1422 49.3544C37.342 49.6543 38.4218 49.5643 39.5116 49.0144C39.6216 48.9644 39.8116 48.6145 39.5816 48.6945V48.6845Z" fill="#88889A"/>
<path d="M27.4537 57.6035C24.9541 58.1634 22.3545 58.7233 19.7749 58.6334C19.725 58.6334 19.635 58.7633 19.695 58.7733C22.2346 59.0933 24.8941 58.6134 27.3238 57.9235C27.4337 57.8935 27.6237 57.5735 27.4537 57.6135V57.6035Z" fill="#88889A"/>
<path d="M59.6802 33.7274C58.1504 29.588 54.441 25.2587 50.3516 23.559C50.2917 23.539 50.1817 23.6889 50.2317 23.7289C54.201 26.0786 57.3106 29.898 59.5102 33.8873C59.5602 33.9673 59.7002 33.7973 59.6802 33.7374V33.7274Z" fill="#88889A"/>
<path d="M59.4504 50.984C57.4907 55.6032 52.8914 58.5628 48.2921 60.0725C48.1522 60.1125 47.9022 60.5925 48.1522 60.5325C52.9614 59.4626 57.8606 55.6332 59.6104 50.954C59.6704 50.804 59.4904 50.904 59.4504 50.984Z" fill="#88889A"/>
<path d="M66.4488 54.8935C66.0989 56.4833 65.8289 58.063 65.7089 59.6928C65.6389 60.6426 65.6089 61.5925 65.5789 62.5523C65.5689 62.9722 65.469 63.3622 65.339 63.7421C63.8092 61.2125 62.6694 58.433 62.8094 55.4334C62.8094 55.3334 62.6494 55.4634 62.6394 55.5334C62.3495 58.5429 63.3493 61.7524 65.179 64.1721C64.8791 64.8819 64.4691 65.5518 64.2092 66.2717C64.0992 66.5917 64.4491 66.4317 64.5491 66.2717C65.269 64.9819 65.9189 63.7421 66.0289 62.2624C66.2088 59.7727 66.2588 57.3131 66.6288 54.8335C66.6488 54.6935 66.4688 54.8335 66.4488 54.9135V54.8935Z" fill="#88889A"/>
<path d="M80.4068 24.6983C78.5871 21.9288 76.5475 19.4091 74.4778 16.8296C73.318 15.3998 72.1381 14.02 70.7984 12.7602C69.7685 11.8003 68.7787 10.3606 67.5789 9.64068C67.5189 9.61069 67.4189 9.74067 67.4689 9.78066C68.3887 10.4805 69.1886 11.7703 69.9985 12.6302C71.1183 13.81 72.2381 14.9498 73.258 16.2296C75.4476 18.9792 77.6773 21.6588 79.597 24.6183C81.3867 27.3979 82.6865 30.2974 83.3064 33.5669C83.8963 36.6664 83.4764 39.9859 83.3464 43.1154C83.3264 43.4654 83.9063 42.9954 83.9263 42.7855C84.5962 36.2865 84.0663 30.2774 80.4068 24.6983Z" fill="#88889A"/>
<path d="M91.9545 54.264C91.9345 54.124 91.7346 54.334 91.7346 54.414C91.7645 56.3237 90.4148 58.1834 89.065 59.5932C89.065 59.5532 89.085 59.5232 89.095 59.4832C89.7349 56.9936 88.595 53.2842 87.2952 51.1945C87.2553 51.1245 87.1153 51.2745 87.1453 51.3345C88.2651 53.5641 88.965 56.6836 88.645 59.1832C88.605 59.5132 88.5351 59.8531 88.4551 60.1831C88.4251 60.2131 88.3851 60.2531 88.3551 60.2831C88.2151 60.413 88.1251 60.763 88.3051 60.753C87.6952 62.7527 86.4954 64.7824 85.4755 66.4821C85.2356 65.7322 84.7956 65.0423 84.2757 64.5424C84.2257 64.4924 84.1057 64.6424 84.1557 64.6924C85.1056 65.7822 85.3556 67.092 85.2056 68.5118C85.1756 68.7917 85.5055 68.4818 85.5455 68.3618C85.6855 67.8819 85.6855 67.382 85.5855 66.882C85.5855 66.882 85.6055 66.872 85.6055 66.862C87.0353 65.0223 88.1451 62.6827 88.835 60.4031C89.6649 59.7132 90.3548 58.7433 90.8647 57.8435C91.4846 56.7536 92.1145 55.5538 91.9545 54.264Z" fill="#88889A"/>
<path d="M110.692 50.1145C109.552 52.5342 108.942 55.3437 108.852 58.1533C107.712 54.4039 107.082 50.7045 107.552 46.6951C107.572 46.5451 107.372 46.6951 107.362 46.7851C106.652 51.0844 106.832 56.1836 108.882 60.123C108.982 61.9227 109.302 63.6924 109.842 65.3222C109.892 65.4821 110.202 65.1622 110.162 65.0222C108.922 60.083 108.972 54.8838 110.832 50.0945C110.882 49.9746 110.732 50.0546 110.702 50.1145H110.692Z" fill="#88889A"/>
</g>
<path d="M26.5735 58.0923C26.5735 58.0923 33.7324 55.3627 36.022 49.2437C38.7516 55.7526 33.7824 59.882 26.5735 58.0923Z" fill="#FAFAFA"/>
<g style="mix-blend-mode:multiply">
<path d="M36.0112 49.2441C34.5614 53.1235 31.1519 55.6431 28.8523 56.9629C30.2421 56.463 32.0518 55.5631 33.6715 53.9134C35.9012 51.4538 38.0509 53.5835 34.6014 57.1229C36.7311 55.5531 37.4909 52.7436 36.0212 49.2441H36.0112Z" fill="#D2D4D5"/>
</g>
<path d="M117.389 91.0168C117.389 91.0168 113.919 94.9462 117.839 95.4761C121.768 96.016 124.118 93.7463 123.008 91.8466C121.888 89.9469 119.168 88.6671 117.389 91.0168Z" fill="#EFF0F0"/>
<g style="mix-blend-mode:multiply">
<path d="M123.007 91.8466C122.458 90.9068 121.518 90.1269 120.498 89.8569C121.588 90.9968 122.098 92.6865 120.628 93.7863C119.508 94.6262 118.088 94.9461 116.668 95.1261C116.948 95.2961 117.338 95.4161 117.848 95.486C121.778 96.026 124.127 93.7563 123.017 91.8566L123.007 91.8466Z" fill="#E6E7E8"/>
</g>
<path d="M127.418 90.0967C127.418 90.0967 125.188 94.3561 128.367 94.806C131.547 95.2559 133.457 93.6662 132.377 91.3765C131.297 89.0869 128.947 87.8171 127.418 90.1067V90.0967Z" fill="#EFF0F0"/>
<g style="mix-blend-mode:multiply">
<path d="M132.377 91.3669C131.767 90.0771 130.757 89.1172 129.717 88.9272C130.937 90.0771 131.217 92.3667 129.867 93.6465C129.297 94.1864 128.598 94.5064 127.848 94.6863C127.998 94.7363 128.178 94.7763 128.368 94.8063C131.547 95.2563 133.457 93.6665 132.377 91.3769V91.3669Z" fill="#E6E7E8"/>
</g>
<path d="M25.1434 17.9682C25.1434 17.9682 24.2735 13.0089 19.5843 10.1294C19.0943 13.9388 20.3441 16.5084 25.1434 17.9682Z" fill="#E397B9"/>
<g style="mix-blend-mode:multiply" opacity="0.5">
<path d="M24.7938 16.7288C24.2439 15.1291 22.8941 12.3195 19.9146 10.3398C20.7444 13.0694 22.4042 15.649 24.7938 16.7288Z" fill="#E195B7"/>
</g>
<path d="M11.6858 51.7325C11.6858 51.7325 13.8055 51.8924 16.655 50.2627C15.6752 51.8125 12.4157 52.4624 11.6858 51.7325Z" fill="#88889A"/>
<g style="mix-blend-mode:screen">
<path d="M30.5634 18.1382C30.5634 18.1382 23.5145 17.9683 19.9451 32.496C20.525 27.0168 23.0146 18.0582 30.5634 18.1382Z" fill="#BCBBC9"/>
</g>
<g style="mix-blend-mode:screen">
<path d="M10.1955 58.0213C8.85576 56.8515 7.42598 54.1419 9.59564 53.0321C9.66563 53.0021 9.78561 52.7621 9.63563 52.8221C7.23601 53.7319 7.79592 57.3814 9.80561 58.5012C9.99558 58.6112 10.3655 58.1712 10.1955 58.0213Z" fill="#B698C8"/>
</g>
<g style="mix-blend-mode:multiply" opacity="0.5">
<path d="M23.1935 13.2588C22.2236 11.739 20.8039 10.8592 19.3841 9.81934C19.3141 9.76935 19.1541 9.95932 19.2241 10.0093C20.5739 11.1291 21.8937 12.049 22.8735 13.5588C23.7034 14.8486 24.3633 16.2083 24.9532 17.6181C25.0032 17.7381 25.1932 17.5081 25.1832 17.4281C25.0232 15.9584 23.9734 14.4786 23.1935 13.2488V13.2588Z" fill="#88889A"/>
<path d="M25.4422 17.8781C22.9226 17.1882 19.6131 15.3085 19.4431 12.299C19.4431 12.239 19.3532 12.329 19.3532 12.359C19.2132 15.2385 22.5327 18.0881 25.2522 18.1981C25.3622 18.1981 25.6022 17.9181 25.4422 17.8781Z" fill="#88889A"/>
</g>
<path d="M49.3391 2.58065C48.2792 -0.438878 46.2396 -0.10893 43.9599 3.23055C41.6803 6.57002 40.2905 9.99948 40.7804 14.0688C41.0204 16.0885 40.7804 17.7883 40.4805 18.9881C41.5303 19.728 42.5501 20.4978 43.44 21.3977C44.1199 20.8678 45.0498 20.2579 46.2396 19.698C53.4084 15.2987 50.3989 5.60017 49.3391 2.58065Z" fill="#BCBBC9"/>
<g style="mix-blend-mode:multiply" opacity="0.5">
<path d="M49.6793 3.61153C49.9192 4.80135 50.1692 6.14114 50.4091 7.6209C51.549 14.6198 46.0498 17.8293 47.6796 14.9698C49.2993 12.1102 48.2495 8.20081 47.6796 6.00116C47.1097 3.8115 47.1996 1.42188 47.1996 1.42188C47.1996 1.42188 46.6297 3.04162 45.8599 4.09146C39.8508 9.62059 43.0003 16.7795 42.0405 15.2497C40.9206 13.09 40.9606 10.5005 41.3806 8.21081C40.7707 10.0505 40.5207 11.9702 40.7707 14.0799C41.0106 16.0996 40.7707 17.7993 40.4707 18.9991C41.5205 19.739 42.5404 20.5089 43.4302 21.4087C44.1101 20.8788 45.04 20.2689 46.2298 19.709C52.7188 15.7196 50.8691 7.40094 49.6693 3.62153L49.6793 3.61153Z" fill="#BCBBC9"/>
</g>
<path d="M44.4399 17.5186C44.4399 17.5186 48.4093 13.8892 47.6294 10.3597C46.8596 6.83029 46.8596 4.2207 46.8596 4.2207C46.8596 4.2207 40.7005 10.3797 44.4399 17.5186Z" fill="#E397B9"/>
<g style="mix-blend-mode:multiply" opacity="0.5">
<path d="M45.5803 13.8283C46.0702 11.3287 45.2903 8.72914 45.9102 6.20954C46.0302 5.70962 46.1902 5.22969 46.3801 4.75977C45.0704 6.32952 41.7109 11.1388 44.0505 16.6779C44.8004 15.868 45.3603 14.9282 45.5703 13.8283H45.5803Z" fill="#E195B7"/>
</g>
<path d="M47.5601 8.81925C47.1502 6.94954 46.9402 5.2498 46.9102 3.3401C46.9102 3.28011 46.8202 3.3601 46.8202 3.3901C46.5703 5.8897 47.0002 7.90939 47.3702 10.369C47.8101 13.3185 46.3403 15.2782 44.5706 17.1379C44.1607 16.0081 43.6407 15.1183 43.4608 13.8485C43.3608 13.1686 43.3408 12.4787 43.3508 11.7888C43.3508 11.2289 43.7207 10.589 43.6107 10.0291C43.6107 9.97906 43.5408 10.0491 43.5408 10.069C43.4408 10.7089 43.1708 11.2789 43.0908 11.9288C43.0008 12.6286 43.0608 13.3785 43.1208 14.0784C43.2108 15.1982 43.4508 16.628 44.2306 17.4979C43.6407 18.1078 43.0308 18.7077 42.4509 19.3476C42.251 19.5676 42.3809 19.8475 42.6409 19.6076C44.6406 17.7278 46.9802 15.8181 47.7301 13.0786C48.11 11.7088 47.8601 10.179 47.5601 8.81925Z" fill="#88889A"/>
<g style="mix-blend-mode:multiply" opacity="0.5">
<path d="M123.218 11.9001C119.858 9.27047 116.559 7.61073 113.209 6.65088C117.169 8.20064 120.478 9.97036 123.218 11.9001Z" fill="#8965A1"/>
</g>
<g style="mix-blend-mode:multiply" opacity="0.5">
<path d="M123.218 11.8999C124.167 12.6398 125.127 13.4597 126.087 14.3595C130.206 18.2289 132.936 22.8482 134.476 27.7374C133.126 22.0683 129.786 16.5192 123.218 11.8999Z" fill="#8965A1"/>
</g>
<g style="mix-blend-mode:multiply" opacity="0.5">
<g style="mix-blend-mode:multiply" opacity="0.5">
<path d="M111.329 49.0836C111.329 49.0836 109.93 49.5935 109.04 53.2829C108.15 56.9723 107.26 53.5329 107.35 46.7739C105.54 51.0733 105.6 57.6022 107.26 61.5516C108.91 65.491 103.881 67.8606 96.1618 67.8606C88.443 67.8606 88.083 62.4015 91.1725 58.982C94.592 55.2326 92.6023 50.6033 92.0524 52.693C91.5025 54.7927 90.0627 58.6521 89.8427 56.2224C89.5128 52.0331 84.9835 47.1739 86.4233 49.9334C88.523 53.7928 88.193 56.7724 87.6331 59.5319C87.0832 62.2915 85.8634 65.0511 85.2035 64.0612C84.5436 63.0714 83.1038 63.1814 83.1038 63.1814C83.1038 63.1814 84.6536 65.8309 84.4236 68.1506C84.2836 69.5804 81.794 69.5804 79.9043 69.3704C82.5639 70.2502 84.2836 70.5502 85.2435 68.8105C100.741 74.3896 108.2 68.1806 109.81 66.5608C107.98 54.1428 111.319 49.0936 111.319 49.0936L111.329 49.0836Z" fill="#8B8CA1"/>
</g>
</g>
<g style="mix-blend-mode:screen">
<path d="M79.505 27.6971C78.6452 24.7776 77.0254 22.268 75.0757 19.9683C73.126 17.6687 70.7564 15.739 68.7967 13.4494C67.4169 11.8296 67.017 8.33017 64.4074 8.2002C64.3474 8.2002 64.2174 8.35017 64.3074 8.37017C66.677 8.97007 66.977 12.3895 68.3068 14.0693C70.0365 16.2489 72.1762 18.1386 74.0359 20.2083C75.9856 22.388 77.6653 24.9376 78.5552 27.7371C79.525 30.8067 79.905 33.9762 80.5349 37.1157C80.6049 37.4456 81.0748 36.9657 81.0548 36.7557C80.7948 33.6862 80.3949 30.6467 79.515 27.6771L79.505 27.6971Z" fill="#BCBBC9"/>
</g>
<g style="mix-blend-mode:screen">
<path d="M133.496 32.7059C133.286 30.9362 132.746 29.2365 132.166 27.5567C130.866 23.8073 128.977 20.3179 126.587 17.1583C122.148 11.2893 115.039 6.59 107.38 7.11992C107.32 7.11992 107.21 7.28989 107.29 7.29989C110.67 7.54985 114.229 8.41972 117.219 10.0195C120.458 11.7592 122.888 13.8889 125.227 16.7284C127.737 19.7679 129.627 23.1674 131.076 26.8168C131.806 28.6565 132.406 30.5462 132.756 32.4959C133.116 34.4756 132.856 36.5353 132.706 38.525C132.686 38.785 133.136 38.435 133.156 38.275C133.386 36.4453 133.716 34.5456 133.496 32.7059Z" fill="#BCBBC9"/>
</g>
<g style="mix-blend-mode:screen">
<path d="M47.9093 75.169C47.4394 79.3284 45.9896 83.0178 43.38 86.2973C43.22 86.4873 43.38 86.6073 43.54 86.4273C46.3495 83.3278 47.7793 79.2684 47.9893 75.1191C47.9893 75.0691 47.9093 75.1391 47.9093 75.169Z" fill="#BCBBC9"/>
</g>
<g style="mix-blend-mode:screen">
<path d="M63.6575 79.0885C62.9276 81.1981 61.6678 82.8979 60.558 84.7976C59.6881 86.2773 59.1282 87.9371 58.6983 89.5868C58.6183 89.9068 59.0782 89.6168 59.1282 89.4468C59.7881 87.4172 60.498 85.5275 61.5978 83.6777C62.5177 82.138 63.3076 80.7682 63.8075 79.0285C63.8375 78.9185 63.6875 79.0285 63.6675 79.0685L63.6575 79.0885Z" fill="#BCBBC9"/>
</g>
<g style="mix-blend-mode:screen">
<path d="M114.079 75.539C114.039 75.439 113.84 75.639 113.87 75.7389C115.039 79.5283 116.329 83.3177 116.809 87.2771C116.839 87.4871 117.149 87.1871 117.139 87.0472C116.839 83.0778 115.349 79.2784 114.079 75.539Z" fill="#BCBBC9"/>
</g>
<g style="mix-blend-mode:screen">
<path d="M99.1416 78.0888C99.1116 78.0088 98.9617 78.1688 98.9817 78.2387C99.6915 80.4284 99.3016 82.3781 98.3618 84.4278C98.2518 84.6677 98.5617 84.5678 98.6317 84.4278C99.6916 82.3681 99.9715 80.2884 99.1416 78.0988V78.0888Z" fill="#BCBBC9"/>
</g>
<path d="M133.056 17.3988C132.976 17.3588 132.836 17.5388 132.906 17.5888C134.956 19.0086 135.886 21.7081 136.266 24.0478C136.296 24.2277 136.546 23.9578 136.546 23.8578C136.526 21.5482 135.126 18.5786 133.056 17.4088V17.3988Z" fill="#4C3C55"/>
<path d="M136.356 18.1386C136.296 18.0586 136.146 18.2286 136.186 18.2986C137.296 19.9383 137.796 21.4981 138.036 23.4578C138.056 23.6378 138.326 23.3778 138.326 23.2578C138.246 21.3281 137.476 19.6784 136.356 18.1386Z" fill="#4C3C55"/>
<g style="mix-blend-mode:screen">
<path d="M46.1002 1.6306C43.3507 4.53014 40.9011 7.60966 41.391 11.799C41.421 12.039 41.7709 11.699 41.7609 11.539C41.6409 9.30939 41.9709 7.68965 43.0707 5.69996C43.8706 4.26018 45.1004 2.94039 46.1202 1.66059C46.1402 1.6306 46.1202 1.5906 46.1002 1.6306Z" fill="#BCBBC9"/>
</g>
<g style="mix-blend-mode:screen">
<path d="M18.1347 6.5097C17.2648 9.55922 16.6649 12.6287 18.5446 15.4083C18.6546 15.5683 18.7746 15.1983 18.7146 15.0884C17.8148 13.5586 17.4448 12.2988 17.4948 10.4891C17.5248 9.17928 17.9147 7.7995 18.1647 6.5197C18.1647 6.4897 18.1447 6.46971 18.1347 6.5097Z" fill="#BCBBC9"/>
</g>
</svg>
