<svg width="165" height="166" viewBox="0 0 165 166" fill="none" xmlns="http://www.w3.org/2000/svg">
<path d="M103.897 154.52C103.814 154.52 103.729 154.507 103.644 154.481C103.127 154.323 102.819 153.712 102.959 153.12C105.425 142.665 112.426 133.696 121.23 129.717C121.729 129.491 122.294 129.771 122.49 130.343C122.687 130.914 122.442 131.558 121.943 131.784C113.697 135.512 107.142 143.909 104.832 153.699C104.715 154.195 104.325 154.52 103.895 154.52H103.897Z" fill="#FC9500"/>
<path d="M104.963 153.167C105.159 151.723 105.8 151.117 105.161 150.354C103.66 148.559 101.181 146.117 98.7375 146.517C94.9063 147.148 94.5708 151.948 94.5708 151.948L104.547 154.917L104.963 153.164V153.167Z" fill="#FC9500"/>
<path d="M142.88 153.943C141.671 153.473 141.951 153.325 140.883 154.128C139.065 155.489 137.084 157.052 137.006 159.876C136.884 164.302 140.959 165.507 140.959 165.507L145.401 154.777L142.88 153.943Z" fill="#FC9500"/>
<path d="M144.052 156.585C143.928 156.603 143.797 156.595 143.668 156.554C134.388 153.595 128.054 144.844 127.535 134.257C127.505 133.644 127.916 133.114 128.449 133.085C128.985 133.049 129.445 133.519 129.474 134.132C129.948 143.756 135.726 151.717 144.192 154.416C144.709 154.58 145.011 155.193 144.866 155.785C144.758 156.229 144.429 156.533 144.052 156.59V156.585Z" fill="#FC9500"/>
<path d="M81.0114 68.8036C85.093 64.4944 87.1224 73.157 85.7204 74.6376C84.3185 76.1181 78.0788 71.8998 81.0114 68.8036Z" fill="#FC9500"/>
<path d="M102.087 88.9496C101.326 88.9496 100.577 88.8587 99.8527 88.6665C93.3234 86.9235 87.6491 81.6922 84.2867 74.3154C84.0523 73.7985 84.227 73.1621 84.6774 72.8946C85.1279 72.627 85.6841 72.8244 85.9208 73.3413C89.0349 80.1727 94.268 85.0118 100.273 86.6145C104.895 87.8509 111.082 83.8845 114.396 79.3389C114.722 78.8922 115.304 78.8324 115.694 79.2038C116.085 79.5779 116.138 80.2402 115.812 80.687C112.668 84.9988 107.108 88.9496 102.089 88.9496H102.087Z" fill="#FC9500"/>
<path d="M161.925 90.1682C156.373 90.0617 160.133 82.1913 162.043 82.2277C163.953 82.264 165.918 90.2435 161.925 90.1682Z" fill="#FC9500"/>
<path d="M162.075 85.0898C161.633 85.0898 161.243 84.7261 161.167 84.2092C160.071 76.7181 158.855 74.6063 153.523 70.9127C149.462 68.1023 142.505 69.6789 138.125 72.8271C137.695 73.1362 137.125 72.9881 136.854 72.4946C136.583 72.0011 136.714 71.3517 137.143 71.0426C141.931 67.6035 149.632 65.7567 154.477 69.1101C160.22 73.0868 161.81 75.8453 162.985 83.8612C163.07 84.4352 162.73 84.9781 162.229 85.0742C162.178 85.0846 162.125 85.0898 162.075 85.0898Z" fill="#FC9500"/>
<path d="M110.528 14.4211C110.407 14.4245 110.288 14.4279 110.165 14.433C108.984 14.3169 101.794 14.1581 98.3276 3.58691C95.2272 5.89376 87.2942 15.1433 87.2942 15.1433C90.7326 16.8696 95.5856 17.0028 96.9989 24.7874C96.9639 25.0554 96.926 25.3338 96.8867 25.6223C97.8541 18.7513 103.322 14.7643 110.528 14.4211Z" fill="#ADD034"/>
<path d="M97.6293 22.6983C95.945 16.1346 91.4416 15.9229 88.197 14.2922C88.197 14.2922 93.4653 8.15028 97.0931 4.62939C93.5163 7.89074 87.2952 15.1442 87.2952 15.1442C90.7335 16.8705 95.5866 17.0037 96.9999 24.7883C96.9649 25.0563 96.927 25.3347 96.8877 25.6232C97.0348 24.5799 97.2869 23.605 97.6307 22.6983H97.6293Z" fill="#DEEDAF"/>
<path d="M107.876 14.0708C105.143 14.7316 102.797 16.0071 101.043 17.8444C103.466 15.78 106.757 14.6001 110.528 14.4208C110.407 14.4243 110.287 14.4277 110.165 14.4328C109.824 14.4004 108.982 14.3611 107.876 14.0708Z" fill="#DEEDAF"/>
<path d="M110.165 14.433C108.983 14.3169 101.793 14.1581 98.3272 3.58691C97.4327 4.25284 96.1345 5.49762 94.7417 6.93022C95.5969 9.68614 98.7293 12.034 100.842 14.404C101.888 15.5788 101.933 15.8793 101.569 17.4195C103.934 15.618 107.024 14.5867 110.528 14.4194C110.407 14.4228 110.287 14.4262 110.165 14.4313V14.433Z" fill="#89B800"/>
<path d="M110.165 14.433C108.983 14.3169 101.793 14.1581 98.3274 3.58691C97.9529 3.86524 97.5071 4.24601 97.0146 4.6985C97.8961 8.11694 99.7304 10.8746 102.346 13.1746C103.344 13.9942 103.402 15.1485 103.054 16.4428C105.172 15.2458 107.716 14.5543 110.526 14.4194C110.405 14.4228 110.286 14.4262 110.164 14.4313L110.165 14.433Z" fill="#6B9C00"/>
<path d="M97.2462 25.6911L96.5236 25.5545L96.6256 24.798C95.5154 18.8183 92.348 17.606 89.2855 16.4346C88.5337 16.1478 87.8242 15.8763 87.1482 15.5365L86.6499 15.2872L87.0345 14.8398C87.3594 14.4608 95.0317 5.53219 98.1306 3.22534L98.5079 2.94531L98.6682 3.43366C100.148 7.9449 103.317 13.438 110.019 13.9895L110.172 14.0031C110.248 13.9997 110.324 13.998 110.398 13.9963L110.518 13.9929L110.542 14.8501C103.234 15.1984 98.1393 19.3528 97.2462 25.6928V25.6911ZM87.9466 14.9884C88.4449 15.2104 88.9679 15.4101 89.5142 15.6202C92.3932 16.7215 95.6261 17.9595 97.0394 23.2698C98.4934 18.6698 102.244 15.4699 107.433 14.3788C102.273 12.8642 99.5628 8.2625 98.1539 4.23619C95.3391 6.5345 89.5142 13.1818 87.9466 14.9884Z" fill="#416000"/>
<path d="M110.528 14.4209C103.322 14.7641 97.8541 18.7512 96.8867 25.6222C96.2792 30.1369 95.3919 37.4433 98.3524 51.7556C101.502 66.9849 104.193 76.407 100.912 89.3294C97.6312 102.252 78.2043 132.864 78.2043 132.864C78.4666 134.71 82.2736 144.863 82.2736 144.863C91.5936 151.785 141.427 150.54 150.824 87.7517C155.277 58.0034 141.383 13.4545 110.528 14.4192V14.4209Z" fill="#FDD42C"/>
<path d="M83.6052 144.636C83.6052 144.636 78.8585 134.814 78.5948 132.969C78.5948 132.969 98.9614 102.023 102.244 89.1027C105.525 76.1802 102.834 66.7582 99.684 51.5289C96.7235 37.2166 97.2174 30.2089 97.825 25.6943C98.6263 20.0117 104.218 15.4065 109.868 14.8943C102.867 14.8943 97.7507 19.4909 96.8867 25.6243C96.2792 30.1389 95.3919 37.4454 98.3524 51.7577C101.502 66.987 104.193 76.4091 100.912 89.3315C97.6312 102.254 78.2043 132.866 78.2043 132.866C78.4666 134.712 82.2736 144.865 82.2736 144.865C85.5065 147.266 93.613 148.683 103.216 146.892C94.2001 148.319 86.6867 146.924 83.6052 144.634V144.636Z" fill="#FEF4CA"/>
<path d="M81.6844 140.104L80.835 138.089C119.766 130.564 135.4 98.1022 133.582 68.7535C132.156 45.7448 124.246 30.5702 107.905 18.7935C107.905 18.7935 119.348 21.8875 128.821 40.1442C132.97 48.2958 135.515 58.6553 136.184 69.4416C137.203 85.8713 132.733 102.793 123.966 115.478C114.27 129.505 99.2405 137.329 81.6844 140.105V140.104Z" fill="#F3AE1F"/>
<path d="M121.633 18.3154C125.471 21.6946 128.757 24.1295 132.087 28.0312C130.292 27.1228 128.466 27.1637 127.142 26.3288C128.501 28.1609 129.779 30.186 130.868 32.3153C129.71 31.4974 128.339 31.6665 126.109 30.6044C127.48 32.3665 127.748 33.3296 128.43 35.7423C127.678 35.0524 126.93 34.7519 125.749 34.3131C133.645 46.8326 137.062 62.5878 136.664 79.2548C135.923 89.2659 132.744 113.502 108.353 130.27C106.283 131.694 96.5663 138.085 84.4795 139.569C84.6922 140.141 82.2737 144.861 82.2737 144.861C91.5937 151.783 141.427 150.538 150.824 87.7496C154.687 61.9457 144.039 25.6184 121.633 18.3103V18.3154Z" fill="#E89E0F"/>
<path d="M94.6868 148.127C88.9727 148.127 84.4052 146.954 82.077 145.226L81.9823 145.156L81.9371 145.036C81.7812 144.619 78.1097 134.813 77.8417 132.935L77.8154 132.756L77.9087 132.609C78.1024 132.303 97.3341 101.909 100.56 89.2073C103.474 77.7294 101.674 69.2431 98.9498 56.3958C98.6409 54.9376 98.3204 53.4281 97.9955 51.8572C94.9593 37.1778 95.9777 29.6169 96.524 25.5547C97.4769 18.7879 102.837 14.3586 110.512 13.9915H110.518C121.177 13.6568 130.714 18.7862 138.101 28.8195C148.824 43.3846 154.203 67.6483 151.183 87.8259C146.201 121.11 130.169 135.86 117.596 142.371C109.559 146.534 101.344 148.127 94.6854 148.127H94.6868ZM82.5621 144.57C85.1089 146.394 90.2286 147.421 95.9718 147.252C100.997 147.106 108.777 146.003 117.301 141.589C129.712 135.162 145.538 120.591 150.463 87.6791C153.448 67.7371 148.136 43.7636 137.547 29.3813C130.309 19.5494 120.973 14.5174 110.54 14.8503C103.233 15.2004 98.1412 19.3548 97.2481 25.693C96.6726 29.9738 95.7067 37.1436 98.708 51.6557C99.0329 53.2249 99.3519 54.7327 99.6608 56.1892C102.315 68.7069 104.234 77.7499 101.262 89.4515C98.0844 101.966 80.2529 130.345 78.5949 132.966C78.9402 134.683 81.2873 141.163 82.5621 144.57Z" fill="#9F5407"/>
<path d="M83.2412 140.213L83.1436 139.364C122.181 133.19 138.003 98.7903 136.185 69.4416C134.759 46.4329 125.245 29.392 107.906 18.7952C107.906 18.7952 120.202 22.6934 129.675 40.9501C133.825 49.1018 136.246 58.5938 136.915 69.3802C137.933 85.8098 133.666 101.843 124.899 114.527C115.204 128.556 100.799 137.436 83.2426 140.215L83.2412 140.213Z" fill="#9F5407"/>
<path d="M94.8927 12.1135C98.0105 8.87153 99.48 4.84581 98.1748 3.12177C96.8697 1.39773 93.2842 2.62824 90.1663 5.87018C87.0485 9.11212 85.579 13.1378 86.8842 14.8619C88.1893 16.5859 91.7748 15.3554 94.8927 12.1135Z" fill="#74421D"/>
<path d="M90.6619 6.47242C93.5481 3.47062 96.8349 2.1951 98.3429 3.39207C98.2919 3.29645 98.2365 3.20424 98.1724 3.12058C96.867 1.39599 93.2814 2.6271 90.1636 5.86796C87.0457 9.11052 85.5771 13.1351 86.8826 14.8597C86.9787 14.9878 87.0894 15.0971 87.2104 15.1927C86.2255 13.3451 87.6984 9.55618 90.6619 6.47242Z" fill="#AC8F78"/>
<path d="M98.172 3.12036C97.9826 2.87107 97.7451 2.68495 97.4683 2.55518C97.7684 4.56492 96.3202 7.7665 93.7516 10.4388C91.0854 13.21 88.0798 14.5095 86.448 13.7513C86.5121 14.1799 86.6534 14.5556 86.8836 14.8595C88.189 16.5841 91.7746 15.353 94.8924 12.1104C98.0103 8.86784 99.4789 4.84324 98.1735 3.11865L98.172 3.12036Z" fill="#512508"/>
<path d="M98.1719 3.12065C98.0073 2.9038 97.8077 2.73305 97.576 2.6084C98.5376 4.46275 97.0661 8.23635 94.1129 11.3065C91.3884 14.1409 88.3055 15.4369 86.7 14.5661C86.7539 14.6703 86.8136 14.7676 86.8821 14.8598C88.1875 16.5844 91.773 15.3533 94.8909 12.1107C98.0087 8.86813 99.4773 4.84353 98.1719 3.11894V3.12065Z" fill="#461800"/>
<path d="M88.647 16.0705C87.7743 16.0705 87.0735 15.758 86.6102 15.145C85.8803 14.1803 85.8511 12.6247 86.5301 10.7653C87.1711 9.00993 88.376 7.15729 89.9233 5.54881C93.2422 2.09793 96.9865 0.906089 98.4478 2.83728C99.9092 4.76677 98.4537 8.98261 95.1362 12.4335C93.5889 14.042 91.8756 15.2236 90.3123 15.7597C89.7091 15.9663 89.1496 16.0688 88.6485 16.0688L88.647 16.0705ZM96.411 2.76386C94.8215 2.76386 92.4831 4.03083 90.407 6.18913C88.9384 7.71564 87.8005 9.46072 87.2017 11.1016C86.6495 12.6162 86.6321 13.8832 87.1566 14.5747C87.6811 15.268 88.7563 15.3994 90.1054 14.9367C91.5667 14.4347 93.181 13.318 94.6496 11.7915C97.5606 8.76405 99.0496 4.92386 97.9 3.40418C97.5693 2.96876 97.0521 2.76215 96.4125 2.76215L96.411 2.76386Z" fill="#331400"/>
<path d="M87.9714 13.7275C88.1404 13.8983 88.3837 13.8966 88.5964 13.9C89.2535 13.8641 89.8873 13.6148 90.4846 13.3075C92.8274 11.9995 94.8482 9.80368 96.1711 7.19972C96.5338 6.40231 96.9811 5.37269 96.8369 4.50015C94.8831 4.09205 91.9678 6.63624 90.6434 8.29424C90.0636 9.02847 89.5347 9.84124 89.1136 10.7018C88.8791 11.2141 88.627 11.7315 88.6227 12.2642C88.6256 12.341 88.6445 12.3325 88.6329 12.3325C88.6372 12.3257 88.6285 12.3376 88.6533 12.3376C88.745 12.3615 88.8631 12.341 88.9665 12.3086C91.0995 11.5095 94.0541 8.29765 95.326 6.12741C95.3756 6.02837 95.4237 5.91738 95.4397 5.84567C95.4572 5.80127 95.4237 5.8081 95.4805 5.89006C95.5519 5.94812 95.5417 5.91567 95.5111 5.92421C95.3625 5.95495 95.1541 6.0813 94.9749 6.19912C93.282 7.38926 91.774 8.91577 90.2136 10.3518C91.4972 8.91577 92.8012 7.51561 94.2173 6.25376C94.6194 5.92933 94.9356 5.61174 95.4382 5.43757C95.6786 5.36927 95.9088 5.56563 95.8753 5.8764C95.852 6.06935 95.7821 6.2401 95.7194 6.38012C94.516 8.70916 91.2204 12.505 88.9374 13.1419C88.4609 13.2699 87.951 12.9438 87.9248 12.353C87.8854 11.588 88.222 10.8914 88.493 10.2869C89.3919 8.41206 90.6799 6.85822 92.1761 5.63564C93.3009 4.72383 94.551 3.93496 95.9321 3.69762C96.3998 3.65664 96.9753 3.56614 97.3439 4.03741C97.8349 5.04826 97.0991 6.6499 96.6606 7.53439C95.2051 10.2152 93.059 12.3445 90.5575 13.5141C89.931 13.7839 89.2681 13.9973 88.595 13.9615C88.3793 13.9376 88.1302 13.9119 87.9714 13.7241V13.7275Z" fill="#331400"/>
<path d="M78.2042 132.865C78.2042 132.865 76.0581 136.12 76.7691 138.865C77.2616 140.769 79.0522 142.977 82.2735 144.866C84.4938 146.127 84.6439 142.096 84.4793 139.574C84.3248 136.617 82.0447 133.097 78.2042 132.867V132.865Z" fill="#74421D"/>
<path d="M77.2538 139.291C76.5443 136.545 78.8331 133.299 78.8331 133.299C79.9011 133.364 80.8466 133.681 81.661 134.171C80.7184 133.439 79.5587 132.945 78.2023 132.865C78.2023 132.865 76.0562 136.12 76.7672 138.865C77.2028 140.552 78.6612 142.477 81.2269 144.207C79.0065 142.591 77.6545 140.838 77.2538 139.292V139.291Z" fill="#AC8F78"/>
<path d="M84 137.381C81.5436 138.039 79.163 138.573 76.7561 138.807C76.7605 138.826 76.7634 138.845 76.7692 138.863C77.2617 140.767 79.0522 142.975 82.2735 144.864C84.4939 146.126 84.644 142.094 84.4793 139.572C84.4415 138.857 84.2797 138.109 84.0015 137.383L84 137.381Z" fill="#512508"/>
<path d="M84.4675 139.419C82.0154 139.772 79.6741 140.044 77.2556 140.104C78.0511 141.731 79.6479 143.326 82.2733 144.864C84.4937 146.126 84.6438 142.095 84.4791 139.573C84.4762 139.521 84.4718 139.47 84.4675 139.419Z" fill="#461800"/>
<path d="M83.0413 145.534C82.7557 145.534 82.4454 145.44 82.1132 145.25C79.0595 143.461 76.9848 141.179 76.418 138.989C75.6619 136.065 77.8225 132.743 77.9143 132.603L78.0309 132.425L78.2217 132.437C82.1453 132.673 84.6702 136.236 84.8421 139.545C84.9557 141.277 84.9732 144.328 83.812 145.255C83.5804 145.44 83.3225 145.532 83.0413 145.532V145.534ZM78.382 133.308C77.9668 134.006 76.5623 136.59 77.1188 138.739C77.6273 140.705 79.565 142.798 82.4367 144.48C83.0486 144.828 83.3137 144.617 83.4012 144.547C84.0087 144.062 84.2812 142.168 84.1136 139.603C83.9621 136.719 81.784 133.622 78.382 133.306V133.308Z" fill="#331400"/>
<path d="M99.1639 35.9368C99.853 39.7257 100.415 43.4515 101.139 47.1944C102.441 53.4097 103.794 59.6899 103.94 66.1358C103.201 63.6889 102.553 61.2438 101.945 58.7833C101.054 55.0592 100.162 51.3778 99.5558 47.5649C99.0196 43.7247 98.8171 39.8162 99.1639 35.9385V35.9368Z" fill="#FEF4CA"/>
<path d="M104.206 87.6042C104.206 90.0904 103.628 92.5748 102.965 94.9209C100.879 101.973 97.3367 108.356 93.1655 113.953C92.3438 114.993 91.5133 116.022 90.6377 117.001C91.2234 115.753 91.8528 114.552 92.4924 113.365C95.4354 107.717 98.4819 102.147 101.032 96.2391C102.236 93.4354 103.402 90.6163 104.206 87.6042Z" fill="#FEF4CA"/>
<path d="M119.926 48.1743C120.098 49.0622 120.814 48.8061 121.985 47.8892C123.268 46.8851 124.867 46.6085 126.273 47.16C126.761 47.3513 127.084 47.5357 127.084 47.5357C124.575 43.2772 119.552 46.4224 119.928 48.1743H119.926Z" fill="#884300"/>
<path d="M130.852 59.9804C131.249 64.4114 129.393 68.5094 126.369 68.8372C123.346 69.1668 120.869 65.7603 120.53 61.0664C120.135 56.6371 121.993 52.5442 125.014 52.2163C128.023 51.7177 130.431 55.2113 130.852 59.9804Z" fill="#F3AE1F"/>
<path d="M130.393 60.7233C130.754 64.7854 129.083 68.5402 126.356 68.8391C123.628 69.1379 121.392 66.0114 121.081 61.7085C120.722 57.648 122.394 53.8966 125.12 53.5978C127.834 53.1436 130.01 56.3503 130.394 60.7233H130.393Z" fill="#E89E0F"/>
<path d="M130.057 61.3857C130.389 65.1166 128.853 68.5658 126.349 68.839C123.844 69.1122 121.79 66.2419 121.505 62.2907C121.174 58.5615 122.709 55.1157 125.212 54.8425C127.705 54.4259 129.703 57.3696 130.057 61.3874V61.3857Z" fill="white"/>
<path d="M130.057 61.3862C129.752 57.92 128.221 55.2597 126.208 54.8601C127.713 55.8061 128.801 58.1146 129.052 60.9764C129.384 64.7073 127.848 68.1548 125.344 68.4297C125.023 68.4638 124.709 68.4468 124.406 68.3819C125.001 68.7439 125.657 68.9163 126.349 68.8395C128.854 68.5663 130.389 65.1171 130.057 61.3862Z" fill="#BABABA"/>
<path d="M121.506 62.2907C120.978 59.224 122.134 54.6939 125.197 54.349C128.331 53.9392 130.041 58.2831 130.059 61.3857C129.632 58.5751 128.219 54.9142 125.335 55.2608C122.499 55.6228 121.439 59.3674 121.508 62.2907H121.506Z" fill="#9F5407"/>
<path d="M129.419 62.9901C129.426 65.5463 128.099 67.7609 126.268 67.7473C124.436 67.7336 123.129 65.6231 123.169 62.9218C123.163 60.3674 124.49 58.1528 126.32 58.1681C128.151 58.0845 129.414 60.2393 129.419 62.9918V62.9901Z" fill="#2A0800"/>
<path d="M128.244 62.9752C128.249 64.57 127.42 65.9531 126.277 65.9429C125.135 65.9343 124.318 64.6179 124.344 62.9308C124.34 61.336 125.169 59.9546 126.311 59.9632C127.455 59.9102 128.241 61.2558 128.244 62.9735V62.9752Z" fill="black"/>
<path d="M128.278 61.3207C128.283 62.2069 127.837 63.0163 127.213 63.0487C126.587 63.0317 126.103 62.3675 126.09 61.3344C126.086 60.4482 126.531 59.6389 127.155 59.6064C127.778 59.574 128.271 60.3867 128.278 61.3207Z" fill="#BFB0AB"/>
<path d="M126.164 64.7376C126.167 65.4103 125.829 66.025 125.355 66.049C124.88 66.0353 124.513 65.5316 124.503 64.7478C124.5 64.0751 124.838 63.4604 125.311 63.4365C125.785 63.4126 126.158 64.029 126.164 64.7376Z" fill="#85685F"/>
<path d="M122.118 67.0197L125.941 69.9618L130.211 66.6782C126.767 65.4966 123.92 66.2035 122.118 67.0214V67.0197Z" fill="#FDD42C"/>
<path d="M121.57 67.3206C124.086 65.2545 127.642 65.1333 130.547 66.8339C130.167 66.7486 129.807 66.5983 129.427 66.542C126.808 65.9529 124.067 66.3524 121.57 67.3206Z" fill="#9F5407"/>
<path style="mix-blend-mode:multiply" opacity="0.9" d="M130.89 69.4778C130.915 70.8063 128.72 71.9161 125.988 71.9554C123.256 71.9947 121.023 70.9514 120.999 69.6213C120.976 68.2928 123.17 67.1846 125.902 67.1437C128.632 67.1044 130.866 68.1477 130.89 69.4761V69.4778Z" fill="url(#paint0_radial_25_5010)"/>
<path d="M127.899 68.6122C127.912 68.7676 127.808 68.9059 127.667 68.9196C127.526 68.9332 127.399 68.8188 127.386 68.6634C127.373 68.5081 127.476 68.3697 127.618 68.3561C127.759 68.3424 127.886 68.4568 127.899 68.6122Z" fill="#9F5407"/>
<path d="M124.305 68.7779C124.317 68.9111 124.228 69.0289 124.107 69.0408C123.986 69.0528 123.878 68.9538 123.867 68.8206C123.855 68.6874 123.944 68.5696 124.065 68.5576C124.186 68.5457 124.293 68.6447 124.305 68.7779Z" fill="#9F5407"/>
<path d="M126.39 70.347C126.401 70.4802 126.312 70.598 126.191 70.6099C126.07 70.6219 125.963 70.5229 125.951 70.3897C125.939 70.2565 126.028 70.1387 126.149 70.1267C126.27 70.1148 126.378 70.2138 126.39 70.347Z" fill="#9F5407"/>
<path d="M126.549 69.2093C126.558 69.3066 126.494 69.392 126.405 69.4005C126.316 69.4091 126.237 69.3374 126.23 69.24C126.221 69.1427 126.285 69.0573 126.374 69.0488C126.463 69.0402 126.54 69.112 126.549 69.2093Z" fill="#9F5407"/>
<path d="M124.969 70.0039C124.976 70.0824 124.924 70.1507 124.852 70.1575C124.781 70.1644 124.718 70.1063 124.711 70.0295C124.704 69.9509 124.756 69.8826 124.827 69.8758C124.899 69.869 124.961 69.927 124.969 70.0039Z" fill="#9F5407"/>
<path d="M123.495 70.3913C123.502 70.4699 123.449 70.5381 123.378 70.545C123.307 70.5518 123.244 70.4938 123.237 70.4169C123.229 70.3384 123.282 70.2701 123.353 70.2632C123.425 70.2564 123.487 70.3145 123.495 70.3913Z" fill="#9F5407"/>
<path d="M103.189 52.68C103.189 52.68 103.396 52.4137 103.728 52.0841C104.685 51.1347 105.971 50.8171 107.176 51.2218C108.275 51.5906 108.88 51.5599 108.817 50.754C108.719 49.1489 104.177 48.2268 103.189 52.68Z" fill="#884300"/>
<path d="M113.01 61.7548C113.807 65.8597 112.436 70.0021 109.601 70.7807C106.766 71.5594 104.094 68.7403 103.326 64.381C102.531 60.2778 103.902 56.1388 106.735 55.3602C109.54 54.4245 112.157 57.3358 113.009 61.7548H113.01Z" fill="#F3AE1F"/>
<path d="M112.659 62.6582C113.377 66.3516 112.143 70.0791 109.592 70.7808C107.041 71.4809 104.637 68.9453 103.945 65.0214C103.23 61.3281 104.464 57.604 107.013 56.9039C109.538 56.0604 111.891 58.6814 112.659 62.6599V62.6582Z" fill="#E89E0F"/>
<path d="M112.333 63.5109C112.976 66.8184 111.871 70.1566 109.587 70.7849C107.302 71.4116 105.149 69.1406 104.53 65.6265C103.889 62.3191 104.994 58.9843 107.278 58.356C109.539 57.6012 111.647 59.9474 112.333 63.5109Z" fill="white"/>
<path d="M107.641 58.2638C109.366 58.5848 110.831 60.6543 111.383 63.511C112.025 66.8184 110.921 70.1566 108.635 70.7832C108.536 70.8106 108.438 70.8242 108.341 70.8413C108.746 70.913 109.162 70.8976 109.585 70.7815C111.869 70.1532 112.975 66.8167 112.331 63.5075C111.681 60.1386 109.76 57.8608 107.64 58.2621L107.641 58.2638Z" fill="#BABABA"/>
<path d="M104.529 65.6249C103.702 62.8724 104.493 58.6651 107.225 57.8762C110.072 56.9781 112.073 60.6031 112.333 63.5093C111.74 61.5166 110.755 59.5683 109.008 58.8512C108.465 58.6395 107.891 58.6173 107.33 58.8085C104.867 59.5427 104.229 62.9663 104.528 65.6249H104.529Z" fill="#9F5407"/>
<path d="M111.829 64.558C112.391 66.7966 111.711 69.1547 110.108 69.7181C108.504 70.2816 106.903 68.8422 106.351 66.4619C105.79 64.2234 106.469 61.867 108.073 61.3035C109.655 60.6547 111.229 62.1487 111.83 64.558H111.829Z" fill="#2A0800"/>
<path d="M110.892 64.8821C111.262 66.3557 110.815 67.9061 109.76 68.2766C108.705 68.6472 107.65 67.7012 107.288 66.1337C106.919 64.6601 107.365 63.1097 108.42 62.7392C109.461 62.3123 110.496 63.2941 110.892 64.8821Z" fill="black"/>
<path d="M110.465 63.6275C110.607 64.4198 110.334 65.2513 109.783 65.4289C109.223 65.5621 108.688 65.084 108.517 64.1619C108.376 63.3696 108.648 62.5381 109.199 62.3622C109.75 62.1846 110.314 62.7942 110.465 63.6292V63.6275Z" fill="#BFB0AB"/>
<path d="M109.109 67.1889C109.217 67.79 109.01 68.4217 108.592 68.5549C108.166 68.6574 107.761 68.292 107.632 67.5936C107.524 66.9926 107.731 66.3608 108.149 66.2276C108.567 66.0927 108.995 66.5554 109.111 67.1889H109.109Z" fill="#85685F"/>
<path d="M105.314 70.2523L109.211 72.1852L112.922 68.3757C109.514 67.9164 106.913 69.1322 105.314 70.2523Z" fill="#FDD42C"/>
<path style="mix-blend-mode:multiply" opacity="0.9" d="M114.019 70.6672C114.202 71.8847 112.321 73.307 109.818 73.8415C107.315 74.376 105.139 73.821 104.957 72.6036C104.774 71.3861 106.654 69.9655 109.155 69.431C111.657 68.8966 113.834 69.4498 114.017 70.6689L114.019 70.6672Z" fill="url(#paint1_radial_25_5010)"/>
<path d="M111.167 70.4165C111.2 70.5582 111.121 70.7034 110.993 70.7427C110.864 70.7819 110.735 70.6983 110.703 70.5582C110.671 70.4165 110.749 70.2714 110.878 70.2321C111.006 70.1928 111.135 70.2765 111.167 70.4165Z" fill="#9F5407"/>
<path d="M107.889 71.223C107.917 71.3442 107.849 71.4689 107.739 71.5013C107.63 71.5337 107.518 71.4637 107.492 71.3425C107.464 71.2213 107.533 71.0966 107.642 71.0642C107.751 71.03 107.863 71.1017 107.889 71.223Z" fill="#9F5407"/>
<path d="M109.993 72.2874C110.021 72.4087 109.952 72.5333 109.843 72.5658C109.734 72.5982 109.622 72.5282 109.596 72.407C109.568 72.2857 109.636 72.1611 109.746 72.1286C109.855 72.0945 109.967 72.1662 109.993 72.2874Z" fill="#9F5407"/>
<path d="M110.001 71.2128C110.021 71.2999 109.971 71.3921 109.891 71.416C109.811 71.4399 109.731 71.3887 109.711 71.2999C109.692 71.2128 109.74 71.1206 109.82 71.0967C109.9 71.0728 109.98 71.124 110.001 71.2111V71.2128Z" fill="#9F5407"/>
<path d="M108.647 72.2318C108.663 72.3018 108.624 72.3752 108.56 72.394C108.496 72.4128 108.43 72.3718 108.415 72.3018C108.399 72.2318 108.439 72.1583 108.503 72.1396C108.567 72.1208 108.633 72.1618 108.647 72.2318Z" fill="#9F5407"/>
<path d="M107.342 72.8563C107.358 72.9263 107.319 72.9997 107.255 73.0202C107.191 73.039 107.125 72.998 107.111 72.928C107.094 72.858 107.134 72.7846 107.198 72.7658C107.262 72.747 107.328 72.788 107.342 72.858V72.8563Z" fill="#9F5407"/>
<path d="M104.836 70.6501C107.053 69.1356 109.616 68.4884 112.169 68.4457L112.923 68.3774L112.3 68.2579C109.795 67.5527 106.999 68.3586 104.836 70.6501Z" fill="#9F5407"/>
<path d="M111.02 76.3353C111.02 76.3353 113.194 79.6735 118.446 78.8505C124.007 77.978 125.488 74.4998 125.488 74.4998C125.488 74.4998 126.567 84.8268 119.709 86.6777C113.29 88.4108 111.105 79.1937 111.02 76.337V76.3353Z" fill="#670E00"/>
<path d="M125.488 74.4976C125.488 74.4976 124.008 77.9758 118.446 78.8483C117.502 78.9969 116.659 79.0088 115.908 78.932C117.32 80.7658 117.094 84.1979 116.461 86.5816C117.397 86.9351 118.474 87.0085 119.71 86.6755C126.569 84.8246 125.488 74.4976 125.488 74.4976Z" fill="#350000"/>
<path d="M119.709 86.6764C123.451 85.6672 124.83 82.1327 125.311 79.1309C118.344 78.3591 116.402 84.3576 115.952 86.3571C117.001 86.8966 118.245 87.0725 119.709 86.6764Z" fill="#FF787A"/>
<path d="M121.283 81.0415C121.468 81.3352 121.133 81.9943 120.533 82.5117C119.934 83.0291 119.297 83.2101 119.112 82.9147C118.927 82.621 119.262 81.9619 119.863 81.4445C120.461 80.9271 121.098 80.7461 121.283 81.0415Z" fill="#FFADAE"/>
<path d="M117.973 87.3145C117.211 87.2872 116.485 87.0977 115.805 86.7476L115.518 86.6008L115.598 86.2456C116.042 84.2717 118.064 77.901 125.345 78.7035L125.744 78.7479L125.67 79.209C125.189 82.2108 123.778 86.0168 119.791 87.0926C119.164 87.2616 118.557 87.335 117.971 87.3145H117.973ZM116.393 86.1022C117.374 86.5205 118.459 86.5735 119.626 86.2576C123.027 85.3389 124.36 82.1835 124.868 79.518C118.876 79.0741 116.937 84.031 116.393 86.1005V86.1022Z" fill="#C7383B"/>
<path d="M125.858 74.5287L125.25 74.1001L125.162 74.305C125.147 74.3374 123.671 77.5971 118.397 78.4252C113.445 79.2021 111.398 76.2089 111.309 76.074L111.204 75.9118L110.649 76.1901L110.653 76.3506C110.713 78.3689 111.739 83.3497 114.53 85.8631C115.556 86.7869 116.704 87.2718 117.961 87.3179C118.547 87.3401 119.157 87.265 119.788 87.0942C126.569 85.2638 125.935 75.4934 125.855 74.5304L125.858 74.5287ZM119.627 86.2576C117.862 86.734 116.299 86.372 114.976 85.1818C112.847 83.266 111.812 79.6615 111.492 77.4605C112.56 78.4491 114.792 79.8544 118.493 79.2739C122.322 78.6728 124.284 76.8714 125.178 75.712C125.211 78.3911 124.748 84.8745 119.627 86.2576Z" fill="#9F5407"/>
<path d="M124.273 73.188L125.814 74.1903C126.288 74.5011 126.92 74.8596 127.356 75.2387C126.111 75.6485 124.542 74.7162 124.271 73.188H124.273Z" fill="#9F5407"/>
<path d="M109.117 77.1071C110.342 76.2039 111.506 75.4782 112.507 74.2266C112.443 76.1082 110.619 77.4128 109.117 77.1071Z" fill="#9F5407"/>
<path d="M83.4145 130.228L84.586 129.567L84.7825 129.456L84.9987 129.392C85.9602 129.106 86.9982 128.844 87.9712 128.599C88.5838 128.444 89.1707 128.296 89.6965 128.152L89.7098 128.149C90.2051 128.017 90.6743 127.891 91.1331 127.757C92.0573 127.486 92.8975 127.198 93.6732 126.833L93.674 126.833C95.4945 125.978 96.6581 123.612 96.9769 121.001C97.3228 118.146 96.3213 115.911 94.1375 113.586L94.1374 113.586C92.1661 111.486 90.1915 109.382 88.2568 107.217C87.7733 106.676 87.2483 106.079 86.765 105.457L86.7632 105.454C85.8568 104.284 84.82 102.69 84.7437 100.878C84.6565 98.8072 85.8076 97.0979 87.8422 95.8057C88.9637 95.0531 90.2015 94.442 91.3244 93.8994C91.4394 93.8439 91.5531 93.789 91.6656 93.7348C92.7033 93.2346 93.6347 92.7856 94.4766 92.2765C96.2547 91.2011 97.2269 90.1078 97.367 88.361C97.3521 87.9331 97.2691 87.5212 97.1197 87.1289C96.8177 86.336 96.2115 85.5832 95.16 85.0371C92.8646 83.9144 90.3707 83.8242 88.1947 84.6632C87.7698 84.828 87.3566 85.0341 86.9537 85.2871L86.8496 85.3524L86.7383 85.4045C86.6299 85.4553 86.5037 85.5355 86.2709 85.708C86.2395 85.7312 86.2038 85.758 86.1644 85.7876C85.9878 85.9204 85.7361 86.1095 85.465 86.2834C84.88 86.7625 84.3237 87.3642 83.7289 88.0742C83.5184 88.3254 83.2808 88.6186 83.0317 88.9261C82.6232 89.4303 82.1838 89.9727 81.7821 90.4307C80.4051 92.0006 78.5336 93.7327 75.702 93.9082L75.6876 93.9091L75.6731 93.9098C73.8475 93.9965 72.3418 93.4474 71.1292 92.4763C69.9776 91.554 69.1758 90.3197 68.5585 89.16C68.1291 88.3534 67.7239 87.4484 67.3551 86.6248C67.2064 86.2927 67.0636 85.9739 66.9276 85.68C66.4143 84.5715 65.947 83.6968 65.4204 83.056L65.4011 83.0326L65.3825 83.0085C65.1465 82.7028 64.8768 82.4665 64.5656 82.2694C64.2382 82.062 63.8479 81.8801 63.3761 81.709C62.8875 81.544 62.3982 81.406 61.8975 81.2903C61.3862 81.1721 60.8907 81.0824 60.4056 81.0296L60.3979 81.0288C59.4525 80.9221 58.774 81.1207 58.2044 81.4742C57.5872 81.8572 56.9972 82.4872 56.3883 83.3892C55.7993 84.2617 55.276 85.2579 54.6987 86.3567L54.6291 86.4892C54.0616 87.5691 53.4259 88.7705 52.6811 89.7992C52.4974 90.0882 52.3259 90.3721 52.1408 90.6785C52.0317 90.8592 51.9179 91.0476 51.7941 91.2495C51.7939 91.2499 51.7936 91.2503 51.7934 91.2507L50.0885 90.2051C48.8272 92.2651 47.434 94.1933 44.8428 93.7666L83.4145 130.228ZM83.4145 130.228C82.1107 130.848 80.8929 131.849 80.0901 133.126C79.2636 134.44 78.8427 136.123 79.3874 137.893L79.4045 137.949L79.4249 138.003C79.7034 138.75 80.029 139.479 80.4126 140.197C81.2222 141.872 82.38 143.281 83.6904 144.447L83.6908 144.447C84.1246 144.833 84.5835 145.202 85.0569 145.543C88.597 148.108 91.3793 151.886 91.4053 155.857C91.417 157.741 90.4981 159.616 88.9539 161.026C87.4096 162.435 85.3799 163.247 83.39 163.146L83.3642 163.144L83.3384 163.144C82.8381 163.131 82.3251 163.068 81.8082 162.957C81.3398 162.854 80.8727 162.721 80.406 162.553C78.2976 161.777 77.358 160.094 76.7368 157.419C76.5031 156.412 76.3393 155.381 76.1635 154.273C76.1002 153.875 76.0354 153.466 75.9652 153.046C75.7114 151.526 75.3911 149.883 74.8022 148.377L74.7838 148.33L74.7631 148.284C74.7351 148.222 74.7023 148.147 74.665 148.06C74.486 147.647 74.2024 146.992 73.8443 146.441C73.3698 145.711 72.5905 144.86 71.3206 144.527L71.2693 144.513L71.2173 144.503C70.3255 144.318 69.4949 144.338 68.7173 144.506L68.7056 144.509L68.6938 144.512C67.9176 144.689 67.2309 145.013 66.626 145.409L66.5278 145.473L66.4378 145.548C65.5535 146.287 64.8215 147.156 64.1942 147.953C63.9543 148.258 63.7376 148.541 63.5311 148.811C63.1561 149.301 62.8148 149.747 62.4297 150.198C61.3074 151.513 60.3357 152.216 58.9827 152.293L58.9621 152.294L58.9415 152.296C57.8889 152.378 56.9263 152.081 55.6665 151.548C55.4719 151.465 55.2648 151.374 55.0466 151.278C53.9667 150.803 52.6126 150.208 51.1349 149.939C47.7204 149.255 45.5 151.843 44.4591 153.423C43.9584 154.125 43.4977 154.838 43.07 155.526L43.0663 155.532C42.6397 156.224 42.2471 156.901 41.8802 157.541C41.7651 157.709 41.6211 157.876 41.4154 158.09C41.3665 158.141 41.3046 158.204 41.2348 158.275C41.0597 158.453 40.8346 158.682 40.6372 158.902C40.1567 159.375 39.6535 159.838 39.1419 160.277C37.2447 161.897 35.3764 163.015 33.6755 163.308C32.1616 163.568 30.5753 163.22 28.8948 161.347L28.8877 161.339C27.9749 160.332 27.7245 159.519 27.7092 158.866C27.6928 158.167 27.941 157.37 28.5151 156.422C29.0916 155.471 29.9127 154.503 30.8633 153.482C31.1802 153.142 31.5274 152.78 31.8814 152.411C32.5143 151.751 33.1688 151.068 33.7107 150.447L33.7474 150.405L33.7817 150.361C34.5799 149.335 35.1913 148.022 35.3425 146.611C35.4194 145.896 35.3787 145.12 35.1366 144.344L35.0914 144.198L35.0247 144.062C34.2668 142.508 32.8941 141.469 31.3355 141.109C29.6154 140.613 27.6897 140.497 26.0404 140.397C25.7245 140.378 25.4188 140.36 25.1265 140.34C23.1153 140.199 21.6066 139.972 20.4825 139.318C20.1258 139.109 19.8097 138.858 19.5296 138.547L19.52 138.536L19.5101 138.526C19.0774 138.059 18.9454 137.355 19.2069 136.705C19.375 136.32 19.589 135.922 19.8425 135.492C21.3099 133.044 22.9552 130.944 24.8769 128.491C25.0226 128.305 25.17 128.117 25.3189 127.927L25.3383 127.902L25.3569 127.876C27.9171 124.383 28.6461 118.76 24.6296 115.412C23.8664 114.775 23.0551 114.289 22.218 113.934C21.3881 113.576 20.5534 113.354 19.7379 113.212L19.7379 113.212L19.7248 113.21C18.1092 112.94 16.4328 112.912 14.9422 112.886C14.5516 112.88 14.1738 112.873 13.8131 112.863C11.9777 112.809 10.4121 112.659 8.97283 112.086L8.95558 112.079L8.9382 112.073C7.0709 111.37 4.98804 109.937 3.74204 108.233C2.54407 106.595 2.26717 104.984 3.21873 103.376C3.43214 103.019 3.655 102.723 3.88379 102.476C4.56463 101.743 5.38484 101.32 6.35281 101.13C6.75057 101.052 7.17523 101.014 7.63003 101.02C9.72593 101.427 11.5593 102.483 13.5873 103.848C13.9507 104.093 14.3245 104.351 14.7087 104.616C16.4221 105.799 18.343 107.125 20.4782 108.051L20.4891 108.055L20.5001 108.06C22.4452 108.876 25.1109 109.163 27.333 107.272C29.0213 105.865 29.9875 103.661 29.6713 101.387C29.5017 99.7838 29.0724 98.2345 28.6974 96.8816C28.6259 96.6237 28.5564 96.3729 28.4911 96.1303C28.0617 94.5359 27.7707 93.1746 27.8441 91.7998C27.9002 91.2295 28.012 90.7567 28.1651 90.3747L28.1658 90.3729C28.3997 89.7875 28.7186 89.3981 29.1448 89.1357C29.5878 88.863 30.3182 88.6229 31.5419 88.6484C32.1218 88.6619 32.6867 88.7195 33.2646 88.8296L33.3383 88.8436L33.4129 88.8521C33.9126 88.909 34.5443 89.1262 35.1571 89.4677C36.186 90.0641 37.0012 90.8442 37.9827 91.7833C38.2925 92.0798 38.6189 92.3922 38.9738 92.7196C40.3402 93.9801 42.0819 95.3842 44.5383 95.7433L83.4145 130.228Z" fill="white" stroke="#D9D9D9" stroke-width="4"/>
<defs>
<radialGradient id="paint0_radial_25_5010" cx="0" cy="0" r="1" gradientUnits="userSpaceOnUse" gradientTransform="translate(127.074 69.5889) rotate(-0.843812) scale(4.9619 2.4082)">
<stop stop-color="#F4C0D0"/>
<stop offset="0.38" stop-color="#F7D5DF"/>
<stop offset="1" stop-color="white"/>
</radialGradient>
<radialGradient id="paint1_radial_25_5010" cx="0" cy="0" r="1" gradientUnits="userSpaceOnUse" gradientTransform="translate(113.444 70.587) rotate(-12.0351) scale(4.60053 2.22906)">
<stop stop-color="#F4C0D0"/>
<stop offset="0.38" stop-color="#F7D5DF"/>
<stop offset="1" stop-color="white"/>
</radialGradient>
</defs>
</svg>
