<svg width="89" height="166" viewBox="0 0 89 166" fill="none" xmlns="http://www.w3.org/2000/svg">
<path d="M27.8971 154.52C27.8143 154.52 27.7293 154.507 27.6443 154.481C27.1272 154.323 26.8192 153.712 26.9594 153.12C29.4254 142.665 36.4258 133.696 45.2304 129.717C45.7291 129.491 46.2945 129.771 46.4898 130.343C46.6875 130.914 46.4415 131.558 45.9428 131.784C37.6968 135.512 31.1422 143.909 28.8325 153.699C28.7153 154.195 28.3246 154.52 27.8948 154.52H27.8971Z" fill="#FC9500"/>
<path d="M28.9634 153.166C29.1588 151.722 29.8 151.117 29.1611 150.353C27.6603 148.559 25.1805 146.117 22.7375 146.517C18.9063 147.148 18.5708 151.948 18.5708 151.948L28.5474 154.917L28.9634 153.164V153.166Z" fill="#FC9500"/>
<path d="M66.8799 153.943C65.671 153.473 65.9514 153.325 64.8827 154.127C63.0648 155.489 61.0837 157.052 61.0056 159.876C60.8838 164.302 64.9586 165.507 64.9586 165.507L69.4011 154.777L66.8799 153.943Z" fill="#FC9500"/>
<path d="M68.0521 156.585C67.928 156.603 67.797 156.595 67.6683 156.554C58.3881 153.595 52.0541 144.844 51.5347 134.257C51.5049 133.644 51.9162 133.114 52.4494 133.085C52.9849 133.049 53.4446 133.519 53.4744 134.132C53.9479 143.756 59.7256 151.717 68.1923 154.416C68.7094 154.58 69.0105 155.193 68.8657 155.785C68.7577 156.229 68.4291 156.533 68.0521 156.59V156.585Z" fill="#FC9500"/>
<path d="M5.01136 68.8036C9.09303 64.4944 11.1224 73.157 9.72045 74.6376C8.31852 76.1181 2.07882 71.8998 5.01136 68.8036Z" fill="#FC9500"/>
<path d="M26.0866 88.9496C25.3259 88.9496 24.5766 88.8587 23.8527 88.6665C17.3234 86.9235 11.6491 81.6922 8.28674 74.3154C8.05232 73.7985 8.22699 73.1621 8.67744 72.8946C9.1279 72.627 9.68407 72.8244 9.92079 73.3413C13.0349 80.1727 18.268 85.0118 24.2733 86.6145C28.895 87.8509 35.0819 83.8845 38.3959 79.3389C38.7223 78.8922 39.3037 78.8324 39.6944 79.2038C40.0851 79.5779 40.138 80.2402 39.8116 80.687C36.6676 84.9988 31.1082 88.9496 26.0889 88.9496H26.0866Z" fill="#FC9500"/>
<path d="M85.9255 90.1682C80.373 90.0617 84.1329 82.1913 86.0427 82.2277C87.9525 82.264 89.9175 90.2435 85.9255 90.1682Z" fill="#FC9500"/>
<path d="M86.0746 85.0898C85.6334 85.0898 85.2427 84.7261 85.1668 84.2092C84.0706 76.7181 82.8548 74.6063 77.5229 70.9127C73.4619 68.1023 66.5052 69.6789 62.1247 72.8271C61.6949 73.1362 61.125 72.9881 60.8538 72.4946C60.5826 72.0011 60.7136 71.3517 61.1434 71.0426C65.9306 67.6035 73.632 65.7567 78.4767 69.1101C84.2199 73.0868 85.8103 75.8453 86.9847 83.8612C87.0698 84.4352 86.7296 84.9781 86.2286 85.0742C86.178 85.0846 86.1252 85.0898 86.0746 85.0898Z" fill="#FC9500"/>
<path d="M34.528 14.4211C34.4071 14.4245 34.2876 14.4279 34.1653 14.433C32.9837 14.3169 25.7937 14.1581 22.3276 3.58691C19.2272 5.89376 11.2942 15.1433 11.2942 15.1433C14.7326 16.8696 19.5856 17.0028 20.9989 24.7874C20.9639 25.0554 20.926 25.3338 20.8867 25.6223C21.8541 18.7513 27.322 14.7643 34.528 14.4211Z" fill="#ADD034"/>
<path d="M21.6293 22.6983C19.945 16.1346 15.4416 15.9229 12.197 14.2922C12.197 14.2922 17.4653 8.15028 21.0931 4.62939C17.5163 7.89074 11.2952 15.1442 11.2952 15.1442C14.7335 16.8705 19.5866 17.0037 20.9999 24.7883C20.9649 25.0563 20.927 25.3347 20.8877 25.6232C21.0348 24.5799 21.2869 23.605 21.6307 22.6983H21.6293Z" fill="#DEEDAF"/>
<path d="M31.876 14.0708C29.1428 14.7316 26.7971 16.0071 25.043 17.8444C27.4659 15.78 30.7571 14.6001 34.5277 14.4208C34.4067 14.4243 34.2873 14.4277 34.1649 14.4328C33.824 14.4004 32.9818 14.3611 31.876 14.0708Z" fill="#DEEDAF"/>
<path d="M34.1649 14.433C32.9833 14.3169 25.7933 14.1581 22.3272 3.58691C21.4327 4.25284 20.1345 5.49762 18.7417 6.93022C19.5969 9.68614 22.7293 12.034 24.8419 14.404C25.888 15.5788 25.9332 15.8793 25.5689 17.4195C27.9335 15.618 31.0237 14.5867 34.5277 14.4194C34.4067 14.4228 34.2873 14.4262 34.1649 14.4313V14.433Z" fill="#89B800"/>
<path d="M34.165 14.433C32.9834 14.3169 25.7934 14.1581 22.3274 3.58691C21.9529 3.86524 21.5071 4.24601 21.0146 4.6985C21.8961 8.11694 23.7304 10.8746 26.3456 13.1746C27.3436 13.9942 27.4019 15.1485 27.0537 16.4428C29.1721 15.2458 31.7159 14.5543 34.5263 14.4194C34.4054 14.4228 34.2859 14.4262 34.1635 14.4313L34.165 14.433Z" fill="#6B9C00"/>
<path d="M21.2462 25.6911L20.5236 25.5545L20.6256 24.798C19.5154 18.8183 16.348 17.606 13.2855 16.4346C12.5337 16.1478 11.8242 15.8763 11.1482 15.5365L10.6499 15.2872L11.0345 14.8398C11.3594 14.4608 19.0317 5.53219 22.1306 3.22534L22.5079 2.94531L22.6682 3.43366C24.1485 7.9449 27.3173 13.438 34.0192 13.9895L34.1722 14.0031C34.248 13.9997 34.3237 13.998 34.398 13.9963L34.5175 13.9929L34.5423 14.8501C27.2343 15.1984 22.1393 19.3528 21.2462 25.6928V25.6911ZM11.9466 14.9884C12.4449 15.2104 12.9679 15.4101 13.5142 15.6202C16.3932 16.7215 19.6261 17.9595 21.0394 23.2698C22.4934 18.6698 26.2435 15.4699 31.4332 14.3788C26.2727 12.8642 23.5628 8.2625 22.1539 4.23619C19.3391 6.5345 13.5142 13.1818 11.9466 14.9884Z" fill="#416000"/>
<path d="M34.528 14.4209C27.322 14.7641 21.8541 18.7512 20.8867 25.6222C20.2792 30.1369 19.3919 37.4433 22.3524 51.7556C25.5023 66.9849 28.1933 76.407 24.9122 89.3294C21.6312 102.252 2.20435 132.864 2.20435 132.864C2.4666 134.71 6.27358 144.863 6.27358 144.863C15.5936 151.785 65.4268 150.54 74.8241 87.7517C79.2765 58.0034 65.3831 13.4545 34.528 14.4192V14.4209Z" fill="#FDD42C"/>
<path d="M7.60523 144.636C7.60523 144.636 2.85851 134.814 2.59481 132.969C2.59481 132.969 22.9614 102.023 26.2439 89.1027C29.5249 76.1802 26.8339 66.7582 23.684 51.5289C20.7235 37.2166 21.2174 30.2089 21.825 25.6943C22.6263 20.0117 28.218 15.4065 33.868 14.8943C26.8674 14.8943 21.7507 19.4909 20.8867 25.6243C20.2792 30.1389 19.3919 37.4454 22.3524 51.7577C25.5023 66.987 28.1933 76.4091 24.9122 89.3315C21.6312 102.254 2.20435 132.866 2.20435 132.866C2.4666 134.712 6.27358 144.865 6.27358 144.865C9.50654 147.266 17.613 148.683 27.2157 146.892C18.2001 148.319 10.6867 146.924 7.60523 144.634V144.636Z" fill="#FEF4CA"/>
<path d="M5.68436 140.104L4.83496 138.089C43.7659 130.564 59.4003 98.1022 57.5821 68.7535C56.1557 45.7448 48.246 30.5702 31.9049 18.7935C31.9049 18.7935 43.3478 21.8875 52.8208 40.1442C56.9702 48.2958 59.5154 58.6553 60.1842 69.4416C61.2026 85.8713 56.7327 102.793 47.9663 115.478C38.2703 129.505 23.2405 137.329 5.68436 140.105V140.104Z" fill="#F3AE1F"/>
<path d="M45.6329 18.3154C49.4705 21.6946 52.7574 24.1295 56.0865 28.0312C54.2915 27.1228 52.466 27.1637 51.1416 26.3288C52.501 28.1609 53.7787 30.186 54.8685 32.3153C53.7102 31.4974 52.3392 31.6665 50.1087 30.6044C51.4797 32.3665 51.7477 33.3296 52.4296 35.7423C51.6778 35.0524 50.9304 34.7519 49.7488 34.3131C57.6454 46.8326 61.062 62.5878 60.6642 79.2548C59.9226 89.2659 56.7436 113.502 32.3529 130.27C30.2826 131.694 20.5663 138.085 8.47949 139.569C8.6922 140.141 6.27368 144.861 6.27368 144.861C15.5937 151.783 65.4269 150.538 74.8242 87.7496C78.6866 61.9457 68.0392 25.6184 45.6329 18.3103V18.3154Z" fill="#E89E0F"/>
<path d="M18.6868 148.127C12.9727 148.127 8.40518 146.954 6.07698 145.226L5.98228 145.156L5.93712 145.036C5.78122 144.619 2.10973 134.813 1.84165 132.935L1.81543 132.756L1.90867 132.609C2.10245 132.303 21.3341 101.909 24.5597 89.2073C27.4736 77.7294 25.6743 69.2431 22.9498 56.3958C22.6409 54.9376 22.3204 53.4281 21.9955 51.8572C18.9593 37.1778 19.9777 29.6169 20.524 25.5547C21.4769 18.7879 26.8369 14.3586 34.5121 13.9915H34.5179C45.1769 13.6568 54.7141 18.7862 62.1007 28.8195C72.8238 43.3846 78.2029 67.6483 75.1826 87.8259C70.2013 121.11 54.1692 135.86 41.5958 142.371C33.5593 146.534 25.3436 148.127 18.6854 148.127H18.6868ZM6.56214 144.57C9.10888 146.394 14.2286 147.421 19.9718 147.252C24.9968 147.106 32.7769 146.003 41.3015 141.589C53.7117 135.162 69.5384 120.591 74.4629 87.6791C77.4482 67.7371 72.1362 43.7636 61.5471 29.3813C54.309 19.5494 44.9729 14.5174 34.5398 14.8503C27.2332 15.2004 22.1412 19.3548 21.2481 25.693C20.6726 29.9738 19.7067 37.1436 22.708 51.6557C23.0329 53.2249 23.3519 54.7327 23.6608 56.1892C26.3154 68.7069 28.2341 77.7499 25.262 89.4515C22.0844 101.966 4.25289 130.345 2.59489 132.966C2.94019 134.683 5.28732 141.163 6.56214 144.57Z" fill="#9F5407"/>
<path d="M7.24117 140.213L7.14355 139.364C46.1808 133.19 62.0032 98.7903 60.185 69.4416C58.7586 46.4329 49.2448 29.392 31.9057 18.7952C31.9057 18.7952 44.2023 22.6934 53.6753 40.9501C57.8247 49.1018 60.2461 58.5938 60.9149 69.3802C61.9333 85.8098 57.6659 101.843 48.8995 114.527C39.2035 128.556 24.7988 137.436 7.24263 140.215L7.24117 140.213Z" fill="#9F5407"/>
<path d="M18.8927 12.1135C22.0105 8.87153 23.48 4.84581 22.1748 3.12177C20.8697 1.39773 17.2842 2.62824 14.1663 5.87018C11.0485 9.11212 9.57902 13.1378 10.8842 14.8619C12.1893 16.5859 15.7748 15.3554 18.8927 12.1135Z" fill="#74421D"/>
<path d="M14.6619 6.47242C17.5481 3.47062 20.8349 2.1951 22.3429 3.39207C22.2919 3.29645 22.2365 3.20424 22.1724 3.12058C20.867 1.39599 17.2814 2.6271 14.1636 5.86796C11.0457 9.11052 9.57714 13.1351 10.8826 14.8597C10.9787 14.9878 11.0894 15.0971 11.2104 15.1927C10.2255 13.3451 11.6984 9.55618 14.6619 6.47242Z" fill="#AC8F78"/>
<path d="M22.172 3.12036C21.9826 2.87107 21.7451 2.68495 21.4683 2.55518C21.7684 4.56492 20.3202 7.7665 17.7516 10.4388C15.0854 13.21 12.0798 14.5095 10.448 13.7513C10.5121 14.1799 10.6534 14.5556 10.8836 14.8595C12.189 16.5841 15.7746 15.353 18.8924 12.1104C22.0103 8.86784 23.4789 4.84324 22.1735 3.11865L22.172 3.12036Z" fill="#512508"/>
<path d="M22.1719 3.12065C22.0073 2.9038 21.8077 2.73305 21.576 2.6084C22.5376 4.46275 21.0661 8.23635 18.1129 11.3065C15.3884 14.1409 12.3055 15.4369 10.7 14.5661C10.7539 14.6703 10.8136 14.7676 10.8821 14.8598C12.1875 16.5844 15.773 15.3533 18.8909 12.1107C22.0087 8.86813 23.4773 4.84353 22.1719 3.11894V3.12065Z" fill="#461800"/>
<path d="M12.647 16.0705C11.7743 16.0705 11.0735 15.758 10.6102 15.145C9.88027 14.1803 9.85113 12.6247 10.5301 10.7653C11.1711 9.00993 12.376 7.15729 13.9233 5.54881C17.2422 2.09793 20.9865 0.906089 22.4478 2.83728C23.9092 4.76677 22.4537 8.98261 19.1362 12.4335C17.5889 14.042 15.8756 15.2236 14.3123 15.7597C13.7091 15.9663 13.1496 16.0688 12.6485 16.0688L12.647 16.0705ZM20.411 2.76386C18.8215 2.76386 16.4831 4.03083 14.407 6.18913C12.9384 7.71564 11.8005 9.46072 11.2017 11.1016C10.6495 12.6162 10.6321 13.8832 11.1566 14.5747C11.6811 15.268 12.7563 15.3994 14.1054 14.9367C15.5667 14.4347 17.181 13.318 18.6496 11.7915C21.5606 8.76405 23.0496 4.92386 21.9 3.40418C21.5693 2.96876 21.0521 2.76215 20.4125 2.76215L20.411 2.76386Z" fill="#331400"/>
<path d="M11.9714 13.7275C12.1404 13.8983 12.3837 13.8966 12.5964 13.9C13.2535 13.8641 13.8873 13.6148 14.4846 13.3075C16.8274 11.9995 18.8482 9.80368 20.1711 7.19972C20.5338 6.40231 20.9811 5.37269 20.8369 4.50015C18.8831 4.09205 15.9678 6.63624 14.6434 8.29424C14.0636 9.02847 13.5347 9.84124 13.1136 10.7018C12.8791 11.2141 12.627 11.7315 12.6227 12.2642C12.6256 12.341 12.6445 12.3325 12.6329 12.3325C12.6372 12.3257 12.6285 12.3376 12.6533 12.3376C12.745 12.3615 12.8631 12.341 12.9665 12.3086C15.0995 11.5095 18.0541 8.29765 19.326 6.12741C19.3756 6.02837 19.4237 5.91738 19.4397 5.84567C19.4572 5.80127 19.4237 5.8081 19.4805 5.89006C19.5519 5.94812 19.5417 5.91567 19.5111 5.92421C19.3625 5.95495 19.1541 6.0813 18.9749 6.19912C17.282 7.38926 15.774 8.91577 14.2136 10.3518C15.4972 8.91577 16.8012 7.51561 18.2173 6.25376C18.6194 5.92933 18.9356 5.61174 19.4382 5.43757C19.6786 5.36927 19.9088 5.56563 19.8753 5.8764C19.852 6.06935 19.7821 6.2401 19.7194 6.38012C18.516 8.70916 15.2204 12.505 12.9374 13.1419C12.4609 13.2699 11.951 12.9438 11.9248 12.353C11.8854 11.588 12.222 10.8914 12.493 10.2869C13.3919 8.41205 14.6799 6.85822 16.1761 5.63564C17.3009 4.72383 18.551 3.93496 19.9321 3.69762C20.3998 3.65664 20.9753 3.56614 21.3439 4.03741C21.8349 5.04826 21.0991 6.6499 20.6606 7.53439C19.2051 10.2152 17.059 12.3445 14.5575 13.5141C13.931 13.7839 13.2681 13.9973 12.595 13.9615C12.3793 13.9376 12.1302 13.9119 11.9714 13.7241V13.7275Z" fill="#331400"/>
<path d="M2.20422 132.865C2.20422 132.865 0.0581453 136.12 0.769133 138.865C1.26158 140.769 3.05216 142.977 6.27346 144.866C8.49383 146.127 8.6439 142.096 8.47926 139.574C8.32483 136.617 6.04472 133.097 2.20422 132.867V132.865Z" fill="#74421D"/>
<path d="M1.2538 139.291C0.544267 136.545 2.83312 133.299 2.83312 133.299C3.90106 133.364 4.84661 133.681 5.66104 134.171C4.7184 133.439 3.55868 132.945 2.20227 132.865C2.20227 132.865 0.0561922 136.12 0.767179 138.865C1.2028 140.552 2.6612 142.477 5.22688 144.207C3.0065 142.591 1.65446 140.838 1.2538 139.292V139.291Z" fill="#AC8F78"/>
<path d="M8.00001 137.381C5.54361 138.039 3.16297 138.573 0.756104 138.807C0.760474 138.826 0.763389 138.845 0.769217 138.863C1.26166 140.767 3.05224 142.975 6.27354 144.864C8.49392 146.126 8.64398 142.094 8.47935 139.572C8.44147 138.857 8.27975 138.109 8.00147 137.383L8.00001 137.381Z" fill="#512508"/>
<path d="M8.46748 139.419C6.01544 139.772 3.67414 140.044 1.25562 140.104C2.05111 141.731 3.64791 143.326 6.27332 144.864C8.4937 146.126 8.64376 142.095 8.47913 139.573C8.47622 139.521 8.47185 139.47 8.46748 139.419Z" fill="#461800"/>
<path d="M7.04129 145.534C6.75573 145.534 6.44541 145.44 6.11322 145.25C3.05947 143.461 0.98479 141.179 0.418039 138.989C-0.338113 136.065 1.82253 132.743 1.91432 132.603L2.03087 132.425L2.22173 132.437C6.14527 132.673 8.67015 136.236 8.84207 139.545C8.95572 141.277 8.9732 144.328 7.81202 145.255C7.58036 145.44 7.32248 145.532 7.04129 145.532V145.534ZM2.382 133.308C1.96677 134.006 0.562276 136.59 1.11883 138.739C1.6273 140.705 3.56503 142.798 6.43666 144.48C7.04858 144.828 7.31374 144.617 7.40116 144.547C8.0087 144.062 8.28115 142.168 8.1136 139.603C7.96208 136.719 5.78395 133.622 2.382 133.306V133.308Z" fill="#331400"/>
<path d="M23.1639 35.9368C23.853 39.7257 24.4154 43.4515 25.1395 47.1944C26.4405 53.4097 27.794 59.6899 27.9397 66.1358C27.2011 63.6889 26.5527 61.2438 25.9452 58.7833C25.0535 55.0592 24.1619 51.3778 23.5558 47.5649C23.0196 43.7247 22.8171 39.8162 23.1639 35.9385V35.9368Z" fill="#FEF4CA"/>
<path d="M28.2062 87.6042C28.2062 90.0904 27.6278 92.5748 26.9649 94.9209C24.8785 101.973 21.3367 108.356 17.1655 113.953C16.3438 114.993 15.5133 116.022 14.6377 117.001C15.2234 115.753 15.8528 114.552 16.4924 113.365C19.4354 107.717 22.4819 102.147 25.0315 96.2391C26.2364 93.4354 27.402 90.6163 28.2062 87.6042Z" fill="#FEF4CA"/>
<path d="M43.9262 48.1743C44.0981 49.0622 44.8135 48.8061 45.9849 47.8892C47.2685 46.8851 48.8667 46.6085 50.2727 47.16C50.7607 47.3513 51.0842 47.5357 51.0842 47.5357C48.5753 43.2772 43.5518 46.4224 43.9277 48.1743H43.9262Z" fill="#884300"/>
<path d="M54.8524 59.9804C55.2487 64.4114 53.3925 68.5094 50.3694 68.8372C47.3462 69.1668 44.8694 65.7603 44.53 61.0664C44.1351 56.6371 45.9927 52.5442 49.0144 52.2163C52.023 51.7177 54.4313 55.2113 54.8524 59.9804Z" fill="#F3AE1F"/>
<path d="M54.3928 60.7233C54.7541 64.7854 53.083 68.5402 50.3556 68.8391C47.6282 69.1379 45.3918 66.0114 45.0814 61.7085C44.7216 57.648 46.3942 53.8966 49.1201 53.5978C51.8344 53.1436 54.0096 56.3503 54.3942 60.7233H54.3928Z" fill="#E89E0F"/>
<path d="M54.0568 61.3857C54.389 65.1166 52.8534 68.5658 50.3489 68.839C47.8444 69.1122 45.7901 66.2419 45.5046 62.2907C45.1738 58.5615 46.7094 55.1157 49.2125 54.8425C51.7053 54.4259 53.7028 57.3696 54.0568 61.3874V61.3857Z" fill="white"/>
<path d="M54.057 61.3862C53.7525 57.92 52.2213 55.2597 50.2078 54.8601C51.7128 55.8061 52.8011 58.1146 53.0517 60.9764C53.3839 64.7073 51.8483 68.1548 49.3438 68.4297C49.0233 68.4638 48.7086 68.4468 48.4055 68.3819C49.0014 68.7439 49.657 68.9163 50.3491 68.8395C52.8536 68.5663 54.3892 65.1171 54.057 61.3862Z" fill="#BABABA"/>
<path d="M45.5064 62.2907C44.9776 59.224 46.1344 54.6939 49.1969 54.349C52.3307 53.9392 54.0412 58.2831 54.0587 61.3857C53.6318 58.5751 52.2186 54.9142 49.3353 55.2608C46.4986 55.6228 45.4394 59.3674 45.5079 62.2907H45.5064Z" fill="#9F5407"/>
<path d="M53.4189 62.9901C53.4262 65.5463 52.0989 67.7609 50.2675 67.7473C48.4361 67.7336 47.1293 65.6231 47.1686 62.9218C47.1628 60.3674 48.49 58.1528 50.32 58.1681C52.1513 58.0845 53.4145 60.2393 53.4189 62.9918V62.9901Z" fill="#2A0800"/>
<path d="M52.2443 62.9752C52.2487 64.57 51.4197 65.9531 50.2775 65.9429C49.1352 65.9343 48.3179 64.6179 48.3441 62.9308C48.3397 61.336 49.1687 59.9546 50.311 59.9632C51.4547 59.9102 52.2414 61.2558 52.2443 62.9735V62.9752Z" fill="black"/>
<path d="M52.2782 61.3207C52.2826 62.2069 51.8367 63.0163 51.2132 63.0487C50.5867 63.0317 50.103 62.3675 50.0899 61.3344C50.0855 60.4482 50.5313 59.6389 51.1549 59.6064C51.7785 59.574 52.2709 60.3867 52.2782 61.3207Z" fill="#BFB0AB"/>
<path d="M50.1636 64.7376C50.1665 65.4103 49.8285 66.025 49.355 66.049C48.8801 66.0353 48.5129 65.5316 48.5027 64.7478C48.4998 64.0751 48.8378 63.4604 49.3113 63.4365C49.7848 63.4126 50.1578 64.029 50.1636 64.7376Z" fill="#85685F"/>
<path d="M46.1177 67.0197L49.9407 69.9618L54.211 66.6782C50.7668 65.4966 47.9199 66.2035 46.1177 67.0214V67.0197Z" fill="#FDD42C"/>
<path d="M45.5698 67.3206C48.086 65.2545 51.6424 65.1333 54.5475 66.8339C54.1672 66.7486 53.8074 66.5983 53.4271 66.542C50.8075 65.9529 48.067 66.3524 45.5698 67.3206Z" fill="#9F5407"/>
<path style="mix-blend-mode:multiply" opacity="0.9" d="M54.8904 69.4778C54.9151 70.8063 52.7195 71.9161 49.9878 71.9554C47.256 71.9947 45.0225 70.9514 44.9992 69.6213C44.9759 68.2928 47.17 67.1846 49.9018 67.1437C52.6321 67.1044 54.8656 68.1477 54.8904 69.4761V69.4778Z" fill="url(#paint0_radial_10_704)"/>
<path d="M51.8987 68.6122C51.9118 68.7676 51.8084 68.9059 51.6671 68.9196C51.5258 68.9332 51.399 68.8188 51.3859 68.6634C51.3728 68.5081 51.4762 68.3697 51.6175 68.3561C51.7589 68.3424 51.8856 68.4568 51.8987 68.6122Z" fill="#9F5407"/>
<path d="M48.305 68.7779C48.3167 68.9111 48.2278 69.0289 48.1069 69.0408C47.986 69.0528 47.8782 68.9538 47.8665 68.8206C47.8549 68.6874 47.9437 68.5696 48.0646 68.5576C48.1856 68.5457 48.2934 68.6447 48.305 68.7779Z" fill="#9F5407"/>
<path d="M50.3895 70.347C50.4012 70.4802 50.3123 70.598 50.1914 70.6099C50.0704 70.6219 49.9626 70.5229 49.951 70.3897C49.9393 70.2565 50.0282 70.1387 50.1491 70.1267C50.27 70.1148 50.3779 70.2138 50.3895 70.347Z" fill="#9F5407"/>
<path d="M50.5489 69.2093C50.5576 69.3066 50.4935 69.392 50.4046 69.4005C50.3158 69.4091 50.2371 69.3374 50.2298 69.24C50.2211 69.1427 50.2852 69.0573 50.374 69.0488C50.4629 69.0402 50.5401 69.112 50.5489 69.2093Z" fill="#9F5407"/>
<path d="M48.9688 70.0039C48.976 70.0824 48.9236 70.1507 48.8522 70.1575C48.7808 70.1644 48.7182 70.1063 48.7109 70.0295C48.7036 69.9509 48.756 69.8826 48.8274 69.8758C48.8988 69.869 48.9615 69.927 48.9688 70.0039Z" fill="#9F5407"/>
<path d="M47.4946 70.3913C47.5019 70.4699 47.4495 70.5381 47.3781 70.545C47.3067 70.5518 47.244 70.4938 47.2368 70.4169C47.2295 70.3384 47.2819 70.2701 47.3533 70.2632C47.4247 70.2564 47.4874 70.3145 47.4946 70.3913Z" fill="#9F5407"/>
<path d="M27.1887 52.68C27.1887 52.68 27.3956 52.4137 27.7278 52.0841C28.685 51.1347 29.9715 50.8171 31.1764 51.2218C32.2749 51.5906 32.8795 51.5599 32.8169 50.754C32.7193 49.1489 28.1765 48.2268 27.1887 52.68Z" fill="#884300"/>
<path d="M37.0105 61.7548C37.8074 65.8597 36.4364 70.0021 33.6012 70.7807C30.766 71.5594 28.094 68.7403 27.3262 64.381C26.5307 60.2778 27.9017 56.1388 30.7354 55.3602C33.54 54.4245 36.1567 57.3358 37.009 61.7548H37.0105Z" fill="#F3AE1F"/>
<path d="M36.6591 62.6582C37.3774 66.3516 36.1433 70.0791 33.5922 70.7808C31.0411 71.4809 28.6372 68.9453 27.9451 65.0214C27.2298 61.3281 28.4638 57.604 31.0134 56.9039C33.5383 56.0604 35.8913 58.6814 36.6591 62.6599V62.6582Z" fill="#E89E0F"/>
<path d="M36.3331 63.5109C36.9756 66.8184 35.8713 70.1566 33.5868 70.7849C31.3023 71.4116 29.1489 69.1406 28.5297 65.6265C27.8887 62.3191 28.9945 58.9843 31.2775 58.356C33.5387 57.6012 35.6469 59.9474 36.3331 63.5109Z" fill="white"/>
<path d="M31.6413 58.2638C33.3664 58.5848 34.8306 60.6543 35.3828 63.511C36.0253 66.8184 34.9209 70.1566 32.635 70.7832C32.5359 70.8106 32.4383 70.8242 32.3407 70.8413C32.7457 70.913 33.1624 70.8976 33.5849 70.7815C35.8694 70.1532 36.9752 66.8167 36.3312 63.5075C35.6814 60.1386 33.7597 57.8608 31.6399 58.2621L31.6413 58.2638Z" fill="#BABABA"/>
<path d="M28.5294 65.6249C27.7019 62.8724 28.493 58.6651 31.2248 57.8762C34.0716 56.9781 36.0735 60.6031 36.3328 63.5093C35.7398 61.5166 34.7549 59.5683 33.008 58.8512C32.4646 58.6395 31.8906 58.6173 31.3297 58.8085C28.8674 59.5427 28.2293 62.9663 28.528 65.6249H28.5294Z" fill="#9F5407"/>
<path d="M35.829 64.558C36.3914 66.7966 35.711 69.1547 34.1083 69.7181C32.5042 70.2816 30.9031 68.8422 30.3509 66.4619C29.7899 64.2234 30.4689 61.867 32.073 61.3035C33.6552 60.6547 35.2287 62.1487 35.8304 64.558H35.829Z" fill="#2A0800"/>
<path d="M34.892 64.8821C35.2621 66.3557 34.8148 67.9061 33.76 68.2766C32.7051 68.6472 31.6503 67.7012 31.2875 66.1337C30.9189 64.6601 31.3647 63.1097 32.4196 62.7392C33.4613 62.3123 34.4957 63.2941 34.892 64.8821Z" fill="black"/>
<path d="M34.4653 63.6275C34.6066 64.4198 34.3342 65.2513 33.7835 65.4289C33.2225 65.5621 32.6878 65.084 32.5174 64.1619C32.3761 63.3696 32.6485 62.5381 33.1992 62.3622C33.7499 62.1846 34.3138 62.7942 34.4653 63.6292V63.6275Z" fill="#BFB0AB"/>
<path d="M33.1091 67.1889C33.2169 67.79 33.01 68.4217 32.5919 68.5549C32.1665 68.6574 31.7614 68.292 31.6318 67.5936C31.5239 66.9926 31.7308 66.3608 32.149 66.2276C32.5671 66.0927 32.9955 66.5554 33.1106 67.1889H33.1091Z" fill="#85685F"/>
<path d="M29.3137 70.2523L33.211 72.1852L36.9219 68.3757C33.5141 67.9164 30.9134 69.1322 29.3137 70.2523Z" fill="#FDD42C"/>
<path style="mix-blend-mode:multiply" opacity="0.9" d="M38.0187 70.6672C38.2023 71.8847 36.3214 73.307 33.8183 73.8415C31.3153 74.376 29.1386 73.821 28.9565 72.6036C28.7744 71.3861 30.6539 69.9655 33.1554 69.431C35.657 68.8966 37.8337 69.4498 38.0172 70.6689L38.0187 70.6672Z" fill="url(#paint1_radial_10_704)"/>
<path d="M35.1675 70.4165C35.1995 70.5582 35.1209 70.7034 34.9926 70.7427C34.8644 70.7819 34.7348 70.6983 34.7027 70.5582C34.6707 70.4165 34.7493 70.2714 34.8775 70.2321C35.0058 70.1928 35.1354 70.2765 35.1675 70.4165Z" fill="#9F5407"/>
<path d="M31.8895 71.223C31.9172 71.3442 31.8487 71.4689 31.7394 71.5013C31.6302 71.5337 31.518 71.4637 31.4917 71.3425C31.4641 71.2213 31.5325 71.0966 31.6418 71.0642C31.7511 71.03 31.8633 71.1017 31.8895 71.223Z" fill="#9F5407"/>
<path d="M33.9933 72.2874C34.0209 72.4087 33.9525 72.5333 33.8432 72.5658C33.7339 72.5982 33.6217 72.5282 33.5955 72.407C33.5678 72.2857 33.6363 72.1611 33.7456 72.1286C33.8548 72.0945 33.967 72.1662 33.9933 72.2874Z" fill="#9F5407"/>
<path d="M34.0006 71.2128C34.021 71.2999 33.9715 71.3921 33.8913 71.416C33.8112 71.4399 33.7311 71.3887 33.7107 71.2999C33.6917 71.2128 33.7398 71.1206 33.8199 71.0967C33.9001 71.0728 33.9802 71.124 34.0006 71.2111V71.2128Z" fill="#9F5407"/>
<path d="M32.6471 72.2318C32.6631 72.3018 32.6238 72.3752 32.5597 72.394C32.4956 72.4128 32.43 72.3718 32.4154 72.3018C32.3994 72.2318 32.4388 72.1583 32.5029 72.1396C32.567 72.1208 32.6325 72.1618 32.6471 72.2318Z" fill="#9F5407"/>
<path d="M31.3422 72.8563C31.3582 72.9263 31.3189 72.9997 31.2547 73.0202C31.1906 73.039 31.1251 72.998 31.1105 72.928C31.0945 72.858 31.1338 72.7846 31.1979 72.7658C31.262 72.747 31.3276 72.788 31.3422 72.858V72.8563Z" fill="#9F5407"/>
<path d="M28.8359 70.6501C31.0534 69.1356 33.6162 68.4884 36.1687 68.4457L36.9234 68.3774L36.2998 68.2579C33.7954 67.5527 30.9995 68.3586 28.8359 70.6501Z" fill="#9F5407"/>
<path d="M35.0203 76.3353C35.0203 76.3353 37.194 79.6735 42.4463 78.8505C48.0074 77.978 49.4877 74.4998 49.4877 74.4998C49.4877 74.4998 50.5673 84.8268 43.7095 86.6777C37.2902 88.4108 35.1048 79.1937 35.0203 76.337V76.3353Z" fill="#670E00"/>
<path d="M49.4878 74.4976C49.4878 74.4976 48.0076 77.9758 42.4464 78.8483C41.5023 78.9969 40.6588 79.0088 39.9084 78.932C41.3202 80.7658 41.0944 84.1979 40.4606 86.5816C41.3974 86.9351 42.4741 87.0085 43.7096 86.6755C50.5689 84.8246 49.4878 74.4976 49.4878 74.4976Z" fill="#350000"/>
<path d="M43.7091 86.6764C47.4505 85.6672 48.8303 82.1327 49.311 79.1309C42.344 78.3591 40.4019 84.3576 39.9517 86.3571C41.0007 86.8966 42.2449 87.0725 43.7091 86.6764Z" fill="#FF787A"/>
<path d="M45.283 81.0415C45.4681 81.3352 45.133 81.9943 44.5327 82.5117C43.9339 83.0291 43.2972 83.2101 43.1122 82.9147C42.9272 82.621 43.2622 81.9619 43.8625 81.4445C44.4613 80.9271 45.098 80.7461 45.283 81.0415Z" fill="#FFADAE"/>
<path d="M41.9725 87.3145C41.2105 87.2872 40.485 87.0977 39.8046 86.7476L39.5176 86.6008L39.5977 86.2456C40.0421 84.2717 42.0643 77.901 49.3446 78.7035L49.7438 78.7479L49.6695 79.209C49.1888 82.2108 47.7784 86.0168 43.7908 87.0926C43.1643 87.2616 42.5568 87.335 41.9711 87.3145H41.9725ZM40.3932 86.1022C41.3737 86.5205 42.4591 86.5735 43.6262 86.2576C47.0267 85.3389 48.3598 82.1835 48.8682 79.518C42.8758 79.0741 40.9366 84.031 40.3932 86.1005V86.1022Z" fill="#C7383B"/>
<path d="M49.8579 74.5287L49.2504 74.1001L49.1615 74.305C49.1469 74.3374 47.6711 77.5971 42.3969 78.4252C37.4448 79.2021 35.3978 76.2089 35.3089 76.074L35.204 75.9118L34.6489 76.1901L34.6533 76.3506C34.713 78.3689 35.7387 83.3497 38.5302 85.8631C39.5559 86.7869 40.704 87.2718 41.9613 87.3179C42.547 87.3401 43.1575 87.265 43.7883 87.0942C50.5689 85.2638 49.9352 75.4934 49.855 74.5304L49.8579 74.5287ZM43.6266 86.2576C41.8622 86.734 40.2989 86.372 38.976 85.1818C36.8474 83.266 35.8116 79.6615 35.4925 77.4605C36.5604 78.4491 38.7925 79.8544 42.4931 79.2739C46.3219 78.6728 48.2844 76.8714 49.1775 75.712C49.2111 78.3911 48.7477 84.8745 43.6266 86.2576Z" fill="#9F5407"/>
<path d="M48.2727 73.188L49.8141 74.1903C50.2876 74.5011 50.92 74.8596 51.3556 75.2387C50.1114 75.6485 48.5422 74.7162 48.2712 73.188H48.2727Z" fill="#9F5407"/>
<path d="M33.1167 77.1071C34.342 76.2039 35.5061 75.4782 36.507 74.2266C36.4429 76.1082 34.6188 77.4128 33.1167 77.1071Z" fill="#9F5407"/>
<defs>
<radialGradient id="paint0_radial_10_704" cx="0" cy="0" r="1" gradientUnits="userSpaceOnUse" gradientTransform="translate(51.0739 69.5889) rotate(-0.843812) scale(4.9619 2.4082)">
<stop stop-color="#F4C0D0"/>
<stop offset="0.38" stop-color="#F7D5DF"/>
<stop offset="1" stop-color="white"/>
</radialGradient>
<radialGradient id="paint1_radial_10_704" cx="0" cy="0" r="1" gradientUnits="userSpaceOnUse" gradientTransform="translate(37.4438 70.587) rotate(-12.0351) scale(4.60053 2.22906)">
<stop stop-color="#F4C0D0"/>
<stop offset="0.38" stop-color="#F7D5DF"/>
<stop offset="1" stop-color="white"/>
</radialGradient>
</defs>
</svg>
