<svg width="191" height="221" viewBox="0 0 191 221" fill="none" xmlns="http://www.w3.org/2000/svg">
<path d="M144.354 179.307C149.465 182.697 156.026 186.132 161.15 182.76C162.974 181.559 164.27 179.652 165.514 177.797C169.657 171.622 174.638 167.685 175.747 160.824C176.5 156.166 176.126 151.911 175.798 147.198C175.321 140.361 177.958 130.526 177.986 123.67C178.075 101.9 165.236 99.0546 160.201 88.3369C159.13 86.0571 154.532 84.0423 152.388 82.896C151.088 82.1999 149.618 81.8402 148.444 80.9254C146.292 79.2492 143.566 70.5841 141.01 69.7702C139.403 69.2592 137.684 69.9658 136.216 70.8302C131.091 73.844 127.109 78.9799 125.305 84.8982C130.305 95.9524 132.611 108.576 134.916 120.591L144.354 179.309V179.307Z" fill="#6EAB06"/>
<path d="M175.818 86.3433C182.099 84.095 180.631 93.888 178.471 94.6605C176.311 95.433 171.303 87.9576 175.818 86.3433Z" fill="#3C690C"/>
<path d="M158.498 128.597C158.073 128.597 157.668 128.335 157.487 127.894C157.247 127.304 157.503 126.618 158.061 126.361C171.265 120.318 179.257 103.912 176.255 89.0116C176.128 88.3819 176.507 87.7626 177.101 87.6282C177.693 87.4939 178.28 87.8948 178.407 88.5246C181.619 104.473 173.064 122.033 158.933 128.501C158.791 128.566 158.642 128.597 158.498 128.597Z" fill="#3C690C"/>
<path d="M95.0753 184.712C91.7232 187.161 87.8791 187.724 84.4691 185.369C81.0592 183.015 78.6113 178.697 75.4305 176.001C72.648 173.643 70.6283 171.093 67.794 168.808C59.0502 161.758 55.5446 152.543 56.7437 140.887C57.383 134.679 58.7036 128.515 57.8511 122.337C57.0942 116.851 50.9018 112.181 52.0331 106.771C53.0729 101.802 57.4109 98.4776 59.5999 93.9582C61.506 90.0247 62.3924 84.5476 66.3918 83.4177C70.5646 82.2375 73.9367 86.9858 75.9802 91.06C78.3066 95.7033 80.635 100.345 82.9614 104.988L95.0773 184.714L95.0753 184.712Z" fill="#6EAB06"/>
<path d="M92.2028 188.233C92.2468 187.913 94.8596 188.394 94.8636 188.07L102.85 185.913C101.495 181.439 92.3468 182.423 87.8928 181.397C86.2495 181.019 80.3042 176.61 79.1607 175.298C77.9293 173.886 77.7833 171.781 77.0437 170.023C74.8107 164.719 68.0437 163.779 64.1595 159.693C59.5596 154.855 60.0034 146.898 61.3248 140.16C62.6462 133.424 64.4653 126.132 61.6886 119.918C60.2952 116.802 57.2026 113.712 56.7308 110.211C56.0931 105.487 59.3177 104.235 60.731 100.335C61.5906 97.9664 61.4587 95.0558 60.6631 92.3252C60.3692 93.0701 60.0673 93.8004 59.7335 94.4846C57.5365 98.9875 53.1824 102.3 52.1389 107.25C51.0014 112.64 54.178 117.915 54.9376 123.381C55.7933 129.537 53.5503 135.651 52.9086 141.836C51.7051 153.449 56.6289 165.566 65.4049 172.59C68.2496 174.867 71.4422 176.627 74.2329 178.976C77.4255 181.663 80.0603 185.093 83.4828 187.436C86.8413 189.738 88.8544 190.502 92.2028 188.235V188.233Z" fill="#98D019"/>
<path d="M74.9741 128.687C74.8556 128.687 74.737 128.666 74.6185 128.624C60.0188 123.399 50.1504 106.699 52.1534 90.6066C52.2318 89.9715 52.7843 89.5244 53.389 89.6079C53.9917 89.6915 54.4176 90.2744 54.3393 90.9075C52.4689 105.942 61.6883 121.545 75.3297 126.43C75.9063 126.637 76.2137 127.295 76.0188 127.901C75.8621 128.384 75.4342 128.689 74.9761 128.689L74.9741 128.687Z" fill="#3C690C"/>
<g opacity="0.4">
<path d="M117.717 220.504C139.242 220.504 156.691 218.463 156.691 215.944C156.691 213.426 139.242 211.385 117.717 211.385C96.1913 211.385 78.7417 213.426 78.7417 215.944C78.7417 218.463 96.1913 220.504 117.717 220.504Z" fill="#848384"/>
</g>
<path d="M102.858 214.823C102.814 213.486 102.19 212.247 101.169 211.46C99.4323 210.123 96.6166 208.429 94.3082 209.269C90.6883 210.587 91.1396 214.972 91.1396 214.972L102.858 214.823Z" fill="#3C690C"/>
<path d="M101.193 213.895C100.9 213.895 100.609 213.755 100.421 213.486C95.7361 206.817 96.4541 196.623 102.019 190.762C102.396 190.365 103.004 190.367 103.377 190.766C103.752 191.165 103.75 191.809 103.373 192.204C98.4576 197.378 97.8238 206.38 101.961 212.268C102.278 212.72 102.19 213.356 101.765 213.692C101.592 213.828 101.392 213.893 101.191 213.893L101.193 213.895Z" fill="#3C690C"/>
<path d="M146.792 210.59C144.841 208.826 142.183 208.146 139.719 208.895C138.688 209.208 137.703 209.767 136.989 210.72C134.611 213.898 137.019 217.156 137.019 217.156L146.876 210.663L146.792 210.587V210.59Z" fill="#3C690C"/>
<path d="M144.418 211.226C144.281 211.226 144.145 211.194 144.012 211.131C140.304 209.3 137.46 206.133 135.79 201.97C134.212 198.04 133.845 193.499 134.757 189.186C134.873 188.638 135.387 188.293 135.904 188.415C136.422 188.537 136.749 189.083 136.632 189.631C134.901 197.822 138.349 206.089 144.827 209.286C145.308 209.523 145.515 210.128 145.292 210.638C145.13 211.007 144.783 211.226 144.422 211.226H144.418Z" fill="#3C690C"/>
<path d="M72.4802 123.234C68.8724 116.284 72.119 105.892 75.3216 101.343C77.4606 98.305 79.5996 95.2665 81.7406 92.2302C83.6669 89.4962 85.6434 86.709 88.2901 84.8012C95.281 79.7634 104.547 82.1566 112.941 81.6307C118.838 81.2624 124.936 79.378 130.507 81.4987C134.303 82.9423 137.321 86.0809 140.893 88.0845C145.046 90.4161 150.123 91.3572 153.119 95.2388C155.759 98.6627 156.044 103.654 154.881 107.925C153.715 112.198 151.303 115.927 148.929 119.57L72.4822 123.234H72.4802Z" fill="#58980E"/>
<path d="M100.864 98.2608C100.864 98.2608 84.6789 101.4 77.4342 120.982C70.1915 140.564 70.3219 171.609 100.477 182.262C130.633 192.916 146.206 170.186 150.297 162.222C154.388 154.257 159.588 136.167 150.489 120.221C141.391 104.275 134.429 99.6543 123.802 96.9528C112.649 94.1199 100.862 98.2587 100.862 98.2587L100.864 98.2608Z" fill="#B4D56C"/>
<path d="M145.27 172.323C150.473 166.252 155.576 159.887 158.709 152.36C161.843 144.832 162.795 135.888 159.599 128.392C157.61 123.726 154.192 119.948 151.711 115.562C150.067 112.658 148.837 109.493 147.075 106.667C140.928 96.8148 128.979 92.5262 117.94 93.3291C106.52 94.1594 101.507 96.8379 98.5317 98.0097C101.465 101.578 104.855 100.619 107.47 100.587C108.606 100.574 109.946 101.344 110.078 102.553C110.246 104.083 108.344 104.705 107.226 105.672C105.433 107.221 105.563 110.18 106.184 112.555C106.806 114.93 107.764 117.419 107.078 119.775C106.44 121.969 104.553 123.412 103.137 125.14C101.723 126.869 100.783 129.631 102.201 131.357C109.928 140.756 106.106 157.139 112.251 167.792L145.268 172.325L145.27 172.323Z" fill="#98D019"/>
<path d="M124.099 169.956C126.76 165.984 124.644 160.278 121.365 156.863C118.086 153.447 113.782 151.218 110.8 147.51C107.299 143.157 105.989 137.229 102.638 132.745C99.7161 128.835 95.2729 126.24 90.5917 125.71C86.6913 125.268 82.4822 126.145 79.0197 124.198C75.8942 122.44 73.5556 118.492 70.0225 118.696C66.223 118.915 64.3485 123.979 64.9659 127.956C65.5834 131.933 67.702 135.544 68.0955 139.552C68.4668 143.327 67.2763 147.065 67.018 150.848C66.6003 156.987 68.6908 163.105 71.9434 168.205C76.3099 175.048 82.8273 180.322 90.2083 182.987C97.9606 185.784 106.889 185.942 113.243 191.416L124.099 169.958V169.956Z" fill="#70BF01"/>
<path d="M90.9236 127.78C83.7506 131.53 81.5469 144.498 81.6632 152.984C81.811 164.046 85.7277 175.222 93.3501 184.143C85.7316 177.104 81.3241 166.469 80.514 156.029C79.8221 146.934 82.087 133.298 89.2481 128.621C89.8237 128.221 90.9058 127.79 90.9256 127.78H90.9236Z" fill="#B4D56C"/>
<path d="M81.2623 153.234C81.1875 150.906 82.4102 148.86 84.0592 147.186C88.4001 142.9 97.185 141.353 97.5306 134.143C98.1611 136.981 96.5383 139.804 94.4042 141.759C90.1927 145.554 82.7679 146.867 81.2603 153.234H81.2623Z" fill="#B4D56C"/>
<path d="M95.0774 140.029C97.4242 138.11 101.461 138.27 103.714 140.39C101.906 140.661 96.7951 140.429 95.0774 140.029Z" fill="#B4D56C"/>
<path d="M84.7136 168.689C88.5586 161.466 97.8194 163.269 101.327 151.47C101.988 149.23 102.598 147.009 104.393 145.705C104.964 145.301 105.615 145.034 106.305 145.053C105.036 145.337 104.058 146.422 103.461 147.691C102.917 148.821 102.666 150.086 102.292 151.784C99.5538 163.996 89.8429 162.572 84.7136 168.689Z" fill="#B4D56C"/>
<path d="M101.123 155.959C102.253 154.241 104.251 152.851 107.238 152.532C110.468 152.389 111.392 153.656 112.945 153.773C113.748 153.858 114.766 153.322 114.882 152.325C115.105 153.096 114.666 153.83 114.039 154.292C112.572 155.31 110.877 154.335 109.096 154.048C107.615 153.735 105.016 153.99 102.842 155.018C102.263 155.287 101.7 155.606 101.123 155.962V155.959Z" fill="#B4D56C"/>
<path d="M88.1702 176.868C90.2562 175.01 93.1376 174.382 95.6885 173.918C99.8704 173.18 102.9 172.774 106.287 169.487C108.523 167.324 110.803 163.778 112.35 158.689C111.665 165.248 107.96 171.785 101.816 173.974C97.8145 175.487 92.4824 174.514 88.1682 176.871L88.1702 176.868Z" fill="#B4D56C"/>
<path d="M70.0317 125.961C73.1776 128.373 75.7243 132.521 76.5532 137.336C77.1224 140.564 77.1504 146.697 81.259 148.689C80.2144 148.533 79.2377 147.904 78.4667 147.092C73.9985 142.355 77.5559 135.787 70.0337 125.961H70.0317Z" fill="#B4D56C"/>
<path d="M68.3047 132.325C70.1938 133.364 71.9927 135.136 73.3945 136.742C73.8539 137.279 74.4163 137.92 75.1311 137.838C75.4832 137.795 75.8825 137.629 76.0134 137.171C76.3118 137.82 75.524 138.701 74.5322 138.689C73.3022 138.676 72.304 137.564 71.4603 136.683C70.299 135.454 69.0152 133.835 68.3047 132.327V132.325Z" fill="#B4D56C"/>
<path d="M71.759 149.598C74.3106 152.214 74.5494 156.848 75.7774 160.171C77.2343 164.218 79.9092 164.901 83.8499 165.902C79.4813 166.272 76.1456 164.968 74.5554 160.687C73.2259 157.053 73.4866 152.947 71.759 149.598Z" fill="#B4D56C"/>
<path d="M147.185 158.505C151.719 151.248 160.354 148.055 165.52 141.291C175.557 128.14 168.879 107.698 175.642 92.3665C176.083 91.3652 176.563 90.1098 175.922 89.2402C175.563 88.7534 174.957 88.5696 174.393 88.4196C162.744 85.3791 148.846 86.9989 141.229 96.8523C137.485 101.696 135.604 108.068 131.286 112.34C126.934 116.645 120.559 118.32 116.757 123.179C112.954 128.039 112.462 135.173 108.475 139.861C104.351 144.708 97.5232 145.764 92.7434 149.88C85.4976 156.117 83.0345 169.081 73.858 170.82C70.8099 171.399 66.8024 170.971 65.524 173.971C64.5763 176.197 66.0798 178.809 67.9783 180.184C75.5576 185.671 85.3659 178.598 94.4605 177.367C99.9307 176.629 105.439 178.12 110.953 178.221C124.52 178.469 139.992 170.021 147.185 158.505Z" fill="#70BF01"/>
<path d="M145.571 143.234C145.147 153.671 150.42 161.611 150.349 173.187C150.271 176.027 149.636 179.015 148.296 181.416C152.684 168.818 143.144 155.303 145.57 143.234H145.571Z" fill="#B4D56C"/>
<path d="M151.909 139.598C156.093 148.656 155.476 160.957 150.35 169.598C153.619 159.019 154.062 150.387 151.909 139.598Z" fill="#B4D56C"/>
<path d="M157.259 171.416C167.546 154.941 159.824 144.535 165.032 136.871C162.705 142.465 164.851 148.068 164.3 154.857C163.784 160.864 161.371 166.998 157.259 171.416Z" fill="#B4D56C"/>
<path d="M159.346 136.871C158.985 143.95 159.758 148.483 162.441 155.052C158.26 150.604 156.879 142.52 159.346 136.871Z" fill="#B4D56C"/>
<path d="M133.941 157.78C137.539 160.59 137.866 166.259 141.018 169.483C143.381 171.931 147.31 172.32 150.35 174.143C146.039 173.005 141.831 173.168 138.987 169.217C136.379 165.24 136.395 161.231 133.941 157.78Z" fill="#B4D56C"/>
<path d="M129.623 163.234C132.316 167.628 135.893 170.263 140.85 171.015C136.316 172.743 130.382 168.655 129.623 163.234Z" fill="#B4D56C"/>
<path d="M126.168 168.689C127.215 171.763 128.37 175.829 131.029 177.626C133.573 179.38 136.582 178.958 139.439 180.12C141.737 181.041 143.967 183.451 143.331 185.961C143.319 183.64 141.387 182.032 139.447 181.332C135.093 179.7 127.309 182.363 126.17 168.689H126.168Z" fill="#B4D56C"/>
<path d="M117.532 177.782C118.68 180.285 121.924 181.279 124.657 180.927C127.611 180.539 130.279 179.057 133.077 178.47C130.568 180.122 127.824 181.874 124.845 182.262C121.242 182.722 117.61 180.611 117.534 177.78L117.532 177.782Z" fill="#B4D56C"/>
<path d="M108.896 185.052C111.623 189.1 117.312 186.566 119.731 185.853C121.397 185.361 123.209 185.031 124.886 185.462C127.762 186.176 131.597 189.919 139.123 188.379C136.663 189.552 133.89 189.867 131.211 189.373C126.115 188.393 125.93 185.827 120.013 187.31C117.541 187.925 114.917 188.942 112.035 187.937C110.356 187.325 109.382 186.249 108.896 185.052Z" fill="#B4D56C"/>
<path d="M117.312 96.9912C115.39 97.2014 112.968 98.3663 113.246 100.437C113.337 101.119 113.734 101.707 114.192 102.187C115.169 103.211 116.444 103.846 117.453 104.834C118.461 105.822 119.188 107.431 118.601 108.757C117.841 110.479 115.522 110.563 114.342 111.978C112.842 113.778 113.858 116.659 115.177 118.618C116.495 120.578 118.153 122.725 117.723 125.103C117.109 128.501 112.593 129.964 112.35 133.417C116.227 137.012 121.858 137.002 126.959 136.8C130.583 136.657 134.832 136.131 136.652 132.733C137.513 131.129 137.616 129.199 138.008 127.393C138.401 125.587 139.278 123.673 140.906 123.097C142.521 122.525 144.512 123.41 145.874 122.311C147.171 121.264 147.023 119.127 146.573 117.445C143.221 104.928 129.013 95.7107 117.312 96.9891V96.9912Z" fill="#B4D56C"/>
<path d="M129.952 128.274C129.952 128.274 115.241 134.303 104.109 126.388C104.109 126.388 105.003 141.702 115.769 142.569C127.708 143.531 129.952 128.276 129.952 128.276V128.274Z" fill="#A21E25"/>
<path d="M126.982 129.222C126.885 130.175 126.751 131.12 126.536 132.044C124.038 133.465 121.354 133.343 118.619 133.545C117.612 133.618 116.601 133.692 115.594 133.639C112.725 133.486 109.969 132.308 107.266 131.135C107.334 130.226 107.376 129.252 107.476 128.297C114.794 131.668 122.78 130.354 126.982 129.222Z" fill="white"/>
<path d="M108.696 138.912C109.464 138.022 110.478 137.378 111.527 136.887C114.149 135.663 117.115 135.176 119.914 135.806C121.894 136.253 123.765 137.298 125.203 138.801C123.071 141.171 120.045 142.912 115.769 142.567C112.658 142.317 110.376 140.856 108.696 138.912Z" fill="#FD4E4C"/>
<path d="M99.1114 113.411C99.2217 113.415 99.33 113.423 99.4423 113.43C107.647 114.011 109.937 119.301 110.029 119.526C110.184 119.9 110.025 120.336 109.674 120.502C109.323 120.666 108.914 120.5 108.758 120.128C108.676 119.933 106.664 115.426 99.348 114.908C92.028 114.387 88.1694 120.649 88.1313 120.712C87.9247 121.056 87.4935 121.155 87.1707 120.935C86.8478 120.714 86.7535 120.256 86.9601 119.912C87.1326 119.627 91.2017 113.037 99.1094 113.411H99.1114Z" fill="#342530"/>
<path d="M108.615 110.94C108.76 110.946 108.902 111.001 109.022 111.104C109.321 111.362 109.367 111.828 109.125 112.145L106.399 115.72C106.157 116.037 105.719 116.085 105.421 115.829C105.122 115.571 105.076 115.105 105.318 114.788L108.044 111.213C108.188 111.024 108.403 110.93 108.615 110.94Z" fill="#342530"/>
<path d="M103.347 108.692C103.407 108.694 103.465 108.704 103.526 108.725C103.893 108.847 104.095 109.263 103.981 109.653L102.683 114.036C102.567 114.427 102.176 114.643 101.811 114.519C101.444 114.397 101.241 113.982 101.356 113.591L102.653 109.208C102.749 108.881 103.04 108.677 103.347 108.692Z" fill="#342530"/>
<path d="M97.5973 108.049C97.9502 108.066 98.239 108.364 98.2591 108.746L98.5198 113.598C98.5419 114.005 98.2491 114.355 97.866 114.379C97.483 114.402 97.1541 114.091 97.132 113.682L96.8713 108.83C96.8492 108.423 97.142 108.072 97.5251 108.049C97.5491 108.049 97.5732 108.049 97.5973 108.049Z" fill="#342530"/>
<path d="M91.5327 109.836C91.7814 109.849 92.014 110 92.1283 110.254L93.9774 114.341C94.1439 114.708 93.9975 115.151 93.6525 115.328C93.3056 115.504 92.8904 115.349 92.724 114.981L90.8749 110.894C90.7084 110.527 90.8548 110.084 91.1998 109.907C91.3061 109.853 91.4204 109.83 91.5307 109.834L91.5327 109.836Z" fill="#342530"/>
<path d="M86.9301 113.396C87.0985 113.405 87.263 113.476 87.3913 113.612L90.2792 116.686C90.55 116.975 90.55 117.444 90.2792 117.731C90.0085 118.021 89.5673 118.019 89.2965 117.731L86.4086 114.658C86.1379 114.368 86.1379 113.9 86.4086 113.612C86.553 113.459 86.7435 113.388 86.9321 113.396H86.9301Z" fill="#342530"/>
<path d="M135.71 115.141C143.62 115.515 147.123 122.463 147.27 122.763C147.448 123.125 147.316 123.572 146.975 123.763C146.634 123.952 146.215 123.811 146.036 123.45C145.902 123.179 142.643 116.772 135.347 116.611C127.959 116.436 125.564 120.876 125.54 120.92C125.354 121.277 124.93 121.407 124.595 121.21C124.259 121.013 124.138 120.561 124.323 120.205C124.435 119.99 127.156 114.938 135.377 115.131C135.487 115.133 135.598 115.137 135.708 115.143L135.71 115.141Z" fill="#342530"/>
<path d="M126.449 111.782C126.661 111.793 126.868 111.906 126.996 112.108L129.413 115.924C129.627 116.262 129.543 116.722 129.224 116.951C128.905 117.18 128.474 117.089 128.259 116.751L125.843 112.935C125.628 112.597 125.712 112.137 126.031 111.908C126.16 111.816 126.306 111.776 126.451 111.782H126.449Z" fill="#342530"/>
<path d="M131.883 110.04C132.19 110.055 132.463 110.286 132.531 110.619L133.458 115.108C133.54 115.506 133.303 115.901 132.928 115.989C132.553 116.077 132.182 115.825 132.1 115.425L131.174 110.936C131.091 110.537 131.328 110.143 131.703 110.055C131.763 110.04 131.823 110.036 131.883 110.038V110.04Z" fill="#342530"/>
<path d="M137.665 109.943C137.689 109.943 137.713 109.947 137.737 109.95C138.117 110.008 138.379 110.384 138.325 110.789L137.659 115.597C137.603 116.002 137.248 116.281 136.869 116.22C136.49 116.161 136.227 115.785 136.281 115.38L136.947 110.573C136.999 110.195 137.314 109.924 137.665 109.941V109.943Z" fill="#342530"/>
<path d="M143.555 112.294C143.666 112.299 143.778 112.334 143.88 112.397C144.211 112.607 144.317 113.061 144.123 113.411L141.941 117.307C141.744 117.658 141.317 117.773 140.988 117.564C140.657 117.354 140.551 116.9 140.746 116.55L142.928 112.653C143.064 112.41 143.309 112.282 143.557 112.292L143.555 112.294Z" fill="#342530"/>
<path d="M147.845 116.275C148.034 116.283 148.218 116.373 148.349 116.539C148.595 116.852 148.557 117.32 148.262 117.58L145.13 120.37C144.835 120.633 144.396 120.591 144.149 120.278C143.903 119.965 143.941 119.497 144.235 119.237L147.368 116.447C147.506 116.323 147.677 116.266 147.845 116.275Z" fill="#342530"/>
<path d="M54.2619 88.8788C48.0665 87.2788 50.1896 96.2916 52.3185 96.8413C54.4474 97.391 58.7148 90.0272 54.2619 88.8768V88.8788Z" fill="#3C690C"/>
<path d="M82.9144 185.014L84.0135 184.359L84.2147 184.239L84.4382 184.169C85.3457 183.884 86.3347 183.62 87.256 183.374C87.8319 183.22 88.3814 183.074 88.8679 182.933L88.8749 182.931L88.8818 182.929C89.3484 182.799 89.7881 182.674 90.2176 182.541C91.0832 182.273 91.8646 181.989 92.584 181.632L92.5848 181.632C94.2492 180.806 95.3627 178.467 95.6678 175.826L82.9144 185.014ZM82.9144 185.014C80.556 186.203 78.0785 189.112 79.0953 192.605L79.1109 192.659L79.1294 192.711C79.391 193.453 79.6969 194.176 80.0577 194.89C80.8181 196.553 81.909 197.959 83.1506 199.126L83.151 199.126C83.5614 199.512 83.9959 199.881 84.4448 200.223C87.7517 202.755 90.3954 206.518 90.42 210.515C90.4428 214.459 86.7063 217.963 82.997 217.763L82.9698 217.762L82.9425 217.761C82.4861 217.749 82.0165 217.689 81.5416 217.58C81.11 217.48 80.6791 217.35 80.2481 217.186C78.3274 216.439 77.43 214.795 76.8361 212.092C76.6152 211.087 76.4603 210.055 76.2945 208.952C76.235 208.555 76.1741 208.15 76.1082 207.733C75.8694 206.221 75.5687 204.593 75.0165 203.101L74.9997 203.055L74.9807 203.011C74.9541 202.948 74.923 202.872 74.8877 202.786C74.719 202.375 74.4533 201.726 74.117 201.179C73.6772 200.464 72.9296 199.583 71.672 199.235L71.6183 199.22L71.5639 199.208C70.6927 199.018 69.8779 199.038 69.1161 199.212L69.1037 199.215L69.0914 199.218C68.332 199.401 67.6666 199.735 67.0874 200.135L66.9895 200.203L66.9003 200.282C66.0613 201.022 65.3693 201.891 64.779 202.684C64.5526 202.988 64.3483 203.27 64.1536 203.539C63.8007 204.026 63.4798 204.469 63.1174 204.918C62.0508 206.239 61.1668 206.888 59.9802 206.96L59.9584 206.961L59.9366 206.963C59.0027 207.04 58.1364 206.764 56.9516 206.234C56.7723 206.153 56.5802 206.064 56.3767 205.969C55.361 205.497 54.0605 204.892 52.6426 204.619C50.9898 204.27 49.5699 204.773 48.4935 205.547C47.4745 206.28 46.7187 207.278 46.1876 208.13C45.716 208.829 45.2821 209.539 44.8793 210.224L44.8759 210.23C44.4741 210.919 44.1042 211.593 43.7586 212.229C43.6504 212.396 43.5157 212.561 43.3232 212.773C43.2778 212.823 43.2201 212.885 43.1546 212.955C42.9899 213.133 42.7767 213.362 42.5901 213.581C42.1386 214.051 41.666 214.511 41.1857 214.946C39.3966 216.561 37.6628 217.646 36.115 217.928C34.7826 218.17 33.3457 217.87 31.7722 216.017L31.7654 216.009C30.9121 215.014 30.6641 214.194 30.649 213.514C30.633 212.791 30.8757 211.984 31.416 211.042C31.9592 210.094 32.732 209.132 33.626 208.117C33.9235 207.779 34.2501 207.419 34.5834 207.052C35.1801 206.394 35.7983 205.713 36.3092 205.094L36.3443 205.051L36.377 205.007C37.1312 203.983 37.6999 202.684 37.8402 201.301C37.9115 200.6 37.8738 199.841 37.6494 199.08L37.6081 198.94L37.5469 198.808C36.84 197.276 35.5371 196.208 34.0047 195.832C32.3603 195.332 30.519 195.215 28.9681 195.116C28.6724 195.097 28.3873 195.079 28.1161 195.059C26.2246 194.919 24.8467 194.695 23.8256 194.068C23.5014 193.867 23.2105 193.623 22.95 193.318L22.9407 193.307L22.9312 193.296C22.5254 192.834 22.3848 192.1 22.6453 191.417C22.8046 191.03 23.0072 190.633 23.2461 190.205C24.6287 187.767 26.1784 185.676 27.9883 183.235C28.1256 183.05 28.2645 182.862 28.4049 182.673L28.4234 182.648L28.441 182.622C30.8433 179.158 31.5307 173.611 27.7469 170.279C27.0215 169.639 26.2468 169.147 25.4428 168.787C24.6459 168.424 23.8442 168.199 23.0627 168.055L23.0627 168.055L23.0489 168.053C21.5086 167.781 19.9066 167.752 18.5012 167.727C18.1357 167.72 17.7836 167.714 17.4493 167.704C15.7271 167.651 14.2839 167.502 12.9617 166.946L12.9439 166.938L12.9259 166.931C11.1983 166.244 9.25041 164.834 8.07938 163.141C6.95053 161.509 6.67134 159.865 7.58617 158.231C7.78789 157.874 7.99751 157.581 8.21088 157.338C8.84331 156.617 9.59043 156.217 10.4581 156.036C10.8113 155.964 11.189 155.927 11.5948 155.931C13.5186 156.331 15.2166 157.36 17.1227 158.716C17.4623 158.958 17.8124 159.213 18.173 159.476C19.7871 160.654 21.6108 161.984 23.6376 162.913L23.6488 162.918L23.6601 162.923C25.5382 163.756 28.1439 164.051 30.2945 162.117C31.9049 160.7 32.7902 158.517 32.4979 156.3C32.3392 154.711 31.9368 153.176 31.5834 151.829C31.5159 151.571 31.4503 151.321 31.3884 151.078C30.9837 149.49 30.7059 148.122 30.7763 146.736C30.8298 146.16 30.9368 145.68 31.0837 145.293L31.0844 145.291C31.3101 144.694 31.6118 144.317 31.9884 144.072C32.3739 143.821 33.0211 143.59 34.1382 143.615C34.6723 143.628 35.1921 143.684 35.7241 143.791L35.8017 143.807L35.8802 143.816C36.314 143.868 36.8841 144.072 37.4503 144.405C38.406 144.991 39.1628 145.756 40.0845 146.688C40.3777 146.984 40.6876 147.298 41.0258 147.627C42.306 148.876 43.9747 150.308 46.3518 150.675C48.2453 150.998 49.7699 150.376 50.9298 149.363C51.989 148.437 52.7573 147.173 53.3445 146.159C53.4613 145.958 53.5687 145.77 53.6716 145.59C53.846 145.285 54.0077 145.002 54.1809 144.714C54.8824 143.69 55.4807 142.495 56.0151 141.42L56.0807 141.288C56.6245 140.194 57.118 139.202 57.6732 138.333C58.2493 137.431 58.8006 136.813 59.3634 136.444C59.8723 136.11 60.4647 135.928 61.3008 136.027L61.3089 136.028C61.7551 136.08 62.2131 136.167 62.6887 136.283C63.1531 136.397 63.607 136.532 64.0604 136.694C64.4949 136.86 64.8507 137.036 65.148 137.235C65.4292 137.423 65.6775 137.652 65.8983 137.954L65.916 137.978L65.9344 138.002C66.4296 138.639 66.8707 139.511 67.3552 140.617C67.4838 140.91 67.6186 141.228 67.7589 141.559C68.106 142.379 68.4868 143.277 68.8907 144.079C69.4694 145.228 70.2255 146.462 71.3211 147.389C72.4825 148.372 73.9451 148.942 75.7268 148.852L75.742 148.852L75.7573 148.851C78.5131 148.67 80.308 146.893 81.5932 145.344C81.9719 144.888 82.3868 144.347 82.7719 143.845C83.0065 143.539 83.2301 143.247 83.4277 142.998C83.9869 142.292 84.5071 141.698 85.0508 141.227C85.3088 141.052 85.5477 140.862 85.7123 140.731C85.749 140.702 85.7819 140.676 85.8106 140.653C86.0299 140.482 86.14 140.409 86.2277 140.366L86.341 140.31L86.4463 140.24C86.8191 139.992 87.1995 139.792 87.5892 139.632C89.5815 138.821 91.864 138.904 93.9807 139.998C94.9366 140.523 95.5079 141.257 95.7981 142.062C95.9419 142.461 96.0222 142.883 96.0361 143.322C95.9027 145.105 94.9681 146.187 93.327 147.236C92.5401 147.739 91.6694 148.183 90.6907 148.681C90.585 148.735 90.478 148.79 90.3698 148.845C89.3121 149.385 88.1382 149.998 87.0734 150.752C85.1197 152.064 84.0645 153.768 84.1445 155.777C84.2152 157.551 85.179 159.127 86.0393 160.3L86.041 160.303C86.4968 160.922 86.992 161.517 87.4475 162.056C89.2705 164.213 91.131 166.308 92.9879 168.398L92.988 168.398C95.0348 170.701 95.9984 172.942 95.6679 175.826L82.9144 185.014Z" fill="white" stroke="#D9D9D9" stroke-width="4"/>
</svg>
