<svg width="131" height="152" viewBox="0 0 131 152" fill="none" xmlns="http://www.w3.org/2000/svg">
<path d="M94.3536 110.307C99.4651 113.697 106.026 117.132 111.15 113.76C112.974 112.559 114.27 110.652 115.514 108.797C119.657 102.622 124.638 98.6849 125.747 91.8244C126.5 87.1659 126.126 82.9112 125.798 78.198C125.321 71.3606 127.958 61.5263 127.986 54.67C128.075 32.9002 115.236 30.0546 110.201 19.3369C109.13 17.0571 104.532 15.0423 102.388 13.896C101.088 13.1999 99.6181 12.8402 98.4444 11.9254C96.2923 10.2492 93.5664 1.58414 91.0096 0.770218C89.4031 0.25915 87.6838 0.965812 86.2162 1.83021C81.0906 4.84404 77.1085 9.97995 75.3047 15.8982C80.3055 26.9524 82.6106 39.5756 84.9157 51.5909L94.3536 110.309V110.307Z" fill="#6EAB06"/>
<path d="M125.818 17.3433C132.099 15.095 130.631 24.888 128.471 25.6605C126.311 26.433 121.303 18.9576 125.818 17.3433Z" fill="#3C690C"/>
<path d="M108.498 59.5971C108.073 59.5971 107.668 59.3347 107.487 58.8938C107.247 58.304 107.503 57.6175 108.061 57.3614C121.265 51.3177 129.257 34.9121 126.255 20.0116C126.128 19.3819 126.507 18.7626 127.101 18.6282C127.693 18.4939 128.28 18.8948 128.407 19.5246C131.619 35.4726 123.064 53.0327 108.933 59.5005C108.791 59.5656 108.642 59.5971 108.498 59.5971Z" fill="#3C690C"/>
<path d="M45.0753 115.712C41.7232 118.161 37.8791 118.724 34.4691 116.369C31.0592 114.015 28.6113 109.697 25.4305 107.001C22.648 104.643 20.6283 102.093 17.794 99.8081C9.05016 92.758 5.54464 83.5427 6.74369 71.8871C7.38304 65.6792 8.70359 59.5154 7.85111 53.3369C7.09424 47.8514 0.901819 43.1808 2.03315 37.7709C3.07285 32.8021 7.41093 29.4776 9.59989 24.9582C11.506 21.0247 12.3923 15.5476 16.3918 14.4177C20.5646 13.2375 23.9367 17.9858 25.9802 22.06C28.3066 26.7033 30.635 31.3446 32.9614 35.9879L45.0773 115.714L45.0753 115.712Z" fill="#6EAB06"/>
<path d="M42.2028 119.233C42.2468 118.913 44.8596 119.394 44.8636 119.07L52.8501 116.913C51.4947 112.439 42.3468 113.423 37.8928 112.397C36.2495 112.019 30.3042 107.61 29.1607 106.298C27.9293 104.886 27.7833 102.781 27.0437 101.023C24.8107 95.7187 18.0437 94.7792 14.1595 90.6927C9.55956 85.8551 10.0034 77.8976 11.3248 71.16C12.6462 64.4245 14.4653 57.1324 11.6886 50.9179C10.2952 47.8023 7.20262 44.7118 6.73083 41.2112C6.09312 36.4865 9.31767 35.2352 10.731 31.335C11.5906 28.9664 11.4587 26.0558 10.6631 23.3252C10.3692 24.0701 10.0673 24.8004 9.73348 25.4846C7.53647 29.9875 3.18243 33.2998 2.1389 38.2504C1.00141 43.6405 4.17798 48.9155 4.93764 54.3809C5.79326 60.5368 3.55027 66.6508 2.90855 72.836C1.7051 84.449 6.62888 96.5662 15.4049 103.59C18.2496 105.867 21.4422 107.627 24.2329 109.976C27.4255 112.663 30.0603 116.093 33.4828 118.436C36.8413 120.738 38.8544 121.502 42.2028 119.235V119.233Z" fill="#98D019"/>
<path d="M24.9741 59.6867C24.8556 59.6867 24.737 59.6658 24.6185 59.624C10.0188 54.3986 0.150426 37.6986 2.15344 21.6066C2.23179 20.9715 2.78427 20.5244 3.38899 20.6079C3.99171 20.6915 4.41762 21.2744 4.33927 21.9075C2.46886 36.9423 11.6883 52.5454 25.3297 57.4302C25.9063 57.6371 26.2137 58.2952 26.0188 58.9011C25.8621 59.3838 25.4342 59.6888 24.9761 59.6888L24.9741 59.6867Z" fill="#3C690C"/>
<g opacity="0.4">
<path d="M67.7165 151.504C89.2417 151.504 106.691 149.463 106.691 146.944C106.691 144.426 89.2417 142.385 67.7165 142.385C46.1913 142.385 28.7417 144.426 28.7417 146.944C28.7417 149.463 46.1913 151.504 67.7165 151.504Z" fill="#848384"/>
</g>
<path d="M52.8577 145.823C52.8136 144.486 52.1898 143.247 51.169 142.46C49.4323 141.123 46.6166 139.429 44.3082 140.269C40.6883 141.587 41.1396 145.972 41.1396 145.972L52.8577 145.823Z" fill="#3C690C"/>
<path d="M51.1931 144.895C50.9003 144.895 50.6095 144.755 50.421 144.486C45.7361 137.817 46.4541 127.623 52.0193 121.762C52.3964 121.365 53.004 121.367 53.3771 121.766C53.7521 122.165 53.7501 122.809 53.3731 123.204C48.4576 128.378 47.8238 137.38 51.9612 143.268C52.2781 143.72 52.1898 144.356 51.7646 144.692C51.5922 144.828 51.3916 144.893 51.1911 144.893L51.1931 144.895Z" fill="#3C690C"/>
<path d="M96.792 141.59C94.8406 139.826 92.1833 139.146 89.7186 139.895C88.6877 140.208 87.703 140.767 86.9891 141.72C84.6106 144.898 87.0192 148.156 87.0192 148.156L96.8762 141.663L96.792 141.587V141.59Z" fill="#3C690C"/>
<path d="M94.4176 142.226C94.2812 142.226 94.1448 142.194 94.0125 142.131C90.3043 140.3 87.4605 137.133 85.7899 132.97C84.2116 129.04 83.8446 124.499 84.7571 120.186C84.8734 119.638 85.3868 119.293 85.9042 119.415C86.4216 119.537 86.7485 120.083 86.6322 120.631C84.9015 128.822 88.3489 137.089 94.8267 140.286C95.308 140.523 95.5146 141.128 95.292 141.638C95.1295 142.007 94.7826 142.226 94.4216 142.226H94.4176Z" fill="#3C690C"/>
<path d="M22.4802 54.2344C18.8724 47.2844 22.119 36.8915 25.3216 32.3434C27.4606 29.305 29.5996 26.2665 31.7406 23.2302C33.6669 20.4962 35.6434 17.709 38.2901 15.8012C45.281 10.7634 54.5474 13.1566 62.941 12.6307C68.8383 12.2624 74.9363 10.378 80.5066 12.4987C84.303 13.9423 87.3209 17.0809 90.8926 19.0845C95.0463 21.4161 100.123 22.3572 103.119 26.2388C105.759 29.6627 106.044 34.6537 104.881 38.925C103.715 43.1984 101.303 46.9267 98.929 50.5699L22.4822 54.2344H22.4802Z" fill="#58980E"/>
<path d="M50.8637 29.2608C50.8637 29.2608 34.6789 32.4003 27.4342 51.9822C20.1915 71.564 20.3219 102.609 50.4765 113.262C80.6331 123.916 96.206 101.186 100.297 93.2215C104.388 85.2569 109.588 67.1666 100.489 51.2207C91.3909 35.2749 84.429 30.6543 73.8017 27.9528C62.6487 25.1199 50.8617 29.2587 50.8617 29.2587L50.8637 29.2608Z" fill="#B4D56C"/>
<path d="M95.2697 103.323C100.473 97.2517 105.576 90.8874 108.709 83.3597C111.843 75.832 112.795 66.8882 109.599 59.3922C107.61 54.7264 104.192 50.9478 101.711 46.5623C100.067 43.6583 98.8371 40.4929 97.0754 37.6669C90.9285 27.8148 78.9785 23.5262 67.9404 24.3291C56.5204 25.1594 51.5072 27.8379 48.5317 29.0097C51.4652 32.5775 54.8547 31.6186 57.4702 31.587C58.606 31.5744 59.9458 32.3436 60.0778 33.5532C60.2457 35.0832 58.3441 35.7049 57.2262 36.6722C55.4326 38.2211 55.5625 41.1799 56.1844 43.555C56.8063 45.93 57.7642 48.4189 57.0783 50.775C56.4404 52.9688 54.5527 54.4124 53.1369 56.1404C51.7232 57.8685 50.7834 60.6313 52.2011 62.3573C59.9278 71.7563 56.1064 88.1393 62.2514 98.7923L95.2677 103.325L95.2697 103.323Z" fill="#98D019"/>
<path d="M74.0989 100.956C76.7603 96.9837 74.6437 91.2781 71.3648 87.8627C68.0859 84.4473 63.782 82.2181 60.7997 78.5104C57.2989 74.157 55.9893 68.2285 52.6378 63.7448C49.7161 59.8352 45.2729 57.24 40.5917 56.71C36.6913 56.2684 32.4822 57.1454 29.0197 55.1979C25.8942 53.4398 23.5556 49.4923 20.0225 49.6963C16.223 49.9151 14.3485 54.9792 14.9659 58.9561C15.5834 62.933 17.702 66.544 18.0955 70.5524C18.4668 74.3274 17.2763 78.0645 17.018 81.8479C16.6003 87.9868 18.6908 94.1046 21.9434 99.2045C26.3099 106.048 32.8273 111.322 40.2083 113.987C47.9606 116.784 56.8893 116.942 63.2432 122.416L74.0989 100.958V100.956Z" fill="#70BF01"/>
<path d="M40.9236 58.7798C33.7506 62.5298 31.5469 75.498 31.6632 83.9837C31.811 95.0455 35.7277 106.222 43.3501 115.143C35.7316 108.104 31.3241 97.4688 30.514 87.0286C29.8221 77.9339 32.087 64.2981 39.2481 59.621C39.8237 59.2213 40.9058 58.7902 40.9256 58.7798H40.9236Z" fill="#B4D56C"/>
<path d="M31.2623 84.2342C31.1875 81.9057 32.4102 79.8598 34.0592 78.1856C38.4001 73.9001 47.185 72.3531 47.5306 65.1433C48.1611 67.9808 46.5383 70.8041 44.4042 72.7591C40.1927 76.5538 32.7679 77.8665 31.2603 84.2342H31.2623Z" fill="#B4D56C"/>
<path d="M45.0774 71.0295C47.4242 69.1099 51.4608 69.2703 53.7138 71.3897C51.9062 71.6606 46.7951 71.4292 45.0774 71.0295Z" fill="#B4D56C"/>
<path d="M34.7136 99.6889C38.5586 92.4659 47.8194 94.269 51.3273 82.4696C51.9879 80.2297 52.5979 78.0093 54.3927 76.7054C54.9637 76.3009 55.6147 76.0341 56.3045 76.0535C55.0359 76.3375 54.0576 77.4219 53.4612 78.6913C52.9175 79.8209 52.6661 81.0861 52.2919 82.7837C49.5538 94.9962 39.8429 93.5718 34.7136 99.6889Z" fill="#B4D56C"/>
<path d="M51.1228 86.9594C52.2528 85.2413 54.2511 83.8511 57.2377 83.5317C60.4679 83.3891 61.3922 84.6558 62.9454 84.7729C63.7479 84.8581 64.7661 84.3216 64.8819 83.3252C65.1055 84.0959 64.6663 84.8304 64.0394 85.2924C62.5721 86.3101 60.8771 85.335 59.0964 85.0476C57.615 84.7346 55.0158 84.9901 52.8417 86.0184C52.2627 86.2867 51.6998 86.606 51.1228 86.9616V86.9594Z" fill="#B4D56C"/>
<path d="M38.1702 107.868C40.2562 106.01 43.1376 105.382 45.6885 104.918C49.8704 104.18 52.9001 103.774 56.2865 100.487C58.5228 98.3242 60.8031 94.7781 62.35 89.6887C61.6647 96.2479 57.9597 102.785 51.8161 104.974C47.8145 106.487 42.4824 105.514 38.1682 107.871L38.1702 107.868Z" fill="#B4D56C"/>
<path d="M20.0317 56.9614C23.1776 59.373 25.7243 63.5209 26.5532 68.3356C27.1224 71.5637 27.1504 77.697 31.259 79.6887C30.2144 79.5326 29.2377 78.9038 28.4667 78.0915C23.9985 73.3549 27.5559 66.787 20.0337 56.9614H20.0317Z" fill="#B4D56C"/>
<path d="M18.3047 63.3252C20.1938 64.3639 21.9927 66.1361 23.3945 67.7424C23.8539 68.2791 24.4163 68.9204 25.1311 68.8385C25.4832 68.7954 25.8825 68.6295 26.0134 68.1706C26.3118 68.82 25.524 69.701 24.5322 69.6887C23.3022 69.6764 22.304 68.5639 21.4603 67.6829C20.299 66.4537 19.0152 64.8351 18.3047 63.3272V63.3252Z" fill="#B4D56C"/>
<path d="M21.759 80.5979C24.3106 83.2139 24.5494 87.8483 25.7774 91.1705C27.2343 95.2178 29.9092 95.901 33.8499 96.9019C29.4813 97.2717 26.1456 95.9679 24.5554 91.6866C23.2259 88.0531 23.4866 83.9473 21.759 80.5979Z" fill="#B4D56C"/>
<path d="M97.185 89.5052C101.719 82.2483 110.354 79.0547 115.52 72.2908C125.557 59.1396 118.879 38.6978 125.642 23.3665C126.083 22.3652 126.563 21.1098 125.922 20.2402C125.563 19.7534 124.957 19.5696 124.393 19.4196C112.744 16.3791 98.8465 17.9989 91.2292 27.8523C87.4849 32.6963 85.6039 39.0683 81.2863 43.3398C76.9335 47.6449 70.5594 49.3198 66.7566 54.1792C62.9538 59.0385 62.4624 66.1729 58.4753 70.8608C54.3507 75.7079 47.5232 76.7643 42.7434 80.8796C35.4976 87.1169 33.0345 100.081 23.858 101.82C20.8099 102.399 16.8024 101.971 15.524 104.971C14.5763 107.197 16.0798 109.809 17.9783 111.184C25.5576 116.671 35.3659 109.598 44.4605 108.367C49.9307 107.629 55.4389 109.12 60.953 109.221C74.5202 109.469 89.9918 101.021 97.185 89.5052Z" fill="#70BF01"/>
<path d="M95.5714 74.2344C95.1467 84.6713 100.42 92.6106 100.349 104.187C100.271 107.027 99.6359 110.015 98.2962 112.416C102.684 99.8176 93.1444 86.303 95.5696 74.2344H95.5714Z" fill="#B4D56C"/>
<path d="M101.909 70.5979C106.093 79.6565 105.476 91.9572 100.35 100.598C103.619 90.0191 104.062 81.3867 101.909 70.5979Z" fill="#B4D56C"/>
<path d="M107.259 102.416C117.546 85.9414 109.824 75.5354 115.032 67.8706C112.705 73.4652 114.851 79.0682 114.3 85.8567C113.784 91.864 111.371 97.9984 107.259 102.416Z" fill="#B4D56C"/>
<path d="M109.346 67.8706C108.985 74.9505 109.758 79.4833 112.441 86.0524C108.26 81.604 106.879 73.5197 109.346 67.8706Z" fill="#B4D56C"/>
<path d="M83.9409 88.7798C87.539 91.5896 87.8661 97.2593 91.0183 100.483C93.3809 102.931 97.3103 103.32 100.35 105.143C96.0394 104.005 91.8309 104.168 88.987 100.217C86.3785 96.2398 86.3952 92.2309 83.9409 88.7798Z" fill="#B4D56C"/>
<path d="M79.6228 94.2344C82.3156 98.6281 85.893 101.263 90.8501 102.015C86.3157 103.743 80.3821 99.6546 79.6228 94.2344Z" fill="#B4D56C"/>
<path d="M76.1682 99.6887C77.2152 102.763 78.3703 106.829 81.0289 108.626C83.5733 110.38 86.5822 109.958 89.439 111.12C91.7372 112.041 93.9673 114.451 93.3307 116.961C93.3187 114.64 91.3869 113.032 89.447 112.332C85.0928 110.7 77.3093 113.363 76.1702 99.6887H76.1682Z" fill="#B4D56C"/>
<path d="M67.532 108.782C68.6795 111.285 71.9242 112.279 74.6572 111.927C77.6114 111.539 80.2791 110.057 83.0774 109.47C80.5676 111.122 77.824 112.874 74.8446 113.262C71.242 113.722 67.6099 111.611 67.5341 108.78L67.532 108.782Z" fill="#B4D56C"/>
<path d="M58.8955 116.052C61.6226 120.1 67.3121 117.566 69.7315 116.853C71.3967 116.361 73.2087 116.031 74.886 116.462C77.7619 117.176 81.5971 120.919 89.1228 119.379C86.6632 120.552 83.8898 120.867 81.211 120.373C76.1148 119.393 75.9298 116.827 70.013 118.31C67.5414 118.925 64.9168 119.942 62.0349 118.937C60.3556 118.325 59.3822 117.249 58.8955 116.052Z" fill="#B4D56C"/>
<path d="M67.3124 27.9912C65.3899 28.2014 62.9679 29.3663 63.2462 31.4373C63.337 32.1186 63.7338 32.7073 64.1917 33.1867C65.1688 34.2106 66.4439 34.8456 67.4525 35.8339C68.4612 36.8221 69.1876 38.4306 68.6013 39.7573C67.8414 41.4793 65.5221 41.5634 64.3417 42.9785C62.8416 44.7783 63.8581 47.6589 65.1767 49.6185C66.4952 51.5781 68.1533 53.7249 67.723 56.1029C67.1091 59.5007 62.5929 60.9641 62.3501 64.4166C66.2268 68.012 71.8582 68.0015 76.9587 67.7997C80.5827 67.6567 84.8324 67.131 86.6523 63.7332C87.5129 62.129 87.6156 60.1988 88.0084 58.3926C88.4012 56.5865 89.2776 54.6731 90.906 54.097C92.5206 53.5251 94.5122 54.4103 95.8742 53.3107C97.171 52.2636 97.023 50.1273 96.573 48.4452C93.2213 35.9285 79.0135 26.7107 67.3124 27.9891V27.9912Z" fill="#B4D56C"/>
<path d="M79.9517 59.2736C79.9517 59.2736 65.2414 65.3026 54.1089 57.3884C54.1089 57.3884 55.0033 72.7024 65.7688 73.5694C77.7076 74.5309 79.9517 59.2757 79.9517 59.2757V59.2736Z" fill="#A21E25"/>
<path d="M76.9817 60.2224C76.8854 61.1755 76.751 62.1201 76.5365 63.0438C74.0376 64.465 71.3542 64.3432 68.6187 64.5447C67.612 64.6182 66.6012 64.6917 65.5945 64.6392C62.7246 64.486 59.969 63.3083 57.2656 62.1348C57.3338 61.2258 57.3759 60.2518 57.4762 59.2966C64.7943 62.668 72.7802 61.3539 76.9817 60.2224Z" fill="white"/>
<path d="M58.6956 69.9125C59.4637 69.0224 60.4784 68.3779 61.5273 67.8867C64.1485 66.6628 67.1146 66.1758 69.9143 66.8056C71.8937 67.2527 73.7649 68.2981 75.2028 69.8012C73.071 72.1712 70.0447 73.9115 65.7689 73.5672C62.6584 73.3174 60.3762 71.8564 58.6956 69.9125Z" fill="#FD4E4C"/>
<path d="M49.1114 44.4108C49.2217 44.415 49.33 44.4234 49.4423 44.4297C57.6468 45.0112 59.9371 50.3013 60.0293 50.5259C60.1838 50.8996 60.0253 51.3362 59.6744 51.5021C59.3234 51.6658 58.9143 51.5 58.7578 51.1284C58.6756 50.9332 56.6641 46.4261 49.348 45.9076C42.028 45.387 38.1694 51.649 38.1313 51.712C37.9247 52.0563 37.4935 52.1549 37.1707 51.9345C36.8478 51.7141 36.7535 51.2565 36.9601 50.9122C37.1326 50.6267 41.2017 44.0371 49.1094 44.4108H49.1114Z" fill="#342530"/>
<path d="M58.6154 41.94C58.7598 41.9463 58.9021 42.0009 59.0225 42.1037C59.3213 42.3619 59.3674 42.828 59.1247 43.145L56.3993 46.72C56.1566 47.037 55.7194 47.0852 55.4206 46.8291C55.1218 46.5709 55.0757 46.1049 55.3183 45.7879L58.0438 42.2129C58.1882 42.024 58.4028 41.9295 58.6154 41.94Z" fill="#342530"/>
<path d="M53.3471 39.6917C53.4072 39.6938 53.4654 39.7043 53.5256 39.7252C53.8926 39.847 54.0951 40.2627 53.9808 40.6531L52.6833 45.0363C52.5669 45.4268 52.1759 45.643 51.8109 45.5192C51.4439 45.3974 51.2413 44.9818 51.3556 44.5913L52.6532 40.2081C52.7494 39.8806 53.0402 39.677 53.3471 39.6917Z" fill="#342530"/>
<path d="M47.5973 39.0493C47.9502 39.0661 48.239 39.3642 48.2591 39.7463L48.5198 44.5976C48.5419 45.0049 48.2491 45.3555 47.866 45.3785C47.483 45.4016 47.1541 45.0909 47.132 44.6816L46.8713 39.8302C46.8492 39.423 47.142 39.0724 47.5251 39.0493C47.5491 39.0493 47.5732 39.0493 47.5973 39.0493Z" fill="#342530"/>
<path d="M41.5327 40.8361C41.7814 40.8487 42.014 40.9998 42.1283 41.2538L43.9774 45.3411C44.1439 45.7084 43.9975 46.1514 43.6525 46.3277C43.3056 46.504 42.8904 46.3487 42.724 45.9813L40.8749 41.8941C40.7084 41.5267 40.8548 41.0838 41.1998 40.9075C41.3061 40.8529 41.4204 40.8298 41.5307 40.834L41.5327 40.8361Z" fill="#342530"/>
<path d="M36.9301 44.3962C37.0985 44.4046 37.263 44.4759 37.3913 44.6124L40.2792 47.6857C40.55 47.9754 40.55 48.4435 40.2792 48.7311C40.0085 49.0208 39.5673 49.0187 39.2965 48.7311L36.4086 45.6578C36.1379 45.3681 36.1379 44.9 36.4086 44.6124C36.553 44.4591 36.7435 44.3878 36.9321 44.3962H36.9301Z" fill="#342530"/>
<path d="M85.7099 46.1411C93.6196 46.5148 97.1232 53.4633 97.2696 53.7635C97.4481 54.1246 97.3157 54.5717 96.9748 54.7627C96.6339 54.9517 96.2147 54.811 96.0362 54.4499C95.9019 54.1791 92.6429 47.7723 85.3469 47.6106C77.9587 47.4364 75.5641 51.8763 75.54 51.9204C75.3535 52.2772 74.9304 52.4074 74.5955 52.2101C74.2585 52.0127 74.1382 51.5614 74.3227 51.2045C74.435 50.9904 77.1565 45.9375 85.377 46.1306C85.4873 46.1327 85.5976 46.1369 85.7079 46.1432L85.7099 46.1411Z" fill="#342530"/>
<path d="M76.4485 42.7824C76.6611 42.7929 76.8677 42.9062 76.996 43.1078L79.4126 46.9242C79.6272 47.2622 79.543 47.7219 79.2241 47.9507C78.9052 48.1795 78.4741 48.0893 78.2595 47.7513L75.8429 43.9349C75.6283 43.5969 75.7125 43.1372 76.0314 42.9083C76.1597 42.816 76.3061 42.7761 76.4505 42.7824H76.4485Z" fill="#342530"/>
<path d="M81.8835 41.04C82.1903 41.0547 82.4631 41.2856 82.5313 41.6194L83.4578 46.1075C83.54 46.5064 83.3034 46.9011 82.9283 46.9892C82.5533 47.0774 82.1823 46.8255 82.1001 46.4245L81.1735 41.9363C81.0913 41.5375 81.328 41.1428 81.703 41.0547C81.7632 41.04 81.8233 41.0358 81.8835 41.0379V41.04Z" fill="#342530"/>
<path d="M87.6653 40.9433C87.6893 40.9433 87.7134 40.9475 87.7375 40.9496C88.1165 41.0083 88.3792 41.3841 88.3251 41.7893L87.6593 46.5965C87.6031 47.0017 87.2481 47.2809 86.8691 47.22C86.4901 47.1612 86.2273 46.7855 86.2815 46.3803L86.9473 41.573C86.9995 41.1952 87.3143 40.9244 87.6653 40.9412V40.9433Z" fill="#342530"/>
<path d="M93.5552 43.2944C93.6655 43.2986 93.7778 43.3343 93.8801 43.3973C94.211 43.6072 94.3173 44.0607 94.1228 44.4112L91.9408 48.3074C91.7443 48.658 91.3171 48.7735 90.9882 48.5635C90.6573 48.3536 90.551 47.9002 90.7455 47.5496L92.9275 43.6534C93.0639 43.4099 93.3086 43.2818 93.5572 43.2923L93.5552 43.2944Z" fill="#342530"/>
<path d="M97.8453 47.2747C98.0338 47.2831 98.2183 47.3734 98.3487 47.5392C98.5954 47.852 98.5573 48.3202 98.2625 48.5805L95.1299 51.3704C94.8351 51.6328 94.3959 51.5908 94.1492 51.278C93.9025 50.9652 93.9406 50.4971 94.2354 50.2368L97.368 47.4469C97.5064 47.323 97.6769 47.2663 97.8453 47.2747Z" fill="#342530"/>
<path d="M4.26191 19.8788C-1.93351 18.2788 0.189584 27.2916 2.31848 27.8413C4.44737 28.391 8.71481 21.0272 4.26191 19.8768V19.8788Z" fill="#3C690C"/>
</svg>
