<svg width="38" height="78" viewBox="0 0 38 78" fill="none" xmlns="http://www.w3.org/2000/svg">
<path d="M20.1538 28.0712C20.6856 27.2983 21.7827 26.881 22.7667 27.077C23.2645 27.1763 23.7252 27.4148 24.2327 27.4629C24.7402 27.5109 25.3504 27.2632 25.396 26.8049C25.4495 26.2695 24.7584 25.9548 24.1901 25.7945C25.3267 26.3429 26.6244 26.6182 27.9129 26.5831C28.892 26.5566 30.1253 26.0417 29.9703 25.1684C29.433 25.102 28.8957 25.0351 28.359 24.9687C29.6524 24.9358 30.9281 24.4867 31.9049 23.7208C31.1877 23.4023 30.3629 23.2841 29.5716 23.3877C31.5013 23.4255 33.4383 22.8291 34.9402 21.735C33.5763 21.3534 32.1048 21.2903 30.7069 21.5526C32.6476 21.1985 34.5226 20.554 36.233 19.6543C36.6463 19.4368 37.0705 18.8927 36.67 18.6568C36.512 18.564 36.3041 18.5958 36.1193 18.632C35.5225 18.7475 34.9256 18.863 34.3288 18.9785C35.1086 18.4495 35.8884 17.9206 36.6682 17.3922C36.9532 17.1989 37.2595 16.8303 37.0055 16.6047C36.8645 16.4789 36.6347 16.5016 36.4414 16.5388C35.1724 16.7828 33.9659 17.2869 32.9381 18.0016C33.3824 17.7484 33.6146 17.2265 33.4882 16.7666C32.1711 16.8783 30.9239 17.5363 30.169 18.517C30.558 17.9389 30.668 17.2141 30.4668 16.5626C29.3831 17.0068 28.5201 17.8709 28.1432 18.89C28.6118 17.9114 28.8209 16.8324 28.7474 15.7681C27.8363 15.536 27.1641 16.5162 26.8426 17.3198C26.5314 18.0971 26.2196 18.8749 25.9084 19.6521C26.2287 19.5231 26.1527 19.0292 25.83 18.9056C25.5072 18.782 25.1207 18.9602 24.928 19.2241C24.7353 19.4886 24.6891 19.8151 24.6478 20.1298C24.6989 19.6877 24.5013 18.5559 24.3075 18.1473C23.2639 18.781 22.8184 20.675 23.0475 21.7912C22.8244 21.5051 22.6178 20.7629 22.5053 20.4277C22.3935 20.0931 22.0927 19.745 21.7079 19.7854C21.3432 19.8238 21.1384 20.1789 21.0339 20.4963C20.8078 21.185 20.7549 21.9191 20.8801 22.6283C20.9196 22.1717 20.7877 21.7043 20.5106 21.32C19.3983 22.1182 18.9096 23.5567 19.3345 24.7809C19.3564 24.3442 19.3035 23.9043 19.1777 23.4822C19.1224 23.2965 19.0282 23.0909 18.8258 23.0315C18.5061 22.9381 18.2453 23.2717 18.1292 23.5562C17.663 24.6929 19.9477 26.8735 20.1538 28.0717V28.0712Z" fill="#75A61A"/>
<path d="M15.1213 16.6293C13.6177 15.809 12.7233 14.21 12.9077 12.6712C13.595 12.5357 14.3646 12.9044 14.6024 13.4826C14.5656 13.0352 14.0388 12.2265 14.0019 11.7792C14.6486 11.7349 15.7956 12.4486 16.0427 12.9719C14.4734 11.7644 13.5132 9.97453 13.4573 8.14981C13.4511 7.94091 13.4671 7.70774 13.6405 7.56373C14.0474 7.22506 14.6522 7.7241 14.9123 8.15878C15.3819 8.94532 15.8515 9.73186 16.3218 10.5184C15.672 9.59418 15.2651 8.54124 15.1409 7.46244C16.0156 7.66449 16.7152 8.3508 16.8442 9.13154C16.3666 8.28169 16.1128 7.33742 16.1072 6.39104C16.6174 6.38365 17.1202 6.649 17.3495 7.04675C16.5424 5.88092 16.8744 4.21605 18.0853 3.35618C18.4037 3.53185 18.5685 3.89584 18.4732 4.21394C18.6933 2.96159 19.4094 1.77993 20.4722 0.91637C20.6603 0.763387 20.884 0.612514 21.141 0.618845C21.776 0.635198 21.8362 1.4402 21.6844 1.97828C21.4194 2.91675 21.1545 3.85522 20.8902 4.79369C20.9148 4.27091 21.425 3.79877 22.0218 3.74655C22.0114 4.93823 21.5172 6.12253 20.6455 7.04042C21.0242 6.13202 22.1306 5.49741 23.2371 5.55333C22.5923 7.11269 21.4907 8.52699 20.0659 9.62425C20.4347 9.0081 21.1625 8.56603 21.953 8.47741C21.7809 9.59049 21.1483 10.645 20.1986 11.4036C20.7371 10.8439 21.3758 10.3575 22.0845 9.96872C22.3255 9.83631 22.6101 9.71129 22.883 9.78092C23.5979 9.96292 23.1824 10.9114 22.6537 11.3693C21.6284 12.2577 20.6025 13.146 19.5772 14.0338C20.6867 12.9804 22.1423 12.207 23.7252 11.8314C23.6612 13.309 22.6697 14.7302 21.1951 15.4597C21.6874 15.4017 22.1798 15.3437 22.6716 15.2857C22.5105 16.2706 21.6401 17.1399 20.5423 17.4111C21.0174 17.227 21.4926 17.0434 21.9677 16.8593C22.0692 17.602 21.6223 18.3801 20.8791 18.7536C21.5381 17.9528 22.6906 17.4812 23.818 17.5514C23.3348 19.1667 22.0046 20.5741 20.2786 21.2958C20.8293 21.2309 21.3795 21.166 21.9302 21.1011C22.0077 21.914 21.4268 22.7428 20.5619 23.0524C21.0697 22.7533 22.1817 22.6156 22.2677 23.1447C22.6998 25.803 18.2347 27.2631 15.4833 28.468L15.1219 16.6287L15.1213 16.6293Z" fill="#57860C"/>
<path d="M20.1732 3.43896C17.2454 7.23903 18.0029 12.2237 18.566 16.2808C18.7759 17.7826 19.1506 20.9278 19.1205 21.9449C19.1091 22.5901 19.0403 23.1499 18.6104 24.2379C18.9556 22.9588 18.9698 22.4226 18.9032 21.6181C18.3476 15.421 16.0004 8.14503 20.1732 3.43896Z" fill="#75A61A"/>
<path d="M19.3633 26.0003C19.7961 24.2748 20.4582 23.0655 21.2339 22.0372C22.6868 20.1597 24.5713 19.5679 26.7262 19.0548C28.8781 18.5475 31.2606 17.9568 32.3223 16.1296C32.0271 16.7278 31.6783 17.2019 30.9515 17.7316C27.0503 20.5005 22.3771 18.0387 19.3639 26.0003H19.3633Z" fill="#57860C"/>
<path d="M11.1616 22.4362C10.0195 22.2077 8.86463 21.9251 7.89668 21.3413C6.92873 20.7574 6.16553 19.8188 6.13794 18.7806C6.66329 18.6912 7.2101 18.7014 7.73116 18.81C7.18006 18.5858 6.57992 18.3172 6.35924 17.8163C6.13794 17.3154 6.64797 16.6004 7.21562 16.7883C6.30162 16.358 5.45872 15.8079 4.7231 15.1619C4.34242 14.828 3.9789 14.4481 3.85446 13.9862C3.73063 13.5244 3.92006 12.9657 4.40556 12.765C4.89046 12.5643 5.58991 12.932 5.49795 13.3997C3.88757 12.4953 2.54813 11.2152 1.65006 9.72323C2.32928 9.34595 3.26781 9.37967 3.91025 9.80511C3.31011 9.39358 2.71058 8.98205 2.11044 8.57052C1.78615 8.34844 1.42386 8.01129 1.58325 7.67629C1.69788 7.43494 2.03075 7.3461 2.32438 7.32523C3.61171 7.23319 4.85 7.89249 5.67144 8.77655C6.49288 9.66062 6.97164 10.7491 7.43753 11.8178C7.36458 10.9476 7.29163 10.078 7.21868 9.20788C8.51582 10.0438 9.33236 11.4384 9.35749 12.8608C9.38201 12.0356 9.40653 11.2109 9.43167 10.3857C9.4378 10.1835 9.44883 9.96726 9.58431 9.80457C9.83932 9.49793 10.4162 9.56322 10.7165 9.83561C11.0169 10.108 11.1119 10.5051 11.1886 10.8802C11.5889 12.8431 11.8316 14.8307 11.9138 16.8241C11.8567 16.1247 12.2472 15.4103 12.9019 15.0175C13.3642 16.0792 13.613 17.2142 13.6339 18.3525C13.6308 17.3325 14.2113 16.3243 15.1443 15.7287C15.7071 17.6878 15.8383 19.7433 15.5293 21.7464C15.4257 21.0941 15.8824 20.4043 16.5757 20.1672C16.7835 21.2038 16.8436 22.2527 16.8154 23.3031C17.5241 21.2343 19.1026 21.0266 18.9475 23.3122C18.8482 24.7764 17.814 26.0388 16.336 26.6462C14.8237 27.2675 12.9994 27.1139 11.4614 26.6596C8.93451 25.9136 8.64333 23.3417 11.6404 24.2932C10.5529 24.3943 9.53833 23.7056 9.48132 22.7482C9.89633 22.6374 10.7086 22.3452 11.1604 22.4357L11.1616 22.4362Z" fill="#91C324"/>
<path d="M15.5364 26.0989C15.1995 25.3151 14.48 24.6184 13.869 23.9873C10.692 20.7042 9.07796 16.4487 7.18275 12.427C6.71329 11.4303 6.17609 10.3906 5.18921 9.78418C5.93206 10.0089 6.39972 10.5933 6.77505 11.219C9.08575 15.0692 10.3202 19.5247 13.5123 22.8105C14.6461 23.9771 16.0928 25.1474 16.1234 26.7053C15.9016 26.4908 15.8398 26.2021 15.537 26.0984L15.5364 26.0989Z" fill="#75A61A"/>
<g opacity="0.4">
<path d="M18.6465 78C26.2288 78 32.3755 76.9232 32.3755 75.5949C32.3755 74.2667 26.2288 73.1899 18.6465 73.1899C11.0642 73.1899 4.91748 74.2667 4.91748 75.5949C4.91748 76.9232 11.0642 78 18.6465 78Z" fill="#848384"/>
</g>
<path d="M10.3727 70.5581C10.3391 70.5581 10.3046 70.554 10.27 70.5459C10.0599 70.4961 9.93483 70.3043 9.99179 70.1182C10.9936 66.8335 13.8377 64.0155 17.4146 62.7653C17.6172 62.6943 17.8469 62.7824 17.9263 62.962C18.0066 63.1415 17.9067 63.3439 17.7041 63.4149C14.354 64.586 11.6911 67.2244 10.7527 70.3002C10.7051 70.4561 10.5464 70.5581 10.3718 70.5581H10.3727Z" fill="#FC9500"/>
<path d="M10.8061 70.1326C10.8855 69.6789 11.146 69.4887 10.8864 69.2488C10.2767 68.6849 9.26928 67.9178 8.27677 68.0435C6.7203 68.2418 6.58398 69.7499 6.58398 69.7499L10.6371 70.6827L10.8061 70.1318V70.1326Z" fill="#FC9500"/>
<path d="M26.2101 70.3769C25.719 70.2292 25.8329 70.1826 25.3987 70.4348C24.6602 70.8624 23.8553 71.3537 23.8236 72.2408C23.7741 73.6314 25.4295 74.0101 25.4295 74.0101L27.2344 70.6388L26.2101 70.3769Z" fill="#FC9500"/>
<path d="M26.6864 71.2068C26.636 71.2125 26.5828 71.21 26.5305 71.197C22.7602 70.2674 20.187 67.518 19.976 64.1917C19.9638 63.9991 20.131 63.8326 20.3476 63.8236C20.5651 63.8122 20.7519 63.9599 20.764 64.1525C20.9563 67.1761 23.3036 69.6774 26.7434 70.5253C26.9534 70.5767 27.0758 70.7693 27.0169 70.9554C26.973 71.095 26.8395 71.1904 26.6864 71.2084V71.2068Z" fill="#FC9500"/>
<path d="M1.07517 43.6272C2.7334 42.2734 3.55785 44.995 2.9883 45.4602C2.41875 45.9253 -0.116221 44.6 1.07517 43.6272Z" fill="#FC9500"/>
<path d="M9.63727 49.9567C9.32822 49.9567 9.02383 49.9281 8.72972 49.8677C6.0771 49.3201 3.77182 47.6765 2.40583 45.3588C2.31059 45.1964 2.38155 44.9965 2.56456 44.9124C2.74756 44.8284 2.97351 44.8904 3.06968 45.0528C4.33483 47.1991 6.46085 48.7195 8.90058 49.223C10.7782 49.6115 13.2917 48.3653 14.6381 46.9372C14.7707 46.7968 15.0069 46.778 15.1657 46.8947C15.3244 47.0122 15.3459 47.2203 15.2133 47.3607C13.936 48.7154 11.6774 49.9567 9.6382 49.9567H9.63727Z" fill="#FC9500"/>
<path d="M33.9478 50.3395C31.692 50.3061 33.2196 47.8333 33.9955 47.8448C34.7714 47.8562 35.5697 50.3632 33.9478 50.3395Z" fill="#FC9500"/>
<path d="M34.0084 48.7439C33.8291 48.7439 33.6704 48.6297 33.6396 48.4673C33.1942 46.1137 32.7003 45.4502 30.5341 44.2897C28.8843 43.4067 26.058 43.9021 24.2784 44.8912C24.1038 44.9883 23.8722 44.9418 23.762 44.7867C23.6519 44.6317 23.7051 44.4276 23.8797 44.3305C25.8246 43.25 28.9534 42.6698 30.9216 43.7234C33.2549 44.9728 33.901 45.8395 34.3781 48.3579C34.4126 48.5383 34.2745 48.7088 34.0709 48.739C34.0504 48.7423 34.0289 48.7439 34.0084 48.7439Z" fill="#FC9500"/>
<path d="M15.2224 25.7524C12.004 25.4627 8.34858 25.932 8.04513 30.7804C7.74168 35.6287 12.4932 48.11 14.6155 55.9215C16.7387 63.7331 17.749 71.2754 18.6593 71.5447C19.5687 71.814 22.2989 59.2438 23.2083 52.9583C24.1177 46.6728 27.3529 36.8863 27.9589 33.2049C28.5658 29.5236 26.8973 26.9643 24.4716 26.3359C22.0748 25.7149 18.7097 26.0666 15.2224 25.7524Z" fill="#FF9F57"/>
<path d="M27.9589 33.2048C28.5658 29.5234 26.8973 26.9641 24.4716 26.3358C22.0748 25.7147 18.7098 26.0664 15.2225 25.7523C13.0115 25.5531 10.5942 25.7123 9.19922 27.4032C12.0591 26.7332 15.3214 26.9666 18.1048 27.7508C18.6472 27.9035 19.3046 28.3539 19.0058 28.784C18.9152 28.9146 18.7546 28.9913 18.6024 29.0623C17.0973 29.7617 14.4652 30.1967 14.0862 31.1613C15.3392 31.3473 16.5595 31.7056 17.6893 32.2197C17.9544 32.3405 18.2476 32.5111 18.2738 32.7755C18.3326 33.368 17.1132 33.4586 17.0077 34.0461C16.9442 34.4011 17.3326 34.6762 17.5147 34.9977C17.9899 35.8383 16.9759 36.7474 16.0021 37.1179C15.0283 37.4884 13.835 37.7969 13.4821 38.684C14.6931 39.3262 15.3485 40.7005 15.0255 41.9206C14.9424 42.2339 14.806 42.5783 14.9778 42.8615C15.1478 43.1406 15.538 43.2304 15.8546 43.3789C16.862 43.8506 17.1431 45.2151 16.3886 45.9724C15.7743 46.5894 14.5521 47.1598 14.9965 47.8829C15.1823 48.1849 15.6118 48.3089 15.8256 48.5962C16.3298 49.2743 15.3112 50.141 15.4932 50.9375C15.5894 51.3602 16.0002 51.6565 16.3233 51.9788C17.5931 53.2487 17.6071 55.1477 17.3242 56.8272C17.0413 58.5075 18.0805 59.4836 18.5576 61.1288C18.819 62.0298 17.8209 63.595 18.1132 64.4886C18.7079 66.3053 18.2168 68.2092 17.9479 70.1074C18.2019 70.9627 18.4334 71.4768 18.6594 71.5437C19.5688 71.813 22.2989 59.2428 23.2083 52.9573C24.1177 46.6718 27.353 36.8853 27.9589 33.2039V33.2048Z" fill="#FE7628"/>
<path d="M26.4546 29.0175C26.2865 28.7008 23.927 28.718 23.8934 29.0175C23.8598 29.317 25.2071 29.2868 25.2417 29.4965C25.2753 29.7063 21.9056 29.9756 21.872 30.6039C21.8384 31.2323 26.8925 31.3523 26.7916 31.0528C26.6908 30.7533 24.1633 30.9328 24.1633 30.6341C24.1633 30.3355 27.0951 30.5746 27.0615 30.1551C27.0278 29.7356 25.4443 29.9756 25.5451 29.7658C25.646 29.5561 26.7244 29.5267 26.4546 29.0175Z" fill="#EA6C2D"/>
<path d="M11.6958 30.9933C11.7229 30.6301 16.6154 30.0058 16.7163 30.4244C16.8171 30.8431 14.7957 30.5444 14.762 30.9035C14.7284 31.2626 17.0533 31.083 16.9861 31.4119C16.9189 31.7408 12.2019 31.9505 12.2355 31.7114C12.2691 31.4723 14.1561 31.5621 14.0216 31.2928C13.8872 31.0234 11.6631 31.4421 11.6967 30.9933H11.6958Z" fill="#EA6C2D"/>
<path d="M11.0217 33.6571C11.0217 33.6571 13.1104 32.6697 15.4017 33.5372C15.4017 33.5372 12.7061 34.1957 11.0217 33.6571Z" fill="#EA6C2D"/>
<path d="M13.2122 34.8541C13.2122 34.8541 14.7285 34.1058 16.3456 34.9439C16.3456 34.9439 13.8863 35.3928 13.2122 34.8541Z" fill="#EA6C2D"/>
<path d="M25.6115 35.0934C25.4434 34.9441 21.5004 35.1832 21.5676 35.4223C21.6349 35.6614 24.0615 35.8712 24.0951 35.9609C24.1287 36.0507 19.8496 36.6791 19.8833 36.8586C19.9169 37.0382 26.0157 37.487 25.9821 37.1875C25.9485 36.888 24.0279 37.008 24.0615 36.7689C24.0951 36.5297 26.2183 36.4996 26.252 36.1707C26.2856 35.8418 24.4322 35.6321 24.4658 35.5121C24.4994 35.3921 25.6115 35.0934 25.6115 35.0934Z" fill="#EA6C2D"/>
<path d="M12.5382 40.7798C12.5382 41.0075 14.3243 41.5584 14.3243 41.7975C14.3243 42.0366 13.4821 41.8571 13.4485 42.1868C13.4149 42.5156 15.6053 42.3663 15.7062 42.6356C15.807 42.9049 12.3029 43.1742 12.3701 43.384C12.4373 43.5937 17.8957 44.0425 17.8957 43.7732C17.8957 43.5039 16.413 43.4737 16.5138 43.2942C16.6147 43.1146 18.4344 42.9947 18.4008 42.6356C18.3672 42.2765 15.5372 42.0366 15.5372 42.0366C15.5372 42.0366 18.0647 41.6775 17.9293 41.3478C17.7939 41.0181 14.526 41.378 14.3579 41.1087C14.1899 40.8394 16.3121 40.5399 16.2113 40.5097C16.1105 40.4795 12.5382 40.5097 12.5382 40.779V40.7798Z" fill="#EA6C2D"/>
<path d="M19.2103 47.0651C18.8098 47.1133 20.693 47.0651 20.693 47.4242C20.693 47.7833 17.6604 47.7237 17.6604 48.0828C17.6604 48.4418 19.5474 48.3219 19.6146 48.4418C19.6818 48.5618 18.1991 49.0409 18.1991 49.0409C18.1991 49.0409 22.1748 49.3999 22.1748 48.8613C22.1748 48.3227 20.355 48.8017 20.355 48.5022C20.355 48.2027 22.5119 48.2027 22.5791 47.7237C22.6463 47.2446 20.6921 46.8856 19.2094 47.0651H19.2103Z" fill="#EA6C2D"/>
<path d="M20.4229 54.9072C20.8113 54.6485 17.0532 54.1286 16.4473 55.0867C16.4473 55.0867 19.3454 55.6253 20.4229 54.9072Z" fill="#EA6C2D"/>
<path d="M20.8948 55.9843C20.8948 55.9843 18.738 55.5657 18.1992 56.2235C18.1992 56.2235 20.6249 56.523 20.8948 55.9843Z" fill="#EA6C2D"/>
<path d="M19.6146 59.6959C19.6146 59.6959 17.3233 59.8755 17.4578 60.1146C17.7005 60.5463 18.9405 60.1742 19.0077 60.4737C19.0749 60.7732 17.0535 60.9527 17.0535 60.9527C17.0535 60.9527 19.749 61.6113 19.749 61.1918C19.749 60.7724 19.0749 60.9527 19.0749 60.9527C19.0749 60.9527 20.6921 60.8932 20.7593 60.5341C20.8265 60.175 19.6809 60.295 19.6809 60.295C19.6809 60.295 20.4222 59.6364 19.6136 59.6959H19.6146Z" fill="#EA6C2D"/>
<path d="M17.2559 64.2457C17.2559 64.2457 19.0756 63.4076 19.7498 63.8866C19.7498 63.8866 17.8628 64.7248 17.2559 64.2457Z" fill="#EA6C2D"/>
<path d="M18.0645 65.3824C18.0645 65.3824 19.6144 64.9637 20.0187 65.3824C20.0187 65.3824 18.6704 66.0409 18.0645 65.3824Z" fill="#EA6C2D"/>
<path d="M22.1766 39.1534C22.1766 39.1534 17.1001 41.2483 12.9788 39.1428C12.9788 39.1428 13.6389 43.6542 17.4717 43.6827C21.7228 43.7145 22.1766 39.1534 22.1766 39.1534Z" fill="#A21E25"/>
<path d="M21.1461 39.4969C21.133 39.7809 21.1069 40.0633 21.0518 40.3416C20.1984 40.8149 19.2451 40.8361 18.2797 40.9528C17.9239 40.9961 17.5682 41.0393 17.2106 41.0442C16.1901 41.0597 15.1882 40.77 14.2041 40.4795C14.2078 40.2094 14.2013 39.9205 14.2153 39.6356C16.8829 40.4778 19.683 39.9205 21.1461 39.4961V39.4969Z" fill="white"/>
<path d="M14.8847 42.7506C15.1368 42.4715 15.4823 42.2585 15.8427 42.0912C16.7437 41.6734 17.7838 41.4669 18.7894 41.5942C19.5009 41.6848 20.1872 41.9541 20.7296 42.3679C20.0275 43.1146 18.9939 43.6932 17.471 43.6818C16.3637 43.6736 15.5215 43.29 14.8838 42.7498L14.8847 42.7506Z" fill="#FD4E4C"/>
<path d="M11.3701 36.3542C11.2366 36.3542 11.1125 36.2816 11.0639 36.1641C11.0023 36.0139 11.09 35.8483 11.259 35.7936L13.8463 34.9587L11.2665 33.0556C11.1283 32.9536 11.1087 32.7716 11.2245 32.6484C11.3393 32.5252 11.5448 32.5088 11.6829 32.6108L15.1357 35.1579L11.4813 36.3371C11.4448 36.3493 11.4066 36.3542 11.3701 36.3542Z" fill="#342530"/>
<path d="M23.8956 36.4153C23.862 36.4153 23.8284 36.4104 23.7957 36.4014L19.7126 35.2295L23.8134 32.658C23.96 32.5658 24.1636 32.5968 24.2672 32.7274C24.3708 32.858 24.3363 33.0383 24.1888 33.1306L21.1524 35.0345L23.9964 35.8506C24.1673 35.8995 24.2616 36.0628 24.2065 36.2146C24.1617 36.337 24.0338 36.4145 23.8965 36.4145L23.8956 36.4153Z" fill="#342530"/>
</svg>
