<svg width="149" height="220" viewBox="0 0 149 220" fill="none" xmlns="http://www.w3.org/2000/svg">
<path d="M106.264 69.999C107.577 67.8064 110.286 66.6229 112.716 67.1786C113.945 67.4604 115.083 68.1371 116.336 68.2734C117.589 68.4097 119.096 67.7069 119.208 66.407C119.34 64.8881 117.634 63.9955 116.231 63.5407C119.037 65.0963 122.242 65.8772 125.423 65.7777C127.841 65.7027 130.886 64.242 130.504 61.7646C129.177 61.5763 127.85 61.3865 126.525 61.1981C129.719 61.1047 132.869 59.8308 135.281 57.6582C133.51 56.7548 131.473 56.4195 129.519 56.7135C134.284 56.8207 139.067 55.1288 142.776 52.0252C139.408 50.9427 135.775 50.7636 132.323 51.5077C137.115 50.5033 141.745 48.6752 145.968 46.1228C146.989 45.5058 148.036 43.9624 147.047 43.2933C146.657 43.03 146.144 43.1203 145.688 43.2229C144.214 43.5505 142.74 43.8782 141.266 44.2059C143.192 42.7054 145.117 41.2049 147.043 39.7059C147.747 39.1578 148.503 38.112 147.876 37.472C147.528 37.1153 146.96 37.1796 146.483 37.2852C143.349 37.9773 140.37 39.4073 137.832 41.4345C138.929 40.7164 139.503 39.2359 139.191 37.9314C135.938 38.2483 132.859 40.1147 130.994 42.8968C131.955 41.2569 132.227 39.2006 131.73 37.3526C129.054 38.6127 126.923 41.064 125.992 43.9548C127.149 41.1788 127.666 38.1182 127.484 35.0988C125.234 34.4404 123.574 37.2209 122.78 39.5007C122.012 41.7055 121.242 43.9119 120.474 46.1167C121.265 45.7507 121.077 44.3498 120.28 43.9991C119.483 43.6485 118.529 44.1538 118.053 44.9025C117.577 45.6527 117.463 46.5791 117.361 47.4717C117.487 46.2177 116.999 43.007 116.52 41.8479C113.943 43.6455 112.843 49.0181 113.409 52.1845C112.858 51.373 112.348 49.2677 112.07 48.3169C111.794 47.3676 111.051 46.38 110.101 46.4949C109.201 46.6036 108.695 47.611 108.437 48.5113C107.879 50.465 107.748 52.5473 108.057 54.5592C108.155 53.2639 107.829 51.938 107.145 50.8478C104.398 53.1123 103.191 57.1927 104.241 60.6653C104.295 59.4266 104.164 58.1788 103.853 56.9814C103.717 56.4547 103.484 55.8714 102.984 55.703C102.195 55.4381 101.551 56.3843 101.264 57.1912C100.113 60.4157 105.755 66.6014 106.264 70.0005V69.999Z" fill="#75A61A"/>
<path d="M93.6349 45.4176C89.9221 43.0907 87.7136 38.555 88.169 34.1899C89.866 33.8054 91.7664 34.8514 92.3538 36.4914C92.2627 35.2225 90.9619 32.9284 90.8708 31.6595C92.4676 31.5338 95.3 33.5584 95.9102 35.0429C92.035 31.6176 89.6641 26.5402 89.526 21.364C89.5108 20.7715 89.5503 20.11 89.9783 19.7015C90.9831 18.7408 92.4767 20.1564 93.1188 21.3895C94.2785 23.6207 95.4381 25.8518 96.5993 28.083C94.9949 25.4613 93.9901 22.4744 93.6835 19.4142C95.8434 19.9873 97.5707 21.9342 97.8895 24.1489C96.7101 21.7382 96.0832 19.0595 96.0696 16.375C97.3294 16.354 98.571 17.1067 99.1372 18.235C97.1442 14.9279 97.9639 10.2052 100.954 7.766C101.74 8.26431 102.147 9.29685 101.912 10.1992C102.455 6.64667 104.224 3.29467 106.848 0.84502C107.313 0.411056 107.865 -0.0169229 108.499 0.00103426C110.067 0.0474235 110.216 2.33097 109.841 3.85733C109.187 6.51948 108.533 9.18162 107.88 11.8438C107.941 10.3608 109.201 9.02151 110.675 8.87336C110.649 12.2538 109.428 15.6133 107.276 18.2171C108.211 15.6402 110.943 13.84 113.675 13.9986C112.083 18.4221 109.363 22.434 105.845 25.5466C106.755 23.7987 108.553 22.5447 110.505 22.2933C110.08 25.4508 108.518 28.4422 106.173 30.594C107.502 29.0063 109.079 27.6266 110.829 26.5237C111.424 26.1481 112.127 25.7935 112.801 25.991C114.566 26.5073 113.54 29.1979 112.235 30.4967C109.703 33.0167 107.17 35.5367 104.638 38.0552C107.378 35.0668 110.972 32.8731 114.881 31.8076C114.723 35.9991 112.274 40.0305 108.633 42.1001C109.849 41.9355 111.065 41.7708 112.279 41.6062C111.881 44.4001 109.732 46.8662 107.021 47.6353C108.194 47.1131 109.368 46.5923 110.541 46.0701C110.791 48.1771 109.688 50.3843 107.853 51.4438C109.48 49.1722 112.326 47.8344 115.11 48.0334C113.917 52.6155 110.632 56.6079 106.37 58.655C107.73 58.471 109.088 58.2869 110.448 58.1029C110.64 60.4089 109.205 62.7598 107.07 63.6382C108.323 62.7897 111.069 62.3991 111.282 63.9C112.349 71.4405 101.323 75.5826 94.5289 79.0005L93.6364 45.4161L93.6349 45.4176Z" fill="#57860C"/>
<path d="M106.11 8.00049C98.8801 18.7801 100.751 32.9199 102.141 44.4288C102.659 48.6889 103.585 57.611 103.51 60.4962C103.482 62.3263 103.312 63.9143 102.251 67.0005C103.103 63.3723 103.138 61.8513 102.974 59.569C101.602 41.9897 95.8059 21.3501 106.11 8.00049Z" fill="#75A61A"/>
<path d="M104.11 72.0005C105.179 67.1056 106.814 63.6755 108.729 60.7583C112.317 55.4324 116.97 53.7537 122.291 52.2982C127.605 50.8593 133.488 49.1837 136.11 44.0005C135.381 45.6974 134.519 47.0421 132.725 48.5447C123.092 56.3992 111.552 49.4159 104.111 72.0005H104.11Z" fill="#57860C"/>
<path d="M83.8577 61.8897C81.0376 61.2415 78.1858 60.44 75.7956 58.7838C73.4054 57.1276 71.5208 54.465 71.4527 51.5199C72.75 51.2664 74.1002 51.2953 75.3869 51.6034C74.026 50.9674 72.5441 50.2053 71.9992 48.7844C71.4527 47.3635 72.7121 45.3354 74.1138 45.8682C71.8569 44.6477 69.7755 43.0872 67.959 41.2549C67.019 40.3076 66.1214 39.2298 65.8141 37.9197C65.5083 36.6097 65.976 35.0248 67.1749 34.4556C68.3723 33.8863 70.0994 34.9292 69.8724 36.256C65.8958 33.6905 62.5883 30.0593 60.3707 25.827C62.0479 24.7567 64.3654 24.8524 65.9518 26.0592C64.4699 24.8918 62.9894 23.7245 61.5075 22.5571C60.7067 21.9271 59.8121 20.9707 60.2057 20.0204C60.4888 19.3358 61.3107 19.0838 62.0358 19.0246C65.2146 18.7635 68.2724 20.6337 70.3008 23.1415C72.3291 25.6494 73.5114 28.7371 74.6618 31.7686C74.4817 29.3003 74.3015 26.8334 74.1214 24.3651C77.3245 26.7363 79.3407 30.6923 79.4028 34.7273C79.4633 32.3865 79.5239 30.0471 79.586 27.7063C79.6011 27.1325 79.6283 26.5192 79.9629 26.0577C80.5926 25.1879 82.017 25.3731 82.7587 26.1458C83.5005 26.9184 83.7351 28.0448 83.9243 29.109C84.9128 34.6772 85.5122 40.3152 85.715 45.97C85.5743 43.9859 86.5385 41.9593 88.1552 40.845C89.2965 43.8568 89.9111 47.0766 89.9626 50.3055C89.955 47.4121 91.3885 44.5521 93.6924 42.8625C95.082 48.4201 95.4059 54.2509 94.643 59.933C94.3872 58.0825 95.5149 56.1257 97.2269 55.4532C97.7401 58.3937 97.8884 61.369 97.8188 64.349C99.5687 58.4802 103.467 57.8912 103.084 64.3748C102.838 68.5282 100.285 72.1092 96.6351 73.8322C92.9007 75.5947 88.3959 75.159 84.5979 73.8702C78.3583 71.754 77.6393 64.4583 85.0399 67.1574C82.3546 67.4443 79.8494 65.4905 79.7086 62.7748C80.7334 62.4605 82.7391 61.6317 83.8547 61.8882L83.8577 61.8897Z" fill="#91C324"/>
<path d="M94.6604 72.2801C93.8284 70.0567 92.0518 68.0803 90.5432 66.29C82.698 56.977 78.7124 44.9053 74.0325 33.497C72.8733 30.6697 71.5468 27.7204 69.1099 26.0002C70.9442 26.6377 72.099 28.2953 73.0258 30.0704C78.7317 40.9922 81.78 53.6312 89.6623 62.9518C92.4619 66.261 96.0344 69.5809 96.1099 74.0002C95.5621 73.3918 95.4096 72.5729 94.6619 72.2786L94.6604 72.2801Z" fill="#75A61A"/>
<g opacity="0.4">
<path d="M102.34 219.507C121.063 219.507 136.241 216.453 136.241 212.685C136.241 208.917 121.063 205.863 102.34 205.863C83.6166 205.863 68.4385 208.917 68.4385 212.685C68.4385 216.453 83.6166 219.507 102.34 219.507Z" fill="#848384"/>
</g>
<path d="M81.9102 198.396C81.8272 198.396 81.7419 198.385 81.6566 198.362C81.1378 198.22 80.8289 197.676 80.9695 197.149C83.4434 187.831 90.4662 179.837 99.2989 176.291C99.7992 176.089 100.366 176.339 100.562 176.849C100.761 177.358 100.514 177.932 100.014 178.133C91.7412 181.455 85.1657 188.94 82.8486 197.665C82.731 198.107 82.339 198.396 81.9079 198.396H81.9102Z" fill="#FC9500"/>
<path d="M82.98 197.19C83.176 195.903 83.8193 195.364 83.1783 194.683C81.6728 193.083 79.1851 190.907 76.7342 191.264C72.8908 191.826 72.5542 196.105 72.5542 196.105L82.5627 198.751L82.98 197.188V197.19Z" fill="#FC9500"/>
<path d="M121.017 197.882C119.804 197.463 120.085 197.331 119.013 198.047C117.19 199.26 115.202 200.653 115.124 203.17C115.002 207.115 119.089 208.189 119.089 208.189L123.546 198.625L121.017 197.882Z" fill="#FC9500"/>
<path d="M122.193 200.237C122.069 200.253 121.937 200.246 121.808 200.209C112.498 197.572 106.144 189.773 105.623 180.337C105.593 179.791 106.006 179.319 106.54 179.293C107.078 179.261 107.539 179.68 107.569 180.226C108.044 188.803 113.84 195.899 122.334 198.304C122.852 198.45 123.155 198.996 123.009 199.524C122.901 199.92 122.571 200.191 122.193 200.242V200.237Z" fill="#FC9500"/>
<path d="M58.9511 122.002C63.0458 118.162 65.0816 125.882 63.6752 127.202C62.2688 128.521 56.0092 124.762 58.9511 122.002Z" fill="#FC9500"/>
<path d="M80.0938 139.957C79.3306 139.957 78.579 139.876 77.8527 139.705C71.3026 138.152 65.6101 133.489 62.237 126.915C62.0019 126.454 62.1771 125.887 62.629 125.648C63.0809 125.41 63.6388 125.586 63.8763 126.047C67.0004 132.135 72.2502 136.448 78.2747 137.876C82.9112 138.978 89.1178 135.443 92.4425 131.392C92.7699 130.994 93.3532 130.941 93.7451 131.272C94.1371 131.605 94.1901 132.195 93.8627 132.593C90.7087 136.436 85.1315 139.957 80.0961 139.957H80.0938Z" fill="#FC9500"/>
<path d="M140.124 141.043C134.554 140.948 138.326 133.934 140.242 133.966C142.158 133.999 144.129 141.11 140.124 141.043Z" fill="#FC9500"/>
<path d="M140.274 136.517C139.831 136.517 139.439 136.193 139.363 135.732C138.263 129.056 137.044 127.174 131.695 123.882C127.621 121.377 120.642 122.782 116.247 125.588C115.816 125.864 115.244 125.732 114.972 125.292C114.7 124.852 114.832 124.273 115.263 123.998C120.065 120.933 127.791 119.287 132.651 122.275C138.413 125.82 140.008 128.278 141.187 135.422C141.272 135.934 140.931 136.418 140.428 136.503C140.377 136.512 140.324 136.517 140.274 136.517Z" fill="#FC9500"/>
<path d="M93.8852 71.2971C85.9379 70.4753 76.9115 71.8064 76.1622 85.5598C75.4129 99.3131 87.146 134.718 92.3866 156.878C97.6295 179.037 100.124 200.432 102.372 201.196C104.618 201.96 111.359 166.302 113.605 148.472C115.85 130.642 123.839 102.88 125.336 92.4376C126.834 81.9947 122.714 74.7349 116.724 72.9524C110.806 71.1907 102.497 72.1884 93.8852 71.2971Z" fill="#FF9F57"/>
<path d="M125.335 92.4375C126.834 81.9946 122.714 74.7348 116.724 72.9523C110.806 71.1906 102.496 72.1883 93.885 71.2971C88.4254 70.7322 82.4563 71.1836 79.0117 75.9803C86.0737 74.0797 94.1294 74.7418 101.002 76.9665C102.342 77.3994 103.965 78.6772 103.227 79.8972C103.004 80.2676 102.607 80.4852 102.231 80.6866C98.5146 82.6706 92.0152 83.9045 91.0791 86.6408C94.1732 87.1686 97.1866 88.1849 99.9764 89.6433C100.631 89.9859 101.355 90.4698 101.42 91.2198C101.565 92.9005 98.5538 93.1575 98.2933 94.8242C98.1365 95.8313 99.0956 96.6114 99.5452 97.5235C100.719 99.908 98.2149 102.487 95.8102 103.538C93.4055 104.589 90.4589 105.464 89.5874 107.98C92.5778 109.802 94.1963 113.701 93.3986 117.162C93.1934 118.05 92.8567 119.027 93.281 119.831C93.7006 120.622 94.6643 120.877 95.4459 121.298C97.9336 122.636 98.6276 126.507 96.7647 128.655C95.2476 130.406 92.2296 132.024 93.3271 134.075C93.7859 134.931 94.8465 135.283 95.3744 136.098C96.6195 138.022 94.1041 140.48 94.5536 142.74C94.7911 143.939 95.8056 144.779 96.6033 145.694C99.7389 149.296 99.7735 154.683 99.0749 159.447C98.3763 164.214 100.942 166.982 102.121 171.649C102.766 174.205 100.301 178.645 101.023 181.18C102.492 186.333 101.279 191.734 100.615 197.119C101.242 199.545 101.814 201.003 102.372 201.193C104.618 201.957 111.359 166.299 113.605 148.469C115.85 130.639 123.839 102.878 125.335 92.4352V92.4375Z" fill="#FE7628"/>
<path d="M121.621 80.5594C121.206 79.6612 115.38 79.7098 115.297 80.5594C115.214 81.409 118.541 81.3233 118.626 81.9183C118.709 82.5132 110.388 83.2772 110.305 85.0597C110.222 86.8422 122.702 87.1825 122.453 86.3329C122.204 85.4833 115.963 85.9926 115.963 85.1454C115.963 84.2981 123.203 84.9764 123.12 83.7865C123.037 82.5966 119.127 83.2772 119.376 82.6822C119.625 82.0873 122.287 82.0039 121.621 80.5594Z" fill="#EA6C2D"/>
<path d="M85.177 86.1639C85.2439 85.1338 97.3251 83.3628 97.5741 84.5504C97.8231 85.738 92.8315 84.8907 92.7485 85.9093C92.6655 86.9279 98.4064 86.4186 98.2404 87.3515C98.0744 88.2845 86.4266 88.8794 86.5096 88.2011C86.5926 87.5228 91.2522 87.7775 90.9202 87.0135C90.5882 86.2496 85.0963 87.4372 85.1793 86.1639H85.177Z" fill="#EA6C2D"/>
<path d="M83.5122 93.7202C83.5122 93.7202 88.6698 90.919 94.3277 93.3799C94.3277 93.3799 87.6715 95.2481 83.5122 93.7202Z" fill="#EA6C2D"/>
<path d="M88.9211 97.116C88.9211 97.116 92.6654 94.9931 96.6587 97.3706C96.6587 97.3706 90.5858 98.6439 88.9211 97.116Z" fill="#EA6C2D"/>
<path d="M119.539 97.7945C119.124 97.3708 109.388 98.0491 109.554 98.7274C109.72 99.4057 115.712 100.001 115.795 100.255C115.878 100.51 105.312 102.292 105.395 102.802C105.478 103.311 120.538 104.584 120.455 103.735C120.372 102.885 115.629 103.225 115.712 102.547C115.795 101.869 121.038 101.783 121.121 100.85C121.204 99.9173 116.627 99.3224 116.71 98.9821C116.793 98.6418 119.539 97.7945 119.539 97.7945Z" fill="#EA6C2D"/>
<path d="M87.2567 113.925C87.2567 114.571 91.6673 116.134 91.6673 116.812C91.6673 117.49 89.5877 116.981 89.5047 117.916C89.4217 118.849 94.8306 118.426 95.0796 119.19C95.3286 119.954 86.6757 120.718 86.8417 121.313C87.0077 121.907 100.486 123.181 100.486 122.417C100.486 121.653 96.8249 121.567 97.0739 121.058C97.3229 120.549 101.816 120.208 101.733 119.19C101.65 118.171 94.6622 117.49 94.6622 117.49C94.6622 117.49 100.903 116.472 100.569 115.537C100.235 114.601 92.1653 115.622 91.7503 114.858C91.3353 114.094 96.5759 113.245 96.3269 113.159C96.0779 113.073 87.2567 113.159 87.2567 113.923V113.925Z" fill="#EA6C2D"/>
<path d="M103.732 131.755C102.743 131.892 107.394 131.755 107.394 132.774C107.394 133.792 99.905 133.623 99.905 134.642C99.905 135.66 104.565 135.32 104.731 135.66C104.897 136.001 101.235 137.36 101.235 137.36C101.235 137.36 111.053 138.378 111.053 136.85C111.053 135.322 106.559 136.681 106.559 135.832C106.559 134.982 111.885 134.982 112.051 133.623C112.217 132.264 107.391 131.246 103.73 131.755H103.732Z" fill="#EA6C2D"/>
<path d="M106.727 154C107.686 153.266 98.4062 151.792 96.9099 154.509C96.9099 154.509 104.066 156.037 106.727 154Z" fill="#EA6C2D"/>
<path d="M107.892 157.056C107.892 157.056 102.566 155.868 101.235 157.734C101.235 157.734 107.225 158.584 107.892 157.056Z" fill="#EA6C2D"/>
<path d="M104.73 167.584C104.73 167.584 99.0726 168.093 99.4046 168.772C100.004 169.996 103.066 168.941 103.232 169.79C103.398 170.64 98.4062 171.149 98.4062 171.149C98.4062 171.149 105.062 173.017 105.062 171.827C105.062 170.638 103.398 171.149 103.398 171.149C103.398 171.149 107.391 170.98 107.557 169.962C107.723 168.943 104.894 169.283 104.894 169.283C104.894 169.283 106.725 167.415 104.728 167.584H104.73Z" fill="#EA6C2D"/>
<path d="M98.9067 180.49C98.9067 180.49 103.4 178.113 105.065 179.472C105.065 179.472 100.405 181.849 98.9067 180.49Z" fill="#EA6C2D"/>
<path d="M100.903 183.715C100.903 183.715 104.731 182.527 105.729 183.715C105.729 183.715 102.4 185.583 100.903 183.715Z" fill="#EA6C2D"/>
<path d="M111.057 109.311C111.057 109.311 98.5216 115.254 88.3447 109.281C88.3447 109.281 89.9748 122.078 99.4392 122.16C109.937 122.25 111.057 109.311 111.057 109.311Z" fill="#A21E25"/>
<path d="M108.512 110.286C108.479 111.091 108.415 111.892 108.279 112.682C106.171 114.024 103.817 114.084 101.433 114.415C100.555 114.538 99.6766 114.661 98.7936 114.675C96.2736 114.719 93.7997 113.897 91.3696 113.073C91.3789 112.306 91.3627 111.487 91.3973 110.679C97.9843 113.068 104.899 111.487 108.512 110.283V110.286Z" fill="white"/>
<path d="M93.0504 119.516C93.6729 118.724 94.526 118.12 95.4159 117.645C97.6408 116.46 100.209 115.874 102.692 116.235C104.449 116.492 106.144 117.256 107.483 118.43C105.75 120.548 103.197 122.19 99.4369 122.157C96.7024 122.134 94.6228 121.046 93.0481 119.514L93.0504 119.516Z" fill="#FD4E4C"/>
<path d="M84.3723 101.371C84.0426 101.371 83.7359 101.165 83.6161 100.832C83.4639 100.406 83.6806 99.9358 84.0979 99.7807L90.4867 97.4125L84.1164 92.0139C83.7751 91.7246 83.7267 91.2083 84.0126 90.8588C84.2962 90.5092 84.8034 90.4629 85.1447 90.7523L93.6707 97.9773L84.6466 101.322C84.5567 101.357 84.4622 101.371 84.3723 101.371Z" fill="#342530"/>
<path d="M115.302 101.545C115.219 101.545 115.136 101.531 115.055 101.505L104.973 98.1809L115.099 90.8864C115.461 90.6248 115.963 90.7128 116.219 91.0832C116.475 91.4536 116.39 91.9652 116.026 92.2268L108.528 97.6276L115.551 99.9426C115.973 100.082 116.205 100.545 116.069 100.975C115.959 101.322 115.643 101.542 115.304 101.542L115.302 101.545Z" fill="#342530"/>
<path d="M83.521 182.98L84.6924 182.319L84.8889 182.209L85.1051 182.144C86.0667 181.859 87.1047 181.596 88.0776 181.351C88.6903 181.196 89.2772 181.048 89.8029 180.904L89.8162 180.901C90.3116 180.769 90.7807 180.643 91.2395 180.509C92.1638 180.238 93.004 179.95 93.7796 179.586L93.7805 179.585C95.601 178.73 96.7645 176.364 97.0833 173.753C97.4293 170.899 96.4277 168.663 94.2439 166.338L94.2438 166.338C92.2726 164.238 90.298 162.134 88.3632 159.969C87.8798 159.428 87.3548 158.831 86.8714 158.209L86.8696 158.207C85.9632 157.037 84.9264 155.443 84.8501 153.63C84.7629 151.559 85.9141 149.85 87.9486 148.558C89.0701 147.805 90.3079 147.194 91.4308 146.652C91.5458 146.596 91.6595 146.541 91.772 146.487C92.8098 145.987 93.7411 145.538 94.5831 145.029C96.3612 143.953 97.3333 142.86 97.4734 141.113C97.4585 140.685 97.3755 140.273 97.2261 139.881C96.9242 139.088 96.318 138.335 95.2664 137.789C92.971 136.667 90.4772 136.576 88.3012 137.415C87.8762 137.58 87.4631 137.786 87.0601 138.039L86.9561 138.105L86.8448 138.157C86.7364 138.207 86.6101 138.288 86.3773 138.46C86.346 138.483 86.3103 138.51 86.2708 138.54C86.0942 138.673 85.8426 138.862 85.5715 139.036C84.9865 139.515 84.4302 140.116 83.8353 140.826C83.6248 141.078 83.3872 141.371 83.1381 141.678C82.7296 142.182 82.2902 142.725 81.8885 143.183C80.5116 144.753 78.6401 146.485 75.8084 146.66L75.794 146.661L75.7796 146.662C73.954 146.749 72.4482 146.2 71.2356 145.228C70.084 144.306 69.2823 143.072 68.665 141.912C68.2356 141.106 67.8303 140.201 67.4616 139.377C67.3128 139.045 67.1701 138.726 67.034 138.432C66.5207 137.324 66.0534 136.449 65.5269 135.808L65.5076 135.785L65.489 135.761C65.2529 135.455 64.9833 135.219 64.672 135.022C64.3446 134.814 63.9544 134.632 63.4825 134.461C62.994 134.296 62.5047 134.158 62.004 134.042C61.4926 133.924 60.9971 133.835 60.5121 133.782L60.5044 133.781C59.5589 133.674 58.8805 133.873 58.3108 134.226C57.6937 134.609 57.1036 135.239 56.4947 136.141C55.9058 137.014 55.3824 138.01 54.8052 139.109L54.7355 139.241C54.168 140.321 53.5323 141.523 52.7875 142.551C52.6038 142.84 52.4323 143.124 52.2473 143.431C52.1382 143.611 52.0244 143.8 51.9006 144.002C51.9003 144.002 51.9001 144.002 51.8998 144.003L50.1949 142.957C48.9336 145.017 47.5404 146.945 44.9492 146.519L83.521 182.98ZM83.521 182.98C82.2171 183.6 80.9993 184.601 80.1965 185.878C79.3701 187.192 78.9492 188.875 79.4938 190.645L79.511 190.701L79.5313 190.755C79.8099 191.503 80.1355 192.231 80.519 192.949C81.3286 194.624 82.4865 196.034 83.7968 197.199L83.7972 197.199C84.2311 197.585 84.6899 197.954 85.1634 198.295C88.7034 200.86 91.4857 204.639 91.5118 208.609C91.5235 210.493 90.6046 212.368 89.0603 213.778C87.5161 215.187 85.4863 215.999 83.4965 215.898L83.4707 215.896L83.4448 215.896C82.9445 215.883 82.4315 215.821 81.9146 215.709C81.4462 215.606 80.9791 215.473 80.5124 215.305C78.404 214.529 77.4644 212.846 76.8432 210.171C76.6095 209.165 76.4458 208.133 76.27 207.026C76.2067 206.627 76.1419 206.219 76.0716 205.798C75.8179 204.278 75.4976 202.635 74.9086 201.13L74.8902 201.083L74.8695 201.037C74.8415 200.975 74.8088 200.899 74.7714 200.813C74.5924 200.399 74.3089 199.745 73.9507 199.193C73.4762 198.463 72.6969 197.612 71.427 197.279L71.3757 197.265L71.3238 197.255C70.432 197.071 69.6013 197.09 68.8238 197.259L68.812 197.261L68.8003 197.264C68.024 197.441 67.3373 197.766 66.7324 198.161L66.6342 198.225L66.5443 198.3C65.66 199.039 64.928 199.908 64.3006 200.705C64.0608 201.01 63.844 201.293 63.6375 201.563C63.2626 202.053 62.9213 202.499 62.5361 202.95C61.4139 204.265 60.4422 204.968 59.0892 205.045L59.0686 205.047L59.048 205.048C57.9954 205.13 57.0327 204.833 55.7729 204.3C55.5783 204.217 55.3713 204.126 55.1531 204.03C54.0731 203.555 52.719 202.96 51.2413 202.691C47.8269 202.007 45.6065 204.595 44.5655 206.175C44.0649 206.877 43.6041 207.59 43.1764 208.279L43.1728 208.284C42.7462 208.977 42.3536 209.653 41.9867 210.293C41.8715 210.461 41.7276 210.628 41.5219 210.842C41.4729 210.893 41.4111 210.956 41.3412 211.027C41.1662 211.205 40.9411 211.434 40.7436 211.654C40.2632 212.127 39.76 212.59 39.2484 213.029C37.3511 214.649 35.4829 215.767 33.7819 216.06C32.2681 216.32 30.6817 215.972 29.0012 214.099L28.9942 214.091C28.0813 213.085 27.8309 212.271 27.8156 211.619C27.7992 210.919 28.0474 210.122 28.6216 209.174C29.198 208.223 30.0192 207.255 30.9697 206.234C31.2866 205.894 31.6338 205.532 31.9878 205.163C32.6207 204.503 33.2753 203.82 33.8171 203.199L33.8538 203.157L33.8881 203.113C34.6863 202.087 35.2977 200.774 35.4489 199.363C35.5258 198.648 35.4851 197.872 35.2431 197.096L35.1978 196.951L35.1311 196.814C34.3733 195.26 33.0006 194.221 31.4419 193.862C29.7218 193.366 27.7961 193.249 26.1468 193.15C25.831 193.131 25.5252 193.112 25.233 193.092C23.2217 192.951 21.7131 192.724 20.589 192.07C20.2323 191.861 19.9161 191.61 19.6361 191.299L19.6264 191.288L19.6166 191.278C19.1838 190.812 19.0518 190.108 19.3134 189.458C19.4814 189.072 19.6955 188.674 19.9489 188.244C21.4164 185.796 23.0617 183.696 24.9833 181.243C25.1291 181.057 25.2764 180.869 25.4254 180.679L25.4448 180.654L25.4634 180.628C28.0235 177.135 28.7526 171.512 24.7361 168.164C23.9728 167.527 23.1615 167.041 22.3245 166.686C21.4946 166.328 20.6598 166.106 19.8444 165.964L19.8444 165.964L19.8312 165.962C18.2157 165.692 16.5392 165.664 15.0487 165.638C14.6581 165.632 14.2802 165.625 13.9195 165.615C12.0842 165.562 10.5185 165.411 9.07928 164.838L9.06202 164.832L9.04465 164.825C7.17734 164.122 5.09449 162.69 3.84848 160.985C2.65052 159.347 2.37362 157.736 3.32517 156.128C3.53858 155.771 3.76145 155.475 3.99023 155.229C4.67108 154.495 5.49128 154.072 6.45926 153.882C6.85701 153.805 7.28167 153.767 7.73648 153.772C9.83237 154.179 11.6657 155.235 13.6938 156.601C14.0572 156.845 14.431 157.103 14.8152 157.368C16.5286 158.551 18.4494 159.877 20.5847 160.803L20.5956 160.808L20.6065 160.812C22.5517 161.628 25.2173 161.915 27.4394 160.024C29.1278 158.618 30.094 156.413 29.7777 154.14C29.6082 152.536 29.1788 150.987 28.8039 149.634C28.7324 149.376 28.6629 149.125 28.5975 148.882C28.1682 147.288 27.8772 145.927 27.9506 144.552C28.0067 143.982 28.1185 143.509 28.2715 143.127L28.2723 143.125C28.5061 142.54 28.825 142.15 29.2512 141.888C29.6942 141.615 30.4246 141.375 31.6483 141.401C32.2282 141.414 32.7931 141.472 33.371 141.582L33.4447 141.596L33.5193 141.604C34.0191 141.661 34.6507 141.878 35.2636 142.22C36.2925 142.816 37.1077 143.596 38.0891 144.536C38.3989 144.832 38.7253 145.144 39.0803 145.472C40.4467 146.732 42.1883 148.136 44.6448 148.496L83.521 182.98Z" fill="white" stroke="#D9D9D9" stroke-width="4"/>
</svg>
