<svg width="102" height="191" viewBox="0 0 102 191" fill="none" xmlns="http://www.w3.org/2000/svg">
<g opacity="0.4">
<path d="M63.2445 190.507C84.236 190.507 101.253 187.176 101.253 183.067C101.253 178.958 84.236 175.627 63.2445 175.627C42.253 175.627 25.2361 178.958 25.2361 183.067C25.2361 187.176 42.253 190.507 63.2445 190.507Z" fill="#848384"/>
</g>
<path d="M50.3209 180.629C50.3419 180.629 50.3604 180.629 50.3814 180.629C50.9648 180.597 51.4111 180.091 51.3785 179.502C51.1972 176.262 51.4157 171.897 51.6272 167.674C51.8411 163.395 52.0642 158.97 51.8759 155.616C51.8434 155.027 51.339 154.579 50.7602 154.609C50.1768 154.642 49.7305 155.147 49.7631 155.737C49.9444 158.977 49.7259 163.341 49.5144 167.565C49.3005 171.844 49.0774 176.269 49.2657 179.623C49.2982 180.191 49.7654 180.632 50.3209 180.632V180.629Z" fill="#448300"/>
<path d="M84.25 178.765C84.4801 178.765 84.7126 178.688 84.9078 178.533C85.3657 178.166 85.4424 177.494 85.0798 177.032C80.4055 171.088 77.1327 164.014 75.6172 156.579C75.4987 156.001 74.9385 155.628 74.3667 155.748C73.7949 155.867 73.4253 156.432 73.5439 157.01C75.1268 164.773 78.5436 172.155 83.4225 178.361C83.6317 178.628 83.9409 178.765 84.2523 178.765H84.25Z" fill="#448300"/>
<path d="M89.417 110.144L87.7388 108.289C91.2742 105 93.7566 100.487 94.2215 96.5045C94.6655 92.694 92.6944 87.8304 88.7336 86.6198C85.3423 85.5831 81.5652 87.3225 77.9856 89.1965L76.8467 86.9584C80.8772 84.8502 85.1703 82.902 89.4495 84.21C94.712 85.8196 97.2618 91.8753 96.6877 96.8037C96.1554 101.356 93.3708 106.47 89.417 110.147V110.144Z" fill="#8EA83A"/>
<path d="M4.1095 66.1545C10.8735 67.6388 4.58368 75.209 2.25928 74.6987C-0.0651068 74.1885 -0.750802 65.0876 4.1095 66.1545Z" fill="#8EA83A"/>
<path d="M26.8165 100.749C20.4314 100.749 14.4182 98.8678 9.74389 95.2543C1.83398 89.1384 -1.25281 77.8273 2.71725 69.5034L4.95332 70.6004C1.47835 77.8853 4.24205 87.835 11.2501 93.2528C17.6096 98.1697 26.7631 99.545 35.7376 96.9358L36.4233 99.3571C33.2086 100.292 29.9661 100.751 26.8165 100.751V100.749Z" fill="#8EA83A"/>
<path d="M35.3867 37.3049C35.3867 37.3049 18.8068 54.5464 25.185 106.276C31.3818 156.553 56.2179 161.883 72.7955 157.571C89.3754 153.259 96.1765 136.018 93.2013 123.086C90.2261 110.153 81.2981 105.844 77.4722 76.5309C73.6462 47.2198 75.7707 41.1828 75.7707 41.1828C75.7707 41.1828 71.094 28.6819 59.1908 27.3877C47.2876 26.0936 35.3844 37.3026 35.3844 37.3026L35.3867 37.3049Z" fill="#7F327A"/>
<path d="M42.9852 41.1921C42.9852 41.1921 29.0087 75.6682 34.1107 101.964C39.2127 128.258 49.0077 130.32 51.1136 127.829C53.6635 124.811 40.9119 107.999 41.7626 82.568C42.6133 57.1348 48.5638 42.9107 48.5638 42.9107L42.9852 41.1945V41.1921Z" fill="#9E469C"/>
<path d="M64.2929 42.9084C64.2929 42.9084 57.0664 69.6335 62.5914 98.084C68.1188 126.535 78.746 132.569 83.4203 129.983C88.097 127.397 77.4699 111.448 71.5171 92.4807C65.5667 73.5136 69.8157 45.4944 69.8157 45.4944L64.2882 42.9084H64.2929Z" fill="#B75CB7"/>
<path d="M55.7925 154.554C55.1603 156.154 63.8698 158.003 71.947 155.417C80.0243 152.831 83.8502 148.95 82.5741 147.659C81.298 146.364 56.6432 152.399 55.7925 154.556V154.554Z" fill="#9E469C"/>
<path d="M67.812 1.72046C67.812 1.72046 59.6185 19.6322 54.5165 21.7868C49.4144 23.9414 43.1316 21.5804 38.2876 26.8684C33.1693 32.4578 33.0716 37.4443 22.6421 38.9564C22.6421 38.9564 36.2375 45.4945 43.0386 34.2877C43.0386 34.2877 44.7401 39.4597 42.1879 41.6167C38.4642 44.7639 43.8894 48.9456 44.7378 52.392C45.5885 55.8408 47.2876 61.0128 51.5389 60.15C51.5389 60.15 47.3341 54.4353 51.9643 51.5292C60.8923 45.9259 60.4669 38.597 60.4669 38.597C60.4669 38.597 66.8427 53.2525 73.6439 51.9606C80.445 50.6665 82.1465 48.5119 82.9949 46.3572C83.8456 44.2026 80.8704 41.6167 80.8704 41.6167C80.8704 41.6167 81.7211 45.0654 80.0197 46.3572C78.3182 47.6514 77.0445 46.3572 77.0445 46.3572C77.0445 46.3572 78.3206 38.1679 75.7684 33.8564C73.2185 29.5448 68.9672 29.1158 69.8179 22.6496C70.6687 16.1835 76.5331 5.56582 76.5331 5.56582L67.8097 1.72046H67.812Z" fill="#8EA83A"/>
<path d="M68.9393 0.688271C70.843 0.393723 72.3678 0.871494 74.2366 1.61134C75.5104 2.11695 76.8213 3.15134 76.8097 4.53827C76.7981 5.80691 75.6638 6.86218 74.5109 7.35851C73.0767 7.98008 71.3869 8.14938 69.9667 7.49535C68.5465 6.84131 67.5749 4.79571 67.5261 3.21396C67.4842 1.91285 68.1351 0.811193 68.937 0.685952L68.9393 0.688271Z" fill="#ADC646"/>
<g opacity="0.58">
<path d="M29.3528 68.3277C32.507 64.0347 38.4621 63.1232 42.6553 66.2914C46.8485 69.4595 47.6899 75.5058 44.538 79.7988C41.3838 84.0918 35.4288 85.0033 31.2356 81.8351C27.0424 78.667 26.2009 72.6207 29.3528 68.3277Z" fill="#342530"/>
</g>
<path d="M28.7158 66.9617C31.7654 62.8102 37.5229 61.9289 41.5767 64.9926C45.6304 68.0541 46.4463 73.9033 43.3967 78.0525C40.3471 82.204 34.5895 83.0853 30.5358 80.0215C26.4821 76.9601 25.6662 71.1109 28.7158 66.9617Z" fill="white"/>
<path d="M29.7596 69.6754C31.8771 66.7948 35.8727 66.1825 38.6875 68.307C41.5024 70.4338 42.0672 74.4925 39.952 77.373C37.8345 80.2536 33.8389 80.8659 31.024 78.7414C28.2092 76.6146 27.6444 72.5559 29.7596 69.6754Z" fill="#8DA03F"/>
<path d="M31.5238 71.0088C32.9069 69.1255 35.5195 68.7243 37.3604 70.1159C39.199 71.5051 39.5686 74.1584 38.1856 76.0416C36.8025 77.9249 34.1899 78.3238 32.349 76.9345C30.5104 75.5453 30.1408 72.892 31.5238 71.0088Z" fill="#342530"/>
<g opacity="0.44">
<path d="M31.2101 67.3607C32.0468 66.2219 33.6251 65.9807 34.7385 66.8203C35.8495 67.6599 36.0727 69.2648 35.2382 70.4012C34.4015 71.54 32.8232 71.7812 31.7098 70.9416C30.5987 70.1021 30.3756 68.4971 31.2101 67.3607Z" fill="white"/>
</g>
<g opacity="0.58">
<path d="M56.4248 68.3277C59.579 64.0347 65.5341 63.1232 69.7273 66.2914C73.9205 69.4595 74.7619 75.5058 71.6101 79.7988C68.4559 84.0918 62.5008 85.0033 58.3076 81.8351C54.1144 78.667 53.2729 72.6207 56.4248 68.3277Z" fill="#342530"/>
</g>
<path d="M55.7878 66.9617C58.8374 62.8102 64.5949 61.9289 68.6487 64.9926C72.7024 68.0541 73.5183 73.9033 70.4687 78.0525C67.4191 82.204 61.6616 83.0853 57.6078 80.0215C53.5541 76.9601 52.7382 71.1109 55.7878 66.9617Z" fill="white"/>
<path d="M56.8291 69.6754C58.9467 66.7948 62.9423 66.1825 65.7571 68.307C68.572 70.4338 69.1368 74.4925 67.0216 77.373C64.9041 80.2536 60.9084 80.8659 58.0936 78.7414C55.2788 76.6146 54.7139 72.5559 56.8291 69.6754Z" fill="#8DA03F"/>
<path d="M58.5956 71.0088C59.9786 69.1255 62.5912 68.7243 64.4321 70.1159C66.2707 71.5051 66.6403 74.1584 65.2573 76.0416C63.8743 77.9249 61.2617 78.3238 59.4207 76.9345C57.5798 75.5453 57.2126 72.892 58.5956 71.0088Z" fill="#342530"/>
<g opacity="0.44">
<path d="M58.2818 67.3607C59.1186 66.2219 60.6968 65.9807 61.8102 66.8203C62.9213 67.6599 63.1444 69.2648 62.31 70.4012C61.4732 71.54 59.8949 71.7812 58.7815 70.9416C57.6682 70.1021 57.4473 68.4971 58.2818 67.3607Z" fill="white"/>
</g>
<path d="M49.6586 90.1427C56.4667 90.5138 57.0501 86.1071 61.4758 88.4774C65.9014 90.8477 59.9463 100.821 48.9496 100.222C37.9529 99.6239 35.4403 89.2706 37.5322 87.7074C40.6306 85.3905 44.7704 89.876 49.6586 90.1427Z" fill="#342530"/>
<path d="M48.9495 100.222C45.5536 100.037 42.9665 98.9211 41.0745 97.4228C42.662 95.1267 45.1352 93.4592 47.857 92.9327C51.2204 92.281 54.8697 93.3919 57.3243 95.8133C57.8473 96.3305 58.3214 96.9126 58.705 97.5458C56.2946 99.2551 52.9568 100.44 48.9495 100.222Z" fill="#FF0D36"/>
<path d="M51.311 176.41C49.3073 175.142 45.8091 174.189 43.3313 175.246C39.4449 176.904 40.2562 181.464 40.2562 181.464H51.4597L51.311 176.41Z" fill="#448300"/>
<path d="M84.6521 176.487C83.8456 175.341 83.383 174.734 82.3766 174.655C80.0173 174.469 77.5511 174.574 75.9101 176.726C73.3393 180.103 76.2704 183.667 76.2704 183.667L85.9352 178.108L84.6498 176.485L84.6521 176.487Z" fill="#448300"/>
<path d="M47.3525 41.7951C48.2521 39.9838 49.5537 38.3788 51.1366 37.1357C50.2325 40.559 49.2609 43.9637 48.2242 47.3475C50.7438 45.3181 53.2263 43.1937 55.1695 40.5937C57.1127 37.9938 58.491 34.8582 58.5212 31.595C58.577 25.3375 53.8957 25.537 50.6346 29.5122C49.2167 31.2424 48.1614 33.288 47.5989 35.4681C47.1805 37.0847 47.9522 40.5937 47.3549 41.7974L47.3525 41.7951Z" fill="#ADC646"/>
<path d="M38.1897 30.8805C36.6301 33.0606 35.3493 35.7742 32.8459 36.6717C35.5353 37.0127 38.3455 36.1917 40.4467 34.4568C43.415 32.003 45.7719 27.8376 47.9382 24.7344C44.7863 23.5887 39.9632 28.4035 38.1897 30.8805Z" fill="#ADC646"/>
<path d="M66.0452 41.0622C66.8518 42.8666 67.7792 44.6733 69.2227 46.0092C70.6661 47.3474 72.7255 48.1475 74.6083 47.6164C71.6819 45.8816 71.0008 41.8322 71.5471 38.4414C72.0491 35.322 72.6233 27.6614 66.9239 29.4843C62.4378 30.92 64.7203 38.0958 66.0452 41.0598V41.0622Z" fill="#ADC646"/>
<path d="M91.4904 115.205C85.0727 117.014 86.4743 109.314 87.7365 108.289C87.941 108.122 89.6425 107.447 90.3189 107.85C92.7455 109.3 95.4581 114.089 91.4904 115.207V115.205Z" fill="#8EA83A"/>
</svg>
