<svg width="151" height="191" viewBox="0 0 151 191" fill="none" xmlns="http://www.w3.org/2000/svg">
<g opacity="0.4">
<path d="M112.245 190.507C133.236 190.507 150.253 187.176 150.253 183.067C150.253 178.958 133.236 175.626 112.245 175.626C91.253 175.626 74.2361 178.958 74.2361 183.067C74.2361 187.176 91.253 190.507 112.245 190.507Z" fill="#848384"/>
</g>
<path d="M99.3209 180.629C99.3419 180.629 99.3604 180.629 99.3814 180.629C99.9648 180.597 100.411 180.091 100.379 179.502C100.197 176.262 100.416 171.897 100.627 167.674C100.841 163.395 101.064 158.97 100.876 155.616C100.843 155.027 100.339 154.579 99.7602 154.609C99.1768 154.642 98.7305 155.147 98.7631 155.737C98.9444 158.977 98.7259 163.341 98.5144 167.565C98.3005 171.844 98.0774 176.269 98.2657 179.623C98.2982 180.191 98.7654 180.632 99.3209 180.632V180.629Z" fill="#448300"/>
<path d="M133.25 178.765C133.48 178.765 133.713 178.688 133.908 178.533C134.366 178.166 134.442 177.494 134.08 177.032C129.405 171.088 126.133 164.014 124.617 156.579C124.499 156.001 123.938 155.628 123.367 155.748C122.795 155.867 122.425 156.432 122.544 157.01C124.127 164.773 127.544 172.155 132.423 178.361C132.632 178.628 132.941 178.765 133.252 178.765H133.25Z" fill="#448300"/>
<path d="M138.417 110.144L136.739 108.289C140.274 105 142.757 100.487 143.222 96.5045C143.665 92.694 141.694 87.8304 137.734 86.6198C134.342 85.5831 130.565 87.3225 126.986 89.1965L125.847 86.9584C129.877 84.8502 134.17 82.902 138.45 84.21C143.712 85.8196 146.262 91.8753 145.688 96.8037C145.155 101.356 142.371 106.47 138.417 110.147V110.144Z" fill="#8EA83A"/>
<path d="M53.1095 66.1545C59.8735 67.6388 53.5837 75.209 51.2593 74.6987C48.9349 74.1885 48.2492 65.0876 53.1095 66.1545Z" fill="#8EA83A"/>
<path d="M75.8165 100.749C69.4314 100.749 63.4182 98.8678 58.7439 95.2543C50.834 89.1384 47.7472 77.8273 51.7173 69.5034L53.9533 70.6004C50.4784 77.8853 53.2421 87.835 60.2501 93.2528C66.6096 98.1697 75.7631 99.545 84.7376 96.9358L85.4233 99.3571C82.2086 100.292 78.9661 100.751 75.8165 100.751V100.749Z" fill="#8EA83A"/>
<path d="M84.3867 37.3049C84.3867 37.3049 67.8068 54.5464 74.185 106.276C80.3818 156.553 105.218 161.883 121.795 157.571C138.375 153.259 145.177 136.018 142.201 123.086C139.226 110.153 130.298 105.844 126.472 76.5309C122.646 47.2198 124.771 41.1828 124.771 41.1828C124.771 41.1828 120.094 28.6819 108.191 27.3877C96.2876 26.0936 84.3844 37.3026 84.3844 37.3026L84.3867 37.3049Z" fill="#7F327A"/>
<path d="M91.9852 41.1921C91.9852 41.1921 78.0087 75.6682 83.1107 101.964C88.2127 128.258 98.0077 130.32 100.114 127.829C102.663 124.811 89.9119 107.999 90.7626 82.568C91.6133 57.1348 97.5638 42.9107 97.5638 42.9107L91.9852 41.1945V41.1921Z" fill="#9E469C"/>
<path d="M113.293 42.9084C113.293 42.9084 106.066 69.6335 111.591 98.084C117.119 126.535 127.746 132.569 132.42 129.983C137.097 127.397 126.47 111.448 120.517 92.4807C114.567 73.5136 118.816 45.4944 118.816 45.4944L113.288 42.9084H113.293Z" fill="#B75CB7"/>
<path d="M104.792 154.554C104.16 156.154 112.87 158.003 120.947 155.417C129.024 152.831 132.85 148.95 131.574 147.659C130.298 146.364 105.643 152.399 104.792 154.556V154.554Z" fill="#9E469C"/>
<path d="M116.812 1.72046C116.812 1.72046 108.619 19.6322 103.516 21.7868C98.4144 23.9414 92.1316 21.5804 87.2876 26.8684C82.1693 32.4578 82.0716 37.4443 71.6421 38.9564C71.6421 38.9564 85.2375 45.4945 92.0386 34.2877C92.0386 34.2877 93.7401 39.4597 91.1879 41.6166C87.4642 44.7639 92.8894 48.9456 93.7378 52.392C94.5885 55.8408 96.2876 61.0128 100.539 60.15C100.539 60.15 96.3341 54.4353 100.964 51.5292C109.892 45.9259 109.467 38.597 109.467 38.597C109.467 38.597 115.843 53.2525 122.644 51.9606C129.445 50.6665 131.147 48.5119 131.995 46.3573C132.846 44.2026 129.87 41.6166 129.87 41.6166C129.87 41.6166 130.721 45.0654 129.02 46.3573C127.318 47.6514 126.044 46.3573 126.044 46.3573C126.044 46.3573 127.321 38.1679 124.768 33.8563C122.219 29.5448 117.967 29.1158 118.818 22.6496C119.669 16.1835 125.533 5.56582 125.533 5.56582L116.81 1.72046H116.812Z" fill="#8EA83A"/>
<path d="M117.939 0.688271C119.843 0.393723 121.368 0.871494 123.237 1.61134C124.51 2.11695 125.821 3.15134 125.81 4.53827C125.798 5.80691 124.664 6.86218 123.511 7.35851C122.077 7.98008 120.387 8.14938 118.967 7.49535C117.546 6.84131 116.575 4.79571 116.526 3.21396C116.484 1.91285 117.135 0.811193 117.937 0.685952L117.939 0.688271Z" fill="#ADC646"/>
<g opacity="0.58">
<path d="M78.3528 68.3277C81.507 64.0347 87.4621 63.1232 91.6553 66.2914C95.8485 69.4595 96.6899 75.5058 93.538 79.7988C90.3838 84.0918 84.4288 85.0033 80.2356 81.8351C76.0424 78.667 75.2009 72.6207 78.3528 68.3277Z" fill="#342530"/>
</g>
<path d="M77.7158 66.9617C80.7654 62.8102 86.5229 61.9289 90.5767 64.9926C94.6304 68.0541 95.4463 73.9033 92.3967 78.0525C89.3471 82.204 83.5895 83.0853 79.5358 80.0215C75.4821 76.9601 74.6662 71.1109 77.7158 66.9617Z" fill="white"/>
<path d="M78.7596 69.6754C80.8771 66.7948 84.8727 66.1825 87.6875 68.307C90.5024 70.4338 91.0672 74.4925 88.952 77.373C86.8345 80.2536 82.8389 80.8659 80.024 78.7414C77.2092 76.6146 76.6444 72.5559 78.7596 69.6754Z" fill="#8DA03F"/>
<path d="M80.5238 71.0088C81.9069 69.1255 84.5195 68.7243 86.3604 70.1159C88.199 71.5051 88.5686 74.1584 87.1856 76.0416C85.8025 77.9249 83.1899 78.3238 81.349 76.9345C79.5104 75.5453 79.1408 72.892 80.5238 71.0088Z" fill="#342530"/>
<g opacity="0.44">
<path d="M80.2101 67.3607C81.0468 66.2219 82.6251 65.9807 83.7385 66.8203C84.8495 67.6599 85.0727 69.2648 84.2382 70.4012C83.4015 71.54 81.8232 71.7812 80.7098 70.9416C79.5987 70.1021 79.3756 68.4971 80.2101 67.3607Z" fill="white"/>
</g>
<g opacity="0.58">
<path d="M105.425 68.3277C108.579 64.0347 114.534 63.1232 118.727 66.2914C122.921 69.4595 123.762 75.5058 120.61 79.7988C117.456 84.0918 111.501 85.0033 107.308 81.8351C103.114 78.667 102.273 72.6207 105.425 68.3277Z" fill="#342530"/>
</g>
<path d="M104.788 66.9617C107.837 62.8102 113.595 61.9289 117.649 64.9926C121.702 68.0541 122.518 73.9033 119.469 78.0525C116.419 82.204 110.662 83.0853 106.608 80.0215C102.554 76.9601 101.738 71.1109 104.788 66.9617Z" fill="white"/>
<path d="M105.829 69.6754C107.947 66.7948 111.942 66.1825 114.757 68.307C117.572 70.4338 118.137 74.4925 116.022 77.373C113.904 80.2536 109.908 80.8659 107.094 78.7414C104.279 76.6146 103.714 72.5559 105.829 69.6754Z" fill="#8DA03F"/>
<path d="M107.596 71.0088C108.979 69.1255 111.591 68.7243 113.432 70.1159C115.271 71.5051 115.64 74.1584 114.257 76.0416C112.874 77.9249 110.262 78.3238 108.421 76.9345C106.58 75.5453 106.213 72.892 107.596 71.0088Z" fill="#342530"/>
<g opacity="0.44">
<path d="M107.282 67.3607C108.119 66.2219 109.697 65.9807 110.81 66.8203C111.921 67.6599 112.144 69.2648 111.31 70.4012C110.473 71.54 108.895 71.7812 107.782 70.9416C106.668 70.1021 106.447 68.4971 107.282 67.3607Z" fill="white"/>
</g>
<path d="M98.6586 90.1427C105.467 90.5138 106.05 86.1071 110.476 88.4774C114.901 90.8477 108.946 100.821 97.9496 100.222C86.9529 99.6239 84.4403 89.2706 86.5322 87.7074C89.6306 85.3905 93.7704 89.876 98.6586 90.1427Z" fill="#342530"/>
<path d="M97.9495 100.222C94.5536 100.037 91.9665 98.9211 90.0745 97.4228C91.662 95.1267 94.1352 93.4592 96.857 92.9327C100.22 92.281 103.87 93.3919 106.324 95.8133C106.847 96.3305 107.321 96.9126 107.705 97.5458C105.295 99.2551 101.957 100.44 97.9495 100.222Z" fill="#FF0D36"/>
<path d="M100.311 176.41C98.3073 175.142 94.8091 174.189 92.3313 175.246C88.4449 176.904 89.2562 181.464 89.2562 181.464H100.46L100.311 176.41Z" fill="#448300"/>
<path d="M133.652 176.487C132.846 175.341 132.383 174.734 131.377 174.655C129.017 174.469 126.551 174.574 124.91 176.726C122.339 180.103 125.27 183.667 125.27 183.667L134.935 178.108L133.65 176.485L133.652 176.487Z" fill="#448300"/>
<path d="M96.3525 41.7951C97.2521 39.9838 98.5537 38.3788 100.137 37.1357C99.2325 40.559 98.2609 43.9637 97.2242 47.3475C99.7438 45.3181 102.226 43.1937 104.169 40.5937C106.113 37.9938 107.491 34.8582 107.521 31.595C107.577 25.3375 102.896 25.537 99.6346 29.5122C98.2167 31.2424 97.1614 33.288 96.5989 35.4681C96.1805 37.0847 96.9522 40.5937 96.3549 41.7974L96.3525 41.7951Z" fill="#ADC646"/>
<path d="M87.1897 30.8805C85.6301 33.0606 84.3493 35.7742 81.8459 36.6717C84.5353 37.0127 87.3455 36.1917 89.4467 34.4568C92.415 32.003 94.7719 27.8376 96.9382 24.7344C93.7863 23.5887 88.9632 28.4035 87.1897 30.8805Z" fill="#ADC646"/>
<path d="M115.045 41.0622C115.852 42.8666 116.779 44.6733 118.223 46.0092C119.666 47.3474 121.726 48.1475 123.608 47.6164C120.682 45.8816 120.001 41.8322 120.547 38.4414C121.049 35.322 121.623 27.6614 115.924 29.4843C111.438 30.92 113.72 38.0958 115.045 41.0598V41.0622Z" fill="#ADC646"/>
<path d="M140.49 115.205C134.073 117.014 135.474 109.314 136.736 108.289C136.941 108.122 138.642 107.447 139.319 107.85C141.746 109.3 144.458 114.089 140.49 115.207V115.205Z" fill="#8EA83A"/>
<path d="M82.8798 155.351L84.0513 154.69L84.2478 154.58L84.464 154.515C85.4256 154.23 86.4636 153.968 87.4365 153.722C88.0492 153.567 88.6361 153.419 89.1618 153.276L89.1751 153.272C89.6705 153.14 90.1396 153.014 90.5984 152.88C91.5227 152.609 92.3628 152.321 93.1385 151.957L93.1394 151.956C94.9599 151.102 96.1234 148.735 96.4422 146.124C96.7882 143.27 95.7866 141.034 93.6028 138.709L93.6027 138.709C91.6315 136.609 89.6568 134.505 87.7221 132.34C87.2387 131.799 86.7137 131.202 86.2303 130.58L86.2285 130.578C85.3221 129.408 84.2853 127.814 84.209 126.001C84.1218 123.931 85.2729 122.221 87.3075 120.929C88.429 120.176 89.6668 119.565 90.7897 119.023C90.9047 118.967 91.0184 118.912 91.1309 118.858C92.1687 118.358 93.1 117.909 93.9419 117.4C95.7201 116.324 96.6922 115.231 96.8323 113.484C96.8174 113.056 96.7344 112.644 96.585 112.252C96.2831 111.459 95.6768 110.707 94.6253 110.16C92.3299 109.038 89.8361 108.948 87.6601 109.786C87.2351 109.951 86.822 110.157 86.419 110.41L86.3149 110.476L86.2037 110.528C86.0953 110.579 85.969 110.659 85.7362 110.831C85.7049 110.854 85.6692 110.881 85.6297 110.911C85.4531 111.044 85.2015 111.233 84.9304 111.407C84.3454 111.886 83.7891 112.487 83.1942 113.197C82.9837 113.449 82.7461 113.742 82.497 114.049C82.0885 114.554 81.6491 115.096 81.2474 115.554C79.8704 117.124 77.9989 118.856 75.1673 119.032L75.1529 119.032L75.1385 119.033C73.3129 119.12 71.8071 118.571 70.5945 117.6C69.4429 116.677 68.6412 115.443 68.0238 114.283C67.5945 113.477 67.1892 112.572 66.8204 111.748C66.6717 111.416 66.5289 111.097 66.3929 110.803C65.8796 109.695 65.4123 108.82 64.8857 108.179L64.8664 108.156L64.8479 108.132C64.6118 107.826 64.3422 107.59 64.0309 107.393C63.7035 107.185 63.3133 107.003 62.8414 106.832C62.3529 106.667 61.8635 106.529 61.3629 106.414C60.8515 106.295 60.356 106.206 59.871 106.153L59.8633 106.152C58.9178 106.045 58.2394 106.244 57.6697 106.598C57.0526 106.981 56.4625 107.611 55.8536 108.513C55.2647 109.385 54.7413 110.381 54.1641 111.48L54.0944 111.612C53.5269 112.692 52.8912 113.894 52.1464 114.922C51.9627 115.211 51.7912 115.495 51.6062 115.802C51.4971 115.982 51.3833 116.171 51.2595 116.373C51.2592 116.373 51.259 116.374 51.2587 116.374L49.5538 115.328C48.2925 117.388 46.8993 119.317 44.3081 118.89L82.8798 155.351ZM82.8798 155.351C81.576 155.971 80.3582 156.972 79.5554 158.249C78.729 159.563 78.3081 161.246 78.8527 163.016L78.8699 163.072L78.8902 163.126C79.1688 163.874 79.4943 164.602 79.8779 165.32C80.6875 166.995 81.8454 168.405 83.1557 169.57L83.1561 169.571C83.59 169.956 84.0488 170.325 84.5222 170.666C88.0623 173.231 90.8446 177.01 90.8707 180.98C90.8824 182.864 89.9635 184.739 88.4192 186.149C86.875 187.558 84.8452 188.37 82.8554 188.269L82.8296 188.267L82.8037 188.267C82.3034 188.254 81.7904 188.192 81.2735 188.08C80.8051 187.978 80.338 187.844 79.8713 187.676C77.7629 186.9 76.8233 185.217 76.2021 182.542C75.9684 181.536 75.8047 180.504 75.6288 179.397C75.5656 178.998 75.5007 178.59 75.4305 178.169C75.1768 176.649 74.8565 175.007 74.2675 173.501L74.2491 173.454L74.2284 173.408C74.2004 173.346 74.1676 173.27 74.1303 173.184C73.9513 172.77 73.6677 172.116 73.3096 171.564C72.8351 170.834 72.0558 169.983 70.7859 169.65L70.7346 169.637L70.6827 169.626C69.7909 169.442 68.9602 169.462 68.1827 169.63L68.1709 169.632L68.1592 169.635C67.3829 169.812 66.6962 170.137 66.0913 170.532L65.9931 170.596L65.9032 170.671C65.0189 171.41 64.2869 172.279 63.6595 173.076C63.4196 173.381 63.2029 173.664 62.9964 173.934C62.6215 174.424 62.2801 174.87 61.895 175.321C60.7728 176.636 59.8011 177.339 58.4481 177.417L58.4274 177.418L58.4069 177.419C57.3543 177.501 56.3916 177.205 55.1318 176.671C54.9372 176.588 54.7302 176.497 54.512 176.401C53.432 175.926 52.0779 175.331 50.6002 175.062C47.1858 174.378 44.9653 176.966 43.9244 178.546C43.4238 179.248 42.963 179.961 42.5353 180.65L42.5317 180.656C42.1051 181.348 41.7124 182.025 41.3456 182.664C41.2304 182.832 41.0865 182.999 40.8808 183.213C40.8318 183.264 40.77 183.327 40.7001 183.398C40.5251 183.576 40.2999 183.805 40.1025 184.025C39.6221 184.498 39.1189 184.961 38.6073 185.4C36.71 187.021 34.8418 188.138 33.1408 188.431C31.627 188.692 30.0406 188.343 28.3601 186.47L28.3531 186.462C27.4402 185.456 27.1898 184.642 27.1745 183.99C27.1581 183.29 27.4063 182.493 27.9805 181.546C28.5569 180.594 29.3781 179.626 30.3286 178.606C30.6455 178.265 30.9927 177.903 31.3467 177.534C31.9796 176.874 32.6342 176.191 33.176 175.57L33.2127 175.528L33.247 175.484C34.0452 174.458 34.6566 173.146 34.8078 171.734C34.8847 171.019 34.844 170.243 34.602 169.467L34.5567 169.322L34.49 169.185C33.7322 167.632 32.3594 166.592 30.8008 166.233C29.0807 165.737 27.155 165.62 25.5057 165.521C25.1898 165.502 24.8841 165.483 24.5919 165.463C22.5806 165.322 21.0719 165.095 19.9478 164.441C19.5912 164.232 19.275 163.981 18.995 163.67L18.9853 163.66L18.9755 163.649C18.5427 163.183 18.4107 162.479 18.6723 161.829C18.8403 161.443 19.0544 161.046 19.3078 160.616C20.7752 158.167 22.4206 156.067 24.3422 153.614C24.488 153.428 24.6353 153.24 24.7843 153.05L24.8037 153.025L24.8223 153C27.3824 149.506 28.1115 143.883 24.095 140.535C23.3317 139.898 22.5204 139.412 21.6834 139.057C20.8535 138.7 20.0187 138.477 19.2033 138.336L19.2033 138.335L19.1901 138.333C17.5745 138.063 15.8981 138.035 14.4076 138.01C14.0169 138.003 13.6391 137.997 13.2784 137.986C11.4431 137.933 9.87743 137.782 8.43816 137.21L8.42091 137.203L8.40353 137.196C6.53623 136.493 4.45338 135.061 3.20737 133.357C2.00941 131.718 1.7325 130.107 2.68406 128.499C2.89747 128.142 3.12034 127.846 3.34912 127.6C4.02997 126.866 4.85017 126.444 5.81814 126.253C6.2159 126.176 6.64056 126.138 7.09536 126.143C9.19126 126.551 11.0246 127.606 13.0527 128.972C13.4161 129.216 13.7898 129.474 14.174 129.74C15.8875 130.922 17.8083 132.248 19.9435 133.174L19.9544 133.179L19.9654 133.183C21.9106 134 24.5762 134.286 26.7983 132.395C28.4866 130.989 29.4529 128.784 29.1366 126.511C28.9671 124.907 28.5377 123.358 28.1627 122.005C28.0913 121.747 28.0218 121.496 27.9564 121.254C27.5271 119.659 27.2361 118.298 27.3094 116.923C27.3656 116.353 27.4774 115.88 27.6304 115.498L27.6312 115.496C27.865 114.911 28.1839 114.521 28.6101 114.259C29.0531 113.986 29.7835 113.746 31.0072 113.772C31.5871 113.785 32.152 113.843 32.7299 113.953L32.8036 113.967L32.8782 113.975C33.378 114.032 34.0096 114.25 34.6225 114.591C35.6513 115.187 36.4665 115.967 37.448 116.907C37.7578 117.203 38.0842 117.515 38.4392 117.843C39.8055 119.103 41.5472 120.508 44.0037 120.867L82.8798 155.351Z" fill="white" stroke="#D9D9D9" stroke-width="4"/>
</svg>
