<svg width="326" height="412" viewBox="0 0 326 412" fill="none" xmlns="http://www.w3.org/2000/svg">
<g clip-path="url(#clip0_1651_7069)">
<path d="M162.65 121.85C137.59 120.38 120.03 100.51 111.73 78.3902C104.83 59.9702 101.81 36.4602 109.76 17.9402C117.93 -1.09981 135.91 -5.25981 152.54 6.86019C160.29 0.740193 169.41 0.870193 177.53 6.25019C202.67 -9.74981 220.08 7.18019 223.82 32.6402C227.25 55.9702 216.64 96.0002 197.84 111.4C189.38 118.34 178.4 121.4 167.53 121.86V226.92L172.92 202.73C175.43 193.17 184.49 171.71 195.75 170.54C210.6 169 209.76 189.73 208.65 199.43C206.48 218.38 197.98 236.92 192.61 255.09C192.61 255.65 202.94 256.36 203.24 253.87C211.8 225.94 222.79 198.66 237.97 173.66L237.86 172.73C208.68 155.07 212.45 109.8 228.3 84.0602C238.63 67.2902 258.44 54.6802 274.18 73.5202C275.19 74.7302 277.12 78.7402 277.67 79.0802C280.74 80.9602 286.87 77.3502 293.4 83.5602C294.52 84.6202 297.06 88.8302 297.35 89.0002C298.42 89.6102 306.37 88.9702 309.09 89.4702C316.91 90.8902 323.83 98.2702 325.34 105.95C331.69 138.18 289.01 185.44 255.9 180.12C253.25 179.7 243.18 175.75 242.12 176.43C241.19 177.02 232.97 192.32 231.77 194.66C224.65 208.55 219.22 223.19 213.56 237.71C213.42 239.77 214.35 238.23 214.84 237.59C222.92 226.87 238.48 203.02 254.3 205.39C259.61 206.19 265.89 212.16 266.56 217.5C268.48 232.96 248.36 247.21 237.27 255.09L247.07 255.74C248.09 256.46 247.79 259.41 247.71 260.65C246.16 283.99 239 312.91 235.33 336.72C235.03 338.69 235.44 341.48 235.05 344.04C231.62 366.42 227.27 388.76 224.64 411.23L107.97 412.01L99.0199 355.48C97.7699 350.4 97.2099 345.2 96.3499 340.06C91.8099 313 86.4199 285.8 82.4599 258.54C81.7999 253.55 87.3299 256.27 90.1499 255.1C79.1799 247.32 58.2399 233.44 59.4399 218.19C59.9199 212.05 66.7699 205.57 73.0599 205.3C88.2199 204.67 102.69 225.99 110.49 236.88C110.85 237.39 111.67 238.94 112.44 238.4C104.82 216.91 95.6999 195.93 83.8699 176.43C82.3499 175.46 75.7899 178.86 73.5499 179.4C48.3999 185.43 25.1499 165.48 11.7599 146.15C-3.67008 123.87 -9.23008 86.7702 28.6699 89.0502C30.1299 84.7202 35.7999 80.0902 40.3399 79.4802C42.3699 79.2102 47.0999 79.9302 48.3199 79.1002C48.9199 78.6902 52.6399 71.7802 55.1299 69.7202C72.1199 55.6402 89.8199 70.7302 98.6199 85.9102C113.46 111.5 116.66 155.43 88.1199 172.73L88.0199 173.66C103.18 199.22 114.87 226.81 122.91 255.45H137.55C134.68 243.69 129.76 232.47 126.59 220.82C123.52 209.53 116.74 180.6 127.44 172.67C139.79 163.51 151.34 184.64 155.1 193.77C157.99 200.78 159.37 208.03 161.47 215.26C161.68 215.98 161.63 217.36 162.65 217.21V121.89H162.64L162.65 121.85ZM148.7 9.84019C132.82 -0.0798063 119.17 5.58019 113.11 22.6702C104.05 48.2702 114.67 85.9702 134.39 104.48C137.84 107.72 143.43 112.4 147.99 112.45C141.13 104.79 137.07 93.6502 135.07 83.6002C130.25 59.3802 133.19 29.8002 148.69 9.84019H148.7ZM181.48 114.89C198.78 109.27 207.5 93.4502 213.17 77.2902C219.41 59.4902 223 38.0402 215.47 20.0802C209.29 5.33019 194.65 -0.259807 181.48 10.1702C183.93 12.4502 185.76 15.2802 187.41 18.1602C200.8 41.5102 200.97 82.5002 187.41 105.86C186.69 107.1 181.06 114.47 181.48 114.89ZM152.43 13.5502C133.1 33.2302 133.4 92.0302 153.23 111.4C167.05 124.91 179.62 111.73 185.55 98.4302C194.92 77.4202 194.98 47.1202 185.77 26.0502C179.5 11.6702 166.81 -1.09981 152.43 13.5502ZM95.7099 143.76C96.0999 147.78 95.7099 152.81 95.7099 156.98C95.7099 157.52 94.5099 158.98 95.0199 160.11C111.36 139.54 105.6 102.72 90.7099 82.6502C80.1299 68.3902 63.4499 62.0302 53.1599 80.4402L60.6499 84.8102C77.6099 95.8002 93.7799 123.78 95.6999 143.76H95.7099ZM230.28 157.68C229.97 153.27 230.28 148.26 230.28 143.76C230.28 138.8 234.21 127.47 236.21 122.55C242.97 106.01 255.76 87.9602 272.81 81.1302C264.74 64.1002 248.67 66.7602 237.66 79.4702C220.42 99.3802 214.32 138.03 230.62 160.1C231.77 159.52 230.3 158.13 230.27 157.67L230.28 157.68ZM68.7899 98.6202C63.4599 92.7802 55.5499 85.0902 47.2499 84.2802C29.4499 82.5402 28.9499 101.42 30.9699 114.44C33.9099 133.48 51.3499 164.72 70.7699 170.74C82.7799 174.46 89.7399 167.25 90.8199 155.57C92.6699 135.63 81.8699 112.96 68.7899 98.6102V98.6202ZM277.51 84.4402C261.8 86.9002 244.54 113.29 239.51 127.23C235.15 139.31 229.09 173.18 250.13 171.95C268.01 170.91 285.72 143.27 291.27 128.09C296.39 114.09 301.79 80.6302 277.51 84.4402ZM26.6799 94.0202C17.4499 93.2402 9.20992 95.6502 5.91992 104.95C-2.96008 130.05 33.9499 172.23 58.4199 175.4C61.5399 175.8 64.6999 175.55 67.8099 175.41L58.1099 169.44C42.3299 158.04 28.7799 133.55 26.0699 114.44C25.1099 107.64 24.6299 100.64 26.6699 94.0102L26.6799 94.0202ZM258.17 175.42H268.98C282.35 175.42 306.81 149.65 313.37 138.31C323.47 120.86 327.93 92.2102 299.31 94.0202C301.75 102.35 300.7 111.27 298.84 119.64C294.91 137.22 282.33 159.26 267.47 169.74L258.18 175.43L258.17 175.42ZM161.95 255.43C160.07 233.68 157.89 207.24 146.97 187.93C144.15 182.95 135.04 170.03 129.18 177.86C122.7 186.5 129.45 212.58 132.33 222.74C135.44 233.73 139.53 244.83 143.48 255.44H161.96L161.95 255.43ZM169.62 255.43H186.7C187.61 254.77 187.84 253.77 188.28 252.83C191.21 246.72 194.86 233.74 196.99 226.73C200.73 214.43 207.21 192.88 203.05 180.66C198.58 167.55 187.33 181.79 183.9 187.92C173.12 207.19 172.03 233.86 169.62 255.42V255.43ZM100.25 255.43C104.52 256.29 111.35 254.79 115.94 255.43C116.18 254.36 115.7 253.79 115.29 252.95C110.22 242.42 90.8699 216.76 80.4099 211.91C76.2399 209.98 72.4999 209.24 68.5699 211.99C57.6199 219.66 70.1299 232.89 76.5599 238.71C79.7599 241.61 97.1499 254.8 100.25 255.43ZM210.06 255.43H227.84C229.17 255.43 246.88 241.83 249.11 239.78C255.77 233.69 267.62 221.08 258.12 212.68C254.82 209.76 251.6 209.54 247.5 211.04C237.82 214.58 223.63 232.61 217.85 241.29C216.78 242.9 209.27 254.68 210.05 255.42L210.06 255.43ZM242.83 260.31H88.0399L111.75 407.11L219.39 407.16L242.82 260.31H242.83Z" fill="black"/>
<path d="M186.91 16.6297C200.3 39.9797 200.46 80.9697 186.91 104.33C186.19 105.57 180.56 112.94 180.98 113.36C198.28 107.74 207 91.9197 212.67 75.7597C218.91 57.9597 222.5 36.5097 214.97 18.5497C208.79 3.7997 194.15 -1.7903 180.98 8.6397C183.43 10.9197 185.26 13.7497 186.91 16.6297Z" fill="white"/>
<path d="M148.2 8.31006C132.32 -1.60994 118.66 4.05006 112.61 21.1401C103.55 46.7401 114.16 84.4401 133.89 102.95C137.34 106.18 142.93 110.87 147.49 110.92C140.63 103.26 136.57 92.1201 134.57 82.0701C129.75 57.8501 132.69 28.2701 148.19 8.31006H148.2Z" fill="white"/>
<path d="M185.06 96.9001C194.43 75.8901 194.49 45.5901 185.28 24.5201C179 10.1401 166.32 -2.62988 151.94 12.0201C132.61 31.7001 132.91 90.5001 152.74 109.87C166.56 123.38 179.13 110.2 185.06 96.9001Z" fill="white"/>
<path d="M95.2102 142.24C95.6002 146.26 95.2102 151.28 95.2102 155.45C95.2102 155.99 94.0102 157.45 94.5202 158.58C110.86 138.01 105.1 101.19 90.2102 81.1201C79.6302 66.8601 62.9502 60.5001 52.6602 78.9101L60.1502 83.2801C77.1102 94.2701 93.2802 122.25 95.2002 142.23L95.2102 142.24Z" fill="white"/>
<path d="M187.79 251.31C190.72 245.2 194.37 232.22 196.5 225.21C200.24 212.91 206.72 191.36 202.56 179.14C198.09 166.03 186.84 180.27 183.41 186.4C172.63 205.67 171.54 232.34 169.13 253.9H186.21C187.12 253.24 187.35 252.24 187.79 251.31Z" fill="white"/>
<path d="M161.45 253.9C159.57 232.15 157.39 205.71 146.47 186.4C143.65 181.42 134.54 168.5 128.68 176.32C122.2 184.96 128.95 211.04 131.83 221.2C134.94 232.19 139.03 243.29 142.98 253.9H161.45Z" fill="white"/>
<path d="M68.2801 97.0899C62.9501 91.2499 55.0401 83.5599 46.7401 82.7499C28.9401 81.0099 28.4401 99.8899 30.4601 112.91C33.4001 131.95 50.8401 163.19 70.2601 169.21C82.2701 172.93 89.2301 165.72 90.3101 154.04C92.1601 134.1 81.3601 111.43 68.2801 97.0799V97.0899Z" fill="white"/>
<path d="M25.5801 112.9C24.6201 106.11 24.1401 99.1097 26.1801 92.4797C16.9501 91.6997 8.7201 94.1097 5.4301 103.41C-3.4499 128.51 33.4601 170.69 57.9301 173.86C61.0501 174.26 64.2101 174.01 67.3201 173.87L57.6201 167.9C41.8401 156.5 28.2901 132.01 25.5801 112.9Z" fill="white"/>
<path d="M298.81 92.49C301.25 100.82 300.2 109.74 298.34 118.11C294.41 135.69 281.83 157.73 266.97 168.21L257.69 173.89H268.49C281.86 173.89 306.32 148.12 312.88 136.78C322.98 119.33 327.44 90.68 298.82 92.49H298.81Z" fill="white"/>
<path d="M290.78 126.56C295.9 112.56 301.3 79.0995 277.02 82.9095C261.31 85.3695 244.05 111.76 239.02 125.7C234.66 137.78 228.6 171.65 249.64 170.42C267.52 169.38 285.23 141.74 290.78 126.56Z" fill="white"/>
<path d="M209.56 253.9H227.35C228.68 253.9 246.39 240.31 248.62 238.25C255.28 232.16 267.13 219.55 257.63 211.15C254.33 208.23 251.11 208.01 247.01 209.51C237.33 213.05 223.14 231.08 217.36 239.76C216.29 241.37 208.78 253.15 209.56 253.89V253.9Z" fill="white"/>
<path d="M229.78 156.15C229.47 151.74 229.78 146.73 229.78 142.23C229.78 137.27 233.71 125.94 235.71 121.02C242.47 104.48 255.26 86.4299 272.31 79.5999C264.24 62.5699 248.17 65.2299 237.16 77.9399C219.92 97.8499 213.82 136.5 230.12 158.57C231.27 157.99 229.8 156.6 229.77 156.14L229.78 156.15Z" fill="white"/>
<path d="M111.26 405.57L218.9 405.62L242.33 258.77H87.55L111.26 405.57Z" fill="white"/>
<path d="M115.44 253.9C115.68 252.83 115.2 252.26 114.79 251.42C109.72 240.89 90.3702 215.23 79.9102 210.38C75.7402 208.45 72.0002 207.71 68.0702 210.46C57.1202 218.13 69.6302 231.36 76.0602 237.18C79.2602 240.08 96.6502 253.27 99.7502 253.9C104.02 254.76 110.85 253.26 115.44 253.9Z" fill="white"/>
<path d="M175.188 343.184C175.507 343.457 175.76 343.776 175.949 344.141C176.138 344.505 176.232 344.99 176.232 345.596C176.232 346.279 176.096 346.917 175.822 347.51C175.555 348.102 175.142 348.61 174.582 349.033C174.035 349.443 173.391 349.759 172.648 349.98C171.913 350.195 171.018 350.303 169.963 350.303C168.758 350.303 167.723 350.208 166.857 350.02C165.998 349.831 165.298 349.619 164.758 349.385V346.191H165.139C165.699 346.53 166.366 346.823 167.141 347.07C167.922 347.318 168.635 347.441 169.279 347.441C169.657 347.441 170.067 347.412 170.51 347.354C170.952 347.288 171.327 347.152 171.633 346.943C171.874 346.781 172.066 346.585 172.209 346.357C172.352 346.123 172.424 345.788 172.424 345.352C172.424 344.928 172.326 344.603 172.131 344.375C171.936 344.141 171.678 343.975 171.359 343.877C171.04 343.773 170.656 343.717 170.207 343.711C169.758 343.698 169.341 343.691 168.957 343.691H168.156V341.094H168.986C169.494 341.094 169.943 341.077 170.334 341.045C170.725 341.012 171.057 340.938 171.33 340.82C171.617 340.697 171.831 340.534 171.975 340.332C172.118 340.124 172.189 339.821 172.189 339.424C172.189 339.131 172.115 338.896 171.965 338.721C171.815 338.538 171.626 338.395 171.398 338.291C171.145 338.174 170.845 338.096 170.5 338.057C170.155 338.018 169.859 337.998 169.611 337.998C168.999 337.998 168.335 338.105 167.619 338.32C166.903 338.529 166.21 338.831 165.539 339.229H165.178V336.074C165.712 335.859 166.438 335.654 167.355 335.459C168.273 335.257 169.204 335.156 170.148 335.156C171.066 335.156 171.87 335.238 172.561 335.4C173.251 335.557 173.82 335.768 174.27 336.035C174.803 336.354 175.201 336.742 175.461 337.197C175.721 337.653 175.852 338.187 175.852 338.799C175.852 339.606 175.601 340.329 175.1 340.967C174.598 341.598 173.938 342.002 173.117 342.178V342.314C173.449 342.36 173.801 342.451 174.172 342.588C174.543 342.725 174.882 342.923 175.188 343.184Z" fill="black"/>
<path d="M170.594 60.0488C170.594 60.7975 170.457 61.5007 170.184 62.1582C169.91 62.8158 169.526 63.3691 169.031 63.8184C168.504 64.3001 167.892 64.668 167.195 64.9219C166.505 65.1758 165.695 65.3027 164.764 65.3027C163.891 65.3027 163.094 65.1855 162.371 64.9512C161.655 64.7103 161.04 64.3457 160.525 63.8574C159.933 63.2975 159.48 62.5749 159.168 61.6895C158.855 60.804 158.699 59.7461 158.699 58.5156C158.699 57.2396 158.846 56.1068 159.139 55.1172C159.432 54.1276 159.91 53.252 160.574 52.4902C161.212 51.7611 162.039 51.1947 163.055 50.791C164.077 50.3874 165.291 50.1855 166.697 50.1855C167.173 50.1855 167.693 50.2181 168.26 50.2832C168.826 50.3483 169.194 50.3971 169.363 50.4297V53.291H168.992C168.816 53.2064 168.517 53.112 168.094 53.0078C167.677 52.8971 167.202 52.8418 166.668 52.8418C165.418 52.8418 164.445 53.1478 163.748 53.7598C163.051 54.3717 162.632 55.2246 162.488 56.3184C162.99 56.0189 163.517 55.778 164.07 55.5957C164.63 55.4069 165.232 55.3125 165.877 55.3125C166.443 55.3125 166.967 55.3776 167.449 55.5078C167.938 55.638 168.39 55.8464 168.807 56.1328C169.347 56.5104 169.78 57.0182 170.105 57.6562C170.431 58.2943 170.594 59.0918 170.594 60.0488ZM166.15 62.2461C166.352 62.0247 166.512 61.7643 166.629 61.4648C166.753 61.1589 166.814 60.7454 166.814 60.2246C166.814 59.7493 166.746 59.362 166.609 59.0625C166.473 58.7565 166.284 58.5124 166.043 58.3301C165.809 58.1478 165.532 58.0241 165.213 57.959C164.894 57.8874 164.565 57.8516 164.227 57.8516C163.94 57.8516 163.641 57.8841 163.328 57.9492C163.016 58.0143 162.729 58.0957 162.469 58.1934C162.469 58.2585 162.465 58.3659 162.459 58.5156C162.452 58.6654 162.449 58.8542 162.449 59.082C162.449 59.8828 162.527 60.5436 162.684 61.0645C162.846 61.5788 163.061 61.9727 163.328 62.2461C163.51 62.4479 163.725 62.5977 163.973 62.6953C164.22 62.7865 164.487 62.832 164.773 62.832C164.988 62.832 165.226 62.7832 165.486 62.6855C165.747 62.5879 165.968 62.4414 166.15 62.2461Z" fill="black"/>
<path d="M65.6953 133H55.9883V130.461H59.0547V122.775H55.9883V120.402C56.457 120.402 56.9062 120.376 57.3359 120.324C57.7656 120.266 58.1237 120.168 58.4102 120.031C58.7487 119.868 59.0026 119.657 59.1719 119.396C59.3411 119.136 59.4388 118.811 59.4648 118.42H62.6973V130.461H65.6953V133Z" fill="black"/>
<path d="M269.695 135H259.988V132.461H263.055V124.775H259.988V122.402C260.457 122.402 260.906 122.376 261.336 122.324C261.766 122.266 262.124 122.168 262.41 122.031C262.749 121.868 263.003 121.657 263.172 121.396C263.341 121.136 263.439 120.811 263.465 120.42H266.697V132.461H269.695V135Z" fill="black"/>
<path d="M150.279 231H142.288V229.318C142.899 228.876 143.509 228.407 144.12 227.91C144.735 227.413 145.228 226.985 145.597 226.625C146.148 226.092 146.54 225.627 146.772 225.23C147.005 224.834 147.121 224.442 147.121 224.055C147.121 223.59 146.971 223.232 146.67 222.981C146.374 222.726 145.945 222.599 145.385 222.599C144.965 222.599 144.523 222.685 144.059 222.858C143.598 223.032 143.17 223.253 142.773 223.521H142.555V221.259C142.878 221.118 143.354 220.976 143.983 220.835C144.617 220.694 145.25 220.623 145.884 220.623C147.16 220.623 148.133 220.892 148.803 221.43C149.473 221.963 149.808 222.719 149.808 223.699C149.808 224.342 149.646 224.952 149.322 225.531C149.003 226.11 148.513 226.707 147.853 227.322C147.438 227.705 147.021 228.058 146.602 228.382C146.182 228.701 145.884 228.924 145.706 229.052H150.279V231Z" fill="black"/>
<path d="M190.279 231H182.288V229.318C182.899 228.876 183.509 228.407 184.12 227.91C184.735 227.413 185.228 226.985 185.597 226.625C186.148 226.092 186.54 225.627 186.772 225.23C187.005 224.834 187.121 224.442 187.121 224.055C187.121 223.59 186.971 223.232 186.67 222.981C186.374 222.726 185.945 222.599 185.385 222.599C184.965 222.599 184.523 222.685 184.059 222.858C183.598 223.032 183.17 223.253 182.773 223.521H182.555V221.259C182.878 221.118 183.354 220.976 183.983 220.835C184.617 220.694 185.25 220.623 185.884 220.623C187.16 220.623 188.133 220.892 188.803 221.43C189.473 221.963 189.808 222.719 189.808 223.699C189.808 224.342 189.646 224.952 189.322 225.531C189.003 226.11 188.513 226.707 187.853 227.322C187.438 227.705 187.021 228.058 186.602 228.382C186.182 228.701 185.884 228.924 185.706 229.052H190.279V231Z" fill="black"/>
<path d="M208.061 37.5547C208.061 38.0833 207.96 38.5755 207.76 39.0312C207.564 39.4824 207.277 39.8698 206.898 40.1934C206.479 40.5397 205.996 40.7972 205.449 40.9658C204.907 41.1299 204.287 41.2119 203.59 41.2119C202.774 41.2074 202.084 41.1413 201.519 41.0137C200.958 40.8906 200.5 40.7516 200.145 40.5967V38.3477H200.432C200.846 38.5938 201.293 38.7988 201.771 38.9629C202.25 39.127 202.726 39.209 203.2 39.209C203.487 39.209 203.797 39.1771 204.13 39.1133C204.467 39.0449 204.734 38.9242 204.93 38.751C205.085 38.6097 205.201 38.4661 205.278 38.3203C205.36 38.1745 205.401 37.9489 205.401 37.6436C205.401 37.4066 205.347 37.2038 205.237 37.0352C205.132 36.862 204.996 36.723 204.827 36.6182C204.581 36.4678 204.285 36.3698 203.938 36.3242C203.592 36.2741 203.278 36.249 202.995 36.249C202.585 36.249 202.191 36.2855 201.812 36.3584C201.439 36.4268 201.111 36.4951 200.828 36.5635H200.527V30.8213H207.767V32.7695H202.995V34.4307C203.136 34.4215 203.314 34.4147 203.528 34.4102C203.747 34.401 203.938 34.3965 204.103 34.3965C204.663 34.3965 205.162 34.4512 205.6 34.5605C206.042 34.6654 206.422 34.8135 206.741 35.0049C207.156 35.2555 207.479 35.5882 207.712 36.0029C207.944 36.4131 208.061 36.9303 208.061 37.5547Z" fill="black"/>
<path d="M126.061 41.5547C126.061 42.0833 125.96 42.5755 125.76 43.0312C125.564 43.4824 125.277 43.8698 124.898 44.1934C124.479 44.5397 123.996 44.7972 123.449 44.9658C122.907 45.1299 122.287 45.2119 121.59 45.2119C120.774 45.2074 120.084 45.1413 119.519 45.0137C118.958 44.8906 118.5 44.7516 118.145 44.5967V42.3477H118.432C118.846 42.5938 119.293 42.7988 119.771 42.9629C120.25 43.127 120.726 43.209 121.2 43.209C121.487 43.209 121.797 43.1771 122.13 43.1133C122.467 43.0449 122.734 42.9242 122.93 42.751C123.085 42.6097 123.201 42.4661 123.278 42.3203C123.36 42.1745 123.401 41.9489 123.401 41.6436C123.401 41.4066 123.347 41.2038 123.237 41.0352C123.132 40.862 122.996 40.723 122.827 40.6182C122.581 40.4678 122.285 40.3698 121.938 40.3242C121.592 40.2741 121.278 40.249 120.995 40.249C120.585 40.249 120.191 40.2855 119.812 40.3584C119.439 40.4268 119.111 40.4951 118.828 40.5635H118.527V34.8213H125.767V36.7695H120.995V38.4307C121.136 38.4215 121.314 38.4147 121.528 38.4102C121.747 38.401 121.938 38.3965 122.103 38.3965C122.663 38.3965 123.162 38.4512 123.6 38.5605C124.042 38.6654 124.422 38.8135 124.741 39.0049C125.156 39.2555 125.479 39.5882 125.712 40.0029C125.944 40.4131 126.061 40.9303 126.061 41.5547Z" fill="black"/>
<path d="M20.4229 122.655H19.0352V125.027H16.5264V122.655H11.5977V120.728L16.3623 114.821H19.0352V120.796H20.4229V122.655ZM16.5264 120.796V117.118L13.5664 120.796H16.5264Z" fill="black"/>
<path d="M86.4229 94.6553H85.0352V97.0273H82.5264V94.6553H77.5977V92.7275L82.3623 86.8213H85.0352V92.7959H86.4229V94.6553ZM82.5264 92.7959V89.1182L79.5664 92.7959H82.5264Z" fill="black"/>
<path d="M252.067 80.8447L247.46 89H244.534L249.319 80.7695H244.09V78.8213H252.067V80.8447Z" fill="black"/>
<path d="M313.067 122.845L308.46 131H305.534L310.319 122.77H305.09V120.821H313.067V122.845Z" fill="black"/>
<path d="M245.279 237H237.288V235.318C237.899 234.876 238.509 234.407 239.12 233.91C239.735 233.413 240.228 232.985 240.597 232.625C241.148 232.092 241.54 231.627 241.772 231.23C242.005 230.834 242.121 230.442 242.121 230.055C242.121 229.59 241.971 229.232 241.67 228.981C241.374 228.726 240.945 228.599 240.385 228.599C239.965 228.599 239.523 228.685 239.059 228.858C238.598 229.032 238.17 229.253 237.773 229.521H237.555V227.259C237.878 227.118 238.354 226.976 238.983 226.835C239.617 226.694 240.25 226.623 240.884 226.623C242.16 226.623 243.133 226.892 243.803 227.43C244.473 227.963 244.808 228.719 244.808 229.699C244.808 230.342 244.646 230.952 244.322 231.531C244.003 232.11 243.513 232.707 242.853 233.322C242.438 233.705 242.021 234.058 241.602 234.382C241.182 234.701 240.884 234.924 240.706 235.052H245.279V237Z" fill="black"/>
<path d="M85.2793 231H77.2881V229.318C77.8988 228.876 78.5094 228.407 79.1201 227.91C79.7354 227.413 80.2275 226.985 80.5967 226.625C81.1481 226.092 81.54 225.627 81.7725 225.23C82.0049 224.834 82.1211 224.442 82.1211 224.055C82.1211 223.59 81.9707 223.232 81.6699 222.981C81.3737 222.726 80.9453 222.599 80.3848 222.599C79.9655 222.599 79.5234 222.685 79.0586 222.858C78.5983 223.032 78.1699 223.253 77.7734 223.521H77.5547V221.259C77.8783 221.118 78.3545 220.976 78.9834 220.835C79.6169 220.694 80.2503 220.623 80.8838 220.623C82.1598 220.623 83.1328 220.892 83.8027 221.43C84.4727 221.963 84.8076 222.719 84.8076 223.699C84.8076 224.342 84.6458 224.952 84.3223 225.531C84.0033 226.11 83.5133 226.707 82.8525 227.322C82.4378 227.705 82.0208 228.058 81.6016 228.382C81.1823 228.701 80.8838 228.924 80.7061 229.052H85.2793V231Z" fill="black"/>
</g>
<defs>
<clipPath id="clip0_1651_7069">
<rect width="325.99" height="411.98" fill="white"/>
</clipPath>
</defs>
</svg>
