<svg width="137" height="127" viewBox="0 0 137 127" fill="none" xmlns="http://www.w3.org/2000/svg">
<g filter="url(#filter0_d_25_4810)">
<path d="M132.402 43.8341C134.068 30.1759 114.109 34.1359 106.873 36.3505C104.113 37.1902 99.927 37.9641 95.7496 39.1249C98.5843 32.7198 100.159 25.5903 100.64 20.6753C101.195 14.9123 99.2225 9.52809 92.7491 9.23171C86.4912 8.94357 83.2753 14.4184 79.8604 19.144C79.5123 11.2323 78.4347 1.50112 71.5801 0.323836C64.8415 -0.836987 59.6943 7.84861 57.7713 12.9365C55.923 17.8267 54.7957 22.964 54.3067 28.1671C54.1243 30.0771 54.0746 31.946 54.1161 33.8313C53.2955 32.3411 52.4501 30.8675 51.5549 29.435C48.7036 24.8905 45.1478 20.7494 41.8241 16.5424C38.1854 11.9321 29.673 4.21794 26.0675 13.2411C24.6419 16.8059 28.0402 20.8976 29.01 24.0919C30.6511 29.5173 33.4029 34.6628 36.5691 39.339C38.2186 41.7759 40.183 44.2787 42.3877 46.6085C39.0226 46.3451 35.4999 46.6909 32.4249 47.3742C22.1967 49.6547 8.32167 59.4188 5.08912 69.8003C3.89557 73.645 4.35972 77.9507 7.9321 80.4206C12.9301 83.8701 18.8067 83.0468 24.302 81.285C33.8919 78.2142 43.4155 73.431 52.1019 67.7668C50.1127 72.0478 48.4798 76.4524 47.8996 81.318C47.0127 88.8098 45.123 99.8088 50.5686 106.156C55.6494 112.076 62.1063 108.486 66.5406 103.802C69.5908 100.583 71.7542 96.9849 73.5279 93.1814C74.8624 104.477 78.7746 115.805 90.2874 117.995C102.414 120.3 98.9158 104.197 97.9958 95.3384C99.322 95.7418 100.623 96.3181 101.9 96.7791C104.685 97.7835 107.544 98.0799 110.478 97.8412C115.684 97.4213 119.728 94.2846 123.367 90.8433C129.592 84.9568 132.02 74.8058 126.699 67.6433C123.848 63.8068 119.919 62.3579 115.684 61.6169C123.235 57.5252 131.44 51.5729 132.385 43.8341H132.402Z" fill="#DF0F1B"/>
</g>
<defs>
<filter id="filter0_d_25_4810" x="0.5" y="0.218262" width="136" height="126" filterUnits="userSpaceOnUse" color-interpolation-filters="sRGB">
<feFlood flood-opacity="0" result="BackgroundImageFix"/>
<feColorMatrix in="SourceAlpha" type="matrix" values="0 0 0 0 0 0 0 0 0 0 0 0 0 0 0 0 0 0 127 0" result="hardAlpha"/>
<feOffset dy="4"/>
<feGaussianBlur stdDeviation="2"/>
<feComposite in2="hardAlpha" operator="out"/>
<feColorMatrix type="matrix" values="0 0 0 0 0 0 0 0 0 0 0 0 0 0 0 0 0 0 0.25 0"/>
<feBlend mode="normal" in2="BackgroundImageFix" result="effect1_dropShadow_25_4810"/>
<feBlend mode="normal" in="SourceGraphic" in2="effect1_dropShadow_25_4810" result="shape"/>
</filter>
</defs>
</svg>
