<svg width="137" height="125" viewBox="0 0 137 125" fill="none" xmlns="http://www.w3.org/2000/svg">
<g filter="url(#filter0_d_25_4812)">
<path d="M132.402 43.0948C134.068 29.6682 114.109 33.561 106.873 35.7381C104.113 36.5636 99.927 37.3244 95.7496 38.4655C98.5843 32.169 100.159 25.1602 100.64 20.3286C101.195 14.6633 99.2225 9.3703 92.7491 9.07894C86.4913 8.79568 83.2753 14.1777 79.8604 18.8232C79.5123 11.0456 78.4347 1.47938 71.5801 0.322047C64.8415 -0.819101 59.6943 7.71928 57.7713 12.7209C55.923 17.5283 54.7957 22.5785 54.3067 27.6934C54.1243 29.571 54.0746 31.4082 54.1161 33.2616C53.2955 31.7967 52.4501 30.348 51.5549 28.9398C48.7036 24.4723 45.1478 20.4014 41.8241 16.2657C38.1854 11.7335 29.673 4.15015 26.0675 13.0204C24.6419 16.5247 28.0402 20.5471 29.01 23.6872C30.6511 29.0207 33.4029 34.079 36.5691 38.6759C38.2186 41.0715 40.183 43.5319 42.3877 45.8223C39.0226 45.5633 35.4999 45.9032 32.4249 46.5749C22.1967 48.8168 8.32167 58.4154 5.08912 68.6209C3.89557 72.4005 4.35972 76.6332 7.9321 79.0612C12.9301 82.4523 18.8067 81.643 24.302 79.911C33.8919 76.8922 43.4155 72.1901 52.1019 66.6219C50.1127 70.8304 48.4798 75.1603 47.8996 79.9434C47.0127 87.3083 45.123 98.1208 50.5686 104.361C55.6494 110.18 62.1063 106.651 66.5406 102.046C69.5908 98.8816 71.7542 95.3448 73.5279 91.6058C74.8624 102.71 78.7746 113.846 90.2874 115.999C102.414 118.265 98.9158 102.435 97.9958 93.7262C99.322 94.1227 100.623 94.6893 101.9 95.1425C104.685 96.1299 107.544 96.4212 110.478 96.1865C115.684 95.7738 119.728 92.6902 123.367 89.3073C129.592 83.5206 132.02 73.5416 126.699 66.5005C123.848 62.7291 119.919 61.3046 115.684 60.5763C123.235 56.5539 131.44 50.7025 132.385 43.0948H132.402Z" fill="#FB8F36"/>
</g>
<defs>
<filter id="filter0_d_25_4812" x="0.5" y="0.218262" width="136" height="124" filterUnits="userSpaceOnUse" color-interpolation-filters="sRGB">
<feFlood flood-opacity="0" result="BackgroundImageFix"/>
<feColorMatrix in="SourceAlpha" type="matrix" values="0 0 0 0 0 0 0 0 0 0 0 0 0 0 0 0 0 0 127 0" result="hardAlpha"/>
<feOffset dy="4"/>
<feGaussianBlur stdDeviation="2"/>
<feComposite in2="hardAlpha" operator="out"/>
<feColorMatrix type="matrix" values="0 0 0 0 0 0 0 0 0 0 0 0 0 0 0 0 0 0 0.25 0"/>
<feBlend mode="normal" in2="BackgroundImageFix" result="effect1_dropShadow_25_4812"/>
<feBlend mode="normal" in="SourceGraphic" in2="effect1_dropShadow_25_4812" result="shape"/>
</filter>
</defs>
</svg>
