<svg width="317" height="403" viewBox="0 0 317 403" fill="none" xmlns="http://www.w3.org/2000/svg">
<path d="M182.91 13.6297C196.3 36.9797 196.46 77.9697 182.91 101.33C182.19 102.57 176.56 109.94 176.98 110.36C194.28 104.74 203 88.9197 208.67 72.7597C214.91 54.9597 218.5 33.5097 210.97 15.5497C204.79 0.799697 190.15 -4.7903 176.98 5.6397C179.43 7.9197 181.26 10.7497 182.91 13.6297Z" fill="white"/>
<path d="M144.2 5.31006C128.32 -4.60994 114.66 1.05006 108.61 18.1401C99.5502 43.7401 110.16 81.4401 129.89 99.9501C133.34 103.18 138.93 107.87 143.49 107.92C136.63 100.26 132.57 89.1201 130.57 79.0701C125.75 54.8501 128.69 25.2701 144.19 5.31006H144.2Z" fill="white"/>
<path d="M181.06 93.9001C190.43 72.8901 190.49 42.5901 181.28 21.5201C175 7.14012 162.32 -5.62988 147.94 9.02012C128.61 28.7001 128.91 87.5001 148.74 106.87C162.56 120.38 175.13 107.2 181.06 93.9001Z" fill="white"/>
<path d="M91.2102 139.24C91.6002 143.26 91.2102 148.28 91.2102 152.45C91.2102 152.99 90.0102 154.45 90.5202 155.58C106.86 135.01 101.1 98.1901 86.2102 78.1201C75.6302 63.8601 58.9502 57.5001 48.6602 75.9101L56.1502 80.2801C73.1102 91.2701 89.2802 119.25 91.2002 139.23L91.2102 139.24Z" fill="white"/>
<path d="M183.79 248.31C186.72 242.2 190.37 229.22 192.5 222.21C196.24 209.91 202.72 188.36 198.56 176.14C194.09 163.03 182.84 177.27 179.41 183.4C168.63 202.67 167.54 229.34 165.13 250.9H182.21C183.12 250.24 183.35 249.24 183.79 248.31Z" fill="white"/>
<path d="M157.45 250.9C155.57 229.15 153.39 202.71 142.47 183.4C139.65 178.42 130.54 165.5 124.68 173.32C118.2 181.96 124.95 208.04 127.83 218.2C130.94 229.19 135.03 240.29 138.98 250.9H157.45Z" fill="white"/>
<path d="M64.2801 94.0899C58.9501 88.2499 51.0401 80.5599 42.7401 79.7499C24.9401 78.0099 24.4401 96.8899 26.4601 109.91C29.4001 128.95 46.8401 160.19 66.2601 166.21C78.2701 169.93 85.2301 162.72 86.3101 151.04C88.1601 131.1 77.3601 108.43 64.2801 94.0799V94.0899Z" fill="white"/>
<path d="M21.5801 109.9C20.6201 103.11 20.1401 96.1097 22.1801 89.4797C12.9501 88.6997 4.7201 91.1097 1.4301 100.41C-7.4499 125.51 29.4601 167.69 53.9301 170.86C57.0501 171.26 60.2101 171.01 63.3201 170.87L53.6201 164.9C37.8401 153.5 24.2901 129.01 21.5801 109.9Z" fill="white"/>
<path d="M294.81 89.49C297.25 97.82 296.2 106.74 294.34 115.11C290.41 132.69 277.83 154.73 262.97 165.21L253.69 170.89H264.49C277.86 170.89 302.32 145.12 308.88 133.78C318.98 116.33 323.44 87.68 294.82 89.49H294.81Z" fill="white"/>
<path d="M286.78 123.56C291.9 109.56 297.3 76.0995 273.02 79.9095C257.31 82.3695 240.05 108.76 235.02 122.7C230.66 134.78 224.6 168.65 245.64 167.42C263.52 166.38 281.23 138.74 286.78 123.56Z" fill="white"/>
<path d="M205.56 250.9H223.35C224.68 250.9 242.39 237.31 244.62 235.25C251.28 229.16 263.13 216.55 253.63 208.15C250.33 205.23 247.11 205.01 243.01 206.51C233.33 210.05 219.14 228.08 213.36 236.76C212.29 238.37 204.78 250.15 205.56 250.89V250.9Z" fill="white"/>
<path d="M225.78 153.15C225.47 148.74 225.78 143.73 225.78 139.23C225.78 134.27 229.71 122.94 231.71 118.02C238.47 101.48 251.26 83.4299 268.31 76.5999C260.24 59.5699 244.17 62.2299 233.16 74.9399C215.92 94.8499 209.82 133.5 226.12 155.57C227.27 154.99 225.8 153.6 225.77 153.14L225.78 153.15Z" fill="white"/>
<path d="M107.26 402.57L214.9 402.62L238.33 255.77H83.55L107.26 402.57Z" fill="white"/>
<path d="M111.44 250.9C111.68 249.83 111.2 249.26 110.79 248.42C105.72 237.89 86.3702 212.23 75.9102 207.38C71.7402 205.45 68.0002 204.71 64.0702 207.46C53.1202 215.13 65.6302 228.36 72.0602 234.18C75.2602 237.08 92.6502 250.27 95.7502 250.9C100.02 251.76 106.85 250.26 111.44 250.9Z" fill="white"/>
</svg>
