<svg width="326" height="413" viewBox="0 0 326 413" fill="none" xmlns="http://www.w3.org/2000/svg">
<g clip-path="url(#clip0_1434_18845)">
<path d="M162.665 122.357C137.607 120.882 120.043 101.018 111.746 78.8925C104.844 60.4754 101.825 36.9654 109.773 18.444C117.938 -0.599221 135.919 -4.75992 152.555 7.36038C160.309 1.23761 169.429 1.36981 177.544 6.74811C202.687 -9.24764 220.097 7.67348 223.834 33.1387C227.264 56.4678 216.652 96.4954 197.855 111.9C189.391 118.837 178.416 121.898 167.546 122.357V227.418L172.936 203.226C175.446 193.667 184.503 172.209 195.77 171.033C210.621 169.489 209.785 190.223 208.669 199.922C206.501 218.874 198.001 237.41 192.633 255.583C192.626 256.14 202.966 256.856 203.259 254.359C211.821 226.423 222.809 199.149 237.988 174.15L237.883 173.218C208.704 155.552 212.476 110.286 228.324 84.5491C238.65 67.781 258.459 55.1737 274.202 74.0082C275.213 75.2188 277.145 79.2264 277.696 79.5674C280.763 81.4459 286.892 77.8349 293.425 84.0481C294.541 85.1126 297.086 89.3221 297.379 89.489C298.445 90.1013 306.401 89.4612 309.12 89.9552C316.936 91.3746 323.86 98.7567 325.373 106.438C331.724 138.666 289.04 185.923 255.928 180.607C253.278 180.183 243.21 176.238 242.15 176.912C241.223 177.504 232.996 192.804 231.796 195.142C224.678 209.029 219.246 223.675 213.585 238.196C213.445 240.255 214.379 238.718 214.861 238.078C222.942 227.356 238.504 203.505 254.317 205.877C259.63 206.678 265.912 212.647 266.575 217.984C268.499 233.444 248.377 247.693 237.284 255.576L247.087 256.223C248.112 256.94 247.812 259.89 247.728 261.128C246.18 284.472 239.013 313.388 235.345 337.197C235.046 339.166 235.457 341.956 235.066 344.516C231.636 366.899 227.285 389.241 224.657 411.707L107.988 412.486L99.0356 355.955C97.7875 350.876 97.2228 345.678 96.3652 340.53C91.8262 313.471 86.4365 286.274 82.4762 259.013C81.8138 254.025 87.3499 256.745 90.1667 255.576C79.1922 247.798 58.2612 233.917 59.4535 218.666C59.9346 212.522 66.7814 206.044 73.0775 205.78C88.2354 205.147 102.703 226.472 110.512 237.361C110.875 237.869 111.69 239.42 112.464 238.885C104.844 217.392 95.7237 196.415 83.8986 176.912C82.3786 175.938 75.8176 179.348 73.5795 179.883C48.4301 185.916 25.1843 165.968 11.7904 146.633C-3.63949 124.354 -9.19647 87.2556 28.7053 89.5308C30.1625 85.2031 35.8381 80.5693 40.3771 79.9639C42.406 79.6926 47.1403 80.4162 48.3604 79.5813C48.96 79.1708 52.6833 72.2618 55.1724 70.2023C72.1641 56.1269 89.86 71.2112 98.6591 86.3929C113.496 111.983 116.697 155.914 88.1587 173.218L88.0541 174.15C103.212 199.706 114.905 227.3 122.944 255.938H137.586C134.72 244.18 129.798 232.957 126.625 221.303C123.557 210.017 116.78 181.087 127.476 173.148C139.824 163.985 151.377 185.123 155.135 194.244C158.022 201.251 159.402 208.507 161.501 215.729C161.71 216.453 161.661 217.831 162.679 217.678V122.357H162.665ZM148.721 10.3522C132.845 0.430518 119.186 6.09408 113.134 23.1822C104.07 48.7865 114.689 86.4833 134.413 104.991C137.865 108.226 143.457 112.916 148.016 112.964C141.156 105.304 137.098 94.1646 135.097 84.1107C130.279 59.891 133.221 30.3069 148.714 10.3522H148.721ZM181.498 115.4C198.796 109.778 207.519 93.9628 213.187 77.8001C219.427 60.0023 223.018 38.5517 215.488 20.5939C209.304 5.84361 194.669 0.249618 181.498 10.6862C183.952 12.9683 185.779 15.8001 187.424 18.6736C200.818 42.0236 200.979 83.0114 187.424 106.368C186.706 107.607 181.079 114.982 181.491 115.4H181.498ZM152.451 14.0606C133.117 33.737 133.423 92.5435 153.253 111.914C167.072 125.419 179.643 112.241 185.57 98.9445C194.941 77.9393 194.996 47.6385 185.793 26.5636C179.518 12.1821 166.835 -0.585305 152.451 14.0606ZM95.7307 144.274C96.1211 148.296 95.7307 153.326 95.7307 157.494C95.7307 158.036 94.5314 159.497 95.0404 160.625C111.384 140.051 105.624 103.23 90.7315 83.1645C80.1544 68.9082 63.4695 62.5488 53.1853 80.9589L60.6736 85.3283C77.6304 96.3215 93.7993 124.298 95.7237 144.281L95.7307 144.274ZM230.297 158.189C229.984 153.778 230.297 148.769 230.297 144.274C230.297 139.313 234.23 127.979 236.231 123.06C242.987 106.515 255.781 88.4732 272.836 81.6408C264.769 64.6153 248.697 67.2662 237.681 79.9848C220.438 99.8908 214.338 138.548 230.639 160.618C231.789 160.04 230.318 158.649 230.29 158.182L230.297 158.189ZM68.8034 99.1324C63.4765 93.2949 55.5629 85.6066 47.2588 84.7926C29.4583 83.0532 28.9633 101.936 30.9783 114.954C33.9207 133.99 51.3585 165.231 70.7766 171.256C82.783 174.978 89.7484 167.77 90.8291 156.088C92.6768 136.147 81.8836 113.479 68.7964 99.1324H68.8034ZM277.528 84.9526C261.819 87.4156 244.556 113.806 239.529 127.742C235.171 139.821 229.105 173.698 250.148 172.467C268.025 171.423 285.742 143.787 291.292 128.605C296.409 114.606 301.813 81.1468 277.528 84.9526ZM26.6973 94.5264C17.4659 93.7472 9.2315 96.1545 5.93357 105.457C-2.94923 130.553 33.9625 172.738 58.4355 175.904C61.5521 176.307 64.7106 176.057 67.8273 175.918L58.1287 169.948C42.3502 158.551 28.796 134.053 26.0907 114.947C25.1285 108.15 24.6474 101.15 26.6903 94.5195L26.6973 94.5264ZM258.187 175.931H268.994C282.367 175.931 306.826 150.16 313.387 138.826C323.49 121.376 327.945 92.7244 299.324 94.5334C301.764 102.862 300.718 111.782 298.85 120.152C294.924 137.734 282.339 159.776 267.481 170.254L258.187 175.938V175.931ZM161.968 255.945C160.086 234.195 157.91 207.756 146.992 188.441C144.175 183.46 135.062 170.546 129.198 178.367C122.714 187.008 129.47 213.086 132.343 223.244C135.452 234.237 139.545 245.334 143.498 255.945H161.975H161.968ZM169.638 255.945H186.72C187.626 255.284 187.857 254.289 188.303 253.35C191.231 247.241 194.885 234.258 197.011 227.251C200.755 214.95 207.233 193.402 203.07 181.178C198.601 168.069 187.348 182.305 183.917 188.434C173.138 207.707 172.05 234.376 169.638 255.938V255.945ZM100.263 255.945C104.53 256.808 111.363 255.305 115.951 255.945C116.188 254.873 115.707 254.31 115.302 253.461C110.233 242.927 90.8849 217.267 80.4263 212.425C76.2569 210.497 72.5197 209.753 68.5873 212.508C57.6406 220.182 70.1491 233.409 76.5776 239.226C79.7779 242.127 97.167 255.312 100.263 255.945ZM210.078 255.945H227.857C229.182 255.945 246.892 242.35 249.13 240.297C255.788 234.209 267.641 221.595 258.138 213.197C254.84 210.282 251.619 210.059 247.519 211.562C237.835 215.103 223.653 233.131 217.873 241.814C216.799 243.428 209.29 255.201 210.071 255.945H210.078ZM242.848 260.815H88.0611L111.774 407.616L219.414 407.664L242.848 260.815Z" fill="black"/>
<path d="M158.517 331.046L158.572 328.388L162.651 326.565C160.225 323.323 156.306 329.947 156.488 324.214C158.775 323.01 159.848 322.126 162.491 323.267C166.389 324.958 164.018 327.435 164.102 329.988C164.164 331.978 165.935 332.925 164.631 335.429C162.791 338.964 156.99 338.901 155.986 335.311C154.745 330.858 159.458 335.2 160.26 335.29C164.45 335.742 162.616 330.128 158.524 331.046H158.517Z" fill="black"/>
<path d="M166.145 38.1689L163.363 43.7281C173.075 43.0602 168.989 57.24 161.571 52.8219C156.334 49.7048 160.42 38.5238 166.145 38.1689ZM163.091 46.5808C160.413 47.4366 162.47 52.5018 165.496 50.3867C167.211 49.1899 166.103 45.6206 163.091 46.5808Z" fill="black"/>
<path d="M60.8688 118.878V130.706C60.8688 130.894 63.1349 130.24 62.2703 133.489C60.9176 133.42 56.3368 134.032 55.9952 132.438C55.7093 130.956 57.8777 131.13 58.1008 130.219C58.4982 128.57 57.7731 125.926 58.1426 124.075L55.9882 121.32L60.8758 118.878H60.8688Z" fill="black"/>
<path d="M267.948 118.878V130.706C267.948 130.894 270.214 130.24 269.35 133.489C268.074 133.51 262.447 134.088 263.067 131.757C266.296 130.748 266.33 123.067 263.081 122.009C264.553 120.694 265.605 118.502 267.948 118.878Z" fill="black"/>
<path d="M119.437 35.3787C132.468 33.6671 125.635 53.253 116.655 44.0619L117.708 42.3364C122.937 47.172 126.814 38.5027 122.56 38.134C120.232 37.9322 118.168 41.4041 116.982 39.5672L116.815 32.2199C117.073 30.6197 126.067 30.6962 126.402 32.2617C127.03 35.2465 120.022 32.7417 119.437 35.3787Z" fill="black"/>
<path d="M203.802 34.6831C216.52 32.7976 210.28 52.5783 201.013 43.3803L202.073 41.6478C204.799 43.8743 209.046 43.3664 208.704 39.2196C208.313 34.4953 202.589 40.8825 201.341 38.8717L201.704 30.5155C203.279 30.7799 210.377 29.7154 210.768 31.5731C211.395 34.5579 204.388 32.0531 203.802 34.6901V34.6831Z" fill="black"/>
<path d="M141.748 223.236C154.529 223 147.528 227.404 139.657 226.026C138.178 219.799 143.505 219.479 145.918 215.235C143.966 212.689 141.874 215.402 139.664 215.583C139.42 209.683 149.941 210.281 148.281 216.133C147.319 219.528 143.303 220.168 141.748 223.236Z" fill="black"/>
<path d="M183.583 222.541C196.363 222.304 189.363 226.708 181.491 225.331C181.54 223.724 181.17 222.019 181.86 220.467C182.376 219.312 191.433 213.851 186.016 213.44C184.426 213.322 183.457 215.061 181.853 214.894C180.375 210.372 189.209 209.064 190.206 213.405C190.792 218.241 185.542 219.062 183.59 222.534L183.583 222.541Z" fill="black"/>
<path d="M243.545 95.918C244.228 98.4854 241.927 99.0281 241.258 100.28C240.379 101.922 237.033 111.044 236.217 111.225C235.241 111.301 234.544 110.633 234.606 109.632C234.774 106.647 238.225 101.63 239.368 98.708H233.093V95.918H243.552H243.545Z" fill="black"/>
<path d="M87.3569 84.0829C87.7403 84.4586 86.9943 90.5397 87.3429 91.9451C87.573 92.8566 89.8251 92.7452 89.4486 94.1646C87.0361 95.3266 87.0989 96.0571 87.3569 98.701L85.3 98.6802L85.2721 95.2222C83.8009 95.0482 77.9581 96.0849 78.3555 93.5523C79.9522 92.2095 84.8259 81.6199 87.3569 84.0829ZM84.5679 92.4391V88.9603H83.8846L82.4832 92.4252L84.5749 92.4391H84.5679Z" fill="black"/>
<path d="M316.057 113.312C316.873 114.091 313.073 119.156 312.446 120.492C311.651 122.183 310.124 128.334 308.729 128.619C307.823 128.807 307.07 127.986 307.119 127.026C307.237 124.618 311.037 118.781 311.881 116.102H305.606V113.312H316.064H316.057Z" fill="black"/>
<path d="M21.1192 115.392C21.5027 115.768 20.7567 121.849 21.1053 123.255C21.3354 124.166 23.5874 124.055 23.2109 125.474C21.0774 126.608 20.7218 127.054 21.1262 129.635C18.7904 131.033 18.1211 128.654 18.3024 126.546C17.891 126.121 12.4456 127.339 12.0482 125.46C11.9017 124.764 18.8881 113.222 21.1122 115.385L21.1192 115.392ZM18.3303 123.742L17.9886 120.966L16.2455 123.742H18.3303Z" fill="black"/>
<path d="M233.784 238.544C236.586 238.641 242.701 237.549 239.591 241.361L231.685 241.334C231.734 239.726 231.364 238.022 232.047 236.47C232.863 234.633 237.479 232.769 237.751 231.259C238.42 227.488 233.295 230.981 232.04 230.897C230.799 226.555 238.434 225.08 240.254 229.005C242.22 233.242 235.255 235.503 233.777 238.537L233.784 238.544Z" fill="black"/>
<path d="M86.8756 237.374C86.6107 237.604 85.1465 239.844 85.272 239.935C86.1157 239.803 93.2065 239.698 92.2374 241.667C89.9365 243.782 86.025 242.314 83.1803 242.725C83.2291 241.118 82.8596 239.413 83.5498 237.862C84.0658 236.707 93.1229 231.245 87.7054 230.834C86.1157 230.716 85.1465 232.455 83.5429 232.288C82.8386 226.75 92.9277 226.082 91.5402 233.304C91.0033 236.108 88.3608 236.108 86.8826 237.368L86.8756 237.374Z" fill="black"/>
</g>
<defs>
<clipPath id="clip0_1434_18845">
<rect width="326" height="412" fill="white" transform="translate(0 0.506836)"/>
</clipPath>
</defs>
</svg>
