<svg width="174" height="175" viewBox="0 0 174 175" fill="none" xmlns="http://www.w3.org/2000/svg">
<g filter="url(#filter0_d_1434_18865)">
<circle cx="86.9951" cy="83.5068" r="75" fill="#70338E"/>
</g>
<path d="M106.834 93.7256C106.834 98.3968 104.845 102.401 100.868 105.737C97.1313 108.86 92.8738 110.422 88.0958 110.422C82.1967 110.422 77.6056 108.006 74.3224 103.175C71.4662 98.984 70.0382 93.7923 70.0382 87.5996C70.0382 79.9655 72.0668 73.1322 76.1241 67.0996C80.7153 60.293 86.6544 56.8896 93.9415 56.8896C96.9578 56.8896 100.094 57.5436 103.351 58.8516V72.625H100.388C100.334 69.1816 99.6804 66.2321 98.4259 63.7764C96.7976 60.6266 94.4353 59.0518 91.339 59.0518C88.2693 59.0518 85.5333 60.6133 83.131 63.7363C81.2358 66.1654 79.8077 69.1149 78.8468 72.585C77.699 76.7223 77.1251 80.486 77.1251 83.876C77.1251 85.0238 77.2452 86.7188 77.4854 88.9609C81.9431 83.7559 86.9614 81.1533 92.5401 81.1533C96.7042 81.1533 100.067 82.1943 102.63 84.2764C105.433 86.5186 106.834 89.6683 106.834 93.7256ZM99.1866 96.0879C99.1866 92.9382 98.4259 90.2555 96.9044 88.04C95.1427 85.5309 92.7537 84.2764 89.7374 84.2764C86.561 84.2764 84.0519 85.4909 82.2101 87.9199C80.5551 90.1354 79.7276 92.8848 79.7276 96.168C79.7276 99.3711 80.5284 102.107 82.13 104.376C83.9184 106.965 86.3474 108.26 89.4171 108.26C92.5134 108.26 94.9692 106.965 96.7843 104.376C98.3858 102.08 99.1866 99.3177 99.1866 96.0879Z" fill="white"/>
<defs>
<filter id="filter0_d_1434_18865" x="-0.00488281" y="0.506836" width="174" height="174" filterUnits="userSpaceOnUse" color-interpolation-filters="sRGB">
<feFlood flood-opacity="0" result="BackgroundImageFix"/>
<feColorMatrix in="SourceAlpha" type="matrix" values="0 0 0 0 0 0 0 0 0 0 0 0 0 0 0 0 0 0 127 0" result="hardAlpha"/>
<feOffset dy="4"/>
<feGaussianBlur stdDeviation="6"/>
<feComposite in2="hardAlpha" operator="out"/>
<feColorMatrix type="matrix" values="0 0 0 0 0 0 0 0 0 0 0 0 0 0 0 0 0 0 0.25 0"/>
<feBlend mode="normal" in2="BackgroundImageFix" result="effect1_dropShadow_1434_18865"/>
<feBlend mode="normal" in="SourceGraphic" in2="effect1_dropShadow_1434_18865" result="shape"/>
</filter>
</defs>
</svg>
