<svg width="174" height="175" viewBox="0 0 174 175" fill="none" xmlns="http://www.w3.org/2000/svg">
<g filter="url(#filter0_d_1434_18839)">
<circle cx="87.0049" cy="83.5068" r="75" fill="#FF1717"/>
</g>
<path d="M105.883 90.4824C105.883 95.821 103.441 100.532 98.5558 104.616C93.9379 108.487 88.9063 110.422 83.461 110.422C79.9643 110.422 76.0004 109.568 71.5694 107.859V94.5264H74.3321C74.7325 98.2367 76.0538 101.293 78.296 103.695C80.6983 106.285 83.7013 107.579 87.3048 107.579C90.7481 107.579 93.5108 106.351 95.5929 103.896C97.5414 101.573 98.5157 98.6637 98.5157 95.167C98.5157 91.0296 97.3813 87.8532 95.1124 85.6377C92.8702 83.3955 89.6804 82.2744 85.5431 82.2744H78.9366V80.3926C82.7804 79.9922 86.3572 78.3506 89.6671 75.4678C93.2172 72.3714 94.9923 68.9681 94.9923 65.2578C94.9923 63.3893 94.3784 61.8812 93.1505 60.7334C91.9493 59.5856 90.4145 59.0117 88.546 59.0117C84.9692 59.0117 82.0597 60.8535 79.8175 64.5371C77.949 67.6068 76.948 71.0768 76.8146 74.9473H74.0919V62.8555C80.3914 58.8783 86.157 56.8896 91.3888 56.8896C94.325 56.8896 96.794 57.5436 98.796 58.8516C101.145 60.373 102.319 62.5218 102.319 65.2979C102.319 70.8766 96.7273 75.9082 85.5431 80.3926C87.4116 80.3125 88.7862 80.2725 89.6671 80.2725C100.478 80.2725 105.883 83.6758 105.883 90.4824Z" fill="white"/>
<defs>
<filter id="filter0_d_1434_18839" x="0.00488281" y="0.506836" width="174" height="174" filterUnits="userSpaceOnUse" color-interpolation-filters="sRGB">
<feFlood flood-opacity="0" result="BackgroundImageFix"/>
<feColorMatrix in="SourceAlpha" type="matrix" values="0 0 0 0 0 0 0 0 0 0 0 0 0 0 0 0 0 0 127 0" result="hardAlpha"/>
<feOffset dy="4"/>
<feGaussianBlur stdDeviation="6"/>
<feComposite in2="hardAlpha" operator="out"/>
<feColorMatrix type="matrix" values="0 0 0 0 0 0 0 0 0 0 0 0 0 0 0 0 0 0 0.25 0"/>
<feBlend mode="normal" in2="BackgroundImageFix" result="effect1_dropShadow_1434_18839"/>
<feBlend mode="normal" in="SourceGraphic" in2="effect1_dropShadow_1434_18839" result="shape"/>
</filter>
</defs>
</svg>
