<svg width="326" height="413" viewBox="0 0 326 413" fill="none" xmlns="http://www.w3.org/2000/svg">
<g clip-path="url(#clip0_1651_7404)">
<path d="M162.655 122.357C137.595 120.887 120.035 101.017 111.735 78.897C104.835 60.477 101.815 36.967 109.765 18.447C117.935 -0.592972 135.915 -4.75297 152.545 7.36703C160.295 1.24703 169.415 1.37703 177.535 6.75703C202.675 -9.24297 220.085 7.68703 223.825 33.147C227.255 56.477 216.645 96.507 197.845 111.907C189.385 118.847 178.405 121.907 167.535 122.367V227.427L172.925 203.237C175.435 193.677 184.495 172.217 195.755 171.047C210.605 169.507 209.765 190.237 208.655 199.937C206.485 218.887 197.985 237.427 192.615 255.597C192.615 256.157 202.945 256.867 203.245 254.377C211.805 226.447 222.795 199.167 237.975 174.167L237.865 173.237C208.685 155.577 212.455 110.307 228.305 84.567C238.635 67.797 258.445 55.187 274.185 74.027C275.195 75.237 277.125 79.247 277.675 79.587C280.745 81.467 286.875 77.857 293.405 84.067C294.525 85.127 297.065 89.337 297.355 89.507C298.425 90.117 306.375 89.477 309.095 89.977C316.915 91.397 323.835 98.777 325.345 106.457C331.695 138.687 289.015 185.947 255.905 180.627C253.255 180.207 243.185 176.257 242.125 176.937C241.195 177.527 232.975 192.827 231.775 195.167C224.655 209.057 219.225 223.697 213.565 238.217C213.425 240.277 214.355 238.737 214.845 238.097C222.925 227.377 238.485 203.527 254.305 205.897C259.615 206.697 265.895 212.667 266.565 218.007C268.485 233.467 248.365 247.717 237.275 255.597L247.075 256.247C248.095 256.967 247.795 259.917 247.715 261.157C246.165 284.497 239.005 313.417 235.335 337.227C235.035 339.197 235.445 341.987 235.055 344.547C231.625 366.927 227.275 389.267 224.645 411.737L107.975 412.517L99.0248 355.987C97.7748 350.907 97.2148 345.707 96.3548 340.567C91.8148 313.507 86.4248 286.307 82.4648 259.047C81.8048 254.057 87.3348 256.777 90.1548 255.607C79.1848 247.827 58.2448 233.947 59.4448 218.697C59.9248 212.557 66.7748 206.077 73.0648 205.807C88.2248 205.177 102.695 226.497 110.495 237.387C110.855 237.897 111.675 239.447 112.445 238.907C104.825 217.417 95.7048 196.437 83.8748 176.937C82.3548 175.967 75.7948 179.367 73.5548 179.907C48.4048 185.937 25.1548 165.987 11.7648 146.657C-3.6652 124.377 -9.2252 87.277 28.6748 89.557C30.1348 85.227 35.8048 80.597 40.3448 79.987C42.3748 79.717 47.1048 80.437 48.3248 79.607C48.9248 79.197 52.6448 72.287 55.1348 70.227C72.1248 56.147 89.8248 71.237 98.6248 86.417C113.465 112.007 116.665 155.937 88.1248 173.237L88.0248 174.167C103.185 199.727 114.875 227.317 122.915 255.957H137.555C134.685 244.197 129.765 232.977 126.595 221.327C123.525 210.037 116.745 181.107 127.445 173.177C139.795 164.017 151.345 185.147 155.105 194.277C157.995 201.287 159.375 208.537 161.475 215.767C161.685 216.487 161.635 217.867 162.655 217.717V122.397H162.645L162.655 122.357ZM148.705 10.347C132.825 0.42703 119.175 6.08703 113.115 23.177C104.055 48.777 114.675 86.477 134.395 104.987C137.845 108.227 143.435 112.907 147.995 112.957C141.135 105.297 137.075 94.157 135.075 84.107C130.255 59.887 133.195 30.307 148.695 10.347H148.705ZM181.485 115.397C198.785 109.777 207.505 93.957 213.175 77.797C219.415 59.997 223.005 38.547 215.475 20.587C209.295 5.83703 194.655 0.247029 181.485 10.677C183.935 12.957 185.765 15.787 187.415 18.667C200.805 42.017 200.975 83.007 187.415 106.367C186.695 107.607 181.065 114.977 181.485 115.397ZM152.435 14.057C133.105 33.737 133.405 92.537 153.235 111.907C167.055 125.417 179.625 112.237 185.555 98.937C194.925 77.927 194.985 47.627 185.775 26.557C179.505 12.177 166.815 -0.59297 152.435 14.057ZM95.7148 144.267C96.1048 148.287 95.7148 153.317 95.7148 157.487C95.7148 158.027 94.5148 159.487 95.0248 160.617C111.365 140.047 105.605 103.227 90.7148 83.157C80.1348 68.897 63.4548 62.537 53.1648 80.947L60.6548 85.317C77.6148 96.307 93.7848 124.287 95.7048 144.267H95.7148ZM230.285 158.187C229.975 153.777 230.285 148.767 230.285 144.267C230.285 139.307 234.215 127.977 236.215 123.057C242.975 106.517 255.765 88.467 272.815 81.637C264.745 64.607 248.675 67.267 237.665 79.977C220.425 99.887 214.325 138.537 230.625 160.607C231.775 160.027 230.305 158.637 230.275 158.177L230.285 158.187ZM68.7948 99.127C63.4648 93.287 55.5548 85.597 47.2548 84.787C29.4548 83.047 28.9548 101.927 30.9748 114.947C33.9148 133.987 51.3548 165.227 70.7748 171.247C82.7848 174.967 89.7448 167.757 90.8248 156.077C92.6748 136.137 81.8748 113.467 68.7948 99.117V99.127ZM277.515 84.947C261.805 87.407 244.545 113.797 239.515 127.737C235.155 139.817 229.095 173.687 250.135 172.457C268.015 171.417 285.725 143.777 291.275 128.597C296.395 114.597 301.795 81.137 277.515 84.947ZM26.6848 94.527C17.4548 93.747 9.2148 96.157 5.9248 105.457C-2.9552 130.557 33.9548 172.737 58.4248 175.907C61.5448 176.307 64.7048 176.057 67.8148 175.917L58.1148 169.947C42.3348 158.547 28.7848 134.057 26.0748 114.947C25.1148 108.147 24.6348 101.147 26.6748 94.517L26.6848 94.527ZM258.175 175.927H268.985C282.355 175.927 306.815 150.157 313.375 138.817C323.475 121.367 327.935 92.717 299.315 94.527C301.755 102.857 300.705 111.777 298.845 120.147C294.915 137.727 282.335 159.767 267.475 170.247L258.185 175.937L258.175 175.927ZM161.955 255.937C160.075 234.187 157.895 207.747 146.975 188.437C144.155 183.457 135.045 170.537 129.185 178.367C122.705 187.007 129.455 213.087 132.335 223.247C135.445 234.237 139.535 245.337 143.485 255.947H161.965L161.955 255.937ZM169.625 255.937H186.705C187.615 255.277 187.845 254.277 188.285 253.337C191.215 247.227 194.865 234.247 196.995 227.237C200.735 214.937 207.215 193.387 203.055 181.167C198.585 168.057 187.335 182.297 183.905 188.427C173.125 207.697 172.035 234.367 169.625 255.927V255.937ZM100.255 255.937C104.525 256.797 111.355 255.297 115.945 255.937C116.185 254.867 115.705 254.297 115.295 253.457C110.225 242.927 90.8748 217.267 80.4148 212.417C76.2448 210.487 72.5048 209.747 68.5748 212.497C57.6248 220.167 70.1348 233.397 76.5648 239.217C79.7648 242.117 97.1548 255.307 100.255 255.937ZM210.065 255.937H227.845C229.175 255.937 246.885 242.337 249.115 240.287C255.775 234.197 267.625 221.587 258.125 213.187C254.825 210.267 251.605 210.047 247.505 211.547C237.825 215.087 223.635 233.117 217.855 241.797C216.785 243.407 209.275 255.187 210.055 255.927L210.065 255.937ZM242.835 260.817H88.0448L111.755 407.617L219.395 407.667L242.825 260.817H242.835Z" fill="black"/>
<path d="M186.915 17.137C200.305 40.487 200.465 81.477 186.915 104.837C186.195 106.077 180.565 113.447 180.985 113.867C198.285 108.247 207.005 92.427 212.675 76.267C218.915 58.467 222.505 37.017 214.975 19.057C208.795 4.30702 194.155 -1.28298 180.985 9.14702C183.435 11.427 185.265 14.257 186.915 17.137Z" fill="white"/>
<path d="M148.205 8.8169C132.325 -1.1031 118.665 4.55689 112.615 21.6469C103.555 47.2469 114.165 84.9469 133.895 103.457C137.345 106.687 142.935 111.377 147.495 111.427C140.635 103.767 136.575 92.6269 134.575 82.5769C129.755 58.3569 132.695 28.7769 148.195 8.8169H148.205Z" fill="white"/>
<path d="M185.065 97.407C194.435 76.397 194.495 46.097 185.285 25.027C179.005 10.647 166.325 -2.12304 151.945 12.527C132.615 32.207 132.915 91.007 152.745 110.377C166.565 123.887 179.135 110.707 185.065 97.407Z" fill="white"/>
<path d="M95.215 142.747C95.605 146.767 95.215 151.787 95.215 155.957C95.215 156.497 94.015 157.957 94.525 159.087C110.865 138.517 105.105 101.697 90.215 81.6269C79.635 67.3669 62.955 61.0069 52.665 79.4169L60.155 83.7869C77.115 94.7769 93.285 122.757 95.205 142.737L95.215 142.747Z" fill="white"/>
<path d="M187.795 251.817C190.725 245.707 194.375 232.727 196.505 225.717C200.245 213.417 206.725 191.867 202.565 179.647C198.095 166.537 186.845 180.777 183.415 186.907C172.635 206.177 171.545 232.847 169.135 254.407H186.215C187.125 253.747 187.355 252.747 187.795 251.817Z" fill="white"/>
<path d="M161.455 254.407C159.575 232.657 157.395 206.217 146.475 186.907C143.655 181.927 134.545 169.007 128.685 176.827C122.205 185.467 128.955 211.547 131.835 221.707C134.945 232.697 139.035 243.797 142.985 254.407H161.455Z" fill="white"/>
<path d="M68.285 97.5972C62.955 91.7572 55.045 84.0672 46.745 83.2572C28.945 81.5172 28.445 100.397 30.465 113.417C33.405 132.457 50.845 163.697 70.265 169.717C82.275 173.437 89.235 166.227 90.315 154.547C92.165 134.607 81.365 111.937 68.285 97.5872V97.5972Z" fill="white"/>
<path d="M25.585 113.407C24.625 106.617 24.145 99.617 26.185 92.987C16.955 92.207 8.72499 94.617 5.43499 103.917C-3.44501 129.017 33.465 171.197 57.935 174.367C61.055 174.767 64.215 174.517 67.325 174.377L57.625 168.407C41.845 157.007 28.295 132.517 25.585 113.407Z" fill="white"/>
<path d="M298.815 92.9968C301.255 101.327 300.205 110.247 298.345 118.617C294.415 136.197 281.835 158.237 266.975 168.717L257.695 174.397H268.495C281.865 174.397 306.325 148.627 312.885 137.287C322.985 119.837 327.445 91.1868 298.825 92.9968H298.815Z" fill="white"/>
<path d="M290.785 127.067C295.905 113.067 301.305 79.6069 277.025 83.4169C261.315 85.8769 244.055 112.267 239.025 126.207C234.665 138.287 228.605 172.157 249.645 170.927C267.525 169.887 285.235 142.247 290.785 127.067Z" fill="white"/>
<path d="M209.565 254.407H227.355C228.685 254.407 246.395 240.817 248.625 238.757C255.285 232.667 267.135 220.057 257.635 211.657C254.335 208.737 251.115 208.517 247.015 210.017C237.335 213.557 223.145 231.587 217.365 240.267C216.295 241.877 208.785 253.657 209.565 254.397V254.407Z" fill="white"/>
<path d="M229.785 156.657C229.475 152.247 229.785 147.237 229.785 142.737C229.785 137.777 233.715 126.447 235.715 121.527C242.475 104.987 255.265 86.9372 272.315 80.1072C264.245 63.0772 248.175 65.7372 237.165 78.4472C219.925 98.3572 213.825 137.007 230.125 159.077C231.275 158.497 229.805 157.107 229.775 156.647L229.785 156.657Z" fill="white"/>
<path d="M111.265 406.077L218.905 406.127L242.335 259.277H87.5549L111.265 406.077Z" fill="white"/>
<path d="M115.445 254.407C115.685 253.337 115.205 252.767 114.795 251.927C109.725 241.397 90.3751 215.737 79.9151 210.887C75.7451 208.957 72.0051 208.217 68.0751 210.967C57.1251 218.637 69.6351 231.867 76.0651 237.687C79.2651 240.587 96.6551 253.777 99.7551 254.407C104.025 255.267 110.855 253.767 115.445 254.407Z" fill="white"/>
<path d="M175.192 343.69C175.511 343.964 175.765 344.283 175.954 344.647C176.143 345.012 176.237 345.497 176.237 346.103C176.237 346.786 176.101 347.424 175.827 348.017C175.56 348.609 175.147 349.117 174.587 349.54C174.04 349.95 173.396 350.266 172.653 350.487C171.918 350.702 171.022 350.81 169.968 350.81C168.763 350.81 167.728 350.715 166.862 350.526C166.003 350.338 165.303 350.126 164.763 349.892V346.698H165.144C165.703 347.037 166.371 347.33 167.146 347.577C167.927 347.825 168.64 347.948 169.284 347.948C169.662 347.948 170.072 347.919 170.515 347.86C170.957 347.795 171.332 347.659 171.638 347.45C171.879 347.287 172.071 347.092 172.214 346.864C172.357 346.63 172.429 346.295 172.429 345.858C172.429 345.435 172.331 345.11 172.136 344.882C171.94 344.647 171.683 344.481 171.364 344.384C171.045 344.28 170.661 344.224 170.212 344.218C169.763 344.205 169.346 344.198 168.962 344.198H168.161V341.601H168.991C169.499 341.601 169.948 341.584 170.339 341.552C170.729 341.519 171.062 341.444 171.335 341.327C171.621 341.203 171.836 341.041 171.979 340.839C172.123 340.631 172.194 340.328 172.194 339.931C172.194 339.638 172.119 339.403 171.97 339.228C171.82 339.045 171.631 338.902 171.403 338.798C171.149 338.681 170.85 338.603 170.505 338.563C170.16 338.524 169.864 338.505 169.616 338.505C169.004 338.505 168.34 338.612 167.624 338.827C166.908 339.035 166.215 339.338 165.544 339.735H165.183V336.581C165.716 336.366 166.442 336.161 167.36 335.966C168.278 335.764 169.209 335.663 170.153 335.663C171.071 335.663 171.875 335.744 172.565 335.907C173.256 336.063 173.825 336.275 174.274 336.542C174.808 336.861 175.205 337.248 175.466 337.704C175.726 338.16 175.856 338.694 175.856 339.306C175.856 340.113 175.606 340.836 175.104 341.474C174.603 342.105 173.942 342.509 173.122 342.685V342.821C173.454 342.867 173.806 342.958 174.177 343.095C174.548 343.231 174.886 343.43 175.192 343.69Z" fill="black"/>
<path d="M170.599 60.5557C170.599 61.3044 170.462 62.0075 170.188 62.665C169.915 63.3226 169.531 63.876 169.036 64.3252C168.509 64.807 167.897 65.1748 167.2 65.4287C166.51 65.6826 165.7 65.8096 164.769 65.8096C163.896 65.8096 163.099 65.6924 162.376 65.458C161.66 65.2171 161.045 64.8525 160.53 64.3643C159.938 63.8044 159.485 63.0817 159.173 62.1963C158.86 61.3109 158.704 60.2529 158.704 59.0225C158.704 57.7464 158.851 56.6136 159.144 55.624C159.437 54.6344 159.915 53.7588 160.579 52.9971C161.217 52.2679 162.044 51.7015 163.06 51.2979C164.082 50.8942 165.296 50.6924 166.702 50.6924C167.177 50.6924 167.698 50.7249 168.265 50.79C168.831 50.8551 169.199 50.904 169.368 50.9365V53.7979H168.997C168.821 53.7132 168.522 53.6188 168.099 53.5146C167.682 53.404 167.207 53.3486 166.673 53.3486C165.423 53.3486 164.45 53.6546 163.753 54.2666C163.056 54.8786 162.636 55.7314 162.493 56.8252C162.994 56.5257 163.522 56.2848 164.075 56.1025C164.635 55.9137 165.237 55.8193 165.882 55.8193C166.448 55.8193 166.972 55.8844 167.454 56.0146C167.942 56.1449 168.395 56.3532 168.812 56.6396C169.352 57.0173 169.785 57.5251 170.11 58.1631C170.436 58.8011 170.599 59.5986 170.599 60.5557ZM166.155 62.7529C166.357 62.5316 166.517 62.2712 166.634 61.9717C166.757 61.6657 166.819 61.2523 166.819 60.7314C166.819 60.2562 166.751 59.8688 166.614 59.5693C166.478 59.2633 166.289 59.0192 166.048 58.8369C165.813 58.6546 165.537 58.5309 165.218 58.4658C164.899 58.3942 164.57 58.3584 164.231 58.3584C163.945 58.3584 163.646 58.391 163.333 58.4561C163.021 58.5212 162.734 58.6025 162.474 58.7002C162.474 58.7653 162.47 58.8727 162.464 59.0225C162.457 59.1722 162.454 59.361 162.454 59.5889C162.454 60.3896 162.532 61.0505 162.688 61.5713C162.851 62.0856 163.066 62.4795 163.333 62.7529C163.515 62.9548 163.73 63.1045 163.978 63.2021C164.225 63.2933 164.492 63.3389 164.778 63.3389C164.993 63.3389 165.231 63.29 165.491 63.1924C165.752 63.0947 165.973 62.9482 166.155 62.7529Z" fill="black"/>
<path d="M65.7002 133.507H55.9932V130.968H59.0596V123.282H55.9932V120.909C56.4619 120.909 56.9111 120.883 57.3408 120.831C57.7705 120.772 58.1286 120.675 58.415 120.538C58.7536 120.375 59.0075 120.164 59.1768 119.903C59.346 119.643 59.4437 119.317 59.4697 118.927H62.7021V130.968H65.7002V133.507Z" fill="black"/>
<path d="M269.7 135.507H259.993V132.968H263.06V125.282H259.993V122.909C260.462 122.909 260.911 122.883 261.341 122.831C261.771 122.772 262.129 122.675 262.415 122.538C262.754 122.375 263.007 122.164 263.177 121.903C263.346 121.643 263.444 121.317 263.47 120.927H266.702V132.968H269.7V135.507Z" fill="black"/>
<path d="M150.284 231.507H142.293V229.825C142.904 229.383 143.514 228.914 144.125 228.417C144.74 227.92 145.232 227.492 145.602 227.132C146.153 226.599 146.545 226.134 146.777 225.737C147.01 225.341 147.126 224.949 147.126 224.562C147.126 224.097 146.976 223.739 146.675 223.488C146.379 223.233 145.95 223.105 145.39 223.105C144.97 223.105 144.528 223.192 144.063 223.365C143.603 223.538 143.175 223.759 142.778 224.028H142.56V221.766C142.883 221.624 143.359 221.483 143.988 221.342C144.622 221.201 145.255 221.13 145.889 221.13C147.165 221.13 148.138 221.399 148.808 221.937C149.478 222.47 149.812 223.226 149.812 224.206C149.812 224.849 149.651 225.459 149.327 226.038C149.008 226.617 148.518 227.214 147.857 227.829C147.443 228.212 147.026 228.565 146.606 228.889C146.187 229.208 145.889 229.431 145.711 229.559H150.284V231.507Z" fill="black"/>
<path d="M190.284 231.507H182.293V229.825C182.904 229.383 183.514 228.914 184.125 228.417C184.74 227.92 185.232 227.492 185.602 227.132C186.153 226.599 186.545 226.134 186.777 225.737C187.01 225.341 187.126 224.949 187.126 224.562C187.126 224.097 186.976 223.739 186.675 223.488C186.379 223.233 185.95 223.105 185.39 223.105C184.97 223.105 184.528 223.192 184.063 223.365C183.603 223.538 183.175 223.759 182.778 224.028H182.56V221.766C182.883 221.624 183.359 221.483 183.988 221.342C184.622 221.201 185.255 221.13 185.889 221.13C187.165 221.13 188.138 221.399 188.808 221.937C189.478 222.47 189.812 223.226 189.812 224.206C189.812 224.849 189.651 225.459 189.327 226.038C189.008 226.617 188.518 227.214 187.857 227.829C187.443 228.212 187.026 228.565 186.606 228.889C186.187 229.208 185.889 229.431 185.711 229.559H190.284V231.507Z" fill="black"/>
<path d="M208.065 38.0615C208.065 38.5902 207.965 39.0824 207.765 39.5381C207.569 39.9893 207.282 40.3766 206.903 40.7002C206.484 41.0465 206.001 41.304 205.454 41.4727C204.912 41.6367 204.292 41.7188 203.595 41.7188C202.779 41.7142 202.089 41.6481 201.523 41.5205C200.963 41.3975 200.505 41.2585 200.149 41.1035V38.8545H200.437C200.851 39.1006 201.298 39.3057 201.776 39.4697C202.255 39.6338 202.731 39.7158 203.205 39.7158C203.492 39.7158 203.802 39.6839 204.135 39.6201C204.472 39.5518 204.739 39.431 204.935 39.2578C205.09 39.1165 205.206 38.973 205.283 38.8271C205.365 38.6813 205.406 38.4557 205.406 38.1504C205.406 37.9134 205.352 37.7106 205.242 37.542C205.137 37.3688 205.001 37.2298 204.832 37.125C204.586 36.9746 204.29 36.8766 203.943 36.8311C203.597 36.7809 203.283 36.7559 203 36.7559C202.59 36.7559 202.196 36.7923 201.817 36.8652C201.444 36.9336 201.116 37.002 200.833 37.0703H200.532V31.3281H207.771V33.2764H203V34.9375C203.141 34.9284 203.319 34.9215 203.533 34.917C203.752 34.9079 203.943 34.9033 204.107 34.9033C204.668 34.9033 205.167 34.958 205.604 35.0674C206.047 35.1722 206.427 35.3203 206.746 35.5117C207.161 35.7624 207.484 36.0951 207.717 36.5098C207.949 36.9199 208.065 37.4372 208.065 38.0615Z" fill="black"/>
<path d="M126.065 42.0615C126.065 42.5902 125.965 43.0824 125.765 43.5381C125.569 43.9893 125.282 44.3766 124.903 44.7002C124.484 45.0465 124.001 45.304 123.454 45.4727C122.912 45.6367 122.292 45.7188 121.595 45.7188C120.779 45.7142 120.089 45.6481 119.523 45.5205C118.963 45.3975 118.505 45.2585 118.149 45.1035V42.8545H118.437C118.851 43.1006 119.298 43.3057 119.776 43.4697C120.255 43.6338 120.731 43.7158 121.205 43.7158C121.492 43.7158 121.802 43.6839 122.135 43.6201C122.472 43.5518 122.739 43.431 122.935 43.2578C123.09 43.1165 123.206 42.973 123.283 42.8271C123.365 42.6813 123.406 42.4557 123.406 42.1504C123.406 41.9134 123.352 41.7106 123.242 41.542C123.137 41.3688 123.001 41.2298 122.832 41.125C122.586 40.9746 122.29 40.8766 121.943 40.8311C121.597 40.7809 121.283 40.7559 121 40.7559C120.59 40.7559 120.196 40.7923 119.817 40.8652C119.444 40.9336 119.116 41.002 118.833 41.0703H118.532V35.3281H125.771V37.2764H121V38.9375C121.141 38.9284 121.319 38.9215 121.533 38.917C121.752 38.9079 121.943 38.9033 122.107 38.9033C122.668 38.9033 123.167 38.958 123.604 39.0674C124.047 39.1722 124.427 39.3203 124.746 39.5117C125.161 39.7624 125.484 40.0951 125.717 40.5098C125.949 40.9199 126.065 41.4372 126.065 42.0615Z" fill="black"/>
<path d="M20.4277 123.162H19.04V125.534H16.5312V123.162H11.6025V121.234L16.3672 115.328H19.04V121.303H20.4277V123.162ZM16.5312 121.303V117.625L13.5713 121.303H16.5312Z" fill="black"/>
<path d="M86.4277 95.1621H85.04V97.5342H82.5312V95.1621H77.6025V93.2344L82.3672 87.3281H85.04V93.3027H86.4277V95.1621ZM82.5312 93.3027V89.625L79.5713 93.3027H82.5312Z" fill="black"/>
<path d="M252.072 81.3516L247.465 89.5068H244.539L249.324 81.2764H244.095V79.3281H252.072V81.3516Z" fill="black"/>
<path d="M313.072 123.352L308.465 131.507H305.539L310.324 123.276H305.095V121.328H313.072V123.352Z" fill="black"/>
<path d="M245.284 237.507H237.293V235.825C237.904 235.383 238.514 234.914 239.125 234.417C239.74 233.92 240.232 233.492 240.602 233.132C241.153 232.599 241.545 232.134 241.777 231.737C242.01 231.341 242.126 230.949 242.126 230.562C242.126 230.097 241.976 229.739 241.675 229.488C241.379 229.233 240.95 229.105 240.39 229.105C239.97 229.105 239.528 229.192 239.063 229.365C238.603 229.538 238.175 229.759 237.778 230.028H237.56V227.766C237.883 227.624 238.359 227.483 238.988 227.342C239.622 227.201 240.255 227.13 240.889 227.13C242.165 227.13 243.138 227.399 243.808 227.937C244.478 228.47 244.812 229.226 244.812 230.206C244.812 230.849 244.651 231.459 244.327 232.038C244.008 232.617 243.518 233.214 242.857 233.829C242.443 234.212 242.026 234.565 241.606 234.889C241.187 235.208 240.889 235.431 240.711 235.559H245.284V237.507Z" fill="black"/>
<path d="M85.2842 231.507H77.293V229.825C77.9036 229.383 78.5143 228.914 79.125 228.417C79.7402 227.92 80.2324 227.492 80.6016 227.132C81.153 226.599 81.5449 226.134 81.7773 225.737C82.0098 225.341 82.126 224.949 82.126 224.562C82.126 224.097 81.9756 223.739 81.6748 223.488C81.3786 223.233 80.9502 223.105 80.3896 223.105C79.9704 223.105 79.5283 223.192 79.0635 223.365C78.6032 223.538 78.1748 223.759 77.7783 224.028H77.5596V221.766C77.8831 221.624 78.3594 221.483 78.9883 221.342C79.6217 221.201 80.2552 221.13 80.8887 221.13C82.1647 221.13 83.1377 221.399 83.8076 221.937C84.4775 222.47 84.8125 223.226 84.8125 224.206C84.8125 224.849 84.6507 225.459 84.3271 226.038C84.0081 226.617 83.5182 227.214 82.8574 227.829C82.4427 228.212 82.0257 228.565 81.6064 228.889C81.1872 229.208 80.8887 229.431 80.7109 229.559H85.2842V231.507Z" fill="black"/>
</g>
<defs>
<clipPath id="clip0_1651_7404">
<rect width="325.99" height="411.98" fill="white" transform="translate(0.00488281 0.506836)"/>
</clipPath>
</defs>
</svg>
