<svg width="196" height="149" viewBox="0 0 196 149" fill="none" xmlns="http://www.w3.org/2000/svg">
<path d="M186.779 37.292C179.474 40.6695 188.463 47.639 190.974 46.4786C193.484 45.3182 192.027 34.865 186.779 37.292Z" fill="#01A005"/>
<path d="M169.552 78.394L169.499 75.5817C174.81 75.4779 179.17 74.5689 182.827 72.804C187.122 70.7323 190.422 67.3318 191.881 63.4744C194.081 57.6607 192.361 50.0175 187.287 43.0294L189.531 41.3638C192.238 45.0919 198.141 54.8046 194.482 64.478C192.77 69.0021 188.96 72.9609 184.029 75.3418C180.005 77.282 175.272 78.281 169.554 78.394H169.552Z" fill="#01A005"/>
<g opacity="0.4">
<path d="M126.423 148.507C145.478 148.507 160.925 146.079 160.925 143.083C160.925 140.088 145.478 137.659 126.423 137.659C107.368 137.659 91.9214 140.088 91.9214 143.083C91.9214 146.079 107.368 148.507 126.423 148.507Z" fill="#848384"/>
</g>
<path d="M137.457 140.504C136.911 139.164 135.703 138.988 136.417 137.731C137.631 135.593 139.687 132.803 142.457 132.545C146.801 132.141 148.27 136.681 148.27 136.681L138.427 141.96L137.459 140.504H137.457Z" fill="#01A005"/>
<path d="M138.287 140.79C138.536 140.79 138.784 140.705 138.99 140.534C139.454 140.144 139.515 139.45 139.127 138.984C134.521 133.451 131.783 125.603 131.581 118.386C131.565 117.777 131.147 118.133 130.544 118.144C129.941 118.16 129.277 118.043 129.294 118.649C129.509 126.36 132.565 134.635 137.487 140.548C137.703 140.809 137.976 140.792 138.287 140.792V140.79Z" fill="#01A005"/>
<path d="M109.649 139.764C110.174 139.764 110.638 139.383 110.728 138.845C111.865 132.028 112.049 124.666 111.501 117.778C111.452 117.171 111.041 117.132 110.438 117.18C109.835 117.228 109.185 116.693 109.234 117.3C109.765 124.009 109.675 131.844 108.568 138.481C108.468 139.081 108.87 139.648 109.466 139.75C109.526 139.759 109.589 139.766 109.649 139.766V139.764Z" fill="#01A005"/>
<path d="M109.963 135.724C116.126 135.805 115.081 141.904 115.081 141.904L104.844 141.39C104.844 141.39 104.361 135.65 109.963 135.724Z" fill="#01A005"/>
<path d="M80.9507 105.654C88.2668 103.137 80.3567 95.5885 77.8437 96.4537C75.3284 97.3188 75.6927 107.463 80.9507 105.654Z" fill="#01A005"/>
<path d="M76.4354 99.6557C77.1384 99.4827 77.8276 99.2566 78.4912 98.9752C79.1432 98.6983 79.4518 97.9416 79.178 97.2841C78.9042 96.6266 78.1524 96.3198 77.5004 96.5966C73.9618 98.0985 69.5995 97.674 65.8289 95.4615C62.0583 93.2491 59.5454 89.6386 59.1045 85.802C58.6636 81.9654 60.2925 77.8658 63.4598 74.8343C66.6271 71.8029 70.7783 70.3702 74.5605 71.007C75.2589 71.1246 75.9202 70.6494 76.0386 69.9457C76.1569 69.2421 75.6859 68.5777 74.9874 68.46C70.414 67.6918 65.4437 69.3759 61.694 72.9633C57.9466 76.5554 56.0253 81.4671 56.559 86.1065C57.0927 90.746 60.0744 95.0763 64.5365 97.6948C68.3048 99.9049 72.6137 100.59 76.4377 99.658L76.4354 99.6557Z" fill="#01A005"/>
<path d="M121.766 28.5921C109.884 28.5921 95.4185 28.0707 81.4684 43.7309C66.0704 61.0175 71.6532 102.719 98.0011 113.68C124.349 124.643 146.513 116.13 156.256 108.946C169.919 98.8713 181.296 78.1219 166.714 49.9945C155.349 28.0707 131.066 28.5921 121.766 28.5921Z" fill="#B70000"/>
<path d="M169.726 56.8096C168.917 54.5995 167.923 52.3293 166.715 49.9969C155.349 28.0732 131.067 28.5946 121.767 28.5946C109.884 28.5946 95.4187 28.0732 81.4686 43.7333C75.0458 50.9428 72.2776 62.3996 73.1385 74.1008C76.916 85.2554 88.9657 100.802 99.7392 105.64C128.479 118.548 149.757 106.729 158.287 98.1102C169.996 86.2797 170.283 73.7594 169.726 56.8096Z" fill="#DF0F1B"/>
<path d="M87.4364 49.4108C84.2621 51.7571 82.4569 55.6214 81.7515 59.5318C80.2943 67.6064 83.3247 76.3547 89.4435 81.7532C95.5647 87.1493 104.554 88.9972 112.274 86.4457C119.994 83.8941 126.166 77.0353 127.945 69.0275C128.354 67.1888 128.544 65.2579 128.087 63.4307C125.426 52.7491 114.436 58.1014 107.522 56.8833C99.7135 55.5083 97.3746 42.0629 87.4341 49.4108H87.4364Z" fill="#E84A55"/>
<path d="M137.705 57.9814C137.756 59.5387 138.375 61.0244 139.051 62.4432C140.427 65.3409 142.22 68.28 145.162 69.7612C147.996 71.1892 151.541 70.9885 154.421 69.6481C157.3 68.3054 159.556 65.9338 161.145 63.2715C162.923 60.2954 163.944 56.7864 163.322 53.4089C162.7 50.0314 160.212 46.8731 156.767 45.9433C150.973 44.3791 150.859 50.9611 146.815 52.7675C143.285 54.3432 137.514 51.9762 137.709 57.9814H137.705Z" fill="#E84A55"/>
<path d="M121.692 28.9082C125.349 22.3239 127.092 14.6645 131.623 8.65932C134.345 5.05112 138.016 2.18117 142.153 0.420898C138.41 3.82608 137.401 9.85206 135.136 14.3969C131.7 21.2926 128.992 27.5355 124.618 33.8637C124.618 33.8637 134.375 26.382 140.197 23.2352C146.017 20.0884 152.535 20.6721 161.266 22.0909C161.266 22.0909 153.458 23.3228 145.819 26.6542C138.181 29.9856 131.5 35.1833 131.5 35.1833C131.5 35.1833 142.954 33.3238 148.265 36.1638C153.576 39.0038 159.772 37.4004 159.772 37.4004C159.772 37.4004 156.377 44.3099 147.959 41.5969C139.54 38.8838 136.768 41.1931 131.001 43.0342C125.235 44.8775 121.442 40.7617 121.442 40.7617C121.442 40.7617 120.56 47.4775 113.462 50.3059C106.361 53.1367 95.2677 55.2268 95.2677 55.2268C95.2677 55.2268 99.2796 51.3072 105.359 48.1696C111.438 45.0344 115.594 38.4201 115.594 38.4201C115.594 38.4201 104.549 37.8756 98.5162 35.5317C89.8056 32.1473 78.3174 19.0133 78.3174 19.0133C78.3174 19.0133 92.2396 26.142 99.702 26.9841C107.164 27.8262 115.297 33.1808 115.297 33.1808C115.297 33.1808 108.406 24.857 107.334 19.5877C106.262 14.3162 109.659 7.33739 107.705 4.64277C105.749 1.94585 104.245 0.836165 104.245 0.836165C104.245 0.836165 108.308 2.57798 110.478 6.32922C112.647 10.0805 114.46 16.1664 115.564 20.6536C116.669 25.1431 121.694 28.9059 121.694 28.9059L121.692 28.9082Z" fill="#7DA602"/>
<path d="M118.527 23.918C118.527 23.918 119.061 29.6879 118.692 32.2856C118.325 34.8833 117.968 37.2181 117.968 37.2181C117.968 37.2181 120.149 40.7086 124.386 38.277C124.386 38.277 124.37 32.5278 123.523 28.0522L122.676 23.5742C122.676 23.5742 124.549 22.0862 123.56 20.9996C122.572 19.913 116.592 20.6997 116.773 22.5384C116.954 24.3748 118.525 23.9203 118.525 23.9203L118.527 23.918Z" fill="#448300"/>
<path d="M154.613 66.3724C151.882 60.3326 144.87 57.6541 138.951 60.3856C133.032 63.1195 130.444 70.2297 133.176 76.2696C135.907 82.3094 142.919 84.9879 148.838 82.2563C154.757 79.5225 157.345 72.4122 154.613 66.3724Z" fill="#B70000"/>
<path d="M155.741 64.8843C153.101 59.0452 146.321 56.4544 140.596 59.0959C134.872 61.7375 132.373 68.6147 135.011 74.4539C137.652 80.293 144.432 82.8838 150.156 80.2422C155.881 77.6007 158.38 70.7234 155.741 64.8843Z" fill="white"/>
<path d="M153.774 67.8995C151.94 63.846 147.232 62.0465 143.26 63.8806C139.285 65.7147 137.55 70.488 139.383 74.5414C141.216 78.5949 145.924 80.3944 149.896 78.5603C153.869 76.7262 155.607 71.9529 153.774 67.8995Z" fill="#649F05"/>
<path d="M151.279 69.0485C150.082 66.4 147.005 65.2234 144.406 66.4231C141.81 67.6227 140.675 70.7418 141.872 73.3903C143.07 76.0388 146.147 77.2154 148.745 76.0157C151.342 74.8161 152.477 71.697 151.279 69.0485Z" fill="#342530"/>
<g opacity="0.44">
<path d="M152.602 64.7089C151.878 63.1078 150.019 62.3972 148.448 63.1216C146.877 63.846 146.193 65.7309 146.917 67.3343C147.641 68.9353 149.499 69.6459 151.07 68.9215C152.641 68.1971 153.326 66.3122 152.602 64.7089Z" fill="white"/>
</g>
<path d="M115.754 68.0792C113.023 62.0393 106.011 59.3609 100.092 62.0924C94.1723 64.8262 91.5851 71.9365 94.3162 77.9764C97.0473 84.0162 104.059 86.6946 109.979 83.9631C115.898 81.2293 118.485 74.119 115.754 68.0792Z" fill="#B70000"/>
<path d="M116.882 66.5911C114.241 60.752 107.461 58.1612 101.737 60.8027C96.0125 63.4443 93.5134 70.3215 96.1517 76.1606C98.7923 81.9997 105.572 84.5906 111.297 81.949C117.021 79.3074 119.52 72.4302 116.882 66.5911Z" fill="white"/>
<path d="M114.914 69.6041C113.081 65.5506 108.373 63.7511 104.401 65.5852C100.426 67.4193 98.6901 72.1926 100.523 76.246C102.356 80.2995 107.064 82.099 111.037 80.2649C115.012 78.4308 116.747 73.6575 114.914 69.6041Z" fill="#649F05"/>
<path d="M112.42 70.7553C111.223 68.1068 108.146 66.9302 105.547 68.1299C102.95 69.3295 101.816 72.4486 103.013 75.0971C104.21 77.7456 107.287 78.9222 109.886 77.7225C112.483 76.5229 113.617 73.4037 112.42 70.7553Z" fill="#342530"/>
<g opacity="0.44">
<path d="M113.742 66.4156C113.018 64.8146 111.16 64.104 109.589 64.8284C108.018 65.5528 107.333 67.4377 108.057 69.0411C108.781 70.6421 110.64 71.3527 112.211 70.6283C113.782 69.9039 114.466 68.019 113.742 66.4156Z" fill="white"/>
</g>
<path d="M125.333 90.7528C117.859 91.1588 117.218 86.3371 112.357 88.9325C107.498 91.5256 114.035 102.436 126.11 101.78C138.185 101.125 140.942 89.8 138.645 88.0882C135.243 85.5527 130.697 90.4621 125.333 90.7528Z" fill="#8B0712"/>
<path d="M126.112 101.78C129.841 101.577 132.681 100.357 134.758 98.7166C133.015 96.2066 130.298 94.3794 127.312 93.8026C123.618 93.0898 119.613 94.3033 116.919 96.954C116.344 97.5193 115.824 98.1583 115.404 98.8504C118.049 100.721 121.713 102.018 126.115 101.78H126.112Z" fill="#FF0D36"/>
<path d="M83.0229 113.351L84.1944 112.691L84.3909 112.58L84.6071 112.516C85.5686 112.23 86.6066 111.968 87.5796 111.722C88.1922 111.567 88.7791 111.419 89.3049 111.276L89.3182 111.272C89.8135 111.141 90.2827 111.015 90.7415 110.88C91.6657 110.609 92.5059 110.322 93.2816 109.957L93.2824 109.957C95.1029 109.102 96.2664 106.735 96.5853 104.124C96.9312 101.27 95.9297 99.0346 93.7459 96.7092L93.7458 96.709C91.7745 94.6096 89.7999 92.5057 87.8652 90.3401C87.3817 89.7992 86.8567 89.2023 86.3734 88.5803L86.3716 88.578C85.4652 87.4079 84.4284 85.814 84.3521 84.0016C84.2649 81.9308 85.416 80.2215 87.4506 78.9293C88.5721 78.1767 89.8099 77.5655 90.9328 77.023C91.0478 76.9674 91.1615 76.9126 91.274 76.8584C92.3117 76.3581 93.2431 75.9092 94.085 75.4C95.8631 74.3246 96.8353 73.2314 96.9754 71.4845C96.9605 71.0567 96.8775 70.6447 96.7281 70.2524C96.4261 69.4595 95.8199 68.7067 94.7684 68.1606C92.473 67.038 89.9791 66.9478 87.8031 67.7867C87.3782 67.9516 86.965 68.1577 86.562 68.4107L86.458 68.476L86.3467 68.5281C86.2383 68.5788 86.1121 68.659 85.8793 68.8315C85.8479 68.8547 85.8122 68.8815 85.7728 68.9112C85.5962 69.0439 85.3445 69.233 85.0734 69.407C84.4884 69.8861 83.9321 70.4877 83.3373 71.1977C83.1268 71.4489 82.8892 71.7422 82.6401 72.0497C82.2316 72.5538 81.7922 73.0962 81.3905 73.5542C80.0135 75.1242 78.142 76.8563 75.3104 77.0318L75.296 77.0327L75.2815 77.0334C73.4559 77.1201 71.9502 76.571 70.7376 75.5998C69.586 74.6775 68.7842 73.4432 68.1669 72.2836C67.7375 71.477 67.3323 70.572 66.9635 69.7484C66.8148 69.4163 66.672 69.0974 66.536 68.8036C66.0227 67.695 65.5554 66.8203 65.0288 66.1796L65.0095 66.1561L64.9909 66.132C64.7549 65.8263 64.4852 65.59 64.174 65.3929C63.8466 65.1856 63.4563 65.0036 62.9845 64.8325C62.4959 64.6675 62.0066 64.5295 61.5059 64.4138C60.9945 64.2957 60.4991 64.206 60.014 64.1531L60.0063 64.1523C59.0609 64.0456 58.3824 64.2442 57.8128 64.5978C57.1956 64.9808 56.6056 65.6107 55.9967 66.5128C55.4077 67.3852 54.8844 68.3814 54.3071 69.4802L54.2375 69.6127C53.67 70.6926 53.0343 71.8941 52.2895 72.9227C52.1058 73.2117 51.9343 73.4957 51.7492 73.8021C51.6401 73.9827 51.5263 74.1711 51.4025 74.373C51.4023 74.3734 51.402 74.3738 51.4018 74.3742L49.6969 73.3286C48.4356 75.3886 47.0424 77.3168 44.4512 76.8901L83.0229 113.351ZM83.0229 113.351C81.7191 113.971 80.5013 114.973 79.6985 116.249C78.872 117.564 78.4511 119.246 78.9958 121.016L79.0129 121.072L79.0333 121.127C79.3118 121.874 79.6374 122.602 80.021 123.32C80.8306 124.996 81.9884 126.405 83.2988 127.57L83.2992 127.571C83.733 127.956 84.1919 128.325 84.6653 128.667C88.2054 131.232 90.9877 135.01 91.0137 138.98C91.0254 140.864 90.1065 142.74 88.5623 144.149C87.018 145.559 84.9883 146.37 82.9984 146.269L82.9726 146.268L82.9468 146.267C82.4465 146.255 81.9335 146.192 81.4166 146.08C80.9482 145.978 80.4811 145.845 80.0144 145.676C77.906 144.9 76.9664 143.217 76.3452 140.542C76.1115 139.536 75.9477 138.504 75.7719 137.397C75.7086 136.998 75.6438 136.59 75.5736 136.169C75.3198 134.649 74.9995 133.007 74.4106 131.501L74.3922 131.454L74.3715 131.408C74.3435 131.346 74.3107 131.27 74.2734 131.184C74.0944 130.771 73.8108 130.116 73.4527 129.565C72.9782 128.834 72.1989 127.984 70.929 127.65L70.8777 127.637L70.8257 127.626C69.9339 127.442 69.1033 127.462 68.3257 127.63L68.314 127.632L68.3022 127.635C67.526 127.813 66.8393 128.137 66.2344 128.532L66.1362 128.596L66.0462 128.672C65.1619 129.411 64.4299 130.279 63.8026 131.076C63.5627 131.381 63.346 131.664 63.1395 131.934C62.7645 132.424 62.4232 132.87 62.0381 133.322C60.9158 134.636 59.9441 135.339 58.5911 135.417L58.5705 135.418L58.5499 135.42C57.4973 135.502 56.5347 135.205 55.2749 134.671C55.0803 134.589 54.8732 134.498 54.655 134.402C53.5751 133.927 52.221 133.331 50.7433 133.063C47.3288 132.378 45.1084 134.966 44.0675 136.546C43.5668 137.248 43.1061 137.961 42.6784 138.65L42.6747 138.656C42.2481 139.348 41.8555 140.025 41.4886 140.664C41.3735 140.832 41.2295 140.999 41.0238 141.214C40.9749 141.265 40.913 141.327 40.8432 141.398C40.6681 141.576 40.443 141.805 40.2456 142.025C39.7651 142.498 39.2619 142.961 38.7503 143.401C36.8531 145.021 34.9848 146.138 33.2839 146.431C31.77 146.692 30.1837 146.343 28.5032 144.47L28.4961 144.463C27.5833 143.456 27.3329 142.642 27.3176 141.99C27.3012 141.29 27.5494 140.493 28.1235 139.546C28.7 138.594 29.5211 137.627 30.4717 136.606C30.7886 136.265 31.1358 135.903 31.4898 135.534C32.1227 134.874 32.7772 134.192 33.3191 133.57L33.3558 133.528L33.3901 133.484C34.1883 132.459 34.7997 131.146 34.9509 129.735C35.0278 129.019 34.9871 128.244 34.745 127.467L34.6998 127.322L34.6331 127.185C33.8752 125.632 32.5025 124.593 30.9439 124.233C29.2238 123.737 27.2981 123.621 25.6488 123.521C25.3329 123.502 25.0272 123.483 24.7349 123.463C22.7237 123.323 21.215 123.095 20.0909 122.441C19.7342 122.233 19.4181 121.981 19.138 121.671L19.1284 121.66L19.1185 121.649C18.6858 121.183 18.5538 120.479 18.8153 119.829C18.9834 119.443 19.1974 119.046 19.4509 118.616C20.9183 116.168 22.5636 114.067 24.4853 111.615C24.631 111.428 24.7784 111.24 24.9273 111.05L24.9467 111.025L24.9653 111C27.5255 107.506 28.2545 101.884 24.238 98.5357C23.4747 97.8986 22.6635 97.4121 21.8264 97.0571C20.9965 96.6998 20.1618 96.4776 19.3463 96.3358L19.3463 96.3357L19.3332 96.3335C17.7176 96.0636 16.0412 96.0351 14.5506 96.0098C14.16 96.0032 13.7821 95.9968 13.4215 95.9863C11.5861 95.9329 10.0205 95.7823 8.58123 95.2098L8.56398 95.2029L8.5466 95.1963C6.6793 94.4933 4.59644 93.0609 3.35044 91.3568C2.15247 89.7184 1.87557 88.1074 2.82713 86.4996C3.04053 86.1422 3.2634 85.8465 3.49219 85.6C4.17303 84.8664 4.99324 84.4438 5.96121 84.2531C6.35896 84.176 6.78362 84.1379 7.23843 84.1437C9.33433 84.5508 11.1677 85.6067 13.1957 86.972C13.5591 87.2167 13.9329 87.4747 14.3171 87.7398C16.0305 88.9225 17.9514 90.2483 20.0866 91.1742L20.0975 91.179L20.1085 91.1835C22.0536 91.9998 24.7193 92.2864 26.9413 90.3951C28.6297 88.9889 29.5959 86.7845 29.2797 84.5109C29.1101 82.9073 28.6808 81.358 28.3058 80.0051C28.2343 79.7472 28.1648 79.4965 28.0995 79.2538C27.6701 77.6594 27.3791 76.2981 27.4525 74.9234C27.5086 74.3531 27.6204 73.8802 27.7735 73.4983L27.7742 73.4964C28.0081 72.911 28.327 72.5217 28.7532 72.2593C29.1962 71.9866 29.9266 71.7464 31.1503 71.772C31.7302 71.7854 32.2951 71.843 32.873 71.9531L32.9467 71.9672L33.0213 71.9757C33.521 72.0325 34.1527 72.2498 34.7655 72.5912C35.7944 73.1876 36.6096 73.9677 37.591 74.9069C37.9009 75.2034 38.2273 75.5157 38.5822 75.8431C39.9486 77.1036 41.6903 78.5078 44.1467 78.8669L83.0229 113.351Z" fill="white" stroke="#D9D9D9" stroke-width="4"/>
</svg>
