<svg width="140" height="149" viewBox="0 0 140 149" fill="none" xmlns="http://www.w3.org/2000/svg">
<path d="M130.779 37.292C123.474 40.6695 132.463 47.639 134.974 46.4786C137.484 45.3182 136.027 34.865 130.779 37.292Z" fill="#01A005"/>
<path d="M113.552 78.394L113.499 75.5817C118.81 75.4779 123.17 74.5689 126.827 72.804C131.122 70.7323 134.422 67.3318 135.881 63.4744C138.081 57.6607 136.361 50.0175 131.287 43.0294L133.531 41.3638C136.238 45.0919 142.141 54.8046 138.482 64.478C136.77 69.0021 132.96 72.9609 128.029 75.3418C124.005 77.282 119.272 78.281 113.554 78.394H113.552Z" fill="#01A005"/>
<g opacity="0.4">
<path d="M70.423 148.507C89.4778 148.507 104.925 146.079 104.925 143.083C104.925 140.088 89.4778 137.659 70.423 137.659C51.3683 137.659 35.9214 140.088 35.9214 143.083C35.9214 146.079 51.3683 148.507 70.423 148.507Z" fill="#848384"/>
</g>
<path d="M81.4567 140.504C80.9115 139.164 79.7025 138.988 80.4172 137.731C81.6308 135.593 83.6866 132.803 86.4572 132.545C90.8009 132.141 92.2697 136.681 92.2697 136.681L82.4267 141.96L81.4591 140.504H81.4567Z" fill="#01A005"/>
<path d="M82.2873 140.79C82.5356 140.79 82.7838 140.705 82.9904 140.534C83.4544 140.144 83.5148 139.45 83.1273 138.984C78.5213 133.451 75.7833 125.603 75.5814 118.386C75.5652 117.777 75.1475 118.133 74.5442 118.144C73.9409 118.16 73.2773 118.043 73.2935 118.649C73.5093 126.36 76.5652 134.635 81.4867 140.548C81.7025 140.809 81.9763 140.792 82.2873 140.792V140.79Z" fill="#01A005"/>
<path d="M53.6492 139.764C54.1736 139.764 54.6377 139.383 54.7282 138.845C55.8652 132.028 56.0485 124.666 55.5009 117.778C55.4522 117.171 55.0415 117.132 54.4382 117.18C53.8349 117.228 53.1852 116.693 53.2339 117.3C53.7653 124.009 53.6748 131.844 52.5679 138.481C52.4682 139.081 52.8696 139.648 53.4659 139.75C53.5263 139.759 53.5889 139.766 53.6492 139.766V139.764Z" fill="#01A005"/>
<path d="M53.9627 135.724C60.1256 135.805 59.0814 141.904 59.0814 141.904L48.8439 141.39C48.8439 141.39 48.3613 135.65 53.9627 135.724Z" fill="#01A005"/>
<path d="M24.9507 105.654C32.2668 103.137 24.3567 95.5885 21.8437 96.4537C19.3284 97.3188 19.6927 107.463 24.9507 105.654Z" fill="#01A005"/>
<path d="M20.4354 99.6557C21.1384 99.4827 21.8276 99.2566 22.4912 98.9752C23.1432 98.6983 23.4518 97.9416 23.178 97.2841C22.9042 96.6266 22.1524 96.3198 21.5004 96.5966C17.9618 98.0985 13.5995 97.674 9.82893 95.4615C6.05832 93.2491 3.54535 89.6386 3.10448 85.802C2.66361 81.9654 4.29251 77.8658 7.45982 74.8343C10.6271 71.8029 14.7783 70.3702 18.5605 71.007C19.2589 71.1246 19.9202 70.6494 20.0386 69.9457C20.1569 69.2421 19.6859 68.5777 18.9874 68.46C14.414 67.6918 9.44374 69.3759 5.69402 72.9633C1.94661 76.5554 0.0253443 81.4671 0.55903 86.1065C1.09272 90.746 4.0744 95.0763 8.53648 97.6948C12.3048 99.9049 16.6137 100.59 20.4377 99.658L20.4354 99.6557Z" fill="#01A005"/>
<path d="M65.7664 28.5921C53.8837 28.5921 39.4185 28.0707 25.4684 43.7309C10.0704 61.0175 15.6532 102.719 42.0011 113.68C68.3489 124.643 90.5131 116.13 100.256 108.946C113.919 98.8713 125.296 78.1219 110.714 49.9945C99.3491 28.0707 75.0664 28.5921 65.7664 28.5921Z" fill="#B70000"/>
<path d="M113.726 56.8096C112.917 54.5995 111.923 52.3293 110.715 49.9969C99.3493 28.0732 75.0666 28.5946 65.7665 28.5946C53.8839 28.5946 39.4187 28.0732 25.4686 43.7333C19.0458 50.9428 16.2776 62.3996 17.1385 74.1008C20.916 85.2554 32.9657 100.802 43.7392 105.64C72.4794 118.548 93.7572 106.729 102.287 98.1102C113.996 86.2797 114.283 73.7594 113.726 56.8096Z" fill="#DF0F1B"/>
<path d="M31.4364 49.4108C28.2621 51.7571 26.4569 55.6214 25.7515 59.5318C24.2943 67.6064 27.3247 76.3547 33.4435 81.7532C39.5647 87.1493 48.5538 88.9972 56.2737 86.4457C63.9936 83.8941 70.1658 77.0353 71.9455 69.0275C72.3539 67.1888 72.5441 65.2579 72.087 63.4307C69.4256 52.7491 58.4363 58.1014 51.5216 56.8833C43.7135 55.5083 41.3746 42.0629 31.4341 49.4108H31.4364Z" fill="#E84A55"/>
<path d="M81.7048 57.9814C81.7558 59.5387 82.3754 61.0244 83.0506 62.4432C84.4266 65.3409 86.2202 68.28 89.1624 69.7612C91.9956 71.1892 95.5412 70.9885 98.4207 69.6481C101.3 68.3054 103.556 65.9338 105.145 63.2715C106.923 60.2954 107.944 56.7864 107.322 53.4089C106.7 50.0314 104.212 46.8731 100.767 45.9433C94.9727 44.3791 94.859 50.9611 90.8146 52.7675C87.2853 54.3432 81.5145 51.9762 81.7094 57.9814H81.7048Z" fill="#E84A55"/>
<path d="M65.6921 28.9082C69.349 22.3239 71.0916 14.6645 75.6233 8.65932C78.3451 5.05112 82.016 2.18117 86.1532 0.420898C82.4104 3.82608 81.4011 9.85206 79.1364 14.3969C75.6999 21.2926 72.992 27.5355 68.6181 33.8637C68.6181 33.8637 78.3753 26.382 84.1971 23.2352C90.0166 20.0884 96.5346 20.6721 105.266 22.0909C105.266 22.0909 97.4581 23.3228 89.8194 26.6542C82.1807 29.9856 75.5004 35.1833 75.5004 35.1833C75.5004 35.1833 86.9537 33.3238 92.2651 36.1638C97.5764 39.0038 103.772 37.4004 103.772 37.4004C103.772 37.4004 100.377 44.3099 91.9588 41.5969C83.5405 38.8838 80.7676 41.1931 75.0015 43.0342C69.2354 44.8775 65.4415 40.7617 65.4415 40.7617C65.4415 40.7617 64.5598 47.4775 57.4618 50.3059C50.3614 53.1367 39.2677 55.2268 39.2677 55.2268C39.2677 55.2268 43.2796 51.3072 49.359 48.1696C55.4384 45.0344 59.5942 38.4201 59.5942 38.4201C59.5942 38.4201 48.5492 37.8756 42.5162 35.5317C33.8056 32.1473 22.3174 19.0133 22.3174 19.0133C22.3174 19.0133 36.2396 26.142 43.7019 26.9841C51.1643 27.8262 59.2972 33.1808 59.2972 33.1808C59.2972 33.1808 52.4057 24.857 51.3337 19.5877C50.2616 14.3162 53.6587 7.33739 51.7049 4.64277C49.7488 1.94585 48.2452 0.836165 48.2452 0.836165C48.2452 0.836165 52.3082 2.57798 54.4778 6.32922C56.6473 10.0805 58.4595 16.1664 59.564 20.6536C60.6685 25.1431 65.6945 28.9059 65.6945 28.9059L65.6921 28.9082Z" fill="#7DA602"/>
<path d="M62.5273 23.918C62.5273 23.918 63.061 29.6879 62.692 32.2856C62.3254 34.8833 61.9681 37.2181 61.9681 37.2181C61.9681 37.2181 64.1492 40.7086 68.3862 38.277C68.3862 38.277 68.37 32.5278 67.523 28.0522L66.6761 23.5742C66.6761 23.5742 68.5486 22.0862 67.5602 20.9996C66.5717 19.913 60.5921 20.6997 60.7731 22.5384C60.9541 24.3748 62.5249 23.9203 62.5249 23.9203L62.5273 23.918Z" fill="#448300"/>
<path d="M98.6135 66.3724C95.8824 60.3326 88.8702 57.6541 82.951 60.3856C77.0317 63.1195 74.4445 70.2297 77.1756 76.2696C79.9066 82.3094 86.9188 84.9878 92.8381 82.2563C98.7574 79.5225 101.345 72.4122 98.6135 66.3724Z" fill="#B70000"/>
<path d="M99.7413 64.8843C97.1007 59.0452 90.3206 56.4544 84.5962 59.0959C78.8718 61.7375 76.3728 68.6147 79.0111 74.4539C81.6516 80.293 88.4318 82.8838 94.1561 80.2422C99.8805 77.6007 102.38 70.7234 99.7413 64.8843Z" fill="white"/>
<path d="M97.7736 67.8995C95.9405 63.846 91.2324 62.0465 87.2599 63.8806C83.2851 65.7147 81.5495 70.488 83.3826 74.5414C85.2157 78.5949 89.9237 80.3944 93.8962 78.5603C97.8687 76.7262 99.6066 71.9529 97.7736 67.8995Z" fill="#649F05"/>
<path d="M95.2793 69.0485C94.0819 66.4 91.0051 65.2234 88.4063 66.4231C85.8098 67.6227 84.6751 70.7418 85.8725 73.3903C87.0698 76.0388 90.1466 77.2154 92.7454 76.0157C95.3419 74.8161 96.4766 71.697 95.2793 69.0485Z" fill="#342530"/>
<g opacity="0.44">
<path d="M96.6017 64.7089C95.8778 63.1078 94.0192 62.3972 92.4483 63.1216C90.8774 63.846 90.1929 65.7309 90.9168 67.3343C91.6408 68.9353 93.4994 69.6459 95.0703 68.9215C96.6412 68.1971 97.3257 66.3122 96.6017 64.7089Z" fill="white"/>
</g>
<path d="M59.7541 68.0792C57.023 62.0393 50.0109 59.3609 44.0916 62.0924C38.1723 64.8262 35.5851 71.9365 38.3162 77.9764C41.0473 84.0162 48.0594 86.6946 53.9787 83.9631C59.898 81.2293 62.4852 74.119 59.7541 68.0792Z" fill="#B70000"/>
<path d="M60.8819 66.5911C58.2413 60.752 51.4612 58.1612 45.7368 60.8027C40.0125 63.4443 37.5134 70.3215 40.1517 76.1606C42.7923 81.9997 49.5724 84.5906 55.2968 81.949C61.0211 79.3074 63.5202 72.4302 60.8819 66.5911Z" fill="white"/>
<path d="M58.9142 69.6041C57.0811 65.5506 52.373 63.7511 48.4006 65.5852C44.4258 67.4193 42.6901 72.1926 44.5232 76.246C46.3563 80.2995 51.0644 82.099 55.0368 80.2649C59.0116 78.4308 60.7473 73.6575 58.9142 69.6041Z" fill="#649F05"/>
<path d="M56.4199 70.7553C55.2226 68.1068 52.1457 66.9302 49.5469 68.1299C46.9504 69.3295 45.8158 72.4486 47.0131 75.0971C48.2104 77.7456 51.2872 78.9222 53.886 77.7225C56.4825 76.5229 57.6172 73.4037 56.4199 70.7553Z" fill="#342530"/>
<g opacity="0.44">
<path d="M57.7424 66.4156C57.0184 64.8146 55.1598 64.104 53.5889 64.8284C52.018 65.5528 51.3335 67.4377 52.0574 69.0411C52.7814 70.6421 54.64 71.3527 56.2109 70.6283C57.7818 69.9039 58.4663 68.019 57.7424 66.4156Z" fill="white"/>
</g>
<path d="M69.3326 90.7528C61.8586 91.1588 61.2182 86.3371 56.357 88.9325C51.4982 91.5256 58.0347 102.436 70.1099 101.78C82.1851 101.125 84.9417 89.8 82.6446 88.0882C79.2429 85.5527 74.6973 90.4621 69.3326 90.7528Z" fill="#8B0712"/>
<path d="M70.1123 101.78C73.8412 101.577 76.6813 100.357 78.7581 98.7166C77.0155 96.2066 74.2983 94.3794 71.312 93.8026C67.6179 93.0898 63.613 94.3033 60.919 96.954C60.3436 97.5193 59.8238 98.1583 59.4038 98.8504C62.049 100.721 65.7129 102.018 70.1147 101.78H70.1123Z" fill="#FF0D36"/>
</svg>
