<svg width="100" height="88" viewBox="0 0 100 88" fill="none" xmlns="http://www.w3.org/2000/svg">
<path d="M83.521 51.9799L84.6924 51.3193L84.8889 51.2085L85.1051 51.1443C86.0667 50.8585 87.1047 50.5965 88.0776 50.3508C88.6903 50.1961 89.2772 50.0479 89.8029 49.9044L89.8162 49.9008C90.3116 49.7693 90.7807 49.6433 91.2395 49.5089C92.1638 49.2381 93.004 48.9503 93.7796 48.5856L93.7805 48.5853C95.601 47.7304 96.7645 45.3639 97.0833 42.7529C97.4293 39.8986 96.4277 37.6633 94.2439 35.3378L94.2438 35.3377C92.2726 33.2383 90.298 31.1344 88.3632 28.9688C87.8798 28.4279 87.3548 27.831 86.8714 27.2089L86.8696 27.2066C85.9632 26.0366 84.9264 24.4426 84.8501 22.6303C84.7629 20.5594 85.9141 18.8501 87.9486 17.5579C89.0701 16.8053 90.3079 16.1942 91.4308 15.6516C91.5458 15.5961 91.6595 15.5412 91.772 15.487C92.8098 14.9868 93.7411 14.5378 94.5831 14.0287C96.3612 12.9533 97.3333 11.86 97.4734 10.1132C97.4585 9.68532 97.3755 9.27336 97.2261 8.88108C96.9242 8.08821 96.318 7.33541 95.2664 6.78929C92.971 5.66664 90.4772 5.57642 88.3012 6.41535C87.8762 6.58023 87.4631 6.78633 87.0601 7.03932L86.9561 7.10464L86.8448 7.15673C86.7364 7.2075 86.6101 7.28767 86.3773 7.46015C86.346 7.48337 86.3103 7.5102 86.2708 7.53984C86.0942 7.67257 85.8426 7.86169 85.5715 8.03564C84.9865 8.51474 84.4302 9.1164 83.8353 9.82636C83.6248 10.0776 83.3872 10.3708 83.1381 10.6783C82.7296 11.1825 82.2902 11.7249 81.8885 12.1829C80.5116 13.7528 78.6401 15.4849 75.8084 15.6604L75.794 15.6613L75.7796 15.662C73.954 15.7487 72.4482 15.1996 71.2356 14.2285C70.084 13.3062 69.2823 12.0719 68.665 10.9122C68.2356 10.1056 67.8303 9.20063 67.4616 8.37704C67.3128 8.04494 67.1701 7.72607 67.034 7.43224C66.5207 6.32369 66.0534 5.44897 65.5269 4.80824L65.5076 4.78476L65.489 4.76071C65.2529 4.455 64.9833 4.2187 64.672 4.02157C64.3446 3.81422 63.9544 3.63227 63.4825 3.46117C62.994 3.2962 62.5047 3.1582 62.004 3.0425C61.4926 2.92432 60.9971 2.83462 60.5121 2.78179L60.5044 2.78096C59.5589 2.67428 58.8805 2.87288 58.3108 3.22642C57.6937 3.60942 57.1036 4.23941 56.4947 5.14142C55.9058 6.01386 55.3824 7.01009 54.8052 8.10885L54.7355 8.2414C54.168 9.32129 53.5323 10.5227 52.7875 11.5514C52.6038 11.8404 52.4323 12.1243 52.2473 12.4307C52.1382 12.6114 52.0244 12.7998 51.9006 13.0017C51.9003 13.0021 51.9001 13.0025 51.8998 13.0029L50.1949 11.9573C48.9336 14.0173 47.5404 15.9455 44.9492 15.5187L83.521 51.9799ZM83.521 51.9799C82.2171 52.5999 80.9993 53.6013 80.1965 54.8779C79.3701 56.1922 78.9492 57.8747 79.4938 59.645L79.511 59.7007L79.5313 59.7554C79.8099 60.5027 80.1355 61.231 80.519 61.9491C81.3286 63.6243 82.4865 65.0336 83.7968 66.199L83.7972 66.1994C84.2311 66.5851 84.6899 66.9541 85.1634 67.2952C88.7034 69.8604 91.4857 73.6386 91.5118 77.6088C91.5235 79.4929 90.6046 81.3683 89.0603 82.7778C87.5161 84.1873 85.4863 84.9988 83.4965 84.8977L83.4707 84.8964L83.4448 84.8958C82.9445 84.8833 82.4315 84.8206 81.9146 84.709C81.4462 84.6064 80.9791 84.4732 80.5124 84.3048C78.404 83.5291 77.4644 81.8458 76.8432 79.171C76.6095 78.1646 76.4458 77.1331 76.27 76.0255C76.2067 75.6269 76.1419 75.2185 76.0716 74.7979C75.8179 73.2777 75.4976 71.6354 74.9086 70.1296L74.8902 70.0826L74.8695 70.0366C74.8415 69.9745 74.8088 69.8988 74.7714 69.8127C74.5924 69.3993 74.3089 68.7446 73.9507 68.1933C73.4762 67.463 72.6969 66.6122 71.427 66.2789L71.3757 66.2654L71.3238 66.2547C70.432 66.0705 69.6013 66.0904 68.8238 66.2585L68.812 66.261L68.8003 66.2637C68.024 66.4413 67.3373 66.7655 66.7324 67.1609L66.6342 67.2251L66.5443 67.3003C65.66 68.0392 64.928 68.908 64.3006 69.7051C64.0608 70.0099 63.844 70.2931 63.6375 70.563C63.2626 71.0529 62.9213 71.499 62.5361 71.9502C61.4139 73.2649 60.4422 73.9681 59.0892 74.0455L59.0686 74.0467L59.048 74.0483C57.9954 74.1303 57.0327 73.8335 55.7729 73.2998C55.5783 73.2173 55.3713 73.1263 55.1531 73.0303C54.0731 72.5553 52.719 71.9598 51.2413 71.6912C47.8269 71.0071 45.6065 73.5951 44.5655 75.1751C44.0649 75.8769 43.6041 76.5901 43.1764 77.2786L43.1728 77.2845C42.7462 77.9765 42.3536 78.6535 41.9867 79.2927C41.8715 79.4611 41.7276 79.6278 41.5219 79.8422C41.4729 79.8932 41.4111 79.9561 41.3412 80.0271C41.1662 80.2051 40.9411 80.4341 40.7436 80.6541C40.2632 81.127 39.76 81.5901 39.2484 82.0294C37.3511 83.6495 35.4829 84.7669 33.7819 85.0598C32.2681 85.3205 30.6817 84.9717 29.0012 83.099L28.9942 83.0912C28.0813 82.0847 27.8309 81.2711 27.8156 80.6185C27.7992 79.9189 28.0474 79.122 28.6216 78.1745C29.198 77.2231 30.0192 76.2552 30.9697 75.2344C31.2866 74.8941 31.6338 74.532 31.9878 74.1629C32.6207 73.5029 33.2753 72.8203 33.8171 72.199L33.8538 72.1569L33.8881 72.1129C34.6863 71.0873 35.2977 69.7745 35.4489 68.3632C35.5258 67.6479 35.4851 66.8724 35.2431 66.0957L35.1978 65.9505L35.1311 65.8138C34.3733 64.2604 33.0006 63.2213 31.4419 62.8616C29.7218 62.3656 27.7961 62.2493 26.1468 62.1497C25.831 62.1306 25.5252 62.1121 25.233 62.0917C23.2217 61.9513 21.7131 61.7239 20.589 61.0701C20.2323 60.8613 19.9161 60.6098 19.6361 60.2992L19.6264 60.2885L19.6166 60.2779C19.1838 59.8116 19.0518 59.1076 19.3134 58.4576C19.4814 58.0718 19.6955 57.6745 19.9489 57.2445C21.4164 54.7962 23.0617 52.696 24.9833 50.2432C25.1291 50.0571 25.2764 49.8691 25.4254 49.6787L25.4448 49.6539L25.4634 49.6285C28.0235 46.135 28.7526 40.5122 24.7361 37.1644C23.9728 36.5272 23.1615 36.0407 22.3245 35.6857C21.4946 35.3285 20.6598 35.1063 19.8444 34.9644L19.8444 34.9644L19.8312 34.9622C18.2157 34.6922 16.5392 34.6638 15.0487 34.6385C14.6581 34.6319 14.2802 34.6254 13.9195 34.615C12.0842 34.5616 10.5185 34.411 9.07928 33.8384L9.06202 33.8316L9.04465 33.825C7.17734 33.122 5.09449 31.6896 3.84848 29.9855C2.65052 28.3471 2.37362 26.7361 3.32517 25.1283C3.53858 24.7709 3.76145 24.4752 3.99023 24.2287C4.67108 23.495 5.49128 23.0724 6.45926 22.8818C6.85701 22.8046 7.28167 22.7665 7.73648 22.7723C9.83237 23.1795 11.6657 24.2354 13.6938 25.6007C14.0572 25.8453 14.431 26.1033 14.8152 26.3685C16.5286 27.5511 18.4494 28.8769 20.5847 29.8029L20.5956 29.8076L20.6065 29.8122C22.5517 30.6285 25.2173 30.915 27.4394 29.0237C29.1278 27.6175 30.094 25.4131 29.7777 23.1396C29.6082 21.5359 29.1788 19.9867 28.8039 18.6338C28.7324 18.3759 28.6629 18.1251 28.5975 17.8825C28.1682 16.2881 27.8772 14.9268 27.9506 13.552C28.0067 12.9817 28.1185 12.5089 28.2715 12.1269L28.2723 12.1251C28.5061 11.5397 28.825 11.1503 29.2512 10.8879C29.6942 10.6152 30.4246 10.3751 31.6483 10.4006C32.2282 10.4141 32.7931 10.4717 33.371 10.5818L33.4447 10.5958L33.5193 10.6043C34.0191 10.6612 34.6507 10.8784 35.2636 11.2199C36.2925 11.8163 37.1077 12.5964 38.0891 13.5355C38.3989 13.832 38.7253 14.1444 39.0803 14.4718C40.4467 15.7323 42.1883 17.1364 44.6448 17.4955L83.521 51.9799Z" fill="white" stroke="#D9D9D9" stroke-width="4"/>
</svg>
