<svg width="95" height="97" viewBox="0 0 95 97" fill="none" xmlns="http://www.w3.org/2000/svg">
<g filter="url(#filter0_d_718_976)">
<path d="M56.9489 24.0451C65.9158 24.8385 73.4313 15.5251 76.0369 11.8886C90.8458 -5.46283 85.3315 43.5062 67.3495 72.4015C49.3675 101.297 34.5402 73.5199 16.6739 51.1017C-1.1923 28.6836 25.3332 21.2477 56.9489 24.0451Z" fill="url(#paint0_linear_718_976)"/>
<path d="M56.9489 24.0451C65.9158 24.8385 73.4313 15.5251 76.0369 11.8886C90.8458 -5.46283 85.3315 43.5062 67.3495 72.4015C49.3675 101.297 34.5402 73.5199 16.6739 51.1017C-1.1923 28.6836 25.3332 21.2477 56.9489 24.0451Z" fill="url(#paint1_radial_718_976)"/>
<path d="M73.0702 9.35279L72.9518 9.49142L72.8457 9.63952C71.6416 11.3201 69.3731 14.2044 66.4803 16.539C63.5486 18.905 60.4809 20.3092 57.4828 20.0439C49.3957 19.3283 41.5582 19.2593 34.6059 19.9426C27.7148 20.62 21.413 22.0623 16.5752 24.5603C11.6911 27.0822 7.7308 31.0261 7.03072 36.7155C6.36771 42.1037 8.82402 47.8105 13.5226 53.7062C15.7215 56.4653 17.88 59.3149 20.0319 62.1655C20.1819 62.3641 20.3318 62.5628 20.4818 62.7615C22.4736 65.4006 24.4642 68.0382 26.4373 70.5403C30.6408 75.8708 34.9845 80.8778 39.4964 84.2582C44.0126 87.6418 49.3203 89.8505 55.1948 88.2985C60.929 86.7836 65.9848 81.9885 70.6956 74.4186C80.0664 59.3606 86.1028 39.2943 87.9393 25.1369C88.402 21.5702 88.6118 18.2795 88.5186 15.4675C88.4288 12.7608 88.0498 10.0843 87.0389 8.03634C86.5158 6.97668 85.704 5.84142 84.431 5.07705C83.0701 4.25995 81.515 4.06906 79.999 4.39551C77.3391 4.96827 75.0198 7.06849 73.0702 9.35279Z" stroke="url(#paint2_linear_718_976)" stroke-width="8"/>
<path d="M73.0702 9.35279L72.9518 9.49142L72.8457 9.63952C71.6416 11.3201 69.3731 14.2044 66.4803 16.539C63.5486 18.905 60.4809 20.3092 57.4828 20.0439C49.3957 19.3283 41.5582 19.2593 34.6059 19.9426C27.7148 20.62 21.413 22.0623 16.5752 24.5603C11.6911 27.0822 7.7308 31.0261 7.03072 36.7155C6.36771 42.1037 8.82402 47.8105 13.5226 53.7062C15.7215 56.4653 17.88 59.3149 20.0319 62.1655C20.1819 62.3641 20.3318 62.5628 20.4818 62.7615C22.4736 65.4006 24.4642 68.0382 26.4373 70.5403C30.6408 75.8708 34.9845 80.8778 39.4964 84.2582C44.0126 87.6418 49.3203 89.8505 55.1948 88.2985C60.929 86.7836 65.9848 81.9885 70.6956 74.4186C80.0664 59.3606 86.1028 39.2943 87.9393 25.1369C88.402 21.5702 88.6118 18.2795 88.5186 15.4675C88.4288 12.7608 88.0498 10.0843 87.0389 8.03634C86.5158 6.97668 85.704 5.84142 84.431 5.07705C83.0701 4.25995 81.515 4.06906 79.999 4.39551C77.3391 4.96827 75.0198 7.06849 73.0702 9.35279Z" stroke="url(#paint3_radial_718_976)" stroke-width="8"/>
<path d="M73.0702 9.35279L72.9518 9.49142L72.8457 9.63952C71.6416 11.3201 69.3731 14.2044 66.4803 16.539C63.5486 18.905 60.4809 20.3092 57.4828 20.0439C49.3957 19.3283 41.5582 19.2593 34.6059 19.9426C27.7148 20.62 21.413 22.0623 16.5752 24.5603C11.6911 27.0822 7.7308 31.0261 7.03072 36.7155C6.36771 42.1037 8.82402 47.8105 13.5226 53.7062C15.7215 56.4653 17.88 59.3149 20.0319 62.1655C20.1819 62.3641 20.3318 62.5628 20.4818 62.7615C22.4736 65.4006 24.4642 68.0382 26.4373 70.5403C30.6408 75.8708 34.9845 80.8778 39.4964 84.2582C44.0126 87.6418 49.3203 89.8505 55.1948 88.2985C60.929 86.7836 65.9848 81.9885 70.6956 74.4186C80.0664 59.3606 86.1028 39.2943 87.9393 25.1369C88.402 21.5702 88.6118 18.2795 88.5186 15.4675C88.4288 12.7608 88.0498 10.0843 87.0389 8.03634C86.5158 6.97668 85.704 5.84142 84.431 5.07705C83.0701 4.25995 81.515 4.06906 79.999 4.39551C77.3391 4.96827 75.0198 7.06849 73.0702 9.35279Z" stroke="black" stroke-opacity="0.2" stroke-width="8"/>
</g>
<path fill-rule="evenodd" clip-rule="evenodd" d="M52.4018 53.2307L52.4669 59.7818C52.51 64.1501 50.2614 67.1744 48.2055 65.5105L35.4249 55.1734C32.9846 53.1988 32.8481 46.5075 35.1998 44.1539L47.7529 31.5974C49.7836 29.5663 52.1951 32.4094 52.2394 36.886L52.294 42.3722L60.7869 42.3722C63.7854 42.3722 66.2162 44.803 66.2162 47.8015C66.2162 50.8 63.7854 53.2307 60.7869 53.2307L52.4018 53.2307Z" fill="#D9D9D9"/>
<defs>
<filter id="filter0_d_718_976" x="0.939651" y="0.228027" width="93.5841" height="96.5959" filterUnits="userSpaceOnUse" color-interpolation-filters="sRGB">
<feFlood flood-opacity="0" result="BackgroundImageFix"/>
<feColorMatrix in="SourceAlpha" type="matrix" values="0 0 0 0 0 0 0 0 0 0 0 0 0 0 0 0 0 0 127 0" result="hardAlpha"/>
<feOffset dy="2"/>
<feGaussianBlur stdDeviation="1"/>
<feComposite in2="hardAlpha" operator="out"/>
<feColorMatrix type="matrix" values="0 0 0 0 0 0 0 0 0 0 0 0 0 0 0 0 0 0 1 0"/>
<feBlend mode="normal" in2="BackgroundImageFix" result="effect1_dropShadow_718_976"/>
<feBlend mode="normal" in="SourceGraphic" in2="effect1_dropShadow_718_976" result="shape"/>
</filter>
<linearGradient id="paint0_linear_718_976" x1="88.1588" y1="6.45677" x2="17.7426" y2="63.7798" gradientUnits="userSpaceOnUse">
<stop stop-color="#575EFF"/>
<stop offset="1" stop-color="#E478FF"/>
</linearGradient>
<radialGradient id="paint1_radial_718_976" cx="0" cy="0" r="1" gradientUnits="userSpaceOnUse" gradientTransform="translate(49.8113 48.3808) rotate(86.4409) scale(36.4818 36.6953)">
<stop stop-color="#50249E"/>
<stop offset="1" stop-color="#27005F" stop-opacity="0"/>
</radialGradient>
<linearGradient id="paint2_linear_718_976" x1="88.1588" y1="6.45677" x2="17.7426" y2="63.7798" gradientUnits="userSpaceOnUse">
<stop stop-color="#575EFF"/>
<stop offset="1" stop-color="#E478FF"/>
</linearGradient>
<radialGradient id="paint3_radial_718_976" cx="0" cy="0" r="1" gradientUnits="userSpaceOnUse" gradientTransform="translate(49.8113 48.3808) rotate(86.4409) scale(36.4818 36.6953)">
<stop stop-color="#50249E"/>
<stop offset="1" stop-color="#27005F" stop-opacity="0"/>
</radialGradient>
</defs>
</svg>
