<svg width="33" height="33" viewBox="0 0 33 33" fill="none" xmlns="http://www.w3.org/2000/svg">
<path fill-rule="evenodd" clip-rule="evenodd" d="M10.6142 4.97123C11.1143 4.47114 11.7926 4.19019 12.4998 4.19019H20.4998C21.2071 4.19019 21.8854 4.47114 22.3855 4.97123C22.8856 5.47133 23.1665 6.14961 23.1665 6.85685C23.1665 7.21047 23.307 7.54961 23.557 7.79966C23.8071 8.04971 24.1462 8.19019 24.4998 8.19019H25.8332C26.894 8.19019 27.9115 8.61161 28.6616 9.36176C29.4117 10.1119 29.8332 11.1293 29.8332 12.1902V24.1902C29.8332 25.2511 29.4117 26.2685 28.6616 27.0186C27.9115 27.7688 26.894 28.1902 25.8332 28.1902H7.1665C6.10564 28.1902 5.08822 27.7688 4.33808 27.0186C3.58793 26.2685 3.1665 25.2511 3.1665 24.1902V12.1902C3.1665 11.1293 3.58793 10.1119 4.33808 9.36176C5.08822 8.61161 6.10564 8.19019 7.1665 8.19019H8.49984C8.85346 8.19019 9.1926 8.04971 9.44265 7.79966C9.69269 7.54961 9.83317 7.21047 9.83317 6.85685C9.83317 6.14961 10.1141 5.47133 10.6142 4.97123ZM20.4998 6.85685L12.4998 6.85685C12.4998 7.91772 12.0784 8.93513 11.3283 9.68528C10.5781 10.4354 9.5607 10.8569 8.49984 10.8569H7.1665C6.81288 10.8569 6.47374 10.9973 6.22369 11.2474C5.97365 11.4974 5.83317 11.8366 5.83317 12.1902V24.1902C5.83317 24.5438 5.97365 24.8829 6.22369 25.133C6.47374 25.383 6.81288 25.5235 7.1665 25.5235H25.8332C26.1868 25.5235 26.5259 25.383 26.776 25.133C27.026 24.8829 27.1665 24.5438 27.1665 24.1902V12.1902C27.1665 11.8366 27.026 11.4974 26.776 11.2474C26.5259 10.9973 26.1868 10.8569 25.8332 10.8569H24.4998C23.439 10.8569 22.4216 10.4354 21.6714 9.68528C20.9213 8.93513 20.4998 7.91772 20.4998 6.85685ZM12.7286 13.7523C13.7288 12.7521 15.0854 12.1902 16.4998 12.1902C17.9143 12.1902 19.2709 12.7521 20.2711 13.7523C21.2713 14.7525 21.8332 16.109 21.8332 17.5235C21.8332 18.938 21.2713 20.2946 20.2711 21.2948C19.2709 22.295 17.9143 22.8569 16.4998 22.8569C15.0854 22.8569 13.7288 22.295 12.7286 21.2948C11.7284 20.2946 11.1665 18.938 11.1665 17.5235C11.1665 16.109 11.7284 14.7525 12.7286 13.7523ZM16.4998 14.8569C15.7926 14.8569 15.1143 15.1378 14.6142 15.6379C14.1141 16.138 13.8332 16.8163 13.8332 17.5235C13.8332 18.2308 14.1141 18.909 14.6142 19.4091C15.1143 19.9092 15.7926 20.1902 16.4998 20.1902C17.2071 20.1902 17.8854 19.9092 18.3855 19.4091C18.8856 18.909 19.1665 18.2308 19.1665 17.5235C19.1665 16.8163 18.8856 16.138 18.3855 15.6379C17.8854 15.1378 17.2071 14.8569 16.4998 14.8569Z" fill="#9B83B7"/>
</svg>
