<svg width="63" height="64" viewBox="0 0 63 64" fill="none" xmlns="http://www.w3.org/2000/svg">
<g clip-path="url(#clip0_884_1114)">
<path d="M27.1862 24.5961C27.0416 23.6891 26.9656 22.7591 26.9656 21.8112C26.9656 17.2806 28.682 13.1513 31.5001 10.0372C28.2884 6.48804 23.6453 4.25781 18.4816 4.25781C8.78736 4.25781 0.928223 12.117 0.928223 21.8112C0.928223 30.0169 6.55954 36.9071 14.1678 38.8297C15.2752 31.8838 20.4571 26.2967 27.1862 24.5961Z" fill="#F9CD45"/>
<path d="M62.0719 21.8112C62.0719 12.117 54.2127 4.25781 44.5185 4.25781C39.3548 4.25781 34.7117 6.48804 31.5 10.0372C34.3181 13.1513 36.0345 17.2806 36.0345 21.8112C36.0345 22.7591 35.9585 23.6891 35.8139 24.5961C42.543 26.2967 47.7249 31.8838 48.8323 38.8297C56.4405 36.9071 62.0719 30.0169 62.0719 21.8112Z" fill="#F195D6"/>
<path d="M44.5184 4.25781C44.017 4.25781 43.5205 4.27944 43.0298 4.32078C52.0305 5.07348 59.1009 12.6159 59.1009 21.8112C59.1009 28.9782 54.8053 35.1411 48.6481 37.8679C48.7173 38.1856 48.7808 38.5052 48.8322 38.8297C56.4405 36.9071 62.0718 30.0169 62.0718 21.8112C62.0718 12.117 54.2126 4.25781 44.5184 4.25781Z" fill="#E480BE"/>
<path d="M27.1862 24.5962C28.5666 24.2477 30.0115 24.0617 31.5 24.0617C32.9886 24.0617 34.4335 24.2477 35.8139 24.5962C35.9586 23.6892 36.0345 22.7591 36.0345 21.8113C36.0345 17.2807 34.3181 13.1514 31.5 10.0372C28.682 13.1514 26.9656 17.2807 26.9656 21.8113C26.9656 22.7591 27.0415 23.6892 27.1862 24.5962Z" fill="#F85E49"/>
<path d="M31.4999 33.5848C28.2882 37.134 23.6451 39.3642 18.4815 39.3642C16.9929 39.3642 15.5476 39.1782 14.1676 38.8292C14.023 39.7367 13.947 40.6668 13.947 41.6146C13.947 51.3089 21.8057 59.1675 31.4999 59.1675C41.1942 59.1675 49.0529 51.3089 49.0529 41.6146C49.0529 40.6668 48.9769 39.7367 48.8323 38.8297C47.4523 39.1782 46.007 39.3642 44.5184 39.3642C39.3548 39.3642 34.7117 37.134 31.4999 33.5848Z" fill="#65CEE3"/>
<path d="M48.8324 38.8297C47.8932 39.0672 46.9233 39.2267 45.9302 39.306C46.0297 40.0616 46.0826 40.8321 46.0826 41.6146C46.0826 50.8085 39.0137 58.3504 30.0149 59.1046C30.5047 59.1459 30.9997 59.168 31.5001 59.168C41.1944 59.168 49.053 51.3089 49.053 41.6146C49.053 40.6668 48.9771 39.7367 48.8324 38.8297Z" fill="#1BACD6"/>
<path d="M31.5 33.5849C29.2717 31.1225 27.7327 28.0247 27.1862 24.5962C20.4571 26.2967 15.2751 31.8838 14.1677 38.8297C15.5477 39.1782 16.993 39.3642 18.4816 39.3642C23.6452 39.3642 28.2883 37.134 31.5 33.5849Z" fill="#009C56"/>
<path d="M35.8139 24.5962C35.2669 28.0252 33.7283 31.1225 31.5 33.5849C34.7117 37.134 39.3548 39.3642 44.5185 39.3642C46.007 39.3642 47.4524 39.1782 48.8323 38.8293C47.7249 31.8838 42.543 26.2967 35.8139 24.5962Z" fill="#9B43A9"/>
<path d="M27.186 24.5961C27.733 28.0251 29.2716 31.1224 31.4999 33.5848C33.7282 31.1224 35.2672 28.0246 35.8137 24.5961C34.4333 24.2477 32.9885 24.0616 31.4999 24.0616C30.0113 24.0616 28.5665 24.2477 27.186 24.5961Z" fill="#D47A3D"/>
<path d="M44.5185 3.32971C39.4452 3.32971 34.8429 5.38498 31.5 8.70628C28.1571 5.38498 23.5548 3.32971 18.4815 3.32971C8.29076 3.32971 0 11.6205 0 21.8113C0 30.1453 5.54528 37.207 13.1396 39.5045C13.0608 40.1972 13.0185 40.9008 13.0185 41.6146C13.0185 43.6732 13.3549 45.6958 14.0182 47.6256C14.185 48.1101 14.7123 48.3682 15.1982 48.2014C15.6827 48.0347 15.9408 47.5069 15.774 47.0219C15.1775 45.2868 14.8752 43.4675 14.8752 41.6146C14.8752 41.0542 14.9036 40.5004 14.9579 39.9539C16.099 40.175 17.2766 40.2923 18.4815 40.2923C23.5548 40.2923 28.1571 38.2371 31.5 34.9157C34.8429 38.2371 39.4452 40.2923 44.5185 40.2923C45.7234 40.2923 46.901 40.175 48.0421 39.9539C48.0969 40.5004 48.1248 41.0542 48.1248 41.6146C48.1248 50.7816 40.667 58.2394 31.5 58.2394C25.723 58.2394 20.446 55.3093 17.3842 50.4009C17.1126 49.9659 16.5402 49.8337 16.1052 50.1048C15.6702 50.3759 15.5376 50.9489 15.8091 51.3838C19.2121 56.8388 25.078 60.0961 31.5 60.0961C41.6908 60.0961 49.9815 51.8054 49.9815 41.6146C49.9815 40.9008 49.9392 40.1972 49.8604 39.5041C57.4547 37.207 63 30.1453 63 21.8113C63 11.6205 54.7092 3.32971 44.5185 3.32971ZM35.1063 21.8113C35.1063 22.3712 35.078 22.9254 35.0237 23.4714C33.8826 23.2503 32.705 23.133 31.5 23.133C30.295 23.133 29.1174 23.2503 27.9763 23.4714C27.922 22.9254 27.8937 22.3712 27.8937 21.8113C27.8937 17.9117 29.2438 14.3222 31.5 11.484C33.7562 14.3222 35.1063 17.9117 35.1063 21.8113ZM13.4467 37.6559C6.73345 35.518 1.85676 29.2239 1.85676 21.8113C1.85676 12.6443 9.31455 5.18647 18.4815 5.18647C23.0737 5.18647 27.2371 7.05813 30.2489 10.079C27.6187 13.2725 26.0369 17.3604 26.0369 21.8113C26.0369 22.525 26.0792 23.2287 26.158 23.9213C19.8019 25.8439 14.8824 31.1051 13.4467 37.6559ZM18.4815 38.436C17.3746 38.436 16.2931 38.3265 15.2463 38.1188C16.5017 32.275 20.8377 27.5618 26.4652 25.7699C27.1016 28.6735 28.4214 31.3243 30.2489 33.543C27.2371 36.5639 23.0742 38.436 18.4815 38.436ZM28.2647 25.307C29.3116 25.0994 30.3931 24.9898 31.5 24.9898C32.6069 24.9898 33.6884 25.0994 34.7353 25.307C34.1897 27.8463 33.0626 30.1727 31.5 32.1381C29.9374 30.1727 28.8103 27.8468 28.2647 25.307ZM44.5185 38.436C39.9263 38.436 35.7629 36.5639 32.7511 33.543C34.5786 31.3248 35.8984 28.6735 36.5348 25.7699C42.1623 27.5623 46.4983 32.275 47.7537 38.1188C46.7069 38.3265 45.6254 38.436 44.5185 38.436ZM49.5533 37.6559C48.1176 31.1051 43.1981 25.8439 36.8415 23.9213C36.9208 23.2287 36.9626 22.5245 36.9626 21.8113C36.9626 17.3604 35.3813 13.2725 32.7511 10.079C35.7629 7.05813 39.9258 5.18647 44.5185 5.18647C53.6854 5.18647 61.1432 12.6443 61.1432 21.8113C61.1432 29.2239 56.2665 35.518 49.5533 37.6559Z" fill="#18191B"/>
</g>
<defs>
<clipPath id="clip0_884_1114">
<rect width="63" height="63" fill="white" transform="translate(0 0.25354)"/>
</clipPath>
</defs>
</svg>
