<svg width="63" height="64" viewBox="0 0 63 64" fill="none" xmlns="http://www.w3.org/2000/svg">
<mask id="mask0_933_2384" style="mask-type:luminance" maskUnits="userSpaceOnUse" x="0" y="0" width="63" height="64">
<path d="M0 63.2535H63V0.25354H0V63.2535Z" fill="white"/>
</mask>
<g mask="url(#mask0_933_2384)">
<path d="M41.4102 50.837L39.1313 48.5582C38.6281 48.0537 37.8111 48.0537 37.3079 48.5582L34.4015 51.4645V2.76011C34.4015 2.04767 33.8244 1.4707 33.112 1.4707H29.8881C29.1757 1.4707 28.5986 2.04767 28.5986 2.76011V51.4645L25.6922 48.5582C25.189 48.0537 24.3732 48.0537 23.8687 48.5582L21.5898 50.837C21.0866 51.3402 21.0866 52.1573 21.5898 52.6605L30.5883 61.659C31.0915 62.1622 31.9086 62.1622 32.4118 61.659L41.4102 52.6605C41.9135 52.1573 41.9135 51.3402 41.4102 50.837Z" fill="#FCDD45"/>
<path d="M34.4014 13.528V51.4644H32.1151C31.7754 51.4644 31.4999 51.1892 31.4999 50.8496C31.499 46.4691 31.4936 19.9856 31.4964 13.528H34.4014Z" fill="#F8C52D"/>
<path d="M41.4102 50.8369L39.1312 48.5581C38.9923 48.419 38.8287 48.3181 38.6552 48.2566C39.1498 48.7611 39.1461 49.5707 38.6466 50.0704L29.6469 59.07C29.2827 59.4342 28.756 59.5351 28.302 59.3726L30.5882 61.6589C31.0915 62.1621 31.9085 62.1621 32.4118 61.6589L41.4102 52.6604C41.9134 52.1572 41.9134 51.3401 41.4102 50.8369Z" fill="#F8C52D"/>
<path d="M34.4013 45.1735V51.4642L37.3077 48.5578C37.8113 48.0542 38.6277 48.0542 39.1311 48.5578L41.4105 50.837C41.9142 51.3406 41.9142 52.157 41.4105 52.6605L32.4119 61.6592C31.9084 62.1627 31.092 62.1627 30.5885 61.6592L21.5898 52.6605C21.0863 52.157 21.0863 51.3406 21.5898 50.837L23.8692 48.5578C24.3727 48.0542 25.189 48.0542 25.6927 48.5578L28.599 51.4642V2.75974C28.599 2.04767 29.1764 1.47034 29.8884 1.47034H33.1119C33.8241 1.47034 34.4013 2.04767 34.4013 2.75974V41.0731" stroke="black" stroke-width="2" stroke-miterlimit="10" stroke-linecap="round" stroke-linejoin="round"/>
<path d="M11.3458 42.1131L14.4019 45.1693C14.9055 45.6729 14.9055 46.4891 14.4019 46.9928L12.1226 49.2722C11.6191 49.7756 10.8027 49.7756 10.2991 49.2722L1.30048 40.2734C0.796975 39.7699 0.796975 38.9535 1.30048 38.45L10.2991 29.4513C10.8027 28.9478 11.6191 28.9478 12.1226 29.4513L14.4019 31.7307C14.9055 32.2343 14.9055 33.0507 14.4019 33.5541L11.7493 36.207C21.2877 34.678 28.5989 26.3919 28.5989 16.4292V13.528H34.4012V16.4292C34.4012 29.7352 24.2887 40.7227 11.3458 42.1131Z" fill="#FB4A59"/>
<path d="M11.3463 42.1129C24.2884 40.7224 34.4016 29.7356 34.4016 16.4294V13.5278H31.5001V15.5015C31.5001 27.747 23.1072 37.7777 10.4947 39.8954C10.0009 39.9782 9.80784 40.5846 10.1631 40.9374L11.3463 42.1129Z" fill="#F82F41"/>
<path d="M7.74789 32.0025L10.2991 29.4513C10.8027 28.9478 11.6191 28.9478 12.1226 29.4513L14.4019 31.7307C14.9054 32.2343 14.9054 33.0507 14.4019 33.5541L11.7493 36.2069C21.2877 34.678 28.5989 26.3919 28.5989 16.4292V13.528H34.4012V16.4292C34.4012 29.7352 24.2887 40.7227 11.3458 42.1131L14.4019 45.1693C14.9054 45.6728 14.9054 46.4891 14.4019 46.9928L12.1226 49.2722C11.6191 49.7756 10.8027 49.7756 10.2991 49.2722L1.30048 40.2734C0.796975 39.7699 0.796975 38.9535 1.30048 38.45L4.84854 34.9018" stroke="black" stroke-width="2" stroke-miterlimit="10" stroke-linecap="round" stroke-linejoin="round"/>
<path d="M61.6996 33.3731L52.7011 42.3717C52.1975 42.8752 51.3813 42.8754 50.8777 42.3717L48.5983 40.0924C48.0948 39.5889 48.0948 38.7725 48.5982 38.269L51.6544 35.2127C38.7116 33.8223 28.5991 22.835 28.5991 9.52892V2.75962C28.5991 2.04755 29.1763 1.47034 29.8884 1.47034H33.1119C33.8241 1.47034 34.4013 2.04755 34.4013 2.75962V9.52892C34.4013 19.4915 41.7123 27.7775 51.2509 29.3065L48.5983 26.654C48.0948 26.1505 48.0948 25.334 48.5983 24.8304L50.8777 22.5511C51.3813 22.0476 52.1975 22.0476 52.7012 22.5511L61.6996 31.5496C62.2032 32.0531 62.2032 32.8696 61.6996 33.3731Z" fill="#31A7FB"/>
<path d="M61.6994 31.5491L52.701 22.5507C52.1977 22.0474 51.3808 22.0474 50.8775 22.5507L49.5891 23.839L57.2992 31.5491C57.8025 32.0536 57.8025 32.8694 57.2992 33.3726L49.5891 41.0828L50.8775 42.3711C51.3808 42.8755 52.1977 42.8755 52.701 42.3711L61.6994 33.3726C62.2026 32.8694 62.2026 32.0536 61.6994 31.5491Z" fill="#1C96F9"/>
<path d="M37.471 20.1742C40.4816 24.9533 45.4548 28.3775 51.2508 29.3066L48.5983 26.654C48.0947 26.1505 48.0947 25.3342 48.5983 24.8305L50.8775 22.5511C51.3811 22.0477 52.1975 22.0477 52.7011 22.5511L61.6995 31.5498C62.2031 32.0533 62.2031 32.8697 61.6995 33.3732L52.7011 42.3717C52.1975 42.8754 51.3811 42.8754 50.8776 42.3717L48.5983 40.0925C48.0947 39.5889 48.0947 38.7725 48.5983 38.2691L51.6544 35.2129C38.7115 33.8224 28.5989 22.8351 28.5989 9.52892V2.75975C28.5989 2.04767 29.1762 1.47034 29.8883 1.47034H33.1117C33.8239 1.47034 34.4013 2.04767 34.4013 2.75975V9.52892C34.4013 11.9789 34.8441 14.3271 35.6529 16.4988" stroke="black" stroke-width="2" stroke-miterlimit="10" stroke-linecap="round" stroke-linejoin="round"/>
</g>
</svg>
