<svg width="67" height="68" viewBox="0 0 67 68" fill="none" xmlns="http://www.w3.org/2000/svg">
<circle cx="33.5" cy="34.0071" r="29.5" fill="url(#paint0_linear_144_3617)" stroke="url(#paint1_radial_144_3617)" stroke-width="8"/>
<path d="M45.7269 30.222C45.7101 34.8625 43.0616 38.8833 39.1993 40.8728C37.991 41.4951 37.1933 42.6981 37.1933 44.0573V46.1311H30.2135V44.0542C30.2135 42.7053 29.432 41.5001 28.2314 40.8851C24.3436 38.8936 21.6797 34.8461 21.6797 30.1773C21.6797 23.3501 27.3736 17.8496 34.2706 18.1669C40.6236 18.4591 45.7501 23.8625 45.7269 30.222Z" fill="url(#paint2_linear_144_3617)"/>
<path d="M32.7799 43.5434C32.6036 41.4433 31.3466 39.5731 29.411 38.5817C26.2387 36.9566 24.2676 33.7362 24.2676 30.1775C24.2676 24.9749 28.5006 20.7419 33.7032 20.7419C33.8524 20.7419 34.0014 20.745 34.1518 20.7521C39.1255 20.9812 43.1572 25.225 43.1388 30.2126C43.1261 33.7474 41.1624 36.9506 38.0142 38.5723C36.0691 39.5743 34.8058 41.4477 34.627 43.5434H32.7799Z" fill="#FDC140"/>
<path d="M37.1933 47.2798V46.1313H30.2135V47.2798C30.2135 49.2072 31.776 50.7697 33.7034 50.7697C35.631 50.7697 37.1933 49.2072 37.1933 47.2798Z" fill="url(#paint3_linear_144_3617)"/>
<path d="M27.9365 41.4611C28.9419 41.9761 29.5665 42.9697 29.5665 44.054C29.5665 44.1527 29.5665 47.3759 29.5665 47.2798C29.5665 49.5609 31.4223 51.4167 33.7034 51.4167C35.9845 51.4167 37.8403 49.5609 37.8403 47.2798C37.8403 47.1829 37.8403 43.992 37.8403 44.0571C37.8403 42.9738 38.4746 41.974 39.4956 41.4481C43.7211 39.2715 46.3568 34.9706 46.3738 30.2245C46.3984 23.5268 40.9823 17.8278 34.3005 17.5205C27.0408 17.1883 21.0329 22.9578 21.0329 30.1774C21.0329 34.956 23.6783 39.2795 27.9365 41.4611ZM36.5462 47.28C36.5462 48.8475 35.2709 50.1228 33.7034 50.1228C32.1359 50.1228 30.8606 48.8475 30.8606 47.28V46.7783H36.5464V47.28H36.5462ZM34.241 18.8133C40.2398 19.0892 45.102 24.2063 45.0798 30.2195V30.2198C45.0643 34.4815 42.6976 38.3432 38.9028 40.2977C37.4492 41.0467 36.546 42.4872 36.546 44.0573V45.4842H34.3502V32.674C34.3502 32.3167 34.0606 32.0271 33.7032 32.0271C33.3459 32.0271 33.0563 32.3167 33.0563 32.674V45.4842H30.8606V44.054C30.8606 42.4814 29.9663 41.0466 28.5267 40.3092C24.7026 38.3502 22.327 34.4677 22.327 30.1774C22.3268 23.7145 27.7172 18.5022 34.241 18.8133Z" fill="black"/>
<path d="M17.7529 34.5519L16.6472 35.8989C16.4203 36.1749 16.4605 36.5828 16.7366 36.8097C17.0136 37.0374 17.4217 36.995 17.6473 36.7203L18.753 35.3733C18.9799 35.0973 18.9397 34.6894 18.6636 34.4626C18.3878 34.236 17.9796 34.2759 17.7529 34.5519Z" fill="black"/>
<path d="M15.3942 29.6044H15.3972C15.7531 29.6044 16.0425 29.3167 16.0441 28.9603C16.0456 28.6029 15.7572 28.3119 15.3999 28.3104L13.6497 28.3025C13.6487 28.3025 13.6478 28.3025 13.6468 28.3025C13.2908 28.3025 13.0014 28.5902 12.9998 28.9467C12.9983 29.304 13.2867 29.595 13.644 29.5965L15.3942 29.6044Z" fill="black"/>
<path d="M17.3371 21.4455C17.1001 21.1776 16.691 21.1533 16.4238 21.3897C16.1562 21.6267 16.1312 22.0354 16.3679 22.303L17.5279 23.6137C17.7646 23.8813 18.1743 23.9063 18.4412 23.6696C18.7088 23.4326 18.7338 23.0238 18.4971 22.7562L17.3371 21.4455Z" fill="black"/>
<path d="M48.6537 35.3733L49.7598 36.7203C49.9858 36.9955 50.3938 37.0369 50.6705 36.8097C50.9466 36.5828 50.9868 36.1749 50.7599 35.8989L49.6539 34.5519C49.4267 34.2759 49.0192 34.236 48.7431 34.4626C48.4671 34.6894 48.427 35.0971 48.6537 35.3733Z" fill="black"/>
<path d="M53.7598 28.3025C53.7588 28.3025 53.7579 28.3025 53.7569 28.3025L52.0067 28.3104C51.6494 28.3119 51.361 28.6029 51.3625 28.9603C51.3641 29.3166 51.6535 29.6044 52.0094 29.6044H52.0124L53.7626 29.5965C54.1199 29.595 54.4083 29.304 54.4068 28.9467C54.4052 28.5904 54.1159 28.3025 53.7598 28.3025Z" fill="black"/>
<path d="M49.8789 23.6137L51.0389 22.3029C51.2755 22.0353 51.2505 21.6266 50.983 21.3896C50.7161 21.1533 50.307 21.1777 50.0697 21.4455L48.9097 22.7562C48.673 23.0238 48.6981 23.4325 48.9655 23.6695C49.2328 23.9065 49.6426 23.8809 49.8789 23.6137Z" fill="black"/>
<defs>
<linearGradient id="paint0_linear_144_3617" x1="7.29079" y1="5.66105" x2="41.3413" y2="56.1979" gradientUnits="userSpaceOnUse">
<stop stop-color="#E1C600"/>
<stop offset="0.588466" stop-color="#FCC89F"/>
<stop offset="1" stop-color="#E478FF"/>
</linearGradient>
<radialGradient id="paint1_radial_144_3617" cx="0" cy="0" r="1" gradientUnits="userSpaceOnUse" gradientTransform="translate(33.5 34.0071) scale(25.5 44.5297)">
<stop offset="1" stop-color="#E0CCFF"/>
</radialGradient>
<linearGradient id="paint2_linear_144_3617" x1="21.6797" y1="32.1425" x2="45.727" y2="32.1425" gradientUnits="userSpaceOnUse">
<stop stop-color="#F054B9"/>
<stop offset="1" stop-color="#4C239D"/>
</linearGradient>
<linearGradient id="paint3_linear_144_3617" x1="30.2135" y1="48.4505" x2="37.1933" y2="48.4505" gradientUnits="userSpaceOnUse">
<stop stop-color="#F054B9"/>
<stop offset="1" stop-color="#4C239D"/>
</linearGradient>
</defs>
</svg>
