<svg width="231" height="91" viewBox="0 0 231 91" fill="none" xmlns="http://www.w3.org/2000/svg">
<g filter="url(#filter0_d_32_2798)">
<mask id="path-1-inside-1_32_2798" fill="white">
<path fill-rule="evenodd" clip-rule="evenodd" d="M33.8107 45.4091C33.8107 20.3304 54.1411 0 79.2198 0H151.126C176.205 0 196.535 20.3304 196.535 45.4091C196.535 49.302 196.045 53.0805 195.124 56.6864C195.142 75.4433 210.275 90.6614 229 90.8169V90.8181H151.226C151.193 90.8182 151.159 90.8182 151.126 90.8182H79.2198L79.1202 90.8181H2V90.8169C20.2364 90.6656 34.973 75.8354 34.973 57.5633V55.6618C34.2126 52.3669 33.8107 48.935 33.8107 45.4091Z"/>
</mask>
<path fill-rule="evenodd" clip-rule="evenodd" d="M33.8107 45.4091C33.8107 20.3304 54.1411 0 79.2198 0H151.126C176.205 0 196.535 20.3304 196.535 45.4091C196.535 49.302 196.045 53.0805 195.124 56.6864C195.142 75.4433 210.275 90.6614 229 90.8169V90.8181H151.226C151.193 90.8182 151.159 90.8182 151.126 90.8182H79.2198L79.1202 90.8181H2V90.8169C20.2364 90.6656 34.973 75.8354 34.973 57.5633V55.6618C34.2126 52.3669 33.8107 48.935 33.8107 45.4091Z" fill="url(#paint0_linear_32_2798)"/>
<path fill-rule="evenodd" clip-rule="evenodd" d="M33.8107 45.4091C33.8107 20.3304 54.1411 0 79.2198 0H151.126C176.205 0 196.535 20.3304 196.535 45.4091C196.535 49.302 196.045 53.0805 195.124 56.6864C195.142 75.4433 210.275 90.6614 229 90.8169V90.8181H151.226C151.193 90.8182 151.159 90.8182 151.126 90.8182H79.2198L79.1202 90.8181H2V90.8169C20.2364 90.6656 34.973 75.8354 34.973 57.5633V55.6618C34.2126 52.3669 33.8107 48.935 33.8107 45.4091Z" fill="url(#paint1_radial_32_2798)"/>
<path d="M195.124 56.6864L187.373 54.7056L187.123 55.6842L187.124 56.6942L195.124 56.6864ZM229 90.8169H237V82.883L229.066 82.8172L229 90.8169ZM229 90.8181V98.8181H237V90.8181H229ZM151.226 90.8181V82.8181H151.217L151.209 82.8181L151.226 90.8181ZM79.2198 90.8182L79.2112 98.8182H79.2198V90.8182ZM79.1202 90.8181L79.1288 82.8181H79.1202V90.8181ZM2 90.8181H-6V98.8181H2V90.8181ZM2 90.8169L1.9336 82.8172L-6 82.883V90.8169H2ZM34.973 55.6618H42.973V54.7506L42.7681 53.8628L34.973 55.6618ZM79.2198 -8C49.7228 -8 25.8107 15.9121 25.8107 45.4091H41.8107C41.8107 24.7486 58.5593 8 79.2198 8V-8ZM151.126 -8H79.2198V8H151.126V-8ZM204.535 45.4091C204.535 15.9121 180.623 -8 151.126 -8V8C171.787 8 188.535 24.7486 188.535 45.4091H204.535ZM202.875 58.6671C203.96 54.4194 204.535 49.9756 204.535 45.4091H188.535C188.535 48.6284 188.13 51.7417 187.373 54.7056L202.875 58.6671ZM229.066 82.8172C214.728 82.6981 203.138 71.0429 203.124 56.6785L187.124 56.6942C187.146 79.8437 205.823 98.6247 228.934 98.8166L229.066 82.8172ZM237 90.8181V90.8169H221V90.8181H237ZM151.226 98.8181H229V82.8181H151.226V98.8181ZM151.126 98.8182C151.165 98.8182 151.204 98.8182 151.242 98.8181L151.209 82.8181C151.181 82.8182 151.153 82.8182 151.126 82.8182V98.8182ZM79.2198 98.8182H151.126V82.8182H79.2198V98.8182ZM79.1116 98.8181L79.2112 98.8182L79.2284 82.8182L79.1288 82.8181L79.1116 98.8181ZM2 98.8181H79.1202V82.8181H2V98.8181ZM-6 90.8169V90.8181H10V90.8169H-6ZM26.973 57.5633C26.973 71.4394 15.7814 82.7022 1.9336 82.8172L2.0664 98.8166C24.6913 98.6289 42.973 80.2314 42.973 57.5633H26.973ZM26.973 55.6618V57.5633H42.973V55.6618H26.973ZM25.8107 45.4091C25.8107 49.5447 26.2823 53.5801 27.1779 57.4608L42.7681 53.8628C42.1429 51.1538 41.8107 48.3252 41.8107 45.4091H25.8107Z" fill="url(#paint2_linear_32_2798)" mask="url(#path-1-inside-1_32_2798)"/>
<path d="M195.124 56.6864L187.373 54.7056L187.123 55.6842L187.124 56.6942L195.124 56.6864ZM229 90.8169H237V82.883L229.066 82.8172L229 90.8169ZM229 90.8181V98.8181H237V90.8181H229ZM151.226 90.8181V82.8181H151.217L151.209 82.8181L151.226 90.8181ZM79.2198 90.8182L79.2112 98.8182H79.2198V90.8182ZM79.1202 90.8181L79.1288 82.8181H79.1202V90.8181ZM2 90.8181H-6V98.8181H2V90.8181ZM2 90.8169L1.9336 82.8172L-6 82.883V90.8169H2ZM34.973 55.6618H42.973V54.7506L42.7681 53.8628L34.973 55.6618ZM79.2198 -8C49.7228 -8 25.8107 15.9121 25.8107 45.4091H41.8107C41.8107 24.7486 58.5593 8 79.2198 8V-8ZM151.126 -8H79.2198V8H151.126V-8ZM204.535 45.4091C204.535 15.9121 180.623 -8 151.126 -8V8C171.787 8 188.535 24.7486 188.535 45.4091H204.535ZM202.875 58.6671C203.96 54.4194 204.535 49.9756 204.535 45.4091H188.535C188.535 48.6284 188.13 51.7417 187.373 54.7056L202.875 58.6671ZM229.066 82.8172C214.728 82.6981 203.138 71.0429 203.124 56.6785L187.124 56.6942C187.146 79.8437 205.823 98.6247 228.934 98.8166L229.066 82.8172ZM237 90.8181V90.8169H221V90.8181H237ZM151.226 98.8181H229V82.8181H151.226V98.8181ZM151.126 98.8182C151.165 98.8182 151.204 98.8182 151.242 98.8181L151.209 82.8181C151.181 82.8182 151.153 82.8182 151.126 82.8182V98.8182ZM79.2198 98.8182H151.126V82.8182H79.2198V98.8182ZM79.1116 98.8181L79.2112 98.8182L79.2284 82.8182L79.1288 82.8181L79.1116 98.8181ZM2 98.8181H79.1202V82.8181H2V98.8181ZM-6 90.8169V90.8181H10V90.8169H-6ZM26.973 57.5633C26.973 71.4394 15.7814 82.7022 1.9336 82.8172L2.0664 98.8166C24.6913 98.6289 42.973 80.2314 42.973 57.5633H26.973ZM26.973 55.6618V57.5633H42.973V55.6618H26.973ZM25.8107 45.4091C25.8107 49.5447 26.2823 53.5801 27.1779 57.4608L42.7681 53.8628C42.1429 51.1538 41.8107 48.3252 41.8107 45.4091H25.8107Z" fill="url(#paint3_radial_32_2798)" mask="url(#path-1-inside-1_32_2798)"/>
<path d="M195.124 56.6864L187.373 54.7056L187.123 55.6842L187.124 56.6942L195.124 56.6864ZM229 90.8169H237V82.883L229.066 82.8172L229 90.8169ZM229 90.8181V98.8181H237V90.8181H229ZM151.226 90.8181V82.8181H151.217L151.209 82.8181L151.226 90.8181ZM79.2198 90.8182L79.2112 98.8182H79.2198V90.8182ZM79.1202 90.8181L79.1288 82.8181H79.1202V90.8181ZM2 90.8181H-6V98.8181H2V90.8181ZM2 90.8169L1.9336 82.8172L-6 82.883V90.8169H2ZM34.973 55.6618H42.973V54.7506L42.7681 53.8628L34.973 55.6618ZM79.2198 -8C49.7228 -8 25.8107 15.9121 25.8107 45.4091H41.8107C41.8107 24.7486 58.5593 8 79.2198 8V-8ZM151.126 -8H79.2198V8H151.126V-8ZM204.535 45.4091C204.535 15.9121 180.623 -8 151.126 -8V8C171.787 8 188.535 24.7486 188.535 45.4091H204.535ZM202.875 58.6671C203.96 54.4194 204.535 49.9756 204.535 45.4091H188.535C188.535 48.6284 188.13 51.7417 187.373 54.7056L202.875 58.6671ZM229.066 82.8172C214.728 82.6981 203.138 71.0429 203.124 56.6785L187.124 56.6942C187.146 79.8437 205.823 98.6247 228.934 98.8166L229.066 82.8172ZM237 90.8181V90.8169H221V90.8181H237ZM151.226 98.8181H229V82.8181H151.226V98.8181ZM151.126 98.8182C151.165 98.8182 151.204 98.8182 151.242 98.8181L151.209 82.8181C151.181 82.8182 151.153 82.8182 151.126 82.8182V98.8182ZM79.2198 98.8182H151.126V82.8182H79.2198V98.8182ZM79.1116 98.8181L79.2112 98.8182L79.2284 82.8182L79.1288 82.8181L79.1116 98.8181ZM2 98.8181H79.1202V82.8181H2V98.8181ZM-6 90.8169V90.8181H10V90.8169H-6ZM26.973 57.5633C26.973 71.4394 15.7814 82.7022 1.9336 82.8172L2.0664 98.8166C24.6913 98.6289 42.973 80.2314 42.973 57.5633H26.973ZM26.973 55.6618V57.5633H42.973V55.6618H26.973ZM25.8107 45.4091C25.8107 49.5447 26.2823 53.5801 27.1779 57.4608L42.7681 53.8628C42.1429 51.1538 41.8107 48.3252 41.8107 45.4091H25.8107Z" fill="black" fill-opacity="0.2" mask="url(#path-1-inside-1_32_2798)"/>
</g>
<path d="M100.488 68H110.037C111.093 68 111.864 67.0071 111.602 65.9829L109.075 56.1308C108.836 55.1948 109.465 54.2589 110.424 54.1308L119.324 52.9274C120.42 52.7795 121.336 53.7496 121.125 54.8335L118.952 66.0768C118.758 67.0725 119.524 67.9972 120.536 67.9972H132.706C133.656 67.9972 134.402 67.1806 134.314 66.2333L132.72 49.1493C132.632 48.2019 133.378 47.3854 134.328 47.3854H134.382C135.802 47.3854 136.53 45.687 135.551 44.6571L115.423 23.502C114.772 22.8164 113.673 22.8363 113.045 23.5419L94.4104 44.5234C93.4856 45.5647 94.2254 47.209 95.6168 47.209C96.4505 47.209 97.1476 47.8435 97.2244 48.6742L98.8747 66.5291C98.9516 67.3599 99.6487 67.9943 100.482 67.9943L100.488 68Z" fill="url(#paint4_linear_32_2798)"/>
<defs>
<filter id="filter0_d_32_2798" x="0" y="0" width="231" height="94.8181" filterUnits="userSpaceOnUse" color-interpolation-filters="sRGB">
<feFlood flood-opacity="0" result="BackgroundImageFix"/>
<feColorMatrix in="SourceAlpha" type="matrix" values="0 0 0 0 0 0 0 0 0 0 0 0 0 0 0 0 0 0 127 0" result="hardAlpha"/>
<feOffset dy="2"/>
<feGaussianBlur stdDeviation="1"/>
<feComposite in2="hardAlpha" operator="out"/>
<feColorMatrix type="matrix" values="0 0 0 0 0 0 0 0 0 0 0 0 0 0 0 0 0 0 1 0"/>
<feBlend mode="normal" in2="BackgroundImageFix" result="effect1_dropShadow_32_2798"/>
<feBlend mode="normal" in="SourceGraphic" in2="effect1_dropShadow_32_2798" result="shape"/>
</filter>
<linearGradient id="paint0_linear_32_2798" x1="-1.15668" y1="-5.06806" x2="31.7259" y2="116.916" gradientUnits="userSpaceOnUse">
<stop stop-color="#575EFF"/>
<stop offset="1" stop-color="#E478FF"/>
</linearGradient>
<radialGradient id="paint1_radial_32_2798" cx="0" cy="0" r="1" gradientUnits="userSpaceOnUse" gradientTransform="translate(115.5 44.484) scale(113.5 44.484)">
<stop stop-color="#50249E"/>
<stop offset="1" stop-color="#27005F" stop-opacity="0"/>
</radialGradient>
<linearGradient id="paint2_linear_32_2798" x1="-1.38292" y1="-5.06806" x2="31.4493" y2="116.945" gradientUnits="userSpaceOnUse">
<stop stop-color="#575EFF"/>
<stop offset="1" stop-color="#E478FF"/>
</linearGradient>
<radialGradient id="paint3_radial_32_2798" cx="0" cy="0" r="1" gradientUnits="userSpaceOnUse" gradientTransform="translate(115.481 44.484) scale(113.701 44.484)">
<stop stop-color="#50249E"/>
<stop offset="1" stop-color="#27005F" stop-opacity="0"/>
</radialGradient>
<linearGradient id="paint4_linear_32_2798" x1="107.858" y1="20.1535" x2="123.23" y2="77.7991" gradientUnits="userSpaceOnUse">
<stop stop-color="white"/>
<stop offset="1" stop-color="#D1D3D4"/>
</linearGradient>
</defs>
</svg>
