<svg width="82" height="83" viewBox="0 0 82 83" fill="none" xmlns="http://www.w3.org/2000/svg">
<g clip-path="url(#clip0_65_5235)">
<path d="M41.1552 24.6633C22.9087 24.74 8.26025 39.4535 8.26025 57.7C8.26025 63.849 9.94034 69.6053 12.8664 74.535C17.5777 82.4724 28.6411 83.8597 34.9772 77.1478C37.6705 74.2946 41.4901 72.5037 45.7457 72.5037C48.3277 72.5037 50.7549 73.1647 52.8676 74.3268C61.0393 78.8215 71.251 74.4974 73.4249 65.428C74.0192 62.949 74.3339 60.3612 74.3339 57.6998C74.3341 39.4067 59.4662 24.5863 41.1552 24.6633Z" fill="#F1D0A5"/>
<path d="M41.1552 24.6633C40.3942 24.6665 39.6403 24.6974 38.8926 24.7508C56.0066 25.9918 69.5055 40.2695 69.5055 57.6998C69.5055 60.3612 69.1907 62.9488 68.5965 65.428C67.221 71.1659 62.6283 75.0029 57.3705 75.9106C64.4215 77.1295 71.6382 72.8823 73.4251 65.428C74.0194 62.949 74.3341 60.3612 74.3341 57.6998C74.3341 39.4067 59.4663 24.5863 41.1552 24.6633Z" fill="#F1B986"/>
<path d="M25.067 74.0404C28.9288 74.0404 32.0594 70.9098 32.0594 67.0481C32.0594 63.1863 28.9288 60.0557 25.067 60.0557C21.2053 60.0557 18.0747 63.1863 18.0747 67.0481C18.0747 70.9098 21.2053 74.0404 25.067 74.0404Z" fill="#9DC6FB"/>
<path d="M25.067 60.0557C24.3873 60.0557 23.7309 60.1546 23.1094 60.3355C26.0179 61.1826 28.144 63.8662 28.144 67.0481C28.144 70.23 26.0179 72.9137 23.1094 73.7606C23.7309 73.9416 24.3873 74.0404 25.067 74.0404C28.9289 74.0404 32.0594 70.9099 32.0594 67.0481C32.0594 63.1862 28.9287 60.0557 25.067 60.0557Z" fill="#8993DA"/>
<path d="M26.1823 53.573C30.044 53.573 33.1746 50.4425 33.1746 46.5807C33.1746 42.719 30.044 39.5884 26.1823 39.5884C22.3205 39.5884 19.1899 42.719 19.1899 46.5807C19.1899 50.4425 22.3205 53.573 26.1823 53.573Z" fill="#F6E266"/>
<path d="M26.1823 39.5884C25.5025 39.5884 24.8461 39.6872 24.2246 39.8682C27.1331 40.7152 29.2593 43.3988 29.2593 46.5807C29.2593 49.7626 27.1331 52.4464 24.2246 53.2932C24.8461 53.4742 25.5025 53.573 26.1823 53.573C30.0441 53.573 33.1746 50.4424 33.1746 46.5807C33.1746 42.719 30.0441 39.5884 26.1823 39.5884Z" fill="#ECBE6B"/>
<path d="M49.8507 47.3744C53.7125 47.3744 56.8431 44.2438 56.8431 40.382C56.8431 36.5203 53.7125 33.3897 49.8507 33.3897C45.989 33.3897 42.8584 36.5203 42.8584 40.382C42.8584 44.2438 45.989 47.3744 49.8507 47.3744Z" fill="#DD636E"/>
<path d="M49.8507 33.3897C49.171 33.3897 48.5146 33.4885 47.8931 33.6695C50.8015 34.5165 52.9277 37.2001 52.9277 40.382C52.9277 43.5639 50.8015 46.2477 47.8931 47.0946C48.5146 47.2756 49.171 47.3744 49.8507 47.3744C53.7126 47.3744 56.8431 44.2437 56.8431 40.382C56.8431 36.5204 53.7124 33.3897 49.8507 33.3897Z" fill="#C63D4F"/>
<path d="M60.3126 65.8735C64.1744 65.8735 67.305 62.7429 67.305 58.8811C67.305 55.0194 64.1744 51.8888 60.3126 51.8888C56.4509 51.8888 53.3203 55.0194 53.3203 58.8811C53.3203 62.7429 56.4509 65.8735 60.3126 65.8735Z" fill="#FFF6F4"/>
<path d="M60.3127 51.8888C59.6329 51.8888 58.9765 51.9876 58.355 52.1686C61.2635 53.0156 63.3896 55.6992 63.3896 58.8811C63.3896 62.063 61.2635 64.7468 58.355 65.5936C58.9765 65.7746 59.6329 65.8735 60.3127 65.8735C64.1745 65.8735 67.305 62.7428 67.305 58.8811C67.305 55.0194 64.1745 51.8888 60.3127 51.8888Z" fill="#D8E2F1"/>
<path d="M38.3069 32.1314C30.8342 35.2587 23.3615 35.2587 15.8888 32.1314C15.1678 31.8296 14.6963 31.1263 14.6963 30.3448V12.3855H39.4993V30.3448C39.4994 31.1263 39.0279 31.8296 38.3069 32.1314Z" fill="#4A80AA"/>
<path d="M36.8007 12.3855V29.1939C36.8007 29.9754 36.3292 30.6789 35.6082 30.9805C28.8584 33.8052 22.1087 34.0778 15.3589 31.7995C15.5141 31.9353 15.6917 32.0487 15.8887 32.1312C23.3615 35.2585 30.8342 35.2585 38.3069 32.1312C39.0278 31.8295 39.4994 31.1261 39.4994 30.3446V12.3855H36.8007Z" fill="#407093"/>
<path d="M46.3115 13.1132C26.0788 24.2469 27.1988 23.7417 26.8893 23.5714L7.88408 13.1132C7.58551 12.9489 7.58551 12.5197 7.88408 12.3554L26.8892 1.89733C27.0189 1.82589 27.1764 1.82589 27.3061 1.89733L46.3113 12.3556C46.6101 12.5197 46.6101 12.9489 46.3115 13.1132Z" fill="#365E7D"/>
<path d="M46.3116 12.3554L27.3064 1.89733C27.1767 1.82589 27.0192 1.82589 26.8895 1.89733L24.6086 3.15247L41.3329 12.3556C41.6315 12.5199 41.6315 12.949 41.3329 13.1134L24.6084 22.3163C26.8155 23.4564 26.941 23.7723 27.3062 23.5714L46.3115 13.1132C46.6102 12.9489 46.6102 12.5197 46.3116 12.3554Z" fill="#2B4D66"/>
<path d="M25.0667 75.2417C29.5848 75.2417 33.2604 71.5662 33.2604 67.0481C33.2604 62.53 29.5846 58.8544 25.0667 58.8544C20.5488 58.8544 16.873 62.53 16.873 67.0481C16.873 71.5662 20.5486 75.2417 25.0667 75.2417ZM25.0667 61.2571C28.26 61.2571 30.8577 63.855 30.8577 67.0481C30.8577 70.2412 28.2598 72.8391 25.0667 72.8391C21.8736 72.8391 19.2757 70.2412 19.2757 67.0481C19.2757 63.855 21.8734 61.2571 25.0667 61.2571Z" fill="black"/>
<path d="M26.1824 54.7744C30.7005 54.7744 34.3761 51.0988 34.3761 46.5807C34.3761 42.0627 30.7004 38.3871 26.1824 38.3871C21.6645 38.3871 17.9888 42.0627 17.9888 46.5807C17.9888 51.0988 21.6645 54.7744 26.1824 54.7744ZM26.1824 40.7897C29.3757 40.7897 31.9734 43.3876 31.9734 46.5807C31.9734 49.7739 29.3755 52.3718 26.1824 52.3718C22.9893 52.3718 20.3914 49.7739 20.3914 46.5807C20.3914 43.3876 22.9893 40.7897 26.1824 40.7897Z" fill="black"/>
<path d="M49.8509 32.1884C45.3328 32.1884 41.6572 35.864 41.6572 40.3821C41.6572 44.9002 45.3328 48.5757 49.8509 48.5757C54.369 48.5757 58.0445 44.9002 58.0445 40.3821C58.0445 35.864 54.369 32.1884 49.8509 32.1884ZM49.8509 46.1732C46.6576 46.1732 44.0599 43.5753 44.0599 40.3822C44.0599 37.1891 46.6578 34.5912 49.8509 34.5912C53.044 34.5912 55.6419 37.1891 55.6419 40.3822C55.6419 43.5753 53.044 46.1732 49.8509 46.1732Z" fill="black"/>
<path d="M65.4562 33.4386C58.86 26.8699 50.049 23.3042 40.7007 23.4697V17.5722L46.891 14.1657C47.4129 13.8783 47.7369 13.3299 47.7369 12.7342C47.7369 12.1387 47.4129 11.5902 46.8908 11.3027L38.092 6.4609C37.5106 6.14119 36.7802 6.3531 36.4603 6.93422C36.1404 7.51566 36.3524 8.24607 36.9336 8.5661L44.5082 12.734C42.5099 13.8337 36.7142 17.0229 34.6127 18.1794L27.9226 11.8609C27.44 11.4051 26.68 11.4268 26.2243 11.9095C25.7687 12.3917 25.7905 13.1521 26.2728 13.6076L32.4018 19.3963L27.0921 22.318C25.8589 21.6813 21.925 19.416 9.69198 12.7316L27.0979 3.15358L32.6677 6.21855C33.2489 6.53827 33.9795 6.32619 34.2994 5.74523C34.6193 5.16379 34.4073 4.43339 33.8261 4.11336L27.8851 0.84448C27.3924 0.573622 26.8039 0.573462 26.3103 0.84464L7.30504 11.303C6.78318 11.5902 6.45898 12.1387 6.45898 12.7344C6.45898 13.3302 6.78318 13.8787 7.30872 14.1678C9.65082 15.446 11.6987 16.5677 13.4952 17.5547V30.3449C13.4952 31.6127 14.2527 32.7492 15.4252 33.2398C15.8733 33.4274 16.322 33.6029 16.771 33.7689C12.1215 38.5231 9.00322 44.4413 7.71108 51.0019C7.58294 51.6529 8.00677 52.2846 8.65772 52.4128C8.73605 52.4283 8.81422 52.4357 8.89126 52.4357C9.45348 52.4357 9.95579 52.0387 10.0687 51.4663C11.3476 44.9726 14.5516 39.1553 19.3497 34.6003C21.9272 35.3127 24.5126 35.6711 27.098 35.6711C30.9981 35.6711 34.8981 34.8606 38.7709 33.24C39.9432 32.7494 40.7008 31.6129 40.7008 30.3451V25.8728C49.4216 25.7088 57.6254 29.0315 63.7611 35.1414C72.006 43.3519 74.7362 54.8063 72.2575 65.1484C71.3256 69.0362 68.6969 72.192 65.0462 73.8064C61.3005 75.4631 57.0729 75.2689 53.4473 73.2747C51.1022 71.9845 48.4393 71.3027 45.7465 71.3027C41.2956 71.3027 37.1609 73.0857 34.1043 76.3235C31.3887 79.2003 27.5524 80.5966 23.5802 80.157C19.5124 79.7058 15.9842 77.4334 13.9003 73.9223C10.9969 69.0307 9.46229 63.4213 9.46229 57.7007C9.46229 57.236 9.4735 56.759 9.49657 56.2427C9.5262 55.5799 9.01283 55.0187 8.35003 54.9892C8.33177 54.9882 8.31351 54.9879 8.29557 54.9879C7.65678 54.9879 7.12516 55.4912 7.09633 56.1357C7.07166 56.6879 7.05965 57.1998 7.05965 57.7007C7.05965 63.8527 8.71058 69.8862 11.8342 75.1488C16.9822 83.822 28.9967 85.2348 35.8515 77.973C38.4494 75.2211 41.9637 73.7055 45.7465 73.7055C48.0355 73.7055 50.298 74.2845 52.2894 75.38C56.5772 77.7385 61.5811 77.9655 66.018 76.004C70.36 74.084 73.4859 70.3315 74.594 65.7087C77.2561 54.6027 74.338 42.2827 65.4562 33.4386ZM37.8431 31.0231C34.2778 32.5153 30.6885 33.2614 27.0979 33.2613C23.5081 33.261 19.9172 32.515 16.3528 31.0231C16.0763 30.9075 15.8979 30.6411 15.8979 30.3448V18.8765C22.886 22.7274 25.1929 24.0548 26.1163 24.5165C26.404 24.6601 26.7584 24.8374 27.1589 24.8374C27.3929 24.8374 27.6428 24.7769 27.904 24.6138L33.2236 21.6866V28.4491C33.2236 29.1127 33.7615 29.6504 34.425 29.6504C35.0884 29.6504 35.6263 29.1127 35.6263 28.4491V20.3645L38.2982 18.8943V30.3448C38.298 30.6413 38.1194 30.9075 37.8431 31.0231Z" fill="black"/>
<path d="M41.3617 58.108C40.7136 58.2496 40.3029 58.8898 40.4444 59.538L41.4231 64.0194C41.5648 64.669 42.2066 65.0784 42.8531 64.9368C43.5013 64.7952 43.9119 64.1549 43.7704 63.5067L42.7918 59.0253C42.6502 58.3769 42.0104 57.9651 41.3617 58.108Z" fill="black"/>
<path d="M66.1636 62.8921C66.766 63.1694 67.4797 62.9059 67.7572 62.3033C68.2543 61.2234 68.5065 60.0721 68.5065 58.8812C68.5065 54.3631 64.8309 50.6875 60.3128 50.6875C55.7947 50.6875 52.1191 54.3631 52.1191 58.8812C52.1191 63.3992 55.7947 67.0748 60.3128 67.0748C61.5277 67.0748 62.6993 66.8136 63.7949 66.2983C64.3954 66.0159 64.6531 65.3004 64.3709 64.6999C64.0885 64.0994 63.3726 63.8415 62.7725 64.1239C61.9991 64.4876 61.1715 64.672 60.3128 64.672C57.1195 64.672 54.5218 62.0741 54.5218 58.881C54.5218 55.6879 57.1197 53.09 60.3128 53.09C63.5059 53.09 66.1038 55.6879 66.1038 58.881C66.1038 59.7226 65.9259 60.5359 65.5747 61.2984C65.2972 61.9011 65.5608 62.6145 66.1636 62.8921Z" fill="black"/>
</g>
<defs>
<clipPath id="clip0_65_5235">
<rect width="82" height="82" fill="white" transform="translate(0 0.641235)"/>
</clipPath>
</defs>
</svg>
