<svg width="49" height="50" viewBox="0 0 49 50" fill="none" xmlns="http://www.w3.org/2000/svg">
<path fill-rule="evenodd" clip-rule="evenodd" d="M6.125 35.0035C6.125 36.108 7.02043 37.0035 8.125 37.0035H40.875C41.9796 37.0035 42.875 36.108 42.875 35.0035V34.9201C42.875 33.8156 41.9796 32.9201 40.875 32.9201H8.125C7.02043 32.9201 6.125 33.8156 6.125 34.9201V35.0035ZM6.125 24.7951C6.125 25.8997 7.02043 26.7951 8.125 26.7951H28.625C29.7296 26.7951 30.625 25.8997 30.625 24.7951V24.7118C30.625 23.6072 29.7296 22.7118 28.625 22.7118H8.125C7.02043 22.7118 6.125 23.6072 6.125 24.7118V24.7951ZM8.125 12.5035C7.02043 12.5035 6.125 13.3989 6.125 14.5035V14.5868C6.125 15.6914 7.02043 16.5868 8.125 16.5868H40.875C41.9796 16.5868 42.875 15.6914 42.875 14.5868V14.5035C42.875 13.3989 41.9796 12.5035 40.875 12.5035H8.125Z" fill="white"/>
</svg>
