<svg width="230" height="95" viewBox="0 0 230 95" fill="none" xmlns="http://www.w3.org/2000/svg">
<g filter="url(#filter0_d_718_324)">
<mask id="path-1-inside-1_718_324" fill="white">
<path d="M2.51282 45.5909C2.51282 20.5121 22.8432 0.181763 47.9219 0.181763H119.828C144.907 0.181763 165.237 20.5121 165.237 45.5909C165.237 70.6696 144.907 91 119.828 91H47.9219C22.8431 91 2.51282 70.6696 2.51282 45.5909Z"/>
</mask>
<path d="M2.51282 45.5909C2.51282 20.5121 22.8432 0.181763 47.9219 0.181763H119.828C144.907 0.181763 165.237 20.5121 165.237 45.5909C165.237 70.6696 144.907 91 119.828 91H47.9219C22.8431 91 2.51282 70.6696 2.51282 45.5909Z" fill="url(#paint0_linear_718_324)"/>
<path d="M2.51282 45.5909C2.51282 20.5121 22.8432 0.181763 47.9219 0.181763H119.828C144.907 0.181763 165.237 20.5121 165.237 45.5909C165.237 70.6696 144.907 91 119.828 91H47.9219C22.8431 91 2.51282 70.6696 2.51282 45.5909Z" fill="url(#paint1_radial_718_324)"/>
<path d="M47.9219 8.18176H119.828V-7.81824H47.9219V8.18176ZM119.828 83H47.9219V99H119.828V83ZM47.9219 83C27.2614 83 10.5128 66.2514 10.5128 45.5909H-5.48718C-5.48718 75.0879 18.4248 99 47.9219 99V83ZM157.237 45.5909C157.237 66.2513 140.489 83 119.828 83V99C149.325 99 173.237 75.0879 173.237 45.5909H157.237ZM119.828 8.18176C140.489 8.18176 157.237 24.9304 157.237 45.5909H173.237C173.237 16.0938 149.325 -7.81824 119.828 -7.81824V8.18176ZM47.9219 -7.81824C18.4249 -7.81824 -5.48718 16.0938 -5.48718 45.5909H10.5128C10.5128 24.9304 27.2614 8.18176 47.9219 8.18176V-7.81824Z" fill="url(#paint2_linear_718_324)" mask="url(#path-1-inside-1_718_324)"/>
<path d="M47.9219 8.18176H119.828V-7.81824H47.9219V8.18176ZM119.828 83H47.9219V99H119.828V83ZM47.9219 83C27.2614 83 10.5128 66.2514 10.5128 45.5909H-5.48718C-5.48718 75.0879 18.4248 99 47.9219 99V83ZM157.237 45.5909C157.237 66.2513 140.489 83 119.828 83V99C149.325 99 173.237 75.0879 173.237 45.5909H157.237ZM119.828 8.18176C140.489 8.18176 157.237 24.9304 157.237 45.5909H173.237C173.237 16.0938 149.325 -7.81824 119.828 -7.81824V8.18176ZM47.9219 -7.81824C18.4249 -7.81824 -5.48718 16.0938 -5.48718 45.5909H10.5128C10.5128 24.9304 27.2614 8.18176 47.9219 8.18176V-7.81824Z" fill="url(#paint3_radial_718_324)" mask="url(#path-1-inside-1_718_324)"/>
<path d="M47.9219 8.18176H119.828V-7.81824H47.9219V8.18176ZM119.828 83H47.9219V99H119.828V83ZM47.9219 83C27.2614 83 10.5128 66.2514 10.5128 45.5909H-5.48718C-5.48718 75.0879 18.4248 99 47.9219 99V83ZM157.237 45.5909C157.237 66.2513 140.489 83 119.828 83V99C149.325 99 173.237 75.0879 173.237 45.5909H157.237ZM119.828 8.18176C140.489 8.18176 157.237 24.9304 157.237 45.5909H173.237C173.237 16.0938 149.325 -7.81824 119.828 -7.81824V8.18176ZM47.9219 -7.81824C18.4249 -7.81824 -5.48718 16.0938 -5.48718 45.5909H10.5128C10.5128 24.9304 27.2614 8.18176 47.9219 8.18176V-7.81824Z" fill="black" fill-opacity="0.2" mask="url(#path-1-inside-1_718_324)"/>
</g>
<path fill-rule="evenodd" clip-rule="evenodd" d="M84.3649 60.3558V62.5486C84.3649 64.307 83.4288 65.8251 81.8023 66.7043C81.0198 67.1272 80.1463 67.3632 79.2408 67.3636C78.3344 67.3641 77.4613 67.1277 76.6782 66.7043L66.2646 61.075C64.6379 60.1957 63.7021 58.6781 63.7021 56.9193V28.1622C63.7021 25.5161 66.0011 23.3636 68.8272 23.3636H91.7615C94.5878 23.3636 96.887 25.5159 96.887 28.1622V34.2241C96.887 35.0938 96.1329 35.7998 95.2041 35.7998C94.2751 35.7998 93.5216 35.0938 93.5216 34.2241V28.1622C93.5216 27.2536 92.732 26.5143 91.7615 26.5143H71.6651L81.8023 31.9951C83.4283 32.8742 84.3649 34.3919 84.3649 36.1499V57.2048H91.7615C92.7319 57.2048 93.5216 56.4659 93.5216 55.5572V50.2432C93.5216 49.373 94.2746 48.6676 95.2041 48.6676C96.1332 48.6676 96.887 49.3732 96.887 50.2432V55.5572C96.887 58.2035 94.5878 60.3558 91.7615 60.3558H84.3649ZM99.9575 43.435L98.1043 45.1702C97.4472 45.7854 97.4474 46.7828 98.1043 47.3981C98.4206 47.6944 98.8469 47.8591 99.2941 47.8591C99.7418 47.8591 100.168 47.6948 100.484 47.3981L105.209 42.9733C105.866 42.3582 105.866 41.3613 105.209 40.7462L100.484 36.3221C99.8272 35.7068 98.7619 35.7071 98.1044 36.3221C97.4475 36.9367 97.4477 37.9345 98.1044 38.5493L99.9575 40.284H87.5427C86.613 40.284 85.8602 40.9894 85.8602 41.8598C85.8602 42.7301 86.6131 43.4351 87.5427 43.4351H99.9575V43.435Z" fill="url(#paint4_linear_718_324)"/>
<defs>
<filter id="filter0_d_718_324" x="0.512817" y="0.181763" width="166.725" height="94.8182" filterUnits="userSpaceOnUse" color-interpolation-filters="sRGB">
<feFlood flood-opacity="0" result="BackgroundImageFix"/>
<feColorMatrix in="SourceAlpha" type="matrix" values="0 0 0 0 0 0 0 0 0 0 0 0 0 0 0 0 0 0 127 0" result="hardAlpha"/>
<feOffset dy="2"/>
<feGaussianBlur stdDeviation="1"/>
<feComposite in2="hardAlpha" operator="out"/>
<feColorMatrix type="matrix" values="0 0 0 0 0 0 0 0 0 0 0 0 0 0 0 0 0 0 1 0"/>
<feBlend mode="normal" in2="BackgroundImageFix" result="effect1_dropShadow_718_324"/>
<feBlend mode="normal" in="SourceGraphic" in2="effect1_dropShadow_718_324" result="shape"/>
</filter>
<linearGradient id="paint0_linear_718_324" x1="0.249956" y1="-4.8863" x2="43.3584" y2="109.751" gradientUnits="userSpaceOnUse">
<stop stop-color="#575EFF"/>
<stop offset="1" stop-color="#E478FF"/>
</linearGradient>
<radialGradient id="paint1_radial_718_324" cx="0" cy="0" r="1" gradientUnits="userSpaceOnUse" gradientTransform="translate(83.8751 44.6657) scale(81.3623 44.484)">
<stop stop-color="#50249E"/>
<stop offset="1" stop-color="#27005F" stop-opacity="0"/>
</radialGradient>
<linearGradient id="paint2_linear_718_324" x1="0.0877746" y1="-4.8863" x2="43.1388" y2="109.801" gradientUnits="userSpaceOnUse">
<stop stop-color="#575EFF"/>
<stop offset="1" stop-color="#E478FF"/>
</linearGradient>
<radialGradient id="paint3_radial_718_324" cx="0" cy="0" r="1" gradientUnits="userSpaceOnUse" gradientTransform="translate(83.8611 44.6657) scale(81.5065 44.484)">
<stop stop-color="#50249E"/>
<stop offset="1" stop-color="#27005F" stop-opacity="0"/>
</radialGradient>
<linearGradient id="paint4_linear_718_324" x1="77.5596" y1="20.5804" x2="92.2993" y2="77.11" gradientUnits="userSpaceOnUse">
<stop stop-color="white"/>
<stop offset="1" stop-color="#D1D3D4"/>
</linearGradient>
</defs>
</svg>
