<svg width="65" height="66" viewBox="0 0 65 66" fill="none" xmlns="http://www.w3.org/2000/svg">
<path d="M22.1474 43.3607L1.60267 22.8402C1.40442 22.6422 1.40442 22.3208 1.60267 22.1228L17.8285 5.91612L22.1428 2.90063C22.3408 2.70288 22.6615 2.70288 22.8593 2.90063L43.3994 22.132C43.5977 22.33 43.5977 22.6515 43.3994 22.8495L22.8641 43.3607C22.6661 43.5584 22.3454 43.5584 22.1474 43.3607Z" fill="#EEF5F6"/>
<path d="M43.4002 22.8499L38.3666 27.8784C39.4301 26.7439 39.4073 24.9617 38.2981 23.8538L21.1324 6.70696C20.4225 5.99837 19.0396 5.73471 17.829 5.91597L22.1389 1.6112C22.3366 1.41345 22.6573 1.41345 22.8551 1.6112L43.4002 22.1324C43.5979 22.3301 43.5979 22.6521 43.4002 22.8499Z" fill="#DEECF1"/>
<path d="M62.8626 51.3169L59.621 53.2151L36.42 62.1429C36.1588 62.2435 35.8656 62.1134 35.7649 61.8523L25.3173 34.7796C25.2164 34.5182 25.3468 34.2245 25.6083 34.1239L48.6984 25.2388L52.5247 24.6098C52.7859 24.5093 53.0791 24.6393 53.1798 24.9004L63.1535 50.6613C63.2544 50.9225 63.1241 51.2162 62.8626 51.3169Z" fill="#ADE194"/>
<path d="M63.5255 51.7118L58.7822 53.5372C59.7937 53.1493 60.297 52.0135 59.9065 51.0032L50.5061 26.6412C50.2716 26.0353 49.4983 25.4915 48.6985 25.238L52.7142 23.6928C52.9753 23.5926 53.2682 23.7232 53.3696 23.9843L63.8171 51.0565C63.9172 51.3176 63.7879 51.6117 63.5255 51.7118Z" fill="#97DA7B"/>
<path d="M29.9231 63.489L24.6428 64.2536H1.50704C1.22703 64.2536 1 64.0266 1 63.7465V34.7346C1 34.4546 1.22703 34.2275 1.50704 34.2275H30.5569C30.8369 34.2275 31.0639 34.4546 31.0639 34.7346L30.43 62.9819C30.4301 63.2619 30.2031 63.489 29.9231 63.489Z" fill="#8AC9FE"/>
<path d="M31.0632 34.7346V63.7462C31.0632 64.0263 30.8363 64.2532 30.5562 64.2532H23.9102C25.0612 64.2532 25.9929 63.3203 25.9929 62.1705V49.5718L23.8316 46.7083L25.9929 34.2275H30.5562C30.8363 34.2275 31.0632 34.4544 31.0632 34.7346Z" fill="#60B7FF"/>
<path d="M55.7401 43.8198L53.968 44.5031C52.3606 40.3428 47.687 38.2715 43.5268 39.8776C39.3653 41.4824 37.294 46.1573 38.9001 50.3188L37.128 51.0021C36.3623 51.2974 35.5054 50.8563 35.3153 50.0577C34.0034 44.5766 36.9163 38.8344 42.3188 36.7492C47.7225 34.6639 53.7373 36.9608 56.4486 41.902C56.8429 42.622 56.5044 43.5245 55.7401 43.8198Z" fill="#FE7AB6"/>
<path d="M53.9677 44.5029V44.5042L51.7545 45.3572C51.1714 45.5829 50.5034 45.3864 50.151 44.8705C48.9988 43.1833 46.8008 42.4443 44.8132 43.2112C42.8256 43.9794 41.6924 46.0025 41.9738 48.0255C42.06 48.6454 41.6949 49.2399 41.1118 49.4643L38.8998 50.3186C37.2938 46.1571 39.3651 41.4822 43.5266 39.8774C47.6868 38.2714 52.3604 40.3426 53.9677 44.5029Z" fill="#8AC9FE"/>
<path d="M18.8537 59.1922C17.8593 59.4742 16.6778 58.0936 15.6978 58.0565C14.6822 58.0183 13.3986 59.2945 12.4648 58.9506C11.5216 58.6033 11.3713 56.795 10.5805 56.1745C9.79767 55.5601 8.00301 55.8451 7.43728 55.0007C6.89146 54.1861 7.82884 52.641 7.5468 51.6465C7.26476 50.6521 5.65606 49.8289 5.69295 48.8489C5.73123 47.8333 7.40838 47.1338 7.75228 46.1999C8.0996 45.2567 7.27845 43.6386 7.89894 42.848C8.51334 42.0651 10.2757 42.4777 11.12 41.912C11.9347 41.3662 12.2157 39.5709 13.2102 39.2888C14.2046 39.0068 15.3861 40.3875 16.3661 40.4245C17.3817 40.4627 18.6652 39.1865 19.5991 39.5304C20.5423 39.8777 20.6926 41.686 21.4834 42.3065C22.2662 42.9209 24.0609 42.6359 24.6266 43.4803C25.1724 44.295 24.2351 45.84 24.5171 46.8345C24.7991 47.8289 26.4078 48.6521 26.371 49.6321C26.3327 50.6477 24.6555 51.3473 24.3116 52.2811C23.9643 53.2243 24.7854 54.8424 24.165 55.633C23.5506 56.4159 21.7882 56.0033 20.9439 56.569C20.1291 57.1148 19.8482 58.9102 18.8537 59.1922Z" fill="#FECE85"/>
<path d="M16.032 53.6796C18.4837 53.6796 20.4713 51.692 20.4713 49.2403C20.4713 46.7886 18.4837 44.801 16.032 44.801C13.5803 44.801 11.5928 46.7886 11.5928 49.2403C11.5928 51.692 13.5803 53.6796 16.032 53.6796Z" fill="#FEC165"/>
<path d="M30.1767 36.8284L26.8311 33.4849L25.6567 34.0416L22.6696 34.9958C19.4284 36.1734 17.0301 38.9432 16.3291 42.3137L19.0909 42.9178C20.6159 42.9178 21.853 44.1538 21.8518 45.6787L22.4378 46.0453C26.0925 44.061 28.882 40.8496 30.1767 36.8284Z" fill="#D78878"/>
<path d="M22.4618 48.3072C22.3591 48.33 21.9062 48.0023 21.8035 48.0213L17.9858 48.6895C16.594 48.9532 15.582 47.9526 15.8622 46.5659L15.699 45.4272L16.3152 42.3748C16.319 42.3545 16.3241 42.3342 16.3292 42.314H19.6667C21.1916 42.314 22.4288 43.5499 22.4276 45.0748L22.4618 48.3072Z" fill="#FEC165"/>
<path d="M31.1243 37.7757L30.6281 39.0103L29.7097 41.8561C28.5752 45.124 25.827 47.5616 22.4616 48.3069L21.1471 46.3747C21.1471 46.3747 22.4122 44.7386 22.383 44.5776C25.083 42.9589 26.9096 39.8609 26.9096 36.3053C26.9096 35.3609 26.7803 34.4495 26.5407 33.5901L26.831 33.4849L31.1243 37.7757Z" fill="#CA6E59"/>
<path d="M22.4615 48.3069C22.3588 48.3297 22.2561 48.3513 22.1534 48.3703L17.7384 49.2044C16.3466 49.468 15.131 48.2385 15.4111 46.8517L15.6989 45.4269C16.4569 45.6551 17.2567 45.7768 18.0832 45.7768C19.6449 45.7768 21.1102 45.342 22.3829 44.5776C22.412 44.7386 22.4272 44.9047 22.4272 45.0745L22.4615 48.3069Z" fill="#FDB441"/>
<path d="M30.6279 39.0103L29.7859 38.944C27.4546 38.7604 25.6565 36.815 25.6565 34.4764V34.0415L31.7497 27.9603C32.2929 27.4182 33.1726 27.4186 33.7153 27.9611L36.7218 30.9659C37.2642 31.5081 37.264 32.3874 36.7211 32.9292L30.6279 39.0103Z" fill="#DEECF1"/>
<path d="M32.7234 32.9341L31.2517 31.9901C29.8941 30.6332 29.7771 28.4732 30.9801 26.978L34.1613 23.0238C36.3263 20.3328 38.8088 17.9128 41.555 15.8165L58.2957 3.03653C58.8878 2.58451 59.523 2.44951 60.1061 2.53786C61.5903 3.47284 61.8209 4.71737 60.5523 6.37248L48.3119 22.2041C46.211 24.9452 44.2791 27.3929 41.5832 29.5531L37.7416 33.209C36.2436 34.4093 34.081 34.2909 32.7234 32.9341Z" fill="#7A8C98"/>
<path d="M61.6961 6.43432L48.887 23.1451C46.7866 25.8857 44.3617 28.3638 41.6656 30.5238L37.7043 33.6979C36.206 34.8983 34.0435 34.7804 32.6859 33.4228L31.2523 31.9904C31.1407 31.8789 31.0368 31.761 30.9417 31.638C32.3006 32.7016 34.2387 32.7117 35.6153 31.6089L39.5766 28.4348C42.2727 26.2748 44.6976 23.7967 46.798 21.0548L59.6071 4.34532C60.0596 3.75462 60.1952 3.12082 60.1065 2.53772C61.7392 2.7849 62.9649 4.77884 61.6961 6.43432Z" fill="#687C87"/>
<path d="M29.471 15.0146C28.1601 13.8746 26.1545 13.9337 24.9074 15.1433C24.7931 15.2542 24.6884 15.3712 24.5934 15.4934C24.4497 15.6782 24.172 15.6801 24.0173 15.5041C23.9542 15.4323 23.8883 15.3618 23.8194 15.2931C22.0897 13.5633 19.2865 13.5642 17.5577 15.2931C16.4322 16.4186 16.0388 17.9983 16.3789 19.4416C16.4271 19.646 16.3073 19.8483 16.1042 19.9021C15.6855 20.0129 15.2893 20.2325 14.9612 20.5606C13.879 21.6097 14.0228 23.4249 15.1594 24.3326C15.3202 24.461 15.3552 24.6921 15.2265 24.8528C14.1663 26.1779 14.2486 28.1208 15.4785 29.3498C16.7979 30.6691 18.9372 30.6691 20.2566 29.3498L29.6483 19.958C31.0242 18.582 30.9651 16.314 29.471 15.0146Z" fill="#8AC9FE"/>
<path d="M8.40613 15.3277L22.4971 1.25354L39.0486 17.7855" stroke="black" stroke-width="2" stroke-miterlimit="10" stroke-linecap="round" stroke-linejoin="round"/>
<path d="M12.9024 34.1265L1.24359 22.4816L5.26668 18.4633" stroke="black" stroke-width="2" stroke-miterlimit="10" stroke-linecap="round" stroke-linejoin="round"/>
<path d="M41.708 60.1079L35.9471 62.3248L31.1246 49.8281" stroke="black" stroke-width="2" stroke-miterlimit="10" stroke-linecap="round" stroke-linejoin="round"/>
<path d="M56.1733 31.2487L64 51.5303L45.8519 58.5136" stroke="black" stroke-width="2" stroke-miterlimit="10" stroke-linecap="round" stroke-linejoin="round"/>
<path d="M46.5477 26.0658L53.1869 23.511L54.5754 27.1089" stroke="black" stroke-width="2" stroke-miterlimit="10" stroke-linecap="round" stroke-linejoin="round"/>
<path d="M31.0639 38.6662V64.2536H1V34.2275H24.6205" stroke="black" stroke-width="2" stroke-miterlimit="10" stroke-linecap="round" stroke-linejoin="round"/>
<path d="M55.7391 43.82C56.5046 43.5246 56.8422 42.6217 56.4476 41.9024C53.7372 36.9605 47.722 34.6644 42.3189 36.7494C36.9159 38.8345 34.0024 44.5764 35.3145 50.0578C35.5056 50.8558 36.3622 51.2978 37.1276 51.0025L41.1119 49.4649C41.6951 49.2397 42.0591 48.6454 41.9732 48.0261C41.6926 46.003 42.8248 43.9791 44.8127 43.2119C46.8007 42.4448 48.999 43.1834 50.1502 44.8706C50.5026 45.387 51.1715 45.5828 51.7547 45.3577L55.7391 43.82Z" stroke="black" stroke-width="2" stroke-miterlimit="10" stroke-linecap="round" stroke-linejoin="round"/>
<path d="M38.8997 50.3186C37.294 46.1576 39.3655 41.4827 43.5265 39.8769C47.6875 38.2711 52.3624 40.3426 53.9681 44.5036" stroke="black" stroke-width="2" stroke-miterlimit="10" stroke-linecap="round" stroke-linejoin="round"/>
<path d="M20.4543 48.8403C20.6031 50.499 19.8079 52.1731 18.2756 53.0705C16.1602 54.3097 13.4407 53.5993 12.2015 51.4838C10.9623 49.3683 11.6727 46.6487 13.7882 45.4095C14.3912 45.0564 15.0433 44.8616 15.6962 44.8125" stroke="black" stroke-width="2" stroke-miterlimit="10" stroke-linecap="round" stroke-linejoin="round"/>
<path d="M24.8939 47.5073C25.4608 48.222 26.3993 48.8809 26.3711 49.6321C26.3328 50.6477 24.6556 51.3473 24.3117 52.2811C23.9644 53.2243 24.7856 54.8424 24.1651 55.633C23.5507 56.4159 21.7883 56.0033 20.944 56.569C20.1293 57.1148 19.8483 58.9101 18.8539 59.1922C17.8594 59.4742 16.6779 58.0936 15.6979 58.0565C14.6823 58.0183 13.3988 59.2945 12.4649 58.9506C11.5217 58.6033 11.3714 56.795 10.5807 56.1745C9.79779 55.5601 8.00313 55.8451 7.4374 55.0007C6.89158 54.1861 7.82896 52.641 7.54692 51.6465C7.26488 50.6521 5.65618 49.8289 5.69307 48.8489C5.73135 47.8333 7.4085 47.1337 7.7524 46.1999C8.09972 45.2567 7.27857 43.6386 7.89906 42.848C8.51346 42.0651 10.2758 42.4777 11.1201 41.912C11.9348 41.3662 12.2159 39.5709 13.2103 39.2888C14.2047 39.0068 15.3862 40.3875 16.3662 40.4245C16.5351 40.4308 16.7114 40.4009 16.8921 40.348" stroke="black" stroke-width="2" stroke-miterlimit="10" stroke-linecap="round" stroke-linejoin="round"/>
<path d="M30.6822 39.052L29.7091 41.8569C28.5411 45.2235 25.6586 47.7085 22.1533 48.3709L17.738 49.2051C16.3464 49.468 15.131 48.2395 15.4109 46.8528L16.3149 42.3746C17.0008 38.9771 19.4087 36.1816 22.6699 34.9967L25.699 33.896" stroke="black" stroke-width="2" stroke-miterlimit="10" stroke-linecap="round" stroke-linejoin="round"/>
<path d="M35.0671 34.5798L30.6278 39.0103L29.7859 38.944C27.4545 38.7605 25.6564 36.8151 25.6564 34.4765V34.0416L30.0753 29.6315" stroke="black" stroke-width="2" stroke-miterlimit="10" stroke-linecap="round" stroke-linejoin="round"/>
<path d="M50.7324 8.81046L58.2962 3.03628C60.5464 1.31843 63.4172 4.18777 61.6956 6.43383L48.8877 23.1445C46.7868 25.8857 44.3619 28.3632 41.666 30.5236L37.7045 33.698C36.2064 34.8984 34.0438 34.7799 32.6863 33.4231L31.2523 31.9898C29.8947 30.633 29.7777 28.473 30.9807 26.9777L34.1619 23.0236C36.3269 20.3326 38.8094 17.9126 41.5556 15.8162L47.2045 11.5039" stroke="black" stroke-width="2" stroke-miterlimit="10" stroke-linecap="round" stroke-linejoin="round"/>
<path d="M16.4312 42.3124L19.6657 42.3135C21.1915 42.314 22.428 43.5499 22.4275 45.0738V48.0797" stroke="black" stroke-width="2" stroke-miterlimit="10" stroke-linecap="round" stroke-linejoin="round"/>
<path d="M29.6483 15.1799C30.9677 16.4992 30.9677 18.6387 29.6483 19.958L20.2566 29.3498C18.9373 30.6691 16.7979 30.6691 15.4785 29.3498C14.1592 28.0304 14.1592 25.891 15.4785 24.5717L15.4938 24.5565C15.3034 24.4487 15.1246 24.3131 14.9621 24.1504C13.9706 23.1589 13.9706 21.5512 14.9612 20.5606C15.3888 20.133 15.9321 19.8897 16.4898 19.8314C15.9734 18.2893 16.33 16.5209 17.5577 15.2931C19.2865 13.5642 22.0896 13.5633 23.8194 15.2931C24.0089 15.4826 24.1769 15.6846 24.3251 15.8957C24.4706 15.6389 24.652 15.3982 24.8703 15.1799C26.1896 13.8606 28.329 13.8606 29.6483 15.1799Z" stroke="black" stroke-width="2" stroke-miterlimit="10" stroke-linecap="round" stroke-linejoin="round"/>
</svg>
