<svg width="394" height="87" viewBox="0 0 394 87" fill="none" xmlns="http://www.w3.org/2000/svg">
<rect x="4.5" y="4.92188" width="385" height="78" rx="39" fill="#8335F7"/>
<rect x="4.5" y="4.92188" width="385" height="78" rx="39" stroke="url(#paint0_linear_87_12267)" stroke-width="8"/>
<rect x="4.5" y="4.92188" width="385" height="78" rx="39" stroke="url(#paint1_radial_87_12267)" stroke-width="8"/>
<g filter="url(#filter1_d_87_12267)">
<path d="M127.827 28.4619C129.003 28.4619 130.179 28.5879 131.355 28.8399C132.559 29.0639 133.665 29.4979 134.673 30.1419C135.737 30.8139 136.591 31.7379 137.235 32.9139C137.879 34.0899 138.187 35.5179 138.159 37.1979C138.131 38.6259 137.893 39.9699 137.445 41.2299C137.025 42.4899 136.227 43.5679 135.051 44.4639C134.127 45.1919 133.035 45.7239 131.775 46.0599C130.515 46.3959 129.045 46.5639 127.365 46.5639H125.475V54.9219H116.907V28.4619H127.827ZM125.475 40.4739H125.979C126.371 40.4739 126.763 40.4599 127.155 40.4319C127.575 40.4039 127.967 40.3199 128.331 40.1799C128.751 40.0399 129.115 39.7879 129.423 39.4239C129.731 39.0319 129.885 38.5279 129.885 37.9119C129.913 37.2959 129.773 36.8339 129.465 36.5259C129.185 36.1899 128.849 35.9519 128.457 35.8119C128.093 35.6719 127.715 35.6019 127.323 35.6019C126.931 35.5739 126.511 35.5599 126.063 35.5599H125.475V40.4739ZM150.584 38.7939C150.164 38.7939 149.8 38.8779 149.492 39.0459C149.184 39.2139 148.918 39.4239 148.694 39.6759C148.498 39.9279 148.33 40.1939 148.19 40.4739C148.05 40.7539 147.938 41.0199 147.854 41.2719V54.9219H140.084V32.9559H147.602L147.728 34.7619C148.344 33.9779 149.1 33.3899 149.996 32.9979C150.892 32.6059 151.83 32.4099 152.81 32.4099C154.21 32.4099 155.47 32.8019 156.59 33.5859C157.122 33.9499 157.584 34.4119 157.976 34.9719C158.396 35.5039 158.69 36.0919 158.858 36.7359L153.566 41.6919C153.426 41.3279 153.244 40.9639 153.02 40.5999C152.824 40.2079 152.586 39.8579 152.306 39.5499C151.802 39.0459 151.228 38.7939 150.584 38.7939ZM169.271 32.6619C170.699 32.6899 171.931 32.8439 172.967 33.1239C174.003 33.3759 174.885 33.7959 175.613 34.3839C176.649 35.2519 177.363 36.3859 177.755 37.7859C178.175 39.1859 178.385 40.8939 178.385 42.9099V54.9219H171.287L170.867 52.8639C170.223 53.6759 169.453 54.2779 168.557 54.6699C167.689 55.0339 166.793 55.2019 165.869 55.1739C164.973 55.1739 164.147 55.0199 163.391 54.7119C162.635 54.3759 161.991 53.9279 161.459 53.3679C160.227 52.0519 159.653 50.3859 159.737 48.3699C159.793 47.3619 160.017 46.4519 160.409 45.6399C160.829 44.8279 161.361 44.1699 162.005 43.6659C163.069 42.7979 164.469 42.3219 166.205 42.2379C166.933 42.1819 167.661 42.2099 168.389 42.3219C169.145 42.4339 169.887 42.6019 170.615 42.8259V42.1539C170.615 41.0619 170.447 40.2079 170.111 39.5919C169.803 38.9479 169.159 38.5979 168.179 38.5419C167.591 38.5139 167.045 38.5839 166.541 38.7519C166.065 38.9199 165.617 39.1439 165.197 39.4239C164.805 39.6759 164.441 39.9839 164.105 40.3479C163.797 40.6839 163.531 41.0199 163.307 41.3559L159.905 36.8619C160.381 36.3299 160.913 35.8119 161.501 35.3079C162.117 34.7759 162.803 34.3139 163.559 33.9219C164.315 33.5299 165.155 33.2219 166.079 32.9979C167.031 32.7459 168.095 32.6339 169.271 32.6619ZM170.615 46.9839C170.307 46.8439 169.943 46.7599 169.523 46.7319C169.131 46.7039 168.753 46.7319 168.389 46.8159C168.025 46.8719 167.717 46.9979 167.465 47.1939C167.213 47.3899 167.087 47.6419 167.087 47.9499C167.087 48.3419 167.213 48.6499 167.465 48.8739C167.745 49.0979 168.067 49.2519 168.431 49.3359C168.823 49.3919 169.215 49.3919 169.607 49.3359C170.027 49.2519 170.363 49.1119 170.615 48.9159V46.9839ZM192.52 38.7939C191.904 38.7939 191.386 38.8919 190.966 39.0879C190.546 39.2559 190.14 39.5219 189.748 39.8859C189.244 40.3619 188.852 40.9499 188.572 41.6499C188.32 42.3219 188.194 43.0499 188.194 43.8339C188.194 45.3179 188.544 46.4939 189.244 47.3619C189.636 47.8659 190.084 48.2719 190.588 48.5799C191.12 48.8599 191.806 48.9999 192.646 48.9999C193.458 48.9999 194.214 48.7479 194.914 48.2439C195.614 47.7399 196.146 47.1239 196.51 46.3959L201.634 50.0919C200.542 51.9399 199.212 53.2699 197.644 54.0819C196.104 54.8939 194.27 55.2999 192.142 55.2999C190.462 55.2999 188.908 55.0479 187.48 54.5439C186.08 54.0119 184.792 53.1159 183.616 51.8559C182.58 50.6799 181.852 49.4339 181.432 48.1179C181.04 46.8019 180.844 45.3879 180.844 43.8759C180.844 42.1959 181.166 40.6279 181.81 39.1719C182.454 37.6879 183.322 36.4139 184.414 35.3499C185.59 34.2859 186.878 33.5299 188.278 33.0819C189.706 32.6339 191.19 32.4239 192.73 32.4519C193.486 32.4519 194.256 32.5359 195.04 32.7039C195.852 32.8439 196.622 33.0819 197.35 33.4179C198.33 33.8939 199.198 34.5239 199.954 35.3079C200.71 36.0639 201.242 36.9739 201.55 38.0379L196.384 41.6919C195.992 40.8799 195.474 40.1939 194.83 39.6339C194.214 39.0739 193.444 38.7939 192.52 38.7939ZM203.864 40.6419V34.6359H206.636V28.4619H214.406V34.6359H220.454V40.6419H214.406V44.2539C214.406 44.7859 214.406 45.3739 214.406 46.0179C214.434 46.6339 214.546 47.1519 214.742 47.5719C214.882 47.9639 215.12 48.2719 215.456 48.4959C215.82 48.6919 216.324 48.7899 216.968 48.7899C217.36 48.7899 217.822 48.6779 218.354 48.4539C218.886 48.2299 219.278 47.9639 219.53 47.6559L221.21 52.9059C220.23 53.6059 219.194 54.1519 218.102 54.5439C217.01 54.9079 215.834 55.0759 214.574 55.0479C212.95 55.0479 211.606 54.7959 210.542 54.2919C209.478 53.7879 208.652 53.1019 208.064 52.2339C207.448 51.2819 207.056 50.1619 206.888 48.8739C206.72 47.5579 206.636 46.1439 206.636 44.6319V40.6419H203.864ZM232.12 25.5219C232.148 26.3339 232.036 27.0339 231.784 27.6219C231.532 28.1819 231.182 28.6579 230.734 29.0499C230.314 29.4139 229.81 29.6799 229.222 29.8479C228.662 30.0159 228.088 30.0999 227.5 30.0999C226.912 30.0719 226.338 29.9599 225.778 29.7639C225.246 29.5399 224.77 29.2319 224.35 28.8399C223.958 28.4479 223.65 27.9579 223.426 27.3699C223.23 26.7819 223.174 26.0959 223.258 25.3119C223.314 24.6399 223.468 24.0659 223.72 23.5899C224 23.1139 224.336 22.7219 224.728 22.4139C225.148 22.1059 225.61 21.8819 226.114 21.7419C226.618 21.5739 227.136 21.4899 227.668 21.4899C228.228 21.4899 228.76 21.5739 229.264 21.7419C229.796 21.8819 230.258 22.1199 230.65 22.4559C231.07 22.7919 231.406 23.2119 231.658 23.7159C231.938 24.2199 232.092 24.8219 232.12 25.5219ZM223.804 54.9219V32.9559H231.574V54.9219H223.804ZM245.594 38.7939C244.978 38.7939 244.46 38.8919 244.04 39.0879C243.62 39.2559 243.214 39.5219 242.822 39.8859C242.318 40.3619 241.926 40.9499 241.646 41.6499C241.394 42.3219 241.268 43.0499 241.268 43.8339C241.268 45.3179 241.618 46.4939 242.318 47.3619C242.71 47.8659 243.158 48.2719 243.662 48.5799C244.194 48.8599 244.88 48.9999 245.72 48.9999C246.532 48.9999 247.288 48.7479 247.988 48.2439C248.688 47.7399 249.22 47.1239 249.584 46.3959L254.708 50.0919C253.616 51.9399 252.286 53.2699 250.718 54.0819C249.178 54.8939 247.344 55.2999 245.216 55.2999C243.536 55.2999 241.982 55.0479 240.554 54.5439C239.154 54.0119 237.866 53.1159 236.69 51.8559C235.654 50.6799 234.926 49.4339 234.506 48.1179C234.114 46.8019 233.918 45.3879 233.918 43.8759C233.918 42.1959 234.24 40.6279 234.884 39.1719C235.528 37.6879 236.396 36.4139 237.488 35.3499C238.664 34.2859 239.952 33.5299 241.352 33.0819C242.78 32.6339 244.264 32.4239 245.804 32.4519C246.56 32.4519 247.33 32.5359 248.114 32.7039C248.926 32.8439 249.696 33.0819 250.424 33.4179C251.404 33.8939 252.272 34.5239 253.028 35.3079C253.784 36.0639 254.316 36.9739 254.624 38.0379L249.458 41.6919C249.066 40.8799 248.548 40.1939 247.904 39.6339C247.288 39.0739 246.518 38.7939 245.594 38.7939ZM264.582 46.8999C264.89 47.5439 265.366 48.0619 266.01 48.4539C266.682 48.8179 267.48 48.9999 268.404 48.9999C269.216 48.9999 270 48.7479 270.756 48.2439C271.54 47.7399 272.114 47.1239 272.478 46.3959L277.308 50.0919C276.216 51.9399 274.914 53.2699 273.402 54.0819C271.89 54.8939 270.07 55.2999 267.942 55.2999C266.318 55.2999 264.848 55.0619 263.532 54.5859C262.244 54.1099 261.11 53.4379 260.13 52.5699C259.01 51.5899 258.142 50.3579 257.526 48.8739C256.938 47.3899 256.644 45.7239 256.644 43.8759C256.644 42.2519 256.91 40.7679 257.442 39.4239C257.974 38.0799 258.716 36.9179 259.668 35.9379C260.732 34.8179 262.02 33.9499 263.532 33.3339C265.072 32.7179 266.738 32.4239 268.53 32.4519C269.482 32.4519 270.434 32.5639 271.386 32.7879C272.366 33.0119 273.262 33.3619 274.074 33.8379C274.998 34.3979 275.754 35.1399 276.342 36.0639C276.93 36.9879 277.238 38.0799 277.266 39.3399C277.266 40.5159 277.014 41.5519 276.51 42.4479C276.006 43.3159 275.348 44.0439 274.536 44.6319C273.808 45.1639 272.982 45.5979 272.058 45.9339C271.162 46.2419 270.252 46.4659 269.328 46.6059C268.516 46.7459 267.718 46.8159 266.934 46.8159C266.15 46.8159 265.366 46.8439 264.582 46.8999ZM263.91 42.7419C264.19 42.7419 264.624 42.7139 265.212 42.6579C265.828 42.6019 266.444 42.4899 267.06 42.3219C267.676 42.1259 268.222 41.8739 268.698 41.5659C269.174 41.2299 269.44 40.7819 269.496 40.2219C269.552 39.6619 269.384 39.2699 268.992 39.0459C268.6 38.8219 268.152 38.7099 267.648 38.7099C266.612 38.7379 265.716 39.1299 264.96 39.8859C264.624 40.2779 264.358 40.7539 264.162 41.3139C263.966 41.8459 263.882 42.3219 263.91 42.7419Z" fill="white"/>
</g>
<defs>
<filter id="filter1_d_87_12267" x="112.907" y="21.49" width="168.4" height="41.8098" filterUnits="userSpaceOnUse" color-interpolation-filters="sRGB">
<feFlood flood-opacity="0" result="BackgroundImageFix"/>
<feColorMatrix in="SourceAlpha" type="matrix" values="0 0 0 0 0 0 0 0 0 0 0 0 0 0 0 0 0 0 127 0" result="hardAlpha"/>
<feOffset dy="4"/>
<feGaussianBlur stdDeviation="2"/>
<feComposite in2="hardAlpha" operator="out"/>
<feColorMatrix type="matrix" values="0 0 0 0 0 0 0 0 0 0 0 0 0 0 0 0 0 0 0.25 0"/>
<feBlend mode="normal" in2="BackgroundImageFix" result="effect1_dropShadow_87_12267"/>
<feBlend mode="normal" in="SourceGraphic" in2="effect1_dropShadow_87_12267" result="shape"/>
</filter>
<linearGradient id="paint0_linear_87_12267" x1="-4.96509" y1="-3.87731" x2="12.9152" y2="117.392" gradientUnits="userSpaceOnUse">
<stop stop-color="#575EFF"/>
<stop offset="1" stop-color="#E478FF"/>
</linearGradient>
<radialGradient id="paint1_radial_87_12267" cx="0" cy="0" r="1" gradientUnits="userSpaceOnUse" gradientTransform="translate(197 43.0458) scale(196.5 42.124)">
<stop stop-color="#50249E"/>
<stop offset="1" stop-color="#27005F" stop-opacity="0"/>
</radialGradient>
</defs>
</svg>
