<svg width="95" height="97" viewBox="0 0 95 97" fill="none" xmlns="http://www.w3.org/2000/svg">
<g filter="url(#filter0_d_718_1059)">
<path d="M56.8451 24.0451C65.812 24.8385 73.3274 15.5251 75.933 11.8886C90.742 -5.46283 85.2276 43.5062 67.2457 72.4015C49.2637 101.297 34.4363 73.5199 16.5701 51.1017C-1.29613 28.6836 25.2294 21.2477 56.8451 24.0451Z" fill="url(#paint0_linear_718_1059)"/>
<path d="M56.8451 24.0451C65.812 24.8385 73.3274 15.5251 75.933 11.8886C90.742 -5.46283 85.2276 43.5062 67.2457 72.4015C49.2637 101.297 34.4363 73.5199 16.5701 51.1017C-1.29613 28.6836 25.2294 21.2477 56.8451 24.0451Z" fill="url(#paint1_radial_718_1059)"/>
<path d="M72.9663 9.35279L72.848 9.49142L72.7419 9.63952C71.5377 11.3201 69.2693 14.2044 66.3765 16.539C63.4448 18.905 60.3771 20.3092 57.379 20.0439C49.2919 19.3283 41.4544 19.2593 34.5021 19.9426C27.611 20.62 21.3092 22.0623 16.4714 24.5603C11.5873 27.0822 7.62697 31.0261 6.9269 36.7155C6.26389 42.1037 8.7202 47.8105 13.4188 53.7062C15.6176 56.4653 17.7761 59.3149 19.9281 62.1655C20.078 62.3641 20.228 62.5628 20.3779 62.7615C22.3697 65.4006 24.3604 68.0382 26.3335 70.5403C30.537 75.8708 34.8807 80.8778 39.3926 84.2582C43.9088 87.6418 49.2165 89.8505 55.0909 88.2985C60.8252 86.7836 65.8809 81.9885 70.5918 74.4186C79.9626 59.3606 85.999 39.2943 87.8355 25.1369C88.2981 21.5702 88.508 18.2795 88.4148 15.4675C88.325 12.7608 87.946 10.0843 86.9351 8.03634C86.412 6.97668 85.6002 5.84142 84.3271 5.07705C82.9663 4.25995 81.4112 4.06906 79.8952 4.39551C77.2353 4.96827 74.9159 7.06849 72.9663 9.35279Z" stroke="url(#paint2_linear_718_1059)" stroke-width="8"/>
<path d="M72.9663 9.35279L72.848 9.49142L72.7419 9.63952C71.5377 11.3201 69.2693 14.2044 66.3765 16.539C63.4448 18.905 60.3771 20.3092 57.379 20.0439C49.2919 19.3283 41.4544 19.2593 34.5021 19.9426C27.611 20.62 21.3092 22.0623 16.4714 24.5603C11.5873 27.0822 7.62697 31.0261 6.9269 36.7155C6.26389 42.1037 8.7202 47.8105 13.4188 53.7062C15.6176 56.4653 17.7761 59.3149 19.9281 62.1655C20.078 62.3641 20.228 62.5628 20.3779 62.7615C22.3697 65.4006 24.3604 68.0382 26.3335 70.5403C30.537 75.8708 34.8807 80.8778 39.3926 84.2582C43.9088 87.6418 49.2165 89.8505 55.0909 88.2985C60.8252 86.7836 65.8809 81.9885 70.5918 74.4186C79.9626 59.3606 85.999 39.2943 87.8355 25.1369C88.2981 21.5702 88.508 18.2795 88.4148 15.4675C88.325 12.7608 87.946 10.0843 86.9351 8.03634C86.412 6.97668 85.6002 5.84142 84.3271 5.07705C82.9663 4.25995 81.4112 4.06906 79.8952 4.39551C77.2353 4.96827 74.9159 7.06849 72.9663 9.35279Z" stroke="url(#paint3_radial_718_1059)" stroke-width="8"/>
<path d="M72.9663 9.35279L72.848 9.49142L72.7419 9.63952C71.5377 11.3201 69.2693 14.2044 66.3765 16.539C63.4448 18.905 60.3771 20.3092 57.379 20.0439C49.2919 19.3283 41.4544 19.2593 34.5021 19.9426C27.611 20.62 21.3092 22.0623 16.4714 24.5603C11.5873 27.0822 7.62697 31.0261 6.9269 36.7155C6.26389 42.1037 8.7202 47.8105 13.4188 53.7062C15.6176 56.4653 17.7761 59.3149 19.9281 62.1655C20.078 62.3641 20.228 62.5628 20.3779 62.7615C22.3697 65.4006 24.3604 68.0382 26.3335 70.5403C30.537 75.8708 34.8807 80.8778 39.3926 84.2582C43.9088 87.6418 49.2165 89.8505 55.0909 88.2985C60.8252 86.7836 65.8809 81.9885 70.5918 74.4186C79.9626 59.3606 85.999 39.2943 87.8355 25.1369C88.2981 21.5702 88.508 18.2795 88.4148 15.4675C88.325 12.7608 87.946 10.0843 86.9351 8.03634C86.412 6.97668 85.6002 5.84142 84.3271 5.07705C82.9663 4.25995 81.4112 4.06906 79.8952 4.39551C77.2353 4.96827 74.9159 7.06849 72.9663 9.35279Z" stroke="black" stroke-opacity="0.2" stroke-width="8"/>
</g>
<g style="mix-blend-mode:multiply" opacity="0.5">
<g style="mix-blend-mode:multiply">
<path fill-rule="evenodd" clip-rule="evenodd" d="M34.6308 42.4179H39.8777L52.0247 32.349C52.0247 32.349 52.1685 32.2795 52.2404 32.349C52.3122 32.3837 52.3841 32.4531 52.3841 32.5226V43.8762C54.7919 44.5012 56.5529 46.6191 56.5529 49.1537C56.5529 51.6883 54.7919 53.8063 52.3841 54.4313V65.7849C52.3841 65.7849 52.3482 65.9238 52.2404 65.9585C52.1685 65.9932 52.0607 65.9585 52.0247 65.9585L39.8777 55.8895H34.6308C33.948 55.8895 33.4089 55.3687 33.4089 54.709V43.6332C33.4089 42.9735 33.948 42.4527 34.6308 42.4527V42.4179ZM55.4029 41.5847C54.9357 41.3069 54.756 40.7166 55.0435 40.2653C55.331 39.8139 55.9419 39.6403 56.4091 39.9181C58.1341 40.8555 59.4998 42.2096 60.4342 43.8068C61.4045 45.4039 61.9076 47.2441 61.9076 49.119C61.9076 50.9939 61.3686 52.8341 60.4342 54.4313C59.4998 56.0284 58.0982 57.3825 56.4091 58.32C55.9419 58.5977 55.331 58.4241 55.0435 57.9728C54.756 57.5214 54.9357 56.9312 55.4029 56.6534C56.8045 55.8895 57.9185 54.7785 58.7091 53.4591C59.4998 52.1744 59.931 50.6467 59.931 49.0843C59.931 47.5219 59.4998 46.0289 58.7091 44.7095C57.9185 43.3901 56.8045 42.2791 55.4029 41.5152V41.5847ZM57.4873 38.0779C57.0201 37.8001 56.8404 37.2099 57.1279 36.7585C57.4154 36.3071 58.0263 36.1335 58.4935 36.4113C60.8654 37.7307 62.7342 39.6056 64.0639 41.793C65.3936 44.0498 66.1123 46.5497 66.1123 49.1537C66.1123 51.7578 65.3936 54.2924 64.0639 56.5145C62.7701 58.7019 60.8654 60.5768 58.4935 61.8962C58.0263 62.174 57.4154 62.0004 57.1279 61.549C56.8404 61.0976 57.0201 60.5074 57.4873 60.2296C59.5357 59.0838 61.1889 57.452 62.3389 55.5423C63.4889 53.6327 64.0998 51.4453 64.0998 49.1537C64.0998 46.8622 63.4889 44.7095 62.3748 42.8346C61.1889 40.8902 59.5357 39.2584 57.5232 38.1126L57.4873 38.0779Z" fill="#8E4266"/>
</g>
</g>
<path fill-rule="evenodd" clip-rule="evenodd" d="M34.6308 41.0295H39.8777L52.0247 30.9606C52.0247 30.9606 52.1685 30.8911 52.2404 30.9606C52.3122 30.9953 52.3841 31.0647 52.3841 31.1342V42.4878C54.7919 43.1128 56.5529 45.2307 56.5529 47.7653C56.5529 50.2999 54.7919 52.4179 52.3841 53.0428V64.3965C52.3841 64.3965 52.3482 64.5354 52.2404 64.5701C52.1685 64.6048 52.0607 64.5701 52.0247 64.5701L39.8777 54.5011H34.6308C33.948 54.5011 33.4089 53.9803 33.4089 53.3206V42.2447C33.4089 41.585 33.948 41.0642 34.6308 41.0642V41.0295ZM55.4029 40.1962C54.9357 39.9185 54.756 39.3282 55.0435 38.8768C55.331 38.4255 55.9419 38.2519 56.4091 38.5296C58.1341 39.4671 59.4998 40.8212 60.4342 42.4183C61.4045 44.0155 61.9076 45.8557 61.9076 47.7306C61.9076 49.6055 61.3686 51.4457 60.4342 53.0428C59.4998 54.64 58.0982 55.9941 56.4091 56.9315C55.9419 57.2093 55.331 57.0357 55.0435 56.5843C54.756 56.133 54.9357 55.5427 55.4029 55.265C56.8045 54.5011 57.9185 53.39 58.7091 52.0707C59.4998 50.786 59.931 49.2583 59.931 47.6959C59.931 46.1334 59.4998 44.6405 58.7091 43.3211C57.9185 42.0017 56.8045 40.8906 55.4029 40.1268V40.1962ZM57.4873 36.6894C57.0201 36.4117 56.8404 35.8214 57.1279 35.3701C57.4154 34.9187 58.0263 34.7451 58.4935 35.0229C60.8654 36.3422 62.7342 38.2172 64.0639 40.4046C65.3936 42.6614 66.1123 45.1613 66.1123 47.7653C66.1123 50.3694 65.3936 52.904 64.0639 55.1261C62.7701 57.3135 60.8654 59.1884 58.4935 60.5078C58.0263 60.7855 57.4154 60.6119 57.1279 60.1606C56.8404 59.7092 57.0201 59.1189 57.4873 58.8412C59.5357 57.6954 61.1889 56.0635 62.3389 54.1539C63.4889 52.2443 64.0998 50.0569 64.0998 47.7653C64.0998 45.4738 63.4889 43.3211 62.3748 41.4462C61.1889 39.5018 59.5357 37.8699 57.5232 36.7242L57.4873 36.6894Z" fill="url(#paint4_linear_718_1059)"/>
<defs>
<filter id="filter0_d_718_1059" x="0.835815" y="0.228027" width="93.5841" height="96.5959" filterUnits="userSpaceOnUse" color-interpolation-filters="sRGB">
<feFlood flood-opacity="0" result="BackgroundImageFix"/>
<feColorMatrix in="SourceAlpha" type="matrix" values="0 0 0 0 0 0 0 0 0 0 0 0 0 0 0 0 0 0 127 0" result="hardAlpha"/>
<feOffset dy="2"/>
<feGaussianBlur stdDeviation="1"/>
<feComposite in2="hardAlpha" operator="out"/>
<feColorMatrix type="matrix" values="0 0 0 0 0 0 0 0 0 0 0 0 0 0 0 0 0 0 1 0"/>
<feBlend mode="normal" in2="BackgroundImageFix" result="effect1_dropShadow_718_1059"/>
<feBlend mode="normal" in="SourceGraphic" in2="effect1_dropShadow_718_1059" result="shape"/>
</filter>
<linearGradient id="paint0_linear_718_1059" x1="88.0549" y1="6.45677" x2="17.6388" y2="63.7798" gradientUnits="userSpaceOnUse">
<stop stop-color="#575EFF"/>
<stop offset="1" stop-color="#E478FF"/>
</linearGradient>
<radialGradient id="paint1_radial_718_1059" cx="0" cy="0" r="1" gradientUnits="userSpaceOnUse" gradientTransform="translate(49.7075 48.3808) rotate(86.4409) scale(36.4818 36.6953)">
<stop stop-color="#50249E"/>
<stop offset="1" stop-color="#27005F" stop-opacity="0"/>
</radialGradient>
<linearGradient id="paint2_linear_718_1059" x1="88.0549" y1="6.45677" x2="17.6388" y2="63.7798" gradientUnits="userSpaceOnUse">
<stop stop-color="#575EFF"/>
<stop offset="1" stop-color="#E478FF"/>
</linearGradient>
<radialGradient id="paint3_radial_718_1059" cx="0" cy="0" r="1" gradientUnits="userSpaceOnUse" gradientTransform="translate(49.7075 48.3808) rotate(86.4409) scale(36.4818 36.6953)">
<stop stop-color="#50249E"/>
<stop offset="1" stop-color="#27005F" stop-opacity="0"/>
</radialGradient>
<linearGradient id="paint4_linear_718_1059" x1="49.7606" y1="64.5701" x2="49.7606" y2="30.8911" gradientUnits="userSpaceOnUse">
<stop stop-color="#FFE2F2"/>
<stop offset="1" stop-color="white"/>
</linearGradient>
</defs>
</svg>
