<svg width="32" height="33" viewBox="0 0 32 33" fill="none" xmlns="http://www.w3.org/2000/svg">
<path fill-rule="evenodd" clip-rule="evenodd" d="M15.0572 4.58071C15.5779 4.06001 16.4221 4.06001 16.9428 4.58071L23.6095 11.2474C24.1302 11.7681 24.1302 12.6123 23.6095 13.133C23.0888 13.6537 22.2446 13.6537 21.7239 13.133L17.3333 8.74247V21.5235C17.3333 22.2599 16.7364 22.8569 16 22.8569C15.2636 22.8569 14.6667 22.2599 14.6667 21.5235V8.74247L10.2761 13.133C9.75544 13.6537 8.91122 13.6537 8.39052 13.133C7.86983 12.6123 7.86983 11.7681 8.39052 11.2474L15.0572 4.58071ZM5.33333 21.5235C6.06971 21.5235 6.66667 22.1205 6.66667 22.8569V25.5235C6.66667 25.8771 6.80714 26.2163 7.05719 26.4663C7.30724 26.7164 7.64638 26.8569 8 26.8569H24C24.3536 26.8569 24.6928 26.7164 24.9428 26.4663C25.1929 26.2163 25.3333 25.8771 25.3333 25.5235V22.8569C25.3333 22.1205 25.9303 21.5235 26.6667 21.5235C27.403 21.5235 28 22.1205 28 22.8569V25.5235C28 26.5844 27.5786 27.6018 26.8284 28.3519C26.0783 29.1021 25.0609 29.5235 24 29.5235H8C6.93913 29.5235 5.92172 29.1021 5.17157 28.3519C4.42143 27.6018 4 26.5844 4 25.5235V22.8569C4 22.1205 4.59695 21.5235 5.33333 21.5235Z" fill="#9B83B7"/>
</svg>
