<svg width="340" height="398" viewBox="0 0 340 398" fill="none" xmlns="http://www.w3.org/2000/svg">
<path d="M118.814 229.551C118.603 228.986 118.44 228.527 118.324 228.19C142.978 228.915 156.615 240.154 164.111 251.236C167.902 256.839 170.128 262.413 171.406 266.586C172.045 268.672 172.447 270.406 172.688 271.616C172.803 272.191 172.882 272.648 172.932 272.967C152.971 273.79 139.312 262.586 130.597 251.053C126.201 245.236 123.075 239.349 121.048 234.915C120.035 232.698 119.298 230.847 118.814 229.551Z" fill="white" stroke="black"/>
<path d="M218.012 180.27C209.297 191.802 195.638 203.007 175.677 202.184C175.728 201.864 175.806 201.408 175.921 200.833C176.162 199.623 176.564 197.889 177.203 195.803C178.481 191.629 180.707 186.056 184.498 180.453C191.994 169.371 205.631 158.132 230.285 157.406C230.169 157.744 230.006 158.203 229.795 158.768C229.311 160.064 228.574 161.915 227.561 164.132C225.534 168.566 222.408 174.453 218.012 180.27Z" fill="white" stroke="black"/>
<path d="M219.608 303.209C210.893 314.741 197.235 325.945 177.273 325.123C177.324 324.803 177.402 324.346 177.517 323.771C177.758 322.561 178.16 320.827 178.799 318.741C180.077 314.568 182.304 308.995 186.094 303.391C193.591 292.309 207.227 281.07 231.881 280.345C231.765 280.683 231.602 281.142 231.392 281.706C230.908 283.002 230.17 284.854 229.157 287.07C227.13 291.504 224.004 297.391 219.608 303.209Z" fill="white" stroke="black"/>
<path d="M173.507 274.505C173.166 274.505 172.847 274.335 172.634 274.037C167.993 267.331 135.401 242.424 135.082 242.169C134.613 241.807 134.528 241.147 134.89 240.678C135.252 240.21 135.912 240.125 136.38 240.487C137.721 241.53 169.568 265.862 174.401 272.845C174.741 273.334 174.614 273.994 174.124 274.335C173.932 274.463 173.72 274.526 173.528 274.526L173.507 274.505Z" fill="#261D2A"/>
<path d="M181.468 395.315C180.936 395.315 180.467 394.91 180.403 394.357C180.233 392.611 163.714 218.816 179.956 84.7226C180.02 84.1478 180.574 83.722 181.148 83.7859C181.723 83.8498 182.149 84.3819 182.085 84.978C165.864 218.837 182.362 392.398 182.532 394.144C182.596 394.719 182.17 395.251 181.574 395.315C181.532 395.315 181.51 395.315 181.468 395.315Z" fill="#261D2A"/>
<path d="M172.441 64.3571L172.543 64.7221H172.922H172.943H173.428L173.443 64.238C173.626 58.4814 172.723 53.5549 171.034 49.3421C170.81 46.4135 170.704 43.1922 170.825 39.8146C171.298 26.53 175.253 10.9273 189.036 1.13397C189.05 1.14543 189.064 1.15732 189.079 1.16962C189.296 1.35082 189.614 1.62247 190.013 1.98128C190.812 2.69896 191.937 3.76485 193.235 5.15256C195.834 7.92909 199.121 11.9877 201.883 17.1173C207.316 27.2066 210.716 41.4346 202.825 58.2517C202.711 58.4732 202.624 58.6538 202.561 58.7884C202.519 58.877 202.488 58.9456 202.467 58.9929C202.462 59.004 202.458 59.0139 202.454 59.0226C202.45 59.0325 202.446 59.0409 202.443 59.0477L202.437 59.0627L202.435 59.067L202.435 59.0684C202.434 59.0689 202.434 59.0693 202.896 59.262L202.434 59.0693L203.345 59.4813C203.474 59.2178 203.599 58.9549 203.723 58.6926C203.755 58.6305 203.789 58.5649 203.825 58.496C204.152 57.875 204.661 56.9837 205.383 55.9139C206.826 53.7742 209.116 50.9226 212.501 48.0915C219.211 42.4782 230.251 36.9202 247.584 37.1896C247.634 37.4267 247.702 37.7744 247.772 38.2197C247.914 39.1278 248.067 40.4406 248.103 42.0486C248.175 45.2658 247.782 49.6548 245.925 54.3467C242.982 61.7784 236.33 70.0544 221.82 75.6146C218.881 76.0315 216.313 76.6654 214.255 77.293C212.556 77.8109 211.203 78.3249 210.272 78.7106C209.807 78.9035 209.446 79.0643 209.202 79.1775C209.079 79.2341 208.985 79.2788 208.922 79.3097C208.89 79.3252 208.866 79.3372 208.849 79.3454L208.83 79.355L208.824 79.3577L208.823 79.3585C208.823 79.3586 208.822 79.3587 208.841 79.3963C208.865 79.4445 208.921 79.5544 209.048 79.8049L208.822 79.3589L209.15 80.2945C214.014 79.2822 218.298 78.0275 222.069 76.5894C223.909 76.3326 225.895 76.1632 227.992 76.1378C238.726 76.0077 252.396 79.6458 264.267 94.7321C264.073 94.8418 263.824 94.9809 263.522 95.1445C262.713 95.5818 261.529 96.1946 260.031 96.8931C257.033 98.2905 252.782 100.029 247.767 101.393C239.514 103.638 229.238 104.857 219.091 101.914C218.798 101.781 218.512 101.653 218.233 101.53C216.526 100.781 215.087 100.239 214.074 99.8836C213.568 99.7057 213.167 99.5745 212.892 99.4875C212.755 99.444 212.649 99.4115 212.577 99.3897C212.541 99.3789 212.513 99.3707 212.494 99.3651L212.472 99.3588L212.467 99.3571L212.465 99.3566C212.465 99.3565 212.464 99.3564 212.326 99.837L212.464 99.3564L212.106 100.286C214.3 101.36 216.519 102.205 218.743 102.855C221.972 104.332 225.988 106.495 229.853 109.459C238.253 115.901 245.896 126.078 243.305 141.221C243.287 141.221 243.269 141.222 243.25 141.222C242.95 141.226 242.505 141.228 241.936 141.216C240.799 141.194 239.164 141.122 237.181 140.92C233.214 140.517 227.866 139.6 222.333 137.543C214.556 134.652 206.424 129.52 201.228 120.397C200.571 117.72 199.825 115.293 199.12 113.245C198.406 111.17 197.734 109.48 197.241 108.308C196.994 107.722 196.791 107.265 196.65 106.954C196.579 106.799 196.524 106.679 196.486 106.599C196.479 106.583 196.472 106.569 196.466 106.556C196.457 106.536 196.449 106.52 196.443 106.507L196.431 106.483L196.428 106.477L196.428 106.475C196.427 106.475 196.427 106.474 195.977 106.692L196.427 106.474L195.484 106.774C196.396 112.237 198.081 116.861 200.291 120.774C200.942 123.447 201.501 126.368 201.834 129.407C203.169 141.556 200.909 155.45 186.791 163.127C186.755 163.106 186.716 163.082 186.672 163.056C186.439 162.914 186.097 162.701 185.667 162.418C184.806 161.852 183.594 161.006 182.193 159.891C179.388 157.661 175.839 154.362 172.839 150.085C169.841 145.809 167.4 140.565 166.793 134.437C166.319 129.659 166.958 124.322 169.341 118.461C170.112 117.03 170.701 115.817 171.111 114.93C171.343 114.426 171.518 114.026 171.635 113.752C171.693 113.616 171.737 113.51 171.766 113.438C171.772 113.424 171.777 113.411 171.782 113.399C171.789 113.381 171.795 113.367 171.8 113.356L171.808 113.334L171.811 113.328L171.811 113.327C171.811 113.327 171.811 113.327 171.81 113.326C171.802 113.322 171.745 113.3 171.347 113.142L171.812 113.326L170.91 112.899C169.938 114.649 169.118 116.361 168.435 118.034C168.339 118.213 168.239 118.395 168.137 118.581C166.294 121.923 163.52 126.3 159.798 130.453C152.414 138.693 141.358 145.994 126.426 142.712C126.425 142.684 126.424 142.653 126.423 142.622C126.416 142.311 126.411 141.854 126.416 141.267C126.428 140.094 126.485 138.408 126.668 136.361C127.034 132.265 127.904 126.735 129.916 120.992C132.463 113.721 136.832 106.12 144.324 100.639C148.438 99.6168 152.006 98.2291 154.764 96.9617C156.683 96.08 158.212 95.2553 159.263 94.65C159.789 94.3473 160.195 94.0993 160.471 93.9263C160.609 93.8398 160.715 93.772 160.786 93.7255C160.822 93.7022 160.849 93.6843 160.868 93.672L160.889 93.6578L160.895 93.654L160.896 93.6529C160.897 93.6525 160.897 93.6523 160.618 93.2377L160.897 93.6523L160.524 92.7466C153.767 94.0411 148.305 96.5221 143.892 99.7157C142.372 100.088 140.778 100.408 139.124 100.652C126.978 102.44 111.567 100.106 98.2984 83.6295C98.3053 83.6251 98.3123 83.6207 98.3193 83.6162C98.637 83.4144 99.1068 83.1204 99.7126 82.7534C100.924 82.0193 102.68 80.9933 104.853 79.8278C109.199 77.4959 115.204 74.6101 121.851 72.3866C128.846 70.0465 136.484 68.4611 143.633 68.979C147.646 71.5216 151.525 73.3231 154.617 74.5451C156.604 75.3305 158.269 75.8775 159.439 76.2285C160.024 76.4041 160.485 76.5307 160.801 76.6137C160.959 76.6552 161.081 76.6858 161.164 76.7061C161.182 76.7106 161.199 76.7146 161.213 76.7181C161.231 76.7225 161.247 76.7262 161.259 76.7291L161.284 76.735L161.291 76.7365L161.292 76.737C161.293 76.7371 161.293 76.7372 161.405 76.2498L161.293 76.7372L162.954 77.1185L161.763 75.9003C156.777 70.8017 150.548 68.5211 143.958 68.0004C142.903 67.3259 141.84 66.5995 140.781 65.8182C130.676 58.362 120.938 45.9153 122.172 25.8231C122.21 25.8229 122.251 25.8228 122.293 25.8227C122.673 25.8221 123.232 25.8265 123.943 25.8462C125.367 25.8856 127.401 25.9868 129.839 26.2335C134.717 26.7273 141.199 27.8028 147.632 30.126C154.068 32.4499 160.427 36.0118 165.096 41.4606C167.096 43.7945 168.791 46.4802 170.049 49.5734C170.272 52.4114 170.604 54.972 170.95 57.1328C171.307 59.3571 171.678 61.1598 171.961 62.4078C172.103 63.0319 172.222 63.5174 172.306 63.8478C172.348 64.013 172.382 64.1394 172.405 64.225C172.416 64.2678 172.425 64.3003 172.431 64.3224L172.438 64.3477L172.44 64.3544L172.44 64.3562C172.441 64.3567 172.441 64.3571 172.922 64.2221L172.441 64.3571ZM171.559 54.3751C171.901 55.8663 172.152 57.4362 172.302 59.0891C172.182 58.4374 172.059 57.7307 171.938 56.9746C171.807 56.1627 171.679 55.294 171.559 54.3751ZM154.346 96.0531C152.306 96.9905 149.819 97.9933 146.996 98.8598C150.054 97.0105 153.565 95.4932 157.597 94.434C156.704 94.9157 155.612 95.4715 154.346 96.0531ZM154.984 73.6151C152.399 72.5935 149.26 71.1623 145.959 69.2261C150.951 69.932 155.634 71.7734 159.602 75.2333C158.463 74.8881 156.872 74.3613 154.984 73.6151Z" fill="white" stroke="black"/>
<path d="M181.043 114.59C197.468 114.59 210.782 101.275 210.782 84.8504C210.782 68.4259 197.468 55.1111 181.043 55.1111C164.618 55.1111 151.304 68.4259 151.304 84.8504C151.304 101.275 164.618 114.59 181.043 114.59Z" fill="white" stroke="black" stroke-width="0.5" stroke-miterlimit="10"/>
<path d="M155.943 93.5567C155.773 93.5567 155.624 93.5142 155.475 93.4503C154.943 93.1948 154.73 92.5562 155.007 92.024C160.904 80.2517 187.663 58.027 188.812 57.0904C189.259 56.7072 189.94 56.771 190.302 57.2394C190.685 57.6864 190.622 58.3676 190.153 58.7295C189.877 58.9637 162.585 81.6142 156.901 92.982C156.71 93.3652 156.348 93.578 155.943 93.578V93.5567Z" fill="#261D2A"/>
<path d="M162.33 105.265C162.074 105.265 161.798 105.18 161.606 104.988C161.18 104.584 161.159 103.924 161.563 103.477C162.798 102.157 192.112 70.8425 201.691 64.967C202.181 64.6476 202.841 64.8179 203.16 65.3289C203.458 65.8398 203.309 66.4784 202.798 66.7977C193.453 72.5029 163.416 104.605 163.096 104.925C162.883 105.159 162.607 105.265 162.309 105.265H162.33Z" fill="#261D2A"/>
<path d="M176.167 111.119C175.933 111.119 175.678 111.034 175.486 110.864C175.039 110.48 174.975 109.821 175.337 109.373C176.189 108.352 196.412 84.0833 209.824 78.7188C210.377 78.5059 210.995 78.7613 211.207 79.3148C211.42 79.8683 211.165 80.4857 210.611 80.6985C197.711 85.8502 177.189 110.48 176.976 110.715C176.763 110.97 176.465 111.098 176.167 111.098V111.119Z" fill="#261D2A"/>
<path d="M206.502 93.5568C206.034 93.5568 205.608 93.2587 205.481 92.7691C201.904 79.9963 173.187 60.0281 172.91 59.8365C172.42 59.4959 172.314 58.836 172.633 58.3464C172.974 57.8567 173.634 57.7503 174.123 58.0696C175.337 58.8999 203.756 78.6764 207.545 92.1943C207.694 92.7691 207.375 93.3439 206.8 93.5142C206.715 93.5355 206.609 93.5568 206.524 93.5568H206.502Z" fill="#261D2A"/>
<path d="M199.584 103.668C199.35 103.668 199.137 103.604 198.946 103.455C187.812 94.9827 163.629 67.7553 162.607 66.5845C162.224 66.1374 162.266 65.4775 162.692 65.073C163.139 64.6898 163.799 64.7111 164.204 65.1582C164.459 65.4349 189.281 93.3861 200.244 101.731C200.712 102.093 200.798 102.753 200.436 103.221C200.223 103.498 199.904 103.647 199.584 103.647V103.668Z" fill="#261D2A"/>
<path d="M189.472 111.119C189.472 111.119 189.281 111.119 189.196 111.077C173.017 106.755 155.262 78.8041 154.517 77.612C154.198 77.1224 154.347 76.4624 154.858 76.1431C155.348 75.8238 156.008 75.9728 156.327 76.4837C156.497 76.7605 174.379 104.925 189.77 109.012C190.345 109.161 190.686 109.736 190.515 110.31C190.388 110.779 189.962 111.098 189.494 111.098L189.472 111.119Z" fill="#261D2A"/>
<path d="M158.775 60.0284C158.477 60.0284 158.179 59.9006 157.966 59.6665C151.431 52.1092 144.129 47.8729 144.044 47.8303C143.533 47.5323 143.362 46.8937 143.639 46.3827C143.937 45.8718 144.576 45.7015 145.087 45.9783C145.406 46.1486 152.772 50.4062 159.563 58.2615C159.946 58.7085 159.903 59.3684 159.456 59.7729C159.265 59.9432 159.009 60.0284 158.754 60.0284H158.775Z" fill="#261D2A"/>
<path d="M186.45 53.3011C186.045 53.3011 185.662 53.0669 185.47 52.6625C183.98 49.3202 186.641 37.0371 187.173 34.6102C187.301 34.0354 187.876 33.6735 188.451 33.8013C189.025 33.929 189.387 34.5038 189.26 35.0786C188.046 40.4431 186.492 49.7034 187.408 51.7897C187.642 52.3219 187.408 52.9605 186.875 53.1947C186.726 53.2585 186.599 53.2798 186.45 53.2798V53.3011Z" fill="#261D2A"/>
<path d="M210.93 67.1385C210.611 67.1385 210.313 66.9894 210.1 66.734C209.738 66.2657 209.823 65.6057 210.271 65.2438C211.505 64.2646 222.532 55.7494 228.174 56.8776C228.749 56.9841 229.132 57.5589 229.004 58.1336C228.898 58.7084 228.301 59.0916 227.748 58.9639C223.746 58.1549 214.741 64.4349 211.59 66.9256C211.399 67.0746 211.165 67.1598 210.93 67.1598V67.1385Z" fill="#261D2A"/>
<path d="M234.709 92.3222C234.539 92.3222 234.369 92.2796 234.198 92.1945C229.196 89.5335 215.38 90.1934 215.231 90.1934C214.571 90.236 214.145 89.7676 214.124 89.1929C214.102 88.5968 214.55 88.1072 215.124 88.0859C215.72 88.0646 229.664 87.4047 235.199 90.3424C235.71 90.6192 235.923 91.2578 235.646 91.79C235.454 92.1519 235.092 92.3435 234.709 92.3435V92.3222Z" fill="#261D2A"/>
<path d="M221.936 120.359C221.808 120.359 221.659 120.337 221.531 120.273C221.063 120.082 210.164 115.462 206.843 109.906C206.545 109.395 206.694 108.757 207.205 108.437C207.694 108.139 208.354 108.288 208.674 108.799C211.654 113.759 222.255 118.251 222.362 118.294C222.894 118.528 223.171 119.145 222.937 119.677C222.766 120.082 222.362 120.337 221.957 120.337L221.936 120.359Z" fill="#261D2A"/>
<path d="M183.959 138.454C183.469 138.454 183.043 138.134 182.915 137.645C182.788 137.091 179.68 123.893 180.425 119.486C180.531 118.911 181.085 118.507 181.659 118.613C182.234 118.72 182.639 119.252 182.532 119.848C181.979 123.169 184.129 133.472 185.002 137.176C185.129 137.751 184.789 138.326 184.214 138.454C184.129 138.454 184.044 138.475 183.959 138.475V138.454Z" fill="#261D2A"/>
<path d="M143.873 121.763C143.873 121.763 143.66 121.763 143.554 121.721C143.001 121.55 142.681 120.954 142.852 120.401C144.342 115.547 154.56 109.161 155.731 108.458C156.242 108.16 156.88 108.309 157.2 108.82C157.498 109.331 157.349 109.97 156.859 110.289C153.9 112.098 145.96 117.591 144.895 121.039C144.746 121.487 144.342 121.785 143.873 121.785V121.763Z" fill="#261D2A"/>
<path d="M129.312 84.509C128.822 84.509 128.375 84.1471 128.269 83.6574C128.163 83.0827 128.524 82.5292 129.12 82.4014C130.462 82.146 142.426 79.9107 146.896 82.5292C147.407 82.8272 147.577 83.4871 147.279 83.9768C146.981 84.4664 146.321 84.658 145.832 84.3599C142.617 82.4866 132.974 83.8065 129.546 84.4877C129.482 84.4877 129.419 84.4877 129.333 84.4877L129.312 84.509Z" fill="#261D2A"/>
<path d="M176.699 326.661C176.422 326.661 176.124 326.555 175.911 326.32C175.507 325.895 175.549 325.213 175.975 324.809C176.933 323.915 199.754 302.861 208.971 297.177C209.461 296.879 210.121 297.028 210.44 297.518C210.738 298.029 210.589 298.667 210.1 298.987C201.073 304.543 177.678 326.15 177.444 326.363C177.231 326.555 176.975 326.64 176.72 326.64L176.699 326.661Z" fill="#261D2A"/>
<path d="M175.103 203.722C174.869 203.722 174.634 203.637 174.443 203.488C173.996 203.126 173.911 202.445 174.273 201.998C188.77 183.967 211.59 170.3 211.803 170.172C212.314 169.874 212.953 170.045 213.251 170.534C213.549 171.045 213.379 171.684 212.889 172.003C212.655 172.131 190.175 185.606 175.912 203.339C175.699 203.595 175.401 203.744 175.082 203.744L175.103 203.722Z" fill="#261D2A"/>
<path d="M222.898 347.646C222.986 347.385 223.117 347.013 223.296 346.549C223.675 345.564 224.272 344.16 225.138 342.496C226.871 339.167 229.68 334.801 233.979 330.656C242.475 322.463 256.845 315.083 280.406 318.369C280.24 318.673 280.012 319.082 279.724 319.58C279.051 320.742 278.047 322.389 276.728 324.323C274.09 328.193 270.194 333.204 265.163 337.781C255.186 346.86 240.809 354.187 222.898 347.646Z" fill="white" stroke="black"/>
<path d="M222.277 349.013C221.958 349.013 221.638 348.864 221.425 348.608C221.063 348.14 221.149 347.48 221.617 347.118C228.727 341.605 255.444 328.917 256.593 328.363C257.104 328.108 257.764 328.342 258.019 328.874C258.275 329.407 258.041 330.045 257.509 330.301C257.232 330.428 229.855 343.435 222.937 348.8C222.745 348.949 222.511 349.013 222.277 349.013Z" fill="#261D2A"/>
<path d="M222.32 397.443C221.745 397.443 221.277 396.996 221.255 396.421C221.255 396.081 219.978 362.744 224.065 324.979C229.558 274.1 241.628 239.848 259.872 223.158C260.319 222.754 260.979 222.796 261.383 223.222C261.788 223.648 261.745 224.329 261.319 224.733C218.616 263.733 223.342 395.016 223.384 396.336C223.405 396.932 222.958 397.422 222.362 397.443C222.362 397.443 222.341 397.443 222.32 397.443Z" fill="#261D2A"/>
<path d="M254.371 206.323L254.47 207.382L255.223 206.631L255.244 206.609L255.348 206.505L255.379 206.361C256.587 200.74 256.583 195.739 255.679 191.298C255.983 188.377 256.457 185.19 257.18 181.889C260.027 168.904 266.713 154.261 282.027 147.092C282.038 147.105 282.05 147.12 282.062 147.134C282.243 147.351 282.507 147.675 282.836 148.1C283.493 148.949 284.409 150.198 285.438 151.796C287.496 154.992 290.004 159.573 291.802 165.114C295.339 176.012 296.135 190.621 285.357 205.761C285.207 205.958 285.088 206.12 285.003 206.241C284.946 206.32 284.903 206.382 284.874 206.425C284.86 206.446 284.848 206.463 284.841 206.475L284.832 206.488L284.829 206.492L284.828 206.493C284.828 206.494 284.828 206.494 285.247 206.766L284.828 206.494L285.65 207.063C285.823 206.827 285.994 206.591 286.162 206.355C286.205 206.3 286.25 206.241 286.298 206.18C286.731 205.627 287.392 204.842 288.292 203.919C290.094 202.073 292.858 199.678 296.694 197.499C304.301 193.178 316.16 189.685 333.175 193.045C333.182 193.287 333.186 193.641 333.175 194.092C333.152 195.012 333.067 196.331 332.814 197.92C332.309 201.099 331.137 205.348 328.469 209.631C324.246 216.411 316.229 223.353 300.983 226.221C298.002 226.101 295.349 226.265 293.203 226.515C291.439 226.721 290.016 226.984 289.031 227.197C288.539 227.303 288.156 227.397 287.895 227.465C287.764 227.498 287.664 227.526 287.596 227.545C287.562 227.554 287.536 227.562 287.518 227.567L287.497 227.573L287.492 227.574L287.49 227.575C287.489 227.575 287.489 227.575 287.632 228.054L287.489 227.575L287.644 228.554C292.625 228.432 297.076 227.965 301.053 227.224C302.898 227.302 304.869 227.491 306.923 227.84C317.506 229.635 330.305 235.666 339.291 252.642C339.081 252.716 338.81 252.807 338.484 252.914C337.61 253.199 336.335 253.589 334.736 254.007C331.536 254.844 327.041 255.791 321.863 256.234C313.332 256.963 302.99 256.321 293.527 251.601C293.271 251.423 293.021 251.252 292.776 251.087C291.231 250.045 289.914 249.254 288.981 248.722C288.514 248.456 288.144 248.256 287.889 248.121C287.762 248.053 287.663 248.002 287.596 247.968C287.574 247.957 287.556 247.948 287.541 247.94L287.519 247.929L287.499 247.919L287.494 247.916L287.492 247.915C287.492 247.915 287.491 247.915 287.27 248.363L287.491 247.915L286.973 248.766C288.93 250.207 290.953 251.431 293.016 252.464C295.932 254.496 299.506 257.35 302.788 260.969C309.898 268.81 315.596 280.189 310.338 294.618C310.321 294.616 310.303 294.613 310.285 294.61C309.988 294.56 309.55 294.481 308.993 294.368C307.877 294.142 306.281 293.778 304.366 293.224C300.535 292.116 295.437 290.254 290.362 287.239C283.228 283.002 276.149 276.497 272.672 266.597C272.505 263.845 272.206 261.325 271.88 259.185C271.55 257.015 271.192 255.232 270.916 253.99C270.778 253.37 270.661 252.884 270.577 252.553C270.536 252.387 270.503 252.26 270.48 252.174C270.469 252.131 270.46 252.098 270.454 252.075L270.447 252.05L270.445 252.043L270.445 252.041C270.444 252.041 270.444 252.041 269.962 252.174L270.444 252.041L269.462 252.166C269.38 257.704 270.209 262.554 271.682 266.799C271.844 269.547 271.87 272.521 271.654 275.571C270.789 287.761 266.076 301.024 250.81 306.045C250.779 306.017 250.744 305.987 250.706 305.953C250.502 305.772 250.204 305.501 249.831 305.145C249.086 304.434 248.046 303.384 246.867 302.036C244.509 299.339 241.608 295.457 239.424 290.712C237.241 285.967 235.779 280.372 236.278 274.236C236.667 269.449 238.252 264.312 241.648 258.972C242.659 257.708 243.453 256.624 244.013 255.828C244.332 255.373 244.576 255.012 244.739 254.763C244.821 254.639 244.884 254.543 244.926 254.477C244.946 254.445 244.962 254.42 244.973 254.402L244.986 254.383L244.989 254.378L244.99 254.376C244.99 254.376 244.99 254.375 244.566 254.111L244.99 254.375L244.179 253.794C242.914 255.337 241.803 256.87 240.834 258.389C240.704 258.551 240.57 258.717 240.433 258.885C238.02 261.842 234.507 265.651 230.1 269.07C221.358 275.852 209.171 281.054 195.068 275.153C195.073 275.125 195.077 275.095 195.082 275.063C195.131 274.757 195.207 274.306 195.317 273.73C195.538 272.578 195.896 270.929 196.442 268.948C197.535 264.984 199.38 259.701 202.387 254.411C206.193 247.718 211.85 241.027 220.202 236.977C224.443 236.709 228.212 235.981 231.158 235.226C233.204 234.702 234.856 234.165 235.998 233.757C236.569 233.553 237.014 233.382 237.316 233.261C237.467 233.201 237.583 233.153 237.662 233.12C237.701 233.104 237.731 233.091 237.752 233.082L237.775 233.072L237.781 233.069L237.783 233.068C237.784 233.068 237.784 233.068 237.583 232.61L237.784 233.068L237.579 232.11C230.688 232.173 224.862 233.637 219.942 235.991C218.388 236.084 216.771 236.113 215.109 236.057C202.839 235.642 188.091 230.586 177.977 211.998C177.985 211.995 177.992 211.992 178 211.989C178.349 211.847 178.864 211.642 179.526 211.389C180.85 210.884 182.762 210.189 185.108 209.432C189.803 207.916 196.23 206.152 203.168 205.154C210.466 204.104 218.259 203.911 225.194 205.696C228.686 208.915 232.178 211.38 235.001 213.136C236.815 214.264 238.354 215.1 239.442 215.654C239.986 215.931 240.417 216.138 240.713 216.277C240.861 216.346 240.976 216.398 241.054 216.433C241.093 216.45 241.123 216.463 241.143 216.472L241.166 216.482L241.173 216.485L241.174 216.486C241.175 216.486 241.175 216.486 241.373 216.027L241.175 216.486L242.739 217.157L241.787 215.747C237.8 209.838 232.081 206.481 225.689 204.791C224.772 203.939 223.857 203.034 222.955 202.076C214.351 192.933 207.003 178.945 211.814 159.396C211.852 159.403 211.892 159.41 211.934 159.417C212.308 159.485 212.856 159.589 213.553 159.736C214.946 160.03 216.929 160.494 219.283 161.173C223.995 162.532 230.178 164.751 236.092 168.188C242.008 171.627 247.626 176.269 251.244 182.464C252.797 185.123 253.985 188.074 254.669 191.349C254.379 194.182 254.247 196.761 254.2 198.949C254.152 201.201 254.195 203.041 254.249 204.32C254.277 204.959 254.307 205.458 254.331 205.798C254.342 205.968 254.352 206.099 254.36 206.187C254.363 206.231 254.366 206.265 254.368 206.287L254.371 206.314L254.371 206.321L254.371 206.322C254.371 206.323 254.371 206.323 254.869 206.277L254.371 206.323ZM230.91 234.258C228.727 234.817 226.09 235.36 223.144 235.707C226.493 234.431 230.231 233.565 234.401 233.245C233.437 233.559 232.261 233.911 230.91 234.258ZM235.529 212.286C233.169 210.819 230.337 208.849 227.436 206.353C232.224 207.94 236.501 210.589 239.783 214.705C238.724 214.162 237.254 213.359 235.529 212.286ZM255.2 198.971C255.217 198.153 255.247 197.28 255.292 196.36C255.359 197.873 255.325 199.446 255.179 201.081C255.178 200.428 255.184 199.723 255.2 198.971Z" fill="white" stroke="black"/>
<path d="M259.573 258.283C275.998 258.283 289.313 244.969 289.313 228.544C289.313 212.119 275.998 198.805 259.573 198.805C243.149 198.805 229.834 212.119 229.834 228.544C229.834 244.969 243.149 258.283 259.573 258.283Z" fill="white" stroke="black" stroke-width="0.5" stroke-miterlimit="10"/>
<path d="M233.518 232.632C233.305 232.632 233.07 232.568 232.879 232.419C232.411 232.057 232.304 231.397 232.666 230.928C240.564 220.391 270.899 203.339 272.177 202.615C272.688 202.317 273.326 202.509 273.624 203.02C273.901 203.531 273.731 204.191 273.22 204.467C272.9 204.638 241.99 222.03 234.369 232.206C234.156 232.483 233.837 232.632 233.518 232.632Z" fill="#261D2A"/>
<path d="M237.71 245.297C237.391 245.297 237.072 245.148 236.859 244.871C236.497 244.403 236.603 243.743 237.072 243.381C238.541 242.295 272.963 216.75 283.458 212.705C284.012 212.492 284.629 212.769 284.842 213.322C285.055 213.876 284.778 214.493 284.225 214.706C274.006 218.644 238.69 244.85 238.349 245.105C238.157 245.254 237.945 245.318 237.71 245.318V245.297Z" fill="#261D2A"/>
<path d="M250.271 253.537C249.973 253.537 249.675 253.409 249.462 253.153C249.079 252.706 249.143 252.025 249.59 251.663C250.612 250.812 274.859 230.567 289.015 227.693C289.59 227.586 290.143 227.948 290.271 228.523C290.378 229.098 290.016 229.651 289.441 229.779C275.817 232.547 251.208 253.089 250.973 253.302C250.782 253.473 250.526 253.558 250.292 253.558L250.271 253.537Z" fill="#261D2A"/>
<path d="M283.246 241.678C282.714 241.678 282.246 241.274 282.182 240.72C280.947 227.501 256.274 202.721 256.04 202.487C255.614 202.061 255.614 201.401 256.04 200.976C256.466 200.55 257.126 200.571 257.551 200.976C258.595 202.019 283.012 226.543 284.311 240.529C284.374 241.104 283.927 241.636 283.353 241.678C283.31 241.678 283.289 241.678 283.246 241.678Z" fill="#261D2A"/>
<path d="M274.646 250.407C274.348 250.407 274.071 250.3 273.858 250.066C264.428 239.72 245.502 208.618 244.715 207.298C244.417 206.787 244.566 206.149 245.077 205.83C245.588 205.51 246.226 205.68 246.546 206.191C246.737 206.511 266.152 238.464 275.455 248.64C275.859 249.065 275.817 249.747 275.391 250.151C275.178 250.343 274.923 250.428 274.667 250.428L274.646 250.407Z" fill="#261D2A"/>
<path d="M263.363 255.92C263.214 255.92 263.065 255.878 262.916 255.814C247.759 248.661 235.305 217.985 234.794 216.686C234.582 216.133 234.837 215.516 235.39 215.303C235.944 215.09 236.561 215.345 236.774 215.899C236.902 216.218 249.441 247.107 263.831 253.898C264.363 254.153 264.598 254.792 264.342 255.324C264.172 255.707 263.789 255.942 263.384 255.942L263.363 255.92Z" fill="#261D2A"/>
<path d="M242.309 200.146C241.947 200.146 241.585 199.954 241.393 199.614C236.327 190.992 229.898 185.521 229.834 185.478C229.387 185.095 229.323 184.435 229.706 183.988C230.089 183.541 230.771 183.477 231.218 183.86C231.494 184.095 237.987 189.608 243.245 198.549C243.543 199.06 243.373 199.699 242.862 199.997C242.692 200.103 242.5 200.146 242.33 200.146H242.309Z" fill="#261D2A"/>
<path d="M270.75 198.485C270.26 198.485 269.835 198.166 269.707 197.676C268.834 194.121 273.645 182.519 274.624 180.22C274.859 179.688 275.476 179.432 276.029 179.645C276.562 179.879 276.817 180.497 276.583 181.05C274.433 186.096 271.24 194.951 271.772 197.165C271.9 197.74 271.559 198.315 270.984 198.443C270.899 198.443 270.814 198.464 270.729 198.464L270.75 198.485Z" fill="#261D2A"/>
<path d="M292.357 216.474C291.974 216.474 291.612 216.261 291.42 215.899C291.143 215.388 291.335 214.728 291.867 214.451C293.251 213.706 305.619 207.298 310.984 209.427C311.537 209.64 311.793 210.257 311.58 210.811C311.367 211.364 310.75 211.62 310.196 211.407C306.449 209.917 296.423 214.451 292.868 216.325C292.697 216.41 292.527 216.452 292.378 216.452L292.357 216.474Z" fill="#261D2A"/>
<path d="M311.239 245.511C311.005 245.511 310.771 245.425 310.579 245.276C306.13 241.764 292.421 239.933 292.293 239.912C291.718 239.827 291.292 239.294 291.378 238.72C291.463 238.124 292.016 237.719 292.57 237.804C293.166 237.889 307.003 239.741 311.899 243.616C312.368 243.978 312.431 244.659 312.07 245.106C311.857 245.362 311.559 245.511 311.239 245.511Z" fill="#261D2A"/>
<path d="M293.635 270.8C293.443 270.8 293.23 270.736 293.06 270.63C292.634 270.353 282.757 263.86 280.458 257.793C280.245 257.24 280.521 256.622 281.075 256.431C281.628 256.218 282.246 256.495 282.437 257.048C284.481 262.455 294.103 268.778 294.21 268.842C294.699 269.161 294.848 269.821 294.529 270.31C294.316 270.63 293.975 270.8 293.635 270.8Z" fill="#261D2A"/>
<path d="M253.059 281.806C252.506 281.806 252.016 281.359 251.995 280.806C251.974 280.231 251.271 266.713 252.783 262.498C252.974 261.945 253.591 261.647 254.145 261.86C254.698 262.051 254.975 262.669 254.784 263.222C253.655 266.394 253.911 276.91 254.102 280.699C254.124 281.296 253.677 281.785 253.102 281.828C253.102 281.828 253.059 281.828 253.038 281.828L253.059 281.806Z" fill="#261D2A"/>
<path d="M216.593 258.219C216.423 258.219 216.252 258.177 216.103 258.092C215.571 257.815 215.38 257.176 215.656 256.665C217.998 252.152 229.196 247.703 230.473 247.213C231.026 247 231.644 247.277 231.857 247.831C232.069 248.384 231.793 249.002 231.239 249.214C228.003 250.47 219.212 254.43 217.551 257.666C217.359 258.028 216.998 258.241 216.614 258.241L216.593 258.219Z" fill="#261D2A"/>
<path d="M225.705 222.009C225.449 222.009 225.215 221.924 225.002 221.754C222.192 219.348 212.464 218.922 208.951 218.965C208.376 218.965 207.887 218.496 207.865 217.922C207.844 217.347 208.334 216.857 208.909 216.836C210.271 216.836 222.426 216.772 226.365 220.136C226.812 220.519 226.854 221.2 226.471 221.647C226.258 221.903 225.96 222.009 225.662 222.009H225.705Z" fill="#261D2A"/>
<path d="M84.3842 309.538C84.1142 308.988 83.9031 308.539 83.7514 308.208C108.357 306.657 122.204 314.87 129.913 323.445C133.814 327.784 136.159 332.232 137.529 335.595C138.213 337.276 138.653 338.684 138.922 339.669C139.054 340.153 139.144 340.534 139.202 340.796C121.3 347.345 107.444 339.202 97.9807 329.28C93.2141 324.283 89.5823 318.85 87.141 314.663C85.921 312.571 84.9998 310.792 84.3842 309.538Z" fill="white" stroke="black"/>
<path d="M139.777 342.18C139.479 342.18 139.203 342.052 138.99 341.818C133.519 335.645 103.418 320.211 103.12 320.062C102.587 319.785 102.396 319.147 102.651 318.636C102.928 318.103 103.567 317.912 104.077 318.167C105.333 318.806 134.839 333.942 140.586 340.413C140.97 340.86 140.948 341.52 140.501 341.925C140.31 342.095 140.054 342.201 139.799 342.201L139.777 342.18Z" fill="#261D2A"/>
<path d="M141.906 397.529C141.906 397.529 141.821 397.529 141.778 397.529C141.203 397.465 140.778 396.933 140.841 396.337C140.969 395.272 152.571 289.343 70.8677 202.403C70.4632 201.977 70.4845 201.296 70.9102 200.892C71.336 200.487 72.0172 200.508 72.4217 200.934C154.828 288.62 143.077 395.507 142.949 396.571C142.885 397.103 142.417 397.508 141.884 397.508L141.906 397.529Z" fill="#261D2A"/>
<path d="M74.8782 188.53L74.9805 188.895H75.3596H75.3809H75.8653L75.8806 188.411C76.063 182.655 75.1606 177.728 73.4718 173.515C73.2471 170.587 73.1419 167.365 73.2621 163.988C73.7352 150.703 77.6903 135.101 91.4739 125.307C91.4876 125.319 91.5019 125.331 91.5166 125.343C91.7335 125.524 92.0511 125.796 92.4504 126.155C93.2492 126.872 94.3742 127.938 95.6728 129.326C98.2712 132.102 101.559 136.161 104.321 141.291C109.753 151.38 113.153 165.608 105.262 182.425C105.149 182.647 105.061 182.827 104.998 182.962C104.957 183.05 104.926 183.119 104.905 183.166C104.894 183.19 104.886 183.208 104.881 183.221L104.875 183.236L104.873 183.24L104.872 183.242C104.872 183.242 104.872 183.243 105.333 183.435L104.872 183.243L105.782 183.655C105.911 183.391 106.037 183.128 106.16 182.866C106.192 182.804 106.226 182.738 106.262 182.669C106.59 182.048 107.099 181.157 107.82 180.087C109.263 177.948 111.554 175.096 114.938 172.265C121.649 166.652 132.688 161.094 150.021 161.363C150.072 161.6 150.139 161.948 150.209 162.393C150.352 163.301 150.504 164.614 150.54 166.222C150.613 169.439 150.22 173.828 148.362 178.52C145.42 185.952 138.767 194.228 124.258 199.788C121.319 200.205 118.751 200.839 116.692 201.466C114.994 201.984 113.64 202.498 112.71 202.884C112.244 203.077 111.884 203.238 111.639 203.351C111.517 203.407 111.423 203.452 111.359 203.483C111.327 203.499 111.303 203.51 111.286 203.519L111.267 203.528L111.262 203.531L111.26 203.532C111.26 203.532 111.259 203.532 111.485 203.978L111.259 203.532L111.587 204.468C116.451 203.456 120.735 202.201 124.507 200.763C126.347 200.506 128.333 200.337 130.43 200.311C141.164 200.181 154.834 203.819 166.705 218.905C166.511 219.015 166.261 219.154 165.959 219.318C165.151 219.755 163.967 220.368 162.468 221.066C159.471 222.464 155.219 224.202 150.205 225.566C141.952 227.811 131.675 229.031 121.529 226.088C121.236 225.954 120.949 225.826 120.67 225.703C118.963 224.955 117.525 224.413 116.512 224.057C116.005 223.879 115.605 223.748 115.33 223.661C115.192 223.617 115.086 223.585 115.014 223.563C114.978 223.552 114.951 223.544 114.932 223.538L114.91 223.532L114.904 223.53L114.902 223.53C114.902 223.53 114.902 223.53 114.764 224.01L114.902 223.53L114.544 224.459C116.737 225.533 118.957 226.379 121.181 227.028C124.409 228.505 128.425 230.668 132.291 233.633C140.691 240.074 148.334 250.251 145.742 265.394C145.725 265.395 145.707 265.395 145.688 265.395C145.387 265.399 144.943 265.401 144.374 265.39C143.236 265.368 141.601 265.295 139.618 265.094C135.651 264.691 130.304 263.773 124.77 261.716C116.993 258.826 108.862 253.693 103.666 244.571C103.009 241.893 102.262 239.467 101.558 237.419C100.844 235.343 100.172 233.653 99.6781 232.481C99.4311 231.895 99.2286 231.439 99.0874 231.127C99.0168 230.972 98.9616 230.853 98.9238 230.772C98.9164 230.756 98.9097 230.742 98.9037 230.729C98.8942 230.709 98.8865 230.693 98.8804 230.68L98.869 230.656L98.866 230.65L98.8651 230.648C98.8649 230.648 98.8648 230.648 98.4145 230.865L98.8648 230.648L97.9214 230.947C98.8339 236.41 100.519 241.034 102.728 244.947C103.379 247.621 103.938 250.542 104.272 253.581C105.607 265.729 103.347 279.623 89.2285 287.301C89.1928 287.279 89.1532 287.256 89.1099 287.229C88.8764 287.088 88.5344 286.874 88.1042 286.591C87.2437 286.025 86.0313 285.179 84.6301 284.065C81.8259 281.834 78.276 278.536 75.2767 274.258C72.2783 269.982 69.8375 264.739 69.2303 258.61C68.7569 253.833 69.3955 248.496 71.7785 242.635C72.5497 241.203 73.1389 239.99 73.548 239.103C73.7808 238.599 73.9553 238.2 74.072 237.926C74.1062 237.846 74.1354 237.776 74.1597 237.718C74.1769 237.677 74.1916 237.641 74.2038 237.611C74.2186 237.575 74.2297 237.548 74.2373 237.529L74.2459 237.507L74.2482 237.502L74.2489 237.5C74.2491 237.5 74.2492 237.499 73.7843 237.315L74.2492 237.499L73.3471 237.073C72.3758 238.822 71.5555 240.534 70.8729 242.207C70.7763 242.386 70.6768 242.568 70.5744 242.754C68.7311 246.096 65.9579 250.473 62.2357 254.627C54.8514 262.867 43.7951 270.167 28.8632 266.886C28.8624 266.857 28.8617 266.827 28.8609 266.795C28.8539 266.485 28.8481 266.027 28.8538 265.44C28.8652 264.267 28.9223 262.581 29.1055 260.534C29.4718 256.438 30.3418 250.909 32.3534 245.166C34.9002 237.894 39.269 230.294 46.7618 224.812C50.8754 223.79 54.4434 222.402 57.2015 221.135C59.1201 220.253 60.6494 219.429 61.7006 218.823C62.2263 218.521 62.6327 218.273 62.9087 218.1C63.0466 218.013 63.152 217.945 63.2235 217.899C63.2592 217.876 63.2864 217.858 63.305 217.845L63.3263 217.831L63.3321 217.827L63.3337 217.826C63.3342 217.826 63.3346 217.826 63.0551 217.411L63.3346 217.826L62.961 216.92C56.2042 218.214 50.7427 220.695 46.3296 223.889C44.8096 224.261 43.2155 224.581 41.5612 224.825C29.4156 226.614 14.0044 224.279 0.735881 207.803C0.742784 207.798 0.749763 207.794 0.756817 207.79C1.07452 207.588 1.54426 207.294 2.15012 206.927C3.36191 206.193 5.11772 205.167 7.29004 204.001C11.6363 201.669 17.642 198.783 24.2886 196.56C31.2837 194.22 38.9216 192.634 46.0705 193.152C50.0831 195.695 53.9621 197.496 57.0544 198.718C59.0417 199.504 60.7064 200.051 61.8761 200.402C62.461 200.577 62.9224 200.704 63.2387 200.787C63.3968 200.829 63.5187 200.859 63.6016 200.879C63.6198 200.884 63.6362 200.888 63.6506 200.891C63.669 200.896 63.6843 200.9 63.6965 200.902L63.7214 200.908L63.7281 200.91L63.73 200.91C63.7305 200.91 63.7309 200.91 63.8428 200.423L63.7309 200.91L65.3916 201.292L64.2003 200.074C59.2141 194.975 52.9858 192.694 46.3953 192.174C45.3407 191.499 44.2778 190.773 43.2188 189.992C33.1134 182.535 23.3759 170.089 24.6094 149.996C24.6476 149.996 24.6881 149.996 24.7309 149.996C25.1107 149.995 25.6693 150 26.3809 150.02C27.8041 150.059 29.8383 150.16 32.2762 150.407C37.1548 150.901 43.6362 151.976 50.0699 154.299C56.5056 156.623 62.8648 160.185 67.5338 165.634C69.5336 167.968 71.2284 170.654 72.4867 173.747C72.7091 176.585 73.0414 179.145 73.3877 181.306C73.7442 183.53 74.1159 185.333 74.3988 186.581C74.5403 187.205 74.6596 187.691 74.7439 188.021C74.786 188.186 74.8193 188.313 74.8422 188.398C74.8537 188.441 74.8625 188.474 74.8686 188.496L74.8756 188.521L74.8774 188.528L74.8779 188.53C74.8781 188.53 74.8782 188.53 75.3596 188.395L74.8782 188.53ZM73.9961 178.549C74.338 180.04 74.5893 181.609 74.7396 183.262C74.6192 182.611 74.4963 181.904 74.3751 181.148C74.245 180.336 74.1169 179.467 73.9961 178.549ZM56.7839 220.226C54.7439 221.164 52.2566 222.167 49.433 223.033C52.4913 221.184 56.0026 219.667 60.034 218.607C59.1416 219.089 58.0494 219.645 56.7839 220.226ZM57.4219 197.788C54.8368 196.767 51.6975 195.336 48.3964 193.399C53.3882 194.105 58.0711 195.947 62.0394 199.407C60.9003 199.061 59.31 198.535 57.4219 197.788Z" fill="white" stroke="black"/>
<path d="M83.9811 239.21C100.406 239.21 113.72 225.896 113.72 209.471C113.72 193.046 100.406 179.732 83.9811 179.732C67.5565 179.732 54.2417 193.046 54.2417 209.471C54.2417 225.896 67.5565 239.21 83.9811 239.21Z" fill="white" stroke="black" stroke-width="0.5" stroke-miterlimit="10"/>
<path d="M58.8829 218.177C58.7125 218.177 58.5635 218.135 58.4145 218.071C57.8823 217.815 57.6694 217.177 57.9462 216.644C63.843 204.872 90.602 182.647 91.7516 181.711C92.1986 181.328 92.8798 181.391 93.2417 181.86C93.6249 182.307 93.561 182.988 93.0927 183.35C92.816 183.584 65.5247 206.235 59.8408 217.602C59.6492 217.986 59.2873 218.198 58.8829 218.198V218.177Z" fill="#261D2A"/>
<path d="M65.2693 229.886C65.0138 229.886 64.7371 229.801 64.5455 229.609C64.1197 229.205 64.0984 228.545 64.5029 228.098C65.7376 226.778 95.0512 195.463 104.631 189.588C105.12 189.29 105.78 189.439 106.1 189.95C106.398 190.46 106.249 191.099 105.738 191.418C96.3924 197.124 66.355 229.226 66.0357 229.545C65.8228 229.779 65.546 229.886 65.248 229.886H65.2693Z" fill="#261D2A"/>
<path d="M79.1068 235.74C78.8726 235.74 78.6172 235.655 78.4256 235.484C77.9785 235.101 77.9147 234.441 78.2766 233.994C79.1281 232.972 99.3517 208.704 112.763 203.339C113.295 203.126 113.934 203.382 114.147 203.935C114.36 204.489 114.104 205.106 113.551 205.319C100.65 210.471 80.1286 235.101 79.9157 235.335C79.7029 235.591 79.4048 235.718 79.1068 235.718V235.74Z" fill="#261D2A"/>
<path d="M109.442 218.177C108.974 218.177 108.548 217.879 108.42 217.389C104.844 204.617 76.1265 184.648 75.8498 184.457C75.3602 184.116 75.2537 183.456 75.573 182.967C75.9136 182.477 76.5736 182.371 77.0632 182.69C78.2766 183.52 106.696 203.297 110.485 216.815C110.634 217.389 110.315 217.964 109.74 218.135C109.655 218.156 109.549 218.177 109.464 218.177H109.442Z" fill="#261D2A"/>
<path d="M102.523 228.289C102.289 228.289 102.076 228.225 101.884 228.076C90.7504 219.604 66.5672 192.376 65.5454 191.205C65.1622 190.758 65.2048 190.098 65.6305 189.694C66.0776 189.311 66.7375 189.332 67.142 189.779C67.3974 190.056 92.2193 218.007 103.183 226.352C103.651 226.714 103.736 227.374 103.374 227.842C103.161 228.119 102.842 228.268 102.523 228.268V228.289Z" fill="#261D2A"/>
<path d="M92.4113 235.74C92.4113 235.74 92.2197 235.74 92.1345 235.697C75.9556 231.376 58.2014 203.425 57.4563 202.233C57.137 201.743 57.286 201.083 57.797 200.764C58.2866 200.444 58.9465 200.593 59.2658 201.104C59.4361 201.381 77.3181 229.545 92.7093 233.632C93.2841 233.781 93.6247 234.356 93.4544 234.931C93.3267 235.399 92.9009 235.719 92.4326 235.719L92.4113 235.74Z" fill="#261D2A"/>
<path d="M61.7349 184.649C61.4369 184.649 61.1388 184.521 60.926 184.287C54.3905 176.73 47.0887 172.493 47.0036 172.451C46.4927 172.153 46.3224 171.514 46.5991 171.003C46.8971 170.492 47.5358 170.322 48.0467 170.599C48.366 170.769 55.7317 175.027 62.5226 182.882C62.9057 183.329 62.8632 183.989 62.4161 184.393C62.2245 184.564 61.9691 184.649 61.7136 184.649H61.7349Z" fill="#261D2A"/>
<path d="M89.4096 177.9C89.0051 177.9 88.6219 177.666 88.4303 177.262C86.9402 173.92 89.6012 161.636 90.1334 159.21C90.2611 158.635 90.8359 158.273 91.4107 158.401C91.9854 158.528 92.3473 159.103 92.2196 159.678C91.0062 165.043 89.4522 174.303 90.3888 176.389C90.623 176.921 90.3888 177.56 89.8566 177.794C89.7076 177.858 89.5799 177.879 89.4309 177.879L89.4096 177.9Z" fill="#261D2A"/>
<path d="M113.89 191.738C113.571 191.738 113.273 191.589 113.06 191.334C112.698 190.865 112.783 190.205 113.23 189.843C114.465 188.864 125.471 180.349 131.134 181.477C131.709 181.584 132.092 182.158 131.964 182.733C131.858 183.308 131.261 183.691 130.708 183.563C126.727 182.776 117.701 189.034 114.55 191.525C114.359 191.674 114.125 191.759 113.89 191.759V191.738Z" fill="#261D2A"/>
<path d="M137.648 216.922C137.478 216.922 137.308 216.879 137.137 216.794C132.135 214.133 118.319 214.771 118.17 214.793C117.488 214.793 117.084 214.367 117.063 213.792C117.041 213.196 117.489 212.707 118.063 212.685C118.659 212.664 132.624 212.004 138.138 214.942C138.649 215.219 138.862 215.857 138.585 216.389C138.393 216.751 138.031 216.943 137.648 216.943V216.922Z" fill="#261D2A"/>
<path d="M124.875 244.957C124.748 244.957 124.599 244.936 124.471 244.872C124.003 244.681 113.103 240.061 109.782 234.505C109.484 233.994 109.633 233.355 110.144 233.036C110.655 232.738 111.294 232.887 111.613 233.398C114.593 238.358 125.195 242.85 125.301 242.892C125.833 243.127 126.11 243.744 125.876 244.276C125.706 244.681 125.301 244.936 124.897 244.936L124.875 244.957Z" fill="#261D2A"/>
<path d="M86.9181 263.052C86.4284 263.052 86.0027 262.733 85.8749 262.243C85.7472 261.69 82.6392 248.491 83.3842 244.085C83.4907 243.51 84.0442 243.105 84.6189 243.212C85.1937 243.318 85.5982 243.85 85.4918 244.447C84.9383 247.767 87.0884 258.071 87.9612 261.775C88.0889 262.35 87.7483 262.925 87.1735 263.052C87.0884 263.052 87.0032 263.074 86.9181 263.074V263.052Z" fill="#261D2A"/>
<path d="M46.8338 246.384C46.8338 246.384 46.6209 246.384 46.5145 246.342C45.961 246.171 45.6417 245.575 45.812 245.022C47.3021 240.168 57.5204 233.782 58.6912 233.079C59.2021 232.781 59.8408 232.93 60.1601 233.441C60.4581 233.952 60.3091 234.591 59.8195 234.91C56.8605 236.719 48.92 242.212 47.8556 245.66C47.7066 246.107 47.3021 246.405 46.8338 246.405V246.384Z" fill="#261D2A"/>
<path d="M32.2726 209.13C31.7829 209.13 31.3359 208.768 31.2294 208.278C31.123 207.704 31.4849 207.15 32.081 207.022C33.4221 206.767 45.386 204.532 49.8565 207.15C50.3674 207.448 50.5377 208.108 50.2396 208.598C49.9416 209.087 49.2817 209.279 48.7921 208.981C45.5776 207.107 35.9341 208.427 32.5067 209.109C32.4429 209.109 32.379 209.109 32.2938 209.109L32.2726 209.13Z" fill="#261D2A"/>
</svg>
