<svg width="191" height="175" viewBox="0 0 191 175" fill="none" xmlns="http://www.w3.org/2000/svg">
<g clip-path="url(#clip0_1718_8189)">
<mask id="mask0_1718_8189" style="mask-type:luminance" maskUnits="userSpaceOnUse" x="0" y="0" width="191" height="175">
<path d="M191 0H0V175H191V0Z" fill="white"/>
</mask>
<g mask="url(#mask0_1718_8189)">
<path d="M63.558 81.9834C60.3201 82.3686 57.0903 82.8195 53.8687 83.34C45.4089 84.7047 37.0271 86.5367 28.7764 88.8441C31.4569 90.3564 34.2031 91.7457 37.0107 93.0039C40.5356 94.5859 44.1547 95.9588 47.8395 97.1186C48.8027 95.7826 49.8192 94.4834 50.8889 93.2252C54.5614 88.9096 58.8445 85.1227 63.558 81.9834Z" fill="#F39200"/>
<path d="M65.4726 100.975C65.366 100.963 65.2595 100.947 65.1529 100.934C65.1406 100.959 65.1283 100.988 65.1201 101.012L65.157 100.934C65.2636 100.947 65.3701 100.963 65.4767 100.975H65.4726Z" fill="white"/>
<path d="M48.5322 97.3614C48.5322 97.3614 48.545 97.3444 48.5492 97.3359C48.5492 97.3359 48.5365 97.3529 48.5322 97.3614Z" fill="white"/>
<path d="M76.9771 36.2704C76.9402 36.1843 76.9074 36.0983 76.8705 36.0122C76.9033 36.0983 76.9402 36.1843 76.9771 36.2704Z" fill="white"/>
<path d="M47.8393 97.1147C47.8393 97.1147 47.8312 97.1269 47.8271 97.1309C47.8312 97.1309 47.8352 97.1188 47.8393 97.1147Z" fill="white"/>
<path d="M86.1875 35.5327C86.1875 35.5327 86.2203 35.5245 86.2367 35.5204C86.3473 35.4794 86.4621 35.4384 86.5728 35.3933C86.4621 35.4343 86.3514 35.4794 86.2367 35.5204C86.2203 35.5245 86.2039 35.5286 86.1875 35.5327Z" fill="white"/>
<path d="M55.9715 50.3073C55.828 50.2048 55.6313 50.1762 55.4305 50.3032C55.328 50.3688 55.2255 50.4343 55.123 50.4958C55.2255 50.4303 55.328 50.3647 55.4305 50.3032C55.6313 50.1762 55.8239 50.2048 55.9715 50.3073Z" fill="white"/>
<path d="M26.9037 88.5819C26.9037 88.5819 26.8996 88.6065 26.8955 88.6188C26.8955 88.6065 26.8996 88.5942 26.9037 88.5819C26.9119 88.5245 26.9283 88.4671 26.9529 88.418C26.9283 88.4712 26.9119 88.5245 26.9037 88.5819Z" fill="white"/>
<path d="M73.4033 102.304C73.4033 102.304 73.4033 102.275 73.4116 102.258V102.27C73.4116 102.27 73.4116 102.295 73.4116 102.304H73.4075H73.4033Z" fill="white"/>
<path d="M76.7109 36.5449C76.838 36.5367 76.961 36.5326 77.088 36.5244C76.9651 36.5285 76.838 36.5367 76.7109 36.5449Z" fill="white"/>
<path d="M65.8867 101.029C68.2148 101.311 70.5552 101.512 72.8996 101.631C73.2685 101.652 73.4406 101.971 73.4079 102.258C74.244 97.8892 74.494 93.4138 74.0514 89.0081C73.4079 89.672 72.7848 90.3564 72.1864 91.0613C69.6288 94.0695 67.5139 97.4384 65.8867 101.033V101.029Z" fill="#F39200"/>
<path d="M28.0059 88.4015C28.0223 88.3237 28.0346 88.2417 28.0509 88.1638C28.0346 88.2417 28.0182 88.3237 28.0059 88.4015Z" fill="white"/>
<path d="M87.7119 34.8934C88.0849 34.7131 88.4538 34.5164 88.8104 34.3074C88.4538 34.5164 88.089 34.7131 87.716 34.8934H87.7119Z" fill="white"/>
<path d="M164.075 88.7212C164.186 88.7499 164.292 88.7786 164.403 88.8114C164.292 88.7827 164.186 88.754 164.075 88.7212C164.083 88.795 164.096 88.8687 164.104 88.9425C164.096 88.8687 164.087 88.795 164.075 88.7212Z" fill="white"/>
<path d="M134.359 83.7377C134.253 83.6681 134.203 83.5697 134.199 83.4713C127.522 82.4304 120.805 81.6353 114.066 81.0984C114.066 81.1148 114.066 81.1312 114.062 81.1476C113.825 82.6476 113.64 84.1558 113.505 85.664C113.529 85.6722 113.554 85.6886 113.579 85.7008C114.833 86.5246 116.021 87.4467 117.124 88.4631C121.022 92.0656 123.842 96.8156 125.092 101.975C125.346 101.963 125.6 101.947 125.85 101.93C132.638 101.475 139.343 100.057 145.778 97.8689C146.045 97.7787 146.311 97.6844 146.577 97.5902C146.024 96.4754 145.417 95.3894 144.753 94.3361C142.085 90.1189 138.519 86.4836 134.359 83.7336V83.7377Z" fill="#F39200"/>
<path d="M109.193 166.172V166.182C109.193 166.182 109.193 166.177 109.198 166.172H109.193Z" fill="white"/>
<path d="M117.087 164.119C116.911 164.176 116.739 164.229 116.562 164.283C116.739 164.229 116.911 164.172 117.087 164.119Z" fill="white"/>
<path d="M80.9324 80.541C78.4691 80.6558 76.0099 80.8115 73.5548 81C74.063 82.6886 74.4647 84.4099 74.7557 86.1517C76.0345 93.8894 75.1328 101.869 72.6571 109.287C71.3865 113.098 69.7102 116.75 67.6731 120.213C65.6074 123.725 63.2711 127.078 61.2012 130.59C57.328 137.16 54.1474 145.184 56.8402 152.791C59.1519 159.32 65.1032 163.975 71.4685 166.23C75.2475 167.566 79.2315 168.197 83.2236 168.434C87.3633 168.68 91.5358 168.549 95.6673 168.209C99.9669 167.857 104.238 167.225 108.459 166.332C108.705 166.279 108.947 166.225 109.193 166.176C109.861 165.209 110.464 164.201 110.992 163.156C112.853 159.471 113.792 155.34 113.714 151.213C113.706 150.754 114.415 150.758 114.423 151.213C114.444 152.41 114.386 153.611 114.243 154.803C113.759 158.771 112.378 162.607 110.197 165.955C112.156 165.516 114.116 165.029 116.042 164.451C116.05 164.406 116.071 164.361 116.099 164.316C117.309 162.602 118.305 160.742 119.05 158.783C120.374 155.312 120.952 151.574 120.776 147.865C120.596 144.152 119.641 140.48 117.915 137.189C117.702 136.787 118.313 136.426 118.526 136.832C119.53 138.742 120.288 140.779 120.784 142.877C121.661 146.586 121.739 150.463 121.059 154.209C120.419 157.734 119.079 161.139 117.091 164.123C118.067 163.812 119.034 163.471 119.985 163.102C123.133 161.881 126.256 160.098 128.187 157.242C130.183 154.287 130.654 150.623 130.24 147.139C129.785 143.32 128.191 139.766 126.342 136.434C124.403 132.943 122.182 129.611 120.35 126.062C116.8 119.189 114.362 111.75 113.124 104.119C111.886 96.4754 111.837 88.6763 113.021 81.0246C111.333 80.8976 109.64 80.7828 107.947 80.6886C98.9545 80.1763 89.9373 80.123 80.9406 80.5533L80.9324 80.541Z" fill="#CBBBA0"/>
<path d="M146.803 98.0532C146.824 98.0942 146.844 98.127 146.873 98.1516C146.848 98.127 146.824 98.0942 146.803 98.0532Z" fill="white"/>
<path d="M135.532 83.6804C135.467 83.6353 135.397 83.5861 135.327 83.541C135.393 83.5861 135.462 83.6353 135.528 83.6804H135.532Z" fill="white"/>
<path d="M114.219 45.1023C108.271 49.504 101.48 52.795 94.3071 54.631C86.4622 56.6351 78.2114 56.9015 70.2394 55.5532C65.3456 54.7253 60.5132 53.2786 55.9636 51.2253C53.1478 52.9999 50.4509 54.9548 47.8974 57.086C43.0978 61.0982 38.7736 65.7294 35.3143 70.9548C31.896 76.1228 29.3671 81.8564 28.1006 87.9261C28.9244 87.6925 29.7524 87.4671 30.5844 87.2417C39.3065 84.8933 48.1679 83.0778 57.1072 81.7745C62.333 81.0122 67.5835 80.422 72.8462 79.9999C76.5965 79.6966 80.3551 79.4835 84.1177 79.3523C93.2045 79.0327 102.308 79.2048 111.374 79.84C120.404 80.4712 129.4 81.5573 138.319 83.0778C146.988 84.5532 155.583 86.4466 164.075 88.7294C164.022 88.2909 163.961 87.8564 163.895 87.4179C163.137 82.2991 161.776 77.2458 159.686 72.5081C157.821 68.2786 155.407 64.295 152.521 60.6884C149.791 57.2745 146.668 54.1884 143.299 51.4056C140.004 48.6843 136.471 46.2622 132.823 44.0368C129.335 41.9097 125.74 39.9671 122.109 38.1064C119.695 40.6679 117.047 43.0163 114.215 45.1105V45.1023H114.219Z" fill="#B17F4A"/>
<path d="M113.788 81.0779C113.882 81.0861 113.973 81.0943 114.067 81.0984C113.973 81.0902 113.882 81.082 113.788 81.0779Z" fill="white"/>
<path d="M74.3871 87.9138C74.2764 87.877 74.1534 87.8934 74.0469 87.9999C74.1534 87.8934 74.2805 87.877 74.3871 87.9138Z" fill="white"/>
<path d="M73.3906 102.349C73.3906 102.349 73.3989 102.32 73.3989 102.303C73.3989 102.312 73.3989 102.324 73.3906 102.332V102.349Z" fill="white"/>
<path d="M74.0549 89.0039C74.0467 88.9261 74.0385 88.8523 74.0303 88.7744C74.0385 88.8482 74.0467 88.9261 74.0549 89.0039Z" fill="white"/>
<path d="M113.435 86.459C113.427 86.5778 113.419 86.6926 113.41 86.8114C113.033 91.8647 113.193 96.9508 113.87 101.967C113.951 101.848 114.091 101.775 114.288 101.791C117.64 102.102 121.014 102.18 124.375 102.02C124.034 100.652 123.588 99.3073 123.026 98.0082C121.009 93.3483 117.661 89.2828 113.435 86.459Z" fill="#F39200"/>
<path d="M72.4727 81.0901C72.6407 81.0778 72.8046 81.0614 72.9727 81.0491C72.8046 81.0614 72.6366 81.0737 72.4727 81.0901Z" fill="white"/>
<path d="M135.531 83.6804C136.445 84.3197 137.331 85.0041 138.179 85.7214C141.958 88.9222 145.065 92.9099 147.245 97.3525C152.861 95.3279 158.25 92.7132 163.362 89.6271C162.698 89.4509 162.034 89.2746 161.37 89.1025C152.848 86.8894 144.225 85.0779 135.531 83.6763V83.6804Z" fill="#F39200"/>
<path d="M73.5547 80.9998C73.5424 80.9547 73.526 80.9137 73.5137 80.8687C73.526 80.9137 73.5383 80.9547 73.5547 80.9998Z" fill="white"/>
<path d="M64.5008 82.2089C63.1278 83.0983 61.7875 84.045 60.4882 85.045C55.9509 88.545 51.9178 92.6966 48.5527 97.336C50.5365 97.9466 52.5408 98.4917 54.5614 98.9794C58.0576 99.8237 61.5948 100.475 65.1566 100.934C65.6157 99.9098 66.1075 98.9016 66.6404 97.9139C68.5913 94.3155 71.067 90.9999 73.9525 88.0942C73.6655 85.7294 73.1778 83.3852 72.4728 81.0901C69.8619 81.3032 67.2593 81.5573 64.6566 81.8565C64.6771 81.9835 64.6402 82.1229 64.5008 82.213V82.2089Z" fill="#F39200"/>
<path d="M107.771 18.3851C104.783 16.4096 101.758 14.5121 98.5282 12.9506C95.3803 11.426 92.0973 10.1883 88.724 9.2662C82.0841 7.45063 75.0507 6.87276 68.2346 7.95473C62.2668 8.90145 56.5163 11.1351 51.4872 14.4875C46.7696 17.631 42.7365 21.7867 39.9043 26.6965C39.9985 26.8236 40.0436 26.9875 39.9985 27.1637C42.0192 28.5244 44.1587 29.7047 46.3884 30.7088C50.2535 32.4547 54.3563 33.6596 58.5288 34.4383C59.9593 34.2252 61.3651 33.8359 62.7095 33.3031C67.9682 31.2211 72.321 26.8236 74.1859 21.4629C74.3335 21.0326 75.0179 21.217 74.8704 21.6514C74.3212 23.2375 73.5711 24.7498 72.6325 26.1432C69.788 30.3851 65.386 33.5162 60.447 34.7621C61.4266 34.9137 62.4062 35.0408 63.3858 35.1514C69.5953 35.8318 75.8623 35.676 82.0718 35.09C83.6129 34.9424 85.154 34.7703 86.6911 34.5818C89.8143 33.2744 92.4375 30.8851 94.0442 27.8932C94.2614 27.4916 94.8721 27.8482 94.6549 28.2498C93.3023 30.7703 91.257 32.8646 88.806 34.3031C93.0523 33.7211 97.2821 33.0121 101.508 32.299C102.176 32.1883 102.463 33.2088 101.791 33.3236C100.996 33.4588 100.196 33.5941 99.4012 33.7252C95.0033 34.4588 90.593 35.1719 86.1623 35.7088C83.9736 35.9752 81.7808 36.2006 79.5839 36.3646C78.7519 36.426 77.9239 36.4793 77.0919 36.5244C77.4772 37.3851 77.9485 38.2088 78.4895 38.9834C80.7643 42.2211 84.3302 44.5121 88.2322 45.1883C88.6789 45.2662 88.4904 45.9465 88.0436 45.8728C86.8837 45.6719 85.7566 45.3277 84.6745 44.8646C80.9693 43.2785 77.928 40.2621 76.3418 36.5572C71.1487 36.7908 65.9434 36.631 60.7954 35.8769C59.8363 35.7375 58.8813 35.5736 57.9304 35.3932C52.9956 34.4383 48.1755 32.885 43.7038 30.5859C42.302 29.8646 40.9371 29.0654 39.6256 28.1924C39.4452 28.7662 39.3141 29.3564 39.2362 29.9465C38.7197 33.8277 40.265 37.7334 42.6996 40.7047C45.1711 43.7211 48.446 45.9711 51.8028 47.8891C58.6395 51.7908 66.3205 54.2088 74.1449 55.0162C81.8669 55.8154 89.7323 55.0736 97.1305 52.7088C103.971 50.5244 110.386 46.9875 115.927 42.4301C121.325 37.9875 125.916 32.5941 129.359 26.508C128.773 26.5654 128.186 26.5982 127.596 26.5982C120.165 26.5736 113.743 22.3236 107.775 18.3851H107.771Z" fill="#3AAA35"/>
<path d="M113.161 86.2705C113.161 86.2705 113.198 86.3033 113.219 86.3156C113.198 86.3033 113.178 86.2869 113.161 86.2705Z" fill="white"/>
<path d="M39.0889 27.8443C38.9987 27.8648 38.9044 27.8566 38.8184 27.8279C38.9085 27.8566 38.9987 27.8648 39.0889 27.8443Z" fill="white"/>
<path d="M129.65 25.9875C129.556 26.1637 129.458 26.3359 129.359 26.5121C129.458 26.34 129.556 26.1637 129.65 25.9875Z" fill="white"/>
<path d="M54.8193 50.6926C54.9136 50.7377 55.0079 50.7828 55.1062 50.8279C55.012 50.7828 54.9177 50.7377 54.8234 50.6926H54.8193Z" fill="white"/>
<path d="M113.079 85.9016C113.055 85.9713 113.051 86.0491 113.075 86.1229C113.055 86.0491 113.059 85.9713 113.079 85.9016Z" fill="white"/>
<path d="M164.555 89.9548C164.555 89.9548 164.58 89.9631 164.592 89.9631C164.58 89.9631 164.571 89.9631 164.559 89.9548H164.555Z" fill="white"/>
<path d="M164.53 89.9466C164.436 89.922 164.341 89.8974 164.247 89.8728C164.341 89.8974 164.436 89.922 164.53 89.9507V89.9466Z" fill="white"/>
<path d="M39.9902 27.1893C39.9902 27.1893 39.9945 27.1723 39.9987 27.1638C39.9987 27.1638 39.9987 27.1808 39.9945 27.1893H39.9902Z" fill="white"/>
<path d="M165.211 89.4344C165.211 89.4016 165.211 89.3688 165.206 89.336V89.3114C165.206 89.291 165.198 89.2664 165.19 89.2459C165.182 89.2254 165.174 89.2049 165.165 89.1803C165.145 89.1393 165.12 89.1024 165.083 89.0655C165.067 89.0492 165.051 89.0328 165.03 89.0164C165.002 88.9959 164.969 88.9754 164.928 88.959C165.092 89.0532 165.206 89.2377 165.215 89.4303L165.211 89.4344Z" fill="#1D1D1B"/>
<path d="M161.403 73.8688C159.645 69.4549 157.317 65.2828 154.472 61.4754C151.796 57.8975 148.709 54.6475 145.332 51.7254C142.041 48.8811 138.499 46.336 134.823 44.0164C131.257 41.7664 127.564 39.7254 123.822 37.7869C123.498 37.6188 123.178 37.4549 122.855 37.2869C122.805 37.3401 122.756 37.3934 122.707 37.4467C122.633 37.5287 122.555 37.6106 122.482 37.6926C122.359 37.8278 122.232 37.9631 122.104 38.0942C125.74 39.9549 129.335 41.8975 132.819 44.0246C136.466 46.25 139.999 48.6721 143.295 51.3934C146.664 54.1762 149.787 57.2623 152.517 60.6762C155.402 64.2869 157.817 68.2705 159.681 72.4959C161.772 77.2377 163.133 82.2869 163.891 87.4057C163.956 87.8401 164.014 88.2787 164.071 88.7172C164.182 88.7459 164.293 88.7746 164.399 88.8074C164.51 88.836 164.616 88.8647 164.727 88.8975C164.727 88.8975 164.76 88.8975 164.776 88.9057C164.793 88.9057 164.809 88.9139 164.825 88.918C164.842 88.9221 164.858 88.9303 164.87 88.9344C164.887 88.9426 164.899 88.9467 164.916 88.9549C164.952 88.9713 164.985 88.9918 165.018 89.0123C165.038 89.0287 165.055 89.0451 165.071 89.0615C165.104 89.0942 165.133 89.1352 165.153 89.1762C165.161 89.1967 165.174 89.2172 165.178 89.2418C165.186 89.2623 165.19 89.2828 165.194 89.3074V89.3319C165.198 89.3647 165.198 89.3975 165.198 89.4303C165.207 89.541 165.178 89.6516 165.112 89.75C165.104 89.7582 165.096 89.7705 165.088 89.7787C165.174 89.6844 165.227 89.5656 165.211 89.4385C164.596 84.1106 163.379 78.8565 161.391 73.8688H161.403Z" fill="#1D1D1B"/>
<path d="M165.202 89.3113V89.3367" stroke="#1D1D1B" stroke-linecap="round" stroke-linejoin="round"/>
<path d="M165.031 89.8484C165.031 89.8484 165.026 89.8484 165.021 89.8579H165.026V89.8484H165.031Z" fill="#1D1D1B"/>
<path d="M165.211 89.4343C165.207 89.5983 165.133 89.7622 165.006 89.8647C165.01 89.8647 165.018 89.8565 165.022 89.8524C165.022 89.8524 165.026 89.8524 165.03 89.8442C165.043 89.836 165.059 89.8237 165.071 89.8114C165.071 89.8114 165.084 89.7991 165.088 89.7909C165.088 89.7909 165.092 89.7909 165.096 89.7827C165.104 89.7745 165.112 89.7622 165.121 89.754C165.19 89.6556 165.215 89.545 165.207 89.4343H165.211Z" fill="#1D1D1B"/>
<path d="M165.01 89.8654C165.01 89.8654 165.027 89.8526 165.031 89.8484H165.027C165.027 89.8484 165.014 89.8611 165.01 89.8654Z" fill="#1D1D1B"/>
<path d="M164.919 88.959C164.919 88.959 164.89 88.9426 164.874 88.9385C164.858 88.9385 164.845 88.9262 164.829 88.9221C164.812 88.9221 164.796 88.9139 164.78 88.9098C164.763 88.9098 164.747 88.9098 164.73 88.9016C164.763 88.9098 164.8 88.9221 164.833 88.9303C164.862 88.9385 164.89 88.9467 164.919 88.959Z" fill="#1D1D1B"/>
<path d="M164.702 89.9753H164.788C164.788 89.9753 164.809 89.9753 164.817 89.9671H164.829C164.829 89.9671 164.845 89.9671 164.854 89.9589C164.862 89.9589 164.87 89.9589 164.874 89.9507C164.874 89.9507 164.89 89.9425 164.899 89.9425C164.911 89.9425 164.923 89.9302 164.931 89.922C164.956 89.9097 164.977 89.8933 164.997 89.877C164.903 89.9425 164.792 89.9835 164.686 89.9835H164.694L164.702 89.9753Z" fill="#1D1D1B"/>
<path d="M164.924 88.959C164.899 88.9467 164.87 88.9386 164.838 88.9304C164.805 88.9222 164.768 88.9099 164.735 88.9017C164.641 88.8935 164.534 88.9181 164.432 88.9836C164.333 89.0451 164.235 89.1066 164.137 89.1681C164.149 89.2582 164.157 89.3525 164.17 89.4427C164.198 89.6763 164.325 89.8812 164.538 89.9508C164.634 89.9809 164.634 89.9809 164.538 89.9508C164.538 89.9508 164.547 89.9508 164.555 89.9508C164.555 89.9508 164.575 89.9508 164.588 89.959H164.69C164.797 89.959 164.907 89.9181 165.002 89.8525C165.129 89.75 165.198 89.5861 165.206 89.4222C165.194 89.2295 165.084 89.041 164.92 88.9508H164.924V88.959Z" fill="#1D1D1B"/>
<path d="M164.104 88.9425C164.112 89.0162 164.12 89.09 164.129 89.1638C164.227 89.1023 164.325 89.0408 164.424 88.9793C164.53 88.9138 164.633 88.8892 164.727 88.8974C164.616 88.8687 164.51 88.84 164.399 88.8072C164.289 88.7785 164.182 88.7498 164.071 88.717C164.079 88.7908 164.092 88.8646 164.1 88.9383L164.104 88.9425Z" fill="#1D1D1B"/>
<path d="M164.882 89.9383C164.882 89.9383 164.866 89.9383 164.862 89.9465C164.853 89.9465 164.845 89.9465 164.837 89.9547H164.825C164.825 89.9547 164.804 89.9547 164.796 89.9629H164.599C164.599 89.9629 164.575 89.9629 164.562 89.9547C164.562 89.9547 164.55 89.9547 164.546 89.9547C164.452 89.9301 164.357 89.9056 164.263 89.8769C164.05 89.8195 163.837 89.7621 163.624 89.7047C163.542 89.6842 163.46 89.6597 163.378 89.6392C158.267 92.7211 152.877 95.34 147.262 97.3646C147.29 97.4219 147.315 97.4793 147.344 97.5367C147.372 97.5941 147.397 97.6515 147.426 97.7088C147.475 97.8154 147.475 97.9137 147.438 97.9998C147.438 97.9998 147.434 98.0121 147.43 98.0162C147.409 98.0613 147.381 98.1023 147.344 98.1351C147.217 98.2539 147.012 98.2949 146.885 98.1596C146.86 98.1351 146.835 98.1023 146.815 98.0613C146.778 97.9834 146.741 97.9097 146.704 97.8318C146.667 97.7539 146.631 97.6801 146.594 97.6023C146.327 97.6965 146.065 97.7867 145.794 97.881C139.359 100.069 132.654 101.488 125.866 101.942C125.612 101.959 125.358 101.975 125.108 101.992V102.024C125.19 102.348 124.85 102.533 124.62 102.442C124.588 102.43 124.559 102.414 124.534 102.389C124.489 102.348 124.452 102.291 124.432 102.213C124.416 102.151 124.403 102.09 124.387 102.029C121.026 102.188 117.653 102.11 114.3 101.799C114.103 101.783 113.964 101.856 113.882 101.975C113.89 102.037 113.898 102.102 113.906 102.164C113.931 102.352 113.96 102.541 113.988 102.733C114.066 102.803 114.173 102.848 114.3 102.86C121.194 103.504 128.154 103.123 134.957 101.844C141.753 100.565 148.356 98.3769 154.631 95.4875C158.193 93.8482 161.644 91.9793 164.976 89.9097C164.98 89.9097 164.985 89.9015 164.989 89.8974C164.976 89.9056 164.968 89.9137 164.956 89.9178C164.944 89.926 164.931 89.9301 164.923 89.9383C164.915 89.9383 164.907 89.9465 164.899 89.9465H164.882V89.9383Z" fill="#1D1D1B"/>
<path d="M164.588 89.9631C164.588 89.9631 164.567 89.9631 164.555 89.9548" stroke="#1D1D1B" stroke-linecap="round" stroke-linejoin="round"/>
<path d="M163.612 89.7007C163.825 89.7581 164.038 89.8155 164.252 89.8728C164.346 89.8974 164.44 89.922 164.534 89.9466C164.321 89.8769 164.19 89.672 164.165 89.4384C164.153 89.3482 164.145 89.254 164.133 89.1638C163.879 89.3196 163.624 89.4753 163.366 89.631C163.448 89.6515 163.53 89.6761 163.612 89.6966V89.7007Z" fill="#1D1D1B"/>
<path d="M146.914 97.4753C146.816 97.5081 146.717 97.545 146.623 97.5778C146.611 97.5778 146.594 97.586 146.582 97.5942C146.619 97.6721 146.656 97.7458 146.693 97.8237C146.73 97.9016 146.766 97.9794 146.803 98.0532C146.824 98.0942 146.844 98.127 146.873 98.1516C147.004 98.2827 147.205 98.2458 147.332 98.127C147.369 98.0942 147.398 98.0532 147.418 98.0081C147.418 98.0081 147.422 97.9958 147.426 97.9917C147.459 97.9057 147.463 97.8032 147.414 97.7008C147.385 97.6434 147.361 97.586 147.332 97.5286C147.303 97.4713 147.279 97.4139 147.25 97.3606C147.205 97.377 147.16 97.3934 147.115 97.4098C147.049 97.4344 146.984 97.459 146.914 97.4795V97.4753Z" fill="#1D1D1B"/>
<path d="M147.426 97.9917C147.463 97.9056 147.463 97.8032 147.414 97.7007C147.463 97.8073 147.463 97.9056 147.426 97.9917Z" fill="#1D1D1B"/>
<path d="M147.332 98.1269C147.369 98.0941 147.398 98.0531 147.418 98.0081" stroke="#1D1D1B" stroke-linecap="round" stroke-linejoin="round"/>
<path d="M135.532 83.6844C135.376 83.6598 135.22 83.6352 135.068 83.6106L135.536 83.6844H135.532Z" fill="#1D1D1B"/>
<path d="M134.896 83.5778C134.945 83.586 134.994 83.5942 135.043 83.6024C135.052 83.6024 135.06 83.6024 135.068 83.6024C135.224 83.627 135.375 83.6516 135.531 83.6761C135.466 83.6311 135.396 83.5819 135.33 83.5368C135.302 83.5163 135.277 83.4999 135.248 83.4794C135.142 83.4057 135.031 83.3319 134.925 83.2581C134.855 83.213 134.789 83.168 134.72 83.1229C134.568 83.0245 134.42 83.0573 134.322 83.1556C134.322 83.1556 134.314 83.1638 134.31 83.1679C134.236 83.2458 134.195 83.3565 134.203 83.4671C134.318 83.4835 134.437 83.504 134.552 83.5204C134.666 83.5368 134.785 83.5573 134.9 83.5737L134.896 83.5778Z" fill="#1D1D1B"/>
<path d="M134.548 83.5244C134.663 83.5408 134.782 83.5613 134.896 83.5777C134.946 83.5859 134.995 83.5941 135.04 83.6023C134.991 83.5941 134.942 83.5859 134.892 83.5777C134.778 83.5613 134.659 83.5408 134.544 83.5244H134.548Z" fill="#1D1D1B"/>
<path d="M134.716 83.127C134.564 83.0287 134.417 83.0655 134.318 83.1598C134.417 83.0614 134.564 83.0287 134.716 83.127Z" fill="#1D1D1B"/>
<path d="M138.184 85.7254C137.331 85.0041 136.45 84.3238 135.536 83.6844L135.069 83.6106C135.069 83.6106 135.053 83.6106 135.044 83.6106C134.995 83.6024 134.946 83.5942 134.901 83.586C134.786 83.5697 134.667 83.5492 134.552 83.5328C134.438 83.5164 134.319 83.4959 134.204 83.4795C134.212 83.5779 134.257 83.6762 134.364 83.7459C138.524 86.4959 142.09 90.1352 144.758 94.3483C145.422 95.4016 146.033 96.4836 146.582 97.6024C146.582 97.6024 146.611 97.5942 146.623 97.586C146.722 97.5533 146.82 97.5205 146.914 97.4836C146.98 97.459 147.045 97.4344 147.115 97.4139C147.16 97.3975 147.205 97.3811 147.25 97.3647C145.07 92.9221 141.963 88.9344 138.184 85.7336V85.7254Z" fill="#1D1D1B"/>
<path d="M130.549 25.9886C130.528 25.9596 130.507 25.9306 130.482 25.9058C130.507 25.9306 130.532 25.9596 130.549 25.9886Z" fill="#1D1D1B"/>
<path d="M39.1916 26.5286C39.1916 26.5286 39.2162 26.5122 39.2244 26.504C39.2366 26.4958 39.2489 26.4917 39.2612 26.4835C39.4334 26.4016 39.6506 26.4548 39.8064 26.5942L39.831 26.6188C39.8556 26.6434 39.8801 26.6721 39.9006 26.7007C42.7328 21.7909 46.766 17.6352 51.4836 14.4917C56.5127 11.1393 62.2632 8.90566 68.2309 7.95894C75.0471 6.87697 82.0805 7.45484 88.7204 9.27041C92.0936 10.1925 95.3767 11.4302 98.5245 12.9548C101.754 14.5163 104.779 16.418 107.767 18.3893C113.735 22.3319 120.158 26.5819 127.589 26.6024C128.179 26.6024 128.765 26.5737 129.351 26.5122C129.449 26.3401 129.548 26.1639 129.642 25.9876C129.667 25.9425 129.695 25.9016 129.728 25.8688C129.753 25.8442 129.777 25.8237 129.802 25.8032C129.818 25.7909 129.839 25.7827 129.855 25.7704C129.871 25.7581 129.892 25.754 129.912 25.7458C130.105 25.6802 130.331 25.754 130.474 25.9016C130.499 25.9261 130.523 25.9548 130.54 25.9835C130.54 25.6761 130.273 25.3319 129.871 25.3893C122.4 26.4139 115.538 22.2376 109.571 18.3032C106.509 16.2868 103.463 14.2622 100.193 12.5901C97.09 11.0081 93.852 9.68844 90.5197 8.67205C83.8634 6.64746 76.7891 5.84418 69.8622 6.65566C63.7388 7.37697 57.7874 9.37697 52.5083 12.5655C47.3357 15.6884 42.8189 19.9425 39.6137 25.086C39.3514 25.504 39.0973 25.9343 38.8555 26.3647C38.9497 26.4343 39.0399 26.4999 39.1342 26.5655C39.1506 26.5491 39.167 26.5327 39.1834 26.5204L39.1916 26.5286Z" fill="#1D1D1B"/>
<path d="M130.498 26.2048C130.535 26.1392 130.551 26.0654 130.547 25.9875C130.547 26.0654 130.531 26.1392 130.498 26.2048Z" fill="#1D1D1B"/>
<path d="M130.548 25.9876C130.528 25.9589 130.507 25.9302 130.482 25.9056C130.339 25.7581 130.114 25.6843 129.921 25.7499C129.9 25.7499 129.884 25.7622 129.864 25.7745C129.843 25.7868 129.827 25.795 129.81 25.8073C129.786 25.8237 129.757 25.8442 129.736 25.8729C129.704 25.9056 129.675 25.9466 129.65 25.9917C129.556 26.1679 129.458 26.3401 129.359 26.5163C129.556 26.4958 129.749 26.4753 129.946 26.4507H129.966C130.032 26.4425 130.101 26.4343 130.167 26.422C130.183 26.422 130.2 26.4179 130.216 26.4138C130.31 26.3933 130.38 26.3524 130.433 26.2991C130.45 26.2827 130.466 26.2622 130.478 26.2417C130.487 26.2335 130.491 26.2212 130.499 26.2089C130.532 26.1434 130.548 26.0696 130.548 25.9917V25.9876Z" fill="#1D1D1B"/>
<path d="M129.962 26.4425C130.027 26.4343 130.097 26.4261 130.163 26.4179C130.179 26.4179 130.196 26.4138 130.212 26.4097C130.196 26.4097 130.179 26.4138 130.163 26.4179C130.097 26.4261 130.027 26.4343 129.962 26.4466V26.4425Z" fill="#1D1D1B"/>
<path d="M130.482 25.9056C130.339 25.7581 130.114 25.6843 129.921 25.7499C130.114 25.6843 130.335 25.7581 130.482 25.9056Z" fill="#1D1D1B"/>
<path d="M124.912 101.992C124.773 102 124.629 102.008 124.49 102.012C124.449 102.012 124.412 102.012 124.371 102.012C124.387 102.074 124.404 102.135 124.416 102.197C124.437 102.275 124.469 102.332 124.519 102.373C124.543 102.397 124.576 102.414 124.605 102.426C124.838 102.516 125.174 102.332 125.097 102.008V101.992C125.097 101.992 125.088 101.984 125.088 101.975C125.027 101.975 124.97 101.984 124.908 101.984H124.912V101.992Z" fill="#1D1D1B"/>
<path d="M124.609 102.431C124.576 102.418 124.547 102.402 124.522 102.377" stroke="#1D1D1B" stroke-linecap="round" stroke-linejoin="round"/>
<path d="M124.416 102.201C124.437 102.279 124.469 102.336 124.519 102.377C124.474 102.336 124.437 102.279 124.416 102.201Z" fill="#1D1D1B"/>
<path d="M122.473 37.0902C122.473 37.0902 122.452 37.0779 122.44 37.0738C122.387 37.0492 122.333 37.0369 122.284 37.0287C121.764 36.9672 121.391 37.7254 121.94 38.0041C121.997 38.0328 122.055 38.0656 122.112 38.0942C122.239 37.959 122.362 37.8279 122.489 37.6926C122.563 37.6106 122.641 37.5287 122.715 37.4467C122.764 37.3934 122.813 37.3402 122.862 37.2869C122.735 37.2213 122.604 37.1557 122.477 37.0902H122.473Z" fill="#1D1D1B"/>
<path d="M122.112 38.0982C122.239 37.9629 122.362 37.8318 122.489 37.6965" stroke="#1D1D1B" stroke-linecap="round" stroke-linejoin="round"/>
<path d="M55.127 50.4998C55.2294 50.4343 55.3319 50.3687 55.4344 50.3072C55.6352 50.1802 55.8278 50.2089 55.9754 50.3113C55.9959 50.3277 56.0164 50.3441 56.0369 50.3605C56.2664 50.5777 56.3197 51.0039 55.9713 51.2212C60.5209 53.2744 65.3573 54.7211 70.2471 55.549C78.2191 56.8974 86.4739 56.6351 94.3148 54.6269C101.483 52.7908 108.279 49.4998 114.226 45.0982C117.059 42.9998 119.702 40.6556 122.12 38.0941C122.063 38.0654 122.006 38.0326 121.948 38.0039C121.403 37.7253 121.776 36.963 122.293 37.0285C122.346 37.0367 122.395 37.049 122.448 37.0736C122.461 37.0777 122.469 37.0818 122.481 37.09C122.608 37.1556 122.739 37.2212 122.866 37.2867C125.215 34.6966 127.334 31.8974 129.174 28.9179C129.658 28.131 130.125 27.3318 130.572 26.5244C130.683 26.3236 130.654 26.1351 130.556 25.9875C130.556 26.0654 130.539 26.1392 130.506 26.2048C130.502 26.2171 130.494 26.2253 130.486 26.2375C130.474 26.258 130.457 26.2785 130.441 26.2949C130.388 26.3482 130.314 26.3892 130.224 26.4097C130.207 26.4097 130.191 26.4179 130.174 26.4179C130.109 26.4261 130.039 26.4343 129.974 26.4425H129.953C129.756 26.4671 129.564 26.4875 129.367 26.508C125.924 32.5941 121.333 37.9875 115.935 42.4302C110.39 46.9875 103.98 50.5244 97.1388 52.7089C89.7406 55.0736 81.8752 55.8154 74.1532 55.0162C66.3246 54.2048 58.6478 51.7867 51.8111 47.8892C48.4502 45.9712 45.1794 43.7212 42.7079 40.7048C40.2732 37.7334 38.728 33.8318 39.2445 29.9466C39.3223 29.3523 39.4535 28.7662 39.6338 28.1925C39.6256 28.1884 39.6133 28.1802 39.6051 28.172C39.4945 28.0982 39.3838 28.0244 39.2731 27.9507C39.2199 27.9138 39.1625 27.8769 39.1092 27.84C39.019 27.8605 38.9248 27.8523 38.8387 27.8236C38.8223 27.8195 38.8018 27.8113 38.7854 27.8031C38.7649 27.7949 38.7403 27.7826 38.7198 27.7703C38.7075 27.7621 38.6952 27.7539 38.6829 27.7457C37.5804 31.1638 38.1419 34.9138 39.7527 38.1187C41.5479 41.6966 44.6261 44.4671 47.8886 46.6925C50.0937 48.1966 52.4259 49.5285 54.8401 50.6884C54.9425 50.6228 55.045 50.5572 55.1434 50.4916L55.127 50.4998Z" fill="#1D1D1B"/>
<path d="M120.78 142.869C120.284 140.77 119.526 138.734 118.522 136.824C118.309 136.418 117.698 136.779 117.911 137.18C119.637 140.475 120.592 144.148 120.772 147.857C120.952 151.566 120.37 155.303 119.047 158.775C118.301 160.734 117.309 162.594 116.095 164.307C116.063 164.352 116.046 164.398 116.038 164.439C116.214 164.385 116.386 164.332 116.563 164.279C116.739 164.225 116.911 164.168 117.087 164.115C119.075 161.131 120.416 157.725 121.055 154.201C121.735 150.455 121.657 146.574 120.78 142.869Z" fill="#1D1D1B"/>
<path d="M116.038 164.447C116.014 164.578 116.083 164.692 116.194 164.762C116.202 164.766 116.214 164.774 116.223 164.779C116.231 164.783 116.243 164.791 116.255 164.795C116.3 164.811 116.346 164.824 116.391 164.828C116.436 164.828 116.485 164.828 116.53 164.807C116.571 164.795 116.608 164.77 116.641 164.742C116.645 164.738 116.653 164.733 116.657 164.725C116.673 164.709 116.69 164.692 116.702 164.672C116.768 164.582 116.829 164.488 116.895 164.397C116.936 164.336 116.977 164.274 117.022 164.213C117.042 164.184 117.063 164.151 117.083 164.123C116.911 164.18 116.735 164.233 116.559 164.287C116.382 164.34 116.21 164.393 116.034 164.447H116.038Z" fill="#1D1D1B"/>
<path d="M116.534 164.807C116.489 164.824 116.44 164.828 116.395 164.828C116.444 164.828 116.489 164.828 116.534 164.807Z" fill="#1D1D1B"/>
<path d="M114.423 151.209C114.415 150.754 113.706 150.75 113.714 151.209C113.788 155.336 112.854 159.463 110.993 163.152C110.464 164.201 109.861 165.205 109.193 166.172C109.525 166.098 109.857 166.025 110.193 165.951C112.374 162.602 113.755 158.766 114.239 154.799C114.382 153.611 114.444 152.41 114.419 151.209H114.423Z" fill="#1D1D1B"/>
<path d="M111.528 79.6418C102.462 79.0107 93.3583 78.8386 84.2715 79.1541C80.5088 79.2853 76.7544 79.5025 73 79.8017L73.0123 79.9738C73.1598 79.9615 73.3156 80.0025 73.4263 80.109C73.455 80.1377 73.4837 80.1705 73.5082 80.2074C73.5328 80.2443 73.5533 80.2894 73.5656 80.3386C73.5984 80.4492 73.6353 80.5599 73.6681 80.6705C73.6804 80.7156 73.6968 80.7566 73.7091 80.8017C76.1642 80.6131 78.6234 80.4574 81.0868 80.3427C90.0834 79.9123 99.1006 79.9697 108.093 80.4779C109.786 80.5722 111.479 80.6869 113.167 80.814C113.176 80.7648 113.184 80.7115 113.192 80.6623C113.217 80.4943 113.303 80.3877 113.409 80.3304C113.422 80.3304 113.43 80.3181 113.442 80.314C113.553 80.2689 113.688 80.2689 113.811 80.314C113.872 80.3345 113.93 80.3631 113.983 80.4041C113.999 80.4164 114.012 80.4246 114.028 80.441C114.036 80.441 114.04 80.4533 114.049 80.4615C114.057 80.4697 114.061 80.4738 114.069 80.482C114.077 80.4902 114.081 80.4943 114.09 80.5025C114.114 80.5312 114.135 80.564 114.155 80.5968C114.163 80.6104 114.163 80.6104 114.155 80.5968C114.176 80.6295 114.188 80.6664 114.2 80.7033C114.217 80.7648 114.225 80.8304 114.221 80.9041C120.959 81.441 127.673 82.2361 134.354 83.2771C134.345 83.1664 134.386 83.0558 134.46 82.9779C134.46 82.9779 134.468 82.9697 134.472 82.9656C134.571 82.8672 134.718 82.8304 134.87 82.9328C134.94 82.9779 135.005 83.023 135.075 83.0681C135.186 83.1418 135.292 83.2156 135.399 83.2894C135.427 83.3099 135.456 83.3263 135.481 83.3468C135.546 83.3918 135.616 83.441 135.686 83.4861C144.375 84.8877 153.003 86.6992 161.524 88.9123C162.188 89.0845 162.852 89.2607 163.516 89.4369C163.77 89.2812 164.028 89.1254 164.282 88.9697C164.274 88.8959 164.266 88.8222 164.258 88.7484C164.25 88.6746 164.241 88.6009 164.229 88.5271C155.737 86.2443 147.142 84.3508 138.473 82.8754C129.554 81.3549 120.553 80.2689 111.528 79.6377V79.6418Z" fill="#1D1D1B"/>
<path d="M113.812 102.07C113.824 102.033 113.845 101.996 113.865 101.963C113.189 96.9466 113.029 91.8605 113.406 86.8072C113.415 86.6884 113.423 86.5736 113.431 86.4548C113.394 86.4302 113.361 86.4056 113.324 86.3851C113.288 86.3605 113.255 86.34 113.218 86.3154C113.197 86.3031 113.177 86.2867 113.16 86.2703C113.156 86.2703 113.148 86.258 113.144 86.2539C113.128 86.2376 113.115 86.2212 113.103 86.2007C113.103 86.2007 113.083 86.1638 113.074 86.1433C113.074 86.1351 113.07 86.131 113.066 86.1228C113.046 86.049 113.05 85.9712 113.07 85.9015C113.07 85.9015 113.07 85.8892 113.074 85.8851C113.074 85.8728 113.083 85.8646 113.087 85.8523C113.087 85.8523 113.091 85.84 113.095 85.8359C113.115 85.799 113.14 85.7662 113.169 85.7375C113.251 85.6597 113.365 85.6187 113.492 85.6638C113.632 84.1515 113.816 82.6474 114.05 81.1474C114.05 81.131 114.05 81.1146 114.054 81.0982C113.96 81.09 113.87 81.0818 113.775 81.0777C113.517 81.0572 113.259 81.0367 113.001 81.0162C111.816 88.6679 111.865 96.4712 113.103 104.11C114.341 111.742 116.78 119.184 120.329 126.053C122.161 129.602 124.383 132.93 126.321 136.426C128.17 139.758 129.764 143.311 130.219 147.131C130.633 150.61 130.166 154.279 128.166 157.233C126.235 160.09 123.112 161.869 119.964 163.094C119.013 163.463 118.046 163.803 117.071 164.115C117.05 164.143 117.03 164.176 117.009 164.205C116.968 164.266 116.927 164.328 116.882 164.389C116.821 164.479 116.755 164.574 116.689 164.664C116.673 164.684 116.661 164.705 116.644 164.717L116.628 164.733C116.595 164.762 116.554 164.783 116.517 164.799C116.472 164.815 116.423 164.82 116.378 164.82C116.333 164.82 116.284 164.807 116.243 164.787C116.23 164.783 116.222 164.779 116.21 164.77C116.202 164.766 116.189 164.758 116.181 164.754C116.071 164.684 116.001 164.57 116.025 164.438C114.099 165.016 112.14 165.504 110.181 165.942C110.054 166.143 109.918 166.34 109.783 166.537C109.771 166.557 109.754 166.578 109.738 166.594C109.705 166.627 109.668 166.651 109.631 166.668C109.619 166.672 109.607 166.676 109.591 166.68C109.578 166.684 109.566 166.688 109.55 166.688C109.41 166.713 109.263 166.651 109.181 166.549C109.172 166.541 109.168 166.533 109.16 166.52C109.107 166.438 109.09 166.332 109.144 166.225C109.152 166.209 109.16 166.192 109.172 166.176V166.164C108.927 166.217 108.685 166.27 108.439 166.32C104.217 167.217 99.9462 167.844 95.6467 168.197C91.5111 168.537 87.3427 168.664 83.203 168.422C79.215 168.184 75.2269 167.553 71.4479 166.217C65.0826 163.963 59.1313 159.307 56.8196 152.779C54.1308 145.176 57.3073 137.147 61.1806 130.578C63.2505 127.065 65.5867 123.717 67.6525 120.201C69.6854 116.738 71.3659 113.086 72.6365 109.274C75.1121 101.861 76.0139 93.881 74.7351 86.1392C74.4481 84.3974 74.0465 82.6802 73.5341 80.9875C73.3538 80.9998 73.1734 81.0162 72.9931 81.0285H72.9521C72.7841 81.0408 72.616 81.0572 72.4521 81.0695C73.1571 83.3646 73.6448 85.7089 73.9317 88.0736C73.9604 88.0408 73.9932 88.0121 74.0219 87.9834C74.1285 87.8769 74.2555 87.8605 74.3621 87.8974C74.3744 87.8974 74.3826 87.9056 74.3949 87.9097C74.4113 87.9179 74.4277 87.9261 74.4399 87.9343C74.4481 87.9343 74.4522 87.9425 74.4604 87.9507C74.4604 87.9507 74.4727 87.9589 74.4768 87.963C74.485 87.963 74.4891 87.9753 74.4973 87.9794L74.5096 87.9916C74.5096 87.9916 74.5178 87.9998 74.5219 88.0039C74.5219 88.0121 74.5342 88.0162 74.5383 88.0244C74.5383 88.0244 74.5383 88.0326 74.5465 88.0367C74.5465 88.0367 74.5547 88.049 74.5588 88.0531C74.6285 88.1597 74.6449 88.299 74.5588 88.4261C74.5465 88.4466 74.5301 88.463 74.5137 88.4834C74.4318 88.5654 74.3498 88.6515 74.2678 88.7334C74.2063 88.7949 74.1448 88.8564 74.0834 88.922L74.0219 88.9834C74.4645 93.3933 74.2145 97.8646 73.3784 102.233C73.3784 102.233 73.3784 102.266 73.3702 102.283C73.3702 102.299 73.3702 102.311 73.362 102.328C73.2226 103.045 73.071 103.758 72.8988 104.467C71.9643 108.365 70.5954 112.172 68.8329 115.774C67.0295 119.459 64.7424 122.881 62.5414 126.336C58.2951 133 53.9997 140.602 54.8522 148.815C55.5777 155.811 60.3199 161.602 66.2876 165.024C73.2513 169.02 81.5758 169.742 89.4453 169.57C98.1223 169.385 106.787 168.098 115.14 165.75C118.587 164.779 122.108 163.664 125.1 161.635C128.01 159.66 130.129 156.84 130.953 153.397C132.818 145.627 128.764 138.324 124.895 131.906C122.838 128.496 120.878 125.061 119.276 121.41C117.698 117.815 116.427 114.082 115.456 110.283C114.816 107.783 114.312 105.254 113.939 102.705C113.751 102.545 113.697 102.262 113.775 102.053L113.812 102.07Z" fill="#1D1D1B"/>
<path d="M114.066 81.0983C114.07 81.0245 114.066 80.9589 114.046 80.8975C114.062 80.9589 114.07 81.0245 114.066 81.0983Z" fill="#1D1D1B"/>
<path d="M113.866 101.963C113.846 101.996 113.825 102.029 113.813 102.07C113.735 102.283 113.788 102.561 113.977 102.721C113.948 102.533 113.924 102.344 113.895 102.152C113.887 102.09 113.878 102.025 113.87 101.963H113.866Z" fill="#1D1D1B"/>
<path d="M124.912 101.992C124.973 101.992 125.031 101.984 125.092 101.984C123.838 96.8238 121.022 92.0697 117.124 88.4713C116.022 87.4508 114.833 86.5287 113.579 85.709C113.554 85.6926 113.53 85.6803 113.505 85.6721V85.7049C113.501 85.7623 113.493 85.8238 113.489 85.8811C113.472 86.0779 113.456 86.2705 113.439 86.4672C117.665 89.291 121.014 93.3525 123.03 98.0164C123.592 99.3115 124.039 100.656 124.379 102.029C124.42 102.029 124.457 102.029 124.498 102.029C124.637 102.029 124.781 102.016 124.92 102.008L124.912 101.996V101.992Z" fill="#1D1D1B"/>
<path d="M113.501 85.6968V85.664C113.378 85.6189 113.26 85.6558 113.178 85.7377C113.149 85.7664 113.124 85.7992 113.104 85.8361C113.104 85.8361 113.1 85.8484 113.096 85.8525C113.092 85.8607 113.087 85.873 113.083 85.8853C113.083 85.8853 113.083 85.8976 113.079 85.9017C113.055 85.9714 113.051 86.0533 113.075 86.123C113.075 86.1312 113.075 86.1353 113.083 86.1435C113.092 86.164 113.1 86.1804 113.112 86.2009C113.112 86.2009 113.137 86.2377 113.153 86.2541C113.157 86.2541 113.165 86.2664 113.169 86.2705C113.186 86.2869 113.206 86.3033 113.227 86.3156C113.264 86.3402 113.296 86.3607 113.333 86.3853C113.37 86.4099 113.403 86.4304 113.44 86.455C113.456 86.2582 113.473 86.0656 113.489 85.8689C113.493 85.8115 113.497 85.75 113.505 85.6927H113.501V85.6968Z" fill="#1D1D1B"/>
<path d="M113.657 80.5123C113.534 80.4713 113.399 80.4672 113.288 80.5123C113.399 80.4672 113.534 80.4672 113.657 80.5123Z" fill="#1D1D1B"/>
<path d="M113.436 86.4589C113.452 86.2622 113.468 86.0695 113.485 85.8728" stroke="#1D1D1B" stroke-linecap="round" stroke-linejoin="round"/>
<path d="M114.047 80.8974C114.034 80.8605 114.022 80.8236 114.001 80.7908C113.993 80.7772 113.993 80.7772 114.001 80.7908C113.985 80.758 113.96 80.7252 113.936 80.6966C113.932 80.6884 113.924 80.6843 113.915 80.6761C113.911 80.6679 113.903 80.6638 113.895 80.6556C113.887 80.6474 113.883 80.6433 113.874 80.6351C113.862 80.6228 113.846 80.6105 113.829 80.5982C113.776 80.5613 113.719 80.5285 113.657 80.508C113.534 80.467 113.399 80.467 113.288 80.508C113.276 80.508 113.264 80.5162 113.255 80.5244C113.149 80.5818 113.063 80.6884 113.038 80.8564C113.03 80.9056 113.022 80.9589 113.014 81.008C113.272 81.0285 113.53 81.049 113.788 81.0695C113.883 81.0777 113.973 81.0818 114.067 81.09C114.071 81.0162 114.067 80.9507 114.047 80.8892V80.8974Z" fill="#1D1D1B"/>
<path d="M113.255 80.5327C113.145 80.5901 113.063 80.6966 113.038 80.8647C113.063 80.6966 113.149 80.5901 113.255 80.5327Z" fill="#1D1D1B"/>
<path d="M109.19 166.18C109.177 166.201 109.169 166.217 109.161 166.233C109.108 166.344 109.12 166.447 109.177 166.529C109.181 166.537 109.19 166.545 109.198 166.557C109.28 166.66 109.427 166.721 109.567 166.697C109.579 166.697 109.591 166.692 109.608 166.688C109.62 166.688 109.632 166.68 109.649 166.676C109.686 166.66 109.722 166.635 109.755 166.602C109.772 166.586 109.788 166.57 109.8 166.545C109.936 166.348 110.071 166.152 110.198 165.951C109.866 166.024 109.53 166.098 109.198 166.172C109.198 166.172 109.198 166.176 109.194 166.18H109.19Z" fill="#1D1D1B"/>
<path d="M109.751 166.598C109.718 166.631 109.681 166.656 109.645 166.672" stroke="#1D1D1B" stroke-linecap="round" stroke-linejoin="round"/>
<path d="M109.562 166.697C109.562 166.697 109.587 166.693 109.604 166.688" stroke="#1D1D1B" stroke-linecap="round" stroke-linejoin="round"/>
<path d="M109.189 166.18C109.177 166.201 109.168 166.217 109.16 166.234C109.168 166.217 109.177 166.201 109.189 166.184V166.18Z" fill="#1D1D1B"/>
<path d="M86.9001 35.2582C86.7894 35.3033 86.6787 35.3484 86.5681 35.3935C86.4574 35.4385 86.3467 35.4795 86.232 35.5205C86.2156 35.5246 86.1992 35.5287 86.1828 35.5328C86.1664 35.5328 86.1541 35.5369 86.1377 35.541L86.1582 35.7131C90.5889 35.1762 94.9991 34.4631 99.397 33.7295C100.196 33.5984 100.991 33.4631 101.787 33.3279C102.463 33.2131 102.176 32.1926 101.504 32.3033C97.278 33.0164 93.0481 33.7254 88.8019 34.3074C88.4453 34.5164 88.0764 34.7131 87.7034 34.8935C87.437 35.0246 87.1665 35.1435 86.8919 35.2582H86.9001Z" fill="#1D1D1B"/>
<path d="M88.2776 34.3769C88.4539 34.3523 88.6301 34.3318 88.8063 34.3072C91.2574 32.8687 93.3026 30.7744 94.6552 28.2539C94.8724 27.8523 94.2617 27.4957 94.0445 27.8974C92.4378 30.8851 89.8187 33.2744 86.6914 34.5859C86.8677 34.5654 87.0439 34.5408 87.2201 34.5203C87.5726 34.4752 87.9251 34.4302 88.2776 34.381V34.3769Z" fill="#1D1D1B"/>
<path d="M88.8061 34.3074C88.6298 34.332 88.4536 34.3566 88.2773 34.377C88.4536 34.3525 88.6298 34.332 88.8061 34.3074Z" fill="#1D1D1B"/>
<path d="M76.3379 36.5614C77.9241 40.2663 80.9612 43.2786 84.6706 44.8687C85.7526 45.3318 86.8798 45.672 88.0397 45.8769C88.4865 45.9507 88.675 45.2704 88.2283 45.1925C84.3263 44.5122 80.7645 42.2253 78.4856 38.9876C77.9405 38.213 77.4732 37.3892 77.088 36.5286C76.965 36.5327 76.8379 36.5409 76.7109 36.5491C76.5879 36.5532 76.4609 36.5614 76.3379 36.5655V36.5614Z" fill="#1D1D1B"/>
<path d="M86.6914 34.5818H86.6962H86.6914V34.5865V34.5818Z" fill="#1D1D1B"/>
<path d="M86.6911 34.5818C86.6378 34.6023 86.5845 34.6269 86.5312 34.6474C86.5845 34.6269 86.6378 34.6064 86.6911 34.5818Z" fill="#1D1D1B"/>
<path d="M86.208 34.7744C86.1547 34.7949 86.1014 34.8154 86.0441 34.8359C86.0031 34.8523 85.9662 34.8728 85.9375 34.8974C85.9662 34.8728 86.0031 34.8523 86.0441 34.84C86.0973 34.8195 86.1506 34.799 86.208 34.7785V34.7744Z" fill="#1D1D1B"/>
<path d="M86.2323 35.5163C86.3429 35.4754 86.4577 35.4344 86.5684 35.3893C86.679 35.3483 86.7897 35.3032 86.9004 35.254C87.175 35.1393 87.4455 35.0163 87.7119 34.8893C88.0849 34.709 88.4497 34.5122 88.8063 34.3032C88.63 34.3278 88.4538 34.3524 88.2775 34.3729C87.925 34.418 87.5725 34.4672 87.2201 34.5122C87.0438 34.5327 86.8676 34.5573 86.6913 34.5778C86.638 34.5983 86.5847 34.6229 86.5315 34.6434C86.4249 34.6844 86.3183 34.7295 86.2077 34.7704C86.1544 34.7909 86.1011 34.8114 86.0437 34.8319C86.0027 34.8483 85.9658 34.8688 85.9372 34.8893C85.9658 34.8688 85.9208 34.9016 85.9167 34.9098C85.8757 34.9508 85.847 34.9958 85.8265 35.045C85.7773 35.1844 85.8142 35.3483 85.9085 35.4467C85.9085 35.4508 85.9167 35.4549 85.9208 35.459C85.929 35.4672 85.9372 35.4713 85.9454 35.4795C85.9986 35.5204 86.0642 35.5409 86.1421 35.5327C86.1585 35.5327 86.1708 35.5327 86.1872 35.5245C86.2036 35.5245 86.22 35.5163 86.2364 35.5122H86.2323V35.5163Z" fill="#1D1D1B"/>
<path d="M77.0878 36.5245C77.051 36.4385 77.0141 36.3524 76.9772 36.2663C76.9403 36.1803 76.9075 36.0942 76.8706 36.0081C76.8624 35.9876 76.8542 35.9672 76.8419 35.9508C76.8296 35.9344 76.8214 35.918 76.8091 35.9016C76.8009 35.8934 76.7968 35.8893 76.7886 35.8811C76.637 35.7295 76.3829 35.7458 76.2476 35.8729C76.2476 35.8729 76.2394 35.8811 76.2353 35.8852C76.2271 35.8934 76.223 35.9016 76.2148 35.9098C76.2148 35.9098 76.2148 35.918 76.2066 35.9221C76.2066 35.9303 76.1943 35.9385 76.1902 35.9467C76.1902 35.9549 76.182 35.9631 76.182 35.9713V35.9795C76.182 35.9876 76.182 35.9958 76.1738 36.004C76.1738 36.0163 76.1738 36.0245 76.1738 36.0368V36.1065C76.1738 36.127 76.182 36.1434 76.1861 36.1639C76.1861 36.1762 76.1943 36.1844 76.1984 36.1967C76.2476 36.3196 76.2968 36.4426 76.3501 36.5614C76.4771 36.5573 76.6001 36.5491 76.7231 36.545C76.8501 36.5409 76.9731 36.5327 77.1001 36.5245H77.0878Z" fill="#1D1D1B"/>
<path d="M60.2624 34.8115C60.0411 34.8648 59.8198 34.9139 59.5943 34.9631C59.3402 35.0164 59.082 35.0615 58.8238 35.1066C58.7254 35.123 58.627 35.1394 58.5246 35.1516C58.377 35.1721 58.2254 35.1926 58.0737 35.2131H58.0245C57.9999 35.2131 57.9794 35.2131 57.9549 35.2049L57.918 35.3976C58.8689 35.582 59.8239 35.7418 60.783 35.8812C65.931 36.6353 71.1363 36.791 76.3294 36.5615C76.2761 36.4426 76.2269 36.3197 76.1777 36.1967C76.1777 36.1844 76.1695 36.1762 76.1654 36.1639C76.1654 36.1435 76.1572 36.123 76.1531 36.1066V36.0369C76.1531 36.0369 76.1531 36.0164 76.1531 36.0041C76.1531 35.9959 76.1531 35.9877 76.1613 35.9795V35.9713C76.1613 35.9631 76.1613 35.9549 76.1695 35.9467C76.1695 35.9385 76.1777 35.9303 76.1859 35.9221C76.1859 35.9221 76.1859 35.9139 76.1941 35.9098C76.1941 35.9017 76.2064 35.8935 76.2146 35.8853C76.2146 35.8853 76.2228 35.8771 76.2269 35.873C76.3622 35.7459 76.6163 35.7295 76.7679 35.8812C76.7761 35.8894 76.7802 35.8935 76.7884 35.9016C76.8007 35.918 76.813 35.9344 76.8212 35.9508C76.8335 35.9672 76.8417 35.9877 76.8499 36.0082C76.8827 36.0943 76.9196 36.1803 76.9565 36.2664C76.9934 36.3525 77.0303 36.4385 77.0672 36.5246C77.8992 36.4836 78.7312 36.4303 79.5592 36.3648C81.7561 36.2008 83.9489 35.9754 86.1376 35.709L86.1171 35.5369C86.0392 35.5451 85.9737 35.5246 85.9204 35.4836C85.9122 35.4754 85.904 35.4713 85.8958 35.4631C85.8958 35.4631 85.8876 35.4549 85.8835 35.4508C85.7892 35.3525 85.7523 35.1885 85.8015 35.0492C85.8179 35 85.8466 34.9508 85.8917 34.9139C85.8999 34.9057 85.904 34.9017 85.9122 34.8935C85.9409 34.8689 85.9778 34.8484 86.0187 34.832C86.072 34.8115 86.1253 34.791 86.1827 34.7705C86.2893 34.7295 86.3999 34.6885 86.5065 34.6435C86.5598 34.623 86.6131 34.5984 86.6663 34.5779C85.1293 34.7705 83.5882 34.9426 82.0471 35.0861C75.8375 35.6721 69.5706 35.8279 63.3611 35.1476C62.3815 35.0369 61.4019 34.9098 60.4223 34.7582C60.3608 34.7746 60.3034 34.7869 60.2419 34.8033L60.2542 34.8115H60.2624Z" fill="#1D1D1B"/>
<path d="M76.2074 35.9221C76.2074 35.9221 76.1947 35.9391 76.1904 35.9476" stroke="#1D1D1B" stroke-linecap="round" stroke-linejoin="round"/>
<path d="M76.1911 35.9465C76.1911 35.9465 76.1826 35.9635 76.1826 35.972" stroke="#1D1D1B" stroke-linecap="round" stroke-linejoin="round"/>
<path d="M76.1784 35.9795C76.1784 35.9795 76.1784 35.9965 76.1699 36.005" stroke="#1D1D1B" stroke-linecap="round" stroke-linejoin="round"/>
<path d="M76.1621 36.0697V36.0369" stroke="#1D1D1B" stroke-linecap="round" stroke-linejoin="round"/>
<path d="M74.2971 88.75C74.379 88.668 74.461 88.582 74.543 88.5C74.5594 88.4836 74.5758 88.4631 74.5881 88.4426C74.5758 88.4631 74.5594 88.4795 74.5389 88.5C74.4569 88.582 74.3749 88.668 74.293 88.75H74.2971Z" fill="#1D1D1B"/>
<path d="M59.4845 34.6105C59.8042 34.6638 60.1239 34.7171 60.4436 34.7663C65.3825 33.5204 69.7846 30.3892 72.6291 26.1474C73.5636 24.7499 74.3136 23.2417 74.867 21.6556C75.0186 21.2212 74.3341 21.0368 74.1825 21.4671C72.3217 26.8277 67.9688 31.2212 62.7061 33.3072C61.3617 33.84 59.9558 34.2253 58.5254 34.4425C58.6934 34.4753 58.8615 34.504 59.0295 34.5368C59.1812 34.5613 59.3287 34.59 59.4804 34.6146L59.4845 34.6105Z" fill="#1D1D1B"/>
<path d="M65.1572 100.934C65.2638 100.947 65.3704 100.963 65.4769 100.975C65.6163 100.992 65.7515 101.008 65.8909 101.029C67.5181 97.4344 69.6371 94.0655 72.1906 91.0574C72.789 90.3524 73.412 89.668 74.0555 89.0041C74.0473 88.9303 74.0391 88.8524 74.0309 88.7746C74.0145 88.6229 73.9981 88.4713 73.9818 88.3196C73.9736 88.2459 73.9654 88.168 73.9531 88.0942C71.0676 91 68.5919 94.3156 66.641 97.9139C66.104 98.9016 65.6122 99.9098 65.1572 100.934Z" fill="#1D1D1B"/>
<path d="M74.0302 88.7745C74.0384 88.8483 74.0466 88.9261 74.0548 88.9999L74.1163 88.9384C74.1778 88.877 74.2393 88.8114 74.3007 88.7499C74.3827 88.6679 74.4647 88.5819 74.5467 88.4999C74.5631 88.4835 74.5795 88.463 74.5959 88.4425C74.6819 88.3196 74.6614 88.1761 74.5959 88.0696C74.5959 88.0696 74.5877 88.0573 74.5836 88.0532C74.5836 88.0532 74.5754 88.045 74.5754 88.0409C74.5754 88.0327 74.5631 88.0286 74.559 88.0204L74.5467 88.0081L74.5344 87.9958C74.5344 87.9958 74.5221 87.9835 74.5139 87.9794C74.5139 87.9794 74.5016 87.9712 74.4975 87.9671C74.4893 87.9671 74.4852 87.9589 74.477 87.9507C74.4606 87.9425 74.4483 87.9343 74.4319 87.9261C74.4196 87.9261 74.4114 87.9179 74.3991 87.9138C74.2885 87.877 74.1655 87.8934 74.0589 87.9999L73.9688 88.0901C73.9769 88.1638 73.9851 88.2417 73.9974 88.3155C74.0138 88.4671 74.0302 88.6188 74.0466 88.7704H74.0302V88.7745Z" fill="#1D1D1B"/>
<path d="M73.5547 81C73.3744 81.0123 73.194 81.0287 73.0137 81.041C73.194 81.0246 73.3744 81.0123 73.5547 81Z" fill="#1D1D1B"/>
<path d="M73.4115 80.5368C73.3951 80.4876 73.3746 80.4466 73.3541 80.4056C73.3295 80.3688 73.3049 80.336 73.2721 80.3073C73.1574 80.2007 73.0057 80.1597 72.8582 80.172C72.809 80.172 72.7639 80.1843 72.7188 80.2007C72.6983 80.2089 72.6737 80.2171 72.6532 80.2253C72.6327 80.2335 72.6122 80.2458 72.5918 80.2581C72.5836 80.2581 72.5795 80.2663 72.5713 80.2704C72.5467 80.2868 72.5221 80.3073 72.4975 80.3278C72.3827 80.4425 72.3253 80.6106 72.3909 80.8196C72.4196 80.9097 72.4483 80.9999 72.4729 81.0901C72.6409 81.0778 72.8049 81.0614 72.9729 81.0491H73.0139C73.1943 81.0327 73.3746 81.0204 73.555 81.0081C73.5427 80.963 73.5304 80.922 73.514 80.8769C73.4812 80.7663 73.4443 80.6556 73.4115 80.545V80.5368Z" fill="#1D1D1B"/>
<path d="M73.4158 80.5369C73.3994 80.4877 73.383 80.4467 73.3584 80.4058C73.383 80.4426 73.3994 80.4877 73.4158 80.5369Z" fill="#1D1D1B"/>
<path d="M73.3948 102.333C73.3948 102.333 73.3948 102.312 73.403 102.304C73.403 102.291 73.403 102.283 73.403 102.271C73.403 102.291 73.3948 102.312 73.3906 102.333H73.3948Z" fill="#1D1D1B"/>
<path d="M73.3909 102.349V102.333C73.3909 102.312 73.3991 102.291 73.4033 102.271C73.4033 102.295 73.395 102.324 73.3867 102.349H73.3909Z" fill="#1D1D1B"/>
<path d="M73.2725 80.3074C73.3012 80.3361 73.3298 80.3689 73.3544 80.4057" stroke="#1D1D1B" stroke-linecap="round" stroke-linejoin="round"/>
<path d="M73.3948 102.332V102.348C73.3948 102.324 73.403 102.295 73.4112 102.27V102.258C73.444 101.971 73.2719 101.647 72.903 101.631C70.5585 101.512 68.2182 101.311 65.8901 101.029C65.8245 101.168 65.763 101.311 65.7016 101.451C65.6032 101.676 65.3778 101.672 65.222 101.557C65.2138 101.549 65.2015 101.541 65.1933 101.533C65.1851 101.525 65.1769 101.516 65.1646 101.508C65.0745 101.414 65.0253 101.279 65.0745 101.131C65.0745 101.119 65.0827 101.106 65.0909 101.09C65.1031 101.065 65.1113 101.037 65.1236 101.012C65.1359 100.988 65.1482 100.959 65.1564 100.934C61.5906 100.475 58.0534 99.8237 54.5613 98.9794C52.5447 98.4958 50.5404 97.9466 48.5525 97.336C48.5484 97.3442 48.5403 97.3524 48.5362 97.3606C48.5198 97.3811 48.5034 97.4016 48.4911 97.4221C48.4706 97.4507 48.4501 97.4794 48.4296 97.5081C48.2738 97.7253 47.991 97.6884 47.8435 97.545C47.7615 97.463 47.7205 97.3442 47.7738 97.2212C47.782 97.1966 47.7984 97.1721 47.8148 97.1516C47.8189 97.1516 47.823 97.1393 47.8271 97.1311C47.8312 97.1311 47.8353 97.1188 47.8394 97.1147C44.1546 95.9548 40.5355 94.5819 37.0106 92.9999C34.203 91.7417 31.4568 90.3524 28.7763 88.8401C28.4197 88.9384 28.059 89.0409 27.7024 89.1434C27.6532 89.1557 27.604 89.1721 27.5548 89.1843C27.5384 89.1843 27.5262 89.1925 27.5139 89.1925C27.5139 89.1925 27.4934 89.1925 27.4852 89.1925C27.4196 89.2007 27.3622 89.2007 27.3048 89.1925C27.2843 89.1925 27.2638 89.1843 27.2433 89.1762C27.2351 89.1762 27.2269 89.168 27.2188 89.168C32.6291 92.3073 38.3304 94.9343 44.2243 97.0204C50.1019 99.0983 56.1721 100.635 62.3324 101.598C65.8368 102.147 69.3658 102.512 72.903 102.688C73.1735 102.701 73.3334 102.545 73.3907 102.348V102.332H73.3948Z" fill="#1D1D1B"/>
<path d="M72.3908 80.8197C72.3252 80.6107 72.3826 80.4426 72.4974 80.3279C72.5179 80.3074 72.5425 80.2869 72.5712 80.2705C72.5794 80.2705 72.5835 80.2623 72.5917 80.2582C72.6121 80.2459 72.6326 80.2336 72.6531 80.2254C72.6736 80.2172 72.6982 80.209 72.7187 80.2008C72.7638 80.1844 72.813 80.1762 72.8581 80.1721L72.8458 80C67.583 80.4221 62.3326 81.0123 57.1067 81.7746C48.1674 83.0779 39.306 84.8934 30.5839 87.2418C29.756 87.4672 28.9281 87.6926 28.1001 87.9262C28.0837 88.0041 28.0673 88.0861 28.0509 88.1639C28.0346 88.2418 28.0182 88.3238 28.0059 88.4016C28.26 88.5492 28.5182 88.6967 28.7764 88.8402C37.0271 86.5328 45.409 84.7049 53.8687 83.3361C57.0903 82.8156 60.3201 82.3648 63.5581 81.9795C63.6565 81.9139 63.7507 81.8484 63.8491 81.7869C63.9475 81.7213 64.0458 81.6598 64.1401 81.5943C64.1565 81.5861 64.1729 81.5738 64.1852 81.5697C64.2672 81.5328 64.345 81.5287 64.4106 81.5533C64.4598 81.5697 64.5008 81.5984 64.5377 81.6311C64.5582 81.6516 64.5787 81.6762 64.5951 81.7049C64.6238 81.75 64.6402 81.7992 64.6524 81.8525C67.251 81.5574 69.8578 81.2992 72.4687 81.0861C72.4441 80.9959 72.4154 80.9057 72.3867 80.8156L72.3908 80.8197Z" fill="#1D1D1B"/>
<path d="M65.1563 100.934L65.1194 101.012C65.1071 101.037 65.0989 101.065 65.0866 101.09C65.0866 101.102 65.0743 101.115 65.0702 101.127C65.0211 101.274 65.0702 101.41 65.1604 101.504C65.1686 101.512 65.1768 101.52 65.1891 101.529C65.1973 101.537 65.2096 101.545 65.2178 101.553C65.3735 101.668 65.599 101.672 65.6973 101.447C65.7588 101.307 65.8203 101.164 65.8859 101.024C65.7465 101.008 65.6113 100.992 65.4719 100.971C65.3653 100.959 65.2588 100.947 65.1522 100.93L65.1563 100.934Z" fill="#1D1D1B"/>
<path d="M65.1195 101.012C65.1072 101.037 65.0949 101.065 65.0867 101.09C65.0867 101.102 65.0744 101.115 65.0703 101.131C65.0703 101.119 65.0785 101.106 65.0867 101.094C65.099 101.07 65.1072 101.041 65.1195 101.016V101.012Z" fill="#1D1D1B"/>
<path d="M64.6569 81.8523C64.6487 81.799 64.6282 81.7498 64.5995 81.7047C64.5831 81.676 64.5626 81.6515 64.5421 81.631C64.5052 81.5941 64.4642 81.5654 64.415 81.5531C64.3454 81.5285 64.2675 81.5326 64.1896 81.5695C64.1732 81.5777 64.1568 81.5859 64.1445 81.5941C64.0461 81.6556 63.9478 81.7211 63.8535 81.7867C63.7551 81.8523 63.6568 81.9138 63.5625 81.9793C63.9232 81.9383 64.2798 81.8933 64.6405 81.8523H64.661H64.6569Z" fill="#1D1D1B"/>
<path d="M60.4885 85.0449C61.7878 84.0449 63.128 83.0982 64.5011 82.2089C64.6405 82.1187 64.6815 81.9793 64.6569 81.8523H64.6364C64.2757 81.8933 63.915 81.9343 63.5584 81.9793C58.8408 85.1187 54.5617 88.9056 50.8893 93.2211C49.8195 94.4752 48.803 95.7744 47.8398 97.1146C47.8685 97.1228 47.8972 97.131 47.9259 97.1392C48.135 97.2048 48.344 97.2703 48.553 97.3359C51.9181 92.7007 55.9553 88.5449 60.4885 85.0449Z" fill="#1D1D1B"/>
<path d="M64.4149 81.5531C64.3452 81.5285 64.2673 81.5326 64.1895 81.5695C64.2714 81.5326 64.3493 81.5285 64.4149 81.5531Z" fill="#1D1D1B"/>
<path d="M64.1896 81.5696C64.1896 81.5696 64.1568 81.586 64.1445 81.5942C64.0462 81.6556 63.9478 81.7212 63.8535 81.7868C63.9519 81.7212 64.0503 81.6597 64.1445 81.5942C64.1609 81.5819 64.1773 81.5737 64.1896 81.5696Z" fill="#1D1D1B"/>
<path d="M63.5586 81.9835C63.9193 81.9425 64.2759 81.8974 64.6366 81.8564" stroke="#1D1D1B" stroke-linecap="round" stroke-linejoin="round"/>
<path d="M58.3033 34.4713C58.2336 34.4795 58.1639 34.4918 58.0943 34.5H58.082C57.6762 34.5491 57.6352 35.1352 57.9631 35.2049C57.9836 35.209 58.0082 35.2131 58.0328 35.2131H58.082C58.2336 35.1967 58.3812 35.1762 58.5287 35.1516C58.6271 35.1352 58.7255 35.1229 58.8279 35.1065C59.0861 35.0655 59.3444 35.0163 59.5985 34.9631C59.8239 34.918 60.0452 34.8688 60.2666 34.8114C60.3281 34.7991 60.3854 34.7827 60.4469 34.7663C60.1272 34.7172 59.8075 34.6639 59.4878 34.6106C59.3362 34.586 59.1886 34.5573 59.037 34.5327C58.8689 34.5041 58.7009 34.4713 58.5328 34.4385H58.5164C58.4467 34.4508 58.3771 34.459 58.3074 34.4672H58.3033V34.4713Z" fill="#1D1D1B"/>
<path d="M58.5292 35.1516C58.3816 35.1721 58.2299 35.1926 58.0824 35.2131C58.234 35.1967 58.3816 35.1762 58.5332 35.1516H58.5292Z" fill="#1D1D1B"/>
<path d="M39.9869 27.2131C39.9869 27.2131 39.9746 27.2458 39.9705 27.2622C39.9377 27.3401 39.9049 27.4139 39.8762 27.4917C39.7819 27.7253 39.6999 27.959 39.6221 28.1967C40.9378 29.0696 42.3026 29.8729 43.7003 30.5901C48.1761 32.8893 52.9962 34.4467 57.9269 35.3975L57.9638 35.2049C57.6359 35.1352 57.6769 34.5491 58.0827 34.4999H58.095C58.1646 34.4917 58.2343 34.4835 58.304 34.4712C58.3737 34.463 58.4434 34.4508 58.513 34.4426H58.5294C54.3528 33.6639 50.2541 32.459 46.389 30.7131C44.1634 29.709 42.0198 28.5245 39.9992 27.168C39.9992 27.1762 39.9992 27.1844 39.991 27.1926C39.991 27.2008 39.9869 27.209 39.9828 27.2172H39.9869V27.2131Z" fill="#1D1D1B"/>
<path d="M55.9631 51.2254C56.3115 51.0041 56.2541 50.582 56.0286 50.3648C56.0082 50.3484 55.9918 50.3279 55.9672 50.3156C55.8237 50.2131 55.627 50.1845 55.4261 50.3115C55.3237 50.3771 55.2212 50.4386 55.1187 50.5041C55.0163 50.5697 54.9138 50.6353 54.8154 50.7008C54.9097 50.7459 55.004 50.791 55.0982 50.8361C55.2868 50.9263 55.4794 51.0123 55.668 51.1025C55.7622 51.1476 55.8606 51.1886 55.9549 51.2336L55.9631 51.2254Z" fill="#1D1D1B"/>
<path d="M55.6768 51.0942C55.771 51.1393 55.8694 51.1803 55.9637 51.2254C55.8694 51.1844 55.771 51.1393 55.6768 51.0942Z" fill="#1D1D1B"/>
<path d="M47.9216 97.1432C47.8929 97.135 47.8642 97.1268 47.8355 97.1187C47.8314 97.1187 47.8273 97.1309 47.8232 97.135C47.8191 97.1391 47.815 97.1473 47.8109 97.1555C47.7945 97.1801 47.7822 97.2047 47.7699 97.2252C47.7166 97.3482 47.7535 97.467 47.8396 97.549C47.9871 97.6924 48.2659 97.7293 48.4257 97.5121C48.4462 97.4834 48.4667 97.4547 48.4872 97.426C48.5036 97.4055 48.52 97.385 48.5323 97.3646C48.5364 97.3564 48.5446 97.3482 48.5487 97.34C48.3396 97.2744 48.1306 97.2088 47.9216 97.1432Z" fill="#1D1D1B"/>
<path d="M48.5328 97.3606C48.5163 97.3813 48.4997 97.402 48.4873 97.4227" stroke="#1D1D1B" stroke-linecap="round" stroke-linejoin="round"/>
<path d="M47.7699 97.2253C47.7166 97.3483 47.7535 97.4671 47.8396 97.5491C47.7576 97.4671 47.7166 97.3483 47.7699 97.2253Z" fill="#1D1D1B"/>
<path d="M39.7896 26.8933C39.7732 26.9219 39.7568 26.9547 39.7363 26.9875C39.7486 26.9957 39.7609 27.0039 39.7732 27.0121C39.8388 27.0572 39.9085 27.1023 39.9741 27.1515C39.9823 27.1555 39.9864 27.1596 39.9945 27.1637C40.0396 26.9875 39.9945 26.8236 39.9003 26.6965C39.8716 26.7457 39.8429 26.7908 39.8183 26.84C39.8101 26.8564 39.7978 26.8769 39.7896 26.8933Z" fill="#1D1D1B"/>
<path d="M39.9868 27.2131C39.9868 27.2131 39.9745 27.2459 39.9663 27.2623C39.9336 27.3402 39.9008 27.414 39.8721 27.4918C39.9049 27.414 39.9336 27.3361 39.9663 27.2623C39.9745 27.2459 39.9786 27.2295 39.9827 27.2131H39.9868Z" fill="#1D1D1B"/>
<path d="M39.7369 26.9875C39.7533 26.9547 39.7697 26.926 39.7902 26.8932C39.7984 26.8769 39.8107 26.8605 39.8189 26.84C39.8476 26.7908 39.8721 26.7457 39.9008 26.6965C39.8803 26.6678 39.8558 26.6432 39.8312 26.6146L39.8066 26.59C39.6508 26.4547 39.4336 26.3973 39.2614 26.4793C39.2491 26.4834 39.2368 26.4916 39.2246 26.4998C39.2123 26.508 39.2 26.5162 39.1918 26.5244C39.1754 26.5367 39.159 26.5531 39.1426 26.5695C39.3393 26.7088 39.5361 26.8482 39.7369 26.9834V26.9875Z" fill="#1D1D1B"/>
<path d="M39.8351 26.6188L39.8105 26.5942" stroke="#1D1D1B" stroke-linecap="round" stroke-linejoin="round"/>
<path d="M39.7363 26.9876C39.7527 26.9548 39.7691 26.9261 39.7896 26.8933C39.7732 26.922 39.7527 26.9548 39.7363 26.9876Z" fill="#1D1D1B"/>
<path d="M39.4044 27.5901C39.5151 27.3893 39.6257 27.1885 39.7364 26.9877C39.5356 26.8524 39.3388 26.7131 39.1421 26.5737C39.1052 26.6106 39.0724 26.6639 39.0478 26.7213C38.9249 27.0041 38.8142 27.2909 38.7158 27.5819C38.8388 27.668 38.9658 27.7541 39.0888 27.8401C39.2118 27.8155 39.3265 27.7336 39.4044 27.586V27.5901Z" fill="#1D1D1B"/>
<path d="M39.8715 27.4877C39.9043 27.4099 39.933 27.332 39.9658 27.2582C39.974 27.2418 39.9781 27.2254 39.9863 27.2091C39.9863 27.2009 39.9904 27.1927 39.9945 27.1845C39.9945 27.1763 39.9986 27.1681 39.9986 27.1599C39.9986 27.1599 39.9863 27.1517 39.9781 27.1476C39.9125 27.1025 39.8428 27.0574 39.7773 27.0082C39.765 27 39.7527 26.9918 39.7404 26.9836C39.6256 27.1845 39.5149 27.3853 39.4084 27.5861C39.3305 27.7336 39.2157 27.8115 39.0928 27.8402C39.1461 27.8771 39.2034 27.914 39.2567 27.9509C39.3674 28.0246 39.4781 28.1025 39.5887 28.1722C39.5969 28.1763 39.6092 28.1845 39.6174 28.1927C39.6912 27.955 39.7773 27.7173 39.8715 27.4877Z" fill="#1D1D1B"/>
<path d="M39.5889 28.1763C39.5889 28.1763 39.6094 28.1886 39.6176 28.1968C39.6176 28.1968 39.5971 28.1845 39.5889 28.1763Z" fill="#1D1D1B"/>
<path d="M39.5888 28.1761C39.4782 28.1024 39.3675 28.0286 39.2568 27.9548" stroke="#1D1D1B" stroke-linecap="round" stroke-linejoin="round"/>
<path d="M39.2285 26.5043C39.2285 26.5043 39.2533 26.4919 39.2658 26.4836" stroke="#1D1D1B" stroke-linecap="round" stroke-linejoin="round"/>
<path d="M39.1922 26.5286C39.1922 26.5286 39.1591 26.5575 39.1426 26.5741C39.1426 26.5741 39.1757 26.541 39.1922 26.5286Z" fill="#1D1D1B"/>
<path d="M39.0479 26.7212C39.0725 26.6597 39.1053 26.6105 39.1422 26.5736C39.0479 26.508 38.9577 26.4425 38.8635 26.3728C38.7364 26.5982 38.6093 26.8236 38.4864 27.0531C38.4249 27.1638 38.4085 27.2744 38.4208 27.3728C38.5192 27.4425 38.6175 27.5121 38.7159 27.5818C38.8143 27.2908 38.9249 27.0039 39.0479 26.7212Z" fill="#1D1D1B"/>
<path d="M38.7656 27.8031C38.7656 27.8031 38.8024 27.8195 38.8188 27.8236C38.909 27.8523 38.9992 27.8605 39.0894 27.84C38.9623 27.7539 38.8393 27.6679 38.7164 27.5818C38.7 27.6351 38.6795 27.6924 38.6631 27.7457C38.6631 27.7457 38.6877 27.7621 38.7 27.7703C38.7205 27.7826 38.741 27.7949 38.7656 27.8031Z" fill="#1D1D1B"/>
<path d="M38.425 27.3728C38.4455 27.5285 38.5398 27.6597 38.6627 27.7458C38.6791 27.6925 38.6996 27.6351 38.716 27.5818C38.6176 27.5121 38.5193 27.4425 38.4209 27.3728H38.425Z" fill="#1D1D1B"/>
<path d="M38.8635 26.3729C36.9699 25.0082 35.1952 23.4795 33.5721 21.791C30.08 18.168 27.2928 13.8197 25.7394 9.01228C25.5468 8.41802 25.3746 7.81556 25.2189 7.209C25.0468 6.54917 24.0221 6.82786 24.1942 7.49179C25.4812 12.5082 28.0552 17.1106 31.4325 21.0205C33.4942 23.4098 35.8551 25.5369 38.4249 27.3729C38.4127 27.2746 38.429 27.1639 38.4905 27.0533C38.6135 26.8238 38.7365 26.5983 38.8676 26.3729H38.8635Z" fill="#1D1D1B"/>
<path d="M28.0064 88.4016C27.9777 88.541 27.9531 88.6762 27.9286 88.8155C27.8958 88.9795 27.8138 89.0901 27.7031 89.1434C28.0597 89.041 28.4204 88.9385 28.777 88.8401C28.5188 88.6967 28.2647 88.5492 28.0064 88.4016Z" fill="#1D1D1B"/>
<path d="M27.928 88.8156C27.9526 88.6762 27.9813 88.541 28.0059 88.4016C27.8993 88.3402 27.7887 88.2787 27.6821 88.2131C27.5386 88.127 27.3952 88.1188 27.2722 88.1598C27.0878 88.2213 26.9484 88.3893 26.9033 88.5779C26.891 88.6598 26.9033 88.7459 26.9238 88.8279V88.8361C27.0181 89.0697 27.2722 89.2049 27.5018 89.1926H27.5059C27.5059 89.1926 27.5345 89.1926 27.5468 89.1844C27.596 89.1721 27.6452 89.1557 27.6944 89.1434C27.8051 89.0861 27.887 88.9795 27.9198 88.8156H27.928Z" fill="#1D1D1B"/>
<path d="M27.2727 88.1599C27.3956 88.1189 27.535 88.1271 27.6825 88.2132C27.7891 88.2746 27.8998 88.3402 28.0063 88.4017C28.0227 88.3238 28.0391 88.2418 28.0514 88.164C28.0678 88.0861 28.0842 88.0041 28.1006 87.9263C27.9653 87.9632 27.8301 88.0041 27.6948 88.041C27.5596 88.0779 27.4243 88.1189 27.289 88.1558C27.2809 88.1558 27.2768 88.1558 27.2686 88.1558L27.2727 88.1599Z" fill="#1D1D1B"/>
<path d="M27.2935 88.1558C27.2935 88.1558 27.2811 88.1558 27.2728 88.1558C27.2604 88.1558 27.2439 88.164 27.2314 88.1682C27.2439 88.1682 27.2604 88.1599 27.2728 88.1558C27.2811 88.1558 27.2852 88.1558 27.2935 88.1558Z" fill="#1D1D1B"/>
<path d="M27.3007 89.1966C27.354 89.2089 27.4155 89.2089 27.4811 89.1966C27.4893 89.1966 27.4975 89.1966 27.5057 89.1966C27.2761 89.2089 27.022 89.0737 26.9277 88.8401C26.9605 88.9425 27.022 89.0409 27.104 89.1065C27.104 89.1065 27.1081 89.1065 27.1122 89.1065C27.1204 89.1147 27.1327 89.1229 27.145 89.127C27.1655 89.1393 27.1901 89.1516 27.2105 89.1639C27.2105 89.1639 27.2269 89.1721 27.2351 89.1721C27.2556 89.1803 27.2761 89.1843 27.2966 89.1884V89.1966H27.3007Z" fill="#1D1D1B"/>
<path d="M27.2722 88.1597C27.2722 88.1597 27.2435 88.1679 27.2312 88.172C27.2189 88.1761 27.2025 88.1802 27.1902 88.1884C27.1246 88.217 27.0755 88.2539 27.0345 88.299C27.0181 88.3154 27.0017 88.3359 26.9894 88.3523C26.9771 88.3728 26.9648 88.3933 26.9525 88.4138C26.9279 88.467 26.9115 88.5203 26.9033 88.5777C26.9484 88.3892 27.0878 88.2211 27.2722 88.1597Z" fill="#1D1D1B"/>
<path d="M26.9039 88.5818C26.9039 88.5818 26.8998 88.6064 26.8957 88.6187C26.8957 88.631 26.8916 88.6474 26.8916 88.6597C26.8916 88.7211 26.9039 88.7785 26.9244 88.8318C26.8998 88.7498 26.8916 88.6638 26.9039 88.5818Z" fill="#1D1D1B"/>
<path d="M26.924 88.8318C26.9035 88.7785 26.8912 88.7211 26.8912 88.6597C26.8748 88.8236 26.9363 88.9916 27.1044 89.1064C27.0224 89.0408 26.9609 88.9425 26.9281 88.84V88.8318H26.924Z" fill="#1D1D1B"/>
<path d="M26.9039 88.5818C26.9121 88.5245 26.9285 88.4671 26.9531 88.4179C26.9654 88.3974 26.9736 88.3769 26.99 88.3564C27.0023 88.3359 27.0187 88.3195 27.0351 88.3031C27.076 88.2581 27.1293 88.2212 27.1908 88.1925C27.2031 88.1925 27.2154 88.1802 27.2318 88.1761C27.2441 88.1761 27.2605 88.1679 27.2728 88.1638C27.281 88.1638 27.2851 88.1638 27.2933 88.1638C27.4285 88.1269 27.5638 88.0859 27.699 88.049C27.8343 88.0122 27.9696 87.9712 28.1048 87.9343C29.3713 81.8646 31.9002 76.1351 35.3186 70.963C38.7779 65.7376 43.0979 61.1105 47.9016 57.0941C50.4551 54.963 53.1521 53.0081 55.9679 51.2335C55.8736 51.1884 55.7752 51.1474 55.681 51.1023C55.4883 51.0163 55.2998 50.9261 55.1112 50.8359C55.017 50.7908 54.9227 50.7458 54.8243 50.7007C49.8526 53.9015 45.2251 57.672 41.1551 61.9671C36.7244 66.6474 32.929 71.9835 30.2812 77.8728C28.7483 81.2826 27.5966 84.8605 26.9039 88.5368C26.8957 88.5818 26.8916 88.6228 26.8916 88.6638C26.8916 88.6515 26.8916 88.6351 26.8957 88.6228C26.8957 88.6105 26.8957 88.5982 26.9039 88.5859V88.5818Z" fill="#1D1D1B"/>
</g>
</g>
<defs>
<clipPath id="clip0_1718_8189">
<rect width="191" height="175" fill="white"/>
</clipPath>
</defs>
</svg>
