<svg width="144" height="150" viewBox="0 0 144 150" fill="none" xmlns="http://www.w3.org/2000/svg">
<path d="M94.875 124.642C94.875 124.642 100.095 105.194 112.205 107.406C126.205 109.963 125.875 121.453 125.875 121.453C125.875 121.453 112.205 111.236 94.875 124.642Z" fill="#2ECC71"/>
<path d="M75.1259 68.5455C75.0659 68.5455 75.0159 68.5455 74.9559 68.5168C74.6959 68.4306 74.5559 68.1529 74.6459 67.9039C81.0159 50.5335 72.4759 21.3274 72.3859 21.0305C72.3059 20.772 72.4659 20.5134 72.7259 20.4368C72.9859 20.3602 73.2659 20.5134 73.3459 20.7624C73.4359 21.0592 82.0659 50.5622 75.5859 68.2104C75.5159 68.4114 75.3159 68.5264 75.1159 68.5264L75.1259 68.5455Z" fill="#261D2A"/>
<path d="M53.0358 8.62112C53.0358 8.62112 45.0858 27.3035 65.8058 37.5974C86.5258 47.8914 97.6958 10.4214 85.4558 3.90984C73.2158 -2.60168 72.6358 23.3774 76.1358 18.6661C79.6358 13.9548 78.3358 -3.53053 69.1458 1.80317C59.9558 7.13688 62.4158 25.2447 64.5458 17.6128C66.6758 9.98088 56.1258 -5.43611 53.0358 8.62112Z" fill="#EDD45B"/>
<path d="M63.1462 18.6178C63.0762 18.6178 63.0062 18.6178 62.9462 18.5987C61.5862 18.3305 61.4262 15.4387 61.7362 12.8149C61.8862 11.503 62.2362 9.95174 62.7662 8.40046C61.4562 6.79173 59.7362 5.47027 58.2062 4.89573C56.9362 4.41694 55.2262 4.1967 54.3462 5.90118C51.7862 10.871 53.9462 17.2389 53.9662 17.3059C54.0562 17.5549 53.9162 17.823 53.6462 17.9092C53.3862 17.9954 53.0962 17.8518 53.0162 17.6028C52.9162 17.3251 50.6962 10.7944 53.4462 5.47027C54.3762 3.66045 56.2462 3.12421 58.5662 4.00518C60.0862 4.57973 61.7762 5.80542 63.1462 7.34712C64.3362 4.30203 66.1862 1.41972 68.6062 0.442991C70.3262 -0.25604 72.1062 0.05996 73.8962 1.38142C75.5762 2.61669 76.9862 4.17754 78.0762 5.84373C78.1662 5.70967 78.2662 5.57561 78.3562 5.45112C79.9462 3.3636 81.7662 2.46348 83.6162 2.84651C85.7062 3.287 87.2962 4.42651 88.3362 6.25549C90.1262 9.38676 89.8062 13.782 88.7462 16.5399C88.6562 16.7888 88.3662 16.9133 88.1062 16.8271C87.8462 16.7314 87.7162 16.4633 87.8062 16.2143C88.7862 13.648 89.0962 9.58786 87.4562 6.7247C86.5562 5.15427 85.1962 4.16797 83.3962 3.79451C81.5862 3.41148 80.0962 4.79997 79.1662 6.02567C78.9862 6.26506 78.8062 6.52361 78.6462 6.78215C80.3462 9.73149 81.0362 12.8436 80.4562 14.8545C80.0762 16.176 79.1562 16.9804 77.8662 17.124C77.0362 17.2197 76.3462 16.8846 75.9162 16.1951C74.8162 14.3949 75.6162 10.0283 77.4862 6.79173C76.4262 5.06809 74.9962 3.42106 73.2862 2.16663C71.7962 1.07499 70.3562 0.797296 68.9962 1.35269C66.7262 2.27197 64.9662 5.25003 63.8862 8.27598C65.4362 10.3348 66.3562 12.7862 65.6762 14.9407C64.8962 17.44 64.0662 18.6561 63.1562 18.6561L63.1462 18.6178ZM63.4962 9.39634C63.1162 10.6603 62.8562 11.886 62.7362 12.9298C62.3462 16.2047 62.9162 17.5645 63.1562 17.6698C63.3062 17.6411 63.9662 17.0378 64.7162 14.6343C65.2262 12.9968 64.6262 11.1008 63.4962 9.39634ZM78.0562 7.76846C76.5062 10.7465 75.9762 14.3757 76.7762 15.6876C77.0062 16.0611 77.3062 16.2047 77.7462 16.1568C78.6262 16.0611 79.2162 15.5248 79.4862 14.5768C79.9662 12.9202 79.4162 10.3252 78.0562 7.76846Z" fill="#261D2A"/>
<path d="M68.3256 39.2626C68.2556 39.2626 68.1756 39.2434 68.1056 39.2147C67.6456 38.9944 63.5656 36.9931 63.7356 34.7236C63.8256 33.565 64.9656 32.6361 67.1356 31.9467C68.3456 31.5636 69.5656 31.8605 70.5556 32.3967C70.6756 32.1765 70.8256 31.9658 70.9856 31.7647C71.7756 30.8071 72.8356 30.4145 73.8956 30.6827C74.6256 30.8742 75.1756 31.2668 75.5656 31.7456C75.6756 31.6307 75.7856 31.5253 75.8956 31.4296C77.4356 30.0698 79.1956 29.9549 80.5056 31.1231C81.8656 32.3393 81.9956 33.5171 81.8656 34.2832C81.6256 35.6812 80.3556 37.0122 78.4456 37.8453C78.1956 37.9602 77.8956 37.8453 77.7856 37.6059C77.6656 37.3665 77.7856 37.0793 78.0356 36.9739C79.2756 36.4281 80.6656 35.3939 80.8856 34.1299C81.0156 33.3447 80.6656 32.5691 79.8256 31.8222C78.5256 30.6635 77.1256 31.6498 76.5756 32.1286C76.3956 32.2818 76.2356 32.4542 76.0956 32.617C76.2956 33.0958 76.4056 33.5937 76.4256 34.0438C76.4756 35.0013 76.1956 35.6908 75.6756 35.8727C75.4956 35.9398 75.0456 36.0259 74.5856 35.4705C73.9756 34.7332 74.2556 33.5554 74.9356 32.5308C74.6756 32.1382 74.2656 31.7551 73.6456 31.5924C72.7856 31.3625 72.1556 31.8796 71.7756 32.3393C71.6256 32.5212 71.4956 32.7223 71.3856 32.9234C71.5556 33.0575 71.7156 33.2011 71.8556 33.3351C72.6456 34.1204 72.9856 34.9439 72.7556 35.5376C72.6656 35.777 72.3956 36.1887 71.6256 36.2653C71.0056 36.3132 70.4956 36.0738 70.2056 35.5759C69.8756 35.0013 69.8856 34.1299 70.1656 33.2681C69.3456 32.7989 68.3556 32.5499 67.4556 32.8372C66.2556 33.2202 64.8056 33.8618 64.7356 34.7715C64.6356 36.1504 67.5256 37.8453 68.5556 38.3337C68.8056 38.4486 68.9056 38.7359 68.7856 38.9753C68.6956 39.1476 68.5256 39.2434 68.3356 39.2434L68.3256 39.2626ZM71.0256 33.9193C70.9156 34.4268 70.9356 34.8769 71.0856 35.1354C71.1556 35.2503 71.2456 35.3556 71.5256 35.3269C71.6856 35.3078 71.7956 35.2695 71.8156 35.2216C71.8756 35.0684 71.6956 34.58 71.1356 34.015C71.0956 33.9767 71.0656 33.948 71.0256 33.9097V33.9193ZM75.3956 33.7756C75.2156 34.2448 75.1956 34.647 75.3456 34.8673C75.4156 34.6566 75.4656 34.264 75.3956 33.7756Z" fill="#261D2A"/>
<path d="M49.2052 118.579C49.2052 118.579 40.2052 105.173 29.5352 106.446C18.8652 107.72 15.5352 117.937 15.5352 117.937C15.5352 117.937 37.8652 111.55 49.2052 118.579Z" fill="#2ECC71"/>
<path d="M52.2053 139.81C51.9353 139.81 51.7053 139.6 51.7053 139.341C51.0453 100.76 23.5153 80.2298 23.2353 80.0287C23.0153 79.8659 22.9753 79.5691 23.1453 79.3584C23.3153 79.1477 23.6253 79.1094 23.8453 79.2722C24.1253 79.4733 52.0453 100.291 52.7053 139.331C52.7053 139.6 52.4853 139.81 52.2153 139.82L52.2053 139.81Z" fill="#261D2A"/>
<path d="M1.25539 71.1511C1.25539 71.1511 3.78539 91.174 27.1154 90.542C50.4454 89.91 41.2054 51.9517 27.2054 51.9517C13.2054 51.9517 25.8754 74.9335 26.5354 69.1881C27.1954 63.4426 17.2054 48.7629 11.8654 57.6971C6.52539 66.6313 17.8654 81.3206 15.8654 73.6599C13.8654 65.9993 -3.18461 57.429 1.24539 71.1607L1.25539 71.1511Z" fill="#EDD45B"/>
<path d="M6.12515 79.1264C6.00515 79.1264 5.88515 79.0881 5.78515 79.0019C5.56515 78.8104 0.315151 74.1278 0.00515113 68.2004C-0.0948489 66.1895 1.26515 64.8489 3.73515 64.5329C5.35515 64.3223 7.45515 64.6191 9.43515 65.3277C8.92515 62.1103 9.09515 58.73 10.6952 56.7478C11.8452 55.3402 13.5552 54.7848 15.7951 55.1008C17.8851 55.3976 19.9152 56.1062 21.7152 57.0542C21.7252 56.8915 21.7452 56.7382 21.7652 56.585C22.0952 54.0187 23.2252 52.3813 25.0352 51.8642C27.0852 51.2705 29.0552 51.5386 30.8852 52.6494C34.0352 54.555 35.9852 58.5481 36.4552 61.4495C36.4952 61.7081 36.3151 61.957 36.0351 61.9953C35.7651 62.0336 35.5051 61.8613 35.4651 61.5932C35.0252 58.8928 33.2352 55.1965 30.3452 53.4538C28.7652 52.4962 27.0652 52.2759 25.3152 52.7739C23.5352 53.2814 22.9352 55.187 22.7452 56.6904C22.7052 56.9872 22.6852 57.2841 22.6652 57.5905C25.6452 59.3812 27.8252 61.7751 28.3352 63.8052C28.6752 65.1362 28.2752 66.2661 27.2252 66.9939C26.5452 67.4631 25.7752 67.4918 25.0452 67.0801C23.1652 66.0172 21.6552 61.8326 21.6452 58.1267C19.8352 57.1117 17.7552 56.3361 15.6252 56.0296C13.7652 55.7711 12.3652 56.202 11.4652 57.3128C9.95515 59.1705 9.91515 62.589 10.5052 65.7395C12.9052 66.8215 14.9451 68.5356 15.4551 70.7285C16.0851 73.4671 15.9151 74.9322 14.9551 75.2291C13.6251 75.6408 12.0252 73.1703 10.9652 70.738C10.4352 69.5219 9.95515 68.0089 9.62515 66.4002C7.66515 65.6054 5.49515 65.2511 3.85515 65.4618C2.49515 65.6341 0.895151 66.2374 0.995151 68.1334C1.27515 73.6682 6.39515 78.2263 6.44515 78.2742C6.64515 78.4561 6.66515 78.7529 6.47515 78.954C6.37515 79.0594 6.24515 79.1073 6.10515 79.1073L6.12515 79.1264ZM10.7852 66.9556C11.0952 68.2387 11.4852 69.4261 11.9052 70.4029C13.2252 73.448 14.4352 74.4055 14.6752 74.3481C14.7952 74.2523 15.0652 73.4288 14.4952 70.9678C14.1152 69.3017 12.6251 67.9227 10.7751 66.9556H10.7852ZM22.6952 58.7587C22.8552 62.0815 24.2252 65.5001 25.5852 66.2757C25.9752 66.496 26.3052 66.4768 26.6652 66.2278C27.3852 65.7299 27.6252 64.9926 27.3852 64.0446C26.9652 62.3688 25.1651 60.3579 22.6852 58.7587H22.6952Z" fill="#261D2A"/>
<path d="M29.3958 90.8866C28.0158 90.8866 24.6958 90.7046 23.8558 88.981C23.3458 87.9277 23.8758 86.5871 25.4258 84.9783C26.2958 84.0782 27.5358 83.8005 28.6458 83.7814C28.6458 83.5324 28.6658 83.2834 28.7058 83.0344C28.9058 81.8279 29.6358 80.9852 30.7058 80.7363C31.4358 80.5639 32.1158 80.6501 32.7058 80.8895C32.7458 80.7458 32.7858 80.6022 32.8358 80.4586C33.4958 78.5626 34.9758 77.6337 36.7058 78.0455C38.5158 78.4764 39.2258 79.4435 39.4958 80.1713C39.9958 81.5023 39.5558 83.2547 38.3158 84.873C38.1558 85.0837 37.8358 85.1315 37.6158 84.9783C37.3958 84.8251 37.3458 84.5187 37.5058 84.308C38.3058 83.2547 39.0058 81.7034 38.5558 80.4969C38.2758 79.75 37.5658 79.2424 36.4658 78.9743C34.7458 78.5626 34.0158 80.0851 33.7858 80.7554C33.7058 80.9757 33.6558 81.1959 33.6158 81.4161C34.0358 81.7417 34.3758 82.1247 34.6258 82.5078C35.1558 83.3217 35.2558 84.0591 34.8958 84.4612C34.7758 84.5953 34.4158 84.8826 33.7358 84.6144C32.8258 84.2506 32.4758 83.0919 32.5558 81.8758C32.1258 81.6555 31.5858 81.5119 30.9458 81.6651C30.0858 81.8662 29.7958 82.6035 29.6958 83.1877C29.6558 83.4175 29.6458 83.6473 29.6558 83.8771C29.8758 83.9154 30.0858 83.9633 30.2758 84.0207C31.3658 84.3367 32.0758 84.9017 32.1758 85.5241C32.2158 85.7731 32.1958 86.2615 31.5558 86.6828C31.0458 87.018 30.4658 87.0467 29.9658 86.7403C29.3858 86.386 28.9458 85.6199 28.7558 84.7389C27.8058 84.7102 26.8158 84.9496 26.1658 85.6199C25.3058 86.5104 24.3658 87.7457 24.7758 88.5692C25.3858 89.8237 28.7758 89.9482 29.9158 89.9099C30.1958 89.8811 30.4258 90.1014 30.4358 90.3695C30.4458 90.6376 30.2358 90.8579 29.9558 90.8674C29.8658 90.8674 29.6758 90.877 29.4058 90.877L29.3958 90.8866ZM29.8158 84.8921C29.9758 85.3805 30.2258 85.7731 30.4858 85.9263C30.6058 85.9934 30.7458 86.0412 30.9758 85.888C31.1058 85.8018 31.1858 85.7157 31.1758 85.6582C31.1458 85.4954 30.7458 85.1507 29.9758 84.9209C29.9258 84.9017 29.8758 84.8921 29.8258 84.8826L29.8158 84.8921ZM33.5658 82.7376C33.6458 83.2355 33.8358 83.5994 34.0858 83.7143C34.0358 83.4941 33.8858 83.1302 33.5658 82.7376Z" fill="#261D2A"/>
<path d="M48.5354 118.417C48.3954 118.417 48.2554 118.359 48.1654 118.254C43.1954 112.882 30.8154 112.355 30.6854 112.355C30.4054 112.345 30.1954 112.125 30.2054 111.857C30.2154 111.589 30.4654 111.407 30.7254 111.397C31.2554 111.417 43.6654 111.953 48.9154 117.622C49.0954 117.823 49.0754 118.12 48.8754 118.302C48.7754 118.378 48.6654 118.426 48.5454 118.426L48.5354 118.417Z" fill="#261D2A"/>
<path d="M70.875 110.918C70.875 110.918 76.545 81.2328 96.875 96.87C96.875 96.87 84.205 97.8276 70.875 110.918Z" fill="#2ECC71"/>
<path d="M71.205 122.41C71.205 122.41 62.535 109.319 46.875 107.404C46.875 107.404 53.205 100.385 62.875 103.89C72.545 107.395 71.205 122.4 71.205 122.4V122.41Z" fill="#2ECC71"/>
<path d="M72.8752 136.294C72.6352 136.294 72.4252 136.131 72.3852 135.901C66.4252 105.489 76.9652 75.3155 77.0652 75.009C77.1552 74.7601 77.4352 74.626 77.6952 74.7122C77.9552 74.7984 78.0952 75.0665 78.0052 75.3155C77.8952 75.6123 67.4552 105.556 73.3552 135.719C73.4052 135.978 73.2252 136.227 72.9552 136.275C72.9252 136.275 72.8952 136.275 72.8652 136.275L72.8752 136.294Z" fill="#261D2A"/>
<path d="M57.7849 57.9356C57.7849 57.9356 49.8349 76.6179 70.5549 86.9119C91.2749 97.2058 102.445 59.7358 90.2049 53.2243C77.9649 46.7128 77.3849 72.6918 80.8849 67.9806C84.3849 63.2693 83.0849 45.7839 73.8949 51.1176C64.7049 56.4513 67.1649 74.5591 69.2949 66.9272C71.4249 59.2953 60.8749 43.8783 57.7849 57.9356Z" fill="#CE7B90"/>
<path d="M67.8953 67.9328C67.8253 67.9328 67.7553 67.9327 67.6953 67.9136C66.3353 67.6455 66.1753 64.7536 66.4853 62.1298C66.6353 60.8179 66.9853 59.2667 67.5153 57.7154C66.2053 56.1067 64.4853 54.7852 62.9553 54.2107C61.6753 53.7319 59.9753 53.5116 59.0953 55.2161C56.5353 60.1859 58.6953 66.5538 58.7153 66.6209C58.8053 66.8698 58.6653 67.138 58.3953 67.2241C58.1353 67.3103 57.8453 67.1667 57.7653 66.9177C57.6653 66.64 55.4453 60.1093 58.1953 54.7852C59.1253 52.9754 60.9953 52.4391 63.3153 53.3201C64.8353 53.8947 66.5253 55.1204 67.8953 56.6621C69.0853 53.617 70.9353 50.7347 73.3553 49.7579C75.0753 49.0589 76.8553 49.3749 78.6453 50.6964C80.3253 51.9316 81.7353 53.4925 82.8253 55.1587C82.9153 55.0246 83.0153 54.8905 83.1053 54.7661C84.6953 52.6785 86.5153 51.7784 88.3653 52.1615C90.4553 52.6019 92.0453 53.7415 93.0853 55.5704C94.8753 58.7017 94.5553 63.097 93.4953 65.8548C93.4053 66.1038 93.1153 66.2283 92.8553 66.1421C92.5953 66.0463 92.4653 65.7782 92.5553 65.5292C93.5353 62.9629 93.8453 58.9028 92.2053 56.0396C91.3053 54.4692 89.9453 53.4829 88.1453 53.1095C86.3353 52.7264 84.8453 54.1149 83.9153 55.3406C83.7353 55.58 83.5553 55.8386 83.3953 56.0971C85.0953 59.0464 85.7853 62.1586 85.2053 64.1695C84.8253 65.4909 83.9053 66.2953 82.6153 66.4389C81.7853 66.5347 81.0953 66.1995 80.6653 65.5101C79.5653 63.7098 80.3653 59.3433 82.2353 56.1067C81.1753 54.383 79.7453 52.736 78.0353 51.4816C76.5453 50.3899 75.1053 50.1122 73.7453 50.6676C71.4753 51.5869 69.7153 54.565 68.6353 57.5909C70.1853 59.6497 71.1053 62.1011 70.4253 64.2557C69.6453 66.7549 68.8153 67.9711 67.9053 67.9711L67.8953 67.9328ZM68.2453 58.7113C67.8653 59.9753 67.6053 61.201 67.4853 62.2447C67.0953 65.5197 67.6653 66.8794 67.9053 66.9847C68.0553 66.956 68.7153 66.3527 69.4653 63.9492C69.9753 62.3118 69.3753 60.4158 68.2453 58.7113ZM82.8053 57.0834C81.2553 60.0615 80.7253 63.6907 81.5253 65.0026C81.7553 65.376 82.0553 65.5197 82.4953 65.4718C83.3753 65.376 83.9653 64.8398 84.2353 63.8918C84.7153 62.2352 84.1653 59.6401 82.8053 57.0834Z" fill="#261D2A"/>
<path d="M73.0747 88.577C73.0047 88.577 72.9247 88.5579 72.8547 88.5291C72.3947 88.3089 68.3147 86.3076 68.4847 84.0381C68.5747 82.8794 69.7147 81.9506 71.8847 81.2611C73.0947 80.8781 74.3147 81.1749 75.3047 81.7112C75.4247 81.4909 75.5747 81.2803 75.7347 81.0792C76.5247 80.1216 77.5847 79.729 78.6447 79.9971C79.3747 80.1886 79.9247 80.5812 80.3147 81.06C80.4247 80.9451 80.5347 80.8398 80.6447 80.744C82.1847 79.3843 83.9447 79.2694 85.2547 80.4376C86.6147 81.6537 86.7447 82.8315 86.6147 83.5976C86.3747 84.9957 85.1047 86.3267 83.1947 87.1598C82.9447 87.2747 82.6447 87.1598 82.5347 86.9204C82.4147 86.681 82.5347 86.3937 82.7847 86.2884C84.0247 85.7426 85.4147 84.7084 85.6347 83.4444C85.7647 82.6592 85.4147 81.8835 84.5747 81.1366C83.2747 79.978 81.8747 80.9643 81.3247 81.4431C81.1447 81.5963 80.9847 81.7686 80.8447 81.9314C81.0447 82.4102 81.1547 82.9082 81.1747 83.3582C81.2247 84.3158 80.9447 85.0052 80.4247 85.1872C80.2447 85.2542 79.7947 85.3404 79.3347 84.785C78.7247 84.0477 79.0047 82.8698 79.6847 81.8452C79.4247 81.4526 79.0147 81.0696 78.3947 80.9068C77.5347 80.677 76.9047 81.1941 76.5247 81.6537C76.3747 81.8357 76.2447 82.0368 76.1347 82.2378C76.3047 82.3719 76.4647 82.5155 76.6047 82.6496C77.3947 83.4348 77.7347 84.2583 77.5047 84.852C77.4147 85.0914 77.1447 85.5032 76.3747 85.5798C75.7547 85.6277 75.2447 85.3883 74.9547 84.8903C74.6247 84.3158 74.6347 83.4444 74.9147 82.5826C74.0947 82.1134 73.1047 81.8644 72.2047 82.1517C71.0047 82.5347 69.5547 83.1763 69.4847 84.086C69.3847 85.4649 72.2747 87.1598 73.3047 87.6482C73.5547 87.7631 73.6547 88.0503 73.5347 88.2897C73.4447 88.4621 73.2747 88.5579 73.0847 88.5579L73.0747 88.577ZM75.7747 83.2337C75.6647 83.7412 75.6847 84.1913 75.8347 84.4499C75.9047 84.5648 76.0047 84.6701 76.2747 84.6414C76.4347 84.6222 76.5447 84.5839 76.5647 84.536C76.6247 84.3828 76.4447 83.8945 75.8847 83.3295C75.8447 83.2912 75.8147 83.2624 75.7747 83.2241V83.2337ZM80.1447 83.0901C79.9647 83.5593 79.9447 83.9615 80.0947 84.1817C80.1647 83.9711 80.2147 83.5785 80.1447 83.0901Z" fill="#261D2A"/>
<path d="M70.7051 121.136C70.4851 121.136 70.2851 120.993 70.2251 120.782C69.1051 116.808 62.4251 110.526 62.3551 110.469C62.1551 110.287 62.1551 109.981 62.3551 109.789C62.5451 109.598 62.8651 109.598 63.0651 109.789C63.3451 110.057 70.0051 116.31 71.1951 120.543C71.2651 120.801 71.1051 121.06 70.8451 121.127C70.8051 121.136 70.7551 121.146 70.7151 121.146L70.7051 121.136Z" fill="#261D2A"/>
<path d="M71.3751 110.755C71.3151 110.755 71.2451 110.746 71.1851 110.717C70.9351 110.612 70.8151 110.334 70.9151 110.085C73.6051 103.966 81.2651 98.7663 81.5851 98.546C81.8151 98.3928 82.1251 98.4503 82.2851 98.6609C82.4451 98.8812 82.3851 99.178 82.1651 99.3312C82.0851 99.3791 74.4151 104.588 71.8351 110.458C71.7551 110.64 71.5651 110.755 71.3751 110.755Z" fill="#261D2A"/>
<path d="M50.6252 69.2632C50.6252 69.2632 40.6252 40.0571 63.6252 42.6904C63.6252 42.6904 53.3752 52.5056 50.6252 69.2632Z" fill="#2ECC71"/>
<path d="M59.125 100.145C59.125 100.145 47.625 88.1757 40.375 86.2605C40.375 86.2605 56.125 75.7272 59.125 100.145Z" fill="#2ECC71"/>
<path d="M7.25539 31.1701C7.25539 31.1701 9.78539 51.1931 33.1154 50.5611C56.4454 49.9291 47.2054 11.9707 33.2054 11.9707C19.2054 11.9707 31.8754 34.9526 32.5354 29.2071C33.1954 23.4616 23.2054 8.78197 17.8654 17.7162C12.5254 26.6504 23.8654 41.3396 21.8654 33.679C19.8654 26.0184 2.81539 17.448 7.24539 31.1797L7.25539 31.1701Z" fill="#CE7B90"/>
<path d="M12.1252 39.1489C12.0052 39.1489 11.8851 39.1106 11.7852 39.0244C11.5652 38.8329 6.31515 34.1503 6.00515 28.2229C5.90515 26.212 7.26515 24.8714 9.73515 24.5554C11.3552 24.3447 13.4551 24.6416 15.4351 25.3502C14.9251 22.1327 15.0951 18.7525 16.6951 16.7703C17.8451 15.3626 19.5551 14.8072 21.7951 15.1232C23.8851 15.4201 25.9152 16.1287 27.7152 17.0767C27.7252 16.9139 27.7451 16.7607 27.7652 16.6075C28.0951 14.0412 29.2252 12.4037 31.0352 11.8866C33.0851 11.2929 35.0552 11.5611 36.8852 12.6718C40.0352 14.5774 41.9851 18.5705 42.4552 21.472C42.4952 21.7305 42.3151 21.9795 42.0351 22.0178C41.7651 22.0561 41.5051 21.8837 41.4651 21.6156C41.0251 18.9153 39.2352 15.219 36.3452 13.4762C34.7652 12.5186 33.0651 12.2984 31.3151 12.7963C29.5351 13.3038 28.9352 15.2094 28.7451 16.7128C28.7051 17.0097 28.6852 17.3065 28.6652 17.6129C31.6452 19.4036 33.8251 21.7976 34.3351 23.8276C34.6751 25.1587 34.2751 26.2886 33.2251 27.0164C32.5451 27.4856 31.7751 27.5143 31.0451 27.1025C29.1651 26.0396 27.6552 21.855 27.6452 18.1492C25.8352 17.1342 23.7551 16.3585 21.6251 16.0521C19.7751 15.7935 18.3651 16.2245 17.4651 17.3352C15.9551 19.1929 15.9152 22.6115 16.5052 25.7619C18.9052 26.844 20.9451 28.5581 21.4551 30.7509C22.0851 33.4896 21.9151 34.9547 20.9551 35.2515C19.6251 35.6537 18.0252 33.1927 16.9651 30.7605C16.4352 29.5444 15.9551 28.0314 15.6251 26.4227C13.6651 25.6279 11.4951 25.2736 9.85515 25.4842C8.49515 25.6566 6.89515 26.2599 6.99515 28.1559C7.27515 33.6907 12.3951 38.2487 12.4451 38.2966C12.6451 38.4786 12.6651 38.7754 12.4751 38.9765C12.3751 39.0818 12.2451 39.1297 12.1051 39.1297L12.1252 39.1489ZM16.7851 26.9781C17.0951 28.2612 17.4851 29.4486 17.9051 30.4253C19.2151 33.4321 20.3852 34.3706 20.6652 34.3706C20.7852 34.2748 21.0552 33.4513 20.4852 30.9903C20.1052 29.3241 18.6151 27.9452 16.7651 26.9781H16.7851ZM28.6952 18.7812C28.8552 22.104 30.2251 25.5225 31.5851 26.2982C31.9751 26.5184 32.3052 26.4993 32.6652 26.2503C33.3852 25.7524 33.6251 25.015 33.3851 24.067C32.9651 22.3913 31.1651 20.3803 28.6851 18.7812H28.6952Z" fill="#261D2A"/>
<path d="M35.3958 50.9066C34.0158 50.9066 30.6958 50.7247 29.8558 49.001C29.3458 47.9477 29.8758 46.6071 31.4258 44.9983C32.2958 44.0982 33.5358 43.8109 34.6458 43.8014C34.6458 43.5524 34.6658 43.3034 34.7058 43.0545C34.9058 41.8479 35.6358 41.0052 36.7058 40.7563C37.4358 40.5839 38.1158 40.6701 38.7058 40.9095C38.7458 40.7659 38.7858 40.6222 38.8358 40.4786C39.4958 38.5826 40.9758 37.6537 42.7058 38.0655C44.5158 38.4964 45.2258 39.4636 45.4958 40.1913C45.9958 41.5223 45.5558 43.2747 44.3158 44.893C44.1558 45.1037 43.8358 45.1516 43.6158 44.9983C43.3958 44.8451 43.3458 44.5387 43.5058 44.328C44.3058 43.2747 45.0058 41.7234 44.5558 40.5169C44.2758 39.77 43.5658 39.2625 42.4658 38.9943C40.7458 38.5826 40.0158 40.1051 39.7858 40.7754C39.7058 40.9957 39.6558 41.2159 39.6158 41.4362C40.0358 41.7617 40.3758 42.1448 40.6258 42.5278C41.1558 43.3417 41.2558 44.0791 40.8958 44.4813C40.7758 44.6153 40.4158 44.9026 39.7358 44.6345C38.8258 44.2706 38.4758 43.1119 38.5558 41.8958C38.1258 41.6756 37.5758 41.5319 36.9458 41.6851C36.0858 41.8862 35.7958 42.6236 35.6958 43.2077C35.6558 43.4375 35.6458 43.6673 35.6558 43.8971C35.8758 43.9354 36.0858 43.9833 36.2758 44.0408C37.3658 44.3568 38.0758 44.9217 38.1758 45.5442C38.2158 45.7931 38.1958 46.2815 37.5558 46.7028C37.0458 47.038 36.4658 47.0667 35.9658 46.7603C35.3858 46.406 34.9458 45.6399 34.7558 44.759C33.8058 44.7206 32.8158 44.9696 32.1658 45.6399C31.3058 46.5305 30.3658 47.7657 30.7758 48.5893C31.3858 49.8437 34.7758 49.9777 35.9158 49.9299C36.1958 49.9107 36.4258 50.1214 36.4358 50.3895C36.4458 50.6576 36.2358 50.8779 35.9558 50.8874C35.8658 50.8874 35.6758 50.897 35.4058 50.897L35.3958 50.9066ZM35.8158 44.9122C35.9758 45.4005 36.2258 45.7931 36.4858 45.9463C36.6058 46.0134 36.7458 46.0613 36.9758 45.908C37.1058 45.8219 37.1858 45.7357 37.1758 45.6782C37.1458 45.5154 36.7458 45.1707 35.9758 44.9409C35.9258 44.9217 35.8758 44.9122 35.8258 44.9026L35.8158 44.9122ZM39.5658 42.7576C39.6458 43.2556 39.8358 43.6194 40.0858 43.7343C40.0358 43.5141 39.8858 43.1502 39.5658 42.7576Z" fill="#261D2A"/>
<path d="M61.875 137.009C61.595 137.009 61.375 136.798 61.375 136.53C61.125 73.9905 39.2151 48.7487 38.9951 48.4998C38.8151 48.2987 38.845 47.9922 39.045 47.8199C39.245 47.6475 39.575 47.6667 39.755 47.8677C39.975 48.1167 62.125 73.6266 62.375 136.511C62.375 136.779 62.1551 136.99 61.875 136.99V137.009Z" fill="#261D2A"/>
<path d="M58.7044 99.5897C58.4745 99.5897 58.2744 99.4461 58.2144 99.2259C56.6244 92.8292 50.5644 90.3204 50.5044 90.3012C50.2544 90.1959 50.1344 89.9182 50.2344 89.6692C50.3444 89.4298 50.6344 89.3149 50.8844 89.4107C51.1544 89.516 57.4745 92.1398 59.1745 98.996C59.2345 99.2546 59.0744 99.5131 58.8044 99.5706C58.7644 99.5706 58.7244 99.5802 58.6844 99.5802L58.7044 99.5897Z" fill="#261D2A"/>
<path d="M50.875 69.1014C50.625 69.1014 50.415 68.929 50.385 68.6897C48.875 58.4053 52.485 53.2439 52.635 53.0333C52.795 52.813 53.105 52.7556 53.325 52.9088C53.555 53.062 53.615 53.3588 53.455 53.5695C53.415 53.6174 49.925 58.6734 51.375 68.5556C51.415 68.8141 51.225 69.0631 50.945 69.0918C50.925 69.0918 50.895 69.0918 50.875 69.0918V69.1014Z" fill="#261D2A"/>
<path d="M81.2852 45.1899C81.2852 45.1899 99.6852 50.5237 101.385 64.7054C101.385 64.7054 107.685 58.213 102.365 49.0777C97.0452 39.952 81.2852 45.1899 81.2852 45.1899Z" fill="#2ECC71"/>
<path d="M81.875 137.255H81.865C81.585 137.255 81.375 137.025 81.375 136.766C82.695 80.4224 114.255 46.5912 114.575 46.2561C114.765 46.0645 115.075 46.0454 115.285 46.2273C115.485 46.4093 115.505 46.7061 115.315 46.9072C114.995 47.2424 83.685 80.8246 82.375 136.795C82.375 137.054 82.145 137.264 81.875 137.264V137.255Z" fill="#261D2A"/>
<path d="M106.196 13.7522C106.196 13.7522 90.9955 27.7137 105.546 45.1991C120.096 62.6749 146.226 32.808 137.816 22.0927C129.406 11.3774 117.826 34.8764 123.026 31.9366C128.226 28.9969 134.476 12.517 123.806 13.8097C113.136 15.0928 107.696 32.5974 112.886 26.4593C118.076 20.3212 114.986 2.12724 106.196 13.7618V13.7522Z" fill="#CE7B90"/>
<path d="M135.096 35.0314C134.966 35.0314 134.846 34.9835 134.746 34.8973C134.546 34.7154 134.546 34.4089 134.746 34.2174C136.736 32.264 138.746 28.673 138.466 25.4173C138.316 23.6362 137.486 22.1998 136.006 21.1561C134.516 20.1027 132.566 20.7826 131.186 21.5487C130.916 21.7019 130.646 21.8551 130.386 22.0275C130.676 25.3886 129.986 28.4911 128.606 30.0998C127.696 31.1627 126.516 31.5362 125.276 31.1723C124.476 30.9329 123.986 30.3584 123.896 29.5636C123.656 27.4857 126.246 23.8181 129.326 21.587C129.086 19.5952 128.486 17.5364 127.456 15.717C126.566 14.137 125.356 13.3231 123.886 13.3039C121.416 13.3039 118.546 15.2957 116.276 17.6322C116.816 20.1219 116.616 22.7169 115.076 24.4214C113.166 26.5472 111.846 27.3037 111.016 26.7387C109.886 25.9631 110.976 23.2532 112.366 20.9837C113.066 19.8442 114.036 18.5706 115.186 17.3545C114.676 15.3723 113.666 13.4954 112.506 12.3751C111.546 11.4367 110.076 10.5748 108.556 11.791C104.096 15.334 103.376 21.9892 103.366 22.0562C103.336 22.3147 103.096 22.5062 102.816 22.4871C102.546 22.4584 102.336 22.2286 102.366 21.9604C102.396 21.6732 103.146 14.8456 107.916 11.0536C109.536 9.7609 111.466 10.0003 113.216 11.7048C114.356 12.8156 115.376 14.5967 115.976 16.5405C118.356 14.2232 121.286 12.3559 123.896 12.3559C125.756 12.3847 127.256 13.371 128.336 15.267C129.346 17.0481 129.966 19.0302 130.256 20.9741C130.396 20.8879 130.536 20.8018 130.686 20.7252C133.026 19.4324 135.066 19.3175 136.596 20.3996C138.316 21.6157 139.276 23.2819 139.456 25.3503C139.766 28.9029 137.596 32.7906 135.456 34.8973C135.356 34.9931 135.226 35.0409 135.096 35.0409V35.0314ZM129.416 22.7265C126.736 24.8427 124.706 27.9549 124.876 29.4583C124.926 29.8892 125.136 30.1381 125.566 30.2626C126.416 30.5212 127.176 30.2626 127.826 29.5061C128.966 28.1751 129.566 25.5896 129.416 22.7361V22.7265ZM115.426 18.5323C114.536 19.5378 113.776 20.5528 113.226 21.4625C111.486 24.3065 111.426 25.7716 111.596 25.9535C111.736 25.9823 112.596 25.695 114.306 23.7894C115.466 22.4967 115.726 20.5241 115.426 18.5323Z" fill="#261D2A"/>
<path d="M116.985 50.3614C116.715 50.3614 116.485 50.1507 116.485 49.8922C116.485 49.6241 116.705 49.4134 116.975 49.4038C118.335 49.3847 120.055 48.9921 120.785 47.91C121.235 47.2493 121.245 46.397 120.795 45.3916C120.105 43.8307 118.395 44.185 117.695 44.4149C117.465 44.4915 117.245 44.5776 117.045 44.6734C117.025 45.1905 116.905 45.6884 116.735 46.1098C116.375 47.0099 115.835 47.527 115.265 47.4887C115.075 47.4791 114.625 47.3738 114.435 46.6939C114.195 45.7746 114.945 44.817 116.005 44.1467C115.935 43.6871 115.725 43.1796 115.215 42.787C114.525 42.2507 113.735 42.471 113.195 42.7391C112.985 42.8444 112.775 42.9785 112.595 43.1221C112.695 43.3136 112.775 43.4956 112.845 43.6871C113.235 44.7117 113.195 45.5927 112.735 46.0427C112.545 46.2247 112.125 46.5024 111.395 46.263C110.805 46.0715 110.445 45.6406 110.395 45.0852C110.335 44.434 110.715 43.6392 111.335 42.9593C110.785 42.2124 109.995 41.5996 109.045 41.5038C107.785 41.3889 106.195 41.4081 105.745 42.2124C105.065 43.4286 106.985 46.1098 107.715 46.9524C107.895 47.1535 107.865 47.46 107.645 47.6227C107.425 47.7855 107.115 47.7664 106.945 47.5557C106.615 47.1727 103.745 43.7541 104.865 41.7528C105.435 40.7282 106.875 40.326 109.155 40.5462C110.425 40.6707 111.415 41.4176 112.085 42.289C112.295 42.1358 112.515 42.0018 112.745 41.8869C113.875 41.3219 115.015 41.3698 115.865 42.0305C116.455 42.4901 116.785 43.0647 116.945 43.6584C117.085 43.6009 117.235 43.5435 117.385 43.4956C119.365 42.854 121.025 43.4381 121.725 45.0086C122.445 46.6556 122.075 47.776 121.625 48.4271C120.815 49.6049 119.085 50.3231 116.985 50.3518V50.3614ZM115.935 45.449C115.565 45.8033 115.375 46.1672 115.425 46.4258C115.575 46.263 115.795 45.9183 115.935 45.449ZM111.875 43.869C111.555 44.2904 111.385 44.7117 111.405 44.999C111.415 45.133 111.465 45.2671 111.725 45.3533C111.875 45.4012 111.995 45.4107 112.035 45.3724C112.155 45.2575 112.205 44.7404 111.925 44.0127C111.905 43.9648 111.885 43.9169 111.865 43.869H111.875Z" fill="#261D2A"/>
<path d="M102.036 64.7926C102.036 64.7926 101.946 64.7926 101.896 64.7734C101.626 64.6968 101.476 64.4287 101.556 64.1797C103.776 56.883 98.2255 51.1375 98.1755 51.0801C97.9855 50.8886 97.9955 50.5821 98.1955 50.4002C98.3955 50.2183 98.7155 50.2278 98.9055 50.4194C99.1555 50.6683 104.906 56.6149 102.526 64.4479C102.466 64.6585 102.266 64.7926 102.046 64.7926H102.036Z" fill="#261D2A"/>
<path d="M94.2053 137.569C93.9453 137.569 93.7253 137.378 93.7053 137.119C91.0553 100.281 117.935 77.5772 118.205 77.357C118.415 77.1846 118.735 77.2038 118.915 77.4049C119.095 77.606 119.075 77.9028 118.865 78.0847C118.595 78.305 92.0853 100.712 94.7053 137.062C94.7253 137.33 94.5153 137.55 94.2453 137.569C94.2353 137.569 94.2253 137.569 94.2153 137.569H94.2053Z" fill="#261D2A"/>
<path d="M115.255 56.3936C115.255 56.3936 96.4953 65.5576 105.145 86.3179C113.805 107.078 147.835 85.705 143.015 73.1225C138.195 60.5399 120.025 79.8351 125.885 78.4562C131.745 77.0772 142.705 63.0296 132.105 61.3155C121.505 59.5919 111.015 74.8365 117.835 70.4029C124.655 65.9693 127.195 47.6892 115.255 56.3936Z" fill="#EDD45B"/>
<path d="M136.646 84.7766C136.466 84.7766 136.296 84.6904 136.206 84.5276C136.076 84.2978 136.156 84.001 136.396 83.8765C138.886 82.555 141.896 79.6727 142.616 76.4744C143.006 74.7221 142.646 73.1229 141.546 71.7153C140.436 70.2981 138.366 70.4034 136.816 70.7577C136.516 70.8247 136.206 70.9109 135.906 70.9971C135.176 74.2911 133.576 77.0777 131.766 78.2364C130.576 78.9929 129.326 79.0312 128.256 78.3417C127.566 77.8916 127.266 77.2118 127.416 76.417C127.816 74.3678 131.396 71.5621 135.026 70.2789C135.396 68.3063 135.446 66.1709 135.006 64.1408C134.626 62.3789 133.716 61.2681 132.316 60.8372C129.966 60.119 126.606 61.2681 123.726 62.8768C123.496 65.4048 122.516 67.8371 120.536 69.0436C118.076 70.547 116.576 70.9109 115.956 70.1353C115.106 69.0819 116.966 66.7933 118.986 65.0026C119.996 64.1121 121.316 63.1545 122.776 62.3023C122.876 60.2626 122.486 58.1943 121.716 56.7962C121.076 55.6375 119.936 54.4023 118.116 55.1396C112.786 57.2942 110.076 63.4705 110.046 63.5376C109.936 63.7865 109.646 63.9014 109.396 63.7961C109.136 63.6908 109.016 63.4131 109.126 63.1737C109.246 62.9056 112.016 56.576 117.726 54.2586C119.666 53.4734 121.446 54.2395 122.606 56.3461C123.366 57.7251 123.806 59.7168 123.786 61.7469C126.766 60.186 130.136 59.171 132.626 59.9371C134.406 60.4829 135.536 61.8331 135.996 63.9589C136.426 65.9411 136.426 68.0094 136.116 69.9533C136.276 69.915 136.436 69.8671 136.596 69.8384C139.226 69.2447 141.216 69.7044 142.356 71.1599C143.636 72.7973 144.056 74.655 143.606 76.6947C142.826 80.1802 139.586 83.3115 136.896 84.7287C136.816 84.767 136.736 84.7862 136.656 84.7862L136.646 84.7766ZM134.786 71.4088C131.576 72.7016 128.696 75.1051 128.416 76.5989C128.336 77.0202 128.466 77.3171 128.836 77.5565C129.576 78.0353 130.376 77.997 131.226 77.4512C132.716 76.4936 134.076 74.1858 134.796 71.4088H134.786ZM122.656 63.5184C121.506 64.2366 120.466 65.0027 119.666 65.7113C117.136 67.952 116.636 69.3405 116.746 69.5607C116.876 69.6277 117.786 69.5894 119.996 68.2393C121.496 67.32 122.336 65.5102 122.646 63.5184H122.656Z" fill="#261D2A"/>
<path d="M116.696 94.736C116.016 94.736 115.296 94.6306 114.546 94.4295C114.276 94.3529 114.126 94.0944 114.206 93.8358C114.286 93.5869 114.556 93.4337 114.826 93.5103C116.136 93.8741 117.896 93.9603 118.926 93.1368C119.556 92.6293 119.816 91.8154 119.696 90.7333C119.506 89.048 117.756 88.9235 117.026 88.933C116.786 88.933 116.546 88.9618 116.326 89.0001C116.156 89.4884 115.896 89.9289 115.596 90.2832C114.976 91.0397 114.296 91.3844 113.776 91.2025C113.596 91.1451 113.196 90.9152 113.226 90.2066C113.266 89.2682 114.276 88.55 115.496 88.2053C115.566 87.7456 115.516 87.1998 115.156 86.6923C114.656 85.9933 113.836 85.9741 113.236 86.089C112.996 86.1369 112.766 86.2039 112.546 86.2901C112.586 86.5008 112.606 86.7019 112.616 86.8934C112.676 87.985 112.376 88.8086 111.796 89.1246C111.566 89.249 111.076 89.3927 110.446 88.9714C109.936 88.6266 109.716 88.1191 109.846 87.5637C109.986 86.9221 110.596 86.2614 111.396 85.7922C111.096 84.9208 110.516 84.1164 109.636 83.7717C108.466 83.3025 106.936 82.8907 106.256 83.5323C105.236 84.509 106.266 87.6116 106.716 88.617C106.826 88.8564 106.706 89.1437 106.446 89.249C106.196 89.3448 105.896 89.2395 105.796 88.9905C105.596 88.5309 103.876 84.4707 105.556 82.862C106.406 82.0385 107.916 82.0481 110.026 82.8907C111.206 83.3599 111.926 84.3463 112.306 85.3709C112.556 85.2847 112.806 85.2176 113.056 85.1698C114.306 84.9399 115.386 85.3038 115.996 86.1752C116.416 86.7785 116.566 87.4105 116.536 88.0329C116.696 88.0138 116.846 88.0042 117.006 88.0042C119.086 87.9372 120.516 88.9618 120.696 90.6567C120.896 92.4282 120.196 93.3954 119.576 93.9029C118.866 94.4774 117.856 94.7647 116.706 94.7647L116.696 94.736ZM115.016 89.431C114.556 89.6704 114.266 89.9672 114.236 90.2258C114.436 90.1109 114.736 89.8427 115.016 89.431ZM111.616 86.7976C111.186 87.1136 110.896 87.4679 110.826 87.7552C110.796 87.8893 110.806 88.0233 111.026 88.1766C111.156 88.2627 111.276 88.301 111.316 88.2819C111.466 88.2053 111.666 87.7265 111.626 86.9509C111.626 86.903 111.626 86.8551 111.616 86.7976Z" fill="#261D2A"/>
<path d="M94.2057 126.24C94.1357 126.24 94.0657 126.23 93.9957 126.201C93.7457 126.087 93.6357 125.809 93.7457 125.569C98.1257 116.367 108.156 113.916 108.586 113.81C108.856 113.753 109.126 113.906 109.186 114.165C109.256 114.423 109.086 114.682 108.816 114.749C108.716 114.768 98.8257 117.2 94.6557 125.972C94.5757 126.144 94.3857 126.249 94.1957 126.249L94.2057 126.24Z" fill="#261D2A"/>
<path d="M24.375 131.506C24.375 131.506 124.875 129.112 125.875 130.549C126.875 131.985 122.375 148.743 122.375 148.743C122.375 148.743 30.875 150.179 29.375 148.743C27.875 147.306 24.375 131.506 24.375 131.506Z" fill="#D1783B"/>
</svg>
