<svg width="222" height="203" viewBox="0 0 222 203" fill="none" xmlns="http://www.w3.org/2000/svg">
<g clip-path="url(#clip0_1718_9609)">
<mask id="mask0_1718_9609" style="mask-type:luminance" maskUnits="userSpaceOnUse" x="0" y="0" width="222" height="203">
<path d="M221.541 0H0V203H221.541V0Z" fill="white"/>
</mask>
<g mask="url(#mask0_1718_9609)">
<path d="M167.515 55.5755C166.617 55.1809 165.694 54.8529 164.767 54.5344C165.328 50.9355 165.466 47.3224 164.801 43.7283C164.639 42.844 164.458 41.8314 163.921 41.0898C163.156 40.0344 161.839 38.8981 160.764 38.1565C160.788 34.2201 160.403 30.6783 158.91 27.0034C158.525 26.0526 158.121 25.0352 157.384 24.2983C154.808 21.7216 149.317 20.438 145.751 20.495C143.992 20.5235 142.147 20.7945 140.507 21.4506C139.989 19.7819 139.48 18.1227 138.781 16.5206C136.157 10.4924 131.622 5.33896 125.712 2.34387C125.651 2.31535 125.589 2.28683 125.527 2.2583C118.995 3.57043 114.707 5.80961 109.363 9.71748C107.528 8.24371 103.188 5.96174 100.692 6.22797C97.4256 6.57502 94.3069 9.28961 92.3292 11.7855C92.0011 12.1991 91.6731 12.6222 91.3974 13.0786C89.0631 12.2609 82.7402 10.6255 80.4962 11.6999C79.7118 12.0755 78.9749 12.7506 78.3046 13.2973C73.6075 17.1291 70.7884 22.7485 68.8867 28.3726C63.7618 26.9701 59.3025 26.5708 54.2108 28.5009C53.2933 28.848 52.333 29.1998 51.4772 29.6847C49.6469 30.7211 48.1161 35.0331 47.5789 37.0393C45.9434 43.134 46.4284 49.2953 48.563 55.1952C41.6077 56.436 34.1248 61.0522 30.079 66.876C28.9713 68.4686 28.011 70.2229 27.2266 71.9962C28.6766 80.0639 32.2184 86.4391 39.0452 91.1647C41.9452 93.1757 44.9071 94.5401 48.3253 95.3958C46.2287 99.7601 45.0116 104.286 45.2493 109.154C45.3064 110.343 45.4015 111.607 45.8008 112.734C46.4759 114.631 50.9257 117.441 52.8844 118.349C56.0934 119.832 59.2834 120.326 62.7825 120.445C62.5543 126.05 63.6382 131.617 67.5698 135.872C68.2116 136.566 68.9485 137.432 69.7662 137.917C71.3874 138.877 74.7866 139.181 76.7072 139.243C82.4359 139.433 87.2993 137.541 92.0011 134.379C92.0677 135.858 92.158 137.336 92.2769 138.815C92.3957 140.294 92.5336 141.767 92.7 143.236C92.8664 144.71 93.0566 146.179 93.2752 147.643C93.4939 149.108 93.7316 150.572 93.9979 152.027C94.2641 153.481 94.5541 154.936 94.8726 156.386C95.1864 157.831 95.5287 159.277 95.8948 160.712C96.2608 162.148 96.6507 163.579 97.0643 165.001C97.4779 166.422 97.9152 167.839 98.3764 169.246C98.6521 170.068 99.3985 172.74 99.8311 173.335C100.311 175.141 101.12 176.914 101.828 178.645C104.395 184.939 107.314 191.091 111.179 196.701C111.773 197.561 112.624 198.978 113.528 199.511C113.742 199.639 113.87 199.658 114.112 199.62C114.925 198.517 114.773 196.535 116.142 194.823C116.642 194.2 117.288 193.658 117.954 193.226C118.258 193.026 118.643 192.86 118.89 192.593C118.177 192.237 115.814 188.376 115.553 187.573C115.543 187.54 115.529 187.502 115.52 187.468C116.085 187.497 116.965 186.974 117.478 186.722C120.892 185.068 124.015 183.071 126.849 180.537C136.837 171.599 141.401 158.193 142.109 145.095C142.162 143.94 142.185 142.78 142.181 141.625C142.181 140.465 142.143 139.309 142.081 138.154C142.019 136.999 141.929 135.844 141.805 134.693C141.686 133.543 141.534 132.392 141.358 131.251C144.372 131.356 150.472 130.567 152.749 128.527C153.396 127.947 153.909 127.02 154.384 126.297C156.809 122.618 158.354 118.529 158.43 114.089C158.468 112.04 158.183 110.053 157.631 108.08C160.893 106.411 163.902 104.386 166.213 101.495C166.778 100.787 167.396 99.9835 167.663 99.104C168.39 96.689 166.859 91.2598 166.189 88.7829C172.421 85.7593 176.572 80.8531 178.83 74.3257C179.32 72.9042 179.667 71.4495 179.995 69.9852C177.618 63.8904 173.677 58.2901 167.51 55.585L167.515 55.5755ZM144.61 22.4157C144.753 22.3967 144.886 22.3872 145.033 22.3824C148.157 22.2826 151.171 22.8768 153.98 24.2745C154.651 24.6073 155.378 24.9686 155.92 25.4916C158.264 27.745 158.901 33.7827 158.925 36.9014C158.012 36.5354 157.118 36.0362 156.22 35.6273C151.698 33.6686 146.421 33.0981 141.544 33.5165C142.048 30.0983 141.639 26.4519 140.921 23.0955C142.147 22.7627 143.345 22.5345 144.61 22.4157ZM142.466 35.247C143.326 35.1614 144.234 35.1804 145.1 35.1947C151.218 35.3088 157.788 37.1867 162.096 41.7316C163.607 43.329 163.574 46.7234 163.503 48.8437C163.222 57.4249 159.158 65.5591 152.92 71.3734C146.469 77.3921 137.93 80.6058 129.197 81.2572C126.307 81.4711 123.421 81.376 120.526 81.2809C119.813 81.1573 119.166 80.6296 118.567 80.2445C120.588 79.5124 122.608 78.4094 124.044 76.7931C124.69 76.0657 125.437 75.0293 125.342 74.0024C125.285 73.3701 124.909 72.8472 124.424 72.4526C122.508 70.9122 119.256 70.8504 116.936 71.0834C118.325 69.3529 119.442 67.399 119.984 65.2263C120.226 64.2613 120.459 62.9491 119.884 62.0553C119.57 61.5704 119.09 61.2899 118.534 61.1711C116.223 60.6814 113.39 62.3263 111.531 63.5767C111.783 62.2788 111.697 60.6244 112.04 59.4691C112.905 56.5549 117.607 49.9799 119.756 47.5078C125.537 40.8521 133.547 35.865 142.475 35.2375L142.466 35.247ZM102.512 88.6355C99.5839 88.6783 96.8836 87.8273 94.6492 85.8971C92.3339 83.9004 90.7889 80.9149 90.5892 77.858C90.5797 77.6773 90.5702 77.4967 90.5702 77.316C90.5702 77.1354 90.5702 76.9547 90.5749 76.774C90.5797 76.5934 90.5939 76.4127 90.6082 76.2368C90.6225 76.0562 90.6415 75.8803 90.6652 75.6996C90.689 75.519 90.7175 75.3431 90.7508 75.1672C90.7841 74.9913 90.8221 74.8153 90.8602 74.6394C90.9029 74.4635 90.9457 74.2876 90.998 74.1165C91.0503 73.9453 91.1026 73.7695 91.1597 73.6031C91.2167 73.4319 91.2785 73.2655 91.3451 73.0944C91.4116 72.928 91.4829 72.7616 91.559 72.5952C91.6351 72.4335 91.7111 72.2671 91.7967 72.1103C91.8775 71.9486 91.9679 71.7917 92.0582 71.6349C92.1485 71.478 92.2436 71.3258 92.3387 71.1737C92.4385 71.0216 92.5384 70.8742 92.6429 70.7268C92.7475 70.5795 92.8569 70.4368 92.971 70.2942C93.0851 70.1516 93.1992 70.0137 93.318 69.8806C95.4716 67.4513 98.4429 66.1153 101.661 65.9157C104.371 65.8919 107.252 66.819 109.33 68.6017C111.688 70.627 113.114 73.3321 113.352 76.4365C113.585 79.5219 112.548 82.4599 110.518 84.7847C108.45 87.1522 105.626 88.4168 102.522 88.6355H102.512ZM103.696 99.9217C103.43 100.331 103.078 100.801 102.698 101.11C102.379 101.376 101.951 101.548 101.533 101.472C100.806 101.343 100.245 100.616 99.8644 100.026C98.0103 97.1311 98.1815 93.4324 98.8756 90.2044C101.062 90.5419 102.993 90.6037 105.18 90.2091C105.769 93.4419 105.393 97.0693 103.696 99.917V99.9217ZM89.277 72.9137C88.5164 75.034 88.5497 77.1876 88.7493 79.3888C87.6131 79.4981 86.5387 79.4886 85.4167 79.2842C84.2662 79.037 83.2203 78.6899 82.1982 78.0957C81.1048 77.4586 79.5359 76.2796 79.2411 74.9675C79.1413 74.5254 79.2221 74.0975 79.4836 73.7267C80.2157 72.6808 82.0889 72.2909 83.2584 72.1198C85.2503 71.806 87.3992 72.2767 89.2723 72.9137H89.277ZM88.2549 69.9234C86.6861 68.1121 84.8272 64.7842 85.0269 62.3121C85.0697 61.7654 85.1695 61.6085 85.5736 61.2709C85.9349 61.2567 86.2915 61.2614 86.6528 61.2947C87.0093 61.3232 87.3659 61.3803 87.7177 61.4563C90.5749 62.0744 92.7761 64.1424 94.3164 66.5432C94.0407 66.7381 93.7744 66.9378 93.5177 67.1517C93.2562 67.3657 93.009 67.5844 92.7618 67.8126C92.5193 68.0408 92.2816 68.2785 92.0534 68.5257C91.8252 68.7729 91.6066 69.0249 91.3974 69.2863C90.8554 69.9947 90.38 70.6983 89.9379 71.4685C89.2818 71.0501 88.7636 70.5034 88.2597 69.9234H88.2549ZM88.7446 80.4965C88.7874 80.4965 88.8254 80.4775 88.8682 80.4822C88.8729 80.4822 89.0631 80.5345 89.0726 80.5488C89.1487 80.6249 89.7192 82.3839 89.819 82.6121C90.3372 83.7673 91.017 84.7657 91.7967 85.7545C89.9807 87.4232 87.5703 88.3835 85.1552 88.7211C84.4421 88.7401 83.6007 88.7449 82.9303 88.4691C82.5643 88.317 82.26 88.0745 82.1126 87.699C81.8892 87.1332 82.0984 86.4581 82.3266 85.9209C83.5816 82.9876 85.9349 81.6517 88.7398 80.5013L88.7446 80.4965ZM97.7774 89.8858C96.8789 92.5909 95.6998 94.9109 93.4036 96.7032C92.7761 97.1216 91.9964 97.5162 91.231 97.5447C90.7841 97.559 90.3848 97.4258 90.0615 97.1121C89.4007 96.4608 89.3056 95.2247 89.3056 94.3499C89.3056 91.3881 90.8031 89.0253 92.8379 86.9906C93.4654 87.3091 94.0977 87.8891 94.692 88.2885C95.6713 88.9398 96.7029 89.4104 97.7774 89.8811V89.8858ZM96.5366 54.8244C97.3733 54.8624 98.1007 55.3426 98.7044 55.894C101.048 58.0334 101.809 61.1093 101.956 64.1567C100.906 64.1567 99.912 64.266 98.8898 64.499C97.7203 64.7509 96.6269 65.2501 95.5287 65.716C94.9725 64.0711 94.5684 62.4404 94.5541 60.6862C94.5398 58.5421 94.9962 56.398 96.5318 54.8291L96.5366 54.8244ZM114.654 73.0088C115.981 72.5001 117.25 72.2291 118.667 72.134C119.851 72.115 121.058 72.1911 122.209 72.4954C122.898 72.676 123.763 72.9898 124.11 73.6553C124.32 74.0594 124.296 74.5063 124.134 74.9199C123.459 76.6314 121.353 77.839 119.775 78.5568C118.263 79.0893 116.765 79.2699 115.177 79.3413C115.406 77.0878 115.244 75.1957 114.654 73.0088ZM114.222 71.844C114.013 71.4304 113.756 71.0263 113.518 70.627C112.696 69.2245 111.502 67.8649 110.205 66.8855C110.252 66.8142 110.3 66.7429 110.347 66.6716C112.002 64.2708 114.284 62.6163 117.188 62.0981C117.488 62.0553 117.84 62.0316 118.144 62.0601C118.524 62.0886 118.9 62.2503 119.128 62.564C119.442 62.9967 119.385 63.5814 119.294 64.0806C118.729 67.0947 116.756 70.1231 114.222 71.8488V71.844ZM109.292 66.2532C108.493 65.7445 107.666 65.3167 106.782 64.9696C105.574 64.5655 104.386 64.266 103.116 64.1376C103.197 62.7067 103.511 61.3517 104.143 60.0586C105.099 58.1094 106.544 56.3647 108.65 55.6516C108.85 55.6563 109.073 55.6563 109.263 55.7372C109.796 55.9606 110.186 56.5881 110.361 57.1111C111.346 60.0063 110.628 63.5957 109.292 66.2532ZM111.008 86.9954C111.041 87.0096 111.079 87.0144 111.113 87.0334C112.563 87.8368 113.87 89.7622 114.526 91.2408C115.106 92.5529 115.753 94.716 115.173 96.1185C114.997 96.5368 114.702 96.8744 114.274 97.0313C113.409 97.345 112.43 96.8839 111.659 96.5131C109.064 94.9727 107.457 92.648 106.43 89.8526C108.146 89.0729 109.615 88.2885 111.013 86.9954H111.008ZM112.154 85.8544C113.461 84.1476 114.279 82.4267 114.906 80.3872C116.252 80.7722 117.678 81.1098 118.838 81.9227C120.264 82.9211 122.085 84.7799 122.347 86.5865C122.399 86.9621 122.347 87.3376 122.095 87.6324C121.553 88.2647 120.283 88.3075 119.518 88.3883C116.794 88.5167 114.203 87.6704 112.154 85.8544ZM118.724 6.19945C120.797 5.30568 122.984 4.70191 125.137 4.04109C125.66 4.14568 126.292 4.65912 126.73 4.96338C129.211 6.67486 131.446 8.59551 133.29 10.9821C138.192 17.3288 140.626 25.8006 139.609 33.7637C138.881 33.8826 138.163 34.0347 137.45 34.2154C126.91 36.8872 118.9 45.0214 113.485 54.1065C112.815 55.219 112.168 56.3409 111.545 57.4819C111.298 56.8496 111.046 56.2696 110.651 55.7134C110.946 54.5486 111.179 53.3744 111.355 52.1858C111.531 50.9973 111.65 49.804 111.707 48.606C112.206 38.9837 109.434 28.3631 102.898 21.094C103.173 20.4665 103.473 19.8485 103.791 19.2447C106.805 13.535 112.857 8.72863 118.714 6.2042L118.724 6.19945ZM100.872 7.73978C101.262 7.78732 101.728 7.98699 102.108 8.1106C104.219 8.78092 106.145 9.57961 107.932 10.9203C105.189 13.3686 103.226 16.3447 101.538 19.5727L100.92 19.0735C98.5523 16.8201 95.9851 15.2513 93.1089 13.7442C95.2815 10.9773 97.6015 9.1042 100.868 7.73978H100.872ZM69.5761 34.2058C70.5174 27.4075 73.4411 20.5663 78.3759 15.7029C79.3315 14.7616 80.3679 13.9629 81.4375 13.1547C83.5198 12.8314 86.4484 13.4399 88.4831 14.0247C96.1562 16.2258 101.98 21.5409 105.793 28.4344C109.924 35.9078 111.797 46.3288 109.411 54.639C108.95 54.6437 108.531 54.7008 108.099 54.8529C105.531 55.7657 103.853 58.1713 102.726 60.5293C101.956 58.5088 100.967 56.6214 99.3367 55.1476C98.6284 54.5058 97.6918 53.8593 96.6887 53.9353C96.0754 53.9829 95.5715 54.3062 95.1769 54.7626C93.6698 56.5263 93.4131 59.7401 93.5177 61.9508C93.5462 62.564 93.6889 63.1631 93.7316 63.7763L93.6128 63.7906C92.2151 62.507 90.6843 61.3185 88.8872 60.6529C87.7795 60.244 86.1108 59.8114 84.9889 60.3724C84.5087 60.6101 84.1854 61.0332 84.0523 61.5467C83.4343 63.8714 85.3026 67.6034 86.5054 69.5621C83.1348 67.0044 80.0874 64.1852 77.5249 60.8098C71.7012 53.1272 68.2354 43.9327 69.5808 34.2058H69.5761ZM50.4266 34.2201C50.7736 33.3976 51.1539 32.4801 51.7387 31.8003C53.2648 30.027 58.1472 29.485 60.4102 29.3329C63.1153 29.1332 65.9344 29.5944 68.5444 30.2647C67.4605 34.9142 67.1372 39.4116 68.0738 44.1229C70.1846 54.7293 77.5249 64.9268 86.4484 70.9027C84.9936 70.8694 83.5246 70.9408 82.1079 71.2926C80.8385 71.6111 79.1841 72.2957 78.5138 73.4985C78.1239 74.2021 78.1857 74.7488 78.3759 75.4857C77.6913 75.4144 77.0115 75.2908 76.3316 75.1719C70.4889 73.7885 64.4749 71.0596 59.8064 67.2611C59.6115 67.1042 59.4213 66.9473 59.2311 66.7857C59.041 66.624 58.8508 66.4624 58.6654 66.296C58.48 66.1296 58.2946 65.9632 58.1139 65.7921C57.9333 65.6209 57.7526 65.4498 57.5767 65.2786C57.4008 65.1027 57.2249 64.9268 57.049 64.7509C56.8779 64.5703 56.7067 64.3896 56.5356 64.209C56.3692 64.0283 56.2028 63.8429 56.0364 63.6527C55.8748 63.4673 55.7131 63.2772 55.5515 63.087C55.3898 62.8968 55.2377 62.7019 55.0808 62.507C54.9287 62.3121 54.7766 62.1172 54.6244 61.9175C54.4771 61.7178 54.3297 61.5181 54.1823 61.3137C54.0397 61.1093 53.8971 60.9049 53.7592 60.7004C53.6213 60.496 53.4834 60.2868 53.3503 60.0776C53.2172 59.8685 53.0841 59.6593 52.9557 59.4454C52.8274 59.2314 52.699 59.0175 52.5802 58.8035C52.4566 58.5896 52.3377 58.3709 52.2189 58.1522C52.1 57.9335 51.9859 57.7149 51.8718 57.4914C51.7577 57.268 51.6484 57.0445 51.5438 56.8211C51.4392 56.5976 51.3346 56.3694 51.23 56.146C51.1302 55.9178 51.0303 55.6896 50.9352 55.4614C50.8402 55.2332 50.7498 55.0003 50.6595 54.7673C50.5692 54.5344 50.4836 54.3014 50.398 54.0685C50.3125 53.8355 50.2316 53.5978 50.1556 53.3649C50.0795 53.1272 50.0034 52.8942 49.9321 52.6517C49.8608 52.414 49.7895 52.1763 49.7277 51.9339C49.6612 51.6962 49.5993 51.4537 49.5375 51.2113C49.4757 50.9688 49.4187 50.7263 49.3664 50.4839C49.3141 50.2414 49.2618 49.999 49.2143 49.7517C49.1667 49.5093 49.1239 49.2621 49.0812 49.0196C49.0384 48.7724 49.0003 48.5299 48.9671 48.2827C48.9338 48.0355 48.9005 47.7883 48.872 47.5458C48.8434 47.2986 48.8149 47.0514 48.7959 46.8042C48.3585 42.5113 48.7293 38.2088 50.4218 34.2106L50.4266 34.2201ZM43.5712 91.469C38.5603 88.6878 33.8918 84.4614 31.4007 79.2319C30.3405 77.0117 29.6607 74.6632 28.9856 72.3004C29.732 70.7126 30.6638 69.0724 31.6716 67.6414C35.4274 62.3121 42.7677 57.9906 49.1477 56.8829C49.2238 56.8639 49.3521 56.8829 49.433 56.8829C49.8133 57.2585 50.032 57.8717 50.3172 58.3329C50.8782 59.2409 51.4677 60.1299 52.081 61.0094C55.1569 65.3975 58.9697 68.7396 63.5907 71.4162C64.3561 71.8535 65.1357 72.2719 65.9297 72.6665C66.7188 73.0611 67.5223 73.4319 68.3352 73.779C69.1482 74.126 69.9707 74.4493 70.8026 74.7488C71.6346 75.0483 72.4713 75.324 73.3223 75.576C74.7295 75.9991 76.4505 76.2083 77.7674 76.8168C78.219 77.026 78.5803 77.5585 78.8989 77.934C69.538 79.0085 60.7192 81.7088 53.7449 88.3075C52.0525 89.9572 50.7356 91.7304 49.3997 93.6701C47.3554 93.3135 45.3777 92.4768 43.5712 91.4737V91.469ZM47.3602 112.187C47.1462 111.298 47.0416 110.381 46.9751 109.468C46.4854 102.598 49.0574 95.5717 53.55 90.4088C59.911 83.1065 70.1275 79.7976 79.5169 79.1463C79.978 79.1131 80.482 79.0513 80.9431 79.0988C81.9177 79.1986 82.8733 79.6835 83.7956 80.0068C84.4992 80.2493 85.2123 80.4299 85.9444 80.5868C84.0523 81.8847 82.3646 83.3062 81.4375 85.474C81.0857 86.2965 80.8148 87.3329 81.1856 88.1934C81.4471 88.7972 81.9795 89.1965 82.5738 89.439C84.8938 90.3803 87.9126 89.3486 90.0852 88.4216C89.3674 89.6767 88.7684 90.9603 88.4593 92.3817C88.331 92.976 88.3595 93.6939 88.1171 94.2501C87.6511 95.3245 86.8667 96.3039 86.3533 97.3736C84.1569 101.942 83.0777 106.497 82.9446 111.565L82.8828 111.626C81.8797 112.629 80.6721 113.457 79.4741 114.208C74.6962 117.198 69.3764 118.458 63.7713 118.506C57.3723 118.501 52.0525 116.495 47.3507 112.192L47.3602 112.187ZM91.792 132.126C86.3723 136.457 80.9241 137.888 74.0544 137.123C72.2193 136.833 70.9357 136.685 69.5856 135.34C65.6349 131.418 64.513 125.808 64.5177 120.459C71.5395 120.046 77.1493 118.368 82.8543 114.17C83.1157 114.436 83.2679 116.414 83.3725 116.918C83.6672 118.244 84.0523 119.542 84.5229 120.816C86.1441 125.195 88.6638 128.708 91.9489 131.993C91.8966 132.036 91.8443 132.078 91.792 132.121V132.126ZM85.4215 118.311C85.3644 118.082 85.3074 117.849 85.2551 117.621C85.2028 117.388 85.1505 117.16 85.1029 116.927C85.0554 116.694 85.0126 116.461 84.9698 116.228C84.927 115.995 84.889 115.762 84.851 115.529C84.8129 115.296 84.7797 115.059 84.7511 114.826C84.7226 114.593 84.6941 114.355 84.6703 114.122C84.6466 113.885 84.6228 113.652 84.6085 113.414C84.5895 113.176 84.5752 112.943 84.561 112.706C84.5467 112.468 84.5372 112.23 84.5325 111.997C84.5277 111.759 84.5229 111.522 84.5229 111.289C84.5229 111.051 84.523 110.813 84.5277 110.58C84.5325 110.343 84.542 110.105 84.5515 109.872C84.561 109.634 84.5752 109.401 84.5943 109.164C84.6133 108.926 84.6323 108.693 84.6513 108.455C84.6751 108.218 84.6989 107.985 84.7274 107.747C84.7559 107.514 84.7892 107.276 84.8225 107.043C84.8557 106.81 84.8938 106.577 84.9318 106.34C84.9698 106.107 85.0126 105.874 85.0602 105.641C85.1077 105.408 85.1552 105.175 85.2075 104.947C85.2598 104.714 85.3121 104.486 85.3692 104.257C85.4262 104.029 85.488 103.796 85.5498 103.568C85.6116 103.34 85.6782 103.112 85.7448 102.884C85.8113 102.655 85.8826 102.432 85.9587 102.204C86.0348 101.98 86.1108 101.757 86.1916 101.533C86.2725 101.31 86.3533 101.086 86.4389 100.868C86.5244 100.644 86.61 100.426 86.7003 100.207C86.7907 99.9883 86.8857 99.7696 86.9808 99.5557C87.0759 99.337 87.1757 99.1231 87.2756 98.9091C87.3754 98.6952 87.48 98.4813 87.5893 98.2721C87.6939 98.0581 87.8033 97.849 87.9174 97.6398C88.0315 97.4306 88.1456 97.2214 88.2597 97.017C88.3738 96.8126 88.4974 96.6081 88.6162 96.4037C88.9348 96.9932 89.2343 97.6873 89.7667 98.1152C90.2659 98.5193 90.8792 98.6286 91.502 98.5335C93.9266 98.177 95.9138 95.857 97.2734 93.9981C97.3923 96.5844 97.8107 99.3417 99.5744 101.362C100.116 101.985 100.858 102.536 101.714 102.57C102.446 102.598 103.092 102.199 103.611 101.719C105.978 99.5319 106.558 95.9616 106.696 92.9047C107.048 93.2137 107.314 93.7604 107.585 94.155C108.45 95.4149 109.53 96.456 110.846 97.2452C111.854 97.849 113.19 98.3672 114.379 98.0391C115.282 97.7872 115.696 97.2167 116.142 96.456C117.017 97.559 117.954 98.6572 118.947 99.6555C119.675 100.388 120.716 101.153 121.282 102.004C121.781 102.765 122.109 103.853 122.38 104.733C124.548 111.707 123.259 119.361 119.889 125.713C116.913 131.323 111.821 135.806 105.717 137.679C102.232 136.842 99.2892 135.387 96.3131 133.419C91.1169 129.768 87.0331 124.524 85.4215 118.32V118.311ZM108.479 156.781C106.815 158.953 105.826 161.345 105.065 163.959C104.628 163.337 104.49 162.234 104.267 161.497C101.99 154.104 100.63 145.718 100.411 137.95C100.958 138.173 101.505 138.387 102.056 138.596C104.78 139.633 106.211 139.761 108.888 138.558C115.553 135.558 120.179 130.605 122.765 123.768C127.761 128.023 132.905 130.067 139.357 131.056C133.324 149.265 118.462 143.854 108.479 156.781ZM138.515 137.517C138.529 138.306 138.002 139.347 137.726 140.094C135.387 146.403 129.882 150.905 125.132 155.383C118.115 162.001 112.743 169.698 111.331 179.386C110.775 178.773 110.033 176.952 109.767 176.139C109.097 175.403 106.786 169.465 106.572 168.357C106.211 166.493 106.915 163.945 107.576 162.2C109.976 155.868 115.61 152.165 121.557 149.55C124.966 148.052 128.418 146.826 131.55 144.758C134.436 142.856 136.595 140.365 138.52 137.522L138.515 137.517ZM116.485 192.308C116.409 192.441 116.337 192.536 116.223 192.641C115.486 193.302 115.04 194.062 114.388 194.69C114.165 195.408 113.775 196.135 113.485 196.834C113.409 196.801 113.39 196.796 113.319 196.729C112.43 195.893 109.563 190.744 108.778 189.304C108.289 188.381 107.809 187.454 107.338 186.522C106.867 185.591 106.411 184.649 105.969 183.708C105.522 182.762 105.089 181.816 104.666 180.86C104.243 179.905 103.834 178.944 103.435 177.979C103.035 177.014 102.65 176.044 102.275 175.07C101.899 174.095 101.538 173.116 101.186 172.132C100.834 171.148 100.497 170.159 100.169 169.17C99.8407 168.176 99.5269 167.183 99.2274 166.184C98.9279 165.186 98.6331 164.183 98.3574 163.175C98.0816 162.167 97.8154 161.159 97.5634 160.147C97.3115 159.134 97.069 158.117 96.8408 157.099C96.6126 156.082 96.3987 155.06 96.1943 154.033C95.9898 153.011 95.7997 151.984 95.6238 150.952C95.4479 149.925 95.2815 148.894 95.1293 147.857C94.9772 146.826 94.8393 145.789 94.711 144.753C94.5826 143.717 94.4685 142.68 94.3687 141.639C94.112 139.057 93.86 136.471 93.7982 133.876C95.2197 135.116 96.7838 136.229 98.519 136.98C98.8518 140.308 98.9564 143.645 99.4413 146.959C99.5744 147.848 99.7218 148.737 99.8739 149.626C100.026 150.515 100.192 151.399 100.368 152.279C100.544 153.163 100.73 154.042 100.92 154.922C101.115 155.801 101.319 156.676 101.533 157.551C101.747 158.426 101.97 159.296 102.208 160.166C102.441 161.036 102.688 161.901 102.94 162.766C103.192 163.627 103.459 164.487 103.734 165.348C104.01 166.203 104.29 167.059 104.585 167.91C104.88 168.761 105.18 169.607 105.493 170.454C105.807 171.295 106.13 172.136 106.458 172.973C106.791 173.81 107.133 174.642 107.48 175.474C107.832 176.301 108.194 177.128 108.56 177.946C108.93 178.768 109.306 179.586 109.696 180.394C110.086 181.207 110.48 182.011 110.889 182.814C111.298 183.618 111.712 184.416 112.135 185.21C112.558 186.004 112.995 186.793 113.437 187.578C114.032 188.619 115.686 191.723 116.475 192.313L116.485 192.308ZM140.298 145.965C139.452 158.359 134.864 171.267 125.28 179.591C122.656 181.873 119.699 183.694 116.585 185.22C116.066 185.472 115.182 185.999 114.612 185.961C114.293 185.776 114.165 185.334 114.036 185.006C113.694 184.73 113.038 183.275 112.81 182.814C112.449 171.961 118.534 163.379 126.098 156.191C130.21 152.283 134.869 148.295 137.664 143.279C138.948 140.973 139.618 138.563 140.193 136.01C140.65 139.267 140.526 142.694 140.303 145.965H140.298ZM152.911 125.275C152.516 125.874 152.131 126.597 151.627 127.11C150.101 128.675 145.033 129.34 142.841 129.354C136.381 129.397 127.999 126.288 123.369 121.719C124.928 117.06 125.256 111.546 124.315 106.725C124.077 105.498 123.697 104.319 123.321 103.126C124.833 103.925 126.212 104.961 127.742 105.736C129.834 106.777 131.988 107.661 134.208 108.398C141.843 110.985 148.218 111.008 155.839 108.493C157.337 114.484 156.029 120.07 152.911 125.275ZM165.737 98.6857C164.406 101.971 159.015 105.251 155.844 106.577C147.662 110 138.696 108.764 130.695 105.484C125.389 103.102 120.355 99.6365 116.513 95.2485C116.309 92.705 115.71 90.7606 114.369 88.588C115.092 88.8209 115.814 89.0444 116.556 89.2013C118.272 89.5721 120.859 89.7099 122.385 88.6735C122.879 88.3408 123.207 87.8511 123.293 87.2568C123.526 85.6262 122.28 83.9147 121.362 82.6834C129.43 82.7832 136.362 82.4219 143.873 79.1606C146.188 78.1575 148.489 76.9309 150.486 75.3811C150.51 75.3906 150.534 75.4001 150.557 75.4096C156.467 77.6821 161.14 82.807 163.655 88.5072C164.606 90.6655 166.588 96.5654 165.732 98.6809L165.737 98.6857ZM178.183 71.459C176.296 78.2906 172.212 83.3775 166.065 86.848L165.243 87.2378C163.717 83.4631 160.498 79.7453 157.265 77.3208C155.744 76.1798 154.071 75.2337 152.369 74.3827C153.595 73.2608 154.922 72.2767 156.11 71.1072C156.362 70.8552 156.609 70.6032 156.852 70.3465C157.094 70.0898 157.332 69.8235 157.565 69.5573C157.798 69.2911 158.026 69.0201 158.254 68.7444C158.478 68.4686 158.696 68.1929 158.915 67.9076C159.129 67.6272 159.338 67.3372 159.543 67.0472C159.747 66.7572 159.947 66.4624 160.142 66.1676C160.337 65.8729 160.527 65.5686 160.707 65.2691C160.893 64.9649 161.069 64.6606 161.245 64.3468C161.416 64.0378 161.587 63.724 161.749 63.4103C161.91 63.0965 162.067 62.778 162.219 62.4547C162.371 62.1314 162.514 61.8081 162.657 61.4849C162.794 61.1568 162.932 60.8288 163.061 60.5008C163.189 60.168 163.313 59.8352 163.427 59.5024C163.546 59.1696 163.655 58.8321 163.76 58.4898C163.864 58.1522 163.964 57.8099 164.054 57.4676C164.149 57.1253 164.235 56.7831 164.316 56.436C165.381 56.7545 166.431 57.2014 167.43 57.6911C171.656 59.7781 174.908 63.4198 177.123 67.5226C177.613 68.4306 178.126 69.3814 178.459 70.3608C178.388 70.7316 178.288 71.0976 178.188 71.4637L178.183 71.459Z" fill="black"/>
<path d="M82.327 85.9162C82.0988 86.4487 81.8896 87.1285 82.113 87.6943C82.2604 88.0698 82.5694 88.3123 82.9307 88.4644C83.6011 88.7449 84.4425 88.7402 85.1557 88.7164C87.5707 88.3789 89.9811 87.4185 91.7971 85.7498C91.0175 84.761 90.3376 83.7626 89.8194 82.6074C89.7196 82.3792 89.1444 80.6202 89.073 80.5441C89.0635 80.5346 88.8734 80.4775 88.8686 80.4775C88.8258 80.4775 88.7878 80.487 88.745 80.4918C85.9353 81.6423 83.5821 82.9782 82.3317 85.9115L82.327 85.9162Z" fill="#FBCE34"/>
<path d="M119.132 62.5593C118.904 62.2456 118.529 62.0839 118.148 62.0554C117.849 62.0316 117.497 62.0554 117.193 62.0934C114.288 62.6116 112.006 64.2661 110.352 66.6669C110.304 66.7382 110.257 66.8095 110.209 66.8808C111.507 67.8649 112.7 69.2198 113.523 70.6223C113.76 71.0216 114.012 71.4257 114.226 71.8394C116.755 70.1136 118.733 67.0853 119.299 64.0712C119.394 63.572 119.451 62.992 119.132 62.5546V62.5593Z" fill="#FBCE34"/>
<path d="M119.774 78.5569C121.353 77.839 123.459 76.6315 124.134 74.92C124.296 74.5064 124.324 74.0595 124.11 73.6554C123.758 72.9851 122.893 72.6761 122.209 72.4954C121.063 72.1911 119.851 72.1151 118.667 72.1341C117.25 72.2292 115.981 72.5002 114.654 73.0088C115.244 75.1957 115.405 77.0879 115.177 79.3413C116.765 79.27 118.263 79.0893 119.774 78.5569Z" fill="#FBCE34"/>
<path d="M119.522 88.3884C120.288 88.3075 121.552 88.2648 122.099 87.6325C122.351 87.3377 122.403 86.9574 122.351 86.5866C122.09 84.78 120.269 82.9211 118.842 81.9228C117.682 81.1146 116.256 80.7723 114.911 80.3872C114.283 82.4267 113.461 84.1477 112.158 85.8544C114.207 87.6705 116.798 88.5167 119.522 88.3884Z" fill="#FBCE34"/>
<path d="M91.3931 69.2861C91.6023 69.0246 91.821 68.7727 92.0492 68.5255C92.2774 68.2783 92.5151 68.0405 92.7575 67.8124C93 67.5842 93.252 67.3607 93.5134 67.1515C93.7749 66.9376 94.0411 66.7379 94.3121 66.543C92.7766 64.1469 90.5754 62.0789 87.7134 61.4561C87.3616 61.3801 87.0051 61.3278 86.6485 61.2945C86.292 61.266 85.9307 61.2565 85.5693 61.2707C85.17 61.6083 85.0654 61.7651 85.0226 62.3119C84.8229 64.784 86.6818 68.1071 88.2507 69.9232C88.7546 70.5079 89.2775 71.0546 89.9289 71.4683C90.371 70.6933 90.8464 69.9945 91.3884 69.2861H91.3931Z" fill="#FBCE34"/>
<path d="M109.263 55.7325C109.078 55.6565 108.854 55.6565 108.65 55.647C106.544 56.3601 105.099 58.1048 104.143 60.054C103.511 61.3471 103.197 62.6973 103.116 64.133C104.386 64.2614 105.574 64.5609 106.782 64.965C107.666 65.3073 108.488 65.7399 109.292 66.2486C110.628 63.5911 111.341 60.0017 110.361 57.1065C110.186 56.5835 109.796 55.956 109.263 55.7325Z" fill="#FBCE34"/>
<path d="M111.654 96.5128C112.424 96.8836 113.404 97.3448 114.269 97.031C114.702 96.8741 114.996 96.5366 115.167 96.1182C115.752 94.711 115.106 92.5527 114.521 91.2405C113.865 89.762 112.562 87.8366 111.107 87.0332C111.074 87.0141 111.036 87.0094 111.003 86.9951C109.605 88.293 108.141 89.0774 106.42 89.8523C107.447 92.643 109.049 94.9677 111.649 96.5128H111.654Z" fill="#FBCE34"/>
<path d="M89.3057 94.3546C89.3057 95.2293 89.4007 96.4654 90.0616 97.1167C90.3801 97.4305 90.7842 97.5636 91.2311 97.5493C91.9965 97.5256 92.7809 97.131 93.4037 96.7079C95.6999 94.9156 96.8789 92.5956 97.7775 89.8905C96.703 89.4151 95.6714 88.9492 94.6921 88.2979C94.093 87.8985 93.4655 87.3185 92.838 87C90.8032 89.03 89.3104 91.3928 89.3057 94.3593V94.3546Z" fill="#FBCE34"/>
<path d="M98.8901 64.4944C99.917 64.2615 100.906 64.1521 101.957 64.1521C101.809 61.1047 101.044 58.0288 98.7047 55.8895C98.101 55.338 97.3688 54.8626 96.5369 54.8198C95.0013 56.3934 94.5401 58.5328 94.5592 60.6769C94.5734 62.4264 94.9728 64.0618 95.5337 65.7067C96.6319 65.2408 97.7206 64.7416 98.8949 64.4897L98.8901 64.4944Z" fill="#FBCE34"/>
<path d="M83.2628 72.1198C82.0933 72.2909 80.2154 72.6808 79.488 73.7267C79.2313 74.0975 79.1505 74.5254 79.2456 74.9675C79.5403 76.2796 81.1092 77.4586 82.2026 78.0957C83.22 78.69 84.2707 79.037 85.4211 79.2842C86.5431 79.4886 87.6223 79.4982 88.7538 79.3888C88.5541 77.1829 88.5208 75.0341 89.2815 72.9137C87.4036 72.2767 85.2548 71.806 83.2675 72.1198H83.2628Z" fill="#FBCE34"/>
<path d="M98.8757 90.2046C98.1864 93.4326 98.0152 97.1313 99.8646 100.027C100.24 100.616 100.801 101.343 101.533 101.472C101.952 101.548 102.379 101.377 102.698 101.11C103.074 100.797 103.425 100.331 103.696 99.922C105.394 97.0695 105.769 93.4469 105.18 90.2141C102.993 90.6087 101.063 90.5421 98.8757 90.2093V90.2046Z" fill="#FBCE34"/>
<path d="M101.538 19.5678C103.23 16.3398 105.189 13.3637 107.932 10.9154C106.149 9.56994 104.219 8.77601 102.108 8.10568C101.723 7.98208 101.262 7.7824 100.872 7.73486C97.6059 9.09929 95.2859 10.9724 93.1133 13.7393C95.9895 15.2511 98.5567 16.8152 100.924 19.0686L101.542 19.5678H101.538Z" fill="#5B13CA"/>
<path d="M141.549 33.5163C146.426 33.098 151.703 33.6732 156.224 35.6271C157.128 36.036 158.017 36.5352 158.93 36.9012C158.906 33.7826 158.269 27.7496 155.925 25.4914C155.383 24.9685 154.656 24.6071 153.985 24.2744C151.176 22.8767 148.162 22.2776 145.038 22.3822C144.891 22.387 144.758 22.3965 144.615 22.4155C143.35 22.5344 142.152 22.7626 140.926 23.0953C141.644 26.4517 142.057 30.0981 141.549 33.5163Z" fill="#5B13CA"/>
<path d="M112.144 185.21C111.721 184.416 111.303 183.618 110.899 182.814C110.49 182.011 110.095 181.203 109.705 180.394C109.315 179.581 108.94 178.764 108.569 177.946C108.198 177.128 107.837 176.301 107.49 175.474C107.138 174.642 106.796 173.81 106.468 172.973C106.135 172.136 105.812 171.295 105.503 170.454C105.189 169.612 104.885 168.761 104.595 167.91C104.3 167.059 104.019 166.203 103.744 165.348C103.468 164.492 103.206 163.631 102.95 162.766C102.698 161.901 102.451 161.036 102.218 160.166C101.985 159.296 101.756 158.426 101.543 157.551C101.329 156.676 101.124 155.801 100.929 154.922C100.734 154.042 100.549 153.163 100.378 152.279C100.202 151.394 100.04 150.51 99.8834 149.626C99.7312 148.742 99.5838 147.853 99.4507 146.959C98.9658 143.645 98.8612 140.308 98.5284 136.98C96.7932 136.229 95.2291 135.116 93.8076 133.875C93.8694 136.466 94.1214 139.057 94.3781 141.639C94.4779 142.68 94.592 143.716 94.7204 144.753C94.8488 145.789 94.9866 146.826 95.1388 147.857C95.2909 148.889 95.4573 149.921 95.6332 150.952C95.8091 151.979 95.9993 153.006 96.2037 154.033C96.4081 155.055 96.622 156.077 96.8502 157.099C97.0784 158.117 97.3209 159.134 97.5729 160.147C97.8248 161.159 98.0911 162.167 98.3668 163.175C98.6425 164.183 98.9325 165.186 99.2368 166.184C99.5411 167.183 99.8548 168.181 100.178 169.17C100.506 170.159 100.844 171.148 101.195 172.132C101.547 173.116 101.909 174.095 102.284 175.07C102.66 176.044 103.045 177.014 103.444 177.979C103.844 178.944 104.252 179.905 104.675 180.86C105.099 181.816 105.531 182.767 105.978 183.708C106.425 184.654 106.881 185.591 107.347 186.522C107.818 187.454 108.293 188.381 108.788 189.304C109.572 190.744 112.439 195.893 113.328 196.729C113.395 196.796 113.418 196.801 113.494 196.834C113.784 196.135 114.174 195.408 114.398 194.69C115.044 194.062 115.491 193.302 116.233 192.641C116.347 192.536 116.418 192.441 116.494 192.308C115.705 191.723 114.051 188.614 113.456 187.573C113.014 186.789 112.582 185.999 112.154 185.205L112.144 185.21Z" fill="#3AAA35"/>
<path d="M121.553 149.545C115.605 152.16 109.972 155.868 107.571 162.195C106.91 163.94 106.207 166.488 106.568 168.352C106.782 169.46 109.092 175.398 109.763 176.134C110.029 176.947 110.771 178.773 111.327 179.382C112.739 169.693 118.111 161.996 125.128 155.378C129.877 150.9 135.387 146.402 137.722 140.089C137.997 139.338 138.525 138.301 138.511 137.512C136.585 140.355 134.427 142.846 131.541 144.748C128.408 146.816 124.957 148.038 121.548 149.54L121.553 149.545Z" fill="#3AAA35"/>
<path d="M83.3723 116.918C83.263 116.414 83.1109 114.436 82.8541 114.17C77.1492 118.368 71.5394 120.046 64.5176 120.46C64.5176 125.803 65.6348 131.418 69.5854 135.34C70.9404 136.685 72.224 136.833 74.0543 137.123C80.924 137.888 86.3722 136.452 91.7918 132.126C91.8441 132.083 91.8964 132.041 91.9487 131.998C88.6684 128.713 86.144 125.199 84.5228 120.821C84.0522 119.547 83.6671 118.249 83.3723 116.923V116.918Z" fill="#5B13CA"/>
<path d="M110.509 84.7845C112.539 82.4597 113.575 79.5217 113.342 76.4363C113.109 73.3319 111.678 70.622 109.32 68.6016C107.247 66.8235 104.366 65.8917 101.652 65.9155C98.4381 66.1152 95.462 67.4511 93.3084 69.8804C93.1896 70.0135 93.0755 70.1561 92.9614 70.294C92.8473 70.4366 92.7427 70.5793 92.6334 70.7266C92.5288 70.874 92.4289 71.0214 92.3291 71.1735C92.2293 71.3257 92.1389 71.4778 92.0486 71.6347C91.9583 71.7915 91.8727 71.9484 91.7871 72.1101C91.7063 72.2717 91.6255 72.4334 91.5494 72.595C91.4734 72.7566 91.402 72.923 91.3355 73.0942C91.2689 73.2606 91.2071 73.4317 91.1501 73.6029C91.093 73.774 91.036 73.9452 90.9884 74.1163C90.9361 74.2874 90.8934 74.4634 90.8506 74.6393C90.8078 74.8152 90.7697 74.9911 90.7412 75.167C90.7079 75.3429 90.6794 75.5235 90.6556 75.6994C90.6319 75.8801 90.6129 76.056 90.5986 76.2366C90.5843 76.4173 90.5701 76.5979 90.5653 76.7738C90.5606 76.9498 90.5558 77.1352 90.5606 77.3158C90.5606 77.4965 90.5701 77.6771 90.5796 77.8578C90.7792 80.9147 92.3243 83.9002 94.6396 85.897C96.8788 87.8271 99.5791 88.6781 102.503 88.6353C105.607 88.4214 108.431 87.152 110.499 84.7845H110.509Z" fill="#FBCE34"/>
<path d="M167.42 57.6814C166.427 57.1917 165.371 56.7448 164.306 56.4263C164.226 56.7733 164.14 57.1156 164.045 57.4579C163.95 57.8002 163.855 58.1425 163.75 58.48C163.646 58.8176 163.536 59.1551 163.417 59.4927C163.299 59.8254 163.18 60.163 163.051 60.491C162.923 60.8238 162.79 61.1518 162.647 61.4751C162.509 61.8032 162.362 62.1264 162.21 62.445C162.058 62.7682 161.901 63.0868 161.739 63.4005C161.578 63.7143 161.411 64.0281 161.235 64.3371C161.064 64.6461 160.883 64.9551 160.698 65.2594C160.513 65.5636 160.327 65.8632 160.132 66.1579C159.937 66.4527 159.738 66.7474 159.533 67.0374C159.329 67.3274 159.12 67.6127 158.906 67.8979C158.692 68.1784 158.473 68.4589 158.245 68.7346C158.021 69.0104 157.793 69.2813 157.556 69.5476C157.323 69.8138 157.085 70.0753 156.842 70.3368C156.6 70.5935 156.353 70.8502 156.101 71.0974C154.912 72.2669 153.586 73.251 152.359 74.373C154.061 75.2192 155.735 76.1653 157.256 77.311C160.494 79.7404 163.707 83.4533 165.233 87.2281L166.056 86.8382C172.198 83.3677 176.282 78.2809 178.174 71.4492C178.274 71.0832 178.374 70.7171 178.445 70.3463C178.112 69.3669 177.599 68.4161 177.109 67.5081C174.894 63.4053 171.642 59.7636 167.416 57.6766L167.42 57.6814Z" fill="#5B13CA"/>
<path d="M137.659 143.279C134.864 148.29 130.205 152.284 126.093 156.191C118.529 163.375 112.448 171.961 112.805 182.814C113.033 183.276 113.689 184.73 114.032 185.006C114.16 185.334 114.288 185.771 114.607 185.962C115.177 186 116.062 185.477 116.58 185.22C119.694 183.694 122.651 181.873 125.275 179.591C134.859 171.262 139.447 158.359 140.293 145.965C140.517 142.695 140.64 139.267 140.184 136.01C139.609 138.563 138.938 140.974 137.655 143.279H137.659Z" fill="#3AAA35"/>
<path d="M134.208 108.398C131.993 107.661 129.834 106.777 127.743 105.736C126.207 104.961 124.833 103.925 123.321 103.126C123.697 104.315 124.077 105.498 124.315 106.725C125.256 111.55 124.923 117.06 123.369 121.719C128.004 126.283 136.381 129.397 142.842 129.354C145.033 129.34 150.101 128.674 151.627 127.11C152.126 126.597 152.516 125.879 152.911 125.275C156.029 120.07 157.337 114.479 155.839 108.493C148.219 111.008 141.839 110.984 134.208 108.398Z" fill="#5B13CA"/>
<path d="M48.8765 47.56C48.905 47.8073 48.9383 48.0545 48.9716 48.2969C49.0049 48.5441 49.0429 48.7866 49.0857 49.0338C49.1285 49.281 49.1713 49.5235 49.2188 49.7659C49.2663 50.0084 49.3186 50.2509 49.3709 50.4981C49.4232 50.7405 49.4803 50.983 49.5421 51.2255C49.6039 51.4679 49.6657 51.7056 49.7322 51.9481C49.7988 52.1858 49.8654 52.4282 49.9367 52.6659C50.008 52.9037 50.084 53.1414 50.1601 53.3791C50.2362 53.6168 50.317 53.8497 50.4026 54.0827C50.4881 54.3156 50.5737 54.5486 50.664 54.7815C50.7544 55.0145 50.8447 55.2427 50.9398 55.4756C51.0349 55.7086 51.1347 55.932 51.2345 56.1602C51.3344 56.3884 51.439 56.6119 51.5483 56.8353C51.6529 57.0587 51.7622 57.2822 51.8763 57.5056C51.9904 57.7291 52.1045 57.9478 52.2234 58.1664C52.3422 58.3851 52.4611 58.6038 52.5847 58.8178C52.7083 59.0317 52.8319 59.2456 52.9603 59.4596C53.0886 59.6735 53.2218 59.8827 53.3549 60.0918C53.488 60.301 53.6258 60.5102 53.7637 60.7146C53.9016 60.9191 54.0442 61.1235 54.1868 61.3279C54.3295 61.5323 54.4768 61.732 54.629 61.9317C54.7763 62.1314 54.9285 62.3263 55.0854 62.5212C55.2375 62.7161 55.3944 62.911 55.556 63.1012C55.7177 63.2914 55.8745 63.4815 56.0409 63.6669C56.2026 63.8523 56.369 64.0377 56.5401 64.2232C56.7065 64.4038 56.8777 64.5845 57.0536 64.7651C57.2247 64.9458 57.4006 65.1217 57.5813 65.2928C57.7572 65.4687 57.9378 65.6399 58.1185 65.8063C58.2991 65.9774 58.4845 66.1438 58.6699 66.3102C58.8554 66.4766 59.0455 66.6382 59.2357 66.7999C59.4258 66.9615 59.616 67.1184 59.8109 67.2753C64.4795 71.0738 70.4934 73.8074 76.3362 75.1861C77.016 75.305 77.6911 75.4333 78.3804 75.4999C78.1903 74.763 78.1285 74.2115 78.5183 73.5127C79.1886 72.3099 80.8431 71.6253 82.1124 71.3068C83.5244 70.9502 84.9981 70.8789 86.4529 70.9169C77.5295 64.941 70.1891 54.7435 68.0783 44.1371C67.1417 39.4258 67.465 34.9284 68.549 30.2789C65.9342 29.6086 63.1198 29.1522 60.4147 29.3471C58.1517 29.4992 53.2693 30.0412 51.7432 31.8145C51.1585 32.4943 50.7781 33.4166 50.4311 34.2343C48.7386 38.2325 48.3678 42.535 48.8052 46.8279C48.829 47.0751 48.8527 47.3223 48.8813 47.5696L48.8765 47.56Z" fill="#E400EA"/>
<path d="M53.7496 88.3025C60.7191 81.7038 69.5379 78.9987 78.9035 77.9291C78.585 77.5535 78.2237 77.021 77.772 76.8119C76.4552 76.2033 74.7342 75.9942 73.327 75.571C72.4807 75.3191 71.6393 75.0433 70.8073 74.7438C69.9753 74.4443 69.1529 74.121 68.3399 73.774C67.527 73.4269 66.7235 73.0561 65.9343 72.6615C65.1452 72.2669 64.3655 71.8533 63.5953 71.4112C58.9743 68.7346 55.1615 65.3925 52.0856 61.0045C51.4724 60.1297 50.8876 59.236 50.3219 58.3279C50.0366 57.8668 49.8179 57.2535 49.4376 56.8779C49.3568 56.8779 49.2284 56.8637 49.1524 56.8779C42.7676 57.9856 35.432 62.3071 31.6763 67.6364C30.6684 69.0674 29.7366 70.7123 28.9902 72.2955C29.6653 74.6535 30.3452 77.002 31.4053 79.2269C33.8965 84.4564 38.5602 88.6828 43.5758 91.464C45.3824 92.4671 47.3601 93.3038 49.4043 93.6604C50.7402 91.7207 52.0571 89.9474 53.7496 88.2978V88.3025Z" fill="#E400EA"/>
<path d="M102.907 21.0891C109.444 28.3533 112.216 38.9788 111.717 48.6011C111.66 49.7991 111.541 50.9924 111.365 52.1809C111.189 53.3694 110.951 54.5437 110.661 55.7084C111.056 56.2694 111.303 56.8447 111.555 57.477C112.178 56.3407 112.824 55.214 113.495 54.1015C118.91 45.0165 126.92 36.8822 137.46 34.2104C138.173 34.0297 138.891 33.8824 139.618 33.7588C140.636 25.7956 138.202 17.3238 133.3 10.9771C131.456 8.58581 129.221 6.66515 126.74 4.95843C126.302 4.65417 125.67 4.14548 125.147 4.03613C122.993 4.69695 120.806 5.30548 118.734 6.19449C112.881 8.71417 106.829 13.5253 103.811 19.235C103.492 19.8388 103.192 20.4568 102.917 21.0843L102.907 21.0891Z" fill="#E400EA"/>
<path d="M150.562 75.4191C150.538 75.4096 150.515 75.4001 150.491 75.3906C148.489 76.9357 146.188 78.1623 143.878 79.1701C136.366 82.4267 129.435 82.788 121.367 82.6929C122.29 83.9195 123.53 85.6357 123.297 87.2664C123.212 87.8606 122.879 88.3503 122.389 88.6831C120.863 89.7195 118.277 89.5816 116.561 89.2108C115.819 89.0491 115.097 88.8305 114.374 88.5975C115.715 90.7749 116.314 92.7193 116.518 95.258C120.359 99.646 125.394 103.112 130.7 105.494C138.696 108.769 147.667 110.005 155.849 106.587C159.02 105.261 164.416 101.98 165.742 98.6952C166.598 96.5796 164.615 90.6798 163.665 88.5214C161.154 82.8213 156.476 77.6964 150.567 75.4239L150.562 75.4191Z" fill="#E400EA"/>
<path d="M82.8919 111.622L82.9537 111.56C83.0869 106.492 84.1708 101.937 86.3624 97.3687C86.8759 96.2991 87.6603 95.3197 88.1262 94.2453C88.3687 93.6891 88.3401 92.9712 88.4685 92.3769C88.7728 90.9555 89.3765 89.6719 90.0944 88.4168C87.9218 89.3438 84.9029 90.3755 82.5829 89.4342C81.9887 89.1917 81.4562 88.7924 81.1947 88.1886C80.8239 87.3281 81.0949 86.2917 81.4467 85.4692C82.369 83.2966 84.0567 81.8799 85.9536 80.582C85.2262 80.4251 84.5131 80.2492 83.8047 80.002C82.8824 79.6835 81.9269 79.1986 80.9523 79.094C80.4911 79.0464 79.9872 79.1083 79.526 79.1415C70.1367 79.7928 59.9201 83.1017 53.5591 90.404C49.0618 95.5669 46.4946 102.589 46.9842 109.463C47.0508 110.376 47.1554 111.294 47.3693 112.183C52.0711 116.485 57.3909 118.491 63.79 118.496C69.395 118.448 74.7101 117.189 79.4928 114.198C80.6908 113.447 81.9031 112.62 82.9014 111.617L82.8919 111.622Z" fill="#E400EA"/>
<path d="M105.721 137.669C111.821 135.801 116.917 131.313 119.893 125.703C123.264 119.347 124.547 111.697 122.384 104.723C122.113 103.844 121.785 102.76 121.286 101.994C120.725 101.139 119.679 100.378 118.952 99.6458C117.963 98.6475 117.022 97.5493 116.147 96.4463C115.7 97.207 115.282 97.7775 114.383 98.0294C113.199 98.3575 111.859 97.8393 110.851 97.2355C109.534 96.4463 108.455 95.4052 107.589 94.1453C107.318 93.7508 107.052 93.204 106.7 92.895C106.558 95.9519 105.983 99.5175 103.615 101.709C103.097 102.189 102.45 102.589 101.718 102.56C100.862 102.527 100.121 101.975 99.5788 101.353C97.8103 99.3273 97.3967 96.5699 97.2778 93.9885C95.9229 95.8521 93.9309 98.1673 91.5064 98.5239C90.8836 98.6142 90.2703 98.5096 89.7711 98.1055C89.2387 97.6729 88.9344 96.9835 88.6206 96.394C88.497 96.5985 88.3782 96.8029 88.2641 97.0073C88.15 97.2117 88.0311 97.4209 87.9218 97.6301C87.8124 97.8393 87.7031 98.0485 87.5937 98.2624C87.4891 98.4763 87.3846 98.6855 87.28 98.8994C87.1801 99.1134 87.0803 99.3273 86.9852 99.546C86.8901 99.7647 86.795 99.9786 86.7047 100.197C86.6144 100.416 86.5241 100.635 86.4432 100.858C86.3577 101.082 86.2768 101.3 86.196 101.524C86.1152 101.747 86.0391 101.971 85.9631 102.194C85.887 102.417 85.8157 102.646 85.7491 102.874C85.6826 103.102 85.616 103.33 85.5542 103.558C85.4924 103.787 85.4306 104.015 85.3736 104.248C85.3165 104.476 85.2642 104.709 85.2119 104.937C85.1596 105.17 85.1121 105.398 85.0646 105.631C85.017 105.864 84.9742 106.097 84.9362 106.33C84.8982 106.563 84.8601 106.796 84.8268 107.034C84.7936 107.267 84.7603 107.504 84.7318 107.737C84.7032 107.97 84.6795 108.208 84.6557 108.446C84.6319 108.683 84.6129 108.916 84.5987 109.154C84.5796 109.392 84.5701 109.625 84.5559 109.862C84.5464 110.1 84.5368 110.338 84.5321 110.571C84.5273 110.808 84.5273 111.046 84.5273 111.279C84.5273 111.517 84.5273 111.755 84.5369 111.987C84.5416 112.225 84.5511 112.463 84.5654 112.696C84.5796 112.934 84.5939 113.166 84.6129 113.404C84.6319 113.642 84.6509 113.875 84.6747 114.113C84.6985 114.35 84.727 114.583 84.7555 114.816C84.7841 115.049 84.8173 115.287 84.8554 115.52C84.8934 115.753 84.9314 115.986 84.9742 116.219C85.017 116.452 85.0598 116.685 85.1073 116.917C85.1549 117.15 85.2072 117.379 85.2595 117.612C85.3118 117.845 85.3688 118.073 85.4259 118.301C87.0375 124.505 91.1213 129.749 96.3175 133.4C99.2983 135.368 102.236 136.823 105.721 137.66V137.669Z" fill="#E400EA"/>
<path d="M86.4962 69.5622C85.2934 67.6036 83.4251 63.8716 84.0431 61.5468C84.181 61.0334 84.4995 60.6103 84.9797 60.3726C86.1016 59.8163 87.7703 60.2442 88.878 60.6531C90.6751 61.3186 92.2059 62.5072 93.6036 63.7908L93.7224 63.7765C93.6797 63.1632 93.537 62.569 93.5085 61.9509C93.4039 59.7403 93.6606 56.5218 95.1677 54.7627C95.5623 54.3016 96.0662 53.9783 96.6795 53.9355C97.6826 53.8595 98.6192 54.506 99.3275 55.1478C100.958 56.6168 101.947 58.509 102.717 60.5295C103.839 58.1714 105.522 55.7658 108.089 54.8531C108.522 54.7009 108.94 54.6439 109.401 54.6391C111.788 46.3337 109.92 35.908 105.784 28.4345C101.971 21.5411 96.147 16.226 88.4739 14.0249C86.4439 13.4401 83.5106 12.8316 81.4283 13.1549C80.3587 13.9631 79.3223 14.7617 78.3667 15.7031C73.432 20.5665 70.5082 27.4076 69.5669 34.206C68.2215 43.9281 71.6824 53.1273 77.511 60.8099C80.0734 64.1901 83.1208 67.0093 86.4915 69.5622H86.4962Z" fill="#E400EA"/>
<path d="M119.751 47.5174C117.602 49.9895 112.9 56.5644 112.035 59.4787C111.693 60.6292 111.778 62.2836 111.526 63.5862C113.385 62.3359 116.219 60.691 118.529 61.1807C119.085 61.2995 119.57 61.5848 119.879 62.0649C120.455 62.954 120.222 64.2661 119.979 65.2359C119.437 67.4085 118.325 69.3625 116.932 71.093C119.252 70.86 122.499 70.9266 124.419 72.4621C124.904 72.852 125.28 73.3749 125.337 74.012C125.432 75.0389 124.69 76.0705 124.039 76.8026C122.599 78.419 120.583 79.522 118.562 80.2541C119.161 80.6392 119.813 81.1669 120.521 81.2905C123.416 81.3856 126.302 81.4854 129.193 81.2667C137.926 80.6154 146.464 77.4017 152.916 71.383C159.153 65.5639 163.213 57.4344 163.498 48.8533C163.569 46.733 163.608 43.3385 162.091 41.7412C157.784 37.1962 151.214 35.3184 145.095 35.2043C144.23 35.19 143.322 35.1662 142.461 35.2566C133.533 35.8841 125.522 40.8712 119.741 47.5269L119.751 47.5174Z" fill="#E400EA"/>
</g>
</g>
<defs>
<clipPath id="clip0_1718_9609">
<rect width="221.541" height="203" fill="white"/>
</clipPath>
</defs>
</svg>
