<svg width="131" height="181" viewBox="0 0 131 181" fill="none" xmlns="http://www.w3.org/2000/svg">
<g clip-path="url(#clip0_1718_9124)">
<path d="M43.1594 120.324C41.6864 122.259 40.17 124.168 38.918 126.267C47.4398 125.244 55.5631 119.983 59.3237 112.181C61.5679 107.75 62.3001 102.7 62.0704 97.7803C59.4233 100.432 57.0622 103.344 54.6187 106.173C50.6632 110.782 46.92 115.559 43.1594 120.319V120.324Z" fill="#2C9156"/>
<path d="M51.1005 79.8632C53.0501 80.118 54.9521 78.8956 55.9788 77.2974C58.0411 73.9886 58.1147 69.3322 55.6236 66.2222C54.5188 64.922 52.6082 63.989 50.9229 64.6326C48.2758 65.9414 45.6417 67.2718 42.9902 68.5677C43.6531 71.1766 43.8177 73.9152 43.2545 76.5631C45.8843 77.63 48.4361 78.8913 51.1049 79.8632H51.1005Z" fill="#E400EA"/>
<path d="M40.686 120.739C47.1066 112.579 53.6616 104.515 60.5111 96.7095C53.107 97.595 45.7246 101.072 41.3965 107.297C37.9695 112.29 36.8388 118.635 37.8352 124.557C38.7494 123.257 39.7372 122.009 40.686 120.735V120.739Z" fill="#2C9156"/>
<path d="M37.7915 63.6047C35.0967 61.2074 31.3188 60.0541 27.7446 60.6156C24.0534 61.1556 20.6308 63.3628 18.7028 66.5549C17.0608 69.2287 16.6059 72.5418 17.2038 75.6043C18.4689 81.6559 24.7292 86.1266 30.8813 85.4182C36.795 84.8739 41.8076 79.5826 42.0546 73.6735C42.2885 69.8982 40.6682 66.0712 37.7915 63.6047Z" fill="#FBCE34"/>
<path d="M79.2353 64.3345C78.1392 64.5073 76.9564 64.6541 76.0856 65.41C73.8674 67.2069 73.1093 70.2695 73.3605 73.0123C73.5945 75.2714 74.4176 77.686 76.3629 79.0424C77.3854 79.6687 78.6937 80.1827 79.8808 79.7292C82.437 78.7918 84.8588 77.5478 87.3889 76.5543C86.8864 73.8676 86.96 71.0858 87.7658 68.4639C84.8674 67.2026 82.1034 65.6649 79.2396 64.3388H79.2353V64.3345Z" fill="#F785A0"/>
<path d="M68.9899 45.5834C71.884 44.8491 74.3881 43.0004 76.2857 40.7413C78.9329 37.506 80.0593 33.0785 79.2101 28.9793C78.3307 24.5993 75.3283 20.634 71.2211 18.7896C68.3921 17.524 65.1557 17.0834 62.1144 17.7702C55.0179 19.1697 49.9403 26.677 51.0407 33.7566C51.5433 37.493 53.6618 40.9313 56.6425 43.2293C60.1041 45.8426 64.8048 46.8577 68.9899 45.5791V45.5834Z" fill="#FBCE34"/>
<path d="M46.4648 92.895C49.7487 91.7288 52.0753 88.2991 51.8976 84.8219C51.811 83.5044 51.2998 82.0488 50.0693 81.3922C47.7038 80.1568 45.204 79.1806 42.7389 78.1655C41.3612 80.9084 39.4159 83.418 36.7861 85.0767C37.527 86.7916 38.0295 88.6058 38.8527 90.2904C40.3517 92.8086 43.7397 93.8928 46.4691 92.895H46.4648Z" fill="#E400EA"/>
<path d="M93.0953 82.4678C96.167 85.0595 100.512 86.1523 104.412 85.0811C107.267 84.2647 109.818 82.4289 111.508 79.9927C113.44 77.2541 114.168 73.6949 113.445 70.4207C112.583 66.5331 109.818 63.0602 106.119 61.5052C103.666 60.4254 100.863 60.2353 98.2639 60.84C94.9063 61.6089 91.9212 63.8162 90.1796 66.7793C88.7456 69.3322 88.2603 72.3817 88.7672 75.2628C89.3131 78.0705 90.8901 80.6449 93.091 82.4678H93.0953Z" fill="#FBCE34"/>
<path d="M80.9726 81.0985C79.7032 81.5693 79.0144 82.9083 78.8151 84.1783C78.3472 88.0269 80.9466 92.1693 84.8372 93.0116C87.6359 93.8324 90.8506 92.2946 92.0463 89.664C92.7482 88.1522 93.3157 86.5842 93.8313 84.999C91.2578 83.2625 89.1176 80.835 87.8525 77.9971C85.5867 79.0856 83.2862 80.105 80.977 81.1028L80.9726 81.0985Z" fill="#F785A0"/>
<path d="M95.166 147.705C100.343 149.934 106.404 149.39 111.495 147.174C116.139 145.079 120.025 141.489 122.803 137.256C126.082 132.168 127.967 126.229 128.231 120.19C126.619 121.477 124.973 122.73 123.387 124.047C113.93 131.87 104.372 139.584 95.166 147.701V147.705Z" fill="#2C9156"/>
<path d="M47.5401 180.728C39.6594 180.685 31.783 180.814 23.9023 180.672C23.911 180.724 23.924 180.78 23.9327 180.832H105.274C105.283 180.801 105.287 180.771 105.296 180.741C86.0423 180.698 66.789 180.75 47.5401 180.732V180.728Z" fill="white"/>
<path d="M93.4543 120.523C93.7013 113.836 90.6166 107.106 85.4177 102.878C81.1459 99.2751 75.6784 97.3486 70.1719 96.7266C78.1869 105.594 85.8423 114.812 92.9994 124.38C93.1641 123.093 93.3937 121.814 93.4543 120.518V120.523Z" fill="#2C9156"/>
<path d="M94.3516 146.094C104.836 137.08 115.576 128.367 126.208 119.521C126.377 119.313 126.728 119.192 126.736 118.89C119.341 117.966 111.642 120.393 105.98 125.197C101.6 128.574 98.502 133.343 96.4615 138.423C95.5646 140.924 94.9104 143.498 94.3516 146.094Z" fill="#2C9156"/>
<path d="M22.6067 179.108C50.7545 179.138 78.9023 179.121 107.05 179.117C107.899 178.996 109.281 179.354 109.55 178.231C111.3 173.19 113.089 168.158 114.792 163.096C115.091 162.236 115.39 161.29 115.056 160.396C114.675 159.217 113.375 158.59 112.193 158.629C80.5009 158.629 48.8092 158.629 17.1219 158.638C17.0136 158.655 16.7883 158.694 16.68 158.716C14.804 159.268 14.1455 161.515 14.5354 163.255C15.3283 167.199 16.0864 171.164 17.2562 175.017C17.8974 177.346 20.0853 179.32 22.6067 179.108Z" fill="black"/>
<path d="M66.7148 61.311C65.779 61.3672 64.8475 61.3758 63.916 61.3283C63.942 93.2365 63.942 125.145 63.9333 157.053C64.8562 157.057 65.7746 157.066 66.6974 157.07C66.6844 143.399 66.7234 129.732 66.6974 116.061C66.5761 107.348 66.9097 98.6315 66.7104 89.9191C66.8621 84.6104 66.5848 79.2931 66.7494 73.9801C66.8491 69.7557 66.6671 65.5398 66.7104 61.3154L66.7148 61.311Z" fill="#2C9156"/>
<path d="M96.0545 115.154C94.0182 129.343 90.7559 143.347 86.5361 157.048C87.5109 157.061 88.4944 157.074 89.4692 157.001C90.4483 153.351 91.5704 149.731 92.5149 146.073C96.5744 131.054 99.0525 115.65 100.881 100.217C99.9233 100.13 98.9788 99.9792 98.0387 99.7935C97.5188 104.929 96.8083 110.044 96.0545 115.154Z" fill="#2C9156"/>
<path d="M74.1237 52.2658C73.7944 50.1276 72.8976 48.1234 72.1958 46.0889C67.898 48.1493 62.7597 48.2184 58.4316 46.2098C57.7471 47.7778 57.1752 49.389 56.6684 51.0217C56.0402 52.7798 56.5947 54.7754 57.6388 56.257C60.7365 60.421 67.3824 61.0041 71.4029 57.8681C73.0709 56.5118 74.1713 54.4298 74.1237 52.2658Z" fill="#E3252F"/>
<path d="M68.5343 97.625C68.4303 102.264 69.2405 106.921 70.9388 111.244C74.422 119.611 82.9742 125.512 91.9813 126.186C90.218 123.283 87.9998 120.691 85.9506 117.987C84.6595 116.298 83.3425 114.64 81.9691 113.024C77.6583 107.75 73.3173 102.484 68.5386 97.625H68.5343Z" fill="#2C9156"/>
<path d="M42.38 67.0173C44.8365 65.8078 47.3277 64.6588 49.7365 63.363C51.4565 62.3824 51.907 60.1708 51.7251 58.348C51.5258 55.6829 49.8015 53.2294 47.4143 52.0502C44.4813 50.5686 40.1878 51.3331 38.5285 54.3482C37.5234 56.3049 36.8172 58.3955 36.124 60.4775C38.8188 61.9591 40.9114 64.3478 42.38 67.0173Z" fill="#E400EA"/>
<path d="M7.88059 79.8546C10.5797 78.9432 13.1055 77.5955 15.7613 76.5675C15.2414 73.8764 15.341 71.086 16.1469 68.4641C13.5084 67.2417 10.883 65.9804 8.2965 64.6543C7.38669 64.0625 6.29492 64.4772 5.36778 64.7968C3.30988 65.6132 2.17045 67.7773 1.75021 69.842C1.27797 72.4856 1.6419 75.3926 3.20157 77.6344C4.22835 79.0944 6.06097 80.1743 7.88059 79.8546Z" fill="#E400EA"/>
<path d="M24.5393 59.7691C27.7713 58.6547 31.4019 58.5208 34.5992 59.8296C35.2447 58.0241 35.9639 56.2488 36.6224 54.4518C37.1596 53.2553 36.7567 51.9379 36.4708 50.7328C35.9032 48.3959 33.646 46.8668 31.3802 46.4478C28.9584 46.0461 26.2463 46.3182 24.275 47.8992C22.581 49.1993 21.8489 51.4714 22.1391 53.5361C22.8496 55.6483 23.7811 57.6742 24.5393 59.7735V59.7691Z" fill="#E400EA"/>
<path d="M47.0635 50.1582C49.0607 50.7975 50.5684 52.2747 51.9591 53.7693C53.0682 53.0393 54.5976 52.508 54.9745 51.0869C55.6027 49.1431 56.3132 47.2252 56.9718 45.2901C53.8611 43.4198 51.4349 40.3831 50.2868 36.9448C47.6527 37.8735 45.1702 39.1823 42.6011 40.2665C41.5483 40.7071 40.3396 41.1866 39.9193 42.3528C38.6889 44.9445 40.1056 47.7652 41.4573 50.0027C43.3116 49.6787 45.2612 49.4714 47.0635 50.1539V50.1582Z" fill="#E3252F"/>
<path d="M41.0755 39.1949C44.0216 38.0286 46.881 36.6637 49.7404 35.3074C49.1122 32.2448 49.3548 29.0657 50.4076 26.1198C47.0023 24.5043 43.6533 22.7506 40.2264 21.1826C39.2776 20.6556 38.1815 21.2258 37.328 21.6966C35.0058 23.2041 33.94 26.0334 33.6584 28.6769C33.3811 31.9209 34.0917 35.4585 36.3705 37.8991C37.5186 39.1604 39.4335 39.8817 41.0755 39.1906V39.1949Z" fill="#E3252F"/>
<path d="M22.8537 123.788C17.2476 119.923 10.2334 118.113 3.45312 118.886C11.1085 125.279 18.7726 131.659 26.4453 138.03C29.6773 140.617 32.8183 143.317 35.994 145.973C35.5564 143.567 34.9325 141.196 34.2393 138.855C32.1468 132.816 28.1349 127.43 22.858 123.788H22.8537Z" fill="#2C9156"/>
<path d="M16.5325 78.4937C16.4285 77.9149 15.8523 78.1914 15.5187 78.3339C13.3958 79.3274 11.234 80.2302 9.09808 81.2021C8.01064 81.621 7.44309 82.7528 7.18315 83.8153C6.42931 87.6899 8.97244 91.9922 12.85 92.9986C14.8515 93.6509 17.1607 93.2059 18.7551 91.8323C20.8866 90.1909 21.2765 87.366 22.2383 85.0248C19.7688 83.4482 17.7066 81.1805 16.5282 78.4937H16.5325Z" fill="#E400EA"/>
<path d="M41.4742 20.0123C44.7105 21.4679 47.8299 23.1828 51.1095 24.5477C52.7038 21.4938 55.2383 19.0058 58.2667 17.373C57.0882 14.7122 55.9965 12.0125 54.7054 9.40356C54.0599 8.09475 52.7645 7.18334 51.3564 6.84642C49.5628 6.45766 47.7085 6.96305 46.0925 7.74056C42.7782 9.35173 40.1311 12.5698 39.7109 16.2802C39.5809 17.6797 39.9968 19.481 41.4699 20.0166L41.4742 20.0123Z" fill="#E3252F"/>
<path d="M43.6877 157.053C40.2087 145.865 37.7609 134.375 35.9803 122.808C34.8625 115.11 33.7881 107.4 33.0429 99.6553C32.0941 99.9404 31.1237 100.1 30.1445 100.212C32.2544 119.369 35.2265 138.522 40.7243 157.031C41.7121 157.044 42.6999 157.048 43.6877 157.048V157.053Z" fill="#2C9156"/>
<path d="M36.7515 89.5215C36.2749 88.2904 35.898 87.0162 35.2785 85.8413C31.6219 87.5259 27.3285 87.4179 23.6676 85.811C22.9224 88.1652 21.5577 90.5668 22.2552 93.1023C22.6624 95.4824 24.5341 97.3959 26.7999 98.1302C29.0701 98.8602 31.7475 98.8732 33.8141 97.5514C36.5045 96.018 37.8779 92.4242 36.7515 89.5215Z" fill="#E400EA"/>
<path d="M2.01939 120.095C1.94141 120.091 1.78111 120.074 1.70312 120.065C2.39631 120.363 2.11471 121.236 2.26201 121.819C2.79056 127.65 4.67517 133.425 8.08045 138.224C11.4641 143.088 16.4854 146.88 22.2518 148.422C26.5626 149.494 31.3109 149.554 35.4397 147.775C28.8414 142.047 21.9702 136.656 15.3546 130.946C10.9615 127.261 6.50778 123.65 2.01506 120.091H2.01939V120.095Z" fill="#2C9156"/>
<path d="M9.08528 63.2113C11.5851 64.5806 14.1759 65.7901 16.7493 67.0125C18.0621 64.2739 20.2629 61.9716 22.9447 60.5375C22.4725 58.6197 21.6363 56.8228 20.8825 55.0043C20.2499 53.4881 18.9935 52.2225 17.4425 51.6567C15.6056 50.9353 13.5304 51.2333 11.7411 51.9547C8.75169 53.3067 7.04038 56.7364 7.30033 59.9371C7.39131 61.1984 7.85054 62.6282 9.08095 63.2113H9.08528Z" fill="#E400EA"/>
<path d="M114.618 68.5504C115.272 71.1551 115.454 73.898 114.865 76.5329C117.404 77.6862 119.934 78.8438 122.538 79.8416C124.245 80.226 126.017 79.2801 127.13 78.0231C129.79 74.6452 129.925 69.397 127.148 66.0451C125.995 64.7795 124.015 63.8465 122.369 64.7147C119.782 65.9846 117.209 67.2805 114.618 68.5461V68.5504Z" fill="#F785A0"/>
<path d="M113.917 66.9523C116.248 66.002 118.479 64.8444 120.728 63.7299C121.646 63.298 122.547 62.663 122.924 61.6782C124.012 58.9396 123.158 55.6654 121.152 53.5661C119.471 51.752 116.829 50.9053 114.402 51.3675C112.293 51.6828 110.451 53.2033 109.667 55.1687C108.978 56.9224 108.255 58.6718 107.73 60.486C110.408 61.9244 112.544 64.2612 113.922 66.9523H113.917Z" fill="#F785A0"/>
<path d="M59.8656 16.7899C63.1973 15.4897 66.9275 15.5416 70.2981 16.6646C71.5545 13.9347 72.8846 11.235 73.946 8.42302C74.2406 6.80321 73.3481 5.18771 72.2607 4.03873C70.1768 1.93945 67.0185 1.5075 64.1894 1.62845C61.4946 1.63709 58.6352 2.65217 57.0539 4.93718C56.2654 6.10777 55.6025 7.68438 56.3217 9.04071C57.4178 11.6626 58.5572 14.2673 59.8613 16.7899H59.8656Z" fill="#E3252F"/>
<path d="M95.2351 85.7896C94.4726 88.3597 92.8523 91.0161 93.9527 93.7504C95.0531 97.6811 99.8318 99.4219 103.523 98.3291C106.161 97.6034 108.31 95.2449 108.557 92.4934C108.917 90.1436 107.686 87.9968 106.902 85.8673C103.22 87.5173 98.9047 87.4439 95.2351 85.7939V85.7896Z" fill="#F785A0"/>
<path d="M96.1409 59.7904C99.3599 58.65 102.995 58.5377 106.192 59.8077C106.916 57.6911 107.834 55.6437 108.523 53.5185C108.605 52.2054 108.393 50.8318 107.782 49.6525C106.638 47.739 104.481 46.6073 102.297 46.3697C100.101 46.1192 97.7049 46.4604 95.9546 47.9031C94.2779 49.2163 93.6454 51.4667 93.7407 53.5185C94.3429 55.6739 95.4217 57.6695 96.1409 59.7904Z" fill="#F785A0"/>
<path d="M121.654 81.3709C119.28 80.1571 116.78 79.2068 114.333 78.1528C113.072 80.9735 110.971 83.4053 108.38 85.0986C108.939 86.6234 109.476 88.1611 110.113 89.6557C110.836 91.4439 112.552 92.7355 114.424 93.1285C116.412 93.595 118.548 93.0076 120.164 91.8068C122.278 90.2993 123.504 87.7033 123.569 85.1375C123.587 83.6948 123.049 82.0361 121.654 81.3709Z" fill="#F785A0"/>
<path d="M87.7659 22.228C85.1837 23.5023 82.5496 24.6815 80.0498 26.1113C81.0463 29.014 81.2802 32.1499 80.6867 35.1606C81.0766 35.5451 81.6225 35.7351 82.1034 35.9943C84.5165 37.1174 86.9514 38.2102 89.4295 39.195C90.7682 39.7609 92.2672 39.1389 93.3547 38.3139C95.2176 36.8193 96.1578 34.4781 96.5563 32.1802C97.0069 29.1824 96.5997 25.9126 94.7541 23.4202C93.7316 22.0769 92.1546 20.9063 90.3826 21.0618C89.4598 21.3339 88.6323 21.8306 87.7615 22.2237L87.7659 22.228Z" fill="#E3252F"/>
<path d="M82.7753 52.4084C80.7521 53.7172 79.2834 55.9072 79.0494 58.3218C78.8978 59.7991 78.9974 61.4751 80.0459 62.637C81.0987 63.583 82.4504 64.1056 83.6895 64.7579C85.2621 65.5051 86.7785 66.382 88.4248 66.9522C89.6855 64.2093 91.9254 61.9632 94.5682 60.5248C94.1523 58.9525 93.4634 57.4709 92.8742 55.9591C92.3283 54.5768 91.5355 53.2205 90.2704 52.3868C88.0435 50.9441 85.0195 51.0607 82.7753 52.4084Z" fill="#F785A0"/>
<path d="M79.2662 24.5564C80.9126 23.9517 82.4159 23.023 83.9929 22.2628C85.6869 21.3773 87.4589 20.6603 89.1052 19.6927C90.2403 18.9972 90.4396 17.52 90.4612 16.3062C90.2403 12.9499 87.9398 10.0818 85.1757 8.33672C83.1784 7.10998 80.7306 6.23312 78.3824 6.88105C77.0827 7.30004 75.822 8.14666 75.3064 9.45979C74.1453 12.0644 72.9539 14.6605 71.8838 17.3083C75.0811 18.8245 77.6026 21.4723 79.2662 24.5564Z" fill="#E3252F"/>
<path d="M88.6237 40.6379C85.7729 39.4501 82.9828 38.1283 80.1798 36.8281C79.023 40.2621 76.6488 43.2469 73.5771 45.1734C74.461 47.2338 75.1108 49.3806 75.8517 51.4928C76.4669 52.6677 77.7709 53.3157 78.9753 53.7433C80.1191 52.3783 81.4448 51.1041 83.1301 50.4389C84.9411 49.5706 86.9947 49.7262 88.9313 49.9205C90.0274 48.4778 90.7119 46.7068 90.8938 44.9099C91.0585 43.221 90.3436 41.2427 88.6237 40.6336V40.6379Z" fill="#E3252F"/>
<path d="M122.803 137.256C120.026 141.489 116.14 145.075 111.495 147.174C106.405 149.385 100.348 149.934 95.1665 147.705C104.373 139.589 113.93 131.874 123.388 124.052C124.974 122.73 126.62 121.477 128.232 120.194C127.967 126.233 126.083 132.172 122.803 137.261V137.256ZM105.98 125.201C111.643 120.397 119.337 117.965 126.737 118.894C126.733 119.196 126.377 119.317 126.208 119.525C115.577 128.371 104.837 137.084 94.352 146.098C94.9109 143.507 95.5694 140.928 96.4619 138.427C98.4982 133.347 101.6 128.578 105.98 125.201ZM92.5151 146.072C91.5706 149.735 90.4485 153.351 89.4694 157.001C88.4946 157.074 87.5111 157.061 86.5363 157.048C90.7561 143.347 94.0184 129.343 96.0547 115.153C96.8085 110.043 97.519 104.929 98.0389 99.7933C98.9791 99.9834 99.9279 100.13 100.881 100.217C99.0527 115.65 96.5746 131.054 92.5151 146.072ZM68.2145 111.922C68.2059 110.739 68.1625 109.551 68.2622 108.372C69.5706 113.573 72.5729 118.363 76.8144 121.68C81.1468 125.322 86.6836 127.347 92.2768 127.961C90.8514 135.33 89.1401 142.643 87.0606 149.861C86.4454 152.28 85.5486 154.616 85.0157 157.057C79.4138 157.061 73.8077 157.057 68.2059 157.053C68.2232 142.012 68.2405 126.972 68.2059 111.927H68.2102L68.2145 111.922ZM66.7155 89.9103C66.9148 98.6227 66.5812 107.339 66.7025 116.052C66.7198 129.723 66.6852 143.39 66.7025 157.061C65.7797 157.061 64.8612 157.053 63.9384 157.044C63.9471 125.136 63.9471 93.232 63.9211 61.3195C64.8526 61.367 65.784 61.3584 66.7198 61.3022C66.6765 65.5267 66.8585 69.7425 66.7588 73.967C66.5942 79.28 66.8715 84.593 66.7198 89.906L66.7155 89.9103ZM57.6391 56.2614C56.595 54.7798 56.0404 52.7799 56.6686 51.0261C57.1755 49.3934 57.7474 47.7779 58.4319 46.2142C62.76 48.2185 67.9026 48.1537 72.196 46.0933C72.8979 48.1278 73.7947 50.132 74.1239 52.2702C74.1759 54.4342 73.0712 56.5205 71.4032 57.8726C67.3827 61.0128 60.7368 60.4254 57.6391 56.2614ZM62.4307 114.804C62.4827 128.881 62.4177 142.962 62.4307 157.044C56.7249 157.027 51.0148 157.074 45.309 157.053C42.3803 147.524 40.0408 137.809 38.3945 127.978C45.4173 127.27 52.1889 123.957 56.8982 118.691C59.4457 115.715 61.5513 112.212 62.3571 108.346C62.578 110.488 62.3787 112.648 62.4264 114.799L62.4307 114.804ZM42.7355 78.1699C45.2007 79.185 47.7048 80.1612 50.066 81.3966C51.2964 82.0531 51.8076 83.5088 51.8943 84.8262C52.0719 88.3034 49.7454 91.7331 46.4614 92.8994C43.732 93.8972 40.3397 92.8087 38.845 90.2947C38.0219 88.6144 37.5193 86.8002 36.7785 85.0811C39.4082 83.4224 41.3535 80.9128 42.7312 78.1699H42.7355ZM30.882 85.4137C24.7257 86.1221 18.4696 81.6514 17.2046 75.5998C16.611 72.5373 17.0659 69.2285 18.7036 66.5504C20.6315 63.3583 24.0541 61.1511 27.7454 60.6111C31.3239 60.0496 35.1018 61.2029 37.7922 63.6002C40.6733 66.0667 42.2893 69.8937 42.0553 73.669C41.8084 79.5737 36.7915 84.8651 30.882 85.4137ZM42.9911 68.5676C45.6426 67.2675 48.281 65.9414 50.9238 64.6326C52.6135 63.9933 54.5241 64.922 55.6245 66.2221C58.1156 69.3279 58.042 73.9886 55.9798 77.2973C54.953 78.8956 53.051 80.118 51.1014 79.8631C48.4327 78.8912 45.8809 77.6256 43.2511 76.563C43.8186 73.9152 43.6497 71.1766 42.9868 68.5676H42.9911ZM46.2881 94.5753C50.2653 93.6164 53.2633 89.8109 53.4453 85.7636C53.5319 84.2561 53.2503 82.6579 52.3275 81.4182C55.0656 81.0899 57.2492 78.8869 58.2196 76.4118C59.476 73.0901 59.3677 69.1292 57.4658 66.0666C56.3134 64.4425 54.5804 62.9998 52.5095 62.8875C53.5059 60.447 53.5926 57.5313 52.4835 55.1167C53.3586 54.7107 54.1861 54.2053 54.953 53.6178C55.6592 57.2851 58.6832 60.3908 62.3874 61.0647C62.4524 72.3429 62.4047 83.6211 62.4524 94.895C55.6245 95.301 48.8096 97.6983 43.6757 102.299C40.1058 105.439 37.7359 109.719 36.5055 114.272C36.3972 114.043 36.3236 113.801 36.2846 113.56C35.639 108.726 34.9328 103.897 34.5169 99.0331C36.7698 97.6076 38.4248 95.2146 38.6371 92.5279C40.578 94.5278 43.6064 95.3053 46.2881 94.571V94.5753ZM59.3244 112.182C55.5638 119.978 47.4406 125.244 38.9187 126.268C40.1707 124.173 41.6871 122.263 43.1601 120.324C46.9207 115.564 50.6639 110.786 54.6194 106.178C57.0629 103.344 59.424 100.433 62.0711 97.7847C62.3008 102.705 61.5686 107.754 59.3244 112.186V112.182ZM41.3968 107.296C45.7249 101.072 53.1074 97.5904 60.5115 96.7092C53.6619 104.515 47.107 112.575 40.6863 120.739C39.7375 122.013 38.7497 123.257 37.8356 124.561C36.8391 118.639 37.9699 112.29 41.3968 107.301V107.296ZM56.6426 43.2338C53.6662 40.9358 51.5434 37.4975 51.0408 33.7611C49.9404 26.6771 55.0223 19.1742 62.1145 17.7746C65.1558 17.0878 68.3922 17.5241 71.2212 18.794C75.3284 20.6428 78.3307 24.6038 79.2102 28.9837C80.0594 33.0829 78.9329 37.5104 76.2858 40.7457C74.3882 43.0048 71.8841 44.8536 68.99 45.5879C64.8006 46.8621 60.1042 45.8514 56.6426 43.2381V43.2338ZM93.8278 84.9947C93.3123 86.5756 92.7447 88.1479 92.0429 89.6598C90.8514 92.2903 87.6368 93.8324 84.8337 93.0074C80.9475 92.1694 78.3481 88.027 78.8116 84.174C79.0153 82.9084 79.6998 81.5693 80.9692 81.0942C83.2784 80.0964 85.5745 79.077 87.8447 77.9885C89.1098 80.8307 91.25 83.2583 93.8235 84.9904H93.8278V84.9947ZM90.1842 66.7794C91.9259 63.8162 94.9109 61.6089 98.2686 60.8401C100.868 60.2353 103.675 60.4297 106.123 61.5053C109.823 63.0603 112.587 66.5331 113.449 70.4207C114.169 73.6949 113.445 77.2542 111.513 79.9927C109.819 82.4246 107.271 84.2647 104.416 85.0811C100.513 86.148 96.1673 85.0552 93.1 82.4678C90.8948 80.645 89.3178 78.0705 88.7762 75.2629C88.2693 72.3818 88.7589 69.3322 90.1886 66.7794H90.1842ZM87.3855 76.5501C84.8554 77.5436 82.4335 78.7876 79.8774 79.7249C78.686 80.1785 77.3819 79.6687 76.3595 79.0381C74.4186 77.6861 73.5911 75.2672 73.3571 73.0081C73.1058 70.2652 73.864 67.207 76.0822 65.4058C76.9574 64.6498 78.1358 64.503 79.2319 64.3302C82.0999 65.652 84.864 67.1897 87.7581 68.4553C86.9523 71.0773 86.8786 73.8547 87.3812 76.5458L87.3855 76.5501ZM78.2008 62.8875C75.6706 63.2244 73.5824 65.138 72.6683 67.4618C71.2819 70.9304 71.4595 75.1246 73.5391 78.2952C74.5745 79.9582 76.3162 81.0726 78.2268 81.47C76.7147 83.8155 77.1133 86.878 78.2008 89.3142C79.7214 92.8519 83.6899 95.3529 87.5718 94.692C89.2918 94.4717 90.7605 93.4696 92.0688 92.3983C92.3245 95.2535 94.0358 97.923 96.6136 99.2318C95.9507 104.247 95.3961 109.27 94.5947 114.268C93.3123 110.367 91.4407 106.571 88.5336 103.607C83.3434 98.0914 75.7183 95.3356 68.2535 94.9814C68.2232 83.7032 68.2838 72.4249 68.2622 61.1467C70.6883 60.5161 73.0019 59.1123 74.3102 56.9352C74.9644 55.9245 75.259 54.7452 75.61 53.6135C76.3855 54.2399 77.265 54.7236 78.1964 55.0951C77.3603 57.6047 77.1047 60.4254 78.1964 62.9048V62.8875H78.2008ZM70.1728 96.7265C75.6793 97.3441 81.1468 99.2706 85.4186 102.877C90.6175 107.106 93.7022 113.832 93.4552 120.523C93.3946 121.818 93.1693 123.101 93.0003 124.384C85.8432 114.812 78.1878 105.599 70.1728 96.7308V96.7265ZM91.9822 126.181C82.9751 125.512 74.4229 119.611 70.9396 111.24C69.2456 106.92 68.4355 102.26 68.5351 97.6206C73.3181 102.48 77.6549 107.745 81.9656 113.02C83.339 114.635 84.6604 116.294 85.9471 117.983C87.9964 120.682 90.2146 123.278 91.9779 126.181H91.9822ZM108.562 92.489C108.315 95.2405 106.167 97.599 103.528 98.3247C99.8369 99.4175 95.0582 97.6811 93.9578 93.746C92.8573 91.0118 94.4777 88.3553 95.2402 85.7852C98.9098 87.4352 103.225 87.5086 106.907 85.8586C107.696 87.9881 108.922 90.1349 108.562 92.4847V92.489ZM120.165 91.8065C118.544 93.0074 116.408 93.5948 114.424 93.1283C112.557 92.7309 110.837 91.4437 110.113 89.6554C109.477 88.1609 108.939 86.6231 108.38 85.0984C110.971 83.4051 113.072 80.9732 114.333 78.1526C116.781 79.2066 119.281 80.1569 121.655 81.3706C123.054 82.0358 123.587 83.6945 123.57 85.1372C123.501 87.703 122.279 90.299 120.165 91.8065ZM127.148 66.0494C129.926 69.4013 129.787 74.6495 127.131 78.0273C126.018 79.2843 124.241 80.2303 122.539 79.8459C119.939 78.8481 117.405 77.6861 114.866 76.5371C115.46 73.8979 115.278 71.1593 114.619 68.5547C117.21 67.2934 119.783 65.9932 122.37 64.7233C124.016 63.8551 125.996 64.7881 127.148 66.0537V66.0494ZM114.398 51.3674C116.824 50.9052 119.467 51.7518 121.148 53.566C123.154 55.6653 124.007 58.9352 122.92 61.678C122.547 62.6586 121.642 63.2935 120.723 63.7298C118.475 64.8442 116.244 66.0019 113.913 66.9521C112.535 64.2654 110.399 61.9242 107.722 60.4859C108.246 58.6717 108.974 56.9223 109.658 55.1685C110.443 53.2032 112.284 51.6827 114.394 51.3674H114.398ZM95.955 47.9031C97.7053 46.4604 100.101 46.1192 102.298 46.3697C104.481 46.6073 106.639 47.739 107.783 49.6525C108.393 50.8318 108.606 52.2054 108.523 53.5185C107.835 55.648 106.916 57.6955 106.193 59.8077C102.995 58.5378 99.3603 58.6501 96.1413 59.7904C95.4265 57.6652 94.3434 55.6739 93.7412 53.5185C93.6459 51.4667 94.2784 49.2206 95.955 47.9031ZM92.8747 55.959C93.4639 57.4708 94.1527 58.9524 94.5687 60.5247C91.9215 61.9631 89.6817 64.2093 88.4253 66.9521C86.779 66.382 85.2626 65.5051 83.6899 64.7578C82.4509 64.1056 81.0992 63.5829 80.0464 62.637C79.0023 61.475 78.9026 59.7991 79.0499 58.3218C79.2882 55.9072 80.7569 53.7172 82.7758 52.4084C85.02 51.0607 88.044 50.9441 90.2709 52.3868C91.536 53.2205 92.3331 54.5768 92.8747 55.959ZM90.8948 44.9141C90.7128 46.711 90.0283 48.482 88.9322 49.9247C86.9956 49.7346 84.942 49.5791 83.1311 50.443C81.4457 51.1082 80.12 52.3825 78.9763 53.7474C77.7719 53.3155 76.4635 52.6719 75.8526 51.497C75.1117 49.3804 74.4619 47.2379 73.5781 45.1775C76.6498 43.2467 79.0239 40.262 80.1807 36.8323C82.9794 38.1324 85.7738 39.4499 88.6246 40.6421C90.3445 41.2511 91.0637 43.2295 90.8948 44.9184V44.9141ZM94.7593 23.4202C96.6006 25.9126 97.0121 29.1781 96.5616 32.1802C96.163 34.4781 95.2229 36.8193 93.3599 38.3139C92.2725 39.1346 90.7735 39.7609 89.4347 39.195C86.9566 38.2102 84.5261 37.1174 82.1086 35.9943C81.6277 35.7351 81.0818 35.5494 80.6919 35.1606C81.2854 32.1499 81.0515 29.014 80.055 26.1113C82.5548 24.6772 85.189 23.5023 87.7711 22.228C88.6419 21.835 89.4694 21.3382 90.3922 21.0661C92.1598 20.9106 93.7412 22.0812 94.7636 23.4245L94.7593 23.4202ZM78.3827 6.87654C80.7309 6.22862 83.1831 7.10547 85.176 8.33221C87.9401 10.0773 90.2406 12.9454 90.4615 16.3017C90.4399 17.5155 90.2406 18.9927 89.1055 19.6882C87.4592 20.6557 85.6872 21.3771 83.9932 22.2583C82.4162 23.0185 80.9172 23.9472 79.2665 24.5519C77.6029 21.4635 75.0771 18.8156 71.8841 17.3038C72.9542 14.656 74.1456 12.0599 75.3067 9.45528C75.8223 8.14215 77.083 7.29553 78.3827 6.87654ZM57.0542 4.9414C58.6355 2.65639 61.4949 1.64563 64.1897 1.63267C67.0188 1.51172 70.1771 1.94367 72.261 4.04295C73.3484 5.19194 74.2409 6.80311 73.9463 8.42724C72.8805 11.2392 71.5548 13.9389 70.2984 16.6688C66.9278 15.5415 63.2019 15.4939 59.8659 16.7941C58.5619 14.2715 57.4181 11.6669 56.3264 9.04493C55.6072 7.68861 56.27 6.11199 57.0585 4.9414H57.0542ZM39.7158 16.2801C40.1361 12.5696 42.7832 9.35161 46.0975 7.74044C47.7135 6.96293 49.5634 6.45755 51.3614 6.8463C52.7694 7.18323 54.0648 8.09464 54.7104 9.40345C56.0014 12.0124 57.0889 14.7121 58.2716 17.3729C55.2432 19.01 52.7088 21.4937 51.1144 24.5476C47.8348 23.1827 44.7155 21.4678 41.4791 20.0121C40.0061 19.4765 39.5902 17.6796 39.7202 16.2758L39.7158 16.2801ZM36.3712 37.9035C34.0924 35.4587 33.3818 31.9253 33.6591 28.6814C33.9407 26.0378 35.0065 23.2086 37.3287 21.7011C38.1822 21.2302 39.2783 20.6601 40.2271 21.187C43.6583 22.755 47.003 24.5087 50.4083 26.1242C49.3555 29.0701 49.1129 32.2493 49.7411 35.3118C46.8817 36.6681 44.0223 38.0331 41.0762 39.1994C39.4342 39.8905 37.5193 39.1691 36.3712 37.9078V37.9035ZM39.9195 42.3526C40.3397 41.1863 41.5485 40.7069 42.6012 40.2663C45.1747 39.1864 47.6572 37.8733 50.287 36.9446C51.435 40.3786 53.8612 43.4195 56.9719 45.2898C56.3134 47.2207 55.5985 49.1385 54.9746 51.0866C54.602 52.5077 53.0727 53.039 51.9593 53.769C50.5686 52.2745 49.0609 50.8015 47.0636 50.1579C45.2613 49.4711 43.3074 49.6828 41.4575 50.0067C40.1058 47.7692 38.6891 44.9486 39.9195 42.3569V42.3526ZM38.5288 54.3478C40.1881 51.3328 44.4815 50.5683 47.4146 52.0499C49.8061 53.2248 51.5304 55.6826 51.7253 58.3477C51.9029 60.1705 51.4567 62.3821 49.7367 63.3626C47.3279 64.6628 44.8411 65.8075 42.3803 67.0169C40.9116 64.3475 38.8147 61.9588 36.1243 60.4772C36.8131 58.3952 37.5236 56.3003 38.5288 54.3478ZM24.2794 47.8988C26.2507 46.3222 28.9628 46.0458 31.3846 46.4475C33.6548 46.8665 35.9076 48.3956 36.4752 50.7324C36.7611 51.9376 37.164 53.255 36.6268 54.4515C35.964 56.2484 35.2491 58.0237 34.6036 59.8293C31.4062 58.5205 27.7757 58.6544 24.5437 59.7688C23.7855 57.6739 22.854 55.6437 22.1435 53.5315C21.8533 51.4667 22.5898 49.1947 24.2794 47.8945V47.8988ZM11.7457 51.9548C13.535 51.2335 15.6102 50.9354 17.4472 51.6568C19.0025 52.2226 20.2546 53.4839 20.8871 55.0044C21.641 56.8229 22.4728 58.6198 22.9494 60.5377C20.2676 61.9718 18.0667 64.2741 16.754 67.0126C14.1805 65.7902 11.5897 64.5807 9.08994 63.2115C7.85953 62.6326 7.39596 61.2029 7.30931 59.9373C7.04503 56.7365 8.75634 53.3068 11.75 51.9548H11.7457ZM3.20217 77.6343C1.6425 75.3924 1.27858 72.4854 1.75081 69.8419C2.17105 67.7772 3.31048 65.6131 5.36838 64.7967C6.29552 64.4727 7.38729 64.0581 8.2971 64.6542C10.8836 65.9803 13.509 67.2459 16.1475 68.464C15.3373 71.0902 15.242 73.8763 15.7619 76.5674C13.1061 77.5954 10.5846 78.9388 7.88119 79.8545C6.06157 80.1785 4.22896 79.0943 3.20217 77.6343ZM18.7599 91.8368C17.1656 93.2061 14.8564 93.651 12.8548 93.003C8.97296 91.9966 6.42983 87.6944 7.188 83.8198C7.44795 82.7529 8.01549 81.6212 9.10293 81.2065C11.2345 80.2389 13.4007 79.3362 15.5236 78.3383C15.8572 78.1958 16.4334 77.9193 16.5374 78.4982C17.7158 81.1849 19.778 83.4526 22.2475 85.0293C21.2857 87.3704 20.8958 90.1997 18.7642 91.8368H18.7599ZM26.8009 98.1303C24.5307 97.3917 22.6634 95.4781 22.2562 93.1024C21.5543 90.5668 22.9234 88.1652 23.6685 85.8111C27.3294 87.4179 31.6229 87.5259 35.2794 85.8413C35.899 87.0162 36.2759 88.2905 36.7525 89.5215C37.8832 92.4242 36.5055 96.0181 33.8151 97.5515C31.7528 98.8732 29.0754 98.8603 26.8009 98.1303ZM22.2518 148.422C16.4854 146.88 11.4641 143.088 8.08048 138.224C4.6752 133.425 2.79059 127.65 2.26204 121.818C2.1104 121.235 2.39634 120.363 1.70315 120.065C1.78114 120.073 1.94144 120.091 2.01942 120.095C6.51214 123.65 10.9659 127.265 15.359 130.95C21.9702 136.66 28.8458 142.051 35.4441 147.779C31.3153 149.558 26.5626 149.498 22.2562 148.427L22.2518 148.422ZM26.4456 138.029C18.7729 131.658 11.1088 125.274 3.45345 118.885C10.2337 118.112 17.2479 119.922 22.854 123.788C28.1309 127.429 32.1428 132.816 34.2353 138.855C34.9285 141.196 35.5524 143.567 35.99 145.973C32.8143 143.321 29.6733 140.617 26.4413 138.029H26.4456ZM30.1455 100.212C31.1246 100.1 32.0951 99.9358 33.0439 99.6551C33.7891 107.4 34.8592 115.106 35.9813 122.808C37.7619 134.375 40.2141 145.865 43.6887 157.053C42.7009 157.053 41.7131 157.048 40.7253 157.035C35.2274 138.526 32.2597 119.374 30.1455 100.217V100.212ZM17.2566 175.013C16.0911 171.16 15.333 167.195 14.5358 163.251C14.1459 161.515 14.8044 159.264 16.6803 158.711C16.7887 158.694 17.0139 158.655 17.1222 158.634C48.8096 158.629 80.5013 158.629 112.193 158.625C113.371 158.586 114.675 159.212 115.057 160.392C115.39 161.286 115.087 162.232 114.792 163.091C113.09 168.154 111.3 173.182 109.55 178.227C109.277 179.354 107.895 178.991 107.05 179.112C78.9026 179.112 50.7549 179.13 22.6071 179.104C20.09 179.315 17.9021 177.341 17.2566 175.013ZM106.881 180.827C106.89 180.793 106.894 180.762 106.903 180.728C108.359 180.698 110.434 180.65 110.924 178.939C112.769 173.838 114.545 168.707 116.335 163.584C116.881 162.188 117.024 160.556 116.261 159.212C115.49 157.739 113.753 157.035 112.154 157.061C105.131 157.031 98.1039 157.104 91.0811 157.031C91.8349 154.362 92.6191 151.701 93.3729 149.031C97.4324 150.457 101.791 151.161 106.08 150.496C109.386 149.96 112.505 148.608 115.377 146.919C119.224 144.5 122.353 141.066 124.727 137.226C128.232 131.403 129.913 124.574 129.822 117.801C123.574 116.302 116.807 117.21 111.041 119.996C105.421 122.76 100.595 127.153 97.4541 132.565C99.421 121.801 101.215 110.994 102.506 100.13C106.483 99.8192 109.81 96.4068 110.191 92.4717C111.786 94.2643 114.277 95.0591 116.634 94.8475C120.654 94.5019 124.042 91.1629 124.891 87.3013C125.325 85.3403 125.255 83.1028 124.033 81.4182C126.897 81.159 129.029 78.7314 129.96 76.17C131.208 72.8958 130.935 69.0341 129.063 66.0494C127.967 64.395 126.226 62.9912 124.172 62.8616C125.862 59.1382 124.74 54.3997 121.599 51.7777C118.371 48.9873 113.094 48.901 109.975 51.9073C109.836 48.7627 107.38 46.0976 104.429 45.2207C101.306 44.2748 97.6014 44.508 94.9846 46.603C93.2559 47.9204 92.4891 50.1191 92.2421 52.2054C91.7353 51.6006 91.1244 51.0996 90.4659 50.6763C91.146 49.4625 91.7439 48.1969 92.1598 46.8708C92.749 44.8752 92.5368 42.642 91.406 40.8753C94.4084 40.3613 96.4446 37.7178 97.4281 35.0138C98.8664 30.988 98.6065 26.2063 96.137 22.6298C95.0062 21.105 93.4162 19.7918 91.484 19.4895C92.3548 17.2174 92.0645 14.6171 91.0334 12.4487C89.2528 8.70369 85.5615 5.99536 81.5021 5.22217C79.3748 4.8507 77.1437 5.35176 75.3804 6.59145C74.7392 3.23088 71.5895 0.855158 68.3228 0.293623C64.9435 -0.272231 61.235 -0.129688 58.224 1.65858C56.4996 2.81621 54.979 4.54401 54.6714 6.66057C52.4965 5.10987 49.5894 4.75999 47.081 5.64116C43.3637 6.94133 40.0278 9.76629 38.7454 13.5588C37.9959 15.4637 38.0479 17.5543 38.6067 19.5024C36.2152 20.0381 34.2527 21.8566 33.2822 24.0682C31.3456 28.3488 31.7139 33.584 34.14 37.5925C35.1755 39.3419 36.9474 40.5859 38.949 40.9574C36.8521 43.9983 38.3598 47.9334 40.0798 50.7756C39.4732 51.1428 38.9057 51.5661 38.4118 52.0758C38.1605 50.6935 37.7576 49.3156 36.9518 48.1494C35.834 46.4777 33.9667 45.4281 32.0301 44.9961C29.0927 44.3828 25.7741 44.6938 23.3783 46.6375C21.7796 47.86 20.8351 49.7692 20.6055 51.7432C18.0581 49.5575 14.3018 49.0651 11.2475 50.4473C6.63345 52.3782 4.58421 58.3261 6.43849 62.84C3.78705 63.1985 1.65983 65.2546 0.767349 67.7037C-0.489054 71.0773 -0.207446 75.0685 1.67716 78.1569C2.70828 79.9063 4.5149 81.1115 6.50781 81.4916C4.91348 84.1049 5.47236 87.5086 6.84574 90.1003C8.6047 93.3659 12.5082 95.409 16.2038 94.7265C17.8544 94.4328 19.2711 93.4696 20.5362 92.4199C20.7485 93.962 21.2381 95.4954 22.1912 96.7481C23.7292 98.7307 26.1294 99.9618 28.6162 100.221C29.0104 104.031 29.513 107.823 29.9852 111.624C30.804 118.557 32.0561 125.434 33.2215 132.319C29.8856 127.425 25.6095 122.998 20.2329 120.354C14.2239 117.356 7.13601 116.207 0.559393 117.81C0.42942 126.069 2.86858 134.539 8.20612 140.954C10.9442 144.34 14.4491 147.165 18.5086 148.815C24.2837 151.347 31.1333 151.502 36.9388 148.958C37.5756 151.67 38.3685 154.349 39.144 157.027C31.9218 157.091 24.7083 157.057 17.4862 157.044C15.5019 157.044 13.6303 158.474 13.1278 160.392C12.6079 161.839 12.9675 163.376 13.2577 164.832C13.9856 168.409 14.7091 171.994 15.7619 175.493C16.3944 177.639 17.9281 179.618 20.0856 180.391C20.6705 180.676 21.3767 180.602 21.9702 180.823C22.0915 180.866 22.2085 180.922 22.3168 181L47.7915 180.87C67.0448 180.888 86.0468 180.689 105.304 180.732C105.296 180.762 105.291 180.793 105.283 180.823" fill="#020400"/>
</g>
<defs>
<clipPath id="clip0_1718_9124">
<rect width="130.722" height="181" fill="white"/>
</clipPath>
</defs>
</svg>
