<svg width="372" height="389" viewBox="0 0 372 389" fill="none" xmlns="http://www.w3.org/2000/svg">
<path d="M161.962 380.651C161.962 380.651 161.917 380.651 161.894 380.651C161.261 380.606 160.808 380.062 160.831 379.451C168.684 262.377 74.3774 167.709 73.4269 166.758C72.9742 166.328 72.9742 165.604 73.4269 165.151C73.8569 164.699 74.5811 164.699 75.0337 165.151C75.9843 166.102 171.038 261.472 163.116 379.587C163.071 380.176 162.573 380.651 161.985 380.651H161.962Z" fill="#261D2A"/>
<path d="M73.155 173.481C73.155 173.481 37.6006 120.658 48.4186 115.068C59.2365 109.478 89.8799 98.6826 98.2989 114.117C106.718 129.552 100.381 173.096 100.381 173.096C100.381 173.096 131.364 128.285 141.593 136.274C151.823 144.24 169.521 180.519 160.242 186.177C150.963 191.835 110 196.158 110 196.158C110 196.158 152.389 229.63 147.5 238.501C142.612 247.373 116.472 258.35 108.936 258.033C101.399 257.716 88.4541 205.844 88.4541 205.844C88.4541 205.844 68.6061 247.305 60.8887 251.515C53.1712 255.724 28.48 232.051 27.3484 222.931C26.2168 213.81 66.2976 194.347 66.2976 194.347C66.2976 194.347 8.49619 198.76 2.20457 189.753C-3.54389 181.537 6.95723 141.321 18.9521 143.335C30.9469 145.349 73.2003 173.503 73.2003 173.503L73.155 173.481Z" fill="white" stroke="black" stroke-miterlimit="10"/>
<path d="M55.7058 192.785C50.3874 192.785 45.2047 191.925 42.1268 189.232C40.022 187.376 39.6147 185.136 40.9952 183.076C41.9457 181.65 43.7336 180.406 45.7931 179.478C44.5031 178.007 43.5752 176.355 43.3489 174.748C43.1452 173.322 43.3489 170.719 47.0152 169.293C57.1995 165.31 74.6712 181.379 75.4181 182.058C75.8707 182.488 75.8933 183.189 75.486 183.665C75.056 184.117 74.3544 184.162 73.8791 183.732C73.6981 183.574 56.7243 167.936 47.8526 171.421C45.5668 172.303 45.4763 173.571 45.5894 174.453C45.7705 175.811 46.7663 177.328 48.0563 178.618C51.1795 177.599 54.4611 177.35 56.1811 178.188C57.5616 178.867 58.0595 180.202 57.539 181.741C56.9506 183.461 55.5021 184.344 53.5332 184.162C51.7 183.981 49.4368 182.827 47.5131 181.198C45.5216 181.967 43.7336 183.076 42.8736 184.366C42.3757 185.113 42.0136 186.154 43.6205 187.58C50.7947 193.894 73.1096 188.281 73.3359 188.236C73.947 188.078 74.5581 188.44 74.7165 189.051C74.8749 189.662 74.5128 190.273 73.9017 190.431C73.3133 190.59 64.3512 192.83 55.7058 192.83V192.785ZM50.1611 180.36C51.4058 181.22 52.7184 181.786 53.7595 181.899C54.8911 182.012 55.2306 181.515 55.389 181.017C55.5927 180.451 55.389 180.36 55.1627 180.225C54.2348 179.772 52.2658 179.862 50.1611 180.36Z" fill="#261D2A"/>
<path d="M79.0172 179.636C78.5872 179.636 78.2024 179.41 77.9987 179.002C77.5687 178.097 67.3845 156.823 70.5982 148.947C71.1866 147.521 72.1598 146.548 73.4724 146.073C76.8219 144.874 80.3524 146.594 83.3398 150.78C84.9919 146.888 87.7757 143.402 90.7857 143.108C92.2794 142.995 94.4294 143.561 96.1494 147.137C101.966 159.222 91.193 175.472 90.7178 176.151C90.3557 176.671 89.6767 176.807 89.1562 176.467C88.6357 176.128 88.4999 175.426 88.8393 174.906C88.9525 174.747 99.3405 159.041 94.1125 148.132C93.1846 146.186 92.1436 145.258 91.012 145.371C88.9072 145.575 86.2367 149.038 84.8562 153.202C86.6214 156.461 88.0699 160.874 86.5083 162.345C86.1009 162.73 85.173 163.25 83.6567 162.164C81.7556 160.829 81.2803 157.751 82.3214 153.768C82.344 153.655 82.3667 153.564 82.4119 153.451C81.7556 152.365 81.0088 151.324 80.1261 150.396C78.1119 148.246 76.1203 147.521 74.2419 148.178C73.5403 148.427 73.0198 148.97 72.6803 149.785C70.3266 155.533 77.184 172.099 80.0356 178.006C80.3072 178.572 80.0809 179.251 79.5151 179.523C79.3566 179.591 79.1982 179.636 79.0172 179.636ZM84.064 156.846C83.9283 158.52 84.2451 159.788 84.9467 160.308C84.9467 159.584 84.6298 158.317 84.064 156.846Z" fill="#261D2A"/>
<path d="M108.392 188.69C104.205 188.69 100.63 188.531 99.0907 188.441C98.457 188.418 97.9817 187.875 98.027 187.241C98.0496 186.607 98.5928 186.132 99.2265 186.177C112.262 186.856 126.588 186.087 127.969 183.575C128.014 183.507 128.127 183.303 127.72 182.737C126.113 180.474 124.37 179.275 122.56 179.184L122.401 179.365C120.998 180.791 115.544 185.385 113.869 183.869C113.575 183.597 113.009 182.828 114.118 181.561C115.838 179.592 118.441 177.328 121.519 176.989C122.311 176.061 122.945 175.088 123.284 174.092C123.85 172.44 123.533 171.037 122.311 169.769C121.519 168.955 120.5 168.547 119.165 168.525C119.142 168.525 119.097 168.525 119.074 168.525C111.063 168.525 97.3254 181.832 97.1896 181.968C96.737 182.398 96.0354 182.398 95.5828 181.968C95.1528 181.515 95.1528 180.814 95.5828 180.361C96.1712 179.795 110.135 166.284 119.052 166.284C119.097 166.284 119.142 166.284 119.165 166.284C121.089 166.307 122.696 166.963 123.895 168.208C126.339 170.72 126.407 173.934 124.167 177.238C126.113 177.804 127.923 179.23 129.553 181.493C130.571 182.896 130.322 184.027 129.938 184.729C128.105 188.079 116.947 188.757 108.392 188.757V188.69Z" fill="#261D2A"/>
<path d="M68.5608 224.809C68.5608 224.809 68.425 224.809 68.3344 224.809C65.1434 224.673 63.0612 222.931 62.6086 220.011C62.4728 219.197 62.4954 218.337 62.6086 217.477C59.3723 218.065 56.8601 216.617 55.6154 213.335C54.8007 211.162 54.9138 209.012 56.0228 206.93C60.0739 199.167 76.5724 195.003 77.2513 194.845C77.8624 194.686 78.4735 195.071 78.6319 195.682C78.7903 196.293 78.4056 196.904 77.7945 197.063C77.6361 197.108 61.6128 201.136 58.0144 208.016C57.2223 209.51 57.1317 211.004 57.7202 212.565C58.5123 214.648 59.7796 215.553 61.7033 215.372C62.2012 215.327 62.7444 215.191 63.2649 215.032C64.5097 211.728 67.1576 208.65 70.145 207.564C72.295 206.772 72.9287 207.79 73.1097 208.265C73.8792 210.37 69.1039 214.919 65.0755 216.752C64.8039 217.816 64.6907 218.834 64.8491 219.74C65.1207 221.55 66.3428 222.523 68.4476 222.614C73.7887 222.795 80.1029 208.469 82.7508 199.371C82.9319 198.783 83.543 198.443 84.154 198.602C84.7424 198.783 85.1045 199.394 84.9235 200.005C84.1766 202.562 77.4324 224.877 68.5608 224.877V224.809ZM70.2581 209.895C68.8776 210.574 67.6555 211.751 66.7276 213.109C68.2213 212.045 69.5113 210.823 70.2581 209.895Z" fill="#261D2A"/>
<path d="M102.011 232.278C102.011 232.278 101.898 232.278 101.853 232.278C100.11 232.21 95.4251 228.996 89.903 200.888C89.7898 200.277 90.1746 199.688 90.7856 199.552C91.3967 199.417 91.9851 199.824 92.1209 200.435C95.2667 216.368 99.7704 229.902 101.943 229.992C103.618 230.128 106.13 227.593 107.646 224.47C107.646 224.447 107.669 224.402 107.692 224.379C105.926 223.565 104.614 222.478 104.478 221.279C104.41 220.623 104.591 219.468 106.605 218.835C108.574 218.246 109.615 218.835 110.136 219.446C110.951 220.396 110.905 221.777 110.566 223.067C112.173 223.565 114.096 223.904 115.975 223.814C118.781 223.678 120.456 222.592 120.976 220.645C122.447 214.987 106.379 204.011 95.923 198.444C95.3799 198.149 95.1536 197.47 95.4478 196.905C95.742 196.339 96.4209 196.158 96.9867 196.429C99.9289 197.991 125.593 211.955 123.172 221.211C122.289 224.628 119.03 226.371 114.209 226.054C112.852 225.964 111.267 225.647 109.796 225.194C109.751 225.285 109.706 225.375 109.661 225.466C108.054 228.77 104.998 232.255 101.988 232.255L102.011 232.278ZM106.832 221.188C107.08 221.483 107.646 221.867 108.438 222.252C108.597 221.505 108.529 221.053 108.416 220.917C108.371 220.872 108.076 220.758 107.262 221.007C107.058 221.075 106.922 221.121 106.832 221.166V221.188Z" fill="#261D2A"/>
<path d="M76.12 174.952C76.12 174.952 95.6964 170.448 99.9286 178.233C104.161 186.018 109.072 205.21 85.5574 203.852C62.0431 202.494 67.6105 178.392 76.12 174.952Z" fill="white" stroke="black" stroke-width="0.2" stroke-miterlimit="10"/>
<path d="M148.565 283.878C148.271 283.878 147.999 283.764 147.795 283.561C147.546 283.334 147.411 282.995 147.456 282.633C147.479 282.271 148.248 273.444 152.095 263.102C157.21 249.319 165.403 239.519 175.768 234.789C176.062 234.654 176.379 234.654 176.673 234.789C176.968 234.903 177.194 235.151 177.307 235.446C177.601 236.215 184.278 254.343 175.859 268.533C170.902 276.884 161.782 282.022 148.769 283.855C148.723 283.855 148.655 283.855 148.61 283.855L148.565 283.878ZM175.542 237.415C155.49 247.486 150.715 274.825 149.855 281.388C161.397 279.51 169.477 274.78 173.867 267.379C180.566 256.086 176.854 241.579 175.542 237.415Z" fill="#261D2A"/>
<path d="M131.5 316.31C106.763 316.31 97.0994 287.975 96.9862 287.703C96.873 287.432 96.9183 287.07 97.0767 286.798C97.2351 286.526 97.4841 286.323 97.7783 286.232C101.06 285.395 104.5 284.965 107.985 284.965C132.971 284.965 154.471 306.239 155.376 307.144C155.625 307.393 155.738 307.732 155.693 308.094C155.648 308.434 155.444 308.751 155.15 308.932C146.776 313.82 138.81 316.31 131.5 316.31ZM99.5888 288.133C101.648 293.316 111.199 314.024 131.5 314.024C138.04 314.024 145.147 311.897 152.683 307.71C148.021 303.432 128.965 287.228 107.985 287.228C105.111 287.228 102.305 287.522 99.5662 288.133H99.5888Z" fill="#261D2A"/>
<path d="M148.564 283.879C148.247 283.879 147.908 283.743 147.681 283.471C147.297 282.996 147.365 282.272 147.84 281.887C147.976 281.774 161.577 270.503 168.095 252.692C168.322 252.104 168.955 251.809 169.544 252.013C170.132 252.239 170.426 252.873 170.223 253.462C163.478 271.884 149.854 283.154 149.266 283.63C149.062 283.811 148.79 283.879 148.541 283.879H148.564Z" fill="#261D2A"/>
<path d="M150.624 309.498C134.962 309.498 110.316 293.972 109.185 293.248C108.664 292.908 108.506 292.207 108.845 291.686C109.185 291.166 109.864 291.007 110.407 291.347C110.701 291.528 140.281 310.176 154.335 306.85C154.924 306.691 155.557 307.076 155.693 307.687C155.829 308.298 155.467 308.909 154.856 309.045C153.543 309.362 152.14 309.498 150.646 309.498H150.624Z" fill="#261D2A"/>
<path d="M208.018 368.068C208.018 368.068 207.905 368.068 207.837 368.068C207.226 367.978 206.796 367.389 206.887 366.778C207.158 364.99 234.701 187.512 197.947 115.114C197.676 114.548 197.879 113.869 198.445 113.597C199.011 113.326 199.69 113.529 199.962 114.095C237.032 187.128 209.399 365.33 209.127 367.118C209.037 367.684 208.562 368.068 208.018 368.068Z" fill="#261D2A"/>
<path d="M192.605 62.8115C192.605 62.8115 192.605 -0.851567 204.691 0.528968C216.776 1.93214 248.234 10.0796 246.582 27.5965C244.93 45.1135 215.373 77.6805 215.373 77.6805C215.373 77.6805 266.091 57.8099 270.142 70.1442C274.193 82.4785 268.603 122.446 257.74 121.948C246.876 121.45 210.485 102.168 210.485 102.168C210.485 102.168 226.96 153.61 217.953 158.227C208.946 162.844 181.131 157.367 175.043 152.886C168.955 148.405 187.196 98.1623 187.196 98.1623C187.196 98.1623 147.591 121.473 138.832 120.636C130.074 119.798 122.809 86.3938 126.973 78.2011C131.138 70.0084 175.247 76.2321 175.247 76.2321C175.247 76.2321 124.823 47.6256 124.642 36.6266C124.461 26.6007 155.648 -0.896831 164.474 7.47691C173.301 15.8507 192.628 62.7889 192.628 62.7889L192.605 62.8115Z" fill="white" stroke="black" stroke-miterlimit="10"/>
<path d="M184.141 77.3185C184.005 77.3185 183.892 77.3185 183.756 77.2506C182.829 76.9111 160.763 68.9447 158.047 58.5568C157.345 55.841 158.251 53.7588 160.559 52.8083C162.143 52.152 164.316 52.1294 166.534 52.4915C166.285 50.5678 166.443 48.6667 167.145 47.2183C167.778 45.9283 169.385 43.8914 173.233 44.7288C183.915 47.1277 189.437 70.1895 189.663 71.1853C189.799 71.7963 189.437 72.4074 188.826 72.5432C188.192 72.7016 187.604 72.3169 187.468 71.7058C187.423 71.4795 182.059 49.0288 172.735 46.9467C170.359 46.4035 169.566 47.422 169.182 48.2141C168.571 49.4588 168.548 51.2467 168.887 53.0573C172.056 53.9852 174.907 55.592 175.858 57.2441C176.628 58.5794 176.311 59.9599 175.021 60.9557C173.572 62.0647 171.875 61.9742 170.359 60.7294C168.933 59.5526 167.711 57.3347 167.009 54.9131C164.927 54.4604 162.822 54.3473 161.396 54.9357C160.559 55.2752 159.676 55.9315 160.219 58.0136C162.641 67.2474 184.3 75.0779 184.503 75.1458C185.092 75.3495 185.409 76.0058 185.182 76.5943C185.024 77.0695 184.571 77.3411 184.119 77.3411L184.141 77.3185ZM169.68 55.6825C170.245 57.0857 170.992 58.2852 171.807 58.9641C172.69 59.6884 173.233 59.462 173.663 59.1452C174.138 58.7831 174.047 58.602 173.912 58.3531C173.391 57.4478 171.716 56.4294 169.68 55.6825Z" fill="#261D2A"/>
<path d="M205.234 74.9197C204.781 74.9197 204.374 74.6481 204.193 74.2181C203.967 73.6297 204.238 72.9734 204.804 72.7471C204.985 72.6792 222.389 65.4597 224.132 53.4648C224.448 51.3375 224.086 49.9796 223.091 49.4364C221.235 48.418 217.093 49.8211 213.608 52.4917C213.246 56.1807 212.001 60.6617 209.874 61.0012C209.285 61.0917 208.267 61.0012 207.61 59.2586C206.773 57.0859 208.086 54.2796 211.209 51.5411C211.299 51.4733 211.367 51.4054 211.458 51.3375C211.526 50.0927 211.458 48.7801 211.277 47.5353C210.802 44.6385 209.579 42.9185 207.633 42.4206C206.909 42.2395 206.185 42.3979 205.438 42.8732C200.278 46.3358 196.702 63.8981 195.774 70.3707C195.684 70.9818 195.095 71.3892 194.484 71.3213C193.873 71.2308 193.443 70.665 193.534 70.0313C193.669 69.0355 197.132 45.7022 204.17 40.9721C205.46 40.1121 206.796 39.8405 208.176 40.2026C211.616 41.0627 213.608 44.4574 213.721 49.6174C217.274 47.3316 221.529 45.9737 224.177 47.4222C225.49 48.1464 226.938 49.8211 226.372 53.7591C224.448 67.0212 206.434 74.4897 205.664 74.8066C205.528 74.8745 205.37 74.8971 205.234 74.8971V74.9197ZM210.915 55.0943C209.874 56.407 209.398 57.6291 209.715 58.4438C210.1 57.8328 210.575 56.6107 210.915 55.0943Z" fill="#261D2A"/>
<path d="M231.872 104.137C225.263 104.137 209.172 92.301 205.755 89.7209C205.257 89.3362 205.166 88.6346 205.528 88.1367C205.913 87.6388 206.615 87.5483 207.113 87.9104C217.546 95.7636 229.857 103.096 232.415 101.806C232.483 101.761 232.709 101.648 232.686 100.969C232.619 98.1852 231.849 96.2389 230.378 95.1299C230.31 95.1299 230.22 95.1752 230.152 95.1752C228.183 95.5826 221.076 96.352 220.556 94.1341C220.465 93.7494 220.42 92.7989 222.05 92.3462C224.562 91.6673 228.002 91.2373 230.74 92.6857C231.917 92.3689 233.003 91.8936 233.841 91.2599C235.244 90.2188 235.764 88.8609 235.448 87.1183C235.244 86.0093 234.61 85.0814 233.524 84.3346C226.961 79.7856 207.973 83.1804 207.769 83.203C207.158 83.2935 206.569 82.9088 206.456 82.2977C206.343 81.6867 206.75 81.0983 207.362 80.9851C208.176 80.8267 227.458 77.3866 234.791 82.4788C236.375 83.5877 237.349 85.0135 237.643 86.7109C238.254 90.1736 236.534 92.8441 232.822 94.3604C234.135 95.8994 234.836 98.0947 234.904 100.901C234.95 102.644 234.112 103.436 233.411 103.798C232.981 104.024 232.437 104.115 231.826 104.115L231.872 104.137Z" fill="#261D2A"/>
<path d="M163.841 103.82C162.347 103.82 161.012 103.48 159.948 102.688C157.368 100.787 156.621 98.1844 157.866 95.5139C158.206 94.767 158.703 94.0654 159.292 93.4091C156.259 92.0965 155.015 89.4938 155.807 86.0538C156.327 83.7906 157.64 82.0706 159.722 80.9617C167.439 76.7974 183.417 82.5459 184.096 82.7948C184.685 82.9985 184.979 83.6548 184.775 84.2433C184.572 84.8317 183.915 85.1259 183.327 84.9222C183.168 84.877 167.62 79.2643 160.808 82.9533C159.315 83.768 158.409 84.9449 158.025 86.5743C157.504 88.747 158.07 90.1954 159.767 91.1233C160.22 91.3723 160.718 91.5533 161.261 91.7117C164.135 89.6523 168.05 88.5886 171.151 89.358C173.369 89.9012 173.324 91.1007 173.21 91.5986C172.69 93.7939 166.217 94.9028 161.849 94.156C161.012 94.8802 160.333 95.6723 159.971 96.487C159.179 98.1618 159.654 99.6328 161.351 100.878C165.742 104.091 178.914 95.6723 186.201 89.5844C186.676 89.177 187.401 89.2449 187.785 89.7201C188.193 90.1954 188.125 90.9196 187.649 91.3044C185.884 92.7754 172.373 103.82 163.909 103.82H163.841ZM168.91 91.3496C167.688 91.3496 166.421 91.6438 165.221 92.0965C167.009 92.0512 168.729 91.7344 169.838 91.3949C169.544 91.3496 169.227 91.327 168.91 91.327V91.3496Z" fill="#261D2A"/>
<path d="M203.446 131.884C201.545 131.884 199.441 131.046 197.291 129.371C196.204 128.534 195.073 127.403 194.099 126.18C194.009 126.226 193.918 126.294 193.851 126.339C190.614 128.217 186.02 129.394 183.576 127.606C182.173 126.565 180.09 121.292 191.18 94.9033C191.429 94.3376 192.085 94.0433 192.651 94.2923C193.217 94.5412 193.511 95.1976 193.262 95.7633C186.97 110.746 183.146 124.483 184.911 125.773C186.224 126.746 189.732 126.113 192.719 124.37C192.742 124.37 192.787 124.347 192.809 124.325C191.814 122.65 191.316 121.043 191.859 119.957C192.153 119.391 192.968 118.508 194.982 119.119C196.974 119.73 197.494 120.794 197.585 121.586C197.721 122.831 196.928 123.94 195.91 124.845C196.951 126.158 198.354 127.516 199.984 128.489C202.405 129.937 204.397 129.983 205.913 128.647C210.304 124.777 203.107 106.717 197.517 96.2386C197.223 95.6955 197.426 94.9939 197.992 94.6997C198.535 94.4054 199.237 94.6091 199.531 95.1749C201.093 98.117 214.581 124.03 207.43 130.345C206.275 131.363 204.917 131.861 203.446 131.861V131.884ZM193.873 121.201C193.918 121.586 194.167 122.22 194.62 122.989C195.163 122.446 195.367 122.039 195.344 121.88C195.344 121.812 195.141 121.564 194.326 121.315C194.122 121.247 193.986 121.224 193.873 121.201Z" fill="#261D2A"/>
<path d="M194.236 65.6863C194.236 65.6863 212.975 72.8832 212.16 81.6869C211.345 90.4906 204.669 109.184 185.93 94.9265C167.191 80.6685 185.251 63.7852 194.236 65.6863Z" fill="white" stroke="black" stroke-width="0.2" stroke-miterlimit="10"/>
<path d="M216.46 303.478C216.166 303.478 215.894 303.365 215.69 303.161C215.441 302.935 215.306 302.595 215.351 302.233C215.374 301.871 216.143 293.044 219.99 282.702C225.105 268.919 233.298 259.119 243.663 254.389C243.957 254.254 244.274 254.254 244.568 254.389C244.863 254.503 245.089 254.752 245.202 255.046C245.496 255.815 252.173 273.943 243.754 288.133C238.797 296.484 229.677 301.622 216.664 303.455C216.618 303.455 216.55 303.455 216.505 303.455L216.46 303.478ZM243.437 257.037C223.385 267.108 218.61 294.448 217.75 301.011C229.292 299.132 237.372 294.402 241.762 287.002C248.461 275.709 244.75 261.224 243.437 257.037Z" fill="#261D2A"/>
<path d="M216.46 303.477C216.143 303.477 215.803 303.341 215.577 303.07C215.192 302.595 215.26 301.87 215.735 301.486C215.871 301.372 229.473 290.102 235.991 272.291C236.217 271.702 236.851 271.408 237.439 271.612C238.028 271.838 238.322 272.472 238.118 273.06C231.374 291.482 217.75 302.753 217.161 303.228C216.958 303.409 216.686 303.477 216.437 303.477H216.46Z" fill="#261D2A"/>
<path d="M217.478 231.146C217.478 231.146 217.455 231.146 217.433 231.146C217.003 231.146 174.093 229.766 171.807 178.007C171.807 177.645 171.943 177.305 172.215 177.079C172.486 176.853 172.871 176.762 173.21 176.853C173.64 176.966 215.328 188.033 218.542 229.607C218.587 229.72 218.61 229.856 218.61 230.015C218.61 230.648 218.112 231.146 217.478 231.146ZM174.161 179.5C175.383 199.53 182.942 213.923 196.634 222.252C204.963 227.321 213.155 228.521 216.211 228.792C212.929 194.053 181.426 181.854 174.161 179.5Z" fill="#261D2A"/>
<path d="M210.575 323.235C205.8 323.235 193.805 322.262 185.25 313.255C178.619 306.261 175.609 296.009 176.31 282.77C176.31 282.43 176.492 282.136 176.763 281.932C177.035 281.729 177.374 281.661 177.691 281.729C178.03 281.796 211.752 289.831 213.268 322.013C213.291 322.624 212.838 323.145 212.227 323.19C212.227 323.19 211.616 323.235 210.552 323.235H210.575ZM178.528 284.286C178.121 296.19 180.95 305.401 186.902 311.67C195.095 320.293 206.886 320.995 210.96 320.949C209.036 294.923 184.526 286.051 178.528 284.263V284.286Z" fill="#261D2A"/>
<path d="M212.159 323.19C211.91 323.19 211.661 323.099 211.435 322.941C194.846 309.362 187.31 295.285 187.015 294.674C186.721 294.131 186.925 293.429 187.491 293.158C188.034 292.863 188.735 293.067 189.03 293.633C189.098 293.769 196.679 307.936 212.884 321.198C213.359 321.583 213.449 322.307 213.042 322.782C212.816 323.054 212.499 323.19 212.159 323.19Z" fill="#261D2A"/>
<path d="M217.456 231.147C217.184 231.147 216.913 231.056 216.709 230.852C209.195 224.086 190.954 202.246 190.184 201.318C189.777 200.843 189.845 200.119 190.32 199.734C190.796 199.326 191.52 199.394 191.904 199.87C192.086 200.096 210.802 222.524 218.203 229.178C218.678 229.608 218.7 230.309 218.293 230.785C218.067 231.033 217.75 231.169 217.456 231.169V231.147Z" fill="#261D2A"/>
<path d="M239.702 388.437C239.069 388.437 238.571 387.916 238.594 387.283C239.725 291.89 288.066 209.873 288.542 209.058C288.859 208.515 289.56 208.356 290.103 208.673C290.647 208.99 290.828 209.692 290.488 210.235C290.013 211.049 241.966 292.569 240.857 387.328C240.857 387.939 240.336 388.437 239.725 388.437H239.702Z" fill="#261D2A"/>
<path d="M292.434 190.93C292.434 190.93 291.981 127.267 304.067 128.557C316.152 129.847 347.678 137.791 346.162 155.33C344.645 172.87 315.315 205.641 315.315 205.641C315.315 205.641 365.896 185.408 370.015 197.72C374.134 210.031 368.861 250.021 357.998 249.614C347.135 249.207 310.585 230.173 310.585 230.173C310.585 230.173 327.423 281.502 318.46 286.187C309.498 290.872 281.639 285.599 275.528 281.163C269.417 276.727 287.296 226.349 287.296 226.349C287.296 226.349 247.849 249.931 239.091 249.184C230.332 248.437 222.841 215.055 226.915 206.84C230.989 198.625 275.166 204.532 275.166 204.532C275.166 204.532 224.539 176.287 224.267 165.311C224.018 155.285 255.001 127.561 263.873 135.867C272.744 144.173 292.434 190.975 292.434 190.975V190.93Z" fill="white" stroke="black" stroke-miterlimit="10"/>
<path d="M284.061 205.505C283.947 205.505 283.812 205.505 283.676 205.437C282.725 205.121 260.614 197.29 257.83 186.925C257.106 184.209 257.989 182.127 260.297 181.154C261.881 180.497 264.054 180.429 266.272 180.792C266.023 178.868 266.159 176.967 266.86 175.496C267.472 174.206 269.078 172.146 272.926 172.984C283.631 175.292 289.311 198.331 289.56 199.304C289.696 199.915 289.334 200.526 288.723 200.662C288.112 200.798 287.501 200.436 287.365 199.825C287.32 199.598 281.797 177.193 272.45 175.179C270.074 174.658 269.282 175.654 268.897 176.469C268.309 177.714 268.286 179.501 268.648 181.312C271.817 182.217 274.691 183.802 275.642 185.454C276.411 186.789 276.117 188.169 274.827 189.165C273.378 190.274 271.681 190.206 270.165 188.984C268.739 187.83 267.494 185.612 266.77 183.19C264.688 182.738 262.583 182.67 261.157 183.258C260.32 183.598 259.46 184.277 260.003 186.336C262.493 195.547 284.196 203.22 284.423 203.287C285.011 203.491 285.328 204.147 285.124 204.736C284.966 205.211 284.536 205.483 284.061 205.483V205.505ZM269.44 183.96C270.006 185.363 270.776 186.563 271.591 187.219C272.473 187.943 273.039 187.694 273.446 187.377C273.922 186.993 273.831 186.834 273.695 186.585C273.175 185.68 271.477 184.684 269.44 183.937V183.96Z" fill="#261D2A"/>
<path d="M305.131 202.948C304.678 202.948 304.271 202.676 304.089 202.246C303.841 201.681 304.135 201.002 304.7 200.775C304.882 200.707 322.24 193.352 323.892 181.357C324.186 179.23 323.824 177.872 322.829 177.351C320.973 176.356 316.831 177.781 313.368 180.475C313.029 184.164 311.807 188.645 309.702 189.007C309.136 189.097 308.095 189.007 307.416 187.287C306.579 185.114 307.869 182.285 310.947 179.547C311.037 179.479 311.105 179.411 311.196 179.343C311.264 178.076 311.196 176.786 310.992 175.541C310.494 172.644 309.249 170.924 307.326 170.449C306.579 170.268 305.877 170.449 305.131 170.924C299.993 174.432 296.553 192.017 295.67 198.512C295.58 199.123 294.991 199.553 294.403 199.485C293.792 199.395 293.362 198.829 293.43 198.218C293.566 197.222 296.847 173.866 303.863 169.068C305.131 168.208 306.488 167.937 307.869 168.253C311.309 169.091 313.323 172.486 313.482 177.646C317.012 175.315 321.244 173.934 323.915 175.36C325.227 176.061 326.699 177.736 326.155 181.674C324.322 194.959 306.375 202.541 305.606 202.88C305.47 202.948 305.312 202.971 305.176 202.971L305.131 202.948ZM310.675 183.1C309.634 184.435 309.182 185.657 309.498 186.472C309.883 185.861 310.336 184.639 310.675 183.1Z" fill="#261D2A"/>
<path d="M331.949 231.984C325.318 231.984 309.204 220.306 305.764 217.748C305.266 217.386 305.153 216.662 305.538 216.164C305.9 215.666 306.624 215.553 307.122 215.938C317.623 223.723 330.002 230.965 332.515 229.653C332.605 229.607 332.809 229.494 332.786 228.815C332.696 226.032 331.904 224.085 330.455 222.999C330.387 222.999 330.297 223.044 330.229 223.044C328.26 223.474 321.176 224.266 320.633 222.071C320.542 221.686 320.497 220.736 322.127 220.283C324.639 219.582 328.079 219.129 330.817 220.555C331.971 220.215 333.058 219.763 333.895 219.106C335.276 218.065 335.796 216.685 335.479 214.965C335.276 213.856 334.642 212.95 333.533 212.204C326.925 207.7 307.982 211.23 307.778 211.276C307.167 211.389 306.579 210.982 306.465 210.37C306.352 209.759 306.76 209.171 307.371 209.058C308.186 208.899 327.445 205.324 334.823 210.348C336.43 211.434 337.38 212.86 337.72 214.58C338.376 218.02 336.656 220.736 332.945 222.252C334.257 223.791 334.981 225.986 335.072 228.77C335.14 230.513 334.303 231.305 333.601 231.69C333.171 231.916 332.605 232.029 331.994 232.029L331.949 231.984Z" fill="#261D2A"/>
<path d="M263.895 232.165C262.424 232.165 261.134 231.826 260.048 231.057C257.468 229.178 256.675 226.575 257.92 223.882C258.26 223.135 258.735 222.434 259.323 221.778C256.291 220.465 255.001 217.885 255.793 214.445C256.313 212.182 257.603 210.462 259.663 209.33C267.335 205.098 283.358 210.733 284.037 210.982C284.626 211.186 284.943 211.842 284.716 212.431C284.513 213.019 283.856 213.336 283.268 213.11C283.109 213.042 267.516 207.587 260.727 211.299C259.233 212.114 258.35 213.313 257.966 214.943C257.468 217.115 258.033 218.564 259.731 219.469C260.183 219.718 260.681 219.899 261.224 220.035C264.099 217.953 267.991 216.866 271.092 217.613C273.31 218.156 273.287 219.356 273.174 219.831C272.654 222.026 266.181 223.181 261.79 222.456C260.976 223.181 260.319 223.995 259.957 224.81C259.188 226.485 259.663 227.956 261.36 229.201C265.773 232.392 278.9 223.86 286.119 217.726C286.595 217.319 287.319 217.387 287.726 217.862C288.134 218.337 288.066 219.062 287.59 219.469C285.848 220.963 272.314 232.143 263.872 232.165H263.895ZM268.942 219.627C267.675 219.627 266.385 219.922 265.162 220.42C266.996 220.374 268.738 220.035 269.87 219.673C269.553 219.627 269.259 219.605 268.942 219.605V219.627Z" fill="#261D2A"/>
<path d="M303.704 259.935C301.803 259.935 299.721 259.097 297.571 257.468C296.485 256.63 295.353 255.521 294.38 254.299C294.289 254.345 294.199 254.412 294.131 254.458C290.917 256.359 286.323 257.581 283.856 255.793C282.43 254.775 280.303 249.524 291.234 223.022C291.46 222.434 292.139 222.162 292.705 222.411C293.293 222.637 293.565 223.316 293.316 223.882C287.138 238.887 283.403 252.67 285.169 253.96C286.481 254.91 289.989 254.277 292.954 252.511C292.977 252.511 293.022 252.489 293.045 252.466C292.026 250.814 291.528 249.184 292.071 248.121C292.366 247.532 293.18 246.672 295.195 247.261C297.186 247.849 297.707 248.913 297.82 249.705C297.978 250.95 297.164 252.081 296.19 252.964C297.254 254.254 298.657 255.612 300.287 256.585C302.708 258.011 304.7 258.056 306.216 256.698C310.584 252.783 303.251 234.791 297.594 224.357C297.299 223.814 297.503 223.113 298.046 222.819C298.589 222.524 299.291 222.728 299.585 223.271C301.169 226.191 314.862 252.013 307.733 258.396C306.578 259.437 305.198 259.957 303.704 259.957V259.935ZM294.131 249.32C294.176 249.705 294.448 250.339 294.878 251.108C295.421 250.565 295.602 250.158 295.579 249.977C295.579 249.909 295.376 249.66 294.561 249.411C294.357 249.343 294.221 249.32 294.108 249.32H294.131Z" fill="#261D2A"/>
<path d="M294.063 193.805C294.063 193.805 312.87 200.866 312.101 209.692C311.331 218.518 304.813 237.235 285.961 223.113C267.109 208.991 285.056 191.994 294.063 193.805Z" fill="white" stroke="black" stroke-width="0.2" stroke-miterlimit="10"/>
<path d="M267.879 327.24C261.157 327.24 254.345 324.253 247.624 318.391C247.375 318.188 247.239 317.894 247.239 317.577C247.239 317.26 247.352 316.943 247.578 316.739C248.325 316.015 266.204 298.996 290.103 298.996C293.136 298.996 296.169 299.268 299.133 299.833C299.473 299.901 299.767 300.128 299.925 300.422C300.084 300.739 300.084 301.101 299.925 301.418C299.428 302.481 287.478 327.24 267.856 327.24H267.879ZM250.09 317.509C256.065 322.465 262.04 324.977 267.879 324.977C283.563 324.977 294.449 306.917 297.21 301.78C294.879 301.418 292.502 301.237 290.103 301.237C270.097 301.237 254.028 314.069 250.09 317.509Z" fill="#261D2A"/>
<path d="M252.851 319.094C251.244 319.094 249.66 318.958 248.144 318.619C247.532 318.483 247.148 317.895 247.261 317.283C247.397 316.672 248.008 316.265 248.596 316.401C262.311 319.275 282.25 306.126 282.431 306.013C282.951 305.673 283.653 305.809 283.992 306.33C284.332 306.85 284.196 307.552 283.675 307.891C282.906 308.389 266.702 319.094 252.828 319.094H252.851Z" fill="#261D2A"/>
</svg>
