<svg width="161" height="188" viewBox="0 0 161 188" fill="none" xmlns="http://www.w3.org/2000/svg">
<path d="M82.3633 129.31C82.3633 129.31 79.8633 108.31 56.1133 107.81C56.1133 107.81 63.1133 130.31 82.3633 129.31Z" fill="#2ECC71"/>
<path d="M83.1133 96.0598C83.1133 96.0598 85.6133 75.0598 109.363 74.5598C109.363 74.5598 102.363 97.0598 83.1133 96.0598Z" fill="#2ECC71"/>
<path d="M83.8633 153.81C83.8633 153.81 86.3633 132.81 110.113 132.31C110.113 132.31 103.113 154.81 83.8633 153.81Z" fill="#2ECC71"/>
<path d="M82.3635 129.81C82.2035 129.81 82.0535 129.73 81.9535 129.59C79.7735 126.44 64.4635 114.74 64.3135 114.62C64.0935 114.45 64.0535 114.14 64.2235 113.92C64.3935 113.7 64.7035 113.66 64.9235 113.83C65.5535 114.32 80.5135 125.75 82.7835 129.03C82.9435 129.26 82.8835 129.57 82.6535 129.73C82.5635 129.79 82.4635 129.82 82.3735 129.82L82.3635 129.81Z" fill="#261D2A"/>
<path d="M86.103 186.56C85.853 186.56 85.633 186.37 85.603 186.11C85.523 185.29 77.763 103.65 85.393 40.66C85.423 40.39 85.683 40.19 85.953 40.22C86.223 40.25 86.423 40.5 86.393 40.78C78.773 103.66 86.523 185.19 86.603 186.01C86.633 186.28 86.433 186.53 86.153 186.56C86.133 186.56 86.123 186.56 86.103 186.56Z" fill="#261D2A"/>
<path d="M81.8434 30.8299C81.8434 30.8299 76.0634 10.2099 89.4234 0.899902C89.4234 0.899902 103.873 12.2099 95.9234 28.4999C95.9234 28.4999 100.493 17.5599 117.103 17.8999C117.103 17.8999 121.203 33.4899 98.8134 38.1499C98.8134 38.1499 113.773 30.5699 125.103 45.2299C125.103 45.2299 111.913 53.2199 100.353 47.5599C100.353 47.5599 117.773 52.5599 115.103 67.2299C115.103 67.2299 95.5634 68.0799 92.6734 50.7799C92.6734 50.7799 102.073 70.2399 88.3534 77.5599C88.3534 77.5599 72.7934 68.7799 81.1034 53.8099C81.1034 53.8099 74.2134 71.2199 59.7734 67.8899C59.7734 67.8899 58.7334 47.7799 76.0634 44.4599C76.0634 44.4599 59.1034 55.8899 46.4434 39.8899C46.4434 39.8899 66.6734 26.4999 76.4334 36.4799C76.4334 36.4799 56.4434 31.8899 57.7834 12.5599C57.7834 12.5599 82.4534 11.8899 81.8534 30.8299H81.8434Z" fill="#EDD14E"/>
<path d="M85.9036 54.69C93.619 54.69 99.8736 48.4354 99.8736 40.72C99.8736 33.0046 93.619 26.75 85.9036 26.75C78.1882 26.75 71.9336 33.0046 71.9336 40.72C71.9336 48.4354 78.1882 54.69 85.9036 54.69Z" fill="#D1783B"/>
<path d="M74.1133 44.8098C74.0333 44.8098 73.9633 44.7898 73.8933 44.7598C73.6433 44.6398 73.5433 44.3398 73.6733 44.0898C76.4433 38.5598 89.0133 28.1198 89.5533 27.6798C89.7633 27.4998 90.0833 27.5298 90.2533 27.7498C90.4333 27.9598 90.4033 28.2798 90.1833 28.4498C90.0533 28.5598 77.2333 39.1998 74.5633 44.5398C74.4733 44.7198 74.3033 44.8198 74.1133 44.8198V44.8098Z" fill="#261D2A"/>
<path d="M77.1137 50.31C76.9937 50.31 76.8637 50.27 76.7737 50.18C76.5737 49.99 76.5637 49.68 76.7537 49.47C77.3337 48.85 91.1037 34.14 95.6037 31.38C95.8337 31.23 96.1437 31.31 96.2937 31.55C96.4337 31.79 96.3636 32.09 96.1236 32.24C91.7337 34.92 77.6237 50 77.4737 50.15C77.3737 50.26 77.2437 50.31 77.1037 50.31H77.1137Z" fill="#261D2A"/>
<path d="M83.6132 53.0598C83.5032 53.0598 83.3832 53.0198 83.2932 52.9398C83.0832 52.7598 83.0532 52.4498 83.2232 52.2398C83.6232 51.7598 93.1232 40.3598 99.4232 37.8398C99.6832 37.7398 99.9732 37.8598 100.073 38.1198C100.173 38.3798 100.053 38.6698 99.7932 38.7698C93.7332 41.1898 84.0932 52.7598 83.9932 52.8698C83.8932 52.9898 83.7532 53.0498 83.6132 53.0498V53.0598Z" fill="#261D2A"/>
<path d="M97.8636 44.8099C97.6436 44.8099 97.4436 44.6699 97.3836 44.4399C95.7036 38.4399 82.2136 29.0599 82.0836 28.9699C81.8536 28.8099 81.8036 28.4999 81.9536 28.2699C82.1136 28.0399 82.4236 27.9899 82.6536 28.1399C83.2236 28.5299 96.5736 37.8199 98.3536 44.1699C98.4236 44.4399 98.2736 44.7099 98.0036 44.7899C97.9636 44.7999 97.9136 44.8099 97.8736 44.8099H97.8636Z" fill="#261D2A"/>
<path d="M94.6135 49.5598C94.5035 49.5598 94.4035 49.5298 94.3135 49.4598C89.0835 45.4798 77.7235 32.6898 77.2435 32.1398C77.0635 31.9298 77.0835 31.6198 77.2835 31.4298C77.4935 31.2498 77.8035 31.2598 77.9935 31.4698C78.1135 31.5998 89.7735 44.7298 94.9235 48.6498C95.1435 48.8198 95.1835 49.1298 95.0135 49.3498C94.9135 49.4798 94.7635 49.5498 94.6135 49.5498V49.5598Z" fill="#261D2A"/>
<path d="M89.8631 53.0598C89.8631 53.0598 89.7731 53.0598 89.7331 53.0398C82.1331 51.0098 73.7931 37.8798 73.4431 37.3198C73.2931 37.0898 73.3631 36.7798 73.6031 36.6298C73.8331 36.4798 74.1431 36.5498 74.2931 36.7898C74.3731 36.9198 82.7731 50.1498 90.0031 52.0698C90.2731 52.1398 90.4331 52.4098 90.3531 52.6798C90.2931 52.8998 90.0931 53.0498 89.8731 53.0498L89.8631 53.0598Z" fill="#261D2A"/>
<path d="M75.4434 29.0599C75.3034 29.0599 75.1634 28.9999 75.0634 28.8899C71.9934 25.3399 68.5634 23.3499 68.5234 23.3299C68.2834 23.1899 68.2034 22.8899 68.3334 22.6499C68.4734 22.4099 68.7734 22.3299 69.0134 22.4599C69.1634 22.5399 72.6234 24.5399 75.8134 28.2299C75.9934 28.4399 75.9734 28.7499 75.7634 28.9399C75.6734 29.0199 75.5534 29.0599 75.4334 29.0599H75.4434Z" fill="#261D2A"/>
<path d="M88.4438 25.8998C88.2538 25.8998 88.0738 25.7898 87.9838 25.5998C87.2838 24.0298 88.5338 18.2598 88.7838 17.1198C88.8438 16.8498 89.1138 16.6798 89.3838 16.7398C89.6538 16.7998 89.8238 17.0698 89.7638 17.3398C89.1938 19.8598 88.4638 24.2098 88.8938 25.1898C89.0038 25.4398 88.8938 25.7398 88.6438 25.8498C88.5738 25.8798 88.5138 25.8898 88.4438 25.8898V25.8998Z" fill="#261D2A"/>
<path d="M99.9433 32.4C99.7933 32.4 99.6533 32.33 99.5533 32.21C99.3833 31.99 99.4233 31.68 99.6333 31.51C100.213 31.05 105.393 27.05 108.043 27.58C108.313 27.63 108.493 27.9 108.433 28.17C108.383 28.44 108.103 28.62 107.843 28.56C105.963 28.18 101.733 31.13 100.253 32.3C100.163 32.37 100.053 32.41 99.9433 32.41V32.4Z" fill="#261D2A"/>
<path d="M111.114 44.2299C111.034 44.2299 110.954 44.2099 110.874 44.1699C108.524 42.9199 102.034 43.2299 101.964 43.2299C101.654 43.2499 101.454 43.0299 101.444 42.7599C101.434 42.4799 101.644 42.2499 101.914 42.2399C102.194 42.2299 108.744 41.9199 111.344 43.2999C111.584 43.4299 111.684 43.7299 111.554 43.9799C111.464 44.1499 111.294 44.2399 111.114 44.2399V44.2299Z" fill="#261D2A"/>
<path d="M105.114 57.3998C105.054 57.3998 104.984 57.3898 104.924 57.3598C104.704 57.2698 99.5837 55.0998 98.0237 52.4898C97.8837 52.2498 97.9537 51.9498 98.1937 51.7998C98.4237 51.6598 98.7337 51.7298 98.8837 51.9698C100.284 54.2998 105.264 56.4098 105.314 56.4298C105.564 56.5398 105.694 56.8298 105.584 57.0798C105.504 57.2698 105.314 57.3898 105.124 57.3898L105.114 57.3998Z" fill="#261D2A"/>
<path d="M87.2737 65.8998C87.0437 65.8998 86.8437 65.7498 86.7837 65.5198C86.7237 65.2598 85.2637 59.0598 85.6137 56.9898C85.6637 56.7198 85.9237 56.5298 86.1937 56.5798C86.4637 56.6298 86.6537 56.8798 86.6037 57.1598C86.3437 58.7198 87.3537 63.5598 87.7637 65.2998C87.8237 65.5698 87.6637 65.8398 87.3937 65.8998C87.3537 65.8998 87.3137 65.9098 87.2737 65.9098V65.8998Z" fill="#261D2A"/>
<path d="M68.4429 58.0598C68.4429 58.0598 68.343 58.0598 68.293 58.0398C68.033 57.9598 67.883 57.6798 67.963 57.4198C68.663 55.1398 73.4629 52.1398 74.0129 51.8098C74.2529 51.6698 74.553 51.7398 74.703 51.9798C74.843 52.2198 74.773 52.5198 74.543 52.6698C73.153 53.5198 69.423 56.0998 68.923 57.7198C68.853 57.9298 68.6629 58.0698 68.4429 58.0698V58.0598Z" fill="#261D2A"/>
<path d="M61.6032 40.5598C61.3732 40.5598 61.1632 40.3898 61.1132 40.1598C61.0632 39.8898 61.2332 39.6298 61.5132 39.5698C62.1432 39.4498 67.7632 38.3998 69.8632 39.6298C70.1032 39.7698 70.1832 40.0798 70.0432 40.3098C69.9032 40.5398 69.5932 40.6298 69.3632 40.4898C67.8532 39.6098 63.3232 40.2298 61.7132 40.5498C61.6832 40.5498 61.6532 40.5498 61.6132 40.5498L61.6032 40.5598Z" fill="#261D2A"/>
<path d="M83.8632 154.31C83.7332 154.31 83.5932 154.26 83.4932 154.15C83.3032 153.95 83.3232 153.63 83.5232 153.44C83.9732 153.02 94.6932 143.13 99.0232 140.46C99.2532 140.32 99.5632 140.39 99.7132 140.62C99.8532 140.86 99.7832 141.16 99.5532 141.31C95.3132 143.92 84.3232 154.07 84.2132 154.17C84.1132 154.26 83.9932 154.3 83.8732 154.3L83.8632 154.31Z" fill="#261D2A"/>
<path d="M83.1132 96.56C83.0032 96.56 82.8932 96.52 82.8032 96.45C82.5932 96.28 82.5532 95.96 82.7232 95.75C89.5332 87.28 100.253 80.86 100.353 80.8C100.593 80.66 100.893 80.74 101.033 80.97C101.173 81.21 101.093 81.51 100.863 81.66C100.753 81.72 90.1932 88.05 83.4932 96.38C83.3932 96.5 83.2532 96.57 83.1032 96.57L83.1132 96.56Z" fill="#261D2A"/>
<path d="M105.272 164.31C105.272 164.31 110.272 146.89 132.942 150.23C132.942 150.23 122.522 170.81 105.272 164.31Z" fill="#2ECC71"/>
<path d="M105.273 164.81C105.123 164.81 104.973 164.74 104.873 164.62C104.703 164.4 104.743 164.09 104.963 163.92C108.303 161.33 120.853 155.37 121.393 155.11C121.633 154.99 121.943 155.1 122.063 155.35C122.183 155.6 122.073 155.9 121.823 156.02C121.693 156.08 108.833 162.19 105.583 164.71C105.493 164.78 105.383 164.81 105.273 164.81Z" fill="#261D2A"/>
<path d="M105.293 187.56C105.023 187.56 104.803 187.35 104.793 187.08C104.793 186.92 104.193 171.26 106.113 153.52C108.693 129.62 114.363 113.53 122.933 105.69C123.143 105.5 123.453 105.52 123.643 105.72C123.833 105.92 123.813 106.24 123.613 106.43C103.553 124.75 105.773 186.42 105.793 187.04C105.803 187.32 105.593 187.55 105.313 187.56C105.313 187.56 105.303 187.56 105.293 187.56Z" fill="#261D2A"/>
<path d="M120.583 97.7599C120.583 97.7599 118.593 76.4399 133.403 69.6699C133.403 69.6699 145.593 83.3799 134.853 97.9899C134.853 97.9899 141.303 88.0499 157.593 91.3499C157.593 91.3499 158.833 107.43 135.973 107.99C135.973 107.99 152.043 103.21 160.573 119.67C160.573 119.67 146.163 125.16 135.803 117.53C135.803 117.53 152.043 125.57 146.793 139.52C146.793 139.52 127.413 136.85 127.673 119.32C127.673 119.32 133.433 140.15 118.623 144.89C118.623 144.89 104.893 133.46 115.743 120.23C115.743 120.23 105.843 136.12 92.2328 130.26C92.2328 130.26 94.8028 110.29 112.463 110.13C112.463 110.13 93.7328 118.34 84.1328 100.33C84.1328 100.33 106.443 90.7799 114.243 102.34C114.243 102.34 95.4028 94.2499 100.183 75.4699C100.183 75.4699 124.573 79.2299 120.593 97.7499L120.583 97.7599Z" fill="#EDD14E"/>
<path d="M122.793 122.19C130.509 122.19 136.763 115.935 136.763 108.22C136.763 100.505 130.509 94.25 122.793 94.25C115.078 94.25 108.823 100.505 108.823 108.22C108.823 115.935 115.078 122.19 122.793 122.19Z" fill="#D1783B"/>
<path d="M110.552 110.14C110.452 110.14 110.342 110.11 110.252 110.04C110.032 109.87 109.982 109.56 110.152 109.34C113.862 104.39 128.112 96.38 128.712 96.04C128.952 95.9 129.252 95.99 129.392 96.23C129.522 96.47 129.442 96.78 129.202 96.91C129.052 96.99 114.532 105.16 110.952 109.94C110.852 110.07 110.702 110.14 110.552 110.14Z" fill="#261D2A"/>
<path d="M112.523 116.09C112.373 116.09 112.223 116.02 112.123 115.89C111.953 115.67 112.003 115.36 112.223 115.19C112.913 114.68 129.083 102.68 134.013 100.78C134.273 100.68 134.563 100.81 134.663 101.07C134.763 101.33 134.633 101.62 134.373 101.72C129.573 103.57 112.983 115.88 112.823 116C112.733 116.07 112.633 116.1 112.523 116.1V116.09Z" fill="#261D2A"/>
<path d="M118.423 119.96C118.283 119.96 118.143 119.9 118.043 119.78C117.863 119.57 117.893 119.25 118.103 119.08C118.583 118.68 129.973 109.17 136.623 107.82C136.893 107.77 137.153 107.94 137.213 108.21C137.263 108.48 137.093 108.74 136.823 108.8C130.423 110.1 118.863 119.75 118.753 119.85C118.663 119.93 118.543 119.97 118.433 119.97L118.423 119.96Z" fill="#261D2A"/>
<path d="M133.912 114.39C133.662 114.39 133.442 114.2 133.412 113.94C132.832 107.73 121.242 96.0898 121.132 95.9798C120.932 95.7798 120.932 95.4698 121.132 95.2698C121.332 95.0698 121.642 95.0798 121.842 95.2698C122.332 95.7598 133.802 107.28 134.412 113.85C134.442 114.12 134.232 114.37 133.962 114.39C133.942 114.39 133.932 114.39 133.912 114.39Z" fill="#261D2A"/>
<path d="M129.873 118.49C129.733 118.49 129.603 118.44 129.503 118.33C125.073 113.47 116.183 98.8599 115.813 98.2399C115.673 97.9999 115.743 97.6999 115.983 97.5499C116.223 97.3999 116.523 97.4799 116.673 97.7199C116.763 97.8699 125.883 112.88 130.253 117.66C130.443 117.86 130.423 118.18 130.223 118.37C130.123 118.46 130.003 118.5 129.883 118.5L129.873 118.49Z" fill="#261D2A"/>
<path d="M124.573 121.08C124.503 121.08 124.433 121.06 124.363 121.03C117.243 117.67 111.393 103.26 111.153 102.65C111.053 102.39 111.173 102.1 111.433 102C111.693 101.9 111.983 102.02 112.083 102.28C112.143 102.43 118.033 116.94 124.793 120.13C125.043 120.25 125.153 120.55 125.033 120.8C124.953 120.98 124.773 121.09 124.583 121.09L124.573 121.08Z" fill="#261D2A"/>
<path d="M114.683 94.88C114.513 94.88 114.343 94.79 114.253 94.63C111.873 90.58 108.853 88.01 108.823 87.99C108.613 87.81 108.583 87.5 108.763 87.29C108.943 87.08 109.263 87.05 109.473 87.23C109.603 87.34 112.653 89.93 115.123 94.13C115.263 94.37 115.183 94.67 114.943 94.81C114.863 94.86 114.773 94.88 114.693 94.88H114.683Z" fill="#261D2A"/>
<path d="M128.042 94.0998C127.812 94.0998 127.612 93.9498 127.552 93.7198C127.142 92.0498 129.402 86.5998 129.862 85.5198C129.972 85.2698 130.262 85.1498 130.522 85.2498C130.772 85.3598 130.892 85.6498 130.782 85.9098C129.772 88.2798 128.272 92.4398 128.522 93.4798C128.582 93.7498 128.422 94.0198 128.152 94.0798C128.112 94.0798 128.072 94.0898 128.032 94.0898L128.042 94.0998Z" fill="#261D2A"/>
<path d="M138.193 102.55C138.013 102.55 137.843 102.45 137.753 102.28C137.623 102.04 137.713 101.73 137.963 101.6C138.613 101.25 144.423 98.2399 146.943 99.2399C147.203 99.3399 147.323 99.6299 147.223 99.8899C147.123 100.15 146.833 100.27 146.573 100.17C144.813 99.4699 140.103 101.6 138.433 102.48C138.353 102.52 138.273 102.54 138.203 102.54L138.193 102.55Z" fill="#261D2A"/>
<path d="M147.063 116.19C146.953 116.19 146.843 116.15 146.753 116.08C144.663 114.43 138.223 113.57 138.163 113.56C137.893 113.52 137.693 113.27 137.733 113C137.773 112.72 138.033 112.53 138.293 112.57C138.573 112.61 145.073 113.48 147.373 115.3C147.593 115.47 147.623 115.79 147.453 116C147.353 116.12 147.213 116.19 147.063 116.19Z" fill="#261D2A"/>
<path d="M138.793 128.07C138.703 128.07 138.603 128.04 138.523 127.99C138.323 127.86 133.683 124.81 132.603 121.96C132.503 121.7 132.633 121.41 132.893 121.32C133.153 121.22 133.443 121.35 133.533 121.61C134.493 124.15 139.013 127.12 139.063 127.15C139.293 127.3 139.363 127.61 139.213 127.84C139.113 127.99 138.953 128.07 138.793 128.07Z" fill="#261D2A"/>
<path d="M119.733 133.24C119.473 133.24 119.243 133.03 119.233 132.77C119.223 132.5 118.893 126.15 119.603 124.17C119.693 123.91 119.983 123.77 120.243 123.87C120.503 123.96 120.633 124.25 120.543 124.51C120.013 126 120.133 130.94 120.223 132.72C120.233 133 120.023 133.23 119.753 133.25C119.753 133.25 119.733 133.25 119.723 133.25L119.733 133.24Z" fill="#261D2A"/>
<path d="M102.603 122.16C102.523 122.16 102.443 122.14 102.373 122.1C102.123 121.97 102.033 121.67 102.163 121.43C103.263 119.31 108.523 117.22 109.123 116.99C109.383 116.89 109.673 117.02 109.773 117.28C109.873 117.54 109.743 117.83 109.483 117.93C107.963 118.52 103.833 120.38 103.053 121.9C102.963 122.07 102.793 122.17 102.613 122.17L102.603 122.16Z" fill="#261D2A"/>
<path d="M106.883 105.15C106.763 105.15 106.653 105.11 106.553 105.03C105.233 103.9 100.663 103.7 99.0132 103.72C98.7432 103.72 98.5132 103.5 98.5032 103.23C98.4932 102.96 98.7232 102.73 98.9932 102.72C99.6332 102.72 105.343 102.69 107.193 104.27C107.403 104.45 107.423 104.77 107.243 104.98C107.143 105.1 107.003 105.15 106.863 105.15H106.883Z" fill="#261D2A"/>
<path d="M66.2735 160.9C66.2735 160.9 63.2735 143.57 39.6035 145.23C39.6035 145.23 49.0235 167.4 66.2735 160.9Z" fill="#2ECC71"/>
<path d="M66.2729 161.4C66.1329 161.4 66.0029 161.34 65.9029 161.23C63.3329 158.33 49.1929 151.08 49.0529 151.01C48.8029 150.88 48.7129 150.58 48.8329 150.34C48.9629 150.09 49.2629 150 49.5029 150.12C50.0929 150.42 63.9529 157.53 66.6529 160.57C66.8329 160.78 66.8229 161.09 66.6129 161.28C66.5229 161.36 66.4029 161.41 66.2829 161.41L66.2729 161.4Z" fill="#261D2A"/>
<path d="M67.2731 187.4C67.2731 187.4 67.2331 187.4 67.2131 187.4C66.9431 187.37 66.7431 187.12 66.7731 186.84C66.8331 186.34 72.2831 136.58 33.9031 95.74C33.7131 95.54 33.7231 95.22 33.9231 95.03C34.1231 94.84 34.4431 94.85 34.6331 95.05C73.3431 136.24 67.8231 186.45 67.7631 186.95C67.7331 187.2 67.5131 187.39 67.2631 187.39L67.2731 187.4Z" fill="#261D2A"/>
<path d="M36.0133 89.16C36.0133 89.16 30.2333 68.54 43.5933 59.23C43.5933 59.23 58.0433 70.54 50.0933 86.83C50.0933 86.83 54.6633 75.89 71.2733 76.23C71.2733 76.23 75.3733 91.82 52.9833 96.48C52.9833 96.48 67.9433 88.9 79.2733 103.56C79.2733 103.56 66.0833 111.55 54.5233 105.89C54.5233 105.89 71.9433 110.89 69.2733 125.56C69.2733 125.56 49.7333 126.41 46.8433 109.11C46.8433 109.11 56.2433 128.57 42.5233 135.89C42.5233 135.89 26.9633 127.11 35.2733 112.14C35.2733 112.14 28.3833 129.55 13.9433 126.22C13.9433 126.22 12.9033 106.11 30.2333 102.79C30.2333 102.79 13.2733 114.22 0.613281 98.22C0.613281 98.22 20.8433 84.83 30.6033 94.81C30.6033 94.81 10.6133 90.22 11.9533 70.89C11.9533 70.89 36.6233 70.22 36.0233 89.16H36.0133Z" fill="#EDD14E"/>
<path d="M40.0638 113.03C47.7792 113.03 54.0338 106.776 54.0338 99.0601C54.0338 91.3447 47.7792 85.0901 40.0638 85.0901C32.3483 85.0901 26.0938 91.3447 26.0938 99.0601C26.0938 106.776 32.3483 113.03 40.0638 113.03Z" fill="#D1783B"/>
<path d="M28.2734 103.15C28.1934 103.15 28.1234 103.13 28.0534 103.1C27.8034 102.98 27.7034 102.68 27.8334 102.43C30.6034 96.8999 43.1734 86.4599 43.7134 86.0199C43.9234 85.8399 44.2434 85.8699 44.4134 86.0899C44.5934 86.2999 44.5634 86.6199 44.3434 86.7899C44.2134 86.8999 31.3934 97.5399 28.7234 102.88C28.6334 103.06 28.4634 103.16 28.2734 103.16V103.15Z" fill="#261D2A"/>
<path d="M31.2728 108.65C31.1528 108.65 31.0228 108.61 30.9328 108.52C30.7328 108.33 30.7228 108.02 30.9128 107.81C31.4928 107.19 45.2628 92.48 49.7628 89.72C49.9928 89.58 50.3028 89.65 50.4528 89.89C50.5928 90.13 50.5228 90.43 50.2828 90.58C45.8928 93.26 31.7828 108.34 31.6328 108.49C31.5328 108.6 31.4028 108.65 31.2628 108.65H31.2728Z" fill="#261D2A"/>
<path d="M37.7734 111.4C37.6634 111.4 37.5434 111.36 37.4534 111.28C37.2434 111.1 37.2134 110.79 37.3834 110.58C37.7834 110.1 47.2834 98.6999 53.5834 96.1799C53.8334 96.0799 54.1334 96.1999 54.2334 96.4599C54.3334 96.7199 54.2134 97.0099 53.9534 97.1099C47.8934 99.5299 38.2534 111.1 38.1534 111.21C38.0534 111.33 37.9134 111.39 37.7734 111.39V111.4Z" fill="#261D2A"/>
<path d="M52.0228 103.15C51.8028 103.15 51.6028 103.01 51.5428 102.78C49.8628 96.78 36.3728 87.4 36.2428 87.31C36.0128 87.15 35.9628 86.84 36.1128 86.61C36.2728 86.38 36.5828 86.33 36.8128 86.48C37.3828 86.87 50.7328 96.16 52.5128 102.51C52.5828 102.78 52.4328 103.05 52.1628 103.13C52.1228 103.14 52.0728 103.15 52.0328 103.15H52.0228Z" fill="#261D2A"/>
<path d="M48.7737 107.9C48.6637 107.9 48.5637 107.87 48.4737 107.8C43.2437 103.82 31.8837 91.0299 31.4037 90.4799C31.2237 90.2699 31.2437 89.9599 31.4437 89.7699C31.6537 89.5899 31.9637 89.5999 32.1537 89.8099C32.2737 89.9399 43.9337 103.07 49.0837 106.99C49.3037 107.16 49.3437 107.47 49.1737 107.69C49.0737 107.82 48.9237 107.89 48.7737 107.89V107.9Z" fill="#261D2A"/>
<path d="M44.0232 111.4C44.0232 111.4 43.9332 111.4 43.8932 111.38C36.2932 109.35 27.9532 96.2199 27.6032 95.6599C27.4532 95.4299 27.5232 95.1199 27.7632 94.9699C27.9932 94.8199 28.3032 94.8899 28.4532 95.1299C28.5332 95.2599 36.9332 108.49 44.1632 110.41C44.4332 110.48 44.5932 110.75 44.5132 111.02C44.4532 111.24 44.2532 111.39 44.0332 111.39L44.0232 111.4Z" fill="#261D2A"/>
<path d="M29.6133 87.4C29.4733 87.4 29.3333 87.34 29.2333 87.23C26.1633 83.68 22.7333 81.69 22.6933 81.67C22.4533 81.53 22.3733 81.23 22.5033 80.99C22.6433 80.75 22.9433 80.67 23.1833 80.8C23.3333 80.88 26.7933 82.88 29.9833 86.57C30.1633 86.78 30.1433 87.09 29.9333 87.28C29.8433 87.36 29.7233 87.4 29.6033 87.4H29.6133Z" fill="#261D2A"/>
<path d="M42.6138 84.2299C42.4238 84.2299 42.2438 84.1199 42.1538 83.9299C41.4538 82.3599 42.7038 76.5899 42.9538 75.4499C43.0138 75.1799 43.2838 75.0099 43.5538 75.0699C43.8238 75.1299 43.9938 75.3999 43.9338 75.6699C43.3638 78.1899 42.6338 82.5399 43.0738 83.5199C43.1838 83.7699 43.0738 84.0699 42.8238 84.1799C42.7538 84.2099 42.6938 84.2199 42.6238 84.2199L42.6138 84.2299Z" fill="#261D2A"/>
<path d="M54.1132 90.7301C53.9632 90.7301 53.8232 90.6601 53.7232 90.5401C53.5532 90.3201 53.5932 90.0101 53.8032 89.8401C54.3832 89.3801 59.5532 85.3801 62.2132 85.9101C62.4832 85.9601 62.6632 86.2301 62.6032 86.5001C62.5532 86.7701 62.2732 86.9501 62.0132 86.8901C60.1432 86.5201 55.9032 89.4601 54.4232 90.6301C54.3332 90.7001 54.2232 90.7401 54.1132 90.7401V90.7301Z" fill="#261D2A"/>
<path d="M65.2729 102.56C65.1929 102.56 65.1129 102.54 65.0329 102.5C62.6829 101.25 56.1929 101.55 56.1229 101.56C55.8029 101.56 55.6129 101.36 55.6029 101.09C55.5929 100.81 55.8029 100.58 56.0729 100.57C56.3529 100.56 62.9129 100.25 65.5029 101.63C65.7429 101.76 65.8429 102.06 65.7129 102.31C65.6229 102.48 65.4529 102.57 65.2729 102.57V102.56Z" fill="#261D2A"/>
<path d="M59.2729 115.73C59.2129 115.73 59.1429 115.72 59.0829 115.69C58.8629 115.6 53.7429 113.43 52.1829 110.82C52.0429 110.58 52.1129 110.28 52.3529 110.13C52.5929 109.99 52.8929 110.06 53.0429 110.3C54.4429 112.63 59.4229 114.74 59.4729 114.76C59.7229 114.87 59.8529 115.16 59.7429 115.41C59.6629 115.6 59.4729 115.72 59.2829 115.72L59.2729 115.73Z" fill="#261D2A"/>
<path d="M41.4436 124.23C41.2136 124.23 41.0136 124.08 40.9536 123.85C40.8936 123.59 39.4336 117.39 39.7836 115.32C39.8336 115.05 40.0936 114.86 40.3636 114.91C40.6336 114.96 40.8236 115.21 40.7736 115.49C40.5136 117.05 41.5236 121.89 41.9336 123.63C41.9936 123.9 41.8336 124.17 41.5636 124.23C41.5236 124.23 41.4836 124.24 41.4436 124.24V124.23Z" fill="#261D2A"/>
<path d="M22.6129 116.4C22.6129 116.4 22.5129 116.4 22.4629 116.38C22.2029 116.3 22.0529 116.02 22.1329 115.76C22.8329 113.48 27.6329 110.48 28.1829 110.15C28.4229 110.01 28.7229 110.08 28.8729 110.32C29.0129 110.56 28.9429 110.86 28.7129 111.01C27.3229 111.86 23.5929 114.44 23.0929 116.06C23.0229 116.27 22.8329 116.41 22.6129 116.41V116.4Z" fill="#261D2A"/>
<path d="M15.7731 98.8999C15.5431 98.8999 15.3331 98.7299 15.2831 98.4999C15.2331 98.2299 15.4031 97.9699 15.6831 97.9099C16.3131 97.7899 21.9331 96.7399 24.0331 97.9699C24.2731 98.1099 24.3531 98.4199 24.2131 98.6499C24.0731 98.8799 23.7631 98.9699 23.5331 98.8299C22.0231 97.9499 17.4931 98.5699 15.8831 98.8899C15.8531 98.8899 15.8231 98.8899 15.7831 98.8899L15.7731 98.8999Z" fill="#261D2A"/>
</svg>
