<svg width="316" height="412" viewBox="0 0 316 412" fill="none" xmlns="http://www.w3.org/2000/svg">
<g clip-path="url(#clip0_1396_12982)">
<path d="M263.52 64.3785C264.797 64.3367 266.104 64.4262 267.327 64.8321C269.045 65.405 270.662 66.6225 271.444 68.2757C272.022 69.4992 272.118 70.9495 271.611 72.2147C270.847 74.1066 269.147 75.2585 267.327 75.9926C266.056 76.0344 264.773 75.9329 263.568 75.5032C261.874 74.8944 260.328 73.665 259.577 71.9999C259.505 71.8447 259.439 71.6835 259.386 71.5224C259.332 71.3613 259.284 71.1942 259.242 71.027C259.207 70.8599 259.177 70.6869 259.153 70.5197C259.129 70.3467 259.117 70.1796 259.117 70.0065C259.117 69.8334 259.117 69.6603 259.135 69.4932C259.147 69.3201 259.171 69.153 259.207 68.98C259.237 68.8128 259.278 68.6457 259.326 68.4786C259.374 68.3115 259.433 68.1504 259.499 67.9892C260.299 66.1092 261.73 65.1842 263.526 64.3844L263.52 64.3785Z" fill="black"/>
<path d="M263.449 66.7596C263.824 66.7179 264.2 66.688 264.576 66.682C266.145 66.6641 267.583 67.249 268.663 68.4188C269.266 69.0693 269.636 69.8989 269.498 70.8001C269.314 71.9997 268.448 72.704 267.53 73.3784C265.883 73.5693 264.511 73.5037 263.144 72.4473C262.404 71.8744 261.897 71.0388 261.844 70.0899C261.754 68.6217 262.506 67.7503 263.449 66.7477V66.7596Z" fill="white"/>
<path d="M173.715 30.5445C173.667 30.4431 173.619 30.3356 173.572 30.2342C169.055 20.8701 160.493 11.9237 150.542 8.53381C148.465 7.82359 143.674 7.26855 142.463 5.52584C142.463 4.86337 142.398 4.7261 142.905 4.23074C146.204 1.00194 159.754 0.309631 164.276 0.548359C178.983 1.33616 191.852 7.12531 201.661 18.2262C207.956 25.3522 211.577 33.654 214.632 42.5406C216.792 33.1288 217.883 24.2839 216.207 14.6811C215.933 13.1054 214.023 6.88062 214.357 5.80634C214.453 5.50793 214.709 5.28711 214.888 5.02451C217.466 3.50262 222.12 4.58883 224.9 5.31098C236.761 8.39654 249.362 18.6917 255.459 29.2375C259.534 36.28 261.945 45.1726 259.719 53.2117L259.588 53.6832C262.309 50.8603 265.035 47.9955 268.042 45.477C266.724 42.8271 265.101 39.6818 266.229 36.656C266.61 35.6354 267.374 34.8715 268.394 34.5014C270.894 33.5943 274.128 34.3284 276.407 35.5101C280.136 37.4497 283.406 41.4305 284.611 45.4889C285.207 47.5002 285.19 49.6487 284.128 51.5048C283.256 53.0208 281.848 54.3218 280.112 54.7098C278.006 55.1813 275.906 54.3397 274.194 53.1521C272.78 52.1733 271.598 50.8841 270.459 49.6129C266.658 53.5281 262.905 57.4671 259.403 61.6508C256.199 65.4824 253.24 69.5407 249.857 73.2231C241.629 82.1873 232.161 90.3578 222.8 98.1045C223.08 98.8506 223.402 99.5966 223.551 100.378C233.342 94.2729 242.721 88.6927 253.502 84.4075C266.915 79.0839 280.691 75.491 293.638 68.9917C292.295 65.9718 289.915 61.9552 290.804 58.5652C291.09 57.4671 291.764 56.548 292.761 55.9929C294.175 55.2111 295.893 55.235 297.397 55.7244C300.493 56.7389 303.261 60.1707 304.693 62.9936C306.364 66.3 307.205 70.2987 305.964 73.8856C305.38 75.5746 304.276 77.2337 302.605 77.9917C302.474 78.0514 302.337 78.1051 302.199 78.1529C302.062 78.2006 301.925 78.2424 301.782 78.2722C301.639 78.308 301.495 78.3319 301.352 78.3498C301.209 78.3677 301.066 78.3796 300.917 78.3796C300.773 78.3796 300.624 78.3796 300.481 78.3677C300.338 78.3558 300.195 78.3379 300.052 78.308C299.908 78.2782 299.765 78.2483 299.628 78.2066C299.491 78.1648 299.354 78.117 299.216 78.0633C296.508 76.9473 295.231 74.005 294.246 71.4625C284.301 76.7085 273.609 79.3763 263.15 83.2795C263.884 84.2046 264.468 85.0282 264.922 86.1144C269.94 84.4195 275.751 80.2775 281.085 83.0647C282.642 83.8764 284.253 85.2968 284.736 87.0395C285.076 88.2749 284.778 89.5819 284.133 90.6622C283.74 91.3306 282.904 91.8558 282.29 92.3154C294.718 96.4573 304.27 105.607 310.087 117.262C313.864 124.836 317.754 137.154 315.099 145.605C314.872 146.322 314.586 146.805 314.114 147.384C313.458 147.688 313.404 147.766 312.706 147.617C302.528 135.304 295.231 132.505 279.915 129.635C294.085 136.617 305.344 145.94 310.558 161.367C314.168 172.056 313.607 183.157 308.506 193.208C307.146 195.887 303.273 202.638 300.463 203.724C299.992 203.903 299.825 203.777 299.365 203.664C298.118 201.056 298.602 197.773 297.761 195.034C294.425 184.166 285.064 175.828 274.569 172.146L272.093 171.293C265.811 180.597 257.213 187.323 246.027 189.507C240.746 190.54 222.842 192.068 218.188 189.185C217.8 188.941 217.567 188.618 217.323 188.242C217.543 187.472 217.895 187.21 218.564 186.804C220.413 185.682 222.579 185.001 224.53 184.064C229.577 181.641 232.149 176.712 233.67 171.519C234.166 169.818 234.535 168.088 234.768 166.327C235.001 164.566 235.108 162.806 235.072 161.033C227.704 160.58 220.371 160.759 213.003 160.926C200.778 161.2 188.619 161.785 176.477 163.301C171.066 163.976 165.774 165.372 160.368 166.029C155.082 166.673 149.706 165.927 144.546 167.497C140.984 168.583 137.893 170.779 135.143 173.232C125.984 181.409 118.24 190.856 110.711 200.495C106.397 206.039 102.203 211.667 98.1336 217.391C94.0645 223.114 90.1208 228.921 86.3024 234.818C82.4839 240.715 78.7967 246.689 75.2408 252.747C71.6849 258.804 68.2602 264.934 64.9668 271.141C68.296 268.95 71.5536 266.849 75.2169 265.238C84.4946 250.568 100.341 238.59 117.429 234.77C135.435 230.742 151.425 237.134 166.406 246.737C171.812 250.198 177.175 254.095 182.927 256.966C185.182 258.094 191.966 259.652 193.213 261.197L192.962 261.585C190.176 261.967 187.044 261.812 184.192 261.985C146.753 264.211 115.591 250.855 78.2538 265.96C73.5762 267.852 66.5598 270.926 63.3619 274.978C60.2415 278.935 57.8132 285.285 55.6116 289.94C49.1919 303.721 43.1778 317.681 37.5755 331.813C31.9731 345.946 26.7884 360.234 22.0272 374.671L22.2182 374.39C24.0797 371.549 25.5772 368.476 27.3552 365.581C31.1975 359.321 35.3441 353.144 39.5622 347.128C53.1296 327.761 71.5656 310.692 92.6505 299.842C99.8757 296.123 107.453 293.229 115.042 290.346C122.912 287.356 130.805 284.438 138.537 281.101C140.757 280.147 143.376 279.275 145.405 278.016C147.147 276.93 148.77 275.438 150.333 274.107L150.577 274.22C150.751 276.1 149.694 278.464 149.038 280.2C144.772 291.51 138.066 302.426 130.376 311.712C105.544 341.697 75.5749 353.263 42.5215 371.382C36.9669 374.426 31.4958 377.488 26.0724 380.77C23.835 382.125 21.4187 383.408 19.3126 384.96C17.7792 389.812 16.3592 394.76 15.1004 399.69C14.3605 402.572 14.0145 406.076 12.7556 408.761C12.3499 409.621 11.7055 410.223 10.8822 410.677C8.91328 411.751 6.24037 411.692 4.15216 411.023C2.65462 410.54 1.2048 409.627 0.464978 408.188C0.0294367 407.347 -0.101822 406.469 0.0175041 405.526C0.691698 400.042 3.23932 393.518 4.83232 388.141C9.21756 373.37 13.6446 358.628 18.883 344.132C23.6262 330.996 29.0257 317.782 34.9503 305.135C34.9264 305.046 34.9026 304.956 34.8727 304.873C34.0613 302.271 32.3669 299.728 31.0841 297.323C28.7751 292.996 26.4006 288.645 24.3541 284.187C11.1626 255.462 1.58068 221.909 16.7948 191.937C18.0179 189.525 20.6729 183.551 23.1847 182.429L23.7396 182.692C24.1155 184.5 23.8052 186.482 23.9126 188.338C24.1274 192.062 24.8433 195.744 25.8159 199.343C27.6057 205.992 30.3145 212.312 32.5578 218.811C33.5303 221.64 34.3895 224.505 35.1233 227.406C35.8572 230.306 36.4717 233.231 36.9609 236.185C39.5026 251.72 39.3117 268.043 37.9752 283.692C37.4084 290.334 36.3285 297.06 36.0183 303.703C40.4632 295.252 44.0728 286.383 48.5296 277.932C53.9053 267.763 59.4897 257.706 65.2771 247.769C68.0812 243.006 71.136 238.405 73.9044 233.624C71.9474 228.91 69.4416 224.421 67.6039 219.665C65.0563 213.076 62.5266 206.033 60.9038 199.146C56.5185 180.537 57.1271 158.598 64.4537 140.879C66.0348 137.053 69.0836 129.79 72.198 127.217C72.4725 127.152 72.7946 126.985 73.0512 127.134C73.4211 131.025 73.5643 134.976 74.3339 138.814C76.8637 151.43 81.4696 163.474 82.3348 176.419C83.54 194.413 77.9793 211.793 76.8696 229.626C81.3861 223.592 85.5685 217.301 90.1268 211.297C97.0298 202.202 104.583 193.321 112.125 184.757C118.425 177.607 125.495 171.209 131.879 164.161C133.15 162.758 134.504 161.26 135.351 159.553C136.419 157.405 136.938 154.898 137.744 152.63C139.224 148.47 146.956 127.14 150.727 126.107C151.854 127.05 151.795 128.978 151.914 130.369L151.962 130.942C164.616 113.443 175.487 94.8101 179.222 73.2231C169.312 65.6912 158.304 62.3252 145.894 64.0381C142.744 64.4737 139.814 65.2794 136.885 66.5149C135.501 67.0997 133.979 67.989 132.523 68.3352C131.855 68.4963 131.7 68.3471 131.109 68.0487C129.546 66.0434 130.137 62.7012 130.435 60.3378C131.682 50.4425 136.634 43.7283 144.438 37.7422C152.135 31.8396 160.965 28.6705 170.726 29.9835C171.722 30.1208 172.713 30.2998 173.685 30.5326L173.715 30.5445Z" fill="black"/>
<path d="M72.9561 228.17L74.0777 227.865C74.7042 226.952 74.4238 225.58 74.7102 224.505C75.3008 225.245 75.1815 226.123 75.265 227.054C75.1576 228.749 75.0025 230.444 74.8116 232.133L72.9561 228.176V228.17Z" fill="white"/>
<path d="M250.812 59.4131L251.015 59.9383L250.227 61.502C250.55 61.6512 250.729 61.8541 251.075 61.687C251.594 61.4363 251.88 60.9469 252.22 60.4993C252.459 60.4396 252.733 60.3322 252.978 60.3262C251.797 62.0033 250.484 63.5132 249.13 65.0411C248.772 64.5756 248.33 64.2115 247.889 63.8236C248.742 62.3077 249.834 60.8574 250.812 59.4191V59.4131Z" fill="white"/>
<path d="M246.301 59.2876C247.924 57.5091 249.535 55.7246 251.289 54.0654C250.245 56.8406 248.95 58.649 246.976 60.8393C246.307 61.5078 245.758 61.9733 244.828 62.2359L244.523 61.9196C244.69 60.7916 245.556 60.0754 246.301 59.2816V59.2876Z" fill="white"/>
<path d="M245.239 53.3252L245.466 53.5759C243.539 55.9393 242.012 58.4399 240.627 61.1495C240.085 60.2125 239.703 59.4903 240.025 58.3683C240.699 56.0109 243.217 54.4532 245.239 53.3252Z" fill="white"/>
<path d="M268.604 87.0337L268.92 87.0039C269.779 87.3918 270.358 88.9197 270.799 89.7314H263.103C262.548 89.7612 262.083 89.7194 261.534 89.6598C263.109 88.4243 266.617 87.7977 268.604 87.0397V87.0337Z" fill="white"/>
<path d="M222.806 98.1108C223.087 98.8569 223.409 99.6029 223.558 100.385C219.972 102.975 216.38 105.41 212.401 107.379C214.853 103.739 219.381 100.892 222.806 98.1108Z" fill="white"/>
<path d="M229.143 88.0127C228.582 89.0094 227.913 89.833 227.239 90.7521C226.279 92.0532 224.31 93.205 223.838 94.7508C223.797 94.8284 223.761 94.906 223.707 94.9776C223.296 95.4908 213.493 103.966 212.592 104.563C211.989 104.968 211.321 105.309 210.575 105.255C209.955 105.207 209.34 105.147 208.714 105.118C215.032 99.1613 222.126 93.1453 229.149 88.0127H229.143Z" fill="white"/>
<path d="M274.212 84.7183C275.978 84.4975 277.762 84.3304 279.426 85.0943C280.966 85.7985 282.075 86.5804 282.69 88.1858C282.648 88.6573 282.708 88.9736 282.415 89.3675C281.586 90.4895 280.441 90.6447 279.14 90.8178C277.076 90.6447 275.011 90.215 272.965 89.8629C272.261 88.6812 271.479 87.5353 270.733 86.3834C271.867 85.7269 273.013 85.2196 274.212 84.7123V84.7183Z" fill="white"/>
<path d="M247.888 63.8174C248.33 64.2113 248.765 64.5694 249.129 65.0349C238.885 76.7445 228.021 87.3142 215.975 97.1498C219.316 92.7572 223.761 88.8241 227.669 84.915C231.678 80.9043 235.526 76.7505 239.452 72.6623C242.268 69.7259 245.21 66.891 247.888 63.8233V63.8174Z" fill="white"/>
<path d="M229.142 88.0126C231.141 85.8222 233.42 83.8408 235.526 81.7459C239.273 77.986 242.978 74.1842 246.63 70.3288C252.369 64.283 262.19 51.7259 268.383 47.5303L268.729 47.7451C268.729 48.3897 268.46 48.7478 268.073 49.2312C265.441 52.5077 262.279 55.456 259.535 58.661C254.159 64.9574 249.195 71.3852 243.318 77.234C238.235 82.295 229.727 90.8833 223.838 94.7447C224.31 93.1989 226.279 92.0471 227.239 90.746C227.913 89.8329 228.582 89.0093 229.142 88.0066V88.0126Z" fill="url(#paint0_linear_1396_12982)"/>
<path d="M294.002 57.4612H294.157C296.562 57.5029 298.101 58.1714 299.873 59.8305C302.576 62.367 304.366 66.5149 304.408 70.2331C304.437 72.4831 303.9 74.0945 302.367 75.7358C301.872 75.9089 301.299 76.1356 300.768 76.1416C300.13 76.1536 299.461 75.7477 298.996 75.3419C295.989 72.7159 293 64.432 292.791 60.4453C292.726 59.1263 293.161 58.4161 294.002 57.4492V57.4612Z" fill="white"/>
<path d="M264.94 86.1265C257.673 88.6869 250.502 91.7665 243.557 95.0907C238.42 97.5496 221.285 107.129 216.536 107.725C217.687 106.186 220.742 104.759 222.377 103.667C236.708 94.0702 246.97 89.2419 263.162 83.2856C263.896 84.2107 264.481 85.0343 264.934 86.1205L264.94 86.1265Z" fill="white"/>
<path d="M270.286 36.3576C270.758 36.3397 271.217 36.3159 271.688 36.3457C275.035 36.5665 278.102 38.7807 280.137 41.3351C281.676 43.2688 283.114 45.9664 282.744 48.5208C282.469 50.4127 281.539 51.5944 280.011 52.6628C279.283 52.7403 278.52 52.7702 277.81 52.5852C274.445 51.7198 271.396 47.7748 269.648 44.916C268.574 43.1614 267.112 40.4936 267.852 38.3928C268.27 37.1992 269.212 36.7993 270.292 36.3636L270.286 36.3576Z" fill="white"/>
<path d="M232.591 150.452H232.728C234.065 151.645 234.572 156.486 234.96 158.365C220.08 157.918 205.223 158.276 190.385 159.446C184.908 159.84 179.461 160.574 173.978 160.926C173.572 160.514 173.184 160.132 172.713 159.798L172.325 159.523C170.571 158.813 168.728 158.264 166.932 157.655C178.011 155.501 189.162 153.877 200.397 152.791C211.118 151.836 221.869 151.502 232.585 150.452H232.591Z" fill="white"/>
<path d="M181.549 75.5211C184.777 77.6398 187.653 81.6683 189.92 84.7658C189.138 89.433 188.357 94.0762 186.984 98.6121C181.704 116.051 169.73 129.324 155.816 140.533C154.205 141.822 152.535 142.956 150.805 144.078C151.425 141.261 151.139 137.781 152.266 135.173C153.639 132.01 157.29 128.208 159.366 125.236C162.606 120.533 165.625 115.681 168.411 110.692C174.658 99.4118 178.417 87.9648 181.555 75.5151L181.549 75.5211Z" fill="white"/>
<path d="M214.537 120.038C215.563 120.456 216.78 122.401 217.508 123.327C223.564 131.026 228.54 139.142 232.376 148.142C213.564 149.217 194.562 150.136 175.97 153.376C169.157 154.487 165.977 156.193 158.931 153.991C175.994 147.581 201.93 133.144 214.531 120.044L214.537 120.038Z" fill="white"/>
<path d="M72.956 228.17C69.4359 221.503 67.0613 213.578 64.985 206.32C57.8194 181.248 58.1058 155.722 71.0169 132.494C71.5718 136.695 72.1983 140.909 73.1708 145.033C74.8891 152.338 77.21 159.416 78.5285 166.823C81.4282 183.062 78.8925 196.849 76.7804 212.838C76.1599 217.552 76.0286 222.363 75.265 227.042C75.1874 226.111 75.3067 225.239 74.7101 224.493C74.4237 225.568 74.7101 226.94 74.0777 227.854L72.956 228.158V228.17Z" fill="white"/>
<path d="M192.02 88.5557C194.43 91.5099 196.471 94.9178 198.702 98.0391C203.475 104.759 208.344 111.414 213.296 118.003C201.112 130.876 181.245 140.861 165.428 148.518C161.896 150.249 158.31 152.415 154.33 152.768C152.558 152.923 150.792 152.785 148.997 152.97C149.378 151.043 149.814 149.133 150.309 147.235C151.741 146.471 153.125 145.63 154.468 144.704C159.241 141.482 163.489 137.411 167.57 133.365C181.567 119.507 188.124 108.209 192.026 88.5616L192.02 88.5557Z" fill="white"/>
<path d="M157.433 3.30609C165.261 2.28553 174.461 3.89694 181.71 6.89298C195.552 12.6105 204.77 24.2724 210.301 37.8739C211.518 40.864 212.854 44.3971 212.878 47.6677C212.914 51.6664 206.112 70.8721 204.185 75.4974C203.869 71.815 203.493 68.2162 202.515 64.6413C201.763 61.8959 200.713 59.2102 200.039 56.4469C199.364 53.7016 199.245 50.795 198.714 48.0139C196.912 38.5901 193.493 29.9004 188.058 22.0045C183.112 15.3439 176.639 10.2531 168.733 7.62706C171.758 9.93079 175.171 11.6616 178.148 14.0727C187.963 22.0224 195.987 38.2678 197.372 50.7533C191.698 41.7353 186.96 36.5131 177.277 31.6968C169.706 17.9103 163.179 9.7219 147.738 4.90557C150.93 4.05808 154.146 3.58063 157.433 3.30609Z" fill="white"/>
<path d="M126.611 236.066C146.443 235.415 159.963 246.176 175.965 255.767C178.787 257.462 181.77 258.924 184.687 260.44C179.896 258.888 175.004 257.605 170.267 255.91C157.803 251.446 145.93 246.206 132.518 245.221C115.955 244.003 94.2619 250.825 81.5775 261.818H81.9773C92.3348 254.245 105.807 248.378 118.563 246.683C141.909 243.216 159.862 254.108 181.293 259.992C175.505 259.545 169.676 259.933 163.877 259.413C133.55 256.686 106.481 252.251 77.3057 264.283C77.4489 264.11 77.592 263.943 77.7412 263.776C90.3659 249.339 106.934 237.403 126.617 236.072L126.611 236.066Z" fill="white"/>
<path d="M266.82 130.13C268.514 129.987 270.244 129.79 271.939 130.076C278.156 131.139 286.437 135.836 291.335 139.667C301.436 147.581 308.291 157.996 309.837 170.893C311.179 182.089 307.713 191.065 300.869 199.767C300.547 194.945 299.223 190.671 296.854 186.464C291.711 177.321 283.221 171.836 273.239 169.067C274.122 167.246 274.838 165.408 275.53 163.504C277.66 157.285 277.684 151.454 275.53 145.283L275.888 145.456C278.997 146.972 281.843 149.175 284.45 151.419C295.034 160.532 299.425 171.066 303.936 183.939C303.459 181.301 303.005 178.64 302.313 176.043C299.193 164.358 291.663 154.057 282.248 146.638C279.2 144.233 275.835 142.293 272.744 139.954C268.663 136.868 265.232 133.562 260.734 130.978C262.745 130.566 264.797 130.369 266.831 130.13H266.82Z" fill="white"/>
<path d="M21.389 188.141C21.5024 188.278 23.5846 200.543 24.1693 202.507C26.9019 211.65 30.9769 220.238 33.1546 229.59C36.8477 245.448 36.7225 262.6 36.0244 278.78C35.7201 285.829 35.0161 293.086 35.1414 300.122L34.9326 300.099L35.0042 300.29L34.8848 299.884L34.7297 299.842L32.558 295.491C30.6726 291.313 28.4173 287.297 26.5081 283.119C21.6396 272.49 17.5169 261.228 14.8022 249.846C9.68311 228.432 9.51605 207.514 21.395 188.141H21.389Z" fill="white"/>
<path d="M165.47 32.5439C167.23 32.5439 168.972 32.6991 170.702 32.9975C179.759 34.5134 187.414 40.5771 192.659 47.9001C199.317 57.1926 203.977 70.1913 202.032 81.704C201.005 79.1854 200.433 76.4997 199.615 73.9095C197.426 66.9566 193.571 60.493 188.184 55.5514C183.393 51.1588 177.14 48.6461 170.583 48.9386C172.474 50.1501 176.191 50.2755 178.411 51.0633C187.11 54.1369 193.034 62.6296 196.847 70.5554C201.381 80.3612 201.692 83.8108 199.657 94.3148C189.55 80.3492 184.401 69.9168 167.051 63.3995C155.071 58.8995 144.051 60.2841 132.655 65.4586C132.87 58.0878 134.588 51.8809 139.367 46.1574C146.205 37.981 154.922 33.481 165.47 32.5499V32.5439Z" fill="white"/>
<path d="M149.17 132.04L149.433 132.35C150.417 138.736 147.118 149.652 145.262 155.919C155.089 154.576 160.966 157.488 169.742 161.499C159.826 164.901 148.096 162.358 139.827 166.787C129.41 172.367 117.262 188.159 109.989 197.362C80.1339 235.135 59.9319 271.964 41.2037 316.028C34.7123 331.294 28.4358 346.967 23.2212 362.729C19.7607 373.173 17.064 383.844 13.9615 394.396C12.8517 398.168 11.8494 405.36 9.49867 408.272C8.63356 408.66 7.8818 408.767 6.93913 408.708C5.50124 408.624 3.80681 408.32 2.80447 407.204C2.24363 404.697 10.8769 377.214 12.1656 373.131C18.2393 353.484 25.3333 334.213 33.4355 315.311C36.2099 308.979 39.4257 302.826 42.379 296.577C51.7521 276.727 62.1574 257.044 74.0781 238.596C78.9048 231.124 84.2268 223.753 89.4891 216.58C97.8777 205.139 107.09 193.888 116.755 183.51L131.015 168.422C133.013 166.274 135.406 164.095 137.029 161.666C139.719 157.632 140.603 151.628 142.291 147.056C144.206 141.864 146.599 136.94 149.176 132.052L149.17 132.04Z" fill="white"/>
<path d="M261.48 92.2321C265.089 91.8144 269.123 92.1904 272.708 92.7036C273.46 92.817 274.206 92.9483 274.952 93.0975C275.697 93.2467 276.437 93.4138 277.171 93.5989C277.905 93.7839 278.639 93.9868 279.367 94.2076C280.095 94.4284 280.811 94.6672 281.527 94.9238C282.243 95.1804 282.947 95.455 283.651 95.7474C284.349 96.0399 285.047 96.3502 285.733 96.6725C286.419 97.0007 287.099 97.3409 287.767 97.699C288.436 98.0571 289.098 98.4331 289.748 98.821C290.399 99.2149 291.043 99.6208 291.669 100.039C292.302 100.462 292.922 100.898 293.531 101.352C294.139 101.805 294.742 102.271 295.327 102.754C295.911 103.238 296.49 103.733 297.051 104.24C297.612 104.747 298.167 105.273 298.698 105.81C299.235 106.347 299.76 106.896 300.267 107.457C300.78 108.018 301.275 108.597 301.758 109.182C302.242 109.767 302.707 110.369 303.16 110.978C309.449 119.417 314.538 132.374 312.981 143.045C302.665 130.954 285.924 125.541 270.31 126.758C265.954 127.098 260.758 128.728 256.468 127.707C252.142 126.681 247.787 123.643 243.933 121.512C239.506 119.023 235.019 116.648 230.467 114.386C233.671 113.533 236.905 112.816 240.168 112.238C243.432 111.659 246.713 111.211 250.013 110.901C269.027 109.128 287.6 111.45 302.719 123.983L302.802 123.726C300.726 121.417 298.089 119.555 295.607 117.71C275.083 104.98 250.561 107.714 228.188 112.888C226.177 112.1 224.196 111.253 222.239 110.346C225.228 108.967 228.039 107.248 231.081 105.959C235.311 104.163 239.995 103.07 244.452 101.966C259.905 98.1407 273.884 96.7083 289.038 102.981C289.474 103.16 289.241 103.154 289.712 102.981C288.531 102.33 287.338 101.68 286.103 101.137C268.413 93.4317 247.614 97.8661 230.336 104.574C227.114 105.828 224.268 108.09 220.998 109.2C220.342 109.421 219.966 109.504 219.322 109.212L219.662 108.794C226.804 106.186 233.641 102.402 240.425 98.9822C244.607 96.8754 248.897 94.5955 253.431 93.3661C256.086 92.6439 258.741 92.4291 261.474 92.2142L261.48 92.2321Z" fill="white"/>
<path d="M209.817 108.459C211.691 109.038 213.588 110.292 215.414 111.085C221.458 113.706 227.364 115.979 233.068 119.322C242.37 124.782 251.546 131.658 254.326 142.651C256.641 151.812 254.105 162.579 249.905 170.827C248.789 173.023 247.238 175.005 245.973 177.13C246.457 176.927 246.367 177.028 246.671 176.712C253.473 169.598 257.459 159.135 257.423 149.312C257.393 139.882 253.246 132.684 246.713 126.167C253.879 130.023 262.041 133.95 267.989 139.518C268.627 140.18 269.266 140.843 269.857 141.541C273.412 145.713 274.779 151.365 274.295 156.76C273.544 165.104 268.156 173.943 261.79 179.218C250.681 188.427 236.493 188.869 222.782 187.61C224.059 187.156 225.366 186.72 226.541 186.052C231.982 182.955 235.061 177.201 236.57 171.305C241.534 151.956 229.077 134.218 218.099 119.554C215.438 116.003 212.204 112.572 209.973 108.746C209.919 108.65 209.865 108.555 209.812 108.459H209.817Z" fill="white"/>
<path d="M217.162 7.00006C220.36 7.35815 223.498 7.75205 226.577 8.73083C234.972 11.4046 243.784 18.0412 249.219 24.9106C254.279 31.3085 258.658 41.1382 257.584 49.4757C257.196 52.4837 255.412 58.4161 252.984 60.308C252.739 60.314 252.465 60.4214 252.226 60.4811C251.886 60.9287 251.6 61.4121 251.081 61.6688C250.735 61.8418 250.556 61.6329 250.233 61.4837L251.021 59.9201L250.818 59.3949C251.677 57.6999 253.211 55.7662 252.536 53.7669C252.184 52.7224 251.528 52.054 250.526 51.6482C248.39 50.7768 245.818 51.2602 243.796 52.1913C241.57 53.2178 238.921 55.1276 238.056 57.5268C237.674 58.5892 237.806 59.7649 238.354 60.7437C239.118 62.1164 240.801 63.6084 242.346 63.9904C243.659 64.3186 244.911 63.8651 246.164 63.4771C237.889 71.8803 229.709 80.3731 221.637 88.9673C218.248 92.5602 211.112 100.85 207.383 103.38C206.62 103.219 206.584 103.148 206.041 102.569L206.638 101.936H206.512C210.003 97.8241 213.618 93.7419 216.852 89.4328C219.388 86.0489 221.607 82.4441 223.856 78.8751C232.257 65.5302 239.763 50.2635 238.396 34.0241C237.949 28.6885 236.702 23.0664 233.587 18.6261C233.641 18.7455 233.701 18.8708 233.754 18.9902C239.536 31.8695 237.221 46.0858 232.299 58.7921C226.314 74.2318 216.756 90.0535 204.895 101.727C203.38 99.7996 201.966 97.8957 200.707 95.7889C203.428 88.6152 205.116 81.1131 207.544 73.8319C214.4 53.3013 225.515 28.6228 217.186 6.97021L217.162 7.00006Z" fill="white"/>
<path d="M146.986 279.848C146.986 280.027 147.01 280.206 146.974 280.379C146.443 282.695 141.169 291.606 139.677 294.184C138.275 296.547 136.801 298.863 135.244 301.125C133.693 303.387 132.064 305.601 130.358 307.749C128.657 309.904 126.879 311.999 125.036 314.034C123.192 316.069 121.283 318.039 119.308 319.948C97.0836 341.697 71.8103 352.595 45.0872 367.354C40.7139 369.765 36.2451 372.176 32.0508 374.892C27.8565 377.607 23.8173 381.111 19.1934 383.074C22.7791 380.215 25.7265 376.437 28.9304 373.155C34.5865 367.36 40.4573 361.654 46.4117 356.158C63.9109 340.014 80.9507 329.366 101.027 316.946C102.054 316.284 103.014 315.592 103.969 314.822L103.682 314.804C98.3664 317.472 93.295 320.76 88.2117 323.846C81.9172 327.671 75.6228 331.491 69.5968 335.734C51.9604 348.16 35.5769 363.325 21.4069 379.577L21.5023 379.374C25.7623 369.974 31.7405 361.242 37.862 352.977C53.613 331.724 72.0907 312.602 96.2304 301.005C112.787 293.05 130.441 287.923 146.974 279.848H146.986Z" fill="white"/>
</g>
<defs>
<linearGradient id="paint0_linear_1396_12982" x1="247.226" y1="72.2147" x2="245.275" y2="70.222" gradientUnits="userSpaceOnUse">
<stop stop-color="white"/>
<stop offset="1" stop-color="white"/>
</linearGradient>
<clipPath id="clip0_1396_12982">
<rect width="316" height="411" fill="white" transform="translate(0 0.506836)"/>
</clipPath>
</defs>
</svg>
