<svg width="146" height="190" viewBox="0 0 146 190" fill="none" xmlns="http://www.w3.org/2000/svg">
<g clip-path="url(#clip0_1032_12879)">
<path d="M121.753 29.5273C122.343 29.5079 122.947 29.5493 123.512 29.7369C124.306 30.0018 125.053 30.5647 125.414 31.3289C125.681 31.8945 125.725 32.5649 125.491 33.1499C125.138 34.0245 124.353 34.557 123.512 34.8963C122.925 34.9156 122.332 34.8687 121.775 34.6701C120.992 34.3887 120.278 33.8203 119.931 33.0505C119.898 32.9788 119.868 32.9043 119.843 32.8298C119.818 32.7553 119.796 32.6781 119.777 32.6008C119.76 32.5236 119.746 32.4435 119.735 32.3663C119.724 32.2863 119.719 32.209 119.719 32.129C119.719 32.049 119.719 31.969 119.727 31.8917C119.733 31.8117 119.744 31.7345 119.76 31.6545C119.774 31.5772 119.793 31.5 119.815 31.4227C119.837 31.3455 119.865 31.271 119.895 31.1965C120.265 30.3274 120.926 29.8997 121.756 29.53L121.753 29.5273Z" fill="black"/>
<path d="M121.719 30.6278C121.893 30.6085 122.067 30.5947 122.24 30.592C122.965 30.5837 123.63 30.8541 124.129 31.3949C124.407 31.6956 124.578 32.0791 124.515 32.4957C124.429 33.0503 124.029 33.3758 123.605 33.6876C122.844 33.7759 122.21 33.7455 121.579 33.2572C121.237 32.9923 121.003 32.6061 120.978 32.1674C120.937 31.4887 121.284 31.0858 121.719 30.6223V30.6278Z" fill="#F49CA1"/>
<path d="M80.2612 13.8862C80.2392 13.8393 80.2171 13.7897 80.195 13.7428C78.1083 9.41385 74.1526 5.27808 69.5546 3.71095C68.5953 3.38263 66.3818 3.12604 65.8222 2.32041C65.8222 2.01416 65.7919 1.9507 66.0262 1.7217C67.5506 0.22907 73.8108 -0.0909763 75.9003 0.0193845C82.6953 0.383575 88.6412 3.05983 93.1731 8.19161C96.0813 11.4859 97.7545 15.3237 99.1659 19.4319C100.164 15.0809 100.668 10.992 99.8936 6.55275C99.7668 5.82437 98.8847 2.94671 99.0391 2.45008C99.0832 2.31213 99.2017 2.21005 99.2844 2.08865C100.475 1.3851 102.625 1.88724 103.91 2.22108C109.39 3.6475 115.212 8.40681 118.029 13.282C119.912 16.5376 121.026 20.6486 119.997 24.365L119.937 24.583C121.194 23.2779 122.454 21.9536 123.843 20.7893C123.234 19.5643 122.484 18.1103 123.005 16.7115C123.181 16.2397 123.534 15.8865 124.006 15.7155C125.161 15.2961 126.655 15.6354 127.708 16.1817C129.43 17.0784 130.941 18.9187 131.498 20.7948C131.774 21.7246 131.765 22.7179 131.275 23.5759C130.872 24.2767 130.222 24.8782 129.419 25.0575C128.446 25.2755 127.476 24.8864 126.685 24.3374C126.032 23.8849 125.486 23.289 124.959 22.7013C123.203 24.5112 121.469 26.3322 119.851 28.2662C118.371 30.0375 117.004 31.9137 115.441 33.616C111.639 37.76 107.265 41.5371 102.94 45.1183C103.069 45.4632 103.218 45.8081 103.287 46.1695C107.811 43.3471 112.144 40.7674 117.125 38.7864C123.322 36.3253 129.687 34.6644 135.669 31.6598C135.048 30.2638 133.949 28.407 134.359 26.8398C134.492 26.3322 134.803 25.9073 135.263 25.6507C135.917 25.2893 136.711 25.3003 137.405 25.5265C138.836 25.9956 140.115 27.582 140.777 28.887C141.548 30.4155 141.937 32.2641 141.364 33.9222C141.094 34.703 140.584 35.4701 139.812 35.8204C139.751 35.848 139.688 35.8729 139.624 35.8949C139.561 35.917 139.498 35.9363 139.431 35.9501C139.365 35.9667 139.299 35.9777 139.233 35.986C139.167 35.9943 139.101 35.9998 139.032 35.9998C138.966 35.9998 138.897 35.9998 138.83 35.9943C138.764 35.9887 138.698 35.9805 138.632 35.9667C138.566 35.9529 138.5 35.9391 138.436 35.9198C138.373 35.9005 138.309 35.8784 138.246 35.8535C136.995 35.3376 136.405 33.9774 135.95 32.8021C131.355 35.2273 126.415 36.4605 121.582 38.2649C121.922 38.6926 122.192 39.0733 122.401 39.5755C124.719 38.7919 127.404 36.8772 129.869 38.1656C130.588 38.5408 131.333 39.1975 131.556 40.0031C131.713 40.5742 131.575 41.1785 131.277 41.6778C131.095 41.9869 130.71 42.2297 130.426 42.4421C136.168 44.3569 140.581 48.5864 143.269 53.9748C145.013 57.476 146.811 63.1706 145.584 67.0774C145.479 67.4085 145.347 67.632 145.129 67.8996C144.826 68.0403 144.801 68.0762 144.479 68.0072C139.776 62.3153 136.405 61.0213 129.328 59.6943C135.875 62.9223 141.077 67.2319 143.486 74.364C145.154 79.3054 144.895 84.4372 142.538 89.0833C141.91 90.3221 140.121 93.4426 138.822 93.9447C138.604 94.0275 138.527 93.9696 138.315 93.9171C137.739 92.7115 137.962 91.194 137.573 89.9276C136.033 84.9034 131.707 81.0491 126.859 79.3468L125.715 78.9522C122.812 83.2535 118.84 86.3629 113.671 87.3727C111.231 87.8501 102.959 88.5564 100.809 87.2238C100.63 87.1106 100.522 86.9617 100.409 86.7878C100.511 86.4319 100.674 86.3105 100.982 86.1229C101.837 85.6042 102.838 85.2897 103.739 84.8565C106.071 83.7364 107.259 81.4574 107.962 79.0571C108.191 78.2707 108.362 77.4706 108.469 76.6567C108.577 75.8428 108.627 75.0289 108.61 74.2095C105.206 73.9998 101.818 74.0826 98.4133 74.1598C92.7651 74.2867 87.1472 74.5571 81.5375 75.2579C79.0373 75.5697 76.5922 76.2153 74.0947 76.5188C71.6524 76.8167 69.1687 76.4719 66.7842 77.1975C65.1386 77.6996 63.7106 78.7149 62.4398 79.8489C58.2085 83.6288 54.6304 87.9963 51.1516 92.4521C49.1586 95.0152 47.2207 97.617 45.3407 100.263C43.4607 102.909 41.6386 105.593 39.8744 108.319C38.1102 111.045 36.4066 113.807 34.7637 116.607C33.1208 119.408 31.5385 122.241 30.0169 125.111C31.555 124.098 33.0601 123.127 34.7527 122.382C39.0392 115.6 46.3607 110.063 54.2555 108.297C62.5749 106.435 69.9626 109.39 76.8844 113.829C79.3819 115.429 81.86 117.231 84.5174 118.558C85.5594 119.079 88.6936 119.8 89.2697 120.514L89.154 120.693C87.8666 120.87 86.4194 120.798 85.1018 120.878C67.8042 121.907 53.4065 115.733 36.1558 122.716C33.9946 123.59 30.7529 125.011 29.2753 126.885C27.8336 128.714 26.7117 131.65 25.6945 133.802C22.7284 140.172 19.9498 146.625 17.3614 153.159C14.7729 159.692 12.3774 166.297 10.1777 172.971L10.2659 172.842C11.1259 171.528 11.8179 170.108 12.6393 168.769C14.4146 165.875 16.3304 163.02 18.2793 160.239C24.5478 151.285 33.0656 143.395 42.8074 138.379C46.1457 136.66 49.6465 135.322 53.1529 133.989C56.7888 132.607 60.4358 131.258 64.0084 129.715C65.0338 129.274 66.2439 128.871 67.1812 128.289C67.9861 127.787 68.7359 127.097 69.4581 126.482L69.5712 126.534C69.6511 127.403 69.1632 128.496 68.8599 129.299C66.889 134.527 63.7906 139.573 60.2373 143.866C48.7644 157.728 34.9181 163.075 19.6466 171.451C17.0802 172.858 14.5524 174.274 12.0466 175.791C11.0129 176.417 9.89651 177.011 8.92343 177.728C8.21499 179.971 7.55892 182.258 6.97728 184.537C6.63547 185.87 6.47558 187.489 5.89394 188.731C5.70649 189.128 5.40878 189.407 5.02837 189.617C4.1187 190.113 2.88375 190.086 1.91894 189.777C1.22704 189.553 0.557186 189.131 0.215369 188.466C0.0141382 188.077 -0.0465067 187.671 0.00862507 187.236C0.32012 184.7 1.49718 181.684 2.23319 179.199C4.25929 172.37 6.30467 165.555 8.72496 158.853C10.9164 152.781 13.4112 146.672 16.1485 140.826C16.1374 140.785 16.1264 140.743 16.1126 140.705C15.7377 139.502 14.9549 138.326 14.3622 137.214C13.2954 135.214 12.1983 133.203 11.2528 131.142C5.15793 117.863 0.730851 102.351 7.76015 88.4957C8.32525 87.381 9.55194 84.6192 10.7125 84.1006L10.9688 84.222C11.1425 85.0579 10.9991 85.9739 11.0488 86.832C11.148 88.5536 11.4788 90.2559 11.9281 91.9196C12.7551 94.9932 14.0066 97.915 15.0431 100.92C15.4924 102.227 15.8893 103.552 16.2284 104.893C16.5675 106.233 16.8514 107.585 17.0774 108.951C18.2517 116.133 18.1635 123.679 17.546 130.913C17.2842 133.984 16.7852 137.093 16.6419 140.164C18.6955 136.257 20.3633 132.157 22.4225 128.25C24.9061 123.549 27.4863 118.9 30.1602 114.306C31.4558 112.105 32.8672 109.977 34.1462 107.767C33.2421 105.588 32.0843 103.513 31.2353 101.314C30.0582 98.2681 28.8894 95.0125 28.1396 91.8286C26.1135 83.2259 26.3947 73.0838 29.7798 64.8923C30.5103 63.1237 31.9189 59.766 33.3578 58.5769C33.4846 58.5465 33.6335 58.4692 33.752 58.5382C33.9229 60.3371 33.9891 62.1636 34.3447 63.9376C35.5135 69.7702 37.6416 75.3379 38.0413 81.3222C38.5981 89.6407 36.029 97.6749 35.5162 105.919C37.603 103.13 39.5354 100.222 41.6414 97.4459C44.8308 93.2412 48.3206 89.1358 51.8049 85.1766C54.7159 81.8713 57.9824 78.9136 60.932 75.6552C61.5191 75.0068 62.1449 74.3143 62.5363 73.5252C63.0298 72.532 63.2696 71.3732 63.6417 70.3248C64.3254 68.4017 67.8979 58.541 69.6401 58.0637C70.1611 58.4996 70.1335 59.3908 70.1886 60.0336L70.2107 60.2985C76.0574 52.209 81.0799 43.5954 82.8055 33.616C78.2268 30.1341 73.1409 28.578 67.4072 29.3699C65.9517 29.5713 64.5983 29.9437 63.2448 30.5148C62.6052 30.7852 61.9023 31.1963 61.2297 31.3563C60.921 31.4308 60.8493 31.3619 60.5764 31.2239C59.8542 30.2969 60.1271 28.7518 60.2649 27.6593C60.841 23.0848 63.129 19.9809 66.7346 17.2136C70.2906 14.4849 74.3704 13.0199 78.8801 13.6269C79.3405 13.6903 79.7981 13.7731 80.2474 13.8807L80.2612 13.8862Z" fill="black"/>
<path d="M33.708 105.246L34.2262 105.105C34.5157 104.683 34.3861 104.048 34.5184 103.552C34.7913 103.894 34.7362 104.299 34.7748 104.73C34.7252 105.513 34.6535 106.297 34.5653 107.078L33.708 105.249V105.246Z" fill="#FEFEFE"/>
<path d="M115.882 27.2314L115.976 27.4742L115.612 28.1971C115.761 28.2661 115.843 28.3599 116.003 28.2826C116.243 28.1668 116.375 27.9405 116.533 27.7336C116.643 27.706 116.77 27.6563 116.883 27.6536C116.337 28.4289 115.73 29.1269 115.105 29.8332C114.939 29.618 114.735 29.4497 114.531 29.2704C114.925 28.5696 115.43 27.8991 115.882 27.2342V27.2314Z" fill="#E7605D"/>
<path d="M113.797 27.1734C114.547 26.3512 115.291 25.5263 116.102 24.7593C115.619 26.0422 115.021 26.8782 114.109 27.8908C113.8 28.1998 113.546 28.415 113.116 28.5364L112.976 28.3902C113.053 27.8687 113.452 27.5376 113.797 27.1707V27.1734Z" fill="#E7605D"/>
<path d="M113.307 24.4175L113.411 24.5334C112.521 25.6259 111.815 26.782 111.176 28.0346C110.925 27.6014 110.748 27.2675 110.897 26.7489C111.209 25.659 112.372 24.9389 113.307 24.4175Z" fill="#E7605D"/>
<path d="M124.102 40.0001L124.248 39.9863C124.645 40.1657 124.912 40.872 125.116 41.2472H121.56C121.304 41.261 121.089 41.2417 120.835 41.2141C121.563 40.643 123.184 40.3533 124.102 40.0029V40.0001Z" fill="#FEFEFE"/>
<path d="M102.942 45.1211C103.072 45.466 103.221 45.8109 103.29 46.1723C101.633 47.3697 99.9734 48.4954 98.1348 49.4059C99.2677 47.7229 101.36 46.4068 102.942 45.1211Z" fill="#FCDF6B"/>
<path d="M114.52 24.2021C114.887 24.3042 115.113 24.3953 115.328 24.707C115.176 25.5044 113.04 27.4743 112.455 28.1889L112.342 28.3048C112 28.3434 112.061 28.3296 111.791 28.1751C111.763 28.0124 111.75 27.993 111.78 27.8054C111.976 26.6604 113.654 24.9305 114.523 24.2021H114.52Z" fill="#E7605D"/>
<path d="M105.869 40.4526C105.61 40.9134 105.301 41.2941 104.99 41.719C104.546 42.3205 103.636 42.853 103.419 43.5676C103.399 43.6034 103.383 43.6393 103.358 43.6724C103.168 43.9097 98.6387 47.8275 98.2224 48.1034C97.944 48.291 97.6353 48.4483 97.2907 48.4234C97.004 48.4014 96.7201 48.3738 96.4307 48.36C99.3499 45.6065 102.627 42.8254 105.872 40.4526H105.869Z" fill="#FCDF6B"/>
<path d="M126.693 38.93C127.509 38.8279 128.333 38.7507 129.102 39.1038C129.813 39.4294 130.326 39.7908 130.61 40.533C130.591 40.751 130.618 40.8972 130.483 41.0793C130.1 41.598 129.571 41.6697 128.97 41.7498C128.016 41.6697 127.062 41.4711 126.117 41.3083C125.792 40.762 125.431 40.2323 125.086 39.6998C125.61 39.3963 126.139 39.1618 126.693 38.9273V38.93Z" fill="#F49CA1"/>
<path d="M114.531 29.2676C114.735 29.4497 114.936 29.6152 115.105 29.8304C110.371 35.2436 105.352 40.1298 99.7861 44.6767C101.33 42.6461 103.383 40.8279 105.189 39.0207C107.041 37.1667 108.819 35.2464 110.633 33.3564C111.934 31.999 113.293 30.6885 114.531 29.2703V29.2676Z" fill="#ECC2A0"/>
<path d="M105.87 40.4527C106.793 39.4402 107.846 38.5242 108.819 37.5557C110.55 35.8176 112.262 34.0601 113.949 32.2777C116.601 29.4829 121.138 23.6779 124 21.7383L124.16 21.8376C124.16 22.1356 124.035 22.3011 123.856 22.5246C122.641 24.0393 121.18 25.4023 119.912 26.8839C117.428 29.7946 115.134 32.7661 112.419 35.4699C110.071 37.8096 106.14 41.7798 103.419 43.5649C103.637 42.8503 104.546 42.3178 104.99 41.7164C105.302 41.2942 105.61 40.9135 105.87 40.45V40.4527Z" fill="url(#paint0_linear_1032_12879)"/>
<path d="M135.836 26.3292H135.908C137.019 26.3486 137.73 26.6576 138.548 27.4246C139.797 28.5972 140.624 30.5147 140.644 32.2336C140.657 33.2737 140.409 34.0186 139.701 34.7774C139.472 34.8574 139.207 34.9622 138.962 34.965C138.667 34.9705 138.358 34.7829 138.143 34.5953C136.754 33.3813 135.373 29.5518 135.276 27.7088C135.246 27.099 135.447 26.7707 135.836 26.3237V26.3292Z" fill="#FCDF6B"/>
<path d="M122.409 39.5809C119.052 40.7645 115.738 42.1881 112.53 43.7249C110.156 44.8616 102.239 49.2899 100.045 49.5658C100.577 48.8539 101.988 48.1945 102.744 47.6896C109.365 43.2531 114.106 41.0211 121.588 38.2676C121.927 38.6952 122.197 39.076 122.406 39.5781L122.409 39.5809Z" fill="#FCDF6B"/>
<path d="M124.879 16.5736C125.096 16.5653 125.309 16.5543 125.527 16.5681C127.073 16.6702 128.49 17.6937 129.43 18.8746C130.141 19.7685 130.805 21.0156 130.634 22.1965C130.508 23.0711 130.078 23.6174 129.372 24.1112C129.036 24.1471 128.683 24.1609 128.355 24.0754C126.8 23.6753 125.391 21.8516 124.584 20.53C124.088 19.7189 123.412 18.4856 123.754 17.5144C123.947 16.9626 124.383 16.7778 124.881 16.5763L124.879 16.5736Z" fill="#FCDF6B"/>
<path d="M107.463 69.3179H107.527C108.144 69.8697 108.378 72.1072 108.558 72.9763C101.683 72.7694 94.8187 72.9349 87.9631 73.4757C85.4326 73.6578 82.9158 73.9972 80.3825 74.16C80.195 73.9696 80.0159 73.793 79.7981 73.6385L79.6189 73.5116C78.8085 73.1833 77.9567 72.9294 77.127 72.648C82.2459 71.652 87.398 70.9015 92.5887 70.3994C97.5423 69.958 102.51 69.8035 107.46 69.3179H107.463Z" fill="#F49CA1"/>
<path d="M83.8805 34.6781C85.3718 35.6575 86.7005 37.5198 87.748 38.9518C87.3869 41.1093 87.0258 43.2558 86.3917 45.3527C83.9522 53.4146 78.4197 59.5506 71.9913 64.7321C71.247 65.328 70.4752 65.8522 69.6758 66.3709C69.9625 65.0687 69.8302 63.4602 70.3511 62.2545C70.9852 60.7922 72.6722 59.0347 73.6315 57.6607C75.1283 55.4866 76.5231 53.2435 77.8105 50.937C80.6966 45.7224 82.4333 40.4306 83.8832 34.6753L83.8805 34.6781Z" fill="#F49CA1"/>
<path d="M99.1211 55.2578C99.5952 55.4509 100.158 56.3504 100.494 56.778C103.292 60.3372 105.591 64.0894 107.363 68.25C98.6718 68.7467 89.892 69.1716 81.3025 70.6697C78.1545 71.1829 76.6852 71.972 73.4297 70.9539C81.3135 67.9907 93.2964 61.3166 99.1183 55.2606L99.1211 55.2578Z" fill="#F49CA1"/>
<path d="M33.7077 105.245C32.0813 102.164 30.9842 98.4997 30.0249 95.1447C26.7142 83.5541 26.8465 71.7537 32.8118 61.0156C33.0682 62.958 33.3576 64.9058 33.8069 66.8123C34.6008 70.1894 35.6731 73.4616 36.2823 76.8855C37.622 84.3928 36.4505 90.7661 35.4747 98.1576C35.188 100.337 35.1273 102.561 34.7745 104.724C34.7387 104.294 34.7938 103.891 34.5181 103.546C34.3858 104.043 34.5181 104.677 34.2259 105.099L33.7077 105.24V105.245Z" fill="#00AE0C"/>
<path d="M88.7176 40.7036C89.8313 42.0693 90.774 43.6447 91.805 45.0877C94.0103 48.1944 96.2596 51.2707 98.5476 54.3166C92.9187 60.2678 83.7392 64.8837 76.4315 68.4235C74.7996 69.2236 73.1429 70.2251 71.3042 70.3879C70.4855 70.4597 69.6696 70.3962 68.8398 70.4817C69.0163 69.5906 69.2175 68.7077 69.4463 67.8303C70.1079 67.4772 70.7474 67.0881 71.3676 66.6605C73.5729 65.1706 75.5356 63.289 77.4211 61.4183C83.8881 55.0119 86.9176 49.7891 88.7204 40.7064L88.7176 40.7036Z" fill="#F49CA1"/>
<path d="M72.7382 1.29407C76.3549 0.822278 80.6056 1.56721 83.9548 2.95224C90.3501 5.59538 94.609 10.9865 97.1644 17.2743C97.7267 18.6566 98.3442 20.2899 98.3552 21.8019C98.3718 23.6504 95.2293 32.5289 94.3389 34.6672C94.1928 32.9649 94.0191 31.3012 93.567 29.6485C93.2197 28.3794 92.7345 27.1378 92.4231 25.8604C92.1116 24.5912 92.0564 23.2476 91.8111 21.9619C90.9786 17.6054 89.3991 13.5883 86.8878 9.93808C84.6026 6.85902 81.6117 4.50557 77.9592 3.2916C79.3568 4.35658 80.9336 5.1567 82.3091 6.27134C86.8437 9.94636 90.5513 17.4564 91.1909 23.2283C88.5693 19.0594 86.3806 16.6453 81.9067 14.4187C78.4086 8.04539 75.3928 4.26002 68.2588 2.03349C69.7336 1.64171 71.2194 1.42099 72.7382 1.29407Z" fill="#E7605D"/>
<path d="M58.4973 108.896C67.6602 108.595 73.9066 113.57 81.2998 118.003C82.6036 118.787 83.9819 119.463 85.3299 120.164C83.1163 119.446 80.8559 118.853 78.6672 118.07C72.9087 116.006 67.4231 113.583 61.2263 113.128C53.574 112.565 43.551 115.719 37.6905 120.801H37.8752C42.6606 117.3 48.885 114.588 54.7786 113.804C65.5651 112.201 73.8597 117.236 83.7614 119.957C81.0875 119.75 78.3943 119.929 75.7149 119.689C61.7032 118.428 49.1965 116.378 35.7168 121.94C35.783 121.86 35.8491 121.783 35.918 121.706C41.751 115.032 49.406 109.514 58.5 108.899L58.4973 108.896Z" fill="#00AE0C"/>
<path d="M123.278 59.9232C124.06 59.857 124.86 59.7659 125.643 59.8984C128.515 60.3895 132.341 62.5608 134.604 64.3321C139.271 67.9906 142.439 72.8051 143.153 78.7673C143.773 83.9432 142.171 88.0928 139.009 92.1155C138.861 89.8862 138.249 87.9107 137.154 85.9656C134.778 81.7388 130.855 79.2032 126.244 77.923C126.652 77.0815 126.982 76.2318 127.302 75.3516C128.286 72.4767 128.297 69.7812 127.302 66.9284L127.468 67.0084C128.904 67.7092 130.219 68.7272 131.423 69.7646C136.313 73.9777 138.342 78.8473 140.426 84.7985C140.206 83.579 139.996 82.3485 139.676 81.1483C138.235 75.7462 134.756 70.9841 130.406 67.5547C128.997 66.4428 127.443 65.5461 126.015 64.4645C124.129 63.0381 122.544 61.5096 120.466 60.315C121.395 60.1246 122.343 60.0336 123.283 59.9232H123.278Z" fill="#E7605D"/>
<path d="M9.88208 86.7407C9.93446 86.8042 10.8965 92.474 11.1667 93.3817C12.4292 97.6085 14.3119 101.579 15.3181 105.902C17.0244 113.233 16.9665 121.162 16.644 128.642C16.5034 131.9 16.1781 135.255 16.236 138.508L16.1395 138.497L16.1726 138.585L16.1175 138.398L16.0458 138.379L15.0424 136.367C14.1713 134.436 13.1293 132.579 12.2472 130.648C9.99786 125.734 8.09306 120.528 6.83881 115.266C4.47366 105.367 4.39647 95.6965 9.88484 86.7407H9.88208Z" fill="#00AE0C"/>
<path d="M76.4513 14.8105C77.2645 14.8105 78.0694 14.8823 78.8688 15.0202C83.0533 15.721 86.59 18.5242 89.0131 21.9095C92.0894 26.2053 94.2423 32.2145 93.3437 37.5366C92.8695 36.3723 92.6049 35.1307 92.2272 33.9333C91.2156 30.7191 89.4348 27.731 86.9456 25.4466C84.7321 23.4159 81.8432 22.2544 78.8137 22.3896C79.6875 22.9497 81.4049 23.0076 82.4303 23.3718C86.4494 24.7927 89.1867 28.7188 90.9482 32.3828C93.0432 36.9158 93.1865 38.5105 92.2465 43.3664C87.5769 36.9103 85.1979 32.0875 77.1818 29.0747C71.6465 26.9944 66.5551 27.6345 61.29 30.0265C61.3893 26.6192 62.1832 23.7498 64.3912 21.1039C67.5503 17.324 71.5776 15.2437 76.4513 14.8133V14.8105Z" fill="#E7605D"/>
<path d="M68.9199 60.8062L69.0412 60.9496C69.4961 63.9018 67.9717 68.948 67.1144 71.845C71.6545 71.2242 74.3697 72.5706 78.4246 74.4247C73.8432 75.9973 68.4237 74.822 64.6031 76.8692C59.7901 79.4489 54.1777 86.7492 50.8174 91.0036C37.0234 108.465 27.6896 125.491 19.0367 145.861C16.0375 152.919 13.1376 160.164 10.7283 167.451C9.12951 172.279 7.88353 177.212 6.45011 182.09C5.93738 183.834 5.47427 187.158 4.38818 188.505C3.98847 188.684 3.64114 188.734 3.2056 188.706C2.54126 188.667 1.75839 188.527 1.29528 188.011C1.03616 186.852 5.02495 174.147 5.62037 172.26C8.42658 163.177 11.7042 154.268 15.4476 145.53C16.7294 142.603 18.2152 139.758 19.5797 136.87C23.9103 127.693 28.7178 118.594 34.2255 110.066C36.4556 106.611 38.9145 103.204 41.3458 99.8877C45.2215 94.5986 49.4777 89.3979 53.9434 84.6L60.5316 77.6251C61.4551 76.6319 62.5605 75.6249 63.3103 74.5019C64.5535 72.6368 64.9615 69.8613 65.7416 67.7479C66.6264 65.3475 67.7318 63.0713 68.9227 60.8117L68.9199 60.8062Z" fill="#00AE0C"/>
<path d="M120.81 42.4032C122.478 42.2101 124.341 42.3839 125.998 42.6212C126.345 42.6736 126.69 42.7343 127.034 42.8033C127.379 42.8723 127.721 42.9495 128.06 43.0351C128.399 43.1206 128.738 43.2144 129.074 43.3165C129.411 43.4186 129.741 43.5289 130.072 43.6476C130.403 43.7662 130.728 43.8931 131.054 44.0283C131.376 44.1635 131.699 44.307 132.016 44.456C132.333 44.6077 132.647 44.765 132.956 44.9305C133.264 45.0961 133.57 45.2699 133.871 45.4492C134.171 45.6313 134.469 45.8189 134.758 46.012C135.051 46.2079 135.337 46.4093 135.618 46.619C135.9 46.8287 136.178 47.0439 136.448 47.2674C136.718 47.4909 136.986 47.7199 137.245 47.9544C137.504 48.1889 137.76 48.4317 138.006 48.68C138.254 48.9283 138.496 49.1822 138.731 49.4415C138.968 49.7009 139.197 49.9685 139.42 50.2389C139.643 50.5093 139.858 50.7879 140.068 51.0693C142.973 54.9706 145.324 60.9604 144.605 65.8936C139.839 60.3038 132.104 57.8013 124.89 58.3642C122.878 58.5214 120.477 59.2747 118.495 58.8029C116.496 58.3283 114.484 56.924 112.703 55.939C110.658 54.7885 108.585 53.6904 106.481 52.6447C107.962 52.2502 109.456 51.9191 110.964 51.6515C112.471 51.3839 113.988 51.1769 115.512 51.0335C124.297 50.214 132.878 51.2873 139.864 57.0812L139.902 56.9626C138.943 55.8949 137.725 55.034 136.578 54.1815C127.095 48.2965 115.766 49.5602 105.428 51.9522C104.499 51.588 103.584 51.1962 102.68 50.7769C104.061 50.1395 105.359 49.3449 106.765 48.749C108.72 47.9185 110.884 47.4136 112.943 46.9032C120.082 45.1347 126.541 44.4725 133.543 47.3722C133.744 47.455 133.636 47.4523 133.854 47.3722C133.308 47.0715 132.757 46.7708 132.187 46.5197C124.013 42.9578 114.404 45.0078 106.421 48.1089C104.932 48.6883 103.617 49.734 102.107 50.2471C101.803 50.3492 101.63 50.3879 101.332 50.2527L101.489 50.0595C104.789 48.8538 107.948 47.1046 111.082 45.5237C113.014 44.5498 114.996 43.4958 117.091 42.9275C118.318 42.5936 119.545 42.4943 120.807 42.395L120.81 42.4032Z" fill="#E7605D"/>
<path d="M96.9412 49.9053C97.8068 50.1729 98.6834 50.7523 99.5269 51.1192C102.319 52.3305 105.048 53.3816 107.684 54.9267C111.981 57.4512 116.221 60.6296 117.505 65.7117C118.575 69.9468 117.403 74.9241 115.463 78.737C114.947 79.7524 114.231 80.6684 113.646 81.6506C113.869 81.5568 113.828 81.6037 113.969 81.4574C117.111 78.1687 118.953 73.3321 118.936 68.7908C118.922 64.4315 117.006 61.1041 113.988 58.0913C117.299 59.8736 121.07 61.6891 123.818 64.2632C124.113 64.5695 124.408 64.8757 124.681 65.1985C126.324 67.1271 126.955 69.7399 126.732 72.234C126.384 76.0911 123.895 80.1773 120.954 82.6162C115.821 86.8734 109.266 87.0776 102.931 86.4954C103.521 86.2857 104.125 86.0843 104.668 85.7753C107.182 84.3434 108.604 81.6837 109.302 78.9578C111.595 70.013 105.839 61.8132 100.767 55.0343C99.5379 53.3927 98.0439 51.8062 97.0129 50.0377C96.9881 49.9936 96.9633 49.9494 96.9385 49.9053H96.9412Z" fill="#E7605D"/>
<path d="M100.334 3.00159C101.812 3.16713 103.262 3.34922 104.684 3.8017C108.563 5.03775 112.634 8.10578 115.145 11.2814C117.483 14.2391 119.506 18.7832 119.01 22.6375C118.831 24.0281 118.007 26.7706 116.885 27.6452C116.772 27.6479 116.645 27.6976 116.535 27.7252C116.377 27.9321 116.245 28.1556 116.005 28.2742C115.845 28.3542 115.763 28.2577 115.614 28.1887L115.978 27.4658L115.884 27.223C116.281 26.4395 116.989 25.5455 116.678 24.6213C116.515 24.1384 116.212 23.8294 115.749 23.6418C114.762 23.239 113.574 23.4625 112.64 23.8929C111.611 24.3674 110.387 25.2503 109.988 26.3595C109.811 26.8506 109.872 27.3941 110.126 27.8466C110.478 28.4811 111.256 29.1709 111.97 29.3475C112.576 29.4992 113.155 29.2895 113.734 29.1102C109.911 32.9949 106.131 36.921 102.402 40.894C100.836 42.5549 97.5389 46.3872 95.8161 47.557C95.4632 47.4825 95.4467 47.4494 95.1958 47.1818L95.4715 46.8893H95.4136C97.0262 44.9884 98.6967 43.1012 100.191 41.1092C101.362 39.5448 102.388 37.8784 103.427 36.2285C107.308 30.0593 110.776 23.0017 110.145 15.4944C109.938 13.0279 109.362 10.4289 107.923 8.37616C107.948 8.43134 107.975 8.48928 108 8.54446C110.671 14.4984 109.602 21.0704 107.328 26.9444C104.563 34.082 100.147 41.3961 94.6666 46.7928C93.9664 45.9016 93.3131 45.0215 92.7314 44.0475C93.9885 40.7312 94.7686 37.2631 95.8905 33.8971C99.0578 24.4061 104.193 12.9975 100.345 2.98779L100.334 3.00159Z" fill="#E7605D"/>
<path d="M67.9116 129.136C67.9116 129.219 67.9226 129.301 67.906 129.381C67.6607 130.452 65.2239 134.571 64.5347 135.763C63.8869 136.855 63.2061 137.926 62.4866 138.972C61.7699 140.017 61.0173 141.041 60.2289 142.034C59.4433 143.03 58.6218 143.999 57.7701 144.939C56.9183 145.88 56.0362 146.791 55.1237 147.674C44.8554 157.727 33.1785 162.765 20.8318 169.589C18.8112 170.703 16.7465 171.818 14.8086 173.073C12.8707 174.329 11.0045 175.948 8.86816 176.856C10.5249 175.534 11.8866 173.788 13.3669 172.27C15.9802 169.591 18.6926 166.954 21.4437 164.413C29.5288 156.949 37.4016 152.027 46.6775 146.286C47.1517 145.98 47.5955 145.66 48.0365 145.304L47.9042 145.295C45.4481 146.529 43.105 148.049 40.7564 149.475C37.8482 151.244 34.94 153.01 32.1558 154.971C24.0074 160.716 16.4378 167.726 9.89086 175.239L9.93496 175.145C11.9032 170.8 14.6653 166.763 17.4935 162.942C24.7709 153.117 33.3081 144.277 44.4612 138.916C52.1108 135.239 60.2675 132.869 67.906 129.136H67.9116Z" fill="#00AE0C"/>
</g>
<defs>
<linearGradient id="paint0_linear_1032_12879" x1="114.225" y1="33.1496" x2="113.323" y2="32.2289" gradientUnits="userSpaceOnUse">
<stop stop-color="#FCDE51"/>
<stop offset="1" stop-color="#EBEF7D"/>
</linearGradient>
<clipPath id="clip0_1032_12879">
<rect width="146" height="190" fill="white"/>
</clipPath>
</defs>
</svg>
