<svg width="158" height="156" viewBox="0 0 158 156" fill="none" xmlns="http://www.w3.org/2000/svg">
<path d="M35.4513 151.758L35.0403 152.043L35.0402 152.042L35.0396 152.042L35.037 152.038L35.0261 152.022L34.9828 151.96C34.9446 151.906 34.8883 151.826 34.8161 151.725C34.6716 151.523 34.464 151.237 34.2119 150.899C33.7069 150.222 33.0275 149.345 32.3232 148.535C31.6108 147.716 30.9027 147 30.3392 146.615C30.0474 146.416 29.8646 146.356 29.7792 146.352C29.775 146.352 29.7715 146.352 29.7687 146.352C29.7622 146.361 29.7516 146.377 29.739 146.406L29.7388 146.407C28.7778 148.625 28.6531 150.919 28.7753 152.673C28.8362 153.548 28.9579 154.281 29.064 154.794C29.0992 154.964 29.1326 155.11 29.1613 155.228L29.3407 155.231C29.6953 155.237 30.2156 155.246 30.8779 155.257C32.2025 155.278 34.0954 155.306 36.3681 155.337C40.9136 155.398 46.9781 155.466 53.0546 155.493C59.1322 155.521 65.218 155.508 69.8077 155.409C72.1039 155.359 74.0182 155.287 75.3677 155.189C76.0447 155.139 76.5663 155.084 76.9188 155.024C77.0258 155.005 77.1101 154.988 77.1742 154.972C77.1903 154.849 77.2045 154.674 77.2122 154.444C77.2246 154.076 77.2194 153.61 77.1961 153.085C77.1495 152.035 77.0314 150.766 76.8451 149.585C76.657 148.391 76.4059 147.331 76.1089 146.671C75.9545 146.329 75.8237 146.177 75.7534 146.131C75.7424 146.137 75.7254 146.148 75.7023 146.166C74.8345 146.861 73.3963 148.475 72.1469 149.957C71.529 150.689 70.9676 151.377 70.5605 151.881C70.3571 152.134 70.1923 152.34 70.0785 152.483C70.0216 152.554 69.9775 152.61 69.9477 152.648L69.9138 152.691L69.9053 152.702L69.9032 152.704L69.9027 152.705L69.9025 152.705L69.5094 152.396M35.4513 151.758C35.8107 152.105 35.8107 152.105 35.8108 152.105L35.8109 152.105L35.8116 152.105L35.8139 152.102L35.8229 152.093L35.8576 152.057C35.8879 152.025 35.9324 151.979 35.9892 151.919C36.1027 151.801 36.2655 151.629 36.4634 151.418C36.8589 150.997 37.3951 150.418 37.957 149.788C38.5182 149.158 39.1084 148.474 39.6104 147.843C40.0848 147.246 40.504 146.668 40.7373 146.219C40.7562 146.221 40.7823 146.224 40.8166 146.23C41.0174 146.27 41.3242 146.404 41.7299 146.647C42.5271 147.123 43.5392 147.918 44.5487 148.782C45.5529 149.642 46.5342 150.554 47.2658 151.253C47.6312 151.601 47.9336 151.896 48.1444 152.103C48.2497 152.207 48.3322 152.289 48.3882 152.345L48.4519 152.408L48.4679 152.424L48.4719 152.428L48.4729 152.429L48.4731 152.429L48.8277 152.077L48.4731 152.429L48.8896 152.849L49.234 152.368L54.1008 145.583C54.1669 145.491 54.2162 145.459 54.2389 145.448C54.2566 145.439 54.2748 145.435 54.3083 145.44C54.4017 145.454 54.5798 145.541 54.8389 145.798C55.3439 146.299 55.9122 147.196 56.4569 148.219C56.9944 149.229 57.4842 150.312 57.8408 151.147C58.0187 151.563 58.1627 151.916 58.2621 152.164C58.3118 152.288 58.3503 152.386 58.3763 152.453L58.4057 152.529L58.4131 152.548L58.4148 152.552L58.4152 152.553L58.4153 152.554L58.7231 153.361L59.2698 152.692L58.8826 152.376L59.2699 152.692L59.27 152.692L59.2706 152.691L59.2729 152.688L59.282 152.677L59.3175 152.633L59.4527 152.467C59.5695 152.324 59.7371 152.117 59.9409 151.866C60.3483 151.362 60.9002 150.677 61.4776 149.952C62.5537 148.601 63.7465 147.074 64.238 146.338C64.3601 146.405 64.5392 146.541 64.7719 146.766C65.3035 147.279 65.9585 148.098 66.6062 148.981C67.2495 149.859 67.8692 150.779 68.329 151.481C68.5587 151.831 68.7479 152.126 68.8795 152.334C68.9454 152.438 68.9968 152.519 69.0316 152.575L69.0712 152.638L69.0812 152.654L69.0836 152.658L69.0842 152.659L69.0843 152.659L69.5094 152.396M35.4513 151.758L35.0403 152.043L35.3872 152.543L35.8107 152.105L35.4513 151.758ZM69.5094 152.396L69.9025 152.705L69.4608 153.267L69.0844 152.66L69.5094 152.396ZM29.7757 146.344C29.7757 146.344 29.7754 146.344 29.7747 146.345L29.7757 146.344Z" fill="#2ECC71" stroke="black"/>
<path d="M92.1476 151.758L91.7366 152.043L91.7365 152.042L91.7359 152.042L91.7333 152.038L91.7224 152.022L91.6791 151.96C91.6409 151.906 91.5846 151.826 91.5124 151.725C91.3679 151.523 91.1602 151.237 90.9082 150.899C90.4032 150.222 89.7238 149.345 89.0195 148.535C88.307 147.716 87.599 147 87.0355 146.615C86.7437 146.416 86.5609 146.356 86.4755 146.352C86.4713 146.352 86.4678 146.352 86.465 146.352C86.4585 146.361 86.4479 146.377 86.4353 146.406L86.435 146.407C85.4741 148.625 85.3494 150.919 85.4715 152.673C85.5324 153.548 85.6542 154.281 85.7603 154.794C85.7955 154.964 85.8288 155.11 85.8576 155.228L86.037 155.231C86.3916 155.237 86.9119 155.246 87.5742 155.257C88.8988 155.278 90.7917 155.306 93.0644 155.337C97.6099 155.398 103.674 155.466 109.751 155.493C115.828 155.521 121.914 155.508 126.504 155.409C128.8 155.359 130.715 155.287 132.064 155.189C132.741 155.139 133.263 155.084 133.615 155.024C133.722 155.005 133.806 154.988 133.871 154.972C133.887 154.849 133.901 154.674 133.909 154.444C133.921 154.076 133.916 153.61 133.892 153.085C133.846 152.035 133.728 150.766 133.541 149.585C133.353 148.391 133.102 147.331 132.805 146.671C132.651 146.329 132.52 146.177 132.45 146.131C132.439 146.137 132.422 146.148 132.399 146.166C131.531 146.861 130.093 148.475 128.843 149.957C128.225 150.689 127.664 151.377 127.257 151.881C127.053 152.134 126.889 152.34 126.775 152.483C126.718 152.554 126.674 152.61 126.644 152.648L126.61 152.691L126.602 152.702L126.599 152.704L126.599 152.705L126.599 152.705L126.206 152.396M92.1476 151.758C92.507 152.105 92.507 152.105 92.5071 152.105L92.5072 152.105L92.5079 152.105L92.5102 152.102L92.5192 152.093L92.5539 152.057C92.5842 152.025 92.6287 151.979 92.6854 151.919C92.799 151.801 92.9618 151.629 93.1597 151.418C93.5552 150.997 94.0914 150.418 94.6532 149.788C95.2145 149.158 95.8046 148.474 96.3067 147.843C96.7811 147.246 97.2003 146.668 97.4336 146.219C97.4525 146.221 97.4786 146.224 97.5129 146.23C97.7137 146.27 98.0205 146.404 98.4262 146.647C99.2234 147.123 100.235 147.918 101.245 148.782C102.249 149.642 103.231 150.554 103.962 151.253C104.327 151.601 104.63 151.896 104.841 152.103C104.946 152.207 105.029 152.289 105.084 152.345L105.148 152.408L105.164 152.424L105.168 152.428L105.169 152.429L105.169 152.429L105.524 152.077L105.169 152.429L105.586 152.849L105.93 152.368L110.797 145.583C110.863 145.491 110.912 145.459 110.935 145.448C110.953 145.439 110.971 145.435 111.005 145.44C111.098 145.454 111.276 145.541 111.535 145.798C112.04 146.299 112.608 147.196 113.153 148.219C113.691 149.229 114.181 150.312 114.537 151.147C114.715 151.563 114.859 151.916 114.958 152.164C115.008 152.288 115.047 152.386 115.073 152.453L115.102 152.529L115.109 152.548L115.111 152.552L115.112 152.553L115.112 152.554L115.419 153.361L115.966 152.692L115.579 152.376L115.966 152.692L115.966 152.692L115.967 152.691L115.969 152.688L115.978 152.677L116.014 152.633L116.149 152.467C116.266 152.324 116.433 152.117 116.637 151.866C117.045 151.362 117.596 150.677 118.174 149.952C119.25 148.601 120.443 147.074 120.934 146.338C121.056 146.405 121.235 146.541 121.468 146.766C122 147.279 122.655 148.098 123.302 148.981C123.946 149.859 124.565 150.779 125.025 151.481C125.255 151.831 125.444 152.126 125.576 152.334C125.642 152.438 125.693 152.519 125.728 152.575L125.768 152.638L125.777 152.654L125.78 152.658L125.781 152.659L125.781 152.659L126.206 152.396M92.1476 151.758L91.7366 152.043L92.0835 152.543L92.507 152.105L92.1476 151.758ZM126.206 152.396L126.599 152.705L126.157 153.267L125.781 152.66L126.206 152.396ZM86.472 146.344C86.472 146.344 86.4717 146.344 86.471 146.345L86.472 146.344Z" fill="#2ECC71" stroke="black"/>
<path d="M68.9264 143.532C68.6956 143.532 68.4949 143.377 68.4347 143.141C68.3244 142.677 57.0553 96.2935 30.9448 88.52C30.6738 88.4376 30.5233 88.1596 30.6036 87.8816C30.6839 87.6139 30.9548 87.4492 31.2257 87.5316C57.8882 95.4801 69.2977 142.42 69.4181 142.893C69.4884 143.171 69.3178 143.449 69.0469 143.511C69.0067 143.511 68.9666 143.522 68.9264 143.522V143.532Z" fill="#261D2A"/>
<path d="M17.4488 78.9234C17.4488 78.9234 0.851232 67.7007 12.3009 58.5681C23.7506 49.4355 29.7715 63.2425 30.6144 65.415C31.4573 67.5875 27.5638 51.4536 41.5523 54.0585C55.5408 56.6634 46.2185 73.1988 46.2185 73.1988C46.2185 73.1988 61.06 65.8063 64.0202 76.2465C66.9805 86.6867 48.7573 89.2916 48.7573 89.2916C48.7573 89.2916 65.1441 94.7691 55.029 105.93C44.623 117.42 35.6117 96.2517 35.6117 96.2517C35.6117 96.2517 36.4547 112.777 25.8579 113.22C15.2612 113.662 20.8807 94.5837 20.8807 94.5837C20.8807 94.5837 10.1535 101.935 2.9485 94.975C-4.25647 88.0149 2.18586 77.1834 17.4488 78.9234Z" fill="#8E54E9"/>
<path d="M31.0862 89.4867C34.9324 89.4867 38.0504 86.2876 38.0504 82.3413C38.0504 78.3949 34.9324 75.1958 31.0862 75.1958C27.24 75.1958 24.1221 78.3949 24.1221 82.3413C24.1221 86.2876 27.24 89.4867 31.0862 89.4867Z" fill="#EDD14E"/>
<path d="M28.4466 102.79C24.2319 102.79 22.2451 98.3315 21.7634 94.244C19.0038 95.1089 15.5318 94.8412 12.6518 93.4821C10.1933 92.3186 9.07942 90.3212 9.53098 87.8707C10.2936 83.7214 15.5117 79.0573 19.6962 78.7999C19.9672 78.7793 20.2281 78.769 20.4789 78.769C19.1744 76.1229 17.0872 71.15 18.0907 68.1641C18.4118 67.2066 19.0239 66.5167 19.907 66.1152C20.4087 65.8887 20.9907 65.7754 21.653 65.7754C24.242 65.7754 27.5936 67.5154 29.8615 69.1216C31.7179 66.2284 35.792 63.3044 40.7291 63.5206C41.9233 63.5721 42.9268 64.1383 43.6392 65.1576C45.1946 67.3919 45.1545 71.3868 44.442 74.4962C45.1645 74.3623 45.8669 74.2902 46.5593 74.2902C49.3189 74.2902 51.4664 75.3816 52.7709 77.4511C53.5235 78.6455 53.7041 79.9737 53.3128 81.3945C52.4999 84.2877 49.3591 87.0162 46.3888 88.6121C48.2753 90.3315 50.0013 92.854 49.7002 95.3045C49.4895 97.096 48.2653 98.5169 46.0676 99.5362C44.1811 100.411 42.2946 100.854 40.4582 100.854C37.7488 100.854 35.6917 99.9068 34.337 98.9699C33.4439 101.05 31.6878 102.368 29.3296 102.707C29.0185 102.749 28.7275 102.769 28.4365 102.769L28.4466 102.79ZM22.7368 93.8836C23.1181 97.6005 24.814 101.76 28.4466 101.76C28.6874 101.76 28.9383 101.74 29.1992 101.709C31.7982 101.338 32.9722 99.7524 33.5141 98.3624C31.7781 96.9004 30.6341 94.975 30.4937 93.2659C30.4134 92.3186 30.6542 91.495 31.1961 90.9081C31.6477 90.4139 32.0992 90.3109 32.3902 90.3109C32.7615 90.3109 33.3335 90.4756 33.8754 91.2479C34.8387 92.6172 35.3806 95.4692 34.6982 97.9918C35.9325 98.8875 37.8592 99.8554 40.4783 99.8554C42.1741 99.8554 43.9202 99.4435 45.6662 98.6301C47.5227 97.7653 48.5462 96.6121 48.7168 95.2118C48.9777 93.0291 47.1514 90.6198 45.4154 89.1372C43.9704 89.7961 42.6257 90.1565 41.5921 90.1565C40.7693 90.1565 40.1371 89.93 39.7357 89.4872C39.3845 89.096 39.2239 88.5606 39.2641 87.9119C39.3443 86.7073 40.0668 86.0278 41.2309 86.0278C42.3949 86.0278 43.9904 86.7382 45.5358 87.9428C48.3355 86.5323 51.5868 83.8656 52.3394 81.1577C52.6505 80.0354 52.51 78.9955 51.9179 78.0586C50.5131 75.8347 48.2251 75.361 46.5493 75.361C45.7666 75.361 44.9538 75.464 44.1309 75.6493C43.2378 78.5631 41.8029 80.2929 40.2575 80.2929C39.8762 80.2929 39.4949 80.1899 39.1135 79.984C38.2706 79.5103 38.2104 78.8514 38.2606 78.491C38.4512 76.9569 40.9599 75.4743 43.3181 74.7948C44.1209 71.778 44.2012 67.7934 42.8063 65.796C42.2645 65.0238 41.562 64.6223 40.6689 64.5811C36.073 64.3649 32.3401 67.0933 30.6542 69.76C31.9387 70.769 34.0961 72.7047 33.6646 74.0534C33.474 74.6609 32.8619 74.9698 31.8584 74.9801C31.748 74.9801 31.6276 74.9801 31.4971 74.9698C30.0019 74.8771 29.3296 74.177 29.0286 73.6107C28.5469 72.6944 28.6573 71.4382 29.3296 70.0586C27.1822 68.5245 24.0112 66.8462 21.6229 66.8462C21.1011 66.8462 20.6495 66.9286 20.2782 67.0933C19.6561 67.3713 19.2346 67.8449 19.0038 68.5348C18.0405 71.4074 20.5793 76.854 21.5928 78.8308C24.6233 79.047 25.687 80.3752 25.6569 81.4872C25.6368 82.3726 24.9344 83.0625 24.0614 83.0625C23.5195 83.0625 22.1648 82.7742 21.1412 80.1384C21.1412 80.1384 21.071 80.0252 20.9706 79.8398C20.5893 79.8398 20.1679 79.8398 19.7263 79.8707C15.9934 80.1075 11.1566 84.4216 10.4843 88.1076C10.123 90.105 10.976 91.6185 13.0432 92.5863C15.7726 93.8836 19.0941 94.0999 21.643 93.235C21.5426 91.4538 21.7132 89.374 22.4959 88.5194C22.797 88.1796 23.1181 88.1178 23.3288 88.1178C23.5395 88.1178 23.7603 88.1899 23.971 88.3238C25.3859 89.2298 25.6067 90.2388 25.5365 90.9184C25.4261 92.0921 24.3724 93.1938 22.6966 93.9351L22.7368 93.8836ZM32.3902 91.3302C32.2096 91.3302 32.039 91.4847 31.9286 91.6082C31.4971 92.0818 31.457 92.7202 31.4971 93.1732C31.6075 94.4911 32.5006 96.0458 33.8352 97.2813C34.2667 95.1912 33.8252 92.9261 33.0626 91.845C32.8318 91.5156 32.5909 91.3302 32.3902 91.3302ZM23.3589 89.096C23.3589 89.096 23.3087 89.1166 23.2586 89.1681C22.8873 89.5799 22.5963 90.9184 22.6565 92.782C23.7804 92.2157 24.5029 91.4744 24.5731 90.7639C24.6434 90.0535 24.0112 89.4872 23.4693 89.1475C23.4191 89.1166 23.379 89.096 23.3589 89.096ZM41.2409 87.0265C40.6087 87.0265 40.3177 87.3045 40.2675 87.9634C40.2475 88.3238 40.3077 88.5915 40.4682 88.7665C40.7291 89.0548 41.2208 89.1063 41.5921 89.1063C42.3648 89.1063 43.3783 88.8592 44.4922 88.3958C43.278 87.5413 42.0838 87.0265 41.2409 87.0265ZM22.1748 79.881C23.2686 82.4859 24.6735 82.2491 24.6935 81.4254C24.7036 80.8179 23.9209 80.1281 22.1748 79.881ZM42.9769 75.9582C40.7693 76.7201 39.3644 77.935 39.2841 78.5837C39.2841 78.6558 39.254 78.8411 39.6253 79.047C39.8461 79.1706 40.0769 79.2324 40.2876 79.2324C41.2409 79.2324 42.2544 77.9762 42.987 75.9479L42.9769 75.9582ZM30.1926 70.6352C29.7511 71.6236 29.6507 72.509 29.9518 73.0856C30.2127 73.5798 30.7646 73.8475 31.5975 73.899C31.7079 73.899 31.7982 73.899 31.8985 73.899C32.5407 73.899 32.7314 73.7446 32.7515 73.6931C32.8619 73.343 32.1193 72.1487 30.2026 70.6352H30.1926Z" fill="#261D2A"/>
<path d="M35.7527 82.2081C35.552 82.2081 35.3614 82.0845 35.2811 81.8786C33.9766 78.3986 31.3475 78.3265 31.2371 78.3265C30.9662 78.3265 30.7354 78.0897 30.7354 77.8117C30.7354 77.5337 30.9561 77.2969 31.2371 77.2969C31.3776 77.2969 34.659 77.3484 36.2143 81.508C36.3147 81.7757 36.1842 82.0742 35.9233 82.1772C35.8631 82.1978 35.8029 82.2081 35.7427 82.2081H35.7527Z" fill="#261D2A"/>
<path d="M42.2561 120.576C42.2277 120.53 42.2008 120.487 42.1757 120.446C47.5797 118.343 52.5002 119.266 56.1257 120.76C57.9981 121.531 59.5187 122.453 60.5706 123.182C61.0856 123.539 61.4871 123.848 61.7614 124.07C58.796 126.634 56.1263 127.683 53.7999 127.846C51.3609 128.018 49.234 127.22 47.4655 126.057C45.6935 124.892 44.2979 123.369 43.3417 122.128C42.8649 121.509 42.5005 120.964 42.2561 120.576Z" fill="white" stroke="black"/>
<path d="M41.0107 120.449C41.0129 120.453 41.0158 120.458 41.0192 120.464C41.3001 120.967 45.5181 128.527 52.6427 128.869V128.371H52.6911M41.0107 120.449L62.8564 124.433C59.6051 127.378 56.3338 128.871 53.1427 128.871V128.381C52.9909 128.381 52.8403 128.378 52.6911 128.371M41.0107 120.449C40.9404 120.325 40.9304 120.171 40.9806 120.027C41.0308 119.882 41.1311 119.779 41.2616 119.718M41.0107 120.449L41.2616 119.718M52.6911 128.371C49.3303 128.217 46.621 126.373 44.6829 124.438C42.7109 122.47 41.5898 120.461 41.4548 120.218C41.4527 120.215 41.4509 120.211 41.4492 120.208M52.6911 128.371H53.1427C56.17 128.371 59.3269 126.955 62.5208 124.063L62.5264 124.058M41.4492 120.208C41.4493 120.205 41.45 120.199 41.4528 120.191C41.4543 120.186 41.4556 120.184 41.4562 120.183C41.4568 120.182 41.4573 120.181 41.4578 120.181C41.4584 120.18 41.4616 120.177 41.4698 120.172M41.4492 120.208C41.4483 120.207 41.4475 120.205 41.4467 120.204L41.4467 120.204L41.4453 120.202C41.4458 120.202 41.4463 120.203 41.4467 120.204C41.4489 120.209 41.4493 120.211 41.4493 120.211C41.4493 120.211 41.4493 120.211 41.4493 120.211C41.4492 120.21 41.4492 120.209 41.4492 120.208ZM62.5264 124.058C62.526 124.059 62.5256 124.06 62.5254 124.061C62.5248 124.062 62.5262 124.058 62.5327 124.052C62.5334 124.052 62.5341 124.051 62.5349 124.05L62.5326 124.052L62.5277 124.056L62.5264 124.058ZM62.5264 124.058C62.5264 124.057 62.5264 124.057 62.5265 124.057C62.5269 124.055 62.527 124.054 62.527 124.052C62.527 124.051 62.5269 124.051 62.527 124.051C62.527 124.051 62.527 124.051 62.5269 124.051C62.5267 124.051 62.5244 124.045 62.5154 124.037L62.5138 124.036C62.2975 123.832 56.5981 118.694 48.6472 118.694C46.2126 118.694 43.7946 119.192 41.4698 120.172M41.4698 120.172C41.4715 120.172 41.4734 120.171 41.4755 120.17L41.2616 119.718M41.4698 120.172C41.4652 120.174 41.4607 120.176 41.4561 120.178L41.2616 119.718" fill="#2ECC71" stroke="black"/>
<path d="M49.6113 122.517C49.6113 122.517 60.77 122.64 62.5361 124.061L49.6113 122.517Z" fill="white"/>
<path d="M62.5252 124.575C62.4149 124.575 62.3045 124.545 62.2142 124.462C61.0301 123.505 53.8451 123.072 49.6004 123.031C49.3195 123.031 49.0987 122.794 49.1087 122.506C49.1087 122.228 49.3395 122.001 49.6105 122.001C50.7745 122.012 60.9999 122.176 62.8363 123.659C63.0571 123.834 63.0872 124.153 62.9166 124.38C62.8162 124.514 62.6657 124.575 62.5252 124.575Z" fill="#261D2A"/>
<path d="M59.5155 116.192C59.5058 116.155 59.4957 116.115 59.4851 116.072C59.4046 115.744 59.3013 115.267 59.2125 114.679C59.0347 113.501 58.917 111.885 59.1518 110.126C59.6025 106.751 61.3485 102.831 66.5571 100.438C66.5626 100.467 66.5683 100.497 66.5741 100.527C66.656 100.967 66.7607 101.597 66.8505 102.355C67.0306 103.876 67.149 105.898 66.9124 107.929C66.6752 109.965 66.0863 111.966 64.8897 113.488C63.7658 114.917 62.0749 115.963 59.5155 116.192Z" fill="white" stroke="black"/>
<path d="M65.4816 113.565C64.1073 115.464 62.0574 116.543 59.3306 116.735H59.1486L59.1471 116.731C59.1472 116.731 59.1471 116.731 59.1469 116.73C59.1449 116.724 59.1302 116.676 59.1061 116.589C59.0802 116.495 59.0441 116.358 59.0027 116.183C58.9199 115.833 58.8158 115.33 58.7282 114.714C58.5528 113.479 58.445 111.799 58.7002 109.975C59.2072 106.352 61.143 102.149 66.9258 99.7224C66.9262 99.7229 66.9265 99.7233 66.9269 99.7238C66.9303 99.7284 66.9349 99.7361 66.9387 99.7477C66.9947 99.982 67.5012 102.21 67.5618 104.993C67.6238 107.843 67.215 111.172 65.4817 113.565L65.4816 113.565Z" fill="#2ECC71" stroke="black"/>
<path d="M63.1575 108.484C63.1575 108.484 59.8962 114.147 59.1436 116.721L63.1575 108.484Z" fill="white"/>
<path d="M59.1434 117.236C59.1434 117.236 59.0431 117.236 59.003 117.215C58.742 117.133 58.5915 116.845 58.6618 116.577C59.4244 113.972 62.5854 108.464 62.7259 108.227C62.8663 107.98 63.1774 107.908 63.4183 108.041C63.6591 108.186 63.7394 108.505 63.5989 108.752C63.5688 108.803 60.3576 114.394 59.6351 116.875C59.5749 117.102 59.3742 117.246 59.1535 117.246L59.1434 117.236Z" fill="#261D2A"/>
<path d="M97.3553 142.502H97.3452C97.0642 142.502 96.8535 142.255 96.8535 141.977C97.847 102.007 121.84 75.9894 122.081 75.732C122.272 75.526 122.593 75.5157 122.793 75.7217C122.994 75.9173 123.004 76.2468 122.803 76.4527C122.563 76.7101 98.8404 102.461 97.857 142.008C97.857 142.286 97.6262 142.512 97.3553 142.512V142.502Z" fill="#261D2A"/>
<path d="M111.104 68.6275C111.104 68.6275 94.5065 57.4048 105.956 48.2722C117.406 39.1396 123.427 52.9466 124.27 55.1191C125.113 57.2916 121.219 41.1577 135.208 43.7626C149.196 46.3675 139.874 62.9029 139.874 62.9029C139.874 62.9029 154.715 55.5104 157.675 65.9506C160.636 76.3908 142.413 78.9957 142.413 78.9957C142.413 78.9957 158.799 84.4732 148.684 95.6341C138.278 107.124 129.267 85.9558 129.267 85.9558C129.267 85.9558 130.11 102.481 119.513 102.924C108.916 103.366 114.536 84.2878 114.536 84.2878C114.536 84.2878 103.809 91.6392 96.6038 84.6791C89.3988 77.719 95.8411 66.8875 111.104 68.6275Z" fill="#3498DB"/>
<path d="M124.741 79.1908C128.588 79.1908 131.706 75.9917 131.706 72.0454C131.706 68.099 128.588 64.8999 124.741 64.8999C120.895 64.8999 117.777 68.099 117.777 72.0454C117.777 75.9917 120.895 79.1908 124.741 79.1908Z" fill="#EDD14E"/>
<path d="M122.113 92.4938C117.898 92.4938 115.911 88.0356 115.429 83.9481C112.67 84.813 109.198 84.5453 106.318 83.1862C103.859 82.0227 102.745 80.0253 103.197 77.5748C103.96 73.4255 109.188 68.7614 113.362 68.504C113.633 68.4834 113.894 68.4731 114.145 68.4731C112.84 65.827 110.753 60.854 111.757 57.8682C112.078 56.9107 112.69 56.2208 113.573 55.8193C114.075 55.5928 114.657 55.4795 115.319 55.4795C117.908 55.4795 121.26 57.2195 123.527 58.8257C125.384 55.9325 129.438 53.0187 134.395 53.2247C135.589 53.2761 136.593 53.8424 137.305 54.8617C138.861 57.096 138.82 61.0909 138.108 64.2003C138.831 64.0664 139.533 63.9943 140.225 63.9943C142.985 63.9943 145.132 65.0857 146.437 67.1552C147.189 68.3496 147.37 69.6778 146.979 71.0986C146.166 73.9918 143.025 76.7203 140.055 78.3162C141.941 80.0356 143.667 82.5581 143.366 85.0086C143.156 86.8001 141.931 88.221 139.734 89.2403C137.847 90.1154 135.961 90.5582 134.124 90.5582C131.415 90.5582 129.358 89.6109 128.003 88.674C127.11 90.7538 125.354 92.0717 122.996 92.4114C122.685 92.4526 122.394 92.4732 122.103 92.4732L122.113 92.4938ZM116.403 83.5877C116.784 87.3046 118.48 91.4642 122.113 91.4642C122.353 91.4642 122.604 91.4436 122.865 91.4127C125.464 91.0421 126.638 89.4565 127.18 88.0665C125.444 86.6045 124.3 84.6791 124.16 82.97C124.079 82.0227 124.32 81.2093 124.862 80.6122C125.314 80.118 125.765 80.015 126.056 80.015C126.428 80.015 127 80.1797 127.541 80.9519C128.505 82.3316 129.047 85.1733 128.364 87.6959C129.588 88.5916 131.525 89.5594 134.134 89.5594C135.83 89.5594 137.576 89.1476 139.322 88.3342C141.179 87.4693 142.202 86.3162 142.373 84.9159C142.634 82.7332 140.807 80.3239 139.071 78.8412C137.626 79.5002 136.282 79.8606 135.248 79.8606C134.425 79.8606 133.793 79.634 133.392 79.1913C133.04 78.8001 132.88 78.2647 132.92 77.616C133 76.4114 133.723 75.7318 134.887 75.7318C136.051 75.7318 137.646 76.4423 139.192 77.6469C141.991 76.2363 145.243 73.5697 145.995 70.8618C146.306 69.7395 146.166 68.6996 145.574 67.7627C144.169 65.5387 141.881 65.0651 140.205 65.0651C139.423 65.0651 138.61 65.1681 137.787 65.3534C136.894 68.2672 135.459 69.9969 133.913 69.9969C133.532 69.9969 133.151 69.894 132.77 69.6881C131.927 69.2144 131.866 68.5555 131.917 68.1951C132.107 66.661 134.616 65.1784 136.974 64.4988C137.777 61.4821 137.857 57.4975 136.462 55.5001C135.92 54.7279 135.218 54.3263 134.325 54.2852C129.739 54.0792 125.996 56.7974 124.31 59.4641C125.595 60.4731 127.752 62.4087 127.321 63.7575C127.13 64.365 126.518 64.6739 125.514 64.6842C125.404 64.6842 125.284 64.6842 125.153 64.6739C123.658 64.5812 122.986 63.8811 122.685 63.3148C122.203 62.3985 122.313 61.1423 122.986 59.7627C120.838 58.2285 117.667 56.5503 115.279 56.5503C114.757 56.5503 114.306 56.6327 113.934 56.7974C113.312 57.0754 112.891 57.549 112.66 58.2388C111.696 61.1114 114.235 66.5581 115.249 68.5349C118.279 68.7511 119.343 70.0793 119.313 71.1913C119.293 72.0767 118.59 72.7666 117.717 72.7666C117.175 72.7666 115.821 72.4783 114.797 69.8425C114.797 69.8425 114.727 69.7292 114.627 69.5439C114.245 69.5439 113.824 69.5439 113.382 69.5748C109.649 69.8116 104.813 74.1257 104.14 77.8116C103.779 79.8091 104.632 81.3226 106.699 82.2904C109.429 83.5877 112.75 83.8039 115.299 82.9391C115.199 81.1579 115.369 79.0781 116.152 78.2235C116.453 77.8837 116.774 77.8219 116.985 77.8219C117.196 77.8219 117.416 77.894 117.627 78.0279C119.042 78.9339 119.263 79.9429 119.192 80.6225C119.082 81.7962 118.028 82.8979 116.353 83.6392L116.403 83.5877ZM126.056 81.0343C125.876 81.0343 125.705 81.1887 125.595 81.3123C125.163 81.7859 125.123 82.4243 125.163 82.8773C125.274 84.1952 126.167 85.7499 127.501 86.9854C127.933 84.8953 127.491 82.6302 126.729 81.5491C126.498 81.2196 126.257 81.0343 126.056 81.0343ZM117.025 78.8001C117.025 78.8001 116.975 78.8207 116.925 78.8721C116.553 79.284 116.262 80.6225 116.323 82.486C117.446 81.9198 118.169 81.1785 118.239 80.468C118.309 79.7576 117.677 79.1913 117.135 78.8515C117.085 78.8207 117.045 78.8001 117.025 78.8001ZM134.897 76.7306C134.265 76.7306 133.974 77.0085 133.924 77.6675C133.903 78.0279 133.964 78.2956 134.124 78.4706C134.385 78.7589 134.877 78.8104 135.248 78.8104C136.021 78.8104 137.034 78.5633 138.148 78.0999C136.934 77.2454 135.74 76.7306 134.897 76.7306ZM115.831 69.5851C116.925 72.19 118.329 71.9532 118.35 71.1295C118.36 70.522 117.577 69.8322 115.831 69.5851ZM136.643 65.6623C134.435 66.4242 133.03 67.6391 132.95 68.2878C132.95 68.3599 132.92 68.5452 133.291 68.7511C133.512 68.8747 133.743 68.9364 133.954 68.9364C134.907 68.9364 135.92 67.6803 136.653 65.652L136.643 65.6623ZM123.849 60.3392C123.407 61.3277 123.307 62.2131 123.608 62.7897C123.869 63.2839 124.421 63.5516 125.253 63.6031C125.364 63.6031 125.454 63.6031 125.555 63.6031C126.197 63.6031 126.387 63.4486 126.407 63.3972C126.518 63.0471 125.775 61.8528 123.859 60.3392H123.849Z" fill="#261D2A"/>
<path d="M129.417 71.9117C129.216 71.9117 129.025 71.7882 128.945 71.5822C127.641 68.1022 125.012 68.0301 124.901 68.0301C124.63 68.0301 124.399 67.7933 124.399 67.5153C124.399 67.2373 124.62 67.0005 124.901 67.0005C125.042 67.0005 128.323 67.052 129.878 71.2116C129.979 71.4793 129.848 71.7779 129.587 71.8808C129.527 71.9014 129.467 71.9117 129.407 71.9117H129.417Z" fill="#261D2A"/>
<path d="M92.8591 98.5785C98.3828 101 100.228 105.084 100.696 108.591C100.935 110.379 100.815 112.019 100.635 113.214C100.545 113.811 100.44 114.295 100.358 114.629C100.325 114.763 100.296 114.873 100.273 114.956C97.5322 114.758 95.7143 113.662 94.5141 112.135C93.2777 110.563 92.6796 108.511 92.4396 106.452C92.2 104.395 92.3202 102.353 92.5015 100.822C92.5921 100.058 92.6977 99.4223 92.7805 98.9788C92.8102 98.8197 92.837 98.6853 92.8591 98.5785Z" fill="#2ECC71" stroke="black" stroke-width="0.5"/>
<path d="M92.8529 98.5893L93.1439 98.7227C97.9511 100.927 99.8934 104.419 100.555 107.621C101.213 110.81 100.601 113.7 100.326 114.736L100.272 114.94L100.062 114.921C97.5727 114.699 95.6355 113.681 94.3326 111.885L92.8529 98.5893ZM92.8529 98.5893L92.794 98.904M92.8529 98.5893L92.794 98.904M92.794 98.904C92.6017 99.932 92.2548 102.16 92.3182 104.632C92.3813 107.098 92.8531 109.846 94.3325 111.884L92.794 98.904ZM93.925 112.199L93.9247 112.199C92.1422 109.733 91.7346 106.335 91.797 103.47C91.8592 100.615 92.3869 98.3403 92.4297 98.1649L92.4298 98.1649L92.4315 98.1568C92.4448 98.0931 92.4932 98.0264 92.5686 97.9848C92.6221 97.9552 92.6933 97.9484 92.7784 97.9784C98.6583 100.446 100.639 104.734 101.156 108.427C101.415 110.28 101.306 111.985 101.128 113.236C101.039 113.861 100.934 114.371 100.849 114.727C100.807 114.906 100.77 115.046 100.744 115.142C100.73 115.191 100.719 115.228 100.712 115.254L100.703 115.284C100.7 115.292 100.699 115.295 100.699 115.295C100.662 115.409 100.567 115.472 100.465 115.472H100.36L100.354 115.478C97.5185 115.3 95.3646 114.198 93.925 112.199Z" fill="#2ECC71" stroke="black" stroke-width="0.5"/>
<path d="M96.4424 106.98C96.4424 106.98 99.7037 112.643 100.456 115.217L96.4424 106.98Z" fill="white"/>
<path d="M100.456 115.733C100.235 115.733 100.045 115.588 99.9743 115.362C99.2518 112.881 96.0406 107.3 96.0105 107.238C95.87 106.991 95.9503 106.682 96.1912 106.528C96.432 106.384 96.733 106.466 96.8836 106.713C97.014 106.95 100.185 112.458 100.948 115.063C101.028 115.331 100.877 115.619 100.606 115.702C100.556 115.712 100.506 115.722 100.466 115.722L100.456 115.733Z" fill="#261D2A"/>
<path d="M98.5 128.922C98.5 128.922 105.053 113.745 118.399 119.614C118.399 119.614 110.281 136.994 98.5 128.922Z" fill="white"/>
<path d="M104.731 131.058H104.313C102.401 130.966 100.447 130.259 98.4998 128.931L98.4998 128.931L98.4988 128.93C98.4979 128.929 98.4967 128.926 98.4957 128.923C98.4943 128.918 98.494 128.914 98.4942 128.911C98.4943 128.909 98.4945 128.908 98.4946 128.908L98.4946 128.908C98.5173 128.857 99.7045 126.175 102.049 123.511C104.403 120.836 107.865 118.24 112.437 118.24C114.344 118.24 116.341 118.684 118.382 119.586C118.383 119.586 118.383 119.586 118.383 119.587C118.386 119.59 118.389 119.593 118.391 119.597C118.391 119.597 118.391 119.597 118.391 119.597C118.391 119.598 118.391 119.6 118.39 119.601L118.39 119.601L118.385 119.612C118.284 119.833 116.912 122.722 114.519 125.547C112.115 128.387 108.77 131.058 104.731 131.058Z" fill="#2ECC71" stroke="black"/>
<path d="M99.3326 129.282C99.1721 129.282 99.0115 129.199 98.9212 129.055C98.7607 128.818 98.8209 128.499 99.0517 128.345C104.651 124.432 112.378 121.92 112.458 121.9C112.719 121.817 113 121.961 113.09 122.239C113.171 122.507 113.03 122.795 112.759 122.888C112.679 122.909 105.093 125.38 99.6236 129.21C99.5333 129.272 99.443 129.302 99.3427 129.302L99.3326 129.282Z" fill="#261D2A"/>
<path d="M81.3676 99.5549C81.3855 99.4385 81.4124 99.2755 81.4501 99.0725C81.5321 98.6311 81.6654 98.0009 81.8701 97.2492C82.28 95.7447 82.9744 93.7601 84.1124 91.8301C85.2504 89.9002 86.8269 88.0333 88.998 86.7507C91.1121 85.5019 93.8046 84.7983 97.2359 85.1457C97.2118 85.2791 97.1774 85.4614 97.1313 85.6855C97.0268 86.1933 96.8624 86.9149 96.6229 87.7681C96.1435 89.4761 95.3656 91.7035 94.1713 93.7954C92.9762 95.8889 91.3738 97.8294 89.2534 98.9883C87.1848 100.119 84.5998 100.518 81.3676 99.5549Z" fill="#2ECC71" stroke="black" stroke-width="0.5"/>
<path d="M95.1828 92.8829C93.237 96.8004 90.0165 100.612 84.8476 100.614C83.6434 100.614 82.3457 100.402 81.0134 99.9872C80.9019 99.9523 80.8204 99.8319 80.8359 99.701C80.8488 99.6022 81.3553 95.813 83.4394 92.047C85.529 88.2711 89.1844 84.5479 95.5095 84.5479C96.1606 84.5479 96.8518 84.5883 97.5333 84.6692C97.6071 84.6807 97.6673 84.7175 97.7072 84.7664C97.7525 84.8328 97.7701 84.9106 97.761 84.9712L97.7609 84.9712L97.7603 84.9761L97.7602 84.9764C97.7598 84.979 97.7574 84.9948 97.7522 85.0266C97.7467 85.0597 97.7387 85.1071 97.7278 85.1678C97.7061 85.2893 97.6733 85.4637 97.6281 85.6836C97.5377 86.1234 97.3977 86.7443 97.1971 87.4856C96.7956 88.9691 96.1529 90.9297 95.1828 92.8829ZM81.415 99.3194L81.3775 99.5417L81.5947 99.6019C82.7259 99.9156 83.8224 100.085 84.8626 100.085C89.3507 100.085 92.3021 97.0477 94.1828 93.7393C96.0652 90.4279 96.9119 86.7857 97.1797 85.4379L97.2341 85.1641L96.9559 85.1402C94.0447 84.8895 91.4775 85.3744 89.2737 86.5912C87.0707 87.8077 85.2485 89.7458 83.8105 92.3733C82.216 95.2806 81.5978 98.2355 81.415 99.3194Z" fill="#2ECC71" stroke="black" stroke-width="0.5"/>
<path d="M80.6385 143.284C80.6385 143.284 80.5984 143.284 80.5783 143.284C80.3074 143.253 80.1067 142.996 80.1368 142.707C85.0839 99.9068 72.5806 34.3003 72.4501 33.6413C72.4 33.3634 72.5706 33.0957 72.8415 33.0339C73.1124 32.9721 73.3733 33.1574 73.4335 33.4354C73.564 34.0944 86.0975 99.8656 81.1302 142.821C81.1001 143.078 80.8794 143.274 80.6285 143.274L80.6385 143.284Z" fill="#261D2A"/>
<path d="M59.2544 25.7242C59.2544 25.7242 42.6569 14.5015 54.1066 5.36892C65.5563 -3.76368 71.5772 10.0433 72.4201 12.2158C73.263 14.3883 69.3695 -1.74566 83.358 0.859245C97.3465 3.46415 88.0242 19.9996 88.0242 19.9996C88.0242 19.9996 102.866 12.607 105.826 23.0472C108.786 33.4874 90.563 36.0923 90.563 36.0923C90.563 36.0923 106.95 41.5698 96.8347 52.7308C86.7196 63.8917 77.4174 43.0525 77.4174 43.0525C77.4174 43.0525 78.2603 59.5776 67.6636 60.0204C57.0668 60.4631 62.6863 41.3845 62.6863 41.3845C62.6863 41.3845 51.9591 48.7359 44.7542 41.7758C37.5492 34.8156 43.9915 23.9842 59.2544 25.7242Z" fill="#FF861A"/>
<path d="M72.9026 36.2978C76.7488 36.2978 79.8668 33.0986 79.8668 29.1523C79.8668 25.206 76.7488 22.0068 72.9026 22.0068C69.0564 22.0068 65.9385 25.206 65.9385 29.1523C65.9385 33.0986 69.0564 36.2978 72.9026 36.2978Z" fill="#EDD14E"/>
<path d="M70.263 49.591C66.0484 49.591 64.0615 45.1328 63.5798 41.0453C60.8202 41.9101 57.3482 41.6424 54.4682 40.2833C52.0097 39.1199 50.8958 37.1225 51.3474 34.672C52.11 30.5227 57.3382 25.8586 61.5126 25.6012C61.7836 25.5806 62.0445 25.5703 62.2953 25.5703C60.9908 22.9242 58.9036 17.9512 59.9071 14.9654C60.2282 14.0078 60.8403 13.318 61.7234 12.9164C62.2251 12.6899 62.8071 12.5767 63.4694 12.5767C66.0584 12.5767 69.41 14.3167 71.6779 15.9229C73.5343 13.0297 77.5984 10.1159 82.5455 10.3218C83.7397 10.3733 84.7432 10.9396 85.4556 11.9589C87.011 14.1931 86.9709 18.188 86.2584 21.2974C86.9809 21.1636 87.6833 21.0915 88.3757 21.0915C91.1353 21.0915 93.2828 22.1829 94.5873 24.2524C95.3399 25.4467 95.5205 26.7749 95.1292 28.1958C94.3163 31.089 91.1755 33.8174 88.2052 35.4133C90.0917 37.1328 91.8177 39.6553 91.5166 42.1057C91.3059 43.8973 90.0817 45.3181 87.884 46.3374C85.9975 47.2126 84.111 47.6553 82.2746 47.6553C79.5652 47.6553 77.5081 46.7081 76.1534 45.7711C75.2603 47.8509 73.5042 49.1688 71.146 49.5086C70.8349 49.5498 70.5439 49.5704 70.2529 49.5704L70.263 49.591ZM64.5532 40.6849C64.9345 44.4018 66.6304 48.5614 70.263 48.5614C70.5038 48.5614 70.7547 48.5408 71.0156 48.5099C73.6146 48.1392 74.7886 46.5536 75.3305 45.1637C73.5945 43.7016 72.4505 41.7763 72.3101 40.0671C72.2298 39.1199 72.4706 38.2962 73.0125 37.7093C73.4641 37.2151 73.9156 37.1122 74.2066 37.1122C74.5779 37.1122 75.1499 37.2769 75.6918 38.0491C76.6551 39.4288 77.197 42.2705 76.5046 44.793C77.7288 45.6888 79.6656 46.6566 82.2746 46.6566C83.9705 46.6566 85.7165 46.2448 87.4626 45.4314C89.319 44.5665 90.3426 43.4133 90.5132 42.0131C90.7741 39.8303 88.9477 37.421 87.2117 35.9384C84.6027 37.1328 82.4452 37.2872 81.532 36.2885C81.1808 35.8972 81.0203 35.3618 81.0604 34.7132C81.1407 33.5085 81.8632 32.829 83.0272 32.829C84.1912 32.829 85.7868 33.5394 87.3321 34.7441C90.1318 33.3335 93.3831 30.6668 94.1357 27.959C94.4468 26.8367 94.3063 25.7968 93.7143 24.8599C92.3094 22.6359 90.0215 22.1623 88.3456 22.1623C87.5629 22.1623 86.7501 22.2653 85.9273 22.4506C85.0342 25.3644 83.5992 27.0941 82.0639 27.0941C81.6826 27.0941 81.3012 26.9911 80.9199 26.7852C80.077 26.3116 80.0168 25.6424 80.0669 25.2923C80.2576 23.7582 82.7663 22.2755 85.1245 21.596C85.9273 18.5793 86.0075 14.5947 84.6127 12.5973C84.0708 11.8251 83.3684 11.4235 82.4753 11.3823C77.9095 11.1764 74.1464 13.8946 72.4606 16.5612C73.745 17.5703 75.9025 19.5059 75.471 20.8547C75.2803 21.4622 74.6682 21.771 73.6648 21.7813C73.5544 21.7813 73.434 21.7813 73.3035 21.771C71.8083 21.6784 71.136 20.9782 70.8349 20.412C70.3533 19.4956 70.4637 18.2395 71.136 16.8598C68.9885 15.3257 65.8175 13.6475 63.4293 13.6475C62.9075 13.6475 62.4559 13.7298 62.0846 13.8946C61.4625 14.1726 61.041 14.6462 60.8102 15.336C59.8469 18.2086 62.3857 23.6552 63.3891 25.6321C66.4196 25.8483 67.4833 27.1868 67.4532 28.2884C67.4331 29.1739 66.7307 29.8637 65.8577 29.8637C65.3158 29.8637 63.9611 29.5755 62.9376 26.9397C62.9376 26.9397 62.8673 26.8264 62.767 26.6411C62.3857 26.6411 61.9642 26.6411 61.5227 26.672C57.7897 26.9088 52.953 31.2228 52.2806 34.9088C51.9194 36.9062 52.7723 38.4198 54.8395 39.3876C57.569 40.6849 60.8905 40.9011 63.4393 40.0362C63.339 38.255 63.5095 36.1752 64.2923 35.3207C64.5933 34.9809 64.9144 34.9191 65.1251 34.9191C65.3359 34.9191 65.5566 34.9912 65.7674 35.125C67.1823 36.0311 67.403 37.0401 67.3328 37.7196C67.2224 38.8934 66.1688 39.9951 64.493 40.7364L64.5532 40.6849ZM74.2066 38.1315C74.026 38.1315 73.8554 38.2859 73.745 38.4095C73.3135 38.8831 73.2734 39.5214 73.3135 39.9745C73.4239 41.2924 74.317 42.8471 75.6516 44.0826C76.0831 41.9925 75.6416 39.7274 74.879 38.6463C74.6482 38.3168 74.4073 38.1315 74.2066 38.1315ZM65.1753 35.8972C65.1753 35.8972 65.1252 35.9178 65.075 35.9693C64.7037 36.3811 64.4127 37.7196 64.4729 39.5832C65.5968 39.0169 66.3193 38.2756 66.3895 37.5652C66.4598 36.8548 65.8276 36.2885 65.2857 35.9487C65.2355 35.9178 65.1954 35.8972 65.1753 35.8972ZM83.0473 33.8277C82.4151 33.8277 82.1241 34.1057 82.0739 34.7647C82.0538 35.125 82.114 35.3927 82.2746 35.5678C82.5355 35.856 83.0272 35.9075 83.3985 35.9075C84.1712 35.9075 85.1847 35.6604 86.2985 35.1971C85.0843 34.3425 83.8902 33.8277 83.0473 33.8277ZM63.9912 26.6926C65.085 29.2975 66.4899 29.0607 66.51 28.237C66.52 27.6295 65.7373 26.9397 63.9912 26.6926ZM84.7933 22.7698C82.5857 23.5317 81.1808 24.7466 81.1005 25.3953C81.1005 25.4673 81.0704 25.6527 81.4417 25.8586C81.6725 25.9821 81.8832 26.0439 82.104 26.0439C83.0573 26.0439 84.0708 24.7878 84.8034 22.7595L84.7933 22.7698ZM71.999 17.4467C71.5574 18.4351 71.4571 19.3206 71.7581 19.8869C72.019 20.3811 72.571 20.6488 73.4038 20.7003C73.5142 20.7003 73.5945 20.7003 73.7049 20.7003C74.3471 20.7003 74.5378 20.5458 74.5578 20.4943C74.6682 20.1443 73.9257 18.9602 72.009 17.4364L71.999 17.4467Z" fill="#261D2A"/>
<path d="M77.5682 29.0079C77.3675 29.0079 77.1768 28.8843 77.0965 28.6784C75.792 25.1984 73.1629 25.1263 73.0525 25.1263C72.7816 25.1263 72.5508 24.8895 72.5508 24.6115C72.5508 24.3335 72.7715 24.0967 73.0525 24.0967C73.193 24.0967 76.4744 24.1482 78.0298 28.3078C78.1301 28.5755 77.9997 28.874 77.7388 28.977C77.6786 28.9976 77.6183 29.0079 77.5581 29.0079H77.5682Z" fill="#261D2A"/>
<path d="M79.464 76.5663C79.464 76.5663 75.3297 63.6963 60.0166 64.4685C60.0166 64.4685 65.4153 84.4222 79.464 76.5663Z" fill="#2ECC71"/>
<path d="M73.2225 78.9129C63.5188 78.9129 59.6956 65.1883 59.535 64.6117C59.4949 64.4573 59.525 64.3028 59.6153 64.169C59.7056 64.0454 59.8461 63.9631 59.9966 63.9528C68.3155 63.5306 73.373 67.1445 76.1025 70.151C78.9022 73.2295 79.9056 76.2771 79.9458 76.411C80.0261 76.6478 79.9257 76.9052 79.7049 77.0287C77.4571 78.2849 75.2796 78.9232 73.2225 78.9232V78.9129ZM60.6991 64.9618C61.5621 67.6285 65.4054 77.8833 73.2225 77.8833C74.9886 77.8833 76.8751 77.3582 78.8319 76.3286C77.979 74.2282 73.383 64.6426 60.689 64.9618H60.6991Z" fill="#261D2A"/>
<path d="M78.9635 76.8237C78.8431 76.8237 78.7227 76.7825 78.6323 76.6898C76.3444 74.5894 67.9553 71.1608 67.865 71.1196C67.6041 71.0167 67.4837 70.7181 67.584 70.4504C67.6844 70.1827 67.9754 70.0591 68.2363 70.1621C68.5875 70.3063 76.8763 73.6937 79.2946 75.9176C79.5054 76.1029 79.5154 76.4324 79.3348 76.6486C79.2344 76.7619 79.0939 76.8237 78.9635 76.8237Z" fill="#261D2A"/>
<path d="M81.8425 99.8659C81.7322 99.8659 81.6218 99.8248 81.5315 99.7527C81.3207 99.5777 81.2806 99.2482 81.4612 99.032C85.726 93.6265 92.4192 88.9418 92.4794 88.8904C92.7102 88.7256 93.0213 88.7874 93.1718 89.0242C93.3324 89.261 93.2722 89.5802 93.0414 89.7346C92.9711 89.7758 86.4084 94.3884 82.2339 99.6703C82.1336 99.7939 81.9931 99.8659 81.8425 99.8659Z" fill="#261D2A"/>
</svg>
