<?xml version="1.0" encoding="UTF-8"?>
<svg id="Layer_2" data-name="Layer 2" xmlns="http://www.w3.org/2000/svg" xmlns:xlink="http://www.w3.org/1999/xlink" viewBox="0 0 466 427">
  <defs>
    <style>
      .cls-1 {
        fill: #fff;
      }

      .cls-2 {
        fill: none;
      }

      .cls-3 {
        clip-path: url(#clippath);
      }
    </style>
    <clipPath id="clippath">
      <rect class="cls-2" width="466" height="427"/>
    </clipPath>
  </defs>
  <g id="Layer_1-2" data-name="Layer 1">
    <g class="cls-3">
      <g>
        <path d="M352.36,116.9c-1.89-.83-3.83-1.52-5.78-2.19,1.18-7.57,1.47-15.17.07-22.73-.34-1.86-.72-3.99-1.85-5.55-1.61-2.22-4.38-4.61-6.64-6.17.05-8.28-.76-15.73-3.9-23.46-.81-2-1.66-4.14-3.21-5.69-5.42-5.42-16.97-8.12-24.47-8-3.7.06-7.58.63-11.03,2.01-1.09-3.51-2.16-7-3.63-10.37-5.52-12.68-15.06-23.52-27.49-29.82-.13-.06-.26-.12-.39-.18-13.74,2.76-22.76,7.47-34,15.69-3.86-3.1-12.99-7.9-18.24-7.34-6.87.73-13.43,6.44-17.59,11.69-.69.87-1.38,1.76-1.96,2.72-4.91-1.72-18.21-5.16-22.93-2.9-1.65.79-3.2,2.21-4.61,3.36-9.88,8.06-15.81,19.88-19.81,31.71-10.78-2.95-20.16-3.79-30.87.27-1.93.73-3.95,1.47-5.75,2.49-3.85,2.18-7.07,11.25-8.2,15.47-3.44,12.82-2.42,25.78,2.07,38.19-14.63,2.61-30.37,12.32-38.88,24.57-2.33,3.35-4.35,7.04-6,10.77,3.05,16.97,10.5,30.38,24.86,40.32,6.1,4.23,12.33,7.1,19.52,8.9-4.41,9.18-6.97,18.7-6.47,28.94.12,2.5.32,5.16,1.16,7.53,1.42,3.99,10.78,9.9,14.9,11.81,6.75,3.12,13.46,4.16,20.82,4.41-.48,11.79,1.8,23.5,10.07,32.45,1.35,1.46,2.9,3.28,4.62,4.3,3.41,2.02,10.56,2.66,14.6,2.79,12.05.4,22.28-3.58,32.17-10.23.14,3.11.33,6.22.58,9.33.25,3.11.54,6.21.89,9.3.35,3.1.75,6.19,1.21,9.27.46,3.08.96,6.16,1.52,9.22s1.17,6.12,1.84,9.17c.66,3.04,1.38,6.08,2.15,9.1.77,3.02,1.59,6.03,2.46,9.02.87,2.99,1.79,5.97,2.76,8.93.58,1.73,2.15,7.35,3.06,8.6,1.01,3.8,2.71,7.53,4.2,11.17,5.4,13.24,11.54,26.18,19.67,37.98,1.25,1.81,3.04,4.79,4.94,5.91.45.27.72.31,1.23.23,1.71-2.32,1.39-6.49,4.27-10.09,1.05-1.31,2.41-2.45,3.81-3.36.64-.42,1.45-.77,1.97-1.33-1.5-.75-6.47-8.87-7.02-10.56-.02-.07-.05-.15-.07-.22,1.19.06,3.04-1.04,4.12-1.57,7.18-3.48,13.75-7.68,19.71-13.01,21.01-18.8,30.61-47,32.1-74.55.11-2.43.16-4.87.15-7.3,0-2.44-.08-4.87-.21-7.3-.13-2.43-.32-4.86-.58-7.28-.25-2.42-.57-4.84-.94-7.24,6.34.22,19.17-1.44,23.96-5.73,1.36-1.22,2.44-3.17,3.44-4.69,5.1-7.74,8.35-16.34,8.51-25.68.08-4.31-.52-8.49-1.68-12.64,6.86-3.51,13.19-7.77,18.05-13.85,1.19-1.49,2.49-3.18,3.05-5.03,1.53-5.08-1.69-16.5-3.1-21.71,13.11-6.36,21.84-16.68,26.59-30.41,1.03-2.99,1.76-6.05,2.45-9.13-5-12.82-13.29-24.6-26.26-30.29ZM304.18,47.15c.3-.04.58-.06.89-.07,6.57-.21,12.91,1.04,18.82,3.98,1.41.7,2.94,1.46,4.08,2.56,4.93,4.74,6.27,17.44,6.32,24-1.92-.77-3.8-1.82-5.69-2.68-9.51-4.12-20.61-5.32-30.87-4.44,1.06-7.19.2-14.86-1.31-21.92,2.58-.7,5.1-1.18,7.76-1.43ZM299.67,74.14c1.81-.18,3.72-.14,5.54-.11,12.87.24,26.69,4.19,35.75,13.75,3.18,3.36,3.11,10.5,2.96,14.96-.59,18.05-9.14,35.16-22.26,47.39-13.57,12.66-31.53,19.42-49.9,20.79-6.08.45-12.15.25-18.24.05-1.5-.26-2.86-1.37-4.12-2.18,4.25-1.54,8.5-3.86,11.52-7.26,1.36-1.53,2.93-3.71,2.73-5.87-.12-1.33-.91-2.43-1.93-3.26-4.03-3.24-10.87-3.37-15.75-2.88,2.92-3.64,5.27-7.75,6.41-12.32.51-2.03,1-4.79-.21-6.67-.66-1.02-1.67-1.61-2.84-1.86-4.86-1.03-10.82,2.43-14.73,5.06.53-2.73.35-6.21,1.07-8.64,1.82-6.13,11.71-19.96,16.23-25.16,12.16-14,29.01-24.49,47.79-25.81ZM215.63,186.44c-6.16.09-11.84-1.7-16.54-5.76-4.87-4.2-8.12-10.48-8.54-16.91-.02-.38-.04-.76-.04-1.14,0-.38,0-.76.01-1.14s.04-.76.07-1.13c.03-.38.07-.75.12-1.13.05-.38.11-.75.18-1.12.07-.37.15-.74.23-1.11.09-.37.18-.74.29-1.1.11-.36.22-.73.34-1.08.12-.36.25-.71.39-1.07.14-.35.29-.7.45-1.05.16-.34.32-.69.5-1.02.17-.34.36-.67.55-1,.19-.33.39-.65.59-.97.21-.32.42-.63.64-.94.22-.31.45-.61.69-.91.24-.3.48-.59.73-.87,4.53-5.11,10.78-7.92,17.55-8.34,5.7-.05,11.76,1.9,16.13,5.65,4.96,4.26,7.96,9.95,8.46,16.48.49,6.49-1.69,12.67-5.96,17.56-4.35,4.98-10.29,7.64-16.82,8.1ZM218.12,210.18c-.56.86-1.3,1.85-2.1,2.5-.67.56-1.57.92-2.45.76-1.53-.27-2.71-1.8-3.51-3.04-3.9-6.09-3.54-13.87-2.08-20.66,4.6.71,8.66.84,13.26.01,1.24,6.8.45,14.43-3.12,20.42ZM187.79,153.37c-1.6,4.46-1.53,8.99-1.11,13.62-2.39.23-4.65.21-7.01-.22-2.42-.52-4.62-1.25-6.77-2.5-2.3-1.34-5.6-3.82-6.22-6.58-.21-.93-.04-1.83.51-2.61,1.54-2.2,5.48-3.02,7.94-3.38,4.19-.66,8.71.33,12.65,1.67ZM185.64,147.08c-3.3-3.81-7.21-10.81-6.79-16.01.09-1.15.3-1.48,1.15-2.19.76-.03,1.51-.02,2.27.05.75.06,1.5.18,2.24.34,6.01,1.3,10.64,5.65,13.88,10.7-.58.41-1.14.83-1.68,1.28-.55.45-1.07.91-1.59,1.39-.51.48-1.01.98-1.49,1.5-.48.52-.94,1.05-1.38,1.6-1.14,1.49-2.14,2.97-3.07,4.59-1.38-.88-2.47-2.03-3.53-3.25ZM186.67,169.32c.09,0,.17-.04.26-.03.01,0,.41.11.43.14.16.16,1.36,3.86,1.57,4.34,1.09,2.43,2.52,4.53,4.16,6.61-3.82,3.51-8.89,5.53-13.97,6.24-1.5.04-3.27.05-4.68-.53-.77-.32-1.41-.83-1.72-1.62-.47-1.19-.03-2.61.45-3.74,2.64-6.17,7.59-8.98,13.49-11.4ZM205.67,189.07c-1.89,5.69-4.37,10.57-9.2,14.34-1.32.88-2.96,1.71-4.57,1.77-.94.03-1.78-.25-2.46-.91-1.39-1.37-1.59-3.97-1.59-5.81,0-6.23,3.15-11.2,7.43-15.48,1.32.67,2.65,1.89,3.9,2.73,2.06,1.37,4.23,2.36,6.49,3.35ZM203.06,115.32c1.76.08,3.29,1.09,4.56,2.25,4.93,4.5,6.53,10.97,6.84,17.38-2.21,0-4.3.23-6.45.72-2.46.53-4.76,1.58-7.07,2.56-1.17-3.46-2.02-6.89-2.05-10.58-.03-4.51.93-9.02,4.16-12.32ZM241.17,153.57c2.79-1.07,5.46-1.64,8.44-1.84,2.49-.04,5.03.12,7.45.76,1.45.38,3.27,1.04,4,2.44.44.85.39,1.79.05,2.66-1.42,3.6-5.85,6.14-9.17,7.65-3.18,1.12-6.33,1.5-9.67,1.65.48-4.74.14-8.72-1.1-13.32ZM240.26,151.12c-.44-.87-.98-1.72-1.48-2.56-1.73-2.95-4.24-5.81-6.97-7.87.1-.15.2-.3.3-.45,3.48-5.05,8.28-8.53,14.39-9.62.63-.09,1.37-.14,2.01-.08.8.06,1.59.4,2.07,1.06.66.91.54,2.14.35,3.19-1.19,6.34-5.34,12.71-10.67,16.34ZM229.89,139.36c-1.68-1.07-3.42-1.97-5.28-2.7-2.54-.85-5.04-1.48-7.71-1.75.17-3.01.83-5.86,2.16-8.58,2.01-4.1,5.05-7.77,9.48-9.27.42.01.89.01,1.29.18,1.12.47,1.94,1.79,2.31,2.89,2.07,6.09.56,13.64-2.25,19.23ZM233.5,182.99c.07.03.15.04.22.08,3.05,1.69,5.8,5.74,7.18,8.85,1.22,2.76,2.58,7.31,1.36,10.26-.37.88-.99,1.59-1.89,1.92-1.82.66-3.88-.31-5.5-1.09-5.46-3.24-8.84-8.13-11-14.01,3.61-1.64,6.7-3.29,9.64-6.01ZM235.91,180.59c2.75-3.59,4.47-7.21,5.79-11.5,2.83.81,5.83,1.52,8.27,3.23,3,2.1,6.83,6.01,7.38,9.81.11.79,0,1.58-.53,2.2-1.14,1.33-3.81,1.42-5.42,1.59-5.73.27-11.18-1.51-15.49-5.33ZM249.73,13.04c4.36-1.88,8.96-3.15,13.49-4.54,1.1.22,2.43,1.3,3.35,1.94,5.22,3.6,9.92,7.64,13.8,12.66,10.31,13.35,15.43,31.17,13.29,47.92-1.53.25-3.04.57-4.54.95-22.17,5.62-39.02,22.73-50.41,41.84-1.41,2.34-2.77,4.7-4.08,7.1-.52-1.33-1.05-2.55-1.88-3.72.62-2.45,1.11-4.92,1.48-7.42.37-2.5.62-5.01.74-7.53,1.05-20.24-4.78-42.58-18.53-57.87.58-1.32,1.21-2.62,1.88-3.89,6.34-12.01,19.07-22.12,31.39-27.43ZM212.18,16.28c.82.1,1.8.52,2.6.78,4.44,1.41,8.49,3.09,12.25,5.91-5.77,5.15-9.9,11.41-13.45,18.2l-1.3-1.05c-4.98-4.74-10.38-8.04-16.43-11.21,4.57-5.82,9.45-9.76,16.32-12.63ZM146.35,71.95c1.98-14.3,8.13-28.69,18.51-38.92,2.01-1.98,4.19-3.66,6.44-5.36,4.38-.68,10.54.6,14.82,1.83,16.14,4.63,28.39,15.81,36.41,30.31,8.69,15.72,12.63,37.64,7.61,55.12-.97.01-1.85.13-2.76.45-5.4,1.92-8.93,6.98-11.3,11.94-1.62-4.25-3.7-8.22-7.13-11.32-1.49-1.35-3.46-2.71-5.57-2.55-1.29.1-2.35.78-3.18,1.74-3.17,3.71-3.71,10.47-3.49,15.12.06,1.29.36,2.55.45,3.84l-.25.03c-2.94-2.7-6.16-5.2-9.94-6.6-2.33-.86-5.84-1.77-8.2-.59-1.01.5-1.69,1.39-1.97,2.47-1.3,4.89,2.63,12.74,5.16,16.86-7.09-5.38-13.5-11.31-18.89-18.41-12.25-16.16-19.54-35.5-16.71-55.96ZM106.07,71.98c.73-1.73,1.53-3.66,2.76-5.09,3.21-3.73,13.48-4.87,18.24-5.19,5.69-.42,11.62.55,17.11,1.96-2.28,9.78-2.96,19.24-.99,29.15,4.44,22.31,19.88,43.76,38.65,56.33-3.06-.07-6.15.08-9.13.82-2.67.67-6.15,2.11-7.56,4.64-.82,1.48-.69,2.63-.29,4.18-1.44-.15-2.87-.41-4.3-.66-12.29-2.91-24.94-8.65-34.76-16.64-.41-.33-.81-.66-1.21-1-.4-.34-.8-.68-1.19-1.03-.39-.35-.78-.7-1.16-1.06-.38-.36-.76-.72-1.13-1.08-.37-.37-.74-.74-1.11-1.11-.36-.38-.72-.76-1.08-1.14-.35-.38-.7-.77-1.05-1.17-.34-.39-.68-.79-1.02-1.19s-.66-.81-.99-1.22c-.32-.41-.64-.82-.96-1.24-.31-.42-.62-.84-.93-1.27-.3-.43-.6-.86-.89-1.29-.29-.43-.58-.87-.86-1.31-.28-.44-.56-.88-.83-1.33s-.54-.9-.79-1.35c-.26-.45-.51-.91-.76-1.37-.25-.46-.49-.92-.73-1.39-.24-.47-.47-.94-.69-1.41-.22-.47-.44-.95-.66-1.42-.21-.48-.42-.96-.62-1.44s-.39-.97-.58-1.46c-.19-.49-.37-.98-.55-1.47-.18-.49-.35-.99-.51-1.48-.16-.5-.32-.99-.47-1.5-.15-.5-.3-1-.43-1.51-.14-.5-.27-1.01-.4-1.52-.13-.51-.25-1.02-.36-1.53-.11-.51-.22-1.02-.32-1.54-.1-.51-.19-1.03-.28-1.54-.09-.52-.17-1.03-.24-1.55-.07-.52-.14-1.04-.2-1.55-.06-.52-.12-1.04-.16-1.56-.92-9.03-.14-18.08,3.42-26.49ZM91.65,192.4c-10.54-5.85-20.36-14.74-25.6-25.74-2.23-4.67-3.66-9.61-5.08-14.58,1.57-3.34,3.53-6.79,5.65-9.8,7.9-11.21,23.34-20.3,36.76-22.63.16-.04.43,0,.6,0,.8.79,1.26,2.08,1.86,3.05,1.18,1.91,2.42,3.78,3.71,5.63,6.47,9.23,14.49,16.26,24.21,21.89,1.61.92,3.25,1.8,4.92,2.63,1.66.83,3.35,1.61,5.06,2.34,1.71.73,3.44,1.41,5.19,2.04,1.75.63,3.51,1.21,5.3,1.74,2.96.89,6.58,1.33,9.35,2.61.95.44,1.71,1.56,2.38,2.35-19.69,2.26-38.24,7.94-52.91,21.82-3.56,3.47-6.33,7.2-9.14,11.28-4.3-.75-8.46-2.51-12.26-4.62ZM99.62,235.98c-.45-1.87-.67-3.8-.81-5.72-1.03-14.45,4.38-29.23,13.83-40.09,13.38-15.36,34.87-22.32,54.62-23.69.97-.07,2.03-.2,3-.1,2.05.21,4.06,1.23,6,1.91,1.48.51,2.98.89,4.52,1.22-3.98,2.73-7.53,5.72-9.48,10.28-.74,1.73-1.31,3.91-.53,5.72.55,1.27,1.67,2.11,2.92,2.62,4.88,1.98,11.23-.19,15.8-2.14-1.51,2.64-2.77,5.34-3.42,8.33-.27,1.25-.21,2.76-.72,3.93-.98,2.26-2.63,4.32-3.71,6.57-4.62,9.61-6.89,19.19-7.17,29.85l-.13.13c-2.11,2.11-4.65,3.85-7.17,5.43-10.05,6.29-21.24,8.94-33.03,9.04-13.46-.01-24.65-4.23-34.54-13.28ZM193.08,277.92c-11.4,9.11-22.86,12.12-37.31,10.51-3.86-.61-6.56-.92-9.4-3.75-8.31-8.25-10.67-20.05-10.66-31.3,14.77-.87,26.57-4.4,38.57-13.23.55.56.87,4.72,1.09,5.78.62,2.79,1.43,5.52,2.42,8.2,3.41,9.21,8.71,16.6,15.62,23.51-.11.09-.22.18-.33.27ZM179.68,248.86c-.12-.48-.24-.97-.35-1.45-.11-.49-.22-.97-.32-1.46-.1-.49-.19-.98-.28-1.47-.09-.49-.17-.98-.25-1.47-.08-.49-.15-.99-.21-1.48-.06-.49-.12-.99-.17-1.48-.05-.5-.1-.99-.13-1.49-.04-.5-.07-.99-.1-1.49-.03-.5-.05-1-.06-1.49-.01-.5-.02-1-.02-1.49,0-.5,0-1,.01-1.49.01-.5.03-1,.05-1.49.02-.5.05-.99.09-1.49.04-.5.08-.99.12-1.49.05-.5.1-.99.16-1.49.06-.49.13-.99.2-1.48.07-.49.15-.98.23-1.48.08-.49.17-.98.27-1.47.1-.49.2-.98.31-1.46.11-.49.22-.97.34-1.45.12-.48.25-.97.38-1.45.13-.48.27-.96.41-1.44.14-.48.29-.95.45-1.43.16-.47.32-.94.49-1.41.17-.47.34-.94.52-1.4.18-.47.36-.93.55-1.39.19-.46.39-.92.59-1.37.2-.46.41-.91.62-1.36.21-.45.43-.9.66-1.34.22-.45.45-.89.69-1.33.24-.44.48-.88.72-1.31s.5-.86.75-1.29c.67,1.24,1.3,2.7,2.42,3.6,1.05.85,2.34,1.08,3.65.88,5.1-.75,9.28-5.63,12.14-9.54.25,5.44,1.13,11.24,4.84,15.49,1.14,1.31,2.7,2.47,4.5,2.54,1.54.06,2.9-.78,3.99-1.79,4.98-4.6,6.2-12.11,6.49-18.54.74.65,1.3,1.8,1.87,2.63,1.82,2.65,4.09,4.84,6.86,6.5,2.12,1.27,4.93,2.36,7.43,1.67,1.9-.53,2.77-1.73,3.71-3.33,1.84,2.32,3.81,4.63,5.9,6.73,1.53,1.54,3.72,3.15,4.91,4.94,1.05,1.6,1.74,3.89,2.31,5.74,4.56,14.67,1.85,30.77-5.24,44.13-6.26,11.8-16.97,21.23-29.81,25.17-7.33-1.76-13.52-4.82-19.78-8.96-10.93-7.68-19.52-18.71-22.91-31.76ZM228.18,329.78c-3.5,4.57-5.58,9.6-7.18,15.1-.92-1.31-1.21-3.63-1.68-5.18-4.79-15.55-7.65-33.19-8.11-49.53,1.15.47,2.3.92,3.46,1.36,5.73,2.18,8.74,2.45,14.37-.08,14.02-6.31,23.75-16.73,29.19-31.11,10.51,8.95,21.33,13.25,34.9,15.33-12.69,38.3-43.95,26.92-64.95,54.11ZM291.36,289.26c.03,1.66-1.08,3.85-1.66,5.42-4.92,13.27-16.5,22.74-26.49,32.16-14.76,13.92-26.06,30.11-29.03,50.49-1.17-1.29-2.73-5.12-3.29-6.83-1.41-1.55-6.27-14.04-6.72-16.37-.76-3.92.72-9.28,2.11-12.95,5.05-13.32,16.9-21.11,29.41-26.61,7.17-3.15,14.43-5.73,21.02-10.08,6.07-4,10.61-9.24,14.66-15.22ZM245.02,404.51c-.16.28-.31.48-.55.7-1.55,1.39-2.49,2.99-3.86,4.31-.47,1.51-1.29,3.04-1.9,4.51-.16-.07-.2-.08-.35-.22-1.87-1.76-7.9-12.59-9.55-15.62-1.03-1.94-2.04-3.89-3.03-5.85-.99-1.96-1.95-3.94-2.88-5.92-.94-1.99-1.85-3.98-2.74-5.99-.89-2.01-1.75-4.03-2.59-6.06-.84-2.03-1.65-4.07-2.44-6.12-.79-2.05-1.55-4.11-2.29-6.18-.74-2.07-1.45-4.15-2.14-6.23-.69-2.09-1.35-4.18-1.98-6.28s-1.25-4.21-1.83-6.33c-.58-2.12-1.14-4.24-1.67-6.37-.53-2.13-1.04-4.27-1.52-6.41-.48-2.14-.93-4.29-1.36-6.45-.43-2.15-.83-4.31-1.2-6.48-.37-2.16-.72-4.33-1.04-6.51-.32-2.17-.61-4.35-.88-6.53-.27-2.18-.51-4.36-.72-6.55-.54-5.43-1.07-10.87-1.2-16.33,2.99,2.61,6.28,4.95,9.93,6.53.7,7,.92,14.02,1.94,20.99.28,1.87.59,3.74.91,5.61.32,1.87.67,3.73,1.04,5.58.37,1.86.76,3.71,1.16,5.56.41,1.85.84,3.69,1.29,5.53.45,1.84.92,3.67,1.42,5.5.49,1.83,1.01,3.65,1.54,5.47.53,1.81,1.09,3.62,1.67,5.43.58,1.8,1.17,3.6,1.79,5.39.62,1.79,1.25,3.57,1.91,5.35.66,1.77,1.34,3.54,2.03,5.3.7,1.76,1.42,3.51,2.15,5.26.74,1.74,1.5,3.48,2.27,5.2.78,1.73,1.57,3.45,2.39,5.15.82,1.71,1.65,3.4,2.51,5.09.86,1.69,1.73,3.37,2.62,5.04.89,1.67,1.81,3.33,2.74,4.98,1.25,2.19,4.73,8.72,6.39,9.96ZM295.11,307.03c-1.78,26.07-11.43,53.22-31.59,70.73-5.52,4.8-11.74,8.63-18.29,11.84-1.09.53-2.95,1.64-4.15,1.56-.67-.39-.94-1.32-1.21-2.01-.72-.58-2.1-3.64-2.58-4.61-.76-22.83,12.04-40.88,27.95-56,8.65-8.22,18.45-16.61,24.33-27.16,2.7-4.85,4.11-9.92,5.32-15.29.96,6.85.7,14.06.23,20.94ZM321.64,263.51c-.83,1.26-1.64,2.78-2.7,3.86-3.21,3.29-13.87,4.69-18.48,4.72-13.59.09-31.22-6.45-40.96-16.06,3.28-9.8,3.97-21.4,1.99-31.54-.5-2.58-1.3-5.06-2.09-7.57,3.18,1.68,6.08,3.86,9.3,5.49,4.4,2.19,8.93,4.05,13.6,5.6,16.06,5.44,29.47,5.49,45.5.2,3.15,12.6.4,24.35-6.16,35.3ZM348.62,207.58c-2.8,6.91-14.14,13.81-20.81,16.6-17.21,7.2-36.07,4.6-52.9-2.3-11.16-5.01-21.75-12.3-29.83-21.53-.43-5.35-1.69-9.44-4.51-14.01,1.52.49,3.04.96,4.6,1.29,3.61.78,9.05,1.07,12.26-1.11,1.04-.7,1.73-1.73,1.91-2.98.49-3.43-2.13-7.03-4.06-9.62,16.97.21,31.55-.55,47.35-7.41,4.87-2.11,9.71-4.69,13.91-7.95.05.02.1.04.15.06,12.43,4.78,22.26,15.56,27.55,27.55,2,4.54,6.17,16.95,4.37,21.4ZM374.8,150.31c-3.97,14.37-12.56,25.07-25.49,32.37l-1.73.82c-3.21-7.94-9.98-15.76-16.78-20.86-3.2-2.4-6.72-4.39-10.3-6.18,2.58-2.36,5.37-4.43,7.87-6.89.53-.53,1.05-1.06,1.56-1.6.51-.54,1.01-1.1,1.5-1.66.49-.56.97-1.13,1.45-1.71.47-.58.93-1.16,1.39-1.76.45-.59.89-1.2,1.32-1.81.43-.61.85-1.23,1.26-1.85.41-.62.81-1.26,1.19-1.89.39-.64.76-1.28,1.13-1.94.36-.65.72-1.31,1.06-1.97.34-.66.67-1.33.99-2.01.32-.68.62-1.36.92-2.04.29-.69.58-1.38.85-2.07.27-.7.53-1.4.77-2.1.25-.7.48-1.41.7-2.13.22-.71.43-1.43.62-2.15.2-.72.38-1.44.55-2.17,2.24.67,4.45,1.61,6.55,2.64,8.89,4.39,15.73,12.05,20.39,20.68,1.03,1.91,2.11,3.91,2.81,5.97-.15.78-.36,1.55-.57,2.32Z"/>
        <path class="cls-1" d="M173.17,180.72c-.48,1.12-.92,2.55-.45,3.74.31.79.96,1.3,1.72,1.62,1.41.59,3.18.58,4.68.53,5.08-.71,10.15-2.73,13.97-6.24-1.64-2.08-3.07-4.18-4.16-6.61-.21-.48-1.42-4.18-1.57-4.34-.02-.02-.42-.14-.43-.14-.09,0-.17.02-.26.03-5.91,2.42-10.86,5.23-13.49,11.4Z"/>
        <path class="cls-1" d="M250.59,131.59c-.48-.66-1.27-1-2.07-1.06-.63-.05-1.37,0-2.01.08-6.11,1.09-10.91,4.57-14.39,9.62-.1.15-.2.3-.3.45,2.73,2.07,5.24,4.92,6.97,7.87.5.84,1.03,1.69,1.48,2.56,5.32-3.63,9.48-10,10.67-16.34.2-1.05.32-2.27-.35-3.19Z"/>
        <path class="cls-1" d="M251.94,165.24c3.32-1.51,7.75-4.05,9.17-7.65.34-.87.4-1.81-.05-2.66-.74-1.41-2.56-2.06-4-2.44-2.41-.64-4.96-.8-7.45-.76-2.98.2-5.65.77-8.44,1.84,1.24,4.6,1.58,8.58,1.1,13.32,3.34-.15,6.49-.53,9.67-1.65Z"/>
        <path class="cls-1" d="M251.41,185.92c1.61-.17,4.27-.26,5.42-1.59.53-.62.64-1.42.53-2.2-.55-3.8-4.38-7.71-7.38-9.81-2.44-1.7-5.44-2.42-8.27-3.23-1.32,4.29-3.05,7.91-5.79,11.5,4.31,3.82,9.76,5.6,15.49,5.33Z"/>
        <path class="cls-1" d="M192.24,145.74c.44-.55.9-1.08,1.38-1.6.48-.52.98-1.02,1.49-1.5.51-.48,1.04-.95,1.59-1.39.55-.45,1.11-.87,1.68-1.28-3.23-5.04-7.86-9.39-13.88-10.7-.74-.16-1.49-.27-2.24-.34-.75-.06-1.51-.08-2.27-.05-.84.71-1.06,1.04-1.15,2.19-.42,5.2,3.49,12.19,6.79,16.01,1.06,1.23,2.16,2.38,3.53,3.25.93-1.63,1.93-3.1,3.07-4.59Z"/>
        <path class="cls-1" d="M229.83,117.23c-.39-.16-.86-.16-1.29-.18-4.43,1.5-7.47,5.17-9.48,9.27-1.33,2.72-1.99,5.56-2.16,8.58,2.67.27,5.17.9,7.71,1.75,1.86.72,3.59,1.63,5.28,2.7,2.81-5.59,4.31-13.14,2.25-19.23-.37-1.1-1.19-2.42-2.31-2.89Z"/>
        <path class="cls-1" d="M234.86,203.01c1.62.78,3.68,1.75,5.5,1.09.91-.33,1.53-1.04,1.89-1.92,1.23-2.96-.13-7.5-1.36-10.26-1.38-3.11-4.12-7.16-7.18-8.85-.07-.04-.15-.05-.22-.08-2.94,2.73-6.02,4.38-9.64,6.01,2.16,5.87,5.53,10.76,11,14.01Z"/>
        <path class="cls-1" d="M187.85,198.47c0,1.84.2,4.44,1.59,5.81.67.66,1.52.94,2.46.91,1.61-.05,3.26-.88,4.57-1.77,4.83-3.77,7.31-8.65,9.2-14.34-2.26-1-4.43-1.98-6.49-3.35-1.26-.84-2.58-2.06-3.9-2.73-4.28,4.27-7.42,9.24-7.43,15.48Z"/>
        <path class="cls-1" d="M208.01,135.66c2.16-.49,4.24-.72,6.45-.72-.31-6.41-1.92-12.88-6.84-17.38-1.27-1.16-2.81-2.16-4.56-2.25-3.23,3.31-4.2,7.81-4.16,12.32.03,3.68.87,7.12,2.05,10.58,2.31-.98,4.6-2.03,7.07-2.56Z"/>
        <path class="cls-1" d="M175.14,151.7c-2.46.36-6.41,1.18-7.94,3.38-.54.78-.71,1.68-.51,2.61.62,2.76,3.92,5.24,6.22,6.58,2.14,1.25,4.35,1.98,6.77,2.5,2.36.43,4.63.45,7.01.22-.42-4.64-.49-9.16,1.11-13.62-3.95-1.34-8.47-2.33-12.65-1.67Z"/>
        <path class="cls-1" d="M207.98,189.74c-1.45,6.79-1.81,14.57,2.08,20.66.79,1.24,1.97,2.77,3.51,3.04.88.16,1.78-.2,2.45-.76.79-.66,1.53-1.64,2.1-2.5,3.57-6,4.36-13.62,3.12-20.42-4.6.83-8.66.69-13.26-.01Z"/>
        <path class="cls-1" d="M213.58,41.16c3.56-6.79,7.68-13.05,13.45-18.2-3.75-2.83-7.81-4.5-12.25-5.91-.81-.26-1.78-.68-2.6-.78-6.87,2.87-11.75,6.81-16.32,12.63,6.05,3.18,11.45,6.47,16.43,11.21l1.3,1.05Z"/>
        <path class="cls-1" d="M297.74,70.5c10.26-.88,21.36.33,30.87,4.44,1.9.86,3.77,1.91,5.69,2.68-.05-6.56-1.39-19.25-6.32-24-1.14-1.1-2.67-1.86-4.08-2.56-5.91-2.94-12.25-4.2-18.82-3.98-.31.01-.59.03-.89.07-2.66.25-5.18.73-7.76,1.43,1.51,7.06,2.38,14.73,1.31,21.92Z"/>
        <path class="cls-1" d="M235.89,389.58c-.89-1.67-1.77-3.35-2.62-5.04-.86-1.69-1.69-3.39-2.51-5.09-.82-1.71-1.61-3.43-2.39-5.15-.78-1.72-1.54-3.46-2.27-5.2-.74-1.75-1.46-3.5-2.15-5.26-.7-1.76-1.38-3.53-2.03-5.3-.66-1.77-1.3-3.56-1.91-5.35-.62-1.79-1.21-3.59-1.79-5.39-.58-1.8-1.13-3.61-1.67-5.43-.53-1.82-1.05-3.64-1.54-5.47-.49-1.83-.97-3.66-1.42-5.5-.45-1.84-.88-3.68-1.29-5.53-.41-1.85-.8-3.7-1.16-5.56-.37-1.86-.71-3.72-1.04-5.58-.32-1.86-.63-3.73-.91-5.61-1.02-6.97-1.24-13.99-1.94-20.99-3.65-1.58-6.94-3.92-9.93-6.53.13,5.45.66,10.9,1.2,16.33.21,2.19.45,4.37.72,6.55.27,2.18.56,4.36.88,6.53.32,2.17.67,4.34,1.04,6.51.37,2.16.77,4.32,1.2,6.48.43,2.15.88,4.3,1.36,6.45.48,2.14.99,4.28,1.52,6.41.53,2.13,1.09,4.25,1.67,6.37.58,2.12,1.19,4.23,1.83,6.33s1.3,4.2,1.98,6.28c.69,2.08,1.4,4.16,2.14,6.23.74,2.07,1.5,4.13,2.29,6.18.79,2.05,1.6,4.09,2.44,6.12.84,2.03,1.7,4.05,2.59,6.06.89,2.01,1.8,4.01,2.74,5.99.94,1.99,1.9,3.96,2.88,5.92.99,1.96,1.99,3.91,3.03,5.85,1.65,3.03,7.68,13.86,9.55,15.62.14.14.19.15.35.22.61-1.47,1.43-3,1.9-4.51,1.36-1.32,2.3-2.92,3.86-4.31.24-.22.39-.42.55-.7-1.66-1.23-5.14-7.77-6.39-9.96-.93-1.65-1.84-3.31-2.74-4.98Z"/>
        <path class="cls-1" d="M255.68,314.56c-12.51,5.5-24.36,13.3-29.41,26.61-1.39,3.67-2.87,9.03-2.11,12.95.45,2.33,5.31,14.82,6.72,16.37.56,1.71,2.12,5.55,3.29,6.83,2.97-20.38,14.27-36.57,29.03-50.49,9.99-9.42,21.58-18.88,26.49-32.16.58-1.58,1.69-3.76,1.66-5.42-4.05,5.98-8.59,11.22-14.66,15.22-6.59,4.35-13.85,6.92-21.02,10.08Z"/>
        <path class="cls-1" d="M175.37,245.93c-.23-1.06-.55-5.22-1.09-5.78-12,8.83-23.8,12.36-38.57,13.23,0,11.24,2.35,23.05,10.66,31.3,2.85,2.83,5.55,3.14,9.4,3.75,14.45,1.61,25.91-1.41,37.31-10.51.11-.09.22-.18.33-.27-6.9-6.91-12.21-14.3-15.62-23.51-.99-2.68-1.8-5.41-2.42-8.2Z"/>
        <path class="cls-1" d="M232.45,178.34c4.27-4.89,6.45-11.07,5.96-17.56-.49-6.53-3.5-12.23-8.46-16.48-4.36-3.74-10.42-5.7-16.13-5.65-6.76.42-13.02,3.23-17.55,8.34-.25.28-.49.58-.73.87-.24.3-.46.6-.69.91-.22.31-.43.62-.64.94-.21.32-.4.64-.59.97-.19.33-.37.66-.55,1-.17.34-.34.68-.5,1.02-.16.34-.31.69-.45,1.05-.14.35-.27.71-.39,1.07-.12.36-.24.72-.34,1.08-.11.36-.2.73-.29,1.1-.09.37-.17.74-.23,1.11-.07.37-.13.75-.18,1.12-.05.38-.09.75-.12,1.13-.03.38-.06.76-.07,1.13s-.02.76-.01,1.14c0,.38.02.76.04,1.14.42,6.43,3.67,12.71,8.54,16.91,4.71,4.06,10.39,5.85,16.54,5.76,6.53-.45,12.47-3.12,16.82-8.1Z"/>
        <path class="cls-1" d="M352.16,121.33c-2.09-1.03-4.31-1.97-6.55-2.64-.17.73-.35,1.45-.55,2.17-.2.72-.4,1.44-.62,2.15-.22.71-.45,1.42-.7,2.13-.25.7-.5,1.41-.77,2.1-.27.7-.55,1.39-.85,2.07-.29.69-.6,1.37-.92,2.04-.32.68-.65,1.35-.99,2.01-.34.66-.69,1.32-1.06,1.97-.36.65-.74,1.3-1.13,1.94-.39.64-.78,1.27-1.19,1.89-.41.62-.83,1.24-1.26,1.85-.43.61-.87,1.21-1.32,1.81-.45.59-.91,1.18-1.39,1.76-.47.58-.95,1.15-1.45,1.71-.49.56-.99,1.11-1.5,1.66-.51.54-1.03,1.08-1.56,1.6-2.5,2.46-5.29,4.53-7.87,6.89,3.58,1.78,7.1,3.77,10.3,6.18,6.81,5.11,13.57,12.92,16.78,20.86l1.73-.82c12.92-7.3,21.51-18,25.49-32.37.21-.77.42-1.54.57-2.32-.7-2.06-1.78-4.06-2.81-5.97-4.66-8.63-11.5-16.29-20.39-20.68Z"/>
        <path class="cls-1" d="M289.56,301.38c-5.88,10.54-15.68,18.94-24.33,27.16-15.91,15.11-28.7,33.17-27.95,56,.48.97,1.86,4.03,2.58,4.61.27.69.54,1.61,1.21,2.01,1.2.08,3.06-1.02,4.15-1.56,6.55-3.21,12.77-7.04,18.29-11.84,20.16-17.52,29.81-44.66,31.59-70.73.47-6.88.73-14.09-.23-20.94-1.21,5.37-2.62,10.44-5.32,15.29Z"/>
        <path class="cls-1" d="M282.3,228.01c-4.66-1.55-9.2-3.41-13.6-5.6-3.23-1.63-6.12-3.81-9.3-5.49.79,2.5,1.59,4.99,2.09,7.57,1.98,10.15,1.28,21.74-1.99,31.54,9.75,9.6,27.37,16.15,40.96,16.06,4.61-.03,15.27-1.43,18.48-4.72,1.05-1.08,1.87-2.59,2.7-3.86,6.56-10.95,9.31-22.71,6.16-35.3-16.03,5.29-29.45,5.24-45.5-.2Z"/>
        <path class="cls-1" d="M102.81,100.04c.06.52.13,1.04.2,1.55.07.52.15,1.03.24,1.55.09.52.18,1.03.28,1.54.1.51.21,1.02.32,1.54.11.51.23,1.02.36,1.53.13.51.26,1.01.4,1.52.14.5.28,1.01.43,1.51.15.5.31,1,.47,1.5.16.5.33.99.51,1.48.18.49.36.98.55,1.47.19.49.38.97.58,1.46s.41.96.62,1.44c.21.48.43.95.66,1.42.22.47.45.94.69,1.41.24.47.48.93.73,1.39.25.46.5.92.76,1.37.26.45.52.9.79,1.35s.55.89.83,1.33c.28.44.57.88.86,1.31.29.43.59.86.89,1.29.3.43.61.85.93,1.27.31.42.63.83.96,1.24.32.41.65.82.99,1.22s.67.8,1.02,1.19c.34.39.69.78,1.05,1.17.35.38.71.76,1.08,1.14.36.38.73.75,1.11,1.11.37.37.75.73,1.13,1.08.38.36.77.71,1.16,1.06.39.35.79.69,1.19,1.03.4.34.8.67,1.21,1,9.82,7.99,22.47,13.74,34.76,16.64,1.43.25,2.85.52,4.3.66-.4-1.55-.53-2.71.29-4.18,1.41-2.53,4.89-3.97,7.56-4.64,2.97-.75,6.07-.9,9.13-.82-18.77-12.57-34.21-34.02-38.65-56.33-1.97-9.91-1.29-19.37.99-29.15-5.5-1.41-11.42-2.37-17.11-1.96-4.76.32-15.03,1.46-18.24,5.19-1.23,1.43-2.03,3.37-2.76,5.09-3.56,8.41-4.34,17.46-3.42,26.49.05.52.1,1.04.16,1.56Z"/>
        <path class="cls-1" d="M113.06,185.74c14.66-13.88,33.21-19.57,52.91-21.82-.67-.79-1.43-1.91-2.38-2.35-2.77-1.28-6.39-1.72-9.35-2.61-1.78-.53-3.55-1.11-5.3-1.74-1.75-.63-3.48-1.31-5.19-2.04-1.71-.73-3.4-1.51-5.06-2.34-1.66-.83-3.3-1.7-4.92-2.63-9.72-5.63-17.74-12.66-24.21-21.89-1.29-1.84-2.52-3.72-3.71-5.63-.6-.97-1.06-2.26-1.86-3.05-.17,0-.44-.03-.6,0-13.43,2.33-28.86,11.42-36.76,22.63-2.12,3.01-4.08,6.47-5.65,9.8,1.42,4.96,2.85,9.9,5.08,14.58,5.24,11,15.05,19.89,25.6,25.74,3.8,2.11,7.96,3.87,12.26,4.62,2.81-4.08,5.58-7.81,9.14-11.28Z"/>
        <path class="cls-1" d="M216.46,44.36c13.75,15.28,19.58,37.63,18.53,57.87-.12,2.52-.37,5.03-.74,7.53-.37,2.5-.87,4.97-1.48,7.42.83,1.18,1.35,2.39,1.88,3.72,1.31-2.39,2.67-4.76,4.08-7.1,11.39-19.11,28.24-36.22,50.41-41.84,1.5-.38,3.01-.69,4.54-.95,2.14-16.75-2.98-34.57-13.29-47.92-3.88-5.03-8.58-9.07-13.8-12.66-.92-.64-2.25-1.71-3.35-1.94-4.53,1.39-9.13,2.67-13.49,4.54-12.31,5.3-25.04,15.42-31.39,27.43-.67,1.27-1.3,2.57-1.88,3.89Z"/>
        <path class="cls-1" d="M316.7,158.64c-.05-.02-.1-.04-.15-.06-4.21,3.25-9.05,5.83-13.91,7.95-15.8,6.85-30.38,7.61-47.35,7.41,1.94,2.58,4.55,6.19,4.06,9.62-.18,1.25-.88,2.28-1.91,2.98-3.21,2.18-8.65,1.89-12.26,1.11-1.56-.34-3.08-.8-4.6-1.29,2.82,4.58,4.08,8.67,4.51,14.01,8.08,9.23,18.67,16.52,29.83,21.53,16.82,6.89,35.69,9.49,52.9,2.3,6.67-2.79,18.02-9.69,20.81-16.6,1.8-4.45-2.37-16.86-4.37-21.4-5.28-11.99-15.12-22.77-27.55-27.55Z"/>
        <path class="cls-1" d="M174.36,234.79l.13-.13c.28-10.66,2.56-20.24,7.17-29.85,1.08-2.25,2.73-4.31,3.71-6.57.51-1.17.45-2.68.72-3.93.64-2.99,1.91-5.69,3.42-8.33-4.57,1.95-10.92,4.12-15.8,2.14-1.25-.51-2.37-1.35-2.92-2.62-.78-1.81-.21-3.99.53-5.72,1.94-4.57,5.49-7.55,9.48-10.28-1.53-.33-3.03-.7-4.52-1.22-1.94-.67-3.95-1.69-6-1.91-.97-.1-2.03.03-3,.1-19.75,1.37-41.24,8.33-54.62,23.69-9.46,10.86-14.86,25.63-13.83,40.09.14,1.92.36,3.85.81,5.72,9.89,9.05,21.08,13.27,34.54,13.28,11.79-.1,22.97-2.75,33.03-9.04,2.52-1.58,5.07-3.32,7.17-5.43Z"/>
        <path class="cls-1" d="M222.38,289.58c12.83-3.93,23.55-13.37,29.81-25.17,7.09-13.37,9.79-29.46,5.24-44.13-.57-1.85-1.26-4.13-2.31-5.74-1.18-1.8-3.38-3.4-4.91-4.94-2.08-2.1-4.06-4.41-5.9-6.73-.94,1.6-1.82,2.8-3.71,3.33-2.49.69-5.31-.4-7.43-1.67-2.77-1.66-5.04-3.85-6.86-6.5-.57-.83-1.13-1.98-1.87-2.63-.3,6.43-1.51,13.93-6.49,18.54-1.09,1.01-2.45,1.85-3.99,1.79-1.8-.07-3.36-1.23-4.5-2.54-3.72-4.26-4.59-10.06-4.84-15.49-2.85,3.92-7.04,8.79-12.14,9.54-1.31.19-2.6-.03-3.65-.88-1.12-.91-1.76-2.36-2.42-3.6-.26.43-.51.86-.75,1.29s-.49.87-.72,1.31c-.23.44-.46.88-.69,1.33-.22.45-.44.89-.66,1.34-.21.45-.42.9-.62,1.36-.2.46-.4.91-.59,1.37-.19.46-.38.92-.55,1.39-.18.47-.35.93-.52,1.4-.17.47-.33.94-.49,1.41-.16.47-.31.95-.45,1.43-.14.48-.28.96-.41,1.44-.13.48-.26.96-.38,1.45-.12.48-.23.97-.34,1.45-.11.49-.21.97-.31,1.46-.1.49-.19.98-.27,1.47-.08.49-.16.98-.23,1.48-.07.49-.14.99-.2,1.48-.06.49-.11.99-.16,1.49-.05.5-.09.99-.12,1.49-.04.5-.06.99-.09,1.49-.02.5-.04,1-.05,1.49-.01.5-.01,1-.01,1.49,0,.5,0,1,.02,1.49.01.5.03,1,.06,1.49.03.5.06.99.1,1.49.04.5.08.99.13,1.49.05.5.11.99.17,1.48.06.49.13.99.21,1.48.08.49.16.98.25,1.47.09.49.18.98.28,1.47.1.49.21.97.32,1.46.11.49.23.97.35,1.45,3.39,13.05,11.98,24.08,22.91,31.76,6.27,4.14,12.45,7.2,19.78,8.96Z"/>
        <path class="cls-1" d="M181.94,146.32c-2.53-4.12-6.46-11.97-5.16-16.86.29-1.08.96-1.97,1.97-2.47,2.36-1.17,5.87-.27,8.2.59,3.78,1.4,7,3.9,9.94,6.6l.25-.03c-.09-1.29-.39-2.54-.45-3.84-.22-4.65.32-11.42,3.49-15.12.83-.97,1.89-1.65,3.18-1.74,2.11-.16,4.08,1.2,5.57,2.55,3.43,3.09,5.51,7.07,7.13,11.32,2.36-4.96,5.9-10.02,11.3-11.94.91-.32,1.79-.44,2.76-.45,5.02-17.47,1.09-39.4-7.61-55.12-8.02-14.5-20.27-25.68-36.41-30.31-4.27-1.23-10.44-2.51-14.82-1.83-2.25,1.7-4.43,3.38-6.44,5.36-10.38,10.23-16.53,24.62-18.51,38.92-2.83,20.45,4.45,39.8,16.71,55.96,5.39,7.11,11.8,13.04,18.89,18.41Z"/>
        <path class="cls-1" d="M251.89,99.95c-4.52,5.2-14.41,19.03-16.23,25.16-.72,2.42-.54,5.9-1.07,8.64,3.91-2.63,9.87-6.09,14.73-5.06,1.17.25,2.19.85,2.84,1.86,1.21,1.87.72,4.63.21,6.67-1.14,4.57-3.48,8.68-6.41,12.32,4.88-.49,11.71-.35,15.75,2.88,1.02.82,1.81,1.92,1.93,3.26.2,2.16-1.36,4.33-2.73,5.87-3.03,3.4-7.27,5.72-11.52,7.26,1.26.81,2.63,1.92,4.12,2.18,6.09.2,12.16.41,18.24-.05,18.37-1.37,36.33-8.13,49.9-20.79,13.12-12.24,21.66-29.34,22.26-47.39.15-4.46.23-11.6-2.96-14.96-9.06-9.56-22.88-13.51-35.75-13.75-1.82-.03-3.73-.08-5.54.11-18.78,1.32-35.63,11.81-47.79,25.81Z"/>
      </g>
    </g>
  </g>
</svg>