<?xml version="1.0" encoding="UTF-8"?>
<svg id="Layer_2" data-name="Layer 2" xmlns="http://www.w3.org/2000/svg" xmlns:xlink="http://www.w3.org/1999/xlink" viewBox="0 0 466 427">
  <defs>
    <style>
      .cls-1 {
        fill: #010101;
      }

      .cls-2 {
        fill: #fff;
      }

      .cls-3 {
        fill: none;
      }

      .cls-4 {
        clip-path: url(#clippath);
      }
    </style>
    <clipPath id="clippath">
      <rect class="cls-3" width="466" height="427"/>
    </clipPath>
  </defs>
  <g id="Layer_1-2" data-name="Layer 1">
    <g class="cls-4">
      <g>
        <path class="cls-2" d="M185.49,282.52c-3.4,4.48-6.9,8.9-9.79,13.76,19.67-2.37,38.42-14.55,47.1-32.61,5.18-10.26,6.87-21.95,6.34-33.34-6.11,6.14-11.56,12.88-17.2,19.43-9.13,10.67-17.77,21.73-26.45,32.75Z"/>
        <path class="cls-2" d="M203.82,188.85c4.5.59,8.89-2.24,11.26-5.94,4.76-7.66,4.93-18.44-.82-25.64-2.55-3.01-6.96-5.17-10.85-3.68-6.11,3.03-12.19,6.11-18.31,9.11,1.53,6.04,1.91,12.38.61,18.51,6.07,2.47,11.96,5.39,18.12,7.64Z"/>
        <path class="cls-2" d="M179.78,283.48c14.82-18.89,29.95-37.56,45.76-55.63-17.09,2.05-34.13,10.1-44.12,24.51-7.91,11.56-10.52,26.25-8.22,39.96,2.11-3.01,4.39-5.9,6.58-8.85Z"/>
        <path class="cls-2" d="M173.1,151.21c-6.22-5.55-14.94-8.22-23.19-6.92-8.52,1.25-16.42,6.36-20.87,13.75-3.79,6.19-4.84,13.86-3.46,20.95,2.92,14.01,17.37,24.36,31.57,22.72,13.65-1.26,25.22-13.51,25.79-27.19.54-8.74-3.2-17.6-9.84-23.31Z"/>
        <path class="cls-2" d="M268.76,152.9c-2.53.4-5.26.74-7.27,2.49-5.12,4.16-6.87,11.25-6.29,17.6.54,5.23,2.44,10.82,6.93,13.96,2.36,1.45,5.38,2.64,8.12,1.59,5.9-2.17,11.49-5.05,17.33-7.35-1.16-6.22-.99-12.66.87-18.73-6.69-2.92-13.07-6.48-19.68-9.55Z"/>
        <path class="cls-2" d="M245.11,109.49c6.68-1.7,12.46-5.98,16.84-11.21,6.11-7.49,8.71-17.74,6.75-27.23-2.03-10.14-8.96-19.32-18.44-23.59-6.53-2.93-14-3.95-21.02-2.36-16.38,3.24-28.1,20.62-25.56,37.01,1.16,8.65,6.05,16.61,12.93,21.93,7.99,6.05,18.84,8.4,28.5,5.44Z"/>
        <path class="cls-2" d="M193.12,219.02c7.58-2.7,12.95-10.64,12.54-18.69-.2-3.05-1.38-6.42-4.22-7.94-5.46-2.86-11.23-5.12-16.92-7.47-3.18,6.35-7.67,12.16-13.74,16,1.71,3.97,2.87,8.17,4.77,12.07,3.46,5.83,11.28,8.34,17.58,6.03Z"/>
        <path class="cls-2" d="M300.75,194.88c7.09,6,17.12,8.53,26.12,6.05,6.59-1.89,12.48-6.14,16.38-11.78,4.46-6.34,6.14-14.58,4.47-22.16-1.99-9-8.37-17.04-16.91-20.64-5.66-2.5-12.13-2.94-18.13-1.54-7.75,1.78-14.64,6.89-18.66,13.75-3.31,5.91-4.43,12.97-3.26,19.64,1.26,6.5,4.9,12.46,9.98,16.68Z"/>
        <path class="cls-2" d="M272.77,191.71c-2.93,1.09-4.52,4.19-4.98,7.13-1.08,8.91,4.92,18.5,13.9,20.45,6.46,1.9,13.88-1.66,16.64-7.75,1.62-3.5,2.93-7.13,4.12-10.8-5.94-4.02-10.88-9.64-13.8-16.21-5.23,2.52-10.54,4.88-15.87,7.19Z"/>
        <path class="cls-2" d="M305.53,345.91c11.95,5.16,25.94,3.9,37.69-1.23,10.72-4.85,19.69-13.16,26.1-22.96,7.57-11.78,11.92-25.53,12.53-39.51-3.72,2.98-7.52,5.88-11.18,8.93-21.83,18.11-43.89,35.97-65.14,54.76Z"/>
        <path class="cls-2" d="M195.6,422.36c-18.19-.1-36.37.2-54.56-.13.02.12.05.25.07.37h187.75c.02-.07.03-.14.05-.21-44.44-.1-88.88.02-133.31-.02Z"/>
        <path class="cls-2" d="M301.58,282.98c.57-15.48-6.55-31.06-18.55-40.85-9.86-8.34-22.48-12.8-35.19-14.24,18.5,20.53,36.17,41.87,52.69,64.02.38-2.98.91-5.94,1.05-8.94Z"/>
        <path class="cls-2" d="M303.65,342.18c24.2-20.87,48.99-41.04,73.53-61.52.39-.48,1.2-.76,1.22-1.46-17.07-2.14-34.84,3.48-47.91,14.6-10.11,7.82-17.26,18.86-21.97,30.62-2.07,5.79-3.58,11.75-4.87,17.76Z"/>
        <path class="cls-2" d="M138.05,418.61c64.97.07,129.94.03,194.91.02,1.96-.28,5.15.55,5.77-2.05,4.04-11.67,8.17-23.32,12.1-35.04.69-1.99,1.38-4.18.61-6.25-.88-2.73-3.88-4.18-6.61-4.09-73.15,0-146.3,0-219.44.02-.25.04-.77.13-1.02.18-4.33,1.28-5.85,6.48-4.95,10.51,1.83,9.13,3.58,18.31,6.28,27.23,1.48,5.39,6.53,9.96,12.35,9.47Z"/>
        <path class="cls-2" d="M239.86,145.9c-2.16.13-4.31.15-6.46.04.06,73.87.06,147.74.04,221.61,2.13.01,4.25.03,6.38.04-.03-31.65.06-63.29.01-94.94-.28-20.17.49-40.35.03-60.52.35-12.29-.29-24.6.09-36.9.23-9.78-.19-19.54-.09-29.32Z"/>
        <path class="cls-2" d="M307.58,270.55c-4.7,32.85-12.23,65.27-21.97,96.99,2.25.03,4.52.06,6.77-.11,2.26-8.45,4.85-16.83,7.03-25.3,9.37-34.77,15.09-70.43,19.31-106.16-2.21-.2-4.39-.55-6.56-.98-1.2,11.89-2.84,23.73-4.58,35.56Z"/>
        <path class="cls-2" d="M256.96,124.96c-.76-4.95-2.83-9.59-4.45-14.3-9.92,4.77-21.78,4.93-31.77.28-1.58,3.63-2.9,7.36-4.07,11.14-1.45,4.07-.17,8.69,2.24,12.12,7.15,9.64,22.49,10.99,31.77,3.73,3.85-3.14,6.39-7.96,6.28-12.97Z"/>
        <path class="cls-2" d="M244.06,229.97c-.24,10.74,1.63,21.52,5.55,31.53,8.04,19.37,27.78,33.03,48.57,34.59-4.07-6.72-9.19-12.72-13.92-18.98-2.98-3.91-6.02-7.75-9.19-11.49-9.95-12.21-19.97-24.4-31-35.65Z"/>
        <path class="cls-2" d="M183.69,159.11c5.67-2.8,11.42-5.46,16.98-8.46,3.97-2.27,5.01-7.39,4.59-11.61-.46-6.17-4.44-11.85-9.95-14.58-6.77-3.43-16.68-1.66-20.51,5.32-2.32,4.53-3.95,9.37-5.55,14.19,6.22,3.43,11.05,8.96,14.44,15.14Z"/>
        <path class="cls-2" d="M104.06,188.83c6.23-2.11,12.06-5.23,18.19-7.61-1.2-6.23-.97-12.69.89-18.76-6.09-2.83-12.15-5.75-18.12-8.82-2.1-1.37-4.62-.41-6.76.33-4.75,1.89-7.38,6.9-8.35,11.68-1.09,6.12-.25,12.85,3.35,18.04,2.37,3.38,6.6,5.88,10.8,5.14Z"/>
        <path class="cls-2" d="M142.51,142.33c7.46-2.58,15.84-2.89,23.22.14,1.49-4.18,3.15-8.29,4.67-12.45,1.24-2.77.31-5.82-.35-8.61-1.31-5.41-6.52-8.95-11.75-9.92-5.59-.93-11.85-.3-16.4,3.36-3.91,3.01-5.6,8.27-4.93,13.05,1.64,4.89,3.79,9.58,5.54,14.44Z"/>
        <path class="cls-2" d="M194.5,120.08c4.61,1.48,8.09,4.9,11.3,8.36,2.56-1.69,6.09-2.92,6.96-6.21,1.45-4.5,3.09-8.94,4.61-13.42-7.18-4.33-12.78-11.36-15.43-19.32-6.08,2.15-11.81,5.18-17.74,7.69-2.43,1.02-5.22,2.13-6.19,4.83-2.84,6,.43,12.53,3.55,17.71,4.28-.75,8.78-1.23,12.94.35Z"/>
        <path class="cls-2" d="M180.68,94.7c6.8-2.7,13.4-5.86,20-9-1.45-7.09-.89-14.45,1.54-21.27-7.86-3.74-15.59-7.8-23.5-11.43-2.19-1.22-4.72.1-6.69,1.19-5.36,3.49-7.82,10.04-8.47,16.16-.64,7.51,1,15.7,6.26,21.35,2.65,2.92,7.07,4.59,10.86,2.99Z"/>
        <path class="cls-2" d="M138.62,290.54c-12.94-8.95-29.13-13.14-44.78-11.35,17.67,14.8,35.36,29.57,53.07,44.32,7.46,5.99,14.71,12.24,22.04,18.39-1.01-5.57-2.45-11.06-4.05-16.48-4.83-13.98-14.09-26.45-26.27-34.88Z"/>
        <path class="cls-2" d="M124.03,185.68c-.24-1.34-1.57-.7-2.34-.37-4.9,2.3-9.89,4.39-14.82,6.64-2.51.97-3.82,3.59-4.42,6.05-1.74,8.97,4.13,18.93,13.08,21.26,4.62,1.51,9.95.48,13.63-2.7,4.92-3.8,5.82-10.34,8.04-15.76-5.7-3.65-10.46-8.9-13.18-15.12Z"/>
        <path class="cls-2" d="M181.6,50.29c7.47,3.37,14.67,7.34,22.24,10.5,3.68-7.07,9.53-12.83,16.52-16.61-2.72-6.16-5.24-12.41-8.22-18.45-1.49-3.03-4.48-5.14-7.73-5.92-4.14-.9-8.42.27-12.15,2.07-7.65,3.73-13.76,11.18-14.73,19.77-.3,3.24.66,7.41,4.06,8.65Z"/>
        <path class="cls-2" d="M186.71,367.55c-8.03-25.9-13.68-52.5-17.79-79.28-2.58-17.82-5.06-35.67-6.78-53.6-2.19.66-4.43,1.03-6.69,1.29,4.87,44.35,11.73,88.69,24.42,131.54,2.28.03,4.56.04,6.84.04Z"/>
        <path class="cls-2" d="M170.7,211.21c-1.1-2.85-1.97-5.8-3.4-8.52-8.44,3.9-18.35,3.65-26.8-.07-1.72,5.45-4.87,11.01-3.26,16.88.94,5.51,5.26,9.94,10.49,11.64,5.24,1.69,11.42,1.72,16.19-1.34,6.21-3.55,9.38-11.87,6.78-18.59Z"/>
        <path class="cls-2" d="M90.53,281.99c-.18-.01-.55-.05-.73-.07,1.6.69.95,2.71,1.29,4.06,1.22,13.5,5.57,26.87,13.43,37.98,7.81,11.26,19.4,20.04,32.71,23.61,9.95,2.48,20.91,2.62,30.44-1.5-15.23-13.26-31.09-25.74-46.36-38.96-10.14-8.53-20.42-16.89-30.79-25.13Z"/>
        <path class="cls-2" d="M106.84,150.3c5.77,3.17,11.75,5.97,17.69,8.8,3.03-6.34,8.11-11.67,14.3-14.99-1.09-4.44-3.02-8.6-4.76-12.81-1.46-3.51-4.36-6.44-7.94-7.75-4.24-1.67-9.03-.98-13.16.69-6.9,3.13-10.85,11.07-10.25,18.48.21,2.92,1.27,6.23,4.11,7.58Z"/>
        <path class="cls-2" d="M350.43,162.66c1.51,6.03,1.93,12.38.57,18.48,5.86,2.67,11.7,5.35,17.71,7.66,3.94.89,8.03-1.3,10.6-4.21,6.14-7.82,6.45-19.97.04-27.73-2.66-2.93-7.23-5.09-11.03-3.08-5.97,2.94-11.91,5.94-17.89,8.87Z"/>
        <path class="cls-2" d="M348.81,158.96c5.38-2.2,10.53-4.88,15.72-7.46,2.12-1,4.2-2.47,5.07-4.75,2.51-6.34.54-13.92-4.09-18.78-3.88-4.2-9.98-6.16-15.58-5.09-4.87.73-9.12,4.25-10.93,8.8-1.59,4.06-3.26,8.11-4.47,12.31,6.18,3.33,11.11,8.74,14.29,14.97Z"/>
        <path class="cls-2" d="M224.05,42.83c7.69-3.01,16.3-2.89,24.08-.29,2.9-6.32,5.97-12.57,8.42-19.08.68-3.75-1.38-7.49-3.89-10.15-4.81-4.86-12.1-5.86-18.63-5.58-6.22.02-12.82,2.37-16.47,7.66-1.82,2.71-3.35,6.36-1.69,9.5,2.53,6.07,5.16,12.1,8.17,17.94Z"/>
        <path class="cls-2" d="M305.69,202.57c-1.76,5.95-5.5,12.1-2.96,18.43,2.54,9.1,13.57,13.13,22.09,10.6,6.09-1.68,11.05-7.14,11.62-13.51.83-5.44-2.01-10.41-3.82-15.34-8.5,3.82-18.46,3.65-26.93-.17Z"/>
        <path class="cls-2" d="M307.78,142.38c7.43-2.64,15.82-2.9,23.2.04,1.67-4.9,3.79-9.64,5.38-14.56.19-3.04-.3-6.22-1.71-8.95-2.64-4.43-7.62-7.05-12.66-7.6-5.07-.58-10.6.21-14.64,3.55-3.87,3.04-5.33,8.25-5.11,13,1.39,4.99,3.88,9.61,5.54,14.52Z"/>
        <path class="cls-2" d="M366.67,192.34c-5.48-2.81-11.25-5.01-16.9-7.45-2.91,6.53-7.76,12.16-13.74,16.08,1.29,3.53,2.53,7.09,4,10.55,1.67,4.14,5.63,7.13,9.95,8.04,4.59,1.08,9.52-.28,13.25-3.06,4.88-3.49,7.71-9.5,7.86-15.44.04-3.34-1.2-7.18-4.42-8.72Z"/>
        <path class="cls-2" d="M288.45,55.42c-5.96,2.95-12.04,5.68-17.81,8.99,2.3,6.72,2.84,13.98,1.47,20.95.9.89,2.16,1.33,3.27,1.93,5.57,2.6,11.19,5.13,16.91,7.41,3.09,1.31,6.55-.13,9.06-2.04,4.3-3.46,6.47-8.88,7.39-14.2,1.04-6.94.1-14.51-4.16-20.28-2.36-3.11-6-5.82-10.09-5.46-2.13.63-4.04,1.78-6.05,2.69Z"/>
        <path class="cls-2" d="M276.93,125.29c-4.67,3.03-8.06,8.1-8.6,13.69-.35,3.42-.12,7.3,2.3,9.99,2.43,2.19,5.55,3.4,8.41,4.91,3.63,1.73,7.13,3.76,10.93,5.08,2.91-6.35,8.08-11.55,14.18-14.88-.96-3.64-2.55-7.07-3.91-10.57-1.26-3.2-3.09-6.34-6.01-8.27-5.14-3.34-12.12-3.07-17.3.05Z"/>
        <path class="cls-2" d="M268.83,60.81c3.8-1.4,7.27-3.55,10.91-5.31,3.91-2.05,8-3.71,11.8-5.95,2.62-1.61,3.08-5.03,3.13-7.84-.51-7.77-5.82-14.41-12.2-18.45-4.61-2.84-10.26-4.87-15.68-3.37-3,.97-5.91,2.93-7.1,5.97-2.68,6.03-5.43,12.04-7.9,18.17,7.38,3.51,13.2,9.64,17.04,16.78Z"/>
        <path class="cls-2" d="M290.43,98.04c-6.58-2.75-13.02-5.81-19.49-8.82-2.67,7.95-8.15,14.86-15.24,19.32,2.04,4.77,3.54,9.74,5.25,14.63,1.42,2.72,4.43,4.22,7.21,5.21,2.64-3.16,5.7-6.11,9.59-7.65,4.18-2.01,8.92-1.65,13.39-1.2,2.53-3.34,4.11-7.44,4.53-11.6.38-3.91-1.27-8.49-5.24-9.9Z"/>
        <path class="cls-1" d="M369.32,321.72c-6.41,9.8-15.38,18.1-26.1,22.96-11.75,5.12-25.73,6.39-37.69,1.23,21.25-18.79,43.31-36.65,65.14-54.76,3.66-3.06,7.46-5.96,11.18-8.93-.61,13.98-4.96,27.73-12.53,39.51ZM330.49,293.81c13.07-11.12,30.83-16.75,47.91-14.6-.01.7-.83.98-1.22,1.46-24.54,20.48-49.33,40.65-73.53,61.52,1.29-6,2.81-11.97,4.87-17.76,4.7-11.76,11.86-22.8,21.97-30.62ZM299.41,342.13c-2.18,8.48-4.77,16.85-7.03,25.3-2.25.17-4.52.14-6.77.11,9.74-31.72,17.27-64.14,21.97-96.99,1.74-11.83,3.38-23.67,4.58-35.56,2.17.44,4.36.78,6.56.98-4.22,35.73-9.94,71.39-19.31,106.16ZM243.32,263.07c-.02-2.74-.12-5.49.11-8.22,3.02,12.04,9.95,23.13,19.74,30.81,10,8.43,22.78,13.12,35.69,14.54-3.29,17.06-7.24,33.99-12.04,50.7-1.42,5.6-3.49,11.01-4.72,16.66-12.93.01-25.87,0-38.8-.01.04-34.82.08-69.64.01-104.47ZM239.86,212.11c.46,20.17-.31,40.35-.03,60.52.04,31.65-.04,63.29-.01,94.94-2.13,0-4.25-.02-6.38-.04.02-73.87.02-147.73-.04-221.61,2.15.11,4.3.09,6.46-.04-.1,9.78.32,19.54.09,29.32-.38,12.3.26,24.6-.09,36.9ZM218.91,134.21c-2.41-3.43-3.69-8.06-2.24-12.12,1.17-3.78,2.49-7.52,4.07-11.14,9.99,4.64,21.86,4.49,31.77-.28,1.62,4.71,3.69,9.35,4.45,14.3.12,5.01-2.43,9.84-6.28,12.97-9.28,7.27-24.62,5.91-31.77-3.73ZM229.97,269.74c.12,32.59-.03,65.19.01,97.79-13.17-.04-26.35.07-39.52.02-6.76-22.06-12.16-44.55-15.96-67.31,16.21-1.64,31.84-9.31,42.71-21.5,5.88-6.89,10.74-15,12.6-23.95.51,4.96.05,9.96.16,14.94ZM184.51,184.93c5.69,2.35,11.47,4.61,16.92,7.47,2.84,1.52,4.02,4.89,4.22,7.94.41,8.05-4.96,15.99-12.54,18.69-6.3,2.31-14.13-.21-17.58-6.03-1.9-3.89-3.06-8.09-4.77-12.07,6.07-3.84,10.56-9.65,13.74-16ZM157.15,201.7c-14.21,1.64-28.65-8.71-31.57-22.72-1.37-7.09-.32-14.75,3.46-20.95,4.45-7.39,12.35-12.5,20.87-13.75,8.26-1.3,16.98,1.37,23.19,6.92,6.65,5.71,10.38,14.57,9.84,23.31-.57,13.67-12.15,25.92-25.79,27.19ZM185.1,162.7c6.12-3.01,12.21-6.08,18.31-9.11,3.9-1.48,8.31.67,10.85,3.68,5.75,7.19,5.58,17.98.82,25.64-2.37,3.7-6.76,6.53-11.26,5.94-6.16-2.25-12.05-5.18-18.12-7.64,1.31-6.13.92-12.47-.61-18.51ZM192.71,222.91c9.18-2.22,16.1-11.03,16.52-20.4.2-3.49-.45-7.19-2.58-10.06,6.32-.76,11.36-5.86,13.6-11.59,2.9-7.69,2.65-16.86-1.74-23.95-2.66-3.76-6.66-7.1-11.44-7.36,2.3-5.65,2.5-12.4-.06-17.99,2.02-.94,3.93-2.11,5.7-3.47,1.63,8.49,8.61,15.68,17.16,17.24.15,26.11.04,52.22.15,78.32-15.76.94-31.49,6.49-43.34,17.14-8.24,7.27-13.71,17.18-16.55,27.72-.25-.53-.42-1.09-.51-1.65-1.49-11.19-3.12-22.37-4.08-33.63,5.2-3.3,9.02-8.84,9.51-15.06,4.48,4.63,11.47,6.43,17.66,4.73ZM222.8,263.67c-8.68,18.05-27.43,30.24-47.1,32.61,2.89-4.85,6.39-9.27,9.79-13.76,8.68-11.02,17.32-22.08,26.45-32.75,5.64-6.56,11.09-13.3,17.2-19.43.53,11.39-1.16,23.08-6.34,33.34ZM181.42,252.36c9.99-14.41,27.03-22.47,44.12-24.51-15.81,18.07-30.94,36.73-45.76,55.63-2.19,2.95-4.47,5.83-6.58,8.85-2.3-13.71.31-28.41,8.22-39.96ZM216.61,104.05c-6.87-5.32-11.77-13.28-12.93-21.93-2.54-16.4,9.19-33.77,25.56-37.01,7.02-1.59,14.49-.58,21.02,2.36,9.48,4.28,16.41,13.45,18.44,23.59,1.96,9.49-.64,19.74-6.75,27.23-4.38,5.23-10.16,9.51-16.84,11.21-9.67,2.95-20.51.61-28.5-5.44ZM302.44,200.73c-1.19,3.66-2.5,7.3-4.12,10.8-2.75,6.09-10.17,9.66-16.64,7.75-8.97-1.94-14.97-11.53-13.9-20.45.47-2.93,2.05-6.03,4.98-7.13,5.33-2.31,10.63-4.67,15.87-7.19,2.92,6.58,7.86,12.2,13.8,16.21ZM294.03,158.56c4.02-6.86,10.91-11.97,18.66-13.75,6-1.4,12.48-.95,18.13,1.54,8.54,3.6,14.92,11.64,16.91,20.64,1.66,7.58-.01,15.82-4.47,22.16-3.91,5.63-9.79,9.89-16.38,11.78-9.01,2.47-19.04-.06-26.12-6.05-5.09-4.22-8.73-10.18-9.98-16.68-1.17-6.67-.04-13.73,3.26-19.64ZM287.57,181.18c-5.84,2.3-11.43,5.18-17.33,7.35-2.75,1.05-5.76-.13-8.12-1.59-4.48-3.13-6.39-8.73-6.93-13.96-.58-6.35,1.17-13.43,6.29-17.6,2.02-1.75,4.74-2.09,7.27-2.49,6.62,3.06,13,6.62,19.68,9.55-1.86,6.07-2.03,12.5-.87,18.73ZM266.37,149.55c-5.84.78-10.66,5.21-12.77,10.59-3.2,8.03-2.79,17.74,2.01,25.08,2.39,3.85,6.41,6.43,10.82,7.35-3.49,5.43-2.57,12.52-.06,18.16,3.51,8.19,12.67,13.98,21.63,12.45,3.97-.51,7.36-2.83,10.38-5.31.59,6.61,4.54,12.79,10.49,15.82-1.53,11.61-2.81,23.24-4.66,34.81-2.96-9.03-7.28-17.82-13.99-24.68-11.98-12.77-29.58-19.15-46.81-19.97-.07-26.11.07-52.22.02-78.33,5.6-1.46,10.94-4.71,13.96-9.75,1.51-2.34,2.19-5.07,3-7.69,1.79,1.45,3.82,2.57,5.97,3.43-1.93,5.81-2.52,12.34,0,18.08ZM247.84,227.89c12.71,1.43,25.33,5.89,35.19,14.24,12,9.79,19.12,25.36,18.55,40.85-.14,3-.66,5.97-1.05,8.94-16.52-22.16-34.19-43.49-52.69-64.02ZM298.18,296.08c-20.79-1.55-40.53-15.21-48.57-34.59-3.91-10-5.78-20.79-5.55-31.53,11.04,11.25,21.05,23.44,31,35.65,3.17,3.74,6.22,7.58,9.19,11.49,4.73,6.25,9.85,12.26,13.92,18.98ZM336.45,218.08c-.57,6.37-5.53,11.83-11.62,13.51-8.52,2.53-19.55-1.49-22.09-10.6-2.54-6.33,1.2-12.48,2.96-18.43,8.47,3.82,18.43,3.99,26.93.17,1.82,4.93,4.65,9.9,3.82,15.34ZM363.23,216.5c-3.74,2.78-8.67,4.14-13.25,3.06-4.31-.92-8.28-3.9-9.95-8.04-1.47-3.46-2.71-7.02-4-10.55,5.98-3.92,10.83-9.55,13.74-16.08,5.65,2.44,11.42,4.64,16.9,7.45,3.23,1.54,4.46,5.38,4.42,8.72-.16,5.94-2.98,11.95-7.86,15.44ZM379.35,156.87c6.41,7.76,6.09,19.91-.04,27.73-2.57,2.91-6.67,5.1-10.6,4.21-6-2.31-11.85-5-17.71-7.66,1.37-6.11.95-12.45-.57-18.48,5.98-2.92,11.92-5.93,17.89-8.87,3.8-2.01,8.37.15,11.03,3.08ZM349.92,122.88c5.6-1.07,11.7.89,15.58,5.09,4.63,4.86,6.6,12.43,4.09,18.78-.86,2.27-2.95,3.74-5.07,4.75-5.19,2.58-10.34,5.26-15.72,7.46-3.18-6.22-8.11-11.64-14.29-14.97,1.21-4.2,2.89-8.25,4.47-12.31,1.81-4.55,6.06-8.07,10.93-8.8ZM307.35,114.86c4.04-3.34,9.57-4.13,14.64-3.55,5.04.55,10.02,3.17,12.66,7.6,1.41,2.73,1.9,5.91,1.71,8.95-1.59,4.93-3.71,9.67-5.38,14.56-7.38-2.94-15.77-2.68-23.2-.04-1.65-4.92-4.15-9.53-5.54-14.52-.22-4.75,1.24-9.95,5.11-13ZM300.24,133.51c1.36,3.5,2.95,6.93,3.91,10.57-6.11,3.33-11.28,8.53-14.18,14.88-3.8-1.32-7.3-3.35-10.93-5.08-2.86-1.51-5.98-2.72-8.41-4.91-2.41-2.69-2.64-6.57-2.3-9.99.55-5.59,3.94-10.66,8.6-13.69,5.18-3.12,12.16-3.39,17.3-.05,2.92,1.93,4.76,5.07,6.01,8.27ZM295.67,107.94c-.42,4.16-2,8.26-4.53,11.6-4.47-.44-9.21-.8-13.39,1.2-3.89,1.54-6.95,4.49-9.59,7.65-2.78-1-5.8-2.49-7.21-5.21-1.71-4.9-3.21-9.86-5.25-14.63,7.09-4.47,12.57-11.38,15.24-19.32,6.46,3.01,12.91,6.06,19.49,8.82,3.97,1.41,5.63,5.99,5.24,9.9ZM304.59,58.18c4.25,5.77,5.2,13.33,4.16,20.28-.92,5.32-3.09,10.74-7.39,14.2-2.51,1.9-5.97,3.35-9.06,2.04-5.72-2.28-11.33-4.81-16.91-7.41-1.11-.6-2.37-1.03-3.27-1.93,1.37-6.97.83-14.23-1.47-20.95,5.77-3.32,11.85-6.04,17.81-8.99,2.01-.91,3.92-2.06,6.05-2.69,4.08-.36,7.73,2.35,10.09,5.46ZM266.79,19.88c5.42-1.5,11.08.53,15.68,3.37,6.38,4.04,11.69,10.68,12.2,18.45-.05,2.81-.51,6.23-3.13,7.84-3.8,2.24-7.89,3.91-11.8,5.95-3.64,1.76-7.1,3.91-10.91,5.31-3.84-7.15-9.67-13.28-17.04-16.78,2.47-6.13,5.22-12.14,7.9-18.17,1.19-3.04,4.1-5,7.1-5.97ZM217.56,15.4c3.65-5.29,10.25-7.63,16.47-7.66,6.53-.28,13.82.72,18.63,5.58,2.51,2.66,4.57,6.39,3.89,10.15-2.46,6.51-5.52,12.76-8.42,19.08-7.78-2.61-16.38-2.72-24.08.29-3.01-5.84-5.65-11.87-8.17-17.94-1.66-3.14-.13-6.79,1.69-9.5ZM177.54,41.65c.97-8.59,7.08-16.04,14.73-19.77,3.73-1.8,8-2.97,12.15-2.07,3.25.78,6.24,2.89,7.73,5.92,2.98,6.04,5.49,12.29,8.22,18.45-6.99,3.79-12.84,9.54-16.52,16.61-7.57-3.16-14.77-7.13-22.24-10.5-3.4-1.24-4.36-5.4-4.06-8.65ZM169.82,91.71c-5.26-5.66-6.9-13.84-6.26-21.35.65-6.12,3.11-12.67,8.47-16.16,1.97-1.09,4.5-2.41,6.69-1.19,7.92,3.63,15.64,7.69,23.5,11.43-2.43,6.82-2.99,14.18-1.54,21.27-6.6,3.14-13.2,6.3-20,9-3.79,1.6-8.21-.07-10.86-2.99ZM178.01,102.01c.97-2.7,3.76-3.81,6.19-4.83,5.94-2.5,11.67-5.54,17.74-7.69,2.65,7.95,8.25,14.99,15.43,19.32-1.52,4.47-3.17,8.91-4.61,13.42-.86,3.29-4.39,4.52-6.96,6.21-3.21-3.46-6.69-6.87-11.3-8.36-4.16-1.59-8.67-1.1-12.94-.35-3.12-5.18-6.39-11.71-3.55-17.71ZM174.8,129.78c3.83-6.98,13.74-8.75,20.51-5.32,5.52,2.72,9.5,8.41,9.95,14.58.41,4.22-.62,9.34-4.59,11.61-5.56,3.01-11.3,5.66-16.98,8.46-3.39-6.18-8.23-11.71-14.44-15.14,1.59-4.82,3.23-9.67,5.55-14.19ZM141.91,114.85c4.55-3.65,10.81-4.29,16.4-3.36,5.24.97,10.44,4.51,11.75,9.92.66,2.79,1.59,5.84.35,8.61-1.53,4.16-3.18,8.27-4.67,12.45-7.38-3.03-15.76-2.72-23.22-.14-1.75-4.85-3.9-9.55-5.54-14.44-.67-4.78,1.03-10.04,4.93-13.05ZM112.98,124.24c4.13-1.67,8.92-2.36,13.16-.69,3.59,1.31,6.48,4.23,7.94,7.75,1.74,4.21,3.66,8.37,4.76,12.81-6.19,3.32-11.27,8.65-14.3,14.99-5.94-2.83-11.92-5.63-17.69-8.8-2.84-1.34-3.91-4.65-4.11-7.58-.61-7.41,3.34-15.35,10.25-18.48ZM93.26,183.69c-3.6-5.19-4.44-11.92-3.35-18.04.97-4.78,3.6-9.79,8.35-11.68,2.14-.75,4.66-1.71,6.76-.33,5.97,3.07,12.03,6,18.12,8.82-1.87,6.08-2.09,12.53-.89,18.76-6.13,2.38-11.95,5.49-18.19,7.61-4.2.75-8.43-1.76-10.8-5.14ZM129.17,216.57c-3.68,3.17-9.01,4.2-13.63,2.7-8.96-2.33-14.83-12.29-13.08-21.26.6-2.47,1.91-5.09,4.42-6.05,4.92-2.24,9.92-4.33,14.82-6.64.77-.33,2.1-.97,2.34.37,2.72,6.22,7.48,11.47,13.18,15.12-2.22,5.42-3.12,11.97-8.04,15.76ZM147.73,231.14c-5.24-1.71-9.55-6.14-10.49-11.64-1.62-5.87,1.54-11.43,3.26-16.88,8.45,3.72,18.36,3.97,26.8.07,1.43,2.72,2.3,5.67,3.4,8.52,2.61,6.72-.57,15.04-6.78,18.59-4.76,3.06-10.94,3.03-16.19,1.34ZM137.23,347.57c-13.31-3.57-24.9-12.35-32.71-23.61-7.86-11.11-12.21-24.48-13.43-37.98-.35-1.35.31-3.37-1.29-4.06.18.02.55.06.73.07,10.37,8.23,20.65,16.6,30.79,25.13,15.26,13.22,31.13,25.7,46.36,38.96-9.53,4.12-20.5,3.98-30.44,1.5ZM146.91,323.51c-17.71-14.75-35.4-29.53-53.07-44.32,15.65-1.79,31.84,2.4,44.78,11.35,12.18,8.43,21.44,20.9,26.27,34.88,1.6,5.42,3.04,10.91,4.05,16.48-7.33-6.14-14.58-12.4-22.04-18.39ZM155.45,235.96c2.26-.26,4.5-.64,6.69-1.29,1.72,17.93,4.19,35.77,6.78,53.6,4.11,26.78,9.77,53.38,17.79,79.28-2.28,0-4.56-.01-6.84-.04-12.69-42.85-19.54-87.19-24.42-131.54ZM125.7,409.13c-2.69-8.92-4.44-18.1-6.28-27.23-.9-4.02.62-9.23,4.95-10.51.25-.04.77-.13,1.02-.18,73.14-.01,146.29-.01,219.44-.02,2.72-.09,5.73,1.36,6.61,4.09.77,2.07.07,4.26-.61,6.25-3.93,11.72-8.06,23.36-12.1,35.04-.63,2.61-3.82,1.77-5.77,2.05-64.97,0-129.94.04-194.91-.02-5.81.49-10.86-4.08-12.35-9.47ZM332.57,422.59c.02-.08.03-.15.05-.23,3.36-.07,8.15-.18,9.28-4.14,4.26-11.81,8.36-23.69,12.49-35.55,1.26-3.23,1.59-7.01-.17-10.12-1.78-3.41-5.79-5.04-9.48-4.98-16.21-.07-32.43.1-48.64-.07,1.74-6.18,3.55-12.34,5.29-18.52,9.37,3.3,19.43,4.93,29.33,3.39,7.63-1.24,14.83-4.37,21.46-8.28,8.88-5.6,16.1-13.55,21.58-22.44,8.09-13.48,11.97-29.29,11.76-44.97-14.42-3.47-30.04-1.37-43.35,5.08-12.97,6.4-24.11,16.57-31.36,29.1,4.54-24.92,8.68-49.94,11.66-75.09,9.18-.72,16.86-8.62,17.74-17.73,3.68,4.15,9.43,5.99,14.87,5.5,9.28-.8,17.1-8.53,19.06-17.47,1-4.54.84-9.72-1.98-13.62,6.61-.6,11.53-6.22,13.68-12.15,2.88-7.58,2.25-16.52-2.07-23.43-2.53-3.83-6.55-7.08-11.29-7.38,3.9-8.62,1.31-19.59-5.94-25.66-7.45-6.46-19.63-6.66-26.83.3-.32-7.28-5.99-13.45-12.8-15.48-7.21-2.19-15.76-1.65-21.8,3.2-3.99,3.05-5.76,8.14-6.33,12.97-1.17-1.4-2.58-2.56-4.1-3.54,1.57-2.81,2.95-5.74,3.91-8.81,1.36-4.62.87-9.79-1.74-13.88,6.93-1.19,11.63-7.31,13.9-13.57,3.32-9.32,2.72-20.39-2.98-28.67-2.61-3.53-6.28-6.57-10.74-7.27,2.01-5.26,1.34-11.28-1.04-16.3-4.11-8.67-12.63-14.94-22-16.73-4.91-.86-10.06.3-14.13,3.17-1.48-7.78-8.75-13.28-16.29-14.58-7.8-1.31-16.36-.98-23.31,3.16-3.98,2.68-7.49,6.68-8.2,11.58-5.02-3.59-11.73-4.4-17.52-2.36-8.58,3.01-16.28,9.55-19.24,18.33-1.73,4.41-1.61,9.25-.32,13.76-5.52,1.24-10.05,5.45-12.29,10.57-4.47,9.91-3.62,22.03,1.98,31.31,2.39,4.05,6.48,6.93,11.1,7.79-4.84,7.04-1.36,16.15,2.61,22.73-1.4.85-2.71,1.83-3.85,3.01-.58-3.2-1.51-6.39-3.37-9.09-2.58-3.87-6.89-6.3-11.36-7.3-6.78-1.42-14.44-.7-19.97,3.8-3.69,2.83-5.87,7.25-6.4,11.82-5.88-5.06-14.55-6.2-21.6-3-10.65,4.47-15.38,18.24-11.1,28.69-6.12.83-11.03,5.59-13.09,11.26-2.9,7.81-2.25,17.05,2.1,24.2,2.38,4.05,6.55,6.84,11.15,7.72-3.68,6.05-2.39,13.93.78,19.93,4.06,7.56,13.07,12.29,21.6,10.71,3.81-.68,7.08-2.91,10-5.34.49,3.57,1.62,7.12,3.82,10.02,3.55,4.59,9.09,7.44,14.83,8.04.91,8.82,2.07,17.6,3.16,26.4,1.89,16.05,4.78,31.97,7.47,47.91-7.7-11.33-17.57-21.58-29.98-27.7-13.87-6.94-30.23-9.6-45.41-5.89-.3,19.12,5.33,38.73,17.65,53.58,6.32,7.84,14.41,14.38,23.78,18.2,13.33,5.86,29.14,6.22,42.54.33,1.47,6.28,3.3,12.48,5.09,18.68-16.67.15-33.32.07-49.99.04-4.58,0-8.9,3.31-10.06,7.75-1.2,3.35-.37,6.91.3,10.28,1.68,8.28,3.35,16.58,5.78,24.68,1.46,4.97,5,9.55,9.98,11.34,1.35.66,2.98.49,4.35,1,.28.1.55.23.8.41l58.8-.3c44.44.04,88.3-.42,132.75-.32-.02.07-.03.14-.05.21"/>
      </g>
    </g>
  </g>
</svg>