<svg width="165" height="167" viewBox="0 0 165 167" fill="none" xmlns="http://www.w3.org/2000/svg">
<path d="M55.0794 166.057C55.0794 166.057 122.259 167.27 122.829 165.464C123.399 163.658 122.269 150.169 119.739 152.196C117.209 154.223 111.589 161.419 111.589 161.419C111.589 161.419 104.939 150.638 103.809 152.435C102.679 154.232 96.8494 161.392 96.8494 161.392C96.8494 161.392 91.8994 148.372 89.6494 151.523C87.3994 154.674 82.8994 160.967 82.8994 160.967C82.8994 160.967 72.2094 150.178 71.0894 152.426C69.9694 154.674 64.3394 160.525 64.3394 160.525C64.3394 160.525 57.0194 149.921 55.7794 152.798C52.9994 159.25 55.0794 166.057 55.0794 166.057Z" fill="#FF9300"/>
<path d="M71.77 149.213C71.77 149.213 71.75 149.213 71.74 149.213C71.46 149.195 71.26 148.983 71.27 148.744C74.74 102.956 33.07 65.9308 32.65 65.5591C32.45 65.3909 32.45 65.1076 32.65 64.9306C32.84 64.7536 33.16 64.7536 33.36 64.9306C33.78 65.3024 75.78 102.602 72.28 148.797C72.26 149.027 72.04 149.213 71.78 149.213H71.77Z" fill="#261D2A"/>
<path d="M32.53 68.1882C32.53 68.1882 16.82 47.5292 21.6 45.343C26.38 43.1567 39.92 38.9346 43.64 44.9712C47.3601 51.0078 44.5601 68.0378 44.5601 68.0378C44.5601 68.0378 58.25 50.5121 62.77 53.6367C67.29 56.7523 75.11 70.941 71.01 73.1538C66.91 75.3667 48.8101 77.0573 48.8101 77.0573C48.8101 77.0573 67.54 90.1484 65.38 93.6181C63.22 97.0878 51.6701 101.381 48.34 101.257C45.01 101.133 39.2901 80.8456 39.2901 80.8456C39.2901 80.8456 30.5201 97.0613 27.1101 98.7076C23.7001 100.354 12.79 91.0955 12.29 87.5284C11.79 83.9613 29.5 76.3492 29.5 76.3492C29.5 76.3492 3.96005 78.0752 1.18005 74.5523C-1.35995 71.3393 3.28005 55.6105 8.58005 56.3983C13.88 57.186 32.55 68.1971 32.55 68.1971L32.53 68.1882Z" fill="#85269D"/>
<path d="M24.8204 75.7383C22.4704 75.7383 20.1804 75.4019 18.8204 74.3486C17.8904 73.6228 17.7104 72.7465 18.3204 71.941C18.7404 71.3834 19.5304 70.8966 20.4404 70.5337C19.8704 69.9584 19.4604 69.3122 19.3604 68.6838C19.2704 68.1261 19.3604 67.1082 20.9804 66.5506C25.4804 64.9928 33.2004 71.2772 33.5304 71.5427C33.7304 71.7109 33.7404 71.9853 33.5604 72.1712C33.3704 72.3482 33.0604 72.3659 32.8504 72.1977C32.7704 72.1358 25.2704 66.0195 21.3504 67.3826C20.3404 67.7278 20.3004 68.2235 20.3504 68.5687C20.4304 69.0998 20.8704 69.6928 21.4404 70.1973C22.8204 69.799 24.2704 69.7017 25.0304 70.0292C25.6404 70.2947 25.8604 70.8169 25.6304 71.4188C25.3704 72.0915 24.7304 72.4367 23.8604 72.3659C23.0504 72.2951 22.0504 71.8437 21.2004 71.2064C20.3204 71.5073 19.5304 71.941 19.1504 72.4456C18.9304 72.7377 18.7704 73.1448 19.4804 73.7025C22.6504 76.172 32.5104 73.9769 32.6104 73.9591C32.8804 73.8972 33.1504 74.0388 33.2204 74.2778C33.2904 74.5168 33.1304 74.7558 32.8604 74.8177C32.6004 74.8797 28.6404 75.756 24.8204 75.756V75.7383ZM22.3704 70.8789C22.9204 71.2152 23.5004 71.4365 23.9604 71.4808C24.4604 71.525 24.6104 71.3303 24.6804 71.1356C24.7704 70.9143 24.6804 70.8789 24.5804 70.8258C24.1704 70.6488 23.3004 70.6842 22.3704 70.8789Z" fill="#261D2A"/>
<path d="M35.1196 70.5958C34.9296 70.5958 34.7596 70.5073 34.6696 70.348C34.4796 69.9939 29.9797 61.6737 31.3997 58.5934C31.6597 58.0358 32.0896 57.6552 32.6696 57.4693C34.1496 57.0002 35.7096 57.6729 37.0296 59.3104C37.7596 57.788 38.9896 56.4248 40.3196 56.3098C40.9796 56.2655 41.9296 56.4868 42.6896 57.8853C45.2596 62.6119 40.4997 68.9672 40.2897 69.2327C40.1297 69.4363 39.8296 69.4894 39.5996 69.3566C39.3696 69.2239 39.3096 68.9495 39.4596 68.7459C39.5096 68.6839 44.0997 62.5411 41.7897 58.2748C41.3797 57.5136 40.9196 57.1507 40.4196 57.1949C39.4896 57.2746 38.3097 58.6288 37.6997 60.2575C38.4797 61.5321 39.1197 63.2581 38.4297 63.8334C38.2497 63.9839 37.8396 64.1875 37.1696 63.7626C36.3296 63.2404 36.1197 62.0366 36.5797 60.4788C36.5897 60.4345 36.5996 60.3991 36.6196 60.3548C36.3296 59.93 35.9997 59.5228 35.6097 59.1599C34.7197 58.319 33.8396 58.0358 33.0096 58.2925C32.6996 58.3898 32.4696 58.6023 32.3196 58.9209C31.2796 61.1692 34.3096 67.6483 35.5696 69.9585C35.6896 70.1798 35.5897 70.4453 35.3397 70.5516C35.2696 70.5781 35.1996 70.5958 35.1196 70.5958ZM37.3496 61.6825C37.2896 62.3375 37.4297 62.8332 37.7397 63.0368C37.7397 62.7535 37.5996 62.2579 37.3496 61.6825Z" fill="#261D2A"/>
<path d="M48.0994 74.1363C46.2494 74.1363 44.6694 74.0744 43.9894 74.039C43.7094 74.0301 43.4994 73.8177 43.5194 73.5699C43.5294 73.322 43.7694 73.1361 44.0494 73.1539C49.8094 73.4194 56.1394 73.1184 56.7494 72.1359C56.7694 72.1094 56.8194 72.0297 56.6394 71.8084C55.9294 70.9233 55.1594 70.4542 54.3594 70.4188L54.2894 70.4896C53.6694 71.0472 51.2594 72.8441 50.5194 72.251C50.3894 72.1448 50.1394 71.8439 50.6294 71.3482C51.3894 70.5781 52.5394 69.693 53.8994 69.5602C54.2494 69.1973 54.5294 68.8167 54.6794 68.4272C54.9294 67.7811 54.7894 67.2323 54.2494 66.7366C53.8994 66.418 53.4494 66.2587 52.8594 66.2498C52.8494 66.2498 52.8294 66.2498 52.8194 66.2498C49.2794 66.2498 43.2094 71.4544 43.1494 71.5075C42.9494 71.6757 42.6394 71.6757 42.4394 71.5075C42.2494 71.3305 42.2494 71.0561 42.4394 70.8791C42.6994 70.6578 48.8694 65.3735 52.8094 65.3735C52.8294 65.3735 52.8494 65.3735 52.8594 65.3735C53.7094 65.3824 54.4194 65.6391 54.9494 66.1259C56.0294 67.1084 56.0594 68.3653 55.0694 69.6576C55.9294 69.8789 56.7294 70.4365 57.4494 71.3216C57.8994 71.8704 57.7894 72.313 57.6194 72.5874C56.8094 73.8974 51.8794 74.1629 48.0994 74.1629V74.1363Z" fill="#261D2A"/>
<path d="M30.4995 88.2629C30.4995 88.2629 30.4395 88.2629 30.3995 88.2629C28.9895 88.2098 28.0695 87.5282 27.8695 86.3864C27.8095 86.0678 27.8195 85.7314 27.8695 85.3951C26.4395 85.6252 25.3295 85.0587 24.7795 83.7753C24.4195 82.9256 24.4695 82.0847 24.9595 81.2704C26.7495 78.2343 34.0395 76.6057 34.3395 76.5438C34.6095 76.4818 34.8795 76.6323 34.9495 76.8712C35.0195 77.1102 34.8495 77.3492 34.5795 77.4112C34.5095 77.4289 27.4295 79.0044 25.8395 81.6952C25.4895 82.2794 25.4495 82.8636 25.7095 83.4743C26.0595 84.2887 26.6195 84.6427 27.4695 84.5719C27.6895 84.5542 27.9295 84.5011 28.1595 84.4391C28.7095 83.1468 29.8795 81.9431 31.1995 81.5182C32.1495 81.2084 32.4295 81.6067 32.5095 81.7926C32.8495 82.6158 30.7395 84.3949 28.9595 85.1118C28.8395 85.5278 28.7895 85.9262 28.8595 86.2802C28.9795 86.9883 29.5195 87.3689 30.4495 87.4043C32.8095 87.4751 35.5995 81.8722 36.7695 78.314C36.8495 78.0839 37.1195 77.9511 37.3895 78.0131C37.6495 78.0839 37.8095 78.3229 37.7295 78.5619C37.3995 79.5621 34.4195 88.2895 30.4995 88.2895V88.2629ZM31.2495 82.4299C30.6395 82.6954 30.0995 83.1557 29.6895 83.6868C30.3495 83.2708 30.9195 82.7928 31.2495 82.4299Z" fill="#261D2A"/>
<path d="M45.2806 91.1843C45.2806 91.1843 45.2306 91.1843 45.2106 91.1843C44.4406 91.1577 42.3706 89.9008 39.9306 78.9075C39.8806 78.6685 40.0506 78.4384 40.3206 78.3853C40.5906 78.3321 40.8506 78.4915 40.9106 78.7305C42.3006 84.9618 44.2906 90.2549 45.2506 90.2903C45.9906 90.3434 47.1006 89.352 47.7706 88.1306C47.7706 88.1217 47.7806 88.104 47.7906 88.0952C47.0106 87.7765 46.4306 87.3517 46.3706 86.8825C46.3406 86.6258 46.4206 86.1744 47.3106 85.9266C48.1806 85.6965 48.6406 85.9266 48.8706 86.1656C49.2306 86.5373 49.2106 87.0773 49.0606 87.5818C49.7706 87.7765 50.6206 87.9093 51.4506 87.8739C52.6906 87.8208 53.4306 87.3959 53.6606 86.6347C54.3106 84.4219 47.2106 80.129 42.5906 77.9515C42.3506 77.8365 42.2506 77.5709 42.3806 77.3497C42.5106 77.1284 42.8106 77.0576 43.0606 77.1638C44.3606 77.7745 55.7006 83.2358 54.6306 86.856C54.2406 88.1925 52.8006 88.8741 50.6706 88.7502C50.0706 88.7148 49.3706 88.5908 48.7206 88.4138C48.7006 88.4492 48.6806 88.4846 48.6606 88.52C47.9506 89.8123 46.6006 91.1754 45.2706 91.1754L45.2806 91.1843ZM47.4106 86.8471C47.5206 86.9622 47.7706 87.1127 48.1206 87.2631C48.1906 86.971 48.1606 86.794 48.1106 86.7409C48.0906 86.7232 47.9606 86.6789 47.6006 86.7763C47.5106 86.8029 47.4506 86.8206 47.4106 86.8383V86.8471Z" fill="#261D2A"/>
<path d="M33.8406 68.7631C33.8406 68.7631 42.4906 67.0017 44.3606 70.0466C46.2306 73.0914 48.4006 80.5973 38.0106 80.0663C27.6206 79.5352 30.0806 70.1085 33.8406 68.7631Z" fill="#EDD45B"/>
<path d="M65.8703 110.856H65.8645C65.8676 110.825 65.8721 110.784 65.8781 110.733C65.8911 110.622 65.9112 110.465 65.9404 110.266C65.9988 109.869 66.0935 109.309 66.2403 108.628C66.5341 107.264 67.0358 105.421 67.8712 103.433L67.8714 103.433C70.09 98.1409 73.6237 94.4208 78.0575 92.6299L78.0593 92.6292C78.0656 92.6266 78.069 92.6265 78.0703 92.6265C78.0715 92.6265 78.0749 92.6266 78.0812 92.6292L78.095 92.6348L78.0974 92.6356C78.1868 92.8471 78.904 94.6124 79.1773 96.9823C79.4587 99.4228 79.2635 102.447 77.495 105.085C75.4219 108.177 71.5689 110.145 65.9091 110.856H65.9091H65.9089H65.9088H65.9086H65.9085H65.9083H65.9082H65.908H65.9079H65.9077H65.9076H65.9075H65.9073H65.9072H65.907H65.9069H65.9067H65.9066H65.9064H65.9063H65.9061H65.906H65.9058H65.9057H65.9056H65.9054H65.9053H65.9051H65.905H65.9048H65.9047H65.9045H65.9044H65.9042H65.9041H65.9039H65.9038H65.9036H65.9035H65.9034H65.9032H65.9031H65.9029H65.9028H65.9026H65.9025H65.9023H65.9022H65.902H65.9019H65.9017H65.9016H65.9015H65.9013H65.9012H65.901H65.9009H65.9007H65.9006H65.9004H65.9003H65.9001H65.9H65.8998H65.8997H65.8996H65.8994H65.8993H65.8991H65.899H65.8988H65.8987H65.8985H65.8984H65.8982H65.8981H65.898H65.8978H65.8977H65.8975H65.8974H65.8972H65.8971H65.8969H65.8968H65.8966H65.8965H65.8964H65.8962H65.8961H65.8959H65.8958H65.8956H65.8955H65.8953H65.8952H65.8951H65.8949H65.8948H65.8946H65.8945H65.8943H65.8942H65.894H65.8939H65.8938H65.8936H65.8935H65.8933H65.8932H65.893H65.8929H65.8928H65.8926H65.8925H65.8923H65.8922H65.892H65.8919H65.8918H65.8916H65.8915H65.8913H65.8912H65.891H65.8909H65.8908H65.8906H65.8905H65.8903H65.8902H65.89H65.8899H65.8898H65.8896H65.8895H65.8893H65.8892H65.8891H65.8889H65.8888H65.8886H65.8885H65.8884H65.8882H65.8881H65.8879H65.8878H65.8877H65.8875H65.8874H65.8872H65.8871H65.887H65.8868H65.8867H65.8865H65.8864H65.8863H65.8861H65.886H65.8858H65.8857H65.8856H65.8854H65.8853H65.8852H65.885H65.8849H65.8847H65.8846H65.8845H65.8843H65.8842H65.8841H65.8839H65.8838H65.8837H65.8835H65.8834H65.8832H65.8831H65.883H65.8828H65.8827H65.8826H65.8824H65.8823H65.8822H65.882H65.8819H65.8818H65.8816H65.8815H65.8814H65.8812H65.8811H65.881H65.8808H65.8807H65.8806H65.8804H65.8803H65.8802H65.88H65.8799H65.8798H65.8796H65.8795H65.8794H65.8792H65.8791H65.879H65.8788H65.8787H65.8786H65.8784H65.8783H65.8782H65.8781H65.8779H65.8778H65.8777H65.8775H65.8774H65.8773H65.8772H65.877H65.8769H65.8768H65.8766H65.8765H65.8764H65.8763H65.8761H65.876H65.8759H65.8757H65.8756H65.8755H65.8754H65.8752H65.8751H65.875H65.8749H65.8747H65.8746H65.8745H65.8744H65.8742H65.8741H65.874H65.8739H65.8737H65.8736H65.8735H65.8734H65.8733H65.8731H65.873H65.8729H65.8728H65.8726H65.8725H65.8724H65.8723H65.8722H65.872H65.8719H65.8718H65.8717H65.8716H65.8714H65.8713H65.8712H65.8711H65.871H65.8708H65.8707H65.8706H65.8705H65.8704H65.8703Z" fill="#2ECC71" stroke="black"/>
<path d="M58.31 123.549C53.0345 123.549 49.3609 120.88 46.981 118.165C44.8588 115.744 43.7931 113.318 43.5608 112.764C44.9615 112.451 46.4305 112.29 47.92 112.29C53.3204 112.29 58.3687 114.327 62.1363 116.431C65.6024 118.366 67.9506 120.337 68.4434 120.764C64.8265 122.619 61.4153 123.549 58.31 123.549ZM43.5124 112.648C43.5151 112.653 43.5174 112.659 43.5194 112.664C43.5159 112.656 43.5135 112.65 43.5124 112.648Z" fill="#2ECC71" stroke="black"/>
<path d="M65.8496 111.365C65.7096 111.365 65.5596 111.312 65.4596 111.205C65.2896 111.02 65.3196 110.736 65.5296 110.586C65.5896 110.542 71.5996 106.134 74.4796 99.1677C74.5796 98.9375 74.8596 98.8225 75.1196 98.9021C75.3796 98.9906 75.5096 99.2385 75.4196 99.4686C72.4396 106.674 66.4196 111.082 66.1596 111.267C66.0696 111.338 65.9496 111.365 65.8396 111.365H65.8496Z" fill="#261D2A"/>
<path d="M66.76 121.385C59.84 121.385 48.95 115.313 48.45 115.029C48.22 114.897 48.15 114.622 48.3 114.419C48.45 114.215 48.75 114.153 48.99 114.286C49.12 114.357 62.19 121.65 68.4 120.349C68.66 120.287 68.94 120.438 69 120.677C69.06 120.916 68.9 121.155 68.63 121.208C68.05 121.332 67.43 121.385 66.77 121.385H66.76Z" fill="#261D2A"/>
<path d="M92.1199 144.292C92.1199 144.292 92.0698 144.292 92.0398 144.292C91.7698 144.256 91.5799 144.026 91.6199 143.787C91.7399 143.088 103.91 73.6757 87.6698 45.3604C87.5498 45.1391 87.6398 44.8735 87.8898 44.7673C88.1398 44.6611 88.4398 44.7408 88.5598 44.962C104.94 73.5253 92.7298 143.221 92.6098 143.92C92.5698 144.141 92.3599 144.292 92.1199 144.292Z" fill="#261D2A"/>
<path d="M85.3096 24.9051C85.3096 24.9051 85.3096 0.00632286 90.6496 0.546254C95.9896 1.09504 109.89 4.28151 109.16 11.1324C108.43 17.9834 95.3696 30.7204 95.3696 30.7204C95.3696 30.7204 117.78 22.949 119.57 27.7729C121.36 32.5969 118.89 48.2283 114.09 48.0336C109.29 47.8389 93.2096 40.2976 93.2096 40.2976C93.2096 40.2976 100.49 60.4166 96.5096 62.2223C92.5296 64.028 80.2396 61.8859 77.5496 60.1334C74.8596 58.3808 82.9196 38.7309 82.9196 38.7309C82.9196 38.7309 65.4196 47.8477 61.5496 47.5202C57.6796 47.1927 54.4696 34.1282 56.3096 30.924C58.1496 27.7198 77.6396 30.1539 77.6396 30.1539C77.6396 30.1539 55.3596 18.9659 55.2796 14.6641C55.1996 10.743 68.9796 -0.0113798 72.8796 3.26361C76.7796 6.5386 85.3196 24.8962 85.3196 24.8962L85.3096 24.9051Z" fill="#85269D"/>
<path d="M81.57 30.5789C81.51 30.5789 81.46 30.5789 81.4 30.5524C80.99 30.4196 71.24 27.3039 70.04 23.2412C69.73 22.179 70.13 21.3647 71.15 20.993C71.85 20.7363 72.81 20.7274 73.79 20.869C73.68 20.1167 73.75 19.3732 74.06 18.8067C74.34 18.3021 75.05 17.5055 76.75 17.833C81.47 18.7713 83.91 27.7908 84.01 28.1802C84.07 28.4192 83.91 28.6582 83.64 28.7113C83.36 28.7733 83.1 28.6228 83.04 28.3838C83.02 28.2953 80.65 19.5148 76.53 18.7005C75.48 18.488 75.13 18.8863 74.96 19.1961C74.69 19.683 74.68 20.3822 74.83 21.0903C76.23 21.4532 77.49 22.0817 77.91 22.7278C78.25 23.25 78.11 23.79 77.54 24.1794C76.9 24.6131 76.15 24.5777 75.48 24.0909C74.85 23.6306 74.31 22.7632 74 21.8161C73.08 21.6391 72.15 21.5948 71.52 21.825C71.15 21.9577 70.76 22.2144 71 23.0288C72.07 26.6401 81.64 29.7027 81.73 29.7292C81.99 29.8089 82.13 30.0656 82.03 30.2957C81.96 30.4816 81.76 30.5878 81.56 30.5878L81.57 30.5789ZM75.18 22.1171C75.43 22.6659 75.76 23.135 76.12 23.4005C76.51 23.6838 76.75 23.5952 76.94 23.4713C77.15 23.3297 77.11 23.2589 77.05 23.1615C76.82 22.8075 76.08 22.4092 75.18 22.1171Z" fill="#261D2A"/>
<path d="M90.8902 29.6405C90.6902 29.6405 90.5102 29.5343 90.4302 29.3661C90.3302 29.136 90.4502 28.8793 90.7002 28.7908C90.7802 28.7642 98.4702 25.9407 99.2402 21.2495C99.3802 20.4174 99.2202 19.8864 98.7802 19.6739C97.9602 19.2756 96.1302 19.8244 94.5902 20.8688C94.4302 22.3116 93.8802 24.0642 92.9402 24.1969C92.6802 24.2324 92.2302 24.1969 91.9402 23.5154C91.5702 22.6657 92.1502 21.5681 93.5302 20.4971C93.5702 20.4705 93.6002 20.444 93.6402 20.4174C93.6702 19.9306 93.6402 19.4172 93.5602 18.9304C93.3502 17.7974 92.8102 17.1247 91.9502 16.93C91.6302 16.8592 91.3102 16.9212 90.9802 17.107C88.7002 18.4613 87.1202 25.3299 86.7102 27.8614C86.6702 28.1004 86.4102 28.2597 86.1402 28.2332C85.8702 28.1977 85.6802 27.9765 85.7202 27.7286C85.7802 27.3392 87.3102 18.2134 90.4202 16.3635C90.9902 16.0272 91.5802 15.921 92.1902 16.0626C93.7102 16.3989 94.5902 17.7266 94.6402 19.7447C96.2102 18.8507 98.0902 18.3197 99.2602 18.8862C99.8402 19.1694 100.48 19.8244 100.23 21.3645C99.3802 26.5514 91.4202 29.4723 91.0802 29.5963C91.0202 29.6228 90.9502 29.6317 90.8902 29.6317V29.6405ZM93.4002 21.8868C92.9402 22.4001 92.7302 22.8781 92.8702 23.1967C93.0402 22.9578 93.2502 22.4798 93.4002 21.8868Z" fill="#261D2A"/>
<path d="M102.659 41.0677C99.7392 41.0677 92.6292 36.4385 91.1192 35.4294C90.8992 35.2789 90.8592 35.0045 91.0192 34.8098C91.1892 34.6151 91.4992 34.5797 91.7192 34.7213C96.3292 37.7927 101.769 40.6605 102.899 40.156C102.929 40.1383 103.029 40.0941 103.019 39.8285C102.989 38.7398 102.649 37.9786 101.999 37.5449C101.969 37.5449 101.929 37.5626 101.899 37.5626C101.029 37.7219 97.8892 38.0229 97.6592 37.1554C97.6192 37.0049 97.5992 36.6332 98.3192 36.4562C99.4292 36.1906 100.949 36.0225 102.159 36.5889C102.679 36.465 103.159 36.2791 103.529 36.0313C104.149 35.6241 104.379 35.0931 104.239 34.4115C104.149 33.9778 103.869 33.6149 103.389 33.3228C100.489 31.5437 92.0992 32.8714 92.0092 32.8802C91.7392 32.9156 91.4792 32.7652 91.4292 32.5262C91.3792 32.2872 91.5592 32.0571 91.8292 32.0128C92.1892 31.9508 100.709 30.6054 103.949 32.597C104.649 33.0307 105.079 33.5883 105.209 34.2522C105.479 35.6064 104.719 36.6509 103.079 37.2439C103.659 37.8458 103.969 38.7044 103.999 39.802C104.019 40.4835 103.649 40.7933 103.339 40.9349C103.149 41.0234 102.909 41.0589 102.639 41.0589L102.659 41.0677Z" fill="#261D2A"/>
<path d="M72.6002 40.9436C71.9402 40.9436 71.3502 40.8108 70.8802 40.501C69.7402 39.7575 69.4102 38.7396 69.9602 37.6952C70.1102 37.4031 70.3302 37.1287 70.5902 36.872C69.2502 36.3586 68.7002 35.3407 69.0502 33.9953C69.2802 33.1102 69.8602 32.4375 70.7802 32.0038C74.1902 30.3751 81.2502 32.6234 81.5502 32.7207C81.8102 32.8004 81.9402 33.0571 81.8502 33.2872C81.7602 33.5173 81.4702 33.6324 81.2102 33.5527C81.1402 33.535 74.2702 31.3399 71.2602 32.7827C70.6002 33.1013 70.2002 33.5616 70.0302 34.1989C69.8002 35.0486 70.0502 35.6151 70.8002 35.978C71.0002 36.0754 71.2202 36.1462 71.4602 36.2081C72.7302 35.4027 74.4602 34.9867 75.8302 35.2876C76.8102 35.5 76.7902 35.9692 76.7402 36.1639C76.5102 37.0225 73.6502 37.4562 71.7202 37.1641C71.3502 37.4473 71.0502 37.7571 70.8902 38.0758C70.5402 38.7308 70.7502 39.3061 71.5002 39.7929C73.4402 41.0498 79.2602 37.7571 82.4802 35.3761C82.6902 35.2168 83.0102 35.2433 83.1802 35.4292C83.3602 35.6151 83.3302 35.8983 83.1202 36.0488C82.3402 36.6242 76.3702 40.9436 72.6302 40.9436H72.6002ZM74.8402 36.0665C74.3002 36.0665 73.7402 36.1816 73.2102 36.3586C74.0002 36.3409 74.7602 36.217 75.2502 36.0842C75.1202 36.0665 74.9802 36.0577 74.8402 36.0577V36.0665Z" fill="#261D2A"/>
<path d="M90.0998 51.9191C89.2598 51.9191 88.3298 51.5916 87.3798 50.9366C86.8998 50.6091 86.3998 50.1665 85.9698 49.6885C85.9298 49.7062 85.8898 49.7328 85.8598 49.7505C84.4298 50.4851 82.3998 50.9454 81.3198 50.2462C80.6998 49.839 79.7798 47.7766 84.6798 37.456C84.7898 37.2347 85.0798 37.1196 85.3298 37.217C85.5798 37.3144 85.7098 37.5711 85.5998 37.7923C82.8198 43.6519 81.1298 49.0247 81.9098 49.5292C82.4898 49.9098 84.0398 49.662 85.3598 48.9804C85.3698 48.9804 85.3898 48.9716 85.3998 48.9627C84.9598 48.3077 84.7398 47.6793 84.9798 47.2544C85.1098 47.0331 85.4698 46.6879 86.3598 46.9269C87.2398 47.1659 87.4698 47.5819 87.5098 47.8917C87.5698 48.3785 87.2198 48.8122 86.7698 49.1663C87.2298 49.6797 87.8498 50.2107 88.5698 50.5914C89.6398 51.1578 90.5198 51.1755 91.1898 50.6533C93.1298 49.1397 89.9498 42.0764 87.4798 37.9782C87.3498 37.7658 87.4398 37.4914 87.6898 37.3763C87.9298 37.2613 88.2398 37.3409 88.3698 37.5622C89.0598 38.7129 95.0198 48.8476 91.8598 51.3172C91.3498 51.7155 90.7498 51.9102 90.0998 51.9102V51.9191ZM85.8698 47.7412C85.8898 47.8917 85.9998 48.1395 86.1998 48.4405C86.4398 48.228 86.5298 48.0687 86.5198 48.0068C86.5198 47.9802 86.4298 47.8828 86.0698 47.7855C85.9798 47.7589 85.9198 47.7501 85.8698 47.7412Z" fill="#261D2A"/>
<path d="M86.0303 26.0297C86.0303 26.0297 94.3103 28.8445 93.9503 32.2876C93.5903 35.7308 90.6403 43.042 82.3603 37.4657C74.0803 31.8893 82.0603 25.2862 86.0303 26.0297Z" fill="#EDD45B"/>
<path d="M95.7501 118.91H95.7444C95.7475 118.88 95.752 118.838 95.758 118.787C95.771 118.676 95.7911 118.519 95.8203 118.321C95.8787 117.924 95.9733 117.363 96.1202 116.682C96.414 115.318 96.9157 113.475 97.7511 111.487L97.7513 111.487C99.9699 106.195 103.504 102.475 107.937 100.684L107.939 100.683C107.946 100.681 107.949 100.681 107.95 100.681C107.951 100.681 107.955 100.681 107.961 100.683L107.975 100.689L107.977 100.69C108.067 100.901 108.784 102.667 109.057 105.036C109.339 107.477 109.143 110.501 107.375 113.139C105.302 116.231 101.449 118.199 95.789 118.91H95.7889H95.7888H95.7887H95.7885H95.7884H95.7882H95.7881H95.7879H95.7878H95.7876H95.7875H95.7873H95.7872H95.787H95.7869H95.7868H95.7866H95.7865H95.7863H95.7862H95.786H95.7859H95.7857H95.7856H95.7854H95.7853H95.7851H95.785H95.7848H95.7847H95.7846H95.7844H95.7843H95.7841H95.784H95.7838H95.7837H95.7835H95.7834H95.7832H95.7831H95.7829H95.7828H95.7827H95.7825H95.7824H95.7822H95.7821H95.7819H95.7818H95.7816H95.7815H95.7813H95.7812H95.781H95.7809H95.7808H95.7806H95.7805H95.7803H95.7802H95.78H95.7799H95.7797H95.7796H95.7794H95.7793H95.7791H95.779H95.7789H95.7787H95.7786H95.7784H95.7783H95.7781H95.778H95.7778H95.7777H95.7775H95.7774H95.7773H95.7771H95.777H95.7768H95.7767H95.7765H95.7764H95.7762H95.7761H95.7759H95.7758H95.7757H95.7755H95.7754H95.7752H95.7751H95.7749H95.7748H95.7746H95.7745H95.7744H95.7742H95.7741H95.7739H95.7738H95.7736H95.7735H95.7734H95.7732H95.7731H95.7729H95.7728H95.7726H95.7725H95.7724H95.7722H95.7721H95.7719H95.7718H95.7716H95.7715H95.7714H95.7712H95.7711H95.7709H95.7708H95.7706H95.7705H95.7704H95.7702H95.7701H95.7699H95.7698H95.7696H95.7695H95.7694H95.7692H95.7691H95.7689H95.7688H95.7687H95.7685H95.7684H95.7682H95.7681H95.768H95.7678H95.7677H95.7675H95.7674H95.7673H95.7671H95.767H95.7668H95.7667H95.7666H95.7664H95.7663H95.7661H95.766H95.7659H95.7657H95.7656H95.7655H95.7653H95.7652H95.765H95.7649H95.7648H95.7646H95.7645H95.7644H95.7642H95.7641H95.7639H95.7638H95.7637H95.7635H95.7634H95.7633H95.7631H95.763H95.7629H95.7627H95.7626H95.7624H95.7623H95.7622H95.762H95.7619H95.7618H95.7616H95.7615H95.7614H95.7612H95.7611H95.761H95.7608H95.7607H95.7606H95.7604H95.7603H95.7602H95.76H95.7599H95.7598H95.7596H95.7595H95.7594H95.7592H95.7591H95.759H95.7589H95.7587H95.7586H95.7585H95.7583H95.7582H95.7581H95.7579H95.7578H95.7577H95.7576H95.7574H95.7573H95.7572H95.757H95.7569H95.7568H95.7567H95.7565H95.7564H95.7563H95.7561H95.756H95.7559H95.7558H95.7556H95.7555H95.7554H95.7553H95.7551H95.755H95.7549H95.7548H95.7546H95.7545H95.7544H95.7543H95.7541H95.754H95.7539H95.7538H95.7536H95.7535H95.7534H95.7533H95.7531H95.753H95.7529H95.7528H95.7527H95.7525H95.7524H95.7523H95.7522H95.752H95.7519H95.7518H95.7517H95.7516H95.7514H95.7513H95.7512H95.7511H95.751H95.7508H95.7507H95.7506H95.7505H95.7504H95.7503H95.7501Z" fill="#2ECC71" stroke="black"/>
<path d="M95.8496 119.03C95.7096 119.03 95.5596 118.977 95.4596 118.871C95.2896 118.685 95.3196 118.401 95.5296 118.251C95.5896 118.207 101.6 113.799 104.48 106.833C104.58 106.603 104.86 106.488 105.12 106.567C105.38 106.656 105.51 106.904 105.42 107.134C102.44 114.339 96.4196 118.747 96.1596 118.932C96.0696 119.003 95.9496 119.03 95.8396 119.03H95.8496Z" fill="#261D2A"/>
<path d="M76.5024 70.3823C76.5044 70.3824 76.5055 70.3826 76.5055 70.3826L76.5066 70.3829C76.5773 70.3993 81.1655 71.4761 85.9015 74.5506C90.6329 77.6221 95.4601 82.6499 96.1519 90.5718L96.157 90.6301C96.1416 90.6297 96.0698 90.6276 95.9431 90.6201C95.8 90.6116 95.5929 90.5964 95.3308 90.57C94.8063 90.5171 94.0626 90.4192 93.1707 90.2394C91.3851 89.8794 89.0163 89.1933 86.6268 87.8909C81.8821 85.3047 77.0144 80.2716 76.5024 70.3823Z" fill="#2ECC71" stroke="black"/>
<path d="M86.0027 114.506C89.7403 116.813 93.4714 120.601 93.8174 126.631L93.7854 126.632C93.7552 126.634 93.7094 126.636 93.649 126.638C93.5291 126.642 93.3517 126.647 93.1254 126.647C91.0391 126.646 85.9125 126.261 82.2815 122.878C79.5004 120.282 78.1947 116.453 78.4862 111.404C78.4932 111.403 78.5004 111.403 78.5071 111.405L78.5071 111.405L78.5131 111.406C78.513 111.406 78.5135 111.406 78.5147 111.406C78.5358 111.41 78.7659 111.459 79.1623 111.565C79.5751 111.675 80.1604 111.846 80.8619 112.089C82.2663 112.575 84.1283 113.35 86.0027 114.506Z" fill="#2ECC71" stroke="black"/>
<path d="M93.9495 126.74C93.8395 126.74 93.7295 126.704 93.6295 126.642C86.2995 121.331 82.9695 115.826 82.8395 115.587C82.7095 115.374 82.7995 115.1 83.0495 114.994C83.2895 114.879 83.5995 114.958 83.7295 115.18C83.7595 115.233 87.1095 120.774 94.2695 125.961C94.4795 126.111 94.5195 126.394 94.3395 126.58C94.2395 126.686 94.0995 126.74 93.9495 126.74Z" fill="#261D2A"/>
<path d="M96.2893 90.7413C96.1693 90.7413 96.0493 90.7059 95.9593 90.6263C92.6393 87.9797 84.5793 79.4382 84.2393 79.0753C84.0593 78.8894 84.0893 78.6062 84.2993 78.4557C84.5093 78.2964 84.8293 78.3229 84.9993 78.5088C85.0793 78.5973 93.3493 87.369 96.6193 89.9713C96.8293 90.1394 96.8393 90.4138 96.6593 90.5997C96.5593 90.6971 96.4193 90.7502 96.2893 90.7502V90.7413Z" fill="#261D2A"/>
<path d="M106.119 152.258C105.839 152.258 105.619 152.054 105.629 151.806C106.129 114.498 127.489 82.4206 127.699 82.102C127.839 81.8896 128.149 81.8276 128.389 81.9515C128.629 82.0754 128.709 82.3498 128.559 82.5623C128.349 82.8809 107.119 114.763 106.629 151.824C106.629 152.063 106.399 152.258 106.129 152.258H106.119Z" fill="#261D2A"/>
<path d="M121.67 80.7215C121.892 80.2731 121.892 80.2731 121.892 80.2731L121.891 80.2727L121.888 80.2713L121.876 80.2654L121.829 80.2419C121.787 80.221 121.724 80.1899 121.643 80.1492C121.48 80.0676 121.24 79.9473 120.935 79.7925C120.325 79.483 119.453 79.0358 118.406 78.4857C116.311 77.3853 113.518 75.8743 110.724 74.2306C107.926 72.5851 105.14 70.8145 103.051 69.1948C102.006 68.384 101.15 67.6229 100.558 66.9447C99.9455 66.2444 99.6899 65.7177 99.6802 65.3681L99.6801 65.3681C99.6701 65.0115 99.8213 64.5083 100.177 63.872C100.525 63.247 101.043 62.5435 101.693 61.8013C102.993 60.3176 104.787 58.7212 106.71 57.3421C108.637 55.9611 110.667 54.8171 112.437 54.2176C114.25 53.6033 115.601 53.6212 116.361 54.2515C117.271 55.0056 118.512 56.6916 119.883 58.8709C121.241 61.0295 122.689 63.6106 124.019 66.097C125.349 68.5823 126.556 70.9671 127.432 72.731C127.869 73.6128 128.224 74.339 128.469 74.8446C128.591 75.0974 128.686 75.2951 128.751 75.4294L128.824 75.5823L128.843 75.6213L128.847 75.631L128.848 75.6334L128.849 75.634C128.849 75.6341 128.849 75.6342 129.3 75.4195L128.849 75.6342L129.8 75.4195L129.8 75.4018L129.8 75.3978L129.338 75.4015C129.8 75.3978 129.8 75.3978 129.8 75.3976L129.8 75.3969L129.8 75.3937L129.8 75.3806L129.8 75.3281C129.8 75.2816 129.799 75.2124 129.799 75.1219C129.799 74.9409 129.8 74.675 129.802 74.3366C129.807 73.6596 129.82 72.6924 129.852 71.5332C129.917 69.2135 130.058 66.1299 130.365 63.0654C130.673 59.9932 131.145 56.9713 131.86 54.7602C132.219 53.651 132.627 52.7864 133.077 52.2231C133.521 51.6673 133.953 51.4638 134.393 51.5053C137.027 51.7542 141.793 52.6482 145.801 54.3213C147.807 55.1586 149.588 56.1763 150.818 57.3774C152.042 58.5711 152.691 59.9107 152.543 61.4301C152.387 63.0289 151.501 65.0363 150.2 67.1885C148.908 69.3265 147.241 71.5513 145.587 73.5727C143.934 75.5925 142.301 77.4003 141.081 78.7036C140.471 79.3551 139.964 79.8799 139.611 80.2415C139.434 80.4223 139.296 80.5623 139.202 80.6569C139.181 80.6775 139.163 80.6961 139.146 80.7123C139.125 80.7333 139.108 80.7506 139.095 80.7641L139.067 80.791L139.061 80.7977L139.059 80.7992L139.059 80.7996L139.41 81.1552M121.67 80.7215C121.612 81.218 121.612 81.218 121.611 81.218L121.611 81.2179L121.608 81.2176L121.598 81.2164L121.557 81.2116L121.395 81.1932C121.252 81.1771 121.043 81.154 120.775 81.1257C120.24 81.069 119.474 80.9916 118.548 80.9087C116.695 80.7428 114.208 80.5552 111.668 80.4677C109.124 80.38 106.544 80.3934 104.497 80.6246C103.472 80.7403 102.603 80.9084 101.947 81.1355C101.269 81.3701 100.918 81.6338 100.787 81.8687C100.608 82.1876 100.474 82.6682 100.403 83.3018C100.333 83.9286 100.329 84.6717 100.386 85.4914C100.501 87.1308 100.859 89.0374 101.394 90.8593C101.929 92.684 102.634 94.3969 103.427 95.6601C103.824 96.2918 104.233 96.7939 104.639 97.1415C105.046 97.4895 105.424 97.6606 105.768 97.6865C106.163 97.7164 106.791 97.6237 107.629 97.4019C108.453 97.1837 109.433 96.8538 110.514 96.4452C112.675 95.6282 115.203 94.5089 117.619 93.3764C120.034 92.2447 122.328 91.1035 124.02 90.2448C124.866 89.8156 125.56 89.4572 126.043 89.2062C126.285 89.0807 126.473 88.9821 126.601 88.9149L126.747 88.8383L126.784 88.8187L126.793 88.8138L126.796 88.8126L126.796 88.8123C126.796 88.8122 126.796 88.8122 127.03 89.2541L126.796 88.8122L128.002 88.1743L127.494 89.4402L127.468 89.4296C127.494 89.4403 127.494 89.4403 127.494 89.4404L127.494 89.441L127.493 89.4435L127.489 89.454L127.472 89.4957L127.407 89.6596C127.35 89.8035 127.267 90.0152 127.162 90.2853C126.952 90.8256 126.655 91.5998 126.307 92.5344C125.61 94.4044 124.71 96.9133 123.894 99.4742C123.077 102.04 122.351 104.639 121.996 106.696C121.818 107.727 121.739 108.595 121.778 109.243C121.797 109.567 121.845 109.813 121.912 109.989C121.978 110.164 122.05 110.239 122.101 110.271C122.702 110.658 123.908 111.096 125.501 111.504C127.074 111.907 128.969 112.267 130.907 112.516C132.845 112.766 134.813 112.904 136.535 112.867C138.273 112.83 139.698 112.616 140.59 112.203C140.884 112.067 141.142 111.732 141.302 111.072C141.46 110.419 141.497 109.543 141.428 108.494C141.291 106.402 140.742 103.758 140.061 101.142C139.383 98.533 138.58 95.9778 137.947 94.0732C137.63 93.1213 137.356 92.3331 137.161 91.7831C137.064 91.5082 136.986 91.2928 136.933 91.1465C136.912 91.0885 136.895 91.0413 136.882 91.0056L136.872 90.9799L136.857 90.9376L136.853 90.9271L136.852 90.9245L136.852 90.9239C136.852 90.9238 136.852 90.9238 136.989 90.8729L136.852 90.9238L136.431 89.7896L137.53 90.2959L137.32 90.75C137.53 90.2959 137.53 90.2959 137.53 90.296L137.53 90.2962L137.532 90.2972L137.541 90.3012L137.575 90.3169L137.711 90.3788C137.83 90.4332 138.005 90.5129 138.23 90.6146C138.679 90.8179 139.328 91.1086 140.12 91.4581C141.707 92.1572 143.87 93.0905 146.183 94.0286C148.497 94.9671 150.954 95.9078 153.128 96.6231C155.321 97.3446 157.167 97.8164 158.287 97.8536C159.187 97.8835 160.098 97.1691 160.946 95.679C161.776 94.2227 162.447 92.1879 162.919 89.9667C163.39 87.7514 163.657 85.3818 163.694 83.2735C163.731 81.1501 163.533 79.347 163.113 78.234C162.961 77.8333 162.579 77.5059 161.871 77.2853C161.161 77.0645 160.202 76.978 159.05 77.0097C156.751 77.073 153.826 77.601 150.928 78.2871C148.036 78.9715 145.198 79.8065 143.081 80.471C142.023 80.8032 141.146 81.0924 140.534 81.2984C140.228 81.4014 139.988 81.4836 139.825 81.54C139.744 81.5682 139.682 81.5899 139.64 81.6045L139.593 81.6211L139.581 81.6252L139.578 81.6262L139.577 81.6265C139.577 81.6265 139.577 81.6265 139.41 81.1552M121.67 80.7215L121.892 80.2731L121.612 81.218L121.67 80.7215ZM139.41 81.1552L139.577 81.6265L139.059 80.7997L139.41 81.1552Z" fill="#85269D" stroke="black"/>
<path d="M125.72 80.7129C125.67 80.7129 125.61 80.7129 125.55 80.6863C125.13 80.5624 115.36 77.4999 114.13 73.446C113.81 72.3838 114.2 71.5695 115.22 71.1889C115.92 70.9322 116.88 70.9056 117.86 71.0473C117.75 70.2949 117.81 69.5514 118.12 68.976C118.39 68.4715 119.1 67.666 120.8 67.9935C125.53 68.8964 128.04 77.907 128.15 78.2876C128.21 78.5266 128.05 78.7656 127.78 78.8187C127.51 78.8718 127.24 78.7302 127.18 78.4912C127.16 78.4027 124.72 69.6399 120.59 68.8521C119.54 68.6485 119.19 69.038 119.02 69.3566C118.76 69.8435 118.75 70.5427 118.91 71.2508C120.31 71.6049 121.58 72.2245 122 72.8706C122.34 73.3929 122.21 73.9328 121.64 74.3222C121 74.756 120.25 74.7294 119.58 74.2514C118.95 73.8 118.4 72.9326 118.08 71.9855C117.16 71.8085 116.23 71.7819 115.6 72.012C115.23 72.1448 114.85 72.4104 115.09 73.2158C116.19 76.8183 125.78 79.8189 125.88 79.8455C126.14 79.9251 126.28 80.1818 126.19 80.412C126.12 80.5978 125.93 80.704 125.72 80.704V80.7129ZM119.26 72.2864C119.51 72.8352 119.85 73.3043 120.21 73.561C120.6 73.8443 120.85 73.7469 121.03 73.623C121.24 73.4725 121.2 73.4106 121.14 73.3132C120.91 72.9591 120.16 72.5697 119.26 72.2776V72.2864Z" fill="#261D2A"/>
<path d="M135.03 79.7129C134.83 79.7129 134.65 79.6067 134.57 79.4385C134.46 79.2172 134.59 78.9517 134.84 78.8631C134.92 78.8366 142.59 75.9599 143.32 71.2687C143.45 70.4367 143.29 69.9056 142.85 69.702C142.03 69.3126 140.2 69.8702 138.67 70.9235C138.52 72.3663 137.98 74.1188 137.05 74.2605C136.8 74.2959 136.34 74.2605 136.04 73.5878C135.67 72.738 136.24 71.6316 137.6 70.5606C137.64 70.534 137.67 70.5075 137.71 70.4809C137.74 69.9853 137.71 69.4807 137.62 68.9939C137.4 67.8609 136.85 67.1882 136 67.0024C135.67 66.9316 135.36 67.0024 135.03 67.1883C132.76 68.5602 131.24 75.4377 130.85 77.978C130.81 78.217 130.55 78.3852 130.29 78.3586C130.02 78.3232 129.83 78.1019 129.86 77.8629C129.92 77.4735 131.37 68.3389 134.47 66.4624C135.03 66.1261 135.63 66.0199 136.24 66.1438C137.76 66.4713 138.65 67.799 138.72 69.8171C140.28 68.9054 142.15 68.3655 143.33 68.9231C143.91 69.1975 144.56 69.8525 144.32 71.3926C143.51 76.5884 135.58 79.5535 135.24 79.6863C135.18 79.7129 135.11 79.7217 135.05 79.7217L135.03 79.7129ZM137.48 71.9503C137.02 72.4725 136.82 72.9505 136.96 73.2691C137.13 73.0301 137.33 72.5522 137.48 71.9503Z" fill="#261D2A"/>
<path d="M146.879 91.0685C143.949 91.0685 136.829 86.5013 135.309 85.5011C135.089 85.3594 135.039 85.0762 135.209 84.8815C135.369 84.6867 135.689 84.6425 135.909 84.793C140.549 87.8378 146.019 90.6702 147.129 90.1569C147.169 90.1392 147.259 90.0949 147.249 89.8294C147.209 88.7406 146.859 87.9794 146.219 87.5546C146.189 87.5546 146.149 87.5723 146.119 87.5723C145.249 87.7404 142.119 88.0502 141.879 87.1917C141.839 87.0412 141.819 86.6694 142.539 86.4924C143.649 86.218 145.169 86.041 146.379 86.5986C146.889 86.4659 147.369 86.2888 147.739 86.0321C148.349 85.625 148.579 85.085 148.439 84.4123C148.349 83.9786 148.069 83.6246 147.579 83.3325C144.659 81.5711 136.289 82.9519 136.199 82.9696C135.929 83.0138 135.669 82.8545 135.619 82.6155C135.569 82.3765 135.749 82.1464 136.019 82.1022C136.379 82.0402 144.889 80.6417 148.149 82.6067C148.859 83.0315 149.279 83.5892 149.429 84.2619C149.719 85.6073 148.959 86.6694 147.319 87.2625C147.899 87.8644 148.219 88.7229 148.259 89.8117C148.289 90.4932 147.919 90.803 147.609 90.9535C147.419 91.042 147.169 91.0862 146.899 91.0862L146.879 91.0685Z" fill="#261D2A"/>
<path d="M116.81 91.1399C116.16 91.1399 115.59 91.0071 115.11 90.7061C113.97 89.9715 113.62 88.9536 114.17 87.9003C114.32 87.6082 114.53 87.3338 114.79 87.0771C113.45 86.5637 112.88 85.5547 113.23 84.2093C113.46 83.3241 114.03 82.6514 114.94 82.2089C118.33 80.5537 125.41 82.7577 125.71 82.855C125.97 82.9347 126.11 83.1914 126.01 83.4215C125.92 83.6516 125.63 83.7756 125.37 83.687C125.3 83.6605 118.41 81.5273 115.41 82.9789C114.75 83.2976 114.36 83.7667 114.19 84.404C113.97 85.2537 114.22 85.8202 114.97 86.1743C115.17 86.2716 115.39 86.3424 115.63 86.3956C116.9 85.5812 118.62 85.1564 119.99 85.4485C120.97 85.6609 120.96 86.13 120.91 86.3159C120.68 87.1745 117.82 87.6259 115.88 87.3426C115.52 87.6259 115.23 87.9445 115.07 88.2632C114.73 88.9182 114.94 89.4935 115.69 89.9803C117.64 91.2284 123.44 87.8914 126.63 85.4927C126.84 85.3334 127.16 85.3599 127.34 85.5458C127.52 85.7317 127.49 86.0149 127.28 86.1743C126.51 86.7585 120.53 91.131 116.8 91.1399H116.81ZM119.04 86.2362C118.48 86.2362 117.91 86.3513 117.37 86.546C118.18 86.5283 118.95 86.3955 119.45 86.2539C119.31 86.2362 119.18 86.2274 119.04 86.2274V86.2362Z" fill="#261D2A"/>
<path d="M134.399 102.001C133.559 102.001 132.639 101.673 131.689 101.036C131.209 100.708 130.709 100.275 130.279 99.7967C130.239 99.8144 130.199 99.8409 130.169 99.8586C128.749 100.602 126.719 101.08 125.629 100.381C124.999 99.9826 124.059 97.929 128.889 87.5641C128.989 87.334 129.289 87.2278 129.539 87.3252C129.799 87.4137 129.919 87.6792 129.809 87.9005C127.079 93.7689 125.429 99.1594 126.209 99.6639C126.789 100.036 128.339 99.7878 129.649 99.0974C129.659 99.0974 129.679 99.0886 129.689 99.0797C129.239 98.4336 129.019 97.7963 129.259 97.3803C129.389 97.1501 129.749 96.8138 130.639 97.0439C131.519 97.274 131.749 97.6901 131.799 97.9999C131.869 98.4867 131.509 98.9292 131.079 99.2744C131.549 99.779 132.169 100.31 132.889 100.691C133.959 101.248 134.839 101.266 135.509 100.735C137.439 99.2036 134.199 92.1668 131.699 88.0864C131.569 87.8739 131.659 87.5996 131.899 87.4845C132.139 87.3694 132.449 87.4491 132.579 87.6615C133.279 88.8033 139.329 98.9027 136.179 101.399C135.669 101.806 135.059 102.01 134.399 102.01V102.001ZM130.169 97.8494C130.189 97.9999 130.309 98.2477 130.499 98.5486C130.739 98.3362 130.819 98.1769 130.809 98.1061C130.809 98.0795 130.719 97.9822 130.359 97.8848C130.269 97.8582 130.209 97.8494 130.159 97.8494H130.169Z" fill="#261D2A"/>
<path d="M130.139 76.1371C130.139 76.1371 138.449 78.8987 138.109 82.3507C137.769 85.8027 134.889 93.1228 126.559 87.5995C118.229 82.0763 126.159 75.429 130.139 76.1371Z" fill="#EDD45B"/>
<path d="M118.445 128.213C115.64 128.212 112.764 127.119 109.886 124.918C110.785 124.172 118.341 118.167 128.27 118.167C129.563 118.167 130.854 118.267 132.115 118.477C131.831 118.99 130.517 121.252 128.337 123.469C125.949 125.898 122.584 128.211 118.445 128.213Z" fill="#2ECC71" stroke="black"/>
<path d="M111.93 125.138C111.22 125.138 110.52 125.085 109.85 124.952C109.58 124.899 109.41 124.668 109.46 124.43C109.52 124.191 109.79 124.031 110.05 124.084C116.11 125.208 124.92 120.066 125 120.022C125.23 119.889 125.54 119.942 125.69 120.145C125.84 120.349 125.78 120.623 125.55 120.756C125.21 120.951 118.05 125.138 111.92 125.138H111.93Z" fill="#261D2A"/>
</svg>
