<svg width="390" height="424" viewBox="0 0 390 424" fill="none" xmlns="http://www.w3.org/2000/svg">
<path d="M257.345 353.335C257.345 353.335 271.504 298.245 304.352 304.511C342.326 311.753 341.431 344.302 341.431 344.302C341.431 344.302 304.352 315.361 257.345 353.335Z" fill="white" stroke="black" stroke-miterlimit="10"/>
<path d="M203.776 194.44C203.614 194.44 203.478 194.44 203.315 194.358C202.61 194.114 202.23 193.328 202.474 192.622C219.753 143.419 196.588 60.6891 196.344 59.8482C196.127 59.1159 196.561 58.3835 197.266 58.1665C197.972 57.9495 198.731 58.3835 198.948 59.0887C199.192 59.9296 222.601 143.5 205.024 193.49C204.834 194.06 204.292 194.385 203.749 194.385L203.776 194.44Z" fill="#261D2A"/>
<path d="M143.858 24.6941C143.858 24.6941 122.294 77.6139 178.496 106.773C234.697 135.931 264.995 29.7935 231.795 11.3489C198.595 -7.0957 197.022 66.4929 206.515 53.1477C216.009 39.8024 212.483 -9.72676 187.555 5.38155C162.601 20.4899 169.3 71.7822 175.078 50.164C180.883 28.5729 152.239 -15.1245 143.858 24.6941Z" fill="white" stroke="black" stroke-miterlimit="10"/>
<path d="M171.28 53.0128C171.09 53.0128 170.9 53.0128 170.738 52.9586C167.049 52.1991 166.615 44.0075 167.456 36.5754C167.862 32.8594 168.812 28.4652 170.249 24.0711C166.696 19.5142 162.031 15.771 157.881 14.1435C154.436 12.7873 149.798 12.1635 147.411 16.9916C140.467 31.0692 146.326 49.1069 146.38 49.2968C146.624 50.002 146.244 50.7615 145.512 51.0056C144.807 51.2498 144.02 50.8429 143.803 50.1377C143.532 49.351 137.51 30.8522 144.969 15.771C147.492 10.6445 152.564 9.12552 158.857 11.621C162.98 13.2484 167.564 16.7204 171.28 21.0874C174.508 12.4618 179.526 4.29737 186.09 1.53068C190.755 -0.449405 195.584 0.4457 200.439 4.18887C204.996 7.68792 208.82 12.1092 211.777 16.8289C212.021 16.4491 212.292 16.0694 212.536 15.7168C216.849 9.80363 221.786 7.25394 226.804 8.33892C232.473 9.58664 236.786 12.8144 239.607 17.9952C244.462 26.8649 243.594 39.315 240.719 47.1268C240.474 47.8321 239.688 48.1847 238.983 47.9406C238.277 47.6693 237.925 46.9098 238.169 46.2046C240.827 38.9353 241.668 27.4345 237.22 19.3243C234.778 14.8759 231.089 12.0821 226.207 11.0242C221.298 9.93925 217.256 13.8723 214.733 17.3442C214.245 18.0223 213.757 18.7547 213.323 19.487C217.934 27.8414 219.806 36.6568 218.232 42.3529C217.202 46.0961 214.706 48.3746 211.207 48.7814C208.956 49.0527 207.084 48.1033 205.918 46.1504C202.934 41.051 205.104 28.6822 210.176 19.5142C207.301 14.6318 203.423 9.96637 198.784 6.41307C194.743 3.32089 190.837 2.53428 187.148 4.1075C180.991 6.71145 176.217 15.1471 173.287 23.7185C177.492 29.5502 179.987 36.4941 178.143 42.5971C176.027 49.6765 173.776 53.1213 171.307 53.1213L171.28 53.0128ZM172.229 26.892C171.199 30.4724 170.493 33.9444 170.168 36.9009C169.11 46.1775 170.656 50.0292 171.307 50.3275C171.714 50.2462 173.504 48.5373 175.539 41.7291C176.922 37.0908 175.294 31.7202 172.229 26.892ZM211.723 22.2809C207.518 30.7166 206.081 40.9967 208.251 44.7128C208.875 45.7706 209.688 46.1775 210.882 46.0419C213.269 45.7706 214.869 44.2517 215.601 41.5663C216.903 36.8738 215.412 29.5231 211.723 22.2809Z" fill="#261D2A"/>
<path d="M185.331 111.493C185.141 111.493 184.924 111.439 184.734 111.358C183.486 110.734 172.42 105.065 172.881 98.6362C173.125 95.3542 176.217 92.7231 182.103 90.7702C185.385 89.6852 188.694 90.526 191.38 92.045C191.705 91.4211 192.112 90.8244 192.546 90.2548C194.689 87.5423 197.564 86.4302 200.439 87.1897C202.419 87.7322 203.911 88.8443 204.969 90.2005C205.267 89.875 205.566 89.5767 205.864 89.3054C210.041 85.4538 214.815 85.1283 218.368 88.4374C222.057 91.8823 222.41 95.2186 222.057 97.3885C221.406 101.349 217.962 105.119 212.781 107.479C212.103 107.804 211.289 107.479 210.991 106.801C210.665 106.123 210.991 105.309 211.669 105.01C215.032 103.464 218.802 100.535 219.399 96.9545C219.752 94.7303 218.802 92.5332 216.524 90.4175C212.998 87.1355 209.2 89.9293 207.708 91.2855C207.22 91.7195 206.786 92.2077 206.407 92.6689C206.949 94.0251 207.247 95.4356 207.302 96.7104C207.437 99.4229 206.678 101.376 205.267 101.891C204.779 102.081 203.558 102.325 202.311 100.752C200.656 98.6634 201.416 95.3271 203.26 92.4247C202.555 91.3126 201.443 90.2277 199.761 89.7665C197.428 89.1156 195.719 90.5803 194.689 91.8822C194.282 92.3976 193.929 92.9672 193.631 93.5368C194.092 93.9166 194.526 94.3234 194.906 94.7032C197.049 96.9274 197.971 99.2601 197.347 100.942C197.103 101.62 196.37 102.786 194.282 103.003C192.6 103.139 191.217 102.461 190.43 101.05C189.535 99.4228 189.562 96.9545 190.322 94.5133C188.098 93.1842 185.412 92.479 182.971 93.2927C179.716 94.3777 175.783 96.195 175.593 98.7718C175.322 102.678 183.161 107.479 185.955 108.862C186.633 109.188 186.904 110.001 186.579 110.679C186.334 111.168 185.873 111.439 185.358 111.439L185.331 111.493ZM192.654 96.3578C192.356 97.7954 192.41 99.0702 192.817 99.8026C193.007 100.128 193.251 100.426 194.011 100.345C194.445 100.291 194.743 100.182 194.797 100.047C194.96 99.6127 194.472 98.2294 192.953 96.629C192.844 96.5205 192.763 96.4391 192.654 96.3306V96.3578ZM204.508 95.9509C204.02 97.28 203.965 98.4192 204.372 99.0431C204.562 98.4464 204.698 97.3343 204.508 95.9509Z" fill="#261D2A"/>
<path d="M133.468 336.164C133.468 336.164 109.056 298.19 80.1139 301.798C51.1721 305.405 42.1396 334.347 42.1396 334.347C42.1396 334.347 102.709 316.255 133.468 336.164Z" fill="white" stroke="black" stroke-miterlimit="10"/>
<path d="M141.605 396.3C140.873 396.3 140.249 395.703 140.249 394.971C138.459 285.687 63.7853 227.532 63.0258 226.962C62.4291 226.501 62.3206 225.66 62.7817 225.063C63.2428 224.467 64.0837 224.358 64.6804 224.819C65.4399 225.389 141.171 284.357 142.962 394.944C142.962 395.703 142.365 396.3 141.632 396.327L141.605 396.3Z" fill="#261D2A"/>
<path d="M3.40641 201.818C3.40641 201.818 10.2689 258.535 73.5502 256.745C136.831 254.954 111.768 147.433 73.7943 147.433C35.8201 147.433 70.1868 212.532 71.977 196.257C73.7672 179.982 46.6699 138.401 32.1854 163.708C17.701 189.015 48.4601 230.624 43.0352 208.924C37.6103 187.225 -8.63684 162.948 3.37928 201.845L3.40641 201.818Z" fill="white" stroke="black" stroke-miterlimit="10"/>
<path d="M16.6161 224.412C16.2906 224.412 15.9651 224.304 15.6938 224.06C15.0971 223.517 0.856783 210.253 0.0159253 193.463C-0.255319 187.767 3.43361 183.97 10.1333 183.075C14.5275 182.478 20.2236 183.319 25.5943 185.326C24.2109 176.212 24.672 166.637 29.0119 161.022C32.1313 157.035 36.7695 155.462 42.8454 156.357C48.5144 157.198 54.0207 159.205 58.9031 161.89C58.9302 161.429 58.9844 160.995 59.0387 160.561C59.9338 153.292 62.9989 148.654 67.9084 147.189C73.4689 145.507 78.8124 146.267 83.7762 149.413C92.3204 154.811 97.6096 166.122 98.8845 174.341C98.993 175.073 98.5047 175.778 97.7452 175.887C97.0129 175.995 96.3076 175.507 96.1992 174.747C95.0057 167.098 90.1504 156.628 82.3115 151.692C78.0258 148.979 73.4146 148.355 68.6679 149.766C63.8397 151.203 62.2122 156.601 61.6969 160.86C61.5884 161.701 61.5341 162.541 61.4799 163.409C69.563 168.482 75.4761 175.263 76.8594 181.013C77.7817 184.783 76.6967 187.984 73.8486 190.046C72.0042 191.375 69.9156 191.456 67.9355 190.29C62.8361 187.279 58.7403 175.426 58.7132 164.928C53.8037 162.053 48.1618 159.856 42.3843 158.988C37.3391 158.256 33.5417 159.476 31.1005 162.623C27.0047 167.885 26.8962 177.568 28.4966 186.492C35.0064 189.557 40.5398 194.413 41.9232 200.624C43.632 208.382 43.1709 212.532 40.5669 213.373C36.9594 214.539 32.6195 207.541 29.7443 200.651C28.3067 197.206 27.0047 192.921 26.1096 188.364C20.7932 186.113 14.9072 185.109 10.4588 185.706C6.76991 186.194 2.43 187.903 2.70124 193.273C3.46073 208.951 17.3484 221.863 17.4841 221.998C18.0266 222.514 18.0808 223.354 17.5654 223.924C17.2942 224.222 16.9416 224.358 16.5618 224.358L16.6161 224.412ZM29.2561 189.937C30.0969 193.572 31.1548 196.935 32.294 199.702C35.8744 208.327 39.1565 211.04 39.8075 210.877C40.133 210.606 40.8653 208.273 39.3192 201.302C38.2885 196.583 34.247 192.677 29.2289 189.937H29.2561ZM61.5613 166.719C61.9953 176.131 65.7113 185.814 69.4002 188.011C70.4581 188.635 71.3532 188.581 72.3297 187.876C74.2826 186.465 74.9336 184.377 74.2826 181.691C73.1434 176.944 68.261 171.248 61.5341 166.719H61.5613Z" fill="#261D2A"/>
<path d="M79.7348 257.721C75.9916 257.721 66.9863 257.205 64.7078 252.323C63.3245 249.339 64.7621 245.542 68.9664 240.985C71.3262 238.435 74.6896 237.649 77.7004 237.594C77.7004 236.889 77.7547 236.184 77.8632 235.479C78.4057 232.061 80.3857 229.674 83.2881 228.969C85.2681 228.481 87.1126 228.725 88.7129 229.403C88.8214 228.996 88.9299 228.589 89.0656 228.182C90.8558 222.812 94.8702 220.181 99.5627 221.347C104.472 222.567 106.398 225.307 107.13 227.368C108.487 231.139 107.293 236.103 103.93 240.687C103.496 241.283 102.628 241.419 102.031 240.985C101.434 240.551 101.299 239.683 101.733 239.086C103.903 236.103 105.801 231.708 104.581 228.291C103.821 226.175 101.895 224.737 98.9117 223.978C94.2463 222.812 92.2662 227.124 91.6424 229.023C91.4254 229.647 91.2898 230.271 91.1813 230.895C92.3205 231.817 93.2427 232.902 93.9208 233.987C95.3584 236.292 95.6297 238.381 94.6532 239.52C94.3277 239.9 93.3512 240.714 91.5068 239.954C89.0384 238.923 88.0891 235.641 88.3061 232.197C87.1397 231.573 85.675 231.166 83.939 231.6C81.6063 232.17 80.8197 234.258 80.5485 235.913C80.44 236.564 80.4129 237.215 80.44 237.866C81.0367 237.974 81.6063 238.11 82.1217 238.272C85.0783 239.168 87.0041 240.768 87.2754 242.531C87.3838 243.236 87.3296 244.62 85.5936 245.813C84.2103 246.762 82.6371 246.844 81.2809 245.976C79.7076 244.972 78.5142 242.802 77.9988 240.307C75.422 240.225 72.7367 240.904 70.9736 242.802C68.6409 245.325 66.0912 248.824 67.2033 251.157C68.8579 254.71 78.053 255.063 81.1452 254.954C81.9047 254.873 82.5286 255.496 82.5557 256.256C82.5828 257.015 82.0132 257.639 81.2537 257.666C81.0096 257.666 80.4942 257.694 79.7619 257.694L79.7348 257.721ZM80.874 240.741C81.308 242.124 81.9861 243.236 82.6913 243.67C83.0168 243.86 83.3966 243.996 84.0204 243.562C84.373 243.318 84.59 243.074 84.5629 242.911C84.4815 242.45 83.3966 241.473 81.308 240.822C81.1723 240.768 81.0367 240.741 80.9011 240.714L80.874 240.741ZM91.0456 234.638C91.2626 236.048 91.778 237.079 92.4561 237.405C92.3205 236.781 91.9136 235.75 91.0456 234.638Z" fill="#261D2A"/>
<path d="M131.65 335.704C131.27 335.704 130.891 335.541 130.647 335.243C117.166 320.026 83.5857 318.534 83.2331 318.534C82.4736 318.507 81.904 317.883 81.9311 317.124C81.9582 316.364 82.6363 315.849 83.3416 315.822C84.7792 315.876 118.441 317.395 132.681 333.453C133.169 334.022 133.115 334.863 132.572 335.378C132.301 335.595 132.003 335.731 131.677 335.731L131.65 335.704Z" fill="black"/>
<path d="M192.247 314.466C192.247 314.466 207.626 230.38 262.77 274.674C262.77 274.674 228.403 277.386 192.247 314.466Z" fill="white" stroke="black" stroke-miterlimit="10"/>
<path d="M193.142 347.015C193.142 347.015 169.625 309.936 127.148 304.511C127.148 304.511 144.318 284.629 170.547 294.556C196.776 304.484 193.142 346.988 193.142 346.988V347.015Z" fill="white" stroke="black" stroke-miterlimit="10"/>
<path d="M197.672 386.345C197.021 386.345 196.452 385.884 196.343 385.233C180.177 299.085 208.766 213.616 209.038 212.748C209.282 212.043 210.041 211.663 210.746 211.908C211.452 212.152 211.831 212.911 211.587 213.616C211.289 214.457 182.971 299.275 198.974 384.717C199.11 385.45 198.622 386.155 197.889 386.291C197.808 386.291 197.727 386.291 197.645 386.291L197.672 386.345Z" fill="#261D2A"/>
<path d="M156.741 164.385C156.741 164.385 135.177 217.305 191.379 246.464C247.581 275.622 277.879 169.484 244.678 151.04C211.478 132.595 209.905 206.184 219.398 192.839C228.892 179.493 225.366 129.964 200.438 145.072C175.484 160.181 182.184 211.473 187.961 189.855C193.766 168.264 165.122 124.566 156.741 164.385Z" fill="white" stroke="black" stroke-miterlimit="10"/>
<path d="M184.163 192.704C183.973 192.704 183.784 192.704 183.621 192.65C179.932 191.89 179.498 183.698 180.339 176.266C180.746 172.55 181.695 168.156 183.133 163.762C179.579 159.205 174.914 155.462 170.764 153.834C167.292 152.478 162.681 151.854 160.294 156.683C153.35 170.76 159.209 188.798 159.263 188.988C159.507 189.693 159.128 190.452 158.395 190.697C157.69 190.941 156.903 190.534 156.686 189.829C156.415 189.042 150.393 170.543 157.853 155.462C160.375 150.335 165.448 148.816 171.74 151.312C175.863 152.939 180.447 156.411 184.163 160.778C187.391 152.153 192.409 143.988 198.973 141.222C203.639 139.242 208.467 140.137 213.322 143.88C217.879 147.379 221.704 151.8 224.66 156.52C224.904 156.14 225.175 155.76 225.42 155.408C229.732 149.495 234.669 146.945 239.687 148.03C245.356 149.278 249.669 152.505 252.49 157.686C257.345 166.556 256.477 179.006 253.602 186.818C253.358 187.523 252.571 187.876 251.866 187.631C251.161 187.36 250.808 186.601 251.052 185.896C253.71 178.626 254.551 167.125 250.103 159.015C247.662 154.567 243.973 151.773 239.09 150.715C234.181 149.63 230.139 153.563 227.617 157.035C227.128 157.713 226.64 158.446 226.206 159.178C230.817 167.532 232.689 176.348 231.116 182.044C230.085 185.787 227.59 188.065 224.091 188.472C221.839 188.744 219.968 187.794 218.801 185.841C215.818 180.742 217.988 168.373 223.06 159.205C220.185 154.323 216.306 149.657 211.668 146.104C207.626 143.012 203.72 142.225 200.031 143.798C193.874 146.402 189.1 154.838 186.171 163.409C190.375 169.241 192.87 176.185 191.026 182.288C188.91 189.367 186.659 192.812 184.19 192.812L184.163 192.704ZM185.113 166.583C184.082 170.163 183.377 173.635 183.051 176.592C181.993 185.868 183.539 189.72 184.19 190.018C184.597 189.937 186.388 188.228 188.422 181.42C189.805 176.782 188.178 171.411 185.113 166.583ZM224.606 161.972C220.402 170.407 218.964 180.688 221.134 184.404C221.758 185.462 222.572 185.868 223.765 185.733C226.152 185.462 227.752 183.943 228.485 181.257C229.787 176.565 228.295 169.214 224.606 161.972Z" fill="#261D2A"/>
<path d="M198.213 251.184C198.023 251.184 197.806 251.13 197.616 251.049C196.369 250.425 185.302 244.756 185.763 238.327C186.007 235.045 189.099 232.414 194.985 230.461C198.267 229.376 201.577 230.217 204.262 231.736C204.587 231.112 204.994 230.515 205.428 229.946C207.571 227.233 210.446 226.121 213.321 226.881C215.302 227.423 216.793 228.535 217.851 229.891C218.15 229.566 218.448 229.268 218.746 228.996C222.923 225.145 227.697 224.819 231.251 228.128C234.94 231.573 235.292 234.909 234.94 237.079C234.289 241.04 230.844 244.81 225.663 247.17C224.985 247.495 224.171 247.17 223.873 246.492C223.547 245.813 223.873 245 224.551 244.701C227.914 243.155 231.685 240.226 232.281 236.645C232.634 234.421 231.685 232.224 229.406 230.108C225.88 226.826 222.083 229.62 220.591 230.976C220.103 231.41 219.669 231.899 219.289 232.36C219.831 233.716 220.13 235.126 220.184 236.401C220.32 239.114 219.56 241.067 218.15 241.582C217.661 241.772 216.441 242.016 215.193 240.443C213.538 238.354 214.298 235.018 216.142 232.116C215.437 231.004 214.325 229.919 212.643 229.457C210.311 228.806 208.602 230.271 207.571 231.573C207.164 232.089 206.812 232.658 206.513 233.228C206.974 233.607 207.408 234.014 207.788 234.394C209.931 236.618 210.853 238.951 210.229 240.633C209.985 241.311 209.253 242.477 207.164 242.694C205.482 242.83 204.099 242.152 203.313 240.741C202.417 239.114 202.445 236.645 203.204 234.204C200.98 232.875 198.295 232.17 195.853 232.984C192.598 234.069 188.665 235.886 188.475 238.463C188.204 242.369 196.043 247.17 198.837 248.553C199.515 248.879 199.786 249.692 199.461 250.37C199.217 250.859 198.756 251.13 198.24 251.13L198.213 251.184ZM205.537 236.049C205.238 237.486 205.293 238.761 205.699 239.494C205.889 239.819 206.161 240.117 206.893 240.036C207.327 239.982 207.625 239.873 207.68 239.738C207.842 239.304 207.354 237.92 205.835 236.32C205.727 236.211 205.645 236.13 205.537 236.022V236.049ZM217.39 235.642C216.902 236.971 216.848 238.11 217.254 238.734C217.444 238.137 217.58 237.025 217.39 235.642Z" fill="#261D2A"/>
<path d="M191.786 343.407C191.189 343.407 190.647 343 190.484 342.403C187.446 331.147 169.327 313.353 169.137 313.19C168.594 312.675 168.594 311.807 169.137 311.264C169.652 310.722 170.52 310.722 171.063 311.264C171.822 312.024 189.887 329.736 193.115 341.725C193.305 342.457 192.871 343.19 192.166 343.38C192.057 343.407 191.921 343.434 191.813 343.434L191.786 343.407Z" fill="#261D2A"/>
<path d="M193.604 314.005C193.441 314.005 193.251 313.977 193.088 313.896C192.41 313.598 192.085 312.811 192.356 312.106C199.652 294.773 220.43 280.045 221.298 279.421C221.921 278.987 222.762 279.15 223.196 279.746C223.63 280.37 223.468 281.211 222.871 281.645C222.654 281.781 201.849 296.537 194.851 313.164C194.634 313.679 194.119 314.005 193.604 314.005Z" fill="#261D2A"/>
<path d="M137.319 196.475C137.319 196.475 110.195 113.745 172.581 121.204C172.581 121.204 144.778 149.007 137.319 196.475Z" fill="white" stroke="black" stroke-miterlimit="10"/>
<path d="M160.374 283.95C160.374 283.95 129.181 250.045 109.516 244.62C109.516 244.62 152.237 214.783 160.374 283.95Z" fill="white" stroke="black" stroke-miterlimit="10"/>
<path d="M19.6808 88.573C19.6808 88.573 26.5433 145.29 89.8246 143.5C153.106 141.71 128.043 34.1885 90.0687 34.1885C52.0945 34.1885 86.4612 99.2871 88.2514 83.0125C90.0416 66.7378 62.9443 25.156 48.4598 50.4631C33.9754 75.7702 64.7345 117.379 59.3096 95.6796C53.8847 73.98 7.63758 49.7036 19.6537 88.6001L19.6808 88.573Z" fill="white" stroke="black" stroke-miterlimit="10"/>
<path d="M32.8905 111.168C32.565 111.168 32.2395 111.059 31.9683 110.815C31.3715 110.272 17.1312 97.0087 16.2903 80.2186C16.0191 74.5225 19.708 70.7251 26.4078 69.83C30.8019 69.2332 36.498 70.0741 41.8687 72.0813C40.4853 62.9675 40.9464 53.3926 45.2864 47.7778C48.4057 43.7905 53.0439 42.2173 59.1198 43.1124C64.7888 43.9533 70.2951 45.9605 75.1775 48.6458C75.2046 48.1847 75.2589 47.7507 75.3131 47.3167C76.2082 40.0474 79.2733 35.4091 84.1828 33.9444C89.7433 32.2626 95.0868 33.0221 100.051 36.1686C108.595 41.5663 113.884 52.8772 115.159 61.0959C115.267 61.8283 114.779 62.5335 114.02 62.642C113.287 62.7505 112.582 62.2623 112.474 61.5028C111.28 53.8537 106.425 43.3837 98.5859 38.447C94.3002 35.7346 89.689 35.1107 84.9423 36.5212C80.1141 37.9588 78.4867 43.3565 77.9713 47.6151C77.8628 48.4559 77.8086 49.2968 77.7543 50.1648C85.8374 55.237 91.7505 62.0181 93.1339 67.7685C94.0561 71.5388 92.9711 74.7395 90.123 76.801C88.2786 78.1301 86.19 78.2114 84.2099 77.0451C79.1105 74.0343 75.0147 62.1809 74.9876 51.6837C70.0781 48.8085 64.4362 46.6115 58.6587 45.7435C53.6407 45.0111 49.8161 46.2317 47.3749 49.3782C43.2791 54.6403 43.1707 64.3237 44.771 73.2477C51.2809 76.3127 56.8142 81.168 58.1976 87.3795C59.9064 95.1371 59.4453 99.2871 56.8414 100.128C53.2338 101.267 48.8939 94.2962 46.0187 87.4066C44.5811 83.9618 43.2791 79.6761 42.384 75.1192C37.0676 72.8679 31.1816 71.8643 26.7332 72.461C23.0443 72.9493 18.7044 74.6581 18.9757 80.0288C19.7351 95.7067 33.6228 108.618 33.7585 108.754C34.301 109.269 34.3552 110.11 33.8398 110.679C33.5686 110.978 33.216 111.113 32.8362 111.113L32.8905 111.168ZM45.5305 76.6925C46.3713 80.3271 47.4292 83.6906 48.5684 86.4572C52.1217 94.9743 55.2953 97.6325 56.0548 97.6325C56.3802 97.3613 57.1126 95.0286 55.5665 88.0576C54.5358 83.3379 50.4942 79.432 45.4762 76.6925H45.5305ZM77.8357 53.4739C78.2697 62.8861 81.9857 72.5695 85.6746 74.7666C86.7325 75.3905 87.6276 75.3362 88.6041 74.631C90.557 73.2205 91.208 71.132 90.557 68.4466C89.4178 63.6999 84.5354 58.0037 77.8085 53.4739H77.8357Z" fill="#261D2A"/>
<path d="M96.0092 144.476C92.266 144.476 83.2607 143.961 80.9822 139.078C79.5989 136.095 81.0365 132.297 85.2408 127.74C87.6006 125.191 90.964 124.377 93.9748 124.35C93.9748 123.645 94.0291 122.939 94.1376 122.234C94.6801 118.816 96.6602 116.429 99.5625 115.724C101.543 115.236 103.387 115.48 104.987 116.158C105.096 115.751 105.204 115.344 105.34 114.938C107.13 109.567 111.145 106.936 115.837 108.102C120.747 109.323 122.672 112.062 123.405 114.124C124.761 117.894 123.568 122.858 120.204 127.442C119.77 128.039 118.902 128.174 118.305 127.74C117.709 127.306 117.573 126.438 118.007 125.842C120.177 122.858 122.076 118.464 120.855 115.046C120.096 112.93 118.17 111.493 115.186 110.733C110.521 109.567 108.541 113.88 107.917 115.778C107.7 116.402 107.564 117.026 107.456 117.65C108.595 118.572 109.517 119.657 110.195 120.742C111.633 123.048 111.904 125.136 110.928 126.276C110.602 126.655 109.626 127.469 107.781 126.71C105.313 125.679 104.363 122.397 104.58 118.952C103.414 118.328 101.922 117.921 100.213 118.355C97.8808 118.925 97.0942 121.013 96.8229 122.668C96.7144 123.319 96.6873 123.97 96.7144 124.621C97.3111 124.729 97.8808 124.865 98.3961 125.028C101.353 125.923 103.279 127.523 103.55 129.286C103.658 129.992 103.604 131.375 101.868 132.568C100.485 133.518 98.9115 133.599 97.5553 132.731C95.982 131.728 94.7886 129.558 94.2732 127.062C91.6964 126.954 89.0111 127.659 87.248 129.558C84.9153 132.08 82.3656 135.579 83.4777 137.912C85.1323 141.465 94.3275 141.845 97.4196 141.709C98.1791 141.655 98.803 142.252 98.8301 143.011C98.8572 143.771 98.2876 144.395 97.5281 144.422C97.284 144.422 96.7687 144.449 96.0363 144.449L96.0092 144.476ZM97.1484 127.496C97.5824 128.88 98.2605 129.992 98.9657 130.426C99.2912 130.615 99.671 130.751 100.295 130.317C100.647 130.073 100.864 129.829 100.837 129.666C100.756 129.205 99.671 128.229 97.5824 127.578C97.4468 127.523 97.3111 127.496 97.1755 127.469L97.1484 127.496ZM107.32 121.393C107.537 122.804 108.052 123.834 108.731 124.16C108.595 123.536 108.188 122.505 107.32 121.393Z" fill="#261D2A"/>
<path d="M167.834 388.379C167.074 388.379 166.478 387.782 166.478 387.023C165.8 209.873 106.37 138.373 105.773 137.668C105.285 137.098 105.366 136.23 105.909 135.742C106.451 135.254 107.346 135.308 107.835 135.878C108.431 136.583 168.512 208.843 169.19 386.969C169.19 387.728 168.593 388.325 167.834 388.325V388.379Z" fill="#261D2A"/>
<path d="M159.235 282.378C158.612 282.378 158.069 281.971 157.906 281.347C153.594 263.228 137.156 256.121 136.993 256.067C136.315 255.769 135.99 254.982 136.261 254.277C136.559 253.599 137.346 253.273 138.024 253.544C138.757 253.843 155.899 261.275 160.51 280.696C160.673 281.428 160.239 282.161 159.507 282.323C159.398 282.323 159.29 282.35 159.181 282.35L159.235 282.378Z" fill="#261D2A"/>
<path d="M137.997 196.013C137.319 196.013 136.749 195.525 136.668 194.847C132.572 165.715 142.364 151.095 142.771 150.498C143.205 149.874 144.046 149.712 144.642 150.146C145.266 150.58 145.429 151.42 144.995 152.017C144.886 152.153 135.42 166.474 139.353 194.467C139.462 195.199 138.946 195.904 138.187 195.986C138.132 195.986 138.051 195.986 137.997 195.986V196.013Z" fill="#261D2A"/>
<path d="M220.483 128.283C220.483 128.283 270.392 143.391 275.004 183.562C275.004 183.562 292.092 165.172 277.662 139.295C263.232 113.419 220.483 128.283 220.483 128.283Z" fill="white" stroke="black" stroke-miterlimit="10"/>
<path d="M222.084 389.057H222.057C221.297 389.057 220.728 388.406 220.728 387.674C224.308 228.074 309.913 132.243 310.781 131.294C311.296 130.752 312.137 130.697 312.706 131.213C313.249 131.728 313.303 132.569 312.788 133.138C311.92 134.088 226.993 229.213 223.44 387.755C223.44 388.488 222.816 389.085 222.084 389.085V389.057Z" fill="#261D2A"/>
<path d="M288.05 39.2333C288.05 39.2333 246.821 78.7808 286.287 128.31C325.753 177.812 396.629 93.211 373.818 62.8587C351.006 32.5065 319.596 99.0698 333.701 90.7426C347.805 82.4154 364.758 35.7343 335.816 39.3961C306.875 43.0308 292.119 92.6142 306.196 75.2275C320.274 57.8678 311.893 6.30429 288.05 39.2605V39.2333Z" fill="white" stroke="black" stroke-miterlimit="10"/>
<path d="M366.44 99.5037C366.088 99.5037 365.762 99.3681 365.491 99.124C364.948 98.6086 364.948 97.7406 365.491 97.1981C370.889 91.6647 376.341 81.4931 375.581 72.2708C375.174 67.2256 372.923 63.157 368.909 60.2004C364.867 57.2167 359.578 59.1425 355.835 61.3125C355.102 61.7465 354.37 62.1805 353.665 62.6687C354.451 72.1894 352.58 80.9777 348.837 85.5346C346.368 88.5454 343.168 89.6033 339.804 88.5726C337.634 87.8945 336.305 86.267 336.061 84.0157C335.41 78.1297 342.435 67.741 350.789 61.421C350.139 55.7791 348.511 49.9474 345.717 44.7937C343.303 40.3182 340.021 38.0126 336.034 37.9584C329.334 37.9584 321.549 43.6003 315.392 50.2186C316.857 57.271 316.314 64.6217 312.137 69.4498C306.956 75.4715 303.376 77.6143 301.125 76.0139C298.06 73.8169 301.016 66.1407 304.786 59.7122C306.685 56.4844 309.316 52.8768 312.436 49.432C311.052 43.8172 308.313 38.5009 305.166 35.3273C302.562 32.6691 298.575 30.2279 294.452 33.6727C282.355 43.7087 280.402 62.5602 280.374 62.7501C280.293 63.4825 279.642 64.0249 278.883 63.9707C278.15 63.8893 277.581 63.2383 277.662 62.4789C277.743 61.6651 279.778 42.3254 292.716 31.5841C297.11 27.9223 302.345 28.6004 307.092 33.4286C310.184 36.575 312.951 41.6202 314.578 47.1264C321.034 40.5623 328.981 35.273 336.061 35.273C341.106 35.3544 345.175 38.1482 348.104 43.5189C350.844 48.564 352.525 54.1788 353.312 59.685C353.692 59.4409 354.072 59.1968 354.478 58.9798C360.826 55.318 366.359 54.9925 370.509 58.0576C375.174 61.5024 377.778 66.222 378.267 72.0809C379.107 82.1441 373.221 93.1566 367.417 99.124C367.146 99.3952 366.793 99.5308 366.44 99.5308V99.5037ZM351.034 64.6488C343.764 70.6433 338.258 79.4588 338.719 83.7173C338.855 84.9379 339.424 85.6431 340.591 85.9957C342.896 86.7281 344.958 85.9957 346.721 83.8529C349.813 80.0826 351.44 72.759 351.034 64.6759V64.6488ZM313.087 52.7683C310.672 55.6164 308.611 58.4916 307.119 61.0684C302.4 69.1243 302.237 73.2744 302.698 73.7897C303.078 73.8711 305.41 73.0574 310.049 67.6596C313.195 63.9978 313.9 58.4102 313.087 52.7683Z" fill="#261D2A"/>
<path d="M317.317 142.93C316.585 142.93 315.961 142.333 315.961 141.6C315.961 140.841 316.558 140.244 317.29 140.217C320.979 140.163 325.644 139.051 327.624 135.986C328.845 134.114 328.872 131.7 327.652 128.852C325.78 124.431 321.142 125.434 319.243 126.085C318.619 126.302 318.022 126.546 317.48 126.818C317.426 128.282 317.1 129.693 316.639 130.886C315.663 133.436 314.198 134.901 312.652 134.792C312.136 134.765 310.916 134.467 310.4 132.541C309.749 129.937 311.784 127.224 314.659 125.326C314.469 124.024 313.899 122.586 312.516 121.474C310.645 119.955 308.502 120.579 307.037 121.338C306.467 121.637 305.898 122.017 305.41 122.423C305.681 122.966 305.898 123.481 306.088 124.024C307.145 126.926 307.037 129.422 305.789 130.696C305.274 131.212 304.135 131.998 302.155 131.32C300.554 130.778 299.578 129.557 299.442 127.984C299.279 126.14 300.31 123.888 301.992 121.962C300.5 119.847 298.357 118.111 295.78 117.839C292.363 117.514 288.05 117.568 286.829 119.847C284.985 123.291 290.193 130.886 292.173 133.273C292.661 133.843 292.58 134.711 291.983 135.172C291.386 135.633 290.545 135.579 290.084 134.982C289.189 133.897 281.404 124.214 284.442 118.545C285.988 115.642 289.894 114.503 296.079 115.127C299.523 115.48 302.209 117.595 304.026 120.064C304.596 119.63 305.192 119.25 305.816 118.924C308.881 117.324 311.974 117.46 314.279 119.331C315.88 120.633 316.775 122.261 317.209 123.942C317.588 123.78 317.995 123.617 318.402 123.481C323.773 121.664 328.275 123.319 330.174 127.767C332.127 132.432 331.123 135.606 329.903 137.45C327.706 140.787 323.013 142.821 317.317 142.902V142.93ZM314.469 129.015C313.465 130.018 312.95 131.049 313.086 131.781C313.493 131.32 314.089 130.344 314.469 129.015ZM303.457 124.539C302.589 125.733 302.127 126.926 302.182 127.74C302.209 128.12 302.344 128.499 303.05 128.743C303.457 128.879 303.782 128.906 303.891 128.798C304.216 128.472 304.352 127.007 303.592 124.946C303.538 124.81 303.484 124.675 303.429 124.539H303.457Z" fill="#261D2A"/>
<path d="M276.767 183.808C276.767 183.808 276.523 183.808 276.387 183.753C275.655 183.536 275.248 182.777 275.465 182.072C281.487 161.403 266.433 145.128 266.297 144.965C265.782 144.423 265.809 143.555 266.351 143.04C266.894 142.524 267.762 142.551 268.277 143.094C268.955 143.799 284.552 160.643 278.096 182.831C277.933 183.428 277.391 183.808 276.794 183.808H276.767Z" fill="#261D2A"/>
<path d="M255.529 389.953C254.823 389.953 254.227 389.411 254.172 388.678C246.984 284.33 319.895 220.018 320.627 219.395C321.197 218.906 322.065 218.961 322.553 219.53C323.041 220.1 322.987 220.941 322.417 221.456C321.685 222.08 249.778 285.551 256.885 388.515C256.939 389.275 256.369 389.899 255.637 389.953C255.61 389.953 255.583 389.953 255.556 389.953H255.529Z" fill="#261D2A"/>
<path d="M312.626 160.02C312.626 160.02 261.74 185.978 285.203 244.784C308.693 303.59 400.997 243.048 387.923 207.406C374.849 171.765 325.564 226.421 341.459 222.515C357.354 218.609 387.082 178.817 358.33 173.962C329.578 169.08 301.125 212.262 319.624 199.703C338.123 187.144 345.012 135.364 312.626 160.02Z" fill="white" stroke="black" stroke-miterlimit="10"/>
<path d="M370.645 240.416C370.157 240.416 369.695 240.172 369.451 239.711C369.099 239.06 369.316 238.219 369.967 237.866C376.721 234.123 384.885 225.959 386.838 216.899C387.896 211.935 386.919 207.406 383.936 203.418C380.925 199.404 375.31 199.702 371.106 200.706C370.292 200.896 369.451 201.14 368.638 201.384C366.657 210.715 362.318 218.608 357.408 221.89C354.18 224.033 350.79 224.141 347.887 222.188C346.016 220.914 345.202 218.988 345.609 216.736C346.694 210.932 356.404 202.984 366.251 199.35C367.254 193.762 367.39 187.713 366.196 181.963C365.166 176.972 362.697 173.826 358.9 172.605C352.526 170.571 343.412 173.826 335.6 178.383C334.976 185.543 332.318 192.433 326.947 195.851C320.275 200.109 316.206 201.14 314.524 198.943C312.219 195.959 317.264 189.476 322.743 184.404C325.483 181.882 329.063 179.169 333.023 176.755C333.294 170.978 332.237 165.119 330.148 161.158C328.412 157.876 325.32 154.377 320.383 156.466C305.926 162.569 298.575 180.064 298.494 180.254C298.195 180.959 297.409 181.285 296.731 180.986C296.025 180.688 295.7 179.901 295.998 179.223C296.324 178.464 303.837 160.535 319.325 153.971C324.587 151.746 329.416 153.916 332.562 159.884C334.623 163.79 335.817 169.431 335.763 175.182C343.846 170.761 352.987 167.885 359.741 170.055C364.569 171.601 367.634 175.426 368.882 181.448C370.048 187.062 370.048 192.921 369.207 198.427C369.641 198.319 370.075 198.183 370.509 198.102C377.643 196.42 383.041 197.722 386.133 201.845C389.605 206.483 390.744 211.746 389.523 217.523C387.408 227.396 378.619 236.266 371.323 240.28C371.106 240.389 370.889 240.443 370.672 240.443L370.645 240.416ZM365.6 202.55C356.893 206.212 349.081 213.02 348.321 217.252C348.104 218.445 348.457 219.286 349.461 219.964C351.468 221.32 353.638 221.212 355.943 219.666C359.985 216.953 363.674 210.416 365.627 202.55H365.6ZM332.698 180.2C329.578 182.234 326.757 184.404 324.587 186.411C317.725 192.758 316.369 196.692 316.667 197.315C317.02 197.505 319.488 197.397 325.483 193.572C329.551 190.968 331.83 185.842 332.671 180.2H332.698Z" fill="#261D2A"/>
<path d="M316.531 268.626C314.687 268.626 312.734 268.328 310.7 267.758C309.967 267.541 309.56 266.809 309.777 266.076C309.994 265.371 310.727 264.937 311.459 265.154C315.012 266.185 319.786 266.429 322.58 264.096C324.289 262.659 324.994 260.353 324.669 257.288C324.153 252.514 319.407 252.161 317.427 252.189C316.776 252.189 316.125 252.27 315.528 252.378C315.067 253.762 314.362 255.009 313.548 256.013C311.866 258.156 310.022 259.132 308.611 258.617C308.123 258.454 307.038 257.803 307.119 255.796C307.228 253.138 309.967 251.104 313.277 250.127C313.466 248.825 313.331 247.279 312.354 245.841C310.998 243.861 308.774 243.807 307.146 244.133C306.495 244.268 305.872 244.458 305.275 244.702C305.383 245.299 305.438 245.869 305.465 246.411C305.627 249.503 304.814 251.836 303.24 252.731C302.617 253.084 301.288 253.49 299.579 252.297C298.195 251.321 297.599 249.883 297.951 248.31C298.331 246.492 299.986 244.621 302.156 243.292C301.342 240.823 299.769 238.545 297.382 237.568C294.208 236.239 290.058 235.073 288.214 236.89C285.447 239.657 288.241 248.445 289.461 251.293C289.76 251.972 289.434 252.785 288.729 253.084C288.051 253.355 287.237 253.056 286.966 252.351C286.423 251.049 281.758 239.549 286.315 234.992C288.62 232.659 292.716 232.686 298.439 235.073C301.64 236.402 303.593 239.196 304.624 242.098C305.302 241.854 305.98 241.664 306.658 241.529C310.049 240.878 312.978 241.908 314.633 244.377C315.772 246.086 316.179 247.876 316.097 249.639C316.531 249.585 316.938 249.557 317.372 249.557C323.014 249.368 326.893 252.27 327.381 257.071C327.924 262.089 326.025 264.828 324.343 266.266C322.417 267.894 319.678 268.707 316.559 268.707L316.531 268.626ZM311.975 253.599C310.727 254.277 309.94 255.118 309.859 255.85C310.401 255.525 311.215 254.765 311.975 253.599ZM302.752 246.14C301.586 247.035 300.799 248.038 300.609 248.852C300.528 249.232 300.555 249.612 301.152 250.046C301.505 250.29 301.83 250.398 301.939 250.344C302.345 250.127 302.888 248.771 302.779 246.574C302.779 246.438 302.779 246.303 302.752 246.14Z" fill="#261D2A"/>
<path d="M255.528 357.864C255.338 357.864 255.149 357.837 254.959 357.756C254.281 357.43 253.982 356.644 254.281 355.965C266.161 329.899 293.367 322.955 294.533 322.657C295.266 322.494 295.998 322.928 296.161 323.66C296.351 324.393 295.889 325.125 295.157 325.315C294.886 325.369 268.06 332.259 256.749 357.105C256.532 357.593 256.017 357.891 255.501 357.891L255.528 357.864Z" fill="#261D2A"/>
<path d="M66.1182 372.782C66.1182 372.782 338.719 366.001 341.431 370.07C344.144 374.138 331.938 421.606 331.938 421.606C331.938 421.606 83.749 425.675 79.6804 421.606C75.6117 417.537 66.1182 372.782 66.1182 372.782Z" fill="white" stroke="black" stroke-miterlimit="10"/>
</svg>
