<svg width="386" height="404" viewBox="0 0 386 404" fill="none" xmlns="http://www.w3.org/2000/svg">
<path d="M169.927 360.202L169.505 360.47L169.878 361.058L170.316 360.516L169.927 360.202ZM169.927 360.202C169.505 360.47 169.505 360.47 169.504 360.47L169.504 360.47L169.503 360.467L169.496 360.458L169.472 360.419L169.374 360.267C169.289 360.134 169.163 359.94 169.003 359.693C168.681 359.199 168.219 358.496 167.659 357.662C166.537 355.994 165.024 353.805 163.45 351.712C161.872 349.613 160.25 347.635 158.912 346.375C158.236 345.738 157.673 345.325 157.253 345.151C157.046 345.066 156.92 345.058 156.854 345.07C156.81 345.077 156.765 345.095 156.71 345.179C155.704 346.733 152.632 350.571 149.839 353.99C148.436 355.707 147.096 357.328 146.107 358.519C145.612 359.115 145.205 359.604 144.921 359.944C144.779 360.114 144.668 360.246 144.593 360.336L144.507 360.439L144.485 360.465L144.479 360.472L144.478 360.474L144.477 360.474C144.477 360.474 144.477 360.474 144.094 360.153M169.927 360.202C170.316 360.516 170.316 360.516 170.316 360.516L170.316 360.515L170.317 360.514L170.323 360.507L170.344 360.481L170.427 360.379C170.5 360.289 170.607 360.156 170.746 359.986C171.024 359.646 171.425 359.156 171.921 358.557C172.913 357.359 174.281 355.726 175.787 353.986C178.813 350.489 182.355 346.608 184.529 344.911C184.75 344.738 184.928 344.676 185.065 344.665C185.197 344.654 185.338 344.686 185.5 344.789C185.85 345.012 186.237 345.525 186.623 346.362C187.385 348.012 188.007 350.599 188.466 353.437C188.923 356.262 189.212 359.293 189.327 361.805C189.384 363.06 189.397 364.181 189.366 365.077C189.338 365.898 189.274 366.488 189.19 366.824C189.158 366.839 189.112 366.857 189.049 366.879C188.836 366.951 188.509 367.027 188.06 367.101C187.168 367.25 185.872 367.383 184.22 367.501C180.921 367.735 176.252 367.905 170.668 368.024C159.501 368.26 144.699 368.29 129.924 368.224C115.15 368.159 100.405 367.998 89.3546 367.854C83.8292 367.781 79.2273 367.713 76.0068 367.663C74.3966 367.638 73.1317 367.618 72.2694 367.603L71.285 367.587H71.285C71.2739 367.547 71.2621 367.503 71.2497 367.457C71.1613 367.126 71.0395 366.639 70.908 366.02C70.6451 364.78 70.344 363.012 70.1935 360.904C69.8921 356.685 70.1961 351.133 72.591 345.745L72.5913 345.744C72.6969 345.506 72.8175 345.375 72.9308 345.302C73.0422 345.23 73.1849 345.19 73.3802 345.198C73.7978 345.217 74.3821 345.455 75.1171 345.944C76.5682 346.909 78.3398 348.664 80.076 350.61C81.804 352.547 83.4672 354.639 84.7001 356.25C85.3161 357.054 85.8238 357.738 86.1772 358.219C86.3539 358.46 86.492 358.651 86.5858 358.781C86.6327 358.846 86.6685 358.896 86.6925 358.929L86.7195 358.967L86.7263 358.976L86.7279 358.979L86.7283 358.979C86.7283 358.979 86.7284 358.979 87.1359 358.69M144.094 360.153C143.628 360.335 143.628 360.335 143.628 360.335L143.628 360.335L143.627 360.332L143.622 360.32L143.604 360.274C143.588 360.233 143.564 360.171 143.532 360.092C143.468 359.932 143.373 359.698 143.252 359.402C143.008 358.81 142.656 357.969 142.221 356.977C141.351 354.991 140.151 352.405 138.832 349.989C137.505 347.561 136.082 345.354 134.773 344.089C134.112 343.45 133.544 343.114 133.085 343.046C132.689 342.986 132.292 343.115 131.885 343.667C131.885 343.667 131.885 343.667 131.885 343.667L120.055 359.742L119.713 360.206L119.302 359.803L119.652 359.446C119.302 359.803 119.302 359.803 119.302 359.803L119.301 359.802L119.299 359.8L119.289 359.79L119.249 359.751C119.214 359.717 119.162 359.666 119.093 359.599C118.956 359.466 118.755 359.272 118.497 359.025C117.983 358.532 117.245 357.831 116.354 357.002C114.571 355.343 112.175 353.173 109.721 351.124C107.261 349.071 104.763 347.157 102.77 345.995C101.767 345.411 100.934 345.043 100.32 344.923C100.015 344.864 99.805 344.875 99.6687 344.917C99.5508 344.954 99.4717 345.018 99.4121 345.135C98.8976 346.144 97.8833 347.521 96.6822 348.993C95.4732 350.475 94.0484 352.085 92.6884 353.572C91.3278 355.06 90.0287 356.427 89.0701 357.422C88.5907 357.919 88.1962 358.324 87.9214 358.604C87.784 358.745 87.6765 358.854 87.6033 358.928L87.5197 359.013L87.4982 359.034L87.4927 359.04L87.4913 359.041L87.4909 359.042C87.4908 359.042 87.4907 359.042 87.1359 358.69M144.094 360.153L143.628 360.335L143.936 361.121L144.477 360.474L144.094 360.153ZM87.1359 358.69L86.7284 358.979L87.0724 359.463L87.4907 359.042L87.1359 358.69ZM189.248 366.791C189.248 366.791 189.247 366.792 189.242 366.795C189.246 366.792 189.248 366.791 189.248 366.791Z" fill="white" stroke="black"/>
<path d="M307.749 360.202L307.327 360.47L307.701 361.058L308.138 360.516L307.749 360.202ZM307.749 360.202C307.327 360.47 307.327 360.47 307.327 360.47L307.326 360.47L307.325 360.467L307.319 360.458L307.294 360.419L307.197 360.267C307.111 360.134 306.986 359.94 306.825 359.693C306.503 359.199 306.041 358.496 305.481 357.662C304.36 355.994 302.846 353.805 301.272 351.712C299.694 349.613 298.072 347.635 296.734 346.375C296.058 345.738 295.495 345.325 295.075 345.151C294.868 345.066 294.742 345.058 294.676 345.07C294.632 345.077 294.587 345.095 294.533 345.179C293.526 346.733 290.454 350.571 287.661 353.99C286.259 355.707 284.919 357.328 283.929 358.519C283.434 359.115 283.027 359.604 282.743 359.944C282.601 360.114 282.491 360.246 282.415 360.336L282.329 360.439L282.307 360.465L282.301 360.472L282.3 360.474L282.3 360.474C282.3 360.474 282.3 360.474 281.916 360.153L282.3 360.474L281.758 361.121L281.451 360.335L281.467 360.329C281.451 360.335 281.451 360.335 281.451 360.335L281.45 360.335L281.449 360.332L281.445 360.32L281.426 360.274C281.41 360.233 281.386 360.171 281.354 360.092C281.29 359.932 281.196 359.698 281.074 359.402C280.831 358.81 280.479 357.969 280.044 356.977C279.173 354.991 277.974 352.405 276.654 349.989C275.327 347.561 273.904 345.354 272.595 344.089C271.935 343.45 271.366 343.114 270.908 343.046C270.511 342.986 270.115 343.115 269.708 343.667L257.877 359.742L257.536 360.206L257.124 359.803L257.474 359.446C257.124 359.803 257.124 359.803 257.124 359.803L257.124 359.802L257.121 359.8L257.111 359.79L257.071 359.751C257.036 359.717 256.984 359.666 256.915 359.599C256.778 359.466 256.577 359.272 256.32 359.025C255.805 358.532 255.067 357.831 254.176 357.002C252.393 355.343 249.997 353.173 247.543 351.124C245.083 349.071 242.585 347.157 240.592 345.995C239.589 345.411 238.757 345.043 238.143 344.923C237.838 344.864 237.627 344.875 237.491 344.917C237.373 344.954 237.294 345.018 237.234 345.135C236.72 346.144 235.706 347.521 234.504 348.993C233.296 350.475 231.871 352.085 230.511 353.572C229.15 355.06 227.851 356.427 226.892 357.422C226.413 357.919 226.018 358.324 225.744 358.604C225.606 358.745 225.499 358.854 225.426 358.928L225.342 359.013L225.32 359.034L225.315 359.04L225.314 359.041L225.313 359.042C225.313 359.042 225.313 359.042 224.958 358.69M307.749 360.202C308.138 360.516 308.138 360.516 308.138 360.516L308.138 360.515L308.14 360.514L308.145 360.507L308.166 360.481L308.249 360.379C308.322 360.289 308.43 360.156 308.568 359.986C308.846 359.646 309.247 359.156 309.743 358.557C310.735 357.359 312.103 355.726 313.609 353.986C316.635 350.489 320.177 346.608 322.351 344.911C322.573 344.738 322.75 344.676 322.887 344.665C323.02 344.654 323.161 344.686 323.322 344.789C323.672 345.012 324.059 345.525 324.446 346.362C325.208 348.012 325.829 350.599 326.288 353.437C326.745 356.262 327.035 359.293 327.149 361.805C327.206 363.06 327.219 364.181 327.188 365.077C327.16 365.898 327.096 366.488 327.012 366.824C326.98 366.839 326.934 366.857 326.871 366.879C326.658 366.951 326.331 367.027 325.883 367.101C324.99 367.25 323.695 367.383 322.043 367.501C318.743 367.735 314.075 367.905 308.49 368.024C297.323 368.26 282.521 368.29 267.746 368.224C252.972 368.159 238.228 367.998 227.177 367.854C221.652 367.781 217.05 367.713 213.829 367.663C212.219 367.638 210.954 367.618 210.092 367.603L209.107 367.587H209.107C209.096 367.547 209.084 367.503 209.072 367.457C208.984 367.126 208.862 366.639 208.73 366.02C208.467 364.78 208.166 363.012 208.016 360.904C207.714 356.685 208.018 351.133 210.413 345.745L210.414 345.744C210.519 345.506 210.64 345.375 210.753 345.302C210.864 345.23 211.007 345.19 211.202 345.198C211.62 345.217 212.204 345.455 212.939 345.944C214.391 346.909 216.162 348.664 217.898 350.61C219.626 352.547 221.29 354.639 222.522 356.25C223.138 357.054 223.646 357.738 223.999 358.219C224.176 358.46 224.314 358.651 224.408 358.781C224.455 358.846 224.491 358.896 224.515 358.929L224.542 358.967L224.549 358.976L224.55 358.979L224.551 358.979C224.551 358.979 224.551 358.979 224.958 358.69M224.958 358.69L224.551 358.979L224.895 359.463L225.313 359.042L224.958 358.69ZM327.07 366.791C327.07 366.791 327.068 366.793 327.065 366.795C327.068 366.792 327.071 366.791 327.07 366.791Z" fill="white" stroke="black"/>
<path d="M130.093 402.842C130.093 402.842 247.814 404.891 248.79 401.842C249.766 398.793 247.814 375.814 243.375 379.278C238.935 382.742 229.08 394.963 229.08 394.963C229.08 394.963 217.42 376.619 215.445 379.668C213.469 382.717 203.248 394.914 203.248 394.914C203.248 394.914 194.588 372.765 190.637 378.131L178.806 394.207C178.806 394.207 160.072 375.839 158.12 379.668C156.169 383.498 146.29 393.45 146.29 393.45C146.29 393.45 133.459 375.399 131.288 380.302C126.409 391.279 130.068 402.866 130.068 402.866L130.093 402.842Z" fill="white"/>
<path d="M168.512 339.2C167.951 339.2 167.463 338.834 167.317 338.273C167.048 337.176 139.655 227.284 76.1835 208.867C75.5249 208.672 75.159 208.014 75.3542 207.355C75.5493 206.721 76.2079 206.33 76.8666 206.526C141.679 225.357 169.414 336.566 169.707 337.688C169.878 338.347 169.463 339.005 168.805 339.152C168.707 339.152 168.609 339.176 168.512 339.176V339.2Z" fill="#261D2A"/>
<path d="M43.3194 186.629L43.6497 185.715L43.557 185.856C43.6497 185.715 43.6497 185.715 43.6496 185.715L43.6485 185.714L43.6436 185.711L43.6229 185.697C43.6044 185.685 43.5765 185.666 43.5395 185.641C43.4656 185.591 43.3557 185.516 43.2131 185.418C42.9277 185.22 42.5116 184.926 41.9911 184.545C40.9498 183.781 39.4918 182.665 37.8282 181.258C34.4978 178.442 30.3589 174.473 27.0889 169.845C23.8151 165.212 21.4462 159.966 21.5741 154.582C21.7013 149.226 24.3027 143.639 31.1678 138.302C38.0608 132.943 44.0855 130.988 49.2607 131.09C54.4368 131.191 58.8344 133.352 62.4699 136.359C69.7623 142.392 73.8957 151.756 74.914 154.313C74.9798 154.479 75.0417 154.62 75.1002 154.727C75.1284 154.779 75.1669 154.843 75.2166 154.901L75.2171 154.901C75.2465 154.936 75.3756 155.086 75.5999 155.105C75.9091 155.131 76.0689 154.905 76.115 154.819C76.1632 154.729 76.1812 154.638 76.1896 154.588C76.2084 154.476 76.2136 154.339 76.2146 154.2C76.2165 153.918 76.1987 153.487 76.1764 152.949C76.1557 152.451 76.1313 151.862 76.1154 151.216C76.048 148.469 76.1208 144.421 77.1732 140.419C78.2253 136.417 80.2436 132.506 84.034 129.962C87.82 127.421 93.4603 126.187 101.878 127.715C110.272 129.238 115.087 132.778 117.653 137.164C120.232 141.57 120.594 146.918 119.895 152.144C119.195 157.366 117.443 162.41 115.859 166.158C115.068 168.029 114.321 169.573 113.772 170.647C113.498 171.184 113.273 171.604 113.117 171.889C113.04 172.031 112.979 172.139 112.938 172.212C112.918 172.248 112.902 172.276 112.892 172.294L112.881 172.314L112.878 172.318L112.877 172.319C112.877 172.319 112.877 172.319 113.241 172.53L112.877 172.319L112.06 173.733L113.528 173.02L113.469 172.898C113.528 173.02 113.528 173.02 113.528 173.02L113.529 173.019L113.534 173.017L113.552 173.008L113.627 172.972C113.694 172.941 113.794 172.894 113.926 172.834C114.188 172.713 114.576 172.538 115.072 172.325C116.065 171.898 117.492 171.314 119.229 170.69C122.704 169.442 127.402 168.037 132.313 167.4C137.23 166.762 142.314 166.9 146.593 168.688C150.846 170.466 154.346 173.889 156.103 179.93L156.104 179.93C157.861 185.95 156.486 190.809 153.437 194.748C150.369 198.713 145.59 201.761 140.533 204.064C135.484 206.363 130.203 207.899 126.178 208.859C124.167 209.339 122.473 209.675 121.283 209.891C120.688 209.999 120.219 210.077 119.899 210.127C119.739 210.153 119.617 210.171 119.535 210.183L119.442 210.197L119.419 210.2L119.414 210.201L119.413 210.201C119.413 210.201 119.413 210.201 119.481 210.696L119.413 210.201L119.327 211.172L119.345 211.117C119.327 211.172 119.327 211.172 119.327 211.172L119.328 211.172L119.332 211.174L119.352 211.18C119.37 211.186 119.398 211.196 119.434 211.208C119.507 211.233 119.615 211.27 119.755 211.32C120.037 211.42 120.448 211.57 120.963 211.771C121.994 212.174 123.442 212.779 125.103 213.587C128.43 215.205 132.59 217.627 135.98 220.853C139.371 224.078 141.952 228.068 142.219 232.829C142.486 237.584 140.451 243.227 134.361 249.775L134.361 249.776C128.121 256.491 122.166 258.366 116.757 257.524C111.308 256.675 106.293 253.052 102.004 248.516C97.7231 243.989 94.2171 238.608 91.7782 234.349C90.5598 232.221 89.6103 230.378 88.9657 229.067C88.6434 228.412 88.3975 227.89 88.2324 227.533C88.1499 227.355 88.0876 227.217 88.0461 227.125C88.0254 227.078 88.0098 227.043 87.9995 227.02L87.9881 226.994L87.9853 226.988L87.9847 226.986C87.9846 226.986 87.9846 226.986 87.9693 226.993C87.9402 227.006 87.8561 227.042 87.6125 227.149L87.9846 226.986L87.027 227.212L87.227 227.202C87.027 227.212 87.027 227.212 87.027 227.213L87.0271 227.214L87.0273 227.218L87.0283 227.238L87.0319 227.319C87.0349 227.392 87.039 227.5 87.0433 227.641C87.0519 227.925 87.0613 228.341 87.0641 228.873C87.0698 229.937 87.0494 231.46 86.9448 233.292C86.7357 236.957 86.1902 241.847 84.8486 246.761C83.5059 251.68 81.3747 256.59 78.0161 260.328C74.6697 264.053 70.0919 266.63 63.7958 266.887C60.6493 267.015 58.138 266.436 56.1391 265.351C54.141 264.266 52.6244 262.659 51.4924 260.682C49.2181 256.71 48.5098 251.268 48.6068 245.713C48.7036 240.171 49.5999 234.588 50.4747 230.383C50.9118 228.282 51.3427 226.529 51.6641 225.301C51.8248 224.688 51.9581 224.206 52.051 223.878C52.0975 223.714 52.1339 223.589 52.1585 223.505L52.1865 223.41L52.1935 223.386L52.1952 223.381L52.1956 223.38C52.1957 223.379 52.1957 223.379 51.7171 223.235L52.1957 223.379L52.5992 222.044L51.4394 222.819L51.4388 222.819L51.4359 222.821L51.4229 222.83L51.3691 222.865C51.3209 222.896 51.2484 222.943 51.1526 223.004C50.9611 223.125 50.6764 223.301 50.307 223.521C49.5682 223.96 48.4911 224.57 47.1433 225.252C44.4462 226.617 40.673 228.263 36.3623 229.398C27.7318 231.671 17.0458 231.872 8.46915 223.797C4.16614 219.746 1.92827 215.16 1.52562 210.639C1.12301 206.118 2.55094 201.619 5.65991 197.73C11.8817 189.946 24.8751 184.58 43.3194 186.629Z" fill="white" stroke="black"/>
<path d="M76.5246 211.16C85.8742 211.16 93.4535 203.58 93.4535 194.231C93.4535 184.881 85.8742 177.302 76.5246 177.302C67.175 177.302 59.5957 184.881 59.5957 194.231C59.5957 203.58 67.175 211.16 76.5246 211.16Z" fill="white" stroke="black" stroke-width="0.2" stroke-miterlimit="10"/>
<path d="M70.11 242.677C59.8648 242.677 55.035 232.115 53.8641 222.43C47.156 224.479 38.7159 223.845 31.7151 220.625C25.7387 217.869 23.0311 213.137 24.1288 207.331C25.9827 197.501 38.6671 186.45 48.8391 185.841C49.4977 185.792 50.1319 185.767 50.7418 185.767C47.5707 179.498 42.4969 167.716 44.9362 160.642C45.7168 158.374 47.2048 156.739 49.3514 155.788C50.571 155.251 51.9858 154.983 53.5958 154.983C59.8892 154.983 68.0366 159.106 73.5494 162.911C78.0622 156.056 87.9659 149.129 99.9673 149.641C102.87 149.763 105.309 151.105 107.041 153.52C110.822 158.813 110.725 168.277 108.993 175.644C110.749 175.327 112.457 175.156 114.14 175.156C120.848 175.156 126.068 177.742 129.239 182.645C131.069 185.475 131.508 188.621 130.556 191.988C128.581 198.842 120.945 205.306 113.725 209.087C118.311 213.161 122.507 219.137 121.775 224.943C121.263 229.187 118.287 232.554 112.945 234.969C108.359 237.042 103.773 238.091 99.3087 238.091C92.7225 238.091 87.7219 235.847 84.4288 233.627C82.2578 238.554 77.989 241.677 72.2566 242.482C71.5004 242.579 70.793 242.628 70.0856 242.628L70.11 242.677ZM56.2303 221.577C57.1572 230.383 61.2797 240.237 70.11 240.237C70.6954 240.237 71.3053 240.189 71.9395 240.116C78.2573 239.237 81.1113 235.481 82.4286 232.188C78.2085 228.724 75.4277 224.162 75.0862 220.113C74.8911 217.869 75.4765 215.917 76.7938 214.527C77.8914 213.356 78.9891 213.112 79.6965 213.112C80.5991 213.112 81.9895 213.502 83.3067 215.332C85.6485 218.576 86.9657 225.333 85.307 231.31C88.3074 233.432 92.9909 235.725 99.3575 235.725C103.48 235.725 107.724 234.749 111.969 232.822C116.482 230.773 118.97 228.041 119.384 224.723C120.019 219.552 115.579 213.844 111.359 210.331C107.846 211.893 104.578 212.746 102.065 212.746C100.065 212.746 98.5281 212.21 97.5524 211.161C96.6986 210.234 96.3083 208.965 96.4059 207.429C96.6011 204.575 98.3574 202.965 101.187 202.965C104.017 202.965 107.895 204.648 111.652 207.502C118.457 204.16 126.361 197.842 128.19 191.427C128.946 188.768 128.605 186.304 127.166 184.084C123.751 178.815 118.189 177.693 114.115 177.693C112.213 177.693 110.237 177.937 108.237 178.376C106.066 185.28 102.577 189.378 98.8208 189.378C97.8939 189.378 96.9669 189.134 96.04 188.646C93.991 187.524 93.8446 185.963 93.9666 185.109C94.4301 181.474 100.528 177.962 106.261 176.352C108.212 169.204 108.407 159.764 105.017 155.032C103.699 153.202 101.992 152.251 99.821 152.154C88.6489 151.641 79.5746 158.105 75.4765 164.423C78.5988 166.814 83.8434 171.4 82.7945 174.595C82.331 176.035 80.843 176.766 78.4037 176.791C78.1354 176.791 77.8427 176.791 77.5255 176.766C73.891 176.547 72.2566 174.888 71.5248 173.546C70.3539 171.375 70.6223 168.399 72.2566 165.131C67.0365 161.496 59.3282 157.52 53.5226 157.52C52.2542 157.52 51.1565 157.715 50.2539 158.105C48.7415 158.764 47.717 159.886 47.156 161.521C44.8142 168.326 50.9857 181.23 53.4494 185.914C60.8162 186.426 63.4019 189.573 63.3287 192.207C63.2799 194.305 61.5724 195.939 59.4502 195.939C58.1329 195.939 54.8398 195.256 52.3517 189.012C52.3517 189.012 52.181 188.743 51.937 188.304C51.0101 188.304 49.9856 188.304 48.9123 188.377C39.838 188.939 28.0805 199.159 26.4461 207.892C25.568 212.624 27.6414 216.21 32.6664 218.503C39.3014 221.577 47.3755 222.089 53.5714 220.04C53.3275 215.82 53.7421 210.892 55.6448 208.868C56.3766 208.063 57.1572 207.916 57.6695 207.916C58.1817 207.916 58.7184 208.087 59.2306 208.404C62.6701 210.551 63.2067 212.941 63.036 214.551C62.7676 217.332 60.2063 219.942 56.1327 221.699L56.2303 221.577ZM79.6965 215.527C79.2575 215.527 78.8428 215.893 78.5745 216.186C77.5255 217.308 77.428 218.82 77.5255 219.894C77.7939 223.016 79.9649 226.699 83.2092 229.626C84.2581 224.675 83.1848 219.308 81.3309 216.747C80.7698 215.966 80.1844 215.527 79.6965 215.527ZM57.7426 210.234C57.7426 210.234 57.6207 210.283 57.4987 210.405C56.5962 211.38 55.8887 214.551 56.0351 218.967C58.7671 217.625 60.5235 215.869 60.6942 214.186C60.865 212.502 59.3282 211.161 58.011 210.356C57.889 210.283 57.7914 210.234 57.7426 210.234ZM101.211 205.331C99.6746 205.331 98.9672 205.989 98.8452 207.551C98.7964 208.404 98.9428 209.039 99.3331 209.453C99.9673 210.136 101.163 210.258 102.065 210.258C103.943 210.258 106.407 209.673 109.115 208.575C106.163 206.55 103.26 205.331 101.211 205.331ZM54.8642 188.402C57.5231 194.573 60.9382 194.012 60.9869 192.061C61.0113 190.622 59.1087 188.987 54.8642 188.402ZM105.431 179.108C100.065 180.913 96.6498 183.792 96.4547 185.328C96.4547 185.499 96.3815 185.938 97.2841 186.426C97.8207 186.719 98.3818 186.865 98.894 186.865C101.211 186.865 103.675 183.889 105.456 179.084L105.431 179.108ZM74.3544 166.497C73.2811 168.839 73.0372 170.936 73.769 172.302C74.4032 173.473 75.7448 174.107 77.7695 174.229C78.0378 174.229 78.2573 174.229 78.5013 174.229C80.0624 174.229 80.5259 173.863 80.5747 173.742C80.843 172.912 79.0379 170.083 74.3788 166.497H74.3544Z" fill="#261D2A"/>
<path d="M87.869 193.913C87.3811 193.913 86.9176 193.621 86.7225 193.133C83.5514 184.888 77.1604 184.717 76.892 184.717C76.2334 184.717 75.6724 184.156 75.6724 183.497C75.6724 182.839 76.209 182.278 76.892 182.278C77.2335 182.278 85.2101 182.4 88.9911 192.255C89.235 192.889 88.9179 193.596 88.2837 193.84C88.1373 193.889 87.9909 193.913 87.8446 193.913H87.869Z" fill="#261D2A"/>
<path d="M152.95 293.073C152.95 293.073 129.776 272.339 101.724 283.926C101.724 283.926 121.849 320.515 152.95 293.073Z" fill="white"/>
<path d="M130.142 304.489C111.872 304.489 101.114 285.316 100.651 284.511C100.48 284.218 100.456 283.852 100.578 283.51C100.7 283.169 100.944 282.925 101.261 282.779C107.066 280.388 113.116 279.168 119.214 279.168C139.021 279.168 153.169 291.609 153.755 292.146C154.023 292.39 154.17 292.707 154.17 293.048C154.17 293.39 154.023 293.731 153.755 293.951C145.852 300.927 137.899 304.464 130.142 304.464V304.489ZM103.529 284.511C106.164 288.633 115.848 302.049 130.142 302.049C136.948 302.049 143.973 299.025 151.047 293.097C147.413 290.267 135.045 281.632 119.214 281.632C113.896 281.632 108.603 282.608 103.505 284.535L103.529 284.511Z" fill="#261D2A"/>
<path d="M121.556 289.413C121.556 289.413 148.681 289.706 152.974 293.072L121.556 289.413Z" fill="white"/>
<path d="M152.949 294.292C152.681 294.292 152.412 294.218 152.193 294.023C149.314 291.755 131.849 290.73 121.531 290.633C120.848 290.633 120.311 290.072 120.335 289.389C120.335 288.73 120.896 288.193 121.555 288.193C124.385 288.218 149.241 288.608 153.705 292.121C154.242 292.535 154.315 293.292 153.9 293.828C153.656 294.145 153.291 294.292 152.949 294.292Z" fill="#261D2A"/>
<path d="M144.729 275.679C144.729 275.679 135.265 247.017 163.634 235.431C163.634 235.431 173.099 274.167 144.729 275.679Z" fill="white"/>
<path d="M144.729 276.899C144.216 276.899 143.729 276.557 143.582 276.069C143.485 275.777 134.118 246.188 163.194 234.308C163.512 234.162 163.902 234.186 164.219 234.357C164.536 234.528 164.756 234.82 164.853 235.162C165.073 236.04 170.025 256.921 161.121 268.898C157.462 273.825 151.974 276.533 144.826 276.923C144.826 276.923 144.778 276.923 144.753 276.923L144.729 276.899ZM162.755 237.138C139.777 247.432 144.314 269.556 145.631 274.386C151.534 273.874 156.072 271.532 159.121 267.434C166.073 258.067 163.682 241.967 162.755 237.138Z" fill="#261D2A"/>
<path d="M154.485 256.167C154.485 256.167 146.558 269.583 144.728 275.681L154.485 256.167Z" fill="white"/>
<path d="M144.728 276.9C144.728 276.9 144.484 276.9 144.387 276.851C143.753 276.656 143.387 275.973 143.558 275.339C145.411 269.167 153.095 256.117 153.437 255.556C153.778 254.97 154.534 254.8 155.12 255.117C155.705 255.458 155.901 256.214 155.559 256.8C155.486 256.922 147.68 270.167 145.924 276.046C145.777 276.583 145.289 276.924 144.753 276.924L144.728 276.9Z" fill="#261D2A"/>
<path d="M237.618 336.761H237.594C236.911 336.761 236.398 336.176 236.398 335.517C238.813 240.823 297.138 179.181 297.723 178.571C298.186 178.083 298.967 178.059 299.455 178.547C299.943 179.01 299.967 179.791 299.479 180.279C298.894 180.889 241.228 241.896 238.838 335.59C238.838 336.249 238.277 336.786 237.618 336.786V336.761Z" fill="#261D2A"/>
<path d="M270.982 162.236L271.313 161.321L271.22 161.463C271.313 161.321 271.313 161.321 271.313 161.321L271.312 161.321L271.307 161.317L271.286 161.304C271.267 161.291 271.24 161.273 271.203 161.248C271.129 161.198 271.019 161.123 270.876 161.024C270.591 160.826 270.175 160.533 269.654 160.151C268.613 159.387 267.155 158.271 265.491 156.865C262.161 154.048 258.022 150.08 254.752 145.451C251.478 140.818 249.109 135.572 249.237 130.189C249.364 124.833 251.966 119.245 258.831 113.908C265.724 108.55 271.749 106.595 276.924 106.696C282.1 106.798 286.497 108.958 290.133 111.966C297.425 117.998 301.559 127.362 302.577 129.92C302.643 130.085 302.705 130.227 302.763 130.334C302.791 130.385 302.83 130.449 302.88 130.507L302.88 130.508C302.91 130.542 303.039 130.693 303.263 130.712C303.572 130.737 303.732 130.511 303.778 130.425C303.826 130.335 303.844 130.244 303.853 130.195C303.871 130.083 303.877 129.945 303.878 129.807C303.88 129.524 303.862 129.093 303.839 128.556C303.819 128.058 303.794 127.468 303.779 126.822C303.711 124.075 303.784 120.028 304.836 116.025C305.888 112.024 307.907 108.112 311.697 105.569C315.483 103.028 321.123 101.794 329.541 103.321C337.935 104.845 342.75 108.385 345.317 112.771C347.895 117.177 348.258 122.524 347.558 127.751C346.858 132.972 345.106 138.016 343.522 141.764C342.731 143.636 341.984 145.179 341.435 146.253C341.161 146.791 340.936 147.21 340.781 147.495C340.703 147.637 340.642 147.746 340.601 147.818C340.581 147.855 340.565 147.882 340.555 147.9L340.544 147.92L340.541 147.925L340.54 147.926C340.54 147.926 340.54 147.926 340.905 148.137L340.54 147.926L339.723 149.339L341.191 148.626L341.132 148.504C341.191 148.626 341.191 148.626 341.192 148.626L341.193 148.626L341.197 148.623L341.215 148.615L341.291 148.579C341.357 148.547 341.458 148.5 341.589 148.44C341.851 148.319 342.239 148.145 342.735 147.931C343.728 147.504 345.155 146.92 346.892 146.297C350.367 145.048 355.065 143.644 359.976 143.007C364.893 142.369 369.977 142.507 374.257 144.295C378.509 146.072 382.009 149.495 383.767 155.536L383.767 155.537C385.524 161.556 384.149 166.415 381.1 170.355C378.032 174.319 373.253 177.368 368.196 179.67C363.147 181.97 357.866 183.505 353.841 184.466C351.83 184.946 350.136 185.282 348.946 185.497C348.351 185.605 347.882 185.683 347.562 185.734C347.402 185.759 347.28 185.778 347.198 185.79L347.105 185.803L347.083 185.807L347.077 185.807L347.076 185.808C347.076 185.808 347.076 185.808 347.145 186.303L347.076 185.808L346.99 186.778L347.008 186.723C346.99 186.778 346.99 186.778 346.99 186.778L346.991 186.779L346.995 186.78L347.016 186.787C347.034 186.793 347.061 186.802 347.097 186.814C347.17 186.839 347.278 186.876 347.419 186.926C347.7 187.026 348.111 187.177 348.626 187.378C349.657 187.78 351.105 188.385 352.766 189.193C356.093 190.812 360.253 193.234 363.643 196.459C367.034 199.685 369.615 203.674 369.882 208.436C370.149 213.191 368.114 218.833 362.024 225.382L362.024 225.382C355.784 232.098 349.829 233.972 344.42 233.13C338.971 232.282 333.956 228.658 329.667 224.123C325.386 219.595 321.88 214.214 319.441 209.955C318.223 207.828 317.273 205.984 316.629 204.674C316.306 204.019 316.061 203.497 315.896 203.14C315.813 202.961 315.751 202.824 315.709 202.731C315.688 202.685 315.673 202.65 315.663 202.627L315.651 202.601L315.648 202.594L315.648 202.593C315.648 202.593 315.648 202.593 315.606 202.611L315.648 202.593L314.69 202.819L314.878 202.809C314.69 202.819 314.69 202.819 314.69 202.819L314.69 202.82L314.69 202.825L314.691 202.845L314.695 202.926C314.698 202.998 314.702 203.106 314.706 203.248C314.715 203.531 314.724 203.948 314.727 204.48C314.733 205.544 314.712 207.066 314.608 208.898C314.399 212.564 313.853 217.453 312.512 222.368C311.169 227.287 309.038 232.197 305.679 235.935C302.333 239.659 297.755 242.237 291.459 242.493C288.312 242.621 285.801 242.043 283.802 240.957C281.804 239.873 280.288 238.265 279.155 236.288C276.881 232.316 276.173 226.874 276.27 221.319C276.367 215.778 277.263 210.194 278.138 205.989C278.575 203.888 279.006 202.135 279.327 200.908C279.488 200.294 279.621 199.813 279.714 199.485C279.761 199.321 279.797 199.195 279.822 199.111L279.85 199.016L279.857 198.993L279.858 198.987L279.859 198.986C279.859 198.986 279.859 198.986 279.38 198.841L279.859 198.986L280.262 197.651L279.102 198.425L279.102 198.426L279.099 198.428L279.086 198.436L279.032 198.471C278.984 198.503 278.912 198.549 278.816 198.61C278.624 198.731 278.339 198.908 277.97 199.127C277.231 199.566 276.154 200.177 274.806 200.859C272.109 202.223 268.336 203.87 264.025 205.005C255.395 207.277 244.709 207.479 236.132 199.404C231.829 195.353 229.591 190.766 229.189 186.245C228.786 181.725 230.214 177.226 233.323 173.336C239.545 165.552 252.538 160.186 270.982 162.236Z" fill="white" stroke="black"/>
<path d="M304.187 186.767C313.537 186.767 321.116 179.188 321.116 169.838C321.116 160.489 313.537 152.909 304.187 152.909C294.838 152.909 287.258 160.489 287.258 169.838C287.258 179.188 294.838 186.767 304.187 186.767Z" fill="white" stroke="black" stroke-width="0.2" stroke-miterlimit="10"/>
<path d="M297.797 218.283C287.552 218.283 282.722 207.721 281.551 198.037C274.843 200.086 266.403 199.452 259.402 196.232C253.426 193.475 250.718 188.743 251.816 182.938C253.67 173.107 266.379 162.057 276.526 161.447C277.185 161.398 277.819 161.374 278.429 161.374C275.258 155.105 270.184 143.323 272.623 136.249C273.404 133.98 274.892 132.346 277.038 131.395C278.258 130.858 279.673 130.59 281.283 130.59C287.576 130.59 295.724 134.712 301.236 138.517C305.749 131.663 315.604 124.76 327.654 125.248C330.557 125.37 332.996 126.711 334.728 129.126C338.509 134.419 338.412 143.884 336.68 151.251C338.436 150.934 340.144 150.763 341.827 150.763C348.535 150.763 353.755 153.349 356.926 158.252C358.756 161.081 359.195 164.228 358.243 167.594C356.268 174.449 348.632 180.913 341.412 184.694C345.998 188.768 350.194 194.744 349.462 200.549C348.95 204.794 345.974 208.16 340.632 210.575C336.046 212.649 331.46 213.697 326.996 213.697C320.41 213.697 315.409 211.453 312.116 209.233C309.945 214.161 305.676 217.283 299.944 218.088C299.187 218.186 298.48 218.235 297.773 218.235L297.797 218.283ZM283.917 197.183C284.844 205.989 288.967 215.844 297.797 215.844C298.382 215.844 298.992 215.795 299.627 215.722C305.944 214.844 308.798 211.087 310.116 207.794C305.896 204.33 303.115 199.769 302.773 195.72C302.578 193.475 303.164 191.548 304.481 190.134C305.578 188.963 306.676 188.719 307.384 188.719C308.286 188.719 309.677 189.109 310.994 190.939C313.335 194.207 314.653 200.94 312.994 206.916C315.97 209.038 320.678 211.331 327.02 211.331C331.143 211.331 335.387 210.356 339.631 208.428C344.144 206.379 346.632 203.647 347.047 200.33C347.681 195.159 343.242 189.451 339.022 185.938C335.509 187.499 332.24 188.353 329.728 188.353C327.728 188.353 326.191 187.816 325.215 186.767C324.361 185.84 323.971 184.572 324.069 183.035C324.264 180.181 326.02 178.571 328.85 178.571C331.679 178.571 335.558 180.254 339.314 183.108C346.12 179.766 354.023 173.449 355.853 167.033C356.609 164.374 356.268 161.911 354.828 159.691C351.413 154.422 345.852 153.3 341.778 153.3C339.875 153.3 337.899 153.544 335.899 153.983C333.728 160.886 330.24 164.984 326.483 164.984C325.557 164.984 324.63 164.74 323.703 164.252C321.654 163.13 321.507 161.569 321.629 160.715C322.093 157.081 328.191 153.568 333.923 151.958C335.875 144.811 336.07 135.371 332.679 130.638C331.362 128.809 329.655 127.858 327.484 127.76C316.336 127.272 307.237 133.712 303.139 140.03C306.261 142.42 311.506 147.006 310.457 150.202C309.994 151.641 308.506 152.373 306.066 152.397C305.798 152.397 305.505 152.397 305.188 152.373C301.554 152.153 299.919 150.495 299.187 149.153C298.017 146.982 298.285 144.006 299.919 140.737C294.699 137.103 286.991 133.127 281.185 133.127C279.917 133.127 278.819 133.322 277.917 133.712C276.404 134.371 275.38 135.493 274.819 137.127C272.477 143.933 278.648 156.837 281.112 161.52C288.479 162.033 291.064 165.179 290.991 167.814C290.943 169.912 289.235 171.546 287.113 171.546C285.796 171.546 282.502 170.863 280.014 164.618C280.014 164.618 279.844 164.35 279.6 163.911C278.673 163.911 277.648 163.911 276.575 163.984C267.501 164.545 255.743 174.766 254.109 183.499C253.231 188.231 255.304 191.817 260.329 194.11C266.964 197.183 275.038 197.695 281.234 195.646C280.99 191.426 281.405 186.499 283.307 184.474C284.039 183.669 284.82 183.523 285.332 183.523C285.844 183.523 286.381 183.694 286.893 184.011C290.333 186.157 290.869 188.548 290.699 190.158C290.43 192.939 287.869 195.549 283.795 197.305L283.917 197.183ZM307.384 191.134C306.944 191.134 306.53 191.5 306.261 191.792C305.213 192.914 305.115 194.427 305.213 195.5C305.481 198.622 307.652 202.306 310.896 205.233C311.945 200.281 310.872 194.915 309.018 192.353C308.457 191.573 307.871 191.134 307.384 191.134ZM285.43 185.84C285.43 185.84 285.308 185.889 285.186 186.011C284.283 186.987 283.576 190.158 283.722 194.573C286.454 193.231 288.21 191.475 288.381 189.792C288.552 188.109 287.015 186.767 285.698 185.962C285.576 185.889 285.478 185.84 285.43 185.84ZM328.874 180.937C327.337 180.937 326.63 181.596 326.508 183.157C326.459 184.011 326.605 184.645 326.996 185.06C327.63 185.743 328.825 185.865 329.728 185.865C331.606 185.865 334.07 185.279 336.777 184.182C333.826 182.157 330.923 180.937 328.874 180.937ZM282.527 164.008C285.186 170.18 288.601 169.619 288.65 167.667C288.674 166.228 286.771 164.594 282.527 164.008ZM333.118 154.715C327.752 156.52 324.337 159.398 324.142 160.935C324.142 161.106 324.069 161.545 324.971 162.033C325.508 162.325 326.069 162.472 326.581 162.472C328.898 162.472 331.362 159.496 333.143 154.69L333.118 154.715ZM302.017 142.103C300.944 144.445 300.7 146.543 301.432 147.909C302.066 149.08 303.407 149.714 305.432 149.836C305.7 149.836 305.92 149.836 306.164 149.836C307.725 149.836 308.189 149.47 308.237 149.348C308.506 148.519 306.701 145.689 302.041 142.103H302.017Z" fill="#261D2A"/>
<path d="M315.555 169.52C315.067 169.52 314.604 169.228 314.409 168.74C311.237 160.495 304.846 160.324 304.578 160.324C303.919 160.324 303.358 159.763 303.358 159.104C303.358 158.446 303.895 157.885 304.578 157.885C304.92 157.885 312.896 158.007 316.677 167.862C316.921 168.496 316.604 169.203 315.97 169.447C315.823 169.496 315.677 169.52 315.531 169.52H315.555Z" fill="#261D2A"/>
<path d="M245.156 272.118C245.156 272.118 254.621 243.456 226.251 231.87C226.251 231.87 216.787 270.582 245.156 272.118Z" fill="white"/>
<path d="M245.156 273.338C245.156 273.338 245.107 273.338 245.082 273.338C237.935 272.948 232.447 270.265 228.788 265.313C219.884 253.311 224.836 232.455 225.056 231.577C225.129 231.236 225.373 230.943 225.69 230.772C226.007 230.601 226.373 230.601 226.714 230.723C255.791 242.603 246.424 272.192 246.326 272.485C246.156 272.997 245.692 273.314 245.18 273.314L245.156 273.338ZM227.129 233.577C226.202 238.407 223.787 254.507 230.764 263.874C233.813 267.972 238.35 270.314 244.253 270.826C245.57 265.996 250.107 243.847 227.129 233.577Z" fill="#261D2A"/>
<path d="M235.399 252.604C235.399 252.604 243.327 266.02 245.157 272.118L235.399 252.604Z" fill="white"/>
<path d="M245.156 273.338C244.62 273.338 244.156 272.997 243.986 272.46C242.229 266.581 234.423 253.36 234.35 253.214C234.009 252.629 234.204 251.897 234.789 251.531C235.375 251.189 236.106 251.384 236.472 251.97C236.79 252.531 244.498 265.581 246.352 271.753C246.547 272.387 246.181 273.07 245.522 273.265C245.4 273.29 245.278 273.314 245.181 273.314L245.156 273.338Z" fill="#261D2A"/>
<path d="M240.399 304.586C240.399 304.586 256.328 268.63 288.771 282.534C288.771 282.534 269.037 323.71 240.399 304.586Z" fill="white"/>
<path d="M255.572 310.855C250.303 310.855 244.961 309.075 239.716 305.586C239.229 305.269 239.033 304.611 239.277 304.074C239.399 303.806 251.059 278.095 274.282 278.095C279.111 278.095 284.137 279.193 289.235 281.388C289.527 281.51 289.771 281.779 289.893 282.071C290.015 282.388 289.991 282.73 289.845 283.023C289.308 284.169 276.282 310.831 255.548 310.831L255.572 310.855ZM241.961 304.147C246.498 307.001 251.059 308.44 255.572 308.44C272.428 308.44 284.332 288.243 287.064 283.169C282.697 281.437 278.404 280.559 274.282 280.559C255.06 280.559 244.229 299.659 241.961 304.147Z" fill="#261D2A"/>
<path d="M242.424 305.44C242.034 305.44 241.643 305.245 241.424 304.903C241.033 304.342 241.18 303.586 241.741 303.22C255.352 293.951 274.135 287.999 274.33 287.95C274.964 287.755 275.647 288.096 275.867 288.755C276.062 289.389 275.721 290.072 275.062 290.292C274.867 290.341 256.426 296.195 243.131 305.269C242.912 305.416 242.692 305.489 242.448 305.489L242.424 305.44Z" fill="#261D2A"/>
<path d="M196.979 338.615C196.979 338.615 196.881 338.615 196.832 338.615C196.174 338.542 195.686 337.932 195.759 337.249C207.785 235.846 177.391 80.4124 177.074 78.8512C176.952 78.1926 177.367 77.5584 178.025 77.412C178.684 77.2656 179.318 77.7047 179.465 78.3633C179.782 79.9245 210.249 235.748 198.174 337.517C198.101 338.127 197.564 338.59 196.954 338.59L196.979 338.615Z" fill="#261D2A"/>
<path d="M144.941 60.5899L145.272 59.6754L145.173 59.8248C145.272 59.6754 145.272 59.6754 145.272 59.6753L145.271 59.6746L145.266 59.6713L145.245 59.6576C145.226 59.6452 145.199 59.6265 145.162 59.6016C145.088 59.5517 144.978 59.4769 144.835 59.378C144.55 59.1804 144.134 58.8868 143.613 58.505C142.572 57.7413 141.114 56.6253 139.45 55.2186C136.12 52.4023 131.981 48.4336 128.711 43.8055C125.437 39.172 123.068 33.926 123.196 28.5426C123.323 23.1869 125.925 17.5991 132.79 12.2623C139.683 6.9037 145.708 4.94858 150.883 5.0502C156.059 5.15185 160.456 7.31229 164.092 10.3196C171.384 16.352 175.518 25.7161 176.536 28.2739C176.602 28.4391 176.664 28.5809 176.722 28.6876C176.75 28.7391 176.789 28.803 176.839 28.8611L176.839 28.8617C176.869 28.896 176.998 29.0469 177.222 29.0655C177.531 29.0912 177.691 28.8651 177.737 28.779C177.785 28.689 177.803 28.5983 177.812 28.5485C177.83 28.4369 177.836 28.2991 177.837 28.1609C177.839 27.8784 177.821 27.447 177.798 26.9099C177.778 26.4115 177.753 25.8221 177.738 25.1762C177.67 22.429 177.743 18.3817 178.795 14.3791C179.847 10.3777 181.866 6.46648 185.656 3.92266C189.442 1.3817 195.082 0.147511 203.5 1.67523C211.894 3.19862 216.709 6.73885 219.275 11.1249C221.854 15.5306 222.217 20.878 221.517 26.1047C220.817 31.3263 219.065 36.3705 217.481 40.118C216.69 41.9896 215.943 43.533 215.394 44.6075C215.12 45.1446 214.895 45.5643 214.74 45.849C214.662 45.9913 214.601 46.0998 214.56 46.1724C214.54 46.2087 214.524 46.236 214.514 46.254L214.503 46.274L214.5 46.2787L214.499 46.2798C214.499 46.2799 214.499 46.2799 214.864 46.4906L214.499 46.2799L213.682 47.693L215.15 46.9801L214.932 46.5303C215.15 46.9801 215.15 46.9801 215.151 46.98L215.152 46.9795L215.156 46.9774L215.174 46.9686L215.25 46.9328C215.316 46.9012 215.416 46.8543 215.548 46.7939C215.81 46.6733 216.198 46.4989 216.694 46.2853C217.687 45.8581 219.114 45.2744 220.851 44.6507C224.326 43.4021 229.024 41.9979 233.935 41.3608C238.852 40.7228 243.936 40.8606 248.216 42.6489C252.468 44.426 255.968 47.8494 257.726 53.8903L257.726 53.8908C259.483 59.91 258.108 64.7692 255.059 68.7087C251.991 72.673 247.212 75.7216 242.155 78.0243C237.106 80.3235 231.825 81.859 227.8 82.8198C225.789 83.2999 224.095 83.6357 222.905 83.8514C222.31 83.9593 221.841 84.037 221.521 84.0877C221.361 84.1131 221.239 84.1317 221.157 84.1439L221.064 84.1574L221.042 84.1607L221.036 84.1615L221.035 84.1616C221.035 84.1617 221.035 84.1617 221.039 84.1924L221.035 84.1617L220.949 85.1323L220.967 85.077C220.949 85.1323 220.949 85.1323 220.949 85.1323L220.95 85.1327L220.954 85.1342L220.974 85.1408C220.984 85.1441 220.996 85.1482 221.011 85.1532C221.024 85.1575 221.039 85.1626 221.056 85.1683C221.129 85.193 221.237 85.2303 221.378 85.2803C221.659 85.3802 222.07 85.5307 222.585 85.7319C223.616 86.1345 225.064 86.7394 226.725 87.5474C230.052 89.1659 234.212 91.5878 237.602 94.813C240.993 98.0387 243.574 102.028 243.841 106.79C244.108 111.545 242.073 117.187 235.983 123.736L235.983 123.736C229.743 130.451 223.788 132.326 218.379 131.484C212.93 130.636 207.915 127.012 203.626 122.477C199.345 117.949 195.839 112.568 193.4 108.309C192.182 106.182 191.232 104.338 190.588 103.028C190.265 102.373 190.02 101.851 189.855 101.494C189.772 101.315 189.71 101.177 189.668 101.085C189.647 101.039 189.632 101.004 189.622 100.981L189.61 100.955L189.607 100.948L189.607 100.947C189.607 100.947 189.607 100.947 189.148 101.147L189.607 100.947L188.649 101.173L188.849 101.162C188.649 101.173 188.649 101.173 188.649 101.173L188.649 101.174L188.649 101.179L188.65 101.199L188.654 101.28C188.657 101.352 188.661 101.46 188.665 101.602C188.674 101.885 188.683 102.302 188.686 102.834C188.692 103.898 188.671 105.42 188.567 107.252C188.358 110.918 187.812 115.807 186.471 120.722C185.128 125.641 182.997 130.551 179.638 134.289C176.292 138.013 171.714 140.591 165.418 140.847C162.271 140.975 159.76 140.396 157.761 139.311C155.763 138.227 154.246 136.619 153.114 134.642C150.84 130.67 150.132 125.228 150.229 119.673C150.326 114.132 151.222 108.548 152.097 104.343C152.534 102.242 152.965 100.489 153.286 99.2619C153.447 98.6484 153.58 98.1666 153.673 97.8387C153.72 97.6748 153.756 97.5494 153.781 97.4653L153.809 97.3705L153.816 97.3469L153.817 97.3412L153.818 97.3399C153.818 97.3397 153.818 97.3397 153.339 97.195L153.818 97.3397L154.221 96.0046L153.061 96.7792L153.061 96.7796L153.058 96.7816L153.045 96.7902L152.991 96.8254C152.943 96.8567 152.87 96.9035 152.775 96.9641C152.583 97.0853 152.298 97.2619 151.929 97.4813C151.19 97.9204 150.113 98.5307 148.765 99.2126C146.068 100.577 142.295 102.224 137.984 103.359C129.354 105.631 118.668 105.833 110.091 97.7579C105.788 93.7066 103.55 89.1201 103.148 84.5992C102.745 80.0788 104.173 75.5796 107.282 71.69C113.504 63.906 126.497 58.5405 144.941 60.5899Z" fill="white" stroke="black"/>
<path d="M178.171 85.1449C187.521 85.1449 195.1 77.5656 195.1 68.216C195.1 58.8664 187.521 51.2871 178.171 51.2871C168.822 51.2871 161.242 58.8664 161.242 68.216C161.242 77.5656 168.822 85.1449 178.171 85.1449Z" fill="white" stroke="black" stroke-width="0.2" stroke-miterlimit="10"/>
<path d="M171.756 116.637C161.51 116.637 156.68 106.075 155.51 96.3905C148.801 98.4395 140.361 97.8053 133.361 94.5854C127.384 91.8289 124.677 87.0967 125.774 81.2911C127.628 71.4606 140.337 60.4105 150.485 59.8006C151.143 59.7518 151.777 59.7275 152.387 59.7275C149.216 53.4584 144.142 41.6765 146.582 34.6024C147.362 32.3339 148.85 30.6995 150.997 29.7482C152.217 29.2115 153.631 28.9432 155.241 28.9432C161.535 28.9432 169.682 33.0657 175.195 36.871C179.708 30.0165 189.587 23.1132 201.613 23.6011C204.516 23.7231 206.955 25.0647 208.687 27.4796C212.468 32.7729 212.37 42.2375 210.638 49.6043C212.395 49.2872 214.102 49.1164 215.785 49.1164C222.493 49.1164 227.714 51.7021 230.885 56.6051C232.714 59.4347 233.153 62.5815 232.202 65.9477C230.226 72.8022 222.591 79.2664 215.371 83.0474C219.957 87.121 224.152 93.0974 223.42 98.903C222.908 103.147 219.932 106.514 214.59 108.929C210.004 111.002 205.418 112.051 200.954 112.051C194.368 112.051 189.367 109.807 186.074 107.587C183.903 112.514 179.635 115.637 173.902 116.442C173.146 116.539 172.439 116.588 171.731 116.588L171.756 116.637ZM157.876 95.5367C158.803 104.343 162.925 114.198 171.756 114.198C172.341 114.198 172.951 114.149 173.585 114.076C179.903 113.197 182.757 109.441 184.074 106.148C179.854 102.684 177.073 98.1224 176.732 94.0731C176.537 91.8289 177.122 89.8775 178.439 88.4871C179.537 87.3162 180.635 87.0723 181.342 87.0723C182.245 87.0723 183.635 87.4626 184.952 89.2921C187.294 92.5607 188.611 99.2933 186.928 105.27C189.904 107.392 194.612 109.685 200.954 109.685C205.077 109.685 209.321 108.709 213.565 106.782C218.078 104.733 220.566 102.001 220.981 98.6834C221.615 93.5121 217.176 87.8041 212.956 84.2914C206.613 87.121 201.369 87.487 199.149 85.1208C198.295 84.1939 197.905 82.9254 198.003 81.3886C198.198 78.5346 199.954 76.9247 202.784 76.9247C205.613 76.9247 209.492 78.6078 213.248 81.4618C220.054 78.12 227.958 71.8021 229.787 65.3867C230.543 62.7278 230.202 60.2641 228.762 58.0443C225.347 52.7754 219.786 51.6533 215.712 51.6533C213.809 51.6533 211.834 51.8972 209.833 52.3363C207.662 59.2396 204.174 63.3377 200.442 63.3377C199.515 63.3377 198.588 63.0937 197.661 62.6059C195.612 61.4838 195.466 59.8982 195.588 59.0688C196.051 55.4342 202.149 51.9216 207.882 50.3117C209.833 43.1644 210.028 33.7243 206.638 28.992C205.321 27.1625 203.613 26.2112 201.442 26.1136C190.343 25.6257 181.196 32.0655 177.098 38.3834C180.22 40.7739 185.464 45.3598 184.416 48.5554C183.952 49.9946 182.464 50.7264 180.025 50.7507C179.756 50.7507 179.464 50.7507 179.147 50.7264C175.512 50.5068 173.878 48.8481 173.146 47.5064C171.975 45.3355 172.243 42.3595 173.878 39.0908C168.658 35.4562 160.949 31.4801 155.144 31.4801C153.875 31.4801 152.778 31.6752 151.875 32.0655C150.363 32.7241 149.338 33.8462 148.777 35.4806C146.435 42.2863 152.607 55.1903 155.046 59.8738C162.413 60.3861 164.999 63.5572 164.925 66.1673C164.877 68.2651 163.169 69.8994 161.047 69.8994C159.73 69.8994 156.437 69.2164 153.948 62.9718C153.948 62.9718 153.778 62.7034 153.534 62.2644C152.607 62.2644 151.582 62.2643 150.509 62.3375C141.435 62.8986 129.677 73.1193 128.043 81.8521C127.165 86.5844 129.238 90.1702 134.263 92.4632C140.898 95.5367 148.972 96.049 155.168 93.9999C154.924 89.7799 155.339 84.8525 157.242 82.8278C157.973 82.0229 158.754 81.8765 159.266 81.8765C159.778 81.8765 160.315 82.0473 160.827 82.3644C164.267 84.511 164.803 86.9015 164.633 88.5115C164.364 91.2923 161.803 93.9024 157.729 95.6587L157.876 95.5367ZM181.342 89.4872C180.903 89.4872 180.488 89.8531 180.22 90.1458C179.171 91.2679 179.073 92.7803 179.171 93.8536C179.439 96.9759 181.61 100.659 184.855 103.586C185.904 98.6347 184.83 93.2681 182.976 90.7068C182.415 89.9263 181.83 89.4872 181.342 89.4872ZM159.388 84.1939C159.388 84.1939 159.266 84.2426 159.144 84.3646C158.242 85.3403 157.534 88.5115 157.681 92.9266C160.413 91.585 162.169 89.8287 162.34 88.1456C162.51 86.4624 160.974 85.1208 159.656 84.3158C159.535 84.2427 159.437 84.1939 159.388 84.1939ZM202.832 79.2908C201.296 79.2908 200.588 79.9494 200.466 81.5106C200.418 82.3644 200.564 82.9986 200.954 83.4133C201.588 84.0963 202.784 84.2183 203.686 84.2183C205.565 84.2183 208.028 83.6328 210.736 82.5351C207.784 80.5105 204.882 79.2908 202.832 79.2908ZM156.51 62.3863C159.169 68.5578 162.584 67.9968 162.632 66.0453C162.657 64.6061 160.754 62.9718 156.51 62.3863ZM207.077 53.0925C201.71 54.8976 198.295 57.776 198.1 59.3128C198.1 59.4835 198.027 59.9226 198.93 60.4105C199.491 60.7032 200.003 60.8495 200.54 60.8495C202.857 60.8495 205.321 57.8736 207.101 53.0681L207.077 53.0925ZM175.976 40.4812C174.902 42.8229 174.658 44.9208 175.39 46.2624C176.024 47.4333 177.366 48.0675 179.391 48.1895C179.659 48.1895 179.854 48.1895 180.122 48.1895C181.684 48.1895 182.147 47.8236 182.196 47.7016C182.464 46.8722 180.659 44.067 176 40.4568L175.976 40.4812Z" fill="#261D2A"/>
<path d="M189.514 67.8739C189.026 67.8739 188.563 67.5811 188.368 67.0933C185.196 58.8484 178.805 58.6776 178.537 58.6776C177.878 58.6776 177.317 58.1166 177.317 57.4579C177.317 56.7993 177.854 56.2383 178.537 56.2383C178.879 56.2383 186.855 56.3603 190.636 66.2151C190.88 66.8493 190.563 67.5567 189.929 67.8007C189.782 67.8495 189.636 67.8739 189.49 67.8739H189.514Z" fill="#261D2A"/>
<path d="M194.125 180.547C194.125 180.547 184.075 150.055 146.851 151.885C146.851 151.885 159.974 199.159 194.125 180.547Z" fill="white"/>
<path d="M178.951 186.108C155.363 186.108 146.069 153.592 145.679 152.226C145.582 151.86 145.655 151.494 145.874 151.177C146.094 150.884 146.435 150.689 146.801 150.665C167.023 149.664 179.317 158.226 185.952 165.349C192.758 172.643 195.197 179.863 195.295 180.18C195.49 180.741 195.246 181.351 194.71 181.644C189.245 184.62 183.952 186.132 178.951 186.132V186.108ZM148.509 153.055C150.607 159.373 159.949 183.669 178.951 183.669C183.245 183.669 187.831 182.425 192.587 179.985C190.514 175.009 179.342 152.299 148.484 153.055H148.509Z" fill="#261D2A"/>
<path d="M198.076 235.431C198.076 235.431 202.954 196.402 238.032 200.354C238.032 200.354 231.007 245.481 198.076 235.431Z" fill="white"/>
<path d="M207.223 238.114C204.223 238.114 201.003 237.602 197.71 236.602C197.149 236.431 196.783 235.87 196.856 235.285C196.905 234.919 201.783 198.866 233.129 198.866C234.739 198.866 236.446 198.963 238.129 199.158C238.471 199.207 238.764 199.378 238.959 199.622C239.154 199.89 239.251 200.232 239.203 200.549C239.154 200.915 233.056 238.114 207.199 238.114H207.223ZM199.466 234.553C202.174 235.285 204.784 235.675 207.247 235.675C228.421 235.675 235.3 207.794 236.593 201.451C222.64 200.281 212.126 205.989 205.223 218.283C201.393 225.088 199.905 232.016 199.466 234.553Z" fill="#261D2A"/>
<path d="M192.905 181.157C192.612 181.157 192.319 181.059 192.1 180.839C186.538 175.863 166.145 167.74 165.926 167.643C165.292 167.399 164.999 166.691 165.243 166.057C165.487 165.423 166.194 165.13 166.828 165.374C167.682 165.716 187.831 173.741 193.71 179.01C194.222 179.449 194.246 180.23 193.807 180.742C193.563 181.01 193.222 181.157 192.905 181.157Z" fill="#261D2A"/>
<path d="M199.906 235.749C199.638 235.749 199.369 235.651 199.15 235.48C198.638 235.066 198.54 234.285 198.979 233.773C209.346 220.966 225.617 209.867 225.763 209.746C226.324 209.355 227.08 209.502 227.446 210.063C227.836 210.624 227.69 211.38 227.129 211.746C226.958 211.843 211.005 222.772 200.857 235.285C200.613 235.578 200.272 235.749 199.906 235.749Z" fill="#261D2A"/>
</svg>
