<svg width="369" height="426" viewBox="0 0 369 426" fill="none" xmlns="http://www.w3.org/2000/svg">
<g clip-path="url(#clip0_1718_8016)">
<path d="M102.899 197.38C94.4395 198.386 86.001 199.562 77.584 200.92C55.4813 204.482 33.582 209.262 12.0254 215.283C19.0289 219.23 26.2037 222.855 33.5391 226.138C42.7486 230.266 52.2044 233.849 61.8315 236.876C64.348 233.389 67.0038 229.999 69.7988 226.716C79.3938 215.454 90.5843 205.572 102.899 197.38Z" fill="white"/>
<path d="M107.9 246.939C107.622 246.907 107.344 246.865 107.065 246.833C107.033 246.897 107.001 246.972 106.979 247.036L107.076 246.833C107.354 246.865 107.633 246.907 107.911 246.939H107.9Z" fill="white"/>
<path d="M63.6416 237.507C63.6416 237.507 63.6737 237.464 63.6844 237.443C63.6844 237.443 63.6523 237.486 63.6416 237.507Z" fill="white"/>
<path d="M137.96 78.0923C137.863 77.8677 137.778 77.6431 137.681 77.4185C137.767 77.6431 137.863 77.8677 137.96 78.0923Z" fill="white"/>
<path d="M61.8314 236.865C61.8314 236.865 61.8103 236.897 61.7998 236.907C61.8103 236.907 61.8209 236.876 61.8314 236.865Z" fill="white"/>
<path d="M162.022 76.1673C162.022 76.1673 162.108 76.1459 162.151 76.1353C162.44 76.0283 162.74 75.9214 163.029 75.8037C162.74 75.9107 162.451 76.0283 162.151 76.1353C162.108 76.1459 162.065 76.1566 162.022 76.1673Z" fill="white"/>
<path d="M83.078 114.722C82.7032 114.454 82.1892 114.379 81.6645 114.711C81.3968 114.882 81.129 115.053 80.8613 115.214C81.129 115.042 81.3968 114.871 81.6645 114.711C82.1892 114.379 82.6925 114.454 83.078 114.722Z" fill="white"/>
<path d="M7.13177 214.599C7.13177 214.599 7.12106 214.663 7.11035 214.695C7.11035 214.663 7.12106 214.631 7.13177 214.599C7.15319 214.449 7.19602 214.299 7.26027 214.171C7.19602 214.31 7.15319 214.449 7.13177 214.599Z" fill="white"/>
<path d="M128.622 250.404C128.622 250.404 128.622 250.33 128.643 250.287V250.319C128.643 250.319 128.643 250.383 128.643 250.404H128.633H128.622Z" fill="white"/>
<path d="M137.264 78.8088C137.596 78.7875 137.917 78.7768 138.249 78.7554C137.928 78.7661 137.596 78.7875 137.264 78.8088Z" fill="white"/>
<path d="M108.982 247.078C115.065 247.816 121.18 248.34 127.305 248.65C128.269 248.704 128.719 249.538 128.633 250.287C130.817 238.886 131.471 227.208 130.314 215.711C128.633 217.443 127.005 219.229 125.442 221.069C118.759 228.919 113.234 237.71 108.982 247.089V247.078Z" fill="white"/>
<path d="M10.0127 214.128C10.0555 213.925 10.0877 213.711 10.1305 213.508C10.0877 213.711 10.0448 213.925 10.0127 214.128Z" fill="white"/>
<path d="M166.006 74.4991C166.98 74.0285 167.944 73.5152 168.876 72.9697C167.944 73.5152 166.991 74.0285 166.017 74.4991H166.006Z" fill="white"/>
<path d="M365.52 214.962C365.809 215.037 366.087 215.112 366.376 215.198C366.087 215.123 365.809 215.048 365.52 214.962C365.541 215.155 365.573 215.347 365.594 215.54C365.573 215.347 365.552 215.155 365.52 214.962Z" fill="white"/>
<path d="M287.881 201.958C287.603 201.776 287.474 201.519 287.464 201.263C270.019 198.546 252.468 196.471 234.863 195.07C234.863 195.113 234.863 195.156 234.852 195.199C234.231 199.113 233.749 203.049 233.396 206.984C233.46 207.006 233.524 207.048 233.588 207.08C236.865 209.23 239.971 211.636 242.851 214.289C253.035 223.689 260.403 236.084 263.669 249.549C264.333 249.517 264.997 249.474 265.65 249.431C283.384 248.244 300.903 244.544 317.716 238.833C318.412 238.598 319.108 238.352 319.804 238.106C318.358 235.197 316.773 232.363 315.039 229.614C308.067 218.609 298.751 209.123 287.881 201.947V201.958Z" fill="white"/>
<path d="M222.13 417.07V417.091C222.13 417.091 222.13 417.08 222.14 417.07H222.13Z" fill="white"/>
<path d="M242.755 411.712C242.295 411.862 241.845 412.001 241.385 412.14C241.845 412.001 242.295 411.851 242.755 411.712Z" fill="white"/>
<path d="M148.294 193.616C141.858 193.915 135.433 194.322 129.018 194.814C130.346 199.22 131.395 203.712 132.156 208.257C135.497 228.448 133.141 249.271 126.673 268.628C123.353 278.574 118.973 288.103 113.651 297.14C108.254 306.305 102.15 315.054 96.7421 324.219C86.6224 341.363 78.3124 362.303 85.348 382.152C91.3877 399.188 106.937 411.338 123.567 417.22C133.441 420.706 143.85 422.353 154.28 422.973C165.096 423.615 175.997 423.273 186.791 422.385C198.025 421.465 209.183 419.818 220.213 417.487C220.856 417.348 221.488 417.209 222.13 417.081C223.876 414.557 225.45 411.926 226.831 409.199C231.693 399.584 234.145 388.804 233.942 378.034C233.92 376.837 235.773 376.847 235.794 378.034C235.848 381.157 235.698 384.291 235.323 387.403C234.06 397.755 230.451 407.766 224.754 416.503C229.873 415.359 234.991 414.086 240.024 412.578C240.046 412.461 240.099 412.343 240.174 412.225C243.333 407.755 245.936 402.9 247.885 397.787C251.343 388.729 252.853 378.976 252.393 369.297C251.922 359.608 249.427 350.025 244.918 341.437C244.361 340.389 245.957 339.448 246.514 340.507C249.137 345.491 251.119 350.806 252.414 356.282C254.706 365.96 254.909 376.077 253.132 385.852C251.461 395.05 247.959 403.937 242.766 411.723C245.314 410.91 247.842 410.022 250.326 409.06C258.55 405.873 266.71 401.22 271.754 393.766C276.969 386.055 278.201 376.494 277.119 367.404C275.931 357.437 271.765 348.164 266.935 339.47C261.87 330.358 256.066 321.663 251.279 312.401C242.005 294.466 235.634 275.056 232.4 255.142C229.166 235.197 229.037 214.845 232.132 194.878C227.72 194.546 223.297 194.247 218.875 194.001C195.38 192.664 171.821 192.525 148.315 193.648L148.294 193.616Z" fill="white"/>
<path d="M320.394 239.314C320.447 239.421 320.501 239.507 320.576 239.571C320.511 239.507 320.447 239.421 320.394 239.314Z" fill="white"/>
<path d="M290.945 201.808C290.773 201.69 290.591 201.562 290.409 201.444C290.581 201.562 290.763 201.69 290.934 201.808H290.945Z" fill="white"/>
<path d="M235.259 101.139C219.721 112.625 201.976 121.213 183.236 126.004C162.74 131.234 141.183 131.929 120.355 128.411C107.569 126.25 94.9431 122.475 83.0565 117.117C75.6996 121.748 68.6533 126.849 61.9818 132.41C49.4419 142.881 38.1442 154.965 29.1061 168.601C20.175 182.087 13.5678 197.049 10.2588 212.888C12.4112 212.278 14.5744 211.69 16.7483 211.102C39.5363 204.974 62.6885 200.236 86.0442 196.835C99.6978 194.846 113.416 193.306 127.166 192.204C136.964 191.413 146.784 190.857 156.614 190.515C180.356 189.68 204.14 190.13 227.827 191.787C251.418 193.434 274.924 196.268 298.226 200.236C320.875 204.086 343.331 209.027 365.52 214.984C365.38 213.84 365.22 212.706 365.048 211.562C363.067 198.204 359.512 185.017 354.051 172.654C349.178 161.618 342.871 151.222 335.332 141.811C328.2 132.902 320.04 124.849 311.237 117.588C302.627 110.486 293.397 104.166 283.866 98.3587C274.753 92.8082 265.361 87.7389 255.873 82.8835C249.566 89.5677 242.648 95.6957 235.248 101.161V101.139H235.259Z" fill="white"/>
<path d="M234.135 195.017C234.381 195.038 234.617 195.06 234.863 195.07C234.617 195.049 234.381 195.028 234.135 195.017Z" fill="white"/>
<path d="M131.193 212.856C130.903 212.759 130.582 212.802 130.304 213.08C130.582 212.802 130.914 212.759 131.193 212.856Z" fill="white"/>
<path d="M128.59 250.521C128.59 250.521 128.611 250.447 128.611 250.404C128.611 250.426 128.611 250.458 128.59 250.479V250.521Z" fill="white"/>
<path d="M130.325 215.7C130.304 215.497 130.282 215.305 130.261 215.102C130.282 215.294 130.304 215.497 130.325 215.7Z" fill="white"/>
<path d="M233.213 209.059C233.192 209.369 233.171 209.669 233.149 209.979C232.164 223.165 232.582 236.437 234.349 249.528C234.563 249.218 234.927 249.025 235.441 249.068C244.201 249.881 253.014 250.084 261.795 249.667C260.906 246.095 259.739 242.587 258.272 239.197C253.003 227.037 244.254 216.428 233.213 209.059Z" fill="white"/>
<path d="M126.191 195.049C126.63 195.017 127.059 194.974 127.498 194.942C127.059 194.974 126.62 195.006 126.191 195.049Z" fill="white"/>
<path d="M290.944 201.808C293.332 203.476 295.645 205.262 297.862 207.134C307.736 215.487 315.853 225.892 321.55 237.485C336.221 232.202 350.303 225.379 363.656 217.326C361.922 216.866 360.187 216.406 358.452 215.957C336.189 210.182 313.657 205.455 290.944 201.797V201.808Z" fill="white"/>
<path d="M129.018 194.814C128.986 194.696 128.943 194.589 128.911 194.471C128.943 194.589 128.975 194.696 129.018 194.814Z" fill="white"/>
<path d="M105.363 197.969C101.775 200.289 98.2737 202.76 94.879 205.369C83.0245 214.503 72.4871 225.336 63.6953 237.443C68.8783 239.036 74.1149 240.459 79.3943 241.731C88.5288 243.934 97.7704 245.635 107.076 246.833C108.276 244.159 109.561 241.528 110.953 238.951C116.05 229.561 122.518 220.909 130.057 213.326C129.307 207.155 128.033 201.038 126.191 195.049C119.37 195.605 112.57 196.268 105.77 197.049C105.823 197.381 105.727 197.744 105.363 197.979V197.969Z" fill="white"/>
<path d="M218.415 31.4209C210.608 26.2661 202.705 21.3145 194.266 17.2398C186.042 13.2614 177.465 10.0316 168.651 7.62532C151.303 2.88759 132.927 1.37964 115.119 4.20303C99.5267 6.6735 84.5024 12.5021 71.3629 21.2503C59.0372 29.4531 48.4998 40.2975 41.1001 53.1097C41.3464 53.4412 41.4642 53.869 41.3464 54.3289C46.6258 57.8795 52.2157 60.9595 58.0413 63.5797C68.1395 68.1357 78.8589 71.2799 89.7604 73.3119C93.4977 72.7557 97.1708 71.7397 100.683 70.3494C114.423 64.9166 125.795 53.4412 130.668 39.4526C131.053 38.3297 132.841 38.8109 132.456 39.9445C131.021 44.0834 129.061 48.0297 126.609 51.6659C119.177 62.7349 107.676 70.9056 94.7721 74.1567C97.3314 74.5524 99.8908 74.884 102.45 75.1727C118.674 76.948 135.047 76.5416 151.271 75.0123C155.298 74.6273 159.324 74.1781 163.34 73.6862C171.5 70.2746 178.353 64.0396 182.551 56.2325C183.119 55.1844 184.714 56.1149 184.147 57.1629C180.613 63.7402 175.269 69.2051 168.865 72.9589C179.96 71.4403 191.011 69.5901 202.052 67.7293C203.797 67.4405 204.547 70.1035 202.791 70.4029C200.713 70.7558 198.625 71.1088 196.547 71.451C185.057 73.3653 173.534 75.2262 161.958 76.6272C156.24 77.3224 150.511 77.9106 144.771 78.3383C142.597 78.4988 140.434 78.6378 138.26 78.7554C139.267 81.0013 140.498 83.1509 141.912 85.1722C147.855 93.621 157.172 99.5993 167.366 101.364C168.534 101.567 168.041 103.342 166.874 103.15C163.843 102.626 160.898 101.728 158.071 100.519C148.39 96.3802 140.445 88.509 136.3 78.841C122.732 79.4506 109.132 79.0335 95.6823 77.0657C93.1765 76.7021 90.6813 76.2743 88.1969 75.8037C75.3037 73.3119 62.7102 69.2586 51.0271 63.2589C47.3647 61.3766 43.7987 59.2912 40.3719 57.0132C39.9007 58.5105 39.5581 60.0505 39.3546 61.5905C38.0053 71.7184 42.0425 81.9104 48.4034 89.664C54.8608 97.5352 63.417 103.407 72.1874 108.412C90.0495 118.593 110.118 124.903 130.56 127.01C150.736 129.095 171.286 127.159 190.615 120.989C208.488 115.288 225.247 106.059 239.725 94.1664C253.828 82.5734 265.822 68.4993 274.817 52.6177C273.286 52.7674 271.755 52.853 270.213 52.853C250.798 52.7888 234.017 41.6985 218.425 31.4209H218.415Z" fill="white"/>
<path d="M232.496 208.567C232.496 208.567 232.592 208.652 232.646 208.685C232.592 208.652 232.539 208.61 232.496 208.567Z" fill="white"/>
<path d="M38.9685 56.1041C38.7329 56.1575 38.4866 56.1361 38.2617 56.0613C38.4973 56.1361 38.7329 56.1575 38.9685 56.1041Z" fill="white"/>
<path d="M275.578 51.2594C275.331 51.7192 275.074 52.1684 274.817 52.6283C275.074 52.1791 275.331 51.7192 275.578 51.2594Z" fill="white"/>
<path d="M80.0693 115.727C80.3156 115.844 80.5619 115.962 80.8189 116.08C80.5726 115.962 80.3263 115.844 80.08 115.727H80.0693Z" fill="white"/>
<path d="M232.282 207.604C232.218 207.786 232.207 207.99 232.272 208.182C232.218 207.99 232.229 207.786 232.282 207.604Z" fill="white"/>
<path d="M366.772 218.182C366.772 218.182 366.836 218.203 366.868 218.203C366.836 218.203 366.815 218.203 366.783 218.182H366.772Z" fill="white"/>
<path d="M366.709 218.16C366.462 218.096 366.216 218.032 365.97 217.968C366.216 218.032 366.462 218.096 366.709 218.171V218.16Z" fill="white"/>
<path d="M41.3252 54.393C41.3252 54.393 41.3359 54.3502 41.3466 54.3289C41.3466 54.3289 41.3466 54.3716 41.3359 54.393H41.3252Z" fill="white"/>
<path d="M368.486 216.824C368.486 216.738 368.486 216.652 368.475 216.567V216.503C368.475 216.449 368.454 216.385 368.432 216.332C368.411 216.278 368.39 216.225 368.368 216.161C368.315 216.054 368.25 215.957 368.154 215.861C368.111 215.818 368.068 215.776 368.015 215.733C367.94 215.679 367.854 215.626 367.747 215.583C368.175 215.829 368.475 216.31 368.497 216.813L368.486 216.824Z" fill="#1D1D1B"/>
<path d="M358.537 176.205C353.943 164.687 347.861 153.8 340.429 143.864C333.436 134.528 325.372 126.047 316.548 118.422C307.949 111 298.697 104.358 289.091 98.3052C279.775 92.4339 270.126 87.1079 260.349 82.0494C259.503 81.6109 258.668 81.1831 257.822 80.7446C257.693 80.8837 257.565 81.0227 257.436 81.1617C257.244 81.3756 257.04 81.5895 256.848 81.8034C256.526 82.1563 256.194 82.5092 255.862 82.8515C265.361 87.7068 274.752 92.7761 283.855 98.3266C293.386 104.134 302.616 110.454 311.226 117.556C320.029 124.817 328.189 132.87 335.321 141.779C342.86 151.201 349.167 161.596 354.04 172.622C359.501 184.996 363.056 198.172 365.037 211.529C365.209 212.663 365.359 213.807 365.509 214.952C365.798 215.027 366.087 215.102 366.365 215.187C366.654 215.262 366.933 215.337 367.222 215.422C367.222 215.422 367.308 215.422 367.35 215.444C367.393 215.444 367.436 215.465 367.479 215.476C367.522 215.487 367.565 215.508 367.597 215.519C367.64 215.54 367.672 215.551 367.715 215.572C367.811 215.615 367.897 215.668 367.982 215.722C368.036 215.765 368.079 215.807 368.122 215.85C368.207 215.936 368.282 216.043 368.336 216.15C368.357 216.203 368.389 216.257 368.4 216.321C368.421 216.374 368.432 216.428 368.443 216.492V216.556C368.453 216.642 368.453 216.727 368.453 216.813C368.475 217.101 368.4 217.39 368.229 217.647C368.207 217.668 368.186 217.7 368.164 217.722C368.389 217.476 368.528 217.166 368.486 216.834C366.879 202.931 363.699 189.22 358.505 176.205H358.537Z" fill="#1D1D1B"/>
<path d="M368.465 216.502V216.567" stroke="#1D1D1B" stroke-linecap="round" stroke-linejoin="round"/>
<path d="M368.014 217.903C368.014 217.903 368.004 217.903 367.993 217.924H368.004V217.903H368.014Z" fill="#1D1D1B"/>
<path d="M368.486 216.823C368.475 217.251 368.282 217.679 367.95 217.946C367.961 217.946 367.982 217.925 367.993 217.914C367.993 217.914 368.004 217.914 368.014 217.893C368.047 217.871 368.089 217.839 368.122 217.807C368.122 217.807 368.154 217.775 368.164 217.754C368.164 217.754 368.175 217.754 368.186 217.732C368.207 217.711 368.229 217.679 368.25 217.657C368.432 217.401 368.496 217.112 368.475 216.823H368.486Z" fill="#1D1D1B"/>
<path d="M367.961 217.945C367.961 217.945 368.003 217.914 368.014 217.903H368.003C368.003 217.903 367.971 217.935 367.961 217.945Z" fill="#1D1D1B"/>
<path d="M367.726 215.583C367.726 215.583 367.651 215.54 367.608 215.529C367.565 215.529 367.533 215.497 367.49 215.487C367.448 215.487 367.405 215.465 367.362 215.454C367.319 215.454 367.276 215.454 367.233 215.433C367.319 215.454 367.415 215.487 367.501 215.508C367.576 215.529 367.651 215.551 367.726 215.583Z" fill="#1D1D1B"/>
<path d="M367.158 218.235H367.383C367.383 218.235 367.437 218.235 367.458 218.214H367.49C367.49 218.214 367.533 218.214 367.554 218.192C367.576 218.192 367.597 218.192 367.608 218.171C367.608 218.171 367.651 218.15 367.672 218.15C367.704 218.15 367.736 218.118 367.758 218.096C367.822 218.064 367.876 218.021 367.929 217.979C367.683 218.15 367.394 218.257 367.115 218.257H367.137L367.158 218.235Z" fill="#1D1D1B"/>
<path d="M367.737 215.583C367.672 215.551 367.598 215.529 367.512 215.508C367.426 215.487 367.33 215.455 367.244 215.433C366.998 215.412 366.719 215.476 366.452 215.647C366.195 215.807 365.938 215.968 365.681 216.128C365.713 216.364 365.734 216.61 365.766 216.845C365.841 217.454 366.173 217.989 366.73 218.171C366.98 218.249 366.98 218.249 366.73 218.171C366.73 218.171 366.752 218.171 366.773 218.171C366.773 218.171 366.826 218.171 366.859 218.192H367.126C367.405 218.192 367.694 218.085 367.94 217.914C368.272 217.647 368.454 217.219 368.476 216.791C368.443 216.289 368.154 215.797 367.726 215.561H367.737V215.583Z" fill="#1D1D1B"/>
<path d="M365.594 215.54C365.616 215.732 365.637 215.925 365.659 216.117C365.916 215.957 366.173 215.797 366.43 215.636C366.708 215.465 366.976 215.401 367.222 215.422C366.933 215.347 366.655 215.273 366.365 215.187C366.076 215.112 365.798 215.037 365.509 214.952C365.53 215.144 365.562 215.337 365.584 215.529L365.594 215.54Z" fill="#1D1D1B"/>
<path d="M367.629 218.139C367.629 218.139 367.586 218.139 367.576 218.16C367.554 218.16 367.533 218.16 367.511 218.181H367.479C367.479 218.181 367.426 218.181 367.404 218.203H366.89C366.89 218.203 366.826 218.203 366.794 218.181C366.794 218.181 366.762 218.181 366.751 218.181C366.505 218.117 366.258 218.053 366.012 217.978C365.455 217.828 364.898 217.679 364.342 217.529C364.127 217.476 363.913 217.411 363.699 217.358C350.345 225.4 336.263 232.234 321.592 237.517C321.667 237.667 321.732 237.817 321.807 237.966C321.882 238.116 321.946 238.266 322.021 238.416C322.149 238.694 322.149 238.95 322.053 239.175C322.053 239.175 322.042 239.207 322.031 239.218C321.978 239.335 321.903 239.442 321.807 239.528C321.475 239.838 320.939 239.945 320.607 239.592C320.543 239.528 320.479 239.442 320.425 239.335C320.329 239.132 320.232 238.94 320.136 238.737C320.04 238.533 319.943 238.341 319.847 238.138C319.151 238.384 318.465 238.619 317.759 238.865C300.946 244.576 283.427 248.276 265.693 249.463C265.029 249.506 264.365 249.549 263.712 249.592V249.677C263.926 250.522 263.037 251.003 262.438 250.768C262.352 250.736 262.277 250.693 262.213 250.629C262.095 250.522 261.999 250.372 261.945 250.169C261.902 250.009 261.87 249.848 261.827 249.688C253.046 250.105 244.233 249.902 235.473 249.089C234.959 249.046 234.595 249.239 234.381 249.549C234.402 249.709 234.424 249.88 234.445 250.041C234.509 250.533 234.584 251.025 234.659 251.527C234.863 251.709 235.141 251.827 235.473 251.859C253.485 253.538 271.669 252.543 289.445 249.207C307.2 245.87 324.452 240.159 340.847 232.619C350.153 228.341 359.169 223.465 367.875 218.064C367.886 218.064 367.897 218.042 367.908 218.032C367.875 218.053 367.854 218.074 367.822 218.085C367.79 218.107 367.758 218.117 367.736 218.139C367.715 218.139 367.693 218.16 367.672 218.16H367.629V218.139Z" fill="#1D1D1B"/>
<path d="M366.858 218.203C366.858 218.203 366.805 218.203 366.772 218.182" stroke="#1D1D1B" stroke-linecap="round" stroke-linejoin="round"/>
<path d="M364.31 217.519C364.866 217.668 365.423 217.818 365.98 217.968C366.226 218.032 366.473 218.096 366.719 218.16C366.162 217.979 365.819 217.444 365.755 216.834C365.723 216.599 365.702 216.353 365.67 216.118C365.006 216.524 364.342 216.93 363.667 217.337C363.881 217.39 364.095 217.455 364.31 217.508V217.519Z" fill="#1D1D1B"/>
<path d="M320.683 237.806C320.426 237.892 320.169 237.988 319.923 238.074C319.89 238.074 319.848 238.095 319.815 238.116C319.912 238.32 320.008 238.512 320.105 238.715C320.201 238.919 320.297 239.122 320.394 239.314C320.447 239.421 320.501 239.507 320.576 239.571C320.918 239.913 321.443 239.817 321.775 239.507C321.872 239.421 321.946 239.314 322 239.197C322 239.197 322.011 239.164 322.021 239.154C322.107 238.929 322.118 238.662 321.989 238.394C321.914 238.245 321.85 238.095 321.775 237.945C321.7 237.796 321.636 237.646 321.561 237.507C321.443 237.55 321.325 237.592 321.208 237.635C321.036 237.699 320.865 237.764 320.683 237.817V237.806Z" fill="#1D1D1B"/>
<path d="M322.021 239.154C322.117 238.929 322.117 238.662 321.989 238.394C322.117 238.673 322.117 238.929 322.021 239.154Z" fill="#1D1D1B"/>
<path d="M321.774 239.507C321.871 239.421 321.946 239.314 321.999 239.197" stroke="#1D1D1B" stroke-linecap="round" stroke-linejoin="round"/>
<path d="M290.944 201.819C290.538 201.755 290.131 201.691 289.734 201.626L290.955 201.819H290.944Z" fill="#1D1D1B"/>
<path d="M289.284 201.541C289.413 201.562 289.541 201.584 289.67 201.605C289.691 201.605 289.712 201.605 289.734 201.605C290.141 201.669 290.537 201.733 290.944 201.797C290.773 201.68 290.591 201.552 290.419 201.434C290.344 201.38 290.28 201.338 290.205 201.284C289.927 201.092 289.638 200.899 289.359 200.707C289.177 200.589 289.006 200.471 288.824 200.354C288.427 200.097 288.042 200.183 287.785 200.439C287.785 200.439 287.763 200.461 287.753 200.471C287.56 200.675 287.453 200.963 287.474 201.252C287.774 201.295 288.085 201.348 288.385 201.391C288.684 201.434 288.995 201.487 289.295 201.53L289.284 201.541Z" fill="#1D1D1B"/>
<path d="M288.374 201.402C288.674 201.445 288.984 201.498 289.284 201.541C289.413 201.562 289.541 201.584 289.659 201.605C289.531 201.584 289.402 201.562 289.274 201.541C288.974 201.498 288.663 201.445 288.363 201.402H288.374Z" fill="#1D1D1B"/>
<path d="M288.813 200.364C288.417 200.108 288.031 200.204 287.774 200.45C288.031 200.193 288.417 200.108 288.813 200.364Z" fill="#1D1D1B"/>
<path d="M297.873 207.145C295.645 205.263 293.343 203.487 290.955 201.819L289.734 201.626C289.734 201.626 289.691 201.626 289.67 201.626C289.541 201.605 289.413 201.584 289.295 201.562C288.995 201.519 288.685 201.466 288.385 201.423C288.085 201.38 287.774 201.327 287.475 201.284C287.496 201.541 287.614 201.798 287.892 201.979C298.762 209.155 308.078 218.652 315.049 229.646C316.784 232.395 318.38 235.218 319.815 238.138C319.815 238.138 319.89 238.117 319.922 238.095C320.179 238.01 320.436 237.924 320.682 237.828C320.854 237.764 321.025 237.699 321.207 237.646C321.325 237.603 321.443 237.56 321.56 237.518C315.863 225.925 307.746 215.519 297.873 207.166V207.145Z" fill="#1D1D1B"/>
<path d="M277.922 51.2595C277.869 51.1847 277.815 51.1098 277.751 51.0457C277.815 51.1098 277.879 51.1847 277.922 51.2595Z" fill="#1D1D1B"/>
<path d="M39.2365 52.6711C39.2365 52.6711 39.3008 52.6283 39.3222 52.6069C39.3543 52.5856 39.3864 52.5749 39.4186 52.5535C39.8683 52.3396 40.4359 52.4786 40.8428 52.8422L40.9071 52.9064C40.9713 52.9706 41.0356 53.0454 41.0891 53.1203C48.4888 40.3081 59.0262 29.4637 71.3519 21.2609C84.4914 12.5127 99.5157 6.68411 115.108 4.21365C132.916 1.39026 151.292 2.89821 168.64 7.63594C177.454 10.0422 186.031 13.272 194.255 17.2504C202.694 21.3251 210.597 26.2874 218.404 31.4315C233.995 41.7198 250.776 52.8101 270.191 52.8636C271.733 52.8636 273.264 52.7887 274.796 52.6283C275.053 52.1792 275.31 51.7193 275.556 51.2594C275.62 51.1418 275.695 51.0348 275.781 50.9493C275.845 50.8851 275.909 50.8316 275.973 50.7782C276.016 50.7461 276.07 50.7247 276.113 50.6926C276.156 50.6605 276.209 50.6498 276.263 50.6284C276.766 50.4573 277.355 50.6498 277.73 51.0348C277.794 51.099 277.858 51.1739 277.901 51.2487C277.901 50.4466 277.205 49.5483 276.156 49.698C256.634 52.3717 238.707 41.4738 223.115 31.2069C215.116 25.9452 207.159 20.662 198.614 16.2986C190.507 12.1705 182.048 8.72679 173.341 6.07452C155.951 0.791362 137.467 -1.30479 119.37 0.812752C103.371 2.69501 87.8218 7.914 74.029 16.2344C60.5147 24.3838 48.7137 35.4848 40.3395 48.9066C39.6541 49.9974 38.9902 51.1204 38.3584 52.2433C38.6047 52.4251 38.8403 52.5962 39.0866 52.7674C39.1294 52.7246 39.1723 52.6818 39.2151 52.6497L39.2365 52.6711Z" fill="#1D1D1B"/>
<path d="M277.794 51.8263C277.89 51.6552 277.933 51.4627 277.922 51.2595C277.922 51.4627 277.88 51.6552 277.794 51.8263Z" fill="#1D1D1B"/>
<path d="M277.923 51.2595C277.869 51.1847 277.816 51.1098 277.752 51.0456C277.377 50.6606 276.788 50.4681 276.284 50.6392C276.231 50.6392 276.188 50.6713 276.135 50.7034C276.081 50.7355 276.038 50.7569 275.995 50.789C275.931 50.8318 275.856 50.8852 275.803 50.9601C275.717 51.0456 275.642 51.1526 275.578 51.2702C275.331 51.7301 275.074 52.1793 274.817 52.6391C275.331 52.5857 275.835 52.5322 276.349 52.468H276.402C276.574 52.4466 276.756 52.4253 276.927 52.3932C276.97 52.3932 277.013 52.3825 277.055 52.3718C277.302 52.3183 277.484 52.2114 277.623 52.0723C277.666 52.0296 277.709 51.9761 277.741 51.9226C277.762 51.9012 277.773 51.8691 277.794 51.8371C277.88 51.6659 277.923 51.4734 277.923 51.2702V51.2595Z" fill="#1D1D1B"/>
<path d="M276.392 52.4466C276.563 52.4253 276.745 52.4039 276.916 52.3825C276.959 52.3825 277.002 52.3718 277.045 52.3611C277.002 52.3611 276.959 52.3718 276.916 52.3825C276.745 52.4039 276.563 52.4253 276.392 52.4573V52.4466Z" fill="#1D1D1B"/>
<path d="M277.751 51.0456C277.376 50.6606 276.787 50.4681 276.284 50.6392C276.787 50.4681 277.366 50.6606 277.751 51.0456Z" fill="#1D1D1B"/>
<path d="M263.198 249.592C262.834 249.613 262.459 249.634 262.095 249.645C261.988 249.645 261.891 249.645 261.784 249.645C261.827 249.805 261.87 249.966 261.902 250.126C261.956 250.33 262.041 250.479 262.17 250.586C262.234 250.65 262.32 250.693 262.395 250.725C263.005 250.961 263.883 250.479 263.68 249.634V249.592C263.68 249.592 263.658 249.57 263.658 249.549C263.498 249.549 263.348 249.57 263.187 249.57H263.198V249.592Z" fill="#1D1D1B"/>
<path d="M262.406 250.736C262.32 250.704 262.245 250.661 262.181 250.597" stroke="#1D1D1B" stroke-linecap="round" stroke-linejoin="round"/>
<path d="M261.902 250.137C261.956 250.34 262.041 250.49 262.17 250.597C262.052 250.49 261.956 250.34 261.902 250.137Z" fill="#1D1D1B"/>
<path d="M256.827 80.2311C256.827 80.2311 256.773 80.1991 256.741 80.1884C256.602 80.1242 256.463 80.0921 256.334 80.0707C254.974 79.9103 254 81.8888 255.435 82.6161C255.585 82.6909 255.734 82.7765 255.884 82.8513C256.216 82.4984 256.538 82.1562 256.87 81.8033C257.062 81.5894 257.266 81.3755 257.459 81.1616C257.587 81.0226 257.716 80.8835 257.844 80.7445C257.512 80.5734 257.169 80.4023 256.837 80.2311H256.827Z" fill="#1D1D1B"/>
<path d="M255.884 82.862C256.216 82.5091 256.537 82.1669 256.869 81.814" stroke="#1D1D1B" stroke-linecap="round" stroke-linejoin="round"/>
<path d="M80.8723 115.224C81.14 115.053 81.4078 114.882 81.6755 114.722C82.2002 114.39 82.7035 114.465 83.089 114.732C83.1426 114.775 83.1961 114.818 83.2497 114.861C83.8493 115.427 83.9886 116.54 83.0783 117.106C94.965 122.465 107.601 126.24 120.377 128.4C141.205 131.919 162.772 131.234 183.258 125.994C201.988 121.203 219.743 112.615 235.281 101.129C242.681 95.653 249.588 89.5357 255.906 82.8515C255.756 82.7767 255.606 82.6911 255.456 82.6162C254.032 81.889 255.006 79.8998 256.356 80.0709C256.495 80.0923 256.623 80.1244 256.763 80.1886C256.795 80.1992 256.816 80.2099 256.848 80.2313C257.18 80.4024 257.523 80.5736 257.855 80.7447C263.991 73.9857 269.527 66.6812 274.336 58.9062C275.599 56.8528 276.82 54.7674 277.987 52.6605C278.276 52.1365 278.201 51.6445 277.944 51.2595C277.944 51.4627 277.902 51.6552 277.816 51.8263C277.805 51.8584 277.784 51.8798 277.762 51.9119C277.73 51.9654 277.687 52.0188 277.644 52.0616C277.505 52.2007 277.313 52.3076 277.077 52.3611C277.034 52.3611 276.991 52.3825 276.948 52.3825C276.777 52.4038 276.595 52.4252 276.424 52.4466H276.37C275.856 52.5108 275.353 52.5643 274.839 52.6177C265.844 68.4993 253.85 82.5735 239.746 94.1665C225.258 106.059 208.509 115.288 190.636 120.989C171.307 127.159 150.757 129.095 130.582 127.01C110.128 124.892 90.0711 118.582 72.209 108.412C63.4279 103.407 54.8823 97.5353 48.425 89.664C42.064 81.9104 38.0269 71.7291 39.3762 61.5906C39.5796 60.0398 39.9223 58.5105 40.3935 57.0132C40.3721 57.0026 40.3399 56.9812 40.3185 56.9598C40.0294 56.7673 39.7403 56.5748 39.4511 56.3823C39.3119 56.286 39.162 56.1898 39.0228 56.0935C38.7872 56.147 38.5409 56.1256 38.316 56.0507C38.2732 56.04 38.2196 56.0186 38.1768 55.9973C38.1232 55.9759 38.059 55.9438 38.0054 55.9117C37.9733 55.8903 37.9412 55.8689 37.9091 55.8475C35.0284 64.7669 36.4955 74.5525 40.704 82.9157C45.3944 92.2521 53.4367 99.4817 61.9608 105.289C67.7221 109.214 73.8153 112.69 80.1227 115.716C80.3904 115.545 80.6581 115.374 80.9152 115.203L80.8723 115.224Z" fill="#1D1D1B"/>
<path d="M252.404 356.26C251.108 350.784 249.127 345.469 246.503 340.485C245.946 339.427 244.351 340.368 244.908 341.416C249.416 350.014 251.911 359.597 252.382 369.275C252.853 378.954 251.333 388.708 247.874 397.766C245.925 402.878 243.333 407.733 240.164 412.204C240.078 412.321 240.035 412.439 240.014 412.546C240.474 412.407 240.924 412.268 241.384 412.129C241.845 411.99 242.295 411.84 242.755 411.701C247.949 403.915 251.451 395.028 253.121 385.831C254.899 376.056 254.695 365.928 252.404 356.26Z" fill="#1D1D1B"/>
<path d="M240.014 412.568C239.95 412.91 240.132 413.209 240.421 413.391C240.442 413.402 240.474 413.423 240.496 413.434C240.517 413.444 240.549 413.466 240.581 413.477C240.699 413.519 240.817 413.551 240.935 413.562C241.053 413.562 241.181 413.562 241.299 413.509C241.406 413.477 241.502 413.412 241.588 413.338C241.599 413.327 241.62 413.316 241.631 413.295C241.674 413.252 241.717 413.209 241.749 413.156C241.92 412.92 242.081 412.674 242.252 412.439C242.359 412.279 242.466 412.118 242.584 411.958C242.637 411.883 242.691 411.798 242.745 411.723C242.295 411.872 241.834 412.011 241.374 412.15C240.913 412.289 240.464 412.428 240.003 412.568H240.014Z" fill="#1D1D1B"/>
<path d="M241.309 413.509C241.192 413.552 241.063 413.562 240.945 413.562C241.074 413.562 241.192 413.562 241.309 413.509Z" fill="#1D1D1B"/>
<path d="M235.794 378.024C235.773 376.837 233.92 376.826 233.942 378.024C234.134 388.793 231.693 399.563 226.831 409.188C225.45 411.926 223.875 414.546 222.13 417.07C222.997 416.877 223.865 416.685 224.743 416.492C230.44 407.755 234.049 397.745 235.312 387.392C235.687 384.291 235.848 381.157 235.783 378.024H235.794Z" fill="#1D1D1B"/>
<path d="M227.828 191.766C204.14 190.119 180.356 189.67 156.615 190.493C146.784 190.835 136.975 191.402 127.166 192.183L127.198 192.632C127.584 192.6 127.991 192.707 128.28 192.985C128.355 193.06 128.43 193.145 128.494 193.242C128.558 193.338 128.612 193.455 128.644 193.584C128.729 193.873 128.826 194.161 128.912 194.45C128.944 194.568 128.986 194.675 129.019 194.792C135.433 194.3 141.858 193.894 148.294 193.594C171.8 192.472 195.359 192.621 218.854 193.947C223.276 194.193 227.699 194.493 232.111 194.824C232.133 194.696 232.154 194.557 232.175 194.429C232.24 193.99 232.465 193.712 232.743 193.562C232.775 193.562 232.797 193.53 232.829 193.52C233.118 193.402 233.471 193.402 233.792 193.52C233.953 193.573 234.103 193.648 234.242 193.755C234.285 193.787 234.317 193.808 234.36 193.851C234.381 193.851 234.392 193.883 234.414 193.905C234.435 193.926 234.446 193.937 234.467 193.958C234.489 193.979 234.499 193.99 234.521 194.012C234.585 194.086 234.638 194.172 234.692 194.258C234.713 194.293 234.713 194.293 234.692 194.258C234.746 194.343 234.778 194.439 234.81 194.536C234.853 194.696 234.874 194.867 234.863 195.06C252.468 196.461 270.009 198.535 287.464 201.252C287.443 200.963 287.55 200.674 287.743 200.471C287.743 200.471 287.764 200.45 287.775 200.439C288.032 200.182 288.417 200.086 288.814 200.353C288.996 200.471 289.167 200.589 289.349 200.706C289.638 200.899 289.917 201.091 290.195 201.284C290.27 201.337 290.345 201.38 290.409 201.434C290.581 201.551 290.763 201.68 290.945 201.797C313.647 205.455 336.189 210.182 358.452 215.957C360.187 216.406 361.922 216.866 363.657 217.326C364.321 216.92 364.995 216.513 365.659 216.107C365.638 215.914 365.616 215.722 365.595 215.529C365.574 215.337 365.552 215.144 365.52 214.952C343.332 208.995 320.875 204.054 298.227 200.204C274.924 196.236 251.408 193.402 227.828 191.755V191.766Z" fill="#1D1D1B"/>
<path d="M234.199 249.795C234.232 249.699 234.285 249.603 234.339 249.517C232.572 236.427 232.154 223.155 233.139 209.968C233.161 209.658 233.182 209.359 233.204 209.048C233.107 208.984 233.022 208.92 232.925 208.867C232.829 208.802 232.743 208.749 232.647 208.685C232.593 208.653 232.54 208.61 232.497 208.567C232.486 208.567 232.465 208.535 232.454 208.524C232.411 208.482 232.379 208.439 232.347 208.385C232.347 208.385 232.293 208.289 232.272 208.236C232.272 208.214 232.261 208.204 232.251 208.182C232.197 207.99 232.208 207.786 232.261 207.605C232.261 207.605 232.261 207.573 232.272 207.562C232.272 207.53 232.293 207.508 232.304 207.476C232.304 207.476 232.315 207.444 232.325 207.434C232.379 207.337 232.443 207.252 232.518 207.177C232.732 206.974 233.032 206.867 233.364 206.984C233.728 203.038 234.21 199.113 234.821 195.199C234.821 195.156 234.821 195.113 234.831 195.07C234.585 195.049 234.349 195.028 234.103 195.017C233.428 194.964 232.754 194.91 232.079 194.857C228.984 214.824 229.113 235.186 232.347 255.121C235.581 275.034 241.953 294.456 251.226 312.38C256.013 321.642 261.817 330.326 266.882 339.448C271.712 348.143 275.878 357.415 277.066 367.383C278.148 376.462 276.927 386.034 271.701 393.745C266.658 401.199 258.498 405.841 250.273 409.038C247.789 410.001 245.262 410.889 242.713 411.701C242.659 411.776 242.606 411.862 242.552 411.937C242.445 412.097 242.338 412.257 242.22 412.418C242.06 412.653 241.888 412.899 241.717 413.134C241.674 413.188 241.642 413.241 241.599 413.273L241.556 413.316C241.471 413.391 241.364 413.445 241.267 413.487C241.149 413.53 241.021 413.541 240.903 413.541C240.785 413.541 240.657 413.509 240.55 413.455C240.518 413.445 240.496 413.434 240.464 413.412C240.443 413.402 240.411 413.38 240.389 413.37C240.1 413.188 239.918 412.888 239.982 412.546C234.949 414.054 229.83 415.327 224.712 416.471C224.38 416.995 224.026 417.509 223.673 418.022C223.641 418.075 223.598 418.129 223.555 418.172C223.469 418.257 223.373 418.321 223.277 418.364C223.245 418.375 223.212 418.385 223.17 418.396C223.137 418.407 223.105 418.418 223.062 418.418C222.698 418.482 222.313 418.321 222.099 418.054C222.077 418.033 222.067 418.011 222.045 417.979C221.906 417.765 221.863 417.487 222.002 417.209C222.024 417.166 222.045 417.124 222.077 417.081V417.049C221.435 417.188 220.803 417.327 220.16 417.455C209.13 419.797 197.972 421.433 186.739 422.353C175.934 423.241 165.043 423.572 154.227 422.941C143.807 422.321 133.388 420.674 123.514 417.188C106.884 411.306 91.3349 399.156 85.2952 382.12C78.2703 362.281 86.5695 341.331 96.6892 324.187C102.097 315.022 108.201 306.284 113.598 297.108C118.91 288.071 123.3 278.542 126.62 268.596C133.088 249.25 135.444 228.427 132.103 208.225C131.353 203.68 130.304 199.199 128.965 194.782C128.494 194.814 128.023 194.857 127.552 194.889H127.445C127.006 194.921 126.566 194.964 126.138 194.996C127.98 200.985 129.254 207.102 130.004 213.273C130.079 213.187 130.165 213.112 130.24 213.037C130.518 212.759 130.85 212.717 131.128 212.813C131.16 212.813 131.182 212.834 131.214 212.845C131.257 212.866 131.3 212.888 131.332 212.909C131.353 212.909 131.364 212.931 131.385 212.952C131.385 212.952 131.418 212.973 131.428 212.984C131.45 212.984 131.46 213.016 131.482 213.027L131.514 213.059C131.514 213.059 131.535 213.08 131.546 213.091C131.546 213.112 131.578 213.123 131.589 213.144C131.589 213.144 131.589 213.166 131.61 213.177C131.61 213.177 131.632 213.209 131.642 213.219C131.824 213.497 131.867 213.861 131.642 214.193C131.61 214.246 131.567 214.289 131.525 214.342C131.31 214.556 131.096 214.781 130.882 214.995C130.721 215.155 130.561 215.315 130.4 215.487L130.24 215.647C131.396 227.154 130.743 238.822 128.558 250.223C128.558 250.223 128.558 250.308 128.537 250.351C128.537 250.394 128.537 250.426 128.515 250.469C128.151 252.34 127.755 254.201 127.305 256.051C124.864 266.222 121.287 276.157 116.682 285.558C111.971 295.172 105.995 304.102 100.245 313.118C89.1503 330.508 77.9276 350.346 80.155 371.778C82.0504 390.034 94.4404 405.145 110.032 414.076C128.226 424.503 149.976 426.385 170.536 425.936C193.207 425.455 215.845 422.097 237.669 415.969C246.675 413.434 255.874 410.525 263.691 405.231C271.294 400.076 276.831 392.718 278.983 383.735C283.856 363.458 273.265 344.4 263.156 327.652C257.78 318.754 252.661 309.792 248.474 300.263C244.351 290.884 241.032 281.141 238.494 271.227C236.823 264.703 235.506 258.105 234.531 251.453C234.039 251.036 233.9 250.298 234.103 249.752L234.199 249.795Z" fill="#1D1D1B"/>
<path d="M234.863 195.07C234.874 194.878 234.863 194.707 234.81 194.546C234.852 194.707 234.874 194.878 234.863 195.07Z" fill="#1D1D1B"/>
<path d="M234.338 249.517C234.284 249.603 234.231 249.688 234.199 249.795C233.995 250.351 234.134 251.079 234.627 251.496C234.552 251.004 234.488 250.512 234.413 250.009C234.391 249.849 234.37 249.678 234.349 249.517H234.338Z" fill="#1D1D1B"/>
<path d="M263.198 249.592C263.359 249.592 263.509 249.571 263.669 249.571C260.393 236.106 253.036 223.7 242.852 214.31C239.971 211.647 236.866 209.241 233.589 207.102C233.524 207.059 233.46 207.027 233.396 207.006V207.091C233.385 207.241 233.364 207.402 233.353 207.551C233.31 208.065 233.267 208.567 233.225 209.081C244.265 216.449 253.014 227.048 258.283 239.218C259.75 242.598 260.917 246.106 261.806 249.688C261.913 249.688 262.01 249.688 262.117 249.688C262.481 249.688 262.856 249.656 263.22 249.635L263.198 249.603V249.592Z" fill="#1D1D1B"/>
<path d="M233.385 207.07V206.984C233.064 206.867 232.754 206.963 232.539 207.177C232.464 207.252 232.4 207.337 232.347 207.434C232.347 207.434 232.336 207.466 232.325 207.476C232.315 207.498 232.304 207.53 232.293 207.562C232.293 207.562 232.293 207.594 232.282 207.605C232.218 207.786 232.207 208 232.272 208.182C232.272 208.204 232.272 208.214 232.293 208.236C232.315 208.289 232.336 208.332 232.368 208.385C232.368 208.385 232.432 208.482 232.475 208.524C232.486 208.524 232.507 208.556 232.518 208.567C232.561 208.61 232.614 208.653 232.668 208.685C232.764 208.749 232.85 208.802 232.946 208.867C233.043 208.931 233.128 208.984 233.225 209.048C233.268 208.535 233.31 208.032 233.353 207.519C233.364 207.369 233.375 207.209 233.396 207.059H233.385V207.07Z" fill="#1D1D1B"/>
<path d="M233.792 193.541C233.471 193.434 233.117 193.423 232.828 193.541C233.117 193.423 233.471 193.423 233.792 193.541Z" fill="#1D1D1B"/>
<path d="M233.214 209.059C233.257 208.546 233.3 208.043 233.342 207.53" stroke="#1D1D1B" stroke-linecap="round" stroke-linejoin="round"/>
<path d="M234.81 194.546C234.778 194.45 234.746 194.354 234.692 194.268C234.671 194.233 234.671 194.233 234.692 194.268C234.649 194.183 234.585 194.097 234.521 194.022C234.51 194.001 234.489 193.99 234.467 193.969C234.457 193.947 234.435 193.937 234.414 193.915C234.392 193.894 234.382 193.883 234.36 193.862C234.328 193.83 234.285 193.798 234.242 193.766C234.103 193.669 233.953 193.584 233.793 193.53C233.471 193.423 233.118 193.423 232.829 193.53C232.797 193.53 232.765 193.552 232.743 193.573C232.465 193.723 232.24 194.001 232.176 194.439C232.154 194.568 232.133 194.707 232.111 194.835C232.786 194.889 233.461 194.942 234.135 194.996C234.382 195.017 234.617 195.028 234.863 195.049C234.874 194.857 234.863 194.685 234.81 194.525V194.546Z" fill="#1D1D1B"/>
<path d="M232.743 193.594C232.454 193.744 232.24 194.022 232.176 194.461C232.24 194.022 232.465 193.744 232.743 193.594Z" fill="#1D1D1B"/>
<path d="M222.12 417.092C222.088 417.145 222.066 417.188 222.045 417.231C221.906 417.519 221.938 417.787 222.088 418.001C222.098 418.022 222.12 418.043 222.141 418.075C222.355 418.343 222.741 418.503 223.105 418.439C223.137 418.439 223.169 418.428 223.212 418.418C223.244 418.418 223.276 418.396 223.319 418.386C223.416 418.343 223.512 418.279 223.598 418.193C223.64 418.15 223.683 418.108 223.715 418.043C224.069 417.53 224.422 417.017 224.754 416.493C223.887 416.685 223.009 416.878 222.141 417.07C222.141 417.07 222.141 417.081 222.131 417.092H222.12Z" fill="#1D1D1B"/>
<path d="M223.587 418.182C223.501 418.268 223.405 418.332 223.309 418.375" stroke="#1D1D1B" stroke-linecap="round" stroke-linejoin="round"/>
<path d="M223.094 418.439C223.094 418.439 223.158 418.428 223.2 418.417" stroke="#1D1D1B" stroke-linecap="round" stroke-linejoin="round"/>
<path d="M222.119 417.091C222.088 417.145 222.066 417.187 222.045 417.23C222.066 417.187 222.088 417.145 222.119 417.102V417.091Z" fill="#1D1D1B"/>
<path d="M163.885 75.4507C163.596 75.5684 163.307 75.686 163.018 75.8036C162.729 75.9213 162.44 76.0282 162.14 76.1352C162.097 76.1459 162.054 76.1566 162.011 76.1673C161.969 76.1673 161.936 76.1779 161.894 76.1886L161.947 76.6378C173.523 75.2368 185.046 73.376 196.536 71.4616C198.624 71.1194 200.702 70.7665 202.779 70.4135C204.546 70.1141 203.797 67.4511 202.04 67.7399C191 69.6007 179.948 71.4509 168.854 72.9696C167.923 73.515 166.959 74.0283 165.984 74.4989C165.288 74.8411 164.581 75.1513 163.864 75.4507H163.885Z" fill="#1D1D1B"/>
<path d="M167.484 73.1514C167.945 73.0873 168.405 73.0338 168.866 72.9696C175.269 69.2158 180.613 63.7508 184.147 57.1736C184.714 56.1255 183.119 55.1951 182.551 56.2432C178.353 64.0396 171.511 70.2746 163.34 73.6969C163.8 73.6434 164.261 73.5792 164.721 73.5257C165.642 73.4081 166.563 73.2905 167.484 73.1621V73.1514Z" fill="#1D1D1B"/>
<path d="M168.866 72.9697C168.405 73.0339 167.945 73.0981 167.484 73.1515C167.945 73.0874 168.405 73.0339 168.866 72.9697Z" fill="#1D1D1B"/>
<path d="M136.289 78.8517C140.433 88.5196 148.368 96.3802 158.06 100.53C160.887 101.738 163.832 102.626 166.862 103.161C168.03 103.353 168.522 101.578 167.355 101.375C157.16 99.5993 147.854 93.6317 141.9 85.1829C140.476 83.1616 139.255 81.012 138.249 78.7661C137.928 78.7768 137.596 78.7982 137.264 78.8196C136.942 78.8303 136.61 78.8517 136.289 78.8624V78.8517Z" fill="#1D1D1B"/>
<path d="M163.34 73.686H163.35H163.34V73.696V73.686Z" fill="#1D1D1B"/>
<path d="M163.34 73.686C163.2 73.7395 163.061 73.8037 162.922 73.8571C163.061 73.8037 163.2 73.7502 163.34 73.686Z" fill="#1D1D1B"/>
<path d="M162.076 74.1887C161.937 74.2422 161.797 74.2957 161.648 74.3491C161.54 74.3919 161.444 74.4454 161.369 74.5096C161.444 74.4454 161.54 74.3919 161.648 74.3598C161.787 74.3064 161.926 74.2529 162.076 74.1994V74.1887Z" fill="#1D1D1B"/>
<path d="M162.141 76.1246C162.43 76.0177 162.73 75.9107 163.019 75.7931C163.308 75.6861 163.597 75.5685 163.886 75.4401C164.604 75.1407 165.31 74.8199 166.006 74.4883C166.981 74.0178 167.934 73.5044 168.866 72.959C168.405 73.0232 167.945 73.0873 167.484 73.1408C166.563 73.2584 165.642 73.3868 164.721 73.5044C164.261 73.5579 163.8 73.6221 163.34 73.6755C163.201 73.729 163.062 73.7932 162.922 73.8466C162.644 73.9536 162.365 74.0712 162.076 74.1782C161.937 74.2316 161.798 74.2851 161.648 74.3386C161.541 74.3814 161.444 74.4348 161.37 74.4883C161.444 74.4348 161.327 74.5204 161.316 74.5418C161.209 74.6487 161.134 74.7664 161.08 74.8947C160.952 75.2583 161.048 75.6861 161.295 75.9428C161.295 75.9535 161.316 75.9642 161.327 75.9749C161.348 75.9963 161.37 76.007 161.391 76.0283C161.53 76.1353 161.702 76.1888 161.905 76.1674C161.948 76.1674 161.98 76.1674 162.023 76.146C162.066 76.146 162.108 76.1246 162.151 76.1139H162.141V76.1246Z" fill="#1D1D1B"/>
<path d="M138.249 78.7555C138.153 78.5309 138.057 78.3063 137.96 78.0817C137.864 77.8571 137.778 77.6326 137.682 77.408C137.66 77.3545 137.639 77.301 137.607 77.2582C137.575 77.2155 137.553 77.1727 137.521 77.1299C137.5 77.1085 137.489 77.0978 137.468 77.0764C137.071 76.6807 136.407 76.7235 136.054 77.055C136.054 77.055 136.033 77.0764 136.022 77.0871C136.001 77.1085 135.99 77.1299 135.968 77.1513C135.968 77.1513 135.968 77.1727 135.947 77.1834C135.947 77.2048 135.915 77.2262 135.904 77.2476C135.904 77.2689 135.883 77.2903 135.883 77.3117V77.3331C135.883 77.3545 135.883 77.3759 135.861 77.3973C135.861 77.4294 135.861 77.4507 135.861 77.4828V77.6646C135.861 77.7181 135.883 77.7609 135.893 77.8144C135.893 77.8465 135.915 77.8678 135.926 77.8999C136.054 78.2208 136.183 78.5416 136.322 78.8518C136.654 78.8411 136.975 78.8197 137.296 78.809C137.628 78.7983 137.95 78.7769 138.281 78.7555H138.249Z" fill="#1D1D1B"/>
<path d="M94.2904 74.2851C93.7121 74.4242 93.1339 74.5525 92.5449 74.6808C91.881 74.8199 91.2063 74.9375 90.5317 75.0551C90.2746 75.0979 90.0176 75.1407 89.7499 75.1728C89.3644 75.2263 88.9682 75.2797 88.572 75.3332H88.4435C88.3792 75.3332 88.3257 75.3332 88.2614 75.3118L88.165 75.8145C90.6495 76.2957 93.1446 76.7128 95.6504 77.0764C109.101 79.0443 122.701 79.4507 136.268 78.8518C136.129 78.5416 136.001 78.2208 135.872 77.8999C135.872 77.8678 135.851 77.8465 135.84 77.8144C135.84 77.7609 135.819 77.7074 135.808 77.6646V77.4828C135.808 77.4828 135.808 77.4294 135.808 77.3973C135.808 77.3759 135.808 77.3545 135.829 77.3331V77.3117C135.829 77.2903 135.829 77.2689 135.851 77.2476C135.851 77.2262 135.872 77.2048 135.894 77.1834C135.894 77.1834 135.894 77.162 135.915 77.1513C135.915 77.1299 135.947 77.1085 135.969 77.0871C135.969 77.0871 135.99 77.0657 136.001 77.0551C136.354 76.7235 137.018 76.6807 137.414 77.0764C137.436 77.0978 137.446 77.1085 137.468 77.1299C137.5 77.1727 137.532 77.2155 137.554 77.2582C137.586 77.301 137.607 77.3545 137.628 77.408C137.714 77.6326 137.811 77.8571 137.907 78.0817C138.003 78.3063 138.1 78.5309 138.196 78.7555C140.37 78.6485 142.544 78.5095 144.707 78.3384C150.447 77.9106 156.176 77.3224 161.894 76.6273L161.841 76.1781C161.637 76.1995 161.466 76.146 161.327 76.0391C161.305 76.0177 161.284 76.007 161.263 75.9856C161.263 75.9856 161.241 75.9642 161.23 75.9535C160.984 75.6968 160.888 75.269 161.016 74.9054C161.059 74.7771 161.134 74.6487 161.252 74.5525C161.273 74.5311 161.284 74.5204 161.305 74.499C161.38 74.4349 161.477 74.3814 161.584 74.3386C161.723 74.2851 161.862 74.2317 162.012 74.1782C162.291 74.0712 162.58 73.9643 162.858 73.8467C162.997 73.7932 163.137 73.729 163.276 73.6755C159.26 74.1782 155.234 74.6274 151.207 75.0017C134.983 76.531 118.61 76.9374 102.386 75.1621C99.8268 74.8733 97.2674 74.5418 94.708 74.1461C94.5474 74.1889 94.3975 74.221 94.2369 74.2637L94.269 74.2851H94.2904Z" fill="#1D1D1B"/>
<path d="M135.947 77.1833C135.947 77.1833 135.915 77.2261 135.904 77.2475" stroke="#1D1D1B" stroke-linecap="round" stroke-linejoin="round"/>
<path d="M135.904 77.2476C135.904 77.2476 135.883 77.2903 135.883 77.3117" stroke="#1D1D1B" stroke-linecap="round" stroke-linejoin="round"/>
<path d="M135.872 77.333C135.872 77.333 135.872 77.3758 135.851 77.3972" stroke="#1D1D1B" stroke-linecap="round" stroke-linejoin="round"/>
<path d="M135.829 77.5678V77.4827" stroke="#1D1D1B" stroke-linecap="round" stroke-linejoin="round"/>
<path d="M130.957 215.037C131.171 214.824 131.385 214.599 131.6 214.385C131.642 214.342 131.685 214.289 131.717 214.235C131.685 214.289 131.642 214.332 131.589 214.385C131.375 214.599 131.16 214.824 130.946 215.037H130.957Z" fill="#1D1D1B"/>
<path d="M92.2558 73.7609C93.0911 73.8999 93.9264 74.039 94.7617 74.1673C107.666 70.9161 119.167 62.7454 126.599 51.6765C129.04 48.0296 131 44.094 132.446 39.9551C132.842 38.8215 131.053 38.3402 130.657 39.4632C125.795 53.4518 114.423 64.9164 100.673 70.36C97.1604 71.7503 93.4873 72.7556 89.75 73.3224C90.1891 73.408 90.6281 73.4829 91.0672 73.5684C91.4634 73.6326 91.8489 73.7074 92.2451 73.7716L92.2558 73.7609Z" fill="#1D1D1B"/>
<path d="M107.076 246.833C107.355 246.865 107.633 246.907 107.911 246.939C108.276 246.982 108.629 247.025 108.993 247.078C113.244 237.699 118.781 228.908 125.452 221.058C127.016 219.219 128.643 217.433 130.325 215.7C130.303 215.508 130.282 215.305 130.26 215.101C130.218 214.706 130.175 214.31 130.132 213.914C130.111 213.722 130.089 213.519 130.057 213.326C122.518 220.909 116.05 229.561 110.953 238.951C109.55 241.528 108.265 244.159 107.076 246.833Z" fill="#1D1D1B"/>
<path d="M130.26 215.102C130.282 215.294 130.303 215.497 130.324 215.69L130.485 215.529C130.646 215.369 130.806 215.198 130.967 215.037C131.181 214.823 131.395 214.599 131.61 214.385C131.652 214.342 131.695 214.289 131.738 214.235C131.963 213.914 131.909 213.54 131.738 213.262C131.738 213.262 131.717 213.23 131.706 213.219C131.706 213.219 131.684 213.198 131.684 213.187C131.684 213.166 131.652 213.155 131.642 213.134L131.61 213.102L131.577 213.07C131.577 213.07 131.545 213.037 131.524 213.027C131.524 213.027 131.492 213.005 131.481 212.995C131.46 212.995 131.449 212.973 131.427 212.952C131.385 212.931 131.353 212.909 131.31 212.888C131.278 212.888 131.256 212.866 131.224 212.856C130.935 212.759 130.614 212.802 130.335 213.08L130.1 213.316C130.121 213.508 130.142 213.711 130.175 213.904C130.217 214.299 130.26 214.695 130.303 215.091H130.26V215.102Z" fill="#1D1D1B"/>
<path d="M129.018 194.814C128.547 194.846 128.076 194.889 127.604 194.921C128.076 194.878 128.547 194.846 129.018 194.814Z" fill="#1D1D1B"/>
<path d="M128.644 193.605C128.601 193.477 128.548 193.37 128.494 193.263C128.43 193.167 128.366 193.081 128.28 193.006C127.98 192.728 127.584 192.621 127.198 192.653C127.07 192.653 126.952 192.686 126.834 192.728C126.781 192.75 126.716 192.771 126.663 192.792C126.609 192.814 126.556 192.846 126.502 192.878C126.481 192.878 126.47 192.899 126.449 192.91C126.384 192.953 126.32 193.006 126.256 193.06C125.956 193.359 125.806 193.798 125.977 194.343C126.052 194.578 126.127 194.814 126.192 195.049C126.631 195.017 127.059 194.974 127.498 194.942H127.605C128.076 194.899 128.548 194.867 129.019 194.835C128.987 194.718 128.954 194.611 128.912 194.493C128.826 194.204 128.73 193.915 128.644 193.627V193.605Z" fill="#1D1D1B"/>
<path d="M128.654 193.605C128.611 193.477 128.568 193.37 128.504 193.263C128.568 193.359 128.611 193.477 128.654 193.605Z" fill="#1D1D1B"/>
<path d="M128.6 250.479C128.6 250.479 128.6 250.425 128.622 250.404C128.622 250.372 128.622 250.351 128.622 250.319C128.622 250.372 128.6 250.425 128.59 250.479H128.6Z" fill="#1D1D1B"/>
<path d="M128.59 250.521V250.479C128.59 250.425 128.611 250.372 128.622 250.319C128.622 250.383 128.6 250.457 128.579 250.521H128.59Z" fill="#1D1D1B"/>
<path d="M128.279 193.006C128.354 193.081 128.429 193.167 128.493 193.263" stroke="#1D1D1B" stroke-linecap="round" stroke-linejoin="round"/>
<path d="M128.601 250.479V250.522C128.601 250.458 128.623 250.383 128.644 250.319V250.287C128.73 249.538 128.28 248.693 127.316 248.65C121.191 248.34 115.076 247.816 108.994 247.078C108.822 247.442 108.662 247.816 108.501 248.18C108.244 248.768 107.655 248.757 107.248 248.458C107.227 248.437 107.194 248.415 107.173 248.394C107.152 248.372 107.13 248.351 107.098 248.33C106.862 248.084 106.734 247.731 106.862 247.346C106.862 247.314 106.884 247.282 106.905 247.239C106.937 247.175 106.959 247.1 106.991 247.036C107.023 246.971 107.055 246.897 107.077 246.832C97.7601 245.635 88.5185 243.934 79.3947 241.731C74.126 240.469 68.8895 239.036 63.6958 237.442C63.6851 237.464 63.6636 237.485 63.6529 237.507C63.6101 237.56 63.5673 237.614 63.5351 237.667C63.4816 237.742 63.428 237.817 63.3745 237.892C62.9676 238.458 62.2287 238.362 61.8432 237.988C61.629 237.774 61.5219 237.464 61.6611 237.143C61.6825 237.079 61.7254 237.015 61.7682 236.961C61.7789 236.961 61.7896 236.929 61.8003 236.908C61.811 236.908 61.8217 236.876 61.8325 236.865C52.2053 233.838 42.7496 230.256 33.5401 226.128C26.2046 222.844 19.0298 219.219 12.0263 215.272C11.0947 215.529 10.1523 215.797 9.22066 216.064C9.09215 216.096 8.96365 216.139 8.83514 216.171C8.79231 216.171 8.76018 216.192 8.72806 216.192C8.72806 216.192 8.67451 216.192 8.6531 216.192C8.48176 216.214 8.33184 216.214 8.18191 216.192C8.12837 216.192 8.07483 216.171 8.02128 216.149C7.99987 216.149 7.97845 216.128 7.95703 216.128C22.0925 224.32 36.9883 231.175 52.3874 236.619C67.7436 242.041 83.6032 246.052 99.6984 248.565C108.854 249.998 118.074 250.95 127.316 251.41C128.023 251.442 128.44 251.035 128.59 250.522V250.479H128.601Z" fill="#1D1D1B"/>
<path d="M125.977 194.343C125.806 193.798 125.956 193.359 126.256 193.06C126.309 193.006 126.373 192.953 126.448 192.91C126.47 192.91 126.48 192.889 126.502 192.878C126.555 192.846 126.609 192.814 126.662 192.793C126.716 192.771 126.78 192.75 126.834 192.728C126.952 192.686 127.08 192.664 127.198 192.654L127.166 192.204C113.416 193.306 99.698 194.846 86.0444 196.835C62.6887 200.236 39.5366 204.974 16.7485 211.102C14.5853 211.69 12.4221 212.278 10.259 212.888C10.2162 213.091 10.1733 213.305 10.1305 213.508C10.0877 213.711 10.0448 213.925 10.0127 214.128C10.6766 214.513 11.3513 214.898 12.0259 215.273C33.5825 209.252 55.4818 204.482 77.5845 200.91C86.0016 199.552 94.44 198.375 102.9 197.37C103.157 197.199 103.403 197.028 103.66 196.867C103.917 196.696 104.174 196.536 104.421 196.365C104.463 196.343 104.506 196.311 104.538 196.3C104.752 196.204 104.956 196.193 105.127 196.258C105.256 196.3 105.363 196.375 105.459 196.461C105.513 196.514 105.566 196.578 105.609 196.653C105.684 196.771 105.727 196.899 105.759 197.038C112.548 196.268 119.359 195.595 126.181 195.038C126.116 194.803 126.041 194.568 125.966 194.333L125.977 194.343Z" fill="#1D1D1B"/>
<path d="M107.076 246.832L106.98 247.036C106.948 247.1 106.927 247.175 106.894 247.239C106.894 247.271 106.862 247.303 106.852 247.335C106.723 247.72 106.852 248.073 107.087 248.319C107.109 248.34 107.13 248.362 107.162 248.383C107.184 248.405 107.216 248.426 107.237 248.447C107.644 248.747 108.233 248.758 108.49 248.169C108.651 247.806 108.811 247.431 108.983 247.068C108.619 247.025 108.265 246.982 107.901 246.929C107.623 246.897 107.344 246.865 107.066 246.822L107.076 246.832Z" fill="#1D1D1B"/>
<path d="M106.98 247.036C106.948 247.1 106.916 247.175 106.894 247.239C106.894 247.271 106.862 247.303 106.852 247.346C106.852 247.314 106.873 247.282 106.894 247.25C106.927 247.185 106.948 247.111 106.98 247.046V247.036Z" fill="#1D1D1B"/>
<path d="M105.769 197.038C105.748 196.899 105.694 196.771 105.619 196.653C105.577 196.579 105.523 196.514 105.47 196.461C105.373 196.365 105.266 196.29 105.138 196.258C104.956 196.194 104.752 196.204 104.549 196.301C104.506 196.322 104.463 196.343 104.431 196.365C104.174 196.525 103.917 196.696 103.67 196.867C103.413 197.038 103.156 197.199 102.91 197.37C103.853 197.263 104.784 197.145 105.727 197.038H105.78H105.769Z" fill="#1D1D1B"/>
<path d="M94.879 205.369C98.2737 202.76 101.775 200.289 105.363 197.969C105.727 197.733 105.834 197.37 105.77 197.038H105.716C104.774 197.145 103.832 197.252 102.9 197.37C90.5741 205.562 79.3943 215.444 69.7993 226.705C67.0043 229.978 64.3486 233.368 61.832 236.865C61.907 236.886 61.982 236.908 62.0569 236.929C62.6031 237.1 63.1492 237.271 63.6953 237.442C72.4872 225.347 83.0352 214.502 94.879 205.369Z" fill="#1D1D1B"/>
<path d="M105.138 196.258C104.956 196.194 104.752 196.204 104.549 196.301C104.763 196.204 104.966 196.194 105.138 196.258Z" fill="#1D1D1B"/>
<path d="M104.549 196.3C104.549 196.3 104.463 196.343 104.431 196.364C104.174 196.525 103.917 196.696 103.671 196.867C103.928 196.696 104.185 196.536 104.431 196.364C104.474 196.332 104.517 196.311 104.549 196.3Z" fill="#1D1D1B"/>
<path d="M102.899 197.38C103.842 197.273 104.773 197.156 105.716 197.049" stroke="#1D1D1B" stroke-linecap="round" stroke-linejoin="round"/>
<path d="M89.1708 73.3973C88.9888 73.4187 88.8068 73.4508 88.6247 73.4722H88.5926C87.5324 73.6005 87.4253 75.1299 88.282 75.3117C88.3356 75.3224 88.3998 75.3331 88.4641 75.3331H88.5926C88.9888 75.2903 89.3743 75.2368 89.7598 75.1726C90.0168 75.1299 90.2739 75.0978 90.5416 75.055C91.2162 74.948 91.8909 74.8197 92.5548 74.6807C93.1438 74.563 93.722 74.4347 94.3003 74.285C94.4609 74.2529 94.6109 74.2101 94.7715 74.1673C93.9362 74.039 93.1009 73.9 92.2657 73.7609C91.8694 73.6968 91.4839 73.6219 91.0877 73.5577C90.6486 73.4829 90.2096 73.3973 89.7705 73.3118H89.7277C89.5457 73.3439 89.3636 73.3652 89.1816 73.3866H89.1708V73.3973Z" fill="#1D1D1B"/>
<path d="M89.7606 75.1726C89.3751 75.2261 88.9789 75.2796 88.5934 75.333C88.9896 75.2903 89.3751 75.2368 89.7713 75.1726H89.7606Z" fill="#1D1D1B"/>
<path d="M41.3144 54.4572C41.3144 54.4572 41.2823 54.5428 41.2716 54.5856C41.1859 54.7888 41.1002 54.9813 41.0253 55.1845C40.779 55.7941 40.5648 56.4037 40.3613 57.024C43.7988 59.3019 47.3648 61.3981 51.0165 63.2696C62.7104 69.2693 75.3038 73.3333 88.1863 75.8145L88.2827 75.3118C87.426 75.13 87.5331 73.6007 88.5933 73.4723H88.6254C88.8074 73.4509 88.9895 73.4295 89.1715 73.3975C89.3536 73.3761 89.5356 73.344 89.7177 73.3226H89.7605C78.8484 71.2906 68.1397 68.1464 58.0414 63.5905C52.2266 60.9703 46.6259 57.8795 41.3465 54.3396C41.3465 54.361 41.3465 54.3824 41.3251 54.4038C41.3251 54.4252 41.3144 54.4465 41.3037 54.4679H41.3144V54.4572Z" fill="#1D1D1B"/>
<path d="M83.057 117.117C83.9673 116.539 83.8173 115.438 83.2284 114.871C83.1748 114.828 83.132 114.775 83.0677 114.743C82.6929 114.475 82.1789 114.401 81.6542 114.732C81.3865 114.903 81.1188 115.064 80.851 115.235C80.5833 115.406 80.3156 115.577 80.0586 115.748C80.3049 115.866 80.5512 115.983 80.7975 116.101C81.2901 116.336 81.7934 116.561 82.286 116.796C82.5323 116.914 82.7893 117.021 83.0356 117.138L83.057 117.117Z" fill="#1D1D1B"/>
<path d="M82.3066 116.775C82.5529 116.893 82.8099 116.999 83.0562 117.117C82.8099 117.01 82.5529 116.893 82.3066 116.775Z" fill="#1D1D1B"/>
<path d="M62.046 236.94C61.971 236.919 61.896 236.897 61.8211 236.876C61.8104 236.876 61.7997 236.908 61.789 236.919C61.7782 236.929 61.7675 236.951 61.7568 236.972C61.714 237.036 61.6819 237.101 61.6497 237.154C61.5105 237.475 61.6069 237.785 61.8318 237.999C62.2173 238.373 62.9455 238.469 63.3631 237.903C63.4167 237.828 63.4702 237.753 63.5238 237.678C63.5666 237.625 63.6094 237.571 63.6416 237.518C63.6523 237.496 63.6737 237.475 63.6844 237.453C63.1383 237.282 62.5921 237.111 62.046 236.94Z" fill="#1D1D1B"/>
<path d="M63.6416 237.507C63.599 237.56 63.5564 237.613 63.5244 237.666" stroke="#1D1D1B" stroke-linecap="round" stroke-linejoin="round"/>
<path d="M61.6497 237.154C61.5105 237.475 61.6069 237.785 61.8318 237.999C61.6176 237.785 61.5105 237.475 61.6497 237.154Z" fill="#1D1D1B"/>
<path d="M40.8003 53.623C40.7575 53.6978 40.7147 53.7834 40.6611 53.8689C40.6933 53.8903 40.7254 53.9117 40.7575 53.9331C40.9289 54.0507 41.1109 54.1684 41.2822 54.2967C41.3037 54.3074 41.3144 54.3181 41.3358 54.3288C41.4536 53.8689 41.3358 53.4412 41.0895 53.1096C41.0145 53.238 40.9396 53.3556 40.8753 53.4839C40.8539 53.5267 40.8218 53.5802 40.8003 53.623Z" fill="#1D1D1B"/>
<path d="M41.3145 54.4573C41.3145 54.4573 41.2824 54.5428 41.2609 54.5856C41.1753 54.7888 41.0896 54.9813 41.0146 55.1845C41.1003 54.9813 41.1753 54.7781 41.2609 54.5856C41.2824 54.5428 41.2931 54.5001 41.3038 54.4573H41.3145Z" fill="#1D1D1B"/>
<path d="M40.6612 53.8689C40.704 53.7833 40.7468 53.7085 40.8004 53.6229C40.8218 53.5801 40.8539 53.5374 40.8753 53.4839C40.9503 53.3555 41.0145 53.2379 41.0895 53.1096C41.036 53.0347 40.9717 52.9705 40.9075 52.8957L40.8432 52.8315C40.4363 52.4786 39.8687 52.3289 39.419 52.5428C39.3868 52.5534 39.3547 52.5748 39.3226 52.5962C39.2904 52.6176 39.2583 52.639 39.2369 52.6604C39.1941 52.6925 39.1512 52.7353 39.1084 52.778C39.6224 53.1416 40.1364 53.5053 40.6612 53.8582V53.8689Z" fill="#1D1D1B"/>
<path d="M40.9178 52.9065L40.8535 52.8423" stroke="#1D1D1B" stroke-linecap="round" stroke-linejoin="round"/>
<path d="M40.6611 53.869C40.704 53.7835 40.7468 53.7086 40.8003 53.623C40.7575 53.6979 40.704 53.7835 40.6611 53.869Z" fill="#1D1D1B"/>
<path d="M39.7932 55.4411C40.0823 54.9171 40.3715 54.393 40.6606 53.869C40.1359 53.5161 39.6219 53.1524 39.1078 52.7888C39.0115 52.8851 38.9258 53.0241 38.8615 53.1738C38.5403 53.9118 38.2511 54.6604 37.9941 55.4197C38.3154 55.6443 38.6474 55.8689 38.9686 56.0935C39.2899 56.0293 39.5897 55.8154 39.7932 55.4304V55.4411Z" fill="#1D1D1B"/>
<path d="M41.0141 55.1736C41.0998 54.9704 41.1748 54.7672 41.2604 54.5747C41.2819 54.5319 41.2926 54.4891 41.314 54.4464C41.314 54.425 41.3247 54.4036 41.3354 54.3822C41.3354 54.3608 41.3461 54.3394 41.3461 54.318C41.3461 54.318 41.314 54.2966 41.2926 54.2859C41.1212 54.1683 40.9392 54.0507 40.7678 53.9223C40.7357 53.9009 40.7036 53.8795 40.6715 53.8582C40.3716 54.3822 40.0825 54.9062 39.8041 55.4303C39.6006 55.8153 39.3008 56.0185 38.9795 56.0933C39.1187 56.1896 39.2686 56.2858 39.4078 56.3821C39.697 56.5746 39.9861 56.7778 40.2752 56.9596C40.2967 56.9703 40.3288 56.9917 40.3502 57.0131C40.543 56.3928 40.7678 55.7725 41.0141 55.1736Z" fill="#1D1D1B"/>
<path d="M40.2754 56.9705C40.2754 56.9705 40.3289 57.0025 40.3504 57.0239C40.3504 57.0239 40.2968 56.9918 40.2754 56.9705Z" fill="#1D1D1B"/>
<path d="M40.2756 56.9703C39.9865 56.7778 39.6973 56.5853 39.4082 56.3928" stroke="#1D1D1B" stroke-linecap="round" stroke-linejoin="round"/>
<path d="M39.333 52.6067C39.333 52.6067 39.3969 52.5748 39.4289 52.5535" stroke="#1D1D1B" stroke-linecap="round" stroke-linejoin="round"/>
<path d="M39.2362 52.6711C39.2362 52.6711 39.151 52.7457 39.1084 52.7882C39.1084 52.7882 39.1936 52.7031 39.2362 52.6711Z" fill="#1D1D1B"/>
<path d="M38.8622 53.1737C38.9265 53.0133 39.0122 52.8849 39.1085 52.7887C38.8622 52.6176 38.6266 52.4465 38.3803 52.2646C38.0484 52.8529 37.7164 53.4411 37.3951 54.04C37.2345 54.3287 37.1917 54.6175 37.2238 54.8741C37.4808 55.056 37.7378 55.2378 37.9948 55.4196C38.2518 54.6603 38.541 53.9116 38.8622 53.1737Z" fill="#1D1D1B"/>
<path d="M38.1232 55.9972C38.1232 55.9972 38.2196 56.04 38.2624 56.0507C38.498 56.1255 38.7336 56.1469 38.9692 56.0934C38.6372 55.8689 38.3159 55.6443 37.9947 55.4197C37.9518 55.5587 37.8983 55.7084 37.8555 55.8475C37.8555 55.8475 37.9197 55.8902 37.9518 55.9116C38.0054 55.9437 38.0589 55.9758 38.1232 55.9972Z" fill="#1D1D1B"/>
<path d="M37.2343 54.8743C37.2879 55.2807 37.5342 55.6229 37.8554 55.8475C37.8983 55.7085 37.9518 55.5587 37.9947 55.4197C37.7377 55.2379 37.4806 55.0561 37.2236 54.8743H37.2343Z" fill="#1D1D1B"/>
<path d="M38.38 52.2647C33.4326 48.7034 28.7958 44.7143 24.5551 40.3081C15.4313 30.854 8.14942 19.507 4.09083 6.96215C3.58752 5.41143 3.13775 3.83931 2.73082 2.25651C2.28106 0.534667 -0.396114 1.2619 0.053651 2.99444C3.41618 16.0847 10.1412 28.0948 18.9652 38.2975C24.3517 44.5325 30.5199 50.083 37.2342 54.8742C37.2021 54.6175 37.2449 54.3288 37.4056 54.04C37.7268 53.4411 38.0481 52.8529 38.3908 52.2647H38.38Z" fill="#1D1D1B"/>
<path d="M10.0122 214.128C9.93721 214.492 9.87296 214.845 9.8087 215.209C9.72304 215.636 9.50886 215.925 9.21973 216.064C10.1514 215.797 11.0937 215.529 12.0254 215.273C11.3508 214.898 10.6868 214.513 10.0122 214.128Z" fill="#1D1D1B"/>
<path d="M9.80913 215.208C9.87338 214.845 9.94834 214.492 10.0126 214.128C9.73417 213.968 9.44504 213.807 9.16661 213.636C8.79181 213.412 8.417 213.39 8.09574 213.497C7.61385 213.658 7.24975 214.096 7.13196 214.588C7.09983 214.802 7.13196 215.027 7.1855 215.241V215.262C7.4318 215.871 8.09574 216.224 8.69543 216.192H8.70614C8.70614 216.192 8.7811 216.192 8.81322 216.171C8.94173 216.139 9.07023 216.096 9.19874 216.064C9.48787 215.914 9.70204 215.636 9.78771 215.208H9.80913Z" fill="#1D1D1B"/>
<path d="M8.09567 213.497C8.41693 213.39 8.78103 213.412 9.16654 213.636C9.44496 213.797 9.7341 213.968 10.0125 214.128C10.0554 213.925 10.0982 213.711 10.1303 213.508C10.1732 213.305 10.216 213.091 10.2588 212.888C9.90544 212.984 9.55205 213.091 9.19866 213.187C8.84528 213.283 8.49189 213.39 8.1385 213.487C8.11709 213.487 8.10638 213.487 8.08496 213.487L8.09567 213.497Z" fill="#1D1D1B"/>
<path d="M8.14804 213.487C8.14804 213.487 8.11609 213.487 8.09479 213.487C8.06284 213.487 8.02023 213.508 7.98828 213.519C8.02023 213.519 8.06284 213.497 8.09479 213.487C8.11609 213.487 8.12674 213.487 8.14804 213.487Z" fill="#1D1D1B"/>
<path d="M8.17078 216.203C8.30999 216.235 8.47062 216.235 8.64196 216.203C8.66338 216.203 8.6848 216.203 8.70621 216.203C8.10653 216.235 7.44259 215.882 7.19629 215.272C7.28196 215.54 7.44259 215.797 7.65676 215.968C7.65676 215.968 7.66747 215.968 7.67818 215.968C7.6996 215.989 7.73172 216.01 7.76385 216.021C7.81739 216.053 7.88165 216.085 7.93519 216.117C7.93519 216.117 7.97802 216.139 7.99944 216.139C8.05298 216.16 8.10653 216.171 8.16007 216.182V216.203H8.17078Z" fill="#1D1D1B"/>
<path d="M8.09562 213.497C8.09562 213.497 8.02066 213.518 7.98853 213.529C7.95641 213.54 7.91357 213.551 7.88144 213.572C7.71011 213.647 7.5816 213.743 7.47451 213.861C7.43168 213.903 7.38884 213.957 7.35672 214C7.32459 214.053 7.29247 214.107 7.26034 214.16C7.19609 214.299 7.15325 214.438 7.13184 214.588C7.24963 214.096 7.61373 213.657 8.09562 213.497Z" fill="#1D1D1B"/>
<path d="M7.13174 214.599C7.13174 214.599 7.12103 214.663 7.11032 214.695C7.11032 214.727 7.09961 214.77 7.09961 214.802C7.09961 214.962 7.13174 215.112 7.18528 215.251C7.12103 215.037 7.09961 214.813 7.13174 214.599Z" fill="#1D1D1B"/>
<path d="M7.18512 215.251C7.13158 215.112 7.09945 214.963 7.09945 214.802C7.05662 215.23 7.21725 215.669 7.6563 215.968C7.44213 215.797 7.2815 215.54 7.19583 215.273V215.251H7.18512Z" fill="#1D1D1B"/>
<path d="M7.13174 214.599C7.15315 214.449 7.19599 214.299 7.26024 214.171C7.29237 214.118 7.31378 214.064 7.35662 214.011C7.38874 213.957 7.43158 213.914 7.47441 213.872C7.5815 213.754 7.72071 213.658 7.88134 213.583C7.91347 213.583 7.9456 213.551 7.98843 213.54C8.02056 213.54 8.06339 213.519 8.09552 213.508C8.11693 213.508 8.12764 213.508 8.14906 213.508C8.50245 213.412 8.85583 213.305 9.20922 213.209C9.56261 213.112 9.91599 213.005 10.2694 212.909C13.5784 197.07 20.1856 182.119 29.1167 168.623C38.1548 154.987 49.4418 142.913 61.9924 132.432C68.6639 126.871 75.7102 121.769 83.0671 117.139C82.8208 117.021 82.5638 116.914 82.3175 116.796C81.8141 116.572 81.3215 116.336 80.8289 116.101C80.5826 115.984 80.3363 115.866 80.0793 115.748C67.0897 124.101 54.9996 133.94 44.3658 145.148C32.7898 157.361 22.8735 171.286 15.9557 186.654C11.9506 195.552 8.9415 204.888 7.13174 214.481C7.11032 214.599 7.09961 214.706 7.09961 214.813C7.09961 214.781 7.09961 214.738 7.11032 214.706C7.11032 214.674 7.11032 214.642 7.13174 214.61V214.599Z" fill="#1D1D1B"/>
</g>
<defs>
<clipPath id="clip0_1718_8016">
<rect width="369" height="426" fill="white"/>
</clipPath>
</defs>
</svg>
